<svg width="16" height="16" viewBox="0 0 16 16" xmlns="http://www.w3.org/2000/svg"><path d="M5 2a1 1 0 0 0-1 1v4.5a.5.5 0 0 1-1 0V3c0-1.1.9-2 2-2h3.59c.4 0 .78.16 1.06.44l2.91 2.91c.28.28.44.67.44 1.06V7.5a.5.5 0 0 1-1 0V6H9.5A1.5 1.5 0 0 1 8 4.5V2H5Zm4 .2v2.3c0 .28.22.5.5.5h2.3L9 2.2ZM3.5 9c.28 0 .5.22.5.5v1a.5.5 0 0 1-1 0v-1c0-.28.22-.5.5-.5Zm9 0c.28 0 .5.22.5.5v1a.5.5 0 0 1-1 0v-1c0-.28.22-.5.5-.5Zm-9 3c.28 0 .5.22.5.5v.5a1 1 0 0 0 1 1h.5a.5.5 0 0 1 0 1H5a2 2 0 0 1-2-2v-.5c0-.28.22-.5.5-.5Zm9 0c.28 0 .5.22.5.5v.5a2 2 0 0 1-2 2h-.5a.5.5 0 0 1 0-1h.5a1 1 0 0 0 1-1v-.5c0-.28.22-.5.5-.5ZM7 14.5c0-.28.22-.5.5-.5h1a.5.5 0 0 1 0 1h-1a.5.5 0 0 1-.5-.5Z"/></svg>