<svg width="24" height="24" viewBox="0 0 24 24" xmlns="http://www.w3.org/2000/svg"><path d="M20 11.25a.75.75 0 0 1-1.5 0V10H14a2 2 0 0 1-2-2V3.5H6a.5.5 0 0 0-.5.5v7.25a.75.75 0 0 1-1.5 0V4c0-1.1.9-2 2-2h6.17a.6.6 0 0 1 .08 0l.06.01c.22.02.43.06.63.14l.16.09c.02 0 .04.02.05.03l.05.02.08.05a2.07 2.07 0 0 1 .3.25l5.83 5.82A2 2 0 0 1 20 9.75v1.5Zm-6.5-6.63V8c0 .28.22.5.5.5h3.38L13.5 4.62ZM4.75 13c.41 0 .75.34.75.75v2.5a.75.75 0 0 1-1.5 0v-2.5c0-.41.34-.75.75-.75Zm15.25.75a.75.75 0 0 0-1.5 0v2.5a.75.75 0 0 0 1.5 0v-2.5Zm-10.5 7.5c0-.41.34-.75.75-.75h3.5a.75.75 0 0 1 0 1.5h-3.5a.75.75 0 0 1-.75-.75Zm-4-2a.75.75 0 0 0-1.5 0V20c0 1.1.9 2 2 2h1.25a.75.75 0 0 0 0-1.5H6a.5.5 0 0 1-.5-.5v-.75Zm13.75-.75a.75.75 0 0 0-.75.75V20a.5.5 0 0 1-.5.5h-1.25a.75.75 0 0 0 0 1.5H18a2 2 0 0 0 2-2v-.75a.75.75 0 0 0-.75-.75Z"/></svg>