<svg width="24" height="24" viewBox="0 0 24 24" xmlns="http://www.w3.org/2000/svg"><path d="M18.25 3C17 3 16 4 16 5.25v5.92c.48-.11.98-.17 1.5-.17V5.25a.75.75 0 011.5 0v5.92c.53.13 1.03.32 1.5.56V5.25C20.5 4 19.5 3 18.25 3zM14 9.25v2.77c-.57.36-1.07.81-1.5 1.33v-4.1a.75.75 0 00-1.5 0v8.1a6.75 6.75 0 000 .3v1.1c0 .23.1.43.25.56.18.6.43 1.16.76 1.68l-.26.01c-1.24 0-2.25-1-2.25-2.25v-9.5a2.25 2.25 0 114.5 0zm-11 4a2.25 2.25 0 114.5 0v5.5a2.25 2.25 0 11-4.5 0v-5.5zm3 0a.75.75 0 00-1.5 0v5.5a.75.75 0 001.5 0v-5.5zm17 4.25a5.5 5.5 0 10-11 0 5.5 5.5 0 0011 0zm-5 .5v2.5a.5.5 0 11-1 0V18h-2.5a.5.5 0 010-1H17v-2.5a.5.5 0 111 0V17h2.5a.5.5 0 010 1H18z"/></svg>