<svg width="20" height="20" viewBox="0 0 20 20" xmlns="http://www.w3.org/2000/svg"><path d="M15 3a2 2 0 0 1 2 2v4.6c-.32-.16-.65-.3-1-.4V5a1 1 0 1 0-2 0v4.02c-.34.03-.68.1-1 .19V5c0-1.1.9-2 2-2ZM9.07 15.36c.09.57.26 1.1.5 1.6A2 2 0 0 1 8 15V8a2 2 0 1 1 4 0v1.6c-.36.18-.7.4-1 .66V8a1 1 0 1 0-2 0v7a1 1 0 0 0 .07.36ZM5 9a2 2 0 0 1 2 2v4a2 2 0 1 1-4 0v-4c0-1.1.9-2 2-2Zm1 2a1 1 0 1 0-2 0v4a1 1 0 1 0 2 0v-4Zm13 3.5a4.5 4.5 0 1 1-9 0 4.5 4.5 0 0 1 9 0Zm-4-2a.5.5 0 0 0-1 0V14h-1.5a.5.5 0 0 0 0 1H14v1.5a.5.5 0 0 0 1 0V15h1.5a.5.5 0 0 0 0-1H15v-1.5Z"/></svg>