<svg width="32" height="32" viewBox="0 0 32 32" xmlns="http://www.w3.org/2000/svg"><path d="M8 2a3 3 0 0 0-3 3v11a5.02 5.02 0 0 1 2-1.58V5a1 1 0 0 1 1-1h9v5a3 3 0 0 0 3 3h5v15a1 1 0 0 1-1 1h-7c0 .73-.2 1.41-.54 2H24a3 3 0 0 0 3-3V10.83a3 3 0 0 0-.88-2.12L20.3 2.88A3 3 0 0 0 18.17 2H8Zm16.59 8H20a1 1 0 0 1-1-1V4.41L24.59 10ZM5.5 19.5H5A2.5 2.5 0 0 0 2.5 22v6A2.5 2.5 0 0 0 5 30.5h8a2.5 2.5 0 0 0 2.5-2.5v-6a2.5 2.5 0 0 0-2.5-2.5h-.5V19a3.5 3.5 0 1 0-7 0v.5Zm2-.5a1.5 1.5 0 0 1 3 0v.5h-3V19Zm3.5 6a2 2 0 1 1-4 0 2 2 0 0 1 4 0Z"/></svg>