<svg width="24" height="24" viewBox="0 0 24 24" xmlns="http://www.w3.org/2000/svg"><path d="M22 6.5a5.5 5.5 0 11-11 0 5.5 5.5 0 0111 0zm-7.15-2.35a.5.5 0 00-.7.7l1.64 1.65-1.64 1.65a.5.5 0 00.7.7l1.65-1.64 1.65 1.64a.5.5 0 00.7-.7L17.21 6.5l1.64-1.65a.5.5 0 00-.7-.7L16.5 5.79l-1.65-1.64zM21 11.19c-.44.43-.95.8-1.5 1.08V14h-4.56a.7.7 0 00-.69.7v.05a2.25 2.25 0 01-4.5 0v-.06a.7.7 0 00-.7-.69H4.5V9.5h6.23a6.46 6.46 0 01-.56-1.5H4.5v-.75c0-.97.78-1.75 1.75-1.75h3.83c.08-.52.22-1.03.42-1.5H6.25A3.25 3.25 0 003 7.25v11.5C3 20.55 4.46 22 6.25 22h11.5c1.8 0 3.25-1.46 3.25-3.25v-7.56zm-1.5 4.31v3.25c0 .97-.78 1.75-1.75 1.75H6.25c-.97 0-1.75-.78-1.75-1.75V15.5h3.83a3.75 3.75 0 007.35 0h3.82z"/></svg>