<svg width="20" height="20" viewBox="0 0 20 20" xmlns="http://www.w3.org/2000/svg"><path d="M13.5 10a4.5 4.5 0 100-9 4.5 4.5 0 000 9zm1.85-6.35c.2.2.2.5 0 .7L14.21 5.5l1.14 1.15a.5.5 0 01-.7.7L13.5 6.21l-1.15 1.14a.5.5 0 01-.7-.7l1.14-1.15-1.14-1.15a.5.5 0 01.7-.7l1.15 1.14 1.15-1.14c.2-.2.5-.2.7 0zM8.21 4H6a3 3 0 00-3 3v8a3 3 0 003 3h8a3 3 0 003-3V9.74c-.3.26-.64.48-1 .66v.6h-3.5a.5.5 0 00-.5.5 2 2 0 11-4 0 .5.5 0 00-.5-.5H4V8h4.6c-.16-.32-.3-.65-.4-1H4c0-1.1.9-2 2-2h2.02c.03-.34.1-.68.19-1z"/></svg>