<svg width="24" height="24" viewBox="0 0 24 24" xmlns="http://www.w3.org/2000/svg"><path d="M16.5 17.99c0 2.44-1.14 4.2-3 4.2-.98 0-1.35-.55-1.7-1.8l-.2-.77a267.17 267.17 0 00-.56-1.9l-2.87-4.49a5.88 5.88 0 00-2.85-2.32l-.47-.18a2.75 2.75 0 01-1.72-3.1l.4-2.08A3.25 3.25 0 015.95 3l7.63-1.87a4.75 4.75 0 015.73 3.44l1.42 5.55a3.25 3.25 0 01-3.15 4.05h-1.83c.5 1.64.75 2.9.75 3.8zM4.6 7.92c-.11.6.21 1.19.78 1.4l.47.19a7.38 7.38 0 013.59 2.92l2.86 4.48c.1.14.16.3.2.46l.56 1.92.21.79a2 2 0 00.22.6c.87 0 1.51-.98 1.51-2.7 0-.88-.33-2.33-.98-4.31a.75.75 0 01.7-.99h2.86a1.75 1.75 0 001.7-2.18l-1.42-5.55a3.25 3.25 0 00-3.93-2.35L6.31 4.47c-.67.16-1.17.7-1.3 1.36l-.4 2.1z"/></svg>