<svg width="24" height="24" viewBox="0 0 24 24" xmlns="http://www.w3.org/2000/svg"><path d="M8.5 12.5a1 1 0 1 0 0 2 1 1 0 0 0 0-2Zm-1-2.5a1 1 0 1 0 2 0 1 1 0 0 0-2 0ZM12 5.5a1 1 0 1 0 0 2 1 1 0 0 0 0-2ZM4 4.25C4 3.01 5 2 6.25 2h8c1.24 0 2.25 1 2.25 2.25V9.5h1.25c1.25 0 2.25 1 2.25 2.25v1.35c-.44.13-.83.36-1.15.66a3.25 3.25 0 1 0-5.44 3.25c-1.47.11-2.41 1.49-2.41 2.86 0 .55.1 1.1.32 1.63H4.75a.75.75 0 0 1-.75-.75V4.25ZM8.5 5.5a1 1 0 1 0 0 2 1 1 0 0 0 0-2ZM11 10a1 1 0 1 0 2 0 1 1 0 0 0-2 0Zm7 4.75a2.25 2.25 0 1 1-4.5 0 2.25 2.25 0 0 1 4.5 0Zm1.5 5.13c0 1.55-1.07 3.12-3.75 3.12-2.68 0-3.75-1.56-3.75-3.13 0-1.03.72-1.87 1.6-1.87h4.3c.88 0 1.6.84 1.6 1.88Zm1.25-2.38a1.75 1.75 0 1 0 0-3.5 1.75 1.75 0 0 0 0 3.5Zm-.25 2.38c0 .71-.18 1.46-.58 2.12H20c2.15 0 3-1.1 3-2.19a1.3 1.3 0 0 0-1.28-1.31h-1.54c.2.42.32.9.32 1.38Z"/></svg>