<svg width="16" height="16" viewBox="0 0 16 16" xmlns="http://www.w3.org/2000/svg"><path d="m10.88.28.35 1.07a2.2 2.2 0 0 0 1.4 1.4l1.07.35h.02a.42.42 0 0 1 0 .8l-1.07.35a2.2 2.2 0 0 0-1.4 1.4l-.35 1.07a.42.42 0 0 1-.8 0l-.35-1.07a2.2 2.2 0 0 0-1.4-1.4L7.28 3.9a.42.42 0 0 1 0-.8l1.07-.35a2.2 2.2 0 0 0 1.38-1.4l.35-1.07a.42.42 0 0 1 .8 0Zm4.9 7.93-.76-.25a1.58 1.58 0 0 1-1-1l-.25-.76a.3.3 0 0 0-.57 0l-.25.77a1.58 1.58 0 0 1-.98 1l-.77.24a.3.3 0 0 0 0 .57l.77.25a1.58 1.58 0 0 1 1 1l.24.77a.3.3 0 0 0 .58 0l.24-.77a1.58 1.58 0 0 1 1-1l.77-.24a.3.3 0 0 0 0-.57h-.02ZM13.5 12c-.19 0-.38-.04-.55-.12A1.5 1.5 0 0 1 11.5 13H11v-2h1.23l-.21-.65a.52.52 0 0 0-.14-.22.63.63 0 0 0-.2-.13H11v-.23l-.1-.03c-.28-.1-.5-.26-.66-.48a1.3 1.3 0 0 1-.12-1.3 1.32 1.32 0 0 1-.45-.22 1.51 1.51 0 0 1-.52-.69L8.8 5.96a1.27 1.27 0 0 0-.29-.47v.01A.5.5 0 0 1 8 6H5a.5.5 0 0 1 0-1h2.43l-.46-.15A1.41 1.41 0 0 1 6 3.5a1.4 1.4 0 0 1 .95-1.35L7.43 2H3.75C2.78 2 2 2.78 2 3.75v7.75A2.5 2.5 0 0 0 4.5 14h7a2.5 2.5 0 0 0 2.46-2.07c-.14.05-.3.07-.46.07ZM5 7.5h3a.5.5 0 0 1 0 1H5a.5.5 0 0 1 0-1Zm-.5 3c0-.28.22-.5.5-.5h1.5a.5.5 0 0 1 0 1H5a.5.5 0 0 1-.5-.5Z"/></svg>