<svg width="16" height="16" viewBox="0 0 16 16" xmlns="http://www.w3.org/2000/svg"><path d="m10.88.28.35 1.07a2.2 2.2 0 0 0 1.4 1.4l1.07.35h.02a.42.42 0 0 1 0 .8l-1.07.35a2.2 2.2 0 0 0-1.4 1.4l-.35 1.07a.42.42 0 0 1-.8 0l-.35-1.07a2.2 2.2 0 0 0-1.4-1.4L7.28 3.9a.42.42 0 0 1 0-.8l1.07-.35a2.2 2.2 0 0 0 1.38-1.4l.35-1.07a.42.42 0 0 1 .8 0Zm4.9 7.93-.76-.25a1.58 1.58 0 0 1-1-1l-.25-.76a.3.3 0 0 0-.57 0l-.25.77a1.58 1.58 0 0 1-.98 1l-.77.24a.3.3 0 0 0 0 .57l.77.25a1.58 1.58 0 0 1 1 1l.24.77a.3.3 0 0 0 .58 0l.24-.77a1.58 1.58 0 0 1 1-1l.77-.24a.3.3 0 0 0 0-.57h-.02ZM13.5 12c-.17 0-.34-.03-.5-.1v.35c0 .41-.34.75-.75.75H11v-2h1.23l-.21-.65a.52.52 0 0 0-.14-.22.63.63 0 0 0-.2-.13H11v-.23l-.1-.03c-.28-.1-.5-.26-.66-.48A1.27 1.27 0 0 1 10 8.5V13H3.75a.75.75 0 0 1-.75-.75v-8.5c0-.41.34-.75.75-.75h2.34a1.42 1.42 0 0 1 .86-.85L7.43 2H3.75C2.78 2 2 2.78 2 3.75v8.5c0 .97.78 1.75 1.75 1.75h8.5c.97 0 1.75-.78 1.75-1.75v-.33c-.16.06-.33.08-.5.08ZM8.03 5.2l-.6-.2H5a.5.5 0 0 0 0 1h3a.5.5 0 0 0 .5-.5v-.01a1.3 1.3 0 0 0-.47-.3ZM5 7.5a.5.5 0 0 0 0 1h3a.5.5 0 0 0 0-1H5Zm-.5 3c0-.28.22-.5.5-.5h1.5a.5.5 0 0 1 0 1H5a.5.5 0 0 1-.5-.5Z"/></svg>