<svg width="20" height="20" viewBox="0 0 20 20" xmlns="http://www.w3.org/2000/svg"><path d="M14 4a4 4 0 0 1 3.52 5.9c-.42-.27-.87-.5-1.36-.64a2.5 2.5 0 0 0-2-3.75L14 5.5h-2a.75.75 0 0 1-.1-1.5H14ZM8 4a.75.75 0 0 1 .1 1.5H6a2.5 2.5 0 0 0-.16 5H8a.75.75 0 0 1 .1 1.5H6a4 4 0 0 1-.2-8H8ZM6.25 7.25h7.5a.75.75 0 0 1 .1 1.5h-7.6a.75.75 0 0 1-.1-1.5h.1ZM19 14.5a4.5 4.5 0 1 1-9 0 4.5 4.5 0 0 1 9 0Zm-2.73-1.06a.5.5 0 0 0-.7-.7l-1.07 1.05-1.06-1.06a.5.5 0 0 0-.7.7l1.05 1.07-1.06 1.06a.5.5 0 0 0 .7.7l1.07-1.05 1.06 1.06a.5.5 0 0 0 .7-.7l-1.05-1.07 1.06-1.06Z"/></svg>