<svg width="24" height="24" viewBox="0 0 24 24" xmlns="http://www.w3.org/2000/svg"><path d="M9 5a1 1 0 0 1 .12 2H7a3 3 0 0 0-.18 6H9a1 1 0 0 1 .12 2H7a5 5 0 0 1-.22-10H9Zm8 0a5 5 0 0 1 4.43 7.32 6.48 6.48 0 0 0-1.76-.95A3 3 0 0 0 17.17 7H15a1 1 0 0 1-.12-2H17ZM7 9h10a1 1 0 0 1 .12 2H7a1 1 0 0 1-.12-2H7Zm16 8.5a5.5 5.5 0 1 1-11 0 5.5 5.5 0 0 1 11 0Zm-7.15-2.35a.5.5 0 0 0-.7.7l1.64 1.65-1.64 1.65a.5.5 0 0 0 .7.7l1.65-1.64 1.65 1.64a.5.5 0 0 0 .7-.7l-1.64-1.65 1.64-1.65a.5.5 0 0 0-.7-.7l-1.65 1.64-1.65-1.64Z"/></svg>