<svg width="20" height="20" viewBox="0 0 20 20" xmlns="http://www.w3.org/2000/svg"><path d="M8 4a.5.5 0 0 1 .09 1H6a3 3 0 0 0-.2 6H8a.5.5 0 0 1 .09 1H6a4 4 0 0 1-.22-8H8Zm6 0a4 4 0 0 1 3.52 5.9 5.49 5.49 0 0 0-.88-.47 3 3 0 0 0-2.44-4.42L14 5h-2a.5.5 0 0 1-.09-1H14ZM6 7.5h8a.5.5 0 0 1 .09 1H6a.5.5 0 0 1-.09-1H6Zm13 7a4.5 4.5 0 1 1-9 0 4.5 4.5 0 0 1 9 0Zm-2.73-1.06a.5.5 0 0 0-.7-.7l-1.07 1.05-1.06-1.06a.5.5 0 0 0-.7.7l1.05 1.07-1.06 1.06a.5.5 0 0 0 .7.7l1.07-1.05 1.06 1.06a.5.5 0 0 0 .7-.7l-1.05-1.07 1.06-1.06Z"/></svg>