<svg width="28" height="28" viewBox="0 0 28 28" xmlns="http://www.w3.org/2000/svg"><path d="M14 4a6.5 6.5 0 0 0-6.48 6h-.27a4.75 4.75 0 1 0 0 9.5H13c0-.51.05-1.02.15-1.5h-5.9a3.25 3.25 0 0 1 0-6.5h1c.41 0 .75-.34.75-.75v-.25a5 5 0 0 1 10 0v.25c0 .41.34.75.75.75h1c.9 0 1.7.36 2.29.94.88.32 1.68.8 2.37 1.4A4.75 4.75 0 0 0 20.75 10h-.27A6.5 6.5 0 0 0 14 4Zm13 15.5a6.5 6.5 0 1 1-13 0 6.5 6.5 0 0 1 13 0ZM20.5 16a.5.5 0 0 0-.5.5v4a.5.5 0 0 0 1 0v-4a.5.5 0 0 0-.5-.5Zm0 7.13a.62.62 0 1 0 0-1.25.62.62 0 0 0 0 1.25Z"/></svg>