<svg width="32" height="32" viewBox="0 0 32 32" xmlns="http://www.w3.org/2000/svg"><path d="M16 3a7.64 7.64 0 0 0-6.15 2.74 8.4 8.4 0 0 0-1.8 4.3C3.94 10.48 2 13.65 2 16a5.9 5.9 0 0 0 1.37 3.9C4.48 21.19 6.3 22 9 22h4.51a9 9 0 0 1 16.37-4.66c.08-.43.12-.88.12-1.34 0-1.89-.94-3.41-2.26-4.44a7.73 7.73 0 0 0-3.78-1.5 7.46 7.46 0 0 0-2.7-5.2A8.46 8.46 0 0 0 16 3Zm14 19.5a7.5 7.5 0 1 0-15 0 7.5 7.5 0 0 0 15 0Zm-6.75-4.25v5.5a.75.75 0 0 1-1.5 0v-5.5a.75.75 0 0 1 1.5 0Zm.25 8.25a1 1 0 1 1-2 0 1 1 0 0 1 2 0Z"/></svg>