<svg width="16" height="16" viewBox="0 0 16 16" xmlns="http://www.w3.org/2000/svg"><path d="M2.5 2a.5.5 0 0 0 0 1h11a.5.5 0 0 0 0-1h-11ZM11 6h2.5c.28 0 .5.22.5.5V10h-3V6Zm-9 .5c0-.28.22-.5.5-.5H5v4H2V6.5ZM6 10V7.41c.16.06.33.09.5.09a1.5 1.5 0 1 0 3 0c.17 0 .34-.03.5-.09V10H6Zm-1 1H2v.5A2.5 2.5 0 0 0 4.5 14H5v-3Zm5 3v-3H6v3h4Zm1.5 0H11v-3h3v.5a2.5 2.5 0 0 1-2.5 2.5ZM9.85 6.35a.5.5 0 0 1-.7 0l-.65-.64V7.5a.5.5 0 0 1-1 0V5.7l-.65.65a.5.5 0 1 1-.7-.7l1.5-1.5c.2-.2.5-.2.7 0l1.5 1.5c.2.2.2.5 0 .7Z"/></svg>