<svg width="16" height="16" viewBox="0 0 16 16" xmlns="http://www.w3.org/2000/svg"><path d="M2.5 2a.5.5 0 0 0 0 1h11a.5.5 0 0 0 0-1h-11Zm9 12a2.5 2.5 0 0 0 2.5-2.5v-5a.5.5 0 0 0-.5-.5H11a1.5 1.5 0 0 1-1 1.41V10H6V7.41A1.5 1.5 0 0 1 5 6H2.5a.5.5 0 0 0-.5.5v5A2.5 2.5 0 0 0 4.5 14h7ZM3 10V7h2v3H3Zm8-3h2v3h-2V7Zm-1 6H6v-2h4v2Zm-5 0h-.5A1.5 1.5 0 0 1 3 11.5V11h2v2Zm6 0v-2h2v.5c0 .83-.67 1.5-1.5 1.5H11ZM9.85 6.35a.5.5 0 0 1-.7 0l-.65-.64V7.5a.5.5 0 0 1-1 0V5.7l-.65.65a.5.5 0 1 1-.7-.7l1.5-1.5c.2-.2.5-.2.7 0l1.5 1.5c.2.2.2.5 0 .7Z"/></svg>