<svg width="24" height="24" viewBox="0 0 24 24" xmlns="http://www.w3.org/2000/svg"><path d="M21 17.75c0 1.8-1.46 3.25-3.25 3.25H6.25A3.25 3.25 0 0 1 3 17.75v-.25h6.65l1.19 1.06c.66.59 1.66.59 2.32 0l1.2-1.06H21v.25ZM8.44 14.09c.47-.53 1.18-.7 1.81-.52v-3.14A1.75 1.75 0 0 1 8.17 8H3v8h5.17c-.3-.62-.2-1.37.27-1.91Zm5.31-3.66v3.14A1.75 1.75 0 0 1 15.83 16H21V8h-5.17a1.75 1.75 0 0 1-2.08 2.43Zm.6-3.93H21v-.25C21 4.45 19.54 3 17.75 3H6.25A3.25 3.25 0 0 0 3 6.25v.25h6.65l1.19-1.06a1.75 1.75 0 0 1 2.32 0l1.2 1.06Zm-1.6 9.08V8.42l1 .9a.75.75 0 0 0 1-1.13l-2.25-2a.75.75 0 0 0-1 0l-2.25 2a.75.75 0 1 0 1 1.12l1-.89v7.16l-1-.89a.75.75 0 1 0-1 1.12l2.25 2 .01.01a.75.75 0 0 0 1-.01l2.24-2a.75.75 0 0 0-1-1.12l-1 .89Z"/></svg>