<svg width="28" height="28" viewBox="0 0 28 28" xmlns="http://www.w3.org/2000/svg"><path d="M14.75 9.42v9.16l1-.89a.75.75 0 0 1 1 1.12l-2.25 2a.75.75 0 0 1-.99.01l-2.26-2a.75.75 0 1 1 1-1.13l1 .89V9.42l-1 .9a.75.75 0 0 1-1-1.13l2.25-2a.75.75 0 0 1 1 0l2.25 2a.75.75 0 0 1-1 1.12l-1-.89ZM6.75 3A3.75 3.75 0 0 0 3 6.75v14.5A3.75 3.75 0 0 0 6.75 25h14.5A3.75 3.75 0 0 0 25 21.25V6.75A3.75 3.75 0 0 0 21.25 3H6.75Zm14.5 1.5c1.24 0 2.25 1 2.25 2.25v.75h-7.15l1.06.94c.18.16.32.35.42.56h5.67v10h-5.67c-.1.2-.24.4-.42.56l-1.06.94h7.15v.75c0 1.24-1 2.25-2.25 2.25H6.75c-1.24 0-2.25-1-2.25-2.25v-.75h7.15l-1.06-.94a1.75 1.75 0 0 1-.42-.56H4.5V9h5.67c.1-.2.24-.4.42-.56l1.06-.94H4.5v-.75c0-1.24 1-2.25 2.25-2.25h14.5Z"/></svg>