<svg width="28" height="28" viewBox="0 0 28 28" xmlns="http://www.w3.org/2000/svg"><path d="M15.11 25.72c-.4-.4-.74-.86-1.04-1.35-.65.08-1.34.13-2.07.13-5.11 0-8.5-2.11-8.5-4.79v-.85A1.5 1.5 0 0 1 5 17.5h8.62c.24-.54.53-1.04.88-1.5H5a3 3 0 0 0-3 3v.71C2 23.43 6.21 26 12 26c1.1 0 2.14-.1 3.11-.28ZM18 8A6 6 0 1 0 6 8a6 6 0 0 0 12 0ZM7.5 8a4.5 4.5 0 1 1 9 0 4.5 4.5 0 0 1-9 0ZM27 20.5a6.5 6.5 0 1 1-13 0 6.5 6.5 0 0 1 13 0Zm-1.5 0c0-1.11-.36-2.14-.97-2.97l-7 7a5 5 0 0 0 7.97-4.03Zm-9.03 2.97 7-7a5 5 0 0 0-7 7Z"/></svg>