<svg width="20" height="20" viewBox="0 0 20 20" xmlns="http://www.w3.org/2000/svg"><path d="M14 7a1 1 0 1 0 0-2 1 1 0 0 0 0 2Zm-2.87-5a2 2 0 0 0-1.43.58L3.02 9.25a2 2 0 0 0 0 2.83l4.95 4.95a2 2 0 0 0 2.03.49V16.4a1 1 0 0 1-1.32-.08l-4.95-4.95a1 1 0 0 1 0-1.41l6.68-6.67a1 1 0 0 1 .71-.29l4.9.03a1 1 0 0 1 .99 1v4.95a1 1 0 0 1-.29.7l-.14.15a3 3 0 0 1 .6.82l.25-.25A2 2 0 0 0 18 8.98V4.03a2 2 0 0 0-1.99-2L11.12 2Zm1.37 10v1H12a1 1 0 0 0-1 1v4a1 1 0 0 0 1 1h5a1 1 0 0 0 1-1v-4a1 1 0 0 0-1-1h-.5v-1a2 2 0 1 0-4 0Zm1 1v-1a1 1 0 1 1 2 0v1h-2Zm1 2.25a.75.75 0 1 1 0 1.5.75.75 0 0 1 0-1.5Z"/></svg>