<svg width="20" height="20" viewBox="0 0 20 20" xmlns="http://www.w3.org/2000/svg"><path d="M5.59 5.41 2.4 8.6a2 2 0 0 0 0 2.82L5.6 14.6a2 2 0 0 0 2.82 0l3.18-3.18a2 2 0 0 0 0-2.82L8.4 5.4a2 2 0 0 0-2.82 0ZM3.12 9.3 6.3 6.12a1 1 0 0 1 1.42 0l3.17 3.17a1 1 0 0 1 0 1.42L7.7 13.88a1 1 0 0 1-1.42 0L3.12 10.7a1 1 0 0 1 0-1.42Zm8.47 5.3-.88-.88.7-.71.88.88a1 1 0 0 0 1.42 0l3.17-3.17a1 1 0 0 0 0-1.42L13.7 6.12a1 1 0 0 0-1.42 0l-.88.88-.7-.7.88-.89a2 2 0 0 1 2.82 0L17.6 8.6a2 2 0 0 1 0 2.82L14.4 14.6a2 2 0 0 1-2.82 0Z"/></svg>