<svg width="24" height="24" viewBox="0 0 24 24" xmlns="http://www.w3.org/2000/svg"><path d="m13.73 17.73-1.02-1.02 1.06-1.06 1.02 1.02a1 1 0 0 0 1.42 0l3.96-3.96a1 1 0 0 0 0-1.42l-3.96-3.96a1 1 0 0 0-1.42 0l-1.02 1.02L12.7 7.3l1.02-1.02a2.5 2.5 0 0 1 3.54 0l3.96 3.96a2.5 2.5 0 0 1 0 3.54l-3.96 3.96a2.5 2.5 0 0 1-3.54 0Zm-7-11.46-3.96 3.96a2.5 2.5 0 0 0 0 3.54l3.96 3.96a2.5 2.5 0 0 0 3.54 0l3.96-3.96a2.5 2.5 0 0 0 0-3.54l-3.96-3.96a2.5 2.5 0 0 0-3.54 0Zm-2.9 5.02 3.96-3.96a1 1 0 0 1 1.42 0l3.96 3.96a1 1 0 0 1 0 1.42l-3.96 3.96a1 1 0 0 1-1.42 0l-3.96-3.96a1 1 0 0 1 0-1.42Z"/></svg>