<svg width="24" height="24" viewBox="0 0 24 24" xmlns="http://www.w3.org/2000/svg"><path d="M21 5.75A2.75 2.75 0 0 0 18.25 3H5.75A2.75 2.75 0 0 0 3 5.75v12.5A2.75 2.75 0 0 0 5.75 21h2.3a2.51 2.51 0 0 1 .16-1.5H5.75c-.69 0-1.25-.56-1.25-1.25V5.75c0-.69.56-1.25 1.25-1.25h12.5c.69 0 1.25.56 1.25 1.25v12.46a2.5 2.5 0 0 1 1.5-.16V5.75ZM6.75 11.5h7.5a.75.75 0 0 1 .1 1.5h-7.6a.75.75 0 0 1-.1-1.5h.1Zm10.5 4H6.65a.75.75 0 0 0 .1 1.5h10.6a.75.75 0 0 0-.1-1.5Zm-10.5-8h10.5a.75.75 0 0 1 .1 1.5H6.75a.75.75 0 0 1-.1-1.5h.1Zm5.25 13a1.5 1.5 0 1 1-3 0 1.5 1.5 0 0 1 3 0Zm3.5 1.5a1.5 1.5 0 1 0 0-3 1.5 1.5 0 0 0 0 3Zm5 0a1.5 1.5 0 1 0 0-3 1.5 1.5 0 0 0 0 3Z"/></svg>