<svg width="24" height="24" viewBox="0 0 24 24" xmlns="http://www.w3.org/2000/svg"><path d="M18.25 3A2.75 2.75 0 0121 5.75v12.3a2.51 2.51 0 00-2.94 1.9c0 .03-.03.05-.06.05a.06.06 0 01-.06-.05 2.5 2.5 0 00-4.88 0c0 .03-.03.05-.06.05a.06.06 0 01-.06-.05A2.5 2.5 0 008.05 21h-2.3A2.75 2.75 0 013 18.25V5.75A2.75 2.75 0 015.75 3h12.5zM15 12.25a.75.75 0 00-.75-.75h-7.6a.75.75 0 00.1 1.5h7.6a.75.75 0 00.65-.75zm2.25 3.25H6.65a.75.75 0 00.1 1.5h10.6a.75.75 0 00-.1-1.5zM18 8.25a.75.75 0 00-.75-.75H6.65a.75.75 0 00.1 1.5h10.6a.75.75 0 00.65-.75zM12 20.5a1.5 1.5 0 11-3 0 1.5 1.5 0 013 0zm3.5 1.5a1.5 1.5 0 100-3 1.5 1.5 0 000 3zm5 0a1.5 1.5 0 100-3 1.5 1.5 0 000 3z"/></svg>