<svg width="24" height="24" viewBox="0 0 24 24" xmlns="http://www.w3.org/2000/svg"><path d="M21 5.75A2.75 2.75 0 0018.25 3H5.75A2.75 2.75 0 003 5.75v12.5A2.75 2.75 0 005.75 21h2.3a2.51 2.51 0 01.16-1.5H5.75c-.69 0-1.25-.56-1.25-1.25V5.75c0-.69.56-1.25 1.25-1.25h12.5c.69 0 1.25.56 1.25 1.25v12.46a2.5 2.5 0 011.5-.16V5.75zM6.75 11.5h7.5a.75.75 0 01.1 1.5h-7.6a.75.75 0 01-.1-1.5h.1zm10.5 4H6.65a.75.75 0 00.1 1.5h10.6a.75.75 0 00-.1-1.5zm-10.5-8h10.5a.75.75 0 01.1 1.5H6.75a.75.75 0 01-.1-1.5h.1zm5.25 13a1.5 1.5 0 11-3 0 1.5 1.5 0 013 0zm3.5 1.5a1.5 1.5 0 100-3 1.5 1.5 0 000 3zm5 0a1.5 1.5 0 100-3 1.5 1.5 0 000 3z"/></svg>