<svg width="28" height="28" viewBox="0 0 28 28" xmlns="http://www.w3.org/2000/svg"><path d="M5.75 19A2.75 2.75 0 013 16.25v-4.5A2.75 2.75 0 015.75 9h16.5c.86 0 1.63.4 2.14 1.02-.57.05-1.12.26-1.6.6a1.24 1.24 0 00-.54-.12H18v4.86l-1.5 1.5V10.5h-5v7h4.36l-1.37 1.36-.13.14H5.75zM4.5 16.25c0 .69.56 1.25 1.25 1.25H10v-7H5.75c-.69 0-1.25.56-1.25 1.25v4.5zm18.6-4.58l-7.9 7.9c-.35.35-.6.78-.7 1.25l-.47 1.83c-.2.8.53 1.52 1.32 1.32l1.83-.46c.47-.12.9-.36 1.25-.7l7.9-7.9a2.29 2.29 0 00-3.23-3.24z"/></svg>