<svg width="16" height="16" viewBox="0 0 16 16" xmlns="http://www.w3.org/2000/svg"><path d="M2 4.5A2.5 2.5 0 0 1 4.5 2h7A2.5 2.5 0 0 1 14 4.5v.63a2.87 2.87 0 0 0-2.9.71L10 6.94V6H6v4h.94l-.67.67c-.4.41-.7.92-.84 1.49l-.37 1.5c-.03.11-.05.23-.06.34h-.5A2.5 2.5 0 0 1 2 11.5v-7ZM5 11H3v.5c0 .83.67 1.5 1.5 1.5H5v-2Zm0-5H3v4h2V6Zm1-1h4V3H6v2ZM5 3h-.5C3.67 3 3 3.67 3 4.5V5h2V3Zm8 2v-.5c0-.83-.67-1.5-1.5-1.5H11v2h2Zm-6.02 6.38 4.83-4.83a1.87 1.87 0 1 1 2.64 2.64l-4.83 4.83a2.2 2.2 0 0 1-1.02.58l-1.5.37a.89.89 0 0 1-1.07-1.07l.37-1.5c.1-.39.3-.74.58-1.02Z"/></svg>