<svg width="20" height="20" viewBox="0 0 20 20" xmlns="http://www.w3.org/2000/svg"><path d="M15.5 7A2.5 2.5 0 0118 9.33v.93c-.3-.26-.64-.48-1-.66v-.1c0-.78-.6-1.42-1.36-1.5H9.5c-.78 0-1.42.6-1.5 1.35v6.15c0 .78.6 1.42 1.35 1.5h.25c.18.36.4.7.66 1H9.5A2.5 2.5 0 017 15.66V9.5A2.5 2.5 0 019.33 7h6.17zm-2.84-3.3l.05.15.57 2.15h-1.03l-.5-1.89a1.5 1.5 0 00-1.7-1.1l-.14.04L4.1 4.6a1.5 1.5 0 00-1.1 1.7l.04.14 1.55 5.8a1.5 1.5 0 001.4 1.1v1a2.5 2.5 0 01-2.31-1.68l-.05-.17-1.56-5.8a2.5 2.5 0 011.61-3l.16-.05 5.8-1.56a2.5 2.5 0 012.95 1.46l.06.15zM19 14.5a4.5 4.5 0 11-9 0 4.5 4.5 0 019 0zm-4-2a.5.5 0 00-1 0V14h-1.5a.5.5 0 100 1H14v1.5a.5.5 0 101 0V15h1.5a.5.5 0 100-1H15v-1.5z"/></svg>