<svg width="20" height="20" viewBox="0 0 20 20" xmlns="http://www.w3.org/2000/svg"><path d="M15.5 7A2.5 2.5 0 0 1 18 9.33v.93A5.5 5.5 0 0 0 10.26 18H9.5A2.5 2.5 0 0 1 7 15.66V9.5A2.5 2.5 0 0 1 9.34 7h6.16Zm-2.84-3.3.05.15L13.3 6H9a3 3 0 0 0-3 2.82V14.35a2.5 2.5 0 0 1-2.3-1.69l-.06-.17-1.55-5.8a2.5 2.5 0 0 1 1.6-3l.16-.05 5.8-1.56a2.5 2.5 0 0 1 2.96 1.46l.05.15ZM19 14.5a4.5 4.5 0 1 1-9 0 4.5 4.5 0 0 1 9 0Zm-4-2a.5.5 0 1 0-1 0V14h-1.5a.5.5 0 0 0 0 1H14v1.5a.5.5 0 1 0 1 0V15h1.5a.5.5 0 1 0 0-1H15v-1.5Z"/></svg>