<svg width="16" height="16" viewBox="0 0 16 16" xmlns="http://www.w3.org/2000/svg"><path d="M14.5 15a.5.5 0 0 0 0-1h-13a.5.5 0 0 0 0 1h13Zm0-7a.5.5 0 0 0 0-1h-13a.5.5 0 0 0 0 1h13ZM3 3.5C3 2.67 3.67 2 4.5 2h7c.83 0 1.5.67 1.5 1.5v1c0 .83-.67 1.5-1.5 1.5h-7A1.5 1.5 0 0 1 3 4.5v-1ZM4.5 3a.5.5 0 0 0-.5.5v1c0 .28.22.5.5.5h7a.5.5 0 0 0 .5-.5v-1a.5.5 0 0 0-.5-.5h-7Zm2 6C5.67 9 5 9.67 5 10.5v1c0 .83.67 1.5 1.5 1.5h3c.83 0 1.5-.67 1.5-1.5v-1c0-.83-.67-1.5-1.5-1.5h-3ZM6 10.5c0-.28.22-.5.5-.5h3c.28 0 .5.22.5.5v1a.5.5 0 0 1-.5.5h-3a.5.5 0 0 1-.5-.5v-1Z"/></svg>