<svg width="24" height="24" viewBox="0 0 24 24" xmlns="http://www.w3.org/2000/svg"><path d="M16.32 1h4.82a.5.5 0 01.44.75L19.75 5h1.5c.64 0 .98.76.56 1.24l-4.82 5.51c-.5.58-1.45.09-1.26-.66L16.5 8h-3a.5.5 0 01-.46-.71l2.82-6a.5.5 0 01.46-.29zM5.25 3h8.7l-.7 1.5h-8c-.97 0-1.75.78-1.75 1.75v8.5c0 .97.78 1.75 1.75 1.75H7.5v3.75l5.01-3.75h6.24c.97 0 1.75-.78 1.75-1.75v-5.5l1.5-1.7v7.2c0 1.8-1.46 3.25-3.25 3.25h-5.74L8 21.75a1.25 1.25 0 01-2-1V18h-.75A3.25 3.25 0 012 14.75v-8.5C2 4.45 3.46 3 5.25 3z"/></svg>