<svg width="20" height="20" viewBox="0 0 20 20" xmlns="http://www.w3.org/2000/svg"><path d="M12.61 7c.33 0 .56.3.49.62l-.44 1.74c-.12.48.46.83.83.49l4.87-4.55a.75.75 0 00-.51-1.3h-.4a.5.5 0 01-.48-.66l.56-1.68a.5.5 0 00-.47-.66h-3.48a.5.5 0 00-.46.3l-2.08 5c-.14.34.1.7.46.7h1.11zm-.64 1h-.47a1.5 1.5 0 01-1.38-2.08L11.33 3H4.6A2.58 2.58 0 002 5.57v6.7a2.58 2.58 0 002.6 2.57h.6v2.17c0 .22.07.42.2.6a1 1 0 001.4.2l4.01-2.97h4.59c1.44 0 2.6-1.15 2.6-2.56V7l-3.83 3.58c-1.1 1.02-2.84-.01-2.48-1.46L11.97 8z"/></svg>