<svg width="16" height="16" viewBox="0 0 16 16" xmlns="http://www.w3.org/2000/svg"><path d="M7.09 13c.15.43.49.78.93.92-.32.05-.66.08-1.02.08-3.14 0-5-2.03-5-4v-.5C2 8.67 2.67 8 3.5 8h5.25l-.42 1H3.5a.5.5 0 0 0-.5.5v.5c0 1.44 1.43 3 4 3h.09ZM7 1.5A2.75 2.75 0 1 1 7 7a2.75 2.75 0 0 1 0-5.5Zm0 1A1.75 1.75 0 1 0 7 6a1.75 1.75 0 0 0 0-3.5ZM8.5 13h1.75l-.59 2.36c-.12.48.46.83.83.49l4.87-4.55a.75.75 0 0 0-.51-1.3h-1.1l.78-2.34a.5.5 0 0 0-.47-.66h-3.47a.5.5 0 0 0-.47.3l-2.08 5c-.14.34.1.7.46.7Z"/></svg>