<svg width="20" height="20" viewBox="0 0 20 20" xmlns="http://www.w3.org/2000/svg"><path d="M6 6a4 4 0 1 1 8 0 4 4 0 0 1-8 0Zm4-3a3 3 0 1 0 0 6 3 3 0 0 0 0-6ZM3 13a2 2 0 0 1 2-2h6.75l-.42 1H5.01A1 1 0 0 0 4 13c0 1.3.62 2.28 1.67 2.95A8.16 8.16 0 0 0 10 17h1.97l-.22.88c-.56.08-1.15.12-1.75.12a9.14 9.14 0 0 1-4.87-1.2A4.35 4.35 0 0 1 3 13Zm9.61 3c.33 0 .57.3.49.62l-.44 1.74c-.12.48.46.83.83.49l4.87-4.55a.75.75 0 0 0-.51-1.3h-.4a.5.5 0 0 1-.48-.66l.56-1.68a.5.5 0 0 0-.47-.66h-3.47a.5.5 0 0 0-.47.3l-2.08 5c-.14.34.1.7.46.7h1.11Z"/></svg>