<svg width="20" height="20" viewBox="0 0 20 20" xmlns="http://www.w3.org/2000/svg"><path d="M16.75 3a.75.75 0 0 1 .75.75v4.5a.75.75 0 0 1-1.5 0V5.56l-4.22 4.22c-.3.3-.77.3-1.06 0L9 8.06l-4.72 4.72a.75.75 0 0 1-1.06-1.06l5.25-5.25c.3-.3.77-.3 1.06 0l1.72 1.72 3.69-3.69h-2.69a.75.75 0 0 1 0-1.5h4.5Zm-4.68 8.44a2 2 0 0 1-1.44 2.48l-.46.12a4.74 4.74 0 0 0 .01 1.01l.35.09A2 2 0 0 1 12 17.66l-.13.42c.26.2.54.38.84.52l.32-.35a2 2 0 0 1 2.91 0l.34.36c.3-.13.57-.3.82-.5l-.15-.55a2 2 0 0 1 1.43-2.48l.46-.12a4.73 4.73 0 0 0-.01-1.01l-.35-.09A2 2 0 0 1 17 11.34l.13-.42c-.26-.2-.54-.38-.84-.52l-.32.35a2 2 0 0 1-2.91 0l-.34-.36c-.3.13-.57.3-.82.5l.16.55Zm2.43 4.06a1 1 0 1 1 0-2 1 1 0 0 1 0 2Z"/></svg>