<svg width="24" height="24" viewBox="0 0 24 24" xmlns="http://www.w3.org/2000/svg"><path d="m13.2 7.57 5.9-5.9a2.29 2.29 0 1 1 3.23 3.23l-5.9 5.9c-.34.35-.78.6-1.25.71l-1.83.46c-.8.2-1.52-.52-1.32-1.32l.46-1.83c.12-.47.36-.9.7-1.25Zm-.71-.7 4.5-4.5A2.24 2.24 0 0 0 15.75 2h-7.5C7.01 2 6 3 6 4.25v15.5C6 20.99 7 22 8.25 22h7.5c1.24 0 2.25-1 2.25-2.25v-9.1l-.86.86c-.48.47-1.07.8-1.72.97l-1.83.46c-1.52.38-2.9-1-2.53-2.53l.46-1.83c.16-.65.5-1.24.97-1.72ZM13.25 18a.75.75 0 0 1 0 1.5h-2.5a.75.75 0 0 1 0-1.5h2.5Z"/></svg>