<svg width="24" height="24" viewBox="0 0 24 24" xmlns="http://www.w3.org/2000/svg"><path d="m13.2 7.57 5.9-5.9a2.29 2.29 0 1 1 3.23 3.23l-5.9 5.9c-.34.35-.78.6-1.25.71l-1.83.46c-.8.2-1.52-.52-1.32-1.32l.46-1.83c.12-.47.36-.9.7-1.25ZM15.75 2c.46 0 .88.14 1.24.37L15.85 3.5l-.1-.01h-7.5a.75.75 0 0 0-.75.75v15.5c0 .41.34.75.75.75h7.5c.41 0 .75-.34.75-.75v-7.73c.23-.14.44-.31.64-.5l.86-.87v9.1c0 1.24-1 2.25-2.25 2.25h-7.5C7.01 22 6 21 6 19.75V4.25C6 3.01 7 2 8.25 2h7.5Zm-2.5 15.5a.75.75 0 0 1 0 1.5h-2.5a.75.75 0 0 1 0-1.5h2.5Z"/></svg>