<svg width="24" height="24" viewBox="0 0 24 24" xmlns="http://www.w3.org/2000/svg"><path d="M17 1.65a.75.75 0 00-.75-.65h-.1l-.1.03a.75.75 0 00-.55.72V4h-1.75V1.65A.75.75 0 0013 1h-.1a.75.75 0 00-.65.75V4H10.5V1.65a.75.75 0 00-1.5.1v2.32A3.75 3.75 0 006.08 7H3.65a.75.75 0 00-.65.75v.1c.06.37.37.65.75.65H6v1.75H3.65A.75.75 0 003 11v.1c.03.16.1.3.2.4a5.5 5.5 0 017.6 6.5h1.45v2.35c.06.37.37.65.75.65h.1a.75.75 0 00.65-.75V18h1.75v2.35a.75.75 0 001.5-.1v-2.33A3.75 3.75 0 0019.92 15h2.43a.75.75 0 00.65-.75v-.1a.75.75 0 00-.75-.65H20v-1.75h2.35A.75.75 0 0023 11v-.1a.75.75 0 00-.75-.65H20V8.5h2.35a.75.75 0 00-.1-1.5h-2.32A3.75 3.75 0 0017 4.08V1.65zM10 11a3 3 0 116 0 3 3 0 01-6 0zm4.5 0a1.5 1.5 0 10-3 0 1.5 1.5 0 003 0zm-9 10c.97 0 1.87-.3 2.6-.83l2.62 2.61a.75.75 0 101.06-1.06l-2.61-2.61A4.5 4.5 0 105.5 21zm0-1.5a3 3 0 110-6 3 3 0 010 6z"/></svg>