<svg width="24" height="24" viewBox="0 0 24 24" xmlns="http://www.w3.org/2000/svg"><path d="M17 1.65a.75.75 0 0 0-.75-.65h-.1l-.1.03a.75.75 0 0 0-.55.72V4h-1.75V1.65A.75.75 0 0 0 13 1h-.1a.75.75 0 0 0-.65.75V4H10.5V1.65a.75.75 0 0 0-1.5.1v2.32A3.75 3.75 0 0 0 6.08 7H3.65a.75.75 0 0 0-.65.75v.1c.06.37.37.65.75.65H6v1.75H3.65A.75.75 0 0 0 3 11v.1c.03.16.1.3.2.4a5.48 5.48 0 0 1 4.3-.13V7.75c0-1.24 1-2.25 2.25-2.25h6.5c1.24 0 2.25 1 2.25 2.25v6.5c0 1.24-1 2.25-2.25 2.25H11a5.5 5.5 0 0 1-.2 1.5h1.45v2.35c.06.37.37.65.75.65h.1a.75.75 0 0 0 .65-.75V18h1.75v2.35a.75.75 0 0 0 1.5-.1v-2.33A3.75 3.75 0 0 0 19.92 15h2.43a.75.75 0 0 0 .65-.75v-.1a.75.75 0 0 0-.75-.65H20v-1.75h2.35A.75.75 0 0 0 23 11v-.1a.75.75 0 0 0-.75-.65H20V8.5h2.35a.75.75 0 0 0-.1-1.5h-2.32A3.75 3.75 0 0 0 17 4.08V1.65ZM16 11a3 3 0 1 0-6 0 3 3 0 0 0 6 0Zm-4.5 0a1.5 1.5 0 1 1 3 0 1.5 1.5 0 0 1-3 0Zm-6 10c.97 0 1.87-.3 2.6-.83l2.62 2.61a.75.75 0 1 0 1.06-1.06l-2.61-2.61A4.5 4.5 0 1 0 5.5 21Zm0-1.5a3 3 0 1 1 0-6 3 3 0 0 1 0 6Z"/></svg>