<svg width="20" height="20" viewBox="0 0 20 20" xmlns="http://www.w3.org/2000/svg"><path d="M11 1a8 8 0 1 1 0 16v-1a7 7 0 1 0-7-7v.05c-.36.07-.7.23-.99.44A8 8 0 0 1 11 1Zm-.5 3a.5.5 0 0 1 .5.41V9h2.5a.5.5 0 0 1 .09 1H10.5a.5.5 0 0 1-.5-.41V4.5c0-.28.22-.5.5-.5ZM3 12v-.5c0-.83.67-1.5 1.5-1.5h2c.83 0 1.5.67 1.5 1.5v.5h.5c.83 0 1.5.67 1.5 1.5V15H8v-.5a.5.5 0 0 0-1 0v.5H4v-.5a.5.5 0 0 0-1 0v.5H1v-1.5c0-.83.67-1.5 1.5-1.5H3Zm1-.5v.5h3v-.5a.5.5 0 0 0-.5-.5h-2a.5.5 0 0 0-.5.5ZM8 16h2v1.5c0 .83-.67 1.5-1.5 1.5h-6A1.5 1.5 0 0 1 1 17.5V16h2v.5a.5.5 0 0 0 1 0V16h3v.5a.5.5 0 0 0 1 0V16Z"/></svg>