<svg width="20" height="20" viewBox="0 0 20 20" xmlns="http://www.w3.org/2000/svg"><path d="M6 6a4 4 0 1 1 8 0 4 4 0 0 1-8 0Zm4-3a3 3 0 1 0 0 6 3 3 0 0 0 0-6ZM3 13a2 2 0 0 1 2-2h9.05c-.3.29-.54.63-.71 1H5A1 1 0 0 0 4 13c0 1.3.62 2.28 1.67 2.95A8.16 8.16 0 0 0 10 17c1.1 0 2.13-.15 3-.43 0 .34.06.68.16 1-.96.29-2.03.43-3.16.43a9.14 9.14 0 0 1-4.87-1.2A4.35 4.35 0 0 1 3 13Zm12 .5a1.5 1.5 0 0 1 2.63-1 .5.5 0 0 0 .74-.65A2.5 2.5 0 0 0 14 13.5v3a2.5 2.5 0 1 0 1-2v-1Zm1.5 4.5a1.5 1.5 0 1 1 0-3 1.5 1.5 0 0 1 0 3Z"/></svg>