<svg width="16" height="16" viewBox="0 0 16 16" xmlns="http://www.w3.org/2000/svg"><path d="M6 1a2 2 0 0 0-2 2v6h1V3a1 1 0 0 1 1-1h3v2.5c0 .83.67 1.5 1.5 1.5H13v7a1 1 0 0 1-1 1h-1.34c-.17.37-.42.71-.71 1H12a2 2 0 0 0 2-2V5.41c0-.4-.16-.78-.44-1.06l-2.91-2.91A1.5 1.5 0 0 0 9.59 1H6Zm2.5 8.14c.36.11.7.28 1 .49V7.5a.5.5 0 0 0-1 0v1.64Zm3 3.86a.5.5 0 0 1-.5-.5v-3a.5.5 0 0 1 1 0v3a.5.5 0 0 1-.5.5Zm1.3-8h-2.3a.5.5 0 0 1-.5-.5V2.2L12.8 5Zm-9.3 5a2.5 2.5 0 0 0 0 5H4a.5.5 0 0 0 0-1h-.5a1.5 1.5 0 0 1 0-3H4a.5.5 0 0 0 0-1h-.5ZM7 10a.5.5 0 0 0 0 1h.5a1.5 1.5 0 0 1 0 3H7a.5.5 0 0 0 0 1h.5a2.5 2.5 0 0 0 0-5H7Zm-4 2.5c0-.28.22-.5.5-.5h4a.5.5 0 0 1 0 1h-4a.5.5 0 0 1-.5-.5Z"/></svg>