<svg width="16" height="16" viewBox="0 0 16 16" xmlns="http://www.w3.org/2000/svg"><path d="M4 3c0-1.1.9-2 2-2h3.59c.4 0 .78.16 1.06.44l2.91 2.91c.28.29.44.67.44 1.06V13a2 2 0 0 1-2 2H9.95c.3-.29.54-.63.71-1H12a1 1 0 0 0 1-1V6h-2.5A1.5 1.5 0 0 1 9 4.5V2H6a1 1 0 0 0-1 1v6H4V3Zm7.5 10a.5.5 0 0 1-.5-.5v-4a.5.5 0 0 1 1 0v4a.5.5 0 0 1-.5.5ZM6 6.5V9h1V6.5a.5.5 0 0 0-1 0ZM10.5 5h2.3L10 2.2v2.3c0 .28.22.5.5.5Zm-7 5a2.5 2.5 0 0 0 0 5H4a.5.5 0 0 0 0-1h-.5a1.5 1.5 0 0 1 0-3H4a.5.5 0 0 0 0-1h-.5ZM7 10a.5.5 0 0 0 0 1h.5a1.5 1.5 0 0 1 0 3H7a.5.5 0 0 0 0 1h.5a2.5 2.5 0 0 0 0-5H7Zm-4 2.5c0-.28.22-.5.5-.5h4a.5.5 0 0 1 0 1h-4a.5.5 0 0 1-.5-.5Z"/></svg>