<svg width="20" height="20" viewBox="0 0 20 20" xmlns="http://www.w3.org/2000/svg"><path d="M10 6.5V2H5.5C4.67 2 4 2.67 4 3.5V13h3V8.5a.5.5 0 0 1 1 0v4.54c.55.07 1.06.28 1.5.59V12.5a.5.5 0 0 1 1 0v2.2a3.48 3.48 0 0 1 .16 3.3h3.84c.83 0 1.5-.67 1.5-1.5V8h-4.5A1.5 1.5 0 0 1 10 6.5Zm2.5 3.5c.28 0 .5.22.5.5v5a.5.5 0 0 1-1 0v-5c0-.28.22-.5.5-.5ZM11 6.5V2.25L15.75 7H11.5a.5.5 0 0 1-.5-.5ZM3.5 14a2.5 2.5 0 0 0 0 5H4a.5.5 0 0 0 0-1h-.5a1.5 1.5 0 0 1 0-3H4a.5.5 0 0 0 0-1h-.5ZM7 14a.5.5 0 0 0 0 1h.5a1.5 1.5 0 0 1 0 3H7a.5.5 0 0 0 0 1h.5a2.5 2.5 0 0 0 0-5H7Zm-4 2.5c0-.28.22-.5.5-.5h4a.5.5 0 0 1 0 1h-4a.5.5 0 0 1-.5-.5Z"/></svg>