<svg width="24" height="24" viewBox="0 0 24 24" xmlns="http://www.w3.org/2000/svg"><path d="M12 8V2H6a2 2 0 0 0-2 2v10.56c.24-.04.5-.06.75-.06h3.5c1.14 0 2.18.4 3 1.07v-2.82a.75.75 0 0 1 1.5 0v4.98a4.74 4.74 0 0 1-.63 4.27H18a2 2 0 0 0 2-2V10h-6a2 2 0 0 1-2-2Zm3.25 6c.41 0 .75.34.75.75v3.5a.75.75 0 0 1-1.5 0v-3.5c0-.41.34-.75.75-.75ZM13.5 8V2.5l6 6H14a.5.5 0 0 1-.5-.5ZM12 19.25a3.75 3.75 0 0 0-3.75-3.75h-.1a.75.75 0 0 0 .1 1.5h.15a2.25 2.25 0 0 1-.15 4.5l-.1.01a.75.75 0 0 0 .1 1.5V23h.2A3.75 3.75 0 0 0 12 19.24Zm-6.5-3a.75.75 0 0 0-.75-.75h-.2a3.75 3.75 0 0 0 .2 7.5h.1a.75.75 0 0 0-.1-1.5H4.6a2.25 2.25 0 0 1 .15-4.5h.1a.75.75 0 0 0 .65-.75Zm3.5 3a.75.75 0 0 0-.75-.75h-3.6a.75.75 0 0 0 .1 1.5h3.6a.75.75 0 0 0 .65-.75Z"/></svg>