<svg width="24" height="24" viewBox="0 0 24 24" xmlns="http://www.w3.org/2000/svg"><path d="M8.75 11c.41 0 .75.34.75.75v2.92c-.4-.11-.82-.17-1.25-.17H8v-2.75c0-.41.34-.75.75-.75ZM5.5 14.5V4c0-.27.22-.5.5-.5h6V8c0 1.1.9 2 2 2h4.5v10a.5.5 0 0 1-.5.5h-5.17c-.14.55-.39 1.05-.7 1.5H18a2 2 0 0 0 2-2V9.83a2 2 0 0 0-.59-1.42l-1.17-1.17-.02-.02-4.85-4.85a1.25 1.25 0 0 0-.89-.37H6a2 2 0 0 0-2 2v10.56c.24-.04.5-.06.75-.06h.75Zm7.25 3.23v-2.98a.75.75 0 0 0-1.5 0v.82c.68.56 1.21 1.3 1.5 2.16Zm2.5-5.73c.41 0 .75.34.75.75v5.5a.75.75 0 0 1-1.5 0v-5.5c0-.41.34-.75.75-.75ZM13.5 4.62l3.88 3.88H14a.5.5 0 0 1-.5-.5V4.62ZM8.25 15.5a3.75 3.75 0 0 1 .2 7.5h-.2a.75.75 0 0 1-.1-1.49h.1v-.01A2.25 2.25 0 0 0 8.4 17h-.15a.75.75 0 0 1-.1-1.5h.1Zm-3.5 0a.75.75 0 0 1 .1 1.5h-.1a2.25 2.25 0 0 0-.15 4.5h.15a.75.75 0 0 1 .1 1.5h-.1a3.75 3.75 0 0 1-.2-7.5h.2Zm3.5 3a.75.75 0 0 1 .1 1.5h-3.6a.75.75 0 0 1-.1-1.5h3.6Z"/></svg>