<svg width="24" height="24" viewBox="0 0 24 24" xmlns="http://www.w3.org/2000/svg"><path d="M12 12c.41 0 .75.34.75.75v4.98a4.76 4.76 0 0 0-1.5-2.16v-2.82c0-.41.34-.75.75-.75Zm6 8.5h-5.17c-.14.55-.39 1.05-.7 1.5H18a2 2 0 0 0 2-2V9.83a2 2 0 0 0-.59-1.42L13.6 2.6a.5.5 0 0 0-.05-.04 2.07 2.07 0 0 0-.34-.25l-.05-.03-.05-.03-.16-.09c-.2-.08-.41-.12-.63-.14h-.06a.6.6 0 0 0-.08-.01H6a2 2 0 0 0-2 2v10.56c.24-.04.5-.06.75-.06h.75V4c0-.27.22-.5.5-.5h6V8c0 1.1.9 2 2 2h4.5v10a.5.5 0 0 1-.5.5Zm-2-5.75a.75.75 0 0 0-1.5 0v3.5a.75.75 0 0 0 1.5 0v-3.5Zm1.38-6.25H14a.5.5 0 0 1-.5-.5V4.62l3.88 3.88ZM12 19.25a3.75 3.75 0 0 0-3.75-3.75h-.1a.75.75 0 0 0 .1 1.5h.15a2.25 2.25 0 0 1-.15 4.5l-.1.01a.75.75 0 0 0 .1 1.5V23h.2A3.75 3.75 0 0 0 12 19.24Zm-6.5-3a.75.75 0 0 0-.75-.75h-.2a3.75 3.75 0 0 0 .2 7.5h.1a.75.75 0 0 0-.1-1.5H4.6a2.25 2.25 0 0 1 .15-4.5h.1a.75.75 0 0 0 .65-.75Zm3.5 3a.75.75 0 0 0-.75-.75h-3.6a.75.75 0 0 0 .1 1.5h3.6a.75.75 0 0 0 .65-.75Z"/></svg>