<svg width="32" height="32" viewBox="0 0 32 32" xmlns="http://www.w3.org/2000/svg"><path d="M17 2v7a3 3 0 0 0 3 3h7v15a3 3 0 0 1-3 3h-7.53a5.99 5.99 0 0 0 .53-8.47V19a1 1 0 1 0-2 0v1.04a5.98 5.98 0 0 0-2.5-.54H12V13a1 1 0 1 0-2 0v6.5H6.5c-.52 0-1.02.07-1.5.19V5a3 3 0 0 1 3-3h9Zm2 .12V9a1 1 0 0 0 1 1h6.88a3 3 0 0 0-.76-1.3L20.3 2.89A3 3 0 0 0 19 2.12ZM22 16a1 1 0 1 0-2 0v9a1 1 0 1 0 2 0v-9ZM8 22a1 1 0 0 0-1-1h-.5a4.5 4.5 0 1 0 0 9H7a1 1 0 1 0 0-2h-.5a2.5 2.5 0 0 1 0-5H7a1 1 0 0 0 1-1Zm4-1a1 1 0 1 0 0 2h.5a2.5 2.5 0 0 1 0 5H12a1 1 0 1 0 0 2h.5a4.5 4.5 0 1 0 0-9H12Zm-5 3.5a1 1 0 1 0 0 2h5a1 1 0 1 0 0-2H7Z"/></svg>