<svg width="32" height="32" viewBox="0 0 32 32" xmlns="http://www.w3.org/2000/svg"><path d="M17 9V2H8a3 3 0 0 0-3 3v15.58c.33-.05.66-.08 1-.08h6c1.1 0 2.12.3 3 .8V16a1 1 0 1 1 2 0v7.18a5.97 5.97 0 0 1-.13 6.82H24a3 3 0 0 0 3-3V12h-7a3 3 0 0 1-3-3Zm3 9a1 1 0 0 1 1 1v6a1 1 0 1 1-2 0v-6a1 1 0 0 1 1-1Zm-1-9V2.12a3 3 0 0 1 1.3.76l5.82 5.83a3 3 0 0 1 .76 1.29H20a1 1 0 0 1-1-1ZM7.5 23a1 1 0 0 0-1-1H6a4.5 4.5 0 1 0 0 9h.5a1 1 0 1 0 0-2H6a2.5 2.5 0 0 1 0-5h.5a1 1 0 0 0 1-1Zm4-1a1 1 0 1 0 0 2h.5a2.5 2.5 0 0 1 0 5h-.5a1 1 0 1 0 0 2h.5a4.5 4.5 0 1 0 0-9h-.5Zm-5 3.5a1 1 0 1 0 0 2h5a1 1 0 1 0 0-2h-5Z"/></svg>