<svg width="32" height="32" viewBox="0 0 32 32" xmlns="http://www.w3.org/2000/svg"><path d="M16 15a1 1 0 0 1 1 1v7.18a6.03 6.03 0 0 0-2-1.88V16a1 1 0 0 1 1-1Zm8 13h-6.19c-.19.73-.5 1.4-.94 2H24a3 3 0 0 0 3-3V10.83a3 3 0 0 0-.88-2.12L20.3 2.88A3 3 0 0 0 18.17 2H8a3 3 0 0 0-3 3v15.58c.33-.05.66-.08 1-.08h1V5a1 1 0 0 1 1-1h9v5a3 3 0 0 0 3 3h5v15a1 1 0 0 1-1 1Zm-3-9a1 1 0 1 0-2 0v6a1 1 0 1 0 2 0v-6Zm-1-9a1 1 0 0 1-1-1V4.41L24.59 10H20ZM7.5 23a1 1 0 0 0-1-1H6a4.5 4.5 0 1 0 0 9h.5a1 1 0 1 0 0-2H6a2.5 2.5 0 0 1 0-5h.5a1 1 0 0 0 1-1Zm4-1a1 1 0 1 0 0 2h.5a2.5 2.5 0 0 1 0 5h-.5a1 1 0 1 0 0 2h.5a4.5 4.5 0 1 0 0-9h-.5Zm-5 3.5a1 1 0 1 0 0 2h5a1 1 0 1 0 0-2h-5Z"/></svg>