<svg width="32" height="32" viewBox="0 0 32 32" xmlns="http://www.w3.org/2000/svg"><path d="M8 2a3 3 0 0 0-3 3v14.69c.48-.12.98-.19 1.5-.19H7V5a1 1 0 0 1 1-1h9v5a3 3 0 0 0 3 3h5v15a1 1 0 0 1-1 1h-6.04a6.02 6.02 0 0 1-1.5 2H24a3 3 0 0 0 3-3V10.83a3 3 0 0 0-.88-2.12L20.3 2.88A3 3 0 0 0 18.17 2H8Zm2 11v6.5h2V13a1 1 0 1 0-2 0Zm5 7.04c.77.36 1.45.87 2 1.5V19a1 1 0 1 0-2 0v1.04ZM24.59 10H20a1 1 0 0 1-1-1V4.41L24.59 10ZM21 15a1 1 0 0 1 1 1v9a1 1 0 1 1-2 0v-9a1 1 0 0 1 1-1ZM8 22a1 1 0 0 0-1-1h-.5a4.5 4.5 0 1 0 0 9H7a1 1 0 1 0 0-2h-.5a2.5 2.5 0 0 1 0-5H7a1 1 0 0 0 1-1Zm4-1a1 1 0 1 0 0 2h.5a2.5 2.5 0 0 1 0 5H12a1 1 0 1 0 0 2h.5a4.5 4.5 0 1 0 0-9H12Zm-5 3.5a1 1 0 1 0 0 2h5a1 1 0 1 0 0-2H7Z"/></svg>