<svg width="24" height="24" viewBox="0 0 24 24" xmlns="http://www.w3.org/2000/svg"><path d="M22 8a6 6 0 0 0-11.9-1.1 15.12 15.12 0 0 1-1.36 3.3l-2.52 2.52a.75.75 0 0 0 .28 1.24L4.46 16a2.5 2.5 0 0 0-1.42 4.53c.17.12.31.26.43.43A2.5 2.5 0 0 0 8 19.53l2.04-2.04a.75.75 0 0 0 1.24.29l2.52-2.52c.48-.29 1.48-.8 3.32-1.36A6 6 0 0 0 22 8Zm-12 7.41-3.12 3.12c-.29.3-.38.67-.38.97a1 1 0 0 1-1.81.58c-.21-.3-.48-.56-.77-.77a1 1 0 0 1 .58-1.81c.3 0 .67-.09.96-.38L8.58 14H10v1.41ZM16 3.5a4.5 4.5 0 0 1 .72 8.95 16.28 16.28 0 0 0-3.91 1.68l-1.31 1.3v-2.18a.75.75 0 0 0-.75-.75H8.56l1.3-1.3a16.12 16.12 0 0 0 1.71-4A4.5 4.5 0 0 1 16 3.5Z"/></svg>