<svg width="48" height="48" viewBox="0 0 48 48" xmlns="http://www.w3.org/2000/svg"><path d="M19 25.5a4.5 4.5 0 1 1-9 0 4.5 4.5 0 0 1 9 0Zm-2.5 0a2 2 0 1 0-4 0 2 2 0 0 0 4 0Z"/><path d="M10 15.25c0-.69.56-1.25 1.25-1.25h20.5a1.25 1.25 0 1 1 0 2.5h-20.5c-.69 0-1.25-.56-1.25-1.25Z"/><path d="M22.25 24.5a1.25 1.25 0 1 0 0 2.5h9.5a1.25 1.25 0 1 0 0-2.5h-9.5Z"/><path d="M10.75 5A5.75 5.75 0 0 0 5 10.75v21.5A5.75 5.75 0 0 0 10.75 38h21.5A5.75 5.75 0 0 0 38 32.25v-21.5A5.75 5.75 0 0 0 32.25 5h-21.5ZM7.5 10.75c0-1.8 1.46-3.25 3.25-3.25h21.5c1.8 0 3.25 1.46 3.25 3.25v21.5a3.24 3.24 0 0 1-3.25 3.25h-21.5a3.24 3.24 0 0 1-3.25-3.25v-21.5Z"/><path d="M15.25 42.5c-1.97 0-3.71-1-4.75-2.5h21.75A7.75 7.75 0 0 0 40 32.25V10.5a5.74 5.74 0 0 1 2.5 4.75v17c0 5.66-4.59 10.25-10.25 10.25h-17Z"/></svg>