<svg width="16" height="16" viewBox="0 0 16 16" xmlns="http://www.w3.org/2000/svg"><path d="M7.25 5.75a.75.75 0 1 1-1.5 0 .75.75 0 0 1 1.5 0Zm2 0a.75.75 0 1 1-1.5 0 .75.75 0 0 1 1.5 0Zm2 0a.75.75 0 1 1-1.5 0 .75.75 0 0 1 1.5 0Zm2 0a.75.75 0 1 1-1.5 0 .75.75 0 0 1 1.5 0ZM6.5 11a.75.75 0 1 0 0-1.5.75.75 0 0 0 0 1.5Zm2 0a.75.75 0 1 0 0-1.5.75.75 0 0 0 0 1.5Zm2 0a.75.75 0 1 0 0-1.5.75.75 0 0 0 0 1.5Zm2 0a.75.75 0 1 0 0-1.5.75.75 0 0 0 0 1.5ZM1 5.5A2.5 2.5 0 0 1 3.5 3h9A2.5 2.5 0 0 1 15 5.5v5a2.5 2.5 0 0 1-2.5 2.5h-9A2.5 2.5 0 0 1 1 10.5v-5ZM3.5 4C2.67 4 2 4.67 2 5.5v2h2V4h-.5ZM5 4v3.5h9v-2c0-.83-.67-1.5-1.5-1.5H5ZM4 8.5H2v2c0 .83.67 1.5 1.5 1.5H4V8.5ZM5 12h7.5c.83 0 1.5-.67 1.5-1.5v-2H5V12Z"/></svg>