<svg width="24" height="24" viewBox="0 0 24 24" xmlns="http://www.w3.org/2000/svg"><path d="M6 4H5a3 3 0 0 0-3 3v4.25h4V4Zm-4 8.75V17a3 3 0 0 0 3 3h1v-7.25H2ZM7.5 20H19a3 3 0 0 0 3-3v-4.25H7.5V20Zm3.75-3.75a1 1 0 1 1-2 0 1 1 0 0 1 2 0Zm2.75 0a1 1 0 1 1-2 0 1 1 0 0 1 2 0Zm3 0a1 1 0 1 1-2 0 1 1 0 0 1 2 0Zm3 0a1 1 0 1 1-2 0 1 1 0 0 1 2 0Zm2-5H7.5V4H19a3 3 0 0 1 3 3v4.25Zm-11.75-2.5a1 1 0 1 0 0-2 1 1 0 0 0 0 2Zm3.75-1a1 1 0 1 0-2 0 1 1 0 0 0 2 0Zm3 0a1 1 0 1 0-2 0 1 1 0 0 0 2 0Zm3 0a1 1 0 1 0-2 0 1 1 0 0 0 2 0Z"/></svg>