<svg width="16" height="16" viewBox="0 0 16 16" xmlns="http://www.w3.org/2000/svg"><path d="M12 10.8V13a1 1 0 0 1-1 1H3a1 1 0 0 1-1-1V8.88l4.76 2.56a.5.5 0 0 0 .48 0l1.4-.76a5.48 5.48 0 0 1-1.1-.54l-.54.3-5-2.7V7a1 1 0 0 1 1-1h2.02a5.57 5.57 0 0 1 0-1H3a2 2 0 0 0-2 2v6c0 1.1.9 2 2 2h8a2 2 0 0 0 2-2v-2.6c-.32.16-.65.3-1 .4ZM6 5.5a4.5 4.5 0 1 0 9 0 4.5 4.5 0 0 0-9 0Zm5.4-2.6c.2-.2.5-.2.7 0l1.75 1.75a.5.5 0 0 1 0 .7L12.1 7.1a.5.5 0 0 1-.7-.7l.9-.9h-1.55C9.78 5.5 9 6.28 9 7.25v.25a.5.5 0 0 1-1 0v-.25a2.75 2.75 0 0 1 2.75-2.75h1.54l-.9-.9a.5.5 0 0 1 0-.7Z"/></svg>