<svg width="24" height="24" viewBox="0 0 24 24" xmlns="http://www.w3.org/2000/svg"><path d="M10.81 13a2.76 2.76 0 00-1.41-1.5h5.85a.75.75 0 010 1.5h-4.44zm.78 1.25c.61.3 1.09.84 1.3 1.5h2.36a.75.75 0 000-1.5h-3.66zM15.25 17H13v1.5h2.25a.75.75 0 000-1.5zM5.5 4v7.25h-.75c-.26 0-.51.04-.75.1V4c0-1.1.9-2 2-2h6.17a.6.6 0 01.08 0l.06.01c.22.02.43.06.63.14l.16.09c.02 0 .04.02.05.03l.05.02.08.05a2.07 2.07 0 01.3.25l5.83 5.82A2 2 0 0120 9.83V20a2 2 0 01-2 2h-5.05c.03-.16.05-.33.05-.5v-1h5a.5.5 0 00.5-.5V10H14a2 2 0 01-2-2V3.5H6a.5.5 0 00-.5.5zm11.88 4.5L13.5 4.62V8c0 .28.22.5.5.5h3.38zM3 15h-.5c-.83 0-1.5.67-1.5 1.5V18h2.5v-.25a.75.75 0 011.5 0V18h3v-.25a.75.75 0 011.5 0V18H12v-1.5c0-.83-.67-1.5-1.5-1.5H10v-1c0-.97-.78-1.75-1.75-1.75h-3.5C3.78 12.25 3 13.03 3 14v1zm1.5-1c0-.14.11-.25.25-.25h3.5c.14 0 .25.11.25.25v1h-4v-1zM1 21.5v-2h2.5v.75a.75.75 0 001.5 0v-.75h3v.75a.75.75 0 001.5 0v-.75H12v2c0 .83-.67 1.5-1.5 1.5h-8A1.5 1.5 0 011 21.5z"/></svg>