<svg width="32" height="32" viewBox="0 0 32 32" xmlns="http://www.w3.org/2000/svg"><path d="M28.56 3.43c-1.9-1.9-5-1.9-6.91 0l-17.3 17.3a3.7 3.7 0 0 0-1 1.84l-1.33 6.22a1 1 0 0 0 1.19 1.19l6.22-1.34a3.7 3.7 0 0 0 1.84-1l2.1-2.1a9 9 0 0 1-.37-2.46l-3.14 3.15c-.24.23-.53.39-.85.46l-4.7 1 1-4.7c.07-.32.23-.62.46-.85L20.75 7.16l4.09 4.09L22.08 14a9 9 0 0 1 2.47.37l4.01-4.02c1.91-1.91 1.91-5 0-6.92Zm-5.5 1.42a2.89 2.89 0 0 1 4.09 4.08l-.9.9-4.09-4.08.9-.9ZM22 30.5a7.5 7.5 0 1 0 0-15 7.5 7.5 0 0 0 0 15Zm0-2a5.47 5.47 0 0 1-3.12-.97l7.65-7.65A5.5 5.5 0 0 1 22 28.5Zm3.12-10.03-7.65 7.65a5.5 5.5 0 0 1 7.65-7.65Z"/></svg>