<svg width="28" height="28" viewBox="0 0 28 28" xmlns="http://www.w3.org/2000/svg"><path d="M24.85 3.15a3.93 3.93 0 00-5.56 0L4.5 17.94c-.44.44-.76.98-.93 1.58l-1.54 5.53a.75.75 0 00.92.92l5.53-1.54c.6-.17 1.14-.5 1.58-.93l2-2a7.58 7.58 0 01.03-2.15L9 22.44c-.26.26-.58.44-.93.54l-4.24 1.19 1.19-4.24c.1-.35.28-.67.54-.93L17.75 6.8l3.44 3.44-2.84 2.84a7.55 7.55 0 012.14-.02l4.36-4.36a3.93 3.93 0 000-5.56zm-4.5 1.06a2.43 2.43 0 113.44 3.44l-1.54 1.54-3.44-3.44 1.54-1.54zM19.5 27a6.5 6.5 0 100-13 6.5 6.5 0 000 13zm0-1.5a4.98 4.98 0 01-2.97-.97l7-7a5 5 0 01-4.03 7.97zm2.97-9.03l-7 7a5 5 0 017-7z"/></svg>