<svg width="16" height="16" viewBox="0 0 16 16" xmlns="http://www.w3.org/2000/svg"><path d="M12.44 1.56a1.91 1.91 0 00-2.7 0l-7.4 7.4c-.18.18-.32.4-.4.64l-.91 2.74a.5.5 0 00.63.63l2.74-.91c.24-.08.46-.22.65-.4l.06-.06a5.53 5.53 0 01-.1-1.31l-.67.66a.65.65 0 01-.26.16l-1.79.6.6-1.8c.03-.09.08-.18.16-.25L9 3.71 10.3 5h-.01a5.58 5.58 0 011.3.11l.85-.84c.75-.75.75-1.96 0-2.7zm-2 .7a.91.91 0 111.3 1.3L11 4.3 9.7 3l.74-.73zM6 10.5a4.5 4.5 0 109 0 4.5 4.5 0 00-9 0zm1 0a3.5 3.5 0 015.6-2.8l-4.9 4.9a3.48 3.48 0 01-.7-2.1zm3.5 3.5c-.79 0-1.51-.26-2.1-.7l4.9-4.9a3.5 3.5 0 01-2.8 5.6z"/></svg>