<svg width="24" height="24" viewBox="0 0 24 24" xmlns="http://www.w3.org/2000/svg"><path d="M20.95 3.05a3.58 3.58 0 00-5.06 0L3.94 15c-.4.4-.7.92-.82 1.48l-1.1 4.6a.75.75 0 00.9.9l4.6-1.1A3.1 3.1 0 009 20.07l1.15-1.15a6.52 6.52 0 01-.12-2L7.94 19a1.6 1.6 0 01-.76.43l-3.42.8.82-3.4c.06-.3.21-.56.42-.77l10-10L17.94 9l-2.03 2.03a6.57 6.57 0 012 .12l3.04-3.04a3.58 3.58 0 000-5.06zm-4 1.06a2.08 2.08 0 112.94 2.94l-.89.89L16.06 5l.9-.9zM22 17.5a5.5 5.5 0 11-11 0 5.5 5.5 0 0111 0zm-9.5 0c0 .83.26 1.6.7 2.25l5.55-5.56a4 4 0 00-6.25 3.3zm4 4a4 4 0 003.3-6.25l-5.55 5.56c.64.44 1.42.69 2.25.69z"/></svg>