<svg width="48" height="48" viewBox="0 0 48 48" xmlns="http://www.w3.org/2000/svg"><path d="M41.97 6.03a6.9 6.9 0 00-9.76 0L8.04 30.2a6 6 0 00-1.57 2.76l-2.43 9.48a1.25 1.25 0 001.52 1.52l9.49-2.42a6 6 0 002.76-1.58l2.44-2.44a13.07 13.07 0 01-.23-3.3l-3.98 3.98c-.45.44-1 .76-1.61.91l-7.45 1.9 1.9-7.44c.16-.6.48-1.16.93-1.6L30 11.76 36.23 18l-4.02 4.02a13.2 13.2 0 013.31.22l6.45-6.45a6.9 6.9 0 000-9.76zm-8 1.76a4.4 4.4 0 016.24 6.24L38 16.23 31.77 10l2.2-2.2zM33 46a11 11 0 100-22 11 11 0 000 22zm0-2.5c-1.9 0-3.65-.62-5.06-1.67l11.89-11.9A8.5 8.5 0 0133 43.5zm5.06-15.33l-11.89 11.9a8.5 8.5 0 0111.9-11.9z"/></svg>