<svg width="24" height="24" viewBox="0 0 24 24" xmlns="http://www.w3.org/2000/svg"><path d="M22 6.5a5.5 5.5 0 1 1-11 0 5.5 5.5 0 0 1 11 0Zm-2.15-2.35a.5.5 0 0 0-.7 0L15.5 7.79l-1.65-1.64a.5.5 0 0 0-.7.7l2 2c.2.2.5.2.7 0l4-4a.5.5 0 0 0 0-.7Zm-.35 8.12V14h-4.6a.75.75 0 0 0-.65.75v.15a2.25 2.25 0 0 1-4.5-.15v-.1A.75.75 0 0 0 9 14H4.5V7.11c.08-.9.83-1.61 1.75-1.61h3.83c.08-.52.22-1.03.42-1.5H6.07A3.25 3.25 0 0 0 3 7.26v11.68A3.25 3.25 0 0 0 6.26 22h11.68A3.25 3.25 0 0 0 21 18.74v-7.56c-.44.43-.95.8-1.5 1.08Zm-15 6.48V15.5h3.83l.04.19A3.75 3.75 0 0 0 12 18.5h.2a3.75 3.75 0 0 0 3.48-3h3.82v3.39c-.08.9-.83 1.61-1.75 1.61H6.11c-.9-.08-1.61-.83-1.61-1.75Z"/></svg>