<svg width="20" height="20" viewBox="0 0 20 20" xmlns="http://www.w3.org/2000/svg"><path d="M11.5 4a1.5 1.5 0 0 0-3 0h3Zm-4 0a2.5 2.5 0 0 1 5 0h5a.5.5 0 0 1 0 1h-1.05l-.49 4.2a5.48 5.48 0 0 0-.98-.18L15.44 5H4.56l1.18 10.23A2 2 0 0 0 7.73 17H9.6c.18.36.4.7.66 1H7.73a3 3 0 0 1-2.98-2.66L3.55 5H2.5a.5.5 0 0 1 0-1h5Zm7 15a4.5 4.5 0 1 0 0-9 4.5 4.5 0 0 0 0 9Zm-.9-6.4-.9.9h1.55A2.75 2.75 0 0 1 17 16.25v.25a.5.5 0 0 1-1 0v-.25c0-.97-.78-1.75-1.75-1.75h-1.54l.9.9a.5.5 0 0 1-.71.7l-1.76-1.75a.5.5 0 0 1 0-.7l1.76-1.75a.5.5 0 0 1 .7.7Z"/></svg>