<svg width="20" height="20" viewBox="0 0 20 20" xmlns="http://www.w3.org/2000/svg"><path d="M10 1.25c1.43 0 2.61 1.1 2.74 2.5H17a.75.75 0 01.1 1.5H16.42l-.46 3.95a5.5 5.5 0 00-5.7 8.8H6.84a2 2 0 01-1.99-1.77L3.58 5.25H3a.75.75 0 01-.74-.65l-.01-.1c0-.38.28-.7.65-.74l.1-.01h4.26c.13-1.4 1.3-2.5 2.74-2.5zm0 1.5c-.6 0-1.1.43-1.23 1h2.46c-.12-.57-.63-1-1.23-1zM14.5 19a4.5 4.5 0 100-9 4.5 4.5 0 000 9zm-.9-6.4l-.9.9h1.55A2.75 2.75 0 0117 16.25v.25a.5.5 0 01-1 0v-.25c0-.97-.78-1.75-1.75-1.75h-1.54l.9.9a.5.5 0 01-.71.7l-1.76-1.75a.5.5 0 010-.7l1.76-1.75a.5.5 0 01.7.7z"/></svg>