<svg width="20" height="20" viewBox="0 0 20 20" xmlns="http://www.w3.org/2000/svg"><path d="M11.5 4a1.5 1.5 0 00-3 0h3zm-4 0a2.5 2.5 0 015 0H17a.5.5 0 010 1h-.55l-.49 4.2a5.48 5.48 0 00-.99-.18L15.44 5H4.56l1.28 11.11a1 1 0 001 .89H9.6c.18.36.4.7.66 1H6.84a2 2 0 01-1.99-1.77L3.55 5H3a.5.5 0 01-.5-.41V4.5c0-.28.22-.5.5-.5h4.5zm7 15a4.5 4.5 0 100-9 4.5 4.5 0 000 9zm-.9-6.4l-.9.9h1.55A2.75 2.75 0 0117 16.25v.25a.5.5 0 01-1 0v-.25c0-.97-.78-1.75-1.75-1.75h-1.54l.9.9a.5.5 0 01-.71.7l-1.76-1.75a.5.5 0 010-.7l1.76-1.75a.5.5 0 01.7.7z"/></svg>