<svg width="16" height="16" viewBox="0 0 16 16" xmlns="http://www.w3.org/2000/svg"><path d="M9 3a1 1 0 00-2 0h2zM6 3a2 2 0 114 0h4a.5.5 0 010 1h-.56l-.24 1.7c-.3-.16-.62-.3-.95-.42L12.43 4H3.57l1.19 8.7c.1.75.74 1.3 1.49 1.3.32.38.68.72 1.09 1h-1.1a2.5 2.5 0 01-2.47-2.16L2.57 4H2a.5.5 0 010-1h4zm4.5 12a4.5 4.5 0 100-9 4.5 4.5 0 000 9zm-.9-6.4l-.9.9h1.55A2.75 2.75 0 0113 12.25v.25a.5.5 0 01-1 0v-.25c0-.97-.78-1.75-1.75-1.75H8.71l.9.9a.5.5 0 01-.71.7l-1.76-1.75a.5.5 0 010-.7L8.9 7.9a.5.5 0 11.7.7z"/></svg>