<svg width="16" height="16" viewBox="0 0 16 16" xmlns="http://www.w3.org/2000/svg"><path d="M4.5 2a.5.5 0 0 1 0 1C3.67 3 3 3.67 3 4.5a.5.5 0 0 1-1 0A2.5 2.5 0 0 1 4.5 2Zm5 .5A.5.5 0 0 0 9 2H7a.5.5 0 0 0 0 1h2a.5.5 0 0 0 .5-.5Zm1.5 0c0 .28.22.5.5.5.83 0 1.5.67 1.5 1.5a.5.5 0 0 0 1 0A2.5 2.5 0 0 0 11.5 2a.5.5 0 0 0-.5.5ZM4.5 13a.5.5 0 0 1 0 1A2.5 2.5 0 0 1 2 11.5a.5.5 0 0 1 1 0c0 .83.67 1.5 1.5 1.5Zm-2-3.5A.5.5 0 0 0 3 9V7a.5.5 0 0 0-1 0v2c0 .28.22.5.5.5Zm8 5.5a4.5 4.5 0 1 0 0-9 4.5 4.5 0 0 0 0 9ZM8.9 7.9a.5.5 0 1 1 .7.7l-.9.9h1.55A2.75 2.75 0 0 1 13 12.25v.25a.5.5 0 0 1-1 0v-.25c0-.97-.78-1.75-1.75-1.75H8.71l.9.9a.5.5 0 0 1-.71.7l-1.76-1.75a.5.5 0 0 1 0-.7L8.9 7.9Z"/></svg>