<svg width="16" height="16" viewBox="0 0 16 16" xmlns="http://www.w3.org/2000/svg"><path d="M4.75 2a.75.75 0 010 1.5c-.69 0-1.25.56-1.25 1.25a.75.75 0 01-1.5 0A2.75 2.75 0 014.75 2zm4.75.75A.75.75 0 008.75 2h-1.5a.75.75 0 000 1.5h1.5c.41 0 .75-.34.75-.75zm1 0c0 .41.34.75.75.75.69 0 1.25.56 1.25 1.25a.75.75 0 001.5 0A2.75 2.75 0 0011.25 2a.75.75 0 00-.75.75zM4.75 12.5a.75.75 0 010 1.5A2.75 2.75 0 012 11.25a.75.75 0 011.5 0c0 .69.56 1.25 1.25 1.25zm-2-3c.41 0 .75-.34.75-.75v-1.5a.75.75 0 00-1.5 0v1.5c0 .41.34.75.75.75zM10.5 15a4.5 4.5 0 100-9 4.5 4.5 0 000 9zM8.9 7.9a.5.5 0 11.7.7l-.9.9h1.55A2.75 2.75 0 0113 12.25v.25a.5.5 0 01-1 0v-.25c0-.97-.78-1.75-1.75-1.75H8.71l.9.9a.5.5 0 01-.71.7l-1.76-1.75a.5.5 0 010-.7L8.9 7.9z"/></svg>