<svg width="20" height="20" viewBox="0 0 20 20" xmlns="http://www.w3.org/2000/svg"><path d="M6 3.5a.5.5 0 00-.5-.5A2.5 2.5 0 003 5.5a.5.5 0 001 0C4 4.67 4.67 4 5.5 4a.5.5 0 00.5-.5zM16.5 6a.5.5 0 00.5-.5A2.5 2.5 0 0014.5 3a.5.5 0 000 1c.83 0 1.5.67 1.5 1.5 0 .28.22.5.5.5zm-13 8a.5.5 0 00-.5.5A2.5 2.5 0 005.5 17a.5.5 0 000-1A1.5 1.5 0 014 14.5a.5.5 0 00-.5-.5zM3 9a.5.5 0 011 0v2a.5.5 0 01-1 0V9zm13.5-1.5a.5.5 0 00-.5.5v1.2c.35.1.68.24 1 .4V8a.5.5 0 00-.5-.5zM9.6 17c-.16-.32-.3-.65-.4-1H8a.5.5 0 000 1h1.6zM8.5 3.5c0-.28.22-.5.5-.5h2a.5.5 0 010 1H9a.5.5 0 01-.5-.5zm6 15.5a4.5 4.5 0 100-9 4.5 4.5 0 000 9zm-.9-6.4l-.9.9h1.55A2.75 2.75 0 0117 16.25v.25a.5.5 0 01-1 0v-.25c0-.97-.78-1.75-1.75-1.75h-1.54l.9.9a.5.5 0 01-.71.7l-1.76-1.75a.5.5 0 010-.7l1.76-1.75a.5.5 0 01.7.7z"/></svg>