<svg width="16" height="16" viewBox="0 0 16 16" xmlns="http://www.w3.org/2000/svg"><path d="M4.5 2a.5.5 0 010 1C3.67 3 3 3.67 3 4.5a.5.5 0 01-1 0A2.5 2.5 0 014.5 2zm5 .5A.5.5 0 009 2H7a.5.5 0 000 1h2a.5.5 0 00.5-.5zm1.5 0c0 .28.22.5.5.5.83 0 1.5.67 1.5 1.5a.5.5 0 001 0A2.5 2.5 0 0011.5 2a.5.5 0 00-.5.5zM4.5 13a.5.5 0 010 1A2.5 2.5 0 012 11.5a.5.5 0 011 0c0 .83.67 1.5 1.5 1.5zm-2-3.5A.5.5 0 003 9V7a.5.5 0 00-1 0v2c0 .28.22.5.5.5zm8 5.5a4.5 4.5 0 100-9 4.5 4.5 0 000 9zM8.9 7.9a.5.5 0 11.7.7l-.9.9h1.55A2.75 2.75 0 0113 12.25v.25a.5.5 0 01-1 0v-.25c0-.97-.78-1.75-1.75-1.75H8.71l.9.9a.5.5 0 01-.71.7l-1.76-1.75a.5.5 0 010-.7L8.9 7.9z"/></svg>