<svg width="16" height="16" viewBox="0 0 16 16" xmlns="http://www.w3.org/2000/svg"><path d="M4 4.5a2.5 2.5 0 114.89.74 5.5 5.5 0 00-2.62 1.75A2.5 2.5 0 014 4.5zM6.5 3a1.5 1.5 0 100 3 1.5 1.5 0 000-3zm4 12a4.5 4.5 0 100-9 4.5 4.5 0 000 9zm2.35-6.35c.2.2.2.5 0 .7l-3 3a.5.5 0 01-.7 0l-1-1a.5.5 0 01.7-.7l.65.64 2.65-2.64c.2-.2.5-.2.7 0zM5.6 8H3.5C2.67 8 2 8.95 2 9.75V10c0 1.73 1.55 3.64 4.22 3.95a5.5 5.5 0 01-.72-1.16C3.82 12.3 3 10.98 3 10v-.25c0-.14.07-.36.22-.55.15-.18.26-.2.28-.2h1.7c.1-.35.24-.68.4-1z"/></svg>