<svg width="16" height="16" viewBox="0 0 16 16" xmlns="http://www.w3.org/2000/svg"><path d="M4.75 2C3.78 2 3 2.78 3 3.75V8h1V3.75c0-.41.34-.75.75-.75h5.5c.41 0 .75.34.75.75v9.75c0 .17-.02.34-.05.5h2.3c.97 0 1.75-.78 1.75-1.75V10h-3V3.75C12 2.78 11.22 2 10.25 2h-5.5ZM8.5 8c.34 0 .67.07.96.2A.5.5 0 0 0 9 7.5H6a.5.5 0 0 0-.5.5h3Zm4.75 5H12v-2h2v1.25c0 .41-.34.75-.75.75ZM6 5a.5.5 0 0 0 0 1h3a.5.5 0 0 0 0-1H6Zm4 5.5C10 9.67 9.33 9 8.5 9h-6C1.67 9 1 9.67 1 10.5v3c0 .83.67 1.5 1.5 1.5h6c.83 0 1.5-.67 1.5-1.5v-3Zm-1 2v1a.5.5 0 0 0-.5.5h-1c0-.83.67-1.5 1.5-1.5ZM8.5 10c0 .28.22.5.5.5v1A1.5 1.5 0 0 1 7.5 10h1Zm-6.5.5a.5.5 0 0 0 .5-.5h1c0 .83-.67 1.5-1.5 1.5v-1Zm.5 3.5a.5.5 0 0 0-.5-.5v-1c.83 0 1.5.67 1.5 1.5h-1ZM4 12a1.5 1.5 0 1 1 3 0 1.5 1.5 0 0 1-3 0Z"/></svg>