<svg width="24" height="24" viewBox="0 0 24 24" xmlns="http://www.w3.org/2000/svg"><path d="M4 5.25C4 4.01 5 3 6.25 3h9.5C16.99 3 18 4 18 5.25V14h4v3.75c0 1.8-1.46 3.25-3.25 3.25h-5.8c.03-.16.05-.33.05-.5v-4a2.5 2.5 0 0 0-2.5-2.5H4V5.25ZM18 19.5h.75c.97 0 1.75-.78 1.75-1.75V15.5H18v4ZM7.5 7.75c0 .41.34.75.75.75h5.5a.75.75 0 0 0 0-1.5h-5.5a.75.75 0 0 0-.75.75ZM8.25 11a.75.75 0 0 0 0 1.5h5.5a.75.75 0 0 0 0-1.5h-5.5ZM2.5 15c-.83 0-1.5.67-1.5 1.5v4c0 .83.67 1.5 1.5 1.5h8c.83 0 1.5-.67 1.5-1.5v-4c0-.83-.67-1.5-1.5-1.5h-8Zm7.5 1a1 1 0 0 0 1 1v1a2 2 0 0 1-2-2h1Zm-1 5c0-1.1.9-2 2-2v1a1 1 0 0 0-1 1H9Zm-7-4a1 1 0 0 0 1-1h1a2 2 0 0 1-2 2v-1Zm0 2a2 2 0 0 1 2 2H3a1 1 0 0 0-1-1v-1Zm4.5-2.25a1.75 1.75 0 1 1 0 3.5 1.75 1.75 0 0 1 0-3.5Z"/></svg>