<svg width="20" height="20" viewBox="0 0 20 20" xmlns="http://www.w3.org/2000/svg"><path d="M6 2a2 2 0 0 0-2 2v7h1V4a1 1 0 0 1 1-1h7a1 1 0 0 1 1 1v11h-3v1h4a3 3 0 0 0 3-3v-2h-3V4a2 2 0 0 0-2-2H6Zm11 11a2 2 0 0 1-2 2v-3h2v1ZM7.5 5a.5.5 0 0 0 0 1h4a.5.5 0 0 0 0-1h-4ZM7 7.5c0-.28.22-.5.5-.5h4a.5.5 0 0 1 0 1h-4a.5.5 0 0 1-.5-.5ZM8.5 12c.83 0 1.5.67 1.5 1.5v3c0 .83-.67 1.5-1.5 1.5h-6A1.5 1.5 0 0 1 1 16.5v-3c0-.83.67-1.5 1.5-1.5h6Zm.5 4.5v-1c-.83 0-1.5.67-1.5 1.5h1c0-.28.22-.5.5-.5Zm0-3a.5.5 0 0 1-.5-.5h-1c0 .83.67 1.5 1.5 1.5v-1ZM2.5 13a.5.5 0 0 1-.5.5v1c.83 0 1.5-.67 1.5-1.5h-1ZM2 16.5c.28 0 .5.22.5.5h1c0-.83-.67-1.5-1.5-1.5v1Zm3.5-3a1.5 1.5 0 1 0 0 3 1.5 1.5 0 0 0 0-3Z"/></svg>