<svg width="32" height="32" viewBox="0 0 32 32" xmlns="http://www.w3.org/2000/svg"><path d="M4 5a3 3 0 0 1 3-3h12.5a3 3 0 0 1 3 3v8H25a3 3 0 0 1 3 3v11a3 3 0 0 1-3 3h-2v-5.5c0-.83-.67-1.5-1.5-1.5h-11c-.83 0-1.5.67-1.5 1.5V30H7a3 3 0 0 1-3-3V5Zm6.5 5a1.5 1.5 0 1 0 0-3 1.5 1.5 0 0 0 0 3Zm1.5 3.5a1.5 1.5 0 1 0-3 0 1.5 1.5 0 0 0 3 0ZM10.5 20a1.5 1.5 0 1 0 0-3 1.5 1.5 0 0 0 0 3ZM17 8.5a1.5 1.5 0 1 0-3 0 1.5 1.5 0 0 0 3 0ZM15.5 15a1.5 1.5 0 1 0 0-3 1.5 1.5 0 0 0 0 3Zm1.5 3.5a1.5 1.5 0 1 0-3 0 1.5 1.5 0 0 0 3 0Zm3.5 1.5a1.5 1.5 0 1 0 0-3 1.5 1.5 0 0 0 0 3Zm.5 5v5h-4v-5h4Zm-6 0v5h-4v-5h4Z"/></svg>