<svg width="24" height="24" viewBox="0 0 24 24" xmlns="http://www.w3.org/2000/svg"><path d="M8.5 5.5a1 1 0 100 2 1 1 0 000-2zm-1 8a1 1 0 112 0 1 1 0 01-2 0zm1-4.5a1 1 0 100 2 1 1 0 000-2zM11 6.5a1 1 0 112 0 1 1 0 01-2 0zm1 6a1 1 0 100 2 1 1 0 000-2zm2.5 1a1 1 0 112 0 1 1 0 01-2 0zM12 9a1 1 0 100 2 1 1 0 000-2zM6.25 2C5.01 2 4 3 4 4.25v16.5c0 .41.34.75.75.75h14.5c.42 0 .75-.34.75-.75v-9c0-1.24-1-2.25-2.25-2.25H16.5V4.25c0-1.24-1-2.25-2.25-2.25h-8zM5.5 4.25c0-.41.34-.75.75-.75h8c.41 0 .75.34.75.75v6c0 .41.34.75.75.75h2c.42 0 .75.34.75.75V20h-2v-2.75a.75.75 0 00-.75-.75h-7.5a.75.75 0 00-.75.75V20h-2V4.25zM15 18v2h-2.25v-2H15zm-3.75 0v2H9v-2h2.25z"/></svg>