<svg width="32" height="32" viewBox="0 0 32 32" xmlns="http://www.w3.org/2000/svg"><path d="M10.5 10a1.5 1.5 0 1 0 0-3 1.5 1.5 0 0 0 0 3Zm0 5a1.5 1.5 0 1 0 0-3 1.5 1.5 0 0 0 0 3Zm1.5 3.5a1.5 1.5 0 1 1-3 0 1.5 1.5 0 0 1 3 0Zm3.5-8.5a1.5 1.5 0 1 0 0-3 1.5 1.5 0 0 0 0 3Zm1.5 3.5a1.5 1.5 0 1 1-3 0 1.5 1.5 0 0 1 3 0ZM15.5 20a1.5 1.5 0 1 0 0-3 1.5 1.5 0 0 0 0 3Zm6.5-1.5a1.5 1.5 0 1 1-3 0 1.5 1.5 0 0 1 3 0ZM7 2a3 3 0 0 0-3 3v22a3 3 0 0 0 3 3h18a3 3 0 0 0 3-3V16a3 3 0 0 0-3-3h-2.5V5a3 3 0 0 0-3-3H7ZM6 5a1 1 0 0 1 1-1h12.5a1 1 0 0 1 1 1v8c0 1.1.9 2 2 2H25a1 1 0 0 1 1 1v11a1 1 0 0 1-1 1h-2v-3.5c0-.83-.67-1.5-1.5-1.5h-11c-.83 0-1.5.67-1.5 1.5V28H7a1 1 0 0 1-1-1V5Zm5 23v-3h4v3h-4Zm6 0v-3h4v3h-4Z"/></svg>