<svg width="28" height="28" viewBox="0 0 28 28" xmlns="http://www.w3.org/2000/svg"><path d="M20.5 14a6.5 6.5 0 1 1 0-13 6.5 6.5 0 0 1 0 13Zm4-6a.5.5 0 0 0 0-1h-6.8l2.15-2.15a.5.5 0 0 0-.7-.7l-3 3a.5.5 0 0 0-.15.35c0 .13.05.26.15.35l3 3a.5.5 0 0 0 .7-.7L17.71 8h6.79Zm0 9.25v-3.4A7.54 7.54 0 0 0 26 12.6v4.65A3.75 3.75 0 0 1 22.25 21h-5.94l-6.54 4.71C8.62 26.55 7 25.72 7 24.3V21H5.75A3.75 3.75 0 0 1 2 17.25V6.75A3.75 3.75 0 0 1 5.75 3h8.75c-.35.46-.64.96-.88 1.5H5.75c-1.24 0-2.25 1-2.25 2.25v10.5c0 1.24 1 2.25 2.25 2.25H8.5v4.8c0 .2.23.32.4.2l6.92-5h6.43c1.24 0 2.25-1 2.25-2.25Z"/></svg>