<svg width="48" height="48" viewBox="0 0 48 48" xmlns="http://www.w3.org/2000/svg"><path d="M6 12.25C6 8.8 8.8 6 12.25 6h23.5C39.2 6 42 8.8 42 12.25v23.5C42 39.2 39.2 42 35.75 42h-23.5A6.25 6.25 0 016 35.75v-23.5zm6.25-3.75a3.75 3.75 0 00-3.75 3.75v23.5a3.75 3.75 0 003.75 3.75h23.5a3.75 3.75 0 003.75-3.75v-23.5a3.75 3.75 0 00-3.75-3.75h-23.5zm8.63 6.87c.5.48.5 1.28 0 1.76L14.02 24l6.86 6.87a1.25 1.25 0 01-1.76 1.76l-7.75-7.75a1.25 1.25 0 010-1.76l7.75-7.75a1.25 1.25 0 011.76 0zm8 0a1.25 1.25 0 00-1.76 1.76L33.98 24l-6.86 6.87a1.25 1.25 0 001.76 1.76l7.75-7.75c.5-.48.5-1.28 0-1.76l-7.75-7.75z"/></svg>