<svg width="28" height="28" viewBox="0 0 28 28" xmlns="http://www.w3.org/2000/svg"><path d="M3 6.75A3.75 3.75 0 016.75 3h14.5A3.75 3.75 0 0125 6.75v14.5A3.75 3.75 0 0121.25 25H6.75A3.75 3.75 0 013 21.25V6.75zM6.75 4.5c-1.24 0-2.25 1-2.25 2.25v14.5c0 1.24 1 2.25 2.25 2.25h14.5c1.24 0 2.25-1 2.25-2.25V6.75c0-1.24-1-2.25-2.25-2.25H6.75zm5.28 4.72c.3.3.3.77 0 1.06L8.31 14l3.72 3.72a.75.75 0 11-1.06 1.06l-4.25-4.25a.75.75 0 010-1.06l4.25-4.25c.3-.3.77-.3 1.06 0zm5 0a.75.75 0 10-1.06 1.06L19.69 14l-3.72 3.72a.75.75 0 101.06 1.06l4.25-4.25c.3-.3.3-.77 0-1.06l-4.25-4.25z"/></svg>