<svg width="16" height="16" viewBox="0 0 16 16" xmlns="http://www.w3.org/2000/svg"><path d="M12 1.5a.5.5 0 011 0V4h2.5a.5.5 0 010 1H13v2.5a.5.5 0 01-1 0V5H9.5a.5.5 0 010-1H12V1.5zm-7.23.96C3.4 2.87 2.52 4 2.7 5.26a12.73 12.73 0 004.58 7.91c1 .8 2.42.6 3.46-.37a.98.98 0 00.09-1.34l-.8-.96a1 1 0 00-1.07-.32l-1.67.53a.5.5 0 01-.48-.1l-.04-.04a4.8 4.8 0 01-.42-.43 7.26 7.26 0 01-1.6-3l-.04-.13-.01-.05a.5.5 0 01.15-.47l1.3-1.19a1 1 0 00.25-1.09l-.43-1.16a.99.99 0 00-1.21-.6zm2.06 3.58l-1.07.98a6.62 6.62 0 00.59 1.42 6.27 6.27 0 00.93 1.23l1.4-.44a2 2 0 012.14.64l.79.96c.66.8.58 2-.18 2.7-1.3 1.2-3.28 1.62-4.76.42a13.73 13.73 0 01-4.95-8.54C1.44 3.52 2.8 2 4.47 1.5c1-.3 2.08.22 2.45 1.2l.43 1.16a2 2 0 01-.52 2.18z"/></svg>