<svg width="20" height="20" viewBox="0 0 20 20" xmlns="http://www.w3.org/2000/svg"><path d="M3.5 2.75a.75.75 0 0 0 0 1.5h13a.75.75 0 0 0 0-1.5h-13Zm0 12a.75.75 0 0 0 0 1.5h13a.75.75 0 0 0 0-1.5h-13Zm6.5-8.5c-1.24 0-2.25 1-2.25 2.25v5a.75.75 0 0 1-1.5 0v-5a3.75 3.75 0 1 1 7.5 0v5a.75.75 0 0 1-1.5 0v-5c0-1.24-1-2.25-2.25-2.25Zm-6.5 5.5h1.75v1.5H3.5a.75.75 0 0 1 0-1.5Zm13 1.5h-1.75v-1.5h1.75a.75.75 0 0 1 0 1.5Zm-1.75-4.5v1.5h1.75a.75.75 0 0 0 0-1.5h-1.75Zm-8.62-3c-.32.45-.57.95-.71 1.5H3.5a.75.75 0 0 1 0-1.5h2.63Zm10.37 1.5h-1.92a4.73 4.73 0 0 0-.7-1.5h2.62a.75.75 0 0 1 0 1.5ZM5.25 8.75v1.5H3.5a.75.75 0 0 1 0-1.5h1.75Z"/></svg>