<svg width="20" height="20" viewBox="0 0 20 20" xmlns="http://www.w3.org/2000/svg"><path d="M3 3.5c0-.28.22-.5.5-.5h13a.5.5 0 0 1 0 1h-13a.5.5 0 0 1-.5-.5ZM3.5 6h2.76c-.2.3-.38.64-.5 1H3.5a.5.5 0 0 1 0-1Zm0 3h2v1h-2a.5.5 0 0 1 0-1Zm0 3h2v1h-2a.5.5 0 0 1 0-1Zm0 3h13a.5.5 0 0 1 0 1h-13a.5.5 0 0 1 0-1Zm13-2h-2v-1h2a.5.5 0 0 1 0 1Zm-2-4v1h2a.5.5 0 0 0 0-1h-2Zm-.76-3c.2.3.38.64.5 1h2.26a.5.5 0 0 0 0-1h-2.76ZM7.5 8.5a2.5 2.5 0 0 1 5 0v5a.5.5 0 0 0 1 0v-5a3.5 3.5 0 1 0-7 0v5a.5.5 0 0 0 1 0v-5Z"/></svg>