<svg width="24" height="24" viewBox="0 0 24 24" xmlns="http://www.w3.org/2000/svg"><path d="M3.75 3.75a1 1 0 0 0 0 2h16.5a1 1 0 1 0 0-2H3.75Zm12.12 5.5a4.27 4.27 0 0 0-5.87-2A4.27 4.27 0 0 0 7.75 11v4.75a1 1 0 0 0 1 1 1 1 0 0 0 1-1V11a2.32 2.32 0 0 1 .01-.25 2.25 2.25 0 0 1 4.49.25v4.75a1 1 0 1 0 2 0V11a4.32 4.32 0 0 0-.38-1.75Zm-12.12-2h4.58c-.57.55-1.01 1.24-1.28 2h-3.3a1 1 0 0 1 0-2Zm0 3.5h3v2h-3a1 1 0 1 1 0-2Zm0 3.5h3v1.5a2 2 0 0 0 .06.5H3.75a1 1 0 1 1 0-2Zm13.5 1.5a2 2 0 0 1-.06.5h3.06a1 1 0 1 0 0-2h-3v1.5Zm3-3h-3v-2h3a1 1 0 1 1 0 2Zm0-3.5h-3.3a5.25 5.25 0 0 0-1.28-2h4.58a1 1 0 1 1 0 2Zm-16.5 8.5h16.5a1 1 0 1 1 0 2H3.75a1 1 0 1 1 0-2Z"/></svg>