<svg width="16" height="16" viewBox="0 0 16 16" xmlns="http://www.w3.org/2000/svg"><path d="M13.5 14a.5.5 0 000-1h-11a.5.5 0 000 1h11zm-9-12A2.5 2.5 0 002 4.5v5c0 .28.22.5.5.5H5a1.5 1.5 0 011-1.41V6h4v2.59A1.5 1.5 0 0111 10h2.5a.5.5 0 00.5-.5v-5A2.5 2.5 0 0011.5 2h-7zM13 6v3h-2V6h2zM5 9H3V6h2v3zm1-6h4v2H6V3zm5 0h.5c.83 0 1.5.67 1.5 1.5V5h-2V3zM5 3v2H3v-.5C3 3.67 3.67 3 4.5 3H5zm1.15 6.65c.2-.2.5-.2.7 0l.65.64V8.5a.5.5 0 011 0v1.8l.65-.65a.5.5 0 11.7.7l-1.5 1.5a.5.5 0 01-.7 0l-1.5-1.5a.5.5 0 010-.7z"/></svg>