<svg width="24" height="24" viewBox="0 0 24 24" xmlns="http://www.w3.org/2000/svg"><path d="M5.5 4.63V17.25c0 1.8 1.46 3.25 3.25 3.25h1.98c.3.56.66 1.06 1.08 1.5H8.75A4.75 4.75 0 0 1 4 17.25V6.75c0-.98.63-1.81 1.5-2.12Zm11 6.37c1.29 0 2.49.38 3.5 1.02V4.25C20 3.01 19 2 17.75 2h-9C7.51 2 6.5 3 6.5 4.25v13c0 1.24 1 2.25 2.25 2.25h1.56A6.5 6.5 0 0 1 16.5 11Zm5.5 6.5a5.5 5.5 0 1 0-11 0 5.5 5.5 0 0 0 11 0Zm-5 .5v2.5a.5.5 0 1 1-1 0V18h-2.5a.5.5 0 0 1 0-1H16v-2.5a.5.5 0 1 1 1 0V17h2.5a.5.5 0 0 1 0 1H17Z"/></svg>