<svg width="24" height="24" viewBox="0 0 24 24" xmlns="http://www.w3.org/2000/svg"><path d="M5.5 4.63V17.25c0 1.8 1.46 3.25 3.25 3.25h1.98c.3.56.66 1.06 1.08 1.5H8.75A4.75 4.75 0 0 1 4 17.25V6.75c0-.98.63-1.81 1.5-2.12ZM20 4.25v7.77c-.46-.3-.97-.53-1.5-.7V4.24a.75.75 0 0 0-.75-.75h-9a.75.75 0 0 0-.75.75v13c0 .41.34.75.75.75h1.27c.04.52.14 1.02.3 1.5H8.74c-1.24 0-2.25-1-2.25-2.25v-13C6.5 3.01 7.5 2 8.75 2h9C18.99 2 20 3 20 4.25Zm2 13.25a5.5 5.5 0 1 0-11 0 5.5 5.5 0 0 0 11 0Zm-5 .5v2.5a.5.5 0 1 1-1 0V18h-2.5a.5.5 0 0 1 0-1H16v-2.5a.5.5 0 1 1 1 0V17h2.5a.5.5 0 0 1 0 1H17Z"/></svg>