<svg width="20" height="20" viewBox="0 0 20 20" xmlns="http://www.w3.org/2000/svg"><path d="M8.7 2.48a3.5 3.5 0 0 1 2.6 0l5.76 2.3c.57.23.94.78.94 1.4v5.85a3.54 3.54 0 0 0-.5-.03h-4a3.5 3.5 0 0 0-2.73 5.68c-.69.16-1.41.1-2.07-.16l-5.76-2.3a1.5 1.5 0 0 1-.94-1.4V6.18c0-.62.37-1.17.94-1.4l5.76-2.3Zm-3 3.56a.5.5 0 1 0-.4.92l4.2 1.86v4.68a.5.5 0 0 0 1 0V8.82l4.2-1.86a.5.5 0 1 0-.4-.92L10 7.95l-4.3-1.9ZM13.5 13a2.5 2.5 0 0 0 0 5h.5a.5.5 0 0 0 0-1h-.5a1.5 1.5 0 0 1 0-3h.5a.5.5 0 0 0 0-1h-.5Zm3.5 0a.5.5 0 1 0 0 1h.5a1.5 1.5 0 0 1 0 3H17a.5.5 0 1 0 0 1h.5a2.5 2.5 0 0 0 0-5H17Zm-4 2.5c0-.28.22-.5.5-.5h4a.5.5 0 1 1 0 1h-4a.5.5 0 0 1-.5-.5Z"/></svg>