<svg width="24" height="24" viewBox="0 0 24 24" xmlns="http://www.w3.org/2000/svg"><path d="M7.98 2.67a1 1 0 0 0-1.9 0L3.3 10.74a1 1 0 1 0 1.89.66l.4-1.2h2.88l.41 1.2a1 1 0 0 0 1.9-.66l-2.8-8.07ZM6.29 8.21l.74-2.15.75 2.15H6.29ZM17.5 2a1 1 0 0 1 1 1v15.59l1.8-1.8a1 1 0 0 1 1.4 1.42l-3.5 3.5a1 1 0 0 1-1.4 0l-3.5-3.5a1 1 0 0 1 1.4-1.42l1.8 1.8V3a1 1 0 0 1 1-1ZM3 16a3 3 0 0 1 3-3h4a1 1 0 0 1 1 1v7a1 1 0 1 1-2 0v-2H6.34l-.14.04c-.13.04-.31.11-.49.24-.3.22-.71.67-.71 1.72a1 1 0 1 1-2 0c0-1.27.4-2.18.95-2.8A3 3 0 0 1 3 16Zm3.27 1H9v-2H6a1 1 0 1 0 0 2h.27Z"/></svg>