<svg width="16" height="16" viewBox="0 0 16 16" xmlns="http://www.w3.org/2000/svg"><path d="M5.2 1.5a.75.75 0 0 0-1.4 0L1.8 7a.75.75 0 1 0 1.4.5L3.4 7H5.6l.19.5A.75.75 0 1 0 7.2 7l-2-5.5Zm-1.27 4 .57-1.56.57 1.56H3.93ZM2.1 12.42c-.4.5-.59 1.14-.59 1.83a.75.75 0 0 0 1.5 0c0-.47.14-.77.31-.94.17-.17.47-.31.94-.31H6v1.25a.75.75 0 0 0 1.5 0v-4.5A.75.75 0 0 0 6.75 9H3.5a2 2 0 0 0-1.4 3.42Zm1.41-.92a.5.5 0 0 1 0-1H6v1H3.5ZM12.25 1c.41 0 .75.34.75.75v10.69l.72-.72a.75.75 0 1 1 1.06 1.06l-2 2c-.3.3-.77.3-1.06 0l-2-2a.75.75 0 1 1 1.06-1.06l.72.72V1.75c0-.41.34-.75.75-.75Z"/></svg>