<svg width="20" height="20" viewBox="0 0 20 20" xmlns="http://www.w3.org/2000/svg"><path d="M14.5 3A2.5 2.5 0 0 1 17 5.5v9a2.5 2.5 0 0 1-2.5 2.5h-9A2.5 2.5 0 0 1 3 14.5v-9A2.5 2.5 0 0 1 5.5 3h9Zm0 1h-9C4.67 4 4 4.67 4 5.5v9c0 .83.67 1.5 1.5 1.5h9c.83 0 1.5-.67 1.5-1.5v-9c0-.83-.67-1.5-1.5-1.5Zm-1.78 5c.44 0 .6.05.77.13.16.1.29.22.38.38.08.16.13.33.13.77v2.44c0 .44-.05.6-.13.77a.9.9 0 0 1-.38.38c-.16.08-.33.13-.77.13H7.28c-.44 0-.6-.05-.77-.13a.9.9 0 0 1-.38-.38c-.08-.16-.13-.33-.13-.77v-2.44c0-.44.05-.6.13-.77a.9.9 0 0 1 .38-.38c.16-.08.33-.13.77-.13h5.44Zm.2 1H7V13h5.98v-2.98h-.08Zm.58-4a.5.5 0 0 1 .09 1H6.5a.5.5 0 0 1-.09-1h7.09Z"/></svg>