<svg width="24" height="24" viewBox="0 0 24 24" xmlns="http://www.w3.org/2000/svg"><path d="M17.75 3C19.55 3 21 4.46 21 6.25v11.5c0 1.8-1.46 3.25-3.25 3.25H6.25A3.25 3.25 0 0 1 3 17.75V6.25C3 4.45 4.46 3 6.25 3h11.5Zm0 1.5H6.25c-.97 0-1.75.78-1.75 1.75v11.5c0 .97.78 1.75 1.75 1.75h11.5c.97 0 1.75-.78 1.75-1.75V6.25c0-.97-.78-1.75-1.75-1.75Zm-1.5 6.5c.41 0 .75.34.75.75v4.5c0 .41-.34.75-.75.75h-8.5a.75.75 0 0 1-.75-.75v-4.5c0-.41.34-.75.75-.75h8.5Zm-.75 1.5h-7v3h7v-3ZM7.75 7.25h8.5a.75.75 0 0 1 .1 1.5h-8.6a.75.75 0 0 1-.1-1.5h8.6-8.5Z"/></svg>