<svg width="20" height="20" viewBox="0 0 20 20" xmlns="http://www.w3.org/2000/svg"><path d="M6 2h8a2 2 0 0 1 2 2v2.34A1.5 1.5 0 0 0 15.02 8h-.52a1.5 1.5 0 0 0 0 3h.52a1.5 1.5 0 0 0 .98 1.66V16a2 2 0 0 1-2 2H6a2 2 0 0 1-2-2v-3.34A1.5 1.5 0 0 0 4.98 11h.52a1.5 1.5 0 0 0 0-3h-.52A1.5 1.5 0 0 0 4 6.34V4c0-1.1.9-2 2-2ZM3.88 7.42a.5.5 0 0 1-.05.7l-1 .88H5.5a.5.5 0 1 1 0 1H2.83l1 .87a.5.5 0 0 1-.66.76l-2-1.75a.5.5 0 0 1 0-.76l2-1.75a.5.5 0 0 1 .7.05ZM17.17 10l-1 .87a.5.5 0 0 0 .66.76l2-1.75a.5.5 0 0 0 0-.76l-2-1.75a.5.5 0 0 0-.66.76l1 .87H14.5a.5.5 0 0 0 0 1h2.67Z"/></svg>