<svg width="20" height="20" viewBox="0 0 20 20" xmlns="http://www.w3.org/2000/svg"><path d="M5.5 3H12v4H3V5.5A2.5 2.5 0 0 1 5.5 3ZM8 8h9v1.6A5.48 5.48 0 0 0 9.6 12H8V8Zm1 6.5c0-.52.07-1.02.2-1.5H3v1.5A2.5 2.5 0 0 0 5.5 17h4.1c-.38-.75-.6-1.6-.6-2.5ZM7 12V8H3v4h4Zm6-5h4V5.5A2.5 2.5 0 0 0 14.5 3H13v4Zm-.93 4.44a2 2 0 0 1-1.43 2.48l-.46.12a4.7 4.7 0 0 0 0 1.01l.35.09A2 2 0 0 1 12 17.66l-.13.42c.26.2.54.38.84.52l.32-.35a2 2 0 0 1 2.91 0l.34.36c.3-.13.57-.3.82-.5l-.15-.55a2 2 0 0 1 1.43-2.48l.46-.12a4.7 4.7 0 0 0-.01-1.01l-.35-.09A2 2 0 0 1 17 11.34l.13-.42c-.26-.2-.54-.38-.84-.52l-.32.35a2 2 0 0 1-2.91 0l-.34-.36c-.29.13-.57.3-.82.5l.16.55Zm2.43 4.06a1 1 0 1 1 0-2 1 1 0 0 1 0 2Z"/></svg>