<svg width="24" height="24" viewBox="0 0 24 24" xmlns="http://www.w3.org/2000/svg"><path d="M14 3H6.25A3.25 3.25 0 0 0 3 6.25V8.5h11V3Zm1.5 5.5H21V6.25C21 4.45 19.54 3 17.75 3H15.5v5.5ZM10 10v4h2.02A6.5 6.5 0 0 1 21 12.02V10H10Zm-7 5.5h8.31a6.5 6.5 0 0 0 .71 5.5H6.25A3.25 3.25 0 0 1 3 17.75V15.5ZM8.5 10H3v4h5.5v-4Zm5.78 3.98a2 2 0 0 1-1.44 2.5l-.59.14a5.73 5.73 0 0 0 0 1.8l.55.13a2 2 0 0 1 1.45 2.51l-.19.64c.44.38.94.7 1.49.92l.49-.52a2 2 0 0 1 2.9 0l.5.52a5.28 5.28 0 0 0 1.48-.9l-.2-.7a2 2 0 0 1 1.44-2.5l.59-.14a5.73 5.73 0 0 0-.01-1.8l-.54-.13a2 2 0 0 1-1.45-2.51l.19-.63c-.44-.39-.94-.7-1.49-.93l-.49.52a2 2 0 0 1-2.9 0l-.5-.52c-.54.22-1.04.53-1.48.91l.2.69ZM17.5 19c-.8 0-1.45-.67-1.45-1.5S16.7 16 17.5 16c.8 0 1.45.67 1.45 1.5S18.3 19 17.5 19Z"/></svg>