<svg width="24" height="24" viewBox="0 0 24 24" xmlns="http://www.w3.org/2000/svg"><path d="M6.25 3A3.25 3.25 0 0 0 3 6.25v11.5C3 19.55 4.46 21 6.25 21h5.77c-.3-.46-.53-.97-.7-1.5H6.24c-.97 0-1.75-.78-1.75-1.75V15.5h6.81c.18-.53.42-1.04.71-1.5H10v-4h9.5v1.31c.53.18 1.04.42 1.5.71V6.25C21 4.45 19.54 3 17.75 3H6.25ZM4.5 6.25c0-.97.78-1.75 1.75-1.75H14v4H4.5V6.25Zm0 3.75h4v4h-4v-4Zm15-1.5h-4v-4h2.25c.97 0 1.75.78 1.75 1.75V8.5Zm-5.22 5.48a2 2 0 0 1-1.44 2.5l-.59.14a5.73 5.73 0 0 0 0 1.8l.55.13a2 2 0 0 1 1.45 2.51l-.19.64c.44.38.94.7 1.49.92l.49-.52a2 2 0 0 1 2.9 0l.5.52a5.28 5.28 0 0 0 1.48-.9l-.2-.7a2 2 0 0 1 1.44-2.5l.59-.14a5.73 5.73 0 0 0-.01-1.8l-.54-.13a2 2 0 0 1-1.45-2.51l.19-.63c-.44-.39-.94-.7-1.49-.93l-.49.52a2 2 0 0 1-2.9 0l-.5-.52c-.54.22-1.04.53-1.48.91l.2.69ZM17.5 19c-.8 0-1.45-.67-1.45-1.5S16.7 16 17.5 16c.8 0 1.45.67 1.45 1.5S18.3 19 17.5 19Z"/></svg>