<svg width="16" height="16" viewBox="0 0 16 16" xmlns="http://www.w3.org/2000/svg"><path d="M11.5 1h-7A2.5 2.5 0 0 0 2 3.5v9A2.5 2.5 0 0 0 4.5 15h7a2.5 2.5 0 0 0 2.5-2.5v-9A2.5 2.5 0 0 0 11.5 1Zm-6 2h5c.83 0 1.5.67 1.5 1.5v1c0 .83-.67 1.5-1.5 1.5h-5A1.5 1.5 0 0 1 4 5.5v-1C4 3.67 4.67 3 5.5 3ZM6 9a1 1 0 1 1-2 0 1 1 0 0 1 2 0Zm0 3a1 1 0 1 1-2 0 1 1 0 0 1 2 0Zm5-2a1 1 0 1 1 0-2 1 1 0 0 1 0 2Zm1 2a1 1 0 1 1-2 0 1 1 0 0 1 2 0Zm-4-2a1 1 0 1 1 0-2 1 1 0 0 1 0 2Zm1 2a1 1 0 1 1-2 0 1 1 0 0 1 2 0Z"/></svg>