<svg width="20" height="20" viewBox="0 0 20 20" xmlns="http://www.w3.org/2000/svg"><path d="M8 11a1 1 0 1 1-2 0 1 1 0 0 1 2 0Zm0 3a1 1 0 1 1-2 0 1 1 0 0 1 2 0Zm5-2a1 1 0 1 0 0-2 1 1 0 0 0 0 2Zm1 2a1 1 0 1 1-2 0 1 1 0 0 1 2 0Zm-4-2a1 1 0 1 0 0-2 1 1 0 0 0 0 2Zm1 2a1 1 0 1 1-2 0 1 1 0 0 1 2 0ZM7.5 4C6.67 4 6 4.67 6 5.5v1C6 7.33 6.67 8 7.5 8h5c.83 0 1.5-.67 1.5-1.5v-1c0-.83-.67-1.5-1.5-1.5h-5ZM7 5.5c0-.28.22-.5.5-.5h5c.28 0 .5.22.5.5v1a.5.5 0 0 1-.5.5h-5a.5.5 0 0 1-.5-.5v-1Zm9 10a2.5 2.5 0 0 1-2.5 2.5h-7A2.5 2.5 0 0 1 4 15.5v-11A2.5 2.5 0 0 1 6.5 2h7A2.5 2.5 0 0 1 16 4.5v11Zm-1-11c0-.83-.67-1.5-1.5-1.5h-7C5.67 3 5 3.67 5 4.5v11c0 .83.67 1.5 1.5 1.5h7c.83 0 1.5-.67 1.5-1.5v-11Z"/></svg>