<svg width="20" height="20" viewBox="0 0 20 20" xmlns="http://www.w3.org/2000/svg"><path d="M7.42 6.1A1 1 0 0 0 6.1 7.42l1.48 3.26a3.5 3.5 0 0 0 1.74 1.74l3.26 1.48a1 1 0 0 0 1.32-1.32l-1.48-3.26a3.5 3.5 0 0 0-1.74-1.74L7.42 6.1Zm-.41.9 3.26 1.49c.55.25.99.7 1.24 1.24L12.99 13l-3.26-1.48c-.55-.25-.99-.7-1.24-1.24L7.01 7ZM10 2a8 8 0 1 0 0 16 8 8 0 0 0 0-16Zm0 1v1.5a.5.5 0 0 0 1 0V3.07A7 7 0 0 1 16.93 9H15.5a.5.5 0 0 0 0 1H17a7 7 0 0 1-6 6.93V15.5a.5.5 0 0 0-1 0V17a7 7 0 0 1-7-7h1.5a.5.5 0 0 0 0-1H3.07A7 7 0 0 1 10 3Z"/></svg>