<svg width="24" height="24" viewBox="0 0 24 24" xmlns="http://www.w3.org/2000/svg"><path d="M5.37 6.03A2.75 2.75 0 018.03 4h4.83c.97 0 1.87.51 2.37 1.35l2.5 4.25 2.19.54c1.22.31 2.08 1.41 2.08 2.67v1.69c0 1.1-.65 2.05-1.59 2.5a3.25 3.25 0 01-6.25.25H9.34a3.25 3.25 0 01-6.32-.61A2.74 2.74 0 012 14.5v-2.25c0-1.4 1.06-2.57 2.42-2.73l.95-3.5zm8.67 9.72a3.25 3.25 0 016.27-.6c.12-.18.19-.4.19-.65v-1.69c0-.57-.39-1.07-.95-1.21l-2.4-.6H4.76c-.69 0-1.25.56-1.25 1.25v2.27a3.25 3.25 0 015.96 1.23h4.58zM11 9.5h4.93l-2-3.39a1.25 1.25 0 00-1.07-.61H11v4zm-1.5-4H8.03c-.57 0-1.06.38-1.2.92L5.97 9.5H9.5v-4zm-3.25 9a1.75 1.75 0 100 3.5 1.75 1.75 0 000-3.5zm9.25 1.75a1.75 1.75 0 103.5 0 1.75 1.75 0 00-3.5 0z"/></svg>