<svg width="24" height="24" viewBox="0 0 24 24" xmlns="http://www.w3.org/2000/svg"><path d="M8.03 4c-1.24 0-2.33.83-2.66 2.03l-.95 3.49A2.75 2.75 0 002 12.25v2.25c0 .86.4 1.64 1.02 2.14a3.25 3.25 0 006.32.61h4.82a3.25 3.25 0 006.25-.26A2.75 2.75 0 0022 14.5v-1.69c0-1.26-.86-2.36-2.08-2.67l-2.19-.54-2.5-4.25A2.75 2.75 0 0012.86 4H8.03zm-1.2 2.42c.14-.54.63-.92 1.2-.92H9.5v4H5.98l.84-3.08zM11 9.5v-4h1.86c.44 0 .85.23 1.07.61l2 3.39H11zm-4.75 5a1.75 1.75 0 110 3.5 1.75 1.75 0 010-3.5zm9.25 1.75a1.75 1.75 0 113.5 0 1.75 1.75 0 01-3.5 0z"/></svg>