<svg width="32" height="32" viewBox="0 0 32 32" xmlns="http://www.w3.org/2000/svg"><path d="M7 4h11.75c.69 0 1.25.56 1.25 1.25V14a1 1 0 0 0 1 1h3.75c.69 0 1.25.56 1.25 1.25V28h-3v-3.5c0-.83-.67-1.5-1.5-1.5h-11c-.83 0-1.5.67-1.5 1.5V28H6V5a1 1 0 0 1 1-1Zm14 24h-4v-3h4v3Zm-6 0h-4v-3h4v3Zm12 2a1 1 0 0 0 1-1V16.25c0-1.8-1.46-3.25-3.25-3.25H22V5.25C22 3.45 20.54 2 18.75 2H7a3 3 0 0 0-3 3v24a1 1 0 0 0 1 1h22ZM10.5 10a1.5 1.5 0 1 0 0-3 1.5 1.5 0 0 0 0 3Zm0 5a1.5 1.5 0 1 0 0-3 1.5 1.5 0 0 0 0 3Zm1.5 3.5a1.5 1.5 0 1 1-3 0 1.5 1.5 0 0 1 3 0Zm3.5-8.5a1.5 1.5 0 1 0 0-3 1.5 1.5 0 0 0 0 3Zm1.5 3.5a1.5 1.5 0 1 1-3 0 1.5 1.5 0 0 1 3 0ZM15.5 20a1.5 1.5 0 1 0 0-3 1.5 1.5 0 0 0 0 3Zm6.5-1.5a1.5 1.5 0 1 1-3 0 1.5 1.5 0 0 1 3 0Z"/></svg>