<svg width="48" height="48" viewBox="0 0 48 48" xmlns="http://www.w3.org/2000/svg"><path d="M8 8.25C8 5.9 9.9 4 12.25 4h15.5C30.1 4 32 5.9 32 8.25V19h3.75C38.1 19 40 20.9 40 23.25v19.5c0 .69-.56 1.25-1.25 1.25H34v-6.75c0-1.24-1-2.25-2.25-2.25h-15.5C15.01 35 14 36 14 37.25V44H9.25C8.56 44 8 43.44 8 42.75V8.25ZM16.5 44h6.25v-6.5H16.5V44Zm8.75 0h6.25v-6.5h-6.25V44ZM18 14a2 2 0 1 0-4 0 2 2 0 0 0 4 0Zm-2 9a2 2 0 1 0 0-4 2 2 0 0 0 0 4Zm2 5a2 2 0 1 0-4 0 2 2 0 0 0 4 0Zm6-12a2 2 0 1 0 0-4 2 2 0 0 0 0 4Zm2 5a2 2 0 1 0-4 0 2 2 0 0 0 4 0Zm-2 9a2 2 0 1 0 0-4 2 2 0 0 0 0 4Zm10-2a2 2 0 1 0-4 0 2 2 0 0 0 4 0Z"/></svg>