<svg width="48" height="48" viewBox="0 0 48 48" xmlns="http://www.w3.org/2000/svg"><path d="M12.25 6.5c-.97 0-1.75.78-1.75 1.75V41.5H14v-5.25c0-1.24 1-2.25 2.25-2.25h15.5c1.24 0 2.25 1 2.25 2.25v5.25h3.5V23.25c0-.97-.78-1.75-1.75-1.75h-5c-.69 0-1.25-.56-1.25-1.25v-12c0-.97-.78-1.75-1.75-1.75h-15.5Zm-3 37.5C8.56 44 8 43.44 8 42.75V8.25C8 5.9 9.9 4 12.25 4h15.5C30.1 4 32 5.9 32 8.25V19h3.75C38.1 19 40 20.9 40 23.25v19.5c0 .69-.56 1.25-1.25 1.25H9.25Zm7.25-2.5h6.25v-5H16.5v5Zm8.75 0h6.25v-5h-6.25v5ZM18 14a2 2 0 1 1-4 0 2 2 0 0 1 4 0Zm-2 9a2 2 0 1 0 0-4 2 2 0 0 0 0 4Zm2 5a2 2 0 1 1-4 0 2 2 0 0 1 4 0Zm6-12a2 2 0 1 0 0-4 2 2 0 0 0 0 4Zm2 5a2 2 0 1 1-4 0 2 2 0 0 1 4 0Zm-2 9a2 2 0 1 0 0-4 2 2 0 0 0 0 4Zm10-2a2 2 0 1 1-4 0 2 2 0 0 1 4 0Z"/></svg>