<svg width="20" height="20" viewBox="0 0 20 20" xmlns="http://www.w3.org/2000/svg"><path d="M4 3.5C4 2.67 4.67 2 5.5 2h6c.83 0 1.5.67 1.5 1.5V8h1.5c.83 0 1.5.67 1.5 1.5v8a.5.5 0 0 1-.5.5H13v-3.5a.5.5 0 0 0-.5-.5h-5a.5.5 0 0 0-.5.5V18H4.5a.5.5 0 0 1-.5-.5v-14Zm2.75 3a.75.75 0 1 0 0-1.5.75.75 0 0 0 0 1.5Zm.75 2.25a.75.75 0 1 0-1.5 0 .75.75 0 0 0 1.5 0Zm-.75 3.75a.75.75 0 1 0 0-1.5.75.75 0 0 0 0 1.5Zm3.75-6.75a.75.75 0 1 0-1.5 0 .75.75 0 0 0 1.5 0ZM9.75 9.5a.75.75 0 1 0 0-1.5.75.75 0 0 0 0 1.5Zm.75 2.25a.75.75 0 1 0-1.5 0 .75.75 0 0 0 1.5 0Zm2.25.75a.75.75 0 1 0 0-1.5.75.75 0 0 0 0 1.5ZM12 15v3h-1.5v-3H12Zm-2.5 0H8v3h1.5v-3Z"/></svg>