<svg width="32" height="32" viewBox="0 0 32 32" xmlns="http://www.w3.org/2000/svg"><path d="M4 5a3 3 0 0 1 3-3h11.75C20.55 2 22 3.46 22 5.25V13h2.75c1.8 0 3.25 1.46 3.25 3.25V29a1 1 0 0 1-1 1h-4v-4.5c0-.83-.67-1.5-1.5-1.5h-11c-.83 0-1.5.67-1.5 1.5V30H5a1 1 0 0 1-1-1V5Zm17 21v4h-4v-4h4Zm-6 0v4h-4v-4h4ZM12 8.5a1.5 1.5 0 1 0-3 0 1.5 1.5 0 0 0 3 0Zm0 5a1.5 1.5 0 1 0-3 0 1.5 1.5 0 0 0 3 0ZM10.5 20a1.5 1.5 0 1 0 0-3 1.5 1.5 0 0 0 0 3ZM17 8.5a1.5 1.5 0 1 0-3 0 1.5 1.5 0 0 0 3 0ZM15.5 15a1.5 1.5 0 1 0 0-3 1.5 1.5 0 0 0 0 3Zm1.5 3.5a1.5 1.5 0 1 0-3 0 1.5 1.5 0 0 0 3 0Zm3.5 1.5a1.5 1.5 0 1 0 0-3 1.5 1.5 0 0 0 0 3Z"/></svg>