<svg width="24" height="24" viewBox="0 0 24 24" xmlns="http://www.w3.org/2000/svg"><path d="M12 5.5a4.5 4.5 0 0 0-4.5 4.29.75.75 0 0 1-.74.71H6.5a3 3 0 1 0 0 6h5.18c.1.09.2.17.32.23V18H6.5a4.5 4.5 0 0 1-.42-8.98 6 6 0 0 1 11.84 0A4.5 4.5 0 0 1 21.74 12H20.1a3 3 0 0 0-2.6-1.5h-.26a.75.75 0 0 1-.74-.71A4.5 4.5 0 0 0 12 5.5Zm1 7.5a1 1 0 0 0-1 1v1a1 1 0 0 0 1 1h9a1 1 0 0 0 1-1v-1a1 1 0 0 0-1-1h-9Zm7 10a2 2 0 0 0 2-2v-4h-9v4c0 1.1.9 2 2 2h5Zm-4.5-4.5c0-.28.22-.5.5-.5h3a.5.5 0 0 1 0 1h-3a.5.5 0 0 1-.5-.5Z"/></svg>