<svg width="20" height="20" viewBox="0 0 20 20" xmlns="http://www.w3.org/2000/svg"><path d="M2 4.25C2 3.56 2.56 3 3.25 3h13.5c.69 0 1.25.56 1.25 1.25v1.5C18 6.44 17.44 7 16.75 7H3.25C2.56 7 2 6.44 2 5.75v-1.5ZM3 8h14v1.6a5.48 5.48 0 0 0-5.66.4H8.5a.5.5 0 0 0 0 1h1.76a5.48 5.48 0 0 0-.66 6H6a3 3 0 0 1-3-3V8Zm9.07 3.44a2 2 0 0 1-1.43 2.48l-.46.12a4.7 4.7 0 0 0 0 1.02l.35.08A2 2 0 0 1 12 17.66l-.13.42c.26.2.54.38.84.52l.32-.35a2 2 0 0 1 2.91 0l.34.36c.3-.13.57-.3.82-.5l-.15-.55a2 2 0 0 1 1.43-2.48l.46-.12a4.7 4.7 0 0 0-.01-1.01l-.35-.09A2 2 0 0 1 17 11.34l.13-.42c-.26-.2-.54-.38-.84-.52l-.32.35a2 2 0 0 1-2.91 0l-.34-.36c-.29.13-.57.3-.82.5l.16.55Zm2.43 4.06a1 1 0 1 1 0-2 1 1 0 0 1 0 2Z"/></svg>