<svg width="16" height="16" viewBox="0 0 16 16" xmlns="http://www.w3.org/2000/svg"><path d="M10 3H6v1h.5a1.5 1.5 0 0 1 1.41 2H10V3Zm1 10v-2h1.5a1.5 1.5 0 0 0 .4-2.95A1.5 1.5 0 0 0 11.5 6H11V3h1.5A2.5 2.5 0 0 1 15 5.5v5a2.5 2.5 0 0 1-2.5 2.5H11ZM9 9.5c0-.18.03-.34.09-.5H7.5A1.5 1.5 0 0 1 6 7.5V13h4v-2.09c-.58-.2-1-.76-1-1.41ZM5 7H3.5a1.5 1.5 0 1 1 0-3H5V3H3.5A2.5 2.5 0 0 0 1 5.5v5A2.5 2.5 0 0 0 3.5 13H5V7ZM3.5 5a.5.5 0 0 0 0 1h3a.5.5 0 0 0 0-1h-3Zm4 2a.5.5 0 0 0 0 1h4a.5.5 0 0 0 0-1h-4Zm3 2a.5.5 0 0 0 0 1h2a.5.5 0 0 0 0-1h-2Z"/></svg>