<svg width="16" height="16" viewBox="0 0 16 16" xmlns="http://www.w3.org/2000/svg"><path d="M1 5.5A2.5 2.5 0 0 1 3.5 3h9A2.5 2.5 0 0 1 15 5.5v5a2.5 2.5 0 0 1-2.5 2.5h-9A2.5 2.5 0 0 1 1 10.5v-5ZM3.5 4C2.67 4 2 4.67 2 5.5v5c0 .83.67 1.5 1.5 1.5H5V7h1v5h4v-1.09c.16.06.32.09.5.09h.5v1h1.5c.83 0 1.5-.67 1.5-1.5v-5c0-.83-.67-1.5-1.5-1.5H11v2h-1V4H3.5Zm0 1a.5.5 0 0 0 0 1h3a.5.5 0 0 0 0-1h-3ZM7 7.5c0-.28.22-.5.5-.5h4a.5.5 0 0 1 0 1h-4a.5.5 0 0 1-.5-.5ZM10.5 9a.5.5 0 0 0 0 1h2a.5.5 0 0 0 0-1h-2Z"/></svg>