<svg width="24" height="24" viewBox="0 0 24 24" xmlns="http://www.w3.org/2000/svg"><path d="M11.31 15.5c.18-.53.42-1.04.71-1.5H4.25C3.01 14 2 15 2 16.25v.58c0 .89.32 1.75.9 2.43C4.47 21.1 6.85 22 10 22c.93 0 1.8-.08 2.6-.24a6.5 6.5 0 01-.92-1.37c-.52.08-1.08.11-1.68.11-2.74 0-4.7-.75-5.96-2.21-.34-.41-.54-.93-.54-1.46v-.58c0-.42.34-.75.75-.75h7.06zM10 2a5 5 0 110 10 5 5 0 010-10zm0 1.5a3.5 3.5 0 100 7 3.5 3.5 0 000-7zm13 14a5.5 5.5 0 11-11 0 5.5 5.5 0 0111 0zm-6.65-2.15a.5.5 0 00-.7-.7l-1.5 1.5a.5.5 0 000 .7l1.5 1.5a.5.5 0 00.7-.7l-.64-.65h2.04c1.24 0 2.25 1 2.25 2.25v.25a.5.5 0 001 0v-.25c0-1.8-1.46-3.25-3.25-3.25h-2.04l.64-.65z"/></svg>