<svg width="24" height="24" viewBox="0 0 24 24" xmlns="http://www.w3.org/2000/svg"><path d="M11 17.5c0-1.29.38-2.49 1.02-3.5H4.25C3.01 14 2 15 2 16.25v.92c0 .57.18 1.13.51 1.6C4.06 20.92 6.58 22 10 22c.93 0 1.8-.08 2.6-.24A6.47 6.47 0 0111 17.5zM10 2a5 5 0 110 10 5 5 0 010-10zm13 15.5a5.5 5.5 0 11-11 0 5.5 5.5 0 0111 0zm-6.65-2.15a.5.5 0 00-.7-.7l-1.5 1.5a.5.5 0 000 .7l1.5 1.5a.5.5 0 00.7-.7l-.64-.65h2.04c1.24 0 2.25 1 2.25 2.25v.25a.5.5 0 001 0v-.25c0-1.8-1.46-3.25-3.25-3.25h-2.04l.64-.65z"/></svg>