<svg width="16" height="16" viewBox="0 0 16 16" xmlns="http://www.w3.org/2000/svg"><path d="M2 10c0 1.8 1.55 3.65 4.22 3.96a5.5 5.5 0 01-.72-1.16C3.88 12.33 3 11.13 3 10v-.5c0-.28.22-.5.5-.5h1.7c.1-.35.24-.68.4-1H3.5C2.67 8 2 8.67 2 9.5v.5zm7.75-5.75c0 .29-.04.56-.12.82-.49.08-.95.22-1.39.41A1.74 1.74 0 007 2.5a1.75 1.75 0 10.4 3.45c-.4.28-.76.6-1.07.97a2.75 2.75 0 113.42-2.67zM10.5 15a4.5 4.5 0 100-9 4.5 4.5 0 000 9zm-.9-6.4l-.9.9h1.55A2.75 2.75 0 0113 12.25v.25a.5.5 0 01-1 0v-.25c0-.97-.78-1.75-1.75-1.75H8.71l.9.9a.5.5 0 01-.71.7l-1.76-1.75a.5.5 0 010-.7L8.9 7.9a.5.5 0 11.7.7z"/></svg>