<svg width="32" height="32" viewBox="0 0 32 32" xmlns="http://www.w3.org/2000/svg"><path d="M15 16a7 7 0 100-14 7 7 0 000 14zm-8.5 2A3.5 3.5 0 003 21.5v.5c0 2.4 1.52 4.42 3.68 5.8A15.67 15.67 0 0015 30c.74 0 1.47-.04 2.19-.13A8.98 8.98 0 0115.52 18H6.5zM23 30.5a7.5 7.5 0 100-15 7.5 7.5 0 000 15zm-1.22-10.22l-1.22 1.22h2.69c2.35 0 4.25 1.9 4.25 4.25v.5a.75.75 0 01-1.5 0v-.5A2.75 2.75 0 0023.25 23h-2.69l1.22 1.22a.75.75 0 11-1.06 1.06l-2.5-2.5a.75.75 0 010-1.06l2.5-2.5a.75.75 0 111.06 1.06z"/></svg>