<svg width="20" height="20" viewBox="0 0 20 20" xmlns="http://www.w3.org/2000/svg"><path d="M9 2a4 4 0 100 8 4 4 0 000-8zM6 6a3 3 0 116 0 3 3 0 01-6 0zm-2 5a2 2 0 00-2 2c0 1.7.83 2.97 2.13 3.8A9.14 9.14 0 009 18c.41 0 .82-.02 1.21-.06A5.5 5.5 0 019.6 17 12 12 0 019 17a8.16 8.16 0 01-4.33-1.05A3.36 3.36 0 013 13a1 1 0 011-1h5.6c.18-.36.4-.7.66-1H4zm10.5 8a4.5 4.5 0 100-9 4.5 4.5 0 000 9zm-.9-6.4l-.9.9h1.55A2.75 2.75 0 0117 16.25v.25a.5.5 0 01-1 0v-.25c0-.97-.78-1.75-1.75-1.75h-1.54l.9.9a.5.5 0 01-.71.7l-1.76-1.75a.5.5 0 010-.7l1.76-1.75a.5.5 0 01.7.7z"/></svg>