<svg width="28" height="28" viewBox="0 0 28 28" xmlns="http://www.w3.org/2000/svg"><path d="M14.07 24.37c.3.49.65.94 1.04 1.35-.97.18-2 .28-3.11.28-5.79 0-10-2.57-10-6.29V19a3 3 0 013-3h9.5c-.35.46-.64.96-.88 1.5H5c-.78 0-1.42.6-1.5 1.36v.85c0 2.68 3.39 4.79 8.5 4.79.73 0 1.42-.05 2.07-.13zM12 2a6 6 0 110 12 6 6 0 010-12zm0 1.5a4.5 4.5 0 100 9 4.5 4.5 0 000-9zm15 17a6.5 6.5 0 11-13 0 6.5 6.5 0 0113 0zM17.7 19l1.15-1.15a.5.5 0 00-.7-.7l-2 2a.5.5 0 000 .7l2 2a.5.5 0 00.7-.7L17.71 20h2.54A2.75 2.75 0 0123 22.75V23a.5.5 0 001 0v-.25A3.75 3.75 0 0020.25 19h-2.54z"/></svg>