<svg width="48" height="48" viewBox="0 0 48 48" xmlns="http://www.w3.org/2000/svg"><path d="M22 4a10 10 0 110 20 10 10 0 010-20zm-7.5 10a7.5 7.5 0 1015 0 7.5 7.5 0 00-15 0zm-4.25 14A4.25 4.25 0 006 32.25V33c0 3.76 1.94 6.57 4.92 8.38C13.85 43.16 17.79 44 22 44c1.17 0 2.32-.06 3.43-.2-.65-.71-1.23-1.5-1.72-2.35-.56.03-1.13.05-1.71.05-3.93 0-7.37-.79-9.78-2.26C9.86 37.81 8.5 35.74 8.5 33v-.75c0-.97.78-1.75 1.75-1.75H22.8c.33-.88.74-1.72 1.24-2.5H10.25zM46 35a11 11 0 11-22 0 11 11 0 0122 0zm-14.3-3.3a1 1 0 00-1.4-1.4l-3 3a1 1 0 000 1.4l3 3a1 1 0 001.4-1.4L30.42 35H36a4 4 0 014 4 1 1 0 102 0 6 6 0 00-6-6h-5.59l1.3-1.3z"/></svg>