<svg width="24" height="24" viewBox="0 0 24 24" xmlns="http://www.w3.org/2000/svg"><path d="M17.25 2c.41 0 .75.34.75.75v16.69l2.22-2.22a.75.75 0 111.06 1.06l-3.5 3.5c-.3.3-.77.3-1.06 0l-3.5-3.5a.75.75 0 111.06-1.06l2.22 2.22V2.75c0-.41.34-.75.75-.75zM7.07 2c.31 0 .59.2.7.49l3.18 8.5a.75.75 0 01-1.4.52L8.79 9.5H5.24l-.8 2.02a.75.75 0 01-1.39-.54l3.32-8.5c.11-.3.4-.48.7-.48zm-.02 2.85L5.82 8h2.41L7.05 4.85zM5.75 13a2.75 2.75 0 00-1.45 5.09A4.25 4.25 0 003 21.25a.75.75 0 001.5 0c0-1.11.5-1.79.99-2.2a3.34 3.34 0 01.9-.55H9.5v2.75a.75.75 0 001.5 0v-7.5a.75.75 0 00-.75-.75h-4.5zm.52 4h-.52a1.25 1.25 0 110-2.5H9.5V17H6.27z"/></svg>