<svg width="20" height="20" viewBox="0 0 20 20" xmlns="http://www.w3.org/2000/svg"><path d="M10 5.5a4.5 4.5 0 1 1-9 0 4.5 4.5 0 0 1 9 0Zm-4-2a.5.5 0 0 0-1 0V5H3.5a.5.5 0 0 0 0 1H5v1.5a.5.5 0 0 0 1 0V6h1.5a.5.5 0 0 0 0-1H6V3.5Zm8 .5h-3.2c-.1-.35-.24-.68-.4-1H14a3 3 0 0 1 3 3v8a3 3 0 0 1-3 3H6a3 3 0 0 1-3-3v-3.6c.32.16.65.3 1 .4V14c0 .37.1.72.28 1.02l4.67-4.59a1.5 1.5 0 0 1 2.1 0l4.67 4.59c.18-.3.28-.65.28-1.02V6a2 2 0 0 0-2-2Zm0 3.5a1.5 1.5 0 1 1-3 0 1.5 1.5 0 0 1 3 0Zm-1 0a.5.5 0 1 0-1 0 .5.5 0 0 0 1 0Zm-8.01 8.23A2 2 0 0 0 6 16h8a2 2 0 0 0 1.01-.27l-4.66-4.58a.5.5 0 0 0-.7 0l-4.66 4.58Z"/></svg>