<svg width="20" height="20" viewBox="0 0 20 20" xmlns="http://www.w3.org/2000/svg"><path d="M10 5.5a4.5 4.5 0 1 1-9 0 4.5 4.5 0 0 1 9 0Zm-4-2a.5.5 0 0 0-1 0V5H3.5a.5.5 0 0 0 0 1H5v1.5a.5.5 0 0 0 1 0V6h1.5a.5.5 0 0 0 0-1H6V3.5ZM5.5 11a5.5 5.5 0 0 0 4.9-8H14a3 3 0 0 1 3 3v8c0 .65-.2 1.25-.56 1.74l-5.39-5.3a1.5 1.5 0 0 0-2.1 0l-5.4 5.3C3.22 15.25 3 14.64 3 14v-3.6c.75.38 1.6.6 2.5.6Zm7-3a.5.5 0 1 0 0-1 .5.5 0 0 0 0 1Zm0 1a1.5 1.5 0 1 0 0-3 1.5 1.5 0 0 0 0 3Zm-8.23 7.45c.49.35 1.08.55 1.73.55h8c.65 0 1.24-.2 1.73-.55l-5.38-5.3a.5.5 0 0 0-.7 0l-5.38 5.3Z"/></svg>