<svg width="20" height="20" viewBox="0 0 20 20" xmlns="http://www.w3.org/2000/svg"><path d="M8.5 2c-.65 0-1.2.42-1.41 1H5.5C4.67 3 4 3.67 4 4.5v12c0 .83.67 1.5 1.5 1.5H8l.06-.35.16-.65H5.5a.5.5 0 01-.5-.5v-12c0-.28.22-.5.5-.5h1.59c.2.58.76 1 1.41 1h3c.65 0 1.2-.42 1.41-1h1.59c.28 0 .5.22.5.5v4.73c.32-.14.66-.21 1-.23V4.5c0-.83-.67-1.5-1.5-1.5h-1.59c-.2-.58-.76-1-1.41-1h-3zM8 3.5c0-.28.22-.5.5-.5h3a.5.5 0 010 1h-3a.5.5 0 01-.5-.5zm1.98 11.88l4.83-4.83a1.87 1.87 0 112.64 2.64l-4.83 4.83a2.2 2.2 0 01-1.02.58l-1.5.37a.89.89 0 01-1.07-1.07l.37-1.5c.1-.39.3-.74.58-1.02z"/></svg>