<svg width="16" height="16" viewBox="0 0 16 16" xmlns="http://www.w3.org/2000/svg"><path d="M1 4.5A2.5 2.5 0 0 1 3.5 2h7A2.5 2.5 0 0 1 13 4.5v2H6V11h2.38l-1 1H3.5A2.5 2.5 0 0 1 1 9.5v-5Zm5 1h6v-1c0-.83-.67-1.5-1.5-1.5H6v2.5ZM7.5 16a.48.48 0 0 1-.35-.15.48.48 0 0 1-.15-.35V14c0-.14.05-.25.15-.35l2.94-2.94a3.74 3.74 0 0 1-.09-.77c0-.4.08-.79.24-1.14a3.1 3.1 0 0 1 1.61-1.57 2.94 2.94 0 0 1 3.27.64A3.01 3.01 0 0 1 12 12.84V13.52a.65.65 0 0 1-.08.24.5.5 0 0 1-.15.17.46.46 0 0 1-.27.07H11c0 .24 0 .43-.02.56a.46.46 0 0 1-.11.3.47.47 0 0 1-.3.12L10 15v.27c0 .08 0 .17-.02.25a.86.86 0 0 1-.06.24.37.37 0 0 1-.15.17.57.57 0 0 1-.27.07h-2Zm7-6.75c0-.2-.07-.39-.22-.53a.72.72 0 0 0-.53-.22c-.2 0-.39.07-.53.22a.72.72 0 0 0-.22.53c0 .2.07.39.22.53.14.15.32.22.53.22.2 0 .39-.07.53-.22a.72.72 0 0 0 .22-.53Z"/></svg>