<svg width="20" height="20" viewBox="0 0 20 20" xmlns="http://www.w3.org/2000/svg"><path d="M5 3a3 3 0 0 0-3 3v7a3 3 0 0 0 3 3h4.39l.05-.06.94-.94H8.5V8H17v1.12a3.85 3.85 0 0 1 1 .41V6a3 3 0 0 0-3-3H5Zm12 4H8.5V4H15a2 2 0 0 1 2 2v1ZM5 4h2.5v11H5a2 2 0 0 1-2-2V6c0-1.1.9-2 2-2Zm5.5 15a.48.48 0 0 1-.35-.15.48.48 0 0 1-.15-.35V17c0-.14.05-.25.15-.35l2.94-2.94a3.74 3.74 0 0 1-.09-.77c0-.4.08-.79.24-1.14a3.1 3.1 0 0 1 1.61-1.57 2.94 2.94 0 0 1 3.27.64A3 3 0 0 1 15 15.84V16.52a.65.65 0 0 1-.08.24.5.5 0 0 1-.15.17.46.46 0 0 1-.27.07H14c0 .24 0 .43-.02.56a.46.46 0 0 1-.11.3.47.47 0 0 1-.3.12L13 18v.27c0 .08 0 .17-.02.25a.86.86 0 0 1-.06.24.37.37 0 0 1-.15.17.57.57 0 0 1-.27.07h-2Zm7-6.75c0-.2-.07-.39-.22-.53a.72.72 0 0 0-.53-.22c-.2 0-.39.07-.53.22a.72.72 0 0 0-.22.53c0 .2.07.39.22.53.14.15.32.22.53.22.2 0 .39-.07.53-.22a.72.72 0 0 0 .22-.53Z"/></svg>