<svg width="24" height="24" viewBox="0 0 24 24" xmlns="http://www.w3.org/2000/svg"><path d="M5.25 4A3.25 3.25 0 0 0 2 7.25v9.5C2 18.55 3.46 20 5.25 20h5.95c.08-.16.19-.3.31-.43l1.08-1.07H9.5v-8h11v.61c.54.13 1.05.35 1.5.65V7.25C22 5.45 20.54 4 18.75 4H5.25ZM20.5 9h-11V5.5h9.25c.97 0 1.75.78 1.75 1.75V9ZM8 5.5v13H5.25c-.97 0-1.75-.78-1.75-1.75v-9.5c0-.97.78-1.75 1.75-1.75H8ZM19.5 19a3.5 3.5 0 1 0-3.38-2.59.75.75 0 0 0-.15.12l-3.75 3.75a.75.75 0 0 0-.22.53v1.44c0 .41.34.75.75.75h1.75a.5.5 0 0 0 .5-.5V22h1a.5.5 0 0 0 .5-.5v-1h1a.5.5 0 0 0 .5-.5v-1h1.5Zm1.5-4a1 1 0 1 1-2 0 1 1 0 0 1 2 0Z"/></svg>