<svg width="20" height="20" viewBox="0 0 20 20" xmlns="http://www.w3.org/2000/svg"><path d="M6 2c.31 0 .59.2.7.48l3.25 8.5a.75.75 0 0 1-1.4.53L7.78 9.5H4.22l-.77 2.01a.75.75 0 0 1-1.4-.53l3.25-8.5A.75.75 0 0 1 6 2ZM4.8 8h2.4L6 4.85 4.8 8Zm9.88 5.26a.75.75 0 0 1 1.06-.07l2 1.74a.75.75 0 0 1 0 1.13l-2 1.75a.75.75 0 1 1-.99-1.12l.5-.44H4.75l.5.44a.75.75 0 1 1-1 1.12l-2-1.74a.75.75 0 0 1 0-1.13l2-1.75a.75.75 0 0 1 1 1.12l-.5.44h10.5l-.5-.44a.75.75 0 0 1-.07-1.05Zm.02-1.74a.75.75 0 0 1-1.4 0l-3.25-8.5a.75.75 0 1 1 1.4-.53L14 9.15l2.55-6.66a.75.75 0 1 1 1.4.53l-3.25 8.5Z"/></svg>