<svg width="24" height="24" viewBox="0 0 24 24" xmlns="http://www.w3.org/2000/svg"><path d="M10.25 2c.38 0 .7.28.74.65l.01.1v4.8A6.25 6.25 0 0 1 16.46 13h4.79a.75.75 0 0 1 .1 1.5H16.45A6.25 6.25 0 0 1 11 19.96v1.29a.75.75 0 0 1-1.5.1V19.95a6.25 6.25 0 0 1-5.46-5.45H2.75a.75.75 0 0 1-.1-1.5H4.05A6.25 6.25 0 0 1 9.5 7.54V2.75c0-.41.34-.75.75-.75ZM9.5 14.5H5.56a4.75 4.75 0 0 0 3.94 3.94V14.5Zm5.44 0H11v3.94a4.75 4.75 0 0 0 3.94-3.94ZM9.5 9.06A4.75 4.75 0 0 0 5.56 13H9.5V9.06Zm1.5 0V13h3.94a4.75 4.75 0 0 0-3.72-3.9L11 9.06Z"/></svg>