<svg width="20" height="20" viewBox="0 0 20 20" xmlns="http://www.w3.org/2000/svg"><path d="M4 4c0-1.1.9-2 2-2h7a2 2 0 0 1 2 2v7h3v2a3 3 0 0 1-3 3h-5v-1h4V4a1 1 0 0 0-1-1H6a1 1 0 0 0-1 1v4.17A3 3 0 0 0 4 8V4Zm11 8v3a2 2 0 0 0 2-2v-1h-2ZM7 5.5c0-.28.22-.5.5-.5h4a.5.5 0 0 1 0 1h-4a.5.5 0 0 1-.5-.5ZM7.5 7a.5.5 0 0 0 0 1h4a.5.5 0 0 0 0-1h-4ZM5 9.27A2 2 0 0 0 2 11v1h-.5a.5.5 0 0 0-.5.5V17c0 1.1.9 2 2 2h4a2 2 0 0 0 2-2v-4.5a.5.5 0 0 0-.5-.5H8v-1a2 2 0 0 0-3-1.73ZM5 11v1H3v-1a1 1 0 1 1 2 0Zm1 0a2 2 0 0 0-.25-.97A1 1 0 0 1 7 11v1H6v-1Z"/></svg>