<svg width="20" height="20" viewBox="0 0 20 20" xmlns="http://www.w3.org/2000/svg"><path d="M4 4c0-1.1.9-2 2-2h4.59c.4 0 .78.16 1.06.44l3.91 3.91c.28.28.44.67.44 1.06V9.5a.5.5 0 0 1-1 0V8h-3.5A1.5 1.5 0 0 1 10 6.5V3H6a1 1 0 0 0-1 1v5.5a.5.5 0 0 1-1 0V4Zm7-.8v3.3c0 .28.22.5.5.5h3.3L11 3.2Zm-6.5 8.3c.28 0 .5.22.5.5v1a.5.5 0 0 1-1 0v-1c0-.28.22-.5.5-.5Zm11 0c.28 0 .5.22.5.5v1a.5.5 0 0 1-1 0v-1c0-.28.22-.5.5-.5ZM4.5 15c.28 0 .5.22.5.5v.5a1 1 0 0 0 1 1h.5a.5.5 0 0 1 0 1H6a2 2 0 0 1-2-2v-.5c0-.28.22-.5.5-.5Zm11 0c.28 0 .5.22.5.5v.5a2 2 0 0 1-2 2h-.5a.5.5 0 0 1 0-1h.5a1 1 0 0 0 1-1v-.5c0-.28.22-.5.5-.5Zm-7 2.5c0-.28.22-.5.5-.5h2a.5.5 0 0 1 0 1H9a.5.5 0 0 1-.5-.5Z"/></svg>