<svg width="20" height="20" viewBox="0 0 20 20" xmlns="http://www.w3.org/2000/svg"><path d="M14.5 10a4.5 4.5 0 1 1 0-9 4.5 4.5 0 0 1 0 9Zm1.6-7.1a.5.5 0 0 0-.7.7l.9.9h-1.55A2.75 2.75 0 0 0 12 7.25v.25a.5.5 0 0 0 1 0v-.25c0-.97.78-1.75 1.75-1.75h1.54l-.9.9a.5.5 0 0 0 .71.7l1.76-1.75a.5.5 0 0 0 0-.7L16.1 2.9ZM4 3h5.6a5.5 5.5 0 0 0 4.4 7.98V11a2 2 0 0 1-2 2H4a2 2 0 0 1-2-2V5c0-1.1.9-2 2-2Zm11 7.98c.34-.03.68-.1 1-.19V11a4 4 0 0 1-4 4H6a2 2 0 0 1-1.73-1H12a3 3 0 0 0 3-3v-.02Zm3-1.24c-.3.26-.64.48-1 .66v.6a5 5 0 0 1-5 5H6.27c.34.6.99 1 1.73 1h4a6 6 0 0 0 6-6V9.74Z"/></svg>