<svg width="20" height="20" viewBox="0 0 20 20" xmlns="http://www.w3.org/2000/svg"><path d="M5.5 7a.5.5 0 0 0 0 1h4a.5.5 0 0 0 0-1h-4Zm0 2.5a.5.5 0 0 0 0 1h6a.5.5 0 0 0 0-1h-6Zm-.5 3c0-.28.22-.5.5-.5H10a.5.5 0 0 1 0 1H5.5a.5.5 0 0 1-.5-.5ZM4.5 4A2.5 2.5 0 0 0 2 6.5v7A2.5 2.5 0 0 0 4.5 16h5.92a4.97 4.97 0 0 1-.32-1H4.5A1.5 1.5 0 0 1 3 13.5v-7C3 5.67 3.67 5 4.5 5h11c.83 0 1.5.67 1.5 1.5v3.26a3 3 0 0 1 1 2.2V6.5A2.5 2.5 0 0 0 15.5 4h-11Zm8.5 8a2 2 0 1 1 4 0v2a2 2 0 0 1-4 0v-2Zm-.97 2.43a.5.5 0 1 0-.99.14 4 4 0 0 0 3.46 3.4v.53a.5.5 0 1 0 1 0v-.53a4 4 0 0 0 3.46-3.4.5.5 0 1 0-1-.14 3 3 0 0 1-5.93 0Z"/></svg>