<svg width="32" height="32" viewBox="0 0 32 32" xmlns="http://www.w3.org/2000/svg"><path d="M6.5 4A4.5 4.5 0 0 0 2 8.5v15A4.5 4.5 0 0 0 6.5 28h12.25A8.01 8.01 0 0 1 17 23a2.75 2.75 0 0 1 3-2.74V19a5 5 0 0 1 10 0V8.5A4.5 4.5 0 0 0 25.5 4h-19ZM8 10a1 1 0 0 1 1-1h6a1 1 0 1 1 0 2H9a1 1 0 0 1-1-1Zm1 9h6a1 1 0 1 1 0 2H9a1 1 0 1 1 0-2Zm-1-4a1 1 0 0 1 1-1h9a1 1 0 1 1 0 2H9a1 1 0 0 1-1-1Zm12.53 12A6.02 6.02 0 0 1 19 23a.75.75 0 0 1 1.5 0 4.48 4.48 0 0 0 4.1 4.48h.02a4.56 4.56 0 0 0 1.13-.04h.02A4.47 4.47 0 0 0 29.5 23a.75.75 0 1 1 1.5 0 5.97 5.97 0 0 1-5 5.92v1.33a.75.75 0 0 1-1.5 0v-1.27A5.97 5.97 0 0 1 20.53 27ZM22 19a3 3 0 1 1 6 0v4a3 3 0 1 1-6 0v-4Z"/></svg>