<svg width="32" height="32" viewBox="0 0 32 32" xmlns="http://www.w3.org/2000/svg"><path d="M6.5 4A4.5 4.5 0 0 0 2 8.5v15A4.5 4.5 0 0 0 6.5 28h12.25a8 8 0 0 1-1.17-2H6.5A2.5 2.5 0 0 1 4 23.5v-15A2.5 2.5 0 0 1 6.5 6h19A2.5 2.5 0 0 1 28 8.5V15a5 5 0 0 1 2 4V8.5A4.5 4.5 0 0 0 25.5 4h-19Zm13.3 22a6.02 6.02 0 0 0 4.7 2.98v1.27a.75.75 0 0 0 1.5 0v-1.33A5.97 5.97 0 0 0 31 23a.75.75 0 0 0-1.5 0 4.51 4.51 0 0 1-3.73 4.43h-.02a4.53 4.53 0 0 1-1.13.05h-.01A4.47 4.47 0 0 1 20.5 23a.75.75 0 0 0-1.5 0c0 1.1.3 2.12.8 3ZM25 16a3 3 0 0 0-3 3v4a3 3 0 1 0 6 0v-4a3 3 0 0 0-3-3ZM9 9a1 1 0 0 0 0 2h6a1 1 0 1 0 0-2H9ZM8 20a1 1 0 0 1 1-1h6a1 1 0 1 1 0 2H9a1 1 0 0 1-1-1Zm1-6a1 1 0 1 0 0 2h9a1 1 0 1 0 0-2H9Z"/></svg>