<svg width="20" height="20" viewBox="0 0 20 20" xmlns="http://www.w3.org/2000/svg"><path d="M5.5 3A2.5 2.5 0 0 0 3 5.5v3.1c.32-.16.65-.3 1-.4V5.5C4 4.67 4.67 4 5.5 4h7c.83 0 1.5.67 1.5 1.5v7c0 .83-.67 1.5-1.5 1.5h-1.52c-.03.34-.1.68-.19 1h1.71a2.5 2.5 0 0 0 2.5-2.5v-1l2.4 1.8a1 1 0 0 0 1.6-.8v-7a1 1 0 0 0-1.6-.8L15 6.5v-1A2.5 2.5 0 0 0 12.5 3h-7ZM15 7.75l3-2.25v7l-3-2.25v-2.5Zm-5 5.75a4.5 4.5 0 1 1-9 0 4.5 4.5 0 0 1 9 0Zm-4-2a.5.5 0 0 0-1 0V13H3.5a.5.5 0 0 0 0 1H5v1.5a.5.5 0 0 0 1 0V14h1.5a.5.5 0 0 0 0-1H6v-1.5Z"/></svg>