<svg width="16" height="16" viewBox="0 0 16 16" xmlns="http://www.w3.org/2000/svg"><path d="M2 4.5V6h3.59a.5.5 0 0 0 .35-.15L7.29 4.5 5.94 3.15A.5.5 0 0 0 5.59 3H3.5C2.67 3 2 3.67 2 4.5Zm-1 0A2.5 2.5 0 0 1 3.5 2h2.09c.4 0 .78.16 1.06.44L8.2 4h4.29A2.5 2.5 0 0 1 15 6.5v.76a5.5 5.5 0 0 0-1-.66v-.1c0-.83-.67-1.5-1.5-1.5H8.2L6.66 6.56A1.5 1.5 0 0 1 5.59 7H2v4.5c0 .83.67 1.5 1.5 1.5h2.7c.1.35.24.68.4 1H3.5A2.5 2.5 0 0 1 1 11.5v-7Zm15 7a4.5 4.5 0 1 1-9 0 4.5 4.5 0 0 1 9 0Zm-4.85-2.35-2 2a.5.5 0 0 0 .7.7L11 10.71v2.79a.5.5 0 0 0 1 0v-2.8l1.15 1.15a.5.5 0 0 0 .7-.7l-2-2A.5.5 0 0 0 11.5 9a.5.5 0 0 0-.35.14Z"/></svg>