<svg width="20" height="20" viewBox="0 0 20 20" xmlns="http://www.w3.org/2000/svg"><path d="M4.5 3h2.67c.32 0 .64.1.9.3l1.6 1.2h5.83A2.5 2.5 0 0 1 18 7v3.26a5.5 5.5 0 0 0-1-.66V7c0-.83-.67-1.5-1.5-1.5H9.62L8.16 7.03c-.29.3-.68.47-1.09.47H3v7c0 .83.67 1.5 1.5 1.5h4.7c.1.35.24.68.4 1H4.5A2.5 2.5 0 0 1 2 14.5v-9A2.5 2.5 0 0 1 4.5 3ZM3 5.5v1h4.07a.5.5 0 0 0 .36-.16L8.7 5.02 7.47 4.1a.5.5 0 0 0-.3-.1H4.5C3.67 4 3 4.67 3 5.5Zm16 9a4.5 4.5 0 1 1-9 0 4.5 4.5 0 0 1 9 0Zm-4.15-2.35a.5.5 0 0 0-.35-.15.5.5 0 0 0-.35.15l-2 2a.5.5 0 0 0 .7.7L14 13.71v2.79a.5.5 0 1 0 1 0v-2.8l1.15 1.15a.5.5 0 1 0 .7-.7l-2-2Z"/></svg>