<svg width="28" height="28" viewBox="0 0 28 28" xmlns="http://www.w3.org/2000/svg"><path d="M2 6.75A3.75 3.75 0 0 1 5.75 3h3.67c.73 0 1.43.29 1.95.8l1.88 1.89-2.94 2.94c-.24.24-.56.37-.89.37H2V6.75Zm0 3.75v9.75A3.75 3.75 0 0 0 5.75 24h8.75A7.5 7.5 0 0 1 26 14.4V9.75A3.75 3.75 0 0 0 22.25 6h-7.19l-3.7 3.7c-.51.51-1.2.8-1.94.8H2Zm25 9a6.5 6.5 0 1 1-13 0 6.5 6.5 0 0 1 13 0Zm-7 4a.5.5 0 0 0 1 0v-6.8l2.15 2.15a.5.5 0 0 0 .7-.7l-3-3a.5.5 0 0 0-.35-.15.5.5 0 0 0-.35.15l-3 3a.5.5 0 0 0 .7.7L20 16.71v6.79Z"/></svg>