<svg width="48" height="48" viewBox="0 0 48 48" xmlns="http://www.w3.org/2000/svg"><path d="M6.5 12.25V16h10.21c.34 0 .65-.13.89-.37l3.38-3.38-3.38-3.38a1.25 1.25 0 0 0-.89-.37h-6.46a3.75 3.75 0 0 0-3.75 3.75Zm-2.5 0C4 8.8 6.8 6 10.25 6h6.46c1 0 1.95.4 2.66 1.1l3.9 3.9h14.48C41.2 11 44 13.8 44 17.25v7.37c-.75-.72-1.6-1.36-2.5-1.88v-5.49a3.75 3.75 0 0 0-3.75-3.75H23.27l-3.9 3.9c-.7.7-1.66 1.1-2.66 1.1H6.5v16.25a3.75 3.75 0 0 0 3.75 3.75H22.8c.33.88.74 1.72 1.24 2.5H10.25A6.25 6.25 0 0 1 4 34.75v-22.5ZM46 34a11 11 0 1 1-22 0 11 11 0 0 1 22 0Zm-10.3-7.7a1 1 0 0 0-1.4 0l-5 5a1 1 0 0 0 1.4 1.4l3.3-3.29V41a1 1 0 1 0 2 0V29.41l3.3 3.3a1 1 0 0 0 1.4-1.42l-5-5Z"/></svg>