<svg width="24" height="24" viewBox="0 0 24 24" xmlns="http://www.w3.org/2000/svg"><path d="M6.25 3A3.25 3.25 0 003 6.25V10h1.5v-.5h15v8.25c0 .97-.78 1.75-1.75 1.75H7v.02c.77.1 1.37.71 1.48 1.48h9.27c1.8 0 3.25-1.46 3.25-3.25V6.25C21 4.45 19.54 3 17.75 3H6.25zM19.5 8h-15V6.25c0-.97.78-1.75 1.75-1.75h11.5c.97 0 1.75.78 1.75 1.75V8zM9 6.25a1 1 0 11-2 0 1 1 0 012 0zm3.75-.75a.75.75 0 000 1.5h3.5a.75.75 0 000-1.5h-3.5zM2 11.75c0-.41.34-.75.75-.75h5c.41 0 .75.34.75.75v2A3.25 3.25 0 016 16.91v3.59h.75a.75.75 0 010 1.5h-3a.75.75 0 010-1.5h.75v-3.59A3.25 3.25 0 012 13.75v-2z"/></svg>