<svg width="48" height="48" viewBox="0 0 48 48" xmlns="http://www.w3.org/2000/svg"><path d="M12 6a6 6 0 00-6 6v5.5h36V12a6 6 0 00-6-6H12zm30 14H16.25a3.25 3.25 0 013.25 3.25v5a8.75 8.75 0 01-5.5 8.13v3.2A3.25 3.25 0 0116.41 42H36a6 6 0 006-6V20zm-24-7.75a2 2 0 11-4 0 2 2 0 014 0zM25.25 11h7.5a1.25 1.25 0 110 2.5h-7.5a1.25 1.25 0 110-2.5zm-20 11C4.56 22 4 22.56 4 23.25v5c0 3.3 2.37 6.05 5.5 6.63v6.62H8.25a1.25 1.25 0 100 2.5h5a1.25 1.25 0 100-2.5H12v-6.62a6.75 6.75 0 005.5-6.63v-5c0-.69-.56-1.25-1.25-1.25h-11z"/></svg>