<svg width="48" height="48" viewBox="0 0 48 48" xmlns="http://www.w3.org/2000/svg"><path d="M6 12.25C6 8.8 8.8 6 12.25 6h23.5C39.2 6 42 8.8 42 12.25v23.5C42 39.2 39.2 42 35.75 42H16.41A3.25 3.25 0 0014 39.59v-.09h21.75a3.75 3.75 0 003.75-3.75V18.5h-31V20H6v-7.75zm33.5 0a3.75 3.75 0 00-3.75-3.75h-23.5a3.75 3.75 0 00-3.75 3.75V16h31v-3.75zm-21.5 0a2 2 0 11-4 0 2 2 0 014 0zm6 0c0-.69.56-1.25 1.25-1.25h7.5a1.25 1.25 0 110 2.5h-7.5c-.69 0-1.25-.56-1.25-1.25zM5.25 22C4.56 22 4 22.56 4 23.25v5c0 3.3 2.37 6.05 5.5 6.63v6.62H8.25a1.25 1.25 0 100 2.5h5a1.25 1.25 0 100-2.5H12v-6.62a6.75 6.75 0 005.5-6.63v-5c0-.69-.56-1.25-1.25-1.25h-11z"/></svg>