<svg width="32" height="32" viewBox="0 0 32 32" xmlns="http://www.w3.org/2000/svg"><path d="M3 7.5A4.5 4.5 0 017.5 3h17A4.5 4.5 0 0129 7.5v17a4.5 4.5 0 01-4.5 4.5h-14c0-.82-.4-1.54-1-2h15a2.5 2.5 0 002.5-2.5V13H5v.5H3v-6zm24 0A2.5 2.5 0 0024.5 5h-17A2.5 2.5 0 005 7.5V11h22V7.5zM11.5 8a1.5 1.5 0 11-3 0 1.5 1.5 0 013 0zM16 8a1 1 0 011-1h5a1 1 0 110 2h-5a1 1 0 01-1-1zM3 15a1 1 0 00-1 1v3.25a4.5 4.5 0 003.5 4.39V28H5a1 1 0 100 2h3a1 1 0 100-2h-.5v-4.36a4.5 4.5 0 003.5-4.39V16a1 1 0 00-1-1H3z"/></svg>