<svg width="24" height="24" viewBox="0 0 24 24" xmlns="http://www.w3.org/2000/svg"><path d="M3 6.25C3 4.45 4.46 3 6.25 3h11.5C19.55 3 21 4.46 21 6.25V9H3V6.25zm5.99 4.26l-.02-.01H21v7.25c0 1.8-1.46 3.25-3.25 3.25H8.48A1.75 1.75 0 007 19.52v-1.9a4.25 4.25 0 002.5-3.87v-2c0-.46-.18-.9-.51-1.24zM9 6.25a1 1 0 10-2 0 1 1 0 002 0zm3.75-.75a.75.75 0 000 1.5h3.5a.75.75 0 000-1.5h-3.5zm-10 5.5a.75.75 0 00-.75.75v2a3.25 3.25 0 002.5 3.16v3.59h-.75a.75.75 0 000 1.5h3a.75.75 0 000-1.5H6v-3.59a3.25 3.25 0 002.5-3.16v-2a.75.75 0 00-.75-.75h-5z"/></svg>