<svg width="16" height="16" viewBox="0 0 16 16" xmlns="http://www.w3.org/2000/svg"><path d="M2.5 3a.5.5 0 0 0 0 1h11a.5.5 0 0 0 0-1h-11Zm1.94 9.44.44-.44H2.5a.5.5 0 0 0 0 1h1.58c.08-.2.2-.4.36-.56ZM6.97 9.9A1.5 1.5 0 0 1 6.1 9H2.5a.5.5 0 0 0 0 1h4.38l.1-.1ZM7.41 7l.27-.03A.5.5 0 0 0 7.5 6h-5a.5.5 0 0 0 0 1h4.9Zm3.09-2a.5.5 0 0 1 .5.44l.09.73a2 2 0 0 0 1.74 1.74l.73.1a.5.5 0 0 1 0 .99l-.73.09a2 2 0 0 0-1.74 1.74l-.1.73a.5.5 0 0 1-.99 0l-.09-.73a2 2 0 0 0-1.74-1.74l-.73-.1a.5.5 0 0 1 0-.99l.73-.09a2 2 0 0 0 1.74-1.74l.1-.73A.5.5 0 0 1 10.5 5Zm0 2.47A3 3 0 0 1 9.47 8.5a3 3 0 0 1 1.03 1.03 3 3 0 0 1 1.03-1.03 3 3 0 0 1-1.03-1.03Zm-1.65 2.68c.2.2.2.5 0 .7l-3 3a.5.5 0 1 1-.7-.7l3-3c.2-.2.5-.2.7 0Z"/></svg>