<svg width="24" height="24" viewBox="0 0 24 24" xmlns="http://www.w3.org/2000/svg"><path d="M7.42 2.83C7.6 2.33 8.07 2 8.6 2h6.46c.85 0 1.45.84 1.18 1.65L14.8 8h3.96c1.1 0 1.66 1.33.9 2.12l-.96.99a6.53 6.53 0 00-2.04-.06l1.5-1.55h-4.4a.75.75 0 01-.71-.99L14.7 3.5H8.78l-3.26 9.16c-.06.16.06.33.23.33l2.5.01a.75.75 0 01.73.91L7.51 20.5l3.52-3.63a6.57 6.57 0 00.12 2.03l-2.56 2.65c-1.06 1.08-2.88.1-2.55-1.38l1.27-5.66-1.57-.01c-1.2 0-2.04-1.2-1.64-2.34l3.32-9.32zM23 17.5a5.5 5.5 0 11-11 0 5.5 5.5 0 0111 0zm-2.15-2.35a.5.5 0 00-.7 0l-3.65 3.64-1.65-1.64a.5.5 0 00-.7.7l2 2c.2.2.5.2.7 0l4-4a.5.5 0 000-.7z"/></svg>