<svg width="16" height="16" viewBox="0 0 16 16" xmlns="http://www.w3.org/2000/svg"><path d="M2.91 1.71A1 1 0 013.87 1h4.4a1 1 0 01.94 1.35L8.21 5h2.04a5.47 5.47 0 00-2.88.98.5.5 0 01-.34-.66L8.27 2h-4.4L2.08 8H4a.5.5 0 01.48.64L3 13.67a.23.23 0 000 .17c.03.05.07.1.12.12.06.03.12.04.17.03.04 0 .1-.03.14-.1l1.7-2.13c.1.39.23.76.4 1.11l-1.31 1.65c-.86 1.07-2.56.18-2.18-1.13L3.33 9H1.75a.75.75 0 01-.72-.96L2.9 1.7zM15 10.5a4.5 4.5 0 11-9 0 4.5 4.5 0 019 0zm-2.85-1.85L9.5 11.29l-.65-.64a.5.5 0 00-.7.7l1 1c.2.2.5.2.7 0l3-3a.5.5 0 00-.7-.7z"/></svg>