<svg width="28" height="28" viewBox="0 0 28 28" xmlns="http://www.w3.org/2000/svg"><path d="M8.4 2.85c.2-.51.7-.85 1.25-.85h8.52c.92 0 1.57.92 1.25 1.8l-2.1 5.7h4.84c1.18 0 1.78 1.42.96 2.26l-1.31 1.35a7.55 7.55 0 00-2.01-.08L21.77 11h-5.52a.75.75 0 01-.7-1l2.38-6.5H9.76L5.53 14.43c-.1.28.1.57.39.57h3.7a.75.75 0 01.74.91L8.5 24.34v.09l.06.05c.03.02.06.02.08.02.01 0 .03 0 .07-.04l4.3-4.44a7.6 7.6 0 00.15 2.01L9.78 25.5c-1.14 1.18-3.1.12-2.75-1.48L8.7 16.5H5.92a1.92 1.92 0 01-1.79-2.6L8.41 2.84zM27 20.5a6.5 6.5 0 11-13 0 6.5 6.5 0 0113 0zm-2.65-2.85a.5.5 0 00-.7 0L19 22.29l-1.65-1.64a.5.5 0 00-.7.7l2 2c.2.2.5.2.7 0l5-5a.5.5 0 000-.7z"/></svg>