<svg width="24" height="24" viewBox="0 0 24 24" xmlns="http://www.w3.org/2000/svg"><path d="M12 5.5a4.5 4.5 0 0 0-4.5 4.29.75.75 0 0 1-.74.71H6.5a3 3 0 1 0 0 6H10c.03.53.15 1.03.33 1.5H6.5a4.5 4.5 0 0 1-.42-8.98 6 6 0 0 1 11.84 0c2.23.2 4 2.04 4.08 4.31a4.76 4.76 0 0 0-2-1.5 3 3 0 0 0-2.5-1.33h-.26a.75.75 0 0 1-.74-.71A4.5 4.5 0 0 0 12 5.5Zm10 10.75a3.75 3.75 0 0 0-3.75-3.75h-.1a.75.75 0 0 0 .1 1.5h.15a2.25 2.25 0 0 1-.15 4.5l-.1.01a.75.75 0 0 0 .1 1.5V20h.2A3.75 3.75 0 0 0 22 16.24Zm-6.5-3a.75.75 0 0 0-.75-.75h-.2a3.75 3.75 0 0 0 .2 7.5h.1a.75.75 0 0 0-.1-1.5h-.15a2.25 2.25 0 0 1 .15-4.5h.1a.75.75 0 0 0 .65-.75Zm3.5 3a.75.75 0 0 0-.75-.75h-3.6a.75.75 0 0 0 .1 1.5h3.6a.75.75 0 0 0 .65-.75Z"/></svg>