<svg width="24" height="24" viewBox="0 0 24 24" xmlns="http://www.w3.org/2000/svg"><path d="M5.45 7.03c.33.09.55.38.55.72v8.5a.75.75 0 0 1-1.5 0V9.83c-.38.37-.84.75-1.36 1.06a.75.75 0 0 1-.78-1.28A6.88 6.88 0 0 0 4.6 7.37v-.01h.01a.75.75 0 0 1 .84-.33Zm5.3-.03c-.4 0-.72.3-.75.7l-.25 3.75a.75.75 0 0 0 .86.8l2.2-.32a1.92 1.92 0 1 1 .27 3.82h-.36c-.64 0-1.25-.27-1.68-.75l-.23-.25a.75.75 0 1 0-1.12 1l.24.26a3.78 3.78 0 0 0 2.8 1.24h.35a3.42 3.42 0 1 0-.48-6.8l-1.29.18.14-2.13h3.8a.75.75 0 1 0 0-1.5h-4.5Zm7.53 5.22a.75.75 0 0 0-1.06 1.06l1.22 1.22-1.22 1.22a.75.75 0 1 0 1.06 1.06l1.22-1.22 1.22 1.22a.75.75 0 0 0 1.06-1.06l-1.22-1.22 1.22-1.22a.75.75 0 1 0-1.06-1.06l-1.22 1.22-1.22-1.22ZM8.5 16.25a.75.75 0 1 1-1.5 0 .75.75 0 0 1 1.5 0Z"/></svg>