<svg width="32" height="32" viewBox="0 0 32 32" xmlns="http://www.w3.org/2000/svg"><path d="M14.25 9a1 1 0 0 0-1 .9l-.5 5.26a1 1 0 0 0 1.13 1.08l3.28-.43a2.73 2.73 0 1 1 .36 5.44h-.53c-.9 0-1.77-.38-2.39-1.04l-.37-.4a1 1 0 0 0-1.46 1.37l.37.4a5.26 5.26 0 0 0 3.85 1.67h.53a4.73 4.73 0 1 0-.62-9.42l-2.04.27.3-3.1h5.34a1 1 0 1 0 0-2h-6.25Zm10.46 7.3a1 1 0 0 0-1.42 1.4l1.8 1.8-1.8 1.8a1 1 0 0 0 1.42 1.4l1.79-1.79 1.8 1.8a1 1 0 1 0 1.4-1.42l-1.79-1.79 1.8-1.8a1 1 0 0 0-1.42-1.4l-1.79 1.79-1.8-1.8ZM11 22a1 1 0 1 1-2 0 1 1 0 0 1 2 0ZM7.33 9.05A1 1 0 0 1 8 10v12a1 1 0 1 1-2 0v-9.58c-.55.47-1.22.98-1.99 1.44A1 1 0 1 1 3 12.14 13.27 13.27 0 0 0 6.2 9.4a1 1 0 0 1 1.12-.34Z"/></svg>