<svg width="16" height="16" viewBox="0 0 16 16" xmlns="http://www.w3.org/2000/svg"><path d="M12.25 3h-9.5C1.78 3 1 3.79 1 4.75v7.5c0 .96.78 1.75 1.75 1.75h9.5c.96 0 1.75-.79 1.75-1.75v-7.5C14 3.79 13.21 3 12.25 3Zm.75 9.25c0 .41-.34.75-.75.75h-9.5a.75.75 0 0 1-.75-.75v-7.5c0-.41.34-.75.75-.75h9.5c.41 0 .75.34.75.75v7.5ZM6.96 6.31A.5.5 0 0 1 7 6.5v3A1.5 1.5 0 0 1 5.5 11 1.5 1.5 0 0 1 4 9.5V9a.5.5 0 0 1 .15-.35.52.52 0 0 1 .35-.15.5.5 0 0 1 .35.15A.52.52 0 0 1 5 9v.5a.5.5 0 0 0 .15.35.52.52 0 0 0 .35.15.5.5 0 0 0 .35-.15A.52.52 0 0 0 6 9.5v-3a.5.5 0 0 1 .15-.35A.52.52 0 0 1 6.5 6a.5.5 0 0 1 .35.15c.05.04.09.1.11.16ZM10 7.5v-.07A.43.43 0 0 0 9.57 7h-.14a.42.42 0 0 0-.3.13.42.42 0 0 0 .11.68l.97.49a1.43 1.43 0 0 1 .75 1.6A1.43 1.43 0 0 1 9.59 11h-.15a1.43 1.43 0 0 1-1.32-.88A1.43 1.43 0 0 1 8 9.57c0-.13.05-.27.14-.37.1-.1.22-.16.36-.16a.46.46 0 0 1 .35.12.47.47 0 0 1 .15.34.47.47 0 0 0 .1.34.45.45 0 0 0 .33.16h.14a.43.43 0 0 0 .2-.8l-.98-.5a1.42 1.42 0 0 1-.25-2.39 1.6 1.6 0 0 1 2.04.1c.27.28.42.64.42 1.02 0 .13-.05.27-.14.37-.1.1-.22.16-.36.16a.46.46 0 0 1-.35-.12.46.46 0 0 1-.15-.34Z"/></svg>