<svg width="20" height="20" viewBox="0 0 20 20" xmlns="http://www.w3.org/2000/svg"><path d="M12.07 2.44a2 2 0 0 1-1.44 2.48l-.46.12a4.73 4.73 0 0 0 .01 1.01l.35.09A2 2 0 0 1 12 8.65l-.13.43c.26.2.54.37.84.52l.32-.35a2 2 0 0 1 2.91 0l.34.36c.3-.13.57-.3.82-.5l-.15-.55a2 2 0 0 1 1.43-2.48l.46-.12a4.73 4.73 0 0 0-.01-1.02l-.35-.08A2 2 0 0 1 17 2.34l.13-.42c-.26-.2-.54-.38-.84-.52l-.32.35a2 2 0 0 1-2.91 0l-.34-.36c-.3.13-.57.3-.82.5l.16.55ZM14.5 6.5a1 1 0 1 1 0-2 1 1 0 0 1 0 2ZM17 16v-5.6c.36-.18.7-.4 1-.66V16a2 2 0 0 1-2 2H4a2 2 0 0 1-2-2V8c0-1.1.9-2 2-2h5.02c.03.34.1.68.19 1H4a1 1 0 0 0-1 1v8a1 1 0 0 0 1 1h5.5V7.8c.25.54.6 1.04 1 1.47V17H16a1 1 0 0 0 1-1Zm-11-.5c0-.28.22-.5.5-.5h1a.5.5 0 0 1 0 1h-1a.5.5 0 0 1-.5-.5Zm6.5-.5a.5.5 0 0 0 0 1h1a.5.5 0 1 0 0-1h-1Z"/></svg>