<svg width="28" height="28" viewBox="0 0 28 28" xmlns="http://www.w3.org/2000/svg"><path d="M3 9.5v12.25C3 23.55 4.46 25 6.25 25h15.5c1.8 0 3.25-1.46 3.25-3.25V9.5H3Zm16.26 8a1.25 1.25 0 1 1 0 2.5 1.25 1.25 0 0 1 0-2.5Zm-5.26 0a1.25 1.25 0 1 1 0 2.5 1.25 1.25 0 0 1 0-2.5Zm5.26-5a1.25 1.25 0 1 1 0 2.5 1.25 1.25 0 0 1 0-2.5Zm-5.26 0a1.25 1.25 0 1 1 0 2.5 1.25 1.25 0 0 1 0-2.5Zm-5.25 0a1.25 1.25 0 1 1 0 2.5 1.25 1.25 0 0 1 0-2.5ZM6.25 3A3.25 3.25 0 0 0 3 6.25V8h22V6.25C25 4.45 23.54 3 21.75 3H6.25Z"/></svg>