<svg width="48" height="48" viewBox="0 0 48 48" xmlns="http://www.w3.org/2000/svg"><path d="M32.5 26a2.5 2.5 0 1 1 0-5 2.5 2.5 0 0 1 0 5Zm-11-2.5a2.5 2.5 0 1 0 5 0 2.5 2.5 0 0 0-5 0Zm-6 2.5a2.5 2.5 0 1 1 0-5 2.5 2.5 0 0 1 0 5ZM30 31.5a2.5 2.5 0 1 0 5 0 2.5 2.5 0 0 0-5 0ZM24 34a2.5 2.5 0 1 1 0-5 2.5 2.5 0 0 1 0 5Zm18-21.75C42 8.8 39.2 6 35.75 6h-23.5A6.25 6.25 0 0 0 6 12.25v23.5C6 39.2 8.8 42 12.25 42h23.5C39.2 42 42 39.2 42 35.75v-23.5ZM35.75 8.5a3.75 3.75 0 0 1 3.75 3.75V14h-31v-1.75a3.75 3.75 0 0 1 3.75-3.75h23.5Zm3.75 27.25a3.75 3.75 0 0 1-3.75 3.75h-23.5a3.75 3.75 0 0 1-3.75-3.75V16.5h31v19.25Z"/></svg>