<svg width="24" height="24" viewBox="0 0 24 24" xmlns="http://www.w3.org/2000/svg"><path d="M11.5 2.04c.31-.1.65 0 .84.25L14.42 5l2.92-1.87a.75.75 0 011.12.87L17.3 7.5h3.96a.75.75 0 01.53 1.28l-2.05 2.05 2.13 2.98a.75.75 0 01-.61 1.19h-3a.75.75 0 110-1.5h1.54l-1.65-2.31a.75.75 0 01.08-.97L19.44 9h-3.19a.75.75 0 01-.71-.99l.83-2.48-1.71 1.1a.75.75 0 01-1-.17l-1.16-1.5v2.29a.75.75 0 01-1.5 0v-4.5c0-.32.2-.6.5-.71zM12 17.5a1 1 0 100-2 1 1 0 000 2zm-5-1a1 1 0 11-2 0 1 1 0 012 0zm8.14-2.75h.11a.75.75 0 100-1.5h-.6l-.39-1.55c-.25-1-1.15-1.7-2.18-1.7H5.99c-1.08 0-2 .77-2.2 1.84l-.27 1.41h-.77a.75.75 0 000 1.5h.11c-.53.5-.86 1.21-.86 2v4.75a1.5 1.5 0 103 0V20h8v.5a1.5 1.5 0 103 0v-4.75c0-.79-.33-1.5-.86-2zM5.99 10.5h6.09c.34 0 .64.23.73.57l.45 1.81-.01.12H4.9l.36-1.89a.75.75 0 01.73-.61zm8.51 8h-11v-2.75c0-.69.56-1.25 1.25-1.25h8.5c.69 0 1.25.56 1.25 1.25v2.75z"/></svg>