<svg width="20" height="20" viewBox="0 0 20 20" xmlns="http://www.w3.org/2000/svg"><path d="M9.36 2.02a.5.5 0 0 1 .56.2l1.72 2.59 2.58-1.73a.5.5 0 0 1 .77.54L14.14 7h3.36a.5.5 0 0 1 .35.85l-2.57 2.57 2.5 1.66a.5.5 0 0 1-.28.92h-3a.5.5 0 1 1 0-1h1.35l-1.63-1.08a.5.5 0 0 1-.07-.77L16.29 8H13.5a.5.5 0 0 1-.49-.62l.7-2.75-1.93 1.29a.5.5 0 0 1-.7-.14L10 4.15V5.5a.5.5 0 0 1-1 0v-3a.5.5 0 0 1 .36-.48ZM2.5 10a.5.5 0 1 0 0 1H3c-.6.46-1 1.18-1 2v4a1 1 0 0 0 2 0v-.5h7v.5a1 1 0 0 0 2 0v-4c0-.82-.4-1.54-1-2h.5a.5.5 0 0 0 0-1h-.66l-.14-.83A2 2 0 0 0 9.73 7.5H5.27A2 2 0 0 0 3.3 9.17l-.14.83H2.5Zm1.58.53.2-1.2a1 1 0 0 1 1-.83h4.45a1 1 0 0 1 .99.84l.2 1.2a2.52 2.52 0 0 0-.42-.04h-6l-.42.03Zm1.42 3.22a.75.75 0 1 1-1.5 0 .75.75 0 0 1 1.5 0Zm4.75.75a.75.75 0 1 1 0-1.5.75.75 0 0 1 0 1.5Z"/></svg>