<svg width="32" height="32" viewBox="0 0 32 32" xmlns="http://www.w3.org/2000/svg"><path d="M16.72 3.3A1 1 0 0015 4v5a1 1 0 102 0V6.48l2.28 2.36a1 1 0 001.34.1L22 7.85l-.95 2.83A1 1 0 0022 12h3l-1.8 2.4a1 1 0 00.18 1.38L26.15 18H24a1 1 0 100 2h5a1 1 0 00.62-1.78l-4.24-3.4 2.42-3.22A1 1 0 0027 10h-3.61l1.56-4.68a1 1 0 00-1.57-1.1L20.1 6.8l-3.37-3.5zM17 23a1 1 0 100-2 1 1 0 000 2zM7 22a1 1 0 11-2 0 1 1 0 012 0zm2.75 0a1 1 0 100 2h3.5a1 1 0 100-2h-3.5zM20 18h-1.06A4 4 0 0121 21.5v6a2.5 2.5 0 01-2.5 2.5H17a2.5 2.5 0 01-2.5-2.5v-1h-6v1A2.5 2.5 0 016 30H4.5A2.5 2.5 0 012 27.5v-6A4 4 0 014.06 18H3a1 1 0 110-2h1.49l.21-1.28A3.25 3.25 0 017.9 12h7.2a3.25 3.25 0 013.2 2.72l.21 1.28H20a1 1 0 110 2zM6.67 15.04l-.4 2.46h10.47l-.41-2.46c-.1-.6-.62-1.04-1.24-1.04H7.91c-.62 0-1.14.44-1.24 1.04zM16.5 26.5v1c0 .28.22.5.5.5h1.5a.5.5 0 00.5-.5v-1h-2.5zM4 26.5v1c0 .28.22.5.5.5H6a.5.5 0 00.5-.5v-1H4zm2-7a2 2 0 00-2 2v3h15v-3a2 2 0 00-2-2H6z"/></svg>