<svg width="16" height="16" viewBox="0 0 16 16" xmlns="http://www.w3.org/2000/svg"><path d="M8.9 1.2a.5.5 0 00-.9.3v2a.5.5 0 001 0V3l.61.8a.5.5 0 00.59.16l1.48-.6-.65 1.98a.5.5 0 00.47.66h1.58l-1.39 1.11a.5.5 0 000 .78L13.08 9H11.5a.5.5 0 000 1h3a.5.5 0 00.31-.89l-2-1.61 2-1.61A.5.5 0 0014.5 5h-2.3l.77-2.34a.5.5 0 00-.66-.62l-2.13.85L8.9 1.2zM1.64 8l-.1.62A2 2 0 001 10v3a1 1 0 002 0h5a1 1 0 002 0v-3a2 2 0 00-.55-1.38L9.36 8H10a.5.5 0 000-1h-.78l-.1-.71A1.5 1.5 0 007.63 5H3.37a1.5 1.5 0 00-1.49 1.29l-.1.71a.5.5 0 00-.03 0H1a.5.5 0 000 1h.64zm1.73-2h4.26a.5.5 0 01.5.43l.23 1.6A2.01 2.01 0 008 8H3l-.36.03.23-1.6a.5.5 0 01.5-.43zM8 10.5a.5.5 0 11-1 0 .5.5 0 011 0zm-4.5.5a.5.5 0 110-1 .5.5 0 010 1z"/></svg>