<svg width="48" height="48" viewBox="0 0 48 48" xmlns="http://www.w3.org/2000/svg"><path d="M23.88 2.06c.52-.17 1.09.03 1.4.48l4.78 6.95 5.96-4.26a1.25 1.25 0 0 1 1.92 1.4l-2.48 7.87h6.29a1.25 1.25 0 0 1 .95 2.06l-4.63 5.47 6.42 4.71a1.25 1.25 0 0 1-.74 2.26h-7.5a1.25 1.25 0 0 1 0-2.5h3.68l-4.42-3.24a1.25 1.25 0 0 1-.21-1.82L39.05 17h-5.3a1.25 1.25 0 0 1-1.2-1.63l1.88-5.93-3.95 2.83a1.25 1.25 0 0 1-1.76-.31L25.5 7.27v6.48a1.25 1.25 0 0 1-2.5 0V3.25c0-.55.36-1.03.88-1.2ZM11 35a2 2 0 1 0 0-4 2 2 0 0 0 0 4Zm17-2a2 2 0 1 1-4 0 2 2 0 0 1 4 0Zm-11.75 1a1.25 1.25 0 1 0 0 2.5h4.5a1.25 1.25 0 0 0 0-2.5h-4.5Zm-9.87-6.74.17-.76h-1.3a1.25 1.25 0 0 1 0-2.5h1.84l.5-2.36a5.25 5.25 0 0 1 5.14-4.14h11.54c2.47 0 4.61 1.72 5.13 4.14l.52 2.4c.1-.02.22-.04.33-.04h1.5a1.25 1.25 0 1 1 0 2.5h-1.3l.17.76c1.4.54 2.38 1.9 2.38 3.49v11.5c0 1.8-1.46 3.25-3.25 3.25h-2.5A3.25 3.25 0 0 1 24 42.25V41H13v1.25c0 1.8-1.46 3.25-3.25 3.25h-2.5A3.25 3.25 0 0 1 4 42.25v-11.5c0-1.59.99-2.95 2.38-3.5Zm3.66-5.1L9 27h19l-1.04-4.83A2.75 2.75 0 0 0 24.27 20H12.73c-1.3 0-2.42.9-2.69 2.17ZM26.5 42.26c0 .41.34.75.75.75h2.5c.41 0 .75-.34.75-.75V41h-4v1.25ZM10.5 41h-4v1.25c0 .41.34.75.75.75h2.5c.41 0 .75-.34.75-.75V41Zm-4-10.25v7.75h24v-7.75c0-.69-.56-1.25-1.25-1.25H7.75c-.69 0-1.25.56-1.25 1.25Z"/></svg>