<svg width="28" height="28" viewBox="0 0 28 28" xmlns="http://www.w3.org/2000/svg"><path d="M13.53 2.03c.32-.1.66.03.84.3l2.35 3.52 4.24-1.8a.75.75 0 01.98 1L20.4 8.5h3.85a.75.75 0 01.58 1.23l-2.1 2.5 3.08 3.53a.75.75 0 01-.56 1.24h-4.5a.75.75 0 110-1.5h2.85l-2.41-2.76a.75.75 0 01-.02-.97L22.65 10h-3.4a.75.75 0 01-.69-1.05l1.23-2.77-3.06 1.3a.75.75 0 01-.92-.28L14.5 5.23v3.02a.75.75 0 01-1.5 0v-5.5c0-.33.22-.62.53-.72zM4.15 14l.31-1.74A2.75 2.75 0 017.16 10h6.17c1.33 0 2.47.95 2.7 2.26l.33 1.75.14-.01h1.25a.75.75 0 110 1.5h-.42c.7.5 1.17 1.32 1.17 2.25v6.5c0 .97-.78 1.75-1.75 1.75h-1.5c-.97 0-1.75-.78-1.75-1.75V23H7v1.25C7 25.22 6.22 26 5.25 26h-1.5C2.78 26 2 25.22 2 24.25V22.5l.01-.12a.76.76 0 01-.01-.13v-4.5c0-.93.46-1.75 1.17-2.25h-.42a.75.75 0 010-1.5h1.4zm1.79-1.47L5.49 15h9.52l-.45-2.47c-.1-.6-.63-1.03-1.23-1.03H7.17c-.6 0-1.12.43-1.23 1.03zM17 23h-2v1.25c0 .14.11.25.25.25h1.5c.14 0 .25-.11.25-.25V23zM3.5 24.25c0 .14.11.25.25.25h1.5c.14 0 .25-.11.25-.25V23h-2v1.25zm11-4.25a1 1 0 100-2 1 1 0 000 2zM7 19a1 1 0 10-2 0 1 1 0 002 0zm1.75 0a.75.75 0 100 1.5h3a.75.75 0 000-1.5h-3z"/></svg>