<svg width="20" height="20" viewBox="0 0 20 20" xmlns="http://www.w3.org/2000/svg"><path d="M9.36 2.02a.5.5 0 01.56.2l1.72 2.59 2.58-1.73a.5.5 0 01.77.54L14.14 7h3.36a.5.5 0 01.35.85l-2.57 2.57 2.5 1.66a.5.5 0 01-.28.92h-3a.5.5 0 110-1h1.35l-1.63-1.08a.5.5 0 01-.07-.77L16.29 8H13.5a.5.5 0 01-.49-.62l.7-2.75-1.93 1.29a.5.5 0 01-.7-.14L10 4.15V5.5a.5.5 0 01-1 0v-3a.5.5 0 01.36-.48zM2.5 10a.5.5 0 100 1H3c-.6.46-1 1.18-1 2v4a1 1 0 002 0v-.5h7v.5a1 1 0 002 0v-4c0-.82-.4-1.54-1-2h.5a.5.5 0 000-1h-.66l-.14-.83A2 2 0 009.73 7.5H5.27A2 2 0 003.3 9.17l-.14.83H2.5zm1.58.53l.2-1.2a1 1 0 011-.83h4.45a1 1 0 01.99.84l.2 1.2a2.52 2.52 0 00-.42-.04h-6l-.42.03zm1.42 3.22a.75.75 0 11-1.5 0 .75.75 0 011.5 0zm4.75.75a.75.75 0 110-1.5.75.75 0 010 1.5z"/></svg>