<svg width="32" height="32" viewBox="0 0 32 32" xmlns="http://www.w3.org/2000/svg"><path d="M16.72 3.3A1 1 0 0015 4v5a1 1 0 102 0V6.48l2.28 2.36a1 1 0 001.34.1L22 7.85l-.95 2.83A1 1 0 0022 12h3l-1.8 2.4a1 1 0 00.18 1.38L26.15 18H24a1 1 0 100 2h5a1 1 0 00.62-1.78l-4.24-3.4 2.42-3.22A1 1 0 0027 10h-3.61l1.56-4.68a1 1 0 00-1.57-1.1L20.1 6.8l-3.37-3.5zM4.51 16H3a1 1 0 100 2h1.06A4 4 0 002 21.5v6A2.5 2.5 0 004.5 30H6a2.5 2.5 0 002.5-2.5v-1h6v1A2.5 2.5 0 0017 30h1.5a2.5 2.5 0 002.5-2.5v-6a4 4 0 00-2.06-3.5H20a1 1 0 100-2h-1.5l-.18-1.05A3.5 3.5 0 0014.87 12H8.13a3.5 3.5 0 00-3.45 2.95L4.5 16zm12.2 1.5H6.29l.36-2.24A1.5 1.5 0 018.13 14h6.74c.74 0 1.36.54 1.48 1.26l.36 2.24zm2.29 9v1a.5.5 0 01-.5.5H17a.5.5 0 01-.5-.5v-1H19zm-12.5 0v1a.5.5 0 01-.5.5H4.5a.5.5 0 01-.5-.5v-1h2.5zM17 23a1 1 0 110-2 1 1 0 010 2zM7 22a1 1 0 11-2 0 1 1 0 012 0zm2.75 0h3.5a1 1 0 110 2h-3.5a1 1 0 110-2z"/></svg>