<svg width="32" height="32" viewBox="0 0 32 32" xmlns="http://www.w3.org/2000/svg"><path d="M10 11.41l-7.7-7.7a1 1 0 011.4-1.42l26 26a1 1 0 01-1.4 1.42l-5.97-5.97A9.95 9.95 0 0117 25.95V29a1 1 0 11-2 0v-3-.05A10 10 0 016 16a1 1 0 112 0 8 8 0 0012.9 6.32l-1.42-1.43A6 6 0 0110 16v-4.58zm8.03 8.04L12 13.4V16a4 4 0 006.03 3.45zM20 16c0 .15 0 .3-.02.44l1.65 1.65c.24-.65.37-1.35.37-2.09V8a6 6 0 00-11.84-1.38L12 8.47V8a4 4 0 018 0v8zm3.14 3.6l1.48 1.48A9.95 9.95 0 0026 16a1 1 0 10-2 0c0 1.3-.3 2.52-.86 3.6z"/></svg>