<svg width="28" height="28" viewBox="0 0 28 28" xmlns="http://www.w3.org/2000/svg"><path d="M19.31 18.25 3.28 2.22a.75.75 0 1 0-1.06 1.06l7.28 7.28v3.94a4.5 4.5 0 0 0 7.39 3.45l1.42 1.42A6.5 6.5 0 0 1 7.5 14.5v-.75a.75.75 0 1 0-1.51 0v.75a8 8 0 0 0 7.25 7.97v2.78a.75.75 0 0 0 1.5 0v-2.78a7.97 7.97 0 0 0 4.62-2.04l5.35 5.35c.3.3.77.3 1.06 0a.75.75 0 0 0 0-1.06l-5.4-5.4-1.07-1.07Z"/><path d="M21.2 18c.5-1.05.8-2.24.8-3.5v-.75a.75.75 0 1 0-1.5 0v.75c0 .84-.16 1.64-.45 2.37l1.14 1.14Z"/><path d="M18.44 15.26c.04-.25.06-.5.06-.76v-8a4.5 4.5 0 0 0-9-.18l8.94 8.94Z"/></svg>