<svg width="24" height="24" viewBox="0 0 24 24" xmlns="http://www.w3.org/2000/svg"><path d="M1 8.57V4.43c0-.57.32-1.09.83-1.34l3.5-1.75a1.5 1.5 0 0 1 1.34 0l3.5 1.75c.5.25.83.77.83 1.34v4.14a1.5 1.5 0 0 1-.83 1.35l-3.5 1.75a1.5 1.5 0 0 1-1.34 0l-3.5-1.75A1.5 1.5 0 0 1 1 8.57Zm1.55-4.04a.5.5 0 0 0 .23.67L5.5 6.56V9.5a.5.5 0 1 0 1 0V6.56L9.22 5.2a.5.5 0 1 0-.44-.9L6 5.7 3.22 4.3a.5.5 0 0 0-.67.23Zm.95 7.34v5.38c0 .39.3.7.67.75a3 3 0 0 1 5.66 0h2.34A3 3 0 0 1 15 16V5.25a.75.75 0 0 0-.75-.75H12v-.07A2.5 2.5 0 0 0 11.55 3h2.7c1.24 0 2.25 1 2.25 2.25V6h1.55c.87 0 1.66.5 2.03 1.29l1.7 3.58c.15.3.22.63.22.97v5.41c0 1.24-1 2.25-2.25 2.25h-1.8a3 3 0 0 1-5.9 0h-2.1a3 3 0 0 1-5.91 0A2.25 2.25 0 0 1 2 17.24v-6.13l1.5.75Zm13 4.53c.61.36 1.09.92 1.33 1.6h1.92c.41 0 .75-.34.75-.75V17h-1.25a.75.75 0 1 1 0-1.5h1.25v-3h-4v3.9Zm1.55-8.9H16.5V11h3.68l-1.45-3.07a.75.75 0 0 0-.68-.43ZM5.5 19a1.5 1.5 0 1 0 3 0 1.5 1.5 0 0 0-3 0Zm9.5 1.5a1.5 1.5 0 1 0 0-3 1.5 1.5 0 0 0 0 3Z"/></svg>