<svg width="24" height="24" viewBox="0 0 24 24" xmlns="http://www.w3.org/2000/svg"><path d="M10.55 2.53c.84-.7 2.06-.7 2.9 0l6.75 5.7c.5.42.8 1.05.8 1.71v1.32a4.4 4.4 0 0 0-1.5-.26V9.94c0-.22-.1-.43-.27-.57l-6.75-5.7a.75.75 0 0 0-.96 0l-6.75 5.7a.75.75 0 0 0-.27.57v9.31c0 .14.11.25.25.25h7.17l1.45 1.5H4.75C3.78 21 3 20.22 3 19.25v-9.3c0-.67.3-1.3.8-1.73l6.75-5.69Zm11.43 15.64a3.7 3.7 0 0 0-.48-5.52 3.4 3.4 0 0 0-4.46.4h-.08a3.4 3.4 0 0 0-5.46.7 3.71 3.71 0 0 0 .52 4.42l4.45 4.6c.3.3.77.3 1.06 0l4.45-4.6Z"/></svg>