<svg width="32" height="32" viewBox="0 0 32 32" xmlns="http://www.w3.org/2000/svg"><path d="M15.19 4.3c.47-.4 1.15-.4 1.62 0l9.75 8.29c.28.24.44.58.44.95v.97a5.8 5.8 0 0 1 2 .52v-1.49c0-.95-.42-1.86-1.15-2.48L18.1 2.78a3.25 3.25 0 0 0-4.2 0l-9.75 8.28A3.25 3.25 0 0 0 3 13.54V26.5A2.5 2.5 0 0 0 5.5 29h12.61l-1.86-2H5.5a.5.5 0 0 1-.5-.5V13.54c0-.37.16-.71.44-.95l9.75-8.29Zm7.3 14.2-.64-.82a4.34 4.34 0 0 0-6.46-.44 4.64 4.64 0 0 0-.17 6.45l6.46 6.95a1.1 1.1 0 0 0 1.63 0l6.46-6.95a4.64 4.64 0 0 0-.16-6.45 4.34 4.34 0 0 0-6.47.44l-.64.82Z"/></svg>