<svg width="20" height="20" viewBox="0 0 20 20" xmlns="http://www.w3.org/2000/svg"><path d="M2.98 14.54c-.26.27-.55.51-.86.7a.5.5 0 1 1-.54-.83A3.33 3.33 0 0 0 3 12.62a.5.5 0 0 1 .99.11v5.77a.5.5 0 0 1-1 0v-3.96Zm4.6-1.3c-.62 0-1.09.53-1.09 1.06a.5.5 0 0 1-1 0 2.1 2.1 0 0 1 2.1-2.07c.72 0 1.42.33 1.81.91.41.61.43 1.41-.06 2.21-.24.4-.58.71-.91.97l-.5.35-.08.05-.4.28c-.43.32-.74.6-.88 1h2.6a.5.5 0 0 1 0 1H5.98a.5.5 0 0 1-.5-.5c0-1.17.7-1.82 1.37-2.3l.43-.3.07-.05.46-.33c.29-.22.52-.44.67-.69.31-.51.24-.89.08-1.13a1.18 1.18 0 0 0-.98-.47Zm4.48.25a.92.92 0 0 0-.28.43.5.5 0 1 1-.96-.28c.08-.27.25-.62.6-.9.34-.3.83-.5 1.49-.5 1.32 0 2.1.93 2.1 1.8 0 .35-.06.87-.43 1.32a1.8 1.8 0 0 1-.22.22 1.65 1.65 0 0 1 .65 1.34 2 2 0 0 1-.68 1.62c-.42.35-.95.46-1.42.46-.45 0-.89-.07-1.27-.3-.38-.24-.65-.6-.81-1.09a.5.5 0 1 1 .95-.32c.1.3.24.46.39.55.15.1.38.16.74.16.33 0 .6-.08.79-.23.16-.14.31-.38.31-.84 0-.2-.05-.32-.11-.41a.78.78 0 0 0-.32-.24c-.3-.13-.68-.16-.94-.16a.5.5 0 0 1 0-1c.71 0 1.02-.22 1.16-.4.16-.19.21-.45.21-.68 0-.28-.28-.8-1.1-.8-.44 0-.7.12-.85.25ZM2 9.25c0-.41.34-.75.75-.75h14.5a.75.75 0 0 1 0 1.5H2.75A.75.75 0 0 1 2 9.25Zm0-5c0-.41.34-.75.75-.75h14.5a.75.75 0 0 1 0 1.5H2.75A.75.75 0 0 1 2 4.25Zm14 10c0-.41.34-.75.75-.75h.5a.75.75 0 0 1 0 1.5h-.5a.75.75 0 0 1-.75-.75Z"/></svg>