<svg width="20" height="20" viewBox="0 0 20 20" xmlns="http://www.w3.org/2000/svg"><path d="M2.5 3a.5.5 0 0 0 0 1h15a.5.5 0 0 0 0-1h-15Z"/><path d="M2.5 16a.5.5 0 0 0 0 1h15a.5.5 0 0 0 0-1h-15Z"/><path d="M4 13c0 1.1.9 2 2 2h1a2 2 0 0 0 2-2V7a2 2 0 0 0-2-2H6a2 2 0 0 0-2 2v6Zm2 1a1 1 0 0 1-1-1V7a1 1 0 0 1 1-1h1a1 1 0 0 1 1 1v6a1 1 0 0 1-1 1H6Z"/><path d="M13 15h1a2 2 0 0 0 2-2V7a2 2 0 0 0-2-2h-1a2 2 0 0 0-2 2v6c0 1.1.9 2 2 2Zm-1-2V7a1 1 0 0 1 1-1h1a1 1 0 0 1 1 1v6a1 1 0 0 1-1 1h-1a1 1 0 0 1-1-1Z"/></svg>