<svg width="24" height="24" viewBox="0 0 24 24" xmlns="http://www.w3.org/2000/svg"><path d="M10.55 2.53c.84-.7 2.06-.7 2.9 0l6.75 5.7c.5.42.8 1.05.8 1.71v1.5a9.08 9.08 0 00-1.5-.34V9.94c0-.22-.1-.43-.27-.57l-6.75-5.7a.75.75 0 00-.96 0l-6.75 5.7a.75.75 0 00-.27.57v9.8c0 .14.11.26.25.26H12v.5c0 .37.08.7.22 1H4.75C3.78 21.5 3 20.7 3 19.75v-9.8c0-.67.3-1.3.8-1.73l6.75-5.69zm8.95 9.58c.55.09 1.05.22 1.5.39 1.21.46 2 1.18 2 2 0 .82-.79 1.54-2 2-.45.17-.95.3-1.5.39A9.7 9.7 0 0118 17c-2.76 0-5-1.12-5-2.5s2.24-2.5 5-2.5c.52 0 1.03.04 1.5.11zm0 5.79a9.08 9.08 0 002.48-.74c.36-.17.71-.4 1.02-.67v4.01c0 1.38-2.24 2.5-5 2.5-2.05 0-3.81-.62-4.58-1.5-.27-.3-.42-.64-.42-1v-4c.31.26.66.49 1.02.66A9.1 9.1 0 0018 18c.51 0 1.02-.04 1.5-.1z"/></svg>