<svg width="24" height="24" viewBox="0 0 24 24" xmlns="http://www.w3.org/2000/svg"><path d="M10.55 2.53c.84-.7 2.06-.7 2.9 0l6.75 5.7c.5.42.8 1.05.8 1.71v1.5a8.99 8.99 0 0 0-1.5-.34V9.94c0-.22-.1-.43-.27-.57l-6.75-5.7a.75.75 0 0 0-.96 0l-6.75 5.7a.75.75 0 0 0-.27.57v9.31c0 .14.11.25.25.25H12v1c0 .17.02.34.06.5H4.75C3.78 21 3 20.22 3 19.25v-9.3c0-.67.3-1.3.8-1.73l6.75-5.69ZM21 12.5c-.45-.17-.95-.3-1.5-.39A9.7 9.7 0 0 0 18 12c-2.76 0-5 1.12-5 2.5s2.24 2.5 5 2.5a9.7 9.7 0 0 0 1.5-.11 7.68 7.68 0 0 0 1.5-.39c1.21-.46 2-1.18 2-2 0-.82-.79-1.54-2-2Zm0 5.06a9.08 9.08 0 0 1-3 .44 9.1 9.1 0 0 1-3.98-.84c-.36-.17-.71-.4-1.02-.67v4.01c0 .36.15.7.42 1 .77.88 2.53 1.5 4.58 1.5 2.76 0 5-1.12 5-2.5v-4c-.31.26-.66.49-1.02.66-.3.15-.63.29-.98.4Z"/></svg>