<svg width="24" height="24" viewBox="0 0 24 24" xmlns="http://www.w3.org/2000/svg"><path d="M13.45 2.53c-.84-.7-2.06-.7-2.9 0L3.8 8.23c-.5.43-.8 1.05-.8 1.72v9.8c0 .97.78 1.75 1.75 1.75h7.47c-.14-.3-.22-.63-.22-1v-6c0-1.27 1-2.16 2.02-2.66A9.1 9.1 0 0118 11c1.08 0 2.1.16 3 .44v-1.5c0-.66-.3-1.28-.8-1.71l-6.75-5.7zM21 17.56c.35-.11.68-.25.98-.4.36-.17.71-.4 1.02-.67v4.01c0 1.38-2.24 2.5-5 2.5-2.05 0-3.81-.62-4.58-1.5-.27-.3-.42-.64-.42-1v-4a4.86 4.86 0 001.43.85c1.01.42 2.26.65 3.57.65 1.08 0 2.1-.16 3-.44zm-8-3.06c0-.36.15-.7.42-1 .77-.88 2.53-1.5 4.58-1.5 1.13 0 2.16.19 3 .5 1.21.46 2 1.18 2 2 0 .82-.79 1.54-2 2-.84.31-1.87.5-3 .5-2.76 0-5-1.12-5-2.5z"/></svg>