<svg width="32" height="32" viewBox="0 0 32 32" xmlns="http://www.w3.org/2000/svg"><path d="M16.81 4.3c-.47-.4-1.15-.4-1.62 0L5.44 12.6c-.28.24-.44.58-.44.95V26.5c0 .28.22.5.5.5H15v.5c0 .57.17 1.07.42 1.5H5.5A2.5 2.5 0 013 26.5V13.54c0-.95.42-1.86 1.15-2.48l9.75-8.28a3.25 3.25 0 014.2 0l9.75 8.28A3.25 3.25 0 0129 13.54v1.44c-.6-.25-1.27-.46-2-.62v-.82c0-.37-.16-.71-.44-.95L16.81 4.3zm.63 24.7c-.6-.44-.94-.95-.94-1.5v-6.33c.44.33.94.6 1.46.83a16.51 16.51 0 009.04.64c.73-.16 1.4-.37 2-.62l.04-.02c.52-.22 1.02-.5 1.46-.83v6.33c0 1.66-3.13 3-7 3-2.6 0-4.85-.6-6.06-1.5zM29 20.36c-.55.3-1.23.55-2 .74-1.03.25-2.23.4-3.5.4-3.87 0-7-1.34-7-3s3.13-3 7-3c1.27 0 2.47.15 3.5.4.77.2 1.45.45 2 .74.94.51 1.5 1.16 1.5 1.86 0 .7-.56 1.35-1.5 1.86z"/></svg>