<svg width="32" height="32" viewBox="0 0 32 32" xmlns="http://www.w3.org/2000/svg"><path d="M8.22 4.36a14 14 0 1115.56 23.28A14 14 0 018.22 4.36zM8.3 20.6c-.8 1.07-.55 3.11-.39 4.24a11.92 11.92 0 0014.49 1.28 3.75 3.75 0 01-1.9-2.42c-.36-1.79.83-2.91 1.73-3.74.9-.83 1.11-1.14 1-1.52a5 5 0 00-.73.15 2.13 2.13 0 01-2.08-.17 1.68 1.68 0 01-.42-1.59 4 4 0 00-1.07-2.93c-.67-.95-1.68-2.39-.3-3.64 1.44-1.3 2.7-2.77 3.76-4.4A11.92 11.92 0 0016 4h-.37l.05.18.06.1c.83 1.53 1.74 3.17 1.19 5.45-.44 1.82-2.14 2.4-3.4 2.83l-.04.01c-.43.11-.85.3-1.23.53-.5.67-.36 1.34-.1 2.34a3.64 3.64 0 01-.16 3.11 2.62 2.62 0 01-2 1.13 2 2 0 00-1.7.92z"/></svg>