<svg width="32" height="32" viewBox="0 0 32 32" xmlns="http://www.w3.org/2000/svg"><path d="M16 2a14 14 0 100 28 14 14 0 000-28zm-2.51 2.27l.49.9c.76 1.36 1.43 2.53 1 4.1-.17.68-1 1-2.14 1.4-.82.2-1.56.62-2.14 1.23a4.31 4.31 0 00-.43 4c.19.74.3 1.2.1 1.5-.2.3-.15.18-.68.25a3.94 3.94 0 00-3 1.7c-.58.84-.9 1.82-.93 2.84a11.85 11.85 0 01.91-13.73 12 12 0 016.82-4.19zM7.91 24.84c-.16-1.13-.41-3.17.39-4.24a2 2 0 011.7-.92 2.62 2.62 0 002-1.13 3.64 3.64 0 00.16-3.11c-.26-1-.4-1.67.1-2.34.38-.24.8-.42 1.23-.53 1.27-.43 3-1 3.44-2.84.56-2.33-.4-4-1.25-5.55L15.63 4H16c2.26 0 4.48.65 6.39 1.86a21.74 21.74 0 01-3.76 4.4c-1.38 1.25-.37 2.69.3 3.64A4 4 0 0120 16.83a1.68 1.68 0 00.42 1.59 2.13 2.13 0 002.08.17 5 5 0 01.73-.15c.11.38-.1.69-1 1.52-.9.83-2.09 1.95-1.73 3.74a3.75 3.75 0 001.9 2.42 11.92 11.92 0 01-14.49-1.28zm16.2 0l-.39-.25c-.7-.42-1.13-.72-1.24-1.27-.11-.55.25-1.05 1.14-1.88.89-.83 2.13-2 1.47-3.77-.61-1.61-2.29-1.2-3.05-1a6.18 6.18 0 00-1.47-3.9c-.25-.3-.45-.64-.6-1a23.31 23.31 0 004-4.67 11.95 11.95 0 01.12 17.75l.02-.01z"/></svg>