<svg width="20" height="20" viewBox="0 0 20 20" xmlns="http://www.w3.org/2000/svg"><path d="M2 6.75A2.75 2.75 0 0 1 4.75 4h10.5A2.75 2.75 0 0 1 18 6.75v3.6c-.26-.4-.6-.72-1-.95V6.75C17 5.78 16.22 5 15.25 5H4.75C3.78 5 3 5.78 3 6.75v6.5c0 .97.78 1.75 1.75 1.75h6.75c-.22.3-.38.63-.45 1h-6.3A2.75 2.75 0 0 1 2 13.25v-6.5ZM15.5 14a2 2 0 1 0 0-4 2 2 0 0 0 0 4Zm0 5c2.5 0 3.5-1.25 3.5-2.5 0-.83-.67-1.5-1.5-1.5h-4c-.83 0-1.5.67-1.5 1.5 0 1.25 1 2.5 3.5 2.5Zm-9-12a.5.5 0 0 0-.5.5v5a.5.5 0 0 0 1 0V11h1a2 2 0 1 0 0-4H6.5ZM8 10H7V8h1a1 1 0 0 1 0 2Z"/></svg>