<svg width="32" height="32" viewBox="0 0 32 32" xmlns="http://www.w3.org/2000/svg"><path d="M15.45 2.17a1 1 0 011.1 0A25.23 25.23 0 0028.1 6.5a1 1 0 01.9 1V16c0 3.88-2.12 7.17-4.7 9.55-2.57 2.37-5.74 3.97-8.12 4.41L16 30l-.18-.04c-2.38-.44-5.55-2.04-8.12-4.41C5.12 23.17 3 19.88 3 16V7.5a1 1 0 01.9-1c4.79-.47 8.63-2.39 11.55-4.33zm1.8 20.08a1.25 1.25 0 10-2.5 0 1.25 1.25 0 002.5 0zM14 13a2 2 0 114 0c0 .73-.42 1.2-1.21 2.01l-.05.05c-.72.73-1.74 1.77-1.74 3.44a1 1 0 102 0c0-.8.43-1.3 1.21-2.09l.09-.08C19 15.62 20 14.61 20 13a4 4 0 00-8 0 1 1 0 102 0z"/></svg>