<svg width="20" height="20" viewBox="0 0 20 20" xmlns="http://www.w3.org/2000/svg"><path d="M9.72 2.08a.5.5 0 01.56 0c1.94 1.3 4.03 2.1 6.3 2.43A.5.5 0 0117 5v4.5c0 3.9-2.3 6.73-6.82 8.47a.5.5 0 01-.36 0C5.31 16.23 3 13.39 3 9.5V5a.5.5 0 01.43-.5 15.05 15.05 0 006.3-2.42zm1.03 11.67a.75.75 0 10-1.5 0 .75.75 0 001.5 0zm-2-5.5a1.25 1.25 0 112.5 0c0 .46-.27.76-.73 1.22l-.03.03c-.42.42-.99.99-.99 1.9v.1a.5.5 0 001 0v-.1c0-.47.27-.77.73-1.22l.03-.04c.42-.41.99-.98.99-1.89a2.25 2.25 0 00-4.5 0 .5.5 0 001 0z"/></svg>