<svg width="32" height="32" viewBox="0 0 32 32" xmlns="http://www.w3.org/2000/svg"><path d="M17.25 22.25a1.25 1.25 0 11-2.5 0 1.25 1.25 0 012.5 0zM14 13a2 2 0 114 0c0 .73-.42 1.2-1.21 2.01l-.05.05c-.72.73-1.74 1.77-1.74 3.44a1 1 0 102 0c0-.8.43-1.3 1.21-2.09l.09-.08C19 15.62 20 14.61 20 13a4 4 0 00-8 0 1 1 0 102 0zm2.55-10.83a1 1 0 00-1.1 0A25.23 25.23 0 013.9 6.5a1 1 0 00-.9 1V16c0 3.88 2.12 7.17 4.7 9.55 2.57 2.37 5.74 3.97 8.12 4.41L16 30l.18-.04c2.38-.44 5.55-2.04 8.12-4.41C26.88 23.17 29 19.88 29 16V7.5a1 1 0 00-.9-1 25.23 25.23 0 01-11.55-4.33zM5 16V8.39a27.2 27.2 0 0011-4.2 27.2 27.2 0 0011 4.2V16c0 3.12-1.71 5.92-4.06 8.08-2.27 2.1-5 3.47-6.94 3.88a16.25 16.25 0 01-6.94-3.88C6.7 21.92 5 19.12 5 16z"/></svg>