<svg width="28" height="28" viewBox="0 0 28 28" xmlns="http://www.w3.org/2000/svg"><path d="M9.5 13a4.5 4.5 0 100-9 4.5 4.5 0 000 9zm14-3.5a3.5 3.5 0 11-7 0 3.5 3.5 0 017 0zM2 17.25C2 16.01 3 15 4.25 15h10.5c.2 0 .39.03.57.07a7.48 7.48 0 00-2.07 7.35c-.98.36-2.2.58-3.75.58C2 23 2 17.75 2 17.75v-.5zm14.8-.55a2 2 0 01-1.45 2.5l-1.02.25a6.8 6.8 0 000 2.15l.98.23a2 2 0 011.45 2.52l-.32 1.1c.52.45 1.11.83 1.75 1.1l.85-.9a2 2 0 012.9 0l.85.9a6.2 6.2 0 001.75-1.09l-.34-1.16a2 2 0 011.44-2.5l1.03-.25a6.8 6.8 0 000-2.15l-.99-.23a2 2 0 01-1.45-2.51l.33-1.1a6.2 6.2 0 00-1.75-1.1l-.85.88a2 2 0 01-2.9 0l-.85-.9a6.2 6.2 0 00-1.75 1.1l.34 1.16zm3.7 5.3a1.5 1.5 0 110-3 1.5 1.5 0 010 3z"/></svg>