<svg width="24" height="24" viewBox="0 0 24 24" xmlns="http://www.w3.org/2000/svg"><path d="M8 11a4 4 0 100-8 4 4 0 000 8zm9 0a3 3 0 100-6 3 3 0 000 6zM4.25 13C3.01 13 2 14 2 15.25v.25S2 20 8 20a7.9 7.9 0 003.28-.61 6.5 6.5 0 011.36-6.2 2.24 2.24 0 00-.89-.19h-7.5zm10.03.98a2 2 0 01-1.44 2.5l-.59.14a5.73 5.73 0 000 1.8l.55.13a2 2 0 011.45 2.51l-.19.64c.44.38.94.7 1.49.92l.49-.52a2 2 0 012.9 0l.5.52a5.28 5.28 0 001.48-.9l-.2-.7a2 2 0 011.44-2.5l.59-.14a5.73 5.73 0 00-.01-1.8l-.54-.13a2 2 0 01-1.45-2.51l.19-.63c-.44-.39-.94-.7-1.49-.93l-.49.52a2 2 0 01-2.9 0l-.5-.52c-.54.22-1.04.53-1.48.91l.2.69zM17.5 19c-.8 0-1.45-.67-1.45-1.5S16.7 16 17.5 16c.8 0 1.45.67 1.45 1.5S18.3 19 17.5 19z"/></svg>