<svg width="20" height="20" viewBox="0 0 20 20" xmlns="http://www.w3.org/2000/svg"><path d="M6.75 9a3.25 3.25 0 1 0 0-6.5 3.25 3.25 0 0 0 0 6.5ZM17 6.5a2.5 2.5 0 1 1-5 0 2.5 2.5 0 0 1 5 0Zm-8 8c0-1.7.78-3.23 2-4.24a2 2 0 0 0-1-.26H3.5a2 2 0 0 0-2 2s0 4 5.25 4c.95 0 1.73-.13 2.37-.35A5.52 5.52 0 0 1 9 14.5Zm3.06-3.06a2 2 0 0 1-1.43 2.48l-.46.12a4.73 4.73 0 0 0 .01 1.01l.35.09A2 2 0 0 1 12 17.66l-.13.42c.26.2.54.38.84.52l.32-.35a2 2 0 0 1 2.91 0l.34.36c.3-.13.57-.3.82-.5l-.16-.55a2 2 0 0 1 1.44-2.48l.46-.12a4.7 4.7 0 0 0-.01-1.01l-.35-.09A2 2 0 0 1 17 11.34l.13-.42c-.26-.2-.54-.38-.84-.52l-.32.35a2 2 0 0 1-2.91 0l-.34-.36c-.3.13-.57.3-.82.5l.15.55Zm2.44 4.06a1 1 0 1 1 0-2 1 1 0 0 1 0 2Z"/></svg>