<svg width="28" height="28" viewBox="0 0 28 28" xmlns="http://www.w3.org/2000/svg"><path d="M15.36 15.03A2.02 2.02 0 0015 15H3.85A2 2 0 002 17v2.75c.17 4 4.35 5.25 7.5 5.25 1.42 0 3.04-.25 4.42-.9a7.47 7.47 0 011.44-9.07zM20.5 13a4.5 4.5 0 100-9 4.5 4.5 0 000 9zM15 7.5a5.5 5.5 0 10-11 0 5.5 5.5 0 0011 0zm.36 11.7a2 2 0 001.44-2.5l-.34-1.16a6.2 6.2 0 011.75-1.1l.85.9a2 2 0 002.9 0l.85-.88a6.2 6.2 0 011.75 1.1l-.33 1.1a2 2 0 001.45 2.5l.98.24a6.8 6.8 0 010 2.15l-1.02.26a2 2 0 00-1.44 2.5l.34 1.15a6.2 6.2 0 01-1.75 1.1l-.85-.9a2 2 0 00-2.9 0l-.85.88a6.2 6.2 0 01-1.75-1.1l.32-1.1a2 2 0 00-1.45-2.5l-.97-.24a6.8 6.8 0 010-2.15l1.02-.26zM22 20.5a1.5 1.5 0 10-3 0 1.5 1.5 0 003 0z"/></svg>