<svg width="16" height="16" viewBox="0 0 16 16" xmlns="http://www.w3.org/2000/svg"><path d="M11.5 2A2.5 2.5 0 0 1 14 4.5v1.76A5.48 5.48 0 0 0 10.5 5H13v-.5c0-.83-.67-1.5-1.5-1.5h-7C3.67 3 3 3.67 3 4.5V5h7.5c-1.18 0-2.27.37-3.16 1H3v5.5c0 .83.67 1.5 1.5 1.5h1.1c.18.36.4.7.66 1H4.5A2.5 2.5 0 0 1 2 11.5v-7A2.5 2.5 0 0 1 4.5 2h7ZM6 10.5a4.5 4.5 0 1 0 9 0 4.5 4.5 0 0 0-9 0Zm6.5-3c.28 0 .5.22.5.5v1.5a.5.5 0 0 1-.5.5H11a.5.5 0 0 1 0-1h.47a1.98 1.98 0 0 0-1.72-.1 2 2 0 0 0-.66.44.5.5 0 0 1-.71-.71A3 3 0 0 1 12 8.15V8c0-.28.22-.5.5-.5Zm-.88 5.53A3 3 0 0 1 9 12.85V13a.5.5 0 0 1-1 0v-1.5c0-.28.22-.5.5-.5H10a.5.5 0 0 1 0 1h-.47a1.99 1.99 0 0 0 2.38-.34.5.5 0 0 1 .71.71 3 3 0 0 1-1 .66Z"/></svg>