<svg width="20" height="20" viewBox="0 0 20 20" xmlns="http://www.w3.org/2000/svg"><path d="M3 6a1 1 0 0 1 1-1h.5a.5.5 0 1 0 0-1H4a2 2 0 0 0-2 2v.5a.5.5 0 1 0 1 0V6Z"/><path d="M4 14a1 1 0 0 1-1-1v-.5a.5.5 0 0 0-1 0v.5c0 1.1.9 2 2 2h.25a.5.5 0 0 0 0-1H4Z"/><path d="M2.5 8c.28 0 .5.22.5.5v2a.5.5 0 1 1-1 0v-2c0-.28.22-.5.5-.5Z"/><path d="M17 6a1 1 0 0 0-1-1h-.5a.5.5 0 0 1 0-1h.5a2 2 0 0 1 2 2v.5a.5.5 0 0 1-1 0V6Z"/><path d="M17 13a1 1 0 0 1-1 1h-.25a.5.5 0 0 0 0 1H16a2 2 0 0 0 2-2v-.5a.5.5 0 0 0-1 0v.5Z"/><path d="M17 8.5a.5.5 0 0 1 1 0v2a.5.5 0 1 1-1 0v-2Z"/><path d="M6 4.5c0-.28.22-.5.5-.5H9a.5.5 0 0 1 0 1H6.5a.5.5 0 0 1-.5-.5Z"/><path d="M11 4a.5.5 0 0 0 0 1h2.5a.5.5 0 0 0 0-1H11Z"/><path d="M5 6a1 1 0 0 0-1 1v5a1 1 0 0 0 1 1h2.7l.5-.74-1.96-2.93a1.5 1.5 0 1 1 2.5-1.66L10 9.55l1.25-1.88a1.5 1.5 0 0 1 2.5 1.66l-1.95 2.93.5.74H15a1 1 0 0 0 1-1V7a1 1 0 0 0-1-1H5Z"/><path d="M7.22 8.09a.5.5 0 0 0-.14.69l2.31 3.48-1.23 1.85a2 2 0 0 0-2.51 2.64 2 2 0 1 0 3.34-2.08l1-1.51L11 14.67a2 2 0 1 0 .84-.55l-1.24-1.86-.6-.9L7.9 8.23a.5.5 0 0 0-.7-.14ZM12.5 17a1 1 0 1 1 0-2 1 1 0 0 1 0 2Zm-5 0a1 1 0 1 1 0-2 1 1 0 0 1 0 2Z"/><path d="m10.6 10.45.6.9 1.72-2.57a.5.5 0 0 0-.14-.7.5.5 0 0 0-.7.15l-1.48 2.22Z"/></svg>