<svg width="20" height="20" viewBox="0 0 20 20" xmlns="http://www.w3.org/2000/svg"><path d="M9.07 16.59c.13.05.26.1.4.12.16.38.36.73.6 1.06a3.5 3.5 0 0 1-1.37-.25l-5.76-2.3a1.5 1.5 0 0 1-.94-1.4V6.18c0-.62.37-1.17.94-1.4l5.76-2.3a3.5 3.5 0 0 1 2.6 0l5.76 2.3c.57.23.94.78.94 1.4v4.08a5.5 5.5 0 0 0-1-.66V6.18a.5.5 0 0 0-.31-.47l-5.76-2.3a2.5 2.5 0 0 0-1.86 0L3.31 5.7a.5.5 0 0 0-.31.47v7.64c0 .2.12.4.31.47l5.76 2.3ZM5.7 6.04a.5.5 0 1 0-.4.92l4.2 1.86v3.39a5.5 5.5 0 0 1 1-1.49v-1.9l4.2-1.86a.5.5 0 1 0-.4-.92L10 7.95l-4.3-1.9ZM17 18.24a4.5 4.5 0 1 1-5-7.48 4.5 4.5 0 0 1 5 7.48Zm-2.15-6.1a.5.5 0 0 0-.85.36V14h-1.5a.5.5 0 0 0 0 1H14v1.5a.5.5 0 0 0 1 0V15h1.5a.5.5 0 0 0 0-1H15v-1.5a.5.5 0 0 0-.15-.35Z"/></svg>