<svg width="20" height="20" viewBox="0 0 20 20" xmlns="http://www.w3.org/2000/svg"><path d="M11.5 12.5a1.5 1.5 0 1 1-3 0 1.5 1.5 0 0 1 3 0ZM8.74 5.31 6.6 8.05a.5.5 0 0 1-.62.14L3.86 7.12a1.5 1.5 0 1 0-1.67.85L3.9 16c.12.58.63.99 1.22.99h9.78c.6 0 1.1-.41 1.22-1l1.7-8.03a1.5 1.5 0 1 0-1.67-.85L14 8.2a.5.5 0 0 1-.62-.14L11.26 5.3a1.5 1.5 0 1 0-2.53 0Zm1.26 0 2.6 3.35a1.5 1.5 0 0 0 1.86.42l2.34-1.17-1.66 7.9a.25.25 0 0 1-.25.19H5.11a.25.25 0 0 1-.25-.2L3.2 7.91l2.34 1.17a1.5 1.5 0 0 0 1.86-.42L10 5.31Z"/></svg>