<svg width="20" height="20" viewBox="0 0 20 20" xmlns="http://www.w3.org/2000/svg"><path d="M16.02 2.04a2 2 0 0 1 1.99 2v4.94a2 2 0 0 1-.58 1.42l-.15.15A5 5 0 0 0 15 10h-1.09a1.5 1.5 0 0 0-2.47-1.56l-2 2a1.5 1.5 0 0 0 0 2.12l1.2 1.2A1.5 1.5 0 0 0 10 15a5 5 0 0 0 .54 2.25 2 2 0 0 1-2.57-.22l-4.95-4.95a2 2 0 0 1 0-2.83L9.7 2.6A2 2 0 0 1 11.13 2l4.89.04ZM13 6a1 1 0 1 0 2 0 1 1 0 0 0-2 0Zm-.15 3.85a.5.5 0 0 0-.7-.7l-2 2a.5.5 0 0 0 0 .7l2 2a.5.5 0 0 0 .7-.7L11.71 12H15a3 3 0 1 1-3 3 .5.5 0 1 0-1 0 4 4 0 1 0 4-4h-3.3l1.15-1.15Z"/></svg>