<svg width="24" height="24" viewBox="0 0 24 24" xmlns="http://www.w3.org/2000/svg"><path d="M22 4.25C22 3.01 21 2 19.75 2h-5.47c-.86 0-1.69.34-2.3.95l-8.5 8.51a3.25 3.25 0 000 4.6l4.47 4.45a3.25 3.25 0 004.6 0A6 6 0 0112 18c0-.55.26-1.05.66-1.37L11 15a1.75 1.75 0 010-2.48l2-2A1.75 1.75 0 0115.98 12H18a6 6 0 012.5.55l.55-.54c.6-.61.95-1.44.95-2.3V4.25zM15.5 7a1.5 1.5 0 113 0 1.5 1.5 0 01-3 0zm-.72 5.28a.75.75 0 10-1.06-1.06l-2 2c-.3.3-.3.77 0 1.06l2 2a.75.75 0 101.06-1.06l-.72-.72H18a3.5 3.5 0 11-3.5 3.5.75.75 0 00-1.5 0 5 5 0 105-5h-3.94l.72-.72z"/></svg>