<svg width="16" height="16" viewBox="0 0 16 16" xmlns="http://www.w3.org/2000/svg"><path d="M12.44 1.56a1.91 1.91 0 0 0-2.7 0l-7.4 7.4c-.18.18-.32.4-.4.64l-.91 2.74a.5.5 0 0 0 .63.63l2.74-.91c.24-.08.46-.22.65-.4l.06-.06a5.53 5.53 0 0 1-.1-1.31l-.67.66a.65.65 0 0 1-.26.16l-1.79.6.6-1.8c.03-.09.08-.18.16-.25l7.39-7.4a.91.91 0 1 1 1.3 1.3L10.28 5a5.6 5.6 0 0 1 1.3.11l.85-.84c.75-.75.75-1.96 0-2.71ZM15 10.5a4.5 4.5 0 1 1-9 0 4.5 4.5 0 0 1 9 0Zm-2.65-1.15a.5.5 0 0 0-.7-.7L10.5 9.79 9.35 8.65a.5.5 0 1 0-.7.7l1.14 1.15-1.14 1.15a.5.5 0 0 0 .7.7l1.15-1.14 1.15 1.14a.5.5 0 0 0 .7-.7l-1.14-1.15 1.14-1.15Z"/></svg>