<svg width="28" height="28" viewBox="0 0 28 28" xmlns="http://www.w3.org/2000/svg"><path d="M24.85 3.15a3.93 3.93 0 0 0-5.56 0L4.5 17.94c-.44.44-.76.98-.93 1.58l-1.54 5.53a.75.75 0 0 0 .92.92l5.53-1.54c.6-.17 1.14-.5 1.58-.93l2-2a7.56 7.56 0 0 1 .03-2.15L9 22.44c-.26.26-.58.44-.93.54l-4.24 1.19 1.19-4.24c.1-.35.28-.67.54-.93L20.35 4.2a2.43 2.43 0 1 1 3.44 3.44l-5.44 5.44a7.56 7.56 0 0 1 2.14-.02l4.36-4.36a3.93 3.93 0 0 0 0-5.56ZM26 20.5a6.5 6.5 0 1 1-13 0 6.5 6.5 0 0 1 13 0Zm-9.15-3.35a.5.5 0 0 0-.7.7l2.64 2.65-2.64 2.65a.5.5 0 0 0 .7.7l2.65-2.64 2.65 2.64a.5.5 0 0 0 .7-.7l-2.64-2.65 2.64-2.65a.5.5 0 0 0-.7-.7l-2.65 2.64-2.65-2.64Z"/></svg>