<svg width="32" height="32" viewBox="0 0 32 32" xmlns="http://www.w3.org/2000/svg"><path d="M21.65 3.43a4.89 4.89 0 1 1 6.91 6.92l-4.01 4.02a9 9 0 0 0-11.18 11.18l-2.1 2.1c-.5.5-1.14.85-1.84 1l-6.22 1.33a1 1 0 0 1-1.19-1.19l1.34-6.22c.14-.7.5-1.34 1-1.84l17.29-17.3ZM22 15.5a7.5 7.5 0 1 1 0 15 7.5 7.5 0 0 1 0-15Zm2.72 3.72L22 21.94l-2.72-2.72a.75.75 0 1 0-1.06 1.06L20.94 23l-2.72 2.72a.75.75 0 1 0 1.06 1.06L22 24.06l2.72 2.72a.75.75 0 1 0 1.06-1.06L23.06 23l2.72-2.72a.75.75 0 1 0-1.06-1.06Z"/></svg>