<svg width="32" height="32" viewBox="0 0 32 32" xmlns="http://www.w3.org/2000/svg"><path d="M28.56 3.43c-1.9-1.9-5-1.9-6.91 0l-17.3 17.3a3.7 3.7 0 0 0-1 1.84l-1.33 6.22a1 1 0 0 0 1.19 1.19l6.22-1.34a3.7 3.7 0 0 0 1.84-1l2.1-2.1A9 9 0 0 1 13 23.1l-3.14 3.14c-.24.23-.53.4-.85.46l-4.7 1 1-4.7c.07-.32.23-.61.46-.85l17.3-17.3a2.89 2.89 0 0 1 4.08 4.1L22.08 14a9 9 0 0 1 2.47.37l4.01-4.02c1.91-1.91 1.91-5 0-6.92ZM22 15.5a7.5 7.5 0 1 1 0 15 7.5 7.5 0 0 1 0-15Zm2.72 3.72L22 21.94l-2.72-2.72a.75.75 0 1 0-1.06 1.06L20.94 23l-2.72 2.72a.75.75 0 1 0 1.06 1.06L22 24.06l2.72 2.72a.75.75 0 1 0 1.06-1.06L23.06 23l2.72-2.72a.75.75 0 1 0-1.06-1.06Z"/></svg>