<svg width="16" height="16" viewBox="0 0 16 16" xmlns="http://www.w3.org/2000/svg"><path d="m7.6 13.27-.21.7C4.62 13.73 3 11.84 3 10v-.5C3 8.67 3.67 8 4.5 8h4.54a4.3 4.3 0 0 0-1.01 1H4.5a.5.5 0 0 0-.5.5v.5c0 1.34 1.24 2.78 3.48 2.98l.12.29ZM8 1.5A2.75 2.75 0 1 1 8 7a2.75 2.75 0 0 1 0-5.5Zm0 1A1.75 1.75 0 1 0 8 6a1.75 1.75 0 0 0 0-3.5Zm7 9a3.5 3.5 0 0 1-5.2 3.06L8.41 15a.32.32 0 0 1-.4-.4l.43-1.4A3.5 3.5 0 1 1 15 11.5ZM10.5 10a.5.5 0 0 0 0 1h2a.5.5 0 0 0 0-1h-2Zm-.5 2.5c0 .28.22.5.5.5h1a.5.5 0 0 0 0-1h-1a.5.5 0 0 0-.5.5Z"/></svg>