<svg width="48" height="48" viewBox="0 0 48 48" xmlns="http://www.w3.org/2000/svg"><path d="M20.5 22.25a1.25 1.25 0 100 2.5h7a1.25 1.25 0 100-2.5h-7zM6.25 10A3.75 3.75 0 0110 6.25h28A3.75 3.75 0 0141.75 10v4c0 1.44-.81 2.69-2 3.32V34.5c0 4-3.25 7.25-7.25 7.25h-17c-4 0-7.25-3.25-7.25-7.25V17.32a3.75 3.75 0 01-2-3.32v-4zm4.5 7.75V34.5a4.75 4.75 0 004.75 4.75h17a4.75 4.75 0 004.75-4.75V17.75h-26.5zm-.75-9c-.69 0-1.25.56-1.25 1.25v4c0 .69.56 1.25 1.25 1.25h28c.69 0 1.25-.56 1.25-1.25v-4c0-.69-.56-1.25-1.25-1.25H10z"/></svg>