<svg width="16" height="16" viewBox="0 0 16 16" xmlns="http://www.w3.org/2000/svg"><path d="M9 6a1 1 0 1 0 0 2 1 1 0 0 0 0-2ZM4.5 4a.5.5 0 0 0-.5.5v7c0 .28.22.5.5.5h7a.5.5 0 0 0 .5-.5v-7a.5.5 0 0 0-.5-.5h-7Zm.5 7V5h6v6h-.3L9.2 9.5a1.7 1.7 0 0 0-2.4 0L5.3 11H5Zm3.5-.8.79.8H6.71l.8-.8a.7.7 0 0 1 .99 0ZM4.5 2A2.5 2.5 0 0 0 2 4.5v7A2.5 2.5 0 0 0 4.5 14h7a2.5 2.5 0 0 0 2.5-2.5v-7A2.5 2.5 0 0 0 11.5 2h-7ZM3 4.5C3 3.67 3.67 3 4.5 3h7c.83 0 1.5.67 1.5 1.5v7c0 .83-.67 1.5-1.5 1.5h-7A1.5 1.5 0 0 1 3 11.5v-7Z"/></svg>