<svg width="48" height="48" viewBox="0 0 48 48" xmlns="http://www.w3.org/2000/svg"><path d="m21.35 25.1-6.85 6.85V14.5h19v17.45l-6.85-6.85a3.75 3.75 0 0 0-5.3 0ZM29 16.5a2.5 2.5 0 1 0 0 5 2.5 2.5 0 0 0 0-5Zm-4.12 10.37 6.64 6.63H16.48l6.64-6.63a1.25 1.25 0 0 1 1.76 0ZM6 12.25C6 8.8 8.8 6 12.25 6h23.5C39.2 6 42 8.8 42 12.25v23.5C42 39.2 39.2 42 35.75 42h-23.5A6.25 6.25 0 0 1 6 35.75v-23.5Zm7.25-.25c-.69 0-1.25.56-1.25 1.25v21.5c0 .69.56 1.25 1.25 1.25h21.5c.69 0 1.25-.56 1.25-1.25v-21.5c0-.69-.56-1.25-1.25-1.25h-21.5Z"/></svg>