<svg width="48" height="48" viewBox="0 0 48 48" xmlns="http://www.w3.org/2000/svg"><path d="M29 16.5a2.5 2.5 0 1 0 0 5 2.5 2.5 0 0 0 0-5ZM13.25 12c-.69 0-1.25.56-1.25 1.25v21.5c0 .69.56 1.25 1.25 1.25h21.5c.69 0 1.25-.56 1.25-1.25v-21.5c0-.69-.56-1.25-1.25-1.25h-21.5Zm8.1 13.1-6.85 6.85V14.5h19v17.45l-6.85-6.85a3.75 3.75 0 0 0-5.3 0Zm3.53 1.77 6.64 6.63H16.48l6.64-6.63a1.25 1.25 0 0 1 1.76 0ZM12.25 6A6.25 6.25 0 0 0 6 12.25v23.5C6 39.2 8.8 42 12.25 42h23.5C39.2 42 42 39.2 42 35.75v-23.5C42 8.8 39.2 6 35.75 6h-23.5ZM8.5 12.25a3.75 3.75 0 0 1 3.75-3.75h23.5a3.75 3.75 0 0 1 3.75 3.75v23.5a3.75 3.75 0 0 1-3.75 3.75h-23.5a3.75 3.75 0 0 1-3.75-3.75v-23.5Z"/></svg>