<svg width="28" height="28" viewBox="0 0 28 28" xmlns="http://www.w3.org/2000/svg"><path d="M17 9.5a1.5 1.5 0 1 0 0 3 1.5 1.5 0 0 0 0-3Zm-9.75-3a.75.75 0 0 0-.75.75v13.5c0 .41.34.75.75.75h13.5c.41 0 .75-.34.75-.75V7.25a.75.75 0 0 0-.75-.75H7.25Zm5.34 8.09L8 19.17V8h12v11.17l-4.59-4.58a2 2 0 0 0-2.82 0Zm1.76 1.06L18.71 20H9.29l4.36-4.35c.2-.2.5-.2.7 0ZM6.75 3A3.75 3.75 0 0 0 3 6.75v14.5A3.75 3.75 0 0 0 6.75 25h14.5A3.75 3.75 0 0 0 25 21.25V6.75A3.75 3.75 0 0 0 21.25 3H6.75ZM4.5 6.75c0-1.24 1-2.25 2.25-2.25h14.5c1.24 0 2.25 1 2.25 2.25v14.5c0 1.24-1 2.25-2.25 2.25H6.75c-1.24 0-2.25-1-2.25-2.25V6.75Z"/></svg>