<svg width="24" height="24" viewBox="0 0 24 24" xmlns="http://www.w3.org/2000/svg"><path d="M9.25 5a.75.75 0 0 1 .11 1.5H7a3.5 3.5 0 0 0-.2 7h2.45a.75.75 0 0 1 .11 1.5H7a5 5 0 0 1-.25-10h2.5ZM17 5a5 5 0 0 1 4.43 7.32 6.5 6.5 0 0 0-1.3-.76A3.5 3.5 0 0 0 17.2 6.5L17 6.5h-2.25a.75.75 0 0 1-.11-1.5H17ZM7 9.25h10a.75.75 0 0 1 .1 1.5H7a.75.75 0 0 1-.1-1.5H7Zm16 8.25a5.5 5.5 0 1 0-11 0 5.5 5.5 0 0 0 11 0Zm-5 .5v2.5a.5.5 0 1 1-1 0V18h-2.5a.5.5 0 0 1 0-1H17v-2.5a.5.5 0 1 1 1 0V17h2.5a.5.5 0 0 1 0 1H18Z"/></svg>