<svg width="24" height="24" viewBox="0 0 24 24" xmlns="http://www.w3.org/2000/svg"><path d="m15.6 4.86 2.13-2.13a2.5 2.5 0 1 1 3.53 3.53l-2.12 2.12a8 8 0 0 1-1.2 8.98 2.5 2.5 0 0 1-4.18 2.4l-9.5-9.48a2.5 2.5 0 0 1 2.36-4.2 8 8 0 0 1 8.98-1.22Zm2.71 2.23L20.2 5.2a1 1 0 0 0-1.41-1.4L16.9 5.67a8.08 8.08 0 0 1 1.41 1.4ZM5.33 7.8a1 1 0 0 0 0 1.4l9.49 9.5a1 1 0 1 0 1.4-1.41L6.75 7.8a1 1 0 0 0-1.41 0Zm2.45 9.47a.75.75 0 1 0-1.06-1.06l-2 2a.75.75 0 1 0 1.06 1.06l2-2Zm2.5 1.44c.3.3.3.77 0 1.06l-2 2a.75.75 0 0 1-1.06-1.06l2-2c.3-.3.77-.3 1.06 0Zm-5-3.94a.75.75 0 1 0-1.06-1.06l-2 2a.75.75 0 1 0 1.06 1.06l2-2Zm11.82 1.26A6.5 6.5 0 0 0 7.96 6.9l9.14 9.14Z"/></svg>