<svg width="20" height="20" viewBox="0 0 20 20" xmlns="http://www.w3.org/2000/svg"><path d="M8.91 3.54c.3-.04.48-.03.62 0 .14.02.28.08.48.2a.75.75 0 10.78-1.28c-.3-.18-.6-.32-.97-.4a3.3 3.3 0 00-1.13 0h-.01c-.8.13-1.43.55-1.86 1.16a4.23 4.23 0 00-.67 2.18v.03a8.55 8.55 0 01-.02.36c0 .22-.02.52-.04.87v.09H4.8a.75.75 0 000 1.5H6a865.92 865.92 0 01-.35 5.49c-.1 1.28-.22 2.14-1.03 2.61-.4.23-1.01.21-1.68-.12a.75.75 0 00-.68 1.34c.93.46 2.11.65 3.11.08 1.54-.9 1.68-2.55 1.77-3.67v-.12c.07-.77.23-3.46.36-5.61h1.8a.75.75 0 000-1.5H7.58l.07-1.32c.04-.6.2-1.05.4-1.35.2-.28.47-.47.86-.54zm7.87 6.74a.75.75 0 10-1.06-1.06l-2.58 2.58a36.19 36.19 0 01-.76-1.36l-.07-.11c-.15-.25-.38-.61-.66-.87a1.6 1.6 0 00-.74-.4 1.55 1.55 0 00-1.1.18l-.03.02c-.08.06-.18.13-.28.23l-.13.15-.02.03-.17.19a.75.75 0 001.14.98l.17-.2.02-.03.07-.07.01-.01.04.03a7.8 7.8 0 01.47.66c.12.24.49.9.94 1.67l-2.82 2.83a.75.75 0 101.06 1.06l2.66-2.66a38.56 38.56 0 01.87 1.54c.13.22.35.6.64.87.18.17.42.34.73.42a1.6 1.6 0 001.06-.1c.35-.17.57-.4.8-.77a.75.75 0 00-1.28-.79.95.95 0 01-.13.18l-.03.02-.03.01-.03-.01a.39.39 0 01-.06-.05 6.01 6.01 0 01-.36-.52l-.06-.1c-.12-.23-.53-.96-1.02-1.8l2.74-2.74zm-6.18.24zm0 0z"/></svg>