<svg width="24" height="24" viewBox="0 0 24 24" xmlns="http://www.w3.org/2000/svg"><path d="M3.75 18h1.5a4.74 4.74 0 0 1 3.34-4.26A5.89 5.89 0 0 1 14 9.84V8.76C14 7.78 13.22 7 12.25 7h-1a.25.25 0 0 1-.25-.25v-3C11 2.78 10.22 2 9.25 2h-5.5C2.78 2 2 2.78 2 3.75v12.5c0 .97.78 1.75 1.75 1.75ZM6 8.75a.75.75 0 1 1-1.5 0 .75.75 0 0 1 1.5 0Zm2.5-3a.75.75 0 1 1-1.5 0 .75.75 0 0 1 1.5 0ZM7.75 9.5a.75.75 0 1 1 0-1.5.75.75 0 0 1 0 1.5Zm.75 2.25a.75.75 0 1 1-1.5 0 .75.75 0 0 1 1.5 0Zm-2.5 0a.75.75 0 1 1-1.5 0 .75.75 0 0 1 1.5 0ZM5.25 6.5a.75.75 0 1 1 0-1.5.75.75 0 0 1 0 1.5Zm8.88 4.35a4.89 4.89 0 0 0-4.75 3.72 3.74 3.74 0 0 0 .6 7.43h8.28a3.74 3.74 0 0 0 .61-7.43 4.89 4.89 0 0 0-4.75-3.72Zm-3.37 4.5a3.39 3.39 0 0 1 6.73 0l.08.68h.7a2.24 2.24 0 0 1 0 4.47H9.98a2.24 2.24 0 0 1 0-4.48h.7l.07-.66Z"/></svg>