<svg width="20" height="20" viewBox="0 0 20 20" xmlns="http://www.w3.org/2000/svg"><path d="M10 2v4.5c0 .83.67 1.5 1.5 1.5H16v8.5c0 .83-.67 1.5-1.5 1.5H11v-6a2 2 0 0 0-2-2H4V3.5C4 2.67 4.67 2 5.5 2H10Zm1 .25V6.5c0 .28.22.5.5.5h4.25L11 2.25ZM3.5 11a.5.5 0 0 1 0 1h-1a.5.5 0 0 0-.5.5v5c0 .28.22.5.5.5h1a.5.5 0 0 1 0 1h-1A1.5 1.5 0 0 1 1 17.5v-5c0-.83.67-1.5 1.5-1.5h1Zm4 7a.5.5 0 0 0 0 1h1c.83 0 1.5-.67 1.5-1.5v-5c0-.83-.67-1.5-1.5-1.5h-1a.5.5 0 0 0 0 1h1c.28 0 .5.22.5.5v5a.5.5 0 0 1-.5.5h-1ZM6 14.5a.5.5 0 0 0-1 0v3a.5.5 0 1 0 1 0v-3Zm0-2a.5.5 0 1 1-1 0 .5.5 0 0 1 1 0Z"/></svg>