<svg width="20" height="20" viewBox="0 0 20 20" xmlns="http://www.w3.org/2000/svg"><path d="M6 2a2 2 0 0 0-2 2v6h1V4a1 1 0 0 1 1-1h4v3.5c0 .83.67 1.5 1.5 1.5H15v8a1 1 0 0 1-1 1h-3v1h3a2 2 0 0 0 2-2V7.41c0-.4-.16-.78-.44-1.06l-3.91-3.91A1.5 1.5 0 0 0 10.59 2H6Zm8.8 5h-3.3a.5.5 0 0 1-.5-.5V3.2L14.8 7ZM3.5 11a.5.5 0 0 1 0 1h-1a.5.5 0 0 0-.5.5v5c0 .28.22.5.5.5h1a.5.5 0 0 1 0 1h-1A1.5 1.5 0 0 1 1 17.5v-5c0-.83.67-1.5 1.5-1.5h1Zm4 7a.5.5 0 0 0 0 1h1c.83 0 1.5-.67 1.5-1.5v-5c0-.83-.67-1.5-1.5-1.5h-1a.5.5 0 0 0 0 1h1c.28 0 .5.22.5.5v5a.5.5 0 0 1-.5.5h-1Zm-2-4c.27 0 .5.22.5.5v3a.5.5 0 1 1-1 0v-3c0-.28.22-.5.5-.5Zm0-1a.5.5 0 1 0 0-1 .5.5 0 0 0 0 1Z"/></svg>