<svg width="28" height="28" viewBox="0 0 28 28" xmlns="http://www.w3.org/2000/svg"><path d="M9 9a4 4 0 1 0 0-8 4 4 0 0 0 0 8Zm0-1.5a2.5 2.5 0 1 1 0-5 2.5 2.5 0 0 1 0 5ZM19.5 11a3.5 3.5 0 1 0 0-7 3.5 3.5 0 0 0 0 7Zm0-1.5a2 2 0 1 1 0-4 2 2 0 0 1 0 4Zm-4 8.66a2.25 2.25 0 0 1-2.5.71v4.75a2.37 2.37 0 0 1-4 1.74 2.37 2.37 0 0 1-4-1.73v-4.76a2.25 2.25 0 0 1-3-2.12v-4A2.75 2.75 0 0 1 4.75 10h8.5c1.25 0 2.3.84 2.64 1.98h7.36A2.75 2.75 0 0 1 26 14.73v2.67a2.25 2.25 0 0 1-3 2.13v4.24a2.25 2.25 0 0 1-3.75 1.67 2.25 2.25 0 0 1-3.75-1.68v-5.6Zm.5-4.68v2.81a.75.75 0 0 1 1 .7v6.78a.75.75 0 0 0 1.5 0v-3.63a.75.75 0 1 1 1.5 0v3.63a.75.75 0 0 0 1.5 0v-7.95a.75.75 0 0 1 1.5 0v1.58a.75.75 0 0 0 1.5 0v-2.67c0-.69-.56-1.25-1.25-1.25H16Zm-4.5.22a.75.75 0 1 1 1.5 0v3.05a.75.75 0 0 0 1.5 0v-4c0-.69-.56-1.25-1.25-1.25h-8.5c-.69 0-1.25.56-1.25 1.25v4a.75.75 0 0 0 1.5 0V13.6a.75.75 0 0 1 1.5 0v10.03a.88.88 0 0 0 1.75 0v-3.88a.75.75 0 0 1 1.5 0v3.88a.88.88 0 0 0 1.75 0V13.7Z"/></svg>