<svg width="28" height="28" viewBox="0 0 28 28" xmlns="http://www.w3.org/2000/svg"><path d="M17.66 10.48a3.5 3.5 0 1 1 3.67-5.96 3.5 3.5 0 0 1-3.67 5.96ZM23 19.53a2.25 2.25 0 0 0 3-2.13v-2.67a2.75 2.75 0 0 0-2.75-2.75h-5.82a4.2 4.2 0 0 1 .07.77v4c0 1.44-.81 2.69-2 3.32v3.7a2.25 2.25 0 0 0 3.75 1.67A2.25 2.25 0 0 0 23 23.76v-4.23Zm-7-2.62v-4.16a2.96 2.96 0 0 0-.1-.77A2.75 2.75 0 0 0 13.24 10h-8.5A2.75 2.75 0 0 0 2 12.75v4a2.25 2.25 0 0 0 3 2.12v4.75a2.37 2.37 0 0 0 4 1.74 2.37 2.37 0 0 0 4-1.73v-4.76a2.25 2.25 0 0 0 3-1.96ZM7.05 8.5a3.98 3.98 0 0 0 3.88 0 4 4 0 1 0-3.88 0Z"/></svg>