<svg width="24" height="24" viewBox="0 0 24 24" xmlns="http://www.w3.org/2000/svg"><path d="M15.5 4.25a.82.82 0 0 1-.5-.74c0-.52.5-.9.99-.68 2.31 1 4.18 2.87 5.18 5.18.21.48-.16 1-.68 1-.32 0-.6-.21-.74-.5a8.53 8.53 0 0 0-4.26-4.26ZM9 3.5c0-.52-.5-.9-.99-.68C5.7 3.83 3.83 5.7 2.83 8c-.21.48.16 1 .68 1 .32 0 .6-.21.74-.5A8.53 8.53 0 0 1 8.5 4.25c.29-.13.49-.42.49-.74Zm6.5 16.24c-.3.13-.5.42-.5.74 0 .52.5.9.99.68 2.31-1 4.18-2.87 5.18-5.18.21-.48-.16-.99-.68-.99-.32 0-.6.2-.74.5a8.53 8.53 0 0 1-4.26 4.25ZM3.5 15c.32 0 .6.2.74.5a8.53 8.53 0 0 0 4.26 4.25c.29.13.49.42.49.74 0 .52-.5.9-.99.68-2.31-1-4.18-2.87-5.18-5.18-.21-.48.16-.99.68-.99ZM12 6.5c-.2 0-.38.01-.57.03a.75.75 0 0 1-.16-1.5 7 7 0 0 1 7.55 5.4.75.75 0 0 1-1.46.35A5.5 5.5 0 0 0 12 6.5Zm-2.88-.1c.23.34.14.81-.2 1.04a5.5 5.5 0 0 0-1.48 7.64.75.75 0 1 1-1.24.84A6.97 6.97 0 0 1 8.08 6.2a.75.75 0 0 1 1.04.2Zm9.11 6.5c.4.11.64.52.53.92A7 7 0 0 1 8.75 18.2a.75.75 0 1 1 .7-1.33 5.5 5.5 0 0 0 7.86-3.44c.1-.4.52-.63.92-.52ZM12 8a4 4 0 1 0 0 8 4 4 0 0 0 0-8Zm-2.5 4a2.5 2.5 0 1 1 5 0 2.5 2.5 0 0 1-5 0Z"/></svg>