<svg width="24" height="24" viewBox="0 0 24 24" xmlns="http://www.w3.org/2000/svg"><path d="M4 4a2 2 0 0 0-2 2v12c0 1.1.9 2 2 2h6c.77 0 1.47-.29 2-.76.47.42 1.08.7 1.75.75A4.73 4.73 0 0 1 13 17.5c0-.1 0-.19.03-.28A1 1 0 0 1 13 17V7a1 1 0 0 1 1-1h6v5.33a3.53 3.53 0 0 1 2 3.17V6a2 2 0 0 0-2-2h-6c-.77 0-1.47.29-2 .76A2.99 2.99 0 0 0 10 4H4Zm7 3v10a1 1 0 0 1-1 1H4V6h6a1 1 0 0 1 1 1Zm11 10.5c0 1.01-.52 1.85-1.34 2.39-.6.39-1.34.61-2.16.61a4 4 0 0 1-1.98-.5c-.3-.17-.58-.4-.8-.64A2.8 2.8 0 0 1 15 17.5a.5.5 0 0 0-1 0 3.43 3.43 0 0 0 .28 1.35c.17.42.42.8.74 1.15A4.77 4.77 0 0 0 18 21.47v1.03a.5.5 0 0 0 1 0v-1.03c2.25-.25 4-1.97 4-3.97a.5.5 0 0 0-1 0Zm-5.5 1A2.58 2.58 0 0 1 16 17v-2.5a2.5 2.5 0 0 1 5 0V17c0 1.25-1 2.5-2.5 2.5-.86 0-1.56-.41-2-1Z"/></svg>