<svg width="32" height="32" viewBox="0 0 32 32" xmlns="http://www.w3.org/2000/svg"><path d="M17 8.5v15a7.96 7.96 0 0 0 1.7 4.43 4.5 4.5 0 0 1-2.7-1.6A4.5 4.5 0 0 1 12.5 28H4a2 2 0 0 1-2-2V6c0-1.1.9-2 2-2h8.5A4.5 4.5 0 0 1 16 5.67 4.5 4.5 0 0 1 19.5 4H28a2 2 0 0 1 2 2v13a5 5 0 0 0-2-4V6h-8.5A2.5 2.5 0 0 0 17 8.5Zm-2 0A2.5 2.5 0 0 0 12.5 6H4v20h8.5a2.5 2.5 0 0 0 2.5-2.5v-15ZM21.68 28A6.03 6.03 0 0 1 19 23a.75.75 0 0 1 1.5 0 4.48 4.48 0 0 0 4.1 4.48h.02a4.56 4.56 0 0 0 1.13-.04h.02A4.5 4.5 0 0 0 29.5 23a.75.75 0 1 1 1.5 0 5.97 5.97 0 0 1-5 5.92v1.33a.75.75 0 0 1-1.5 0v-1.27c-1.04-.09-2-.43-2.82-.98ZM25 16a3 3 0 0 0-3 3v4a3 3 0 1 0 6 0v-4a3 3 0 0 0-3-3Z"/></svg>