<svg width="24" height="24" viewBox="0 0 24 24" xmlns="http://www.w3.org/2000/svg"><path d="M12.83 3.16c.06-.04.11-.1.15-.15h2.6a5.38 5.38 0 0 1 .54 0h.04a3.82 3.82 0 0 1 1.65.37 5.22 5.22 0 0 1 3.14 6.17l-3.28-3.24a.75.75 0 0 0-.53-.21H12.4a.76.76 0 0 0-.45.15l-1.89 1.43a.97.97 0 0 1-1.46-.35c-.2-.4-.08-.9.29-1.18l3.94-2.99ZM7.9 14.23l-.01.02-.98.97H6.9a.9.9 0 0 1-1.26 0 .9.9 0 0 1 0-1.27l.97-.97a.9.9 0 0 1 1.28 0c.34.35.35.9 0 1.25Zm-.3 1.7a.9.9 0 0 0 .02 1.26.9.9 0 0 0 1.28 0l.97-.97a.9.9 0 0 0-.14-1.38.9.9 0 0 0-1.12.1l-.01.01-.98.97-.01.01Zm-2.1-4.52a.9.9 0 0 1 0 1.26l-.97.97a.9.9 0 0 1-1.28 0 .9.9 0 0 1 0-1.27l.98-.96a.9.9 0 0 1 1.27 0Zm6.35 5.51a.9.9 0 0 1 0 1.27l-.97.97a.9.9 0 0 1-1.28 0 .9.9 0 0 1-.17-1.03.9.9 0 0 1 .18-.24l.97-.97a.9.9 0 0 1 1.27 0ZM5.35 4.83a6.18 6.18 0 0 1 5.1-1.75L7.99 4.96A2.45 2.45 0 0 0 7.5 8.4a2.47 2.47 0 0 0 3.46.46l1.68-1.27h4.19l3.5 3.46a.5.5 0 0 0 .04.04l1.15 1.15a1.44 1.44 0 0 1-1.94 2.12l-.1-.1a.5.5 0 0 0-.05-.05l-1.1-1.09a.5.5 0 1 0-.7.7L18.79 15l.13.12.04.04a1.02 1.02 0 1 1-1.44 1.44l-.17-.17a.5.5 0 0 0-.85.37c0 .13.04.26.14.36l.22.23a.94.94 0 1 1-1.33 1.33l-.01-.01-.21-.21a.5.5 0 0 0-.7 0 .5.5 0 0 0 0 .7l.21.22a.96.96 0 0 1-1.35 1.37l-1.43-1.36.52-.52c.75-.74.75-1.94 0-2.68a1.9 1.9 0 0 0-1.42-.55 1.9 1.9 0 0 0-1.98-1.97 1.91 1.91 0 0 0-2.4-1.9 1.91 1.91 0 0 0-3.05-1.24 6.1 6.1 0 0 1 1.63-5.73Z"/></svg>