<svg width="32" height="32" viewBox="0 0 32 32" xmlns="http://www.w3.org/2000/svg"><path d="m28.32 15.91-.61-.62-.25-.24c.32-.99.5-2.01.54-3.05a8 8 0 0 0-8-8h-3.68c-.41 0-.82.1-1.19.29-.45-.1-.9-.19-1.36-.24H13a8 8 0 0 0-8 8v2.1L3.81 15.3A2.76 2.76 0 0 0 5.76 20a2 2 0 0 0 .35 0c.12.46.37.89.7 1.23.46.45 1.07.72 1.71.77.06.64.33 1.25.79 1.71.46.46 1.06.74 1.71.78a2.71 2.71 0 0 0 2.58 2.52c.68.03 1.35-.19 1.88-.62l.82.81a2.75 2.75 0 0 0 4.7-1.72A2.66 2.66 0 0 0 23.48 23a2.7 2.7 0 0 0 2.44-2.12 2.67 2.67 0 0 0 2.4-.8 2.94 2.94 0 0 0 0-4.17ZM16.32 6H20a6 6 0 0 1 5.82 7.41l-4.11-4.12A1 1 0 0 0 21 9h-4.48a1 1 0 0 0-.62.21l-2 1.53a1.21 1.21 0 0 1-1.49-1.9l3.45-2.7c.13-.1.3-.15.46-.14ZM5.22 17.79a.78.78 0 0 1 0-1.08l1.49-1.49a.75.75 0 0 1 .54-.22.73.73 0 0 1 .53.22.76.76 0 0 1 0 1.08L6.3 17.79a.8.8 0 0 1-1.08 0ZM8 19.25a.72.72 0 0 1 .23-.53l1.48-1.49a.76.76 0 0 1 1.08 1.07L9.3 19.79a.77.77 0 0 1-1.24-.25.73.73 0 0 1-.06-.29Zm2.72 2 1.49-1.49a.75.75 0 0 1 .54-.22.73.73 0 0 1 .53.22.76.76 0 0 1 0 1.08l-1.48 1.45a.76.76 0 0 1-1.08-1.08v.04Zm2.5 3.57a.76.76 0 0 1 0-1.08l1.48-1.48a.78.78 0 0 1 .54-.23.76.76 0 0 1 .76.77c0 .2-.08.39-.22.53l-1.49 1.49a.77.77 0 0 1-1.07-.04v.04Zm13-5.88c-.38-.1-.72-.3-1-.56v-.05l-2-2a1 1 0 1 0-1.42 1.42l2 2a.76.76 0 0 1-1.07 1.07 1 1 0 1 0-1.42 1.41.75.75 0 0 1 0 1.07.76.76 0 0 1-1.08 0 1 1 0 0 0-1.41 0 1 1 0 0 0 0 1.41.76.76 0 0 1-1.07 1.08l-.8-.8.28-.27A2.76 2.76 0 0 0 15.48 20a2.71 2.71 0 0 0-.78-1.71 2.77 2.77 0 0 0-1.7-.77A2.77 2.77 0 0 0 9.9 15 2.7 2.7 0 0 0 7 13v-1a6 6 0 0 1 5.83-6l-1.6 1.25a3.21 3.21 0 0 0 3.95 5.06L16.86 11h3.73l3.94 4 2.37 2.36a1 1 0 0 1 0 1.34.69.69 0 0 1-.7.2l.02.04Z"/></svg>