<svg width="24" height="24" viewBox="0 0 24 24" xmlns="http://www.w3.org/2000/svg"><path d="M6.25 3A3.25 3.25 0 003 6.25v11.5C3 19.55 4.46 21 6.25 21h4.8c.05-.2.12-.42.22-.62l4-8a2.5 2.5 0 014.47 0L21 14.9V6.25C21 4.45 19.54 3 17.75 3H6.25zm11.03 6.28l-6.75 6.75c-.3.29-.77.29-1.06 0l-2.75-2.75a.75.75 0 011.06-1.06L10 14.44l6.22-6.22a.75.75 0 111.06 1.06zm-1.12 3.55l-4 8A1.5 1.5 0 0013.51 23h8a1.5 1.5 0 001.33-2.17l-4-8a1.5 1.5 0 00-2.68 0zM18 15.5v3a.5.5 0 01-1 0v-3a.5.5 0 011 0zm-.5 5.5a.5.5 0 110-1 .5.5 0 010 1z"/></svg>