<svg width="16" height="16" viewBox="0 0 16 16" xmlns="http://www.w3.org/2000/svg"><path d="M7.18 4 5.56 5.5H2V5c0-1.1.9-2 2-2h1.75a.5.5 0 0 1 .32.11l1.1.89ZM2 11V6.5h3.75a.5.5 0 0 0 .34-.13L8.65 4H12a2 2 0 0 1 2 2v2.88l-.44-.44a1.5 1.5 0 0 0-2.56 1 1.5 1.5 0 0 0-2.56-1l-2 2a1.5 1.5 0 0 0 0 2.13l.44.43H4a2 2 0 0 1-2-2Zm6.71 1 1.15 1.15a.5.5 0 0 1-.71.7l-2-2a.5.5 0 0 1 0-.7l2-2a.5.5 0 0 1 .7.7L8.72 11h4.58l-1.14-1.14a.5.5 0 1 1 .7-.7l2 1.99a.5.5 0 0 1 0 .7l-2 2a.5.5 0 1 1-.7-.7L13.29 12H8.71Z"/></svg>