<svg width="20" height="20" viewBox="0 0 20 20" xmlns="http://www.w3.org/2000/svg"><path d="M2 5.5A2.5 2.5 0 0 1 4.5 3h2.48c.47 0 .91.18 1.24.51L9.5 4.8 7.44 6.85a.5.5 0 0 1-.35.15H2V5.5ZM2 8v6.5A2.5 2.5 0 0 0 4.5 17h5.38l-.44-.44a1.5 1.5 0 0 1 0-2.12l2-2A1.5 1.5 0 0 1 13.9 14h1.18a1.5 1.5 0 0 1 2.47-1.56l.44.44V7.5A2.5 2.5 0 0 0 15.5 5h-4.8L8.16 7.56A1.5 1.5 0 0 1 7.09 8H2Zm10.85 5.85a.5.5 0 0 0-.7-.7l-2 2a.5.5 0 0 0 0 .7l2 2a.5.5 0 0 0 .7-.7L11.71 16h5.58l-1.14 1.15a.5.5 0 0 0 .7.7l2-2a.5.5 0 0 0 0-.7l-2-2a.5.5 0 0 0-.7.7L17.29 15h-5.58l1.14-1.15Z"/></svg>