<svg width="24" height="24" viewBox="0 0 24 24" xmlns="http://www.w3.org/2000/svg"><path d="M2 6.25V8h6.13c.2 0 .39-.08.53-.22l2.59-2.6-1.53-1.52c-.42-.42-1-.66-1.6-.66H5.26A3.25 3.25 0 0 0 2 6.25Zm0 11.5V9.5h6.13c.6 0 1.17-.24 1.59-.66l3.34-3.34h5.69c1.8 0 3.25 1.46 3.25 3.25v7.28L20.99 15A1.75 1.75 0 0 0 18.17 17h-1.34a1.75 1.75 0 0 0-2.82-1.99l-2.5 2.5c-.68.69-.68 1.8 0 2.48L12.53 21H5.25A3.25 3.25 0 0 1 2 17.75Zm13.78-.97a.75.75 0 1 0-1.06-1.06l-2.5 2.5c-.3.3-.3.77 0 1.06l2.5 2.5a.75.75 0 1 0 1.06-1.06l-1.22-1.22h5.88l-1.22 1.22a.75.75 0 1 0 1.06 1.06l2.5-2.5c.3-.3.3-.77 0-1.06l-2.5-2.5a.75.75 0 1 0-1.06 1.06L20.44 18h-5.88l1.22-1.22Z"/></svg>