<svg width="24" height="24" viewBox="0 0 24 24" xmlns="http://www.w3.org/2000/svg"><path d="M3.5 8V6.25c0-.97.78-1.75 1.75-1.75h2.88c.2 0 .39.08.53.22l1.53 1.53-1.53 1.53a.75.75 0 0 1-.53.22H3.5Zm1.75-5A3.25 3.25 0 0 0 2 6.25v11.5C2 19.55 3.46 21 5.25 21h7.28l-1.02-1.01a1.75 1.75 0 0 1-.34-.49H5.25c-.97 0-1.75-.78-1.75-1.75V9.5h4.63c.6 0 1.17-.24 1.59-.66L11.56 7h7.19c.97 0 1.75.78 1.75 1.75v5.92c.18.08.34.2.49.34L22 16.03V8.75c0-1.8-1.46-3.25-3.25-3.25h-7.19L9.72 3.66c-.42-.42-1-.66-1.6-.66H5.26Zm10.53 13.78a.75.75 0 1 0-1.06-1.06l-2.5 2.5c-.3.3-.3.77 0 1.06l2.5 2.5a.75.75 0 1 0 1.06-1.06l-1.22-1.22h5.88l-1.22 1.22a.75.75 0 1 0 1.06 1.06l2.5-2.5c.3-.3.3-.77 0-1.06l-2.5-2.5a.75.75 0 1 0-1.06 1.06L20.44 18h-5.88l1.22-1.22Z"/></svg>