<svg width="16" height="16" viewBox="0 0 16 16" xmlns="http://www.w3.org/2000/svg"><path d="M8 1v3.5C8 5.33 8.67 6 9.5 6H13v3.04c-.5.08-.93.32-1.27.65A2.5 2.5 0 0 0 10 9h-.07c-.95 0-1.76.54-2.16 1.32l-.09-.27a1.5 1.5 0 0 0-2.86 0l-.1.3A2.5 2.5 0 0 0 3 9.06V2.5C3 1.67 3.67 1 4.5 1H8Zm1 .25V4.5c0 .28.22.5.5.5h3.25L9 1.25ZM2.43 11a.43.43 0 0 0-.2.8l.98.5a1.43 1.43 0 0 1-.64 2.7H2.5A1.5 1.5 0 0 1 1 13.5a.5.5 0 0 1 1 0c0 .28.22.5.5.5h.07a.43.43 0 0 0 .2-.8l-.98-.5a1.43 1.43 0 0 1 .64-2.7h.07c.83 0 1.5.67 1.5 1.5a.5.5 0 0 1-1 0 .5.5 0 0 0-.5-.5h-.07Zm4.3-.65a.5.5 0 0 0-.96 0l-1.25 4a.5.5 0 1 0 .96.3l.2-.65h1.14l.2.65a.5.5 0 1 0 .96-.3l-1.25-4ZM6.5 13h-.52l.26-.82.26.82Zm2.99-1.57c0-.24.2-.43.43-.43H10c.28 0 .5.22.5.5a.5.5 0 0 0 1 0c0-.83-.67-1.5-1.5-1.5h-.07a1.43 1.43 0 0 0-.64 2.7l.97.5a.43.43 0 0 1-.19.8H10a.5.5 0 0 1-.5-.5.5.5 0 0 0-1 0c0 .83.67 1.5 1.5 1.5h.07a1.43 1.43 0 0 0 .64-2.7l-.97-.5a.43.43 0 0 1-.24-.37Zm3.93-.43a.43.43 0 0 0-.2.8l.98.5a1.43 1.43 0 0 1-.64 2.7h-.07a1.5 1.5 0 0 1-1.5-1.5.5.5 0 0 1 1 0c0 .28.22.5.5.5h.07a.43.43 0 0 0 .2-.8l-.98-.5a1.43 1.43 0 0 1 .64-2.7h.07c.83 0 1.5.67 1.5 1.5a.5.5 0 0 1-1 0 .5.5 0 0 0-.5-.5h-.07Z"/></svg>