<svg width="16" height="16" viewBox="0 0 16 16" xmlns="http://www.w3.org/2000/svg"><path d="M5 1a2 2 0 0 0-2 2v6.05c.37.07.7.23 1 .45V3a1 1 0 0 1 1-1h3v2.5C8 5.33 8.67 6 9.5 6H12v3.46c.3-.2.63-.36 1-.42V5.4c0-.4-.16-.78-.44-1.06L9.65 1.44A1.5 1.5 0 0 0 8.59 1H5Zm6.8 4H9.5a.5.5 0 0 1-.5-.5V2.2L11.8 5Zm-9.37 6a.43.43 0 0 0-.2.8l.98.5a1.43 1.43 0 0 1-.64 2.7H2.5A1.5 1.5 0 0 1 1 13.5a.5.5 0 0 1 1 0c0 .28.22.5.5.5h.07a.43.43 0 0 0 .2-.8l-.98-.5a1.43 1.43 0 0 1 .64-2.7h.07c.83 0 1.5.67 1.5 1.5a.5.5 0 0 1-1 0 .5.5 0 0 0-.5-.5h-.07Zm4.3-.65a.5.5 0 0 0-.96 0l-1.25 4a.5.5 0 1 0 .96.3l.2-.65h1.14l.2.65a.5.5 0 1 0 .96-.3l-1.25-4ZM6.5 13h-.52l.26-.82.26.82Zm2.99-1.57c0-.24.2-.43.43-.43H10c.28 0 .5.22.5.5a.5.5 0 0 0 1 0c0-.83-.67-1.5-1.5-1.5h-.07a1.43 1.43 0 0 0-.64 2.7l.97.5a.43.43 0 0 1-.19.8H10a.5.5 0 0 1-.5-.5.5.5 0 0 0-1 0c0 .83.67 1.5 1.5 1.5h.07a1.43 1.43 0 0 0 .64-2.7l-.97-.5a.43.43 0 0 1-.24-.37Zm3.93-.43a.43.43 0 0 0-.2.8l.98.5a1.43 1.43 0 0 1-.64 2.7h-.07a1.5 1.5 0 0 1-1.5-1.5.5.5 0 0 1 1 0c0 .28.22.5.5.5h.07a.43.43 0 0 0 .2-.8l-.98-.5a1.43 1.43 0 0 1 .64-2.7h.07c.83 0 1.5.67 1.5 1.5a.5.5 0 0 1-1 0 .5.5 0 0 0-.5-.5h-.07Z"/></svg>