<svg width="20" height="20" viewBox="0 0 20 20" xmlns="http://www.w3.org/2000/svg"><path d="M10 6.5V2H5.5C4.67 2 4 2.67 4 3.5v8a2.5 2.5 0 0 1 .98 2.22l.6-1.72a1.5 1.5 0 0 1 2.84 0L9 13.67v-.17a2.5 2.5 0 0 1 4.5-1.5 2.5 2.5 0 0 1 2.5-.95V8h-4.5A1.5 1.5 0 0 1 10 6.5Zm1 0V2.25L15.75 7H11.5a.5.5 0 0 1-.5-.5ZM2.5 13a.5.5 0 0 0-.5.5v.24c0 .27.16.53.4.65l.64.32c.59.3.96.9.96 1.55v.24a1.5 1.5 0 0 1-3 0 .5.5 0 0 1 1 0 .5.5 0 0 0 1 0v-.24a.74.74 0 0 0-.4-.65l-.64-.32c-.59-.3-.96-.9-.96-1.55v-.24a1.5 1.5 0 0 1 3 0 .5.5 0 0 1-1 0 .5.5 0 0 0-.5-.5Zm4.97-.67a.5.5 0 0 0-.94 0l-1.75 5a.5.5 0 1 0 .94.34l.23-.67h2.1l.23.67a.5.5 0 1 0 .94-.34l-1.75-5ZM7.7 16H6.3l.7-1.99.7 1.99Zm3.3-2.5a.5.5 0 0 1 1 0 .5.5 0 0 0 1 0 1.5 1.5 0 0 0-3 0v.24c0 .65.37 1.25.96 1.55l.63.32c.25.12.41.38.41.65v.24a.5.5 0 0 1-1 0 .5.5 0 0 0-1 0 1.5 1.5 0 0 0 3 0v-.24c0-.65-.37-1.25-.96-1.55l-.63-.32a.74.74 0 0 1-.41-.65v-.24Zm4.5-.5a.5.5 0 0 0-.5.5v.24c0 .27.16.53.4.65l.64.32c.59.3.96.9.96 1.55v.24a1.5 1.5 0 0 1-3 0 .5.5 0 0 1 1 0 .5.5 0 0 0 1 0v-.24a.74.74 0 0 0-.4-.65l-.64-.32c-.59-.3-.96-.9-.96-1.55v-.24a1.5 1.5 0 0 1 3 0 .5.5 0 0 1-1 0 .5.5 0 0 0-.5-.5Z"/></svg>