<svg width="28" height="28" viewBox="0 0 28 28" xmlns="http://www.w3.org/2000/svg"><path d="M12.7 3.9a1.45 1.45 0 012.6 0L18 9.37l6.01.88a1.45 1.45 0 01.8 2.47l-1.06 1.03a7.44 7.44 0 00-1.58-.55l1.52-1.48-5.94-.87a1.45 1.45 0 01-1.1-.8L14 4.67l-2.66 5.39c-.2.43-.62.72-1.09.8l-5.94.86 4.3 4.19c.34.33.5.81.42 1.28L8 23.1 13 20.48v.02c0 .54.06 1.07.17 1.58l-4.55 2.4a1.45 1.45 0 01-2.1-1.53l1.02-6-4.35-4.24c-.86-.84-.39-2.3.8-2.47l6.02-.88 2.7-5.45zM27 20.5a6.5 6.5 0 11-13 0 6.5 6.5 0 0113 0zm-9.15-3.35a.5.5 0 00-.7.7l2.64 2.65-2.64 2.65a.5.5 0 00.7.7l2.65-2.64 2.65 2.64a.5.5 0 00.7-.7l-2.64-2.65 2.64-2.65a.5.5 0 00-.7-.7l-2.65 2.64-2.65-2.64z"/></svg>