<svg width="16" height="16" viewBox="0 0 16 16" xmlns="http://www.w3.org/2000/svg"><path d="M7.2 2.1a.9.9 0 011.6 0L10.25 5c-.36.02-.7.07-1.04.15L8 2.73 6.55 5.67a.9.9 0 01-.68.5l-3.25.47 2.35 2.3a.9.9 0 01.19.25 5.51 5.51 0 00-.14 1.76l-.35 2.02.74-.39c.13.31.28.61.46.89l-.91.48a.9.9 0 01-1.3-.95l.57-3.39-2.46-2.4a.9.9 0 01.5-1.53l3.4-.5L7.2 2.1zm7.8 8.4a4.5 4.5 0 11-9 0 4.5 4.5 0 019 0zm-2.65-1.15a.5.5 0 00-.7-.7L10.5 9.79 9.35 8.65a.5.5 0 10-.7.7l1.14 1.15-1.14 1.15a.5.5 0 00.7.7l1.15-1.14 1.15 1.14a.5.5 0 00.7-.7l-1.14-1.15 1.14-1.15z"/></svg>