<svg width="20" height="20" viewBox="0 0 20 20" xmlns="http://www.w3.org/2000/svg"><path d="M9.1 2.9a1 1 0 011.8 0l1.93 3.91 4.31.63a1 1 0 01.56 1.7l-.55.54a5.47 5.47 0 00-1-.43l.85-.82-4.32-.63a1 1 0 01-.75-.55L10 3.35l-1.93 3.9a1 1 0 01-.75.55L3 8.43l3.12 3.04a1 1 0 01.3.89l-.75 4.3 3.34-1.76c.03.36.09.7.18 1.04l-3.05 1.6a1 1 0 01-1.45-1.05l.74-4.3L2.3 9.14a1 1 0 01.56-1.7l4.31-.63L9.1 2.9zM19 14.5a4.5 4.5 0 11-9 0 4.5 4.5 0 019 0zm-2.65-1.15a.5.5 0 00-.7-.7l-1.15 1.14-1.15-1.14a.5.5 0 00-.7.7l1.14 1.15-1.14 1.15a.5.5 0 00.7.7l1.15-1.14 1.15 1.14a.5.5 0 00.7-.7l-1.14-1.15 1.14-1.15z"/></svg>