<svg width="28" height="28" viewBox="0 0 28 28" xmlns="http://www.w3.org/2000/svg"><path d="M3 6.75A3.75 3.75 0 016.75 3H9.5v6.5H3V6.75zM3 11v6h6.5v-6H3zm0 7.5v2.75A3.75 3.75 0 006.75 25H9.5v-6.5H3zm8 6.5h3.5a7.47 7.47 0 01-1.23-6.5H11V25zm14-14v3.5a7.47 7.47 0 00-6.5-1.23V11H25zm-8 0v2.87A7.53 7.53 0 0013.87 17H11v-6h6zm8-1.5V6.75A3.75 3.75 0 0021.25 3H18.5v6.5H25zM17 3h-6v6.5h6V3zm10 17.5a6.5 6.5 0 11-13 0 6.5 6.5 0 0113 0zm-9.15-3.35a.5.5 0 00-.7.7l2.64 2.65-2.64 2.65a.5.5 0 00.7.7l2.65-2.64 2.65 2.64a.5.5 0 00.7-.7l-2.64-2.65 2.64-2.65a.5.5 0 00-.7-.7l-2.65 2.64-2.65-2.64z"/></svg>