<svg width="24" height="24" viewBox="0 0 24 24" xmlns="http://www.w3.org/2000/svg"><path d="M3 6.25a.75.75 0 001.5 0v-.5c0-.69.56-1.25 1.25-1.25h12.5c.69 0 1.25.56 1.25 1.25v.5a.75.75 0 001.5 0v-.5A2.75 2.75 0 0018.25 3H5.75A2.75 2.75 0 003 5.75v.5zM3.75 10c.41 0 .75.34.75.75v2.5a.75.75 0 01-1.5 0v-2.5c0-.41.34-.75.75-.75zm16.5 0a.75.75 0 00-.75.75v2.5a.75.75 0 001.5 0v-2.5a.75.75 0 00-.75-.75zM3 20.25c0 .41.34.75.75.75h16.5a.75.75 0 000-1.5H3.75a.75.75 0 00-.75.75zm.75-1.75a.75.75 0 010-1.5h16.5a.75.75 0 010 1.5H3.75z"/></svg>