<svg width="20" height="20" viewBox="0 0 20 20" xmlns="http://www.w3.org/2000/svg"><path d="M11.87 2.22a8.02 8.02 0 0 0-3.74 0 .5.5 0 1 0 .23.97 7.02 7.02 0 0 1 3.28 0 .5.5 0 0 0 .23-.97Zm1.62 1.12a.5.5 0 0 0 .17.69 7.04 7.04 0 0 1 2.31 2.31.5.5 0 1 0 .85-.52 8.04 8.04 0 0 0-2.64-2.64.5.5 0 0 0-.69.16Zm-7.67-.16a.5.5 0 1 1 .52.85A7.04 7.04 0 0 0 4.25 6H7.5a.5.5 0 0 1 0 1h-4a.5.5 0 0 1-.5-.5v-4a.5.5 0 0 1 1 0v2.2a8.04 8.04 0 0 1 1.82-1.52Zm11.36 4.58a.5.5 0 0 0-.37.6 7.02 7.02 0 0 1 0 3.28.5.5 0 1 0 .97.23 8.02 8.02 0 0 0 0-3.74.5.5 0 0 0-.6-.37ZM2 10v-.5a.5.5 0 0 1 1 0v.5c0 .56.07 1.11.2 1.64a.5.5 0 0 1-.98.23A8.02 8.02 0 0 1 2 10Zm14.66 3.5a.5.5 0 0 0-.69.16 7.04 7.04 0 0 1-2.31 2.31.5.5 0 0 0 .52.85 8.04 8.04 0 0 0 2.64-2.64.5.5 0 0 0-.16-.69Zm-13.48.68a.5.5 0 1 1 .85-.52 7.04 7.04 0 0 0 2.31 2.31.5.5 0 1 1-.52.85 8.04 8.04 0 0 1-2.64-2.64Zm9.06 3a.5.5 0 0 0-.6-.37 7.02 7.02 0 0 1-3.28 0 .5.5 0 1 0-.23.97 8.02 8.02 0 0 0 3.74 0 .5.5 0 0 0 .37-.6Z"/></svg>