<svg width="20" height="20" viewBox="0 0 20 20" xmlns="http://www.w3.org/2000/svg"><path d="M11.56 2.15a8.04 8.04 0 0 0-3.12 0 .75.75 0 0 0 .3 1.47 6.54 6.54 0 0 1 2.53 0 .75.75 0 0 0 .29-1.47ZM6.6 3.55a.75.75 0 0 0-1.05-.2c-.57.38-1.1.84-1.55 1.36V2.75a.75.75 0 0 0-1.5 0v4c0 .41.34.75.75.75h4a.75.75 0 0 0 0-1.5H4.88c.42-.54.93-1.02 1.5-1.4.35-.24.45-.7.22-1.05ZM13.6 4.6a.75.75 0 0 1 .84-1.24 8.04 8.04 0 0 1 2.2 2.2.75.75 0 0 1-1.24.84 6.54 6.54 0 0 0-1.8-1.8Zm3.36 3.26a.75.75 0 0 0-.6.88 6.54 6.54 0 0 1 0 2.54.75.75 0 1 0 1.48.29 8.03 8.03 0 0 0 0-3.12.75.75 0 0 0-.88-.6ZM2 10v-.25a.75.75 0 0 1 1.5 0V10c0 .44.04.86.12 1.27a.75.75 0 0 1-1.47.29C2.05 11.06 2 10.53 2 10Zm14.45 3.4a.75.75 0 0 0-1.04.21 6.54 6.54 0 0 1-1.8 1.8.75.75 0 0 0 .84 1.24 8.04 8.04 0 0 0 2.2-2.2.75.75 0 0 0-.2-1.04Zm-13.1 1.05a.75.75 0 0 1 1.24-.84c.48.71 1.09 1.32 1.8 1.8a.75.75 0 0 1-.84 1.24 8.04 8.04 0 0 1-2.2-2.2Zm8.8 2.52a.75.75 0 0 0-.88-.6 6.54 6.54 0 0 1-2.54 0 .75.75 0 1 0-.29 1.48 8.03 8.03 0 0 0 3.12 0c.4-.08.67-.48.6-.88Z"/></svg>