<svg width="20" height="20" viewBox="0 0 20 20" xmlns="http://www.w3.org/2000/svg"><path d="M3 2.96a.5.5 0 01.54-.46l3.05.27c2.15.2 4.21.45 5.9.73 1.67.28 3.04.6 3.77.96.19.1.37.21.51.36.14.16.27.4.22.69a.95.95 0 01-.4.57c-.16.13-.38.24-.63.34-.99.4-2.89.77-5.92 1.15-2.15.27-3.44.53-4.1.77H5.9l.3.1c.34.1.77.2 1.28.28 1 .18 2.25.33 3.59.44 1 .09 2.07.22 2.99.4.45.08.87.18 1.23.29.35.1.67.22.9.38.12.07.26.18.34.35.08.13.1.27.09.43L16.5 11a1.5 1.5 0 00-1.42 1.02c-.8.2-1.96.4-3.6.58a16 16 0 00-4.18.88c-.38.16-.56.3-.64.4-.06.08-.05.11-.04.14.02.07.08.19.26.35.17.15.4.31.7.48.57.33 1.31.63 2.02.86l2.64.81a.5.5 0 01-.3.96l-2.65-.82c-.74-.24-1.55-.57-2.21-.94-.33-.19-.64-.4-.88-.62a1.78 1.78 0 01-.55-.81c-.1-.36-.01-.72.23-1.03.23-.28.58-.5 1.02-.7.88-.38 2.32-.7 4.47-.95 2.1-.24 3.33-.48 3.95-.7a11.8 11.8 0 00-1.44-.37 30 30 0 00-2.89-.38 43.66 43.66 0 01-3.68-.45c-.52-.1-.98-.2-1.37-.3-.37-.1-.71-.24-.95-.4a.94.94 0 01-.34-.38.68.68 0 01.04-.64c.1-.17.25-.28.39-.36.14-.08.32-.16.52-.23a23.3 23.3 0 014.31-.82c3.05-.38 4.83-.75 5.68-1.09.1-.04.2-.08.26-.12l-.04-.01c-.57-.3-1.8-.6-3.48-.87-1.66-.27-3.7-.52-5.84-.72L3.46 3.5A.5.5 0 013 2.96zm14 9.54a.5.5 0 00-1 0v4.8l-1.15-1.15a.5.5 0 00-.7.7l2 2c.2.2.5.2.7 0l2-2a.5.5 0 00-.7-.7L17 17.29V12.5z"/></svg>