<svg width="24" height="24" viewBox="0 0 24 24" xmlns="http://www.w3.org/2000/svg"><path d="M11.75 2a5.75 5.75 0 00-5.66 4.75H6a4 4 0 100 8h7.23l.13-.35c.22-.64.6-1.2 1.15-1.6.42-.3.87-.46 1.29-.52a3.75 3.75 0 015.7-1.53 4 4 0 00-4-4h-.09A5.75 5.75 0 0011.75 2zm4.5 12.75a.47.47 0 00-.28.08c-.07.05-.17.15-.26.4l-.01.05c-.15.36-.38 1.24-.6 2.09a86.97 86.97 0 00-.34 1.42l-.02.1v.03l-.03.07c-.16.5-.44.89-.8 1.15-.37.26-.78.36-1.16.36H11.7a2.75 2.75 0 11.29-1.5h.76c.12 0 .21-.03.28-.08.07-.05.17-.15.25-.38l.02-.09a99.38 99.38 0 01.35-1.44c.2-.8.45-1.78.64-2.26.17-.5.44-.88.8-1.14.37-.26.78-.36 1.16-.36h.3a2.75 2.75 0 11.14 1.5h-.44zm2.13-.1a1.25 1.25 0 002.12-.9 1.25 1.25 0 10-2.12.9zM9.25 20.5a1.25 1.25 0 100-2.5 1.25 1.25 0 000 2.5z"/></svg>