<svg width="24" height="24" viewBox="0 0 24 24" xmlns="http://www.w3.org/2000/svg"><path d="M7.5 7.79a4.5 4.5 0 0 1 9 0c.01.4.34.71.74.71h.26a3 3 0 0 1 2.99 2.7c.56.2 1.06.53 1.46.95a4.5 4.5 0 0 0-4.03-5.13 6 6 0 0 0-11.84 0A4.5 4.5 0 0 0 6.5 16h6.68l.13-.5a3 3 0 0 1 .47-1H6.5a3 3 0 1 1 0-6h.26c.4 0 .73-.31.75-.71Zm11.75 5.71a1.25 1.25 0 1 1 0 2.5 1.25 1.25 0 0 1 0-2.5Zm-3.03 2.25h.47a2.75 2.75 0 1 0-.14-1.5h-.33a2 2 0 0 0-1.94 1.5l-1.01 3.88a.5.5 0 0 1-.49.37h-.8a2.75 2.75 0 1 0-.28 1.5h1.08a2 2 0 0 0 1.94-1.5l1.01-3.88a.5.5 0 0 1 .49-.37ZM8 20.25a1.25 1.25 0 1 1 2.5 0 1.25 1.25 0 0 1-2.5 0Z"/></svg>