<svg width="48" height="48" viewBox="0 0 48 48" xmlns="http://www.w3.org/2000/svg"><path d="M24 4a20 20 0 1 1 0 40 20 20 0 0 1 0-40Zm0 2.5a17.5 17.5 0 1 0 0 35 17.5 17.5 0 0 0 0-35Zm-6.22 9.52.1.1L24 22.23l6.12-6.11a1.25 1.25 0 0 1 1.66-.1l.1.1c.46.45.49 1.17.1 1.66l-.1.1L25.77 24l6.11 6.12c.46.45.49 1.17.1 1.66l-.1.1c-.45.46-1.17.49-1.66.1l-.1-.1L24 25.77l-6.12 6.11c-.45.46-1.17.49-1.66.1l-.1-.1a1.25 1.25 0 0 1-.1-1.66l.1-.1L22.23 24l-6.11-6.12a1.25 1.25 0 0 1-.1-1.66l.1-.1a1.25 1.25 0 0 1 1.66-.1Z"/></svg>