<svg width="16" height="16" viewBox="0 0 16 16" xmlns="http://www.w3.org/2000/svg"><path d="M11.07 4.14a1.25 1.25 0 0 0-1.14 0L7.68 5.29C7.26 5.51 7 5.94 7 6.4v3.2c0 .46.26.9.68 1.1l2.25 1.16c.36.18.78.18 1.14 0l2.25-1.15c.42-.22.68-.65.68-1.12V6.4c0-.46-.26-.9-.68-1.1l-2.25-1.16Zm-.68.89a.25.25 0 0 1 .22 0l2.25 1.15c.09.04.14.13.14.22v3.2c0 .09-.05.17-.14.22l-2.25 1.15a.25.25 0 0 1-.22 0L8.14 9.82A.25.25 0 0 1 8 9.59V6.4c0-.09.05-.18.14-.22l2.25-1.15ZM9.22 6.55a.5.5 0 0 0-.44.9l1.22.6V9.5a.5.5 0 0 0 1 0V8.06l1.22-.61a.5.5 0 1 0-.44-.9l-1.28.64-1.28-.64ZM1.5 7.5a.5.5 0 0 0 0 1h3a.5.5 0 0 0 0-1h-3Zm.5-2c0-.28.22-.5.5-.5h3a.5.5 0 0 1 0 1h-3a.5.5 0 0 1-.5-.5Zm.5 4.5a.5.5 0 0 0 0 1h3a.5.5 0 0 0 0-1h-3Z"/></svg>