<svg width="20" height="20" viewBox="0 0 20 20" xmlns="http://www.w3.org/2000/svg"><path d="M12.81 4.67a1.5 1.5 0 0 1 1.38 0l3 1.54c.5.26.81.77.81 1.33v3.92a1.5 1.5 0 0 1-.81 1.33l-3 1.54a1.5 1.5 0 0 1-1.38 0l-3-1.54A1.5 1.5 0 0 1 9 11.46V7.54c0-.56.31-1.07.81-1.33l3-1.54Zm-1.76 3.1a.5.5 0 0 0 .23.68L13 9.3v2.2a.5.5 0 0 0 1 0V9.3l1.72-.86a.5.5 0 1 0-.44-.9l-1.78.9-1.78-.9a.5.5 0 0 0-.67.23ZM3.5 6a.5.5 0 0 0 0 1h4a.5.5 0 0 0 0-1h-4Zm-1 3a.5.5 0 0 0 0 1h4a.5.5 0 0 0 0-1h-4Zm1 3a.5.5 0 1 0 0 1h4a.5.5 0 0 0 0-1h-4Z"/></svg>