<svg width="24" height="24" viewBox="0 0 24 24" xmlns="http://www.w3.org/2000/svg"><path d="M15.6 6.22a2 2 0 0 1 1.8 0l3.5 1.76A2 2 0 0 1 22 9.77v4.46a2 2 0 0 1-1.1 1.79l-3.5 1.77a2 2 0 0 1-1.8 0l-3.5-1.77a2 2 0 0 1-1.1-1.79V9.77a2 2 0 0 1 1.1-1.79l3.5-1.76Zm-2.02 4.19a.75.75 0 0 0 .33 1l1.84.94v1.9a.75.75 0 1 0 1.5 0v-1.9l1.84-.94a.75.75 0 0 0-.68-1.33l-1.91.97-1.91-.97a.75.75 0 0 0-1 .33ZM4.75 7a.75.75 0 1 0 0 1.5h4.5a.75.75 0 0 0 0-1.5h-4.5Zm-2 4a.75.75 0 0 0 0 1.5h4.5a.75.75 0 0 0 0-1.5h-4.5ZM4 15.75c0-.42.34-.75.75-.75h4.5a.75.75 0 0 1 0 1.5h-4.5a.75.75 0 0 1-.75-.75Z"/></svg>