<svg width="20" height="20" viewBox="0 0 20 20" xmlns="http://www.w3.org/2000/svg"><path d="M3.5 17a.5.5 0 0 1-.5-.5v-13a.5.5 0 0 1 1 0v13a.5.5 0 0 1-.5.5Zm4.5-.5v-3.88a1.55 1.55 0 0 0 .41-.62H12V8H8.41A1.5 1.5 0 0 0 8 7.38V3.5c0-.28.22-.5.5-.5H15a2 2 0 0 1 2 2v10a2 2 0 0 1-2 2H8.5a.5.5 0 0 1-.5-.5Zm5-.5h2a1 1 0 0 0 1-1v-2h-3v3Zm3-8h-3v4h3V8Zm0-1V5a1 1 0 0 0-1-1h-2v3h3Zm-4 0V4H9v3h3Zm-3 9h3v-3H9v3ZM7.35 8.85a.5.5 0 1 0-.7-.7l-1.5 1.5a.5.5 0 0 0 0 .7l1.5 1.5a.5.5 0 0 0 .7-.7l-.64-.65H9.5a.5.5 0 0 0 0-1H6.7l.65-.65Z"/></svg>