<svg width="28" height="28" viewBox="0 0 28 28" xmlns="http://www.w3.org/2000/svg"><path d="M3.75 25a.75.75 0 0 1-.75-.75V3.75a.75.75 0 0 1 1.5 0v20.5c0 .41-.34.75-.75.75Zm6.16-7.44c.18-.16.32-.35.42-.56H17v-6h-6.67a1.75 1.75 0 0 0-.83-.83V4a1 1 0 0 1 1-1h10.75A3.75 3.75 0 0 1 25 6.75v14.5A3.75 3.75 0 0 1 21.25 25H10.5a1 1 0 0 1-1-1v-6.17c.15-.07.29-.16.41-.27Zm1.09.94v5h6v-5h-6Zm7.5 0v5h2.75c1.24 0 2.25-1 2.25-2.25V18.5h-5Zm0-1.5h5v-6h-5v6Zm5-10.25c0-1.24-1-2.25-2.25-2.25H18.5v5h5V6.75ZM17 4.5h-6v5h6v-5Zm-7.69 7.75-.89 1H12a.75.75 0 0 1 0 1.5H8.42l.9 1a.75.75 0 0 1-1.13 1l-2-2.25a.75.75 0 0 1 0-1l2-2.25a.75.75 0 0 1 1.12 1Z"/></svg>