<svg width="24" height="24" viewBox="0 0 24 24" xmlns="http://www.w3.org/2000/svg"><path d="M16 21h1.75c1.8 0 3.25-1.46 3.25-3.25V16h-5v5Zm0-6.5h5v-5h-5v5Zm-5.52-5h4.02v5h-4.02c.04-.25.02-.5-.05-.75h.82a1.75 1.75 0 1 0 0-3.5h-.82c.07-.24.09-.5.05-.75ZM16 8h5V6.25C21 4.45 19.54 3 17.75 3H16v5Zm-1.5-5v5h-5V3.75a.75.75 0 0 1 .75-.75h4.25Zm0 13v5h-4.25a.75.75 0 0 1-.75-.75V16h5ZM4.5 3.75a.75.75 0 0 0-1.5 0v16.5a.75.75 0 0 0 1.5 0V3.75Zm4.75 5.44c.3.27.34.75.06 1.06l-.89 1h2.83a.75.75 0 0 1 0 1.5H8.42l.9 1a.75.75 0 0 1-1.13 1l-2-2.25a.75.75 0 0 1 0-1l2-2.25a.75.75 0 0 1 1.06-.06Z"/></svg>