<svg width="20" height="20" viewBox="0 0 20 20" xmlns="http://www.w3.org/2000/svg"><path d="m14.28 3.24-1.09 1.1a6.5 6.5 0 1 0 1.4 10.26.75.75 0 0 1 1.07 1.06 8 8 0 1 1-1.38-12.42Zm-3.3 3.3 1.17-1.17a5.1 5.1 0 1 0 1.46 8.24.75.75 0 1 0-1.06-1.06 3.6 3.6 0 1 1-1.56-6.01Zm4.8-2.32c.3.3.3.77 0 1.06l-4.33 4.33a1.5 1.5 0 1 1-1.06-1.06l4.33-4.33c.3-.3.77-.3 1.06 0Zm1.47 9.03a.75.75 0 1 1-1.5 0 .75.75 0 0 1 1.5 0ZM16.5 7.5a.75.75 0 1 0 0-1.5.75.75 0 0 0 0 1.5Zm1.5 3.75a.75.75 0 1 1-1.5 0 .75.75 0 0 1 1.5 0Zm-.75-1.75a.75.75 0 1 0 0-1.5.75.75 0 0 0 0 1.5ZM15 11.25a.75.75 0 1 1-1.5 0 .75.75 0 0 1 1.5 0Zm-.75-1.75a.75.75 0 1 0 0-1.5.75.75 0 0 0 0 1.5Z"/></svg>