<svg width="20" height="20" viewBox="0 0 20 20" xmlns="http://www.w3.org/2000/svg"><path d="M6.2 4 2 8.2V6.8L4.8 4h1.4Zm7 0-1.46 1.46a3.48 3.48 0 0 0-1.02-.39L11.79 4h1.42Zm-1.08 3.17a2.51 2.51 0 0 0-2.34-1.16 2.5 2.5 0 1 0 2.34 1.16Zm.72-.72c.2.29.37.6.48.94L16.69 4 16.5 4h-1.2l-2.46 2.45ZM7.5 12c-.08 0-.15 0-.22.02A1.5 1.5 0 0 0 6 13.5V16h8v-2.5a1.5 1.5 0 0 0-1.5-1.5h-5Zm5-1c.22 0 .43.03.63.08L18 6.2V5.5c0-.2-.04-.4-.12-.59l-4.5 4.5a3.5 3.5 0 0 1-.93 1.59h.05Zm1.9.88c.23.27.4.58.5.93L18 9.7V8.29l-3.6 3.6ZM15 16v-1.2l3-3v1.4L15.2 16H15Zm-10-.3v-1.4l-1.7 1.69.2.01h1.2l.3-.3Zm1.57-6.48c.08.36.21.7.4 1.02L2.11 15.1A1.5 1.5 0 0 1 2 14.5v-.7l4.57-4.58ZM9.71 4 2 11.7v-1.4L8.3 4h1.4Z"/></svg>