<svg width="28" height="28" viewBox="0 0 28 28" xmlns="http://www.w3.org/2000/svg"><path d="M6.44 4 2 8.44v2.12L8.56 4H6.44ZM2 13.94v2.12L14.06 4h-2.12L2 13.94Zm0 7.31c0 .1 0 .2.02.3L10 13.56a4.47 4.47 0 0 1-.48-1.64L2 19.44v1.81ZM14.42 7.02c.59.05 1.14.22 1.64.48l3.5-3.5h-2.12l-3.02 3.02ZM7 19.94 3.33 23.6c.42.25.9.39 1.42.39h.31L7 22.06v-2.12Zm11.92-4.3a3 3 0 0 0-.92-.14h-1.06l9.04-9.05.02.3v1.81l-7.08 7.08ZM21 19.06v-.56c0-.46-.1-.89-.28-1.28L26 11.94v2.12l-5 5ZM21 24h.56L26 19.56v-2.12l-5 5V24Zm-2.58-13.36a4.47 4.47 0 0 0-.6-1.52L22.94 4h.31c.52 0 1 .14 1.42.4l-6.25 6.24ZM10 18a.5.5 0 0 0-.5.5V24H8v-5.5c0-1.1.9-2 2-2h8a2 2 0 0 1 2 2V24h-1.5v-5.5a.5.5 0 0 0-.5-.5h-8Zm2-6.5a2 2 0 1 1 4 0 2 2 0 0 1-4 0ZM14 8a3.5 3.5 0 1 0 0 7 3.5 3.5 0 0 0 0-7Z"/></svg>