<svg width="48" height="48" viewBox="0 0 48 48" xmlns="http://www.w3.org/2000/svg"><path d="M4 15.23 11.23 8h3.54L4 18.77v-3.54Zm0 12.54v-3.54L20.23 8h3.54L4 27.77Zm.1 8.9c-.07-.3-.1-.6-.1-.92v-2.52l12.08-12.08c.14.95.44 1.85.88 2.66L4.1 36.67Zm26.2-11.73c-.3.38-.64.74-1 1.06h1.45c.6 0 1.19.1 1.73.3L44 14.76v-2.52c0-.32-.03-.62-.1-.92l-13.6 13.6Zm.36-9.37c.5.74.87 1.56 1.1 2.45l9.66-9.68A4.24 4.24 0 0 0 39.75 8h-1.52l-7.57 7.57ZM32.76 8l-4.95 4.96a7.95 7.95 0 0 0-2.66-.88L29.23 8h3.54Zm-23 32H8.26c-.6 0-1.16-.12-1.67-.34L12 34.23v3.54L9.77 40ZM36 31.25v.52l8-8v-3.54l-8.6 8.6c.39.72.6 1.55.6 2.42Zm.77 8.75H36v-2.77l8-8v3.54L36.77 40ZM14 31.25V40h20v-8.75c0-1.8-1.46-3.25-3.25-3.25h-13.5A3.25 3.25 0 0 0 14 31.25ZM24 26a6 6 0 1 0 0-12 6 6 0 0 0 0 12Z"/></svg>