<svg width="24" height="24" viewBox="0 0 24 24" xmlns="http://www.w3.org/2000/svg"><path d="M2.75 2.5a.75.75 0 0 0-.75.75v5.5c0 .41.34.75.75.75h5.5a.75.75 0 0 0 0-1.5h-3.9a8.33 8.33 0 0 1 4.12-3.06A9.68 9.68 0 0 1 19.6 9.1a.75.75 0 0 0 1.32-.72A11.19 11.19 0 0 0 8.03 3.51 9.61 9.61 0 0 0 3.5 6.65v-3.4a.75.75 0 0 0-.75-.75Zm6.2 8.53c.33.09.55.38.55.72v8.5a.75.75 0 0 1-1.5 0v-6.42c-.38.37-.84.75-1.36 1.06a.75.75 0 1 1-.78-1.28 6.88 6.88 0 0 0 2.24-2.24l.01-.01a.75.75 0 0 1 .84-.33Zm4.25 1.6c.55-1 1.48-1.63 2.8-1.63 1.32 0 2.25.64 2.8 1.63.53.93.7 2.15.7 3.37 0 1.22-.17 2.44-.7 3.37A3.05 3.05 0 0 1 16 21a3.05 3.05 0 0 1-2.8-1.63 7.03 7.03 0 0 1-.7-3.37c0-1.22.18-2.44.7-3.37Zm1.3.73A5.6 5.6 0 0 0 14 16c0 1.12.17 2.03.5 2.64.31.55.76.86 1.5.86s1.19-.31 1.5-.86c.33-.6.5-1.52.5-2.64a5.6 5.6 0 0 0-.5-2.64c-.31-.55-.76-.86-1.5-.86s-1.19.31-1.5.86Z"/></svg>