<svg width="24" height="24" viewBox="0 0 24 24" xmlns="http://www.w3.org/2000/svg"><path d="M20.4 12.15a8.5 8.5 0 10-5.39 9.3 1.75 1.75 0 01.65-1.98 7 7 0 113.18-7.45 4.68 4.68 0 011.55.13zm-7.66-3.5a.75.75 0 00-1.49.1v4.6a.75.75 0 001.5-.1v-4.6zm6.49-3.48l-.08-.06a.75.75 0 00-.88 1.22l1.16.96.08.06a.75.75 0 00.88-1.21l-1.16-.97zM15 3.25a.75.75 0 00-.75-.75h-4.6a.75.75 0 00.1 1.5h4.6a.75.75 0 00.65-.75zM18.25 18c0-.41.34-.75.75-.75.53 0 1.06-.18 1.44-.47.4-.3.56-.63.56-.9 0-.65-.66-1.38-1.75-1.38-.52 0-1.01.19-1.4.4a4.1 4.1 0 00-.6.4v.01a.75.75 0 01-1-1.12l.02-.02a3.08 3.08 0 01.23-.18c.15-.1.36-.25.62-.4.51-.28 1.27-.59 2.13-.59 1.68 0 3.25 1.18 3.25 2.88 0 .89-.52 1.62-1.16 2.1l-.03.02.03.02c.64.48 1.16 1.21 1.16 2.1 0 1.7-1.57 2.88-3.25 2.88-.86 0-1.62-.31-2.13-.6a5.58 5.58 0 01-.85-.57l-.01-.01-.01-.01a.75.75 0 011-1.12l.02.02a2.96 2.96 0 00.57.38c.4.22.9.41 1.41.41 1.09 0 1.75-.73 1.75-1.38 0-.27-.17-.6-.56-.9a2.48 2.48 0 00-1.44-.47.75.75 0 01-.75-.75z"/></svg>