<svg width="20" height="20" viewBox="0 0 20 20" xmlns="http://www.w3.org/2000/svg"><path d="M7 2.5c0-.28.22-.5.5-.5h4a.5.5 0 010 1h-4a.5.5 0 01-.5-.5zm7.45 1.43c.2-.2.51-.2.7 0l1.42 1.41a.5.5 0 11-.7.71l-1.42-1.41a.5.5 0 010-.71zM16.5 11v.35c-1.1-.58-2.6-.45-3.9.52a1.5 1.5 0 00.75 2.7 1.5 1.5 0 000 .87 1.5 1.5 0 00-1.24 2.06 7 7 0 114.4-6.5zM9 6.5v5a.5.5 0 001 0v-5a.5.5 0 00-1 0zm4.8 6.97c1.1-.82 1.88-.4 2.11-.02.12.2.12.4 0 .57-.11.17-.43.42-1.17.49a.5.5 0 00.02 1c.73.04 1.04.28 1.16.44.1.16.11.36-.01.58-.23.4-1.02.83-2.11 0a.5.5 0 00-.6.8c1.49 1.12 2.98.7 3.57-.3a1.51 1.51 0 00-.42-2.04 1.5 1.5 0 00.42-2.05c-.6-1-2.1-1.37-3.57-.27a.5.5 0 00.6.8z"/></svg>