<svg width="20" height="20" viewBox="0 0 20 20" xmlns="http://www.w3.org/2000/svg"><path d="M7.5 2a.5.5 0 000 1h4a.5.5 0 000-1h-4zm7.66 1.93a.5.5 0 10-.71.7l1.41 1.42a.5.5 0 10.71-.7l-1.41-1.42zM9.5 6a.5.5 0 00-.5.5v5a.5.5 0 001 0v-5a.5.5 0 00-.5-.5zm0 12c.92 0 1.8-.18 2.6-.5a1.5 1.5 0 010-1.09A6 6 0 1115.5 11v.04c.35.04.69.15 1 .31V11a7 7 0 10-7 7zm4.3-4.53c1.1-.82 1.88-.4 2.11-.02.12.2.12.4 0 .57-.11.17-.43.42-1.17.49a.5.5 0 00.02 1c.73.04 1.04.28 1.16.44.1.16.11.36-.01.58-.23.4-1.02.83-2.11 0a.5.5 0 00-.6.8c1.49 1.12 2.98.7 3.57-.3a1.51 1.51 0 00-.42-2.04 1.5 1.5 0 00.42-2.05c-.6-1-2.1-1.37-3.57-.27a.5.5 0 00.6.8z"/></svg>