<svg width="24" height="24" viewBox="0 0 24 24" xmlns="http://www.w3.org/2000/svg"><path d="M9.79 5.51c.13-.39.55-.6.95-.47l1.26.42 1.26-.42a.75.75 0 01.48 1.42l-.99.33v.96a.75.75 0 01-1.5 0v-.96l-.99-.33a.75.75 0 01-.47-.95zm2.45-3.47a.75.75 0 00-.48 0L8.01 3.29c-.3.1-.51.39-.51.71v5c0 .32.2.6.51.71l3.24 1.08V13H9.5c-1.24 0-2.25 1-2.25 2.25v.84a3 3 0 101.5 0v-.84c0-.41.34-.75.75-.75h5c.41 0 .75.34.75.75v.84a3 3 0 101.5 0v-.84c0-1.24-1-2.25-2.25-2.25h-1.75v-2.2l3.24-1.09c.3-.1.51-.39.51-.71V4c0-.32-.2-.6-.51-.71l-3.75-1.25zM9 8.46V4.54l3-1 3 1v3.92l-3 1-3-1zM8 17.5a1.5 1.5 0 110 3 1.5 1.5 0 010-3zm6.5 1.5a1.5 1.5 0 113 0 1.5 1.5 0 01-3 0z"/></svg>