<svg width="20" height="20" viewBox="0 0 20 20" xmlns="http://www.w3.org/2000/svg"><path d="M8.62 16.26a1 1 0 001.23.7l5.41-1.44a1 1 0 00.7-1.23L13.14 3.74a1 1 0 00-1.22-.7L6.49 4.48a1 1 0 00-.7 1.22l2.83 10.55zm1.49 1.67a2 2 0 01-2.46-1.41L4.82 5.97a2 2 0 011.41-2.45l5.42-1.45a2 2 0 012.45 1.41l2.83 10.55a2 2 0 01-1.4 2.45l-5.42 1.45zM7 18h.14a2.48 2.48 0 01-.33-.74l-.08-.3A1 1 0 016 16v-1.79l-1-3.73V16a2 2 0 002 2zM4 16.5c0 .15.01.3.04.45l-.06-.02a2 2 0 01-1.41-2.45l1.42-5.33v3.86l-.46 1.73A1 1 0 004 15.86v.64zm4.25-11a.75.75 0 110 1.5.75.75 0 010-1.5z"/></svg>