<svg width="24" height="24" viewBox="0 0 24 24" xmlns="http://www.w3.org/2000/svg"><path d="M14.03 2.78c1.47-.4 2.98.48 3.37 1.94l2.72 10.14a2.75 2.75 0 0 1-1.94 3.37l-6.28 1.69a2.75 2.75 0 0 1-3.37-1.95L5.8 7.83a2.75 2.75 0 0 1 1.95-3.37l6.27-1.68ZM5.8 11.66l1.76 6.57c.18.67.54 1.26 1 1.71l-.44-.02a2.75 2.75 0 0 1-2.6-2.9l.28-5.36Zm8.62-7.43L8.14 5.9c-.66.18-1.06.86-.88 1.53l2.72 10.14c.18.67.86 1.06 1.53.89l6.28-1.69c.66-.17 1.06-.86.88-1.53L15.95 5.11a1.25 1.25 0 0 0-1.53-.88Zm-9.54 5.95-.36 6.8c-.04.7.12 1.36.43 1.94l-.42-.16a2.75 2.75 0 0 1-1.58-3.56l1.93-5.02Zm4.86-3.15a1 1 0 1 1 .52 1.94 1 1 0 0 1-.52-1.94Z"/></svg>