<svg width="32" height="32" viewBox="0 0 32 32" xmlns="http://www.w3.org/2000/svg"><path d="M7.5 5a1 1 0 0 1 .92.6l3.5 8a1 1 0 1 1-1.84.8l-.6-1.4H5.52l-.61 1.4a1 1 0 0 1-1.84-.8l3.5-8A1 1 0 0 1 7.5 5Zm1.1 6L7.5 8.5 6.4 11h2.2ZM4 19a1 1 0 1 0 0 2h24a1 1 0 0 0 0-2H4Zm0 6a1 1 0 1 0 0 2h24a1 1 0 0 0 0-2H4Zm9-19a1 1 0 0 1 1-1h2.5a3 3 0 0 1 2.46 4.72A3 3 0 0 1 17 15h-3a1 1 0 0 1-1-1V6Zm2 5v2h2a1 1 0 0 0 0-2h-2Zm0-2h1.5a1 1 0 0 0 0-2H15v2Zm8 1c0-1.18.3-1.93.65-2.37.34-.42.8-.63 1.33-.63.66 0 1.23.32 1.6 1.18a1 1 0 1 0 1.84-.8A3.67 3.67 0 0 0 24.98 5c-1.11 0-2.15.46-2.88 1.37-.73.9-1.1 2.14-1.1 3.63 0 1.5.37 2.74 1.1 3.63A3.64 3.64 0 0 0 24.98 15c1.53 0 2.78-.87 3.44-2.38a1 1 0 1 0-1.84-.8c-.37.86-.94 1.18-1.6 1.18-.53 0-.99-.2-1.33-.63-.36-.44-.65-1.2-.65-2.37Z"/></svg>