<svg width="48" height="48" viewBox="0 0 48 48" xmlns="http://www.w3.org/2000/svg"><path d="M20 10.5a4 4 0 002.23 3.59l.5.17c.82.3 1.73.3 2.56 0l.49-.17A4 4 0 1020 10.5zm-2.2 1.98a6.5 6.5 0 1112.4 0l6.1-2.22a4.25 4.25 0 012.9 7.99L31 21.23v1.12c-.87.2-1.7.5-2.5.87v-2.17c0-.94.6-1.79 1.49-2.11l8.36-3.04a1.75 1.75 0 10-1.2-3.3l-10.4 3.8a6.48 6.48 0 01-5.5 0l-10.4-3.8a1.75 1.75 0 00-1.2 3.3l8.37 3.04a2.25 2.25 0 011.48 2.11v4.97c0 .67-.13 1.34-.38 1.96L14.63 39.1a1.75 1.75 0 103.25 1.3l3.6-8.9a13.01 13.01 0 00-.06 6.8l-1.23 3.04a4.25 4.25 0 01-7.88-3.18l4.5-11.11c.13-.33.2-.68.2-1.03v-4.79l-8.2-2.98a4.25 4.25 0 112.9-8l6.1 2.23zM45 35a11 11 0 11-22 0 11 11 0 0122 0zm-4.3-4.7a1 1 0 00-1.4 0L32 37.58l-3.3-3.3a1 1 0 00-1.4 1.42l4 4a1 1 0 001.4 0l8-8a1 1 0 000-1.42z"/></svg>