<svg width="24" height="24" viewBox="0 0 24 24" xmlns="http://www.w3.org/2000/svg"><path d="M9.03 5.4a3 3 0 115.95 0l2.87-1.22a2.27 2.27 0 012.96 1.18 2.24 2.24 0 01-1.18 2.96L16 9.86v1.31c-.53.13-1.03.32-1.5.56V9.7c0-.5.3-.95.76-1.15l3.78-1.6c.39-.17.56-.6.4-.98a.77.77 0 00-1-.4l-4.97 2.1c-.16.08-.33.13-.5.18a3 3 0 01-1.95 0c-.16-.05-.33-.1-.48-.17L5.55 5.56a.77.77 0 00-1 .4c-.16.38.02.81.4.98l3.78 1.6c.46.2.76.65.76 1.15v3.91c0 .14-.02.28-.07.4l-1.89 5.5a.75.75 0 101.42.5l2.1-6.13a.99.99 0 011.45-.53 6.47 6.47 0 00-1.44 5.13l-.7 2.01a2.25 2.25 0 11-4.25-1.46L8 13.56v-3.7L4.37 8.32a2.24 2.24 0 01-1.18-2.96 2.27 2.27 0 012.96-1.18L9.03 5.4zM10.5 5c0 .64.4 1.19.97 1.4.35.09.71.09 1.06 0A1.5 1.5 0 1010.5 5zM23 17.5a5.5 5.5 0 11-11 0 5.5 5.5 0 0111 0zm-2.15-2.35a.5.5 0 00-.7 0l-3.65 3.64-1.65-1.64a.5.5 0 00-.7.7l2 2c.2.2.5.2.7 0l4-4a.5.5 0 000-.7z"/></svg>