<svg width="32" height="32" viewBox="0 0 32 32" xmlns="http://www.w3.org/2000/svg"><path d="M16 9a3.5 3.5 0 100-7 3.5 3.5 0 000 7zM7.07 6.17a3.07 3.07 0 10-2 5.8l5.6 1.93c.2.07.33.26.33.48v3.51a.5.5 0 01-.05.22L7.3 25.58a3.07 3.07 0 105.52 2.7l1.46-3a9.02 9.02 0 016.74-11.06.5.5 0 01.3-.32l5.6-1.92a3.07 3.07 0 00-2-5.81l-2.98 1.02c-.52.18-.9.55-1.14.97a5.5 5.5 0 01-9.62 0 2.1 2.1 0 00-1.14-.97L7.07 6.17zM23 15.5a7.5 7.5 0 110 15 7.5 7.5 0 010-15zm4.53 4.72a.75.75 0 00-1.06 0l-4.72 4.72-1.97-1.97a.75.75 0 10-1.06 1.06l2.5 2.5c.3.3.77.3 1.06 0l5.25-5.25c.3-.3.3-.77 0-1.06z"/></svg>