<svg width="32" height="32" viewBox="0 0 32 32" xmlns="http://www.w3.org/2000/svg"><path d="M13.5 6.5a2.5 2.5 0 115 0 2.5 2.5 0 01-5 0zM16 2a4.5 4.5 0 00-4.32 5.75l-4.6-1.58a3.07 3.07 0 00-2 5.8L11 14.03v3.76a1 1 0 01-.1.44l-3.6 7.36a3.07 3.07 0 005.53 2.7l1.46-3a9.02 9.02 0 010-4.53l-.09.15-3.17 6.5a1.07 1.07 0 11-1.92-.94l3.59-7.37a3 3 0 00.3-1.31v-4.12c0-.64-.4-1.2-1.01-1.42L5.72 10.1a1.07 1.07 0 11.7-2.03l7.63 2.62a6 6 0 003.9 0l7.63-2.62a1.07 1.07 0 11.7 2.03L20 12.24c-.6.21-1.01.78-1.01 1.42v1.28c.63-.32 1.3-.56 2-.72v-.2l5.93-2.04a3.07 3.07 0 00-2-5.81l-4.6 1.58A4.5 4.5 0 0016 2zm7 13.5a7.5 7.5 0 110 15 7.5 7.5 0 010-15zm4.53 4.72a.75.75 0 00-1.06 0l-4.72 4.72-1.97-1.97a.75.75 0 10-1.06 1.06l2.5 2.5c.3.3.77.3 1.06 0l5.25-5.25c.3-.3.3-.77 0-1.06z"/></svg>