<svg width="16" height="16" viewBox="0 0 16 16" xmlns="http://www.w3.org/2000/svg"><path d="M6.83 2.11a.5.5 0 0 0 .2.99 5.14 5.14 0 0 1 1.95 0 .5.5 0 0 0 .2-.99 6.15 6.15 0 0 0-2.35 0Zm4.5.9a.5.5 0 0 0-.55.83c.54.37 1.01.84 1.38 1.38a.5.5 0 0 0 .83-.55c-.44-.66-1-1.22-1.66-1.66Zm-6.1.83a.5.5 0 1 0-.56-.83C4 3.45 3.45 4.01 3 4.67a.5.5 0 1 0 .83.55c.37-.54.84-1.01 1.38-1.38Zm8.66 2.99a.5.5 0 1 0-.99.2c.13.62.13 1.32 0 1.95a.5.5 0 0 0 .99.19c.15-.76.15-1.58 0-2.34Zm-10.8.2a.5.5 0 0 0-.98-.2 6.15 6.15 0 0 0 0 2.34.5.5 0 1 0 .99-.2 5.14 5.14 0 0 1 0-1.95Zm9.9 4.3a.5.5 0 0 0-.83-.55 5.03 5.03 0 0 1-1.38 1.38.5.5 0 0 0 .55.83c.66-.44 1.22-1 1.66-1.66Zm-9.15-.55a.5.5 0 1 0-.83.55c.44.66 1 1.22 1.66 1.66a.5.5 0 1 0 .55-.83 5.03 5.03 0 0 1-1.38-1.38Zm3.18 2.12a.5.5 0 0 0-.19.99c.76.15 1.58.15 2.34 0a.5.5 0 1 0-.2-.99c-.62.13-1.32.13-1.95 0ZM12 8a4 4 0 1 1-8 0 4 4 0 0 1 8 0Zm-1.7 1.1a.5.5 0 0 0-.7.1 2 2 0 0 1-3.2 0 .5.5 0 0 0-.8.6 3 3 0 0 0 4.8 0 .5.5 0 0 0-.1-.7ZM6.25 7.5a.75.75 0 1 0 0-1.5.75.75 0 0 0 0 1.5Zm4.25-.75a.75.75 0 1 0-1.5 0 .75.75 0 0 0 1.5 0Z"/></svg>