<svg width="20" height="20" viewBox="0 0 20 20" xmlns="http://www.w3.org/2000/svg"><path d="M8.44 2.15a.5.5 0 0 0 .2.98 7.2 7.2 0 0 1 2.73 0 .5.5 0 0 0 .19-.98 8.2 8.2 0 0 0-3.12 0Zm6 1.2a.5.5 0 0 0-.55.83 7.04 7.04 0 0 1 1.93 1.93.5.5 0 1 0 .83-.56 8.04 8.04 0 0 0-2.2-2.2Zm-8.33.83a.5.5 0 0 0-.56-.83 8.04 8.04 0 0 0-2.2 2.2.5.5 0 0 0 .83.56A7.04 7.04 0 0 1 6.1 4.18ZM3.13 8.63a.5.5 0 1 0-.98-.2 8.2 8.2 0 0 0 0 3.13.5.5 0 0 0 .98-.2 7.2 7.2 0 0 1 0-2.73Zm14.72-.2a.5.5 0 1 0-.98.2 7.2 7.2 0 0 1 0 2.74.5.5 0 1 0 .98.2 8.2 8.2 0 0 0 0-3.13ZM4.18 13.9a.5.5 0 0 0-.83.56 8.04 8.04 0 0 0 2.2 2.2.5.5 0 0 0 .56-.83 7.04 7.04 0 0 1-1.93-1.93Zm12.47.56a.5.5 0 1 0-.83-.56 7.04 7.04 0 0 1-1.93 1.93.5.5 0 1 0 .55.83 8.04 8.04 0 0 0 2.21-2.2Zm-8.02 2.42a.5.5 0 0 0-.2.98c1.02.2 2.12.2 3.13 0a.5.5 0 0 0-.2-.98c-.88.17-1.84.17-2.73 0ZM7.75 9a.75.75 0 1 0 0-1.5.75.75 0 0 0 0 1.5Zm4.5 0a.75.75 0 1 0 0-1.5.75.75 0 0 0 0 1.5Zm-5.69 3.11a.5.5 0 0 1 .7.08 3.5 3.5 0 0 0 5.47 0 .5.5 0 0 1 .78.62 4.5 4.5 0 0 1-7.02 0 .5.5 0 0 1 .07-.7Z"/></svg>