<svg width="24" height="24" viewBox="0 0 24 24" xmlns="http://www.w3.org/2000/svg"><path d="M10.05 2.19a.75.75 0 0 0 .29 1.47 8.74 8.74 0 0 1 3.32 0 .75.75 0 0 0 .3-1.47 10.25 10.25 0 0 0-3.91 0ZM7.28 4.93a.75.75 0 0 0-.84-1.25 10.05 10.05 0 0 0-2.76 2.76.75.75 0 1 0 1.25.84 8.55 8.55 0 0 1 2.35-2.35Zm10.28-1.25a.75.75 0 0 0-.84 1.25 8.55 8.55 0 0 1 2.35 2.35.75.75 0 1 0 1.25-.84 10.05 10.05 0 0 0-2.76-2.76Zm4.25 6.37a.75.75 0 0 0-1.47.29 8.73 8.73 0 0 1 0 3.32.75.75 0 0 0 1.47.3c.25-1.27.25-2.65 0-3.91Zm-18.15.29a.75.75 0 0 0-1.47-.3 10.25 10.25 0 0 0 0 3.91.75.75 0 1 0 1.47-.29 8.74 8.74 0 0 1 0-3.32Zm1.27 6.38a.75.75 0 0 0-1.25.84 10.05 10.05 0 0 0 2.76 2.76.75.75 0 1 0 .84-1.25 8.55 8.55 0 0 1-2.35-2.35Zm15.39.84a.75.75 0 1 0-1.25-.84 8.55 8.55 0 0 1-2.35 2.35.75.75 0 1 0 .84 1.25 10.05 10.05 0 0 0 2.76-2.76Zm-9.98 2.78a.75.75 0 0 0-.3 1.47c1.27.25 2.65.25 3.91 0a.75.75 0 1 0-.29-1.47 8.73 8.73 0 0 1-3.32 0ZM9.5 11a1 1 0 1 0 0-2 1 1 0 0 0 0 2Zm6-1a1 1 0 1 1-2 0 1 1 0 0 1 2 0Zm-6.18 4.26a.75.75 0 1 0-1.14.96 5 5 0 0 0 7.64 0 .75.75 0 0 0-1.14-.96 3.5 3.5 0 0 1-5.36 0Z"/></svg>