<svg width="28" height="28" viewBox="0 0 28 28" xmlns="http://www.w3.org/2000/svg"><path d="M11.66 2.23a.75.75 0 1 0 .29 1.47c1.33-.26 2.78-.26 4.1 0a.75.75 0 0 0 .3-1.47 12.3 12.3 0 0 0-4.7 0Zm9 1.8a.75.75 0 0 0-.83 1.24c1.15.76 2.14 1.75 2.9 2.9a.75.75 0 1 0 1.25-.84c-.88-1.3-2-2.43-3.31-3.3ZM8.17 5.26a.75.75 0 0 0-.83-1.25c-1.3.88-2.43 2-3.3 3.31a.75.75 0 0 0 1.24.84 10.56 10.56 0 0 1 2.9-2.9Zm17.61 6.39a.75.75 0 1 0-1.47.29c.26 1.32.26 2.78 0 4.1a.75.75 0 0 0 1.47.3c.3-1.52.3-3.18 0-4.7Zm-22.07.29a.75.75 0 1 0-1.47-.3 12.3 12.3 0 0 0 0 4.7.75.75 0 0 0 1.47-.3 10.79 10.79 0 0 1 0-4.1Zm20.28 8.72a.75.75 0 1 0-1.25-.84 10.56 10.56 0 0 1-2.9 2.9.75.75 0 1 0 .84 1.25c1.3-.88 2.43-2 3.3-3.31Zm-18.71-.84a.75.75 0 0 0-1.25.84c.88 1.3 2 2.43 3.31 3.3a.75.75 0 1 0 .84-1.24 10.56 10.56 0 0 1-2.9-2.9Zm11.07 5.94a.75.75 0 0 0-.29-1.47c-1.32.26-2.77.26-4.1 0a.75.75 0 0 0-.3 1.47c1.52.3 3.18.3 4.7 0ZM10.75 12.5a1.25 1.25 0 1 0 0-2.5 1.25 1.25 0 0 0 0 2.5Zm7.75-1.25a1.25 1.25 0 1 1-2.5 0 1.25 1.25 0 0 1 2.5 0Zm-8.3 6a.75.75 0 1 0-1.13.99 6.49 6.49 0 0 0 9.86 0 .75.75 0 0 0-1.14-.98 4.99 4.99 0 0 1-7.58 0Z"/></svg>