<svg width="32" height="32" viewBox="0 0 32 32" xmlns="http://www.w3.org/2000/svg"><path d="M13.27 2.27a1 1 0 0 0 .39 1.96c1.54-.3 3.14-.3 4.68 0a1 1 0 0 0 .4-1.96c-1.8-.36-3.67-.36-5.47 0ZM9.33 6.02a1 1 0 0 0-1.1-1.66 14.07 14.07 0 0 0-3.87 3.86 1 1 0 0 0 1.66 1.11c.88-1.3 2-2.43 3.31-3.3Zm14.45-1.66a1 1 0 0 0-1.11 1.66c1.3.88 2.43 2 3.31 3.31a1 1 0 0 0 1.66-1.1 14.07 14.07 0 0 0-3.86-3.87Zm5.95 8.9a1 1 0 0 0-1.96.4c.3 1.54.3 3.14 0 4.68a1 1 0 1 0 1.96.4c.36-1.8.36-3.67 0-5.47Zm-25.5.4a1 1 0 1 0-1.96-.4c-.36 1.8-.36 3.67 0 5.47a1 1 0 1 0 1.96-.39c-.3-1.54-.3-3.14 0-4.68Zm1.8 9a1 1 0 1 0-1.67 1.12 14.07 14.07 0 0 0 3.86 3.86 1 1 0 1 0 1.11-1.66c-1.3-.88-2.43-2-3.3-3.31Zm21.61 1.12a1 1 0 1 0-1.66-1.11c-.88 1.3-2 2.43-3.31 3.31a1 1 0 1 0 1.11 1.66 14.07 14.07 0 0 0 3.86-3.86Zm-13.98 4a1 1 0 1 0-.4 1.95c1.8.36 3.67.36 5.47 0a1 1 0 0 0-.39-1.96c-1.54.3-3.14.3-4.68 0Zm-1.39-8.45a1 1 0 0 0-1.49 1.34 6.99 6.99 0 0 0 10.44 0 1 1 0 0 0-1.5-1.34 4.98 4.98 0 0 1-7.45 0ZM14 13.25a1.75 1.75 0 1 1-3.5 0 1.75 1.75 0 0 1 3.5 0ZM19.75 15a1.75 1.75 0 1 0 0-3.5 1.75 1.75 0 0 0 0 3.5Z"/></svg>