<svg width="48" height="48" viewBox="0 0 48 48" xmlns="http://www.w3.org/2000/svg"><path d="M20.1 4.38a1.25 1.25 0 1 0 .48 2.45c2.25-.44 4.59-.44 6.84 0a1.25 1.25 0 1 0 .48-2.45c-2.57-.5-5.23-.5-7.8 0Zm-5.82 5.07a1.25 1.25 0 1 0-1.4-2.08 20.1 20.1 0 0 0-5.51 5.52 1.25 1.25 0 1 0 2.08 1.39 17.6 17.6 0 0 1 4.83-4.83ZM35.1 7.37a1.25 1.25 0 0 0-1.39 2.08 17.6 17.6 0 0 1 4.83 4.83 1.25 1.25 0 1 0 2.08-1.4 20.1 20.1 0 0 0-5.52-5.51ZM6.83 20.58a1.25 1.25 0 0 0-2.45-.48c-.5 2.57-.5 5.23 0 7.8a1.25 1.25 0 0 0 2.45-.48 17.66 17.66 0 0 1 0-6.84Zm36.79-.48a1.25 1.25 0 0 0-2.45.48c.44 2.25.44 4.59 0 6.84a1.25 1.25 0 0 0 2.45.48c.5-2.57.5-5.23 0-7.8ZM9.45 33.72a1.25 1.25 0 1 0-2.08 1.4 20.1 20.1 0 0 0 5.52 5.51 1.25 1.25 0 0 0 1.39-2.08 17.6 17.6 0 0 1-4.83-4.83Zm31.18 1.4a1.25 1.25 0 1 0-2.08-1.4 17.6 17.6 0 0 1-4.83 4.83 1.25 1.25 0 0 0 1.4 2.08 20.1 20.1 0 0 0 5.51-5.52Zm-20.05 6.05a1.25 1.25 0 1 0-.48 2.45c2.57.5 5.23.5 7.8 0a1.25 1.25 0 1 0-.48-2.45c-2.25.44-4.59.44-6.84 0ZM18.25 22a2.25 2.25 0 1 0 0-4.5 2.25 2.25 0 0 0 0 4.5ZM32 19.75a2.25 2.25 0 1 1-4.5 0 2.25 2.25 0 0 1 4.5 0Zm-14.54 9.68a1.25 1.25 0 1 0-1.92 1.6 10.98 10.98 0 0 0 16.92 0 1.25 1.25 0 1 0-1.92-1.6 8.48 8.48 0 0 1-13.08 0Z"/></svg>