<svg width="24" height="24" viewBox="0 0 24 24" xmlns="http://www.w3.org/2000/svg"><path d="M8.25 22h4.56a6.52 6.52 0 01-1.08-1.5H8.25a.75.75 0 01-.75-.75V4.25c0-.41.34-.75.75-.75h7.5c.41 0 .75.34.75.75v6.83a6.55 6.55 0 011.5-.06V4.25C18 3.01 17 2 15.75 2h-7.5C7.01 2 6 3 6 4.25v15.5C6 20.99 7 22 8.25 22zm3-6.3c.29-1 .8-1.9 1.5-2.64V9.51l.96.96c.27.27.68.29.98.07l.08-.07a.75.75 0 00.07-.98l-.07-.08-2.24-2.24-.04-.04-.06-.05-.07-.04-.06-.03-.1-.04-.06-.01-.1-.01h-.09l-.09.01-.1.02-.1.05-.08.05-.11.09L9.23 9.4a.75.75 0 00.97 1.13l.09-.07.96-.96v6.2zM23 17.5a5.5 5.5 0 11-11 0 5.5 5.5 0 0111 0zm-2.15-2.35a.5.5 0 00-.7 0l-3.65 3.64-1.65-1.64a.5.5 0 00-.7.7l2 2c.2.2.5.2.7 0l4-4a.5.5 0 000-.7z"/></svg>