<svg width="28" height="28" viewBox="0 0 28 28" xmlns="http://www.w3.org/2000/svg"><path d="M13.56 2.14a.75.75 0 01.88 0 20.3 20.3 0 003.9 2.04c1.8.73 3.92 1.32 5.9 1.32.42 0 .76.34.76.75V14c0 3.03-1.7 5.84-3.84 7.95-2.13 2.1-4.83 3.64-7.03 4.03L14 26l-.13-.02c-2.2-.39-4.9-1.92-7.03-4.03C4.7 19.85 3 17.03 3 14V6.25c0-.41.34-.75.75-.75 2 0 4.1-.59 5.91-1.32a20.3 20.3 0 003.9-2.04zM4.5 6.98V14c0 2.47 1.4 4.93 3.4 6.88 1.93 1.92 4.3 3.24 6.1 3.6 1.8-.36 4.17-1.68 6.1-3.6 1.99-1.95 3.4-4.4 3.4-6.88V6.98a18.8 18.8 0 01-5.73-1.4A23.46 23.46 0 0114 3.65c-.84.54-2.19 1.27-3.78 1.91-1.69.69-3.7 1.28-5.72 1.4z"/></svg>