<svg width="32" height="32" viewBox="0 0 32 32" xmlns="http://www.w3.org/2000/svg"><path d="M15.45 2.17a1 1 0 011.1 0A25.23 25.23 0 0028.1 6.5a1 1 0 01.9 1V16c0 3.88-2.12 7.17-4.7 9.55-2.57 2.37-5.74 3.97-8.12 4.41L16 30l-.18-.04c-2.38-.44-5.55-2.04-8.12-4.41C5.12 23.17 3 19.88 3 16V7.5a1 1 0 01.9-1c4.79-.47 8.63-2.39 11.55-4.33zM5 8.39V16c0 3.12 1.71 5.92 4.06 8.08 2.27 2.1 5 3.47 6.94 3.88a16.25 16.25 0 006.94-3.88C25.28 21.92 27 19.12 27 16V8.39a27.2 27.2 0 01-11-4.2A27.2 27.2 0 015 8.4z"/></svg>