<svg width="12" height="12" viewBox="0 0 12 12" xmlns="http://www.w3.org/2000/svg"><path d="M6 1a5 5 0 100 10A5 5 0 006 1zm.5 7.5a.5.5 0 11-1 0 .5.5 0 011 0zM5 4.75a.5.5 0 01-1 0c0-.59.27-1.04.67-1.34C5.05 3.13 5.54 3 6 3c.46 0 .95.12 1.33.41.4.3.67.75.67 1.34 0 .43-.14.76-.37 1-.18.2-.41.34-.58.43L7 6.21c-.19.11-.3.19-.37.29-.06.08-.13.22-.13.5a.5.5 0 01-1 0c0-.47.12-.83.34-1.11.2-.27.47-.43.66-.54l.03-.02c.2-.11.3-.17.37-.25.05-.05.1-.13.1-.33 0-.25-.1-.42-.27-.54A1.25 1.25 0 006 4c-.29 0-.55.08-.73.21a.63.63 0 00-.27.54z"/></svg>