<svg width="16" height="16" viewBox="0 0 16 16" xmlns="http://www.w3.org/2000/svg"><path d="M10.3 2.59 11.4 3.7c.38.37.59.88.59 1.41V10a2 2 0 0 1-2 2H4a2 2 0 0 1-2-2V4a2 2 0 0 1 2-2h4.88c.53 0 1.04.21 1.41.59ZM8 3H6v1h2V3Zm-3 8h4V8H5v3Zm5.7-.3a1 1 0 0 0 .3-.7V5.12a1 1 0 0 0-.3-.7L9.6 3.28A1 1 0 0 0 9 3.02V4a1 1 0 0 1-1 1H6a1 1 0 0 1-1-1V3H4a1 1 0 0 0-1 1v6a1 1 0 0 0 1 1V8a1 1 0 0 1 1-1h4a1 1 0 0 1 1 1v3a1 1 0 0 0 .7-.3ZM14 10V7.12a1.98 1.98 0 0 0-.59-1.41L13 5.3V10a3 3 0 0 1-3 3H4.27A2.04 2.04 0 0 0 6 14h4a4 4 0 0 0 4-4Z"/></svg>