<svg width="24" height="24" viewBox="0 0 24 24" xmlns="http://www.w3.org/2000/svg"><path d="M5.75 3H7v3.25C7 7.49 8 8.5 9.25 8.5h2.5c1.24 0 2.25-1 2.25-2.25V3.27c.37.16.72.39 1.01.68L17.05 6c.6.6.95 1.43.95 2.3v6.96A2.75 2.75 0 0 1 15.25 18H15v-4.75c0-1.24-1-2.25-2.25-2.25h-4.5C7.01 11 6 12 6 13.25V18h-.25A2.75 2.75 0 0 1 3 15.25v-9.5A2.75 2.75 0 0 1 5.75 3ZM7.5 18h6v-4.75a.75.75 0 0 0-.75-.75h-4.5a.75.75 0 0 0-.75.75V18Zm1-15h4v3.25c0 .41-.34.75-.75.75h-2.5a.75.75 0 0 1-.75-.75V3Zm2.25 18c-1.37 0-2.6-.58-3.46-1.5h8.96c1.8 0 3.25-1.45 3.25-3.25V8.44l.55.55c.6.6.95 1.43.95 2.3v4.96A4.75 4.75 0 0 1 16.25 21h-5.5Z"/></svg>