<svg width="20" height="20" viewBox="0 0 20 20" xmlns="http://www.w3.org/2000/svg"><path d="M2 4.5A2.5 2.5 0 014.5 2h11A2.5 2.5 0 0118 4.5v11a2.5 2.5 0 01-2.5 2.5h-11A2.5 2.5 0 012 15.5v-11zM4.5 3C3.67 3 3 3.67 3 4.5v11c0 .83.67 1.5 1.5 1.5h11c.83 0 1.5-.67 1.5-1.5v-11c0-.83-.67-1.5-1.5-1.5h-11zM5 6a1 1 0 011-1h2a1 1 0 011 1v2a1 1 0 01-1 1H6a1 1 0 01-1-1V6zm3 0H6v2h2V6zm-3 6a1 1 0 011-1h2a1 1 0 011 1v2a1 1 0 01-1 1H6a1 1 0 01-1-1v-2zm3 0H6v2h2v-2zm3-6a1 1 0 011-1h2a1 1 0 011 1v2a1 1 0 01-1 1h-2a1 1 0 01-1-1V6zm3 0h-2v2h2V6zm-3 6a1 1 0 011-1h2a1 1 0 011 1v2a1 1 0 01-1 1h-2a1 1 0 01-1-1v-2zm3 0h-2v2h2v-2z"/></svg>