<svg width="28" height="28" viewBox="0 0 28 28" xmlns="http://www.w3.org/2000/svg"><path d="M8.5 6.5a2 2 0 00-2 2V11c0 1.1.9 2 2 2H11a2 2 0 002-2V8.5a2 2 0 00-2-2H8.5zm0 8.5a2 2 0 00-2 2v2.5c0 1.1.9 2 2 2H11a2 2 0 002-2V17a2 2 0 00-2-2H8.5zM17 6.5a2 2 0 00-2 2V11c0 1.1.9 2 2 2h2.5a2 2 0 002-2V8.5a2 2 0 00-2-2H17zm0 8.5a2 2 0 00-2 2v2.5c0 1.1.9 2 2 2h2.5a2 2 0 002-2V17a2 2 0 00-2-2H17zM3 6.75A3.75 3.75 0 016.75 3h14.5A3.75 3.75 0 0125 6.75v14.5A3.75 3.75 0 0121.25 25H6.75A3.75 3.75 0 013 21.25V6.75zM6.75 4.5c-1.24 0-2.25 1-2.25 2.25v14.5c0 1.24 1 2.25 2.25 2.25h14.5c1.24 0 2.25-1 2.25-2.25V6.75c0-1.24-1-2.25-2.25-2.25H6.75z"/></svg>