<svg width="32" height="32" viewBox="0 0 32 32" xmlns="http://www.w3.org/2000/svg"><path d="M7 9.5A2.5 2.5 0 019.5 7h3A2.5 2.5 0 0115 9.5v3a2.5 2.5 0 01-2.5 2.5h-3A2.5 2.5 0 017 12.5v-3zM9.5 9a.5.5 0 00-.5.5v3c0 .28.22.5.5.5h3a.5.5 0 00.5-.5v-3a.5.5 0 00-.5-.5h-3zm0 8A2.5 2.5 0 007 19.5v3A2.5 2.5 0 009.5 25h3a2.5 2.5 0 002.5-2.5v-3a2.5 2.5 0 00-2.5-2.5h-3zM9 19.5c0-.28.22-.5.5-.5h3c.28 0 .5.22.5.5v3a.5.5 0 01-.5.5h-3a.5.5 0 01-.5-.5v-3zm8-10A2.5 2.5 0 0119.5 7h3A2.5 2.5 0 0125 9.5v3a2.5 2.5 0 01-2.5 2.5h-3a2.5 2.5 0 01-2.5-2.5v-3zm2.5-.5a.5.5 0 00-.5.5v3c0 .28.22.5.5.5h3a.5.5 0 00.5-.5v-3a.5.5 0 00-.5-.5h-3zm0 8a2.5 2.5 0 00-2.5 2.5v3a2.5 2.5 0 002.5 2.5h3a2.5 2.5 0 002.5-2.5v-3a2.5 2.5 0 00-2.5-2.5h-3zm-.5 2.5c0-.28.22-.5.5-.5h3c.28 0 .5.22.5.5v3a.5.5 0 01-.5.5h-3a.5.5 0 01-.5-.5v-3zM3 7.5A4.5 4.5 0 017.5 3h17A4.5 4.5 0 0129 7.5v17a4.5 4.5 0 01-4.5 4.5h-17A4.5 4.5 0 013 24.5v-17zM7.5 5A2.5 2.5 0 005 7.5v17A2.5 2.5 0 007.5 27h17a2.5 2.5 0 002.5-2.5v-17A2.5 2.5 0 0024.5 5h-17z"/></svg>