<svg width="20" height="20" viewBox="0 0 20 20" xmlns="http://www.w3.org/2000/svg"><path d="M5 6a1 1 0 011-1h2a1 1 0 011 1v2a1 1 0 01-1 1H6a1 1 0 01-1-1V6zm3 0H6v2h2V6zm-3 6a1 1 0 011-1h2a1 1 0 011 1v2a1 1 0 01-1 1H6a1 1 0 01-1-1v-2zm3 0H6v2h2v-2zm4-7a1 1 0 00-1 1v2a1 1 0 001 1h2a1 1 0 001-1V6a1 1 0 00-1-1h-2zm0 1h2v2h-2V6zm-1 6a1 1 0 011-1h2a1 1 0 011 1v2a1 1 0 01-1 1h-2a1 1 0 01-1-1v-2zm3 0h-2v2h2v-2zM5 2a3 3 0 00-3 3v10a3 3 0 003 3h10a3 3 0 003-3V5a3 3 0 00-3-3H5zM3 5c0-1.1.9-2 2-2h10a2 2 0 012 2v10a2 2 0 01-2 2H5a2 2 0 01-2-2V5z"/></svg>