<svg width="28" height="28" viewBox="0 0 28 28" xmlns="http://www.w3.org/2000/svg"><path d="M6.5 8.5c0-1.1.9-2 2-2H11a2 2 0 012 2V11a2 2 0 01-2 2H8.5a2 2 0 01-2-2V8.5zm2-.5a.5.5 0 00-.5.5V11c0 .28.22.5.5.5H11a.5.5 0 00.5-.5V8.5A.5.5 0 0011 8H8.5zm0 7a2 2 0 00-2 2v2.5c0 1.1.9 2 2 2H11a2 2 0 002-2V17a2 2 0 00-2-2H8.5zM8 17c0-.28.22-.5.5-.5H11c.28 0 .5.22.5.5v2.5a.5.5 0 01-.5.5H8.5a.5.5 0 01-.5-.5V17zm7-8.5c0-1.1.9-2 2-2h2.5a2 2 0 012 2V11a2 2 0 01-2 2H17a2 2 0 01-2-2V8.5zm2-.5a.5.5 0 00-.5.5V11c0 .28.22.5.5.5h2.5a.5.5 0 00.5-.5V8.5a.5.5 0 00-.5-.5H17zm0 7a2 2 0 00-2 2v2.5c0 1.1.9 2 2 2h2.5a2 2 0 002-2V17a2 2 0 00-2-2H17zm-.5 2c0-.28.22-.5.5-.5h2.5c.28 0 .5.22.5.5v2.5a.5.5 0 01-.5.5H17a.5.5 0 01-.5-.5V17zM3 6.75A3.75 3.75 0 016.75 3h14.5A3.75 3.75 0 0125 6.75v14.5A3.75 3.75 0 0121.25 25H6.75A3.75 3.75 0 013 21.25V6.75zM6.75 4.5c-1.24 0-2.25 1-2.25 2.25v14.5c0 1.24 1 2.25 2.25 2.25h14.5c1.24 0 2.25-1 2.25-2.25V6.75c0-1.24-1-2.25-2.25-2.25H6.75z"/></svg>