<svg width="28" height="28" viewBox="0 0 28 28" xmlns="http://www.w3.org/2000/svg"><path d="M19.29 3.15a3.93 3.93 0 1 1 5.56 5.56l-4.36 4.36a7.57 7.57 0 0 0-2.14.02l5.44-5.44a2.43 2.43 0 0 0-3.44-3.44L5.56 19c-.26.26-.44.58-.54.93l-1.19 4.24 4.24-1.19c.35-.1.67-.28.93-.54l3.09-3.09a7.56 7.56 0 0 0-.02 2.15l-2 2c-.45.44-1 .76-1.6.93l-5.52 1.54a.75.75 0 0 1-.92-.92l1.54-5.53c.17-.6.5-1.14.93-1.58L19.3 3.15ZM19.5 27a6.5 6.5 0 1 0 0-13 6.5 6.5 0 0 0 0 13Zm0-1.5a4.98 4.98 0 0 1-2.97-.97l7-7a5 5 0 0 1-4.03 7.97Zm2.97-9.03-7 7a5 5 0 0 1 7-7Z"/></svg>