<svg width="16" height="16" viewBox="0 0 16 16" xmlns="http://www.w3.org/2000/svg"><path d="M9.09 10.5a.5.5 0 0 0-.09-1H6l-.09.02a.5.5 0 0 0 .09.99h3l.09-.01ZM9.5 7a.5.5 0 0 1-.41.5H6a.5.5 0 0 1-.09-1H9c.28 0 .5.22.5.5Zm-.41-2.52A.5.5 0 0 0 9 3.5H6l-.09.01a.5.5 0 0 0 .09 1h3l.09-.02ZM4.71 1C3.77 1 3 1.77 3 2.71v8.58c0 .94.77 1.71 1.71 1.71h5.58c.94 0 1.71-.77 1.71-1.71V2.7C12 1.77 11.23 1 10.29 1H4.7Zm0 1h5.58c.39 0 .71.32.71.71v8.58c0 .4-.32.71-.71.71H4.7a.71.71 0 0 1-.71-.71V2.7c0-.4.32-.71.71-.71ZM14 6a1 1 0 0 0-1-1v6a3 3 0 0 1-3 3H5a1 1 0 0 0 1 1h4.21c2.1 0 3.79-1.7 3.79-3.79V6Z"/></svg>