<svg width="20" height="20" viewBox="0 0 20 20" xmlns="http://www.w3.org/2000/svg"><path d="M12 5.5a.5.5 0 0 1-.41.5H7.5a.5.5 0 0 1-.09-1h4.09c.28 0 .5.22.5.5ZM12 9a.5.5 0 0 1-.41.5H7.5a.5.5 0 0 1-.09-1h4.09c.28 0 .5.22.5.5Zm0 3.5a.5.5 0 0 1-.41.5H7.5a.5.5 0 0 1-.09-1h4.09c.28 0 .5.22.5.5ZM6 2a2 2 0 0 0-2 2v10c0 1.1.9 2 2 2h7a2 2 0 0 0 2-2V4a2 2 0 0 0-2-2H6ZM5 14V3.89A1 1 0 0 1 6 3h7a1 1 0 0 1 1 1v10a1 1 0 0 1-1 1H6a1 1 0 0 1-1-1Zm11-6a1 1 0 0 1 1 1v5.06A3.94 3.94 0 0 1 13.06 18H7a1 1 0 0 1-1-1h7a3 3 0 0 0 3-3V8Z"/></svg>