<svg width="24" height="24" viewBox="0 0 24 24" xmlns="http://www.w3.org/2000/svg"><path d="M6.25 2C5.01 2 4 3 4 4.25v13c0 1.24 1 2.25 2.25 2.25h9c1.24 0 2.25-1 2.25-2.25v-13c0-1.24-1-2.25-2.25-2.25h-9ZM7 6.25c0-.41.33-.75.75-.75h6a.75.75 0 0 1 0 1.5h-6A.75.75 0 0 1 7 6.25Zm.75 8.25h6a.75.75 0 0 1 0 1.5h-6a.75.75 0 0 1 0-1.5ZM7 10.75c0-.41.33-.75.75-.75h6a.75.75 0 0 1 0 1.5h-6a.75.75 0 0 1-.75-.75ZM8.75 22c-.98 0-1.81-.63-2.12-1.5h8.62c1.8 0 3.25-1.46 3.25-3.25V8.94l.84.84c.42.42.66 1 .66 1.59v5.88A4.75 4.75 0 0 1 15.25 22h-6.5Z"/></svg>