<svg width="16" height="16" viewBox="0 0 16 16" xmlns="http://www.w3.org/2000/svg"><path d="M15 5.5a4.5 4.5 0 1 1-9 0 4.5 4.5 0 0 1 9 0Zm-6.85-.35A.5.5 0 0 0 8 5.5a.5.5 0 0 0 .15.35l2 2a.5.5 0 0 0 .7-.7L9.71 6h2.79a.5.5 0 0 0 0-1H9.7l1.15-1.15a.5.5 0 0 0-.7-.7l-2 2ZM3.5 3h2.1c.18-.36.4-.7.66-1H3.5A2.5 2.5 0 0 0 1 4.5v5A2.5 2.5 0 0 0 3.5 12H4v1.94c0 .84 1 1.3 1.63.74L8.69 12h3.81A2.5 2.5 0 0 0 15 9.5v-.84c-.29.41-.63.78-1.02 1.1A1.5 1.5 0 0 1 12.5 11H8.31L5 13.9V11H3.5A1.5 1.5 0 0 1 2 9.5v-5C2 3.67 2.67 3 3.5 3Z"/></svg>