<svg width="24" height="24" viewBox="0 0 24 24" xmlns="http://www.w3.org/2000/svg"><path d="M2 6.25C2 5.01 3 4 4.25 4h15.5C20.99 4 22 5 22 6.25v7.13a4.73 4.73 0 0 0-1.5-.71V6.25a.75.75 0 0 0-.75-.75H4.25a.75.75 0 0 0-.75.75v11.5c0 .41.34.75.75.75h6.92c.14.55.39 1.05.7 1.5H4.26C3.01 20 2 19 2 17.75V6.25Zm21 11a3.75 3.75 0 0 0-3.75-3.75h-.1a.75.75 0 0 0 .1 1.5h.15a2.25 2.25 0 0 1-.15 4.5l-.1.01a.75.75 0 0 0 .1 1.5V21h.2A3.75 3.75 0 0 0 23 17.24Zm-6.5-3a.75.75 0 0 0-.75-.75h-.2a3.75 3.75 0 0 0 .2 7.5h.1a.75.75 0 0 0-.1-1.5h-.15a2.25 2.25 0 0 1 .15-4.5h.1a.75.75 0 0 0 .65-.75Zm3.5 3a.75.75 0 0 0-.75-.75h-3.6a.75.75 0 0 0 .1 1.5h3.6a.75.75 0 0 0 .65-.75Z"/></svg>