<svg width="28" height="28" viewBox="0 0 28 28" xmlns="http://www.w3.org/2000/svg"><path d="M6.79 8.8a2.69 2.69 0 0 1 3.83 0l.38.39.37-.38a2.7 2.7 0 0 1 3.83.01 2.76 2.76 0 0 1 .01 3.87l-3.9 3.94a.41.41 0 0 1-.59 0L6.8 12.66a2.75 2.75 0 0 1-.01-3.86ZM2 12c0 1.45.34 2.82.95 4.03l-.9 3.4c-.26.92.6 1.77 1.52 1.52l3.4-.9A9 9 0 1 0 2 12Zm9-7.5a7.5 7.5 0 1 1-3.6 14.09.75.75 0 0 0-.54-.07l-3.26.87.88-3.25a.75.75 0 0 0-.07-.55A7.5 7.5 0 0 1 11 4.5Zm-.73 17.47a8.98 8.98 0 0 0 10.77 2.07l3.39.91c.92.25 1.77-.6 1.53-1.53l-.91-3.39a9 9 0 0 0-5.12-12.55c.31.63.56 1.3.74 1.98a7.5 7.5 0 0 1 2.92 10.13.75.75 0 0 0-.07.55l.88 3.25-3.26-.87a.75.75 0 0 0-.55.07 7.46 7.46 0 0 1-8.21-.68 10.09 10.09 0 0 1-2.11.06Z"/></svg>