<svg width="16" height="16" viewBox="0 0 16 16" xmlns="http://www.w3.org/2000/svg"><path d="M9 14a4.98 4.98 0 0 1-3.14-1.1 6.02 6.02 0 0 0 2.24 0 4 4 0 0 0 2.72-.34.5.5 0 0 1 .32-.04l1.72.34-.34-1.72a.5.5 0 0 1 .04-.32 3.98 3.98 0 0 0 .34-2.72 6.04 6.04 0 0 0 0-2.24 4.98 4.98 0 0 1 .63 5.25l.46 2.3a.5.5 0 0 1-.59.58l-2.29-.46c-.64.3-1.36.47-2.11.47ZM2 7a5 5 0 1 1 2.89 4.53l-2.3.46a.5.5 0 0 1-.58-.59l.46-2.29A4.98 4.98 0 0 1 2 7Zm2.9-1.6a1.35 1.35 0 0 0 0 1.9l1.96 1.97a.2.2 0 0 0 .3 0L9.1 7.32A1.35 1.35 0 0 0 7.19 5.4l-.2.19-.18-.2a1.35 1.35 0 0 0-1.92 0Z"/></svg>