<svg width="24" height="24" viewBox="0 0 24 24" xmlns="http://www.w3.org/2000/svg"><path d="M6.34 8.34c.8-.79 2.08-.79 2.87 0l.29.3.28-.29a2.03 2.03 0 0 1 2.88 2.88l-2.93 2.93a.31.31 0 0 1-.44 0L6.35 11.2c-.8-.8-.8-2.08 0-2.87ZM2.06 10.5a7.5 7.5 0 1 1 4.41 6.84l-2.93.7a1.25 1.25 0 0 1-1.5-1.53l.72-2.84a7.47 7.47 0 0 1-.7-3.17Zm7.5-6a6 6 0 0 0-5.33 8.75l.13.25-.07.28-.7 2.7 2.8-.66.26-.07.24.12A6 6 0 1 0 9.56 4.5ZM9.46 19a7.47 7.47 0 0 0 8.19 1.34c1.04.24 2.19.48 2.91.64.9.18 1.67-.62 1.47-1.5-.16-.7-.42-1.8-.67-2.8a7.5 7.5 0 0 0-4.34-10.26c.35.63.62 1.31.8 2.04a6 6 0 0 1 2.08 7.79l-.13.25.07.28c.23.9.46 1.9.64 2.65l-2.74-.61-.26-.07-.25.12a5.97 5.97 0 0 1-5.59-.13 8.52 8.52 0 0 1-2.18.26Z"/></svg>