<svg width="32" height="32" viewBox="0 0 32 32" xmlns="http://www.w3.org/2000/svg"><path d="M12.5 3a10.5 10.5 0 0 0-9.4 15.19L2.05 22.1a1.5 1.5 0 0 0 1.84 1.83L7.8 22.9A10.5 10.5 0 1 0 12.5 3ZM5.05 17.59a8.5 8.5 0 1 1 3.36 3.36 1 1 0 0 0-.75-.09l-3.45.93.93-3.46a1 1 0 0 0-.1-.74Zm9.4 7.75a12.08 12.08 0 0 1-2.8.13 10.47 10.47 0 0 0 12.55 2.42l3.91 1.05a1.5 1.5 0 0 0 1.84-1.83l-1.05-3.92A10.44 10.44 0 0 0 30 18.5c0-4.36-2.66-8.1-6.45-9.7.36.86.63 1.77.79 2.7a8.5 8.5 0 0 1 2.61 11.09 1 1 0 0 0-.09.74l.93 3.46-3.45-.93a1 1 0 0 0-.75.1 8.46 8.46 0 0 1-9.14-.62Zm-2.37-14.96a2.96 2.96 0 1 0-4.2 4.19l4.31 4.3c.18.17.47.17.65 0l4.3-4.28a2.99 2.99 0 0 0-4.23-4.2l-.41.4-.42-.41Z"/></svg>