<svg width="24" height="24" viewBox="0 0 24 24" xmlns="http://www.w3.org/2000/svg"><path d="M21.7 3.3a1 1 0 0 0-1.4 0L19 4.58l-.3-.3a1 1 0 1 0-1.4 1.42l1 1a1 1 0 0 0 1.4 0l2-2a1 1 0 0 0 0-1.42ZM14 17H2.88A1 1 0 0 0 3 19h11.12a1 1 0 0 0-.12-2Zm0-6H2.88A1 1 0 0 0 3 13h11.12a1 1 0 0 0-.12-2Zm0-6H2.88A1 1 0 0 0 3 7h11.12A1 1 0 0 0 14 5Zm7.7 11.3a1 1 0 0 0-1.4 0L19 17.58l-.3-.3a1 1 0 0 0-1.4 1.42l1 1a1 1 0 0 0 1.4 0l2-2a1 1 0 0 0 0-1.42Zm-1.4-6.5a1 1 0 1 1 1.4 1.4l-2 2a1 1 0 0 1-1.4 0l-1-1a1 1 0 0 1 1.4-1.4l.3.29 1.3-1.3Z"/></svg>