<svg width="20" height="20" viewBox="0 0 20 20" xmlns="http://www.w3.org/2000/svg"><path d="M16 3a2 2 0 0 1 2 2v8a2 2 0 0 1-2 2H8.5v-.67c.09-.1.17-.22.24-.33H16a1 1 0 0 0 1-1V5a1 1 0 0 0-1-1H4a1 1 0 0 0-1 1v2.47c-.36.18-.7.4-1 .68V5c0-1.1.9-2 2-2h12ZM1.5 11.5a3.5 3.5 0 1 0 7 0 3.5 3.5 0 0 0-7 0ZM5 16c-.93 0-1.78-.28-2.5-.76V18c0 .41.47.65.8.4l1.4-1.05a.5.5 0 0 1 .6 0l1.4 1.05c.33.25.8.01.8-.4v-2.76c-.72.48-1.57.76-2.5.76Zm10-9.5a.5.5 0 0 0-.5-.5h-9a.5.5 0 0 0 0 1h9a.5.5 0 0 0 .5-.5Zm-.5 4.5a.5.5 0 0 1 0 1h-4a.5.5 0 0 1 0-1h4Z"/></svg>