<svg width="24" height="24" viewBox="0 0 24 24" xmlns="http://www.w3.org/2000/svg"><path d="M6 10a4 4 0 0 0-3 6.65v4.6c0 .57.6.92 1.09.67l.09-.06L6 20.6l1.82 1.27a.75.75 0 0 0 1.17-.5v-.11l.01-4.6A4 4 0 0 0 6 10Zm-1.5 7.71a3.99 3.99 0 0 0 3 0v2.1l-1.07-.75a.75.75 0 0 0-.76-.06l-.1.06-1.07.75v-2.1Zm.25-14.7a2.75 2.75 0 0 0-2.74 2.58L2 5.75V11c.4-.54.91-1 1.5-1.33V5.75c0-.64.5-1.18 1.12-1.24h14.63c.65 0 1.18.49 1.24 1.12l.01.12v9.5c0 .65-.5 1.18-1.12 1.25h-9.05l-.13.2-.13.2-.07.1v1h9.25A2.75 2.75 0 0 0 22 15.42V5.75a2.75 2.75 0 0 0-2.58-2.74H4.75ZM6 11.5a2.5 2.5 0 1 1 0 5 2.5 2.5 0 0 1 0-5Zm6.75 1a.75.75 0 0 0-.1 1.5h4.6a.75.75 0 0 0 .1-1.5h-4.6Zm-6-5.5a.75.75 0 0 0-.1 1.5h10.6a.75.75 0 0 0 .1-1.5H6.75Z"/></svg>