<svg width="24" height="24" viewBox="0 0 24 24" xmlns="http://www.w3.org/2000/svg"><path d="M2 5.75A2.75 2.75 0 0 1 4.75 3h14.5A2.75 2.75 0 0 1 22 5.75v9.5A2.75 2.75 0 0 1 19.25 18H10v-1a5 5 0 0 0 .33-.5h8.92c.69 0 1.25-.56 1.25-1.25v-9.5c0-.69-.56-1.25-1.25-1.25H4.75c-.69 0-1.25.56-1.25 1.25v3.92c-.59.34-1.1.8-1.5 1.33V5.75ZM6.75 7a.75.75 0 0 0 0 1.5h10.5a.75.75 0 0 0 0-1.5H6.75Zm6 5a.75.75 0 0 0 0 1.5h4.5a.75.75 0 0 0 0-1.5h-4.5ZM6 10a4 4 0 1 0 0 8 4 4 0 0 0 0-8Zm3 8a4.98 4.98 0 0 1-6 0v3.25c0 .57.6.92 1.09.67l.09-.06L6 20.6l1.82 1.27a.75.75 0 0 0 1.17-.5v-.11L9 18Z"/></svg>