<svg width="20" height="20" viewBox="0 0 20 20" xmlns="http://www.w3.org/2000/svg"><path d="M10 2.7a.75.75 0 0 1-.67.83 6.5 6.5 0 1 0 7.14 7.14.75.75 0 1 1 1.5.16 8 8 0 1 1-8.8-8.8c.42-.04.79.26.83.68Zm1.02-.06c.1-.4.5-.65.9-.55.38.09.75.2 1.1.35a.75.75 0 0 1-.55 1.39 6.55 6.55 0 0 0-.9-.29.75.75 0 0 1-.55-.9Zm6.54 4.33a.75.75 0 0 0-1.39.56c.12.29.21.59.28.9a.75.75 0 1 0 1.46-.35c-.09-.38-.2-.75-.35-1.1ZM14.3 3.93a.75.75 0 0 1 1.06-.08c.3.27.6.56.86.87a.75.75 0 0 1-1.15.97 6.65 6.65 0 0 0-.7-.7.75.75 0 0 1-.07-1.06ZM10 5.75a.75.75 0 0 0-1.5 0v5c0 .41.34.75.75.75h3a.75.75 0 1 0 0-1.5H10V5.75Z"/></svg>