<svg width="24" height="24" viewBox="0 0 24 24" xmlns="http://www.w3.org/2000/svg"><path d="M11.1 4.05a1 1 0 10-.21-1.99 10 10 0 1011.05 11.05 1 1 0 00-1.99-.22 8 8 0 11-8.84-8.84zm3.67-1.66a1 1 0 00-.54 1.93c.28.08.57.17.84.29a1 1 0 00.76-1.86c-.35-.14-.7-.26-1.06-.36zm2.58 2.3a1 1 0 011.41-.06l.61.6A1 1 0 0117.9 6.6a7.94 7.94 0 00-.49-.49 1 1 0 01-.06-1.4zM11 6a1 1 0 011 1v5h3a1 1 0 110 2h-4a1 1 0 01-1-1V7a1 1 0 011-1zm8.94 1.62a1 1 0 011.3.55 9.86 9.86 0 01.37 1.06 1 1 0 11-1.93.54 7.9 7.9 0 00-.29-.84 1 1 0 01.55-1.3z"/></svg>