<svg width="24" height="24" viewBox="0 0 24 24" xmlns="http://www.w3.org/2000/svg"><path d="M3 5.75A2.75 2.75 0 015.75 3h12.5A2.75 2.75 0 0121 5.75v4.99a5 5 0 01-1.5-.9V5.75c0-.69-.56-1.25-1.25-1.25H5.75c-.69 0-1.25.56-1.25 1.25v12.5c0 .69.56 1.25 1.25 1.25h7.24a6.67 6.67 0 001.2 1.5H5.74A2.75 2.75 0 013 18.25V5.75zm15.35 4.4A5.71 5.71 0 0022.5 12a.5.5 0 01.5.41v3.09c0 3.22-1.64 5.4-4.84 6.47a.5.5 0 01-.32 0c-3.1-1.03-4.74-3.12-4.84-6.18V12.5c0-.28.22-.5.5-.5 1.53 0 2.9-.61 4.15-1.85.2-.2.51-.2.7 0zm-2.38 3.69l-.07.06-.06.07a.5.5 0 000 .56l.06.07 1.4 1.4-1.4 1.4-.06.07a.5.5 0 000 .56l.06.07.07.06c.17.12.4.12.56 0l.07-.06 1.4-1.4 1.4 1.4.07.06c.17.12.4.12.56 0l.07-.06.06-.07a.5.5 0 000-.56l-.06-.07-1.4-1.4 1.4-1.4.06-.07a.5.5 0 000-.56l-.06-.07-.07-.06a.5.5 0 00-.56 0l-.07.06-1.4 1.4-1.4-1.4-.07-.06a.5.5 0 00-.49-.04l-.07.04z"/></svg>