<svg width="20" height="20" viewBox="0 0 20 20" xmlns="http://www.w3.org/2000/svg"><path d="M7 3a3 3 0 0 0-3 3v6a3 3 0 0 0 1.34 2.5A3 3 0 0 0 4 17a.5.5 0 0 0 1 0c0-1.1.9-2 2-2a.5.5 0 0 0 0-1 2 2 0 0 1-1.02-.28l3.53-3.52a.7.7 0 0 1 .98 0l3.53 3.52A2 2 0 0 1 13 14a.5.5 0 0 0 0 1 2 2 0 0 1 2 2 .5.5 0 0 0 1 0 3 3 0 0 0-1.34-2.5A3 3 0 0 0 16 12V6a3 3 0 0 0-3-3H7Zm1.8 6.5-3.52 3.52A2 2 0 0 1 5 12V6c0-1.1.9-2 2-2h6a2 2 0 0 1 2 2v6a2 2 0 0 1-.28 1.02L11.2 9.49a1.7 1.7 0 0 0-2.4 0Zm.7 4.5a.5.5 0 0 0 0 1h1a.5.5 0 0 0 0-1h-1ZM13 7a1 1 0 1 1-2 0 1 1 0 0 1 2 0Z"/></svg>