<svg width="24" height="24" viewBox="0 0 24 24" xmlns="http://www.w3.org/2000/svg"><path d="M2 9.25C2 5.25 5.25 2 9.25 2h3.5c1.35 0 2.51.83 3 2h-1.78c-.31-.3-.74-.5-1.22-.5h-3.5A5.75 5.75 0 003.5 9.25v3.5c0 .48.2.9.5 1.22v1.78a3.25 3.25 0 01-2-3v-3.5zm3 1C5 7.35 7.35 5 10.25 5h5.5c1.35 0 2.51.83 3 2h-1.78c-.31-.3-.74-.5-1.22-.5h-5.5a3.75 3.75 0 00-3.75 3.75v5.5c0 .48.2.9.5 1.22v1.78a3.25 3.25 0 01-2-3v-5.5zM11.25 8A3.25 3.25 0 008 11.25v7.5C8 20.55 9.46 22 11.25 22h7.5c1.8 0 3.25-1.46 3.25-3.25v-7.5C22 9.45 20.54 8 18.75 8h-7.5zM9.5 11.25c0-.97.78-1.75 1.75-1.75h7.5c.97 0 1.75.78 1.75 1.75v7.5c0 .97-.78 1.75-1.75 1.75h-7.5c-.97 0-1.75-.78-1.75-1.75v-7.5z"/></svg>