<svg width="24" height="24" viewBox="0 0 24 24" xmlns="http://www.w3.org/2000/svg"><path d="M8.5 3.5a5 5 0 0 0-.23 10c-.13.47-.22.97-.25 1.48a6.5 6.5 0 1 1 6.96-6.96c-.5.03-1 .12-1.49.25A5 5 0 0 0 8.5 3.5Zm5.78 9.73a.75.75 0 1 0-1.06 1.07l1.22 1.2-1.22 1.22a.75.75 0 1 0 1.06 1.06l1.22-1.22 1.21 1.22a.75.75 0 0 0 1.07-1.06l-1.22-1.22 1.21-1.2a.75.75 0 0 0-1.05-1.07l-1.22 1.21-1.22-1.2ZM15.5 9a6.5 6.5 0 1 0 0 13 6.5 6.5 0 0 0 0-13Zm-5 6.5a5 5 0 1 1 10 0 5 5 0 0 1-10 0Zm.78-8.78c.3.3.3.77 0 1.06l-3 3a.75.75 0 0 1-1.06 0l-1.5-1.5a.75.75 0 0 1 1.06-1.06l.97.97 2.47-2.47c.3-.3.77-.3 1.06 0Z"/></svg>