<svg width="24" height="24" viewBox="0 0 24 24" xmlns="http://www.w3.org/2000/svg"><path d="M12.75 4H14v6c0 1.1.9 2 2 2h6v6a2 2 0 01-2 2h-7.25a.75.75 0 01-.75-.75V4.75c0-.41.34-.75.75-.75zm8.74 6.43l.07.07H16a.5.5 0 01-.5-.5V4.44l.07.07 5.92 5.92zM3.5 10.25a.75.75 0 00-1.5 0v3.5a.75.75 0 001.5 0v-3.5zM7 4.75c0-.41.34-.75.75-.75h2a.75.75 0 010 1.5h-2A.75.75 0 017 4.75zm.75 13.75a.75.75 0 000 1.5h2a.75.75 0 000-1.5h-2zM2 6c0-1.1.9-2 2-2h.75a.75.75 0 010 1.5H4a.5.5 0 00-.5.5v1.25a.75.75 0 01-1.5 0V6zm2 14a2 2 0 01-2-2v-1.25a.75.75 0 011.5 0V18c0 .28.22.5.5.5h.75a.75.75 0 010 1.5H4z"/></svg>