<svg width="20" height="20" viewBox="0 0 20 20" xmlns="http://www.w3.org/2000/svg"><path d="M3 10a7 7 0 1 1 14 0 7 7 0 0 1-14 0Zm7-8a8 8 0 1 0 0 16 8 8 0 0 0 0-16ZM8.4 7.3a.5.5 0 0 1-.8-.6 1.75 1.75 0 0 1 .18-.2c.1-.11.26-.26.46-.4.4-.3 1-.6 1.76-.6A2.5 2.5 0 0 1 12.5 8c0 .79-.33 1.35-.78 1.78-.35.34-.8.62-1.22.87l-.23.15c-.5.3-.93.61-1.25 1.02-.23.3-.41.68-.49 1.18H12a.5.5 0 0 1 0 1H8a.5.5 0 0 1-.5-.5c0-.98.28-1.72.73-2.29.43-.56 1-.94 1.5-1.26l.27-.17c.42-.25.76-.46 1.03-.72.3-.28.47-.6.47-1.06 0-.83-.67-1.5-1.5-1.5a2 2 0 0 0-1.17.4 2.47 2.47 0 0 0-.43.4Z"/></svg>