<svg width="32" height="32" viewBox="0 0 32 32" xmlns="http://www.w3.org/2000/svg"><path d="M4 16a12 12 0 1 1 24 0 12 12 0 0 1-24 0ZM16 2a14 14 0 1 0 0 28 14 14 0 0 0 0-28Zm-1.62 17.16a3.98 3.98 0 0 0-.8 1.84h5.92a1 1 0 1 1 0 2h-7a1 1 0 0 1-1-1c0-1.74.5-3.05 1.3-4.07a9.58 9.58 0 0 1 2.68-2.2l.48-.28c.72-.43 1.3-.78 1.76-1.21.5-.46.78-.97.78-1.74A2.5 2.5 0 0 0 16 10c-.82 0-1.49.33-1.98.68a4.19 4.19 0 0 0-.72.67 1 1 0 0 1-1.6-1.2 2.83 2.83 0 0 1 .32-.36c.19-.2.46-.46.82-.72A5.36 5.36 0 0 1 16 8a4.5 4.5 0 0 1 4.5 4.5 4.2 4.2 0 0 1-1.4 3.2c-.64.6-1.45 1.08-2.18 1.5l-.4.25a7.67 7.67 0 0 0-2.14 1.71Z"/></svg>