<svg width="16" height="16" viewBox="0 0 16 16" xmlns="http://www.w3.org/2000/svg"><path d="M8 7a1 1 0 1 1 2 0 1 1 0 0 1-2 0ZM2 4.5A2.5 2.5 0 0 1 4.5 2h7A2.5 2.5 0 0 1 14 4.5v7a2.5 2.5 0 0 1-2.5 2.5h-7A2.5 2.5 0 0 1 2 11.5v-7ZM3 5v6h1V5H3Zm2-1h6V3H5v1Zm-1-.91a1.5 1.5 0 0 0-.91.91H4v-.91Zm8 0V4h.91a1.5 1.5 0 0 0-.91-.91ZM13 5h-1v6h1V5Zm-.09 7H12v.91c.43-.15.76-.48.91-.91ZM11 13v-1H5v1h6Zm-7-.09V12h-.91c.15.43.48.76.91.91ZM5 5v6h.3l1.5-1.5a1.7 1.7 0 0 1 2.4 0l1.5 1.5h.3V5H5Zm4.29 6-.8-.8a.7.7 0 0 0-.98 0l-.8.8h2.58Z"/></svg>