<svg width="28" height="28" viewBox="0 0 28 28" xmlns="http://www.w3.org/2000/svg"><path d="M15.5 11a1.5 1.5 0 1 1 3 0 1.5 1.5 0 0 1-3 0ZM3 6.75A3.75 3.75 0 0 1 6.75 3h14.5A3.75 3.75 0 0 1 25 6.75v14.5A3.75 3.75 0 0 1 21.25 25H6.75A3.75 3.75 0 0 1 3 21.25V6.75Zm1.51-.25H6.5V4.51A2.25 2.25 0 0 0 4.51 6.5ZM8 4.5v2h12v-2H8Zm13.5.01V6.5h1.99a2.25 2.25 0 0 0-1.99-1.99Zm2 3.49h-2v12h2V8Zm-.01 13.5H21.5v1.99a2.25 2.25 0 0 0 1.99-1.99Zm-3.49 2v-2H8v2h12Zm-13.5-.01V21.5H4.51a2.25 2.25 0 0 0 1.99 1.99ZM4.5 20h2V8h-2v12Zm3.5-.83 4.59-4.58a2 2 0 0 1 2.82 0L20 19.17V8H8v11.17Zm10.7.83-4.35-4.35a.5.5 0 0 0-.7 0L9.29 20h9.42Z"/></svg>