<svg width="24" height="24" viewBox="0 0 24 24" xmlns="http://www.w3.org/2000/svg"><path d="M14 9a1 1 0 1 0 0 2 1 1 0 0 0 0-2ZM3 6.25C3 4.45 4.46 3 6.25 3h11.5C19.55 3 21 4.46 21 6.25v11.5c0 1.8-1.46 3.25-3.25 3.25H6.25A3.25 3.25 0 0 1 3 17.75V6.25ZM6.25 4.5c-.97 0-1.75.78-1.75 1.75v.25h2v-2h-.25ZM4.5 16h2V8h-2v8ZM16 6.5v-2H8v2h8Zm1.5 0h2v-.25c0-.97-.78-1.75-1.75-1.75h-.25v2Zm0 1.5v8h2V8h-2Zm0 9.5v2h.25c.97 0 1.75-.78 1.75-1.75v-.25h-2Zm-1.5 0H8v2h8v-2Zm-9.5 0h-2v.25c0 .97.78 1.75 1.75 1.75h.25v-2ZM8 15.07l2.4-2.41c.89-.88 2.31-.88 3.2 0l2.4 2.4V8H8v7.07Zm6.81.93-2.28-2.28a.75.75 0 0 0-1.06 0L9.19 16h5.62Z"/></svg>