<svg width="20" height="20" viewBox="0 0 20 20" xmlns="http://www.w3.org/2000/svg"><path d="M8.5 3a.5.5 0 0 0 0 1h3a.5.5 0 0 0 0-1h-3ZM4.05 5.54a2 2 0 0 1 1.55-1.5.5.5 0 0 0 .4-.59.5.5 0 0 0-.66-.38 3 3 0 0 0-2.29 2.34.5.5 0 0 0 .4.6.5.5 0 0 0 .6-.47ZM14.6 3.05a3 3 0 0 1 2.36 2.36.5.5 0 0 1-.4.6.5.5 0 0 1-.6-.47 2 2 0 0 0-1.55-1.5.5.5 0 0 1-.4-.59.5.5 0 0 1 .6-.4ZM16.5 12a.5.5 0 0 1-.5-.5v-3a.5.5 0 0 1 1 0v3a.5.5 0 0 1-.5.5ZM3 11.5a.5.5 0 0 0 1 0v-3a.5.5 0 0 0-1 0v3Zm0 5c0-.28.22-.5.5-.5h13a.5.5 0 0 1 0 1h-13a.5.5 0 0 1-.5-.5Zm.5-2.5a.5.5 0 0 0 0 1h13a.5.5 0 0 0 0-1h-13Z"/></svg>