<svg width="24" height="24" viewBox="0 0 24 24" xmlns="http://www.w3.org/2000/svg"><path d="M18.25 4A3.75 3.75 0 0 1 22 7.75v8.5A3.75 3.75 0 0 1 18.25 20H5.75A3.75 3.75 0 0 1 2 16.25v-8.5A3.75 3.75 0 0 1 5.75 4h12.5Zm0 9c-.38 0-.7.28-.74.65l-.01.1V15a.5.5 0 0 1-.41.5h-1.34a.75.75 0 0 0-.1 1.5H17a2 2 0 0 0 2-1.85v-1.4a.75.75 0 0 0-.75-.75Zm-12.5 0c-.38 0-.7.28-.74.65l-.01.1V15a2 2 0 0 0 1.85 2h1.4a.75.75 0 0 0 .1-1.5H7a.5.5 0 0 1-.5-.41v-1.34a.75.75 0 0 0-.75-.75Zm2.5-6h-1.4a2 2 0 0 0-1.84 1.84L5 9v1.35a.75.75 0 0 0 1.5 0V8.91a.5.5 0 0 1 .41-.4L7 8.5h1.35a.75.75 0 0 0 0-1.5h-.1ZM17 7h-1.25a.75.75 0 0 0-.1 1.5H17a.5.5 0 0 1 .5.41v1.34a.75.75 0 0 0 1.5.1V9a2 2 0 0 0-1.85-2H17Z"/></svg>