<svg width="28" height="28" viewBox="0 0 28 28" xmlns="http://www.w3.org/2000/svg"><path d="M17.75 11c.97 0 1.75.78 1.75 1.75v.32a7.5 7.5 0 00-5.02 11.9A5.5 5.5 0 018.5 19.5v-6.74c0-.97.79-1.75 1.75-1.75h7.5zm2.75 2c2.18 0 4.13.93 5.5 2.4v-2.65c0-.97-.78-1.75-1.75-1.75h-4.38c.4.47.63 1.08.63 1.75V13zM3.75 11h4.38c-.35.42-.57.95-.62 1.53v6.97c0 1.13.28 2.2.8 3.13A4.49 4.49 0 012 18.5v-5.75c0-.97.78-1.75 1.75-1.75zM14 3a3.5 3.5 0 110 7 3.5 3.5 0 010-7zm8 1a3 3 0 110 6 3 3 0 010-6zM6 4a3 3 0 110 6 3 3 0 010-6zm21 16.5a6.5 6.5 0 11-13 0 6.5 6.5 0 0113 0zm-6.5-.7l-2.65-2.65a.5.5 0 00-.7.7l2.64 2.65-2.64 2.65a.5.5 0 00.7.7l2.65-2.64 2.65 2.64a.5.5 0 00.7-.7l-2.64-2.65 2.64-2.65a.5.5 0 00-.7-.7l-2.65 2.64z"/></svg>