<svg width="16" height="16" viewBox="0 0 16 16" xmlns="http://www.w3.org/2000/svg"><path d="M8 2a2 2 0 100 4 2 2 0 000-4zm4.5 1a1.5 1.5 0 100 3 1.5 1.5 0 000-3zm-9 0a1.5 1.5 0 100 3 1.5 1.5 0 000-3zM5 8a1 1 0 011-1h2.34a5.5 5.5 0 00-1.95 6.53A3 3 0 015 11V8zM4 8c0-.36.1-.7.27-1H2a1 1 0 00-1 1v2.5a2.5 2.5 0 003.44 2.32A3.98 3.98 0 014 11V8zm12 3.5a4.5 4.5 0 11-9 0 4.5 4.5 0 019 0zm-2.65-1.15a.5.5 0 00-.7-.7l-1.15 1.14-1.15-1.14a.5.5 0 00-.7.7l1.14 1.15-1.14 1.15a.5.5 0 00.7.7l1.15-1.14 1.15 1.14a.5.5 0 00.7-.7l-1.14-1.15 1.14-1.15z"/></svg>