<svg width="32" height="32" viewBox="0 0 32 32" xmlns="http://www.w3.org/2000/svg"><path d="M16 11a4 4 0 100-8 4 4 0 000 8zm-6-3.5a3.5 3.5 0 11-7 0 3.5 3.5 0 017 0zm19 0a3.5 3.5 0 11-7 0 3.5 3.5 0 017 0zM9.38 13a3.98 3.98 0 00-.88 2.5V23c0 1.23.3 2.4.83 3.43A5 5 0 012 22v-6.5A2.5 2.5 0 014.5 13h4.88zM14 23a9 9 0 017.58-8.89A2.5 2.5 0 0019.5 13h-7a2.5 2.5 0 00-2.5 2.5V23a6 6 0 006.29 6A8.97 8.97 0 0114 23zm8.62-10a4 4 0 01.59 1A8.98 8.98 0 0130 17.34V15.5a2.5 2.5 0 00-2.5-2.5h-4.88zm.38 2.5a7.5 7.5 0 110 15 7.5 7.5 0 010-15zm2.72 3.72L23 21.94l-2.72-2.72a.75.75 0 10-1.06 1.06L21.94 23l-2.72 2.72a.75.75 0 101.06 1.06L23 24.06l2.72 2.72a.75.75 0 101.06-1.06L24.06 23l2.72-2.72a.75.75 0 10-1.06-1.06z"/></svg>