<svg width="16" height="16" viewBox="0 0 16 16" xmlns="http://www.w3.org/2000/svg"><path d="M6 4a2 2 0 114 0 2 2 0 01-4 0zm2-1a1 1 0 100 2 1 1 0 000-2zm3 1.5a1.5 1.5 0 113 0 1.5 1.5 0 01-3 0zm1.5-.5a.5.5 0 100 1 .5.5 0 000-1zm-9-1a1.5 1.5 0 100 3 1.5 1.5 0 000-3zM3 4.5a.5.5 0 111 0 .5.5 0 01-1 0zM4.27 7A2 2 0 004 8H2v2.5a1.5 1.5 0 002.1 1.38c.07.33.19.64.34.94A2.5 2.5 0 011 10.5V8a1 1 0 011-1h2.27zM6 7a1 1 0 00-1 1v3a3 3 0 001.39 2.53A5.49 5.49 0 016 11V8h1.26c.31-.38.67-.72 1.08-1H6zm10 4.5a4.5 4.5 0 11-9 0 4.5 4.5 0 019 0zm-2.65-1.15a.5.5 0 00-.7-.7l-1.15 1.14-1.15-1.14a.5.5 0 00-.7.7l1.14 1.15-1.14 1.15a.5.5 0 00.7.7l1.15-1.14 1.15 1.14a.5.5 0 00.7-.7l-1.14-1.15 1.14-1.15z"/></svg>