<svg width="32" height="32" viewBox="0 0 32 32" xmlns="http://www.w3.org/2000/svg"><path d="M16 3a4 4 0 1 0 0 8 4 4 0 0 0 0-8Zm-2 4a2 2 0 1 1 4 0 2 2 0 0 1-4 0Zm11.5-3a3.5 3.5 0 1 0 0 7 3.5 3.5 0 0 0 0-7ZM24 7.5a1.5 1.5 0 1 1 3 0 1.5 1.5 0 0 1-3 0Zm-21 0a3.5 3.5 0 1 1 7 0 3.5 3.5 0 0 1-7 0ZM6.5 6a1.5 1.5 0 1 0 0 3 1.5 1.5 0 0 0 0-3ZM7 25c.61 0 1.18-.18 1.65-.5.14.68.37 1.33.68 1.93A5 5 0 0 1 2 22v-6.5A2.5 2.5 0 0 1 4.5 13h4.88a3.98 3.98 0 0 0-.85 2H4.5a.5.5 0 0 0-.5.5V22a3 3 0 0 0 3 3Zm16.21-11A8.98 8.98 0 0 1 30 17.34V15.5a2.5 2.5 0 0 0-2.5-2.5h-4.88a4 4 0 0 1 .59 1Zm-3.71-1c.87 0 1.63.44 2.08 1.11-.96.15-1.87.46-2.7.89H12.5a.5.5 0 0 0-.5.5V23a4 4 0 0 0 2.86 3.83c.37.8.85 1.52 1.43 2.16A6.02 6.02 0 0 1 10 23v-7.5a2.5 2.5 0 0 1 2.5-2.5h7Zm3.5 2.5a7.5 7.5 0 1 1 0 15 7.5 7.5 0 0 1 0-15Zm2.72 3.72L23 21.94l-2.72-2.72a.75.75 0 1 0-1.06 1.06L21.94 23l-2.72 2.72a.75.75 0 1 0 1.06 1.06L23 24.06l2.72 2.72a.75.75 0 1 0 1.06-1.06L24.06 23l2.72-2.72a.75.75 0 1 0-1.06-1.06Z"/></svg>