<svg width="28" height="28" viewBox="0 0 28 28" xmlns="http://www.w3.org/2000/svg"><path d="M17.25 11c1.18 0 2.15.91 2.25 2.07-.52.07-1.02.19-1.5.36v-.18a.75.75 0 00-.75-.75h-6.5a.75.75 0 00-.75.75v6.25a4 4 0 003.62 3.98c.23.54.52 1.04.86 1.5L14 25a5.5 5.5 0 01-5.5-5.5v-6.25c0-1.24 1-2.25 2.25-2.25h6.5zm7.25 3.15c.55.35 1.06.77 1.5 1.25v-2.15c0-1.24-1-2.25-2.25-2.25H19.6c.4.41.68.93.82 1.5h3.33c.41 0 .75.34.75.75v.9zM4.25 11h4.16c-.4.41-.69.93-.82 1.5H4.25a.75.75 0 00-.75.75v5.25a3 3 0 004.24 2.73c.13.5.32.96.56 1.4A4.49 4.49 0 012 18.5v-5.25C2 12.01 3 11 4.25 11zM14 3a3.5 3.5 0 110 7 3.5 3.5 0 010-7zm8 1a3 3 0 110 6 3 3 0 010-6zM6 4a3 3 0 110 6 3 3 0 010-6zm8 .5a2 2 0 100 4 2 2 0 000-4zm8 1a1.5 1.5 0 100 3 1.5 1.5 0 000-3zm-16 0a1.5 1.5 0 100 3 1.5 1.5 0 000-3zm21 15a6.5 6.5 0 11-13 0 6.5 6.5 0 0113 0zm-6.5-.7l-2.65-2.65a.5.5 0 00-.7.7l2.64 2.65-2.64 2.65a.5.5 0 00.7.7l2.65-2.64 2.65 2.64a.5.5 0 00.7-.7l-2.64-2.65 2.64-2.65a.5.5 0 00-.7-.7l-2.65 2.64z"/></svg>