<svg width="32" height="32" viewBox="0 0 32 32" xmlns="http://www.w3.org/2000/svg"><path d="M13 12.68c0-2.16 1.9-3.75 4.03-3.75 2.14 0 4.04 1.6 4.04 3.75 0 1.06-.45 1.97-1.16 2.64A4.18 4.18 0 0 1 22 18.88c0 2.56-2.4 4.37-5 4.37s-5-1.8-5-4.37c0-1.55.87-2.82 2.13-3.59A3.57 3.57 0 0 1 13 12.7Zm4.03-1.75c-1.21 0-2.03.88-2.03 1.75 0 .88.82 1.75 2.03 1.75 1.22 0 2.04-.87 2.04-1.75 0-.87-.82-1.75-2.04-1.75ZM17 16.5c-1.82 0-3 1.22-3 2.38 0 1.15 1.18 2.37 3 2.37s3-1.22 3-2.37c0-1.16-1.18-2.38-3-2.38Zm7.7-.2a1 1 0 0 0-1.4 1.4l1.79 1.8-1.8 1.8a1 1 0 0 0 1.42 1.4l1.79-1.79 1.8 1.8a1 1 0 0 0 1.4-1.42l-1.79-1.79 1.8-1.8a1 1 0 0 0-1.42-1.4l-1.79 1.79-1.8-1.8ZM11 22a1 1 0 1 1-2 0 1 1 0 0 1 2 0ZM7.33 9.06A1 1 0 0 1 8 10v12a1 1 0 1 1-2 0v-9.58c-.55.47-1.22.98-1.99 1.44A1 1 0 0 1 3 12.14 13.27 13.27 0 0 0 6.2 9.4a1 1 0 0 1 1.12-.33Z"/></svg>