<svg width="20" height="20" viewBox="0 0 20 20" xmlns="http://www.w3.org/2000/svg"><path d="M6 3h8a1 1 0 0 1 1 1v5.02c.34.03.68.1 1 .19V4a2 2 0 0 0-2-2H6a2 2 0 0 0-2 2v12c0 1.1.9 2 2 2h4.26a5.5 5.5 0 0 1-.66-1H6a1 1 0 0 1-1-1h4.2c-.08-.32-.15-.66-.18-1H5V4a1 1 0 0 1 1-1Zm1 1a1 1 0 0 0-1 1v1a1 1 0 0 0 1 1h6a1 1 0 0 0 1-1V5a1 1 0 0 0-1-1H7Zm6 1v1H7V5h6Zm6 9.5a4.5 4.5 0 1 1-9 0 4.5 4.5 0 0 1 9 0Zm-4.98-1.97a.45.45 0 0 0-.45-.03.49.49 0 0 0-.15.1.51.51 0 0 0-.14.36v3.08a.5.5 0 0 0 .14.35.45.45 0 0 0 .48.13.52.52 0 0 0 .13-.06l2.3-1.57c.06-.04.12-.1.16-.18a.54.54 0 0 0 0-.49.49.49 0 0 0-.17-.18l-2.3-1.5Z"/></svg>