<svg width="24" height="24" viewBox="0 0 24 24" xmlns="http://www.w3.org/2000/svg"><path d="M5.5 2A2.5 2.5 0 0 0 3 4.5v15A2.5 2.5 0 0 0 5.5 22h7.31a6.52 6.52 0 0 1-1.08-1.5H5.5a1 1 0 0 1-1-1h6.81a6.48 6.48 0 0 1-.3-1.5H4.5V4.5a1 1 0 0 1 1-1H17a1 1 0 0 1 1 1v6.52c.52.04 1.02.14 1.5.3V4.5A2.5 2.5 0 0 0 17 2H5.5ZM23 17.5a5.5 5.5 0 1 0-11 0 5.5 5.5 0 0 0 11 0Zm-6.09-2.4 2.81 1.84a.6.6 0 0 1 .28.52c0 .1-.02.2-.07.3a.57.57 0 0 1-.2.22l-2.8 1.92a.64.64 0 0 1-.17.07.55.55 0 0 1-.4-.02.69.69 0 0 1-.18-.13.61.61 0 0 1-.18-.44v-3.76a.62.62 0 0 1 .37-.57.55.55 0 0 1 .55.05ZM6 6a1 1 0 0 1 1-1h8a1 1 0 0 1 1 1v2a1 1 0 0 1-1 1H7a1 1 0 0 1-1-1V6Zm1.5 1.5h7v-1h-7v1Z"/></svg>