<svg width="28" height="28" viewBox="0 0 28 28" xmlns="http://www.w3.org/2000/svg"><path d="M23.5 24.25a.75.75 0 001.5 0V3.75a.75.75 0 00-1.5 0v20.5zM11 3h5.5c.28 0 .5.22.5.5v6h-6V3zM6.75 3H9.5v6.5H3V6.75A3.75 3.75 0 016.75 3zM3 17v-6h6.5v6H3zm0 4.25V18.5h6.5V25H6.75A3.75 3.75 0 013 21.25zm14 3.25a.5.5 0 01-.5.5H11v-6.5h6v6zM11 11v6h6v-1.25h-1a1.75 1.75 0 110-3.5h1V11h-6zm7.69 4.75l.89-1H16a.75.75 0 010-1.5h3.58l-.9-1a.75.75 0 011.13-1l2 2.25c.25.29.25.71 0 1l-2 2.25a.75.75 0 01-1.12-1z"/></svg>