<svg width="16" height="16" viewBox="0 0 16 16" xmlns="http://www.w3.org/2000/svg"><path d="M14 2.5a.5.5 0 00-1 0v11a.5.5 0 001 0v-11zm-12 9A2.5 2.5 0 004.5 14h5a.5.5 0 00.5-.5V11a1.5 1.5 0 01-1.41-1H6V6h2.59A1.5 1.5 0 0110 5V2.5a.5.5 0 00-.5-.5h-5A2.5 2.5 0 002 4.5v7zM6 3h3v2H6V3zm3 8v2H6v-2h3zm-6-1V6h2v4H3zm0-5v-.5C3 3.67 3.67 3 4.5 3H5v2H3zm0 6h2v2h-.5A1.5 1.5 0 013 11.5V11zm6.65-1.15a.5.5 0 010-.7l.64-.65H8.5a.5.5 0 010-1h1.8l-.65-.65a.5.5 0 11.7-.7l1.5 1.5c.2.2.2.5 0 .7l-1.5 1.5a.5.5 0 01-.7 0z"/></svg>