<svg width="24" height="24" viewBox="0 0 24 24" xmlns="http://www.w3.org/2000/svg"><path d="M12.75 2.75a.75.75 0 0 0-1.5 0v1.5a.75.75 0 0 0 1.5 0v-1.5ZM17 12a5 5 0 1 1-10 0 5 5 0 0 1 10 0Zm-1.5 0A3.5 3.5 0 0 0 12 8.5v7a3.5 3.5 0 0 0 3.5-3.5Zm6.5 0c0 .41-.34.75-.75.75h-1.5a.75.75 0 0 1 0-1.5h1.5c.41 0 .75.34.75.75Zm-9.25 7.75a.75.75 0 0 0-1.5 0v1.5a.75.75 0 0 0 1.5 0v-1.5ZM5 12c0 .41-.34.75-.75.75h-1.5a.75.75 0 0 1 0-1.5h1.5c.41 0 .75.34.75.75Zm.28-7.78a.75.75 0 1 0-1.06 1.06l1.5 1.5a.75.75 0 0 0 1.06-1.06l-1.5-1.5ZM4.22 19.78c.3.3.77.3 1.06 0l1.5-1.5a.75.75 0 0 0-1.06-1.06l-1.5 1.5c-.3.3-.3.77 0 1.06Zm14.5-15.56a.75.75 0 1 1 1.06 1.06l-1.5 1.5a.75.75 0 1 1-1.06-1.06l1.5-1.5Zm1.06 15.56c-.3.3-.77.3-1.06 0l-1.5-1.5a.75.75 0 0 1 1.06-1.06l1.5 1.5c.3.3.3.77 0 1.06Z"/></svg>