<svg width="16" height="16" viewBox="0 0 16 16" xmlns="http://www.w3.org/2000/svg"><path d="M8.5 1.5a.5.5 0 0 0-1 0v1a.5.5 0 0 0 1 0v-1Z"/><path d="M11 8a3 3 0 1 1-6 0 3 3 0 0 1 6 0ZM8 6v4a2 2 0 1 0 0-4Z"/><path d="M15 8a.5.5 0 0 1-.5.5h-1a.5.5 0 0 1 0-1h1c.28 0 .5.22.5.5Z"/><path d="M8.5 13.5a.5.5 0 0 0-1 0v1a.5.5 0 0 0 1 0v-1Z"/><path d="M3 8a.5.5 0 0 1-.5.5h-1a.5.5 0 0 1 0-1h1c.28 0 .5.22.5.5Z"/><path d="M3.85 3.15a.5.5 0 0 0-.7.7l1 1a.5.5 0 1 0 .7-.7l-1-1Z"/><path d="M3.15 12.85c.2.2.5.2.7 0l1-1a.5.5 0 1 0-.7-.7l-1 1a.5.5 0 0 0 0 .7Z"/><path d="M12.15 3.15a.5.5 0 0 1 .7.7l-1 1a.5.5 0 0 1-.7-.7l1-1Z"/><path d="M12.85 12.85a.5.5 0 0 1-.7 0l-1-1a.5.5 0 0 1 .7-.7l1 1c.2.2.2.5 0 .7Z"/></svg>