<svg width="20" height="20" viewBox="0 0 20 20" xmlns="http://www.w3.org/2000/svg"><path d="M10.5 2.5a.5.5 0 0 0-1 0v1a.5.5 0 0 0 1 0v-1ZM10 6a4 4 0 1 1 0 8 4 4 0 0 1 0-8Zm3 4a3 3 0 0 0-3-3v6a3 3 0 0 0 3-3Zm5 0a.5.5 0 0 1-.5.5h-1a.5.5 0 0 1 0-1h1c.28 0 .5.22.5.5Zm-7.5 6.5a.5.5 0 0 0-1 0v1a.5.5 0 0 0 1 0v-1ZM4 10a.5.5 0 0 1-.5.5H2.46a.5.5 0 0 1 0-1H3.5c.28 0 .5.22.5.5Zm.85-5.85a.5.5 0 1 0-.7.7l1 1a.5.5 0 1 0 .7-.7l-1-1Zm-.7 11.7c.2.2.5.2.7 0l1-1a.5.5 0 0 0-.7-.7l-1 1a.5.5 0 0 0 0 .7Zm11-11.7a.5.5 0 0 1 .7.7l-1 1a.5.5 0 0 1-.7-.7l1-1Zm.7 11.7a.5.5 0 0 1-.7 0l-1-1a.5.5 0 0 1 .7-.7l1 1c.2.2.2.5 0 .7Z"/></svg>