<svg width="28" height="28" viewBox="0 0 28 28" xmlns="http://www.w3.org/2000/svg"><path d="M14.75 2.75a.75.75 0 0 0-1.5 0v1.5a.75.75 0 0 0 1.5 0v-1.5ZM20 14a6 6 0 1 1-12 0 6 6 0 0 1 12 0Zm-1.5 0A4.5 4.5 0 0 0 14 9.5v9a4.5 4.5 0 0 0 4.5-4.5Zm7.5 0c0 .41-.34.75-.75.75h-1.5a.75.75 0 0 1 0-1.5h1.5c.41 0 .75.34.75.75Zm-11.25 9.75a.75.75 0 0 0-1.5 0v1.5a.75.75 0 0 0 1.5 0v-1.5ZM5 14c0 .41-.34.75-.75.75h-1.5a.75.75 0 0 1 0-1.5h1.5c.41 0 .75.34.75.75Zm1.28-8.78a.75.75 0 1 0-1.06 1.06l1.5 1.5a.75.75 0 0 0 1.06-1.06l-1.5-1.5ZM5.22 22.78c.3.3.77.3 1.06 0l1.5-1.5a.75.75 0 1 0-1.06-1.06l-1.5 1.5c-.3.3-.3.77 0 1.06Zm16.5-17.56a.75.75 0 1 1 1.06 1.06l-1.5 1.5a.75.75 0 1 1-1.06-1.06l1.5-1.5Zm1.06 17.56c-.3.3-.77.3-1.06 0l-1.5-1.5a.75.75 0 1 1 1.06-1.06l1.5 1.5c.3.3.3.77 0 1.06Z"/></svg>