<svg width="16" height="16" viewBox="0 0 16 16" xmlns="http://www.w3.org/2000/svg"><path d="M4.5 2A2.5 2.5 0 0 0 2 4.5v7A2.5 2.5 0 0 0 4.5 14h1.77l.5-1H4.5A1.5 1.5 0 0 1 3 11.5v-7C3 3.67 3.67 3 4.5 3h7c.83 0 1.5.67 1.5 1.5v2.17c.11.13.21.27.3.44l.7 1.41V4.5A2.5 2.5 0 0 0 11.5 2h-7ZM7 11.5h.52l.5-1H7a.5.5 0 0 0 0 1Zm2.02-3 .5-1H7a.5.5 0 0 0 0 1h2.02ZM4.75 5.75a.75.75 0 1 0 0-1.5.75.75 0 0 0 0 1.5Zm0 3a.75.75 0 1 0 0-1.5.75.75 0 0 0 0 1.5Zm0 3a.75.75 0 1 0 0-1.5.75.75 0 0 0 0 1.5ZM7 4.5a.5.5 0 0 0 0 1h4.5a.5.5 0 0 0 0-1H7Zm3.6 3.05a1 1 0 0 1 1.8 0l3.5 7A1 1 0 0 1 15 16H8a1 1 0 0 1-.9-1.45l3.5-7ZM12 9.5a.5.5 0 1 0-1 0v3a.5.5 0 1 0 1 0v-3Zm-.5 5.5a.5.5 0 1 0 0-1 .5.5 0 0 0 0 1Z"/></svg>