<svg width="24" height="24" viewBox="0 0 24 24" xmlns="http://www.w3.org/2000/svg"><path d="M7.75 9.25a1 1 0 1 0 0-2 1 1 0 0 0 0 2Zm3.5-1.75a.75.75 0 0 0 0 1.5h5.5a.75.75 0 0 0 0-1.5h-5.5Zm0 3.75a.75.75 0 1 0 0 1.5h3.83l.19-.37c.26-.53.67-.9 1.13-1.13h-5.15Zm0 3.75h2.7l-.74 1.5h-1.96a.75.75 0 1 1 0-1.5Zm-5 4.5h5.46l-.44.88c-.1.2-.17.41-.22.62h-4.8A3.25 3.25 0 0 1 3 17.75V6.25C3 4.45 4.46 3 6.25 3h11.5C19.55 3 21 4.46 21 6.25v8.65l-1.26-2.52a2.6 2.6 0 0 0-.24-.39V6.25c0-.97-.78-1.75-1.75-1.75H6.25c-.97 0-1.75.78-1.75 1.75v11.5c0 .97.78 1.75 1.75 1.75Zm2.5-7.5a1 1 0 1 1-2 0 1 1 0 0 1 2 0Zm-1 4.75a1 1 0 1 0 0-2 1 1 0 0 0 0 2Zm8.41-3.92a1.5 1.5 0 0 1 2.69 0l4 8c.5 1-.23 2.17-1.35 2.17h-8a1.5 1.5 0 0 1-1.34-2.17l4-8ZM18 15.5a.5.5 0 0 0-1 0v3a.5.5 0 0 0 1 0v-3Zm-.5 5.5a.5.5 0 1 0 0-1 .5.5 0 0 0 0 1Z"/></svg>