<svg width="12" height="12" viewBox="0 0 12 12" xmlns="http://www.w3.org/2000/svg"><path d="M12 3.5a3.5 3.5 0 1 1-7 0 3.5 3.5 0 0 1 7 0ZM6.5 3a.5.5 0 0 0 0 1h2.8l-.65.65a.5.5 0 1 0 .7.7l1.5-1.5A.5.5 0 0 0 11 3.5a.5.5 0 0 0-.15-.35l-1.5-1.5a.5.5 0 1 0-.7.7l.64.65H6.5ZM3 2h1.26c.12-.36.3-.7.5-1H3a2 2 0 0 0-2 2v4c0 1.1.9 2 2 2v1.5a.5.5 0 0 0 .78.42L6.65 9H9a2 2 0 0 0 1.98-1.75c-.46.31-.99.54-1.55.65A1 1 0 0 1 9 8H6.5a.5.5 0 0 0-.28.08L4 9.57V8.5a.5.5 0 0 0-.5-.5H3a1 1 0 0 1-1-1V3a1 1 0 0 1 1-1Z"/></svg>