<svg width="20" height="20" viewBox="0 0 20 20" xmlns="http://www.w3.org/2000/svg"><path d="M4 5.63V3.75a.75.75 0 0 0-1.5 0v3.5c0 .41.34.75.75.75h4a.75.75 0 0 0 0-1.5H5.23A6.3 6.3 0 0 1 10 4.25c2.4 0 4.53 1.41 5.65 3.54.15.28.43.46.73.46.54 0 .91-.53.67-1.01A7.93 7.93 0 0 0 10 2.75a7.77 7.77 0 0 0-6 2.88Zm4.25 5.12a.75.75 0 0 0-1.24-.57l-1.75 1.5a.75.75 0 1 0 .98 1.14l.51-.44v3.87a.75.75 0 0 0 1.5 0v-5.5ZM15 13.5c0 1.93-.63 3.5-2.5 3.5-1.88 0-2.5-1.57-2.5-3.5s.63-3.5 2.5-3.5c1.88 0 2.5 1.57 2.5 3.5Zm-1.5 0c0-.85-.15-1.4-.32-1.69a.59.59 0 0 0-.22-.22.94.94 0 0 0-.46-.09.94.94 0 0 0-.46.09.59.59 0 0 0-.22.22c-.17.3-.32.84-.32 1.69s.15 1.4.32 1.69c.08.12.15.18.22.22.07.04.2.09.46.09s.39-.05.46-.09c.07-.04.14-.1.22-.22.17-.3.32-.84.32-1.69Z"/></svg>