<svg width="28" height="28" viewBox="0 0 28 28" xmlns="http://www.w3.org/2000/svg"><path d="M2.75 2.5a.75.75 0 0 0-.75.75v6.5c0 .41.34.75.75.75h6.5a.75.75 0 0 0 0-1.5H4.59c1.68-2.53 5.07-4.5 9.16-4.5 4.22 0 7.54 2 9.87 5.65a.75.75 0 1 0 1.26-.8C22.31 5.3 18.53 3 13.75 3 9.32 3 5.52 5.07 3.5 7.94V3.25a.75.75 0 0 0-.75-.75Zm8.2 10.98a.75.75 0 0 0-1.07-.38.74.74 0 0 0-.25.23l-.07.1a8.62 8.62 0 0 1-2.7 2.68.75.75 0 0 0 .78 1.28A9.3 9.3 0 0 0 9.5 15.9v8.35a.75.75 0 0 0 1.5 0V13.77a.76.76 0 0 0-.05-.3Zm3.9 1.43A3.7 3.7 0 0 1 18.24 13c1.59 0 2.7.74 3.38 1.91.65 1.12.87 2.59.87 4.09s-.22 2.97-.87 4.09A3.7 3.7 0 0 1 18.24 25a3.7 3.7 0 0 1-3.39-1.91A8.32 8.32 0 0 1 14 19c0-1.5.22-2.97.86-4.09Zm1.3.75A6.89 6.89 0 0 0 15.5 19c0 1.4.21 2.55.66 3.34a2.2 2.2 0 0 0 2.09 1.16 2.2 2.2 0 0 0 2.08-1.16c.45-.79.67-1.94.67-3.34s-.22-2.55-.67-3.34a2.2 2.2 0 0 0-2.08-1.16 2.2 2.2 0 0 0-2.09 1.16Z"/></svg>