<svg width="28" height="28" viewBox="0 0 28 28" xmlns="http://www.w3.org/2000/svg"><path d="M15.63 12h-3.26a3.5 3.5 0 1 1-2.87-1.5h9a3.5 3.5 0 1 1-2.87 1.5Zm2.87 0a2 2 0 1 0 0 4 2 2 0 0 0 0-4Zm-9 0a2 2 0 1 0 0 4 2 2 0 0 0 0-4Z"/><path d="M5.75 4A3.75 3.75 0 0 0 2 7.75v12.5A3.75 3.75 0 0 0 5.75 24h16.5A3.75 3.75 0 0 0 26 20.25V7.75A3.75 3.75 0 0 0 22.25 4H5.75ZM3.5 7.75C3.5 6.5 4.51 5.5 5.75 5.5h16.5c1.24 0 2.25 1 2.25 2.25v12.5c0 1.24-1 2.25-2.25 2.25H5.75c-1.24 0-2.25-1-2.25-2.25V7.75Z"/></svg>