<svg width="16" height="16" viewBox="0 0 16 16" xmlns="http://www.w3.org/2000/svg"><path d="m9.65 1.44 2.91 2.91c.28.28.44.67.44 1.06V13a2 2 0 0 1-2 2H7.26l.13-.1c.1-.07.2-.14.28-.23.2-.2.38-.43.54-.67H11a1 1 0 0 0 1-1V6H9.5A1.5 1.5 0 0 1 8 4.5V2H5a1 1 0 0 0-1 1v3.1a1.48 1.48 0 0 0-1 1.17H3V3c0-1.1.9-2 2-2h3.59c.4 0 .78.16 1.06.44ZM9 4.5c0 .28.22.5.5.5h2.3L9 2.2v2.3Zm-4.5 8a1 1 0 1 0 0-2 1 1 0 0 0 0 2Zm4-1.5h-.55A3.49 3.49 0 0 0 5 8.05V7.5a.5.5 0 1 0-1 0v.55A3.49 3.49 0 0 0 1.05 11H.5a.5.5 0 1 0 0 1h.55A3.49 3.49 0 0 0 4 14.95v.55a.5.5 0 1 0 1 0v-.55A3.49 3.49 0 0 0 7.95 12h.55a.5.5 0 1 0 0-1Zm-2.23 2.27a2.5 2.5 0 1 1-3.54-3.54 2.5 2.5 0 0 1 3.54 3.54Z"/></svg>