<svg width="16" height="16" viewBox="0 0 16 16" xmlns="http://www.w3.org/2000/svg"><path d="m13.3 14 .85.85a.5.5 0 0 0 .7-.7l-13-13a.5.5 0 1 0-.7.7L4.3 5.02l-2.29.78A1.5 1.5 0 0 0 1 7.22v1.56c0 .65.4 1.22 1.02 1.42l1.98.68V12a3 3 0 0 0 5.87.87l3.15 1.07.27.06Zm-1.56-1.55-9.4-3.2A.5.5 0 0 1 2 8.79V7.22c0-.22.14-.4.34-.48l2.76-.93 6.64 6.64Zm-2.82.1A2 2 0 0 1 5 12v-.78l3.92 1.33ZM14 3.5v8.38l.96.96c.03-.1.04-.21.04-.33v-9c0-1.03-1-1.76-1.98-1.43l-6.6 2.23.8.79 6.12-2.07a.5.5 0 0 1 .66.47Z"/></svg>