<svg width="24" height="24" viewBox="0 0 24 24" xmlns="http://www.w3.org/2000/svg"><path d="M3.28 2.22a.75.75 0 1 0-1.06 1.06l4.5 4.5-3.11.93A2.25 2.25 0 0 0 2 10.87v2.26c0 1 .65 1.87 1.6 2.16l2.4.7v.7a4 4 0 0 0 7.6 1.57l5.12 1.52 2 2a.75.75 0 0 0 1.06-1.06L3.28 2.22Zm13.21 15.33-12.45-3.7a.75.75 0 0 1-.54-.72v-2.26c0-.33.22-.63.54-.72l3.9-1.16 8.55 8.56Zm-9-1.1 4.63 1.37A2.5 2.5 0 0 1 7.5 16.5v-.06ZM20.5 6.25v11.06l1.32 1.31c.11-.27.18-.57.18-.9V6.27a2.25 2.25 0 0 0-2.9-2.15L10 6.8l1.2 1.21 8.34-2.48a.75.75 0 0 1 .96.72Z"/></svg>