<svg width="20" height="20" viewBox="0 0 20 20" xmlns="http://www.w3.org/2000/svg"><path d="M16.83 7.38c.41.41.8.88 1.14 1.37a.5.5 0 1 1-.83.57 8.61 8.61 0 0 0-14.2 0 .5.5 0 1 1-.82-.58 9.61 9.61 0 0 1 14.71-1.36ZM5.48 9.36a6.45 6.45 0 0 1 8.75-.34c-.37.05-.73.2-1.03.46a5.45 5.45 0 0 0-8.03 1.97.5.5 0 1 1-.89-.45c.3-.6.7-1.15 1.2-1.64Zm4.3 6.62 1.12-2.25a1.3 1.3 0 1 0-1.12 2.25Zm1.9-3.82.46-.9a4.03 4.03 0 0 0-5.8 1.84.5.5 0 0 0 .92.4 3.03 3.03 0 0 1 4.43-1.34Zm1.92-1.6-3.5 7A1 1 0 0 0 11 19h7a1 1 0 0 0 .9-1.45l-3.5-7a1 1 0 0 0-1.8 0ZM15 12.5v3a.5.5 0 1 1-1 0v-3a.5.5 0 1 1 1 0Zm-.5 5.5a.5.5 0 1 1 0-1 .5.5 0 0 1 0 1Z"/></svg>