<svg width="16" height="16" viewBox="0 0 16 16" xmlns="http://www.w3.org/2000/svg"><path d="M2 10c0 1.8 1.55 3.65 4.22 3.96a5.5 5.5 0 0 1-.72-1.16C3.88 12.33 3 11.13 3 10v-.5c0-.28.22-.5.5-.5h1.7c.1-.35.24-.68.4-1H3.5C2.67 8 2 8.67 2 9.5v.5Zm7.75-5.75c0 .29-.04.56-.12.82-.49.08-.95.22-1.39.41A1.74 1.74 0 0 0 7 2.5a1.75 1.75 0 1 0 .4 3.45c-.4.28-.76.6-1.07.97a2.75 2.75 0 1 1 3.42-2.67ZM15 10.5a4.5 4.5 0 1 1-9 0 4.5 4.5 0 0 1 9 0ZM10.5 8a.5.5 0 0 0-.5.5v2c0 .28.22.5.5.5H12a.5.5 0 0 0 0-1h-1V8.5a.5.5 0 0 0-.5-.5Z"/></svg>