<svg width="24" height="24" viewBox="0 0 24 24" xmlns="http://www.w3.org/2000/svg"><path d="M6.75 3A4.75 4.75 0 002 7.75v7C2 15.99 3 17 4.25 17h.25v-1.5h-.25a.75.75 0 01-.75-.75v-7c0-1.8 1.46-3.25 3.25-3.25h10c.41 0 .75.34.75.75v.25H19v-.25C19 4.01 18 3 16.75 3h-10zm1 3.5c-1.24 0-2.25 1-2.25 2.25v9.5c0 1.24 1 2.25 2.25 2.25h3.98a6.46 6.46 0 01-.56-1.5H7.75a.75.75 0 01-.75-.75v-9.5c0-.41.34-.75.75-.75h12c.41 0 .75.34.75.75v2.98c.55.29 1.06.65 1.5 1.08V8.75c0-1.24-1-2.25-2.25-2.25h-12zM17.5 12a5.5 5.5 0 110 11 5.5 5.5 0 010-11zm-3 5a.5.5 0 000 1h4.8l-1.65 1.65a.5.5 0 00.7.7l2.5-2.5a.5.5 0 000-.7l-2.5-2.5a.5.5 0 00-.7.7L19.29 17H14.5z"/></svg>