<svg width="16" height="16" viewBox="0 0 16 16" xmlns="http://www.w3.org/2000/svg"><path d="M4 2a2 2 0 0 0-2 2v5c0 1.1.9 2 2 2h1v1c0 1.1.9 2 2 2h5a2 2 0 0 0 2-2V7a2 2 0 0 0-2-2h-1V4a2 2 0 0 0-2-2H4Zm1.14 1L3 5.14V4a1 1 0 0 1 1-1h1.14ZM3 6.56 6.56 3h1.58L3 8.14V6.56ZM9.45 3.1A1 1 0 0 1 10 4v.3L4.3 10H4a1 1 0 0 1-.9-.55l6.35-6.34ZM10 5.7V6h1.3L6 11.3V10h-.3L10 5.7Zm-3.84 6.84 6.39-6.39A1 1 0 0 1 13 7v.3L7.3 13H7a1 1 0 0 1-.84-.45ZM13 8.7v1.58L10.3 13H8.7L13 8.7Zm0 3V12a1 1 0 0 1-1 1h-.3l1.3-1.3Z"/></svg>