<svg width="28" height="28" viewBox="0 0 28 28" xmlns="http://www.w3.org/2000/svg"><path d="M23 6c.9.58 1.5 1.6 1.5 2.75v10.5c0 2.9-2.35 5.25-5.25 5.25H8.75c-1.15 0-2.17-.6-2.74-1.5h13.24A3.75 3.75 0 0023 19.25v-13-.24z"/><path d="M8.5 13.5a1 1 0 100 2 1 1 0 000-2z"/><path d="M18.75 3H6.25A3.25 3.25 0 003 6.25v12.5C3 20.55 4.46 22 6.25 22h12.5c1.8 0 3.25-1.46 3.25-3.25V6.25C22 4.45 20.54 3 18.75 3zM6 14.5a2.5 2.5 0 115 0 2.5 2.5 0 01-5 0zm7-.25c0-.41.34-.75.75-.75h5a.75.75 0 010 1.5h-5a.75.75 0 01-.75-.75zm-7-5c0-.41.34-.75.75-.75h12a.75.75 0 010 1.5h-12A.75.75 0 016 9.25z"/></svg>