<svg width="24" height="24" viewBox="0 0 24 24" xmlns="http://www.w3.org/2000/svg"><path d="M6 12.25a2.25 2.25 0 114.5 0 2.25 2.25 0 01-4.5 0zm2.25-.75a.75.75 0 100 1.5.75.75 0 000-1.5z"/><path d="M11.5 12.25c0-.41.34-.75.75-.75h2.5a.75.75 0 010 1.5h-2.5a.75.75 0 01-.75-.75z"/><path d="M6 7.75c0-.41.34-.75.75-.75h8a.75.75 0 010 1.5h-8A.75.75 0 016 7.75z"/><path d="M6.25 3A3.25 3.25 0 003 6.25v9c0 1.8 1.46 3.25 3.25 3.25h9c1.8 0 3.25-1.46 3.25-3.25v-9c0-1.8-1.46-3.25-3.25-3.25h-9zM4.5 6.25c0-.97.78-1.75 1.75-1.75h9c.97 0 1.75.78 1.75 1.75v9A1.75 1.75 0 0115.25 17h-9a1.75 1.75 0 01-1.75-1.75v-9z"/><path d="M8.75 21c-1.15 0-2.16-.6-2.74-1.5h9.74a3.75 3.75 0 003.75-3.75V6.01c.9.58 1.5 1.59 1.5 2.74v7c0 2.9-2.35 5.25-5.25 5.25h-7z"/></svg>