<svg width="28" height="28" viewBox="0 0 28 28" xmlns="http://www.w3.org/2000/svg"><path d="M23 6c.9.58 1.5 1.6 1.5 2.75v10.5c0 2.9-2.35 5.25-5.25 5.25H8.75c-1.15 0-2.17-.6-2.74-1.5h13.24A3.75 3.75 0 0023 19.25v-13-.24z"/><path d="M6 14.5a2.5 2.5 0 115 0 2.5 2.5 0 01-5 0zm2.5-1a1 1 0 100 2 1 1 0 000-2z"/><path d="M13 14.25c0-.41.34-.75.75-.75h5a.75.75 0 010 1.5h-5a.75.75 0 01-.75-.75z"/><path d="M6 9.25c0-.41.34-.75.75-.75h12a.75.75 0 010 1.5h-12A.75.75 0 016 9.25z"/><path d="M18.75 3C20.55 3 22 4.46 22 6.25v12.5c0 1.8-1.46 3.25-3.25 3.25H6.25A3.25 3.25 0 013 18.75V6.25C3 4.45 4.46 3 6.25 3h12.5zm0 17.5a1.75 1.75 0 001.75-1.75V6.25c0-.97-.78-1.75-1.75-1.75H6.25c-.97 0-1.75.78-1.75 1.75v12.5a1.75 1.75 0 001.75 1.75h12.5z"/></svg>