<svg width="32" height="32" viewBox="0 0 32 32" xmlns="http://www.w3.org/2000/svg"><path d="M8 11c0-1.1.9-2 2-2h12a2 2 0 0 1 2 2v3a2 2 0 0 1-2 2H10a2 2 0 0 1-2-2v-3Zm14 0H10v3h12v-3Zm-3 7a2 2 0 0 0-2 2v2c0 1.1.9 2 2 2h3a2 2 0 0 0 2-2v-2a2 2 0 0 0-2-2h-3Zm0 2h3v2h-3v-2ZM8 19a1 1 0 0 1 1-1h5a1 1 0 1 1 0 2H9a1 1 0 0 1-1-1Zm1 3a1 1 0 1 0 0 2h5a1 1 0 1 0 0-2H9ZM9 4a5 5 0 0 0-5 5v14a5 5 0 0 0 5 5h14a5 5 0 0 0 5-5V9a5 5 0 0 0-5-5H9ZM6 9a3 3 0 0 1 3-3h14a3 3 0 0 1 3 3v14a3 3 0 0 1-3 3H9a3 3 0 0 1-3-3V9Z"/></svg>