<svg width="28" height="28" viewBox="0 0 28 28" xmlns="http://www.w3.org/2000/svg"><path d="M2 7.75A3.75 3.75 0 015.75 4h16.5A3.75 3.75 0 0126 7.75v9c0 .14-.11.25-.25.25a.26.26 0 01-.26-.25 3.98 3.98 0 00-.99-2.4v-6.6c0-1.24-1-2.25-2.25-2.25H5.75c-1.24 0-2.25 1-2.25 2.25v12.5c0 1.24 1 2.25 2.25 2.25h9.3c-.03.18-.05.36-.05.54v.21c0 .25.02.5.07.75H5.75A3.75 3.75 0 012 20.25V7.75zM21.5 20a3 3 0 100-6 3 3 0 000 6zm0 7c3.93 0 5.5-1.88 5.5-3.75v-.2c0-1.13-.92-2.05-2.05-2.05h-6.9c-1.13 0-2.05.92-2.05 2.04v.21c0 1.87 1.57 3.75 5.5 3.75zM7.25 8C6.56 8 6 8.56 6 9.25v4.5c0 .69.56 1.25 1.25 1.25h5.5c.69 0 1.25-.56 1.25-1.25v-4.5C14 8.56 13.44 8 12.75 8h-5.5z"/></svg>