<svg width="24" height="24" viewBox="0 0 24 24" xmlns="http://www.w3.org/2000/svg"><path d="M2 7.25C2 5.45 3.46 4 5.25 4h13.5C20.55 4 22 5.46 22 7.25v7.25a3.5 3.5 0 00-1.5-2.87V7.25c0-.97-.78-1.75-1.75-1.75H5.25c-.97 0-1.75.78-1.75 1.75v9.5c0 .97.78 1.75 1.75 1.75h8.06c-.2.38-.31.81-.31 1.27v.1a4 4 0 000 .13H5.25A3.25 3.25 0 012 16.75v-9.5zM18.5 17a2.5 2.5 0 100-5 2.5 2.5 0 000 5zm0 6c3.21 0 4.5-1.57 4.5-3.13v-.1c0-.98-.8-1.77-1.77-1.77h-5.46c-.98 0-1.77.8-1.77 1.77v.1c0 1.57 1.29 3.13 4.5 3.13zM6 7a1 1 0 00-1 1v4a1 1 0 001 1h5a1 1 0 001-1V8a1 1 0 00-1-1H6z"/></svg>