<svg width="24" height="24" viewBox="0 0 24 24" xmlns="http://www.w3.org/2000/svg"><path d="M7 3.75A.75.75 0 0 0 6.25 3 3.25 3.25 0 0 0 3 6.25a.75.75 0 0 0 1.5 0c0-.97.78-1.75 1.75-1.75.41 0 .75-.34.75-.75Zm2 0c0-.41.34-.75.75-.75h4.5a.75.75 0 0 1 0 1.5h-4.5A.75.75 0 0 1 9 3.75Zm8.75.75a.75.75 0 0 1 0-1.5C19.55 3 21 4.46 21 6.25v1a.75.75 0 0 1-1.5 0v-1c0-.97-.78-1.75-1.75-1.75ZM3.75 17a.75.75 0 0 0-.75.75C3 19.55 4.46 21 6.25 21h1a.75.75 0 0 0 0-1.5h-1c-.97 0-1.75-.78-1.75-1.75a.75.75 0 0 0-.75-.75Zm0-2a.75.75 0 0 1-.75-.75v-4.5a.75.75 0 0 1 1.5 0v4.5c0 .41-.34.75-.75.75Zm8.5.5h3.25v-3.25c0-1.24 1-2.25 2.25-2.25h3c1.24 0 2.25 1 2.25 2.25v7.5c0 1.8-1.46 3.25-3.25 3.25h-7.5C11.01 23 10 22 10 20.75v-3c0-1.24 1-2.25 2.25-2.25ZM17 12.25v3.25h4.5v-3.25a.75.75 0 0 0-.75-.75h-3a.75.75 0 0 0-.75.75Zm-1.5 9.25V17h-3.25a.75.75 0 0 0-.75.75v3c0 .41.34.75.75.75h3.25ZM17 17v4.5h2.75c.97 0 1.75-.78 1.75-1.75V17H17Z"/></svg>