<svg width="16" height="16" viewBox="0 0 16 16" xmlns="http://www.w3.org/2000/svg"><path d="M6 9a1 1 0 11-2 0 1 1 0 012 0zm0 3a1 1 0 11-2 0 1 1 0 012 0zm5-2a1 1 0 100-2 1 1 0 000 2zm1 2a1 1 0 11-2 0 1 1 0 012 0zm-4-2a1 1 0 100-2 1 1 0 000 2zm1 2a1 1 0 11-2 0 1 1 0 012 0zM5.5 3C4.67 3 4 3.67 4 4.5v1C4 6.33 4.67 7 5.5 7h5c.83 0 1.5-.67 1.5-1.5v-1c0-.83-.67-1.5-1.5-1.5h-5zM5 4.5c0-.28.22-.5.5-.5h5c.28 0 .5.22.5.5v1a.5.5 0 01-.5.5h-5a.5.5 0 01-.5-.5v-1zm9 8a2.5 2.5 0 01-2.5 2.5h-7A2.5 2.5 0 012 12.5v-9A2.5 2.5 0 014.5 1h7A2.5 2.5 0 0114 3.5v9zm-1-9c0-.83-.67-1.5-1.5-1.5h-7C3.67 2 3 2.67 3 3.5v9c0 .83.67 1.5 1.5 1.5h7c.83 0 1.5-.67 1.5-1.5v-9z"/></svg>