<svg width="48" height="48" viewBox="0 0 48 48" xmlns="http://www.w3.org/2000/svg"><path d="m34.23 36 7.64 7.63a1.25 1.25 0 0 0 1.76-1.76L6.13 4.37a1.25 1.25 0 1 0-1.76 1.76l1.87 1.88A7.23 7.23 0 0 0 4 13.25v15.5c0 4 3.25 7.25 7.25 7.25H12v5.82a2.25 2.25 0 0 0 3.55 1.84L26.4 36h7.83Zm-2.5-2.5H25.6l-11.1 7.84V33.5h-3.25a4.75 4.75 0 0 1-4.75-4.75v-15.5c0-1.37.58-2.6 1.5-3.47L31.74 33.5ZM11.3 6l2.5 2.5h22.95a4.75 4.75 0 0 1 4.75 4.75v15.5a4.75 4.75 0 0 1-3.02 4.43l1.87 1.87a7.25 7.25 0 0 0 3.65-6.3v-15.5c0-4-3.25-7.25-7.25-7.25H11.3Z"/></svg>