<svg width="20" height="20" viewBox="0 0 20 20" xmlns="http://www.w3.org/2000/svg"><path d="M7.09 3c.2-.58.76-1 1.41-1h3c.65 0 1.2.42 1.41 1h1.59c.83 0 1.5.67 1.5 1.5v4.7a5.5 5.5 0 0 0-5.74 8.8H5.5A1.5 1.5 0 0 1 4 16.5v-12C4 3.67 4.67 3 5.5 3h1.59ZM8.5 3a.5.5 0 0 0 0 1h3a.5.5 0 0 0 0-1h-3Zm3.57 8.44a2 2 0 0 1-1.44 2.48l-.46.12a4.74 4.74 0 0 0 .01 1.01l.35.09A2 2 0 0 1 12 17.66l-.13.42c.26.2.54.38.84.52l.32-.35a2 2 0 0 1 2.91 0l.34.36c.3-.13.57-.3.82-.5l-.15-.55a2 2 0 0 1 1.43-2.48l.46-.12a4.73 4.73 0 0 0-.01-1.01l-.35-.09A2 2 0 0 1 17 11.34l.13-.42c-.26-.2-.54-.38-.84-.52l-.32.35a2 2 0 0 1-2.91 0l-.34-.36c-.3.13-.57.3-.82.5l.16.55Zm2.43 4.06a1 1 0 1 1 0-2 1 1 0 0 1 0 2Z"/></svg>