<svg width="20" height="20" viewBox="0 0 20 20" xmlns="http://www.w3.org/2000/svg"><path d="M3 5.5v9A2.5 2.5 0 0 0 5.5 17h4.59a1.5 1.5 0 0 1 .35-1.56l1-1a1.5 1.5 0 0 1 2.47.56h.59a.5.5 0 0 0 .5-.5v-.59a1.5 1.5 0 0 1-.56-2.47l1-1a1.5 1.5 0 0 1 1.56-.35V5.5A2.5 2.5 0 0 0 14.5 3h-9A2.5 2.5 0 0 0 3 5.5ZM6 5h1a1 1 0 0 1 1 1v1a1 1 0 0 1-1 1H6a1 1 0 0 1-1-1V6a1 1 0 0 1 1-1Zm3 1a1 1 0 0 1 1-1h4a1 1 0 0 1 1 1v1a1 1 0 0 1-1 1h-4a1 1 0 0 1-1-1V6ZM7 9a1 1 0 0 1 1 1v4a1 1 0 0 1-1 1H6a1 1 0 0 1-1-1v-4a1 1 0 0 1 1-1h1Zm9.85 2.15a.5.5 0 0 0-.7 0l-1 1a.5.5 0 0 0 .7.7l.15-.14v1.79c0 .83-.67 1.5-1.5 1.5h-1.8l.15-.15a.5.5 0 0 0-.7-.7l-1 1a.5.5 0 0 0 0 .7l1 1a.5.5 0 0 0 .7-.7l-.14-.15h1.79a2.5 2.5 0 0 0 2.5-2.5v-1.8l.15.15a.5.5 0 0 0 .7-.7l-1-1Z"/></svg>