<svg width="20" height="20" viewBox="0 0 20 20" xmlns="http://www.w3.org/2000/svg"><path d="M14 7a1 1 0 1 0 0-2 1 1 0 0 0 0 2Zm-2.87-5a2 2 0 0 0-1.43.58L3.02 9.25a2 2 0 0 0 0 2.83l4.95 4.95a2 2 0 0 0 1.95.51c-.2-.29-.36-.6-.5-.93a1 1 0 0 1-.74-.29l-4.95-4.95a1 1 0 0 1 0-1.41l6.68-6.67a1 1 0 0 1 .71-.29l4.9.03a1 1 0 0 1 .99 1v4.95a1 1 0 0 1-.16.55c.3.14.6.31.86.5a2 2 0 0 0 .3-1.05V4.03a2 2 0 0 0-1.99-2L11.12 2ZM19 14.5a4.5 4.5 0 1 1-9 0 4.5 4.5 0 0 1 9 0ZM14.5 12a.5.5 0 0 0-.5.5v2a.5.5 0 0 0 1 0v-2a.5.5 0 0 0-.5-.5Zm0 5.13a.62.62 0 1 0 0-1.25.62.62 0 0 0 0 1.24Z"/></svg>