<svg width="48" height="48" viewBox="0 0 48 48" xmlns="http://www.w3.org/2000/svg"><path d="M12.25 6A6.25 6.25 0 0 0 6 12.25v23.5C6 39.2 8.8 42 12.25 42h23.5C39.2 42 42 39.2 42 35.75v-23.5C42 8.8 39.2 6 35.75 6h-23.5ZM8.5 12.25a3.75 3.75 0 0 1 3.75-3.75h23.5a3.75 3.75 0 0 1 3.75 3.75v23.5a3.75 3.75 0 0 1-3.75 3.75h-23.5a3.75 3.75 0 0 1-3.75-3.75v-23.5ZM24 14c.69 0 1.25.56 1.25 1.25v7.5h7.5a1.25 1.25 0 1 1 0 2.5h-7.5v7.5a1.25 1.25 0 1 1-2.5 0v-7.5h-7.5a1.25 1.25 0 1 1 0-2.5h7.5v-7.5c0-.69.56-1.25 1.25-1.25Z"/></svg>