<svg width="32" height="32" viewBox="0 0 32 32" xmlns="http://www.w3.org/2000/svg"><path d="M9 16a1 1 0 0 0-1 1v5a1 1 0 1 0 2 0v-1h.5a2.5 2.5 0 0 0 0-5H9Zm1.5 3H10v-1h.5a.5.5 0 0 1 0 1Zm3.5-2a1 1 0 0 1 1-1h.5a3.5 3.5 0 1 1 0 7H15a1 1 0 0 1-1-1v-5Zm2 3.91a1.5 1.5 0 0 0 0-2.82v2.82ZM20 22v-5a1 1 0 0 1 1-1h3a1 1 0 1 1 0 2h-2v1h2a1 1 0 1 1 0 2h-2v1a1 1 0 1 1-2 0ZM6 5v8H5a2 2 0 0 0-2 2v9c0 1.1.9 2 2 2h1v1a3 3 0 0 0 3 3h14a3 3 0 0 0 3-3v-1h1a2 2 0 0 0 2-2v-9a2 2 0 0 0-2-2h-1V9.83a3 3 0 0 0-.88-2.12L20.3 2.88A3 3 0 0 0 18.17 2H9a3 3 0 0 0-3 3Zm3-1h7v5a3 3 0 0 0 3 3h5v1H8V5a1 1 0 0 1 1-1ZM8 27v-1h16v1a1 1 0 0 1-1 1H9a1 1 0 0 1-1-1ZM24 9.83V10h-5a1 1 0 0 1-1-1V4h.17a1 1 0 0 1 .7.3l4.84 4.82a1 1 0 0 1 .29.7ZM5 15h22v9H5v-9Z"/></svg>