<svg width="20" height="20" viewBox="0 0 20 20" xmlns="http://www.w3.org/2000/svg"><path d="M9.61 8h.98l-.2 1h-.98l.2-1ZM6 2a2 2 0 0 0-2 2v12c0 1.1.9 2 2 2h9.5a.5.5 0 1 0 0-1H6a1 1 0 0 1-1-1h10.5a.5.5 0 0 0 .5-.5V4a2 2 0 0 0-2-2H6Zm5.6 3.51a.5.5 0 0 1 .4.59l-.19.9h.94a.5.5 0 0 1 0 1h-1.14l-.2 1h1.1a.5.5 0 1 1 0 1h-1.3L11 11.1a.5.5 0 0 1-.98-.2l.18-.9h-.98l-.22 1.1a.5.5 0 1 1-.98-.2l.18-.9h-.94a.5.5 0 0 1 0-1H8.4l.2-1H7.5a.5.5 0 0 1 0-1h1.29l.22-1.1a.5.5 0 0 1 .98.2l-.18.9h.98l.22-1.1a.5.5 0 0 1 .59-.39Z"/></svg>