<svg width="16" height="16" viewBox="0 0 16 16" xmlns="http://www.w3.org/2000/svg"><path d="M6.96 2.09a6.03 6.03 0 0 1 2.08 0 .5.5 0 0 1-.17.99 5.03 5.03 0 0 0-1.74 0 .5.5 0 0 1-.17-.99Zm6.37 4.46a.5.5 0 0 1 .58.4 6.04 6.04 0 0 1 0 2.1.5.5 0 0 1-.99-.18 5.03 5.03 0 0 0 0-1.74.5.5 0 0 1 .41-.58Zm-10.66 0c.27.05.45.3.4.58a5.03 5.03 0 0 0 0 1.74.5.5 0 0 1-.98.17 6.03 6.03 0 0 1 0-2.08.5.5 0 0 1 .58-.4Zm3.88 6.78a.5.5 0 0 1 .58-.4 5.03 5.03 0 0 0 1.74 0 .5.5 0 1 1 .17.98 6.04 6.04 0 0 1-2.08 0 .5.5 0 0 1-.4-.58Zm4.9-10.25a6.04 6.04 0 0 1 1.47 1.48.5.5 0 1 1-.82.57 5.02 5.02 0 0 0-1.23-1.23.5.5 0 1 1 .57-.82Zm1.34 7.67a.5.5 0 0 1 .13.7 6.03 6.03 0 0 1-1.48 1.47.5.5 0 0 1-.57-.82 5.04 5.04 0 0 0 1.23-1.23.5.5 0 0 1 .7-.12ZM5.25 3.2a.5.5 0 0 1-.12.7A5.03 5.03 0 0 0 3.9 5.12a.5.5 0 1 1-.82-.57 6.03 6.03 0 0 1 1.48-1.48.5.5 0 0 1 .7.13Zm-2.04 7.54a.5.5 0 0 1 .7.12 5.04 5.04 0 0 0 1.22 1.23.5.5 0 1 1-.57.82 6.04 6.04 0 0 1-1.48-1.48.5.5 0 0 1 .13-.7Zm4.42-4.3a1.55 1.55 0 0 0-2.18 2.18l2.2 2.22a.5.5 0 0 0 .7 0l2.2-2.22a1.55 1.55 0 0 0-2.18-2.19L8 6.8l-.37-.36Z"/></svg>