<svg width="16" height="16" viewBox="0 0 16 16" xmlns="http://www.w3.org/2000/svg"><path d="M6.96 2.09a6.03 6.03 0 012.08 0 .5.5 0 01-.17.99 5.03 5.03 0 00-1.74 0 .5.5 0 01-.17-.99zm6.37 4.46a.5.5 0 01.58.4 6.04 6.04 0 010 2.1.5.5 0 01-.99-.18 5.03 5.03 0 000-1.74.5.5 0 01.41-.58zm-10.66 0c.27.05.45.3.4.58a5.03 5.03 0 000 1.74.5.5 0 01-.98.17 6.03 6.03 0 010-2.08.5.5 0 01.58-.4zm3.88 6.78a.5.5 0 01.58-.4 5.03 5.03 0 001.74 0 .5.5 0 11.17.98 6.04 6.04 0 01-2.08 0 .5.5 0 01-.4-.58zm4.9-10.25a6.04 6.04 0 011.47 1.48.5.5 0 11-.82.57 5.02 5.02 0 00-1.23-1.23.5.5 0 11.57-.82zm1.34 7.67a.5.5 0 01.13.7 6.03 6.03 0 01-1.48 1.47.5.5 0 01-.57-.82 5.04 5.04 0 001.23-1.23.5.5 0 01.7-.12zM5.25 3.2a.5.5 0 01-.12.7A5.03 5.03 0 003.9 5.12a.5.5 0 11-.82-.57 6.03 6.03 0 011.48-1.48.5.5 0 01.7.13zm-2.04 7.54a.5.5 0 01.7.12 5.04 5.04 0 001.22 1.23.5.5 0 11-.57.82 6.04 6.04 0 01-1.48-1.48.5.5 0 01.13-.7zm2.95-3.59a.55.55 0 01.77 0l.72.7c.2.2.5.2.7 0l.72-.7a.55.55 0 01.77.77L8 9.8 6.16 7.93a.55.55 0 010-.77zm1.47-.72a1.55 1.55 0 00-2.18 2.2l2.2 2.21a.5.5 0 00.7 0l2.2-2.22a1.55 1.55 0 00-2.18-2.19L8 6.8l-.37-.36z"/></svg>