<svg width="28" height="28" viewBox="0 0 28 28" xmlns="http://www.w3.org/2000/svg"><path d="M12.12 2.15a12.09 12.09 0 013.76 0 .75.75 0 11-.24 1.48 10.58 10.58 0 00-3.28 0 .75.75 0 01-.24-1.48zM3 11.5c.41.06.7.45.63.86a10.58 10.58 0 000 3.28.75.75 0 01-1.48.24 12.09 12.09 0 010-3.76c.06-.4.44-.69.85-.62zm22 0c.4-.07.79.21.85.62a12.1 12.1 0 010 3.76.75.75 0 01-1.48-.24 10.58 10.58 0 000-3.28c-.06-.41.22-.8.63-.86zM11.5 25c.06-.41.45-.7.86-.63a10.58 10.58 0 003.28 0 .75.75 0 11.24 1.48 12.1 12.1 0 01-3.76 0 .75.75 0 01-.62-.85zm9.55-20.7a12.08 12.08 0 012.66 2.64.75.75 0 01-1.21.89 10.58 10.58 0 00-2.33-2.33.75.75 0 01.88-1.2zM8 4.45c.25.33.17.8-.16 1.04A10.58 10.58 0 005.5 7.83a.75.75 0 01-1.2-.89A12.08 12.08 0 016.94 4.3a.75.75 0 011.04.17zM23.54 20c.34.24.41.71.17 1.04a12.08 12.08 0 01-2.66 2.66.75.75 0 11-.88-1.21 10.59 10.59 0 002.33-2.33.75.75 0 011.04-.16zM4.46 20a.75.75 0 011.04.16 10.6 10.6 0 002.33 2.33.75.75 0 11-.88 1.2 12.08 12.08 0 01-2.66-2.65.75.75 0 01.17-1.04zm8.93-9.9a3.04 3.04 0 00-4.7 3.86l4.73 5.76a.75.75 0 001.16 0l4.73-5.76a3.04 3.04 0 10-4.7-3.86l-.6.75-.62-.75z"/></svg>