<svg width="24" height="24" viewBox="0 0 24 24" xmlns="http://www.w3.org/2000/svg"><path d="M10.68 2.09a10.09 10.09 0 012.64 0 .75.75 0 01-.2 1.48 8.59 8.59 0 00-2.25 0 .75.75 0 01-.2-1.48zm10.4 7.94c.4-.05.78.24.83.65a10.09 10.09 0 010 2.64.75.75 0 01-1.48-.2 8.57 8.57 0 000-2.25.75.75 0 01.64-.84zm-18.15 0c.4.06.7.43.64.84a8.59 8.59 0 000 2.26.75.75 0 01-1.48.2 10.09 10.09 0 010-2.65c.05-.41.43-.7.84-.65zm7.1 11.04c.06-.4.43-.7.84-.64a8.57 8.57 0 002.26 0 .75.75 0 01.2 1.48 10.09 10.09 0 01-2.65 0 .75.75 0 01-.65-.84zm8.04-17.01a10.1 10.1 0 011.87 1.87.75.75 0 01-1.19.9 8.58 8.58 0 00-1.59-1.58.75.75 0 01.91-1.2zm1.74 12.96c.32.26.39.73.13 1.06a10.1 10.1 0 01-1.87 1.87.75.75 0 01-.9-1.2 8.57 8.57 0 001.58-1.59.75.75 0 011.06-.14zM6.98 4.2c.25.33.19.8-.14 1.06a8.59 8.59 0 00-1.6 1.59.75.75 0 11-1.18-.91 10.09 10.09 0 011.87-1.87.75.75 0 011.05.13zM4.19 17.02a.75.75 0 011.06.14 8.58 8.58 0 001.59 1.6.75.75 0 11-.91 1.18 10.1 10.1 0 01-1.87-1.86.75.75 0 01.13-1.06zm9.33-7.18a1.15 1.15 0 011.7 1.57L12 15.11l-3.22-3.7a1.15 1.15 0 011.7-1.57l.99 1a.75.75 0 001.06 0l1-1zm2.83-.93a2.65 2.65 0 00-3.9-.12l-.45.46-.46-.46a2.65 2.65 0 00-3.89 3.6l3.78 4.35a.75.75 0 001.13 0l3.79-4.35c.86-1 .86-2.48 0-3.48z"/></svg>