<svg width="32" height="32" viewBox="0 0 32 32" xmlns="http://www.w3.org/2000/svg"><path d="M13.81 2.17a14.1 14.1 0 014.38 0 1 1 0 01-.31 1.98 12.1 12.1 0 00-3.76 0 1 1 0 11-.31-1.98zm-10.5 10.8a1 1 0 01.84 1.15 12.1 12.1 0 000 3.76 1 1 0 11-1.98.31 14.1 14.1 0 010-4.38 1 1 0 011.14-.83zm25.38 0a1 1 0 011.14.84 14.1 14.1 0 010 4.38 1 1 0 11-1.98-.31 12.1 12.1 0 000-3.76 1 1 0 01.84-1.14zM12.98 28.7a1 1 0 011.14-.84 12.1 12.1 0 003.76 0 1 1 0 11.31 1.98 14.1 14.1 0 01-4.38 0 1 1 0 01-.83-1.14zM24.23 4.67a14.1 14.1 0 013.1 3.1 1 1 0 01-1.62 1.18 12.1 12.1 0 00-2.66-2.66 1 1 0 111.18-1.62zM9.17 4.9a1 1 0 01-.22 1.4 12.1 12.1 0 00-2.66 2.66 1 1 0 11-1.62-1.18 14.1 14.1 0 013.1-3.1 1 1 0 011.4.22zM27.1 22.83a1 1 0 01.22 1.4 14.1 14.1 0 01-3.1 3.1 1 1 0 11-1.18-1.62 12.1 12.1 0 002.66-2.66 1 1 0 011.4-.22zm-22.22 0a1 1 0 011.4.22 12.1 12.1 0 002.66 2.66 1 1 0 11-1.18 1.62 14.1 14.1 0 01-3.1-3.1 1 1 0 01.22-1.4zm17.3-11.48a3.63 3.63 0 00-5.64 0l-.55.68-.55-.68A3.63 3.63 0 009.8 15.9l5.42 6.72a1 1 0 001.56 0l5.42-6.72a3.63 3.63 0 000-4.55z"/></svg>