<svg width="20" height="20" viewBox="0 0 20 20" xmlns="http://www.w3.org/2000/svg"><path d="M8.44 2.15a8.04 8.04 0 013.12 0 .5.5 0 01-.2.98 7.04 7.04 0 00-2.73 0 .5.5 0 01-.2-.98zm-5.7 5.9a.5.5 0 01.4.58 7.04 7.04 0 000 2.74.5.5 0 01-.99.2 8.04 8.04 0 010-3.13.5.5 0 01.59-.4zm14.52 0a.5.5 0 01.59.39 8.03 8.03 0 010 3.12.5.5 0 01-.98-.2 7.04 7.04 0 000-2.73.5.5 0 01.39-.58zm-9.21 9.21a.5.5 0 01.58-.4 7.04 7.04 0 002.74 0 .5.5 0 11.2.99 8.03 8.03 0 01-3.13 0 .5.5 0 01-.4-.59zm6.4-13.91a8.04 8.04 0 012.2 2.2.5.5 0 11-.83.56 7.03 7.03 0 00-1.93-1.93.5.5 0 01.56-.83zm-8.2.13a.5.5 0 01-.14.7A7.04 7.04 0 004.18 6.1a.5.5 0 01-.83-.56 8.04 8.04 0 012.2-2.2.5.5 0 01.7.13zm10.27 10.27c.23.16.29.47.13.7a8.03 8.03 0 01-2.2 2.2.5.5 0 01-.56-.83 7.03 7.03 0 001.93-1.93.5.5 0 01.7-.14zm-13.04 0a.5.5 0 01.7.14 7.04 7.04 0 001.93 1.93.5.5 0 11-.56.83 8.04 8.04 0 01-2.2-2.2.5.5 0 01.13-.7zm7.74-5.45a1.04 1.04 0 011.5 1.45l-2.72 3-2.73-3a1.04 1.04 0 011.5-1.45l.88.86c.2.19.5.19.7 0l.87-.86zm2.25-.63a2.04 2.04 0 00-2.95-.08l-.52.5-.52-.5a2.04 2.04 0 00-2.95 2.83l3.1 3.42a.5.5 0 00.74 0l3.1-3.42c.7-.78.7-1.97 0-2.75z"/></svg>