<svg width="24" height="24" viewBox="0 0 24 24" xmlns="http://www.w3.org/2000/svg"><path d="M5 4h3v2.7A2.5 2.5 0 004.5 9c0 .36.07.7.2 1H2V7a3 3 0 013-3zM2 14.5v-3h4.94l-1.72 1.72a.75.75 0 101.06 1.06L8 12.56v4.94H5a3 3 0 01-3-3zm7.5 3h7a3 3 0 003-3v-3h-8.94l1.72 1.72a.75.75 0 11-1.06 1.06L9.5 12.56v4.94zm3.3-7.5h6.7V7a3 3 0 00-3-3h-7v2.7A2.5 2.5 0 0113 9c0 .36-.07.7-.2 1zm-2.3 0h-1V9a1 1 0 111 1zM7 10h1V9a1 1 0 10-1 1zm.5 10a3 3 0 01-2.6-1.5h11.6a4 4 0 004-4V6.9A3 3 0 0122 9.5v5a5.5 5.5 0 01-5.5 5.5h-9z"/></svg>