<svg width="24" height="24" viewBox="0 0 24 24" xmlns="http://www.w3.org/2000/svg"><path d="M5 4a3 3 0 00-3 3v7.5a3 3 0 003 3h11.5a3 3 0 003-3V7a3 3 0 00-3-3H5zM3.5 7c0-.83.67-1.5 1.5-1.5h3v1.2A2.5 2.5 0 004.5 9c0 .36.07.7.2 1H3.5V7zm6-.3V5.5h7c.83 0 1.5.67 1.5 1.5v3h-5.2a2.5 2.5 0 00-2.3-3.5c-.36 0-.7.07-1 .2zm1.06 4.8H18v3c0 .83-.67 1.5-1.5 1.5h-7v-3.44l1.72 1.72a.75.75 0 101.06-1.06l-1.72-1.72zM8 12.56V16H5a1.5 1.5 0 01-1.5-1.5v-3h3.44l-1.72 1.72a.75.75 0 101.06 1.06L8 12.56zM11.5 9a1 1 0 01-1 1h-1V9a1 1 0 012 0zM7 8a1 1 0 011 1v1H7a1 1 0 110-2zm.5 12a3 3 0 01-2.6-1.5h11.6a4 4 0 004-4V6.9A3 3 0 0122 9.5v5a5.5 5.5 0 01-5.5 5.5h-9z"/></svg>