<svg width="24" height="24" viewBox="0 0 24 24" xmlns="http://www.w3.org/2000/svg"><path d="M6.5 1.25a.75.75 0 1 1-1.5 0 .75.75 0 0 1 1.5 0ZM18.5 3a1 1 0 1 0-2 0v15.59l-1.8-1.8a1 1 0 0 0-1.4 1.42l3.5 3.5a1 1 0 0 0 1.4 0l3.5-3.5a1 1 0 0 0-1.4-1.42l-1.8 1.8V3ZM8.25 2a.75.75 0 1 0 0-1.5.75.75 0 0 0 0 1.5Zm-6.5 5.25C1.75 4.51 4.22 2.5 7 2.5s5.25 2.01 5.25 4.75S9.78 12 7 12 1.75 9.99 1.75 7.25ZM7 4.5c-1.92 0-3.25 1.35-3.25 2.75S5.08 10 7 10s3.25-1.35 3.25-2.75S8.92 4.5 7 4.5ZM7 13a1 1 0 0 1 .92.6l3 7a1 1 0 1 1-1.84.8l-.6-1.4H5.52l-.6 1.4a1 1 0 1 1-1.84-.8l3-7A1 1 0 0 1 7 13Zm0 3.54L6.37 18h1.26L7 16.54Z"/></svg>