<svg width="48" height="48" viewBox="0 0 48 48" xmlns="http://www.w3.org/2000/svg"><path d="M43.63 6.14a1.25 1.25 0 10-1.77-1.77l-2.5 2.5a1.25 1.25 0 001.77 1.76l2.5-2.5zm-8 6.23c.5.48.5 1.28 0 1.76l-3.5 3.5a1.25 1.25 0 01-1.76-1.76l3.5-3.5a1.25 1.25 0 011.76 0zm-9 10.76a1.25 1.25 0 00-1.76-1.76l-3.5 3.5a1.25 1.25 0 001.76 1.76l3.5-3.5zm-9 7.24c.5.48.5 1.28 0 1.76l-3.5 3.5a1.25 1.25 0 01-1.76-1.76l3.5-3.5a1.25 1.25 0 011.76 0zm-9 9c.5.48.5 1.28 0 1.76l-2.5 2.5a1.25 1.25 0 01-1.76-1.77l2.5-2.5a1.25 1.25 0 011.76 0z"/></svg>