<svg width="16" height="16" viewBox="0 0 16 16" xmlns="http://www.w3.org/2000/svg"><path d="M15 5.5a4.5 4.5 0 1 1-9 0 4.5 4.5 0 0 1 9 0Zm-4.85 2.35a.5.5 0 0 0 .35.15.5.5 0 0 0 .35-.15l2-2a.5.5 0 0 0-.7-.7L11 6.29V3.5a.5.5 0 0 0-1 0v2.8L8.85 5.14a.5.5 0 1 0-.7.7l2 2ZM12 11a1 1 0 0 0 .89-.54c.4-.2.77-.44 1.11-.72V10a2 2 0 0 1-2 2h-2v1h1.5a.5.5 0 1 1 0 1h-7a.5.5 0 0 1-.5-.5c0-.28.23-.5.5-.5H6v-1H4a2 2 0 0 1-2-2V4c0-1.1.9-2 2-2h2.26c-.26.3-.48.64-.66 1H4a1 1 0 0 0-1 1v6a1 1 0 0 0 1 1h8Zm-3 1H7v1h2v-1Z"/></svg>