<svg width="24" height="24" viewBox="0 0 24 24" xmlns="http://www.w3.org/2000/svg"><path d="M2.75 5h18.5a.75.75 0 0 1 .1 1.5H2.75a.75.75 0 0 1-.1-1.5h.1Zm18.5 4H2.65a.75.75 0 0 0 .1 1.5h18.6a.75.75 0 0 0-.1-1.5Zm-18.5 5.5h8.98c.29-.55.65-1.06 1.08-1.5H2.65a.75.75 0 0 0 .1 1.5Zm0 2.5h8.27a6.62 6.62 0 0 0 .06 1.5H2.75a.75.75 0 0 1-.1-1.5h.1Zm9.25.5a5.5 5.5 0 1 0 11 0 5.5 5.5 0 0 0-11 0Zm6.35 2.85-.07.06a.5.5 0 0 1-.64-.06l-.05-.07a.5.5 0 0 1 .05-.63L19.3 18H14.4a.5.5 0 0 1-.41-.5v-.09a.5.5 0 0 1 .5-.41h4.79l-1.65-1.65-.05-.07a.5.5 0 0 1 .76-.63l2.52 2.51.05.07.03.06.03.08.01.09v.1l-.02.1-.02.05-.04.08-.04.05-2.52 2.51Z"/></svg>