<svg width="48" height="48" viewBox="0 0 48 48" xmlns="http://www.w3.org/2000/svg"><path d="M12 17.25c0-.69.56-1.25 1.25-1.25h9.5a1.25 1.25 0 1 1 0 2.5h-9.5c-.69 0-1.25-.56-1.25-1.25Zm1.25 5.25a1.25 1.25 0 1 0 0 2.5h17.5a1.25 1.25 0 1 0 0-2.5h-17.5Zm0 6.5a1.25 1.25 0 1 0 0 2.5h13.5a1.25 1.25 0 1 0 0-2.5h-13.5ZM8.75 8A4.75 4.75 0 0 0 4 12.75v22.5A4.75 4.75 0 0 0 8.75 40h30.5A4.75 4.75 0 0 0 44 35.25v-22.5A4.75 4.75 0 0 0 39.25 8H8.75ZM6.5 12.75c0-1.24 1-2.25 2.25-2.25h30.5c1.24 0 2.25 1 2.25 2.25v22.5c0 1.24-1 2.25-2.25 2.25H8.75c-1.24 0-2.25-1-2.25-2.25v-22.5Z"/></svg>