<svg width="24" height="24" viewBox="0 0 24 24" xmlns="http://www.w3.org/2000/svg"><path d="M6.75 8a.75.75 0 0 0 0 1.5h4.5a.75.75 0 0 0 0-1.5h-4.5ZM6 11.75c0-.41.34-.75.75-.75h8.5a.75.75 0 0 1 0 1.5h-8.5a.75.75 0 0 1-.75-.75ZM6.75 14a.75.75 0 0 0 0 1.5h6.5a.75.75 0 0 0 0-1.5h-6.5Zm-2-10A2.75 2.75 0 0 0 2 6.75v10.5A2.75 2.75 0 0 0 4.75 20h14.5A2.75 2.75 0 0 0 22 17.25V6.75A2.75 2.75 0 0 0 19.25 4H4.75ZM3.5 6.75c0-.69.56-1.25 1.25-1.25h14.5c.69 0 1.25.56 1.25 1.25v10.5c0 .69-.56 1.25-1.25 1.25H4.75c-.69 0-1.25-.56-1.25-1.25V6.75Z"/></svg>