<svg width="32" height="32" viewBox="0 0 32 32" xmlns="http://www.w3.org/2000/svg"><path d="M9.85 5.74A7.64 7.64 0 0 1 16 3c1.7 0 3.68.56 5.26 1.85a7.46 7.46 0 0 1 2.7 5.2c1.37.17 2.7.69 3.78 1.51A5.55 5.55 0 0 1 30 16c0 .46-.04.91-.12 1.34A8.99 8.99 0 0 0 13.5 22H9c-2.7 0-4.52-.82-5.63-2.1A5.9 5.9 0 0 1 2 16c0-2.36 1.93-5.53 6.06-5.95a8.4 8.4 0 0 1 1.8-4.3ZM22.5 15a7.5 7.5 0 1 1 0 15 7.5 7.5 0 0 1 0-15Zm-2.72 11.28 2.72-2.72 2.72 2.72a.75.75 0 1 0 1.06-1.06l-2.72-2.72 2.72-2.72a.75.75 0 1 0-1.06-1.06l-2.72 2.72-2.72-2.72a.75.75 0 1 0-1.06 1.06l2.72 2.72-2.72 2.72a.75.75 0 1 0 1.06 1.06Z"/></svg>