<svg width="24" height="24" viewBox="0 0 24 24" xmlns="http://www.w3.org/2000/svg"><path d="M3.28 2.22a.75.75 0 10-1.06 1.06l.7.7A3.24 3.24 0 002 6.25v11.5C2 19.55 3.46 21 5.25 21h13.5c.36 0 .7-.06 1.02-.16l.95.94a.75.75 0 001.06-1.06L3.28 2.22zM18.44 19.5H5.25c-.97 0-1.75-.78-1.75-1.75V6.25c0-.47.18-.9.48-1.2l5.52 5.51v4.06c0 .57.61.93 1.11.65L12.94 14l5.5 5.5zm-4.97-9.2l2.17 2.15a.75.75 0 00-.24-1.1l-1.93-1.06zm7.03-4.05v11.07l1.36 1.36c.1-.3.14-.6.14-.93V6.25C22 4.45 20.54 3 18.75 3H6.18l1.5 1.5h11.07c.97 0 1.75.78 1.75 1.75z"/></svg>