<svg width="20" height="20" viewBox="0 0 20 20" xmlns="http://www.w3.org/2000/svg"><path d="M16.5 2a2.5 2.5 0 1 1 0 5 2.5 2.5 0 0 1 0-5Zm-3 .68A2 2 0 0 0 12 2H8a2 2 0 0 0-2 2v1.27A2 2 0 0 0 5 7v6a2 2 0 0 0 1 1.73V16c0 1.1.9 2 2 2h4a2 2 0 0 0 2-2v-1.27A2 2 0 0 0 15 13v-2a1 1 0 0 0 1-1V9a1 1 0 0 0-1-1v-.34a3.5 3.5 0 0 1-1-.71A1 1 0 0 1 14 7v6a1 1 0 0 1-1 1H7a1 1 0 0 1-1-1V7a1 1 0 0 1 1-1h6a1 1 0 0 1 .37.07 3.49 3.49 0 0 1 .14-3.39ZM13 4.5V5H7V4a1 1 0 0 1 1-1h4a1 1 0 0 1 1 1v.5ZM7 15h6v1a1 1 0 0 1-1 1H8a1 1 0 0 1-1-1v-1Z"/></svg>