<svg width="24" height="24" viewBox="0 0 24 24" xmlns="http://www.w3.org/2000/svg"><path d="M14.5 2a2 2 0 0 1 1.79 1.1 3.49 3.49 0 0 0 .21 3.2v.1l.1.06c.25.37.57.69.94.94.29.46.46 1.01.46 1.6v1a1 1 0 0 1 1 1v1a1 1 0 0 1-1 1v2a3 3 0 0 1-1.5 2.6V20a2 2 0 0 1-2 2h-5a2 2 0 0 1-2-2v-2.4A3 3 0 0 1 6 15V9a3 3 0 0 1 1.5-2.6V4c0-1.1.9-2 2-2h5Zm-5 1.5A.5.5 0 0 0 9 4v2h6V4a.5.5 0 0 0-.5-.5h-5Zm7 11.5V9c0-.83-.67-1.5-1.5-1.5H9c-.83 0-1.5.67-1.5 1.5v6c0 .83.67 1.5 1.5 1.5h6c.83 0 1.5-.67 1.5-1.5ZM9 20c0 .28.22.5.5.5h5a.5.5 0 0 0 .5-.5v-2H9v2ZM22 4.5a2.5 2.5 0 1 0-5 0 2.5 2.5 0 0 0 5 0Z"/></svg>