<svg width="32" height="32" viewBox="0 0 32 32" xmlns="http://www.w3.org/2000/svg"><path d="M3 7.5A4.5 4.5 0 0 1 7.5 3h17A4.5 4.5 0 0 1 29 7.5v17a4.5 4.5 0 0 1-4.5 4.5h-17A4.5 4.5 0 0 1 3 24.5v-17Zm24 0A2.5 2.5 0 0 0 24.5 5h-17A2.5 2.5 0 0 0 5 7.5V11h22V7.5Zm0 17V13H5v11.5A2.5 2.5 0 0 0 7.5 27h17a2.5 2.5 0 0 0 2.5-2.5Zm-17-15a1.5 1.5 0 1 0 0-3 1.5 1.5 0 0 0 0 3Zm6 0a1.5 1.5 0 1 0 0-3 1.5 1.5 0 0 0 0 3ZM23.5 8a1.5 1.5 0 1 1-3 0 1.5 1.5 0 0 1 3 0ZM9 23v-6h14v6H9Zm-.5-8c-.83 0-1.5.67-1.5 1.5v7c0 .83.67 1.5 1.5 1.5h15c.83 0 1.5-.67 1.5-1.5v-7c0-.83-.67-1.5-1.5-1.5h-15Z"/></svg>