<svg width="24" height="24" viewBox="0 0 24 24" xmlns="http://www.w3.org/2000/svg"><path d="M3 6.25C3 4.45 4.46 3 6.25 3h11.5C19.55 3 21 4.46 21 6.25v11.5c0 1.8-1.46 3.25-3.25 3.25H6.25A3.25 3.25 0 013 17.75V6.25zm16.5 0c0-.97-.78-1.75-1.75-1.75H6.25c-.97 0-1.75.78-1.75 1.75V8h15V6.25zm0 11.5V9.5h-15v8.25c0 .97.78 1.75 1.75 1.75h11.5c.97 0 1.75-.78 1.75-1.75zM8 7.25a1 1 0 100-2 1 1 0 000 2zm5-1a1 1 0 11-2 0 1 1 0 012 0zm3 1a1 1 0 100-2 1 1 0 000 2zM7.5 16.5v-4h9v4h-9zM7.25 11C6.56 11 6 11.56 6 12.25v4.5c0 .69.56 1.25 1.25 1.25h9.5c.69 0 1.25-.56 1.25-1.25v-4.5c0-.69-.56-1.25-1.25-1.25h-9.5z"/></svg>