<svg width="48" height="48" viewBox="0 0 48 48" xmlns="http://www.w3.org/2000/svg"><path d="M6 12.25C6 8.8 8.8 6 12.25 6h23.5C39.2 6 42 8.8 42 12.25v23.5C42 39.2 39.2 42 35.75 42h-23.5A6.25 6.25 0 016 35.75v-23.5zm2.5 23.5a3.75 3.75 0 003.75 3.75h23.5a3.75 3.75 0 003.75-3.75V18.5h-31v17.25zm0-23.5V16h31v-3.75a3.75 3.75 0 00-3.75-3.75h-23.5a3.75 3.75 0 00-3.75 3.75zm7.5 2a2 2 0 100-4 2 2 0 000 4zm8 0a2 2 0 100-4 2 2 0 000 4zm10-2a2 2 0 11-4 0 2 2 0 014 0zM13.5 34.5v-11h21v11h-21zM12.75 21c-.97 0-1.75.78-1.75 1.75v12.5c0 .97.78 1.75 1.75 1.75h22.5c.97 0 1.75-.78 1.75-1.75v-12.5c0-.97-.78-1.75-1.75-1.75h-22.5z"/></svg>