<svg width="32" height="32" viewBox="0 0 32 32" xmlns="http://www.w3.org/2000/svg"><path d="M3 7.5A4.5 4.5 0 017.5 3h17A4.5 4.5 0 0129 7.5v17a4.5 4.5 0 01-4.5 4.5h-17A4.5 4.5 0 013 24.5v-17zm24 0A2.5 2.5 0 0024.5 5h-17A2.5 2.5 0 005 7.5V11h22V7.5zm0 17V13H5v11.5A2.5 2.5 0 007.5 27h17a2.5 2.5 0 002.5-2.5zm-17-15a1.5 1.5 0 100-3 1.5 1.5 0 000 3zm6 0a1.5 1.5 0 100-3 1.5 1.5 0 000 3zM23.5 8a1.5 1.5 0 11-3 0 1.5 1.5 0 013 0zM9 23v-6h14v6H9zm-.5-8c-.83 0-1.5.67-1.5 1.5v7c0 .83.67 1.5 1.5 1.5h15c.83 0 1.5-.67 1.5-1.5v-7c0-.83-.67-1.5-1.5-1.5h-15z"/></svg>