<svg width="28" height="28" viewBox="0 0 28 28" xmlns="http://www.w3.org/2000/svg"><path d="M3 6.75A3.75 3.75 0 016.75 3H9.5v6.5H3V6.75zM3 11v6h6.5v-6H3zm0 7.5v2.75A3.75 3.75 0 006.75 25H9.5v-6.5H3zm8 6.5h3.5a7.47 7.47 0 01-1.23-6.5H11V25zm14-14v3.5a7.47 7.47 0 00-6.5-1.23V11H25zm-8 0v2.87A7.53 7.53 0 0013.87 17H11v-6h6zm8-1.5V6.75A3.75 3.75 0 0021.25 3H18.5v6.5H25zM17 3h-6v6.5h6V3zm-.2 13.7a2 2 0 01-1.45 2.5l-1.02.25a6.8 6.8 0 000 2.15l.98.23a2 2 0 011.45 2.52l-.32 1.1c.52.45 1.11.83 1.75 1.1l.85-.9a2 2 0 012.9 0l.85.9a6.2 6.2 0 001.75-1.09l-.34-1.16a2 2 0 011.44-2.5l1.03-.25a6.8 6.8 0 000-2.15l-.99-.23a2 2 0 01-1.45-2.51l.33-1.1a6.2 6.2 0 00-1.75-1.1l-.85.88a2 2 0 01-2.9 0l-.85-.9a6.2 6.2 0 00-1.75 1.1l.34 1.16zm3.7 5.3a1.5 1.5 0 110-3 1.5 1.5 0 010 3z"/></svg>