<svg width="16" height="16" viewBox="0 0 16 16" xmlns="http://www.w3.org/2000/svg"><path d="M2 4.5A2.5 2.5 0 014.5 2h7A2.5 2.5 0 0114 4.5v1.76A5.48 5.48 0 007.34 6H6v1.34A5.47 5.47 0 006.26 14H4.5A2.5 2.5 0 012 11.5v-7zM5 11H3v.5c0 .83.67 1.5 1.5 1.5H5v-2zm0-5H3v4h2V6zm1-1h4V3H6v2zM5 3h-.5C3.67 3 3 3.67 3 4.5V5h2V3zm8 2v-.5c0-.83-.67-1.5-1.5-1.5H11v2h2zM8.06 7.44a2 2 0 01-1.43 2.48l-.46.12a4.71 4.71 0 00.01 1.01l.35.09A2 2 0 018 13.66l-.13.42c.26.2.54.38.84.52l.32-.35a2 2 0 012.91 0l.34.36c.3-.13.57-.3.82-.5l-.16-.55a2 2 0 011.44-2.48l.46-.12a4.7 4.7 0 00-.01-1.01l-.35-.09A2 2 0 0113 7.34l.13-.42c-.26-.2-.54-.38-.84-.52l-.32.35a2 2 0 01-2.91 0l-.34-.36c-.3.13-.57.3-.82.5l.15.55zm2.44 4.06a1 1 0 110-2 1 1 0 010 2z"/></svg>