<svg width="20" height="20" viewBox="0 0 20 20" xmlns="http://www.w3.org/2000/svg"><path d="M5.25 4a1.25 1.25 0 1 1-2.5 0 1.25 1.25 0 0 1 2.5 0Zm12 12a1.25 1.25 0 1 1-2.5 0 1.25 1.25 0 0 1 2.5 0ZM16 11.25a1.25 1.25 0 1 0 0-2.5 1.25 1.25 0 0 0 0 2.5ZM17.25 4a1.25 1.25 0 1 1-2.5 0 1.25 1.25 0 0 1 2.5 0ZM10 17.25a1.25 1.25 0 1 0 0-2.5 1.25 1.25 0 0 0 0 2.5ZM11.25 10a1.25 1.25 0 1 1-2.5 0 1.25 1.25 0 0 1 2.5 0ZM10 5.25a1.25 1.25 0 1 0 0-2.5 1.25 1.25 0 0 0 0 2.5ZM5.25 16a1.25 1.25 0 1 1-2.5 0 1.25 1.25 0 0 1 2.5 0ZM4 11.25a1.25 1.25 0 1 0 0-2.5 1.25 1.25 0 0 0 0 2.5Z"/></svg>