<svg width="16" height="16" viewBox="0 0 16 16" xmlns="http://www.w3.org/2000/svg"><path d="M8 4.5V1H4.5C3.67 1 3 1.67 3 2.5v6.55c.63.13 1.18.5 1.54 1 .2-.12.33-.26.43-.4a1.68 1.68 0 0 1 1.79-.58c.22.06.49.18.72.4.26.24.52.64.52 1.18v3.85c0 .18-.03.34-.09.5h3.59c.83 0 1.5-.67 1.5-1.5V6H9.5A1.5 1.5 0 0 1 8 4.5Zm1 0V1.25L12.75 5H9.5a.5.5 0 0 1-.5-.5Zm-8 7a1.5 1.5 0 0 1 3 0v2a1.5 1.5 0 0 1-3 0v-2Zm1.5-.5a.5.5 0 0 0-.5.5v2a.5.5 0 0 0 1 0v-2a.5.5 0 0 0-.5-.5Zm4.5-.35c0-.2-.1-.35-.2-.45a.73.73 0 0 0-.3-.16c-.16-.05-.5-.07-.73.22-.2.26-.51.57-.98.78a.5.5 0 0 0 .42.92c.3-.15.57-.32.79-.5v3.04a.5.5 0 0 0 1 0v-3.85Z"/></svg>