<svg width="16" height="16" viewBox="0 0 16 16" xmlns="http://www.w3.org/2000/svg"><path d="M3 3c0-1.1.9-2 2-2h3.59c.4 0 .78.16 1.06.44l2.91 2.91c.28.28.44.67.44 1.06V13a2 2 0 0 1-2 2H7.91c.06-.16.09-.32.09-.5V14h3a1 1 0 0 0 1-1V6H9.5A1.5 1.5 0 0 1 8 4.5V2H5a1 1 0 0 0-1 1v6.5c-.3-.22-.63-.38-1-.45V3Zm6.5 2h2.3L9 2.2v2.3c0 .28.22.5.5.5Zm-2.7 5.2c.1.1.2.25.2.45v3.85a.5.5 0 0 1-1 0v-3.04c-.22.18-.48.35-.8.5a.5.5 0 1 1-.4-.92c.46-.2.77-.52.97-.78.22-.3.57-.27.72-.22.1.02.21.07.31.16ZM2.5 10c-.83 0-1.5.67-1.5 1.5v2a1.5 1.5 0 0 0 3 0v-2c0-.83-.67-1.5-1.5-1.5ZM2 11.5a.5.5 0 0 1 1 0v2a.5.5 0 0 1-1 0v-2Z"/></svg>