<svg width="16" height="16" viewBox="0 0 16 16" xmlns="http://www.w3.org/2000/svg"><path d="M5 8.5a1.5 1.5 0 1 1 3 0v2a1.5 1.5 0 0 1-3 0v-2ZM6.5 8a.5.5 0 0 0-.5.5v2a.5.5 0 0 0 1 0v-2a.5.5 0 0 0-.5-.5Zm4.5-.5a.5.5 0 0 0-.97-.18 1.2 1.2 0 0 1-.7.71.5.5 0 0 0 .35.94l.32-.15v2.68a.5.5 0 1 0 1 0v-4ZM5 1a2 2 0 0 0-2 2v10a2 2 0 0 0 2 2h6a2 2 0 0 0 2-2V5.41c0-.4-.16-.77-.44-1.06L9.65 1.44A1.5 1.5 0 0 0 8.59 1H5ZM4 3a1 1 0 0 1 1-1h3v2.5A1.5 1.5 0 0 0 9.5 6H12v7a1 1 0 0 1-1 1H5a1 1 0 0 1-1-1V3Zm7.8 2H9.5a.5.5 0 0 1-.5-.5V2.2L11.8 5Z"/></svg>