<svg width="20" height="20" viewBox="0 0 20 20" xmlns="http://www.w3.org/2000/svg"><path d="M17 14.5v-4.1c.36-.18.7-.4 1-.66v4.76a2.5 2.5 0 0 1-2.5 2.5h-11A2.5 2.5 0 0 1 2 14.5v-8A2.5 2.5 0 0 1 4.5 4h4.7c-.08.32-.15.66-.18 1H4.5C3.67 5 3 5.67 3 6.5v.3l7 4.12 1.44-.85c.33.22.68.4 1.04.55l-2.23 1.31a.5.5 0 0 1-.42.04l-.08-.04L3 7.96v6.54c0 .83.67 1.5 1.5 1.5h11c.83 0 1.5-.67 1.5-1.5ZM14.5 10a4.5 4.5 0 1 0 0-9 4.5 4.5 0 0 0 0 9Zm-1-6.5v4a.5.5 0 0 1-1 0v-4a.5.5 0 0 1 1 0Zm3 0v4a.5.5 0 0 1-1 0v-4a.5.5 0 0 1 1 0Z"/></svg>