<svg width="16" height="16" viewBox="0 0 16 16" xmlns="http://www.w3.org/2000/svg"><path d="M3 3.7v3.8c0 .28.22.5.5.5h3.8l4.7 4.7v.3a1 1 0 01-1 1h-.5a.5.5 0 000 1h.5a2 2 0 001.9-1.39l1.25 1.24a.5.5 0 00.7-.7l-13-13a.5.5 0 10-.7.7L3 3.71zm9 6.18l.9.9a.5.5 0 00.1-.28v-1a.5.5 0 00-1 0v.38zm-8.5-8.5L10.12 8h2.38a.5.5 0 00.5-.5V6H9.5A1.5 1.5 0 018 4.5V1H4.5c-.38 0-.73.14-1 .38zM9 4.5V1.25L12.75 5H9.5a.5.5 0 01-.5-.5zm-5 5a.5.5 0 00-1 0v1a.5.5 0 001 0v-1zm0 3a.5.5 0 00-1 0v.5c0 1.1.9 2 2 2h.5a.5.5 0 000-1H5a1 1 0 01-1-1v-.5zM7.5 14a.5.5 0 000 1h1a.5.5 0 000-1h-1z"/></svg>