<svg width="20" height="20" viewBox="0 0 20 20" xmlns="http://www.w3.org/2000/svg"><path d="M4 4.7v4.8a.5.5 0 0 0 1 0V5.7l10 10v.3a1 1 0 0 1-1 1h-.5a.5.5 0 0 0 0 1h.5a2 2 0 0 0 1.9-1.39l1.25 1.24a.5.5 0 0 0 .7-.7l-15-15a.5.5 0 1 0-.7.7L4 4.71Zm11 8.18.6.6A.5.5 0 0 0 16 13v-1a.5.5 0 0 0-1 0v.88ZM4.65 2.53l.7.7A1 1 0 0 1 6 3h4v3.5c0 .83.67 1.5 1.5 1.5H15v1.5a.5.5 0 0 0 1 0V7.41c0-.4-.16-.78-.44-1.06l-3.91-3.91A1.5 1.5 0 0 0 10.59 2H6a2 2 0 0 0-1.35.53ZM11 3.2 14.8 7h-3.3a.5.5 0 0 1-.5-.5V3.2ZM4.5 11.5c.28 0 .5.22.5.5v1a.5.5 0 0 1-1 0v-1c0-.28.22-.5.5-.5Zm0 3.5c.28 0 .5.22.5.5v.5a1 1 0 0 0 1 1h.5a.5.5 0 0 1 0 1H6a2 2 0 0 1-2-2v-.5c0-.28.22-.5.5-.5ZM9 18a.5.5 0 0 1 0-1h2a.5.5 0 0 1 0 1H9Z"/></svg>