<svg width="16" height="16" viewBox="0 0 16 16" xmlns="http://www.w3.org/2000/svg"><path d="M3 3.7v3.8a.5.5 0 001 0V4.7l8 8v.3a1 1 0 01-1 1h-.5a.5.5 0 000 1h.5a2 2 0 001.9-1.39l1.25 1.24a.5.5 0 00.7-.7l-13-13a.5.5 0 10-.7.7L3 3.71zm9 6.18l.9.9a.5.5 0 00.1-.28v-1a.5.5 0 00-1 0v.38zM3.65 1.53l.7.7A1 1 0 015 2h3v2.5C8 5.33 8.67 6 9.5 6H12v1.5a.5.5 0 001 0V5.41c0-.4-.16-.78-.44-1.06L9.65 1.44A1.5 1.5 0 008.59 1H5a2 2 0 00-1.35.53zM9 2.2L11.8 5H9.5a.5.5 0 01-.5-.5V2.2zM3.5 9c.28 0 .5.22.5.5v1a.5.5 0 01-1 0v-1c0-.28.22-.5.5-.5zm0 3c.28 0 .5.22.5.5v.5a1 1 0 001 1h.5a.5.5 0 010 1H5a2 2 0 01-2-2v-.5c0-.28.22-.5.5-.5zM7 14.5c0-.28.22-.5.5-.5h1a.5.5 0 010 1h-1a.5.5 0 01-.5-.5z"/></svg>