<svg width="16" height="16" viewBox="0 0 16 16" xmlns="http://www.w3.org/2000/svg"><path d="M8.6 3.74c-.12.14-.21.28-.3.41-.28.43-.66.74-1.1.86l-3.43.9-.6-1.25C2.64 3.57 1 3.95 1 5.16V8c0 1.16 1.1 2 2.22 1.68l3.11-.87-.31 1.4c-.36 1.61 1.76 2.54 2.7 1.19l3.1-4.48 2.23-.82.15-.07c.62-.3.98-1.03.71-1.7V4.3c-.04-.1-.1-.2-.16-.29L14.72 4a7.22 7.22 0 0 0-.22-.29c-.63-.77-1.65-1.7-3-1.7-.2 0-.38.02-.57.06-.54.11-1.02.39-1.41.7-.36.3-.66.64-.91.96l-.02.02Zm-4.16.96-.1-.13a1.6 1.6 0 0 1 2.17-2.29l1.27.87-.31.45c-.19.28-.39.4-.52.44l-2.5.66ZM1.5 14a.5.5 0 0 0 0 1h13a.5.5 0 0 0 0-1h-13Z"/></svg>