<?xml version="1.0" encoding="utf-8"?>
<!-- Generator: Adobe Illustrator 23.0.1, SVG Export Plug-In . SVG Version: 6.00 Build 0)  -->
<svg version="1.1"
	 id="svg2" xmlns:cc="http://creativecommons.org/ns#" xmlns:dc="http://purl.org/dc/elements/1.1/" xmlns:inkscape="http://www.inkscape.org/namespaces/inkscape" xmlns:rdf="http://www.w3.org/1999/02/22-rdf-syntax-ns#" xmlns:sodipodi="http://sodipodi.sourceforge.net/DTD/sodipodi-0.dtd" xmlns:svg="http://www.w3.org/2000/svg"
	 xmlns="http://www.w3.org/2000/svg" xmlns:xlink="http://www.w3.org/1999/xlink" x="0px" y="0px" width="900px" height="600px"
	 viewBox="0 0 900 600" enable-background="new 0 0 900 600" xml:space="preserve">
<g id="g10" transform="matrix(1.3333333,0,0,-1.3333333,0,3779.5332)" inkscape:groupmode="layer" inkscape:label="Comité Olímpico Ruso">
	<path id="path12" fill="#FFFFFF" d="M0,2384.7h675v450H0V2384.7z"/>
	<g>
		<path id="path24" fill="#0081C8" d="M297.9,2494.7c0,18.7-15.2,33.9-33.9,33.9c-18.7,0-33.9-15.2-33.9-33.9
			c0-18.7,15.2-33.9,33.9-33.9c1,0,2,0,2.9,0.1c-0.1,0.9-0.1,1.8-0.1,2.7c0,1,0,2,0.1,3c-1-0.1-2-0.2-3-0.2
			c-15.6,0-28.3,12.7-28.3,28.3c0,15.6,12.7,28.3,28.3,28.3c15.6,0,28.3-12.7,28.3-28.3c0-12.5-8.2-23.2-19.5-26.9
			c-0.2-1.4-0.3-2.8-0.3-4.2c0-0.6,0-1.2,0.1-1.7C287.1,2465.6,297.9,2478.9,297.9,2494.7"/>
		<path id="path28" fill="#EE334E" d="M445,2494.7c0-18.7-15.2-33.9-33.9-33.9c-17.7,0-32.3,13.6-33.8,31c2-0.2,4-0.6,5.8-1.2
			c2-13.6,13.8-24.1,28-24.1c15.6,0,28.3,12.7,28.3,28.3c0,15.6-12.7,28.3-28.3,28.3c-15,0-27.3-11.7-28.2-26.5
			c-1.8,0.5-3.7,0.8-5.6,1c1.4,17.5,16,31.2,33.8,31.2C429.8,2528.6,445,2513.5,445,2494.7"/>
		<path id="path32" fill="#00A651" d="M402.5,2461.9c-0.9-14.8-13.2-26.5-28.2-26.5c-15.6,0-28.3,12.7-28.3,28.3
			c0,12.6,8.2,23.2,19.5,26.9c0.2,1.4,0.3,2.8,0.3,4.2c0,0.6,0,1.2-0.1,1.7c-14.6-3.8-25.4-17.1-25.4-32.9
			c0-18.7,15.2-33.9,33.9-33.9c17.8,0,32.5,13.8,33.8,31.2C406.2,2461.1,404.3,2461.4,402.5,2461.9 M374.3,2491.9
			c14.2,0,25.9-10.4,28-24.1c1.9-0.6,3.8-1,5.8-1.2c-1.5,17.4-16.1,31-33.8,31c-1,0-2,0-2.9-0.1c0.1-0.9,0.1-1.8,0.1-2.7
			c0-1,0-2-0.1-3C372.3,2491.8,373.3,2491.9,374.3,2491.9"/>
		<path id="path36" fill="#FCB131" d="M334.6,2460.9c-1.4-17.5-16-31.2-33.8-31.2c-18.7,0-33.9,15.2-33.9,33.9
			c0,15.8,10.8,29.1,25.4,32.9c0-0.6,0.1-1.2,0.1-1.7c0-1.4-0.1-2.8-0.3-4.2c-11.3-3.7-19.5-14.3-19.5-26.9
			c0-15.6,12.7-28.3,28.3-28.3c15,0,27.3,11.7,28.2,26.5C330.8,2461.4,332.6,2461.1,334.6,2460.9 M297.8,2491.7c0.1,1,0.1,2,0.1,3
			c0,0.9,0,1.8-0.1,2.7c1,0.1,1.9,0.1,2.9,0.1c17.7,0,32.3-13.6,33.8-31c-2,0.2-4,0.6-5.8,1.2c-2,13.6-13.8,24.1-28,24.1
			C299.7,2491.9,298.7,2491.8,297.8,2491.7"/>
		<path id="path40" d="M337.5,2466.4c-14.2,0-25.9,10.4-28,24.1c-1.9,0.6-3.8,1-5.8,1.2c1.5-17.4,16.1-31,33.8-31c1,0,2,0,2.9,0.1
			c-0.1,0.9-0.1,1.8-0.1,2.7c0,1,0,2,0.1,3C339.5,2466.5,338.5,2466.4,337.5,2466.4 M337.5,2528.7c-17.8,0-32.5-13.8-33.8-31.2
			c1.9-0.2,3.8-0.5,5.6-1c0.9,14.8,13.2,26.5,28.2,26.5c15.6,0,28.3-12.7,28.3-28.3c0-12.5-8.2-23.2-19.5-26.9
			c-0.2-1.4-0.3-2.8-0.3-4.2c0-0.6,0-1.2,0.1-1.7c14.6,3.8,25.4,17.1,25.4,32.9C371.4,2513.5,356.2,2528.7,337.5,2528.7"/>
		<linearGradient id="path44_1_" gradientUnits="userSpaceOnUse" x1="337.1029" y1="2587.8035" x2="488.3813" y2="2768.0901">
			<stop  offset="0" style="stop-color:#D52B1E"/>
			<stop  offset="0.5" style="stop-color:#96241B"/>
			<stop  offset="1" style="stop-color:#D52B1E"/>
		</linearGradient>
		<path id="path44" fill="url(#path44_1_)" d="M367.7,2544.6l21.3,20c0,0-13.8,7.2-14.5,23.4c-0.7,16.2,15.3,28.4,17.5,30.5
			c2.2,2.1,20.2,17.1,28.7,27.2c8.5,10.1,17.2,22.2,17.8,37.2c0.6,15-3.6,41.4-43.4,59.1c0,0,15.4-23.2,7.2-47.8
			c-8.3-24.6-42.9-52.3-53.3-62.7c-10.3-10.5-25.8-24.9-23.5-44.5C327.8,2567.4,354.9,2550.9,367.7,2544.6"/>
		<linearGradient id="path48_1_" gradientUnits="userSpaceOnUse" x1="270.4257" y1="2598.0984" x2="453.1145" y2="2815.8184">
			<stop  offset="0" style="stop-color:#5B73B3"/>
			<stop  offset="0.5" style="stop-color:#0039A6"/>
			<stop  offset="1" style="stop-color:#788CB1"/>
		</linearGradient>
		<path id="path48" fill="url(#path48_1_)" d="M299.6,2545l23.5,19.9c0,0-14.9,11.4-15.6,26.7c-0.7,15.3,7.9,23.6,17.8,33.9
			s35.9,34.8,43.6,42.6c7.8,7.8,23.8,23.4,23.6,43.3c-0.3,19.9-6.7,48.2-51.9,66.2c0,0,19.9-23,14.4-46.4
			c-5.5-23.3-17.3-36.6-44.6-61.4c-27.2-24.8-53.5-44.4-51.9-73.3C260.1,2567.6,286.2,2552.3,299.6,2545"/>
		<linearGradient id="path52_1_" gradientUnits="userSpaceOnUse" x1="238.5177" y1="2704.7151" x2="375.6412" y2="2704.7151">
			<stop  offset="0" style="stop-color:#5B73B3"/>
			<stop  offset="0.5" style="stop-color:#0039A6"/>
			<stop  offset="1" style="stop-color:#788CB1"/>
		</linearGradient>
		<path id="path52" fill="url(#path52_1_)" d="M305.5,2782.7c2.4-5.3,5.9-15.2,5.7-27.1c-0.1-5.6-0.8-11.7-4.7-18.6
			c-3.7-6.5-10.1-13.5-20.3-21.9c-3.4-2.8-6.6-5.4-9.7-7.9c-15.5-12.5-26.7-21.6-32-34.9c-4.9-12.2-3.4-28.1,3.8-43.1
			c1.4,3.9,4.3,10.2,10.4,17.7c6.1,7.5,12.6,13,22.3,21.3c2.2,1.9,4.6,3.9,7.1,6.1c2,1.7,3.9,3.4,5.7,4.9
			c10.7,9.1,17.7,15.2,22.2,19.9c0.5,0.5,1,1,1.6,1.7c6.1,6.2,20.3,20.9,20.4,35.2C338.2,2750.6,329.6,2771,305.5,2782.7
			 M249.7,2620.1l-2.3,4.1c-4.9,9-7.8,18.1-8.7,27.1c-0.7,8,0.2,15.7,2.8,22.2c5.6,14.1,17.1,23.4,32.9,36.2
			c3.1,2.5,6.3,5.1,9.6,7.9c19.8,16.5,23.5,25.4,23.8,38.1c0.4,16.5-7.2,29.4-7.3,29.5l-2.5,4.1l4.5-1.9c6.9-2.9,13-6.5,18.3-10.9
			c4.7-3.9,8.8-8.4,12-13.4c7.4-11.5,8.5-21.9,8.5-27.1c0-6.8-2.8-14.2-8.3-22.2c-4.5-6.5-9.8-12-13-15.3c-0.6-0.6-1.1-1.2-1.6-1.6
			c-4.6-4.9-11.7-10.9-22.4-20.1c-1.8-1.5-3.7-3.2-5.7-4.9c-2.6-2.2-4.9-4.2-7.1-6.1c-9.6-8.2-16-13.6-21.9-20.9
			c-9.5-11.7-10.9-20.2-10.9-20.3L249.7,2620.1z"/>
	</g>
</g>
</svg>
