<svg width="20" height="20" viewBox="0 0 20 20" xmlns="http://www.w3.org/2000/svg"><path d="M5.5 10a4.5 4.5 0 1 0 0 9 4.5 4.5 0 0 0 0-9Zm-2.35 4.85A.5.5 0 0 1 3 14.5a.5.5 0 0 1 .15-.35l2-2a.5.5 0 0 1 .7.7L4.71 14H7.5a.5.5 0 0 1 0 1H4.7l1.15 1.15a.5.5 0 0 1-.7.7l-2-2ZM2 5.75c0-.41.34-.75.75-.75h14.5a.75.75 0 0 1 0 1.5H2.75A.75.75 0 0 1 2 5.75Zm0 3c0-.41.34-.75.75-.75h14.5a.75.75 0 0 1 0 1.5H7.79a5.48 5.48 0 0 0-4.58 0h-.46A.75.75 0 0 1 2 8.75Zm8.9 6.75h6.35a.75.75 0 0 0 0-1.5h-6.27a5.59 5.59 0 0 1-.07 1.5Zm-.27-3h6.62a.75.75 0 0 0 0-1.5h-7.5c.36.45.66.95.88 1.5Z"/></svg>