<svg width="48" height="48" viewBox="0 0 48 48" xmlns="http://www.w3.org/2000/svg"><path d="M42.45 16.18 31.82 5.55a4.75 4.75 0 0 0-7.61 1.23l-5.27 10.55c-.15.3-.4.52-.71.62l-7.77 2.69a2.75 2.75 0 0 0-1.05 4.54L15.23 31 6 40.23V42h1.77L17 32.77l5.82 5.82a2.75 2.75 0 0 0 4.54-1.05l2.69-7.77c.1-.3.33-.56.62-.7l10.55-5.28a4.75 4.75 0 0 0 1.23-7.6Zm-12.4-8.86 10.63 10.63a2.25 2.25 0 0 1-.58 3.6l-10.55 5.28a3.75 3.75 0 0 0-1.86 2.13L25 36.73a.25.25 0 0 1-.41.1L11.18 23.4a.25.25 0 0 1 .1-.41l7.76-2.69c.93-.32 1.7-.99 2.13-1.86L26.45 7.9a2.25 2.25 0 0 1 3.6-.58Z"/></svg>