<svg width="16" height="16" viewBox="0 0 16 16" xmlns="http://www.w3.org/2000/svg"><path d="M4.5 2A2.5 2.5 0 0 0 2 4.5v7A2.5 2.5 0 0 0 4.5 14h1.76a5.5 5.5 0 0 1-.66-1H4.5A1.5 1.5 0 0 1 3 11.5v-7C3 3.67 3.67 3 4.5 3h7c.83 0 1.5.67 1.5 1.5v1.1c.36.18.7.4 1 .66V4.5A2.5 2.5 0 0 0 11.5 2h-7Zm6 13a4.5 4.5 0 1 0 0-9 4.5 4.5 0 0 0 0 9Zm1.85-6.35c.2.2.2.5 0 .7l-1.14 1.15 1.14 1.15a.5.5 0 0 1-.7.7l-1.15-1.14-1.15 1.14a.5.5 0 0 1-.7-.7l1.14-1.15-1.14-1.15a.5.5 0 1 1 .7-.7l1.15 1.14 1.15-1.14c.2-.2.5-.2.7 0Z"/></svg>