<svg width="20" height="20" viewBox="0 0 20 20" xmlns="http://www.w3.org/2000/svg"><path d="M17 16.5a.5.5 0 0 1-.5.5h-13a.5.5 0 0 1 0-1h13c.28 0 .5.22.5.5Zm-.5-4.5h-3.88a1.5 1.5 0 0 0-.62-.41V8H8v3.59a1.5 1.5 0 0 0-.62.41H3.5a.5.5 0 0 1-.5-.5V5c0-1.1.9-2 2-2h10a2 2 0 0 1 2 2v6.5a.5.5 0 0 1-.5.5ZM16 7V5a1 1 0 0 0-1-1h-2v3h3ZM8 4v3h4V4H8ZM7 4H5a1 1 0 0 0-1 1v2h3V4Zm0 4H4v3h3V8Zm9 3V8h-3v3h3Zm-7.15 1.65a.5.5 0 0 0-.7.7l1.5 1.5c.2.2.5.2.7 0l1.5-1.5a.5.5 0 0 0-.7-.7l-.65.64V10.5a.5.5 0 0 0-1 0v2.8l-.65-.65Z"/></svg>