<svg width="28" height="28" viewBox="0 0 28 28" xmlns="http://www.w3.org/2000/svg"><path d="M25 24.25c0 .41-.34.75-.75.75H3.75a.75.75 0 0 1 0-1.5h20.5c.41 0 .75.34.75.75Zm-7.44-6.16a1.74 1.74 0 0 0-.56-.42V11h-6v6.67a1.74 1.74 0 0 0-.83.83H4a1 1 0 0 1-1-1V6.75A3.75 3.75 0 0 1 6.75 3h14.5A3.75 3.75 0 0 1 25 6.75V17.5a1 1 0 0 1-1 1h-6.17a1.75 1.75 0 0 0-.27-.41ZM18.5 17h5v-6h-5v6Zm0-7.5h5V6.75c0-1.24-1-2.25-2.25-2.25H18.5v5Zm-1.5-5h-6v5h6v-5Zm-10.25 0c-1.24 0-2.25 1-2.25 2.25V9.5h5v-5H6.75ZM4.5 11v6h5v-6h-5Zm7.75 7.69 1 .89V16a.75.75 0 0 1 1.5 0v3.58l1-.9a.75.75 0 0 1 1 1.13l-2.25 2a.75.75 0 0 1-1 0l-2.25-2a.75.75 0 0 1 1-1.12Z"/></svg>