<svg width="16" height="16" viewBox="0 0 16 16" xmlns="http://www.w3.org/2000/svg"><path d="M13.5 14a.5.5 0 0 0 0-1h-11a.5.5 0 0 0 0 1h11ZM5 10H2.5a.5.5 0 0 1-.5-.5V6h3v4Zm9-.5a.5.5 0 0 1-.5.5H11V6h3v3.5ZM10 6v2.59a1.5 1.5 0 0 0-.5-.09 1.5 1.5 0 1 0-3 0c-.17 0-.34.03-.5.09V6h4Zm1-1h3v-.5A2.5 2.5 0 0 0 11.5 2H11v3ZM6 2v3h4V2H6ZM4.5 2H5v3H2v-.5A2.5 2.5 0 0 1 4.5 2Zm1.65 7.65c.2-.2.5-.2.7 0l.65.64V8.5a.5.5 0 0 1 1 0v1.8l.65-.65a.5.5 0 1 1 .7.7l-1.5 1.5a.5.5 0 0 1-.7 0l-1.5-1.5a.5.5 0 0 1 0-.7Z"/></svg>