<svg width="24" height="24" viewBox="0 0 24 24" xmlns="http://www.w3.org/2000/svg"><path d="M17.5 12a5.5 5.5 0 1 1 0 11 5.5 5.5 0 0 1 0-11Zm-2.65 5.15a.5.5 0 1 0-.7.7l2 2c.2.2.5.2.7 0l4-4a.5.5 0 1 0-.7-.7l-3.65 3.64-1.65-1.64ZM12.02 14c-.3.46-.53.97-.7 1.5H4.24a.75.75 0 0 0-.75.75v.58c0 .53.2 1.05.54 1.46C5.3 19.76 7.26 20.5 10 20.5c.6 0 1.16-.03 1.68-.1.25.49.55.95.91 1.36-.8.16-1.66.24-2.59.24-3.15 0-5.53-.9-7.1-2.74a3.75 3.75 0 0 1-.9-2.43v-.58C2 15 3.01 14 4.25 14h7.77ZM10 2a5 5 0 1 1 0 10 5 5 0 0 1 0-10Zm0 1.5a3.5 3.5 0 1 0 0 7 3.5 3.5 0 0 0 0-7Z"/></svg>