<svg width="20" height="20" viewBox="0 0 20 20" xmlns="http://www.w3.org/2000/svg"><path d="M3.75 3.75h12.5v1.5H3.75v-1.5Z" fill="#E62C46"/><path d="M3.75 5h12.5v1.5H3.75V5Z" fill="#F36D38"/><path d="M3.75 6h12.5v1.75H3.75V6Z" fill="#FFD23E"/><path d="M3.75 7.5h12.5v1.75H3.75V7.5Z" fill="#61BC51"/><path d="M3.75 9h12.5v1.25H3.75V9Z" fill="#1793E8"/><path d="M3.75 10h12.5v1.25H3.75V10Z" fill="#B73FBB"/><path d="m11 7.5-4-4H4.5v8H7l4-4Z" fill="#5B3B1C"/><path d="m9.5 7.5-4-4H3v8h2.5l4-4Z" fill="#8ED4EA"/><path d="m8 7.5-4-4h-.5v8H4l4-4Z" fill="#F3B2C7"/><path d="m6.5 7.5-3-3v6l3-3Z" fill="#fff"/><path d="M7.5 12H4v5.5a.5.5 0 0 1-1 0v-14c0-.28.22-.5.5-.5h13c.28 0 .5.22.5.5v8a.5.5 0 0 1-.5.5h-9Zm-.2-8H4v7h3.3l3.5-3.5L7.3 4Zm1.4 0 3.15 3.15c.2.2.2.5 0 .7L8.71 11H16V4H8.7Z"/></svg>