<svg width="24" height="24" viewBox="0 0 24 24" xmlns="http://www.w3.org/2000/svg"><path d="M4 4h16v2.5H4V4Z" fill="#E62C46"/><path d="M4 6h16v2.5H4V6Z" fill="#F36D38"/><path d="M4 8h16v2.5H4V8Z" fill="#FFD23E"/><path d="M4 10h16v2.5H4V10Z" fill="#61BC51"/><path d="M4 12h16v2H4v-2Z" fill="#1793E8"/><path d="M4 13.5h16v1.75H4V13.5Z" fill="#B73FBB"/><path d="M15 10 9 4H7v11.5h2.5L15 10Z" fill="#5B3B1C"/><path d="m12.5 10-6-6h-2v11.5H7l5.5-5.5Z" fill="#8ED4EA"/><path d="M10 10 4 4v12l6-6Z" fill="#F3B2C7"/><path d="m7.5 10-3-3-.5 3 .5 3 3-3Z" fill="#fff"/><path d="M10 3H3.75a.75.75 0 0 0-.75.75v17.5a.75.75 0 0 0 1.5 0V16.5h6l.03.03.03-.03h9.69c.41 0 .75-.34.75-.75v-12a.75.75 0 0 0-.75-.75H10.06l-.03-.03L10 3Zm-.56 1.5 5.5 5.5-5 5H4.5V4.5h4.94Zm2.12 0h7.94V15h-7.44l4.47-4.47c.3-.3.3-.77 0-1.06L11.56 4.5Z"/></svg>