<svg width="32" height="32" viewBox="0 0 32 32" xmlns="http://www.w3.org/2000/svg"><path d="M5 16h22v3.5H5V16Z" fill="#B73FBB"/><path d="M5 13h22v4H5v-4Z" fill="#1793E8"/><path d="M5 11h22v3H5v-3Z" fill="#61BC51"/><path d="M5 9h22v3H5V9Z" fill="#FFD23E"/><path d="M5 6h22v4H5V6Z" fill="#F36D38"/><path d="M5 4h22v3H5V4Z" fill="#E62C46"/><path d="M18.5 12 11 4.5H8v15h3l7.5-7.5Z" fill="#5B3B1C"/><path d="M15 12 7.5 4.5H6v15h1.5L15 12Z" fill="#8ED4EA"/><path d="m12.5 12-7-7v14l7-7Z" fill="#F3B2C7"/><path d="M10 12 6 8l-.5 4 .5 4 4-4Z" fill="#fff"/><path d="M5 3a1 1 0 0 0-1 1v24a1 1 0 1 0 2 0v-7h21a1 1 0 0 0 1-1V4a1 1 0 0 0-1-1H5Zm5.59 16H6V5h4.59l7 7-7 7Zm2.82 0 6.3-6.3a1 1 0 0 0 0-1.4L13.4 5H26v14H13.41Z"/></svg>