<svg width="24" height="24" viewBox="0 0 24 24" xmlns="http://www.w3.org/2000/svg"><path d="M5 7a2 2 0 1 0 0-4 2 2 0 0 0 0 4Zm14 0a2 2 0 1 0 0-4 2 2 0 0 0 0 4Zm2 12a2 2 0 1 1-4 0 2 2 0 0 1 4 0ZM5 21a2 2 0 1 0 0-4 2 2 0 0 0 0 4ZM7.96 5.5A3.02 3.02 0 0 0 7.83 4h4.67A2.5 2.5 0 0 1 15 6.5V9h2.5a2.5 2.5 0 0 1 2.5 2.5v4.67a3 3 0 0 0-1.5-.13V11.5a1 1 0 0 0-1-1H15v2a2.5 2.5 0 0 1-2.5 2.5h-2v2.5a1 1 0 0 0 1 1h4.54a3.02 3.02 0 0 0 .13 1.5H11.5A2.5 2.5 0 0 1 9 17.5V15H6.5A2.5 2.5 0 0 1 4 12.5V7.83a3 3 0 0 0 1.5.13v4.54a1 1 0 0 0 1 1H9v-2A2.5 2.5 0 0 1 11.5 9h2V6.5a1 1 0 0 0-1-1H7.96Zm4.54 8a1 1 0 0 0 1-1v-2h-2a1 1 0 0 0-1 1v2h2Z"/></svg>