<svg width="20" height="20" viewBox="0 0 20 20" xmlns="http://www.w3.org/2000/svg"><path d="M10 5.5a4.5 4.5 0 11-9 0 4.5 4.5 0 019 0zM5.5 3a.5.5 0 00-.5.5v2c0 .28.22.5.5.5H7a.5.5 0 000-1H6V3.5a.5.5 0 00-.5-.5zM3 12.56c0-.71.3-1.37.8-1.83A5.5 5.5 0 0010 8.66V10h3.87l-1.24-2.23a1.5 1.5 0 00-1.3-.77h-.54c.1-.32.16-.66.19-1h.34c.91 0 1.75.5 2.19 1.29l1.54 2.77 2.1.56A2.5 2.5 0 0119 13.04v1.21c0 .7-.42 1.32-1.02 1.6a2.5 2.5 0 01-4.93.15h-4.1a2.5 2.5 0 01-4.93-.16A1.75 1.75 0 013 14.25v-1.69zM5.53 11v.01l-.4.1A1.5 1.5 0 004 12.56v1.7c0 .15.05.3.14.42a2.5 2.5 0 014.81.32h4.1a2.5 2.5 0 014.81-.32.75.75 0 00.14-.43v-1.21a1.5 1.5 0 00-1.11-1.45l-2.2-.59H5.52zm.97 3a1.5 1.5 0 100 3 1.5 1.5 0 000-3zm9 0a1.5 1.5 0 100 3 1.5 1.5 0 000-3z"/></svg>