<svg width="24" height="24" viewBox="0 0 24 24" xmlns="http://www.w3.org/2000/svg"><path d="M6.5 1a5.5 5.5 0 110 11 5.5 5.5 0 010-11zm2 5.5h-2V4a.5.5 0 00-1 0v3c0 .28.22.5.5.5h2.5a.5.5 0 000-1zm-2 6.5A6.5 6.5 0 0012 9.97V12h4.93l-2-3.39A1.25 1.25 0 0013.86 8h-1.03c.11-.48.17-.98.17-1.5h.86c.97 0 1.87.51 2.37 1.35l2.5 4.25 2.19.54c1.22.31 2.08 1.41 2.08 2.67V17c0 1.1-.65 2.05-1.59 2.5a3.25 3.25 0 01-6.25.25h-4.82a3.25 3.25 0 01-6.32-.61A2.74 2.74 0 013 17v-2.25c0-.9.43-1.7 1.1-2.2.75.29 1.55.45 2.4.45zm8.54 5.25a3.25 3.25 0 016.27-.6c.12-.18.19-.4.19-.65v-1.69c0-.57-.39-1.07-.95-1.21l-2.4-.6H5.76c-.69 0-1.25.56-1.25 1.25v2.27a3.25 3.25 0 015.96 1.23h4.58zM7.25 17a1.75 1.75 0 100 3.5 1.75 1.75 0 000-3.5zm9.25 1.75a1.75 1.75 0 103.5 0 1.75 1.75 0 00-3.5 0z"/></svg>