<svg width="16" height="16" viewBox="0 0 16 16" xmlns="http://www.w3.org/2000/svg"><path d="M9 5.5a4.5 4.5 0 11-9 0 4.5 4.5 0 019 0zM4.5 3a.5.5 0 00-.5.5v2c0 .28.22.5.5.5H6a.5.5 0 000-1H5V3.5a.5.5 0 00-.5-.5zm0 8c1.93 0 3.63-1 4.61-2.5h2.42l-.9-1.7a1.5 1.5 0 00-.67-.65A5.56 5.56 0 0010 5.1c.64.18 1.2.62 1.52 1.22l1.13 2.13 1.7.6A2.5 2.5 0 0116 11.42v.34c0 .7-.42 1.32-1.03 1.6a2 2 0 01-3.9.15H6.93a2 2 0 01-3.91-.15A1.75 1.75 0 012 11.75v-1.11l.01-.23c.75.38 1.6.59 2.49.59zM4 13a1 1 0 102 0 1 1 0 00-2 0zm9-1a1 1 0 100 2 1 1 0 000-2z"/></svg>