<svg width="24" height="24" viewBox="0 0 24 24" xmlns="http://www.w3.org/2000/svg"><path d="M6.5 1a5.5 5.5 0 110 11 5.5 5.5 0 010-11zm2 5.5h-2V4a.5.5 0 00-1 0v3c0 .28.22.5.5.5h2.5a.5.5 0 000-1zm-2 6.5c1.75 0 3.33-.69 4.5-1.81V12h4.93l-2-3.39A1.25 1.25 0 0012.86 8h-.03c.11-.48.17-.98.17-1.5.92.05 1.76.55 2.23 1.35l2.5 4.25 2.19.54c1.22.31 2.08 1.41 2.08 2.67V17c0 1.1-.65 2.05-1.59 2.5a3.25 3.25 0 01-6.25.25H9.34a3.25 3.25 0 01-6.32-.61A2.74 2.74 0 012 17v-2.25c0-1.08.62-2.02 1.53-2.47.9.46 1.9.72 2.97.72zm-.25 4a1.75 1.75 0 100 3.5 1.75 1.75 0 000-3.5zm9.25 1.75a1.75 1.75 0 103.5 0 1.75 1.75 0 00-3.5 0z"/></svg>