<svg width="32" height="32" viewBox="0 0 32 32" xmlns="http://www.w3.org/2000/svg"><path d="M16.02 4.9c4.2-.07 8.67 1.83 11.24 5.1H22a1 1 0 000 2h7a1 1 0 001-1V4a1 1 0 10-2 0v3.8a16.63 16.63 0 00-12.01-4.9c-5.86.08-10.79 3.43-13.83 8.18a1 1 0 001.68 1.08c2.76-4.3 7.12-7.2 12.18-7.27zM21.1 15a4.3 4.3 0 00-3.94 2.26c-.74 1.31-1 3.01-1 4.74 0 1.73.26 3.43 1 4.74A4.3 4.3 0 0021.1 29a4.3 4.3 0 003.95-2.26c.74-1.31.99-3.01.99-4.74 0-1.73-.25-3.43-1-4.74A4.3 4.3 0 0021.1 15zm-2.94 7c0-1.59.25-2.88.74-3.75A2.31 2.31 0 0121.1 17c1.1 0 1.76.46 2.2 1.25.5.87.74 2.16.74 3.75 0 1.59-.24 2.88-.73 3.75A2.31 2.31 0 0121.1 27c-1.1 0-1.77-.46-2.21-1.25a7.86 7.86 0 01-.74-3.75zM13 16a1 1 0 00-1.79-.62v.01a4.64 4.64 0 01-.2.23 13.26 13.26 0 01-3.02 2.52A1 1 0 109 19.86c.77-.46 1.44-.97 1.99-1.44V28a1 1 0 102 0V16zm-1.79-.62z"/></svg>