<svg width="20" height="20" viewBox="0 0 20 20" xmlns="http://www.w3.org/2000/svg"><path d="M17 5.5A2.5 2.5 0 0 0 14.5 3h-9A2.5 2.5 0 0 0 3 5.5v9A2.5 2.5 0 0 0 5.5 17h4.1c-.16-.32-.3-.65-.4-1H8v-3h1.2c.1-.35.24-.68.4-1H8V8h4v1.6c.32-.16.65-.3 1-.4V8h3v1.2c.35.1.68.24 1 .4V5.5Zm-13 9V13h3v3H5.36A1.5 1.5 0 0 1 4 14.5ZM12 4v3H8V4h4Zm1 0H14.64A1.5 1.5 0 0 1 16 5.5V7h-3V4ZM7 4v3H4V5.36A1.5 1.5 0 0 1 5.5 4H7Zm0 4v4H4V8h3Zm12 6.5a4.5 4.5 0 1 1-9 0 4.5 4.5 0 0 1 9 0Zm-3.8 0 1.15-1.15a.5.5 0 0 0-.7-.7l-1.15 1.14-1.15-1.14a.5.5 0 0 0-.7.7l1.14 1.15-1.14 1.15a.5.5 0 0 0 .7.7l1.15-1.14 1.15 1.14a.5.5 0 0 0 .7-.7l-1.14-1.15Z"/></svg>