<svg width="32" height="32" viewBox="0 0 32 32" xmlns="http://www.w3.org/2000/svg"><path d="m26.33 27.74 1.96 1.97a1 1 0 0 0 1.42-1.42l-26-26a1 1 0 0 0-1.42 1.42l9.7 9.7v.03a4 4 0 0 1-.7 2.27l-5.71 8.25A3.21 3.21 0 0 0 8.22 29h15.56c1.08 0 1.98-.5 2.55-1.26Zm-1.45-1.45c-.19.4-.59.71-1.1.71H8.22c-.98 0-1.55-1.1-1-1.9l3.55-5.13A1 1 0 0 0 11 20h7.59l6.29 6.3ZM16.58 18h-4.44l.8-1.15a6 6 0 0 0 .8-1.7L16.6 18ZM18 13.44a6 6 0 0 0 .1 1.13L24 20.45 20.7 15.7a4 4 0 0 1-.71-2.27V5h1a1 1 0 1 0 0-2H11a1 1 0 1 0 0 2h1v3.46l2 2V5h4v8.44Z"/></svg>