<svg width="16" height="16" viewBox="0 0 16 16" xmlns="http://www.w3.org/2000/svg"><path d="M14.5 8.5a.5.5 0 1 0 0-1H13V6h1.5a.5.5 0 1 0 0-1H13a2 2 0 0 0-2-2V1.5a.5.5 0 1 0-1 0V3H8.5V1.5a.5.5 0 1 0-1 0V3H6V1.5a.5.5 0 1 0-1 0V3a2 2 0 0 0-2 2H1.5a.5.5 0 1 0 0 1H3v1.5H1.5a.5.5 0 1 0 0 1H3V10H1.5a.5.5 0 1 0 0 1H3a2 2 0 0 0 2 2v1.5c0 .13.05.26.15.35A.5.5 0 0 0 6 14.5V13h1.5v1.5c0 .13.05.26.15.35a.5.5 0 0 0 .85-.35V13H10v1.5c0 .13.05.26.15.35a.5.5 0 0 0 .85-.35V13a2 2 0 0 0 2-2h1.5a.5.5 0 1 0 0-1H13V8.5h1.5Zm-6.5 2a2.5 2.5 0 1 1 0-5 2.5 2.5 0 0 1 0 5Zm0-4a1.5 1.5 0 1 0 0 3 1.5 1.5 0 0 0 0-3Z"/></svg>