<svg width="20" height="20" viewBox="0 0 20 20" xmlns="http://www.w3.org/2000/svg"><path d="M17 7h-4V3h1.5A2.5 2.5 0 0 1 17 5.5V7ZM7 8v4H3V8h4Zm5 1.6A5.52 5.52 0 0 0 9.6 12H8V8h4v1.6Zm5 0a5.48 5.48 0 0 0-4-.4V8h4v1.6ZM9.2 13a5.5 5.5 0 0 0 .4 4H8v-4h1.2ZM3 13h4v4H5.5A2.5 2.5 0 0 1 3 14.5V13Zm9-10v4H8V3h4ZM7 7V3H5.5A2.5 2.5 0 0 0 3 5.5V7h4Zm12 7.5a4.5 4.5 0 1 1-9 0 4.5 4.5 0 0 1 9 0Zm-2.15.35a.5.5 0 0 0 0-.7l-2-2a.5.5 0 0 0-.35-.15.5.5 0 0 0-.35.15l-2 2a.5.5 0 0 0 .7.7L14 13.71v2.79a.5.5 0 1 0 1 0v-2.8l1.15 1.15c.2.2.5.2.7 0Z"/></svg>