<svg width="24" height="24" viewBox="0 0 24 24" xmlns="http://www.w3.org/2000/svg"><path d="M12.02 21H9.5v-5h1.67a6.52 6.52 0 0 0 .85 5ZM21 12.02V9.5h-5v1.67a6.52 6.52 0 0 1 5 .85Zm-6.5-.29V9.5h-5v5h2.23a6.53 6.53 0 0 1 2.77-2.77ZM21 6.25V8h-5V3h1.75C19.55 3 21 4.46 21 6.25ZM9.5 3h5v5h-5V3ZM6.25 3H8v5H3V6.25C3 4.45 4.46 3 6.25 3ZM3 14.5v-5h5v5H3Zm0 3.25V16h5v5H6.25A3.25 3.25 0 0 1 3 17.75Zm20-.25a5.5 5.5 0 1 0-11 0 5.5 5.5 0 0 0 11 0ZM17.43 14h.08a.5.5 0 0 1 .06 0l.06.02.06.02.07.03.05.03 2.54 2.55.06.07a.5.5 0 0 1-.7.7l-.06-.07L18 15.71v5.38a.5.5 0 0 1-.41.4l-.09.01h-.09a.5.5 0 0 1-.4-.41L17 21v-5.3l-1.65 1.65-.07.06a.5.5 0 0 1-.56 0l-.07-.06-.06-.07a.5.5 0 0 1 0-.56l.06-.07 2.5-2.52.07-.04.07-.04.08-.03.06-.01Z"/></svg>