<svg width="24" height="24" viewBox="0 0 24 24" xmlns="http://www.w3.org/2000/svg"><path d="M6.25 3A3.25 3.25 0 0 0 3 6.25v11.5C3 19.55 4.46 21 6.25 21h5.77c-.3-.46-.53-.97-.7-1.5H10v-4h1.31c.18-.53.42-1.04.71-1.5H10v-4h4v2.02c.46-.3.97-.53 1.5-.7V10h4v1.31c.53.18 1.04.42 1.5.71V6.25C21 4.45 19.54 3 17.75 3H6.25ZM4.5 6.25c0-.97.78-1.75 1.75-1.75H8.5v4h-4V6.25Zm0 7.75v-4h4v4h-4Zm15-5.5h-4v-4h2.25c.97 0 1.75.78 1.75 1.75V8.5Zm-9.5-4h4v4h-4v-4ZM4.5 17.75V15.5h4v4H6.25c-.97 0-1.75-.78-1.75-1.75ZM23 17.5a5.5 5.5 0 1 0-11 0 5.5 5.5 0 0 0 11 0ZM17.43 14h.08a.5.5 0 0 1 .06 0l.06.02.06.02.07.03.05.03 2.54 2.55.06.07a.5.5 0 0 1-.7.7l-.06-.07L18 15.71v5.38a.5.5 0 0 1-.41.4l-.09.01h-.09a.5.5 0 0 1-.4-.41L17 21v-5.3l-1.65 1.65-.07.06a.5.5 0 0 1-.56 0l-.07-.06-.06-.07a.5.5 0 0 1 0-.56l.06-.07 2.5-2.52.07-.04.07-.04.08-.03.06-.01Z"/></svg>