<svg width="24" height="24" viewBox="0 0 24 24" xmlns="http://www.w3.org/2000/svg"><path d="M11.75 7.5a.75.75 0 0 0 0 1.5 4.4 4.4 0 0 1 3.4 1.76.75.75 0 1 0 1.24-.86 5.9 5.9 0 0 0-4.64-2.4Zm-2.25-3a2.5 2.5 0 0 1 5 0v.88a8.25 8.25 0 0 1 5.75 7.87c0 .41-.34.75-.75.75h-15a.75.75 0 0 1-.75-.75c0-3.68 2.42-6.8 5.75-7.86V4.5Zm3.5 0a1 1 0 1 0-2 0v.56a8.33 8.33 0 0 1 2 0V4.5Zm-7.7 8h13.4a6.73 6.73 0 0 0-6.68-6 6.77 6.77 0 0 0-6.73 6ZM4 15a2 2 0 1 0 0 4h16a2 2 0 1 0 0-4H4Zm-.5 2c0-.28.22-.5.5-.5h16a.5.5 0 0 1 0 1H4a.5.5 0 0 1-.5-.5Z"/></svg>