<svg width="20" height="20" viewBox="0 0 20 20" xmlns="http://www.w3.org/2000/svg"><path d="M17.5 3c.28 0 .5.22.5.5v6a.5.5 0 0 1-1 0V5.88c-.21.2-.45.4-.71.59a.5.5 0 0 1-.58-.83c.47-.32.79-.64 1-.97.19-.33.29-.7.29-1.17 0-.28.22-.5.5-.5ZM2 8.5c0-.28.22-.5.5-.5h3c.28 0 .5.22.5.5 0 .8-.16 1.79-.67 2.64A3.93 3.93 0 0 1 2.6 13a.5.5 0 1 1-.2-.98 2.93 2.93 0 0 0 2.07-1.38c.3-.5.45-1.08.5-1.63H2.5a.5.5 0 0 1-.5-.5Zm6-3a.5.5 0 1 0-1 0v10a.5.5 0 0 0 1 0v-10Zm5.5-.5c.28 0 .5.22.5.5v10a.5.5 0 0 1-1 0v-10c0-.28.22-.5.5-.5ZM11 6.58a.5.5 0 1 0-1-.16l-1 6a.5.5 0 0 0 .58.57l2.5-.4a.5.5 0 1 0-.16-.98l-1.81.29.88-5.32Z"/></svg>