<svg width="24" height="24" viewBox="0 0 24 24" xmlns="http://www.w3.org/2000/svg"><path d="M20.5 7.26c-.2.18-.4.34-.6.48a.75.75 0 0 1-.84-1.25 3.55 3.55 0 0 0 1.46-1.9.75.75 0 0 1 1.48.16v6.5a.75.75 0 0 1-1.5 0V7.26ZM2 9.25c0-.41.34-.75.75-.75h3.5c.41 0 .75.34.75.75a7.3 7.3 0 0 1-.76 3.36 4.45 4.45 0 0 1-3.37 2.38.75.75 0 1 1-.24-1.48 2.95 2.95 0 0 0 2.29-1.6A5.3 5.3 0 0 0 5.46 10H2.75A.75.75 0 0 1 2 9.25Zm6-3v12a.75.75 0 0 0 1.5 0v-12a.75.75 0 0 0-1.5 0Zm8 12v-12a.75.75 0 0 1 1.5 0v12a.75.75 0 0 1-1.5 0ZM12.74 7.11a.75.75 0 0 0-1.48-.22l-1 7a.75.75 0 0 0 .85.85l3.5-.5a.75.75 0 0 0-.22-1.48l-2.5.36.85-6.01Z"/></svg>