<svg width="24" height="24" viewBox="0 0 24 24" xmlns="http://www.w3.org/2000/svg"><path d="M2.75 15c.38 0 .69.28.74.65v3.6l.01.13c.06.59.53 1.06 1.12 1.12h3.73a.75.75 0 0 1 0 1.5H4.58A2.75 2.75 0 0 1 2 19.43V15.65a.75.75 0 0 1 .75-.65Zm18.5 0c.38 0 .69.28.74.65v3.6A2.75 2.75 0 0 1 19.42 22h-3.66a.75.75 0 0 1-.1-1.5h3.6c.64 0 1.18-.49 1.24-1.12v-3.63c0-.41.34-.75.76-.75ZM18 11v4a3 3 0 0 1-2.82 3H9a3 3 0 0 1-3-2.82V11h12Zm-3-5a3 3 0 0 1 3 2.82V9.5H6V9a3 3 0 0 1 2.82-3H15ZM8.25 2a.75.75 0 0 1 .1 1.5h-3.6c-.65 0-1.18.5-1.25 1.12v3.63a.75.75 0 0 1-1.5.1v-3.6a2.75 2.75 0 0 1 2.58-2.74L4.75 2h3.5Zm11 0h.16A2.75 2.75 0 0 1 22 4.59v3.77a.75.75 0 0 1-1.49 0v-3.6l-.01-.13a1.25 1.25 0 0 0-1.12-1.11l-.12-.01h-3.6a.75.75 0 0 1 0-1.5h3.6Z"/></svg>