<svg width="20" height="20" viewBox="0 0 20 20" xmlns="http://www.w3.org/2000/svg"><path d="M2 6.75A2.75 2.75 0 014.75 4h10.5A2.75 2.75 0 0118 6.75v6.5A2.75 2.75 0 0115.25 16H4.75A2.75 2.75 0 012 13.25v-6.5zM4.75 5C3.78 5 3 5.78 3 6.75v6.5c0 .97.78 1.75 1.75 1.75h10.5c.97 0 1.75-.78 1.75-1.75v-6.5C17 5.78 16.22 5 15.25 5H4.75zM4 11.5c0-.28.22-.5.5-.5h7a.5.5 0 010 1h-7a.5.5 0 01-.5-.5zm.5 1.5a.5.5 0 000 1h3a.5.5 0 000-1h-3zm8.5-1.5c0-.28.22-.5.5-.5h2a.5.5 0 010 1h-2a.5.5 0 01-.5-.5zM9.5 13a.5.5 0 000 1h6a.5.5 0 000-1h-6z"/></svg>