<svg width="24" height="24" viewBox="0 0 24 24" xmlns="http://www.w3.org/2000/svg"><path d="M2 7.25C2 5.45 3.46 4 5.25 4h13.5C20.55 4 22 5.46 22 7.25v9.5c0 1.8-1.46 3.25-3.25 3.25H5.25A3.25 3.25 0 012 16.75v-9.5zM5.25 5.5c-.97 0-1.75.78-1.75 1.75v9.5c0 .97.78 1.75 1.75 1.75h13.5c.97 0 1.75-.78 1.75-1.75v-9.5c0-.97-.78-1.75-1.75-1.75H5.25zM5 13.25c0-.41.34-.75.75-.75h7.5a.75.75 0 010 1.5h-7.5a.75.75 0 01-.75-.75zm10.75-.75a.75.75 0 000 1.5h2.5a.75.75 0 000-1.5h-2.5zM5 16.25c0-.41.34-.75.75-.75h3.5a.75.75 0 010 1.5h-3.5a.75.75 0 01-.75-.75zm6.75-.75a.75.75 0 000 1.5h6.5a.75.75 0 000-1.5h-6.5z"/></svg>