<svg width="16" height="16" viewBox="0 0 16 16" xmlns="http://www.w3.org/2000/svg"><path d="M5 4a1 1 0 0 0-1 1v1.5a1 1 0 0 0 1 1h1.5a1 1 0 0 0 1-1V5a1 1 0 0 0-1-1H5Zm0 4.5a1 1 0 0 0-1 1V11a1 1 0 0 0 1 1h1.5a1 1 0 0 0 1-1V9.5a1 1 0 0 0-1-1H5ZM9.5 4a1 1 0 0 0-1 1v1.5a1 1 0 0 0 1 1H11a1 1 0 0 0 1-1V5a1 1 0 0 0-1-1H9.5Zm0 4.5a1 1 0 0 0-1 1V11a1 1 0 0 0 1 1H11a1 1 0 0 0 1-1V9.5a1 1 0 0 0-1-1H9.5ZM2 4.5A2.5 2.5 0 0 1 4.5 2h7A2.5 2.5 0 0 1 14 4.5v7a2.5 2.5 0 0 1-2.5 2.5h-7A2.5 2.5 0 0 1 2 11.5v-7ZM4.5 3C3.67 3 3 3.67 3 4.5v7c0 .83.67 1.5 1.5 1.5h7c.83 0 1.5-.67 1.5-1.5v-7c0-.83-.67-1.5-1.5-1.5h-7Z"/></svg>