<svg width="32" height="32" viewBox="0 0 32 32" xmlns="http://www.w3.org/2000/svg"><path d="M7 9.5A2.5 2.5 0 0 1 9.5 7h3A2.5 2.5 0 0 1 15 9.5v3a2.5 2.5 0 0 1-2.5 2.5h-3A2.5 2.5 0 0 1 7 12.5v-3ZM9.5 9a.5.5 0 0 0-.5.5v3c0 .28.22.5.5.5h3a.5.5 0 0 0 .5-.5v-3a.5.5 0 0 0-.5-.5h-3Zm0 8A2.5 2.5 0 0 0 7 19.5v3A2.5 2.5 0 0 0 9.5 25h3a2.5 2.5 0 0 0 2.5-2.5v-3a2.5 2.5 0 0 0-2.5-2.5h-3ZM9 19.5c0-.28.22-.5.5-.5h3c.28 0 .5.22.5.5v3a.5.5 0 0 1-.5.5h-3a.5.5 0 0 1-.5-.5v-3Zm8-10A2.5 2.5 0 0 1 19.5 7h3A2.5 2.5 0 0 1 25 9.5v3a2.5 2.5 0 0 1-2.5 2.5h-3a2.5 2.5 0 0 1-2.5-2.5v-3Zm2.5-.5a.5.5 0 0 0-.5.5v3c0 .28.22.5.5.5h3a.5.5 0 0 0 .5-.5v-3a.5.5 0 0 0-.5-.5h-3Zm0 8a2.5 2.5 0 0 0-2.5 2.5v3a2.5 2.5 0 0 0 2.5 2.5h3a2.5 2.5 0 0 0 2.5-2.5v-3a2.5 2.5 0 0 0-2.5-2.5h-3Zm-.5 2.5c0-.28.22-.5.5-.5h3c.28 0 .5.22.5.5v3a.5.5 0 0 1-.5.5h-3a.5.5 0 0 1-.5-.5v-3ZM3 7.5A4.5 4.5 0 0 1 7.5 3h17A4.5 4.5 0 0 1 29 7.5v17a4.5 4.5 0 0 1-4.5 4.5h-17A4.5 4.5 0 0 1 3 24.5v-17ZM7.5 5A2.5 2.5 0 0 0 5 7.5v17A2.5 2.5 0 0 0 7.5 27h17a2.5 2.5 0 0 0 2.5-2.5v-17A2.5 2.5 0 0 0 24.5 5h-17Z"/></svg>