<svg width="48" height="48" viewBox="0 0 48 48" xmlns="http://www.w3.org/2000/svg"><path d="M12 15.5a3.5 3.5 0 0 1 3.5-3.5h4a3.5 3.5 0 0 1 3.5 3.5v4a3.5 3.5 0 0 1-3.5 3.5h-4a3.5 3.5 0 0 1-3.5-3.5v-4Zm3.5-1a1 1 0 0 0-1 1v4a1 1 0 0 0 1 1h4a1 1 0 0 0 1-1v-4a1 1 0 0 0-1-1h-4Zm0 10.5a3.5 3.5 0 0 0-3.5 3.5v4a3.5 3.5 0 0 0 3.5 3.5h4a3.5 3.5 0 0 0 3.5-3.5v-4a3.5 3.5 0 0 0-3.5-3.5h-4Zm-1 3.5a1 1 0 0 1 1-1h4a1 1 0 0 1 1 1v4a1 1 0 0 1-1 1h-4a1 1 0 0 1-1-1v-4Zm10.5-13a3.5 3.5 0 0 1 3.5-3.5h4a3.5 3.5 0 0 1 3.5 3.5v4a3.5 3.5 0 0 1-3.5 3.5h-4a3.5 3.5 0 0 1-3.5-3.5v-4Zm3.5-1a1 1 0 0 0-1 1v4a1 1 0 0 0 1 1h4a1 1 0 0 0 1-1v-4a1 1 0 0 0-1-1h-4Zm0 10.5a3.5 3.5 0 0 0-3.5 3.5v4a3.5 3.5 0 0 0 3.5 3.5h4a3.5 3.5 0 0 0 3.5-3.5v-4a3.5 3.5 0 0 0-3.5-3.5h-4Zm-1 3.5a1 1 0 0 1 1-1h4a1 1 0 0 1 1 1v4a1 1 0 0 1-1 1h-4a1 1 0 0 1-1-1v-4ZM6 12.25C6 8.8 8.8 6 12.25 6h23.5C39.2 6 42 8.8 42 12.25v23.5C42 39.2 39.2 42 35.75 42h-23.5A6.25 6.25 0 0 1 6 35.75v-23.5Zm6.25-3.75a3.75 3.75 0 0 0-3.75 3.75v23.5a3.75 3.75 0 0 0 3.75 3.75h23.5a3.75 3.75 0 0 0 3.75-3.75v-23.5a3.75 3.75 0 0 0-3.75-3.75h-23.5Z"/></svg>