<svg width="32" height="32" viewBox="0 0 32 32" xmlns="http://www.w3.org/2000/svg"><path d="M9.5 7A2.5 2.5 0 0 0 7 9.5v3A2.5 2.5 0 0 0 9.5 15h3a2.5 2.5 0 0 0 2.5-2.5v-3A2.5 2.5 0 0 0 12.5 7h-3Zm0 10A2.5 2.5 0 0 0 7 19.5v3A2.5 2.5 0 0 0 9.5 25h3a2.5 2.5 0 0 0 2.5-2.5v-3a2.5 2.5 0 0 0-2.5-2.5h-3Zm10-10A2.5 2.5 0 0 0 17 9.5v3a2.5 2.5 0 0 0 2.5 2.5h3a2.5 2.5 0 0 0 2.5-2.5v-3A2.5 2.5 0 0 0 22.5 7h-3Zm0 10a2.5 2.5 0 0 0-2.5 2.5v3a2.5 2.5 0 0 0 2.5 2.5h3a2.5 2.5 0 0 0 2.5-2.5v-3a2.5 2.5 0 0 0-2.5-2.5h-3ZM3 7.5A4.5 4.5 0 0 1 7.5 3h17A4.5 4.5 0 0 1 29 7.5v17a4.5 4.5 0 0 1-4.5 4.5h-17A4.5 4.5 0 0 1 3 24.5v-17ZM7.5 5A2.5 2.5 0 0 0 5 7.5v17A2.5 2.5 0 0 0 7.5 27h17a2.5 2.5 0 0 0 2.5-2.5v-17A2.5 2.5 0 0 0 24.5 5h-17Z"/></svg>