<svg width="24" height="24" viewBox="0 0 24 24" xmlns="http://www.w3.org/2000/svg"><path d="M17 13.25c0-.97-.78-1.75-1.75-1.75h-6.5c-.42 0-.8.15-1.1.4L9.86 13H10v.07l.6.3c.36.18.67.44.9.76V13h3.75c.14 0 .25.11.25.25v1.25h-3.78c.17.34.26.71.26 1.1v.4h3.52v1.25c0 .14-.11.25-.25.25h-3.27V19h3.27c.97 0 1.75-.78 1.75-1.75v-4zm-5.13 7.25H18a.5.5 0 00.5-.5V10H14a2 2 0 01-2-2V3.5H6a.5.5 0 00-.5.5v7.4a2.5 2.5 0 00-.64.22l-.86.43V4c0-1.1.9-2 2-2h6.17a.6.6 0 01.08 0l.06.01c.22.02.43.06.63.14l.16.09c.02 0 .04.02.05.03l.05.02.08.05a2.07 2.07 0 01.3.25l5.83 5.82A2 2 0 0120 9.83V20a2 2 0 01-2 2h-7.43l.03-.02a2.5 2.5 0 001.27-1.48zM14 8.5h3.38L13.5 4.62V8c0 .28.22.5.5.5zM.98 19.75V15.6c0-.57.32-1.08.83-1.34l3.5-1.75a1.5 1.5 0 011.34 0l3.5 1.75c.5.26.83.77.83 1.34v4.15a1.5 1.5 0 01-.83 1.34l-3.5 1.75a1.5 1.5 0 01-1.34 0l-3.5-1.75a1.5 1.5 0 01-.83-1.34zm1.55-4.05a.5.5 0 00.23.67l2.72 1.36v2.95a.5.5 0 001 0v-2.95l2.72-1.36a.5.5 0 10-.44-.9l-2.78 1.4-2.78-1.4a.5.5 0 00-.67.23z"/></svg>