<svg width="20" height="20" viewBox="0 0 20 20" xmlns="http://www.w3.org/2000/svg"><path d="M11.5 17a.5.5 0 0 0 0-1h-3a.5.5 0 0 0 0 1h3Zm2.96-1.05a2 2 0 0 0 1.5-1.55.5.5 0 0 1 .59-.4.5.5 0 0 1 .38.66 3 3 0 0 1-2.34 2.29.5.5 0 0 1-.6-.4.5.5 0 0 1 .47-.6Zm2.47-10.61a.5.5 0 1 1-.98.2A2 2 0 0 0 14 4H6a2 2 0 0 0-1.95 1.6.5.5 0 0 1-.6.4.5.5 0 0 1-.38-.66A3 3 0 0 1 6 3h8a3 3 0 0 1 2.93 2.34ZM5.4 16.94a3 3 0 0 1-2.36-2.36.5.5 0 0 1 .4-.58.5.5 0 0 1 .6.46 2 2 0 0 0 1.55 1.5.5.5 0 0 1 .4.59.5.5 0 0 1-.59.4ZM3.5 8c.28 0 .5.22.5.5v3a.5.5 0 0 1-1 0v-3c0-.28.22-.5.5-.5Zm13.5.5a.5.5 0 0 0-1 0v3a.5.5 0 0 0 1 0v-3Z"/></svg>