<svg width="20" height="20" viewBox="0 0 20 20" xmlns="http://www.w3.org/2000/svg"><path d="M6 2a2 2 0 0 0-2 2v12c0 1.1.9 2 2 2h3v-1H6a1 1 0 0 1-1-1V4a1 1 0 0 1 1-1h4v3.5c0 .83.67 1.5 1.5 1.5H15v1.13c.32-.08.64-.12.97-.13H16V7.41c0-.4-.16-.78-.44-1.06l-3.91-3.91A1.5 1.5 0 0 0 10.59 2H6Zm8.8 5h-3.3a.5.5 0 0 1-.5-.5V3.2L14.8 7Zm-4.65 11.85c.1.1.21.15.35.15h2c.11 0 .2-.03.27-.07.07-.04.12-.1.15-.17a.86.86 0 0 0 .06-.24l.02-.25V18l.56-.02a.47.47 0 0 0 .3-.12c.07-.07.11-.17.12-.3L14 17c.5 0 .63.02.77-.07a.5.5 0 0 0 .15-.17.65.65 0 0 0 .07-.24c.03-.23.01-.46.01-.7.17.07.35.11.52.14a2.87 2.87 0 0 0 2.62-.86A3.11 3.11 0 0 0 19 13a2.94 2.94 0 0 0-.88-2.13 3 3 0 0 0-5.03 2.84l-2.94 2.94c-.1.1-.15.21-.15.35v1.5c0 .14.05.25.15.35Zm7.35-6.6c0 .41-.34.75-.75.75a.75.75 0 0 1-.75-.75c0-.41.34-.75.75-.75s.75.34.75.75Z"/></svg>