<svg width="20" height="20" viewBox="0 0 20 20" xmlns="http://www.w3.org/2000/svg"><path d="M9 6.5V2H5.5C4.67 2 4 2.67 4 3.5v5.7a5.5 5.5 0 0 1 6.8 6.8h2.7c.83 0 1.5-.67 1.5-1.5V8h-4.5A1.5 1.5 0 0 1 9 6.5ZM13.06 18H9.74c.26-.3.48-.64.66-1H13a3 3 0 0 0 3-3V8a1 1 0 0 1 1 1v5.06A3.94 3.94 0 0 1 13.06 18ZM10 6.5V2.25L14.75 7H10.5a.5.5 0 0 1-.5-.5Zm-9 8a4.5 4.5 0 1 0 9 0 4.5 4.5 0 0 0-9 0Zm6.5-3c.28 0 .5.22.5.5v1.5a.5.5 0 0 1-.5.5H6a.5.5 0 0 1 0-1h.47a1.99 1.99 0 0 0-2.38.34.5.5 0 0 1-.71-.71A3 3 0 0 1 7 12.15V12c0-.28.22-.5.5-.5Zm-.88 5.53A3 3 0 0 1 4 16.85V17a.5.5 0 0 1-1 0v-1.5c0-.28.22-.5.5-.5H5a.5.5 0 0 1 0 1h-.47a1.99 1.99 0 0 0 2.38-.34.5.5 0 0 1 .71.71 3 3 0 0 1-1 .66Z"/></svg>