<svg width="24" height="24" viewBox="0 0 24 24" xmlns="http://www.w3.org/2000/svg"><path d="M19 7.5a5.5 5.5 0 0 1-.2 1.5h1.61c.88 0 1.59.71 1.59 1.59v4.91a6.5 6.5 0 0 1-10.54 5.1l-1.18 1.18a.75.75 0 1 1-1.06-1.06l1.18-1.18a6.5 6.5 0 0 1-.95-1.66A6 6 0 0 1 2.25 12V7.51c0-.83.68-1.51 1.51-1.51h4.45a5.5 5.5 0 0 1 5.29-4h4.06c.8 0 1.44.65 1.44 1.44V7.5ZM9.72 6.18c1.7.43 3.1 1.58 3.88 3.1A6.5 6.5 0 0 1 15.5 9h1.7c.2-.46.3-.97.3-1.5v-4h-4a4 4 0 0 0-3.78 2.68Zm2.81 13.35a5 5 0 0 0 7.97-4.03v-4.91a.09.09 0 0 0-.09-.09H15.5a5 5 0 0 0-4.03 7.97l4.25-4.25a.75.75 0 1 1 1.06 1.06l-4.25 4.25ZM9 15.5c0-.6.08-1.17.23-1.71l-2.76-2.76a.75.75 0 1 1 1.06-1.06l2.32 2.32c.56-1 1.39-1.83 2.37-2.4A4.5 4.5 0 0 0 8.25 7.5H3.76l-.01.01V12a4.5 4.5 0 0 0 5.32 4.43c-.05-.3-.07-.62-.07-.93Z"/></svg>