<svg width="24" height="24" viewBox="0 0 24 24" xmlns="http://www.w3.org/2000/svg"><path d="M3 6.25C3 4.45 4.46 3 6.25 3h11.5C19.55 3 21 4.46 21 6.25v11.5c0 1.8-1.46 3.25-3.25 3.25H6.25A3.25 3.25 0 0 1 3 17.75V6.25Zm4.75 3a1 1 0 1 0 0-2 1 1 0 0 0 0 2Zm3.5-1.75a.75.75 0 0 0 0 1.5h5.5a.75.75 0 0 0 0-1.5h-5.5Zm0 3.75a.75.75 0 1 0 0 1.5h5.5a.75.75 0 1 0 0-1.5h-5.5Zm-.75 4.5c0 .41.34.75.75.75h5.5a.75.75 0 1 0 0-1.5h-5.5a.75.75 0 0 0-.75.75ZM8.75 12a1 1 0 1 0-2 0 1 1 0 0 0 2 0Zm-1 4.75a1 1 0 1 0 0-2 1 1 0 0 0 0 2Z"/></svg>