<svg width="32" height="32" viewBox="0 0 32 32" xmlns="http://www.w3.org/2000/svg"><path d="M12 10.5a1.5 1.5 0 1 1-3 0 1.5 1.5 0 0 1 3 0Zm0 5.5a1.5 1.5 0 1 1-3 0 1.5 1.5 0 0 1 3 0Zm-1.5 7a1.5 1.5 0 1 0 0-3 1.5 1.5 0 0 0 0 3ZM14 10.5a1 1 0 0 1 1-1h7a1 1 0 1 1 0 2h-7a1 1 0 0 1-1-1Zm1 4.5a1 1 0 1 0 0 2h7a1 1 0 1 0 0-2h-7Zm-1 6.5a1 1 0 0 1 1-1h7a1 1 0 1 1 0 2h-7a1 1 0 0 1-1-1ZM7.5 3A4.5 4.5 0 0 0 3 7.5v17A4.5 4.5 0 0 0 7.5 29h17a4.5 4.5 0 0 0 4.5-4.5v-17A4.5 4.5 0 0 0 24.5 3h-17ZM5 7.5A2.5 2.5 0 0 1 7.5 5h17A2.5 2.5 0 0 1 27 7.5v17a2.5 2.5 0 0 1-2.5 2.5h-17A2.5 2.5 0 0 1 5 24.5v-17Z"/></svg>