<svg width="48" height="48" viewBox="0 0 48 48" xmlns="http://www.w3.org/2000/svg"><path d="M6 12.25C6 8.8 8.8 6 12.25 6h23.5C39.2 6 42 8.8 42 12.25v23.5C42 39.2 39.2 42 35.75 42h-23.5A6.25 6.25 0 0 1 6 35.75v-23.5Zm11 3.5a2 2 0 1 0-4 0 2 2 0 0 0 4 0Zm0 8a2 2 0 1 0-4 0 2 2 0 0 0 4 0Zm-2 10a2 2 0 1 0 0-4 2 2 0 0 0 0 4Zm4-18c0 .69.56 1.25 1.25 1.25h13.5a1.25 1.25 0 1 0 0-2.5h-13.5c-.69 0-1.25.56-1.25 1.25Zm1.25 6.75a1.25 1.25 0 1 0 0 2.5h13.5a1.25 1.25 0 1 0 0-2.5h-13.5ZM19 31.75c0 .69.56 1.25 1.25 1.25h13.5a1.25 1.25 0 1 0 0-2.5h-13.5c-.69 0-1.25.56-1.25 1.25Z"/></svg>