<svg width="16" height="16" viewBox="0 0 16 16" xmlns="http://www.w3.org/2000/svg"><path d="M3.75 2C2.78 2 2 2.78 2 3.75v1c0 .49.2.93.53 1.25-.33.32-.53.76-.53 1.25v1.5c0 .49.2.93.53 1.25-.33.32-.53.76-.53 1.25v1c0 .97.78 1.75 1.75 1.75h8.5c.97 0 1.75-.78 1.75-1.75v-1c0-.49-.2-.93-.53-1.25.33-.32.53-.76.53-1.25v-1.5c0-.49-.2-.93-.53-1.25.33-.32.53-.76.53-1.25v-1C14 2.78 13.22 2 12.25 2h-8.5ZM3 11.25c0-.41.34-.75.75-.75H5V13H3.75a.75.75 0 0 1-.75-.75v-1ZM6 13v-2.5h6.25c.41 0 .75.34.75.75v1c0 .41-.34.75-.75.75H6Zm0-3.5v-3h6.25c.41 0 .75.34.75.75v1.5c0 .41-.34.75-.75.75H6Zm0-4V3h6.25c.41 0 .75.34.75.75v1c0 .41-.34.75-.75.75H6ZM5 3v2.5H3.75A.75.75 0 0 1 3 4.75v-1c0-.41.34-.75.75-.75H5Zm0 3.5v3H3.75A.75.75 0 0 1 3 8.75v-1.5c0-.41.34-.75.75-.75H5Z"/></svg>