<svg width="20" height="20" viewBox="0 0 20 20" xmlns="http://www.w3.org/2000/svg"><path d="M5 3a2 2 0 0 0-2 2v1a2 2 0 0 0 .68 1.5A2 2 0 0 0 3 9v2a2 2 0 0 0 .68 1.5A2 2 0 0 0 3 14v1c0 1.1.9 2 2 2h10a2 2 0 0 0 2-2v-1a2 2 0 0 0-.68-1.5A2 2 0 0 0 17 11V9a2 2 0 0 0-.68-1.5A2 2 0 0 0 17 6V5a2 2 0 0 0-2-2H5ZM4 14a1 1 0 0 1 1-1h2v3H5a1 1 0 0 1-1-1v-1Zm4 2v-3h7a1 1 0 0 1 1 1v1a1 1 0 0 1-1 1H8Zm0-4V8h7a1 1 0 0 1 1 1v2a1 1 0 0 1-1 1H8ZM7 8v4H5a1 1 0 0 1-1-1V9a1 1 0 0 1 1-1h2Zm0-1H5a1 1 0 0 1-1-1V5a1 1 0 0 1 1-1h2v3Zm1 0V4h7a1 1 0 0 1 1 1v1a1 1 0 0 1-1 1H8Z"/></svg>