<svg width="48" height="48" viewBox="0 0 48 48" xmlns="http://www.w3.org/2000/svg"><path d="M24 6.5a12 12 0 00-8.1 20.86 5.31 5.31 0 011.61 2.58l1.17 4.56h4.07v-13a1.25 1.25 0 012.5 0v13h4.07l1.17-4.57a5.31 5.31 0 011.6-2.57A12 12 0 0024 6.5zm-3.96 33.3c.25 1 1.15 1.7 2.18 1.7h3.56c1.03 0 1.93-.7 2.18-1.7l.72-2.8h-9.36l.72 2.8zM9.5 18.5a14.5 14.5 0 1124.28 10.7c-.45.41-.75.88-.87 1.35l-2.53 9.88a4.75 4.75 0 01-4.6 3.57h-3.56a4.75 4.75 0 01-4.6-3.57l-2.53-9.87a2.83 2.83 0 00-.87-1.36A14.47 14.47 0 019.5 18.5zm15.75-6.25a1.25 1.25 0 10-2.5 0v3.5a1.25 1.25 0 102.5 0v-3.5zm7.38 3.12c.49.48.49 1.28 0 1.76l-2.5 2.5a1.25 1.25 0 01-1.76-1.77l2.5-2.5a1.25 1.25 0 011.76 0zm-13 2.5a1.25 1.25 0 11-1.77 1.76l-2.5-2.5a1.25 1.25 0 111.77-1.76l2.5 2.5z"/></svg>