<svg width="20" height="20" viewBox="0 0 20 20" xmlns="http://www.w3.org/2000/svg"><path d="M9.85 3.03a1 1 0 00-1.23.71L5.78 14.3a1 1 0 00.71 1.22l5.42 1.46a1 1 0 001.22-.71L15.97 5.7a1 1 0 00-.7-1.22L9.84 3.03zm-2.2.45a2 2 0 012.46-1.41l5.41 1.45a2 2 0 011.41 2.45L14.1 16.52a2 2 0 01-2.45 1.41l-5.42-1.45a2 2 0 01-1.41-2.45L7.65 3.48zM12 7a1 1 0 100-2 1 1 0 000 2zm-1.25 7a1 1 0 11-2 0 1 1 0 012 0zM7.15 2H7a2 2 0 00-2 2v5.52L6 5.8V4a1 1 0 01.74-.97l.08-.29A2.51 2.51 0 017.15 2zM4.04 3.05C4 3.2 4 3.35 4 3.5v.64a1 1 0 00-.47 1.12L4 6.99v3.86L2.56 5.52a2 2 0 011.41-2.45l.06-.02z"/></svg>