<svg width="20" height="20" viewBox="0 0 20 20" xmlns="http://www.w3.org/2000/svg"><path d="M9.85 3.03a1 1 0 0 0-1.23.71L5.78 14.3a1 1 0 0 0 .71 1.22l5.42 1.46a1 1 0 0 0 1.22-.71L15.97 5.7a1 1 0 0 0-.7-1.22L9.84 3.03Zm-2.2.45a2 2 0 0 1 2.46-1.41l5.41 1.45a2 2 0 0 1 1.41 2.45L14.1 16.52a2 2 0 0 1-2.45 1.41l-5.42-1.45a2 2 0 0 1-1.41-2.45L7.65 3.48ZM12 7a1 1 0 1 0 0-2 1 1 0 0 0 0 2Zm-1.25 7a1 1 0 1 1-2 0 1 1 0 0 1 2 0ZM7.15 2H7a2 2 0 0 0-2 2v5.52L6 5.8V4a1 1 0 0 1 .74-.97l.08-.29A2.51 2.51 0 0 1 7.15 2ZM4.04 3.05C4 3.2 4 3.35 4 3.5v.64a1 1 0 0 0-.47 1.12L4 6.99v3.86L2.56 5.52a2 2 0 0 1 1.41-2.45l.06-.02Z"/></svg>