<svg width="16" height="16" viewBox="0 0 16 16" xmlns="http://www.w3.org/2000/svg"><path d="M12.75 5.51c.26 0 .48.13.62.33l.04.06a3.98 3.98 0 01.58 2.35A4.5 4.5 0 0012.5 8c0-.5-.14-.96-.4-1.34a.75.75 0 01.64-1.14zM8 12.5v-.06L7.55 12h.48c.06-.53.2-1.04.44-1.5h-.91l.72-.72.07-.09a.75.75 0 00-1.13-.97l-2 2-.08.08c-.22.3-.2.71.08.98l2 2 .08.07c.27.2.64.2.9 0A4.5 4.5 0 018 12.5zM7.72 2.22a.75.75 0 01.98-.07l.08.07 2 2 .07.08c.2.26.2.62.01.89l-.08.09-2 2-.08.07c-.26.2-.62.2-.89.01l-.09-.08-.07-.08a.75.75 0 01-.01-.88l.08-.1.72-.72H6a2.5 2.5 0 00-2.5 2.34V8c0 .42.1.82.29 1.17l.1.18c.07.11.11.24.11.38a.75.75 0 01-1.39.4A4 4 0 015.8 4L6 4h2.44l-.72-.72-.07-.09a.75.75 0 01.07-.97zM16 12.5a3.5 3.5 0 11-7 0 3.5 3.5 0 017 0zm-2.95-2.66a.62.62 0 00-.68.23c-.21.3-.58.73-1.1.98a.5.5 0 10.45.9c.3-.15.56-.34.78-.53v3.08a.5.5 0 001 0v-4.08a.61.61 0 00-.45-.58z"/></svg>