<svg width="24" height="24" viewBox="0 0 24 24" xmlns="http://www.w3.org/2000/svg"><path d="M14.71 2.29l-.08-.08a1 1 0 00-1.33.08l-.08.09a1 1 0 00.08 1.32L14.6 5H8.76a7 7 0 00-5.57 10.9 1 1 0 001.63-1.17l-.14-.22A5 5 0 019 7h5.6l-1.3 1.3-.08.08a1 1 0 001.5 1.33l3-3 .08-.1a1 1 0 00-.08-1.32l-3-3zm6.08 5.77a1 1 0 00-1.62 1.18c.44.66.72 1.42.8 2.25.74.3 1.41.74 1.99 1.28a7.07 7.07 0 00-1.17-4.71zM9.4 16.99h1.61a6.6 6.6 0 00.15 2H9.4l1.3 1.3.09.09a1 1 0 01-1.4 1.4l-.1-.08-3-3-.08-.09a1 1 0 010-1.23l.08-.1 3-3 .1-.07a1 1 0 011.22-.01l.1.08.08.1a1 1 0 010 1.22l-.08.1-1.3 1.29zM23 17.5a5.5 5.5 0 11-11 0 5.5 5.5 0 0111 0zm-4.89-3.49a.5.5 0 00-.56.27c-.05.11-.27.45-.61.82-.33.38-.74.74-1.16.95a.5.5 0 10.44.9c.5-.25.93-.62 1.28-.98v4.53a.5.5 0 001 0v-6a.5.5 0 00-.39-.49z"/></svg>