<svg width="24" height="24" viewBox="0 0 24 24" xmlns="http://www.w3.org/2000/svg"><path d="m14.61 2.47-.08-.07a.75.75 0 0 0-.98.07l-.07.08c-.22.3-.2.72.07.98l1.97 1.98H8.27a6.51 6.51 0 0 0-4.58 10.92l.07.06a.75.75 0 0 0 1.08-1.03l-.2-.23A5 5 0 0 1 8.5 7.02h6.88l-1.83 1.84-.07.07c-.22.3-.2.72.07 1 .3.29.77.29 1.06 0l3.18-3.2.07-.08c.22-.3.2-.72-.07-.99l-3.18-3.19Zm5.62 5.1a.75.75 0 0 0-1.05 1.07 5 5 0 0 1 1.31 3.09c.54.28 1.03.63 1.47 1.04a6.64 6.64 0 0 0-1.66-5.13l-.07-.07ZM8.56 17.05h2.46a6.6 6.6 0 0 0 .07 1.5H8.56l1.9 1.91.07.08c.22.3.2.72-.07.99a.75.75 0 0 1-.97.07l-.09-.07-3.18-3.2-.07-.07a.76.76 0 0 1 0-.9l.07-.09 3.18-3.2.08-.06c.26-.2.63-.2.9 0l.08.07.07.07c.2.27.2.64 0 .9l-.07.1-1.9 1.9ZM23 17.5a5.5 5.5 0 1 1-11 0 5.5 5.5 0 0 1 11 0Zm-4.89-3.49a.5.5 0 0 0-.56.27c-.05.11-.27.45-.61.82-.33.38-.74.74-1.16.95a.5.5 0 1 0 .44.9c.5-.25.93-.62 1.28-.98v4.53a.5.5 0 0 0 1 0v-6a.5.5 0 0 0-.39-.49Z"/></svg>