<svg width="20" height="20" viewBox="0 0 20 20" xmlns="http://www.w3.org/2000/svg"><path d="M16.5 6.67a.5.5 0 01.3.1l.08.07.01.02a4.98 4.98 0 011.08 3.72c-.31-.15-.64-.28-.98-.37a4 4 0 00-.88-2.73.5.5 0 01.39-.81zM10.2 14c-.08.32-.15.66-.18 1H6.7l1.65 1.65c.18.17.2.44.06.63l-.06.07a.5.5 0 01-.63.06l-.07-.06-2.5-2.5a.5.5 0 01-.06-.63l.06-.07 2.5-2.5a.5.5 0 01.76.63l-.06.07L6.72 14h.14L7 14h3.2zm1.45-11.35a.5.5 0 01.63-.06l.07.06 2.5 2.5.06.07a.5.5 0 010 .56l-.06.07-2.5 2.5-.07.06a.5.5 0 01-.56 0l-.07-.06-.06-.07a.5.5 0 010-.56l.06-.07L13.28 6h-.14L13 6H7a4 4 0 00-3.1 6.52c.06.09.1.2.1.31a.5.5 0 01-.9.3A4.99 4.99 0 016.77 5h6.52l-1.65-1.65-.06-.07a.5.5 0 01.06-.63zM20 15.5a4.5 4.5 0 11-9 0 4.5 4.5 0 019 0zm-3.95-2.66a.62.62 0 00-.68.23c-.21.3-.58.73-1.1.98a.5.5 0 10.45.9c.3-.15.56-.34.78-.53v3.08a.5.5 0 001 0v-4.08a.61.61 0 00-.45-.58z"/></svg>