<svg width="20" height="20" viewBox="0 0 20 20" xmlns="http://www.w3.org/2000/svg"><path d="M15.75 6.01c.18 0 .35.06.48.17a4.98 4.98 0 011.74 4.4c-.46-.23-.95-.4-1.47-.49V10a3.5 3.5 0 00-1.26-2.69.75.75 0 01.5-1.3zm-5.38 7.49c-.18.47-.3.98-.35 1.5H8.56l1.22 1.22c.27.27.3.68.08.98l-.08.08a.75.75 0 01-.97.07l-.09-.07-2.5-2.5a.75.75 0 01-.07-.98l.07-.08 2.5-2.5a.75.75 0 011.14.98l-.08.08-1.22 1.22h1.81zm-.15-10.78a.75.75 0 01.98-.07l.08.07 2.5 2.5.08.08c.19.26.2.62 0 .89l-.08.09-2.5 2.5-.08.07c-.26.2-.62.2-.88.01l-.1-.08-.07-.08a.75.75 0 010-.89l.07-.09 1.22-1.22H7a3.5 3.5 0 00-3.5 3.3v.2c0 1.08.5 2.05 1.26 2.7.15.13.24.32.24.54a.75.75 0 01-1.25.56A5 5 0 016.78 5h4.66l-1.22-1.22-.07-.08a.75.75 0 01.07-.98zM20 15.5a4.5 4.5 0 11-9 0 4.5 4.5 0 019 0zm-3.95-2.66a.62.62 0 00-.68.23c-.21.3-.58.73-1.1.98a.5.5 0 10.45.9c.3-.15.56-.34.78-.53v3.08a.5.5 0 001 0v-4.08a.61.61 0 00-.45-.58z"/></svg>