<svg width="16" height="16" viewBox="0 0 16 16" xmlns="http://www.w3.org/2000/svg"><path d="M12.9 5.24A3.99 3.99 0 0114 8.25a4.47 4.47 0 00-1-.22V8a3 3 0 00-.87-2.1.5.5 0 01.69-.72l.07.06zM8.25 11c-.12.32-.2.65-.23 1H6.7l1.15 1.15c.17.17.19.44.05.64l-.05.07a.5.5 0 01-.64.05l-.07-.05-2-2a.5.5 0 01-.06-.64l.06-.07 2-2a.5.5 0 01.76.63l-.05.07L6.7 11h1.55zm.52-8.91l.07.05 2 2 .06.08a.5.5 0 010 .56l-.05.07-2 2-.08.06a.5.5 0 01-.56 0l-.07-.05-.06-.07a.5.5 0 010-.57l.06-.07L9.29 5H6a3 3 0 00-3 2.82V8c0 .82.33 1.56.86 2.1a.5.5 0 01-.71.7A4 4 0 015.8 4h3.5L8.14 2.85l-.06-.07a.5.5 0 01.7-.7zM16 12.5a3.5 3.5 0 11-7 0 3.5 3.5 0 017 0zm-2.95-2.66a.62.62 0 00-.68.23c-.21.3-.58.73-1.1.98a.5.5 0 10.45.9c.3-.15.56-.34.78-.53v3.08a.5.5 0 001 0v-4.08a.61.61 0 00-.45-.58z"/></svg>