<svg width="24" height="24" viewBox="0 0 24 24" xmlns="http://www.w3.org/2000/svg"><path d="M20.03 12.2a2 2 0 0 1-.58.59l-6.05 4.08a2.5 2.5 0 0 1-2.8 0L4.55 12.8a2 2 0 0 1-.78-2.29l6.84 4.56c.79.52 1.8.56 2.62.1l.16-.1 6.84-4.56a2 2 0 0 1-.2 1.7Zm.2 1.55a2 2 0 0 1-.78 2.29l-6.05 4.08a2.5 2.5 0 0 1-2.8 0l-6.05-4.08a2 2 0 0 1-.78-2.29l6.84 4.56c.79.52 1.8.56 2.62.1l.16-.1 6.84-4.56ZM13.39 3.42l6.36 4.25a1 1 0 0 1 0 1.66l-6.36 4.25a2.5 2.5 0 0 1-2.78 0L4.25 9.33a1 1 0 0 1 0-1.66l6.36-4.25a2.5 2.5 0 0 1 2.78 0Zm-1.83 1.19-.11.06L5.7 8.5l5.74 3.83a1 1 0 0 0 .99.06l.11-.06L18.3 8.5l-5.74-3.83a1 1 0 0 0-.99-.06Z"/></svg>