<svg width="20" height="20" viewBox="0 0 20 20" xmlns="http://www.w3.org/2000/svg"><path d="M17.78 3.28a.75.75 0 0 0-1.06-1.06l-2.45 2.45a4.04 4.04 0 0 0-5.12.48l-.3.3a1.49 1.49 0 0 0 0 2.1l2.46 2.47a5.48 5.48 0 0 1 4.55-.85 4.04 4.04 0 0 0-.53-3.44l2.45-2.45ZM7.55 8.85l2.47 2.46a5.48 5.48 0 0 0-.85 4.55 4.04 4.04 0 0 1-3.44-.53l-2.45 2.45a.75.75 0 0 1-1.06-1.06l2.45-2.45a4.04 4.04 0 0 1 .48-5.12l.3-.3a1.49 1.49 0 0 1 2.1 0Zm3.09 5.07a2 2 0 0 0 1.43-2.48l-.16-.55c.25-.2.53-.37.82-.5l.34.36a2 2 0 0 0 2.9 0l.33-.35c.3.14.58.32.84.52l-.13.42a2 2 0 0 0 1.46 2.52l.35.09a4.7 4.7 0 0 1 0 1.01l-.45.12a2 2 0 0 0-1.43 2.48l.15.55c-.25.2-.53.37-.82.5l-.34-.36a2 2 0 0 0-2.9 0l-.33.35c-.3-.14-.58-.32-.84-.52l.13-.42a2 2 0 0 0-1.46-2.52l-.35-.09a4.71 4.71 0 0 1 0-1.01l.46-.12Zm2.86.58a1 1 0 1 0 2 0 1 1 0 0 0-2 0Z"/></svg>