<svg width="20" height="20" viewBox="0 0 20 20" xmlns="http://www.w3.org/2000/svg"><path d="M17.85 2.85a.5.5 0 0 0-.7-.7L14.48 4.8a4.04 4.04 0 0 0-5.33.34l-.3.3a1.49 1.49 0 0 0 0 2.1l2.46 2.47c.28-.2.58-.38.9-.52L9.55 6.85c-.19-.2-.19-.5 0-.7l.3-.3a3.04 3.04 0 0 1 5.01 3.16c.35.02.68.08 1 .16.37-1.23.15-2.6-.67-3.65l2.66-2.67Zm-10.3 6 2.47 2.46c-.2.28-.38.58-.52.9L6.85 9.55c-.2-.19-.5-.19-.7 0l-.3.3a3.04 3.04 0 0 0 3.16 5.01c.02.35.08.68.16 1-1.23.37-2.6.15-3.65-.67l-2.67 2.66a.5.5 0 0 1-.7-.7l2.66-2.67a4.04 4.04 0 0 1 .34-5.33l.3-.3a1.49 1.49 0 0 1 2.1 0Zm3.09 5.07a2 2 0 0 0 1.43-2.48l-.16-.55c.25-.2.53-.37.82-.5l.34.36a2 2 0 0 0 2.9 0l.33-.35c.3.14.58.32.84.52l-.13.42a2 2 0 0 0 1.46 2.52l.35.09a4.7 4.7 0 0 1 0 1.01l-.45.12a2 2 0 0 0-1.43 2.48l.15.55c-.25.2-.53.37-.82.5l-.34-.36a2 2 0 0 0-2.9 0l-.33.35c-.3-.14-.58-.32-.84-.52l.13-.42a2 2 0 0 0-1.46-2.52l-.35-.09a4.71 4.71 0 0 1 0-1.01l.46-.12Zm2.86.58a1 1 0 1 0 2 0 1 1 0 0 0-2 0Z"/></svg>