<svg width="24" height="24" viewBox="0 0 24 24" xmlns="http://www.w3.org/2000/svg"><path d="M19.49 5.57a5.97 5.97 0 0 1 .78 6.05 6.47 6.47 0 0 0-6.55.6L9.84 8.35c-.52-.52-.73-1.3-.38-1.95a6 6 0 0 1 8.96-1.89l2.29-2.29a.75.75 0 1 1 1.06 1.06l-2.29 2.3ZM11 17.5c0-1.41.45-2.72 1.21-3.78L8.36 9.85c-.52-.52-1.3-.73-1.95-.38a6 6 0 0 0-1.89 8.96l-2.29 2.29a.75.75 0 1 0 1.06 1.06l2.3-2.29a5.97 5.97 0 0 0 6.04.78A6.48 6.48 0 0 1 11 17.5Zm1.84-1.03a2 2 0 0 0 1.44-2.5l-.2-.68c.44-.38.94-.7 1.48-.91l.5.52a2 2 0 0 0 2.9 0l.5-.52c.54.23 1.04.54 1.48.93l-.19.63a2 2 0 0 0 1.45 2.5l.54.14a5.73 5.73 0 0 1 0 1.8l-.58.15a2 2 0 0 0-1.44 2.5l.2.68c-.44.38-.94.7-1.48.91l-.5-.52a2 2 0 0 0-2.9 0l-.5.52a5.28 5.28 0 0 1-1.48-.93l.19-.63a2 2 0 0 0-1.45-2.5l-.54-.14a5.72 5.72 0 0 1 0-1.8l.58-.15Zm3.21 1.03c0 .83.65 1.5 1.45 1.5.8 0 1.45-.67 1.45-1.5S18.3 16 17.5 16c-.8 0-1.45.67-1.45 1.5Z"/></svg>