<svg width="24" height="24" viewBox="0 0 24 24" xmlns="http://www.w3.org/2000/svg"><path d="M19.49 5.57a5.97 5.97 0 0 1 .78 6.05 6.45 6.45 0 0 0-1.43-.48 4.49 4.49 0 0 0-4.09-6.39 4.5 4.5 0 0 0-3.58 1.78c-.27.35-.19.83.12 1.14l3.8 3.8c-.5.19-.95.44-1.38.75L9.86 8.35c-.52-.52-.73-1.3-.38-1.95a6 6 0 0 1 8.96-1.89l2.29-2.29a.75.75 0 1 1 1.06 1.06l-2.29 2.3ZM8.35 9.85l3.87 3.87c-.3.42-.56.88-.76 1.36L7.67 11.3c-.31-.3-.8-.39-1.14-.12a4.5 4.5 0 0 0 4.6 7.67c.11.5.27.97.49 1.43a5.98 5.98 0 0 1-6.05-.78l-2.29 2.29a.75.75 0 0 1-1.06-1.06l2.29-2.3a5.97 5.97 0 0 1 1.9-8.95c.64-.35 1.42-.14 1.94.38Zm4.49 6.62a2 2 0 0 0 1.44-2.5l-.2-.68c.44-.38.94-.7 1.48-.91l.5.52a2 2 0 0 0 2.9 0l.5-.52c.54.23 1.04.54 1.48.93l-.19.63a2 2 0 0 0 1.45 2.5l.54.14a5.73 5.73 0 0 1 0 1.8l-.58.15a2 2 0 0 0-1.44 2.5l.2.68c-.44.38-.94.7-1.48.91l-.5-.52a2 2 0 0 0-2.9 0l-.5.52a5.28 5.28 0 0 1-1.48-.93l.19-.63a2 2 0 0 0-1.45-2.5l-.54-.14a5.72 5.72 0 0 1 0-1.8l.58-.15Zm3.21 1.03c0 .83.65 1.5 1.45 1.5.8 0 1.45-.67 1.45-1.5S18.3 16 17.5 16c-.8 0-1.45.67-1.45 1.5Z"/></svg>