<svg width="20" height="20" viewBox="0 0 20 20" xmlns="http://www.w3.org/2000/svg"><path d="M7 14v1.5A2.5 2.5 0 0 0 9.5 18h6a2.5 2.5 0 0 0 2.5-2.5v-6A2.5 2.5 0 0 0 15.5 7H14v1h1.5c.83 0 1.5.67 1.5 1.5v6c0 .83-.67 1.5-1.5 1.5h-6A1.5 1.5 0 0 1 8 15.5V14H7ZM2 4.5A2.5 2.5 0 0 1 4.5 2h6A2.5 2.5 0 0 1 13 4.5v6a2.5 2.5 0 0 1-2.5 2.5h-6A2.5 2.5 0 0 1 2 10.5v-6ZM4.5 3C3.67 3 3 3.67 3 4.5v.65L5.15 3H4.5Zm2.06 0L3 6.56v1.59L8.15 3H6.56ZM3 10.5c0 .23.05.45.15.65l8-8A1.5 1.5 0 0 0 10.5 3h-.94L3 9.56v.94ZM4.5 12h.8L12 5.3v-.8c0-.23-.05-.45-.15-.65l-8 8c.2.1.42.15.65.15Zm5.2 0h.8c.83 0 1.5-.67 1.5-1.5v-.8L9.7 12Zm-1.4 0L12 8.3V6.7L6.7 12h1.6Z"/></svg>