<svg width="16" height="16" viewBox="0 0 16 16" xmlns="http://www.w3.org/2000/svg"><path d="M10 3.5a.5.5 0 1 1 1 0 .5.5 0 0 1-1 0Zm.5-1.5a1.5 1.5 0 0 0-1.12 2.5l-.63 1.12a2.5 2.5 0 0 0-2.13.3l-.77-.77a1.5 1.5 0 1 0-.7.7l.76.77a2.49 2.49 0 0 0-.3 2.13l-1.12.63a1.5 1.5 0 1 0 .49.87l1.12-.62a2.5 2.5 0 0 0 2.2.85l.28.84a1.5 1.5 0 1 0 .95-.32l-.28-.83c.53-.31.94-.8 1.13-1.4l.66.07a1.5 1.5 0 1 0 .1-1l-.65-.07a2.5 2.5 0 0 0-.86-1.67l.62-1.12.25.02a1.5 1.5 0 0 0 0-3Zm-6 2a.5.5 0 1 1 0 1 .5.5 0 0 1 0-1Zm-1 6a.5.5 0 1 1 0 1 .5.5 0 0 1 0-1ZM9 12.5a.5.5 0 1 1 1 0 .5.5 0 0 1-1 0ZM12.5 8a.5.5 0 1 1 0 1 .5.5 0 0 1 0-1ZM8 6.5a1.5 1.5 0 1 1 0 3 1.5 1.5 0 0 1 0-3Z"/></svg>