<svg width="20" height="20" viewBox="0 0 20 20" xmlns="http://www.w3.org/2000/svg"><path d="M16 4a2 2 0 0 1-2.65 1.89l-1.28 1.94A3 3 0 0 1 13 9.99l1.17.2a2 2 0 1 1-.16.99l-1.17-.2a3.01 3.01 0 0 1-1.43 1.67l.45 1.36H12a2 2 0 1 1-1.1.31l-.44-1.35a3.02 3.02 0 0 1-2.87-1.18l-1.64.78A2 2 0 0 1 4 15a2 2 0 1 1 1.5-3.32l1.64-.79A3 3 0 0 1 7.77 8l-.93-1.17a2 2 0 1 1 .77-.63l.95 1.18a2.99 2.99 0 0 1 2.68-.1l1.28-1.94A2 2 0 1 1 16 4Zm-1 0a1 1 0 1 0-2 0 1 1 0 0 0 2 0ZM6 6a1 1 0 1 0 0-2 1 1 0 0 0 0 2Zm4 6a2 2 0 1 0 0-4 2 2 0 0 0 0 4Zm-5 1a1 1 0 1 0-2 0 1 1 0 0 0 2 0Zm8 3a1 1 0 1 0-2 0 1 1 0 0 0 2 0Zm3-4a1 1 0 1 0 0-2 1 1 0 0 0 0 2Z"/></svg>