<svg width="24" height="24" viewBox="0 0 24 24" xmlns="http://www.w3.org/2000/svg"><path d="M11.31 15.5c.18-.53.42-1.04.71-1.5H5.25C4.01 14 3 15 3 16.25v.58c0 .89.32 1.75.9 2.43C5.47 21.1 7.85 22 11 22c.6 0 1.17-.03 1.72-.1-.4-.42-.73-.9-1-1.42-.23.02-.47.02-.72.02-2.74 0-4.7-.74-5.96-2.21-.34-.41-.54-.93-.54-1.46v-.58c0-.41.34-.75.75-.75h6.06ZM11 2a5 5 0 1 1 0 10 5 5 0 0 1 0-10Zm0 1.5a3.5 3.5 0 1 0 0 7 3.5 3.5 0 0 0 0-7Zm12 14a5.5 5.5 0 1 1-11 0 5.5 5.5 0 0 1 11 0Zm-9.5 0a4 4 0 1 0 8 0 4 4 0 0 0-8 0Zm5-2a1 1 0 1 1-2 0 1 1 0 0 1 2 0Zm-.25 2.5a.75.75 0 0 0-1.5 0v1.75a.75.75 0 0 0 1.5 0V18Z"/></svg>