<svg width="48" height="48" viewBox="0 0 48 48" xmlns="http://www.w3.org/2000/svg"><path d="M16.5 10H14c.13-3.34 2.87-6 6.24-6h14.5c5.1 0 9.25 4.14 9.25 9.25v14.5c0 3.36-2.66 6.1-5.99 6.24v-2.5a3.75 3.75 0 003.49-3.74v-14.5a6.75 6.75 0 00-6.75-6.75h-14.5A3.75 3.75 0 0016.5 10zm-6.25 2A6.25 6.25 0 004 18.25v19.5C4 41.2 6.8 44 10.25 44h19.5C33.2 44 36 41.2 36 37.75v-19.5C36 14.8 33.2 12 29.75 12h-19.5zM6.5 18.25a3.75 3.75 0 013.75-3.75h19.5a3.75 3.75 0 013.75 3.75v19.5a3.75 3.75 0 01-3.75 3.75h-19.5a3.75 3.75 0 01-3.75-3.75v-19.5z"/></svg>