<svg width="28" height="28" viewBox="0 0 28 28" xmlns="http://www.w3.org/2000/svg"><path d="M8.62 5H7.07c.35-1.71 1.86-3 3.67-3h9.5A5.75 5.75 0 0126 7.75v9.5A3.75 3.75 0 0123 20.92v-1.55a2.25 2.25 0 001.5-2.12v-9.5c0-2.35-1.9-4.25-4.26-4.25h-9.5c-.98 0-1.81.63-2.12 1.5zM5.75 6A3.75 3.75 0 002 9.75v12.5A3.75 3.75 0 005.75 26h12.5A3.75 3.75 0 0022 22.25V9.75A3.75 3.75 0 0018.25 6H5.75zM3.5 9.75c0-1.24 1-2.25 2.25-2.25h12.5c1.24 0 2.25 1 2.25 2.25v12.5c0 1.24-1 2.25-2.25 2.25H5.75c-1.24 0-2.25-1-2.25-2.25V9.75z"/></svg>