<svg width="28" height="28" viewBox="0 0 28 28" xmlns="http://www.w3.org/2000/svg"><path d="M3.5 6.68V9h5.92c.33 0 .65-.13.89-.37l1.88-1.88-1.88-1.88a1.25 1.25 0 0 0-.89-.37H5.75c-1.22 0-2.21.97-2.25 2.18ZM2 9.83V6.75A3.75 3.75 0 0 1 5.75 3h3.67c.73 0 1.43.29 1.95.8l2.2 2.2h8.68A3.75 3.75 0 0 1 26 9.75v10.5A3.75 3.75 0 0 1 22.25 24H5.75A3.75 3.75 0 0 1 2 20.25V9.83Zm1.5.67v9.75c0 1.24 1.01 2.25 2.25 2.25h16.5c1.24 0 2.25-1 2.25-2.25V9.75c0-1.24-1-2.25-2.25-2.25h-8.69l-2.2 2.2c-.51.51-1.2.8-1.94.8H3.5Z"/></svg>