<svg width="20" height="20" viewBox="0 0 20 20" xmlns="http://www.w3.org/2000/svg"><path d="M2 6.75A2.75 2.75 0 014.75 4h10.5A2.75 2.75 0 0118 6.75v3.5a5.5 5.5 0 00-1-.65V6.75C17 5.78 16.22 5 15.25 5H4.75C3.78 5 3 5.78 3 6.75v6.5c0 .97.78 1.75 1.75 1.75h4.27c.03.34.1.68.19 1H4.75A2.75 2.75 0 012 13.25v-6.5zm10.07 4.7a2 2 0 01-1.44 2.47l-.46.12a4.73 4.73 0 00.01 1.01l.35.09A2 2 0 0112 17.66l-.13.42c.26.2.54.38.84.52l.32-.35a2 2 0 012.91 0l.34.36c.3-.13.57-.3.82-.5l-.15-.55a2 2 0 011.43-2.48l.46-.12a4.73 4.73 0 00-.01-1.01l-.35-.09A2 2 0 0117 11.34l.13-.42c-.26-.2-.54-.38-.84-.52l-.32.35a2 2 0 01-2.91 0l-.34-.36c-.3.13-.57.3-.82.5l.16.55zm2.43 4.05a1 1 0 110-2 1 1 0 010 2z"/></svg>