<svg width="24" height="24" viewBox="0 0 24 24" xmlns="http://www.w3.org/2000/svg"><path d="M5.25 4A3.25 3.25 0 002 7.25v9.5C2 18.55 3.46 20 5.25 20h6.25A6.5 6.5 0 0122 12.81V7.25C22 5.45 20.54 4 18.75 4H5.25zm9.03 9.98a2 2 0 01-1.44 2.5l-.59.14a5.73 5.73 0 000 1.8l.55.13a2 2 0 011.45 2.51l-.19.64c.44.38.94.7 1.49.92l.49-.52a2 2 0 012.9 0l.5.52a5.28 5.28 0 001.48-.91l-.2-.69a2 2 0 011.44-2.5l.59-.14a5.72 5.72 0 000-1.8l-.55-.13a2 2 0 01-1.45-2.51l.19-.63c-.44-.39-.94-.7-1.49-.93l-.49.52a2 2 0 01-2.9 0l-.5-.52c-.54.22-1.04.53-1.48.9l.2.7zM17.5 19c-.8 0-1.45-.67-1.45-1.5S16.7 16 17.5 16c.8 0 1.45.67 1.45 1.5S18.3 19 17.5 19z"/></svg>