<svg width="24" height="24" viewBox="0 0 24 24" xmlns="http://www.w3.org/2000/svg"><path d="M18.63 6.03A2.75 2.75 0 0015.97 4h-4.83c-.97 0-1.87.51-2.37 1.35L6.27 9.6l-2.19.54A2.75 2.75 0 002 12.81v1.69c0 1.1.65 2.05 1.59 2.5a3.25 3.25 0 006.25.25h4.82a3.25 3.25 0 006.32-.61A2.74 2.74 0 0022 14.5v-2.25c0-1.4-1.06-2.57-2.42-2.73l-.95-3.5zm-8.67 9.72a3.25 3.25 0 00-6.27-.6c-.12-.18-.19-.4-.19-.65v-1.69c0-.57.39-1.07.95-1.21l2.4-.6h12.4c.69 0 1.25.56 1.25 1.25v2.27a3.25 3.25 0 00-5.96 1.23H9.96zM13 9.5H8.07l2-3.39c.22-.38.63-.61 1.07-.61H13v4zm1.5-4h1.47c.57 0 1.06.38 1.2.92l.85 3.08H14.5v-4zm3.25 9a1.75 1.75 0 110 3.5 1.75 1.75 0 010-3.5zM8.5 16.25a1.75 1.75 0 11-3.5 0 1.75 1.75 0 013.5 0z"/></svg>