<svg width="24" height="24" viewBox="0 0 24 24" xmlns="http://www.w3.org/2000/svg"><path d="M18.63 6.03A2.75 2.75 0 0 0 15.97 4h-4.83c-.97 0-1.87.51-2.37 1.35L6.27 9.6l-2.19.54A2.75 2.75 0 0 0 2 12.81v1.69c0 1.1.65 2.05 1.59 2.5a3.25 3.25 0 0 0 6.25.25h4.82a3.25 3.25 0 0 0 6.32-.61A2.74 2.74 0 0 0 22 14.5v-2.25c0-1.4-1.06-2.57-2.42-2.73l-.95-3.5Zm-8.67 9.72a3.25 3.25 0 0 0-6.27-.6c-.12-.18-.19-.4-.19-.65v-1.69c0-.57.39-1.07.95-1.21l2.4-.6h12.4c.69 0 1.25.56 1.25 1.25v2.27a3.25 3.25 0 0 0-5.96 1.23H9.96ZM13 9.5H8.07l2-3.39c.22-.38.63-.61 1.07-.61H13v4Zm1.5-4h1.47c.57 0 1.06.38 1.2.92l.85 3.08H14.5v-4Zm3.25 9a1.75 1.75 0 1 1 0 3.5 1.75 1.75 0 0 1 0-3.5ZM8.5 16.25a1.75 1.75 0 1 1-3.5 0 1.75 1.75 0 0 1 3.5 0Z"/></svg>