<svg width="24" height="24" viewBox="0 0 24 24" xmlns="http://www.w3.org/2000/svg"><path d="M15.97 4c1.24 0 2.33.83 2.66 2.03l.95 3.49A2.75 2.75 0 0122 12.25v2.25c0 .86-.4 1.64-1.02 2.14a3.25 3.25 0 01-6.32.61H9.84a3.25 3.25 0 01-6.25-.26A2.75 2.75 0 012 14.5v-1.69c0-1.26.86-2.36 2.08-2.67l2.19-.54 2.5-4.25c.5-.84 1.4-1.35 2.37-1.35h4.83zm1.2 2.42a1.25 1.25 0 00-1.2-.92H14.5v4h3.52l-.84-3.08zM13 9.5v-4h-1.86c-.44 0-.85.23-1.07.61l-2 3.39H13zm4.75 5a1.75 1.75 0 100 3.5 1.75 1.75 0 000-3.5zM8.5 16.25a1.75 1.75 0 10-3.5 0 1.75 1.75 0 003.5 0z"/></svg>