<svg width="24" height="24" viewBox="0 0 24 24" xmlns="http://www.w3.org/2000/svg"><path d="M6 1.75a.75.75 0 00-1.5 0v.5c0 1.24 1 2.25 2.25 2.25h10c1.24 0 2.25-1 2.25-2.25v-.5a.75.75 0 00-1.5 0v.5c0 .41-.34.75-.75.75h-10A.75.75 0 016 2.25v-.5zM11.75 6c.41 0 .75.34.75.75v8.69l3.72-3.72a.75.75 0 111.06 1.06l-5 5c-.3.3-.77.3-1.06 0l-5-5a.75.75 0 111.06-1.06L11 15.44V6.75c0-.41.34-.75.75-.75zM4.5 21.75c0-1.24 1-2.25 2.25-2.25h10c1.24 0 2.25 1 2.25 2.25v.5a.75.75 0 01-1.5 0v-.5a.75.75 0 00-.75-.75h-10a.75.75 0 00-.75.75v.5a.75.75 0 01-1.5 0v-.5z"/></svg>