<svg width="24" height="24" viewBox="0 0 24 24" xmlns="http://www.w3.org/2000/svg"><path d="M8 7.75v5.5c0 .6.66.95 1.15.63l4.62-2.96a.5.5 0 000-.84L9.15 7.12A.75.75 0 008 7.75zM5.25 3A3.25 3.25 0 002 6.25v9c0 1.8 1.46 3.25 3.25 3.25h10.5c1.8 0 3.25-1.46 3.25-3.25v-9C19 4.45 17.54 3 15.75 3H5.25zM3.5 6.25c0-.97.78-1.75 1.75-1.75h10.5c.97 0 1.75.78 1.75 1.75v9c0 .97-.78 1.75-1.75 1.75H5.25c-.97 0-1.75-.78-1.75-1.75v-9zM5.01 19.5c.58.9 1.59 1.5 2.74 1.5h8.5c2.9 0 5.25-2.35 5.25-5.25v-7c0-1.15-.6-2.16-1.5-2.74v9.74a3.75 3.75 0 01-3.75 3.75H5.01z"/></svg>