<svg width="16" height="16" viewBox="0 0 16 16" xmlns="http://www.w3.org/2000/svg"><path d="m13.02 13.72 1.13 1.13a.5.5 0 0 0 .7-.7l-13-13a.5.5 0 1 0-.7.7L4.29 5H4a2 2 0 0 0-2 2v5c0 1.1.9 2 2 2h8a2 2 0 0 0 1.02-.28Zm-.76-.75A1 1 0 0 1 12 13H4a1 1 0 0 1-1-1V9.5c.42.31.94.5 1.5.5H7v.5c0 .28.22.5.5.5h1a.5.5 0 0 0 .5-.5V10h.3l2.96 2.97ZM7.32 8.03A.5.5 0 0 0 7 8.5V9H4.5A1.5 1.5 0 0 1 3 7.5V7a1 1 0 0 1 1-1h1.3l2.02 2.03ZM11.5 9h-.38l.94.94c.35-.08.66-.23.94-.44v1.38l1 1V7a2 2 0 0 0-2-2h-1V3.5c0-.83-.67-1.5-1.5-1.5h-3c-.64 0-1.2.4-1.4.97l.9.9V3.5c0-.28.22-.5.5-.5h3c.28 0 .5.22.5.5V5H7.12l1 1H12a1 1 0 0 1 1 1v.5c0 .83-.67 1.5-1.5 1.5Z"/></svg>