<svg width="20" height="20" viewBox="0 0 20 20" xmlns="http://www.w3.org/2000/svg"><path d="M4.5 5.2A2.5 2.5 0 0 0 3 7.5v1c0 .83.67 1.5 1.5 1.5H9v-.3l1.97 1.98a.5.5 0 0 1-.47.32h-1a.5.5 0 0 1-.5-.5V11H4.5c-.56 0-1.08-.19-1.5-.5v3A2.5 2.5 0 0 0 5.5 16h9c.24 0 .47-.03.7-.1l1.95 1.95a.5.5 0 0 0 .7-.7l-15-15a.5.5 0 1 0-.7.7L4.5 5.21Zm8.62 5.8 3.62 3.62c.17-.34.26-.72.26-1.12v-3c-.42.31-.94.5-1.5.5h-2.38ZM7 4.88 12.12 10h3.38c.83 0 1.5-.67 1.5-1.5v-1A2.5 2.5 0 0 0 14.5 5H13V3.75C13 2.78 12.22 2 11.25 2h-2.5C7.78 2 7 2.78 7 3.75v1.13ZM8 5V3.75c0-.41.34-.75.75-.75h2.5c.41 0 .75.34.75.75V5H8Z"/></svg>