<svg width="20" height="20" viewBox="0 0 20 20" xmlns="http://www.w3.org/2000/svg"><path d="M4.5 5.2 2.15 2.86a.5.5 0 1 1 .7-.7l15 15a.5.5 0 0 1-.7.7L15.2 15.9c-.23.07-.46.1-.7.1h-9A2.5 2.5 0 0 1 3 13.5v-6c0-1.03.62-1.9 1.5-2.3Zm9.8 9.8-3.33-3.32a.5.5 0 0 1-.47.32h-1a.5.5 0 0 1-.5-.5V11H5.5c-.56 0-1.08-.19-1.5-.5v3c0 .83.67 1.5 1.5 1.5h8.8ZM9 9.7 5.3 6.02c-.73.1-1.3.73-1.3 1.49v1c0 .83.67 1.5 1.5 1.5H9v-.3Zm5.5.3h-2.38l1 1h1.38c.56 0 1.08-.19 1.5-.5v3c0 .12-.01.23-.04.34l.78.78c.17-.34.26-.72.26-1.12v-6A2.5 2.5 0 0 0 14.5 5H13V3.75C13 2.78 12.22 2 11.25 2h-2.5C7.78 2 7 2.78 7 3.75v1.13L8.12 6h6.38c.83 0 1.5.67 1.5 1.5v1c0 .83-.67 1.5-1.5 1.5ZM8 3.75c0-.41.34-.75.75-.75h2.5c.41 0 .75.34.75.75V5H8V3.75Z"/></svg>