<svg width="24" height="24" viewBox="0 0 24 24" xmlns="http://www.w3.org/2000/svg"><path d="M5.14 6.2A3.25 3.25 0 0 0 3 9.25v1.5c0 .97.78 1.75 1.75 1.75H10V12c0-.26.1-.5.26-.68l3.42 3.42A1 1 0 0 1 13 15h-2a1 1 0 0 1-1-1H4.75c-.64 0-1.24-.19-1.75-.51v3.26C3 18.55 4.46 20 6.25 20h11.5c.36 0 .7-.06 1.02-.16l1.95 1.94a.75.75 0 0 0 1.06-1.06L3.28 2.22a.75.75 0 1 0-1.06 1.06L5.14 6.2ZM17.18 14l3.68 3.68c.1-.3.14-.6.14-.93v-3.26c-.5.32-1.1.51-1.75.51h-2.07ZM8 4.82l7.68 7.68h3.57c.97 0 1.75-.78 1.75-1.75v-1.5C21 7.45 19.54 6 17.75 6H16V4.25C16 3.01 15 2 13.75 2h-3.5C9.01 2 8 3 8 4.25v.57Zm2.25-1.32h3.5c.41 0 .75.34.75.75V6h-5V4.25c0-.41.34-.75.75-.75Z"/></svg>