<svg width="24" height="24" viewBox="0 0 24 24" xmlns="http://www.w3.org/2000/svg"><path d="M5.14 6.2 2.22 3.28a.75.75 0 1 1 1.06-1.06l18.5 18.5a.75.75 0 0 1-1.06 1.06l-1.95-1.94c-.32.1-.66.16-1.02.16H6.25A3.25 3.25 0 0 1 3 16.75v-8c0-.16.05-.3.13-.43a3.26 3.26 0 0 1 2-2.12Zm12.3 12.3-4.12-4.12a.5.5 0 0 1-.32.12h-2a.5.5 0 0 1-.5-.5H6.25c-.64 0-1.24-.19-1.75-.51v3.26c0 .97.78 1.75 1.75 1.75h11.19Zm-6.82-6.82L6.44 7.5h-.19c-.97 0-1.75.78-1.75 1.75v1.5c0 .97.78 1.75 1.75 1.75h4.25V12a.5.5 0 0 1 .12-.32Zm7.13.82h-2.07l1.5 1.5h.57c.64 0 1.24-.19 1.75-.51v2.83l1.36 1.36c.1-.3.14-.6.14-.93v-8c0-.16-.05-.3-.13-.43A3.25 3.25 0 0 0 17.75 6H16V4.25C16 3.01 15 2 13.75 2h-3.5C9.01 2 8 3 8 4.25v.57l2.68 2.68h7.07c.97 0 1.75.78 1.75 1.75v1.5c0 .97-.78 1.75-1.75 1.75ZM9.5 4.25c0-.41.34-.75.75-.75h3.5c.41 0 .75.34.75.75V6h-5V4.25Z"/></svg>