<svg width="28" height="28" viewBox="0 0 28 28" xmlns="http://www.w3.org/2000/svg"><path d="M3.28 2.22a.75.75 0 1 0-1.06 1.06l3.8 3.8C4.3 7.41 3 8.92 3 10.74v2.13A2.25 2.25 0 0 0 5.25 15h6.25c0-.66.43-1.22 1.02-1.42l3.9 3.9A1.5 1.5 0 0 1 15 18.5h-2a1.5 1.5 0 0 1-1.5-1.5v-.5H5.25c-.84 0-1.62-.28-2.25-.75v4.5A3.75 3.75 0 0 0 6.75 24h14.5c.5 0 .98-.1 1.41-.28l2.06 2.06a.75.75 0 0 0 1.06-1.06L3.28 2.22ZM9 5.82 18.18 15h4.57c1.24 0 2.25-1 2.25-2.25v-2A3.75 3.75 0 0 0 21.25 7H19V4.75c0-1.24-1-2.25-2.25-2.25h-5.5C10.01 2.5 9 3.5 9 4.75v1.07ZM19.68 16.5l5.08 5.08c.16-.42.24-.86.24-1.33v-4.5c-.63.47-1.4.75-2.25.75h-3.07ZM10.5 4.75c0-.41.34-.75.75-.75h5.5c.41 0 .75.34.75.75V7h-7V4.75Z"/></svg>