<svg width="28" height="28" viewBox="0 0 28 28" xmlns="http://www.w3.org/2000/svg"><path d="M3.28 2.22a.75.75 0 0 0-1.06 1.06L6.94 8h-.19A3.75 3.75 0 0 0 3 11.75v8.5A3.75 3.75 0 0 0 6.75 24h14.5c.5 0 .98-.1 1.41-.28l2.06 2.06a.75.75 0 1 0 1.06-1.06L3.28 2.22Zm18.15 20.27-.18.01H6.75c-1.24 0-2.25-1-2.25-2.25v-8.5c0-1.24 1-2.25 2.25-2.25h1.69l13 13Zm2.07-2.24v.07l1.26 1.26c.15-.42.24-.86.24-1.33v-8.5A3.75 3.75 0 0 0 21.25 8H19V3.75a.75.75 0 0 0-.75-.75h-8.5a.75.75 0 0 0-.75.75v2.07l1.5 1.5V4.5h7V8h-6.32l1.5 1.5h8.57c1.24 0 2.25 1 2.25 2.25v8.5Z"/></svg>