<svg width="28" height="28" viewBox="0 0 28 28" xmlns="http://www.w3.org/2000/svg"><path d="M3.28 2.22a.75.75 0 1 0-1.06 1.06l3.8 3.8C4.3 7.41 3 8.92 3 10.74v9.5A3.75 3.75 0 0 0 6.75 24h14.5c.5 0 .98-.1 1.41-.28l2.06 2.06a.75.75 0 0 0 1.06-1.06L3.28 2.22Zm18.15 20.27-.18.01H6.75c-1.24 0-2.25-1-2.25-2.25v-4.5c.63.47 1.4.75 2.25.75h4.75v.5c0 .83.67 1.5 1.5 1.5h2a1.5 1.5 0 0 0 1.42-1.02l5.01 5.01Zm-8.91-8.91c-.6.2-1.02.76-1.02 1.42H6.75c-1.2 0-2.18-.94-2.25-2.12v-2.13c0-1.24 1.01-2.25 2.25-2.25h.69l5.08 5.08ZM9 5.82l2.68 2.68h9.57c1.24 0 2.25 1 2.25 2.25v2c0 1.24-1 2.25-2.25 2.25h-3.07l1.5 1.5h1.57c.84 0 1.62-.28 2.25-.75v4.57l1.26 1.26c.16-.42.24-.86.24-1.33v-9.5A3.75 3.75 0 0 0 21.25 7H19V4.75c0-1.24-1-2.25-2.25-2.25h-5.5C10.01 2.5 9 3.5 9 4.75v1.07ZM11.25 4h5.5c.41 0 .75.34.75.75V7h-7V4.75c0-.41.34-.75.75-.75Z"/></svg>