<svg width="32" height="32" viewBox="0 0 32 32" xmlns="http://www.w3.org/2000/svg"><path d="m26.24 27.65 2.05 2.06a1 1 0 0 0 1.42-1.42l-26-26a1 1 0 0 0-1.42 1.42l4.37 4.37A4.5 4.5 0 0 0 3 12.5V14a3 3 0 0 0 3 3h7v-.5c0-.56.31-1.06.77-1.31l5.04 5.04a1.5 1.5 0 0 1-1.31.77h-3a1.5 1.5 0 0 1-1.5-1.5V19H6a4.98 4.98 0 0 1-3-1v5.5A4.5 4.5 0 0 0 7.5 28h17c.62 0 1.2-.12 1.74-.35ZM22.54 19l6.15 6.15c.2-.5.31-1.07.31-1.65V18c-.84.63-1.87 1-3 1h-3.46ZM10 6.47 20.53 17H26a3 3 0 0 0 3-3v-1.5A4.5 4.5 0 0 0 24.5 8H22V6a3 3 0 0 0-3-3h-6a3 3 0 0 0-3 3v.47ZM13 5h6a1 1 0 0 1 1 1v2h-8V6a1 1 0 0 1 1-1Z"/></svg>