<svg width="32" height="32" viewBox="0 0 32 32" xmlns="http://www.w3.org/2000/svg"><path d="m26.24 27.65 2.05 2.06a1 1 0 0 0 1.42-1.42l-26-26a1 1 0 0 0-1.42 1.42l4.37 4.37A4.5 4.5 0 0 0 3 12.5v11A4.5 4.5 0 0 0 7.5 28h17c.62 0 1.2-.12 1.74-.35ZM24.58 26H7.5A2.5 2.5 0 0 1 5 23.5V18c.84.63 1.87 1 3 1h5v.5c0 .83.67 1.5 1.5 1.5h3a1.5 1.5 0 0 0 1.31-.77L24.58 26Zm-10.8-10.81A1.5 1.5 0 0 0 13 16.5v.5H8a3 3 0 0 1-3-3v-1.5A2.5 2.5 0 0 1 7.5 10h1.09l5.18 5.19ZM24 17h-3.47l2 2H24c1.13 0 2.16-.37 3-1v5.47l1.69 1.68c.2-.5.31-1.07.31-1.65v-11A4.5 4.5 0 0 0 24.5 8H22V6a3 3 0 0 0-3-3h-6a3 3 0 0 0-3 3v.47L13.53 10H24.5a2.5 2.5 0 0 1 2.5 2.5V14a3 3 0 0 1-3 3ZM13 5h6a1 1 0 0 1 1 1v2h-8V6a1 1 0 0 1 1-1Z"/></svg>