<svg width="48" height="48" viewBox="0 0 48 48" xmlns="http://www.w3.org/2000/svg"><path d="M42 33.75c0 1.06-.26 2.05-.73 2.93l-1.9-1.92c.08-.32.13-.66.13-1.01v-7A6.22 6.22 0 0 1 35.75 28H32.6l-2.5-2.5h5.65a3.75 3.75 0 0 0 3.75-3.75v-3.5a3.75 3.75 0 0 0-3.75-3.75H19.1L16 11.4V8.25C16 5.9 17.9 4 20.25 4h7.5C30.1 4 32 5.9 32 8.25V12h3.75C39.2 12 42 14.8 42 18.25v15.5ZM21.34 23.11A2 2 0 0 0 20 25v.5h-7.75a3.75 3.75 0 0 1-3.75-3.75v-3.5a3.75 3.75 0 0 1 3.75-3.75h.48l8.61 8.61ZM10.48 12.25a6.25 6.25 0 0 0-4.48 6v15.5C6 37.2 8.8 40 12.25 40h23.5c.74 0 1.45-.13 2.12-.37l4 4a1.25 1.25 0 0 0 1.76-1.76L6.13 4.37a1.25 1.25 0 1 0-1.76 1.76l6.11 6.12ZM35.73 37.5H12.25a3.75 3.75 0 0 1-3.75-3.75v-7A6.22 6.22 0 0 0 12.25 28H20v1c0 1.1.9 2 2 2h4a2 2 0 0 0 1.89-1.34l7.84 7.84ZM18.5 8.25V12h11V8.25c0-.97-.78-1.75-1.75-1.75h-7.5c-.97 0-1.75.78-1.75 1.75Z"/></svg>