<svg width="16" height="16" viewBox="0 0 16 16" xmlns="http://www.w3.org/2000/svg"><path d="m5.76 7.02 1.07-.98a2 2 0 0 0 .52-2.18l-.46-1.22a1.92 1.92 0 0 0-2.35-1.16C2.82 2.01 1.5 3.6 1.9 5.5a15.9 15.9 0 0 0 4.77 8.24c1.44 1.31 3.49.98 4.8-.25.74-.68.81-1.82.18-2.6l-.84-1.01a2 2 0 0 0-2.15-.64l-1.39.44a6.63 6.63 0 0 1-.93-1.22 6.27 6.27 0 0 1-.6-1.43Zm8.6-5.37c.19.2.19.5 0 .7L12.7 4l1.64 1.65a.5.5 0 0 1-.7.7L12 4.71l-1.65 1.64a.5.5 0 0 1-.7-.7L11.29 4 9.65 2.35a.5.5 0 1 1 .7-.7L12 3.29l1.65-1.64c.2-.2.5-.2.7 0Z"/></svg>