<svg width="24" height="24" viewBox="0 0 24 24" xmlns="http://www.w3.org/2000/svg"><path d="M12.01 2.25c.74 0 1.47.1 2.18.25.32.07.55.33.59.65l.17 1.53a1.38 1.38 0 0 0 1.92 1.11l1.4-.61c.3-.13.64-.06.85.17a9.8 9.8 0 0 1 2.2 3.8c.1.3 0 .63-.26.82l-1.25.92a1.38 1.38 0 0 0 0 2.22l1.25.92c.26.19.36.52.27.82a9.8 9.8 0 0 1-2.2 3.8.75.75 0 0 1-.85.17l-1.4-.62a1.38 1.38 0 0 0-1.93 1.12l-.17 1.52a.75.75 0 0 1-.58.65 9.52 9.52 0 0 1-4.4 0 .75.75 0 0 1-.57-.65l-.17-1.52a1.38 1.38 0 0 0-1.93-1.11l-1.4.62a.75.75 0 0 1-.85-.18 9.8 9.8 0 0 1-2.2-3.8c-.1-.3 0-.63.26-.82l1.25-.92a1.38 1.38 0 0 0 0-2.22l-1.24-.92a.75.75 0 0 1-.28-.82 9.8 9.8 0 0 1 2.2-3.8c.23-.23.57-.3.86-.17l1.4.62c.4.17.86.15 1.25-.08.38-.22.63-.6.68-1.04l.17-1.53a.75.75 0 0 1 .58-.65c.72-.16 1.45-.24 2.2-.25ZM12 9a3 3 0 1 0 0 6 3 3 0 0 0 0-6Z"/></svg>