<svg width="16" height="16" viewBox="0 0 16 16" xmlns="http://www.w3.org/2000/svg"><path d="M12.03 5.78a.5.5 0 0 0 0-.71l-1.1-1.1a.5.5 0 1 0-.7.7l1.1 1.1c.2.2.5.2.7 0Zm-5.88 5.17a.5.5 0 1 1-.7.71l-1.1-1.1a.5.5 0 1 1 .7-.7l1.1 1.1Zm8.11-9.2a1.34 1.34 0 0 0-1.89 0l-.49.5-.16-.17a1.67 1.67 0 0 0-2.55.22 2.03 2.03 0 0 0-1.82 3.43l.52.53-1.61 1.6-.53-.51A2.04 2.04 0 0 0 2.3 9.18a1.68 1.68 0 0 0-.22 2.54l.16.16-.5.5a1.34 1.34 0 0 0 1.89 1.9l.5-.5.17.16a1.67 1.67 0 0 0 2.54-.22 2.03 2.03 0 0 0 1.83-3.44l-.52-.52 1.61-1.61.52.52a2.04 2.04 0 0 0 3.44-1.83 1.67 1.67 0 0 0 .22-2.54l-.17-.16.5-.5c.51-.52.51-1.36 0-1.89Zm-1.2 1.68-.47-.48.49-.49a.34.34 0 0 1 .48.48l-.5.49Zm-4 4.01L7.43 9.05l-.48-.47 1.62-1.62.47.48Zm-5.63 5.63-.5.5a.34.34 0 0 1-.48-.48l.5-.5.48.48Zm6.63-10.28a.67.67 0 0 1 .95 0L13.23 5a.67.67 0 0 1-.26 1.1.5.5 0 0 0-.3.69 1.04 1.04 0 0 1-1.68 1.16L8.05 5.03a1.04 1.04 0 0 1 1.17-1.68.5.5 0 0 0 .68-.3c.03-.1.09-.18.16-.26Zm-6.5 5.26c.4-.4 1.06-.4 1.47 0L7.96 11a1.04 1.04 0 0 1-1.16 1.68.5.5 0 0 0-.68.3.67.67 0 0 1-1.1.26l-2.23-2.22a.67.67 0 0 1 .26-1.1.5.5 0 0 0 .3-.7c-.17-.38-.1-.84.21-1.16Z"/></svg>