<svg width="24" height="24" viewBox="0 0 24 24" xmlns="http://www.w3.org/2000/svg"><path d="M17.77 7.8a.75.75 0 1 1-1.07 1.06L15.14 7.3a.75.75 0 1 1 1.06-1.06l1.57 1.57Zm-8.38 9.44c.3-.3.3-.77 0-1.07L7.82 14.6a.75.75 0 1 0-1.06 1.07l1.57 1.57c.3.29.77.29 1.06 0ZM20.94 3.08a1.94 1.94 0 0 0-2.75 0l-.67.68-.2-.21a2.41 2.41 0 0 0-3.67.29 2.93 2.93 0 0 0-2.61 4.96l.72.72-2.24 2.24-.72-.72a2.94 2.94 0 0 0-4.96 2.61l-.3.25a2.41 2.41 0 0 0 0 3.42l.21.2-.69.7a1.94 1.94 0 0 0 2.75 2.74l.69-.7.2.22a2.41 2.41 0 0 0 3.67-.3 2.93 2.93 0 0 0 2.61-4.96l-.72-.72 2.24-2.24.72.72a2.94 2.94 0 0 0 4.96-2.61 2.42 2.42 0 0 0 .3-3.66l-.21-.21.67-.67c.75-.76.75-1.99 0-2.75ZM19.2 5.44l-.63-.62.67-.68a.44.44 0 1 1 .63.63l-.67.67Zm-5.77 5.76-2.24 2.24-.62-.62 2.24-2.24.62.62Zm-8 8-.7.7a.44.44 0 0 1-.62-.62l.7-.7.62.63Zm9.52-14.6a.91.91 0 0 1 1.3 0l3.15 3.17a.91.91 0 0 1-.36 1.51.75.75 0 0 0-.45 1.03 1.44 1.44 0 0 1-2.32 1.61L12.1 7.74a1.44 1.44 0 0 1 1.61-2.32.75.75 0 0 0 1.03-.45.9.9 0 0 1 .22-.36Zm-9.25 7.5a1.44 1.44 0 0 1 2.03 0l4.18 4.18a1.44 1.44 0 0 1-1.61 2.32.75.75 0 0 0-1.03.45.91.91 0 0 1-1.51.36L4.6 16.25a.91.91 0 0 1 .36-1.5.75.75 0 0 0 .45-1.03 1.44 1.44 0 0 1 .29-1.62Z"/></svg>