<svg width="24" height="24" viewBox="0 0 24 24" xmlns="http://www.w3.org/2000/svg"><path d="M17.34 3.52a2.45 2.45 0 0 0-3.7.28A2.97 2.97 0 0 0 11 8.83l1.25 1.24-1.13 1.13 1.69 1.69 1.13-1.13 1.24 1.25a2.97 2.97 0 0 0 5.03-2.63 2.46 2.46 0 0 0 .28-3.7l-.74-.73.65-.65a1.2 1.2 0 1 0-1.69-1.68l-.64.64-.74-.74Zm.43 5.34c-.3.3-.77.3-1.06 0L15.14 7.3a.75.75 0 1 1 1.06-1.06l1.57 1.57c.29.3.29.77 0 1.06ZM4.62 11.02a2.97 2.97 0 0 1 4.2 0l4.19 4.18a2.97 2.97 0 0 1-2.63 5.02 2.45 2.45 0 0 1-3.7.28l-.74-.74-.66.67a1.2 1.2 0 0 1-1.69-1.68l.67-.67-.74-.74a2.45 2.45 0 0 1 .28-3.7c-.16-.92.11-1.9.82-2.62Zm3.73 7.26c.3-.29.3-.77 0-1.06l-1.57-1.57a.75.75 0 1 0-1.06 1.06l1.57 1.57c.29.3.76.3 1.06 0Z"/></svg>