<svg width="12" height="12" viewBox="0 0 12 12" xmlns="http://www.w3.org/2000/svg"><path d="M4.25 2C3.01 2 2 3 2 4.25v.36a.75.75 0 1 0 1.5 0v-.36c0-.41.34-.75.75-.75h.36a.75.75 0 1 0 0-1.5h-.36Zm3.14 0a.75.75 0 1 0 0 1.5h.36c.41 0 .75.34.75.75v.36a.75.75 0 1 0 1.5 0v-.36C10 3.01 9 2 7.75 2h-.36ZM3.5 7.4a.75.75 0 1 0-1.5 0v.35C2 8.99 3 10 4.25 10h.36a.75.75 0 1 0 0-1.5h-.36a.75.75 0 0 1-.75-.75v-.36Zm6.5 0a.75.75 0 1 0-1.5 0v.35c0 .41-.34.75-.75.75h-.36a.75.75 0 1 0 0 1.5h.36C8.99 10 10 9 10 7.75v-.36ZM4.75 5.24a.75.75 0 0 0 0 1.5h2.5a.75.75 0 0 0 0-1.5h-2.5Z"/></svg>