<svg width="24" height="24" viewBox="0 0 24 24" xmlns="http://www.w3.org/2000/svg"><path d="M6.5 3A3.5 3.5 0 0 0 3 6.5v1.86a1 1 0 0 0 2 0V6.5C5 5.67 5.67 5 6.5 5h1.86a1 1 0 0 0 0-2H6.5Zm9.14 0a1 1 0 1 0 0 2h1.86c.83 0 1.5.67 1.5 1.5v1.86a1 1 0 1 0 2 0V6.5A3.5 3.5 0 0 0 17.5 3h-1.86ZM5 15.64a1 1 0 1 0-2 0v1.86A3.5 3.5 0 0 0 6.5 21h1.86a1 1 0 1 0 0-2H6.5A1.5 1.5 0 0 1 5 17.5v-1.86Zm16 0a1 1 0 1 0-2 0v1.86c0 .83-.67 1.5-1.5 1.5h-1.86a1 1 0 1 0 0 2h1.86a3.5 3.5 0 0 0 3.5-3.5v-1.86ZM8 11a1 1 0 1 0 0 2h8a1 1 0 1 0 0-2H8Z"/></svg>