<svg width="32" height="32" viewBox="0 0 32 32" xmlns="http://www.w3.org/2000/svg"><path d="M7.5 3A4.5 4.5 0 0 0 3 7.5V11a1 1 0 1 0 2 0V7.5A2.5 2.5 0 0 1 7.5 5H11a1 1 0 1 0 0-2H7.5ZM21 3a1 1 0 1 0 0 2h3.5A2.5 2.5 0 0 1 27 7.5V11a1 1 0 1 0 2 0V7.5A4.5 4.5 0 0 0 24.5 3H21ZM5 21a1 1 0 1 0-2 0v3.5A4.5 4.5 0 0 0 7.5 29H11a1 1 0 1 0 0-2H7.5A2.5 2.5 0 0 1 5 24.5V21Zm24 0a1 1 0 1 0-2 0v3.5a2.5 2.5 0 0 1-2.5 2.5H21a1 1 0 1 0 0 2h3.5a4.5 4.5 0 0 0 4.5-4.5V21ZM9 15a1 1 0 1 0 0 2h14a1 1 0 1 0 0-2H9Z"/></svg>