<svg width="32" height="32" viewBox="0 0 32 32" xmlns="http://www.w3.org/2000/svg"><path d="M8.25 2A3.25 3.25 0 0 0 5 5.25v5.26l.25-.01H7V5.25C7 4.56 7.56 4 8.25 4h18.5c.69 0 1.25.56 1.25 1.25v12.5c0 .69-.56 1.25-1.25 1.25H14.5v2H20v3h-5.5v2H24a1 1 0 1 0 0-2h-2v-3h4.75c1.8 0 3.25-1.46 3.25-3.25V5.25C30 3.45 28.54 2 26.75 2H8.25ZM2 15.25C2 13.45 3.46 12 5.25 12h4.5c1.8 0 3.25 1.46 3.25 3.25v11.5c0 1.8-1.46 3.25-3.25 3.25h-4.5A3.25 3.25 0 0 1 2 26.75v-11.5ZM5.25 14C4.56 14 4 14.56 4 15.25v11.5c0 .69.56 1.25 1.25 1.25h4.5c.69 0 1.25-.56 1.25-1.25v-11.5c0-.69-.56-1.25-1.25-1.25h-4.5ZM7 25a1 1 0 1 0 0 2h1a1 1 0 1 0 0-2H7Z"/></svg>