<svg width="48" height="48" viewBox="0 0 48 48" xmlns="http://www.w3.org/2000/svg"><path d="M13.25 4A4.25 4.25 0 0 0 9 8.25V15h2.5V8.25c0-.97.78-1.75 1.75-1.75h26.5c.97 0 1.75.78 1.75 1.75v17.5c0 .97-.78 1.75-1.75 1.75H22V30h7.5v5H22v2.5h12.75a1.25 1.25 0 1 0 0-2.5H32v-5h7.75C42.1 30 44 28.1 44 25.75V8.25C44 5.9 42.1 4 39.75 4h-26.5ZM9.5 38.25c0-.69.56-1.25 1.25-1.25h2.5a1.25 1.25 0 1 1 0 2.5h-2.5c-.69 0-1.25-.56-1.25-1.25ZM8.25 17A4.25 4.25 0 0 0 4 21.25v18.5C4 42.1 5.9 44 8.25 44h7.5C18.1 44 20 42.1 20 39.75v-18.5C20 18.9 18.1 17 15.75 17h-7.5ZM6.5 21.25c0-.97.78-1.75 1.75-1.75h7.5c.97 0 1.75.78 1.75 1.75v18.5c0 .97-.78 1.75-1.75 1.75h-7.5c-.97 0-1.75-.78-1.75-1.75v-18.5Z"/></svg>