<svg width="24" height="24" viewBox="0 0 24 24" xmlns="http://www.w3.org/2000/svg"><path d="M17.75 3C19.55 3 21 4.46 21 6.25v11.5c0 1.8-1.46 3.25-3.25 3.25h-5a2.98 2.98 0 00.23-1.5h4.77c.97 0 1.75-.78 1.75-1.75V6.25c0-.97-.78-1.75-1.75-1.75H6.25c-.97 0-1.75.78-1.75 1.75v5.26c-.55.04-1.06.22-1.5.5V6.25C3 4.45 4.46 3 6.25 3h11.5zm-6 3c.38 0 .7.28.74.65l.01.1V12h3.75a.75.75 0 01.1 1.5h-4.6a.75.75 0 01-.74-.65l-.01-.1v-6c0-.41.34-.75.75-.75zm-7 11a2.25 2.25 0 100-4.5 2.25 2.25 0 000 4.5zm0 6c2.68 0 3.75-1.57 3.75-3.13 0-1.03-.72-1.87-1.6-1.87H2.6c-.88 0-1.6.84-1.6 1.88C1 21.43 2.07 23 4.75 23zm6.75-7.25a1.75 1.75 0 11-3.5 0 1.75 1.75 0 013.5 0zM8.92 22c.4-.66.58-1.4.58-2.13 0-.47-.11-.95-.32-1.37h1.54c.7 0 1.28.59 1.28 1.31 0 1.1-.85 2.19-3 2.19h-.08z"/></svg>