<svg width="20" height="20" viewBox="0 0 20 20" xmlns="http://www.w3.org/2000/svg"><path d="M3 6a3 3 0 013-3h8a3 3 0 013 3v8a3 3 0 01-3 3h-3.6c.16-.32.3-.65.4-1H14a2 2 0 002-2V6a2 2 0 00-2-2H6a2 2 0 00-2 2v3.2c-.35.1-.68.24-1 .4V6zm7.5 0c.28 0 .5.22.5.5V9h1.5a.5.5 0 010 1h-2a.5.5 0 01-.5-.5v-3c0-.28.22-.5.5-.5zm-5 13a4.5 4.5 0 100-9 4.5 4.5 0 000 9zm-1.25-5a1 1 0 110-2 1 1 0 010 2zm3.5-.75a.75.75 0 11-1.5 0 .75.75 0 011.5 0zM7 16.5H6.9A1.78 1.78 0 007 16v-.5c0-.18-.03-.34-.09-.5H8c.28 0 .5.22.5.5v.25s0 .75-1.5.75zM3 15h2.5c.28 0 .5.22.5.5v.5s0 1-1.75 1-1.75-1-1.75-1v-.5c0-.28.22-.5.5-.5z"/></svg>