<svg width="24" height="24" viewBox="0 0 24 24" xmlns="http://www.w3.org/2000/svg"><path d="M17.5 11a5.5 5.5 0 1 1 0 11 5.5 5.5 0 0 1 0-11Zm3.3 3.25-5.55 5.56a4 4 0 0 0 5.56-5.56ZM19.76 6.5c1.14 0 2.08.84 2.23 1.94l.01.16.01.15v3.06a6.5 6.5 0 0 0-9.98 8.2L4.25 20c-1.2 0-2.17-.93-2.24-2.1L2 17.75V10.5h6.4c.4-.04.77-.18 1.1-.4l.15-.12 4.17-3.48h5.93Zm-2.25 6a4 4 0 0 0-3.3 6.25l5.55-5.56a3.98 3.98 0 0 0-2.25-.69ZM8.2 4c.47 0 .92.14 1.3.4l.15.12 2.1 1.75-3.06 2.56-.09.06a.75.75 0 0 1-.29.1l-.1.01H2V6.25c0-1.2.93-2.17 2.1-2.24L4.25 4h3.96Z"/></svg>