<svg width="24" height="24" viewBox="0 0 24 24" xmlns="http://www.w3.org/2000/svg"><path d="M3.5 6.25V8h4.63c.2 0 .39-.08.53-.22l1.53-1.53-1.53-1.53a.75.75 0 0 0-.53-.22H5.25c-.97 0-1.75.78-1.75 1.75Zm-1.5 0C2 4.45 3.46 3 5.25 3h2.88c.6 0 1.17.24 1.59.66l1.84 1.84h7.19c1.8 0 3.25 1.46 3.25 3.25v4.06a6.52 6.52 0 0 0-1.5-1.08V8.75c0-.97-.78-1.75-1.75-1.75h-7.19L9.72 8.84c-.42.42-1 .66-1.6.66H3.5v8.25c0 .97.78 1.75 1.75 1.75h6.06c.18.53.42 1.04.71 1.5H5.25A3.25 3.25 0 0 1 2 17.75V6.25ZM23 17.5a5.5 5.5 0 1 1-11 0 5.5 5.5 0 0 1 11 0Zm-9.5 0c0 .83.26 1.6.7 2.25l5.55-5.56a4 4 0 0 0-6.25 3.3Zm4 4a4 4 0 0 0 3.3-6.25l-5.55 5.56c.64.44 1.42.69 2.25.69Z"/></svg>