<svg width="32" height="32" viewBox="0 0 32 32" xmlns="http://www.w3.org/2000/svg"><path d="M4 8.5V11h6.46c.4 0 .78-.16 1.07-.44l2.06-2.06-2.06-2.06A1.5 1.5 0 0 0 10.46 6H6.5A2.5 2.5 0 0 0 4 8.5Zm-2 0A4.5 4.5 0 0 1 6.5 4h3.96c.93 0 1.82.37 2.48 1.03L15.4 7.5H25.5A4.5 4.5 0 0 1 30 12v4.3c-.6-.55-1.27-1-2-1.36V12a2.5 2.5 0 0 0-2.5-2.5H15.41l-2.47 2.47A3.5 3.5 0 0 1 10.46 13H4v10.5A2.5 2.5 0 0 0 6.5 26h9.01c.25.71.6 1.38 1 2H6.5A4.5 4.5 0 0 1 2 23.5v-15Zm22 22a7.5 7.5 0 1 0 0-15 7.5 7.5 0 0 0 0 15Zm0-2a5.48 5.48 0 0 1-3.12-.97l7.65-7.65A5.5 5.5 0 0 1 24 28.5Zm3.12-10.03-7.65 7.65a5.5 5.5 0 0 1 7.65-7.65Z"/></svg>