<svg width="20" height="20" viewBox="0 0 20 20" xmlns="http://www.w3.org/2000/svg"><path d="M13.5 9a1.5 1.5 0 1 0 0-3 1.5 1.5 0 0 0 0 3ZM11 11a1 1 0 0 1 1-1h3a1 1 0 0 1 1 1v1a2 2 0 0 1-2 2h-1a2 2 0 0 1-2-2v-1ZM5 6a1 1 0 0 0-1 1v3a1 1 0 0 0 1 1h4a1 1 0 0 0 1-1V7a1 1 0 0 0-1-1H5Zm-.25-2A2.75 2.75 0 0 0 2 6.75v6.5A2.75 2.75 0 0 0 4.75 16h10.5A2.75 2.75 0 0 0 18 13.25v-6.5A2.75 2.75 0 0 0 15.25 4H4.75ZM3 6.75C3 5.78 3.78 5 4.75 5h10.5c.97 0 1.75.78 1.75 1.75v6.5c0 .97-.78 1.75-1.75 1.75H4.75C3.78 15 3 14.22 3 13.25v-6.5Z"/></svg>