<svg width="24" height="24" viewBox="0 0 24 24" xmlns="http://www.w3.org/2000/svg"><path d="M3 6.25C3 4.45 4.46 3 6.25 3h2a.75.75 0 010 1.5h-2c-.97 0-1.75.78-1.75 1.75v2a.75.75 0 01-1.5 0v-2zm12-2.5c0-.41.34-.75.75-.75h2C19.55 3 21 4.46 21 6.25v2a.75.75 0 01-1.5 0v-2c0-.97-.78-1.75-1.75-1.75h-2a.75.75 0 01-.75-.75zM3.75 15c.41 0 .75.34.75.75v2c0 .97.78 1.75 1.75 1.75h2a.75.75 0 010 1.5h-2A3.25 3.25 0 013 17.75v-2c0-.41.34-.75.75-.75zm16.5 0c.41 0 .75.34.75.75v2c0 1.8-1.46 3.25-3.25 3.25h-2a.75.75 0 010-1.5h2c.97 0 1.75-.78 1.75-1.75v-2c0-.41.34-.75.75-.75zM10 7H7v3h3v4H7v3h3v-3h4v3h3v-3h-3v-4h3V7h-3v3h-4V7z"/></svg>