<svg width="20" height="20" viewBox="0 0 20 20" xmlns="http://www.w3.org/2000/svg"><path d="m5.88 2.28.35 1.07a2.2 2.2 0 0 0 1.4 1.4l1.07.35h.02a.42.42 0 0 1 0 .8l-1.07.35a2.2 2.2 0 0 0-1.4 1.4L5.9 8.72a.42.42 0 0 1-.8 0l-.35-1.07a2.2 2.2 0 0 0-1.4-1.4L2.28 5.9a.42.42 0 0 1 0-.8l1.07-.35a2.2 2.2 0 0 0 1.38-1.4l.35-1.07a.42.42 0 0 1 .8 0ZM17 6.5a.5.5 0 0 0-.5-.5h-4a.5.5 0 0 0 0 1h2.8L11 11.3 9.35 9.64a.5.5 0 0 0-.7 0l-5.5 5.5a.5.5 0 0 0 .7.7L9 10.71l1.65 1.64a.5.5 0 0 0 .7 0L16 7.71v2.79a.5.5 0 0 0 1 0v-4Zm-.98 8.46.76.25h.02a.3.3 0 0 1 .14.47.3.3 0 0 1-.14.1l-.77.26a1.58 1.58 0 0 0-1 1l-.24.76a.3.3 0 0 1-.58 0l-.24-.77a1.57 1.57 0 0 0-1-1l-.77-.25a.3.3 0 0 1-.14-.46.3.3 0 0 1 .14-.1l.77-.26a1.58 1.58 0 0 0 .98-1l.25-.76a.3.3 0 0 1 .57 0l.25.77a1.58 1.58 0 0 0 1 1Z"/></svg>