<svg width="24" height="24" viewBox="0 0 24 24" xmlns="http://www.w3.org/2000/svg"><path d="M4.85 8.15a2.84 2.84 0 0 1 .69 1.11l.45 1.38a.54.54 0 0 0 1.02 0l.45-1.38a2.84 2.84 0 0 1 1.8-1.8l1.38-.44a.54.54 0 0 0 0-1.03h-.03l-1.38-.45a2.84 2.84 0 0 1-1.8-1.8L7 2.36a.54.54 0 0 0-1.03 0L5.5 3.74l-.01.03a2.84 2.84 0 0 1-1.76 1.77l-1.38.44a.54.54 0 0 0 0 1.03l1.38.45c.42.14.8.37 1.11.69ZM20 7a1 1 0 0 1 1 1v5a1 1 0 1 1-2 0v-2.59l-5.8 5.8a1 1 0 0 1-1.4 0L10 14.4l-5.3 5.3a1 1 0 0 1-1.4-1.42l6-6a1 1 0 0 1 1.4 0l1.8 1.8L17.59 9H15a1 1 0 1 1 0-2h5Zm.02 10.96.76.25h.02a.3.3 0 0 1 .14.47.3.3 0 0 1-.14.1l-.77.26a1.58 1.58 0 0 0-1 1l-.24.76a.3.3 0 0 1-.58 0l-.24-.77a1.57 1.57 0 0 0-1-1l-.77-.25a.3.3 0 0 1-.14-.46.3.3 0 0 1 .14-.1l.77-.26a1.58 1.58 0 0 0 .98-1l.25-.76a.3.3 0 0 1 .57 0l.25.77a1.58 1.58 0 0 0 1 1Z"/></svg>