<svg width="32" height="32" viewBox="0 0 32 32" xmlns="http://www.w3.org/2000/svg"><path d="M30 10.5a8.5 8.5 0 00-16.86-1.53 21.28 21.28 0 01-1.86 4.34l-3.99 3.98A1 1 0 008 19h.1l-3.02 3.02a3.5 3.5 0 00-1.71 6.26c.13.1.26.22.36.36a3.5 3.5 0 006.25-1.74L13 23.88V24a1 1 0 001.7.7l4-3.98c.65-.4 1.99-1.09 4.37-1.86A8.5 8.5 0 0030 10.5zM13 21.05l-4.68 4.68c-.21.21-.32.49-.32.77a1.5 1.5 0 01-2.69.92 3.98 3.98 0 00-.73-.73A1.5 1.5 0 015.5 24c.28 0 .55-.11.75-.31L10.94 19H13v2.05zM21.5 4a6.5 6.5 0 011.01 12.93c-2.67.87-4.19 1.67-4.97 2.15a1 1 0 00-.18.14L15 21.6V18a1 1 0 00-1-1h-3.59l2.36-2.36a1 1 0 00.14-.18 22.68 22.68 0 002.19-5.08A6.5 6.5 0 0121.5 4z"/></svg>