<svg width="16" height="16" viewBox="0 0 16 16" xmlns="http://www.w3.org/2000/svg"><path d="M15 5a4 4 0 00-7.94-.68c-.2.62-.38 1.1-.54 1.45L4.15 8.15A.5.5 0 004.5 9h.08l-1.49 1.48h-.01a.25.25 0 01-.08.02 2 2 0 00-1.22 3.59c.05.03.1.08.13.13A2 2 0 005.5 13l.01-.08v-.01L7 11.43v.07a.5.5 0 00.85.35l2.36-2.35c.37-.17.88-.37 1.56-.57A4 4 0 0015 5zm-8 5.01l-2.2 2.2c-.23.23-.3.54-.3.79a1 1 0 01-1.8.6c-.08-.1-.2-.22-.3-.3a1 1 0 01.6-1.8c.25 0 .56-.07.8-.3L5.99 9H7v1.01zM11 2a3 3 0 01.5 5.96c-.78.24-1.36.47-1.79.66a.5.5 0 00-.14.1L8 10.3V8.5a.5.5 0 00-.5-.5H5.7l1.6-1.59a.5.5 0 00.1-.14 14.19 14.19 0 00.64-1.75A3 3 0 0111 2z"/></svg>