<svg width="16" height="16" viewBox="0 0 16 16" xmlns="http://www.w3.org/2000/svg"><path d="m10.88.28.35 1.07a2.2 2.2 0 0 0 1.4 1.4l1.07.35h.02a.42.42 0 0 1 0 .8l-1.07.35a2.2 2.2 0 0 0-1.4 1.4l-.35 1.07a.42.42 0 0 1-.8 0l-.35-1.07a2.2 2.2 0 0 0-1.4-1.4L7.28 3.9a.42.42 0 0 1 0-.8l1.07-.35a2.2 2.2 0 0 0 1.38-1.4l.35-1.07a.42.42 0 0 1 .8 0Zm4.9 7.93-.76-.25a1.58 1.58 0 0 1-1-1l-.25-.76a.3.3 0 0 0-.57 0l-.25.77a1.58 1.58 0 0 1-.98 1l-.77.24a.3.3 0 0 0 0 .57l.77.25a1.58 1.58 0 0 1 1 1l.24.77a.3.3 0 0 0 .58 0l.24-.77a1.58 1.58 0 0 1 1-1l.77-.24a.3.3 0 0 0 0-.57h-.02Zm-3.02 3.56c.21.15.47.23.74.23s.53-.05.75-.21c.22-.16.38-.37.48-.65l.25-.76.02-.06V11a2 2 0 0 1-2 2H3a2 2 0 0 1-2-2V5c0-1.1.9-2 2-2h3.09a1.42 1.42 0 0 0 .17 1.32c.17.24.41.43.71.53l.46.15H4.5a.5.5 0 0 0 0 1h3a.5.5 0 0 0 .34-.86l.2.06c.14.05.28.13.46.29.11.11.2.24.3.47L9.13 7H4.5a.5.5 0 0 0 0 1h5.6a1.31 1.31 0 0 0 .14 1.26c.16.22.38.38.65.48l.77.25c.08.03.16.08.22.14.07.06.1.14.14.22l.26.8c.1.25.26.46.48.62ZM4 9.5c0 .28.22.5.5.5h4a.5.5 0 0 0 0-1h-4a.5.5 0 0 0-.5.5Z"/></svg>