<svg width="16" height="16" viewBox="0 0 16 16" xmlns="http://www.w3.org/2000/svg"><path d="m10.88.28.35 1.07a2.2 2.2 0 0 0 1.4 1.4l1.07.35h.02a.42.42 0 0 1 0 .8l-1.07.35a2.2 2.2 0 0 0-1.4 1.4l-.35 1.07a.42.42 0 0 1-.8 0l-.35-1.07a2.2 2.2 0 0 0-1.4-1.4L7.28 3.9a.42.42 0 0 1 0-.8l1.07-.35a2.2 2.2 0 0 0 1.38-1.4l.35-1.07a.42.42 0 0 1 .8 0Zm4.9 7.93-.76-.25a1.58 1.58 0 0 1-1-1l-.25-.76a.3.3 0 0 0-.57 0l-.25.77a1.58 1.58 0 0 1-.98 1l-.77.24a.3.3 0 0 0 0 .57l.77.25a1.58 1.58 0 0 1 1 1l.24.77a.3.3 0 0 0 .58 0l.24-.77a1.58 1.58 0 0 1 1-1l.77-.24a.3.3 0 0 0 0-.57h-.02Zm-2.55 3.76.27.03c.27 0 .53-.05.75-.21.22-.16.38-.37.48-.65l.25-.76.02-.06V11a2 2 0 0 1-2 2H3a2 2 0 0 1-2-2V5c0-1.1.9-2 2-2h3.09a1.42 1.42 0 0 0 0 1H3a1 1 0 0 0-1 1v6a1 1 0 0 0 1 1h10a1 1 0 0 0 .23-.03ZM9.13 7l.02.05c.1.25.25.48.52.7.14.1.3.16.45.2L10.1 8H4.5a.5.5 0 0 1 0-1h4.64Zm-1.7-2 .41.14A.5.5 0 0 1 7.5 6h-3a.5.5 0 0 1 0-1h2.93ZM4 9.5c0-.28.22-.5.5-.5h4a.5.5 0 0 1 0 1h-4a.5.5 0 0 1-.5-.5Z"/></svg>