<svg width="20" height="20" viewBox="0 0 20 20" xmlns="http://www.w3.org/2000/svg"><path d="m14.88 1.28.35 1.07a2.2 2.2 0 0 0 1.4 1.4l1.07.35h.02a.42.42 0 0 1 0 .8l-1.07.35a2.2 2.2 0 0 0-1.4 1.4l-.35 1.07a.42.42 0 0 1-.8 0l-.35-1.07a2.23 2.23 0 0 0-1.4-1.4l-1.07-.35a.42.42 0 0 1 0-.8l1.07-.35a2.2 2.2 0 0 0 1.38-1.4l.35-1.07a.42.42 0 0 1 .8 0Zm4.9 7.93-.76-.25a1.58 1.58 0 0 1-1-1l-.25-.76a.3.3 0 0 0-.57 0l-.25.77a1.58 1.58 0 0 1-.98 1l-.77.24a.3.3 0 0 0 0 .57l.77.25a1.58 1.58 0 0 1 1 1l.24.77a.3.3 0 0 0 .58 0l.24-.77a1.58 1.58 0 0 1 1-1l.77-.24a.3.3 0 0 0 0-.57h-.02Zm-3.02 3.56c.21.15.47.23.74.23.17 0 .34-.02.5-.08v.58a2.5 2.5 0 0 1-2.5 2.5h-11A2.5 2.5 0 0 1 2 13.5v-7A2.5 2.5 0 0 1 4.5 4h5.59a1.42 1.42 0 0 0 .17 1.32c.17.24.41.43.71.53l1.06.35c.15.05.3.13.47.29.11.11.2.24.3.47l.35 1.1c.1.24.25.47.52.68.14.1.3.17.45.21a1.3 1.3 0 0 0 .77 1.79l.77.25c.08.03.16.08.22.14.07.06.1.14.14.22l.26.8c.1.25.26.46.48.62ZM5 7.5c0 .28.22.5.5.5h4a.5.5 0 0 0 0-1h-4a.5.5 0 0 0-.5.5Zm.5 3h7a.5.5 0 0 0 0-1h-7a.5.5 0 0 0 0 1Zm-.5 2c0 .28.22.5.5.5h5a.5.5 0 0 0 0-1h-5a.5.5 0 0 0-.5.5Z"/></svg>