<svg width="28" height="28" viewBox="0 0 28 28" xmlns="http://www.w3.org/2000/svg"><path d="M18.17 6.83a3.16 3.16 0 0 1 .76 1.24l.5 1.53a.6.6 0 0 0 1.14 0l.5-1.53a3.15 3.15 0 0 1 2-2l1.53-.5a.6.6 0 0 0 0-1.14h-.03l-1.54-.5a3.15 3.15 0 0 1-2-2L20.55.4a.6.6 0 0 0-1.14 0l-.5 1.53-.01.04a3.15 3.15 0 0 1-1.96 1.96l-1.53.5a.6.6 0 0 0 0 1.14l1.53.5c.47.15.9.41 1.24.76Zm8.65 3.53.92.3h.02a.36.36 0 0 1 0 .68l-.92.3a1.9 1.9 0 0 0-1.2 1.2l-.3.92a.36.36 0 0 1-.68 0l-.3-.92a1.9 1.9 0 0 0-1.2-1.2l-.92-.3a.36.36 0 0 1 0-.68l.92-.3a1.9 1.9 0 0 0 1.18-1.2l.3-.92a.36.36 0 0 1 .68 0l.3.92a1.89 1.89 0 0 0 1.2 1.2ZM14.37 4H5.75A3.75 3.75 0 0 0 2 7.75v12.5A3.75 3.75 0 0 0 5.75 24h16.5A3.75 3.75 0 0 0 26 20.25v-5.69a1.37 1.37 0 0 1-1.8.18c-.23-.16-.4-.4-.5-.67l-.3-.92a.87.87 0 0 0-.21-.35.85.85 0 0 0-.34-.21l-.94-.31a1.3 1.3 0 0 1-.66-.49 1.34 1.34 0 0 1-.19-1.17l-.13.1a1.64 1.64 0 0 1-1.86 0 1.7 1.7 0 0 1-.6-.79l-.5-1.53a2 2 0 0 0-.51-.85 2.25 2.25 0 0 0-.83-.52l-1.56-.5c-.31-.11-.58-.32-.77-.6a1.58 1.58 0 0 1 .07-1.93ZM7 9.73c0-.4.33-.73.73-.73h5.54c.4 0 .73.33.73.73v.04c0 .4-.33.73-.73.73H7.73A.73.73 0 0 1 7 9.77v-.04Zm0 4.04v-.04c0-.4.33-.73.73-.73h10.54c.4 0 .73.33.73.73v.04c0 .4-.33.73-.73.73H7.73a.73.73 0 0 1-.73-.73Zm0 3.96c0-.4.33-.73.73-.73h7.54c.4 0 .73.33.73.73v.04c0 .4-.33.73-.73.73H7.73a.73.73 0 0 1-.73-.73v-.04Z"/></svg>