<svg width="28" height="28" viewBox="0 0 28 28" xmlns="http://www.w3.org/2000/svg"><path d="M18.17 6.83a3.16 3.16 0 0 1 .76 1.24l.5 1.53a.6.6 0 0 0 1.14 0l.5-1.53a3.15 3.15 0 0 1 2-2l1.53-.5a.6.6 0 0 0 0-1.14h-.03l-1.54-.5a3.15 3.15 0 0 1-2-2L20.55.4a.6.6 0 0 0-1.14 0l-.5 1.53-.01.04a3.15 3.15 0 0 1-1.96 1.96l-1.53.5a.6.6 0 0 0 0 1.14l1.53.5c.47.15.9.41 1.24.76Zm8.65 3.53.92.3h.02a.36.36 0 0 1 0 .68l-.92.3a1.9 1.9 0 0 0-1.2 1.2l-.3.92a.36.36 0 0 1-.68 0l-.3-.92a1.9 1.9 0 0 0-1.2-1.2l-.92-.3a.36.36 0 0 1 0-.68l.92-.3a1.9 1.9 0 0 0 1.18-1.2l.3-.92a.36.36 0 0 1 .68 0l.3.92a1.89 1.89 0 0 0 1.2 1.2ZM14.37 4H5.75A3.75 3.75 0 0 0 2 7.75v12.5A3.75 3.75 0 0 0 5.75 24h16.5A3.75 3.75 0 0 0 26 20.25v-5.69a1.37 1.37 0 0 1-1.5.34v5.35c0 1.24-1 2.25-2.25 2.25H5.75c-1.24 0-2.25-1-2.25-2.25V7.75c0-1.24 1.01-2.25 2.25-2.25h8.33a1.58 1.58 0 0 1 .29-1.5ZM7 9.73c0-.4.33-.73.73-.73h5.54c.4 0 .73.33.73.73v.04c0 .4-.33.73-.73.73H7.73A.73.73 0 0 1 7 9.77v-.04Zm0 4c0-.4.33-.73.73-.73h10.54c.4 0 .73.33.73.73v.04c0 .4-.33.73-.73.73H7.73a.73.73 0 0 1-.73-.73v-.04ZM7.73 17c-.4 0-.73.33-.73.73v.04c0 .4.33.73.73.73h7.54c.4 0 .73-.33.73-.73v-.04c0-.4-.33-.73-.73-.73H7.73Z"/></svg>