<svg width="32" height="32" viewBox="0 0 32 32" xmlns="http://www.w3.org/2000/svg"><path d="M21.49 7.51a3.49 3.49 0 0 1 .84 1.36l.54 1.69a.66.66 0 0 0 1.26 0l.54-1.69a3.47 3.47 0 0 1 2.2-2.2l1.69-.54a.67.67 0 0 0 0-1.25l-.04-.01-1.68-.55a3.47 3.47 0 0 1-2.2-2.2L24.1.45a.66.66 0 0 0-1.25 0l-.55 1.69-.01.04a3.47 3.47 0 0 1-2.15 2.15l-1.69.55a.67.67 0 0 0 0 1.25l1.69.55c.51.17.98.46 1.36.84Zm9.33 4.85.92.3h.02a.36.36 0 0 1 0 .68l-.92.3a1.9 1.9 0 0 0-1.2 1.2l-.3.92a.36.36 0 0 1-.68 0l-.3-.92a1.9 1.9 0 0 0-1.2-1.2l-.92-.3a.36.36 0 0 1 0-.68l.92-.3a1.9 1.9 0 0 0 1.18-1.2l.3-.92a.36.36 0 0 1 .68 0l.3.92a1.89 1.89 0 0 0 1.2 1.2ZM17.1 4H6.5A4.5 4.5 0 0 0 2 8.5v15A4.5 4.5 0 0 0 6.5 28h19a4.5 4.5 0 0 0 4.5-4.5v-6.26a1.89 1.89 0 0 1-2.04-.08 2 2 0 0 1-.69-.94l-.3-.91a.29.29 0 0 0-.09-.15.41.41 0 0 0-.14-.1l-1-.31A1.85 1.85 0 0 1 24.5 13c0-.33.1-.64.25-.91a2.16 2.16 0 0 1-3.3-1.08l-.55-1.7a1.8 1.8 0 0 0-.39-.67c-.04-.04-.08-.07-.08-.1a1.93 1.93 0 0 0-.77-.48l-1.71-.56a2.17 2.17 0 0 1-1.45-2 2.18 2.18 0 0 1 .6-1.5ZM8 10a1 1 0 0 1 1-1h6a1 1 0 1 1 0 2H9a1 1 0 0 1-1-1Zm1 9h8a1 1 0 1 1 0 2H9a1 1 0 1 1 0-2Zm-1-4a1 1 0 0 1 1-1h13a1 1 0 1 1 0 2H9a1 1 0 0 1-1-1Z"/></svg>