<svg width="32" height="32" viewBox="0 0 32 32" xmlns="http://www.w3.org/2000/svg"><path d="M21.49 7.51a3.49 3.49 0 0 1 .84 1.36l.54 1.69a.66.66 0 0 0 1.26 0l.54-1.69a3.47 3.47 0 0 1 2.2-2.2l1.69-.54a.67.67 0 0 0 0-1.25l-.04-.01-1.68-.55a3.47 3.47 0 0 1-2.2-2.2L24.1.45a.66.66 0 0 0-1.25 0l-.55 1.69-.01.04a3.47 3.47 0 0 1-2.15 2.15l-1.69.55a.67.67 0 0 0 0 1.25l1.69.55c.51.17.98.46 1.36.84Zm9.33 4.85.92.3h.02a.36.36 0 0 1 0 .68l-.92.3a1.9 1.9 0 0 0-1.2 1.2l-.3.92a.36.36 0 0 1-.68 0l-.3-.92a1.9 1.9 0 0 0-1.2-1.2l-.92-.3a.36.36 0 0 1 0-.68l.92-.3a1.9 1.9 0 0 0 1.18-1.2l.3-.92a.36.36 0 0 1 .68 0l.3.92a1.89 1.89 0 0 0 1.2 1.2ZM17.1 4H6.5A4.5 4.5 0 0 0 2 8.5v15A4.5 4.5 0 0 0 6.5 28h19a4.5 4.5 0 0 0 4.5-4.5v-6.26a1.89 1.89 0 0 1-2-.05v6.31a2.5 2.5 0 0 1-2.5 2.5h-19A2.5 2.5 0 0 1 4 23.5v-15A2.5 2.5 0 0 1 6.5 6h10.07a2.18 2.18 0 0 1-.07-.5 2.18 2.18 0 0 1 .6-1.5ZM9 9a1 1 0 0 0 0 2h6a1 1 0 1 0 0-2H9ZM8 20a1 1 0 0 1 1-1h8a1 1 0 1 1 0 2H9a1 1 0 0 1-1-1Zm1-6a1 1 0 1 0 0 2h11a1 1 0 1 0 0-2H9Z"/></svg>