<svg width="48" height="48" viewBox="0 0 48 48" xmlns="http://www.w3.org/2000/svg"><path d="M32.83 13.11a5.36 5.36 0 0 0-2.54-1.8l-2.6-.85a1.03 1.03 0 0 1 0-1.94l2.6-.84a5.36 5.36 0 0 0 3.32-3.33l.02-.06.85-2.6a1.03 1.03 0 0 1 1.94 0l.84 2.6a5.36 5.36 0 0 0 3.4 3.39l2.6.84.05.02a1.03 1.03 0 0 1 0 1.94l-2.6.84a5.36 5.36 0 0 0-3.4 3.4l-.84 2.6-.03.06a1.03 1.03 0 0 1-1.9-.07l-.86-2.6a5.35 5.35 0 0 0-.85-1.6Zm14.78 6.87-1.38-.44a2.84 2.84 0 0 1-1.8-1.8L44 16.36a.54.54 0 0 0-1.03 0l-.45 1.38a2.84 2.84 0 0 1-1.77 1.8l-1.38.44a.54.54 0 0 0 0 1.03l1.38.45c.15.05.3.11.44.18v.02a2.84 2.84 0 0 1 1.36 1.61l.45 1.38a.54.54 0 0 0 1 .04v-.01a.5.5 0 0 0 .02-.04l.45-1.38a2.84 2.84 0 0 1 1.8-1.8l1.38-.44a.54.54 0 0 0 0-1.03h-.03ZM25.4 8A3 3 0 0 0 27 12.35l2.65.86a3.28 3.28 0 0 1 2.17 2.11l.84 2.59a3 3 0 0 0 4.59 1.51c-.14.31-.22.66-.22 1a2.55 2.55 0 0 0 1.7 2.4l1.42.46.12.06a.86.86 0 0 1 .4.48l.44 1.37c.14.54.45 1 .89 1.35a2.55 2.55 0 0 0 2 .41v8.3A4.75 4.75 0 0 1 39.25 40H8.75A4.75 4.75 0 0 1 4 35.25v-22.5A4.75 4.75 0 0 1 8.75 8h16.66ZM12 23.75c0 .69.56 1.25 1.25 1.25h17.5a1.25 1.25 0 1 0 0-2.5h-17.5c-.69 0-1.25.56-1.25 1.25Zm1.25 7.75h13.5a1.25 1.25 0 1 0 0-2.5h-13.5a1.25 1.25 0 1 0 0 2.5ZM12 17.25c0 .69.56 1.25 1.25 1.25h9.5a1.25 1.25 0 1 0 0-2.5h-9.5c-.69 0-1.25.56-1.25 1.25Z"/></svg>