<svg width="20" height="20" viewBox="0 0 20 20" xmlns="http://www.w3.org/2000/svg"><path d="M5.75 3h8.5A2.75 2.75 0 0 1 17 5.75v8.5A2.75 2.75 0 0 1 14.25 17h-4.13l-1-1h5.13c.97 0 1.75-.78 1.75-1.75v-8.5C16 4.78 15.22 4 14.25 4h-8.5C4.78 4 4 4.78 4 5.75v3.28c-.35.04-.68.11-1 .23V5.75A2.75 2.75 0 0 1 5.75 3ZM9.5 14a.5.5 0 0 1 0-1h4a.5.5 0 0 1 0 1h-4Zm-2-6.75a.75.75 0 1 1-1.5 0 .75.75 0 0 1 1.5 0Zm2-.25a.5.5 0 0 0 0 1h4a.5.5 0 0 0 0-1h-4Zm0 3a.5.5 0 0 0 0 1h4a.5.5 0 0 0 0-1h-4Zm-5 7c.79 0 1.51-.26 2.1-.7l2.55 2.55a.5.5 0 1 0 .7-.7L7.3 15.6A3.5 3.5 0 1 0 4.5 17Zm0-1a2.5 2.5 0 1 1 0-5 2.5 2.5 0 0 1 0 5Z"/></svg>