<svg width="28" height="28" viewBox="0 0 28 28" xmlns="http://www.w3.org/2000/svg"><path d="M2 8.75a1.75 1.75 0 103.5 0 1.75 1.75 0 00-3.5 0zm1 2.65v9.35C3 23.1 4.9 25 7.25 25h13.5C23.1 25 25 23.1 25 20.75V7.25C25 4.9 23.1 3 20.75 3H7.25a4.25 4.25 0 00-4.08 3.06 2.76 2.76 0 011.55.12A2.75 2.75 0 017.25 4.5h13.5a2.75 2.75 0 012.75 2.75v13.5a2.75 2.75 0 01-2.75 2.75H7.25a2.75 2.75 0 01-2.75-2.75V11.4a2.75 2.75 0 01-1.5 0zm6.75-.4a.75.75 0 000 1.5h8.5a.75.75 0 000-1.5h-8.5zM9 15.75c0-.41.34-.75.75-.75h5.75a.75.75 0 010 1.5H9.75a.75.75 0 01-.75-.75z"/></svg>