<svg width="20" height="20" viewBox="0 0 20 20" xmlns="http://www.w3.org/2000/svg"><path d="M9 2a4 4 0 1 0 0 8 4 4 0 0 0 0-8Zm-5 9a2 2 0 0 0-2 2c0 1.7.83 2.97 2.13 3.8A9.14 9.14 0 0 0 9 18c.29 0 .57 0 .85-.03l-1.41-1.4a1.5 1.5 0 0 1 0-2.13l2-2A1.5 1.5 0 0 1 12.9 14h1.18a1.5 1.5 0 0 1 1.65-1.98A2 2 0 0 0 14 11H4Zm7.85 6.85a.5.5 0 0 1-.7 0l-2-2a.5.5 0 0 1 0-.7l2-2a.5.5 0 0 1 .7.7L10.71 15h5.58l-1.14-1.15a.5.5 0 0 1 .7-.7l2 2c.2.2.2.5 0 .7l-2 2a.5.5 0 0 1-.7-.7L16.29 16h-5.58l1.14 1.15c.2.2.2.5 0 .7Z"/></svg>