<svg width="20" height="20" viewBox="0 0 20 20" xmlns="http://www.w3.org/2000/svg"><path d="M6 2a2 2 0 0 0-2 2v7h1V4a1 1 0 0 1 1-1h4v3.5c0 .83.67 1.5 1.5 1.5H15v8a1 1 0 0 1-1 1h-2.26c-.12.36-.3.7-.5 1H14a2 2 0 0 0 2-2V7.41c0-.4-.16-.78-.44-1.06l-3.91-3.91A1.5 1.5 0 0 0 10.59 2H6Zm8.8 5h-3.3a.5.5 0 0 1-.5-.5V3.2L14.8 7ZM5 12.5a.5.5 0 0 0-.5-.5h-.2a3.5 3.5 0 0 0 .2 7h.09a.5.5 0 0 0-.09-1h-.16a2.5 2.5 0 0 1 .16-5h.09a.5.5 0 0 0 .41-.5Zm6 3A3.5 3.5 0 0 0 7.5 12h-.09a.5.5 0 0 0 .09 1h.16a2.5 2.5 0 0 1-.16 5l-.1.01a.5.5 0 0 0 .1 1V19h.2a3.5 3.5 0 0 0 3.3-3.5ZM7.5 15H4.41a.5.5 0 0 0 .09 1h3.09a.5.5 0 0 0-.09-1Z"/></svg>