<svg width="20" height="20" viewBox="0 0 20 20" xmlns="http://www.w3.org/2000/svg"><path d="M6 2a2 2 0 0 0-2 2v9h1V4a1 1 0 0 1 1-1h4v3.5c0 .83.67 1.5 1.5 1.5H15v8a1 1 0 0 1-1 1h-3.04c-.05.35-.15.69-.3 1H14a2 2 0 0 0 2-2V7.41c0-.4-.16-.78-.44-1.06l-3.91-3.91A1.5 1.5 0 0 0 10.59 2H6Zm8.8 5h-3.3a.5.5 0 0 1-.5-.5V3.2L14.8 7ZM3.5 14a2.5 2.5 0 0 0 0 5H4a.5.5 0 0 0 0-1h-.5a1.5 1.5 0 0 1 0-3H4a.5.5 0 0 0 0-1h-.5ZM7 14a.5.5 0 0 0 0 1h.5a1.5 1.5 0 0 1 0 3H7a.5.5 0 0 0 0 1h.5a2.5 2.5 0 0 0 0-5H7Zm-4 2.5c0-.28.22-.5.5-.5h4a.5.5 0 0 1 0 1h-4a.5.5 0 0 1-.5-.5Z"/></svg>