<svg width="24" height="24" viewBox="0 0 24 24" xmlns="http://www.w3.org/2000/svg"><path d="M12 2v6c0 1.1.9 2 2 2h6v10a2 2 0 0 1-2 2h-5a5 5 0 0 0-4-8H4V4c0-1.1.9-2 2-2h6Zm1.5.5V8c0 .28.22.5.5.5h5.5l-6-6ZM5.75 15.75A.75.75 0 0 0 5 15h-.2a4 4 0 0 0 .2 8h.1a.75.75 0 0 0-.1-1.5h-.16a2.5 2.5 0 0 1 .16-5h.1a.75.75 0 0 0 .65-.75ZM13 19a4 4 0 0 0-4-4h-.1a.75.75 0 0 0 .1 1.5h.16a2.5 2.5 0 0 1-.16 5h-.1A.75.75 0 0 0 9 23h.2a4 4 0 0 0 3.8-4Zm-4.25-.75h-3.6a.75.75 0 0 0 .1 1.5h3.6a.75.75 0 0 0-.1-1.5Z"/></svg>