<svg width="48" height="48" viewBox="0 0 48 48" xmlns="http://www.w3.org/2000/svg"><path d="M38.15 4.04a5.25 5.25 0 015.82 5.81L41.3 33.24a4.25 4.25 0 01-7.2 2.55L31.27 33l-9.46 9.47a5.25 5.25 0 01-7.43 0L5.54 33.6a5.25 5.25 0 010-7.42L15 16.74l-2.75-2.75a4.25 4.25 0 012.52-7.23l23.39-2.72zm3.33 5.53a2.75 2.75 0 00-3.05-3.04L15.05 9.25A1.75 1.75 0 0014 12.22l3.64 3.64c.48.48.48 1.28 0 1.76L7.3 27.96a2.75 2.75 0 000 3.89l8.83 8.84a2.75 2.75 0 003.9 0l10.33-10.33a1.25 1.25 0 011.76 0L35.86 34c1.04 1.02 2.8.4 2.96-1.05l2.66-23.4z"/></svg>