<svg width="24" height="24" viewBox="0 0 24 24" xmlns="http://www.w3.org/2000/svg"><path d="M20.5 4a.45.45 0 00-.5-.5L7.94 4.84a.45.45 0 00-.27.77l1.8 1.8c.29.29.29.76 0 1.06L3.63 14.3a.45.45 0 000 .64l5.43 5.43c.18.17.46.17.64 0l5.83-5.84c.3-.29.77-.29 1.06 0l1.8 1.8c.27.27.72.1.76-.27L20.5 4zm-.67-1.99c1.24-.14 2.3.91 2.16 2.16l-1.34 12.06a1.95 1.95 0 01-3.32 1.16l-1.27-1.27-5.3 5.3c-.76.77-2 .77-2.76 0L2.57 16c-.76-.76-.76-2 0-2.76l5.3-5.3-1.26-1.27a1.95 1.95 0 011.16-3.32l12.06-1.34z"/></svg>