<svg width="28" height="28" viewBox="0 0 28 28" xmlns="http://www.w3.org/2000/svg"><path d="m15 17.3 7.36 5.84c1.07.85 2.64.09 2.64-1.27V6.13a1.63 1.63 0 0 0-2.64-1.27L15 10.7V6.13a1.63 1.63 0 0 0-2.64-1.27L2.73 12.5a1.92 1.92 0 0 0 0 3l9.63 7.64c1.07.85 2.64.09 2.64-1.27V17.3Zm0-4.69 8.3-6.58a.12.12 0 0 1 .06-.03c.02 0 .04 0 .07.02l.05.04.02.07v15.74c0 .03 0 .05-.02.07a.13.13 0 0 1-.05.04.13.13 0 0 1-.07.02l-.06-.03-8.3-6.58V12.6Zm-1.7-6.58a.12.12 0 0 1 .06-.03c.02 0 .04 0 .07.02l.05.04.02.07v15.74l-.02.07a.13.13 0 0 1-.05.04.13.13 0 0 1-.07.02l-.06-.03-9.64-7.64a.42.42 0 0 1 0-.66l9.64-7.64Z"/></svg>