<svg width="20" height="20" viewBox="0 0 20 20" xmlns="http://www.w3.org/2000/svg"><path d="M5.66 11a4.5 4.5 0 0 1 4.38-5.47A4.48 4.48 0 0 1 14.4 11h3.09a.5.5 0 0 1 0 1h-15a.5.5 0 0 1 0-1h3.16Zm4.47 7a.5.5 0 0 1-.21 0h.21ZM5.08 4.38 5 4.32a.5.5 0 0 0-.64.77l.86.86.07.05a.5.5 0 0 0 .63-.76l-.85-.86Zm10.66.64a.5.5 0 0 0-.77-.64l-.85.86-.06.07a.5.5 0 0 0 .76.64l.86-.86.06-.07Zm-5.22-2.59a.5.5 0 0 0-1 .1v1.2l.02.1a.5.5 0 0 0 .99-.1v-1.2l-.01-.1ZM8.5 16a.5.5 0 0 0 0 1h3a.5.5 0 0 0 0-1h-3ZM5 14c0-.28.22-.5.5-.5h9a.5.5 0 0 1 0 1h-9A.5.5 0 0 1 5 14Z"/></svg>