<svg width="20" height="20" viewBox="0 0 20 20" xmlns="http://www.w3.org/2000/svg"><path d="M4 3.96c0-1.1.9-2.03 2.03-1.96 4.45.28 8.35 1.77 11.4 4.7.87.82.7 2.17-.2 2.86l-.25.19-.4-.44V9.3A16.37 16.37 0 0 0 4.88 4.5H4v-.55ZM4 5.5V16.5a1.5 1.5 0 0 0 2.4 1.2L8 16.5a1 1 0 0 0 2 0v-2a.5.5 0 0 1 1-.06V15a1 1 0 0 0 2 0v-2.24c.82-.6 2.09-1.56 3.19-2.4l-.33-.37A15.37 15.37 0 0 0 4.87 5.5H4Zm4.25 2.74a.75.75 0 1 1-1.5 0 .75.75 0 0 1 1.5 0Zm2.97 2a.75.75 0 1 1-1.5 0 .75.75 0 0 1 1.5 0Zm-2.96 2.5a.75.75 0 1 1-1.5 0 .75.75 0 0 1 1.5 0Z"/></svg>