<svg width="16" height="16" viewBox="0 0 16 16" xmlns="http://www.w3.org/2000/svg"><path d="M8.24 14H4.5A2.5 2.5 0 0 1 2 11.5V6h7.88c-.5.35-1.01.5-1.53.5-.8 0-1.35.68-1.35 1.38v2.51A6.14 6.14 0 0 0 8.25 14Zm3.26-8a.34.34 0 0 0-.25.11 3.89 3.89 0 0 1-2.9 1.39c-.2 0-.35.17-.35.38v2.48c.04 1.03.29 1.91.75 2.64.24.37.53.7.88 1 .48.4 1.07.73 1.76.98.07.03.15.03.22 0a4.75 4.75 0 0 0 3.4-4.85V7.87l-.02-.07a.36.36 0 0 0-.34-.3A3.52 3.52 0 0 1 13 7.1a4.72 4.72 0 0 1-1.25-.99.34.34 0 0 0-.25-.11ZM14 5v-.5A2.5 2.5 0 0 0 11.5 2h-7A2.5 2.5 0 0 0 2 4.5V5h12Z"/></svg>