<svg width="24" height="24" viewBox="0 0 24 24" xmlns="http://www.w3.org/2000/svg"><path d="M17.75 3C19.55 3 21 4.46 21 6.25v6.36a3.16 3.16 0 0 1-1.5-.72V8.5h-15v9.25c0 .97.78 1.75 1.75 1.75h7.32a5.89 5.89 0 0 0 .97 1.5H6.25A3.25 3.25 0 0 1 3 17.75V6.25C3 4.45 4.46 3 6.25 3h11.5Zm-3.06 16.5c.32.58.76 1.08 1.31 1.5.52.4 1.15.73 1.87.98.09.03.18.03.26 0 2.56-.89 3.87-2.71 3.87-5.4V14a.4.4 0 0 0-.4-.33 4.21 4.21 0 0 1-2.1-.57 5.55 5.55 0 0 1-1.22-.98.39.39 0 0 0-.56 0 4.5 4.5 0 0 1-3.32 1.55.4.4 0 0 0-.4.41v2.77c.04 1.01.27 1.9.69 2.65Zm3.06-15H6.25c-.97 0-1.75.78-1.75 1.75V7h15v-.75c0-.97-.78-1.75-1.75-1.75Z"/></svg>