<svg width="28" height="28" viewBox="0 0 28 28" xmlns="http://www.w3.org/2000/svg"><path d="M25 9.5v5.66c-.5-.23-1-.58-1.48-1.07a2 2 0 0 0-2.83 0c-1 1-2.02 1.41-3.09 1.41a2 2 0 0 0-2 2v3c0 1.68.39 3.2 1.21 4.5H6.25A3.25 3.25 0 0 1 3 21.75V9.5h22Zm-2.55 5.65c.8.79 1.64 1.33 2.55 1.6.51.17 1.05.25 1.6.25.28 0 .5.22.5.5v3c0 3.22-1.64 5.4-4.84 6.47a.5.5 0 0 1-.32 0c-3.2-1.06-4.84-3.25-4.84-6.47v-3c0-.28.22-.5.5-.5 1.53 0 2.9-.61 4.15-1.85a.5.5 0 0 1 .7 0ZM21.75 3C23.55 3 25 4.46 25 6.25V8H3V6.25C3 4.45 4.46 3 6.25 3h15.5Z"/></svg>