<svg width="32" height="32" viewBox="0 0 32 32" xmlns="http://www.w3.org/2000/svg"><path d="M7.5 3A4.5 4.5 0 0 0 3 7.5V9h26V7.5A4.5 4.5 0 0 0 24.5 3h-17ZM29 11H3v13.5A4.5 4.5 0 0 0 7.5 29h9.47a9.28 9.28 0 0 1-2.47-6.47V18.5a2 2 0 0 1 1.72-1.98 13.55 13.55 0 0 0 5.67-2.18 2 2 0 0 1 2.22 0A13.59 13.59 0 0 0 29 16.39V11Zm0 6.91a15.07 15.07 0 0 1-5.72-2.33.5.5 0 0 0-.56 0 15.05 15.05 0 0 1-6.3 2.42.5.5 0 0 0-.42.5v4.03c0 2.65 1.07 4.81 3.17 6.47 1 .78 2.2 1.45 3.65 2a.5.5 0 0 0 .36 0c4.51-1.74 6.82-4.58 6.82-8.47V18.5a.5.5 0 0 0-.43-.5c-.2-.02-.38-.05-.57-.09Z"/></svg>