<svg width="48" height="48" viewBox="0 0 48 48" xmlns="http://www.w3.org/2000/svg"><path d="M6 12.25C6 8.8 8.8 6 12.25 6h23.5C39.2 6 42 8.8 42 12.25v14.16c-.82-.3-1.66-.71-2.5-1.26V16.5h-31v19.25a3.75 3.75 0 0 0 3.75 3.75h14.54c.32.88.76 1.71 1.3 2.5H12.25A6.25 6.25 0 0 1 6 35.75v-23.5Zm33.5 15.22c.83.45 1.66.8 2.5 1.05 1.07.32 2.16.48 3.25.48.41 0 .75.34.75.75V35c0 5-2.96 8.68-8.73 10.95a.75.75 0 0 1-.54 0 15.93 15.93 0 0 1-6.1-3.95A10.11 10.11 0 0 1 28 35v-5.25c0-.41.34-.75.75-.75 2.66 0 5.26-.94 7.8-2.85.27-.2.63-.2.9 0 .68.51 1.36.95 2.05 1.32ZM12.25 8.5a3.75 3.75 0 0 0-3.75 3.75V14h31v-1.75a3.75 3.75 0 0 0-3.75-3.75h-23.5Z"/></svg>