<svg width="16" height="16" viewBox="0 0 16 16" xmlns="http://www.w3.org/2000/svg"><path d="M11.5 2A2.5 2.5 0 0 1 14 4.5v1.92a2.56 2.56 0 0 1-.53-.21 3.72 3.72 0 0 1-.99-.78A1.33 1.33 0 0 0 11.5 5H13v-.5c0-.83-.67-1.5-1.5-1.5h-7C3.67 3 3 3.67 3 4.5V5h8.5c-.35 0-.71.14-.98.43-.21.23-.43.42-.64.57H3v5.5c0 .83.67 1.5 1.5 1.5h3.1a5.36 5.36 0 0 0 .64 1H4.5A2.5 2.5 0 0 1 2 11.5v-7A2.5 2.5 0 0 1 4.5 2h7ZM13 7.1a3.57 3.57 0 0 0 1.65.4c.17 0 .31.13.34.3l.01.08v2.25a4.75 4.75 0 0 1-3.39 4.85.33.33 0 0 1-.22 0A5.67 5.67 0 0 1 9.63 14c-.35-.3-.64-.63-.88-1A5.15 5.15 0 0 1 8 10.36V7.87c0-.2.16-.37.35-.37 1.07 0 2.03-.46 2.9-1.39a.33.33 0 0 1 .5 0 4.72 4.72 0 0 0 1.25.98Z"/></svg>