<svg width="24" height="24" viewBox="0 0 24 24" xmlns="http://www.w3.org/2000/svg"><path d="M15.75 2C16.99 2 18 3 18 4.25v15.5c0 1.24-1 2.25-2.25 2.25h-7.5C7.01 22 6 21 6 19.75V4.25C6 3.01 7 2 8.25 2h7.5Zm0 1.5h-7.5a.75.75 0 0 0-.75.75v15.5c0 .41.34.75.75.75h7.5c.41 0 .75-.34.75-.75V4.25a.75.75 0 0 0-.75-.75Zm-.97 9.96c.26.27.3.68.08.98l-.07.09-2.25 2.3c-.27.26-.7.29-1 .07l-.08-.08-2.25-2.3a.75.75 0 0 1 .99-1.12l.08.07L12 15.22l1.71-1.75c.3-.3.77-.3 1.06 0Zm-2.24-6.23 2.25 2.3a.75.75 0 1 1-1.08 1.04L12 8.82l-1.72 1.75a.75.75 0 0 1-1.07-1.05l2.25-2.3c.3-.3.78-.3 1.08 0Z"/></svg>