<svg width="20" height="20" viewBox="0 0 20 20" xmlns="http://www.w3.org/2000/svg"><path d="M6.7 1.96a.75.75 0 00-1.4 0l-2.5 6a.75.75 0 001.4.58l.43-1.04h2.75l.43 1.04a.75.75 0 001.38-.58l-2.5-6zM6.74 6h-1.5L6 4.2 6.75 6zm.58 6.5l1.86 4.46a.75.75 0 01-1.38.58l-.43-1.04H4.63l-.44 1.04a.75.75 0 01-1.38-.58l1.86-4.47A2 2 0 016 9a2 2 0 011.33 3.5zM6.75 15L6 13.2 5.25 15h1.5zM5.5 11a.5.5 0 101 0 .5.5 0 00-1 0zm8.75-9c.41 0 .75.34.75.75v12.57l1.45-1.58a.75.75 0 011.1 1.02l-2.75 3a.75.75 0 01-1.1 0l-2.75-3a.75.75 0 011.1-1.02l1.45 1.58V2.75c0-.41.34-.75.75-.75z"/></svg>