<svg width="24" height="24" viewBox="0 0 24 24" xmlns="http://www.w3.org/2000/svg"><path d="M7.92 2.6a1 1 0 00-1.84 0l-3 7a1 1 0 101.84.8l.6-1.4h2.96l.6 1.4a1 1 0 001.84-.8l-3-7zM7.62 7H6.38L7 5.54 7.63 7zm1.1 8.3A2.5 2.5 0 007 11a2.5 2.5 0 00-1.73 4.3l-2.2 5.32a1 1 0 101.85.76L5.5 20h3l.58 1.38a1 1 0 101.84-.76l-2.2-5.31zM7.69 18H6.32L7 16.37 7.68 18zM6.5 13.5a.5.5 0 111 0 .5.5 0 01-1 0zM17.5 2a1 1 0 011 1v15.59l1.8-1.8a1 1 0 011.4 1.42l-3.5 3.5a1 1 0 01-1.4 0l-3.5-3.5a1 1 0 011.4-1.42l1.8 1.8V3a1 1 0 011-1z"/></svg>