<svg width="24" height="24" viewBox="0 0 24 24" xmlns="http://www.w3.org/2000/svg"><path d="M12 8V2H6a2 2 0 0 0-2 2v7.5a6.48 6.48 0 0 1 6.03.54c.09-.31.38-.54.72-.54h5.5a.75.75 0 0 1 0 1.5h-5.06c.43.44.8.95 1.08 1.5h3.98a.75.75 0 0 1 0 1.5h-3.42c.11.48.17.98.17 1.5h3.25a.75.75 0 0 1 0 1.5h-3.42a6.49 6.49 0 0 1-1.64 3H18a2 2 0 0 0 2-2V10h-6a2 2 0 0 1-2-2Zm1.5 0V2.5l6 6H14a.5.5 0 0 1-.5-.5Zm-7 15a5.5 5.5 0 1 1 0-11 5.5 5.5 0 0 1 0 11Zm3-5a.5.5 0 0 0 0-1H4.7l1.65-1.65a.5.5 0 0 0-.7-.7l-2.5 2.5a.5.5 0 0 0 0 .7l2.5 2.5a.5.5 0 0 0 .7-.7L4.71 18H9.5Z"/></svg>