<svg width="16" height="16" viewBox="0 0 16 16" xmlns="http://www.w3.org/2000/svg"><path d="M6 1a2 2 0 0 0-2 2v2.2c.32-.08.66-.15 1-.18V3a1 1 0 0 1 1-1h3v2.5c0 .83.67 1.5 1.5 1.5H13v7a1 1 0 0 1-1 1H9.74c-.31.38-.67.72-1.08 1H12a2 2 0 0 0 2-2V5.41c0-.4-.16-.78-.44-1.06l-2.91-2.91A1.5 1.5 0 0 0 9.59 1H6Zm3.74 6c.26.3.48.64.66 1h1.1a.5.5 0 0 0 0-1H9.74Zm1.05 2c.1.32.16.66.19 1h.52a.5.5 0 0 0 0-1h-.7Zm.19 2c-.03.34-.1.68-.19 1h.71a.5.5 0 0 0 0-1h-.52Zm1.81-6H10.5a.5.5 0 0 1-.5-.5V2.2L12.8 5ZM5.5 15a4.5 4.5 0 1 1 0-9 4.5 4.5 0 0 1 0 9Zm-2.35-4.85a.5.5 0 0 0-.15.35.5.5 0 0 0 .15.35l2 2a.5.5 0 0 0 .7-.7L4.71 11H7.5a.5.5 0 0 0 0-1H4.7l1.15-1.15a.5.5 0 1 0-.7-.7l-2 2Z"/></svg>