<svg width="24" height="24" viewBox="0 0 24 24" xmlns="http://www.w3.org/2000/svg"><path d="M10.75 11.5a.75.75 0 0 0-.72.54c.42.28.81.6 1.16.96h5.06a.75.75 0 0 0 0-1.5h-5.5ZM5.5 4v7.08c-.52.08-1.03.22-1.5.42V4c0-1.1.9-2 2-2h6.17a.6.6 0 0 1 .08 0l.06.01c.22.02.43.06.63.14l.16.09c.02 0 .04.02.05.03l.05.02.08.05a2.07 2.07 0 0 1 .3.25l5.83 5.82A2 2 0 0 1 20 9.83V20a2 2 0 0 1-2 2h-6.81c.43-.44.8-.95 1.08-1.5H18a.5.5 0 0 0 .5-.5V10H14a2 2 0 0 1-2-2V3.5H6a.5.5 0 0 0-.5.5Zm10.75 15h-3.42c.11-.48.17-.98.17-1.5h3.25a.75.75 0 0 1 0 1.5Zm0-3h-3.42a6.46 6.46 0 0 0-.56-1.5h3.98a.75.75 0 0 1 0 1.5ZM13.5 4.62V8c0 .28.22.5.5.5h3.38L13.5 4.62ZM6.5 23a5.5 5.5 0 1 1 0-11 5.5 5.5 0 0 1 0 11Zm3-5a.5.5 0 0 0 0-1H4.7l1.65-1.65a.5.5 0 0 0-.7-.7l-2.5 2.5a.5.5 0 0 0 0 .7l2.5 2.5a.5.5 0 0 0 .7-.7L4.71 18H9.5Z"/></svg>