<svg width="20" height="20" viewBox="0 0 20 20" xmlns="http://www.w3.org/2000/svg"><path d="M12.85 6.85a.5.5 0 00-.7-.7L7.5 10.79 5.85 9.15a.5.5 0 10-.7.7l2 2c.2.2.5.2.7 0l5-5zM4.68 2A2.68 2.68 0 002 4.68v8.64C2 14.8 3.2 16 4.68 16h4.53c-.1-.32-.16-.66-.19-1H4.68C3.75 15 3 14.25 3 13.32V4.68C3 3.75 3.75 3 4.68 3h8.64c.93 0 1.68.75 1.68 1.68v4.34c.34.03.68.1 1 .19V4.68C16 3.2 14.8 2 13.32 2H4.68zM19 14.5a4.5 4.5 0 11-9 0 4.5 4.5 0 019 0zm-2.15.35a.5.5 0 00.15-.35.5.5 0 00-.15-.35l-2-2a.5.5 0 00-.7.7L15.29 14H12.5a.5.5 0 000 1h2.8l-1.15 1.15a.5.5 0 00.7.7l2-2z"/></svg>