<svg width="24" height="24" viewBox="0 0 24 24" xmlns="http://www.w3.org/2000/svg"><path d="M5.25 2A3.25 3.25 0 002 5.25v11.5C2 18.55 3.46 20 5.25 20h6.25c-.2-.47-.34-.98-.42-1.5H5.25c-.97 0-1.75-.78-1.75-1.75V5.25c0-.97.78-1.75 1.75-1.75h11.5c.97 0 1.75.78 1.75 1.75v5.83c.52.08 1.03.22 1.5.42V5.25C20 3.45 18.54 2 16.75 2H5.25zm11.03 6.28a.75.75 0 10-1.06-1.06L9 13.44l-2.22-2.22a.75.75 0 00-1.06 1.06l2.75 2.75c.29.29.76.29 1.06 0l6.75-6.75zM17.5 12a5.5 5.5 0 110 11 5.5 5.5 0 010-11zm-3 5a.5.5 0 000 1h4.8l-1.65 1.65a.5.5 0 00.7.7l2.5-2.5a.5.5 0 000-.7l-2.5-2.5a.5.5 0 00-.7.7L19.29 17H14.5z"/></svg>