<svg width="16" height="16" viewBox="0 0 16 16" xmlns="http://www.w3.org/2000/svg"><path d="M14.41 4.59A2 2 0 0 0 13 4V2.5a.5.5 0 0 0-1 0V4h-2V2.5a.5.5 0 1 0-1 0V4H7V2.5a.5.5 0 1 0-1 0V4H4V2.5a.5.5 0 1 0-1 0V4a2 2 0 0 0-2 2v4a2 2 0 0 0 2 2v1.5a.5.5 0 0 0 1 0V12h2v1.5a.5.5 0 0 0 1 0V12h2v1.5a.5.5 0 0 0 1 0V12h2v1.5a.5.5 0 0 0 1 0V12a2 2 0 0 0 2-2V6a2 2 0 0 0-.59-1.41ZM14 10a1 1 0 0 1-1 1H3a1 1 0 0 1-1-1V6a1 1 0 0 1 1-1h10a1 1 0 0 1 1 1v4Zm-1.5-4h-9a.5.5 0 0 0-.5.5v3a.5.5 0 0 0 .5.5h9a.5.5 0 0 0 .5-.5v-3a.5.5 0 0 0-.5-.5ZM12 9H4V7h8v2Z"/></svg>