<svg width="24" height="24" viewBox="0 0 24 24" xmlns="http://www.w3.org/2000/svg"><path d="M13.32 2.6c-.7-.8-1.94-.8-2.64 0l-8.25 9.5A1.75 1.75 0 0 0 3.75 15H7v2.25c0 .97.78 1.75 1.75 1.75h6.5c.97 0 1.75-.78 1.75-1.75V15h3.24c1.5 0 2.31-1.76 1.33-2.9l-8.25-9.5Zm-1.51.99c.1-.12.28-.12.38 0l8.24 9.5c.14.16.03.41-.19.41h-3.99a.75.75 0 0 0-.75.75v3c0 .14-.11.25-.25.25h-6.5a.25.25 0 0 1-.25-.25v-3a.75.75 0 0 0-.75-.75h-4a.25.25 0 0 1-.18-.41l8.24-9.5ZM7.75 20.5a.75.75 0 1 0 0 1.5h8.5a.75.75 0 0 0 0-1.5h-8.5Z"/></svg>