<svg width="24" height="24" viewBox="0 0 24 24" xmlns="http://www.w3.org/2000/svg"><path d="M12.02 3A6.5 6.5 0 0 0 22 11.2v3.55c0 1.8-1.46 3.25-3.25 3.25h-5.79l-5.38 3.82A1 1 0 0 1 6 21v-3h-.75A3.25 3.25 0 0 1 2 14.75v-8.5C2 4.45 3.46 3 5.25 3h6.77Zm5.48-2a5.5 5.5 0 1 1 0 11 5.5 5.5 0 0 1 0-11Zm-1.28 2.59-.07.06-2.53 2.53-.03.04-.04.07-.03.08-.02.08v.14l.02.06.03.06.03.06.04.05 2.53 2.53a.5.5 0 0 0 .76-.63l-.06-.07L15.21 7h5.29a.5.5 0 0 0 .5-.41V6.5a.5.5 0 0 0-.41-.5H15.2l1.65-1.65a.5.5 0 0 0 .06-.63l-.06-.07a.5.5 0 0 0-.63-.06Z"/></svg>