<svg width="20" height="20" viewBox="0 0 20 20" xmlns="http://www.w3.org/2000/svg"><path d="M8.16 2.21a8.02 8.02 0 0 1 3.68 0 .75.75 0 0 1-.35 1.46 6.52 6.52 0 0 0-2.98 0 .75.75 0 0 1-.35-1.46ZM6.83 3.44c.21.35.1.81-.25 1.03a6.54 6.54 0 0 0-2.11 2.11.75.75 0 0 1-1.28-.79 8.04 8.04 0 0 1 2.6-2.6.75.75 0 0 1 1.04.25Zm6.34 0a.75.75 0 0 1 1.04-.25 8.04 8.04 0 0 1 2.6 2.6.75.75 0 0 1-1.28.8 6.54 6.54 0 0 0-2.11-2.12.75.75 0 0 1-.25-1.03ZM3.11 7.6c.4.1.66.5.56.9a6.52 6.52 0 0 0 0 3 .75.75 0 0 1-1.46.34 8.02 8.02 0 0 1 0-3.68c.1-.4.5-.65.9-.56Zm13.78 0c.4-.1.8.16.9.56a8.02 8.02 0 0 1 0 3.68.75.75 0 0 1-1.46-.35 6.52 6.52 0 0 0 0-2.98c-.1-.4.15-.81.56-.9ZM3.44 13.17a.75.75 0 0 1 1.03.25 6.54 6.54 0 0 0 2.11 2.11.75.75 0 1 1-.79 1.28 8.04 8.04 0 0 1-2.6-2.6.75.75 0 0 1 .25-1.04Zm13.67 1.27a.75.75 0 0 0-1.22-.88l-.02.03a4.79 4.79 0 0 1-.38.46c-.24.28-.6.64-1.02 1.01a6.73 6.73 0 0 0-3.97-1.31 2.6 2.6 0 0 0-1.84.68 2.17 2.17 0 0 0 0 3.14 2.6 2.6 0 0 0 1.84.68c1.53 0 2.87-.58 3.91-1.27a9.4 9.4 0 0 1 1.1 1.31 7.02 7.02 0 0 1 .3.52l.02.02c-.15-.26 0 0 0 0a.75.75 0 0 0 1.34-.67c.19.38 0 0 0 0l-.01-.02-.02-.04a5.61 5.61 0 0 0-.4-.64 9.9 9.9 0 0 0-1.13-1.4 11.79 11.79 0 0 0 1.46-1.57l.03-.04v-.01h.01Zm-6.61.81c1.03 0 1.91.3 2.65.74a5.4 5.4 0 0 1-2.65.76c-.42 0-.67-.13-.8-.26a.67.67 0 0 1 0-.98c.13-.13.38-.26.8-.26Z"/></svg>