<svg width="16" height="16" viewBox="0 0 16 16" xmlns="http://www.w3.org/2000/svg"><path d="M7 10a1 1 0 1 1-2 0 1 1 0 0 1 2 0Zm3 1a1 1 0 1 0 0-2 1 1 0 0 0 0 2ZM6 4.5c0-.28.22-.5.5-.5h3a.5.5 0 0 1 0 1h-3a.5.5 0 0 1-.5-.5Zm-4 0A2.5 2.5 0 0 1 4.5 2h7A2.5 2.5 0 0 1 14 4.5v6a2.5 2.5 0 0 1-2.5 2.5h-.62l1.87 1.07a.5.5 0 1 1-.5.86L8.87 13H7.13l-3.38 1.93a.5.5 0 0 1-.5-.86L5.12 13H4.5A2.5 2.5 0 0 1 2 10.5v-6ZM3 8v2.5c0 .83.67 1.5 1.5 1.5h7c.83 0 1.5-.67 1.5-1.5V8H3Zm10-1V4.5c0-.83-.67-1.5-1.5-1.5h-7C3.67 3 3 3.67 3 4.5V7h10Z"/></svg>