<svg width="20" height="20" viewBox="0 0 20 20" xmlns="http://www.w3.org/2000/svg"><path d="M8.75 5.25a2.25 2.25 0 1 1-4.5 0 2.25 2.25 0 0 1 4.5 0ZM4 8a1 1 0 0 0-1 1v4.5a3.5 3.5 0 1 0 7 0V9a1 1 0 0 0-1-1H4Zm5.75-2.75c0 .65-.2 1.26-.52 1.76a2 2 0 0 1 1.08.48l.19.01a2.25 2.25 0 1 0-1.31-4.08c.35.52.56 1.15.56 1.83Zm-.25 11.6A4.49 4.49 0 0 0 11 13.5V9a2 2 0 0 0-.27-1H13a1 1 0 0 1 1 1v4.5a3.5 3.5 0 0 1-4.5 3.35Zm4.25-11.6c0 .65-.2 1.26-.52 1.76a2 2 0 0 1 1.08.48l.19.01a2.25 2.25 0 1 0-1.31-4.08c.35.52.56 1.15.56 1.83Zm-.25 11.6A4.49 4.49 0 0 0 15 13.5V9a2 2 0 0 0-.27-1H17a1 1 0 0 1 1 1v4.5a3.5 3.5 0 0 1-4.5 3.35Z"/></svg>