<svg width="20" height="20" viewBox="0 0 20 20" xmlns="http://www.w3.org/2000/svg"><path d="M6.5 7.5a2.25 2.25 0 1 0 0-4.5 2.25 2.25 0 0 0 0 4.5Zm0-1a1.25 1.25 0 1 1 0-2.5 1.25 1.25 0 0 1 0 2.5ZM3 9a1 1 0 0 1 1-1h5a1 1 0 0 1 1 1v4.5a3.5 3.5 0 1 1-7 0V9Zm1 0v4.5a2.5 2.5 0 0 0 5 0V9H4Zm5.63-2.86c-.1.31-.23.6-.4.87a2 2 0 0 1 1.08.48l.19.01a2.25 2.25 0 1 0-1.31-4.08c.19.28.34.6.44.94a1.25 1.25 0 0 1 2.12.89 1.25 1.25 0 0 1-2.12.9ZM9.5 16.85A3.5 3.5 0 0 0 14 13.5V9a1 1 0 0 0-1-1h-2.27A2 2 0 0 1 11 9h2v4.5a2.5 2.5 0 0 1-2.75 2.49c-.21.32-.47.6-.75.86Zm4.13-10.7c-.1.3-.23.6-.4.86a2 2 0 0 1 1.08.48l.19.01a2.25 2.25 0 1 0-1.31-4.08c.19.28.34.6.44.94a1.25 1.25 0 0 1 2.12.89 1.25 1.25 0 0 1-2.12.9Zm-.13 10.7A3.5 3.5 0 0 0 18 13.5V9a1 1 0 0 0-1-1h-2.27A2 2 0 0 1 15 9h2v4.5a2.5 2.5 0 0 1-2.75 2.49c-.21.32-.47.6-.75.86Z"/></svg>