<svg width="24" height="24" viewBox="0 0 24 24" xmlns="http://www.w3.org/2000/svg"><path d="M7 2c.3 0 .57.18.69.45l3.25 7.5a.75.75 0 1 1-1.38.6L8.9 9H5.11l-.67 1.55a.75.75 0 1 1-1.38-.6l3.25-7.5A.75.75 0 0 1 7 2Zm0 2.64L5.76 7.5h2.48L7 4.64Zm-3.5 9.11a.75.75 0 0 0-1.5 0v7.5c0 .41.34.75.75.75h8.5c.41 0 .75-.34.75-.75v-7.5a.75.75 0 0 0-1.5 0v6.75H7.75v-3.75a.75.75 0 0 0-1.5 0v3.75H3.5v-6.75ZM17.25 2c.41 0 .75.34.75.75v16.69l2.22-2.22a.75.75 0 1 1 1.06 1.06l-3.5 3.5c-.3.3-.77.3-1.06 0l-3.5-3.5a.75.75 0 1 1 1.06-1.06l2.22 2.22V2.75c0-.41.34-.75.75-.75Z"/></svg>