<svg width="16" height="16" viewBox="0 0 16 16" xmlns="http://www.w3.org/2000/svg"><path d="M5 0c.3 0 .58.19.7.47l2 5a.75.75 0 1 1-1.4.56l-.2-.53H3.9l-.2.53a.75.75 0 1 1-1.4-.56l2-5A.75.75 0 0 1 5 0Zm0 2.77L4.5 4h1L5 2.77Zm8-1.02a.75.75 0 0 0-1.5 0v10.69l-.72-.72a.75.75 0 1 0-1.06 1.06l2 2c.3.3.77.3 1.06 0l2-2a.75.75 0 1 0-1.06-1.06l-.72.72V1.75Zm-10.5 8a.75.75 0 0 0-1.5 0v4.5c0 .41.34.75.75.75h6c.41 0 .75-.34.75-.75v-4.5a.75.75 0 0 0-1.5 0v3.75H5.5v-1.75a.75.75 0 0 0-1.5 0v1.75H2.5V9.75Z"/></svg>