<svg width="20" height="20" viewBox="0 0 20 20" xmlns="http://www.w3.org/2000/svg"><path d="M6 1c.3 0 .58.18.7.46l2.5 6a.75.75 0 1 1-1.4.58L7.39 7H4.63l-.44 1.04a.75.75 0 1 1-1.38-.58l2.5-6A.75.75 0 0 1 6 1Zm0 2.7-.75 1.8h1.5L6 3.7Zm9-.95a.75.75 0 0 0-1.5 0v12.57l-1.45-1.58a.75.75 0 0 0-1.1 1.02l2.75 3a.75.75 0 0 0 1.1 0l2.75-3a.75.75 0 0 0-1.1-1.02L15 15.32V2.75Zm-12 9a.75.75 0 0 0-1.5 0v5.5c0 .41.34.75.75.75h7c.41 0 .75-.34.75-.75v-5.5a.75.75 0 0 0-1.5 0v4.75h-2v-2.75a.75.75 0 0 0-1.5 0v2.75H3v-4.75Z"/></svg>