<svg width="48" height="48" viewBox="0 0 48 48" xmlns="http://www.w3.org/2000/svg"><path d="M11.75 6A3.75 3.75 0 0 0 8 9.75v28.5A3.75 3.75 0 0 0 11.75 42h6.5A3.75 3.75 0 0 0 22 38.25V9.75A3.75 3.75 0 0 0 18.25 6h-6.5ZM10.5 9.75c0-.69.56-1.25 1.25-1.25h6.5c.69 0 1.25.56 1.25 1.25v28.5c0 .69-.56 1.25-1.25 1.25h-6.5c-.69 0-1.25-.56-1.25-1.25V9.75ZM29.75 6A3.75 3.75 0 0 0 26 9.75v28.5A3.75 3.75 0 0 0 29.75 42h6.5A3.75 3.75 0 0 0 40 38.25V9.75A3.75 3.75 0 0 0 36.25 6h-6.5ZM28.5 9.75c0-.69.56-1.25 1.25-1.25h6.5c.69 0 1.25.56 1.25 1.25v28.5c0 .69-.56 1.25-1.25 1.25h-6.5c-.69 0-1.25-.56-1.25-1.25V9.75Z"/></svg>