<svg width="20" height="20" viewBox="0 0 20 20" xmlns="http://www.w3.org/2000/svg"><path d="M6 3a3 3 0 00-3 3v8a3 3 0 003 3h3.05a2.46 2.46 0 01-.05-.5v-4.04l-1.4 1.4a.5.5 0 01-.69 0l-.75-.68a.5.5 0 01.68-.73l.4.36 1.4-1.41a.5.5 0 01.36-.15v-.75c0-1.22.88-2.11 1.83-2.64A7.68 7.68 0 0114.5 7c.89 0 1.74.13 2.5.36V6a3 3 0 00-3-3H6zm11 5.42A7.25 7.25 0 0014.5 8C12.01 8 10 9.12 10 10.5s2.02 2.5 4.5 2.5c2.49 0 4.5-1.12 4.5-2.5 0-.87-.8-1.63-2-2.08zM9.35 6.4c.2.2.2.5 0 .7L7.6 8.85a.5.5 0 01-.69.02l-.75-.69a.5.5 0 11.68-.73l.4.36 1.4-1.41c.2-.2.52-.2.71 0zM14.5 14c1.38 0 2.68-.3 3.67-.86.29-.16.58-.36.83-.59v3.95c0 1.38-2.01 2.5-4.5 2.5S10 17.88 10 16.5v-3.95c.25.23.54.43.83.6 1 .54 2.29.85 3.67.85z"/></svg>