<svg width="20" height="20" viewBox="0 0 20 20" xmlns="http://www.w3.org/2000/svg"><path d="M6 3a3 3 0 00-3 3v8a3 3 0 003 3h3.05a2.46 2.46 0 01-.05-.5V16H6a2 2 0 01-2-2V6c0-1.1.9-2 2-2h8a2 2 0 012 2v1.13c.35.06.68.14 1 .23V6a3 3 0 00-3-3H6zm11 5.42A7.81 7.81 0 0014.5 8C12.01 8 10 9.12 10 10.5s2.01 2.5 4.5 2.5 4.5-1.12 4.5-2.5c0-.87-.8-1.63-2-2.08zm-8 2.83a.5.5 0 00-.35.15l-1.42 1.4-.4-.35a.5.5 0 00-.67.73l.75.69c.2.18.5.17.7-.02L9 12.45v-1.2zm.35-4.15a.5.5 0 00-.7-.7L7.23 7.8l-.4-.35a.5.5 0 00-.67.73l.75.69c.2.18.5.17.7-.02L9.34 7.1zM14.5 14c1.38 0 2.68-.3 3.67-.86.29-.16.58-.36.83-.59v3.95c0 1.38-2.01 2.5-4.5 2.5S10 17.88 10 16.5v-3.95c.25.23.54.43.83.6 1 .54 2.29.85 3.67.85z"/></svg>