<svg width="20" height="20" viewBox="0 0 20 20" xmlns="http://www.w3.org/2000/svg"><path d="M13.84 5H6.16a3.4 3.4 0 001.06 1.56l1.82 1.52a2.48 2.48 0 01.9 1.92 2.48 2.48 0 01-.9 1.92l-1.82 1.52A3.41 3.41 0 006 16h8c0-.48-.11-.96-.31-1.4a3.37 3.37 0 00-.91-1.16L11 11.91c-.28-.23-.5-.52-.65-.85a2.42 2.42 0 01-.29-1.06c.01-.37.11-.73.29-1.06.15-.33.37-.62.65-.85l1.78-1.53A3.37 3.37 0 0013.84 5zM5.2 17.84c.22.1.47.16.72.16h8.16a1.93 1.93 0 001.76-1.2c.1-.22.16-.47.16-.72a5.32 5.32 0 00-.5-2.31 5.06 5.06 0 00-1.44-1.87l-1.82-1.52a.5.5 0 010-.77l1.82-1.52A5.3 5.3 0 0016 3.92a1.93 1.93 0 00-1.2-1.76c-.22-.1-.47-.16-.72-.16H5.92a1.93 1.93 0 00-1.76 1.2c-.1.22-.16.47-.16.72A5.34 5.34 0 005.94 8.1l1.82 1.53c.06.04.1.1.13.17a.5.5 0 01-.13.6l-1.82 1.5a5.65 5.65 0 00-1.44 1.88 5.32 5.32 0 00-.5 2.3 1.93 1.93 0 001.2 1.77zm9.2-.91a.96.96 0 01-.36.07H5.96c-.14 0-.26-.03-.37-.08-.11-.05-.21-.11-.3-.2a.87.87 0 01-.22-.3.98.98 0 01-.07-.38 4.45 4.45 0 011.58-3.37l1.82-1.52A1.53 1.53 0 008.94 10a1.51 1.51 0 00-.54-1.16L6.58 7.33A4.02 4.02 0 015.4 5.82 4.06 4.06 0 015 3.96c0-.14.03-.26.08-.37.04-.11.11-.21.2-.3.09-.1.2-.17.3-.22A.98.98 0 015.97 3h8.08c.14.01.26.04.37.08.11.04.21.1.3.2a.95.95 0 01.29.68 4.43 4.43 0 01-1.58 3.37L11.6 8.84a1.51 1.51 0 000 2.3l1.82 1.53A4.37 4.37 0 0115 16.04c-.01.14-.04.26-.08.37-.04.11-.1.21-.2.3-.1.1-.2.17-.31.22z"/></svg>