<svg width="20" height="20" viewBox="0 0 20 20" xmlns="http://www.w3.org/2000/svg"><path d="M18 5.5a4.5 4.5 0 1 1-9 0 4.5 4.5 0 0 1 9 0Zm-2.85-1.85L12.5 6.29l-.65-.64a.5.5 0 0 0-.7.7l1 1c.2.2.5.2.7 0l3-3a.5.5 0 0 0-.7-.7ZM16 10.4v.6h-3.5a.5.5 0 0 0-.5.5v.01a1.75 1.75 0 0 1-.03.3c-.04.2-.1.46-.23.72-.13.25-.3.49-.57.66-.26.18-.63.31-1.17.31-.54 0-.9-.13-1.17-.3a1.7 1.7 0 0 1-.57-.67A2.57 2.57 0 0 1 8 11.5v-.01a.5.5 0 0 0-.5-.5H4V7c0-1.1.9-2 2-2h2.02c.03-.34.1-.68.19-1H6a3 3 0 0 0-3 3v8a3 3 0 0 0 3 3h8a3 3 0 0 0 3-3V9.74c-.3.26-.64.48-1 .66Z"/></svg>