<svg width="28" height="28" viewBox="0 0 28 28" xmlns="http://www.w3.org/2000/svg"><path d="M15 15c.12 0 .25.01.36.03-.46.44-.87.93-1.2 1.47H4l-.1.01a.5.5 0 00-.25.14.5.5 0 00-.14.25l-.01.1v2.5c0 1.34.59 2.33 1.8 3.02 1 .58 2.38.93 3.86.97l.34.01.43-.01c.8-.04 2.2-.18 3.4-.76.16.48.35.94.59 1.37-1.38.65-3 .9-4.42.9-3.15 0-7.33-1.25-7.5-5.25V17a2 2 0 011.85-2H15zm10-6.5a4.5 4.5 0 11-9 0 4.5 4.5 0 019 0zm-4.5-3a3 3 0 100 6 3 3 0 000-6zM9.5 2a5.5 5.5 0 110 11 5.5 5.5 0 010-11zm0 1.5a4 4 0 100 8 4 4 0 000-8zm17.5 17a6.5 6.5 0 11-13 0 6.5 6.5 0 0113 0zm-6-4a.5.5 0 00-1 0V20h-3.5a.5.5 0 000 1H20v3.5a.5.5 0 001 0V21h3.5a.5.5 0 000-1H21v-3.5z"/></svg>