<svg width="48" height="48" viewBox="0 0 48 48" xmlns="http://www.w3.org/2000/svg"><path d="M12.25 12A4.25 4.25 0 008 16.25v2.46A5.5 5.5 0 004 24v7.75C4 34.1 5.9 36 8.25 36h31.5C42.1 36 44 34.1 44 31.75V24a5.5 5.5 0 00-4-5.3v-2.45C40 13.9 38.1 12 35.75 12h-23.5zm25.25 6.6A5.5 5.5 0 0033 24H15a5.5 5.5 0 00-4.5-5.4v-2.35c0-.97.78-1.75 1.75-1.75h23.5c.97 0 1.75.78 1.75 1.75v2.34zM6.5 24a3 3 0 116 0v1.25c0 .69.56 1.25 1.25 1.25h20.5c.69 0 1.25-.56 1.25-1.25V24a3 3 0 116 0v7.75c0 .97-.78 1.75-1.75 1.75H8.25c-.97 0-1.75-.78-1.75-1.75V24z"/></svg>