<svg width="24" height="24" viewBox="0 0 24 24" xmlns="http://www.w3.org/2000/svg"><path d="M7.25 4A2.75 2.75 0 004.5 6.75v1.34A3.25 3.25 0 002 11.25v3c0 1.43 1.1 2.61 2.5 2.74v1.26a.75.75 0 001.5 0V17h12v1.25a.75.75 0 001.5 0v-1.26c1.4-.13 2.5-1.3 2.5-2.74v-3a3.25 3.25 0 00-2.5-3.16V6.75A2.75 2.75 0 0016.75 4h-9.5zm12 11.5H4.75c-.69 0-1.25-.56-1.25-1.25v-3a1.75 1.75 0 113.5 0v.5c0 .41.34.75.75.75h8.5c.41 0 .75-.34.75-.75v-.5a1.75 1.75 0 113.5 0v3c0 .69-.56 1.25-1.25 1.25zM18 8.09A3.25 3.25 0 0015.5 11h-7A3.25 3.25 0 006 8.09V6.75c0-.69.56-1.25 1.25-1.25h9.5c.69 0 1.25.56 1.25 1.25v1.34z"/></svg>