<svg width="12" height="12" viewBox="0 0 12 12" xmlns="http://www.w3.org/2000/svg"><path d="M3.5 2C2.67 2 2 2.67 2 3.5v1.17c-.6.28-1 .88-1 1.58V8.5c0 .65.42 1.2 1 1.41v.59a.5.5 0 001 0V10h6v.5a.5.5 0 001 0v-.59c.58-.2 1-.76 1-1.41V6.25c0-.7-.4-1.3-1-1.58V3.5C10 2.67 9.33 2 8.5 2h-5zm6 7h-7a.5.5 0 01-.5-.5V6.25a.75.75 0 011.5 0v.25c0 .28.22.5.5.5h4a.5.5 0 00.5-.5v-.25a.75.75 0 011.5 0V8.5a.5.5 0 01-.5.5zM9 4.52c-.77.1-1.37.71-1.48 1.48H4.48A1.75 1.75 0 003 4.52V3.5c0-.28.22-.5.5-.5h5c.28 0 .5.22.5.5v1.02z"/></svg>