<svg width="48" height="48" viewBox="0 0 48 48" xmlns="http://www.w3.org/2000/svg"><path d="M13.25 11A5.25 5.25 0 008 16.25v1.46A5.5 5.5 0 004 23v6.75c0 2.47 1.7 4.54 4 5.1v2.9a1.25 1.25 0 102.5 0V35h27v2.75a1.25 1.25 0 102.5 0v-2.9c2.3-.56 4-2.63 4-5.1V23a5.5 5.5 0 00-4-5.3v-1.45c0-2.9-2.35-5.25-5.25-5.25h-21.5zm24.25 6.6A5.5 5.5 0 0033 23H15a5.5 5.5 0 00-4.5-5.4v-1.35a2.75 2.75 0 012.75-2.75h21.5a2.75 2.75 0 012.75 2.75v1.34zM6.5 23a3 3 0 116 0v1.25c0 .69.56 1.25 1.25 1.25h20.5c.69 0 1.25-.56 1.25-1.25V23a3 3 0 116 0v6.75a2.75 2.75 0 01-2.75 2.75H9.25a2.75 2.75 0 01-2.75-2.75V23z"/></svg>