<svg width="24" height="24" viewBox="0 0 24 24" xmlns="http://www.w3.org/2000/svg"><path d="M4.5 2.75a.75.75 0 00-1.5 0v3.5C3 7.22 3.78 8 4.75 8h.27l4.03 8.97c.2.45.59.79 1.04.94a5.79 5.79 0 00.27 3.01c.3.6.83 1.08 1.64 1.08.8 0 1.35-.48 1.64-1.08a5.79 5.79 0 00.27-3.01c.45-.15.83-.49 1.04-.94L18.98 8h.27C20.22 8 21 7.22 21 6.25v-3.5a.75.75 0 00-1.5 0v3.5c0 .14-.11.25-.25.25H4.75a.25.25 0 01-.25-.25v-3.5zM6.66 8h10.68l-3.76 8.35a.25.25 0 01-.23.15h-2.7a.25.25 0 01-.23-.15L6.66 8zm4.95 10h.78c.07.26.11.6.11 1 0 .57-.08 1-.21 1.26-.1.22-.2.24-.29.24-.1 0-.18-.02-.29-.24A3.03 3.03 0 0111.5 19c0-.4.04-.74.11-1z"/></svg>