<svg width="16" height="16" viewBox="0 0 16 16" xmlns="http://www.w3.org/2000/svg"><path d="M2 1.5a.5.5 0 00-1 0v2C1 4.33 1.67 5 2.5 5h.25l3.26 6.45a1 1 0 00.58.5c-.12.62-.11 1.23.02 1.74.17.64.6 1.31 1.4 1.31.78 0 1.22-.67 1.39-1.31.13-.5.14-1.12.02-1.74a1 1 0 00.56-.5L13.25 5h.25c.83 0 1.5-.67 1.5-1.5v-2a.5.5 0 00-1 0v2a.5.5 0 01-.5.5h-.55H3.07 2.5a.5.5 0 01-.5-.5v-2zM3.87 5h8.26l-3.04 6H6.91L3.87 5zm3.73 7h.8c.14.55.13 1.06.03 1.44-.13.48-.33.56-.43.56-.09 0-.3-.08-.42-.56-.1-.38-.1-.9.02-1.44z"/></svg>