<svg width="20" height="20" viewBox="0 0 20 20" xmlns="http://www.w3.org/2000/svg"><path d="m3 3.7-.85-.85a.5.5 0 1 1 .7-.7l15 15a.5.5 0 0 1-.7.7l-.45-.45c-.28.37-.71.6-1.2.6h-2a1.5 1.5 0 0 1-1.5-1.5v-3.8l-4-4v7.8c0 .83-.67 1.5-1.5 1.5h-2A1.5 1.5 0 0 1 3 16.5V3.7Zm4 4-3-3v11.8c0 .28.22.5.5.5h2a.5.5 0 0 0 .5-.5V7.7Zm6 6v2.8c0 .28.22.5.5.5h2a.5.5 0 0 0 .47-.32L13 13.7ZM7 3.5v1.38l1 1V3.5C8 2.67 7.33 2 6.5 2h-2c-.12 0-.23.01-.34.04l.96.96H6.5c.28 0 .5.22.5.5Zm5 6.38 1 1V3.5c0-.28.22-.5.5-.5h2c.28 0 .5.22.5.5v10.38l1 1V3.5c0-.83-.67-1.5-1.5-1.5h-2c-.83 0-1.5.67-1.5 1.5v6.38Z"/></svg>