<svg width="24" height="24" viewBox="0 0 24 24" xmlns="http://www.w3.org/2000/svg"><path d="M18.5 20a.5.5 0 0 1-.5.5h-5v1c0 .17-.02.34-.05.5H18a2 2 0 0 0 2-2V9.83a2 2 0 0 0-.59-1.42L13.6 2.6a.5.5 0 0 0-.05-.04 2.07 2.07 0 0 0-.34-.25l-.05-.03-.05-.03-.16-.09c-.2-.08-.41-.12-.63-.14h-.06a.6.6 0 0 0-.08-.01H6a2 2 0 0 0-2 2v7h1.5V4c0-.27.22-.5.5-.5h6V8c0 1.1.9 2 2 2h4.5v10Zm-5-15.38 3.88 3.88H14a.5.5 0 0 1-.5-.5V4.62ZM5 12h3v2H5v-2Zm-2.5 0H4v2.5c0 .28.22.5.5.5h4a.5.5 0 0 0 .5-.5V12h.38c.4 0 .78.16 1.06.44l1.12 1.12c.28.28.44.66.44 1.06v6.88c0 .83-.67 1.5-1.5 1.5H10v-5.5a.5.5 0 0 0-.5-.5h-6a.5.5 0 0 0-.5.5V23h-.5A1.5 1.5 0 0 1 1 21.5v-8c0-.83.67-1.5 1.5-1.5ZM9 18v5H4v-5h5Z"/></svg>