<svg width="16" height="16" viewBox="0 0 16 16" xmlns="http://www.w3.org/2000/svg"><path d="M1.5 3c0-1.1.9-2 2-2h3.25c.41 0 .75.34.75.75v4.5a.75.75 0 0 1-1.5 0V5H4.25c-.47 0-.77.14-.94.31-.17.17-.31.47-.31.94a.75.75 0 0 1-1.5 0c0-.7.19-1.33.6-1.83A2 2 0 0 1 1.5 3Zm4.5.5v-1H3.5a.5.5 0 0 0 0 1H6Zm-.8 5a.75.75 0 0 0-1.4 0l-2 5.5a.75.75 0 1 0 1.4.5l.19-.5H5.6l.19.5a.75.75 0 1 0 1.4-.5l-2-5.5Zm-1.27 4 .57-1.56.57 1.56H3.93ZM12.25 1c.41 0 .75.34.75.75v10.69l.72-.72a.75.75 0 1 1 1.06 1.06l-2 2c-.3.3-.77.3-1.06 0l-2-2a.75.75 0 1 1 1.06-1.06l.72.72V1.75c0-.41.34-.75.75-.75Z"/></svg>