<svg width="16" height="16" viewBox="0 0 16 16" xmlns="http://www.w3.org/2000/svg"><path d="M4 1a2 2 0 0 0-1.2 3.6c-.22.21-.38.45-.5.68A2.96 2.96 0 0 0 2 6.46v.04a.5.5 0 0 0 1 0 1.17 1.17 0 0 1 .02-.23c.03-.16.08-.35.18-.55.1-.19.23-.36.42-.5.2-.12.47-.22.88-.22H7v1.5a.5.5 0 0 0 1 0v-5a.5.5 0 0 0-.5-.5H4Zm3 3H4a1 1 0 0 1 0-2h3v2ZM5 8c.2 0 .38.12.46.3l2.5 6a.5.5 0 1 1-.92.4l-.7-1.7H3.66l-.7 1.7a.5.5 0 0 1-.93-.4l2.5-6A.5.5 0 0 1 5 8Zm0 1.8L4.08 12h1.84L5 9.8ZM12.5 1c.28 0 .5.22.5.5v11.8l1.15-1.15a.5.5 0 0 1 .7.7l-2 2a.5.5 0 0 1-.7 0l-2-2a.5.5 0 0 1 .7-.7L12 13.29V1.5c0-.28.22-.5.5-.5Z"/></svg>