<svg width="20" height="20" viewBox="0 0 20 20" xmlns="http://www.w3.org/2000/svg"><path d="M2.85 2.15a.5.5 0 1 0-.7.7L4.89 5.6 2.36 8.52c-.22.27-.36.6-.36.98v3A2.5 2.5 0 0 0 4.5 15h2A2.5 2.5 0 0 0 9 12.5V11h1.3l.7.7v.8a2.5 2.5 0 0 0 2.5 2.5h.8l2.85 2.85a.5.5 0 0 0 .7-.7l-15-15ZM7.3 8H4.14L5.6 6.3 7.3 8Zm9.48 6.65L11.1 8.97A1.5 1.5 0 0 1 12.5 8h3.36l-2.29-2.65a1 1 0 0 0-.76-.35H12a.5.5 0 0 1 0-1h.81a2 2 0 0 1 1.52.7l3.2 3.71c.29.28.47.66.47 1.09v3c0 .92-.5 1.72-1.23 2.15ZM6.32 4.2l.8.8a1 1 0 0 1 .07 0H8a.5.5 0 0 0 0-1h-.81a2 2 0 0 0-.87.2Z"/></svg>