<svg width="32" height="32" viewBox="0 0 32 32" xmlns="http://www.w3.org/2000/svg"><path d="m22.59 24 5.7 5.7a1 1 0 0 0 1.42-1.4l-26-26a1 1 0 0 0-1.42 1.4l4.43 4.43-3.88 4.52A3.5 3.5 0 0 0 2 14.92v4.58A4.5 4.5 0 0 0 6.5 24h4a4.5 4.5 0 0 0 4.5-4.5V17h.59L17 18.41v1.09a4.5 4.5 0 0 0 4.5 4.5h1.09Zm-12-12H6.03l2.1-2.45L10.6 12ZM27.2 23.67l-9.8-9.8A3.5 3.5 0 0 1 20.5 12h5.47l-2.98-3.48A1.5 1.5 0 0 0 21.85 8H20a1 1 0 1 1 0-2h1.85c1.02 0 2 .45 2.66 1.22l4.65 5.43c.54.63.84 1.44.84 2.27v4.58a4.5 4.5 0 0 1-2.8 4.17ZM9.58 6.05 11.53 8H12a1 1 0 1 0 0-2h-1.85c-.2 0-.38.02-.57.05Z"/></svg>