<svg width="32" height="32" viewBox="0 0 32 32" xmlns="http://www.w3.org/2000/svg"><path d="M28.3 29.7 22.58 24H21.5a4.5 4.5 0 0 1-4.5-4.5v-1.09L15.59 17H15v2.5a4.5 4.5 0 0 1-4.5 4.5h-4A4.5 4.5 0 0 1 2 19.5v-4.58c0-.83.3-1.64.84-2.27l3.88-4.52-4.43-4.42a1 1 0 0 1 1.42-1.42l26 26a1 1 0 0 1-1.42 1.42ZM8.12 9.56 6.03 12h4.56L8.13 9.55Zm9.27 4.32 1.6 1.6A1.5 1.5 0 0 1 20.5 14h6c.83 0 1.5.67 1.5 1.5v4a2.5 2.5 0 0 1-2.47 2.5l1.67 1.67A4.5 4.5 0 0 0 30 19.5v-4.58c0-.83-.3-1.64-.84-2.27L24.5 7.22A3.5 3.5 0 0 0 21.85 6H20a1 1 0 1 0 0 2h1.85c.44 0 .85.2 1.14.52L25.97 12H20.5a3.5 3.5 0 0 0-3.1 1.87ZM11.53 8 9.58 6.05c.19-.03.38-.05.57-.05H12a1 1 0 1 1 0 2h-.47ZM13 19.5v-4c0-.83-.67-1.5-1.5-1.5h-6c-.83 0-1.5.67-1.5 1.5v4A2.5 2.5 0 0 0 6.5 22h4a2.5 2.5 0 0 0 2.5-2.5Z"/></svg>