<svg width="48" height="48" viewBox="0 0 48 48" xmlns="http://www.w3.org/2000/svg"><path d="m34.23 36 7.64 7.63a1.25 1.25 0 0 0 1.76-1.76L6.13 4.37a1.25 1.25 0 1 0-1.76 1.76l6.83 6.84-5.74 6.21A4.52 4.52 0 0 0 4 22.42v7.08a6.5 6.5 0 0 0 6.5 6.5h5a6.5 6.5 0 0 0 6.5-6.5v-5h.73L26 27.77v1.73a6.5 6.5 0 0 0 6.5 6.5h1.73Zm-18-18H9.96l3.01-3.26L16.23 18ZM44 29.5a6.5 6.5 0 0 1-3.93 5.97L26.1 21.51A4.5 4.5 0 0 1 30.5 18h7.54l-4.57-4.94c-.33-.36-.8-.56-1.28-.56h-2.94a1.25 1.25 0 1 1 0-2.5h2.94c1.18 0 2.31.5 3.12 1.36l7.23 7.82A4.52 4.52 0 0 1 44 22.42v7.08Zm-25.25-17H17.1l-2.37-2.36c.35-.1.71-.14 1.08-.14h2.94a1.25 1.25 0 1 1 0 2.5Z"/></svg>