<svg width="48" height="48" viewBox="0 0 48 48" xmlns="http://www.w3.org/2000/svg"><path d="m34.23 36 7.64 7.63a1.25 1.25 0 0 0 1.76-1.76L6.13 4.37a1.25 1.25 0 1 0-1.76 1.76l6.83 6.84-5.74 6.21A4.52 4.52 0 0 0 4 22.42v7.08a6.5 6.5 0 0 0 6.5 6.5h5a6.5 6.5 0 0 0 6.5-6.5v-5h.73L26 27.77v1.73a6.5 6.5 0 0 0 6.5 6.5h1.73Zm-18-18H9.96l3.01-3.26L16.23 18Zm23.84 17.47A6.5 6.5 0 0 0 44 29.5v-7.08a4.52 4.52 0 0 0-1.46-3.24l-7.23-7.82A4.25 4.25 0 0 0 32.19 10h-2.94a1.25 1.25 0 1 0 0 2.5h2.94c.49 0 .95.2 1.28.56L38.04 18H30.5a4.5 4.5 0 0 0-4.4 3.51l2.4 2.4V22.5c0-1.1.9-2 2-2h9a2 2 0 0 1 1.29.47l.24.27c.06.06.11.12.16.2.2.3.31.67.31 1.06v7a4 4 0 0 1-3.44 3.96l2 2.01ZM14.73 10.14l2.37 2.36h1.65a1.25 1.25 0 1 0 0-2.5h-2.94c-.37 0-.73.05-1.08.14ZM17.5 20.5a2 2 0 0 1 2 2v7a4 4 0 0 1-4 4h-5a4 4 0 0 1-4-4v-7a2 2 0 0 1 .3-1.07l.17-.2.24-.26a2 2 0 0 1 1.29-.47h9Z"/></svg>