<svg width="16" height="16" viewBox="0 0 16 16" xmlns="http://www.w3.org/2000/svg"><path d="m11.28 12 2.87 2.85a.5.5 0 0 0 .7-.7l-13-13a.5.5 0 1 0-.7.7L3.7 4.42 1.54 6.34c-.33.28-.54.7-.54 1.16v2A2.5 2.5 0 0 0 3.5 12h1A2.5 2.5 0 0 0 7 9.5V9h1.3l.7.72a2.5 2.5 0 0 0 2.28 2.27ZM5.3 6H3.44l.98-.87.87.87Zm8.48 5.65L9.1 6.97A1.5 1.5 0 0 1 10.5 6h2.06l-2.25-2H9.5a.5.5 0 1 1 0-1h1a.5.5 0 0 1 .33.13l3.63 3.21c.33.28.54.7.54 1.16v2c0 .92-.5 1.72-1.23 2.15ZM5.21 3.1l.91.91h.38a.5.5 0 1 0 0-1h-1a.5.5 0 0 0-.29.1Z"/></svg>