<svg width="16" height="16" viewBox="0 0 16 16" xmlns="http://www.w3.org/2000/svg"><path d="M8.75 1.5a.75.75 0 0 0 0 1.5h.9l.34 1.5H6v-.75A.75.75 0 0 0 5.25 3h-1.5a.75.75 0 0 0 0 1.5h.75v.68L4.13 7a3.25 3.25 0 1 0 3.08 1.92l3.22-2.48.17.77a3.25 3.25 0 1 0 1.5-.2l-1.12-4.93a.75.75 0 0 0-.73-.58h-1.5ZM5.61 7.3 5.86 6h2.68L6.3 7.73a3.25 3.25 0 0 0-.7-.43ZM2.5 10.25c0-.82.56-1.5 1.32-1.7l-.3 1.55a.75.75 0 0 0 1.19.74l1.25-.96A1.76 1.76 0 0 1 4.25 12c-.97 0-1.75-.78-1.75-1.75Zm8.44-1.55.33 1.47a.75.75 0 0 0 1.46-.34l-.27-1.18a1.75 1.75 0 1 1-1.52.05Z"/></svg>