<svg width="20" height="20" viewBox="0 0 20 20" xmlns="http://www.w3.org/2000/svg"><path d="M5.5 7a.5.5 0 0 0-.5.5v3c0 .28.22.5.5.5h9a.5.5 0 0 0 .5-.5v-3a.5.5 0 0 0-.5-.5h-9Zm.5 3V8h8v2H6Zm5.5 2a.5.5 0 0 0-.5.5v2c0 .28.22.5.5.5h3a.5.5 0 0 0 .5-.5v-2a.5.5 0 0 0-.5-.5h-3Zm.5 2v-1h2v1h-2ZM2 4.5C2 3.67 2.67 3 3.5 3h13a1.5 1.5 0 0 1 .5 2.91V16.5a.5.5 0 0 1-.5.5h-13a.5.5 0 0 1-.5-.5V5.91c-.58-.2-1-.76-1-1.41ZM3.5 4a.5.5 0 0 0 0 1h13a.5.5 0 0 0 0-1h-13ZM4 6v10h1v-3.5c0-.28.22-.5.5-.5h4c.28 0 .5.22.5.5V16h6V6H4Zm2 10h3v-3H6v3Z"/></svg>