<svg width="24" height="24" viewBox="0 0 24 24" xmlns="http://www.w3.org/2000/svg"><path d="M6.75 8a.75.75 0 0 0-.75.75v3.5c0 .41.34.75.75.75h10.5c.41 0 .75-.34.75-.75v-3.5a.75.75 0 0 0-.75-.75H6.75Zm.75 3.5v-2h9v2h-9Zm6.25 2.5a.75.75 0 0 0-.75.75v2.5c0 .41.34.75.75.75h3.5c.41 0 .75-.34.75-.75v-2.5a.75.75 0 0 0-.75-.75h-3.5Zm.75 2.5v-1h2v1h-2ZM4 3a2 2 0 0 0-1 3.73v13.52c0 .41.34.75.75.75h16.5c.41 0 .75-.34.75-.75V6.73A2 2 0 0 0 20 3H4Zm15.5 4v12.5h-8v-4.75a.75.75 0 0 0-.75-.75h-4a.75.75 0 0 0-.75.75v4.75H4.5V7h15Zm-16-2c0-.28.22-.5.5-.5h16a.5.5 0 0 1 0 1H4a.5.5 0 0 1-.5-.5ZM10 19.5H7.5v-4H10v4Z"/></svg>