<svg width="24" height="24" viewBox="0 0 24 24" xmlns="http://www.w3.org/2000/svg"><path d="M6 11h1.25A3.75 3.75 0 0 0 11 7.25V6h3.75C16.55 6 18 7.46 18 9.25V13h-1.25A3.75 3.75 0 0 0 13 16.75V18H9.25A3.25 3.25 0 0 1 6 14.75V11ZM1 3.75A2.75 2.75 0 0 1 3.75 1h3.5A2.75 2.75 0 0 1 10 3.75v3.5A2.75 2.75 0 0 1 7.25 10h-3.5A2.75 2.75 0 0 1 1 7.25v-3.5ZM3.75 2.5c-.69 0-1.25.56-1.25 1.25v3.5c0 .69.56 1.25 1.25 1.25h3.5c.69 0 1.25-.56 1.25-1.25v-3.5c0-.69-.56-1.25-1.25-1.25h-3.5ZM14 16.75A2.75 2.75 0 0 1 16.75 14h3.5A2.75 2.75 0 0 1 23 16.75v3.5A2.75 2.75 0 0 1 20.25 23h-3.5A2.75 2.75 0 0 1 14 20.25v-3.5Zm2.75-1.25c-.69 0-1.25.56-1.25 1.25v3.5c0 .69.56 1.25 1.25 1.25h3.5c.69 0 1.25-.56 1.25-1.25v-3.5c0-.69-.56-1.25-1.25-1.25h-3.5Z"/></svg>