<svg width="20" height="20" viewBox="0 0 20 20" xmlns="http://www.w3.org/2000/svg"><path d="M7.07 9.44a.5.5 0 0 0 1 .15L8.14 9h1.24l-.07.44a.5.5 0 0 0 1 .15L10.4 9h.6a.5.5 0 0 0 0-1h-.46l.22-1.5h.74a.5.5 0 0 0 0-1h-.59l.14-.93a.5.5 0 0 0-1-.14L9.9 5.5H8.66l.14-.93a.5.5 0 0 0-1-.14L7.66 5.5H7a.5.5 0 0 0 0 1h.5L7.28 8H6.5a.5.5 0 0 0 0 1h.64l-.07.44ZM9.75 6.5 9.53 8H8.3l.22-1.5h1.24ZM6 2a2 2 0 0 0-2 2v12c0 1.1.9 2 2 2h8a2 2 0 0 0 2-2V4a2 2 0 0 0-2-2H6Zm0 1h8a1 1 0 0 1 1 1v12a1 1 0 0 1-1 1H6a1 1 0 0 1-1-1V4a1 1 0 0 1 1-1Z"/></svg>