<svg width="24" height="24" viewBox="0 0 24 24" xmlns="http://www.w3.org/2000/svg"><path d="M9.26 9l.23-1.5h1.48L10.74 9H9.26zm8.49-7c1.2 0 2.17.93 2.24 2.1l.01.15v15.5c0 1.19-.93 2.16-2.1 2.24H6.25c-1.2 0-2.17-.92-2.24-2.09L4 19.75V4.25c0-1.2.93-2.17 2.1-2.24L6.25 2h11.5zm-7.35 9.16a.75.75 0 101.48.23l.14-.9h.73a.75.75 0 000-1.5h-.5l.24-1.5h.76a.75.75 0 000-1.5h-.52l.16-1.02a.75.75 0 10-1.48-.23L11.21 6H9.73l.16-1.03a.75.75 0 00-1.48-.23L8.21 6h-.96a.75.75 0 100 1.5h.73L7.74 9h-.99a.75.75 0 100 1.5h.75l-.1.66a.75.75 0 001.48.23l.14-.9h1.48l-.1.67z"/></svg>