<svg width="28" height="28" viewBox="0 0 28 28" xmlns="http://www.w3.org/2000/svg"><path d="M7 4.75A2.75 2.75 0 019.75 2h8.5A2.75 2.75 0 0121 4.75v8.27a7.63 7.63 0 00-1.5.05V4.75c0-.69-.56-1.25-1.25-1.25h-8.5c-.69 0-1.25.56-1.25 1.25v18.5c0 .69.56 1.25 1.25 1.25h3.77l-.44 1.5H9.75A2.75 2.75 0 017 23.25V4.75zM27 20.5a6.5 6.5 0 01-9.65 5.69l-2.71.79a.5.5 0 01-.62-.62l.8-2.71A6.5 6.5 0 1127 20.5zM18 19a.5.5 0 000 1h5a.5.5 0 100-1h-5zm-.5 2.5c0 .28.22.5.5.5h2.5a.5.5 0 100-1H18a.5.5 0 00-.5.5z"/></svg>