<svg width="20" height="20" viewBox="0 0 20 20" xmlns="http://www.w3.org/2000/svg"><path d="M6.5 6a.5.5 0 000 1h7a.5.5 0 000-1h-7zM6 9.5c0-.28.22-.5.5-.5h4a.5.5 0 010 1h-4a.5.5 0 01-.5-.5zm.5 2.5a.5.5 0 000 1h2.7c.1-.35.24-.68.4-1H6.5zm-1 4h3.7c.1.35.24.68.4 1H5.5A2.5 2.5 0 013 14.5v-9A2.5 2.5 0 015.5 3h9A2.5 2.5 0 0117 5.5v4.1c-.32-.16-.65-.3-1-.4V5.5c0-.83-.67-1.5-1.5-1.5h-9C4.67 4 4 4.67 4 5.5v9c0 .83.67 1.5 1.5 1.5zm6.57-4.56a2 2 0 01-1.44 2.48l-.46.12a4.74 4.74 0 00.01 1.01l.35.09A2 2 0 0112 17.66l-.13.42c.26.2.54.38.84.52l.32-.35a2 2 0 012.91 0l.34.36c.3-.13.57-.3.82-.5l-.15-.55a2 2 0 011.43-2.48l.46-.12a4.73 4.73 0 00-.01-1.01l-.35-.09A2 2 0 0117 11.34l.13-.42c-.26-.2-.54-.38-.84-.52l-.32.35a2 2 0 01-2.91 0l-.34-.36c-.3.13-.57.3-.82.5l.16.55zm2.43 4.06a1 1 0 110-2 1 1 0 010 2z"/></svg>