<svg width="24" height="24" viewBox="0 0 24 24" xmlns="http://www.w3.org/2000/svg"><path d="M18.25 3A2.75 2.75 0 0 1 21 5.75v6.27c-.46-.3-.97-.53-1.5-.7V5.74c0-.69-.56-1.25-1.25-1.25H5.75c-.69 0-1.25.56-1.25 1.25v12.5c0 .69.56 1.25 1.25 1.25h5.56c.18.53.42 1.04.71 1.5H5.75A2.75 2.75 0 0 1 3 18.25V5.75A2.75 2.75 0 0 1 5.75 3h12.5Zm-4 8.5c.16 0 .31.05.44.14-.71.34-1.34.8-1.88 1.36H6.75a.75.75 0 0 1-.1-1.5h7.6Zm-7.5 4h4.56c-.15.48-.25.98-.3 1.5H6.76a.75.75 0 0 1-.1-1.5h.1Zm10.5-8H6.65a.75.75 0 0 0 .1 1.5h10.6a.75.75 0 0 0-.1-1.5Zm-4.75 8.13.45.43a2 2 0 0 1 0 2.88l-.45.43c.2.57.5 1.1.85 1.57l.6-.18a2 2 0 0 1 2.52 1.45l.17.72a5.18 5.18 0 0 0 1.72 0l.17-.72a2 2 0 0 1 2.52-1.45l.6.18c.36-.47.65-1 .85-1.57l-.45-.43a2 2 0 0 1 0-2.88l.45-.43c-.2-.58-.5-1.1-.85-1.57l-.6.18a2 2 0 0 1-2.52-1.45l-.17-.72a5.17 5.17 0 0 0-1.72 0l-.17.72a2 2 0 0 1-2.52 1.45l-.6-.18c-.36.47-.65 1-.85 1.57Zm5 3.37c-.8 0-1.45-.67-1.45-1.5S16.7 16 17.5 16c.8 0 1.45.67 1.45 1.5S18.3 19 17.5 19Z"/></svg>