<svg width="24" height="24" viewBox="0 0 24 24" xmlns="http://www.w3.org/2000/svg"><path d="M21 5.75A2.75 2.75 0 0018.25 3H5.75A2.75 2.75 0 003 5.75v12.5A2.75 2.75 0 005.75 21h6.27a6.47 6.47 0 01-1-4H6.75a.75.75 0 01-.1-1.5H11.3c.3-.95.83-1.8 1.5-2.5H6.75a.75.75 0 01-.1-1.5h7.6c.16 0 .31.05.44.14a6.47 6.47 0 016.31.38V5.75zM17.25 7.5a.75.75 0 01.1 1.5H6.75a.75.75 0 01-.1-1.5h10.6zm-4.75 8.13l.45.43a2 2 0 010 2.88l-.45.43c.2.57.5 1.1.85 1.57l.6-.18a2 2 0 012.52 1.45l.17.72a5.18 5.18 0 001.72 0l.17-.72a2 2 0 012.52-1.45l.6.18c.36-.47.65-1 .85-1.57l-.45-.43a2 2 0 010-2.88l.45-.43c-.2-.58-.5-1.1-.85-1.57l-.6.18a2 2 0 01-2.52-1.45l-.17-.72a5.17 5.17 0 00-1.72 0l-.17.72a2 2 0 01-2.52 1.45l-.6-.18c-.36.47-.65 1-.85 1.57zm5 3.37c-.8 0-1.45-.67-1.45-1.5S16.7 16 17.5 16c.8 0 1.45.67 1.45 1.5S18.3 19 17.5 19z"/></svg>