<svg width="24" height="24" viewBox="0 0 24 24" xmlns="http://www.w3.org/2000/svg"><path d="M14 14H4.25C3.01 14 2 15 2 16.25v.58c0 .89.32 1.75.9 2.43C4.47 21.1 6.85 22 10 22c.71 0 1.39-.05 2.03-.14a2.53 2.53 0 0 1-.03-.36v-1.15c-.61.1-1.28.15-2 .15-2.74 0-4.7-.74-5.96-2.21-.34-.4-.54-.93-.54-1.46v-.58c0-.41.34-.75.75-.75h7.96A2.5 2.5 0 0 1 14 14.05V14ZM10 2a5 5 0 1 1 0 10 5 5 0 0 1 0-10Zm0 1.5a3.5 3.5 0 1 0 0 7 3.5 3.5 0 0 0 0-7ZM15 15h-.5c-.83 0-1.5.67-1.5 1.5v5c0 .83.67 1.5 1.5 1.5h6c.83 0 1.5-.67 1.5-1.5v-5c0-.83-.67-1.5-1.5-1.5H20v-1a2.5 2.5 0 0 0-5 0v1Zm1.5-1a1 1 0 0 1 2 0v1h-2v-1Zm2 5a1 1 0 1 1-2 0 1 1 0 0 1 2 0Z"/></svg>