<svg width="20" height="20" viewBox="0 0 20 20" xmlns="http://www.w3.org/2000/svg"><path d="M14.65 6.25C14.4 3.92 12.82 2 10 2 7.18 2 5.59 3.9 5.35 6.25H5.1A3.34 3.34 0 002 9.62 3.33 3.33 0 005.28 13h2.5c.02-.34.08-.68.17-1H5.28A2.33 2.33 0 013 9.62a2.33 2.33 0 012.28-2.37h.07a1 1 0 001-.9C6.55 4.32 7.89 3 10 3c2.1 0 3.45 1.32 3.65 3.35a1 1 0 001 .9h.07c1 0 1.84.66 2.15 1.6.42.3.8.65 1.12 1.06l.01-.29a3.33 3.33 0 00-3.28-3.37h-.07zM18 13.5a4.5 4.5 0 11-9 0 4.5 4.5 0 019 0zM13.5 11a.5.5 0 00-.5.5v2a.5.5 0 001 0v-2a.5.5 0 00-.5-.5zm0 5.13a.62.62 0 100-1.25.62.62 0 000 1.24z"/></svg>