<svg width="48" height="48" viewBox="0 0 48 48" xmlns="http://www.w3.org/2000/svg"><path d="M24 6a11 11 0 00-10.96 10h-.29a7.75 7.75 0 000 15.5h7.34c.1-.86.28-1.7.54-2.5h-7.88a5.25 5.25 0 110-10.5h1.5c.69 0 1.25-.56 1.25-1.25V17a8.5 8.5 0 0117 0v.25c0 .69.56 1.25 1.25 1.25h1.5a5.25 5.25 0 015.02 3.72c1 .68 1.9 1.5 2.68 2.41a7.75 7.75 0 00-7.7-8.63h-.3A11 11 0 0024 6zm20 27a11 11 0 11-22 0 11 11 0 0122 0zm-10-6a1 1 0 10-2 0v8a1 1 0 102 0v-8zm-1 13.25a1.25 1.25 0 100-2.5 1.25 1.25 0 000 2.5z"/></svg>