<svg width="16" height="16" viewBox="0 0 16 16" xmlns="http://www.w3.org/2000/svg"><path d="M2 6V4.5C2 3.67 2.67 3 3.5 3h2.09a.5.5 0 0 1 .35.15L7.29 4.5 5.94 5.85a.5.5 0 0 1-.35.15H2Zm1.5-4A2.5 2.5 0 0 0 1 4.5v7A2.5 2.5 0 0 0 3.5 14h4.54a3.29 3.29 0 0 1 .01-1H3.5A1.5 1.5 0 0 1 2 11.5V7h3.59c.4 0 .78-.16 1.06-.44L8.2 5h4.29c.8 0 1.44.62 1.5 1.4.4.23.74.55 1 .94V6.5A2.5 2.5 0 0 0 12.5 4H8.2L6.66 2.44A1.5 1.5 0 0 0 5.59 2H3.5Zm11 7a2 2 0 1 1-4 0 2 2 0 0 1 4 0Zm1.5 4.5c0 1.25-1 2.5-3.5 2.5S9 14.75 9 13.5c0-.83.67-1.5 1.5-1.5h4c.83 0 1.5.67 1.5 1.5Z"/></svg>