<svg width="16" height="16" viewBox="0 0 16 16" xmlns="http://www.w3.org/2000/svg"><path d="M6 8c0-.7.04-1.38.12-2h3.76a15.73 15.73 0 010 4H6.12C6.04 9.38 6 8.7 6 8zm-.88 2a16.83 16.83 0 010-4H2.34a5.99 5.99 0 000 4h2.78zM2.8 11h2.47c.13.66.3 1.25.5 1.78.13.35.28.67.45.95A6.02 6.02 0 012.8 11zm3.5 0h3.4c-.1.53-.24 1-.4 1.42-.21.55-.45.97-.7 1.23-.24.27-.44.35-.6.35-.16 0-.36-.08-.6-.35a3.99 3.99 0 01-.7-1.23c-.16-.42-.3-.9-.4-1.42zm4.43 0c-.13.66-.3 1.25-.5 1.78-.13.35-.28.67-.45.95A6.02 6.02 0 0013.2 11h-2.47zm2.93-1a5.99 5.99 0 000-4h-2.78a16.82 16.82 0 010 4h2.78zM9.3 3.58c.16.42.3.9.4 1.42H6.3c.1-.53.24-1 .4-1.42.21-.55.45-.97.7-1.23.24-.27.44-.35.6-.35.16 0 .36.08.6.35.25.26.49.68.7 1.23zM10.73 5h2.47a6.02 6.02 0 00-3.42-2.73c.17.28.32.6.45.95.2.53.37 1.12.5 1.78zM2.8 5h2.47c.13-.66.3-1.25.5-1.78.13-.34.28-.67.45-.95A6.02 6.02 0 002.8 5z"/></svg>