<svg width="24" height="24" viewBox="0 0 24 24" xmlns="http://www.w3.org/2000/svg"><path d="M12 2a10 10 0 110 20 10 10 0 010-20zm2.94 14.5H9.06c.65 2.41 1.79 4 2.94 4s2.29-1.59 2.94-4zm-7.43 0H4.79a8.53 8.53 0 004.09 3.41c-.52-.82-.95-1.85-1.27-3.02l-.1-.39zm11.7 0H16.5c-.32 1.33-.79 2.5-1.37 3.41a8.53 8.53 0 003.9-3.13l.2-.28zM7.1 10H3.74v.02a8.52 8.52 0 00.3 4.98h3.18a20.3 20.3 0 01-.13-5zm8.3 0H8.6a18.97 18.97 0 00.14 5h6.52a18.5 18.5 0 00.14-5zm4.87 0h-3.35a20.85 20.85 0 01-.13 5h3.18a8.48 8.48 0 00.3-5zM8.88 4.09h-.02a8.53 8.53 0 00-4.61 4.4l3.05.01c.31-1.75.86-3.28 1.58-4.41zm3.12-.6l-.12.01c-1.26.12-2.48 2.12-3.05 5h6.34c-.56-2.87-1.78-4.87-3.04-5H12zm3.12.6l.1.17A12.64 12.64 0 0116.7 8.5h3.05a8.53 8.53 0 00-4.34-4.29l-.29-.12z"/></svg>