<svg width="48" height="48" viewBox="0 0 48 48" xmlns="http://www.w3.org/2000/svg"><path d="M12.25 4A4.25 4.25 0 008 8.25V24.1a7 7 0 012.5-1.64V8.25c0-.97.78-1.75 1.75-1.75H24v8.75A3.75 3.75 0 0027.75 19h9.75v20.75c0 .97-.78 1.75-1.75 1.75H24V43c0 .34-.03.68-.1 1h11.85C38.1 44 40 42.1 40 39.75V18.41c0-.6-.24-1.16-.66-1.59L27.18 4.66c-.43-.42-1-.66-1.6-.66H12.26zm23.23 12.5h-7.73c-.69 0-1.25-.56-1.25-1.25V7.52l8.98 8.98zM8 30H7a3 3 0 00-3 3v10a3 3 0 003 3h12a3 3 0 003-3V33a3 3 0 00-3-3h-1v-1a5 5 0 00-10 0v1zm2.5-1a2.5 2.5 0 015 0v1h-5v-1zm5.5 9a3 3 0 11-6 0 3 3 0 016 0z"/></svg>