<svg width="32" height="32" viewBox="0 0 32 32" xmlns="http://www.w3.org/2000/svg"><path d="M8 2a3 3 0 00-3 3v11a5.02 5.02 0 012-1.58V5a1 1 0 011-1h9v5a3 3 0 003 3h5v15a1 1 0 01-1 1h-7c0 .73-.2 1.41-.54 2H24a3 3 0 003-3V10.83a3 3 0 00-.88-2.12L20.3 2.88A3 3 0 0018.17 2H8zm16.59 8H20a1 1 0 01-1-1V4.41L24.59 10zM5.5 19.5H5A2.5 2.5 0 002.5 22v6A2.5 2.5 0 005 30.5h8a2.5 2.5 0 002.5-2.5v-6a2.5 2.5 0 00-2.5-2.5h-.5V19a3.5 3.5 0 10-7 0v.5zm2-.5a1.5 1.5 0 013 0v.5h-3V19zm3.5 6a2 2 0 11-4 0 2 2 0 014 0z"/></svg>