<svg width="12" height="12" viewBox="0 0 12 12" xmlns="http://www.w3.org/2000/svg"><path d="M2.25 1.75a.75.75 0 1 1-1.5 0 .75.75 0 0 1 1.5 0Zm8.25.75a.75.75 0 1 0 0-1.5.75.75 0 0 0 0 1.5Zm-9 .5c.28 0 .5.22.5.5V6h1.17A3 3 0 0 1 3 5c0-.5.22-.93.5-1.28.27-.35.62-.65.96-.9a8.35 8.35 0 0 1 1.3-.76l.03-.01a.5.5 0 0 1 .41 0h.01l.03.01a5.76 5.76 0 0 1 .39.2c.25.13.58.32.91.57.34.24.69.54.96.89.28.35.5.78.5 1.28a3 3 0 0 1-.17 1H10V3.5a.5.5 0 0 1 1 0V10a1 1 0 0 1-1 1H8a1 1 0 0 1-1-1V9a1 1 0 0 0-2 0v1a1 1 0 0 1-1 1H2a1 1 0 0 1-1-1V3.5c0-.28.22-.5.5-.5Z"/></svg>