<svg width="12" height="12" viewBox="0 0 12 12" xmlns="http://www.w3.org/2000/svg"><path d="M2 3.5a.5.5 0 0 0-1 0V10a1 1 0 0 0 1 1h8a1 1 0 0 0 1-1V3.5a.5.5 0 0 0-1 0V6H8.83A3 3 0 0 0 9 5c0-.5-.22-.93-.5-1.28a4.8 4.8 0 0 0-.96-.9 8.35 8.35 0 0 0-1.3-.76l-.03-.01a.5.5 0 0 0-.41 0h-.01l-.03.01a5.76 5.76 0 0 0-.39.2c-.25.13-.58.32-.91.57a4.8 4.8 0 0 0-.96.89C3.22 4.07 3 4.5 3 5a3 3 0 0 0 .17 1H2V3.5ZM7.73 6H4.27A2 2 0 0 1 4 5c0-.2.09-.41.28-.66.2-.25.47-.5.76-.7A7.35 7.35 0 0 1 6 3.06a7.66 7.66 0 0 1 .96.58c.29.2.56.45.76.7.2.25.28.47.28.66a2 2 0 0 1-.27 1ZM10 10H7.5V9a1.5 1.5 0 1 0-3 0v1H2V7h8v3ZM6.5 9v1h-1V9a.5.5 0 0 1 1 0ZM2.25 1.75a.75.75 0 1 1-1.5 0 .75.75 0 0 1 1.5 0Zm8.25.75a.75.75 0 1 0 0-1.5.75.75 0 0 0 0 1.5Z"/></svg>