<svg width="16" height="16" viewBox="0 0 16 16" xmlns="http://www.w3.org/2000/svg"><path d="M2.25 2.75a.75.75 0 1 1-1.5 0 .75.75 0 0 1 1.5 0Zm12.25.75a.75.75 0 1 0 0-1.5.75.75 0 0 0 0 1.5ZM8.2 2.04a.5.5 0 0 0-.4 0l-.02.01-.04.02a8.66 8.66 0 0 0-.6.3c-.39.21-.91.52-1.43.9-.52.37-1.06.84-1.48 1.36A3.06 3.06 0 0 0 3.5 6.5c0 .53.09 1.03.26 1.5H2V4.5a.5.5 0 0 0-1 0V13a1 1 0 0 0 1 1h4a1 1 0 0 0 1-1v-1.5a1 1 0 1 1 2 0V13a1 1 0 0 0 1 1h4a1 1 0 0 0 1-1V4.5a.5.5 0 0 0-1 0V8h-1.76c.17-.47.26-.97.26-1.5 0-.7-.32-1.34-.73-1.87-.42-.52-.96-.99-1.48-1.36a13.05 13.05 0 0 0-2.03-1.2l-.04-.02H8.2Z"/></svg>