<svg width="16" height="16" viewBox="0 0 16 16" xmlns="http://www.w3.org/2000/svg"><path d="M2 4.5a.5.5 0 0 0-1 0V13a1 1 0 0 0 1 1h12a1 1 0 0 0 1-1V4.5a.5.5 0 0 0-1 0V8h-1.76c.17-.47.26-.97.26-1.5 0-.7-.32-1.34-.73-1.87-.42-.52-.96-.99-1.48-1.36a13.05 13.05 0 0 0-2.03-1.2l-.04-.02H8.2a.5.5 0 0 0-.41 0h-.02l-.04.02a8.66 8.66 0 0 0-.6.3c-.39.21-.91.52-1.43.9-.52.37-1.06.84-1.48 1.36A3.06 3.06 0 0 0 3.5 6.5c0 .53.09 1.03.26 1.5H2V4.5ZM11.16 8H4.84a3.49 3.49 0 0 1-.34-1.5c0-.4.18-.82.52-1.25.33-.43.8-.83 1.27-1.17A12.06 12.06 0 0 1 8 3.05a12.08 12.08 0 0 1 1.7 1.03c.49.34.95.74 1.28 1.17.34.43.52.85.52 1.25 0 .54-.12 1.05-.34 1.5ZM14 13h-4v-1a2 2 0 1 0-4 0v1H2V9h12v4Zm-7-1a1 1 0 1 1 2 0v1H7v-1ZM2.25 2.75a.75.75 0 1 1-1.5 0 .75.75 0 0 1 1.5 0Zm12.25.75a.75.75 0 1 0 0-1.5.75.75 0 0 0 0 1.5Z"/></svg>