<svg width="24" height="24" viewBox="0 0 24 24" xmlns="http://www.w3.org/2000/svg"><path d="M2.75 6a1 1 0 1 0 0-2 1 1 0 0 0 0 2Zm18.5 0a1 1 0 1 0 0-2 1 1 0 0 0 0 2ZM2.75 7c.41 0 .75.34.75.75V13H6a6.48 6.48 0 0 1-.5-2.5c0-1.02.46-1.94 1.06-2.7.6-.76 1.38-1.43 2.13-1.97a18.8 18.8 0 0 1 2.93-1.73l.05-.02.02-.01c.2-.1.42-.1.62 0h.02l.05.03a12.54 12.54 0 0 1 .87.44c.56.3 1.31.74 2.06 1.29.75.54 1.53 1.2 2.13 1.97.6.76 1.06 1.68 1.06 2.7 0 .89-.18 1.73-.5 2.5h2.5V7.75a.75.75 0 0 1 1.5 0v13c0 .69-.56 1.25-1.25 1.25h-5.5c-.69 0-1.25-.56-1.25-1.25V19a2 2 0 1 0-4 0v1.75c0 .69-.56 1.25-1.25 1.25h-5.5C2.56 22 2 21.44 2 20.75v-13c0-.41.34-.75.75-.75Z"/></svg>