<svg width="24" height="24" viewBox="0 0 24 24" xmlns="http://www.w3.org/2000/svg"><path d="M3.5 7.75a.75.75 0 0 0-1.5 0v13c0 .69.56 1.25 1.25 1.25h17.5c.69 0 1.25-.56 1.25-1.25v-13a.75.75 0 0 0-1.5 0V13H18c.32-.77.5-1.61.5-2.5 0-1.02-.46-1.94-1.06-2.7-.6-.76-1.38-1.43-2.13-1.97a18.8 18.8 0 0 0-2.93-1.73l-.05-.02-.02-.01a.75.75 0 0 0-.62 0h-.02l-.05.03a12.54 12.54 0 0 0-.87.44c-.56.3-1.31.74-2.06 1.29-.75.54-1.53 1.2-2.13 1.97a4.43 4.43 0 0 0-1.06 2.7c0 .89.18 1.73.5 2.5H3.5V7.75ZM16.33 13H7.67A4.98 4.98 0 0 1 7 10.5c0-.56.26-1.16.74-1.78a9.17 9.17 0 0 1 1.82-1.68A17.3 17.3 0 0 1 12 5.58a17.37 17.37 0 0 1 2.44 1.46c.68.5 1.34 1.07 1.82 1.68.48.62.74 1.22.74 1.78 0 .91-.24 1.76-.67 2.5Zm4.17 7.5h-6v-2a2.5 2.5 0 0 0-5 0v2h-6v-6h17v6Zm-9.5-2a1 1 0 1 1 2 0v2h-2v-2ZM3.75 5a1 1 0 1 1-2 0 1 1 0 0 1 2 0Zm17.5 1a1 1 0 1 0 0-2 1 1 0 0 0 0 2Z"/></svg>