<svg width="28" height="28" viewBox="0 0 28 28" xmlns="http://www.w3.org/2000/svg"><path d="M4.75 6a1 1 0 1 1-2 0 1 1 0 0 1 2 0Zm19.5 1a1 1 0 1 0 0-2 1 1 0 0 0 0 2ZM3.75 8c.41 0 .75.34.75.75V15h3.17A6.97 6.97 0 0 1 7 12c0-1.1.5-2.08 1.14-2.9a11.5 11.5 0 0 1 2.3-2.13A20.36 20.36 0 0 1 13.6 5.1l.06-.02.02-.01c.2-.1.42-.1.62 0h.02l.06.03a13.68 13.68 0 0 1 .94.48c.6.33 1.42.8 2.23 1.4.82.58 1.66 1.3 2.3 2.12.65.82 1.14 1.8 1.14 2.9 0 1.07-.24 2.1-.67 3h3.17V8.75a.75.75 0 0 1 1.5 0v14.5c0 .97-.78 1.75-1.75 1.75h-5.5c-.97 0-1.75-.78-1.75-1.75V21a2 2 0 1 0-4 0v2.25c0 .97-.78 1.75-1.75 1.75h-5.5C3.78 25 3 24.22 3 23.25V8.75c0-.41.34-.75.75-.75Z"/></svg>