<svg width="28" height="28" viewBox="0 0 28 28" xmlns="http://www.w3.org/2000/svg"><path d="M4.5 8.75a.75.75 0 0 0-1.5 0v14.5c0 .97.78 1.75 1.75 1.75h18.5c.97 0 1.75-.78 1.75-1.75V8.75a.75.75 0 0 0-1.5 0V15h-3.17c.43-.9.67-1.93.67-3 0-1.1-.5-2.08-1.14-2.9a11.5 11.5 0 0 0-2.3-2.13A20.36 20.36 0 0 0 14.4 5.1l-.06-.02-.02-.01a.75.75 0 0 0-.62 0h-.02l-.06.03a13.68 13.68 0 0 0-.94.48c-.6.33-1.42.8-2.23 1.4a11.5 11.5 0 0 0-2.3 2.12A4.75 4.75 0 0 0 7 12c0 1.07.24 2.1.67 3H4.5V8.75ZM18.61 15H9.39a5.47 5.47 0 0 1-.89-3c0-.63.29-1.3.82-1.97.52-.67 1.24-1.3 2-1.84A18.87 18.87 0 0 1 14 6.59a18.77 18.77 0 0 1 2.69 1.6c.75.54 1.47 1.17 2 1.84.52.68.81 1.34.81 1.97 0 1.1-.33 2.14-.89 3Zm4.64 8.5H17V21a3 3 0 1 0-6 0v2.5H4.75a.25.25 0 0 1-.25-.25V16.5h19v6.75c0 .14-.11.25-.25.25ZM12.5 21a1.5 1.5 0 0 1 3 0v2.5h-3V21ZM3.75 7a1 1 0 1 0 0-2 1 1 0 0 0 0 2Zm21.5-1a1 1 0 1 1-2 0 1 1 0 0 1 2 0Z"/></svg>