<svg width="32" height="32" viewBox="0 0 32 32" xmlns="http://www.w3.org/2000/svg"><path d="M5.25 6.25a1.25 1.25 0 1 1-2.5 0 1.25 1.25 0 0 1 2.5 0ZM28 7.5A1.25 1.25 0 1 0 28 5a1.25 1.25 0 0 0 0 2.5ZM15.6 5.09a1 1 0 0 1 .8 0h.01a10 10 0 0 1 .35.16 24.16 24.16 0 0 1 3.58 2.14c.97.7 2 1.58 2.78 2.57a5.8 5.8 0 0 1 1.38 3.54c0 1.25-.27 2.43-.75 3.5H27v-7a1 1 0 1 1 2 0v17a2 2 0 0 1-2 2h-6a2 2 0 0 1-2-2v-2a3 3 0 1 0-6 0v2a2 2 0 0 1-2 2H5a2 2 0 0 1-2-2V10a1 1 0 0 1 2 0v7h3.25a8.47 8.47 0 0 1-.75-3.5c0-1.34.6-2.54 1.38-3.54.79-1 1.8-1.87 2.78-2.57a24.55 24.55 0 0 1 3.93-2.3Z"/></svg>