<svg width="32" height="32" viewBox="0 0 32 32" xmlns="http://www.w3.org/2000/svg"><path d="M16.4 5.09a1 1 0 0 0-.8 0h-.01l-.03.01a9.63 9.63 0 0 0-.32.15 24.16 24.16 0 0 0-3.58 2.14c-.97.7-2 1.58-2.78 2.57A5.8 5.8 0 0 0 7.5 13.5c0 1.25.27 2.43.75 3.5H5v-7a1 1 0 0 0-2 0v17c0 1.1.9 2 2 2h22a2 2 0 0 0 2-2V10a1 1 0 1 0-2 0v7h-3.25c.48-1.07.75-2.25.75-3.5a5.8 5.8 0 0 0-1.38-3.54c-.79-1-1.8-1.87-2.78-2.57a24.55 24.55 0 0 0-3.9-2.29h-.02v-.01h-.01ZM21.49 17H10.52a6.47 6.47 0 0 1-1.02-3.5c0-.73.33-1.5.96-2.3.62-.8 1.48-1.54 2.38-2.2A22.54 22.54 0 0 1 16 7.1 22.67 22.67 0 0 1 19.16 9c.9.66 1.76 1.4 2.38 2.2.63.8.96 1.57.96 2.3 0 1.29-.38 2.49-1.02 3.5ZM27 27h-7v-2a4 4 0 0 0-8 0v2H5v-8h22v8Zm-9-2v2h-4v-2a2 2 0 1 1 4 0ZM4 7.5A1.25 1.25 0 1 0 4 5a1.25 1.25 0 0 0 0 2.5Zm25.25-1.25a1.25 1.25 0 1 1-2.5 0 1.25 1.25 0 0 1 2.5 0ZM15.59 5.09l-.03.01.03-.01"/></svg>