<svg width="48" height="48" viewBox="0 0 48 48" xmlns="http://www.w3.org/2000/svg"><path d="M7.25 12.5a1.75 1.75 0 1 0 0-3.5 1.75 1.75 0 0 0 0 3.5Zm35.25-1.75a1.75 1.75 0 1 1-3.5 0 1.75 1.75 0 0 1 3.5 0Zm-34 4.5a1.25 1.25 0 1 0-2.5 0v24.5C6 40.99 7 42 8.25 42h9.5c1.24 0 2.25-1 2.25-2.25v-3A3.75 3.75 0 0 1 23.75 33h.5A3.75 3.75 0 0 1 28 36.75v3c0 1.24 1 2.25 2.25 2.25h9.5c1.24 0 2.25-1 2.25-2.25v-24.5a1.25 1.25 0 1 0-2.5 0V26h-4.59c.7-1.52 1.09-3.22 1.09-5 0-1.87-.84-3.55-1.95-4.96a19.75 19.75 0 0 0-3.94-3.65 35 35 0 0 0-5.56-3.26l-.03-.02c-.33-.15-.7-.15-1.03 0h-.01l-.03.02a12.49 12.49 0 0 0-.46.21 34.42 34.42 0 0 0-5.1 3.05c-1.4 1-2.84 2.24-3.94 3.65A8.13 8.13 0 0 0 12 21c0 1.78.39 3.48 1.09 5H8.5V15.25Zm16.01-6.14.04.02-.04-.02h.01"/></svg>