<svg width="48" height="48" viewBox="0 0 48 48" xmlns="http://www.w3.org/2000/svg"><path d="M8.5 15.25a1.25 1.25 0 1 0-2.5 0v24.5C6 40.99 7 42 8.25 42h31.5c1.24 0 2.25-1 2.25-2.25v-24.5a1.25 1.25 0 1 0-2.5 0V26h-4.59c.7-1.52 1.09-3.22 1.09-5 0-1.87-.84-3.55-1.95-4.96a19.75 19.75 0 0 0-3.94-3.65 35 35 0 0 0-5.56-3.26l-.03-.02c-.33-.15-.7-.15-1.03 0h-.01l-.03.02a12.49 12.49 0 0 0-.46.21 34.42 34.42 0 0 0-5.1 3.05c-1.4 1-2.84 2.24-3.94 3.65A8.13 8.13 0 0 0 12 21c0 1.78.39 3.48 1.09 5H8.5V15.25ZM32.08 26H15.92a9.46 9.46 0 0 1-1.42-5c0-1.1.5-2.25 1.41-3.41.91-1.16 2.15-2.24 3.45-3.18A32.47 32.47 0 0 1 24 11.63a32.41 32.41 0 0 1 4.64 2.78c1.3.94 2.54 2.02 3.45 3.18A5.67 5.67 0 0 1 33.5 21c0 1.83-.52 3.55-1.42 5Zm7.42 13.5H29V36a5 5 0 0 0-10 0v3.5H8.5v-11h31v11Zm-13 0h-5V36a2.5 2.5 0 0 1 5 0v3.5Zm-19.25-27a1.75 1.75 0 1 0 0-3.5 1.75 1.75 0 0 0 0 3.5Zm35.25-1.75a1.75 1.75 0 1 1-3.5 0 1.75 1.75 0 0 1 3.5 0ZM24.51 9.11l.04.02-.04-.02h.01"/></svg>