<svg width="48" height="48" viewBox="0 0 48 48" xmlns="http://www.w3.org/2000/svg"><path d="M6 12.25C6 8.8 8.8 6 12.25 6h23.5C39.2 6 42 8.8 42 12.25V31h-1.77l-4.88-7h4.15V12.25a3.75 3.75 0 0 0-3.75-3.75h-23.5a3.75 3.75 0 0 0-3.75 3.75V24h4.15l-4.88 7H6V12.25ZM37.19 31h-6.5l-2.2-7h3.82l4.88 7Zm-9.13 0h-8.12l2.19-7h3.74l2.2 7Zm.78 2.5h-9.68l-2.47 7.87v.01l-.2.62h15l-.18-.63-2.47-7.87ZM19.51 24l-2.2 7h-6.5l4.88-7h3.82Zm-2.97 9.5H6v2.25C6 39.2 8.8 42 12.25 42h1.62l.44-1.37v-.01l2.23-7.12Zm25.46 0H31.46l2.23 7.13.42 1.37h1.64C39.2 42 42 39.2 42 35.75V33.5Z"/></svg>