<svg width="24" height="24" viewBox="0 0 24 24" xmlns="http://www.w3.org/2000/svg"><path d="M3 6.25C3 4.45 4.46 3 6.25 3h11.5C19.55 3 21 4.46 21 6.25V15h-.81l-2.25-3h1.56V6.25c0-.97-.78-1.75-1.75-1.75H6.25c-.97 0-1.75.78-1.75 1.75V12h1.56l-2.25 3H3V6.25ZM15.7 16.5H21v1.25c0 1.8-1.46 3.25-3.25 3.25h-.67l-.36-1.22-1.03-3.28ZM18.3 15h-3.09l-.93-3h1.77l2.25 3Zm-7.79 0h3.13l-.94-3h-1.44l-.75 3Zm3.6 1.5h-3.97L9.02 21h6.5l-.24-.78-1.16-3.72ZM9.72 12l-.74 3h-3.3l2.26-3h1.79ZM8.6 16.5H3v1.25C3 19.55 4.46 21 6.25 21h1.23l1.12-4.5Z"/></svg>