<svg width="24" height="24" viewBox="0 0 24 24" xmlns="http://www.w3.org/2000/svg"><path d="M3 6.25C3 4.45 4.46 3 6.25 3h11.5C19.55 3 21 4.46 21 6.25v11.5c0 1.8-1.46 3.25-3.25 3.25H6.25A3.25 3.25 0 0 1 3 17.75V6.25ZM6.25 4.5c-.97 0-1.75.78-1.75 1.75V11h15V6.25c0-.97-.78-1.75-1.75-1.75H6.25ZM4.5 14.08l1.19-1.58H4.5v1.58Zm1.19.92h3.29l.62-2.5H7.56L5.7 15ZM4.5 16.5v1.25c0 .97.78 1.75 1.75 1.75h1.6l.75-3H4.5Zm5.65 0-.75 3h5.66l-.94-3h-3.97Zm5.54 0 .94 3h1.12c.97 0 1.75-.78 1.75-1.75V16.5h-3.8Zm2.62-1.5-1.87-2.5h-2l.78 2.5h3.1Zm-4.66 0-.78-2.5h-1.72l-.63 2.5h3.13Zm5.85-.92V12.5h-1.19l1.19 1.58Z"/></svg>