<svg width="28" height="28" viewBox="0 0 28 28" xmlns="http://www.w3.org/2000/svg"><path d="M3 6.75A3.75 3.75 0 0 1 6.75 3h14.5A3.75 3.75 0 0 1 25 6.75V18h-.84l-3.2-4h2.54V6.75c0-1.24-1-2.25-2.25-2.25H6.75c-1.24 0-2.25 1-2.25 2.25V14h2.54l-3.2 4H3V6.75ZM18.68 19.5H25v1.75A3.75 3.75 0 0 1 21.25 25h-.87l-.29-.97-1.41-4.53Zm3.56-1.5H18.2l-1.26-4h2.09l3.2 4Zm-10.37 0h4.76l-1.25-4h-2.26l-1.25 4Zm5.23 1.5h-5.7l-1.56 4.97-.16.53h9.13l-.15-.53-1.56-4.97ZM11.55 14l-1.26 4H5.76l3.2-4h2.59Zm-1.72 5.5H3v1.75A3.75 3.75 0 0 0 6.75 25H8.1l.31-.98 1.42-4.52Z"/></svg>