<svg width="16" height="16" viewBox="0 0 16 16" xmlns="http://www.w3.org/2000/svg"><path d="m10.88.28.35 1.07a2.2 2.2 0 0 0 1.4 1.4l1.07.35h.02a.42.42 0 0 1 0 .8l-1.07.35a2.2 2.2 0 0 0-1.4 1.4l-.35 1.07a.42.42 0 0 1-.8 0l-.35-1.07a2.2 2.2 0 0 0-1.4-1.4L7.28 3.9a.42.42 0 0 1 0-.8l1.07-.35a2.2 2.2 0 0 0 1.38-1.4l.35-1.07a.42.42 0 0 1 .8 0Zm4.9 7.93-.76-.25a1.58 1.58 0 0 1-1-1l-.25-.76a.3.3 0 0 0-.57 0l-.25.77a1.58 1.58 0 0 1-.98 1l-.77.24a.3.3 0 0 0 0 .57l.77.25a1.58 1.58 0 0 1 1 1l.24.77a.3.3 0 0 0 .58 0l.24-.77a1.58 1.58 0 0 1 1-1l.77-.24a.3.3 0 0 0 0-.57h-.02ZM13.5 12c-.17 0-.34-.03-.5-.1v.1a1 1 0 0 1-1 1H4a1 1 0 0 1-1-1V7a1 1 0 0 1 1-1h1a.5.5 0 0 0 .45-.28l.72-1.44a.5.5 0 0 1 .03-.05 1.4 1.4 0 0 1-.15-1.12 1.5 1.5 0 0 0-.77.72L4.69 5H4a2 2 0 0 0-2 2v5c0 1.1.9 2 2 2h8a2 2 0 0 0 2-2v-.08c-.16.06-.33.08-.5.08ZM8.74 6.1l.31.95c.06.15.13.3.25.43A2 2 0 1 0 10 9l.14.26c.16.22.38.38.65.48l.11.03A3 3 0 1 1 8.74 6.1Z"/></svg>