<svg width="20" height="20" viewBox="0 0 20 20" xmlns="http://www.w3.org/2000/svg"><path d="M15.23 1.35L14.88.28a.42.42 0 00-.8 0l-.35 1.07a2.2 2.2 0 01-1.38 1.4l-1.07.35a.42.42 0 000 .8l1.07.34a2.2 2.2 0 011.4 1.4l.35 1.08a.42.42 0 00.8 0l.35-1.07a2.2 2.2 0 011.4-1.4l1.07-.35a.42.42 0 000-.8h-.02l-1.08-.35a2.2 2.2 0 01-1.4-1.4zm3.79 6.61l.76.25h.02a.3.3 0 010 .58l-.77.25a1.58 1.58 0 00-1 1l-.24.76a.3.3 0 01-.58 0l-.24-.77a1.58 1.58 0 00-1-1l-.77-.25a.3.3 0 010-.57l.77-.25a1.58 1.58 0 00.98-1l.25-.76a.3.3 0 01.57 0l.25.77a1.57 1.57 0 001 1zM10 7a3 3 0 100 6 3 3 0 000-6zm1-4.85l.4-.15H8.13a1.5 1.5 0 00-1.34.83L6.2 4H4.5A2.5 2.5 0 002 6.5v8A2.5 2.5 0 004.5 17h11a2.5 2.5 0 002.5-2.5v-2.6a1.29 1.29 0 01-1.25-.14c-.23-.16-.4-.39-.49-.65l-.24-.76a.59.59 0 00-.14-.23.74.74 0 00-.22-.14l-.79-.25A1.31 1.31 0 0114 8.5a1.3 1.3 0 01.05-.63c-.16-.04-.3-.11-.44-.21-.21-.17-.37-.4-.46-.66l-.33-1.13a1.12 1.12 0 00-.26-.38l-.06-.06a1 1 0 00-.4-.23L11 4.84a1.42 1.42 0 01-1-1.34c0-.3.1-.58.29-.82.17-.25.42-.44.71-.53zM6 10a4 4 0 118 0 4 4 0 01-8 0z"/></svg>