<svg width="16" height="16" viewBox="0 0 16 16" xmlns="http://www.w3.org/2000/svg"><path d="m10.88.28.35 1.07a2.2 2.2 0 0 0 1.4 1.4l1.07.35h.02a.42.42 0 0 1 0 .8l-1.07.35a2.2 2.2 0 0 0-1.4 1.4l-.35 1.07a.42.42 0 0 1-.8 0l-.35-1.07a2.2 2.2 0 0 0-1.4-1.4L7.28 3.9a.42.42 0 0 1 0-.8l1.07-.35a2.2 2.2 0 0 0 1.38-1.4l.35-1.07a.42.42 0 0 1 .8 0Zm4.9 7.93-.76-.25a1.58 1.58 0 0 1-1-1l-.25-.76a.3.3 0 0 0-.57 0l-.25.77a1.58 1.58 0 0 1-.98 1l-.77.24a.3.3 0 0 0 0 .57l.77.25a1.58 1.58 0 0 1 1 1l.24.77a.3.3 0 0 0 .58 0l.24-.77a1.58 1.58 0 0 1 1-1l.77-.24a.3.3 0 0 0 0-.57h-.02ZM13.5 12c-.27 0-.53-.08-.74-.23a1.4 1.4 0 0 1-.48-.62l-.26-.8a.52.52 0 0 0-.14-.22.63.63 0 0 0-.22-.14l-.75-.25a3 3 0 1 1-2.06-3.62l-.06-.16a1.27 1.27 0 0 0-.29-.47 1.3 1.3 0 0 0-.47-.3l-1.06-.34A1.41 1.41 0 0 1 6 3.5c0-.14.02-.27.05-.39a1.5 1.5 0 0 0-.77.72L4.69 5H4a2 2 0 0 0-2 2v5c0 1.1.9 2 2 2h8a2 2 0 0 0 2-2v-.08c-.16.06-.33.08-.5.08ZM10 9a2 2 0 1 1-4 0 2 2 0 0 1 4 0Z"/></svg>