<svg width="24" height="24" viewBox="0 0 24 24" xmlns="http://www.w3.org/2000/svg"><path d="M15.85 6.15a2.84 2.84 0 01.69 1.11l.45 1.38a.54.54 0 001.02 0l.45-1.38a2.84 2.84 0 011.8-1.8l1.38-.44a.54.54 0 000-1.03h-.03l-1.38-.45a2.84 2.84 0 01-1.8-1.8L18 .36a.54.54 0 00-1.03 0l-.45 1.38-.01.03a2.84 2.84 0 01-1 1.37 2.91 2.91 0 01-.76.4l-.6.2-.78.24c-.1.04-.2.1-.26.2a.51.51 0 00-.1.34.5.5 0 00.1.3.54.54 0 00.26.19l1.38.45a2.83 2.83 0 011.11.69zm7.17 3.81l.76.25h.02a.3.3 0 01.14.47.3.3 0 01-.14.1l-.77.26a1.58 1.58 0 00-1 1l-.24.76a.3.3 0 01-.39.18.27.27 0 01-.1-.05.28.28 0 01-.13-.14l-.1-.41-.1-.35a1.57 1.57 0 00-1-1l-.77-.25a.3.3 0 01-.14-.46.3.3 0 01.14-.1l.77-.26a1.58 1.58 0 00.98-1l.25-.76a.3.3 0 01.57 0l.25.77a1.57 1.57 0 001 1zM15 12.5a3 3 0 10-6 0 3 3 0 006 0zm7 5.25v-3.86a1.29 1.29 0 01-1.29-.12c-.23-.16-.4-.39-.49-.65l-.24-.76a.6.6 0 00-.14-.23.74.74 0 00-.22-.14l-.79-.25a1.31 1.31 0 01-.69-1.89 1.57 1.57 0 01-1.57-.12c-.26-.2-.46-.46-.57-.77l-.44-1.38c-.07-.2-.16-.38-.29-.55l-.15-.17a1.8 1.8 0 00-.72-.44L13 5.96a1.57 1.57 0 01-.74-2.36c.2-.26.46-.46.77-.57l1.36-.44.07-.02a2.25 2.25 0 00-.54-.07h-3.8c-.78 0-1.5.4-1.91 1.08L7.33 5H5.25A3.25 3.25 0 002 8.25v9.5C2 19.55 3.46 21 5.25 21h13.5c1.8 0 3.25-1.46 3.25-3.25zM7.5 12.5a4.5 4.5 0 119 0 4.5 4.5 0 01-9 0z"/></svg>