<svg width="16" height="16" viewBox="0 0 16 16" xmlns="http://www.w3.org/2000/svg"><path d="M10.88.28l.35 1.07a2.2 2.2 0 001.4 1.4l1.07.35h.02a.42.42 0 010 .8l-1.07.35a2.2 2.2 0 00-1.4 1.4l-.35 1.07a.42.42 0 01-.8 0l-.35-1.07a2.2 2.2 0 00-1.4-1.4L7.28 3.9a.42.42 0 010-.8l1.07-.35a2.2 2.2 0 001.38-1.4l.35-1.07a.42.42 0 01.8 0zm4.9 7.93l-.76-.25a1.58 1.58 0 01-1-1l-.25-.76a.3.3 0 00-.57 0l-.25.77a1.58 1.58 0 01-.98 1l-.77.24a.3.3 0 000 .57l.77.25a1.58 1.58 0 011 1l.24.77a.3.3 0 00.58 0l.24-.77a1.58 1.58 0 011-1l.77-.24a.3.3 0 000-.57h-.02zM13.5 12c-.17 0-.34-.03-.5-.1v.1a1 1 0 01-1 1H4a1 1 0 01-1-1V7a1 1 0 011-1h1a.5.5 0 00.45-.28l.72-1.44a.5.5 0 01.03-.05 1.4 1.4 0 01-.15-1.12 1.5 1.5 0 00-.77.72L4.69 5H4a2 2 0 00-2 2v5c0 1.1.9 2 2 2h8a2 2 0 002-2v-.08c-.16.06-.33.08-.5.08zM8.74 6.1l.31.95c.06.15.13.3.25.43A2 2 0 1010 9l.14.26c.16.22.38.38.65.48l.11.03A3 3 0 118.74 6.1z"/></svg>