<svg width="20" height="20" viewBox="0 0 20 20" xmlns="http://www.w3.org/2000/svg"><path d="M15.23 1.35L14.88.28a.42.42 0 00-.8 0l-.35 1.07a2.2 2.2 0 01-1.38 1.4l-1.07.35a.42.42 0 000 .8l1.07.34a2.2 2.2 0 011.4 1.4l.35 1.08a.42.42 0 00.8 0l.35-1.07a2.2 2.2 0 011.4-1.4l1.07-.35a.42.42 0 000-.8h-.02l-1.08-.35a2.2 2.2 0 01-1.4-1.4zm3.79 6.61l.76.25h.02a.3.3 0 010 .58l-.77.25a1.58 1.58 0 00-1 1l-.24.76a.3.3 0 01-.58 0l-.24-.77a1.58 1.58 0 00-1-1l-.77-.25a.3.3 0 010-.57l.77-.25a1.58 1.58 0 00.98-1l.25-.76a.3.3 0 01.57 0l.25.77a1.57 1.57 0 001 1zM8.12 2h3.29l-.41.15c-.29.1-.54.28-.71.53-.08.1-.14.2-.18.32H8.12a.5.5 0 00-.44.28l-.73 1.44A.5.5 0 016.5 5h-2C3.68 5 3 5.67 3 6.5v8c0 .83.68 1.5 1.5 1.5h11c.83 0 1.5-.67 1.5-1.5v-2.6a1.29 1.29 0 001 0v2.6a2.5 2.5 0 01-2.5 2.5h-11A2.5 2.5 0 012 14.5v-8A2.5 2.5 0 014.5 4h1.7l.58-1.17c.26-.51.78-.83 1.34-.83zM10 6a4 4 0 100 8 4 4 0 000-8zm-3 4a3 3 0 116 0 3 3 0 01-6 0z"/></svg>