<svg width="32" height="32" viewBox="0 0 32 32" xmlns="http://www.w3.org/2000/svg"><path d="M16.81 4.3c-.47-.4-1.15-.4-1.62 0L5.44 12.6c-.28.24-.44.58-.44.95V26.5c0 .28.22.5.5.5h5a.5.5 0 0 0 .5-.5v-7a2.5 2.5 0 0 1 2.5-2.5h5a2.5 2.5 0 0 1 2.5 2.5v7c0 .28.23.5.5.5h5a.5.5 0 0 0 .5-.5V13.54c0-.37-.16-.71-.44-.95L16.81 4.3ZM13.9 2.78a3.25 3.25 0 0 1 4.2 0l9.75 8.28A3.25 3.25 0 0 1 29 13.54V26.5a2.5 2.5 0 0 1-2.5 2.5h-5a2.5 2.5 0 0 1-2.5-2.5v-7a.5.5 0 0 0-.5-.5h-5a.5.5 0 0 0-.5.5v7a2.5 2.5 0 0 1-2.5 2.5h-5A2.5 2.5 0 0 1 3 26.5V13.54c0-.95.42-1.86 1.15-2.48l9.75-8.28Z"/></svg>