<svg width="20" height="20" viewBox="0 0 20 20" xmlns="http://www.w3.org/2000/svg"><path d="M8 3.5c0-.28.22-.5.5-.5h3a.5.5 0 0 1 0 1h-3a.5.5 0 0 1-.5-.5Zm-2.46.55a2 2 0 0 0-1.5 1.55.5.5 0 0 1-.59.4.5.5 0 0 1-.38-.66 3 3 0 0 1 2.34-2.29.5.5 0 0 1 .6.4.5.5 0 0 1-.47.6Zm0 11.9a2 2 0 0 1-1.5-1.55.5.5 0 0 0-.59-.4.5.5 0 0 0-.38.66 3 3 0 0 0 2.34 2.29.5.5 0 0 0 .6-.4.5.5 0 0 0-.47-.6Zm9.05-12.9a3 3 0 0 1 2.36 2.36.5.5 0 0 1-.4.6.5.5 0 0 1-.6-.47 2 2 0 0 0-1.55-1.5.5.5 0 0 1-.4-.59.5.5 0 0 1 .6-.4Zm-.13 12.9a2 2 0 0 0 1.5-1.55.5.5 0 0 1 .59-.4.5.5 0 0 1 .38.66 3 3 0 0 1-2.34 2.29.5.5 0 0 1-.6-.4.5.5 0 0 1 .47-.6ZM16 11.5a.5.5 0 0 0 1 0v-3a.5.5 0 0 0-1 0v3ZM3.5 12a.5.5 0 0 1-.5-.5v-3a.5.5 0 0 1 1 0v3a.5.5 0 0 1-.5.5Zm5 4a.5.5 0 0 0 0 1h3a.5.5 0 0 0 0-1h-3Z"/></svg>