<svg width="24" height="24" viewBox="0 0 24 24" xmlns="http://www.w3.org/2000/svg"><path d="M14 3.75c0 .41-.34.75-.75.75h-2.5a.75.75 0 010-1.5h2.5c.41 0 .75.34.75.75zm-9.5 7a.75.75 0 00-1.5 0v2.5a.75.75 0 001.5 0v-2.5zm15 0a.75.75 0 011.5 0v2.5a.75.75 0 01-1.5 0v-2.5zM13.25 21a.75.75 0 000-1.5h-2.5a.75.75 0 000 1.5h2.5zM7 3.75A.75.75 0 006.25 3h-.5A2.75 2.75 0 003 5.75v.5a.75.75 0 001.5 0v-.5c0-.69.56-1.25 1.25-1.25h.5c.41 0 .75-.34.75-.75zM17.75 3a.75.75 0 000 1.5h.5c.69 0 1.25.56 1.25 1.25v.5a.75.75 0 001.5 0v-.5A2.75 2.75 0 0018.25 3h-.5zM7 20.25c0 .41-.34.75-.75.75h-.5A2.75 2.75 0 013 18.25v-.5a.75.75 0 011.5 0v.5c0 .69.56 1.25 1.25 1.25h.5c.41 0 .75.34.75.75zm10.75.75a.75.75 0 010-1.5h.5c.69 0 1.25-.56 1.25-1.25v-.5a.75.75 0 011.5 0v.5A2.75 2.75 0 0118.25 21h-.5z"/></svg>