<svg width="16" height="16" viewBox="0 0 16 16" xmlns="http://www.w3.org/2000/svg"><path d="M1 4.5A2.5 2.5 0 0 1 3.5 2h2.09c.4 0 .78.16 1.06.44L8 3.79 5.94 5.85a.5.5 0 0 1-.35.15H1V4.5ZM1 7v4.5A2.5 2.5 0 0 0 3.5 14h2.55a2.51 2.51 0 0 1-.05-.5v-4A2.5 2.5 0 0 1 8.5 7h6c.17 0 .34.02.5.05V6.5A2.5 2.5 0 0 0 12.5 4H9.2L6.66 6.56A1.5 1.5 0 0 1 5.59 7H1Zm10.51 4.93L7.01 9.3c.1-.73.73-1.3 1.49-1.3h6c.83 0 1.5.67 1.5 1.5l-4.49 2.43Zm.23 1.01 4.26-2.3v2.86c0 .83-.67 1.5-1.5 1.5h-6A1.5 1.5 0 0 1 7 13.5v-3.05l4.25 2.48c.15.09.33.1.49.01Z"/></svg>