<svg width="20" height="20" viewBox="0 0 20 20" xmlns="http://www.w3.org/2000/svg"><path d="M15.5 4.5h-4.94l-2.4 2.53-.11.1c-.23.2-.52.33-.83.36l-.15.01H2v7.16A2.5 2.5 0 0 0 4.5 17H9v-3.5a2.5 2.5 0 0 1 2.5-2.5h6c.17 0 .34.02.5.05V6.84l-.02-.17A2.5 2.5 0 0 0 15.5 4.5ZM7.93 3.21A1.5 1.5 0 0 0 7.17 3H4.34A2.5 2.5 0 0 0 2 5.5v1h5.15a.5.5 0 0 0 .22-.1l.06-.06L9.4 4.3 8.06 3.3l-.14-.09Zm6.58 12.72-4.5-2.63c.1-.73.73-1.3 1.49-1.3h6c.83 0 1.5.67 1.5 1.5l-4.49 2.43Zm.23 1.01 4.26-2.3v2.86c0 .83-.67 1.5-1.5 1.5h-6a1.5 1.5 0 0 1-1.5-1.5v-3.05l4.25 2.48c.15.09.33.1.49.01Z"/></svg>