<svg width="20" height="20" viewBox="0 0 20 20" xmlns="http://www.w3.org/2000/svg"><path d="M2 5.5A2.5 2.5 0 0 1 4.5 3h2.48c.47 0 .91.18 1.24.51L9.5 4.8 7.44 6.85a.5.5 0 0 1-.35.15H2V5.5ZM2 8v6.5A2.5 2.5 0 0 0 4.5 17h4.55a2.51 2.51 0 0 1-.05-.5v-4a2.5 2.5 0 0 1 2.5-2.5h6c.17 0 .34.02.5.05V7.5A2.5 2.5 0 0 0 15.5 5h-4.8L8.16 7.56A1.5 1.5 0 0 1 7.09 8H2Zm8.01 4.3 4.5 2.63L19 12.5v-.01c0-.83-.67-1.5-1.5-1.5h-6c-.76 0-1.4.57-1.49 1.3ZM19 13.64l-4.26 2.3a.5.5 0 0 1-.5 0L10 13.44v3.05c0 .83.67 1.5 1.5 1.5h6c.83 0 1.5-.67 1.5-1.5v-2.86Z"/></svg>