<svg width="24" height="24" viewBox="0 0 24 24" xmlns="http://www.w3.org/2000/svg"><path d="M2 8V6.25C2 4.45 3.46 3 5.25 3h2.88c.6 0 1.17.24 1.59.66l1.53 1.53-2.6 2.59a.75.75 0 0 1-.52.22H2Zm0 1.5v8.25C2 19.55 3.46 21 5.25 21h5.92a3 3 0 0 1-.17-1v-5a3 3 0 0 1 3-3h7a3 3 0 0 1 1 .17V8.75c0-1.8-1.46-3.25-3.25-3.25h-5.69L9.72 8.84c-.42.42-1 .66-1.6.66H2Zm10.02 5.22 5.49 3.2L23 14.98A2 2 0 0 0 21 13h-7a2 2 0 0 0-1.98 1.72ZM23 16.11l-5.26 2.83a.5.5 0 0 1-.5 0L12 15.86V20c0 1.1.9 2 2 2h7a2 2 0 0 0 2-2v-3.9Z"/></svg>