<svg width="28" height="28" viewBox="0 0 28 28" xmlns="http://www.w3.org/2000/svg"><path d="M2 6.75A3.75 3.75 0 0 1 5.75 3h3.67c.73 0 1.43.29 1.95.8l1.88 1.89-2.94 2.94c-.24.24-.56.37-.89.37H2V6.75Zm0 3.75v9.75A3.75 3.75 0 0 0 5.75 24h7.59a3.49 3.49 0 0 1-.34-1.5v-6a3.5 3.5 0 0 1 3.5-3.5h8c.54 0 1.05.12 1.5.34V9.75A3.75 3.75 0 0 0 22.25 6h-7.19l-3.7 3.7c-.51.51-1.2.8-1.94.8H2ZM16.5 14a2.5 2.5 0 0 0-2.5 2.5v.2l6.5 3.24L27 16.7v-.19a2.5 2.5 0 0 0-2.5-2.5h-8ZM27 17.8l-6.28 3.15a.5.5 0 0 1-.44 0L14 17.8v4.69a2.5 2.5 0 0 0 2.5 2.5h8a2.5 2.5 0 0 0 2.5-2.5v-4.7Z"/></svg>