<svg width="20" height="20" viewBox="0 0 20 20" xmlns="http://www.w3.org/2000/svg"><path d="M2 6.75A2.75 2.75 0 0 1 4.75 4h10.5A2.75 2.75 0 0 1 18 6.75v6.5A2.75 2.75 0 0 1 15.25 16H4.75A2.75 2.75 0 0 1 2 13.25v-6.5ZM3 10v3.25c0 .97.78 1.75 1.75 1.75H7v-4.3l-1.65 1.65a.5.5 0 0 1-.7-.7L6.29 10H3Zm1.27-1A2 2 0 0 1 7 6.27V5H4.75C3.78 5 3 5.78 3 6.75V9h1.27ZM6 9h1V8a1 1 0 1 0-1 1Zm2-1v1h1a1 1 0 1 0-1-1Zm2.73 1H17V6.75C17 5.78 16.22 5 15.25 5H8v1.27A2 2 0 0 1 10.73 9Zm-2.02 1 1.64 1.65a.5.5 0 0 1-.7.7L8 10.71V15h7.25c.97 0 1.75-.78 1.75-1.75V10H8.7Z"/></svg>