<svg width="48" height="48" viewBox="0 0 48 48" xmlns="http://www.w3.org/2000/svg"><path d="M26.25 24.5a2.25 2.25 0 1 1-4.5 0 2.25 2.25 0 0 1 4.5 0ZM17 26.75a2.25 2.25 0 1 0 0-4.5 2.25 2.25 0 0 0 0 4.5Zm16.25-2.25a2.25 2.25 0 1 1-4.5 0 2.25 2.25 0 0 1 4.5 0ZM24 33.75a2.25 2.25 0 1 0 0-4.5 2.25 2.25 0 0 0 0 4.5Zm-4.75-2.25a2.25 2.25 0 1 1-4.5 0 2.25 2.25 0 0 1 4.5 0ZM31 33.75a2.25 2.25 0 1 0 0-4.5 2.25 2.25 0 0 0 0 4.5Zm-4.6-27.9a3.78 3.78 0 0 0-4.8 0L8.44 16.6A3.91 3.91 0 0 0 7 19.63V39.1A3.86 3.86 0 0 0 10.82 43h26.35A3.86 3.86 0 0 0 41 39.11V19.63c0-1.18-.53-2.3-1.43-3.03L26.39 5.86ZM33 40.42H10.82c-.7 0-1.27-.58-1.27-1.3V19.63c0-.4.18-.77.48-1.01L23.2 7.88a1.26 1.26 0 0 1 1.6 0l13.17 10.74c.3.24.48.62.48 1v19.5c0 .7-.57 1.29-1.28 1.29H33Z"/></svg>