<svg width="32" height="32" viewBox="0 0 32 32" xmlns="http://www.w3.org/2000/svg"><path d="M15.19 4.3c.47-.4 1.15-.4 1.62 0l9.75 8.29c.28.24.44.58.44.95v12.22c0 .68-.56 1.24-1.25 1.24H6.25C5.55 27 5 26.44 5 25.76V13.54c0-.37.16-.71.44-.95l9.75-8.29Zm2.91-1.52a3.25 3.25 0 0 0-4.2 0l-9.75 8.29A3.25 3.25 0 0 0 3 13.54v12.22C3 27.55 4.45 29 6.25 29h19.5c1.8 0 3.25-1.45 3.25-3.24V13.54c0-.95-.42-1.86-1.15-2.47l-9.75-8.3ZM12 16.5a1.5 1.5 0 1 1-3 0 1.5 1.5 0 0 1 3 0ZM10.5 23a1.5 1.5 0 1 0 0-3 1.5 1.5 0 0 0 0 3Zm5.5 0a1.5 1.5 0 1 0 0-3 1.5 1.5 0 0 0 0 3Zm0-5a1.5 1.5 0 1 0 0-3 1.5 1.5 0 0 0 0 3Zm5.5 0a1.5 1.5 0 1 0 0-3 1.5 1.5 0 0 0 0 3Zm0 5a1.5 1.5 0 1 0 0-3 1.5 1.5 0 0 0 0 3Z"/></svg>