<svg width="32" height="32" viewBox="0 0 32 32" xmlns="http://www.w3.org/2000/svg"><path d="M8 12a8 8 0 1115.58 2.56c.67.2 1.27.52 1.8.92A10 10 0 107.3 16.93c.5-.46 1.07-.81 1.7-1.06A7.96 7.96 0 018 12zm14.5 0c0 .79-.14 1.55-.4 2.25l-1.6-.31V12a4.5 4.5 0 10-9 .18v3.33a5.45 5.45 0 00-.97 0A6.5 6.5 0 1122.5 12zM15 12a1 1 0 112 0v4c0 .48.34.9.81.98l4.57.89a2 2 0 011.55 2.49l-1.52 5.53a1 1 0 01-.88.73l-4.76.38h-.02a.17.17 0 01-.05-.08c-.78-2.15-2.68-4.74-7.6-6.56a2 2 0 012.68-1.21l1.83.77a1 1 0 001.4-.92v-7zm1-3a3 3 0 00-3 3v5.5l-.45-.2a4 4 0 00-5.4 2.65l-.1.33a1.5 1.5 0 00.97 1.82c4.74 1.65 6.22 3.92 6.8 5.5.3.82 1.11 1.48 2.11 1.4l4.76-.39a3 3 0 002.65-2.2l1.52-5.52a4 4 0 00-3.1-4.99L19 15.18V12a3 3 0 00-3-3z"/></svg>