<svg width="20" height="20" viewBox="0 0 20 20" xmlns="http://www.w3.org/2000/svg"><path d="M14 3a3 3 0 0 1 3 3v8a3 3 0 0 1-3 3v-4.38l.06-.06 1.5-1.5a1.5 1.5 0 0 0 0-2.12l-1.5-1.5a1.6 1.6 0 0 0-.06-.06V3Zm-1 0v4a1.5 1.5 0 0 0-1.5 1.5h-3A1.5 1.5 0 0 0 7 7V3h6Zm-4.94 9.56c-.3.3-.68.44-1.06.44v4h6v-4a1.5 1.5 0 0 1-1.5-1.5h-3c0 .38-.15.77-.44 1.06ZM6 17v-4.38a1.55 1.55 0 0 1-.06-.06l-1.5-1.5a1.5 1.5 0 0 1 0-2.12l1.5-1.5.06-.06V3a3 3 0 0 0-3 3v8a3 3 0 0 0 3 3Zm1.35-8.85c.2.2.2.5 0 .7l-.64.65h6.58l-.64-.65a.5.5 0 0 1 .7-.7l1.5 1.5c.2.2.2.5 0 .7l-1.5 1.5a.5.5 0 0 1-.7-.7l.64-.65H6.71l.64.65a.5.5 0 0 1-.7.7l-1.5-1.5a.5.5 0 0 1 0-.7l1.5-1.5c.2-.2.5-.2.7 0Z"/></svg>