<svg width="20" height="20" viewBox="0 0 20 20" xmlns="http://www.w3.org/2000/svg"><path d="M6 5.25a1.25 1.25 0 100-2.5 1.25 1.25 0 000 2.5zm0 4a1.25 1.25 0 100-2.5 1.25 1.25 0 000 2.5zM7.25 12a1.25 1.25 0 11-2.5 0 1.25 1.25 0 012.5 0zM10 5.25a1.25 1.25 0 100-2.5 1.25 1.25 0 000 2.5zM11.25 8a1.25 1.25 0 11-2.5 0 1.25 1.25 0 012.5 0zM10 13.25a1.25 1.25 0 100-2.5 1.25 1.25 0 000 2.5zM11.25 16a1.25 1.25 0 11-2.5 0 1.25 1.25 0 012.5 0zM14 5.25a1.25 1.25 0 100-2.5 1.25 1.25 0 000 2.5zM15.25 8a1.25 1.25 0 11-2.5 0 1.25 1.25 0 012.5 0zM14 13.25a1.25 1.25 0 100-2.5 1.25 1.25 0 000 2.5z"/></svg>