<svg width="32" height="32" viewBox="0 0 32 32" xmlns="http://www.w3.org/2000/svg"><path d="M9 7.5a2.5 2.5 0 1 0 0-5 2.5 2.5 0 0 0 0 5Zm0 7a2.5 2.5 0 1 0 0-5 2.5 2.5 0 0 0 0 5Zm0 7a2.5 2.5 0 1 0 0-5 2.5 2.5 0 0 0 0 5Zm7-14a2.5 2.5 0 1 0 0-5 2.5 2.5 0 0 0 0 5Zm0 7a2.5 2.5 0 1 0 0-5 2.5 2.5 0 0 0 0 5Zm0 7a2.5 2.5 0 1 0 0-5 2.5 2.5 0 0 0 0 5Zm0 7a2.5 2.5 0 1 0 0-5 2.5 2.5 0 0 0 0 5Zm7-21a2.5 2.5 0 1 0 0-5 2.5 2.5 0 0 0 0 5Zm0 7a2.5 2.5 0 1 0 0-5 2.5 2.5 0 0 0 0 5Zm0 7a2.5 2.5 0 1 0 0-5 2.5 2.5 0 0 0 0 5Z"/></svg>