<svg width="24" height="24" viewBox="0 0 24 24" xmlns="http://www.w3.org/2000/svg"><path d="M12 17.75a1.5 1.5 0 1 1 0 3 1.5 1.5 0 0 1 0-3Zm0-5a1.5 1.5 0 1 1 0 3 1.5 1.5 0 0 1 0-3Zm5 0a1.5 1.5 0 1 1 0 3 1.5 1.5 0 0 1 0-3Zm-10 0a1.5 1.5 0 1 1 0 3 1.5 1.5 0 0 1 0-3Zm5-5a1.5 1.5 0 1 1 0 3 1.5 1.5 0 0 1 0-3Zm5 0a1.5 1.5 0 1 1 0 3 1.5 1.5 0 0 1 0-3Zm-10 0a1.5 1.5 0 1 1 0 3 1.5 1.5 0 0 1 0-3Zm5-5a1.5 1.5 0 1 1 0 3 1.5 1.5 0 0 1 0-3Zm5 0a1.5 1.5 0 1 1 0 3 1.5 1.5 0 0 1 0-3Zm-10 0a1.5 1.5 0 1 1 0 3 1.5 1.5 0 0 1 0-3Z"/></svg>