<svg width="20" height="20" viewBox="0 0 20 20" xmlns="http://www.w3.org/2000/svg"><path d="M1 3c0-1.1.9-2 2-2h3a2 2 0 0 1 2 2v1h-.5c-.17 0-.34.01-.5.04V3a1 1 0 0 0-1-1H3a1 1 0 0 0-1 1v3a1 1 0 0 0 1 1h1.04C4 7.16 4 7.33 4 7.5V8H3a2 2 0 0 1-2-2V3Zm11 13v1c0 1.1.9 2 2 2h3a2 2 0 0 0 2-2v-3a2 2 0 0 0-2-2h-1v.5c0 .17-.01.34-.04.5H17a1 1 0 0 1 1 1v3a1 1 0 0 1-1 1h-3a1 1 0 0 1-1-1v-1.04c-.16.03-.33.04-.5.04H12ZM5 7.5A2.5 2.5 0 0 1 7.5 5h5A2.5 2.5 0 0 1 15 7.5v5a2.5 2.5 0 0 1-2.5 2.5h-5A2.5 2.5 0 0 1 5 12.5v-5Z"/></svg>