<svg width="16" height="16" viewBox="0 0 16 16" xmlns="http://www.w3.org/2000/svg"><path d="M5.5 13h4c.83 0 1.5-.67 1.5-1.5v-9A1.5 1.5 0 0 0 9.5 1h-4A1.5 1.5 0 0 0 4 2.5v9c0 .83.67 1.5 1.5 1.5Zm.65-8.85A.5.5 0 0 1 6.5 4h2a.5.5 0 1 1 0 1h-2a.5.5 0 0 1-.5-.5.5.5 0 0 1 .15-.35Zm0 4A.5.5 0 0 1 6.5 8h2a.5.5 0 1 1 0 1h-2a.5.5 0 0 1-.5-.5.5.5 0 0 1 .15-.35Zm0 2A.5.5 0 0 1 6.5 10h2a.5.5 0 1 1 0 1h-2a.5.5 0 0 1-.35-.85Zm7.82 4.17-1.5-4A.5.5 0 0 0 12 10v1.5A2.5 2.5 0 0 1 9.5 14h-4A2.5 2.5 0 0 1 3 11.5V10a.5.5 0 0 0-.47.32l-1.5 4c-.03.08-.04.16-.03.24a.5.5 0 0 0 .5.44h12a.5.5 0 0 0 .41-.22.5.5 0 0 0 .06-.46Z"/></svg>