<svg width="20" height="20" viewBox="0 0 20 20" xmlns="http://www.w3.org/2000/svg"><path d="M5.35.65a.5.5 0 10-.7.7l1 1a.5.5 0 00.7 0l1-1a.5.5 0 10-.7-.7L6 1.29 5.35.65zM4 3a.5.5 0 000 1h2.96L3.61 8.19A.5.5 0 004 9h4a.5.5 0 000-1H5.04l3.35-4.19A.5.5 0 008 3H4zm2.46 8.3a.5.5 0 00-.92 0l-2.5 6a.5.5 0 10.92.4l.5-1.2a.5.5 0 00.04 0h3a.5.5 0 00.04 0l.5 1.2a.5.5 0 00.92-.4l-2.5-6zm.67 4.2H4.88L6 12.8l1.13 2.7zM14.5 2c.28 0 .5.22.5.5v13.8l2.15-2.15a.5.5 0 01.7.7l-3 3a.5.5 0 01-.7 0l-3-3a.5.5 0 01.7-.7L14 16.29V2.5c0-.28.22-.5.5-.5z"/></svg>