<svg width="20" height="20" viewBox="0 0 20 20" xmlns="http://www.w3.org/2000/svg"><path d="M4.47.22c.3-.3.77-.3 1.06 0L6 .69l.47-.47a.75.75 0 1 1 1.06 1.06l-1 1c-.3.3-.77.3-1.06 0l-1-1a.75.75 0 0 1 0-1.06ZM14.25 2c.41 0 .75.34.75.75v12.57l1.45-1.58a.75.75 0 0 1 1.1 1.02l-2.75 3a.75.75 0 0 1-1.1 0l-2.75-3a.75.75 0 0 1 1.1-1.02l1.45 1.58V2.75c0-.41.34-.75.75-.75ZM6 10.5c.3 0 .58.18.7.46l2.5 6a.75.75 0 0 1-1.4.58l-.42-1.04H4.63l-.44 1.04a.75.75 0 0 1-1.38-.58l2.5-6A.75.75 0 0 1 6 10.5Zm0 2.7L5.25 15h1.5L6 13.2ZM4.25 3a.75.75 0 0 0 0 1.5h1.97L3.66 7.79A.75.75 0 0 0 4.25 9h3.5a.75.75 0 0 0 0-1.5H5.78l2.56-3.29A.75.75 0 0 0 7.75 3h-3.5Z"/></svg>