<svg width="16" height="16" viewBox="0 0 16 16" xmlns="http://www.w3.org/2000/svg"><path d="M4.35.65a.5.5 0 00-.7.7l1 1c.2.2.5.2.7 0l1-1a.5.5 0 10-.7-.7L5 1.29 4.35.65zM3 3a.5.5 0 000 1h2.4L2.62 7.17A.5.5 0 003 8h3.5a.5.5 0 000-1H4.1l2.78-3.17A.5.5 0 006.5 3H3zm2.46 6.31a.5.5 0 00-.92 0l-2 5a.5.5 0 10.92.38l.28-.7 2.52.01.28.69a.5.5 0 10.92-.38l-2-5zm.4 3.69H4.14L5 10.85 5.86 13zM12.5 1c.28 0 .5.22.5.5v11.8l1.15-1.15a.5.5 0 01.7.7l-2 2a.5.5 0 01-.7 0l-2-2a.5.5 0 11.7-.7L12 13.29V1.5c0-.28.22-.5.5-.5z"/></svg>