<svg width="20" height="20" viewBox="0 0 20 20" xmlns="http://www.w3.org/2000/svg"><path d="M10 18a8 8 0 1 0-8-7.75c.6-.48 1.3-.85 2.05-1.06a6 6 0 0 1 8.13-4.78.5.5 0 0 1-.36.93A5 5 0 0 0 5.1 9.01a5.58 5.58 0 0 1 3.57 1c.06-.17.15-.34.28-.48.07-.09.2-.2.34-.33l.56-.48a125.12 125.12 0 0 1 2.96-2.4l.27-.22.37-.3a.5.5 0 0 1 .75.64l-.11.2a323.59 323.59 0 0 1-.69 1.2l-.23.4-.3.53a184.46 184.46 0 0 1-1.48 2.48 4.28 4.28 0 0 1-.16.23 1.5 1.5 0 0 1-.84.5A5.48 5.48 0 0 1 9.75 18H10Zm5.6-10.18a6 6 0 0 1-1.36 6.42.5.5 0 1 1-.7-.7 5 5 0 0 0 1.12-5.36.5.5 0 0 1 .93-.36ZM8 18.24a4.5 4.5 0 1 1-5-7.48 4.5 4.5 0 0 1 5 7.48Zm-2.15-6.1a.5.5 0 0 0-.85.36V14H3.5a.5.5 0 0 0 0 1H5v1.5a.5.5 0 0 0 1 0V15h1.5a.5.5 0 0 0 0-1H6v-1.5a.5.5 0 0 0-.15-.35Z"/></svg>