<svg width="16" height="16" viewBox="0 0 16 16" xmlns="http://www.w3.org/2000/svg"><path d="M5 3v3.69c0 .44-.12.88-.34 1.26L4.05 9H6.6A5.52 5.52 0 0 1 9 6.6V3h.5a.5.5 0 0 0 0-1h-5a.5.5 0 0 0 0 1H5Zm-1.54 7h2.75a5.5 5.5 0 0 0 .39 4H3.74a1.5 1.5 0 0 1-1.3-2.26L3.46 10Zm5.6-1.56a2 2 0 0 1-1.43 2.48l-.46.12a4.71 4.71 0 0 0 .01 1.01l.35.09A2 2 0 0 1 9 14.66l-.13.42c.26.2.54.38.84.52l.32-.35a2 2 0 0 1 2.91 0l.34.36c.3-.13.57-.3.82-.5l-.16-.55a2 2 0 0 1 1.44-2.48l.46-.12a4.7 4.7 0 0 0-.01-1.01l-.35-.09A2 2 0 0 1 14 8.34l.13-.42c-.26-.2-.54-.38-.84-.52l-.32.35a2 2 0 0 1-2.91 0l-.34-.36c-.3.13-.57.3-.82.5l.15.55Zm2.44 4.06a1 1 0 1 1 0-2 1 1 0 0 1 0 2Z"/></svg>