<svg width="16" height="16" viewBox="0 0 16 16" xmlns="http://www.w3.org/2000/svg"><path d="M4.5 3H5v3.69c0 .44-.12.88-.34 1.26l-2.22 3.8A1.5 1.5 0 0 0 3.74 14H6.6c-.16-.32-.3-.65-.4-1H3.75a.5.5 0 0 1-.43-.75L4.62 10h1.59c.1-.35.23-.68.39-1H5.2l.32-.55A3.5 3.5 0 0 0 6 6.7V3h2v3.69c0 .18.01.36.04.53.3-.24.62-.45.96-.62V3h.5a.5.5 0 0 0 0-1h-5a.5.5 0 0 0 0 1Zm4.56 5.44a2 2 0 0 1-1.43 2.48l-.46.12a4.71 4.71 0 0 0 .01 1.01l.35.09A2 2 0 0 1 9 14.66l-.13.42c.26.2.54.38.84.52l.32-.35a2 2 0 0 1 2.91 0l.34.36c.3-.13.57-.3.82-.5l-.16-.55a2 2 0 0 1 1.44-2.48l.46-.12a4.7 4.7 0 0 0-.01-1.01l-.35-.09A2 2 0 0 1 14 8.34l.13-.42c-.26-.2-.54-.38-.84-.52l-.32.35a2 2 0 0 1-2.91 0l-.34-.36c-.3.13-.57.3-.82.5l.15.55Zm2.44 4.06a1 1 0 1 1 0-2 1 1 0 0 1 0 2Z"/></svg>