<svg width="20" height="20" viewBox="0 0 20 20" xmlns="http://www.w3.org/2000/svg"><path d="M7.25 4v4.75c0 .4-.1.81-.3 1.18l-.84 1.57H9.9a5.51 5.51 0 0 1 2.91-2.23 2.5 2.5 0 0 1-.05-.52V4h.75a.5.5 0 0 0 0-1h-7a.5.5 0 0 0 0 1h.75Zm-1.67 8.5h3.8A5.49 5.49 0 0 0 9.6 17H5.67a1.5 1.5 0 0 1-1.32-2.2l1.23-2.3Zm6.49-1.06a2 2 0 0 1-1.44 2.48l-.46.12a4.74 4.74 0 0 0 .01 1.01l.35.09A2 2 0 0 1 12 17.66l-.13.42c.26.2.54.38.84.52l.32-.35a2 2 0 0 1 2.91 0l.34.36c.3-.13.57-.3.82-.5l-.15-.55a2 2 0 0 1 1.43-2.48l.46-.12a4.73 4.73 0 0 0-.01-1.01l-.35-.09A2 2 0 0 1 17 11.34l.13-.42c-.26-.2-.54-.38-.84-.52l-.32.35a2 2 0 0 1-2.91 0l-.34-.36c-.3.13-.57.3-.82.5l.16.55Zm2.43 4.06a1 1 0 1 1 0-2 1 1 0 0 1 0 2Z"/></svg>