<svg width="20" height="20" viewBox="0 0 20 20" xmlns="http://www.w3.org/2000/svg"><path d="M6.5 4h.75v4.75c0 .4-.1.81-.3 1.18l-2.6 4.86A1.5 1.5 0 0 0 5.67 17H9.6c-.16-.32-.3-.65-.4-1H5.68a.5.5 0 0 1-.44-.74L6.7 12.5h2.66c.14-.35.32-.69.52-1H7.25l.59-1.1c.27-.5.41-1.08.41-1.65V4h3.5v4.75c0 .3.04.62.12.92.3-.16.61-.3.93-.4a2.5 2.5 0 0 1-.05-.52V4h.75a.5.5 0 0 0 0-1h-7a.5.5 0 0 0 0 1Zm5.57 7.44a2 2 0 0 1-1.44 2.48l-.46.12a4.74 4.74 0 0 0 .01 1.01l.35.09A2 2 0 0 1 12 17.66l-.13.42c.26.2.54.38.84.52l.32-.35a2 2 0 0 1 2.91 0l.34.36c.3-.13.57-.3.82-.5l-.15-.55a2 2 0 0 1 1.43-2.48l.46-.12a4.73 4.73 0 0 0-.01-1.01l-.35-.09A2 2 0 0 1 17 11.34l.13-.42c-.26-.2-.54-.38-.84-.52l-.32.35a2 2 0 0 1-2.91 0l-.34-.36c-.3.13-.57.3-.82.5l.16.55Zm2.43 4.06a1 1 0 1 1 0-2 1 1 0 0 1 0 2Z"/></svg>