<svg width="24" height="24" viewBox="0 0 24 24" xmlns="http://www.w3.org/2000/svg"><path d="M3.94 5L2.22 3.28a.75.75 0 111.06-1.06l18.5 18.5a.75.75 0 01-1.06 1.06l-2.2-2.19a3.75 3.75 0 01-3.5 2.41H8.98a3.75 3.75 0 01-3.73-3.39L4.07 6.5H2.75a.75.75 0 010-1.5h1.19zm13.34 13.34L15 16.06v1.19a.75.75 0 01-1.5 0v-2.69l-3-3v5.69a.75.75 0 01-1.5 0v-7.19l-3.4-3.4 1.13 11.8a2.25 2.25 0 002.24 2.04h6.06c1.15 0 2.12-.88 2.24-2.03v-.13zm-3.78-8.02l1.5 1.5V9.75a.75.75 0 00-1.5 0v.57zm4.92-3.82l-.77 7.97 1.38 1.38.9-9.35h1.32a.75.75 0 000-1.5H15.5a3.5 3.5 0 10-7 0h-.32l1.5 1.5h8.74zM14 5h-4a2 2 0 114 0z"/></svg>