<svg width="16" height="16" viewBox="0 0 16 16" xmlns="http://www.w3.org/2000/svg"><path d="M6.5 3A3.5 3.5 0 0 0 5 9.66v1.08A4.5 4.5 0 1 1 10.74 5H9.66A3.5 3.5 0 0 0 6.5 3ZM8 6a2 2 0 0 0-2 2v4c0 1.1.9 2 2 2h4a2 2 0 0 0 2-2V8a2 2 0 0 0-2-2H8ZM7 8a1 1 0 0 1 1-1h4a1 1 0 0 1 1 1v4a1 1 0 0 1-.03.26l-1.73-1.73a1.75 1.75 0 0 0-2.48 0l-1.73 1.73A1 1 0 0 1 7 12V8Zm.74 4.97 1.73-1.73c.3-.3.77-.3 1.06 0l1.73 1.73A1 1 0 0 1 12 13H8a1 1 0 0 1-.26-.03Zm4.51-4.47a.75.75 0 1 1-1.5 0 .75.75 0 0 1 1.5 0Z"/></svg>