<svg width="24" height="24" viewBox="0 0 24 24" xmlns="http://www.w3.org/2000/svg"><path d="M13 6.02c3.17 0 4.97 2.1 5.23 4.63h.08a3.69 3.69 0 1 1 0 7.36h-.64l-1.53 2.62a.75.75 0 0 1-1.35-.66l.05-.1 1.1-1.86H13.8l-1.53 2.62a.75.75 0 0 1-1.35-.66l.05-.1 1.1-1.86H9.93L8.4 20.63a.75.75 0 0 1-1.34-.66l.04-.1 1.1-1.86h-.5a3.69 3.69 0 1 1 0-7.36h.07A4.95 4.95 0 0 1 13 6.02Zm0 1.5a3.86 3.86 0 0 0-3.88 3.88c0 .36-.31.64-.68.64h-.69c-1.26 0-2.28 1-2.28 2.24a2.26 2.26 0 0 0 2.28 2.24h10.5c1.26 0 2.29-1 2.29-2.24a2.26 2.26 0 0 0-2.29-2.24h-.69c-.36 0-.68-.28-.68-.64 0-2.28-1.8-3.88-3.88-3.88ZM6.6 2a5.06 5.06 0 0 1 4.47 3.27c-.5.14-.96.34-1.39.58A3.55 3.55 0 0 0 7.48 3.7a5.97 5.97 0 0 1-.62 3.61l-.12.21a5.75 5.75 0 0 1-2.72 2.3 3.61 3.61 0 0 0 1.07.62c-.45.3-.84.68-1.16 1.12l-.16-.08a5.06 5.06 0 0 1-1.64-1.52.75.75 0 0 1 .37-1.13c1.64-.59 2.52-1.25 3.03-2.22.55-1.05.66-2.17.29-3.67A.75.75 0 0 1 6.59 2Z"/></svg>