<svg width="20" height="20" viewBox="0 0 20 20" xmlns="http://www.w3.org/2000/svg"><path d="M3.2 4.52a2.02 2.02 0 0 1 1.06.13C4.53 4.25 5 4 5.5 4h9c.83 0 1.5.67 1.5 1.5v3.7c.35.1.68.24 1 .4V5.5A2.5 2.5 0 0 0 14.5 3h-9a2.5 2.5 0 0 0-2.3 1.52ZM9.6 17c-.16-.32-.3-.65-.4-1H5.5A1.5 1.5 0 0 1 4 14.5V8.44a2 2 0 0 1-1 0v6.06A2.5 2.5 0 0 0 5.5 17h4.1Zm0-5c.18-.36.4-.7.66-1H7.5a.5.5 0 0 0 0 1h2.1ZM3 5.63a1 1 0 0 1 1 0 1 1 0 1 1-1 0ZM7 8.5c0-.28.22-.5.5-.5h5a.5.5 0 0 1 0 1h-5a.5.5 0 0 1-.5-.5ZM14.5 19a4.5 4.5 0 1 0 0-9 4.5 4.5 0 0 0 0 9Zm2-4h-4a.5.5 0 0 1 0-1h4a.5.5 0 0 1 0 1Z"/></svg>