<svg width="16" height="16" viewBox="0 0 16 16" xmlns="http://www.w3.org/2000/svg"><path d="M6 4a2 2 0 1 1 4 0 2 2 0 0 1-4 0Zm2-1a1 1 0 1 0 0 2 1 1 0 0 0 0-2Zm3 1.5a1.5 1.5 0 1 1 3 0 1.5 1.5 0 0 1-3 0Zm1.5-.5a.5.5 0 1 0 0 1 .5.5 0 0 0 0-1Zm-9-1a1.5 1.5 0 1 0 0 3 1.5 1.5 0 0 0 0-3ZM3 4.5a.5.5 0 1 1 1 0 .5.5 0 0 1-1 0ZM4.27 7A2 2 0 0 0 4 8H2v2.5a1.5 1.5 0 0 0 2.1 1.38c.07.33.19.64.34.94A2.5 2.5 0 0 1 1 10.5V8a1 1 0 0 1 1-1h2.27ZM6 7a1 1 0 0 0-1 1v3a3 3 0 0 0 1.39 2.53A5.49 5.49 0 0 1 6 11V8h1.26c.31-.38.67-.72 1.08-1H6Zm10 4.5a4.5 4.5 0 1 1-9 0 4.5 4.5 0 0 1 9 0Zm-2.65-1.15a.5.5 0 0 0-.7-.7l-1.15 1.14-1.15-1.14a.5.5 0 0 0-.7.7l1.14 1.15-1.14 1.15a.5.5 0 0 0 .7.7l1.15-1.14 1.15 1.14a.5.5 0 0 0 .7-.7l-1.14-1.15 1.14-1.15Z"/></svg>