<svg width="20" height="20" viewBox="0 0 20 20" xmlns="http://www.w3.org/2000/svg"><path d="M8.5 4.5a1.5 1.5 0 1 1 3 0 1.5 1.5 0 0 1-3 0ZM10 2a2.5 2.5 0 1 0 0 5 2.5 2.5 0 0 0 0-5Zm4.5 3a1 1 0 1 1 2 0 1 1 0 0 1-2 0Zm1-2a2 2 0 1 0 0 4 2 2 0 0 0 0-4Zm-11 1a1 1 0 1 0 0 2 1 1 0 0 0 0-2Zm-2 1a2 2 0 1 1 4 0 2 2 0 0 1-4 0ZM5 15h.1c.07.34.17.66.3.97A3 3 0 0 1 2 13V9.25C2 8.56 2.56 8 3.25 8h2.13c-.2.3-.33.63-.37 1H3.25a.25.25 0 0 0-.25.25V13c0 1.1.9 2 2 2Zm8.97-6c-.11-.57-.62-1-1.22-1h-5.5C6.56 8 6 8.56 6 9.25V14a4 4 0 0 0 4.25 4 5.51 5.51 0 0 1-.66-1.03A3 3 0 0 1 7 14V9.25c0-.14.11-.25.25-.25h6.72ZM18 10.26V9.25C18 8.56 17.44 8 16.75 8h-2.13c.2.3.33.63.37 1h1.76c.14 0 .25.11.25.25v.35c.36.18.7.4 1 .66ZM14.5 19a4.5 4.5 0 1 0 0-9 4.5 4.5 0 0 0 0 9Zm1.85-5.65-1.14 1.15 1.14 1.15a.5.5 0 0 1-.7.7l-1.15-1.14-1.15 1.14a.5.5 0 0 1-.7-.7l1.14-1.15-1.14-1.15a.5.5 0 0 1 .7-.7l1.15 1.14 1.15-1.14a.5.5 0 0 1 .7.7Z"/></svg>