<svg width="20" height="20" viewBox="0 0 20 20" xmlns="http://www.w3.org/2000/svg"><path d="M10 2a8 8 0 0 1 8 8.25A5.5 5.5 0 0 0 10.26 18a7.93 7.93 0 0 1-3.87-.85l-.12-.07-3.65.92a.5.5 0 0 1-.62-.45v-.08l.01-.08.92-3.64-.07-.12a7.95 7.95 0 0 1-.83-2.9l-.02-.37L2 10a8 8 0 0 1 8-8Zm4.5 17a4.5 4.5 0 1 0 0-9 4.5 4.5 0 0 0 0 9Zm-.9-6.4-.9.9h1.55A2.75 2.75 0 0 1 17 16.25v.25a.5.5 0 0 1-1 0v-.25c0-.97-.78-1.75-1.75-1.75h-1.54l.9.9a.5.5 0 0 1-.71.7l-1.76-1.75a.5.5 0 0 1 0-.7l1.76-1.75a.5.5 0 0 1 .7.7Z"/></svg>