<svg width="20" height="20" viewBox="0 0 20 20" xmlns="http://www.w3.org/2000/svg"><path d="M6.7 2.46a.75.75 0 0 0-1.4 0l-2.5 6a.75.75 0 0 0 1.4.58L4.62 8h2.75l.43 1.04a.75.75 0 0 0 1.38-.58l-2.5-6Zm.05 4.04h-1.5L6 4.7l.75 1.8Zm-1.22 3.72a.75.75 0 1 0-1.06 1.06l1 1c.3.3.77.3 1.06 0l1-1a.75.75 0 1 0-1.06-1.06l-.47.47-.47-.47ZM4.25 13a.75.75 0 0 0 0 1.5h1.97l-2.56 3.29A.75.75 0 0 0 4.25 19h3.5a.75.75 0 0 0 0-1.5H5.78l2.56-3.29A.75.75 0 0 0 7.75 13h-3.5Zm10-11c.41 0 .75.34.75.75v12.57l1.45-1.58a.75.75 0 0 1 1.1 1.02l-2.75 3a.75.75 0 0 1-1.1 0l-2.75-3a.75.75 0 0 1 1.1-1.02l1.45 1.58V2.75c0-.41.34-.75.75-.75Z"/></svg>