<svg width="24" height="24" viewBox="0 0 24 24" xmlns="http://www.w3.org/2000/svg"><path d="M7.92 2.6a1 1 0 00-1.84 0l-3 7a1 1 0 101.84.8l.6-1.4h2.96l.6 1.4a1 1 0 001.84-.8l-3-7zM7.62 7H6.38L7 5.54 7.63 7zm-1.25 4.22a1 1 0 10-1.24 1.56l1.25 1a1 1 0 001.24 0l1.25-1a1 1 0 00-1.24-1.56l-.63.5-.63-.5zM4.5 15a1 1 0 100 2h3.23l-3.97 4.32A1 1 0 004.5 23H10a1 1 0 100-2H6.77l3.97-4.32A1 1 0 0010 15H4.5zm13-13a1 1 0 011 1v15.59l1.8-1.8a1 1 0 011.4 1.42l-3.5 3.5a1 1 0 01-1.4 0l-3.5-3.5a1 1 0 011.4-1.42l1.8 1.8V3a1 1 0 011-1z"/></svg>