<svg width="16" height="16" viewBox="0 0 16 16" xmlns="http://www.w3.org/2000/svg"><path d="M5.46 1.31a.5.5 0 00-.92 0l-2 5a.5.5 0 00.92.38l.28-.7L6.26 6l.28.69a.5.5 0 00.92-.38l-2-5zM5.86 5H4.14L5 2.85 5.86 5zm-1.5 2.65a.5.5 0 10-.71.7l1 1c.2.2.5.2.7 0l1-1a.5.5 0 10-.7-.7L5 8.29l-.65-.64zM3 10a.5.5 0 000 1h2.4l-2.78 3.17A.5.5 0 003 15h3.5a.5.5 0 000-1H4.1l2.78-3.17A.5.5 0 006.5 10H3zm9.5-9c.28 0 .5.22.5.5v11.8l1.15-1.15a.5.5 0 01.7.7l-2 2a.5.5 0 01-.7 0l-2-2a.5.5 0 11.7-.7L12 13.29V1.5c0-.28.22-.5.5-.5z"/></svg>