<svg width="20" height="20" viewBox="0 0 20 20" xmlns="http://www.w3.org/2000/svg"><path d="M5 2a3 3 0 00-3 3v8a3 3 0 003 3h4.2A5.5 5.5 0 0116 9.2V5a3 3 0 00-3-3H5zm7.85 4.85l-5 5a.5.5 0 01-.7 0l-2-2a.5.5 0 11.7-.7l1.65 1.64 4.65-4.64a.5.5 0 01.7.7zM10 14.5a4.5 4.5 0 109 0 4.5 4.5 0 00-9 0zm6.5-3c.28 0 .5.22.5.5v1.5a.5.5 0 01-.5.5H15a.5.5 0 010-1h.47a1.97 1.97 0 00-.94-.25 2 2 0 00-1.44.59.5.5 0 01-.71-.71 3 3 0 013.62-.48V12c0-.28.22-.5.5-.5zm-.88 5.53a3 3 0 01-2.62-.18V17a.5.5 0 01-1 0v-1.5c0-.28.22-.5.5-.5H14a.5.5 0 010 1h-.47a1.97 1.97 0 00.94.25 2 2 0 001.44-.59.5.5 0 01.71.71 3 3 0 01-1 .66z"/></svg>