<svg width="20" height="20" viewBox="0 0 20 20" xmlns="http://www.w3.org/2000/svg"><path d="M5 2a3 3 0 0 0-3 3v8a3 3 0 0 0 3 3h4.2c-.08-.32-.15-.66-.18-1H5a2 2 0 0 1-2-2V5c0-1.1.9-2 2-2h8a2 2 0 0 1 2 2v4.02c.34.03.68.1 1 .19V5a3 3 0 0 0-3-3H5Zm7.85 4.85a.5.5 0 0 0-.7-.7L7.5 10.79 5.85 9.15a.5.5 0 1 0-.7.7l2 2c.2.2.5.2.7 0l5-5ZM10 14.5a4.5 4.5 0 1 0 9 0 4.5 4.5 0 0 0-9 0Zm6.5-3c.28 0 .5.22.5.5v1.5a.5.5 0 0 1-.5.5H15a.5.5 0 0 1 0-1h.47a1.97 1.97 0 0 0-.94-.25 2 2 0 0 0-1.44.59.5.5 0 0 1-.71-.71 3 3 0 0 1 3.62-.48V12c0-.28.22-.5.5-.5Zm-.88 5.53a3 3 0 0 1-2.62-.18V17a.5.5 0 0 1-1 0v-1.5c0-.28.22-.5.5-.5H14a.5.5 0 0 1 0 1h-.47a1.97 1.97 0 0 0 .94.25 2 2 0 0 0 1.44-.59.5.5 0 0 1 .71.71 3 3 0 0 1-1 .66Z"/></svg>