<svg width="16" height="16" viewBox="0 0 16 16" xmlns="http://www.w3.org/2000/svg"><path d="M2.5 0A2.5 2.5 0 000 2.5v7A2.5 2.5 0 002.5 12h3.52a5.57 5.57 0 010-1H2.5A1.5 1.5 0 011 9.5v-7C1 1.67 1.67 1 2.5 1h7c.83 0 1.5.67 1.5 1.5v3.52a5.57 5.57 0 011 0V2.5A2.5 2.5 0 009.5 0h-7zm6.35 4.85a.5.5 0 10-.7-.7L5 7.29 3.85 6.15a.5.5 0 10-.7.7l1.5 1.5c.2.2.5.2.7 0l3.5-3.5zM7 11.5a4.5 4.5 0 109 0 4.5 4.5 0 00-9 0zm6.5-3c.28 0 .5.22.5.5v1.5a.5.5 0 01-.5.5H12a.5.5 0 010-1h.47a1.98 1.98 0 00-1.72-.1 2 2 0 00-.66.44.5.5 0 01-.71-.71A3 3 0 0113 9.15V9c0-.28.22-.5.5-.5zm-.88 5.53a3 3 0 01-2.62-.18V14a.5.5 0 01-1 0v-1.5c0-.28.22-.5.5-.5H11a.5.5 0 010 1h-.47a1.97 1.97 0 00.94.25 2 2 0 001.44-.59.5.5 0 01.71.71 3 3 0 01-1 .66z"/></svg>