<svg width="24" height="24" viewBox="0 0 24 24" xmlns="http://www.w3.org/2000/svg"><path d="M9.51 11.72c0-1.13.1-2.4.4-3.58a6.3 6.3 0 011.5-2.98 5.93 5.93 0 013.26-1.5c1.27-.21 2.6-.18 3.69-.08 1.1.11 1.95.96 2.06 2.07.1 1.09.14 2.42-.08 3.69a5.93 5.93 0 01-1.5 3.25 6.3 6.3 0 01-2.97 1.52c-1.19.3-2.46.38-3.6.38-1 0-1.81.82-1.82 1.82 0 1.7-.22 3.66-.93 5.17a.25.25 0 01-.08-.14c-.2-.82-.46-1.8-.77-2.66-.15-.44-.32-.86-.5-1.22s-.4-.71-.66-.97a3.76 3.76 0 00-.97-.65c-.36-.19-.78-.36-1.22-.5a28.5 28.5 0 00-2.66-.78.25.25 0 01-.14-.08c1.51-.71 3.48-.92 5.18-.93 1 0 1.82-.82 1.81-1.83zm.85-7.62c-1 1-1.58 2.34-1.91 3.68A16.66 16.66 0 008 11.73c0 .17-.14.32-.32.32-1.77 0-4.01.22-5.83 1.09-.68.32-.97 1-.82 1.63.13.6.61 1.09 1.26 1.25.8.19 1.72.44 2.52.72.4.15.76.3 1.05.44.3.15.49.28.58.37.1.1.22.28.37.58.15.29.3.65.44 1.05.28.8.53 1.72.72 2.52.16.65.65 1.13 1.25 1.26.64.14 1.3-.14 1.63-.82.87-1.82 1.08-4.06 1.1-5.82 0-.18.14-.33.32-.33 1.2 0 2.6-.1 3.95-.43a7.77 7.77 0 003.67-1.91 7.4 7.4 0 001.92-4.06c.25-1.45.2-2.92.1-4.09a3.77 3.77 0 00-3.41-3.4 15.68 15.68 0 00-4.1.09 7.4 7.4 0 00-4.05 1.91zM16 5a1 1 0 110 2 1 1 0 010-2z"/></svg>