<svg width="16" height="16" viewBox="0 0 16 16" xmlns="http://www.w3.org/2000/svg"><path d="M5 1a2 2 0 0 0-2 2v6.16a1.7 1.7 0 0 1 .72.59c.09-.1.18-.18.28-.25V3a1 1 0 0 1 1-1h3v2.5C8 5.33 8.67 6 9.5 6H12v7.5c0 .53-.16 1.02-.44 1.42A2 2 0 0 0 13 13V5.41c0-.4-.16-.78-.44-1.06L9.65 1.44A1.5 1.5 0 0 0 8.59 1H5Zm6.8 4H9.5a.5.5 0 0 1-.5-.5V2.2L11.8 5ZM3 10.65c0-.2-.1-.35-.2-.45a.73.73 0 0 0-.3-.16c-.16-.05-.5-.07-.73.22-.2.26-.51.57-.98.78a.5.5 0 0 0 .42.92c.3-.15.57-.32.79-.5v3.04a.5.5 0 0 0 1 0v-3.85Zm1 .85a1.5 1.5 0 0 1 3 0v2a1.5 1.5 0 0 1-3 0v-2Zm1.5-.5a.5.5 0 0 0-.5.5v2a.5.5 0 0 0 1 0v-2a.5.5 0 0 0-.5-.5Zm4-1c-.83 0-1.5.67-1.5 1.5v2a1.5 1.5 0 0 0 3 0v-2c0-.83-.67-1.5-1.5-1.5ZM9 11.5a.5.5 0 0 1 1 0v2a.5.5 0 0 1-1 0v-2Z"/></svg>