<svg width="20" height="20" viewBox="0 0 20 20" xmlns="http://www.w3.org/2000/svg"><path d="M10 6.5V2H5.5C4.67 2 4 2.67 4 3.5v8.26a2.99 2.99 0 0 1 4.5.58A3 3 0 0 1 14 14v2c0 .77-.29 1.47-.76 2h1.26c.83 0 1.5-.67 1.5-1.5V8h-4.5A1.5 1.5 0 0 1 10 6.5Zm1 0V2.25L15.75 7H11.5a.5.5 0 0 1-.5-.5Zm-8 6.1c0-.2-.1-.35-.2-.44a.64.64 0 0 0-.3-.14c-.13-.03-.5-.03-.67.32-.2.41-.54.93-1.07 1.22a.5.5 0 1 0 .48.88c.3-.17.55-.37.76-.6v3.66a.5.5 0 0 0 1 0v-4.9ZM4 14a2 2 0 1 1 4 0v2a2 2 0 1 1-4 0v-2Zm2-1a1 1 0 0 0-1 1v2a1 1 0 1 0 2 0v-2a1 1 0 0 0-1-1Zm5-1a2 2 0 0 0-2 2v2a2 2 0 1 0 4 0v-2a2 2 0 0 0-2-2Zm-1 2a1 1 0 1 1 2 0v2a1 1 0 1 1-2 0v-2Z"/></svg>