<svg width="20" height="20" viewBox="0 0 20 20" xmlns="http://www.w3.org/2000/svg"><path d="M4 4c0-1.1.9-2 2-2h4.59c.4 0 .78.16 1.06.44l3.91 3.91c.28.28.44.67.44 1.06V16a2 2 0 0 1-2 2h-.76a3 3 0 0 0 .59-1H14a1 1 0 0 0 1-1V8h-3.5A1.5 1.5 0 0 1 10 6.5V3H6a1 1 0 0 0-1 1v7.17a3 3 0 0 0-1 .6V4Zm7.5 3h3.3L11 3.2v3.3c0 .28.22.5.5.5ZM6 12a2 2 0 0 0-2 2v2a2 2 0 1 0 4 0v-2a2 2 0 0 0-2-2Zm-1 2a1 1 0 1 1 2 0v2a1 1 0 1 1-2 0v-2Zm-2-1.4c0-.2-.1-.35-.2-.44a.64.64 0 0 0-.3-.14c-.13-.03-.5-.03-.67.32-.2.41-.54.93-1.07 1.22a.5.5 0 1 0 .48.88c.3-.17.55-.37.76-.6v3.66a.5.5 0 0 0 1 0v-4.9ZM9 14a2 2 0 1 1 4 0v2a2 2 0 1 1-4 0v-2Zm2-1a1 1 0 0 0-1 1v2a1 1 0 1 0 2 0v-2a1 1 0 0 0-1-1Z"/></svg>