<svg width="24" height="24" viewBox="0 0 24 24" xmlns="http://www.w3.org/2000/svg"><path d="M12 8V2H6a2 2 0 0 0-2 2v10.23a2 2 0 0 1 .86.97 3.5 3.5 0 0 1 5.64.5 3.5 3.5 0 0 1 6.5 1.8v2c0 .98-.4 1.86-1.05 2.5H18a2 2 0 0 0 2-2V10h-6a2 2 0 0 1-2-2Zm1.5 0V2.5l6 6H14a.5.5 0 0 1-.5-.5Zm-6 7A2.5 2.5 0 0 0 5 17.5v2a2.5 2.5 0 0 0 5 0v-2A2.5 2.5 0 0 0 7.5 15Zm-1 2.5a1 1 0 1 1 2 0v2a1 1 0 1 1-2 0v-2Zm4.5 0a2.5 2.5 0 0 1 5 0v2a2.5 2.5 0 0 1-5 0v-2Zm2.5-1a1 1 0 0 0-1 1v2a1 1 0 1 0 2 0v-2a1 1 0 0 0-1-1ZM4 15.94a1 1 0 0 0-.74-.95c-.31-.09-.8-.06-1.11.37-.32.44-.76.94-1.28 1.24a.75.75 0 0 0 .76 1.3c.32-.2.61-.43.87-.67v4.02a.75.75 0 0 0 1.5 0v-5.31Z"/></svg>