<svg width="24" height="24" viewBox="0 0 24 24" xmlns="http://www.w3.org/2000/svg"><path d="M4 4c0-1.1.9-2 2-2h6.17a2 2 0 0 1 1.42.59L19.4 8.4A2 2 0 0 1 20 9.83V20a2 2 0 0 1-2 2h-2.05c.42-.41.73-.92.9-1.5H18a.5.5 0 0 0 .5-.5V10H14a2 2 0 0 1-2-2V3.5H6a.5.5 0 0 0-.5.5v10.63c-.24.16-.45.35-.64.57a2 2 0 0 0-.86-.97V4Zm9.5.62V8c0 .28.22.5.5.5h3.38L13.5 4.62ZM4 15.94a1 1 0 0 0-.74-.95c-.31-.09-.8-.06-1.11.37-.32.44-.76.94-1.28 1.24a.75.75 0 0 0 .76 1.3c.32-.2.61-.43.87-.67v4.02a.75.75 0 0 0 1.5 0v-5.31Zm1 1.56a2.5 2.5 0 0 1 5 0v2a2.5 2.5 0 1 1-5 0v-2Zm2.5-1a1 1 0 0 0-1 1v2a1 1 0 1 0 2 0v-2a1 1 0 0 0-1-1Zm6-1.5a2.5 2.5 0 0 0-2.5 2.5v2a2.5 2.5 0 0 0 5 0v-2a2.5 2.5 0 0 0-2.5-2.5Zm-1 2.5a1 1 0 1 1 2 0v2a1 1 0 1 1-2 0v-2Z"/></svg>