<svg width="20" height="20" viewBox="0 0 20 20" xmlns="http://www.w3.org/2000/svg"><path d="M2 4.5A2.5 2.5 0 0 1 4.5 2h6A2.5 2.5 0 0 1 13 4.5V7h2.5A2.5 2.5 0 0 1 18 9.5v6a2.5 2.5 0 0 1-2.5 2.5h-6A2.5 2.5 0 0 1 7 15.5V13H4.5A2.5 2.5 0 0 1 2 10.5v-6Zm10 0c0-.83-.67-1.5-1.5-1.5h-6C3.67 3 3 3.67 3 4.5v6c0 .83.67 1.5 1.5 1.5H7V9.5A2.5 2.5 0 0 1 9.5 7H12V4.5Zm-4 6.2V12h.3L12 8.3V8h-1.3L8 10.7Zm.02-1.42 1.26-1.26a1.5 1.5 0 0 0-1.26 1.26ZM13 8v2.5a2.5 2.5 0 0 1-2.5 2.5H8v2.5c0 .83.67 1.5 1.5 1.5h6c.83 0 1.5-.67 1.5-1.5v-6c0-.83-.67-1.5-1.5-1.5H13Zm-3.3 4h.8c.83 0 1.5-.67 1.5-1.5v-.8L9.7 12Z"/></svg>