<svg width="28" height="28" viewBox="0 0 28 28" xmlns="http://www.w3.org/2000/svg"><path d="M14 15a3.5 3.5 0 1 0 0-7 3.5 3.5 0 0 0 0 7Zm0-1.5a2 2 0 1 1 0-4 2 2 0 0 1 0 4ZM2 7a3 3 0 0 1 3-3h18a3 3 0 0 1 3 3v8.4c-.44-.48-.95-.9-1.5-1.25V7c0-.83-.67-1.5-1.5-1.5H5c-.82 0-1.5.67-1.5 1.5v14c0 .83.68 1.5 1.5 1.5h3.25v-4c0-1.1.9-2 2-2h3.9c-.3.47-.54.97-.72 1.5h-3.18a.5.5 0 0 0-.5.5v4h3.52c.14.53.35 1.03.6 1.5H5a3 3 0 0 1-3-3V7Zm25 13.5a6.5 6.5 0 1 1-13 0 6.5 6.5 0 0 1 13 0Zm-6.5-4a.5.5 0 0 0-.5.5v3.5c0 .28.22.5.5.5h3a.5.5 0 0 0 0-1H21v-3a.5.5 0 0 0-.5-.5Z"/></svg>