<svg width="20" height="20" viewBox="0 0 20 20" xmlns="http://www.w3.org/2000/svg"><path d="M10 10a2.5 2.5 0 1 0 0-5 2.5 2.5 0 0 0 0 5Zm0-1a1.5 1.5 0 1 1 0-3 1.5 1.5 0 0 1 0 3ZM2 4.5C2 3.67 2.67 3 3.5 3h13c.83 0 1.5.67 1.5 1.5v5.76a5.5 5.5 0 0 0-1-.66V4.5a.5.5 0 0 0-.5-.5h-13a.5.5 0 0 0-.5.5v9c0 .28.22.5.5.5H6v-1.5c0-.83.67-1.5 1.5-1.5h2.76c-.26.3-.48.64-.66 1H7.5a.5.5 0 0 0-.5.5V14h2.02a5.57 5.57 0 0 0 0 1H3.5A1.5 1.5 0 0 1 2 13.5v-9Zm17 10a4.5 4.5 0 1 1-9 0 4.5 4.5 0 0 1 9 0ZM14.5 12a.5.5 0 0 0-.5.5v2c0 .28.22.5.5.5H16a.5.5 0 0 0 0-1h-1v-1.5a.5.5 0 0 0-.5-.5Z"/></svg>