<svg width="32" height="32" viewBox="0 0 32 32" xmlns="http://www.w3.org/2000/svg"><path d="M5.25 3A3.25 3.25 0 0 0 2 6.25v17.5C2 25.55 3.46 27 5.25 27h9.96a8.97 8.97 0 0 1 .5-8H10.5A2.5 2.5 0 0 0 8 21.5V25H5.25C4.56 25 4 24.44 4 23.75V6.25C4 5.56 4.56 5 5.25 5h21.5c.69 0 1.25.56 1.25 1.25v9.45c.74.43 1.41.96 2 1.57V6.25C30 4.45 28.54 3 26.75 3H5.25Zm14.49 12.32a5 5 0 1 0-7.47-6.64 5 5 0 0 0 7.47 6.64ZM16 23.5a7.5 7.5 0 1 0 15 0 7.5 7.5 0 0 0-15 0Zm8-4.25V23h2.75a.75.75 0 0 1 0 1.5h-3.5a.75.75 0 0 1-.75-.75v-4.5a.75.75 0 0 1 1.5 0Z"/></svg>