<svg width="16" height="16" viewBox="0 0 16 16" xmlns="http://www.w3.org/2000/svg"><path d="M7 7a2 2 0 1 0 0-4 2 2 0 0 0 0 4Zm0-1a1 1 0 1 1 0-2 1 1 0 0 1 0 2ZM0 2.75C0 1.78.78 1 1.75 1h10.5c.97 0 1.75.78 1.75 1.75V6.6c-.32-.16-.65-.3-1-.4V2.76a.75.75 0 0 0-.75-.75H1.75a.75.75 0 0 0-.75.75v6.5c0 .41.34.75.75.75H4V9a1 1 0 0 1 1-1h2.26c-.26.3-.48.64-.66 1H5v1h1.2c-.08.32-.15.66-.18 1H1.75C.78 11 0 10.22 0 9.25v-6.5Zm16 8.75a4.5 4.5 0 1 1-9 0 4.5 4.5 0 0 1 9 0ZM11.5 9a.5.5 0 0 0-.5.5v2c0 .28.22.5.5.5H13a.5.5 0 0 0 0-1h-1V9.5a.5.5 0 0 0-.5-.5Z"/></svg>