<svg width="16" height="16" viewBox="0 0 16 16" xmlns="http://www.w3.org/2000/svg"><path d="M2 4c0-1.1.9-2 2-2h8a2 2 0 0 1 2 2v2h-2.07l-.59-1.17a1.5 1.5 0 0 0-2.68 0l-.5 1.01-.77-1.9a1.5 1.5 0 0 0-2.73-.11L3.57 6H2V4Zm9 5h3v1a2 2 0 0 1-2 2h-2v1h1.5a.5.5 0 1 1 0 1h-7a.5.5 0 0 1 0-1H6v-1H4a2 2 0 0 1-2-2V9h2.5a1.5 1.5 0 0 0 1.34-.83v-.01l.77 1.9a1.5 1.5 0 0 0 2.73.11l.74-1.48c.26.2.58.31.92.31Zm-2 4v-1H7v1h2ZM6.46 4.32a.5.5 0 0 0-.9-.03L4.18 7H2.5a.5.5 0 0 0 0 1H4.5a.5.5 0 0 0 .45-.28l1-2 1.59 3.97a.5.5 0 0 0 .9.03L10 6.62l.55 1.1A.5.5 0 0 0 11 8h2.5a.5.5 0 0 0 0-1h-2.2l-.85-1.72a.5.5 0 0 0-.9 0l-1.5 3-1.59-3.97Z"/></svg>