<svg width="24" height="24" viewBox="0 0 24 24" xmlns="http://www.w3.org/2000/svg"><path d="M6.5 3.5a1 1 0 0 0-1 1v1a1 1 0 0 0 1 1h11a1 1 0 0 0 1-1v-1a1 1 0 0 0-1-1h-11ZM4 4.5A2.5 2.5 0 0 1 6.5 2h11A2.5 2.5 0 0 1 20 4.5v1A2.5 2.5 0 0 1 17.5 8h-11A2.5 2.5 0 0 1 4 5.5v-1Zm2.5 6a1 1 0 0 0-1 1v1a1 1 0 0 0 1 1h11a1 1 0 0 0 1-1v-1a1 1 0 0 0-1-1h-11Zm-2.5 1A2.5 2.5 0 0 1 6.5 9h11a2.5 2.5 0 0 1 2.5 2.5v1a2.5 2.5 0 0 1-2.5 2.5h-11A2.5 2.5 0 0 1 4 12.5v-1Zm1.5 7a1 1 0 0 1 1-1h11a1 1 0 0 1 1 1v1a1 1 0 0 1-1 1h-11a1 1 0 0 1-1-1v-1Zm1-2.5A2.5 2.5 0 0 0 4 18.5v1A2.5 2.5 0 0 0 6.5 22h11a2.5 2.5 0 0 0 2.5-2.5v-1a2.5 2.5 0 0 0-2.5-2.5h-11Z"/></svg>