<svg width="16" height="16" viewBox="0 0 16 16" xmlns="http://www.w3.org/2000/svg"><path d="M5.46 1.31a.5.5 0 0 0-.92 0l-2 5a.5.5 0 0 0 .92.38l.28-.7L6.26 6l.28.69a.5.5 0 0 0 .92-.38l-2-5ZM5.86 5H4.14L5 2.85 5.86 5ZM12 1.5a.5.5 0 0 0-1 0v11.8l-1.15-1.15a.5.5 0 0 0-.7.7l2 2c.2.2.5.2.7 0l2-2a.5.5 0 0 0-.7-.7L12 13.29V1.5ZM5.67 9.84a1.5 1.5 0 1 0-1.34 0l-1.8 4.47a.5.5 0 1 0 .93.38l.28-.7 2.52.01.28.69a.5.5 0 1 0 .92-.38L5.67 9.84Zm-.67 1L5.86 13H4.14L5 10.85ZM4.5 8.5a.5.5 0 1 1 1 0 .5.5 0 0 1-1 0Z"/></svg>