<svg width="20" height="20" viewBox="0 0 20 20" xmlns="http://www.w3.org/2000/svg"><path d="M6.46 2.3a.5.5 0 0 0-.92 0l-2.5 6a.5.5 0 0 0 .92.4l.5-1.2a.5.5 0 0 0 .04 0h3a.5.5 0 0 0 .04 0l.5 1.2a.5.5 0 0 0 .92-.4l-2.5-6Zm.67 4.2H4.88L6 3.8l1.13 2.7Zm6.87-4a.5.5 0 0 0-1 0v13.8l-2.15-2.15a.5.5 0 0 0-.7.7l3 3c.2.2.5.2.7 0l3-3a.5.5 0 0 0-.7-.7L14 16.29V2.5Zm-7.32 9.34a1.5 1.5 0 1 0-1.36 0L3.04 17.3a.5.5 0 1 0 .92.38l.5-1.2a.5.5 0 0 0 .04.01h3a.5.5 0 0 0 .04 0l.5 1.2a.5.5 0 0 0 .92-.4l-2.28-5.46ZM6 12.8l1.13 2.7H4.88L6 12.8Zm-.5-2.3a.5.5 0 1 1 1 0 .5.5 0 0 1-1 0Z"/></svg>