<svg width="24" height="24" viewBox="0 0 24 24" xmlns="http://www.w3.org/2000/svg"><path d="M7.92 2.6a1 1 0 0 0-1.84 0l-3 7a1 1 0 1 0 1.84.8l.6-1.4h2.96l.6 1.4a1 1 0 0 0 1.84-.8l-3-7ZM7.62 7H6.38L7 5.54 7.63 7Zm1.1 8.3A2.5 2.5 0 0 0 7 11a2.5 2.5 0 0 0-1.73 4.3l-2.2 5.32a1 1 0 1 0 1.85.76L5.5 20h3l.58 1.38a1 1 0 1 0 1.84-.76l-2.2-5.31ZM7.69 18H6.32L7 16.37 7.68 18ZM6.5 13.5a.5.5 0 1 1 1 0 .5.5 0 0 1-1 0ZM17.5 2a1 1 0 0 1 1 1v15.59l1.8-1.8a1 1 0 0 1 1.4 1.42l-3.5 3.5a1 1 0 0 1-1.4 0l-3.5-3.5a1 1 0 0 1 1.4-1.42l1.8 1.8V3a1 1 0 0 1 1-1Z"/></svg>