<svg width="24" height="24" viewBox="0 0 24 24" xmlns="http://www.w3.org/2000/svg"><path d="m7.69 2.45 3.25 7.5a.75.75 0 1 1-1.38.6L8.9 9H5.11l-.67 1.55a.75.75 0 1 1-1.38-.6l3.25-7.5a.75.75 0 0 1 1.38 0Zm.55 5.05L7 4.64 5.76 7.5h2.48Zm.13 7.53 2.57 5.92a.75.75 0 1 1-1.38.6L8.9 20H5.11l-.67 1.55a.75.75 0 1 1-1.38-.6l2.57-5.92a2.25 2.25 0 1 1 2.74 0Zm-.13 3.47L7 15.64 5.76 18.5h2.48Zm-1.99-5.25a.75.75 0 1 0 1.5 0 .75.75 0 0 0-1.5 0ZM17.25 2c.41 0 .75.34.75.75v16.69l2.22-2.22a.75.75 0 1 1 1.06 1.06l-3.5 3.5c-.3.3-.77.3-1.06 0l-3.5-3.5a.75.75 0 1 1 1.06-1.06l2.22 2.22V2.75c0-.41.34-.75.75-.75Z"/></svg>