<svg width="16" height="16" viewBox="0 0 16 16" xmlns="http://www.w3.org/2000/svg"><path d="M5.7.97a.75.75 0 0 0-1.4 0l-2 5a.75.75 0 0 0 1.4.56L3.9 6h2.2l.2.53a.75.75 0 0 0 1.4-.56l-2-5ZM5.5 4.5h-1L5 3.27l.5 1.23ZM13 1.75a.75.75 0 0 0-1.5 0v10.69l-.72-.72a.75.75 0 1 0-1.06 1.06l2 2c.3.3.77.3 1.06 0l2-2a.75.75 0 1 0-1.06-1.06l-.72.72V1.75Zm-6.69 8.76A2 2 0 0 0 5 7a2 2 0 0 0-1.31 3.51L2.3 13.97a.75.75 0 0 0 1.4.56l.2-.53h2.2l.2.53a.75.75 0 0 0 1.4-.56L6.3 10.51ZM5 11.27l.5 1.23h-1l.5-1.23ZM4.5 9a.5.5 0 1 1 1 0 .5.5 0 0 1-1 0Z"/></svg>