<svg width="20" height="20" viewBox="0 0 20 20" xmlns="http://www.w3.org/2000/svg"><path d="M6.7 1.96a.75.75 0 0 0-1.4 0l-2.5 6a.75.75 0 0 0 1.4.58l.43-1.04h2.75l.43 1.04a.75.75 0 0 0 1.38-.58l-2.5-6ZM6.74 6h-1.5L6 4.2 6.75 6Zm.58 6.5 1.86 4.46a.75.75 0 0 1-1.38.58l-.43-1.04H4.63l-.44 1.04a.75.75 0 0 1-1.38-.58l1.86-4.47A2 2 0 0 1 6 9a2 2 0 0 1 1.33 3.5ZM6.75 15 6 13.2 5.25 15h1.5ZM5.5 11a.5.5 0 1 0 1 0 .5.5 0 0 0-1 0Zm8.75-9c.41 0 .75.34.75.75v12.57l1.45-1.58a.75.75 0 0 1 1.1 1.02l-2.75 3a.75.75 0 0 1-1.1 0l-2.75-3a.75.75 0 0 1 1.1-1.02l1.45 1.58V2.75c0-.41.34-.75.75-.75Z"/></svg>