<svg width="20" height="20" viewBox="0 0 20 20" xmlns="http://www.w3.org/2000/svg"><path d="M4 5c0-1 .88-1.76 1.9-2.22C6.98 2.28 8.43 2 10 2c1.57 0 3.02.29 4.1.78C15.12 3.24 16 3.99 16 5v4.04a3.02 3.02 0 00-1 0V6.7c-.27.2-.58.38-.9.52-1.08.5-2.53.78-4.1.78-1.57 0-3.02-.29-4.1-.78A4.92 4.92 0 015 6.7V15c0 .37.36.88 1.32 1.31.91.42 2.22.69 3.68.69.35 0 .7-.02 1.03-.05.05.34.15.67.3.98-.43.05-.87.07-1.33.07-1.57 0-3.02-.29-4.1-.78C4.88 16.76 4 16.01 4 15V5zm1 0c0 .37.36.88 1.32 1.31.91.42 2.22.69 3.68.69s2.77-.27 3.68-.69C14.64 5.88 15 5.37 15 5c0-.37-.36-.88-1.32-1.31A9.19 9.19 0 0010 3c-1.46 0-2.77.27-3.68.69C5.36 4.12 5 4.63 5 5zm12.5 7a2 2 0 11-4 0 2 2 0 014 0zm1.5 4.5c0 1.25-1 2.5-3.5 2.5S12 17.75 12 16.5c0-.83.67-1.5 1.5-1.5h4c.83 0 1.5.67 1.5 1.5z"/></svg>