<svg width="20" height="20" viewBox="0 0 20 20" xmlns="http://www.w3.org/2000/svg"><path d="M16 5c0 1.66-2.69 3-6 3S4 6.66 4 5s2.69-3 6-3 6 1.34 6 3zm-1.31 3.02c.28-.14.55-.3.81-.49 0 .81-.7 1.44-1.41 1.82a3 3 0 00-.82 4.66A2.5 2.5 0 0011 16.5c0 .49.1.97.33 1.43-.43.04-.87.07-1.33.07-3.31 0-6-1.34-6-3V7.12c.38.36.84.66 1.31.9C6.56 8.64 8.22 9 10 9c1.78 0 3.44-.36 4.69-.98zM17.5 12a2 2 0 11-4 0 2 2 0 014 0zm1.5 4.5c0 1.25-1 2.5-3.5 2.5S12 17.75 12 16.5c0-.83.67-1.5 1.5-1.5h4c.83 0 1.5.67 1.5 1.5z"/></svg>