<svg width="24" height="24" viewBox="0 0 24 24" xmlns="http://www.w3.org/2000/svg"><path d="M20 6c0 2.2-3.58 4-8 4S4 8.2 4 6s3.58-4 8-4 8 1.8 8 4zm-2.23 4.43A15 15 0 0112 11.5c-2.4 0-4.63-.48-6.33-1.33A7.61 7.61 0 014 9.05V18c0 2.2 3.58 4 8 4 .55 0 1.09-.03 1.61-.08a3.69 3.69 0 01-.61-2.05v-.1A2.77 2.77 0 0115.77 17h.28a3.49 3.49 0 01.88-5.63c.4-.2.73-.52.84-.94zM21 14.5a2.5 2.5 0 11-5 0 2.5 2.5 0 015 0zm2 5.38c0 1.55-1.29 3.12-4.5 3.12S14 21.44 14 19.87v-.1c0-.98.8-1.77 1.77-1.77h5.46c.98 0 1.77.8 1.77 1.77v.1z"/></svg>