<svg width="16" height="16" viewBox="0 0 16 16" xmlns="http://www.w3.org/2000/svg"><path d="M8 4.5V1H4.5C3.67 1 3 1.67 3 2.5v6.88a1.5 1.5 0 0 1 1.75-.18 1.5 1.5 0 0 1 2.1.63l.65 1.32.66-1.32a1.5 1.5 0 0 1 2.34-.45 1.5 1.5 0 0 1 2.5 1.09V6H9.5A1.5 1.5 0 0 1 8 4.5Zm1 0V1.25L12.75 5H9.5a.5.5 0 0 1-.5-.5ZM2.5 15a.5.5 0 0 0 .5-.5v-1.36l1.43-2.38a.5.5 0 1 0-.86-.52L2.5 12.03l-1.07-1.79a.5.5 0 0 0-.86.52L2 13.14v1.36c0 .28.22.5.5.5Zm3.45-4.72a.5.5 0 0 0-.95.22v4a.5.5 0 1 0 1 0v-1.88l1.05 2.1a.5.5 0 0 0 .9 0L9 12.62v1.88a.5.5 0 1 0 1 0v-4a.5.5 0 0 0-.95-.22l-1.55 3.1-1.55-3.1Zm6.05.22a.5.5 0 0 0-1 0v4c0 .28.22.5.5.5h2a.5.5 0 1 0 0-1H12v-3.5Z"/></svg>