<svg width="16" height="16" viewBox="0 0 16 16" xmlns="http://www.w3.org/2000/svg"><path d="M3 3c0-1.1.9-2 2-2h3.59c.4 0 .78.16 1.06.44l2.91 2.91c.28.28.44.67.44 1.06v5.08c0-.65-.42-1.2-1-1.4V6H9.5A1.5 1.5 0 0 1 8 4.5V2H5a1 1 0 0 0-1 1v6c-.36 0-.72.13-1 .38V3Zm6.5 2h2.3L9 2.2v2.3c0 .28.22.5.5.5Zm-7 10a.5.5 0 0 0 .5-.5v-1.36l1.43-2.38a.5.5 0 1 0-.86-.52L2.5 12.03l-1.07-1.79a.5.5 0 0 0-.86.52L2 13.14v1.36c0 .28.22.5.5.5Zm3.45-4.72a.5.5 0 0 0-.95.22v4a.5.5 0 1 0 1 0v-1.88l1.05 2.1a.5.5 0 0 0 .9 0L9 12.62v1.88a.5.5 0 1 0 1 0v-4a.5.5 0 0 0-.95-.22l-1.55 3.1-1.55-3.1Zm6.05.22a.5.5 0 0 0-1 0v4c0 .28.22.5.5.5h2a.5.5 0 1 0 0-1H12v-3.5Z"/></svg>