<svg width="24" height="24" viewBox="0 0 24 24" xmlns="http://www.w3.org/2000/svg"><path d="M12.41 2.5h.13l.11.02.07.03 6 3a.5.5 0 0 1 0 .9L13.62 9l5.1 2.55a.5.5 0 0 1 0 .9l-5.76 2.84.04 5.7a.5.5 0 0 1-.75.44l-6-3.5A.5.5 0 0 1 6 17.5V5.96l.02-.1.02-.06.01-.03a.5.5 0 0 1 .06-.09l.07-.06.07-.05 6.08-3.04.08-.02ZM7 12.82v4.4l5 2.92-.04-4.82L7 12.81Zm.62-.8L12 14.2V9.83L7.61 12Zm5.37-2.2v4.34L17.39 12l-4.39-2.2ZM7 11.19l4.37-2.17L7 6.82v4.37Zm5-7.38-4.38 2.2 4.37 2.2v-4.4Zm1 4.38L17.37 6 13 3.8v4.4Z"/></svg>