<svg width="24" height="24" viewBox="0 0 24 24" xmlns="http://www.w3.org/2000/svg"><path d="M2.5 12c0-.41.34-.75.75-.75h1.5a.75.75 0 0 1 0 1.5h-1.5A.75.75 0 0 1 2.5 12Zm4 0c0-.41.34-.75.75-.75h1.5a.75.75 0 0 1 0 1.5h-1.5A.75.75 0 0 1 6.5 12Zm4 0c0-.41.34-.75.75-.75h1.5a.75.75 0 0 1 0 1.5h-1.5a.75.75 0 0 1-.75-.75Zm4 0c0-.41.34-.75.75-.75h1.5a.75.75 0 0 1 0 1.5h-1.5a.75.75 0 0 1-.75-.75Zm4 0c0-.41.34-.75.75-.75h1.5a.75.75 0 0 1 0 1.5h-1.5a.75.75 0 0 1-.75-.75ZM5 2a1 1 0 0 0-1 1v4c0 1.1.9 2 2 2h12a2 2 0 0 0 2-2V3a1 1 0 0 0-1-1H5Zm14 20a1 1 0 0 0 1-1v-4a2 2 0 0 0-2-2H6a2 2 0 0 0-2 2v4a1 1 0 0 0 1 1h14Z"/></svg>