<svg width="24" height="25" viewBox="0 0 24 25" xmlns="http://www.w3.org/2000/svg"><path d="M7 7.5v-2a3 3 0 015-2.24 3 3 0 015 2.24v2h1.5c.83 0 1.5.67 1.5 1.5v3c-.47-.2-.98-.34-1.5-.42V9h-3.99v3.23c-.55.28-1.06.65-1.5 1.07V9H5.5v9.5A2.5 2.5 0 008 21h3.73c.29.55.65 1.06 1.08 1.5H8a4 4 0 01-4-4V9c0-.83.67-1.5 1.5-1.5H7zm4.5 0v-2a1.5 1.5 0 00-3 0v2h3zm1.5 0h2.5v-2a1.5 1.5 0 00-2.66-.96c.1.3.16.63.16.96v2zM23 18a5.5 5.5 0 11-11 0 5.5 5.5 0 0111 0zm-7.5-3a.5.5 0 00-.5.5v5a.5.5 0 001 0v-5a.5.5 0 00-.5-.5zm4 0a.5.5 0 00-.5.5v5a.5.5 0 001 0v-5a.5.5 0 00-.5-.5z"/></svg>