<svg width="24" height="24" viewBox="0 0 24 24" xmlns="http://www.w3.org/2000/svg"><path d="M17.78 10.7c.6.6 1.12 1.33 1.5 2.1a1 1 0 01-1.77.9 6.13 6.13 0 00-8.17-2.75 3.5 3.5 0 00-1.77-1.28 8.13 8.13 0 0110.21 1.04zm-12.8-.99a8.3 8.3 0 00-.26.27c-.6.36-1.08.88-1.38 1.51A1 1 0 012.18 10a11.92 11.92 0 0119.64 0 1 1 0 01-1.64 1.14 9.92 9.92 0 00-15.2-1.41zm10.76 3.99c.46.46.83 1.02 1.1 1.62a1 1 0 01-1.84.8 3.23 3.23 0 00-3.37-1.93A2.5 2.5 0 0010 13.05V13c0-.14 0-.28-.02-.41 1.9-.82 4.2-.45 5.76 1.11zm-2.68 2.74A1.5 1.5 0 0112 19v-3c.38 0 .77.15 1.06.44zM4 14v-1a2.5 2.5 0 015 0v1h.5c.83 0 1.5.67 1.5 1.5v5c0 .83-.67 1.5-1.5 1.5h-6A1.5 1.5 0 012 20.5v-5c0-.83.67-1.5 1.5-1.5H4zm1.5-1v1h2v-1a1 1 0 10-2 0zm2 5a1 1 0 10-2 0 1 1 0 002 0z"/></svg>