<svg width="20" height="20" viewBox="0 0 20 20" xmlns="http://www.w3.org/2000/svg"><path d="M16.73 7.56c.4.4.78.87 1.11 1.35a.75.75 0 0 1-1.23.85A7.97 7.97 0 0 0 5.06 8.03a3 3 0 0 0-2.4 2.02.75.75 0 0 1-.42-1.15 9.47 9.47 0 0 1 14.5-1.34Zm-5.8 8.08c-.26.25-.6.37-.93.36v-2.48a1.24 1.24 0 0 1 .92 2.12Zm.96-2.74a2.63 2.63 0 0 0-2.08-.76 2 2 0 0 0-1.31-1.08v-.13a4.13 4.13 0 0 1 5.32 2.2.75.75 0 0 1-1.37.6c-.13-.31-.33-.6-.56-.83Zm1.64-2.39a4.94 4.94 0 0 0-5.45-1.04 3.01 3.01 0 0 0-1.15-1.1 6.45 6.45 0 0 1 8.85 2.73.75.75 0 1 1-1.33.69 5.13 5.13 0 0 0-.92-1.28ZM3.5 11v1H3a1 1 0 0 0-1 1v4a1 1 0 0 0 1 1h5a1 1 0 0 0 1-1v-4a1 1 0 0 0-1-1h-.5v-1a2 2 0 1 0-4 0Zm1 1v-1a1 1 0 1 1 2 0v1h-2Zm1 2.25a.75.75 0 1 1 0 1.5.75.75 0 0 1 0-1.5Z"/></svg>