<svg width="20" height="20" viewBox="0 0 20 20" xmlns="http://www.w3.org/2000/svg"><path d="M7 9a2 2 0 1 1 4 0 2 2 0 0 1-4 0Zm2-1a1 1 0 1 0 0 2 1 1 0 0 0 0-2ZM3.5 4C2.67 4 2 4.67 2 5.5v7c0 .83.67 1.5 1.5 1.5h11c.83 0 1.5-.67 1.5-1.5v-7c0-.83-.67-1.5-1.5-1.5h-11ZM3 5.5c0-.28.22-.5.5-.5H5v1a1 1 0 0 1-1 1H3V5.5ZM3 8h1a2 2 0 0 0 2-2V5h6v1c0 1.1.9 2 2 2h1v2h-1a2 2 0 0 0-2 2v1H6v-1a2 2 0 0 0-2-2H3V8Zm10-3h1.5c.28 0 .5.22.5.5V7h-1a1 1 0 0 1-1-1V5Zm2 6v1.5a.5.5 0 0 1-.5.5H13v-1a1 1 0 0 1 1-1h1ZM5 13H3.5a.5.5 0 0 1-.5-.5V11h1a1 1 0 0 1 1 1v1Zm12-.5a2.5 2.5 0 0 1-2.5 2.5H4.09c.2.58.76 1 1.41 1h9a3.5 3.5 0 0 0 3.5-3.5v-5c0-.65-.42-1.2-1-1.41v6.41Z"/></svg>