<svg width="20" height="20" viewBox="0 0 20 20" xmlns="http://www.w3.org/2000/svg"><path d="M5 3a2 2 0 0 0-2 2v4.76A4.5 4.5 0 0 1 9.97 13h3.53a.5.5 0 0 1 0 1H9.97c-.05.5-.2.98-.4 1.44L11.11 17H15a2 2 0 0 0 2-2V5a2 2 0 0 0-2-2H5Zm2.5 4.25a.75.75 0 1 1-1.5 0 .75.75 0 0 1 1.5 0Zm2-.25h4a.5.5 0 0 1 0 1h-4a.5.5 0 0 1 0-1ZM9 10.5c0-.28.22-.5.5-.5h4a.5.5 0 0 1 0 1h-4a.5.5 0 0 1-.5-.5Zm-6.62 1.4a3.5 3.5 0 0 0 5.22 4.4l2.54 2.56a.5.5 0 0 0 .71-.71L8.3 15.6a3.5 3.5 0 1 0-5.92-3.7Zm5.2.21a2.5 2.5 0 1 1-4.16 2.78 2.5 2.5 0 0 1 4.16-2.78Z"/></svg>