<svg width="28" height="28" viewBox="0 0 28 28" xmlns="http://www.w3.org/2000/svg"><path d="M21.75 3C23.55 3 25 4.46 25 6.25v15.5c0 1.8-1.46 3.25-3.25 3.25H6.25A3.25 3.25 0 0 1 3 21.75V6.25C3 4.45 4.46 3 6.25 3h15.5Zm1.75 6.5h-19v12.25c0 .97.78 1.75 1.75 1.75h15.5c.97 0 1.75-.78 1.75-1.75V9.5Zm-14.75 8a1.25 1.25 0 1 1 0 2.5 1.25 1.25 0 0 1 0-2.5Zm5.25 0a1.25 1.25 0 1 1 0 2.5 1.25 1.25 0 0 1 0-2.5Zm-5.25-5a1.25 1.25 0 1 1 0 2.5 1.25 1.25 0 0 1 0-2.5Zm5.25 0a1.25 1.25 0 1 1 0 2.5 1.25 1.25 0 0 1 0-2.5Zm5.26 0a1.25 1.25 0 1 1 0 2.5 1.25 1.25 0 0 1 0-2.5Zm2.49-8H6.25c-.97 0-1.75.78-1.75 1.75V8h19V6.25c0-.97-.78-1.75-1.75-1.75Z"/></svg>