<svg width="16" height="16" viewBox="0 0 16 16" xmlns="http://www.w3.org/2000/svg"><path d="M5.25 9a.75.75 0 1 0 0-1.5.75.75 0 0 0 0 1.5ZM6 10.75a.75.75 0 1 1-1.5 0 .75.75 0 0 1 1.5 0ZM8 9a.75.75 0 1 0 0-1.5A.75.75 0 0 0 8 9Zm.75 1.75a.75.75 0 1 1-1.5 0 .75.75 0 0 1 1.5 0Zm2-1.75a.75.75 0 1 0 0-1.5.75.75 0 0 0 0 1.5ZM14 4.5A2.5 2.5 0 0 0 11.5 2h-7A2.5 2.5 0 0 0 2 4.5v7A2.5 2.5 0 0 0 4.5 14h7a2.5 2.5 0 0 0 2.5-2.5v-7ZM3 6h10v5.5c0 .83-.67 1.5-1.5 1.5h-7A1.5 1.5 0 0 1 3 11.5V6Zm1.5-3h7c.83 0 1.5.67 1.5 1.5V5H3v-.5C3 3.67 3.67 3 4.5 3Z"/></svg>