<svg width="16" height="16" viewBox="0 0 16 16" xmlns="http://www.w3.org/2000/svg"><path d="M4.75 2A2.75 2.75 0 0 0 2 4.75v.86a.75.75 0 0 0 1.5 0v-.86c0-.69.56-1.25 1.25-1.25h.86a.75.75 0 0 0 0-1.5h-.86Zm5.64 0a.75.75 0 1 0 0 1.5h.86c.69 0 1.25.56 1.25 1.25v.86a.75.75 0 0 0 1.5 0v-.86A2.75 2.75 0 0 0 11.25 2h-.86ZM3.5 10.39a.75.75 0 1 0-1.5 0v.86A2.75 2.75 0 0 0 4.75 14h.86a.75.75 0 0 0 0-1.5h-.86c-.69 0-1.25-.56-1.25-1.25v-.86Zm10.5 0a.75.75 0 1 0-1.5 0v.86c0 .69-.56 1.25-1.25 1.25h-.86a.75.75 0 1 0 0 1.5h.86A2.75 2.75 0 0 0 14 11.25v-.86ZM4.5 10V7.38a1 1 0 0 1 1-1h.75l.58-.91A1 1 0 0 1 7.68 5h.64a1 1 0 0 1 .85.47l.58.91h.75a1 1 0 0 1 1 1V10a1 1 0 0 1-1 1h-5a1 1 0 0 1-1-1ZM8 9.5a1 1 0 1 0 0-2 1 1 0 0 0 0 2Z"/></svg>