<svg width="48" height="48" viewBox="0 0 48 48" xmlns="http://www.w3.org/2000/svg"><path d="M6 12.5A6.5 6.5 0 0 1 12.5 6h5.34a1.5 1.5 0 0 1 0 3H12.5A3.5 3.5 0 0 0 9 12.5v5.34a1.5 1.5 0 0 1-3 0V12.5Zm22.66-5c0-.83.67-1.5 1.5-1.5h5.34a6.5 6.5 0 0 1 6.5 6.5v5.34a1.5 1.5 0 0 1-3 0V12.5A3.5 3.5 0 0 0 35.5 9h-5.34a1.5 1.5 0 0 1-1.5-1.5ZM7.5 28.66c.83 0 1.5.67 1.5 1.5v5.34a3.5 3.5 0 0 0 3.5 3.5h5.34a1.5 1.5 0 0 1 0 3H12.5A6.5 6.5 0 0 1 6 35.5v-5.34c0-.83.67-1.5 1.5-1.5Zm33 0c.83 0 1.5.67 1.5 1.5v5.34a6.5 6.5 0 0 1-6.5 6.5h-5.34a1.5 1.5 0 0 1 0-3h5.34a3.5 3.5 0 0 0 3.5-3.5v-5.34c0-.83.67-1.5 1.5-1.5ZM27 24.5a3 3 0 1 0-6 0 3 3 0 0 0 6 0Zm.86-8.89a2.25 2.25 0 0 0-1.94-1.1h-3.8c-.78 0-1.5.4-1.92 1.07L19.33 17h-2.08A3.25 3.25 0 0 0 14 20.25v9.5c0 1.8 1.46 3.25 3.25 3.25h13.5c1.8 0 3.25-1.46 3.25-3.25v-9.5c0-1.8-1.46-3.25-3.25-3.25h-2.07l-.82-1.39ZM19.5 24.5a4.5 4.5 0 1 1 9 0 4.5 4.5 0 0 1-9 0Z"/></svg>