<svg width="20" height="20" viewBox="0 0 20 20" xmlns="http://www.w3.org/2000/svg"><path d="M8 2a2 2 0 0 0-2 2v5.02c.34.03.68.1 1 .19V4a1 1 0 0 1 1-1h3v3.5c0 .83.67 1.5 1.5 1.5H16v6a1 1 0 0 1-1 1h-4.02c-.03.34-.1.68-.19 1H15a2 2 0 0 0 2-2V7.41c0-.4-.16-.78-.44-1.06l-3.91-3.91A1.5 1.5 0 0 0 11.59 2H8Zm4 4.5V3.2L15.8 7h-3.3a.5.5 0 0 1-.5-.5ZM5 9.02V4a1 1 0 0 0-1 1v4.2c.32-.08.66-.15 1-.18ZM9.74 18c.26-.3.48-.64.66-1H15a1 1 0 0 1-1 1H9.74ZM1 14.5a4.5 4.5 0 1 0 9 0 4.5 4.5 0 0 0-9 0Zm2.4 2.8 4.9-4.9a3.5 3.5 0 0 1-4.9 4.9Zm-.7-.7a3.5 3.5 0 0 1 4.9-4.9l-4.9 4.9Z"/></svg>