<svg width="32" height="32" viewBox="0 0 32 32" xmlns="http://www.w3.org/2000/svg"><path d="M23.58 24.99l4.71 4.72a1 1 0 001.42-1.42l-26-26a1 1 0 00-1.42 1.42L9 10.4A4.98 4.98 0 002 15a5 5 0 004 4.9V22a5 5 0 005 5h9.1a4 4 0 003.48-2.01zm-1.53-1.52A2 2 0 0120.11 25H18v-.5a4.5 4.5 0 00-4.5-4.5H12a1 1 0 100 2h1.5a2.5 2.5 0 012.5 2.5v.5h-5a3 3 0 01-3-3v-4a4 4 0 013.86-4h.73l9.46 9.47zM6 17.83a3 3 0 113.03-5.04A6 6 0 006 17.83zM28 17a4 4 0 01-3.5 3.97l1.64 1.64a6 6 0 001.7-10.23l-7.18-7.46a3 3 0 00-4.5 3.97l1.9 2.35c-.17.24-.32.5-.46.76h-2.06l2 2h1.42l.24-.67c.18-.51.48-.97.87-1.35l.65-.63-3-3.71a1 1 0 011.5-1.33l7.25 7.55.05.03c.9.74 1.48 1.86 1.48 3.11z"/></svg>