<svg width="32" height="32" viewBox="0 0 32 32" xmlns="http://www.w3.org/2000/svg"><path d="m23.58 24.99 4.71 4.72a1 1 0 0 0 1.42-1.42l-26-26a1 1 0 0 0-1.42 1.42L9 10.4A4.98 4.98 0 0 0 2 15a5 5 0 0 0 4 4.9V22a5 5 0 0 0 5 5h9.1a4 4 0 0 0 3.48-2.01Zm-1.53-1.52A2 2 0 0 1 20.11 25H18v-.5a4.5 4.5 0 0 0-4.5-4.5H12a1 1 0 1 0 0 2h1.5a2.5 2.5 0 0 1 2.5 2.5v.5h-5a3 3 0 0 1-3-3v-4a4 4 0 0 1 3.86-4h.73l9.46 9.46ZM6 17.82a3 3 0 1 1 3.02-5.04A6 6 0 0 0 6 17.83ZM28 17a4 4 0 0 1-3.5 3.97l1.64 1.64a6 6 0 0 0 1.7-10.23l-7.18-7.46a3 3 0 0 0-4.5 3.97l1.9 2.35c-.17.24-.33.5-.46.76h-2.06l2 2h1.42l.24-.67c.18-.51.48-.97.87-1.35l.65-.63-3-3.72a1 1 0 0 1 1.5-1.32l7.25 7.55.05.03c.9.74 1.48 1.86 1.48 3.11Z"/></svg>