<svg width="24" height="24" viewBox="0 0 24 24" xmlns="http://www.w3.org/2000/svg"><path d="M5.25 3C4.01 3 3 4 3 5.25v13.5C3 19.99 4 21 5.25 21h13.5c1.24 0 2.25-1 2.25-2.25V5.25C21 4.01 20 3 18.75 3H5.25Zm3.5 5.25a1 1 0 1 1-2 0 1 1 0 0 1 2 0Zm1.75 0c0-.41.34-.75.75-.75h5.5a.75.75 0 0 1 0 1.5h-5.5a.75.75 0 0 1-.75-.75Zm0 3.75c0-.41.34-.75.75-.75h5.5a.75.75 0 1 1 0 1.5h-5.5a.75.75 0 0 1-.75-.75Zm.75 3h5.5a.75.75 0 1 1 0 1.5h-5.5a.75.75 0 1 1 0-1.5Zm-3.5-2a1 1 0 1 1 0-2 1 1 0 0 1 0 2Zm1 2.75a1 1 0 1 1-2 0 1 1 0 0 1 2 0Z"/></svg>