<svg width="20" height="20" viewBox="0 0 20 20" xmlns="http://www.w3.org/2000/svg"><path d="m5.28 10.6 5.3-5.3A2.75 2.75 0 0 1 14.65 9c.56.02 1.1.12 1.6.29a4.25 4.25 0 0 0-6.73-5.05l-5.3 5.3a.75.75 0 0 0 1.06 1.07Zm2.83 4.96.9-.9c.01.63.13 1.22.34 1.78l-.18.18a2.75 2.75 0 0 1-3.89-3.89l5.66-5.66A.75.75 0 1 1 12 8.13L6.34 13.8a1.25 1.25 0 0 0 1.77 1.77ZM19 14.5a4.5 4.5 0 1 1-9 0 4.5 4.5 0 0 1 9 0Zm-2.15.35a.5.5 0 0 0 .15-.35.5.5 0 0 0-.15-.35l-2-2a.5.5 0 0 0-.7.7L15.29 14H12.5a.5.5 0 0 0 0 1h2.8l-1.15 1.15a.5.5 0 0 0 .7.7l2-2Z"/></svg>