<svg width="20" height="20" viewBox="0 0 20 20" xmlns="http://www.w3.org/2000/svg"><path d="M7.21 2c-.47 0-.89.31-1.02.77l-2.25 7.87c-.2.68.32 1.36 1.02 1.36h1.27l-1.17 4.68c-.26 1.05 1.04 1.78 1.8 1l3.34-3.42a1.2 1.2 0 0 0-.16-.07l-1.09-.35a1.42 1.42 0 0 1 0-2.68l.02-.01 1.07-.35a1.2 1.2 0 0 0 .74-.76l.36-1.1A1.42 1.42 0 0 1 12.48 8h.02a1.42 1.42 0 0 1 1.34.95l.01.02.35 1.07.03.1 1.3-1.32c.65-.68.19-1.82-.76-1.82H12.2l1.26-3.6c.23-.69-.28-1.4-1-1.4H7.2Zm5.67 7.28.35 1.07a2.2 2.2 0 0 0 1.4 1.4l1.07.35h.02a.42.42 0 0 1 0 .8l-1.07.35a2.2 2.2 0 0 0-1.4 1.4l-.35 1.07a.42.42 0 0 1-.8 0l-.35-1.07a2.22 2.22 0 0 0-1.4-1.4l-1.07-.35a.42.42 0 0 1 0-.8l1.07-.35a2.2 2.2 0 0 0 1.38-1.4l.35-1.07a.42.42 0 0 1 .8 0Zm4.9 7.93-.76-.25a1.58 1.58 0 0 1-1-1l-.25-.76a.3.3 0 0 0-.57 0l-.25.77a1.58 1.58 0 0 1-.98 1l-.77.24a.3.3 0 0 0 0 .57l.77.25a1.58 1.58 0 0 1 1 1l.24.77a.3.3 0 0 0 .58 0l.24-.77a1.58 1.58 0 0 1 1-1l.77-.24a.3.3 0 0 0 0-.57h-.02Z"/></svg>