<svg width="24" height="24" viewBox="0 0 24 24" xmlns="http://www.w3.org/2000/svg"><path d="M8.6 2c-.53 0-1 .33-1.17.83L4.1 12.15a1.75 1.75 0 0 0 1.65 2.34H7.3l-1.27 5.67c-.33 1.48 1.5 2.46 2.55 1.38l3.95-4.09a1.9 1.9 0 0 0-.11-.04l-1.39-.45-.08-.03-3.45 3.56 1.47-6.58a.75.75 0 0 0-.73-.91l-2.5-.01a.25.25 0 0 1-.23-.33L8.78 3.5h5.93l-1.67 5.01a.75.75 0 0 0 .71.99h4.4l-1.3 1.35.08.18v.01l.45 1.39.01.02 2.26-2.33c.77-.8.2-2.12-.9-2.12h-3.96l1.45-4.35c.27-.81-.33-1.65-1.18-1.65H8.6Zm5.25 15.15a2.85 2.85 0 0 1 .69 1.11l.45 1.38a.54.54 0 0 0 1.02 0l.45-1.38a2.84 2.84 0 0 1 1.8-1.8l1.38-.44a.54.54 0 0 0 0-1.03h-.03l-1.38-.45a2.84 2.84 0 0 1-1.8-1.8L16 11.36a.54.54 0 0 0-1.03 0l-.45 1.38-.01.03a2.84 2.84 0 0 1-1.76 1.77l-1.38.44a.54.54 0 0 0 0 1.03l1.38.45c.42.14.8.37 1.11.69Zm7.93 4.06-.76-.25a1.58 1.58 0 0 1-1-1l-.25-.76a.3.3 0 0 0-.57 0l-.25.77a1.58 1.58 0 0 1-.98 1l-.77.24a.3.3 0 0 0 0 .57l.77.25a1.58 1.58 0 0 1 1 1l.24.77a.3.3 0 0 0 .58 0l.24-.77a1.58 1.58 0 0 1 1-1l.77-.24a.3.3 0 0 0 0-.57h-.02Z"/></svg>