<svg width="28" height="28" viewBox="0 0 28 28" xmlns="http://www.w3.org/2000/svg"><path d="M3.28 2.22a.75.75 0 10-1.06 1.06l5.29 5.29A10.55 10.55 0 004 8a1 1 0 100 2c3.15 0 5.08 1.41 6.94 3.28l.6-.64.02-.02.7.7C9.94 15.84 7.9 18 4 18a1 1 0 100 2c4.81 0 7.4-2.79 9.67-5.26l.72.7-.03.03-.66.72a12.85 12.85 0 004.6 3.17l1.96 1.96a1 1 0 001.42 1.42l3.04 3.04a.75.75 0 001.06-1.06L3.28 2.22zm11.08 8.95l1.41 1.42c1.57-1.44 3.3-2.48 5.8-2.58l-1.28 1.28a1 1 0 001.42 1.42l3-3a1 1 0 000-1.42l-3-3a1 1 0 10-1.42 1.42L21.6 8c-3.24.1-5.44 1.5-7.23 3.16zm6.79 6.8l2.65 2.65.9-.91a1 1 0 000-1.42l-3-3a1 1 0 00-1.4 1.42l1.28 1.28c-.15 0-.3-.01-.43-.03z"/></svg>