<svg width="48" height="48" viewBox="0 0 48 48" xmlns="http://www.w3.org/2000/svg"><path d="M37.6 39.37l4.27 4.26a1.25 1.25 0 001.76-1.76L6.13 4.37a1.25 1.25 0 10-1.76 1.76l9.8 9.82A19.3 19.3 0 005.5 14a1.5 1.5 0 000 3c5.78 0 9.45 2.45 12.9 5.62l1.14-1.11.1-.1 1.42 1.41-.03.03-.08.08C16.62 27.2 12.7 31 5.5 31a1.5 1.5 0 000 3c8.5 0 13.2-4.63 17.47-8.85l.08-.08.13-.12 1.41 1.41-.13.13-.18.18-.83.81a25.62 25.62 0 007.23 4.97l4.95 4.94a1.5 1.5 0 001.98 1.98zm-1.44-8.51l5.05 5.05 2.35-2.35a1.5 1.5 0 000-2.12l-5.5-5.5a1.5 1.5 0 00-2.12 2.12L38.88 31h-.38c-.82 0-1.6-.05-2.34-.14zM24.7 19.4l2.13 2.13C29.95 18.91 33.4 17 38.5 17h.38l-2.94 2.94a1.5 1.5 0 002.12 2.12l5.5-5.5a1.5 1.5 0 000-2.12l-5.5-5.5a1.5 1.5 0 00-2.12 2.12L38.88 14h-.38c-6.17 0-10.34 2.45-13.8 5.4z"/></svg>