<svg width="48" height="48" viewBox="0 0 48 48" xmlns="http://www.w3.org/2000/svg"><path d="M30.38 32.15l11.49 11.48a1.25 1.25 0 001.76-1.76L6.13 4.37a1.25 1.25 0 10-1.76 1.76l10.2 10.2A18.93 18.93 0 005.25 14a1.25 1.25 0 100 2.5c6.02 0 9.86 2.7 13.52 6.12l.95-.93.1-.1L21.23 23l-.03.03-.08.08c-4.46 4.4-8.56 8.39-15.87 8.39a1.25 1.25 0 100 2.5c8.39 0 13.15-4.7 17.55-9.03l.08-.08.12-.12 1.42 1.41-.14.13-.19.19-.65.64a27.82 27.82 0 006.94 5.01zM39.3 34l-2.6-2.61c.65.07 1.33.11 2.05.11h.98l-3.36-3.37a1.25 1.25 0 011.76-1.76l5.5 5.5c.5.48.5 1.28 0 1.76l-2.34 2.35-1.77-1.77.21-.21h-.43zM26.65 21.34l-1.78-1.77C28.41 16.52 32.61 14 38.75 14h.98l-3.36-3.37a1.25 1.25 0 011.76-1.76l5.5 5.5c.5.48.5 1.28 0 1.76l-5.5 5.5a1.25 1.25 0 01-1.76-1.76l3.36-3.37h-.98c-5.25 0-8.84 2.06-12.1 4.84z"/></svg>