<svg width="28" height="28" viewBox="0 0 28 28" xmlns="http://www.w3.org/2000/svg"><path d="M3.28 2.22a.75.75 0 10-1.06 1.06l6.27 6.27A10.7 10.7 0 003.75 8.5a.75.75 0 000 1.5c3.33 0 5.44 1.46 7.45 3.31l.53-.52.7.71C10.02 15.87 7.78 18 3.76 18a.75.75 0 000 1.5c4.68 0 7.31-2.56 9.73-4.92l.02-.02.7.7-.07.09-.4.39c1.05.97 2.19 1.9 3.54 2.6l7.45 7.44a.75.75 0 001.06-1.06L3.28 2.22zm12.42 10.3l-1.06-1.06c1.93-1.63 4.24-2.96 7.61-2.96h.19l-1.72-1.72a.75.75 0 011.06-1.06l3 3c.3.3.3.77 0 1.06l-3 3a.75.75 0 11-1.06-1.06L22.44 10h-.19a9.68 9.68 0 00-6.55 2.52zm7.92 7.92l-2.5-2.5c.36.04.74.06 1.13.06h.19l-1.72-1.72a.75.75 0 111.06-1.06l3 3c.3.3.3.77 0 1.06l-1.16 1.16z"/></svg>