<svg width="16" height="16" viewBox="0 0 16 16" xmlns="http://www.w3.org/2000/svg"><path d="M12 12.7l2.15 2.15a.5.5 0 00.7-.7l-13-13a.5.5 0 10-.7.7l3.07 3.07a6.04 6.04 0 00-1.47-.17.75.75 0 000 1.5c1.24 0 2.12.43 2.93 1.08l.48-.46.7.7C5.66 8.8 4.62 9.75 2.76 9.75a.75.75 0 000 1.5c2.52 0 3.96-1.4 5.18-2.62l.7.71-.39.39c.56.46 1.19.88 1.94 1.16l.86.86a.75.75 0 00.96.96zM11 8.9l2.47 2.45.31-.31c.3-.3.3-.77 0-1.06l-1.5-1.5a.75.75 0 00-1.27.42zM8.34 6.2l1.06 1.07c.58-.45 1.2-.79 1.97-.94l-.14.14a.75.75 0 001.06 1.06l1.5-1.5c.3-.3.3-.77 0-1.06l-1.5-1.5a.75.75 0 10-1.06 1.06l.26.27a6.04 6.04 0 00-3.15 1.4z"/></svg>