<svg width="32" height="32" viewBox="0 0 32 32" xmlns="http://www.w3.org/2000/svg"><path d="m20.06 21.47 8.23 8.24a1 1 0 0 0 1.42-1.42l-26-26a1 1 0 0 0-1.42 1.42l6.1 6.1C7.09 9.3 5.64 9 4 9a1 1 0 0 0 0 2c3.63 0 6.1 1.72 8.5 3.96l.53-.52 1.06 1.06C11.13 18.45 8.43 21 4 21a1 1 0 1 0 0 2c5.34 0 8.59-3.17 11.5-6.09l1.06 1.06-.48.49c1.2 1.12 2.49 2.2 3.98 3.01Zm7.41 2.47-3.05-3.06c.37.06.76.1 1.16.11l-1.79-1.78a1 1 0 0 1 1.42-1.42l3.5 3.5a1 1 0 0 1 0 1.42l-1.24 1.23Zm-9.45-9.46-1.42-1.42c2.35-2.11 5.1-3.93 9-4.05l-1.8-1.8a1 1 0 0 1 1.4-1.42l3.5 3.5a1 1 0 0 1 0 1.42l-3.5 3.5a1 1 0 0 1-1.4-1.42l1.78-1.78c-3.15.12-5.42 1.55-7.56 3.47Z"/></svg>