<svg width="24" height="24" viewBox="0 0 24 24" xmlns="http://www.w3.org/2000/svg"><path d="M3.28 2.22a.75.75 0 10-1.06 1.06l3.7 3.7A8.81 8.81 0 003 6.5a1 1 0 000 2c2.48 0 4.19 1.18 5.89 2.8a85 85 0 00.67-.68l.7.7C8.05 13.6 6.14 15.5 3 15.5a1 1 0 100 2c4.05 0 6.5-2.52 8.63-4.72l.05-.04.7.7-.1.1-.57.6a12.4 12.4 0 004.18 2.8l1.68 1.7a1 1 0 001.3 1.29l1.85 1.85a.75.75 0 001.06-1.06L3.28 2.22zm14.3 12.18l3.47 3.47.66-.66a1 1 0 000-1.42l-2.5-2.5a1 1 0 00-1.63 1.11zm-5.17-5.17l1.42 1.42c1.38-1.19 2.83-2.03 4.74-2.14l-.78.78a1 1 0 001.42 1.42l2.5-2.5a1 1 0 000-1.42l-2.5-2.5a1 1 0 10-1.42 1.42l.8.8c-2.62.11-4.56 1.3-6.18 2.72z"/></svg>