<svg width="16" height="16" viewBox="0 0 16 16" xmlns="http://www.w3.org/2000/svg"><path d="M11.65 12.35l2.5 2.5a.5.5 0 00.7-.7l-13-13a.5.5 0 10-.7.7L4.7 5.42A5.85 5.85 0 002.5 5a.5.5 0 000 1c1.45 0 2.5.56 3.48 1.35l.35-.31.7.7C5.7 8.96 4.48 10 2.5 10a.5.5 0 000 1c2.41 0 3.9-1.33 5.25-2.55l.7.71-.19.17c.38.31.78.6 1.22.85l2.17 2.17zM12.1 10l1.3 1.3.44-.44a.5.5 0 000-.7l-1.5-1.5a.5.5 0 00-.7 0 .5.5 0 000 .7l.64.65-.18-.01zM8.56 6.43l.71.72c.86-.64 1.8-1.1 3.02-1.15l-.64.65a.5.5 0 00.7.7l1.5-1.5a.5.5 0 000-.7l-1.5-1.5a.5.5 0 00-.7.7l.65.65a6.3 6.3 0 00-3.74 1.43z"/></svg>