<svg width="20" height="20" viewBox="0 0 20 20" xmlns="http://www.w3.org/2000/svg"><path d="M2.85 2.15a.5.5 0 10-.7.7L6.09 6.8A8.12 8.12 0 002.5 6a.5.5 0 100 1c2.42 0 4.02 1.02 5.52 2.33l.31-.3.7.72C7.2 11.45 5.48 13 2.5 13a.5.5 0 000 1c3.4 0 5.4-1.83 7.25-3.55l.7.71-.2.2c.53.47 1.1.92 1.72 1.32l5.18 5.17a.5.5 0 00.7-.7l-15-15zm12.12 10.7l1.14 1.14h.19l-.1.1.71.7.94-.94a.5.5 0 000-.7l-2-2a.5.5 0 00-.7.7L16.29 13a7.5 7.5 0 01-1.32-.15zM10.52 8.4l.71.71c1.39-1.16 2.9-2.05 5.06-2.1l-1.14 1.14a.5.5 0 00.7.7l2-2a.5.5 0 000-.7l-2-2a.5.5 0 00-.7.7L16.3 6c-2.54.06-4.28 1.14-5.78 2.4z"/></svg>