<svg width="48" height="48" viewBox="0 0 48 48" xmlns="http://www.w3.org/2000/svg"><path d="M6.13 4.37a1.25 1.25 0 0 0-1.76 1.76l5.46 5.47A16.92 16.92 0 0 0 7 21a16.92 16.92 0 0 0 4 10.95l.02.03.02.02H11l10.09 10.7a4 4 0 0 0 5.82 0l6.8-7.22 8.16 8.15a1.25 1.25 0 0 0 1.76-1.76L6.13 4.37ZM9.5 21c0-2.78.78-5.38 2.14-7.59l6.68 6.67a6 6 0 0 0 7.6 7.6l6.03 6.04-6.86 7.27c-.59.63-1.59.63-2.18 0l-9.66-10.25-.3-.36A14.43 14.43 0 0 1 9.5 21Zm5.46-11.34L13.2 7.88a17 17 0 0 1 23.93 23.93l-1.78-1.77A14.5 14.5 0 0 0 14.96 9.66Zm8.85 8.85-2.07-2.07a6 6 0 0 1 7.82 7.82L27.5 22.2V22a3.5 3.5 0 0 0-3.7-3.5Z"/></svg>