<svg width="24" height="24" viewBox="0 0 24 24" xmlns="http://www.w3.org/2000/svg"><path d="M3.28 2.22a.75.75 0 10-1.06 1.06l4.5 4.5a1.5 1.5 0 101.76 1.76l3.24 3.24a1.5 1.5 0 101.75 1.75l7.25 7.25a.75.75 0 001.06-1.06L3.28 2.22zM18.5 14.25c0 .3-.1.58-.25.82l-2.07-2.08a1.5 1.5 0 012.32 1.26zm-5-5c0 .3-.09.59-.25.82L11.18 8a1.5 1.5 0 012.32 1.25zm-5-5c0 .3-.09.59-.24.83L6.18 3A1.5 1.5 0 018.5 4.25zm3.5 13.5a1.5 1.5 0 110 3 1.5 1.5 0 010-3zm-5-5a1.5 1.5 0 110 3 1.5 1.5 0 010-3zm10-5a1.5 1.5 0 110 3 1.5 1.5 0 010-3zm-5-5a1.5 1.5 0 110 3 1.5 1.5 0 010-3zm5 0a1.5 1.5 0 110 3 1.5 1.5 0 010-3z"/></svg>