<svg width="20" height="20" viewBox="0 0 20 20" xmlns="http://www.w3.org/2000/svg"><path d="M4 15h5.99c-.23.3-.4.64-.51 1H4a2 2 0 0 1-2-2V4c0-1.1.9-2 2-2h10a2 2 0 0 1 2 2v5.23c-.33.14-.63.34-.9.61l-.1.1V4a1 1 0 0 0-1-1H4a1 1 0 0 0-1 1v10a1 1 0 0 0 1 1Zm8-9.5a.5.5 0 0 1 1 0v6.44l-.88.88a.5.5 0 0 1-.12-.32v-7Zm-7 2a.5.5 0 0 1 1 0v5a.5.5 0 0 1-1 0v-5ZM9 9a.5.5 0 0 0-.5.5v3a.5.5 0 0 0 1 0v-3A.5.5 0 0 0 9 9Zm1.98 6.38 4.83-4.83a1.87 1.87 0 1 1 2.64 2.64l-4.82 4.83a2.2 2.2 0 0 1-1.03.58l-1.5.37a.89.89 0 0 1-1.07-1.07l.37-1.5c.1-.39.3-.74.58-1.02Z"/></svg>