<svg width="24" height="24" viewBox="0 0 24 24" xmlns="http://www.w3.org/2000/svg"><path d="M19 4.5a2.5 2.5 0 0 1-3.01 2.44L14.7 9.06c.32.3.6.65.8 1.04-.5.1-.98.28-1.42.52a2.5 2.5 0 1 0-2.56 3.84c-.02.17-.03.36-.03.54v.97a4 4 0 0 1-2.72-1.6l-1.8.85.02.28a2.5 2.5 0 1 1-.62-1.65l1.75-.83a4 4 0 0 1 .79-3.57l-1-1.13A2.5 2.5 0 0 1 4.5 6a2.5 2.5 0 1 1 4.59 1.38l.98 1.12a3.98 3.98 0 0 1 3.36-.24l1.25-2.06A2.5 2.5 0 0 1 16.5 2 2.5 2.5 0 0 1 19 4.5Zm-1.5 0a1 1 0 1 0-2 0 1 1 0 0 0 2 0ZM7 7a1 1 0 1 0 0-2 1 1 0 0 0 0 2Zm-1.5 8.5a1 1 0 1 0-2 0 1 1 0 0 0 2 0Zm11-4.5a4 4 0 0 0-4 4v3l-.95.8c-.3.26-.46.39-.5.5a.5.5 0 0 0 .24.65c.1.05.3.05.7.05h9.02c.4 0 .6 0 .7-.05a.5.5 0 0 0 .25-.66c-.05-.1-.2-.23-.5-.49l-.96-.8v-3a4 4 0 0 0-4-4ZM18 21c-.22.58-.8 1-1.5 1-.69 0-1.28-.42-1.5-1h3Z"/></svg>