<svg width="16" height="16" viewBox="0 0 16 16" xmlns="http://www.w3.org/2000/svg"><path d="M10 3.5a.5.5 0 1 1 1 0 .5.5 0 0 1-1 0Zm.5-1.5a1.5 1.5 0 0 0-1.12 2.5l-.63 1.12a2.5 2.5 0 0 0-2.13.3l-.77-.77a1.5 1.5 0 1 0-.7.7l.76.77a2.49 2.49 0 0 0-.3 2.13l-1.12.63a1.5 1.5 0 1 0 .49.87l1.12-.62c.36.41.84.7 1.4.82V10c0-.2.01-.39.04-.57A1.5 1.5 0 1 1 9 6.88a4 4 0 0 1 .87-.54 2.52 2.52 0 0 0-.24-.24l.62-1.12.25.02a1.5 1.5 0 0 0 0-3Zm-6 2a.5.5 0 1 1 0 1 .5.5 0 0 1 0-1Zm-1 6a.5.5 0 1 1 0 1 .5.5 0 0 1 0-1Zm5 0a3 3 0 0 1 6 0v2l1.32 1.12a.5.5 0 0 1-.32.88h-8a.5.5 0 0 1-.32-.88L8.5 12v-2Zm3 6a1.5 1.5 0 0 1-1.42-1h2.83c-.2.58-.76 1-1.41 1Z"/></svg>