<svg width="20" height="20" viewBox="0 0 20 20" xmlns="http://www.w3.org/2000/svg"><path d="M4.75 12c.38 0 .69.28.74.64l.01.11v2.5a.75.75 0 0 1-1.5.11v-2.61c0-.41.34-.75.75-.75Zm3-2c.38 0 .69.28.74.64l.01.11v4.5a.75.75 0 0 1-1.5.11v-4.61c0-.41.34-.75.75-.75Zm3-2c.38 0 .69.28.74.64l.01.11v3.79l-1.47 2.93a.75.75 0 0 1-.02-.1l-.01-.12v-6.5c0-.41.34-.75.75-.75ZM13 9.68c.4-.45.95-.68 1.5-.68V6.64a.75.75 0 0 0-1.5.11v2.93Zm3.3.43 1.19 2.39.01-7.76v-.11a.74.74 0 0 0-1.49.12v4.93c.1.12.2.27.28.43Zm-2.7.44-3.5 7A1 1 0 0 0 11 19h7a1 1 0 0 0 .9-1.45l-3.5-7a1 1 0 0 0-1.8 0ZM15 12.5v3a.5.5 0 1 1-1 0v-3a.5.5 0 0 1 1 0Zm-.5 5.5a.5.5 0 1 1 0-1 .5.5 0 0 1 0 1Z"/></svg>