<svg width="20" height="20" viewBox="0 0 20 20" xmlns="http://www.w3.org/2000/svg"><path d="M16.5 4a.5.5 0 0 1 .5.41v7.12l-.7-1.42c-.09-.17-.19-.31-.3-.44V4.5c0-.28.23-.5.5-.5ZM10 15.53l1-2V8.4a.5.5 0 0 0-1 .1v7.03Zm3-5.85c.27-.32.62-.52 1-.62V6.41a.5.5 0 0 0-1 .1v3.17ZM7.5 10a.5.5 0 0 1 .5.4v5.1a.5.5 0 0 1-.99.09v-5.1c0-.27.22-.5.5-.5Zm-3 2a.5.5 0 0 1 .5.4v3.1a.5.5 0 0 1-1 .09v-3.1c0-.27.22-.5.5-.5Zm9.1-1.45-3.5 7A1 1 0 0 0 11 19h7a1 1 0 0 0 .9-1.45l-3.5-7a1 1 0 0 0-1.8 0ZM15 12.5v3a.5.5 0 0 1-1 0v-3a.5.5 0 0 1 1 0Zm-.5 5.5a.5.5 0 1 1 0-1 .5.5 0 0 1 0 1Z"/></svg>