<svg width="16" height="16" viewBox="0 0 16 16" xmlns="http://www.w3.org/2000/svg"><path d="M4 4.5a1.5 1.5 0 1 1 3 0 1.5 1.5 0 0 1-3 0ZM5.5 2a2.5 2.5 0 1 0 0 5 2.5 2.5 0 0 0 0-5Zm5 3a1 1 0 1 1 2 0 1 1 0 0 1-2 0Zm-.58 1.23a5.5 5.5 0 0 1 3.16 0 2 2 0 1 0-3.16 0ZM3 8h4.26c-.26.3-.48.64-.66 1H3a.5.5 0 0 0-.5.5v.15l.04.2c.04.18.13.42.3.65.33.45 1.04 1 2.66 1 .18 0 .34 0 .5-.02v.02c0 .33.03.66.09.98a7.3 7.3 0 0 1-.59.02c-1.88 0-2.92-.65-3.47-1.4A2.85 2.85 0 0 1 1.5 9.6V9.5C1.5 8.67 2.17 8 3 8Zm4 3.5a4.5 4.5 0 1 0 9 0 4.5 4.5 0 0 0-9 0Zm6.5-3c.28 0 .5.22.5.5v1.5a.5.5 0 0 1-.5.5H12a.5.5 0 0 1 0-1h.47a1.98 1.98 0 0 0-1.72-.1 2 2 0 0 0-.66.44.5.5 0 0 1-.71-.71A3 3 0 0 1 13 9.15V9c0-.28.22-.5.5-.5Zm-.88 5.53a3 3 0 0 1-2.62-.18V14a.5.5 0 0 1-1 0v-1.5c0-.28.22-.5.5-.5H11a.5.5 0 0 1 0 1h-.47a1.97 1.97 0 0 0 .94.25 2 2 0 0 0 1.44-.59.5.5 0 0 1 .71.71 3 3 0 0 1-1 .66Z"/></svg>