<svg width="20" height="20" viewBox="0 0 20 20" xmlns="http://www.w3.org/2000/svg"><path d="M6.75 9a3.25 3.25 0 1 0 0-6.5 3.25 3.25 0 0 0 0 6.5ZM17 6.5a2.5 2.5 0 1 1-5 0 2.5 2.5 0 0 1 5 0Zm-8 8c0-1.7.78-3.23 2-4.24a2 2 0 0 0-1-.26H3.5a2 2 0 0 0-2 2s0 4 5.25 4c.95 0 1.73-.13 2.37-.35A5.52 5.52 0 0 1 9 14.5Zm1 0a4.5 4.5 0 1 0 9 0 4.5 4.5 0 0 0-9 0Zm6.5-3c.28 0 .5.22.5.5v1.5a.5.5 0 0 1-.5.5H15a.5.5 0 0 1 0-1h.47a1.97 1.97 0 0 0-.94-.25 2 2 0 0 0-1.44.59.5.5 0 0 1-.71-.71 3 3 0 0 1 3.62-.48V12c0-.28.22-.5.5-.5Zm-.88 5.53a3 3 0 0 1-2.62-.18V17a.5.5 0 0 1-1 0v-1.5c0-.28.22-.5.5-.5H14a.5.5 0 0 1 0 1h-.47a1.97 1.97 0 0 0 .94.25 2 2 0 0 0 1.44-.59.5.5 0 0 1 .71.71 3 3 0 0 1-1 .66Z"/></svg>