<svg width="16" height="16" viewBox="0 0 16 16" xmlns="http://www.w3.org/2000/svg"><path d="M4 4.5a1.5 1.5 0 113 0 1.5 1.5 0 01-3 0zM5.5 2a2.5 2.5 0 100 5 2.5 2.5 0 000-5zm5 3a1 1 0 112 0 1 1 0 01-2 0zm-.58 1.23a5.5 5.5 0 013.16 0 2 2 0 10-3.16 0zM3 8h4.26c-.26.3-.48.64-.66 1H3a.5.5 0 00-.5.5v.15l.04.2c.04.18.13.42.3.65.33.45 1.04 1 2.66 1 .18 0 .34 0 .5-.02v.02c0 .33.03.66.09.98a7.3 7.3 0 01-.59.02c-1.88 0-2.92-.65-3.47-1.4A2.85 2.85 0 011.5 9.6V9.5C1.5 8.67 2.17 8 3 8zm4 3.5a4.5 4.5 0 109 0 4.5 4.5 0 00-9 0zm6.5-3c.28 0 .5.22.5.5v1.5a.5.5 0 01-.5.5H12a.5.5 0 010-1h.47a1.98 1.98 0 00-1.72-.1 2 2 0 00-.66.44.5.5 0 01-.71-.71A3 3 0 0113 9.15V9c0-.28.22-.5.5-.5zm-.88 5.53a3 3 0 01-2.62-.18V14a.5.5 0 01-1 0v-1.5c0-.28.22-.5.5-.5H11a.5.5 0 010 1h-.47a1.97 1.97 0 00.94.25 2 2 0 001.44-.59.5.5 0 01.71.71 3 3 0 01-1 .66z"/></svg>