<svg width="20" height="20" viewBox="0 0 20 20" xmlns="http://www.w3.org/2000/svg"><path d="M4.5 5.75a2.25 2.25 0 114.5 0 2.25 2.25 0 01-4.5 0zM6.75 2.5a3.25 3.25 0 100 6.5 3.25 3.25 0 000-6.5zM1.5 12c0-1.1.9-2 2-2H10a2 2 0 011 .26c-.28.23-.54.49-.77.77A1 1 0 0010 11H3.5a1 1 0 00-1 1v.16l.06.33c.07.27.2.64.45 1C3.49 14.2 4.5 15 6.75 15c.95 0 1.69-.15 2.25-.37.01.35.05.7.12 1.02-.64.22-1.42.35-2.37.35-2.51 0-3.87-.92-4.57-1.93a3.95 3.95 0 01-.68-1.99V12zM13 6.5a1.5 1.5 0 113 0 1.5 1.5 0 01-3 0zM14.5 4a2.5 2.5 0 100 5 2.5 2.5 0 000-5zM10 14.5a4.5 4.5 0 109 0 4.5 4.5 0 00-9 0zm6.5-3c.28 0 .5.22.5.5v1.5a.5.5 0 01-.5.5H15a.5.5 0 010-1h.47a1.97 1.97 0 00-.94-.25 2 2 0 00-1.44.59.5.5 0 01-.71-.71 3 3 0 013.62-.48V12c0-.28.22-.5.5-.5zm-.88 5.53a3 3 0 01-2.62-.18V17a.5.5 0 01-1 0v-1.5c0-.28.22-.5.5-.5H14a.5.5 0 010 1h-.47a1.97 1.97 0 00.94.25 2 2 0 001.44-.59.5.5 0 01.71.71 3 3 0 01-1 .66z"/></svg>