<svg width="16" height="16" viewBox="0 0 16 16" xmlns="http://www.w3.org/2000/svg"><path d="M8 4.5a2.5 2.5 0 11-5 0 2.5 2.5 0 015 0zM11.5 6a5.5 5.5 0 00-1.58.23 2 2 0 113.16 0A5.5 5.5 0 0011.5 6zM3 8h4.26a5.48 5.48 0 00-1.17 4.48l-.59.02c-4 0-4-2.93-4-2.93V9.5C1.5 8.67 2.17 8 3 8zm4 3.5a4.5 4.5 0 109 0 4.5 4.5 0 00-9 0zm6.5-3c.28 0 .5.22.5.5v1.5a.5.5 0 01-.5.5H12a.5.5 0 010-1h.47a1.98 1.98 0 00-1.72-.1 2 2 0 00-.66.44.5.5 0 01-.71-.71A3 3 0 0113 9.15V9c0-.28.22-.5.5-.5zm-.88 5.53a3 3 0 01-2.62-.18V14a.5.5 0 01-1 0v-1.5c0-.28.22-.5.5-.5H11a.5.5 0 010 1h-.47a1.97 1.97 0 00.94.25 2 2 0 001.44-.59.5.5 0 01.71.71 3 3 0 01-1 .66z"/></svg>