<svg width="28" height="28" viewBox="0 0 28 28" xmlns="http://www.w3.org/2000/svg"><path d="M9.5 4a4.5 4.5 0 100 9 4.5 4.5 0 000-9zm-3 4.5a3 3 0 116 0 3 3 0 01-6 0zM20 6a3.5 3.5 0 100 7 3.5 3.5 0 000-7zm-2 3.5a2 2 0 114 0 2 2 0 01-4 0zM4.25 15C3.01 15 2 16 2 17.25v.53a2.2 2.2 0 00.02.24A5.09 5.09 0 003 20.45C4 21.8 5.93 23 9.5 23c1.53 0 2.76-.22 3.75-.58-.13-.5-.21-1-.24-1.52-.84.35-1.97.6-3.51.6-3.2 0-4.63-1.05-5.3-1.95a3.59 3.59 0 01-.7-1.79v-.51c0-.41.34-.75.75-.75h9.9c.33-.52.73-1 1.17-1.43a2.25 2.25 0 00-.57-.07H4.25zM14 20.5a6.5 6.5 0 1013 0 6.5 6.5 0 00-13 0zm5.35-4.08a4 4 0 014.65 1.9v-.82a.5.5 0 011 0v2a.5.5 0 01-.5.5h-2a.5.5 0 010-1h.73a3 3 0 00-4.85-.87.5.5 0 01-.7-.7 4 4 0 011.67-1.01zm2.3 8.16a4 4 0 01-4.65-1.9v.82a.5.5 0 01-1 0v-2c0-.28.22-.5.5-.5h2a.5.5 0 010 1h-.73a3 3 0 004.85.87.5.5 0 01.7.7 4 4 0 01-1.67 1.01z"/></svg>