<svg width="20" height="20" viewBox="0 0 20 20" xmlns="http://www.w3.org/2000/svg"><path d="M7 2H4.75A2.75 2.75 0 0 0 2 4.75V7h2.27A2 2 0 0 1 7 4.27V2ZM2 8v3.25A2.75 2.75 0 0 0 4.75 14H7V8.7l-1.65 1.65a.5.5 0 0 1-.7-.7L6.29 8H2Zm7.02 6H8V8.7l1.65 1.65a.5.5 0 0 0 .7-.7L8.71 8H18v2.26A5.5 5.5 0 0 0 9.02 14ZM18 7h-7.27A2 2 0 0 0 8 4.27V2h7.25A2.75 2.75 0 0 1 18 4.75V7ZM8 6v1h1a1 1 0 1 0-1-1ZM7 7H6a1 1 0 1 1 1-1v1Zm12 7.5a4.5 4.5 0 1 1-9 0 4.5 4.5 0 0 1 9 0Zm-4-2a.5.5 0 0 0-1 0V14h-1.5a.5.5 0 0 0 0 1H14v1.5a.5.5 0 0 0 1 0V15h1.5a.5.5 0 0 0 0-1H15v-1.5Z"/></svg>