<svg width="16" height="16" viewBox="0 0 16 16" xmlns="http://www.w3.org/2000/svg"><path d="M9.27 4.66c.3.3.79.3 1.09 0 .3-.3.3-.78 0-1.08a.77.77 0 00-1.1 0c-.3.3-.3.78 0 1.08zM1.54 6.33a2 2 0 000 2.83l3.3 3.29c.21.2.45.36.71.45a5.46 5.46 0 01-.5-1.66l-2.8-2.79a1 1 0 010-1.41L7 2.3c.18-.19.44-.3.7-.3L10.98 2a1 1 0 011.01 1l-.02 2.2c.35.1.69.23 1 .39L13 3.02A2 2 0 0010.97 1l-3.26.01c-.53 0-1.04.22-1.41.59L1.54 6.33zM15 10.5a4.5 4.5 0 11-9 0 4.5 4.5 0 019 0zM10.5 8a.5.5 0 00-.5.5v2a.5.5 0 101 0v-2a.5.5 0 00-.5-.5zm0 5.13a.62.62 0 100-1.25.62.62 0 000 1.24z"/></svg>