<svg width="32" height="32" viewBox="0 0 32 32" xmlns="http://www.w3.org/2000/svg"><path d="M6.5 5.5A4.5 4.5 0 002 10v6.27a9.04 9.04 0 012-1.57V10a2.5 2.5 0 012.5-2.5h12A2.5 2.5 0 0121 10v12a2.5 2.5 0 01-2.5 2.5h-1.22c-.16.7-.4 1.37-.72 2h1.94A4.5 4.5 0 0023 22v-1.5l4.2 3.15c1.15.87 2.8.04 2.8-1.4V9.75a1.75 1.75 0 00-2.8-1.4L23 11.5V10a4.5 4.5 0 00-4.5-4.5h-12zM23 14l5-3.75v11.5L23 18v-4zm-7 8.5a7.5 7.5 0 01-11 6.63l-3.37.86a.5.5 0 01-.61-.6L1.87 26A7.5 7.5 0 1116 22.5zm-10.25-2a.75.75 0 000 1.5h5.5a.75.75 0 000-1.5h-5.5zM5 24.25c0 .41.34.75.75.75h3.5a.75.75 0 000-1.5h-3.5a.75.75 0 00-.75.75z"/></svg>