<svg width="28" height="28" viewBox="0 0 28 28" xmlns="http://www.w3.org/2000/svg"><path d="M5.25 5.5A3.25 3.25 0 0 0 2 8.75v5.65a7.5 7.5 0 0 1 12.38 8.1h.37c1.8 0 3.25-1.46 3.25-3.25V8.75c0-1.8-1.46-3.25-3.25-3.25h-9.5Zm17.87 15.14L19.5 17.1V11l3.61-3.62a1.25 1.25 0 0 1 2.14.88v11.5c0 1.1-1.34 1.67-2.13.9ZM14 19.5a6.5 6.5 0 0 1-9.65 5.69l-2.71.79a.5.5 0 0 1-.62-.62l.8-2.71A6.5 6.5 0 1 1 14 19.5ZM5 18a.5.5 0 0 0 0 1h5a.5.5 0 1 0 0-1H5Zm-.5 2.5c0 .28.22.5.5.5h2.5a.5.5 0 0 0 0-1H5a.5.5 0 0 0-.5.5Z"/></svg>