<svg width="16" height="16" viewBox="0 0 16 16" xmlns="http://www.w3.org/2000/svg"><path d="M3.5 3.5C2.67 3.5 2 4.17 2 5v.6c-.36.18-.7.4-1 .66V5a2.5 2.5 0 012.5-2.5h6A2.5 2.5 0 0112 5v.5l1.8-1.35a.75.75 0 011.2.6v6.5c0 .62-.7.97-1.2.6L12 10.5v.5a2.5 2.5 0 01-2.5 2.5h-.39c.2-.31.38-.65.52-1A1.5 1.5 0 0011 11V5c0-.83-.67-1.5-1.5-1.5h-6zM12 9.25l2 1.5v-5.5l-2 1.5v2.5zM8.24 13A4.48 4.48 0 004.5 6a4.5 4.5 0 00-3.94 6.68l-.54 1.8c-.1.3.2.6.5.5l1.8-.54A4.48 4.48 0 008.24 13zM2.5 12a.5.5 0 010-1h2a.5.5 0 010 1h-2zM2 9.5c0-.28.22-.5.5-.5h4a.5.5 0 010 1h-4a.5.5 0 01-.5-.5z"/></svg>