<svg width="24" height="24" viewBox="0 0 24 24" xmlns="http://www.w3.org/2000/svg"><path d="M16 16.25c0 1.8-1.46 3.25-3.25 3.25h-.48c.47-.9.73-1.92.73-3 0-2.02-.7-3.64-2.36-5.02A5.99 5.99 0 006.5 10c-1.75 0-3.33.69-4.5 1.81V7.75C2 5.95 3.46 4.5 5.25 4.5h7.5c1.8 0 3.25 1.46 3.25 3.25v8.5zm5.76-10.36a1 1 0 01.24.65v10.92a1 1 0 01-1.65.76L17 15.37V8.63l3.35-2.85a1 1 0 011.41.11zM10 12.26A5.48 5.48 0 006.5 11a5.5 5.5 0 00-4.81 8.17l-.67 2.19a.5.5 0 00.63.62l2.18-.67A5.5 5.5 0 0010 12.25zM4.5 16a.5.5 0 110-1h4a.5.5 0 110 1h-4zm2 2h-2a.5.5 0 110-1h2a.5.5 0 110 1z"/></svg>