<svg width="20" height="20" viewBox="0 0 20 20" xmlns="http://www.w3.org/2000/svg"><path d="M4.5 4A2.5 2.5 0 002 6.5v2.76c.3-.26.64-.48 1-.66V6.5C3 5.67 3.67 5 4.5 5h7c.83 0 1.5.67 1.5 1.5v7c0 .83-.67 1.5-1.5 1.5h-.7c-.1.35-.24.68-.4 1h1.1a2.5 2.5 0 002.5-2.5v-1l2.4 1.8a1 1 0 001.6-.8v-7a1 1 0 00-1.6-.8L14 7.5v-1A2.5 2.5 0 0011.5 4h-7zM14 8.75l3-2.25v7l-3-2.25v-2.5zM9.24 16A4.48 4.48 0 005.5 9a4.5 4.5 0 00-3.94 6.68l-.54 1.8c-.1.3.2.6.5.5l1.8-.54A4.48 4.48 0 009.24 16zM3.5 15a.5.5 0 01-.35-.85.5.5 0 01.35-.15h2a.5.5 0 010 1h-2zM3 12.5c0-.28.22-.5.5-.5h4a.5.5 0 010 1h-4a.5.5 0 01-.5-.5z"/></svg>