<svg width="32" height="32" viewBox="0 0 32 32" xmlns="http://www.w3.org/2000/svg"><path d="M20.5 10A4.5 4.5 0 0 0 16 5.5H6.5A4.5 4.5 0 0 0 2 10v6.27a9 9 0 0 1 14.58 10.19A4.5 4.5 0 0 0 20.5 22V10Zm1.5 9.8 5.01 3.76c1.23.92 2.99.05 2.99-1.5V9.94a1.87 1.87 0 0 0-2.99-1.49L22 12.2v7.6Zm-6 2.7a7.5 7.5 0 0 1-11 6.63l-3.37.86a.5.5 0 0 1-.61-.6L1.87 26A7.5 7.5 0 1 1 16 22.5Zm-10.25-2a.75.75 0 0 0 0 1.5h5.5a.75.75 0 0 0 0-1.5h-5.5ZM5 24.25c0 .41.34.75.75.75h3.5a.75.75 0 0 0 0-1.5h-3.5a.75.75 0 0 0-.75.75Z"/></svg>