<svg width="28" height="28" viewBox="0 0 28 28" xmlns="http://www.w3.org/2000/svg"><path d="M5.25 5.5A3.25 3.25 0 002 8.75v5.65c.44-.48.95-.9 1.5-1.25v-4.4C3.5 7.78 4.28 7 5.25 7h10.5c.97 0 1.75.78 1.75 1.75v10.5c0 .97-.78 1.75-1.75 1.75h-.9c-.1.52-.27 1.02-.47 1.5h1.37c1.8 0 3.25-1.46 3.25-3.25v-1.58l4.54 3.11c.83.57 1.96-.02 1.96-1.03V8.25c0-1-1.13-1.6-1.96-1.03L19 10.32V8.76c0-1.8-1.45-3.25-3.25-3.25H5.25zM19 15.85v-3.7l5-3.43v10.56l-5-3.43zm-5 3.65a6.5 6.5 0 01-9.65 5.69l-2.71.79a.5.5 0 01-.62-.62l.8-2.71A6.5 6.5 0 1114 19.5zM5 18a.5.5 0 000 1h5a.5.5 0 100-1H5zm-.5 2.5c0 .28.22.5.5.5h2.5a.5.5 0 000-1H5a.5.5 0 00-.5.5z"/></svg>