<svg width="48" height="48" viewBox="0 0 48 48" xmlns="http://www.w3.org/2000/svg"><path d="M10.25 9A6.25 6.25 0 004 15.25v8.44c.73-.87 1.57-1.65 2.5-2.3v-6.14a3.75 3.75 0 013.75-3.75h17.5a3.75 3.75 0 013.75 3.75v17.5a3.75 3.75 0 01-3.75 3.75H26.2c-.33.88-.74 1.72-1.24 2.5h2.79C31.2 39 34 36.2 34 32.75v-2.44l5.96 4.66A2.5 2.5 0 0044 33V15a2.5 2.5 0 00-4.04-1.97L34 17.7v-2.44C34 11.8 31.2 9 27.75 9h-17.5zM34 20.86L41.5 15v18L34 27.14v-6.28zM25 32a11 11 0 10-20.66 5.26l-1.3 4.52a.96.96 0 001.18 1.18l4.52-1.3A11 11 0 0025 32zm-15-3h8a1 1 0 110 2h-8a1 1 0 110-2zm-1 5a1 1 0 011-1h5a1 1 0 110 2h-5a1 1 0 01-1-1z"/></svg>