<svg width="24" height="24" viewBox="0 0 24 24" xmlns="http://www.w3.org/2000/svg"><path d="M13.75 4.5c1.8 0 3.25 1.46 3.25 3.25v.17l3.86-2.31a.75.75 0 011.14.64v11.5c0 .58-.64.94-1.14.64L17 16.07v.18c0 1.8-1.46 3.25-3.25 3.25h-1.48c.25-.47.43-.97.56-1.5h.92c.97 0 1.75-.78 1.75-1.75v-8.5c0-.97-.78-1.75-1.75-1.75h-8.5c-.97 0-1.75.78-1.75 1.75v2.98c-.55.29-1.06.65-1.5 1.08V7.75C2 5.95 3.46 4.5 5.25 4.5h8.5zm6.75 3.07L17 9.67v4.66l3.5 2.1V7.57zM10 12.26A5.48 5.48 0 006.5 11a5.5 5.5 0 00-4.81 8.17l-.67 2.19a.5.5 0 00.63.62l2.18-.67A5.5 5.5 0 0010 12.25zM4.5 16a.5.5 0 110-1h4a.5.5 0 110 1h-4zm2 2h-2a.5.5 0 110-1h2a.5.5 0 110 1z"/></svg>