<svg width="20" height="20" viewBox="0 0 20 20" xmlns="http://www.w3.org/2000/svg"><path d="M5.67 17h7.84c.95 0 1.82-.39 2.45-1.01l.02-.02A3.49 3.49 0 0 0 17 13.5V5.67c.63.77 1 1.76 1 2.83v5a4.5 4.5 0 0 1-4.5 4.5h-5a4.48 4.48 0 0 1-2.83-1Zm9.6-14.27c.47.47.73 1.1.73 1.77v9a2.5 2.5 0 0 1-2.5 2.5h-9A2.5 2.5 0 0 1 2 13.5v-9A2.5 2.5 0 0 1 4.5 2h9c.66 0 1.3.26 1.77.73ZM4.5 3h-.14A1.5 1.5 0 0 0 3 4.5V6h3V3H4.5ZM11 3H7v3h4V3Zm4 1.5v-.14A1.5 1.5 0 0 0 13.5 3H12v3h3V4.5ZM7 7v4h4V7H7Zm8 0h-3v4h3V7Zm-8 5v3h4v-3H7Zm8 0h-3v3H13.64A1.5 1.5 0 0 0 15 13.5V12ZM3.5 14.61c.27.25.63.39 1 .39H6v-3H3V13.64c.04.38.22.72.5.97ZM3 7v4h3V7H3Z"/></svg>