<svg width="20" height="20" viewBox="0 0 20 20" xmlns="http://www.w3.org/2000/svg"><path d="M13.5 3.25c.3 0 .59.2.7.5l3.64 10.5a.75.75 0 0 1-1.41.5l-.78-2.25h-4.59l-.86 2.27a.75.75 0 1 1-1.4-.54l3.98-10.5c.11-.3.4-.48.71-.48ZM11.62 11h3.5l-1.68-4.8-1.82 4.8ZM4.9 8.94a2.8 2.8 0 0 0-1.07.23.75.75 0 0 1-.67-1.34 4.26 4.26 0 0 1 1.69-.4c.62-.02 1.34.08 1.98.4 1.42.71 1.42 2.12 1.42 2.63v4.04a.75.75 0 0 1-1.5.06c-.87.53-1.89.85-2.94.57a2.61 2.61 0 0 1-.73-4.75c.78-.52 1.7-.66 2.53-.61a6 6 0 0 1 1.1.16.97.97 0 0 0-.55-.76c-.35-.18-.8-.25-1.26-.23Zm1.85 2.56a4.51 4.51 0 0 0-1.22-.24c-.63-.03-1.2.09-1.62.36-.92.62-.64 1.8.28 2.06.75.2 1.67-.19 2.56-1V11.5Z"/></svg>