<svg width="16" height="16" viewBox="0 0 16 16" xmlns="http://www.w3.org/2000/svg"><path d="M14 2.5a.5.5 0 0 0-1 0v11a.5.5 0 0 0 1 0v-11Zm-12 9A2.5 2.5 0 0 0 4.5 14h5a.5.5 0 0 0 .5-.5V11a1.5 1.5 0 0 1-1.41-1H6V6h2.59A1.5 1.5 0 0 1 10 5V2.5a.5.5 0 0 0-.5-.5h-5A2.5 2.5 0 0 0 2 4.5v7ZM6 3h3v2H6V3Zm3 8v2H6v-2h3Zm-6-1V6h2v4H3Zm0-5v-.5C3 3.67 3.67 3 4.5 3H5v2H3Zm0 6h2v2h-.5A1.5 1.5 0 0 1 3 11.5V11Zm6.65-1.15a.5.5 0 0 1 0-.7l.64-.65H8.5a.5.5 0 0 1 0-1h1.8l-.65-.65a.5.5 0 1 1 .7-.7l1.5 1.5c.2.2.2.5 0 .7l-1.5 1.5a.5.5 0 0 1-.7 0Z"/></svg>