<svg width="16" height="16" viewBox="0 0 16 16" xmlns="http://www.w3.org/2000/svg"><path d="M14 2.5a.5.5 0 0 0-1 0v11a.5.5 0 0 0 1 0v-11ZM10 11v2.5a.5.5 0 0 1-.5.5H6v-3h4Zm-.5-9c.28 0 .5.22.5.5V5H6V2h3.5ZM6 6h2.59a1.5 1.5 0 0 0-.09.5 1.5 1.5 0 1 0 0 3c0 .17.03.34.09.5H6V6ZM5 5V2h-.5A2.5 2.5 0 0 0 2 4.5V5h3Zm-3 5h3V6H2v4Zm0 1.5V11h3v3h-.5A2.5 2.5 0 0 1 2 11.5Zm7.65-1.65a.5.5 0 0 1 0-.7l.64-.65H8.5a.5.5 0 0 1 0-1h1.8l-.65-.65a.5.5 0 1 1 .7-.7l1.5 1.5c.2.2.2.5 0 .7l-1.5 1.5a.5.5 0 0 1-.7 0Z"/></svg>