<svg width="20" height="20" viewBox="0 0 20 20" xmlns="http://www.w3.org/2000/svg"><path d="M3 9.02v5.16A3 3 0 0 0 6 17h4.55a2 2 0 0 0 1.24-.59l4.62-4.62.12-.13a2 2 0 0 0 .47-1.28V5.82A3 3 0 0 0 14 3H9.46c.26.3.42.64.5 1h4.19A2 2 0 0 1 16 6v4h-3.18A3 3 0 0 0 10 13v3H5.85A2 2 0 0 1 4 14V9.81a1.82 1.82 0 0 1-.61-.4L3 9ZM13 11h2.78a1 1 0 0 1-.07.09l-4.62 4.62-.09.07V12.85A2 2 0 0 1 13 11ZM8.54 3.39 6.6 1.46a1.5 1.5 0 0 0-2.4.4L3.4 3.51a1 1 0 0 1-.57.5l-1.1.39a1 1 0 0 0-.39 1.65L2.3 7 1 8.3V9h.7L3 7.7l.95.95a1 1 0 0 0 1.65-.38l.38-1.1a1 1 0 0 1 .5-.57l1.65-.8a1.5 1.5 0 0 0 .4-2.41Z"/></svg>