<svg width="24" height="24" viewBox="0 0 24 24" xmlns="http://www.w3.org/2000/svg"><path d="M3.75 4a.75.75 0 000 1.5h16.5a.75.75 0 000-1.5H3.75zM3 8.25c0-.41.34-.75.75-.75h2a.75.75 0 010 1.5h-2A.75.75 0 013 8.25zm14.5 0c0-.41.34-.75.75-.75h2a.75.75 0 010 1.5h-2a.75.75 0 01-.75-.75zM3.75 11a.75.75 0 000 1.5h2a.75.75 0 000-1.5h-2zm13.75.75c0-.41.34-.75.75-.75h2a.75.75 0 010 1.5h-2a.75.75 0 01-.75-.75zM3.75 14.5a.75.75 0 000 1.5h2a.75.75 0 000-1.5h-2zm13.75.75c0-.41.34-.75.75-.75h2a.75.75 0 010 1.5h-2a.75.75 0 01-.75-.75zM3 18.75c0-.41.34-.75.75-.75h16.5a.75.75 0 010 1.5H3.75a.75.75 0 01-.75-.75zM9.5 11a2.5 2.5 0 015 0v4.75a.75.75 0 001.5 0V11a4 4 0 00-8 0v4.75a.75.75 0 001.5 0V11z"/></svg>