<svg width="24" height="24" viewBox="0 0 24 24" xmlns="http://www.w3.org/2000/svg"><path d="M3.75 4a.75.75 0 0 0 0 1.5h16.5a.75.75 0 0 0 0-1.5H3.75ZM3 8.25c0-.41.34-.75.75-.75h2a.75.75 0 0 1 0 1.5h-2A.75.75 0 0 1 3 8.25Zm14.5 0c0-.41.34-.75.75-.75h2a.75.75 0 0 1 0 1.5h-2a.75.75 0 0 1-.75-.75ZM3.75 11a.75.75 0 0 0 0 1.5h2a.75.75 0 0 0 0-1.5h-2Zm13.75.75c0-.41.34-.75.75-.75h2a.75.75 0 0 1 0 1.5h-2a.75.75 0 0 1-.75-.75ZM3.75 14.5a.75.75 0 0 0 0 1.5h2a.75.75 0 0 0 0-1.5h-2Zm13.75.75c0-.41.34-.75.75-.75h2a.75.75 0 0 1 0 1.5h-2a.75.75 0 0 1-.75-.75ZM3 18.75c0-.41.34-.75.75-.75h16.5a.75.75 0 0 1 0 1.5H3.75a.75.75 0 0 1-.75-.75ZM9.5 11a2.5 2.5 0 0 1 5 0v4.75a.75.75 0 0 0 1.5 0V11a4 4 0 0 0-8 0v4.75a.75.75 0 0 0 1.5 0V11Z"/></svg>