<svg width="24" height="24" viewBox="0 0 24 24" xmlns="http://www.w3.org/2000/svg"><path d="M3.75 3.75a1 1 0 000 2h16.5a1 1 0 100-2H3.75zm-1 4.5a1 1 0 011-1h2a1 1 0 010 2h-2a1 1 0 01-1-1zm14.5 0a1 1 0 011-1h2a1 1 0 110 2h-2a1 1 0 01-1-1zm-13.5 2.5a1 1 0 100 2h2a1 1 0 100-2h-2zm13.5 1a1 1 0 011-1h2a1 1 0 110 2h-2a1 1 0 01-1-1zm-13.5 2.5a1 1 0 100 2h2a1 1 0 100-2h-2zm13.5 1a1 1 0 011-1h2a1 1 0 110 2h-2a1 1 0 01-1-1zm-14.5 3.5a1 1 0 011-1h16.5a1 1 0 110 2H3.75a1 1 0 01-1-1zm7-7.75a2.25 2.25 0 014.5 0v4.75a1 1 0 102 0V11a4.25 4.25 0 00-8.5 0v4.75a1 1 0 102 0V11z"/></svg>