<svg width="20" height="20" viewBox="0 0 20 20" xmlns="http://www.w3.org/2000/svg"><path d="M2.75 3.5c0-.41.34-.75.75-.75h13a.75.75 0 010 1.5h-13a.75.75 0 01-.75-.75zm0 12c0-.41.34-.75.75-.75h13a.75.75 0 010 1.5h-13a.75.75 0 01-.75-.75zm.75-9.75a.75.75 0 000 1.5h1a.75.75 0 000-1.5h-1zm11.25.75c0-.41.34-.75.75-.75h1a.75.75 0 010 1.5h-1a.75.75 0 01-.75-.75zM3.5 8.75a.75.75 0 000 1.5h1a.75.75 0 000-1.5h-1zm11.25.75c0-.41.34-.75.75-.75h1a.75.75 0 010 1.5h-1a.75.75 0 01-.75-.75zM3.5 11.75a.75.75 0 000 1.5h1a.75.75 0 000-1.5h-1zm11.25.75c0-.41.34-.75.75-.75h1a.75.75 0 010 1.5h-1a.75.75 0 01-.75-.75zm-7-4a2.25 2.25 0 014.5 0v5a.75.75 0 001.5 0v-5a3.75 3.75 0 10-7.5 0v5a.75.75 0 001.5 0v-5z"/></svg>