<svg width="24" height="24" viewBox="0 0 24 24" xmlns="http://www.w3.org/2000/svg"><path d="M6.25 2C5.01 2 4 3 4 4.25v15.5C4 20.99 5 22 6.25 22h11.5c1.24 0 2.25-1 2.25-2.25V4.25C20 3.01 19 2 17.75 2H6.25ZM5.5 4.25c0-.41.34-.75.75-.75h11.5c.41 0 .75.34.75.75v15.5c0 .41-.34.75-.75.75H6.25a.75.75 0 0 1-.75-.75V4.25ZM9 6.5a.5.5 0 0 0-.5.5v1.25a.75.75 0 0 1-1.5 0V7c0-1.1.9-2 2-2h1.25a.75.75 0 0 1 0 1.5H9Zm0 11a.5.5 0 0 1-.5-.5v-1.25a.75.75 0 0 0-1.5 0V17c0 1.1.9 2 2 2h1.25a.75.75 0 0 0 0-1.5H9ZM15.5 7a.5.5 0 0 0-.5-.5h-1.25a.75.75 0 0 1 0-1.5H15a2 2 0 0 1 2 2v1.25a.75.75 0 0 1-1.5 0V7ZM15 17.5a.5.5 0 0 0 .5-.5v-1.25a.75.75 0 0 1 1.5 0V17a2 2 0 0 1-2 2h-1.25a.75.75 0 0 1 0-1.5H15Z"/></svg>