<svg width="20" height="20" viewBox="0 0 20 20" xmlns="http://www.w3.org/2000/svg"><path d="M6 2a2 2 0 0 0-2 2v12c0 1.1.9 2 2 2h8a2 2 0 0 0 2-2V4a2 2 0 0 0-2-2H6ZM5 4a1 1 0 0 1 1-1h8a1 1 0 0 1 1 1v12a1 1 0 0 1-1 1H6a1 1 0 0 1-1-1V4Zm2.5 1a.5.5 0 0 0-.5.5v1a.5.5 0 0 1-1 0v-1C6 4.67 6.67 4 7.5 4h1a.5.5 0 0 1 0 1h-1Zm0 10a.5.5 0 0 1-.5-.5v-1a.5.5 0 0 0-1 0v1c0 .83.67 1.5 1.5 1.5h1a.5.5 0 0 0 0-1h-1ZM13 5.5a.5.5 0 0 0-.5-.5h-1a.5.5 0 0 1 0-1h1c.83 0 1.5.67 1.5 1.5v1a.5.5 0 0 1-1 0v-1Zm-.5 9.5a.5.5 0 0 0 .5-.5v-1a.5.5 0 0 1 1 0v1c0 .83-.67 1.5-1.5 1.5h-1a.5.5 0 0 1 0-1h1Z"/></svg>