<svg width="16" height="16" viewBox="0 0 16 16" xmlns="http://www.w3.org/2000/svg"><path d="M8.8 2.1a.9.9 0 0 0-1.6 0L5.66 5.18l-3.4.5a.9.9 0 0 0-.5 1.53l2.46 2.4L3.65 13a.9.9 0 0 0 1.3.95l.92-.48a5.49 5.49 0 0 1-.46-.89l-.74.39.35-2.02a5.58 5.58 0 0 1 .14-1.76.9.9 0 0 0-.19-.26l-2.35-2.3 3.25-.46a.9.9 0 0 0 .68-.5L8 2.73l1.2 2.42a5.5 5.5 0 0 1 1.04-.14L8.81 2.1ZM10.5 15a4.5 4.5 0 1 0 0-9 4.5 4.5 0 0 0 0 9Zm-.9-6.4-.9.9h1.55A2.75 2.75 0 0 1 13 12.25v.25a.5.5 0 0 1-1 0v-.25c0-.97-.78-1.75-1.75-1.75H8.71l.9.9a.5.5 0 0 1-.71.7l-1.76-1.75a.5.5 0 0 1 0-.7L8.9 7.9a.5.5 0 1 1 .7.7Z"/></svg>