<svg width="24" height="24" viewBox="0 0 24 24" xmlns="http://www.w3.org/2000/svg"><path d="M10.79 3.1c.5-1 1.92-1 2.42 0l2.36 4.78 5.27.77c1.1.16 1.55 1.52.75 2.3l-.9.88a6.5 6.5 0 0 0-9.44 7.43l-3.97 2.08a1.35 1.35 0 0 1-1.96-1.42l.9-5.25-3.81-3.72c-.8-.78-.36-2.14.75-2.3l5.27-.77 2.36-4.78ZM23 17.5a5.5 5.5 0 1 1-11 0 5.5 5.5 0 0 1 11 0Zm-6.65-2.15a.5.5 0 0 0-.7-.7l-1.5 1.5a.5.5 0 0 0 0 .7l1.5 1.5a.5.5 0 0 0 .7-.7l-.64-.65h2.04c1.24 0 2.25 1 2.25 2.25v.25a.5.5 0 0 0 1 0v-.25c0-1.8-1.46-3.25-3.25-3.25h-2.04l.64-.65Z"/></svg>