<svg width="20" height="20" viewBox="0 0 20 20" xmlns="http://www.w3.org/2000/svg"><path d="M4.15 5.85a.5.5 0 0 1 0-.7l2-2c.2-.2.5-.2.7 0l2 2a.5.5 0 1 1-.7.7L7 4.71V6.5a.5.5 0 0 1-1 0V4.7L4.85 5.86a.5.5 0 0 1-.7 0Zm8 0a.5.5 0 0 1 0-.7l2-2c.2-.2.5-.2.7 0l2 2a.5.5 0 0 1-.7.7L15 4.71V16.5a.5.5 0 0 1-1 0V4.7l-1.15 1.15a.5.5 0 0 1-.7 0ZM2 10.5c0-.28.22-.5.5-.5H6V8.5a.5.5 0 0 1 1 0V10h3.5a.5.5 0 0 1 0 1h-8a.5.5 0 0 1-.5-.5ZM3.5 17a.5.5 0 0 1-.5-.5v-4c0-.28.22-.5.5-.5h1.25c1.05 0 2.35.2 3.4.88A4.04 4.04 0 0 1 10 16.5a.5.5 0 0 1-1 0c0-1.43-.6-2.27-1.4-2.78A5.43 5.43 0 0 0 4.76 13H4v3.5a.5.5 0 0 1-.5.5Z"/></svg>