<svg width="20" height="20" viewBox="0 0 20 20" xmlns="http://www.w3.org/2000/svg"><path d="M4.22 6.28a.75.75 0 0 1 0-1.06l2-2a.75.75 0 0 1 1.06 0l2 2a.75.75 0 0 1-1.06 1.06l-.72-.72v.94a.75.75 0 0 1-1.5 0v-.94l-.72.72c-.3.3-.77.3-1.06 0Zm7.5 0a.75.75 0 0 1 0-1.06l2-2c.3-.3.77-.3 1.06 0l2 2a.75.75 0 0 1-1.06 1.06L15 5.56v10.69a.75.75 0 0 1-1.5 0V5.56l-.72.72c-.3.3-.77.3-1.06 0ZM2 10c0-.41.34-.75.75-.75H6v-.5a.75.75 0 0 1 1.5 0v.5h3.25a.75.75 0 0 1 0 1.5h-8A.75.75 0 0 1 2 10Zm1.75 7a.75.75 0 0 1-.75-.75v-4c0-.41.34-.75.75-.75H5c1.08 0 2.43.21 3.53.92a4.3 4.3 0 0 1 1.97 3.83.75.75 0 0 1-1.5 0c0-1.34-.55-2.1-1.28-2.57-.77-.5-1.8-.68-2.72-.68h-.5v3.25c0 .41-.34.75-.75.75Z"/></svg>