<svg width="24" height="24" viewBox="0 0 24 24" xmlns="http://www.w3.org/2000/svg"><path d="M15.5 2.05A6.55 6.55 0 0 0 9.06 9.7c.02.1-.02.2-.07.25l-6.24 6.23c-.51.52-.8 1.22-.8 1.95v2.17c0 .97.78 1.75 1.75 1.75h2.5c.97 0 1.75-.78 1.75-1.75v-1.25H9.7c.69 0 1.25-.56 1.25-1.25v-1.75h.33c.1-.16.23-.3.38-.42L10 14a1.75 1.75 0 0 1 0-2.48l2-2A1.75 1.75 0 0 1 14.98 11H17a6 6 0 0 1 3.8 1.35 6.47 6.47 0 0 0-5.3-10.3Zm1.5 3.7a1.25 1.25 0 1 1 0 2.5 1.25 1.25 0 0 1 0-2.5Zm-3.22 5.53a.75.75 0 1 0-1.06-1.06l-2 2c-.3.3-.3.77 0 1.06l2 2a.75.75 0 1 0 1.06-1.06l-.72-.72H17a3.5 3.5 0 1 1-3.5 3.5.75.75 0 0 0-1.5 0 5 5 0 1 0 5-5h-3.94l.72-.72Z"/></svg>