<svg width="24" height="24" viewBox="0 0 24 24" xmlns="http://www.w3.org/2000/svg"><path d="M17 8.25a1.25 1.25 0 100-2.5 1.25 1.25 0 000 2.5zm-8.05.35a6.55 6.55 0 016.55-6.55 6.47 6.47 0 015.3 10.3 6.01 6.01 0 00-1.28-.8 4.97 4.97 0 00-4.02-8 5.05 5.05 0 00-4.96 5.9c.1.55-.07 1.14-.49 1.56l-6.23 6.23c-.24.24-.37.56-.37.89v2.17c0 .14.11.25.25.25h2.5c.14 0 .25-.11.25-.25v-1.5c0-.7.56-1.25 1.25-1.25h1.75V15.8c0-.65.5-1.18 1.13-1.24l1.08 1.07c-.15.12-.28.26-.38.42h-.33v1.75c0 .69-.56 1.25-1.25 1.25H7.95v1.25c0 .97-.78 1.75-1.75 1.75H3.7c-.97 0-1.75-.78-1.75-1.75v-2.17c0-.73.29-1.43.8-1.95L9 9.95a.27.27 0 00.07-.25 6.39 6.39 0 01-.11-1.1zm4.83 2.68a.75.75 0 10-1.06-1.06l-2 2c-.3.3-.3.77 0 1.06l2 2a.75.75 0 101.06-1.06l-.72-.72H17a3.5 3.5 0 11-3.5 3.5.75.75 0 00-1.5 0 5 5 0 105-5h-3.94l.72-.72z"/></svg>