<svg width="24" height="24" viewBox="0 0 24 24" xmlns="http://www.w3.org/2000/svg"><path d="M6.25 3A3.25 3.25 0 003 6.25v11.5C3 19.55 4.46 21 6.25 21h5.25v-1.5H6.25c-.97 0-1.75-.78-1.75-1.75V8.5h15v2.08c.52.05 1.03.13 1.5.25V6.25C21 4.45 19.54 3 17.75 3H6.25zM19.5 7h-15v-.75c0-.97.78-1.75 1.75-1.75h11.5c.97 0 1.75.78 1.75 1.75V7zm-4.84 5.48c.9-.3 2.07-.48 3.34-.48s2.45.18 3.34.48c.44.15.84.35 1.13.59.3.24.53.55.53.93s-.23.7-.53.93c-.3.24-.7.44-1.13.59-.9.3-2.07.48-3.34.48s-2.45-.18-3.34-.48a3.79 3.79 0 01-1.13-.59c-.3-.24-.53-.55-.53-.93s.23-.7.53-.93c.3-.24.7-.44 1.13-.59zM13 21v-4.6c.38.23.8.4 1.18.54 1.08.37 2.43.56 3.82.56 1.39 0 2.74-.2 3.82-.56.39-.13.8-.3 1.18-.55V21c0 .43-.26.75-.55.98-.29.22-.68.4-1.11.55-.88.3-2.06.47-3.34.47-1.28 0-2.46-.17-3.34-.47a3.75 3.75 0 01-1.11-.55c-.29-.23-.55-.55-.55-.98z"/></svg>