<svg width="32" height="32" viewBox="0 0 32 32" xmlns="http://www.w3.org/2000/svg"><path d="M18 11a3.5 3.5 0 1 1 7 0 3.5 3.5 0 0 1-7 0Zm3.5-1.5a1.5 1.5 0 1 0 0 3 1.5 1.5 0 0 0 0-3ZM3 7.5A4.5 4.5 0 0 1 7.5 3h17A4.5 4.5 0 0 1 29 7.5v17a4.5 4.5 0 0 1-4.5 4.5h-17A4.5 4.5 0 0 1 3 24.5v-17ZM7.5 5A2.5 2.5 0 0 0 5 7.5v17c0 .29.05.57.14.83l9.1-9.1a2.5 2.5 0 0 1 3.53 0l9.1 9.1c.08-.26.13-.54.13-.83v-17A2.5 2.5 0 0 0 24.5 5h-17Zm18 21.8-9.15-9.15a.5.5 0 0 0-.7 0L6.5 26.79c.3.14.64.21 1 .21h17c.36 0 .7-.07 1-.2Z"/></svg>