<svg width="48" height="48" viewBox="0 0 48 48" xmlns="http://www.w3.org/2000/svg"><path d="M26 17.5a4.5 4.5 0 1 1 9 0 4.5 4.5 0 0 1-9 0Zm4.5-2a2 2 0 1 0 0 4 2 2 0 0 0 0-4ZM6 12.25C6 8.8 8.8 6 12.25 6h23.5C39.2 6 42 8.8 42 12.25v23.5C42 39.2 39.2 42 35.75 42h-23.5A6.25 6.25 0 0 1 6 35.75v-23.5Zm6.25-3.75a3.75 3.75 0 0 0-3.75 3.75v23.5c0 .66.17 1.29.47 1.83l12.56-12.55a3.5 3.5 0 0 1 4.95 0l12.55 12.55c.3-.54.47-1.17.47-1.83v-23.5a3.75 3.75 0 0 0-3.75-3.75h-23.5Zm24.9 30.73L24.7 26.8a1 1 0 0 0-1.42 0L10.85 39.23c.44.17.9.27 1.4.27h23.5c.5 0 .96-.1 1.4-.27Z"/></svg>