<svg width="16" height="16" viewBox="0 0 16 16" xmlns="http://www.w3.org/2000/svg"><path d="M7.12 2.06a6.13 6.13 0 0 1 1.76 0 .75.75 0 1 1-.22 1.49c-.43-.07-.89-.07-1.32 0a.75.75 0 0 1-.22-1.49Zm3.4 1.28a.75.75 0 0 1 1.06-.16c.47.35.89.77 1.24 1.25a.75.75 0 1 1-1.2.89 4.53 4.53 0 0 0-.94-.94.75.75 0 0 1-.15-1.04Zm-5.05 0c.25.33.18.8-.15 1.04-.36.27-.67.58-.93.94a.75.75 0 1 1-1.2-.9c.34-.47.76-.89 1.24-1.24a.75.75 0 0 1 1.04.16Zm7.62 3.15c.4-.06.79.22.85.63.08.58.08 1.18 0 1.76a.75.75 0 1 1-1.49-.22c.07-.43.07-.9 0-1.32a.75.75 0 0 1 .64-.85Zm-10.17 0c.4.06.69.44.63.85-.06.43-.06.89 0 1.32a.75.75 0 1 1-1.49.22 6.13 6.13 0 0 1 0-1.76c.06-.41.45-.7.86-.63Zm9.74 4.04c.34.24.4.71.16 1.04-.35.48-.77.9-1.24 1.25a.75.75 0 0 1-.9-1.2c.36-.27.67-.58.94-.94a.75.75 0 0 1 1.04-.15Zm-9.32 0a.75.75 0 0 1 1.05.15c.26.36.57.67.93.94a.75.75 0 1 1-.9 1.2c-.47-.35-.89-.77-1.24-1.25a.75.75 0 0 1 .16-1.04Zm3.15 2.55c.06-.4.44-.69.85-.63.43.07.9.07 1.32 0a.75.75 0 0 1 .22 1.49c-.58.08-1.18.08-1.76 0a.75.75 0 0 1-.63-.86Z"/></svg>