<svg width="16" height="16" viewBox="0 0 16 16" xmlns="http://www.w3.org/2000/svg"><path d="M6.83 2.11a6.15 6.15 0 0 1 2.34 0 .5.5 0 0 1-.2.99 5.14 5.14 0 0 0-1.95 0 .5.5 0 1 1-.19-.99Zm3.81 1.04a.5.5 0 0 1 .7-.14c.65.44 1.21 1 1.65 1.66a.5.5 0 0 1-.83.55 5.03 5.03 0 0 0-1.38-1.38.5.5 0 0 1-.14-.7Zm-5.28 0a.5.5 0 0 1-.14.7c-.54.36-1.01.83-1.38 1.37a.5.5 0 0 1-.83-.55C3.45 4 4.01 3.45 4.67 3a.5.5 0 0 1 .69.14Zm7.94 3.29a.5.5 0 0 1 .59.39c.15.76.15 1.58 0 2.34a.5.5 0 1 1-.99-.2c.13-.62.13-1.32 0-1.95a.5.5 0 0 1 .4-.58Zm-10.6 0a.5.5 0 0 1 .4.58 5.14 5.14 0 0 0 0 1.96.5.5 0 1 1-.99.19 6.15 6.15 0 0 1 0-2.34.5.5 0 0 1 .6-.4Zm10.15 4.2c.23.15.3.46.14.7-.44.65-1 1.21-1.66 1.65a.5.5 0 0 1-.55-.83 5.03 5.03 0 0 0 1.38-1.38.5.5 0 0 1 .7-.14Zm-9.7 0a.5.5 0 0 1 .7.14c.36.54.83 1.01 1.37 1.38a.5.5 0 1 1-.55.83c-.66-.44-1.22-1-1.66-1.66a.5.5 0 0 1 .14-.69Zm3.29 2.66a.5.5 0 0 1 .58-.4c.63.13 1.33.13 1.96 0a.5.5 0 0 1 .2.99c-.77.15-1.6.15-2.35 0a.5.5 0 0 1-.4-.6Z"/></svg>