<svg width="20" height="20" viewBox="0 0 20 20" xmlns="http://www.w3.org/2000/svg"><path d="M8.7 2.1a8.18 8.18 0 0 1 2.6 0 .75.75 0 0 1-.24 1.49 6.68 6.68 0 0 0-2.12 0A.75.75 0 1 1 8.7 2.1ZM6.39 3.68c.24.34.16.8-.18 1.05-.57.41-1.08.92-1.5 1.5a.75.75 0 0 1-1.21-.88A8.04 8.04 0 0 1 5.34 3.5a.75.75 0 0 1 1.05.17Zm7.22 0a.75.75 0 0 1 1.05-.17 8.04 8.04 0 0 1 1.84 1.84.75.75 0 0 1-1.22.87 6.54 6.54 0 0 0-1.5-1.5.75.75 0 0 1-.17-1.04ZM2.97 8.07c.4.08.68.46.62.87a6.68 6.68 0 0 0 0 2.12.75.75 0 0 1-1.48.24 8.19 8.19 0 0 1 0-2.6c.06-.41.45-.69.86-.62Zm14.06 0c.41-.06.8.22.86.63.14.85.14 1.75 0 2.6a.75.75 0 0 1-1.48-.24c.12-.69.12-1.43 0-2.12-.06-.4.21-.8.62-.86ZM3.67 13.62a.75.75 0 0 1 1.05.18c.41.57.92 1.08 1.5 1.5a.75.75 0 1 1-.88 1.21 8.04 8.04 0 0 1-1.84-1.84.75.75 0 0 1 .17-1.05Zm12.66 0c.34.25.41.71.17 1.05a8.04 8.04 0 0 1-1.84 1.84.75.75 0 0 1-.87-1.22 6.54 6.54 0 0 0 1.5-1.5.75.75 0 0 1 1.04-.17Zm-8.25 3.42c.07-.4.45-.68.86-.62.69.12 1.43.12 2.12 0a.75.75 0 0 1 .24 1.48c-.85.14-1.75.14-2.6 0a.75.75 0 0 1-.62-.86Z"/></svg>