<svg width="20" height="20" viewBox="0 0 20 20" xmlns="http://www.w3.org/2000/svg"><path d="M8.44 2.15a8.2 8.2 0 0 1 3.12 0 .5.5 0 0 1-.2.98 7.2 7.2 0 0 0-2.73 0 .5.5 0 0 1-.2-.98Zm5.31 1.34a.5.5 0 0 1 .7-.14 8.04 8.04 0 0 1 2.2 2.2.5.5 0 1 1-.83.56 7.04 7.04 0 0 0-1.93-1.93.5.5 0 0 1-.14-.7Zm-7.5 0a.5.5 0 0 1-.14.69A7.04 7.04 0 0 0 4.18 6.1a.5.5 0 0 1-.83-.56 8.04 8.04 0 0 1 2.2-2.2.5.5 0 0 1 .7.14ZM2.74 8.05a.5.5 0 0 1 .4.58 7.2 7.2 0 0 0 0 2.74.5.5 0 0 1-.99.2 8.2 8.2 0 0 1 0-3.13.5.5 0 0 1 .59-.4Zm14.52 0a.5.5 0 0 1 .59.39 8.2 8.2 0 0 1 0 3.12.5.5 0 1 1-.98-.2 7.2 7.2 0 0 0 0-2.73.5.5 0 0 1 .39-.58Zm-13.78 5.7a.5.5 0 0 1 .7.14 7.04 7.04 0 0 0 1.93 1.93.5.5 0 0 1-.56.83 8.04 8.04 0 0 1-2.2-2.2.5.5 0 0 1 .13-.7Zm13.03 0c.23.16.3.47.14.7a8.04 8.04 0 0 1-2.2 2.2.5.5 0 0 1-.56-.83 7.04 7.04 0 0 0 1.93-1.93.5.5 0 0 1 .7-.14Zm-8.46 3.51a.5.5 0 0 1 .58-.4c.89.18 1.85.18 2.74 0a.5.5 0 0 1 .19.99 8.2 8.2 0 0 1-3.12 0 .5.5 0 0 1-.4-.59Z"/></svg>