<svg width="20" height="20" viewBox="0 0 20 20" xmlns="http://www.w3.org/2000/svg"><path d="M5.75 3h8.5A2.75 2.75 0 0 1 17 5.75v4.67a2.81 2.81 0 0 1-1-.51V5.75C16 4.78 15.22 4 14.25 4h-8.5C4.78 4 4 4.78 4 5.75v8.5c0 .97.78 1.75 1.75 1.75h4.48c.1.35.22.68.38 1H5.75A2.75 2.75 0 0 1 3 14.25v-8.5A2.75 2.75 0 0 1 5.75 3Zm3.75 7h3.37c-.5.35-1 .5-1.52.5-.44 0-.8.2-1.04.5H9.5a.5.5 0 0 1 0-1ZM6.75 8a.75.75 0 1 0 0-1.5.75.75 0 0 0 0 1.5Zm.75 2.25a.75.75 0 1 1-1.5 0 .75.75 0 0 1 1.5 0Zm0 3a.75.75 0 1 1-1.5 0 .75.75 0 0 1 1.5 0ZM9 7.5c0-.28.22-.5.5-.5h4a.5.5 0 0 1 0 1h-4a.5.5 0 0 1-.5-.5ZM14.5 19c-.04 0-.08 0-.11-.02a5.67 5.67 0 0 1-1.76-.98c-.35-.3-.64-.63-.88-1a5.15 5.15 0 0 1-.75-2.64V11.87c0-.2.16-.37.35-.37 1.07 0 2.03-.46 2.9-1.39.07-.07.16-.11.25-.11s.18.04.24.11a3.89 3.89 0 0 0 2.9 1.39c.2 0 .36.17.36.38v2.48a5.15 5.15 0 0 1-.75 2.64c-.24.37-.53.7-.88 1a5.67 5.67 0 0 1-1.87 1Z"/></svg>