<svg width="48" height="48" viewBox="0 0 48 48" xmlns="http://www.w3.org/2000/svg"><path d="M6 12.25C6 8.8 8.8 6 12.25 6h23.5C39.2 6 42 8.8 42 12.25v12.57c-.75-.23-1.51-.55-2.28-.96-.67-.36-1.34-.8-2.03-1.3-1-.75-2.38-.75-3.38 0l-.06.04c-.15-.06-.32-.1-.5-.1h-13.5a1.25 1.25 0 1 0 0 2.5h9.09c-.84.2-1.68.3-2.5.3A2.83 2.83 0 0 0 24 28.12v2.38h-3.75a1.25 1.25 0 1 0 0 2.5H24v.9a12.86 12.86 0 0 0 2.65 8.1h-14.4A6.25 6.25 0 0 1 6 35.75v-23.5Zm11 3.5a2 2 0 1 0-4 0 2 2 0 0 0 4 0Zm0 8a2 2 0 1 0-4 0 2 2 0 0 0 4 0Zm-2 10a2 2 0 1 0 0-4 2 2 0 0 0 0 4Zm4-18c0 .69.56 1.25 1.25 1.25h13.5a1.25 1.25 0 1 0 0-2.5h-13.5c-.69 0-1.25.56-1.25 1.25Zm22.56 11.02a12.88 12.88 0 0 0 3.6.53c.47 0 .84.37.84.82v5.78c0 5.5-3.29 9.54-9.7 12.04a.84.84 0 0 1-.6 0 18.28 18.28 0 0 1-6.78-4.34c-.77-.85-1.4-1.76-1.86-2.75A11.44 11.44 0 0 1 26 33.9v-5.77c0-.46.37-.83.83-.83 2.96 0 5.85-1.04 8.67-3.14.3-.21.7-.21 1 0 .76.57 1.51 1.05 2.28 1.46.92.5 1.84.88 2.78 1.15Zm-7.25-4.21.09.12Z"/></svg>