<svg width="48" height="48" viewBox="0 0 48 48" xmlns="http://www.w3.org/2000/svg"><path d="M12.25 6A6.25 6.25 0 0 0 6 12.25v23.5C6 39.2 8.8 42 12.25 42h14.4a12.86 12.86 0 0 1-1.5-2.5h-12.9a3.75 3.75 0 0 1-3.75-3.75v-23.5a3.75 3.75 0 0 1 3.75-3.75h23.5a3.75 3.75 0 0 1 3.75 3.75v11.49l.22.12c.77.4 1.53.73 2.28.96V12.25C42 8.8 39.2 6 35.75 6h-23.5ZM42 26.9c1.05.27 2.1.4 3.17.4.46 0 .83.37.83.82v5.78c0 5.5-3.29 9.54-9.7 12.04a.84.84 0 0 1-.6 0 18.28 18.28 0 0 1-6.78-4.34 11.3 11.3 0 0 1-1.86-2.75A11.44 11.44 0 0 1 26 33.9v-5.77c0-.46.37-.83.83-.83 2.96 0 5.85-1.04 8.67-3.14.3-.21.7-.21 1 0a18.49 18.49 0 0 0 3 1.82 14.27 14.27 0 0 0 2.5.92ZM29.34 25c1.61-.4 3.25-1.17 4.9-2.4-.14-.06-.31-.1-.49-.1h-13.5a1.25 1.25 0 1 0 0 2.5h9.09ZM24 33v-2.5h-3.75a1.25 1.25 0 1 0 0 2.5H24Zm-7-17.25a2 2 0 1 1-4 0 2 2 0 0 1 4 0Zm0 8a2 2 0 1 1-4 0 2 2 0 0 1 4 0Zm-2 10a2 2 0 1 0 0-4 2 2 0 0 0 0 4Zm4-18c0-.69.56-1.25 1.25-1.25h13.5a1.25 1.25 0 1 1 0 2.5h-13.5c-.69 0-1.25-.56-1.25-1.25Z"/></svg>