<svg width="24" height="24" viewBox="0 0 24 24" xmlns="http://www.w3.org/2000/svg"><path d="M8.94 10l-4.78 4.78c-.42.42-.66 1-.66 1.6v.68L2.22 19.4c-.84 1.53.84 3.2 2.38 2.37l2.34-1.28h.69c.6 0 1.17-.24 1.6-.66L14 15.06l6.72 6.72a.75.75 0 001.06-1.06L3.28 2.22a.75.75 0 10-1.06 1.06L8.94 10zm4 4l-4.78 4.78a.75.75 0 01-.53.22h-.88a.75.75 0 00-.36.1l-2.51 1.36a.23.23 0 01-.16.04.26.26 0 01-.14-.08.26.26 0 01-.07-.14c-.01-.04-.01-.09.03-.16l1.37-2.51c.06-.11.1-.23.1-.36v-.88c0-.2.07-.39.21-.53L10 11.06 12.94 14zm5.55-.93c-.5.5-1.2.63-1.82.42l-6.16-6.16a1.75 1.75 0 01.42-1.82l.58-.58c.69-.69 1.8-.69 2.48 0H14l1.97-1.96a3.58 3.58 0 015.06 5.06L19.06 10l.01.01c.69.69.69 1.8 0 2.48l-.58.58z"/></svg>