<svg width="28" height="28" viewBox="0 0 28 28" xmlns="http://www.w3.org/2000/svg"><path d="M13 10.7V6.13a1.63 1.63 0 012.64-1.27l9.63 7.64c.97.77.97 2.24 0 3l-9.63 7.64A1.63 1.63 0 0113 21.87V17.3l-7.36 5.84A1.63 1.63 0 013 21.87V6.13a1.62 1.62 0 012.64-1.27L13 10.7zm0 4.69V12.6L4.7 6.03A.12.12 0 004.64 6c-.02 0-.04 0-.07.02a.13.13 0 00-.05.04l-.02.07v15.74c0 .03 0 .05.02.07l.05.04.07.02.06-.03 8.3-6.58zm1.7-9.36a.12.12 0 00-.06-.03c-.02 0-.04 0-.07.02a.13.13 0 00-.05.04l-.02.07v15.74l.02.07.05.04.07.02.06-.03 9.64-7.64a.42.42 0 000-.66L14.7 6.03z"/></svg>