<svg width="48" height="48" viewBox="0 0 48 48" xmlns="http://www.w3.org/2000/svg"><path d="M23.5 7.5A9 9 0 0017 22.73v.42c-1-.24-2-.26-2.95-.1a11.5 11.5 0 1120.13-2.28l-.3-.06-2.19-.47A9 9 0 0023.5 7.5zm-2 9a2 2 0 114 0v6c0 .59.41 1.1.99 1.22l6.44 1.39a3.25 3.25 0 012.45 4.03l-2.3 8.35c-.18.69-.77 1.2-1.48 1.27l-6.24.74c-.05 0-.12 0-.21-.07a.75.75 0 01-.27-.3c-1.43-3.08-5.1-6.42-12.29-9.73a2.84 2.84 0 013.68-1.77l3.55 1.3a1.25 1.25 0 001.68-1.17V16.5zm2-4.5a4.5 4.5 0 00-4.5 4.5v9.47l-1.87-.69a5.34 5.34 0 00-7.1 4.13c-.15.88.32 1.73 1.11 2.08 7.3 3.29 10.4 6.38 11.48 8.7a3.02 3.02 0 003.03 1.79l6.24-.73a4.25 4.25 0 003.6-3.1l2.3-8.34a5.75 5.75 0 00-4.33-7.15L28 21.5V16.5a4.5 4.5 0 00-4.5-4.5z"/></svg>