<svg width="32" height="32" viewBox="0 0 32 32" xmlns="http://www.w3.org/2000/svg"><path d="M16 5a6 6 0 00-4.88 9.5 5.5 5.5 0 00-2.12.37 8 8 0 1114.58-1.31c-.17-.05-.35-.1-.53-.13l-1.45-.28A5.99 5.99 0 0016 5zm-1 6a1 1 0 112 0v4c0 .48.34.9.81.98l4.57.89a2 2 0 011.55 2.49l-1.52 5.53a1 1 0 01-.88.73l-4.76.38h-.02a.17.17 0 01-.05-.08c-.78-2.15-2.68-4.74-7.6-6.56a2 2 0 012.68-1.21l1.83.77a1 1 0 001.4-.92v-7zm1-3a3 3 0 00-3 3v5.5l-.45-.2a4 4 0 00-5.4 2.65l-.1.33a1.5 1.5 0 00.97 1.82c4.74 1.65 6.22 3.92 6.8 5.5.3.82 1.11 1.48 2.11 1.4l4.76-.39a3 3 0 002.65-2.2l1.52-5.52a4 4 0 00-3.1-4.99L19 14.18V11a3 3 0 00-3-3z"/></svg>