<svg width="16" height="16" viewBox="0 0 16 16" xmlns="http://www.w3.org/2000/svg"><path d="m9.56 10.27 4.59 4.58a.5.5 0 0 0 .7-.7l-13-13a.5.5 0 1 0-.7.7l4.58 4.59-.08.15-2.8.94a.5.5 0 0 0-.2.82l2.14 2.15-2.64 2.65L2 14l.85-.15 2.65-2.64 2.15 2.14a.5.5 0 0 0 .82-.2l.94-2.8.15-.08Zm-.74-.74-.06.03a.5.5 0 0 0-.23.28l-.75 2.23-3.85-3.85 2.23-.75a.5.5 0 0 0 .28-.23l.03-.06 2.35 2.35Zm3.9-2.09-2.06 1.1.74.74 1.79-.96a1.5 1.5 0 0 0 .35-2.38l-3.48-3.5a1.5 1.5 0 0 0-2.39.36l-.95 1.8.73.73 1.1-2.06a.5.5 0 0 1 .8-.12l3.49 3.5a.5.5 0 0 1-.12.8Z"/></svg>