<svg width="20" height="20" viewBox="0 0 20 20" xmlns="http://www.w3.org/2000/svg"><path d="M8.5 3A2.5 2.5 0 0 0 6 5.5v4a2.5 2.5 0 0 0 5 0v-4A2.5 2.5 0 0 0 8.5 3ZM7 5.5a1.5 1.5 0 1 1 3 0v4a1.5 1.5 0 0 1-3 0v-4ZM3 12a1 1 0 1 0 0-2 1 1 0 0 0 0 2Zm12.5-9A2.5 2.5 0 0 0 13 5.5v3.7c.32-.08.66-.15 1-.18V5.5a1.5 1.5 0 0 1 3 0v4.1c.32.16.62.36.9.58.07-.22.1-.44.1-.68v-4A2.5 2.5 0 0 0 15.5 3Zm-1 16a4.5 4.5 0 1 1 0-9 4.5 4.5 0 0 1 0 9Zm-2.35-4.85a.5.5 0 0 0-.15.35.5.5 0 0 0 .15.35l2 2a.5.5 0 0 0 .7-.7L13.71 15h2.79a.5.5 0 0 0 0-1h-2.8l1.15-1.15a.5.5 0 0 0-.7-.7l-2 2Z"/></svg>