<svg width="20" height="20" viewBox="0 0 20 20" xmlns="http://www.w3.org/2000/svg"><path d="M4.5 6.75a2.25 2.25 0 1 1 4.5 0 2.25 2.25 0 0 1-4.5 0ZM6.75 3.5a3.25 3.25 0 1 0 0 6.5 3.25 3.25 0 0 0 0-6.5Zm5.69 11.65c.53.21 1.21.35 2.06.35 1.88 0 2.92-.67 3.47-1.43a2.92 2.92 0 0 0 .53-1.5v-.07c0-.83-.67-1.5-1.5-1.5h-4.63c.24.29.42.63.53 1H17c.28 0 .5.22.5.5v.1l-.04.22c-.04.18-.13.42-.3.66-.33.46-1.04 1.02-2.66 1.02-.73 0-1.28-.11-1.69-.28-.08.28-.2.6-.37.93ZM1.5 13c0-1.1.9-2 2-2H10a2 2 0 0 1 2 2V13.08a1.43 1.43 0 0 1-.01.18 3.95 3.95 0 0 1-.67 1.8C10.62 16.09 9.26 17 6.75 17c-2.51 0-3.87-.92-4.57-1.93a3.95 3.95 0 0 1-.68-1.99V13Zm1 .06v.1l.06.33c.07.27.2.64.45 1C3.49 15.2 4.5 16 6.75 16s3.26-.8 3.74-1.5a2.95 2.95 0 0 0 .5-1.42l.01-.02V13a1 1 0 0 0-1-1H3.5a1 1 0 0 0-1 1v.06ZM13 7.5a1.5 1.5 0 1 1 3 0 1.5 1.5 0 0 1-3 0ZM14.5 5a2.5 2.5 0 1 0 0 5 2.5 2.5 0 0 0 0-5Z"/></svg>