<svg width="20" height="20" viewBox="0 0 20 20" xmlns="http://www.w3.org/2000/svg"><path d="M10.9 2.9a1 1 0 0 0-1.8 0L7.17 6.8l-4.31.63a1 1 0 0 0-.56 1.7l3.13 3.05-.74 4.3a1 1 0 0 0 1.45 1.05l3.05-1.6a5.5 5.5 0 0 1 7.96-6.26l.55-.54a1 1 0 0 0-.56-1.7l-4.31-.63L10.9 2.9Zm-.27 11.02-.46.12a4.74 4.74 0 0 0 .01 1.01l.35.09A2 2 0 0 1 12 17.66l-.13.42c.26.2.54.38.84.52l.32-.35a2 2 0 0 1 2.91 0l.34.36c.3-.13.57-.3.82-.5l-.15-.55a2 2 0 0 1 1.43-2.48l.46-.12a4.73 4.73 0 0 0-.01-1.01l-.35-.09A2 2 0 0 1 17 11.34l.13-.42c-.26-.2-.54-.38-.84-.52l-.32.35a2 2 0 0 1-2.91 0l-.34-.36c-.3.13-.57.3-.82.5l.16.55a2 2 0 0 1-1.44 2.48Zm4.87.58a1 1 0 1 1-2 0 1 1 0 0 1 2 0Z"/></svg>