<svg width="24" height="24" viewBox="0 0 24 24" xmlns="http://www.w3.org/2000/svg"><path d="M5.5 7a2.5 2.5 0 115 0 2.5 2.5 0 01-5 0zM8 3a4 4 0 100 8 4 4 0 000-8zm7.5 5a1.5 1.5 0 113 0 1.5 1.5 0 01-3 0zM17 5a3 3 0 100 6 3 3 0 000-6zM4.25 13C3.01 13 2 14 2 15.25v.28a2.07 2.07 0 00.01.2c.02.14.04.32.1.53.09.42.29.98.68 1.55C3.61 18.97 5.17 20 8 20c1.37 0 2.44-.24 3.28-.62a6.48 6.48 0 01-.27-1.55c-.65.38-1.6.67-3.01.67-2.42 0-3.49-.85-3.98-1.56a2.99 2.99 0 01-.52-1.43v-.26c0-.41.34-.75.75-.75h7.48c.25-.48.56-.92.91-1.32a2.24 2.24 0 00-.89-.18h-7.5zM23 17.5a5.5 5.5 0 11-11 0 5.5 5.5 0 0111 0zm-2.15-2.35a.5.5 0 00-.7 0l-3.65 3.64-1.65-1.64a.5.5 0 00-.7.7l2 2c.2.2.5.2.7 0l4-4a.5.5 0 000-.7z"/></svg>