<svg width="24" height="24" viewBox="0 0 24 24" xmlns="http://www.w3.org/2000/svg"><path d="M9.48 7.58c-.12-.52.01-1.01.35-1.39.34-.37.96-.69 1.92-.69a4.1 4.1 0 012.92 1.23.75.75 0 001.16-.96s-.33-.27 0 0l-.01-.01-.02-.03a3.05 3.05 0 00-.3-.29A5.6 5.6 0 0011.76 4c-1.3 0-2.35.43-3.03 1.18a3.01 3.01 0 00.8 4.7c.6.36 1.32.6 1.96.83l.18.06c1.5.52 2.54.98 2.87 2.18.21.8 0 1.38-.43 1.8a3.4 3.4 0 01-2.35.75 2.9 2.9 0 01-1.97-.64 2.6 2.6 0 01-.8-1.26.75.75 0 10-1.46.3v.02a1.83 1.83 0 00.03.13l.11.32c.16.42.5 1.08 1.15 1.63.66.57 1.62 1 2.94 1 1.34 0 2.56-.39 3.38-1.17.86-.81 1.2-1.98.84-3.28-.56-2.05-2.44-2.72-3.82-3.2l-.14-.04a9.4 9.4 0 01-1.71-.72c-.46-.27-.72-.58-.82-1zM17.3 18.5H6.6c-.3 0-.6.3-.6.7 0 .5.4.8.8.8h10.7c.3 0 .6-.3.6-.7 0-.5-.4-.8-.8-.8z"/></svg>