<svg width="24" height="24" viewBox="0 0 24 24" xmlns="http://www.w3.org/2000/svg"><path d="M9.5 4.4c-.38-.26-.83-.4-1.3-.4H4.1A2.25 2.25 0 002 6.26V17.9A2.25 2.25 0 004.26 20H11v-1.5H4.15a.75.75 0 01-.65-.75V10.5h4.9c.46-.05.9-.23 1.25-.52L12.02 8h7.83c.37.06.65.37.65.75V13h.5a3 3 0 011 .17V8.6l-.02-.16a2.25 2.25 0 00-2.23-1.94h-7.73L9.65 4.52l-.16-.12zM4.24 5.5h4.06c.14.03.27.08.38.17l1.89 1.58-1.9 1.58-.08.06a.75.75 0 01-.4.11H3.5V6.15a.75.75 0 01.75-.65zm13.26 13.43l-5.5-3.2A2 2 0 0114 14h7a2 2 0 012 1.97l-5.49 2.96zm.23 1.01L23 17.11V21a2 2 0 01-2 2h-7a2 2 0 01-2-2v-4.13l5.25 3.06c.15.09.33.1.49.01z"/></svg>