<svg width="28" height="28" viewBox="0 0 28 28" xmlns="http://www.w3.org/2000/svg"><path d="M11.5 4.4c-.38-.26-.83-.4-1.3-.4H4.1A2.25 2.25 0 002 6.26V21.9A2.25 2.25 0 004.26 24H13v-1.5H4.15a.75.75 0 01-.65-.75V10.5h6.9c.46-.05.9-.23 1.25-.52L14.02 8h9.83c.37.06.65.37.65.75V15c.54 0 1.05.12 1.5.34V8.6l-.02-.16a2.25 2.25 0 00-2.23-1.94h-9.73l-2.37-1.98-.16-.12zM4.24 5.5h6.06c.14.03.27.08.38.17l1.89 1.58-1.9 1.58-.08.06a.75.75 0 01-.4.11H3.5V6.15a.75.75 0 01.75-.65zm9.75 13a2.5 2.5 0 012.5-2.5h8a2.5 2.5 0 012.5 2.5v.2l-6.5 3.24L14 18.7v-.19zm6.72 4.45L27 19.8v4.69a2.5 2.5 0 01-2.5 2.5h-8a2.5 2.5 0 01-2.5-2.5v-4.7l6.28 3.15c.14.07.3.07.44 0z"/></svg>