<svg width="16" height="16" viewBox="0 0 16 16" xmlns="http://www.w3.org/2000/svg"><path d="M2 4.5A2.5 2.5 0 0 1 4.5 2h7A2.5 2.5 0 0 1 14 4.5v1.84A3 3 0 0 0 9.26 6H6v4h1v1H6v2h1v1H4.5A2.5 2.5 0 0 1 2 11.5v-7ZM5 11H3v.5c0 .83.67 1.5 1.5 1.5H5v-2Zm0-5H3v4h2V6Zm1-1h4V3H6v2ZM5 3h-.5C3.67 3 3 3.67 3 4.5V5h2V3Zm8 2v-.5c0-.83-.67-1.5-1.5-1.5H11v2h2ZM9.5 8v1H9a1 1 0 0 0-1 1v4a1 1 0 0 0 1 1h5a1 1 0 0 0 1-1v-4a1 1 0 0 0-1-1h-.5V8a2 2 0 1 0-4 0Zm1 1V8a1 1 0 1 1 2 0v1h-2Zm1 2.25a.75.75 0 1 1 0 1.5.75.75 0 0 1 0-1.5Z"/></svg>