<svg width="24" height="24" viewBox="0 0 24 24" xmlns="http://www.w3.org/2000/svg"><path d="M3 6.25C3 4.45 4.46 3 6.25 3h11.5C19.55 3 21 4.46 21 6.25v5.3a3.5 3.5 0 0 0-1.5-.9V10h-4v2.2c-.32.52-.5 1.14-.5 1.8v.05a2.5 2.5 0 0 0-1.8 1.45H10v4h3V21H6.25A3.25 3.25 0 0 1 3 17.75V6.25ZM6.25 4.5c-.97 0-1.75.78-1.75 1.75V8.5h4v-4H6.25ZM4.5 10v4h4v-4h-4Zm5.5 0v4h4v-4h-4Zm5.5-1.5h4V6.25c0-.97-.78-1.75-1.75-1.75H15.5v4Zm-1.5-4h-4v4h4v-4Zm-9.5 11v2.25c0 .97.78 1.75 1.75 1.75H8.5v-4h-4ZM16 15h-.5c-.83 0-1.5.67-1.5 1.5v5c0 .83.67 1.5 1.5 1.5h6c.83 0 1.5-.67 1.5-1.5v-5c0-.83-.67-1.5-1.5-1.5H21v-1a2.5 2.5 0 0 0-5 0v1Zm1.5-1a1 1 0 1 1 2 0v1h-2v-1Zm2 5a1 1 0 1 1-2 0 1 1 0 0 1 2 0Z"/></svg>