<svg width="20" height="20" viewBox="0 0 20 20" xmlns="http://www.w3.org/2000/svg"><path d="M10 3a7 7 0 100 14 7 7 0 000-14zm-8 7a8 8 0 1116 0 8 8 0 01-16 0zm9.33 0a.7.7 0 011.34 0l.18.6c.08.26.29.47.56.55l.6.18a.7.7 0 010 1.34l-.6.18a.83.83 0 00-.56.56l-.18.6a.7.7 0 01-1.34 0l-.18-.6a.83.83 0 00-.56-.56l-.59-.18a.7.7 0 010-1.34l.6-.18a.83.83 0 00.55-.56l.18-.6zm.67 1.16c-.18.37-.47.66-.84.84.37.18.66.48.84.84.18-.36.48-.66.84-.84a1.83 1.83 0 01-.84-.84zM8.82 5.58a.87.87 0 00-1.65 0l-.25.73a1 1 0 01-.61.6l-.73.26a.88.88 0 000 1.65l.73.26c.28.1.5.33.6.61l.26.73a.87.87 0 001.65 0l.26-.73a1 1 0 01.61-.6l.73-.27a.87.87 0 000-1.65l-.73-.25a1 1 0 01-.6-.61l-.27-.73zm-.96 1.06L8 6.25l.14.4a2 2 0 001.22 1.21l.39.14-.4.14a2 2 0 00-1.21 1.22L8 9.75l-.14-.4a2 2 0 00-1.22-1.21L6.25 8l.4-.14a2 2 0 001.21-1.22z"/></svg>