<svg width="24" height="24" viewBox="0 0 24 24" xmlns="http://www.w3.org/2000/svg"><path d="M12 22a10 10 0 100-20 10 10 0 000 20zM8.56 6.17a1 1 0 011.88 0l.46 1.3c.1.29.34.52.64.63l1.3.46a1 1 0 010 1.88l-1.3.46c-.3.1-.53.34-.64.64l-.46 1.3a1 1 0 01-1.88 0l-.46-1.3c-.1-.3-.34-.53-.64-.64l-1.3-.46a1 1 0 010-1.88l1.3-.46c.3-.1.54-.34.64-.64l.46-1.3zm7.39 6.54l.18.6c.08.27.3.48.57.56l.6.18a.99.99 0 010 1.9l-.6.18a.85.85 0 00-.57.57l-.18.6a.99.99 0 01-1.9 0l-.18-.6a.85.85 0 00-.57-.57l-.6-.18a.99.99 0 010-1.9l.6-.18c.28-.08.49-.3.57-.57l.18-.6a.99.99 0 011.9 0z"/></svg>