<svg width="20" height="20" viewBox="0 0 20 20" xmlns="http://www.w3.org/2000/svg"><path d="M10 2a8 8 0 100 16 8 8 0 000-16zM8.82 5.58l.26.73c.1.28.33.5.61.6l.73.26a.87.87 0 010 1.65l-.73.26a1 1 0 00-.6.61l-.27.73a.87.87 0 01-1.65 0l-.25-.73a1 1 0 00-.61-.6l-.73-.27a.88.88 0 010-1.65l.73-.25a1 1 0 00.6-.61l.26-.73a.87.87 0 011.65 0zM11.33 10a.7.7 0 011.34 0l.18.6c.08.26.29.47.56.55l.6.18a.7.7 0 010 1.34l-.6.18a.83.83 0 00-.56.56l-.18.6a.7.7 0 01-1.34 0l-.18-.6a.83.83 0 00-.56-.56l-.59-.18a.7.7 0 010-1.34l.6-.18a.83.83 0 00.55-.56l.18-.6z"/></svg>