<svg width="48" height="48" viewBox="0 0 48 48" xmlns="http://www.w3.org/2000/svg"><path d="M22 24c0-1.3-.42-2.51-1.13-3.5h6.26A6 6 0 1 0 32 18H16a6 6 0 1 0 6 6Zm-2.5 0a3.5 3.5 0 1 1-7 0 3.5 3.5 0 0 1 7 0Zm9 0a3.5 3.5 0 1 1 7 0 3.5 3.5 0 0 1-7 0ZM8.25 8A4.25 4.25 0 0 0 4 12.25v23.5C4 38.1 5.9 40 8.25 40h31.5C42.1 40 44 38.1 44 35.75v-23.5C44 9.9 42.1 8 39.75 8H8.25ZM6.5 12.25c0-.97.78-1.75 1.75-1.75h31.5c.97 0 1.75.78 1.75 1.75v23.5c0 .97-.78 1.75-1.75 1.75H8.25c-.97 0-1.75-.78-1.75-1.75v-23.5Z"/></svg>