<svg width="24" height="24" viewBox="0 0 24 24" xmlns="http://www.w3.org/2000/svg"><path d="M8.75 2a.75.75 0 0 0-.75.75V4h3V2.75a.75.75 0 0 0-.75-.75h-1.5ZM11 5H6.75a.75.75 0 0 0-.75.75V7h7V5.75a.75.75 0 0 0-.75-.75H11Zm6 11a1 1 0 1 0 0-2 1 1 0 0 0 0 2Zm1 2a1 1 0 1 1-2 0 1 1 0 0 1 2 0ZM4 10a2 2 0 0 1 1.96-2h7.08A2 2 0 0 1 15 10a5.75 5.75 0 0 1 5.5 5.75v5c0 .41-.34.75-.75.75h-8.5v-3a.5.5 0 0 0-.5-.5h-2.5a.5.5 0 0 0-.5.5v3h-3a.75.75 0 0 1-.75-.75V10Zm15 5.75a4.25 4.25 0 0 0-4-4.24V20h4v-4.25ZM12.25 11a1 1 0 1 0-2 0 1 1 0 0 0 2 0Zm-1 4.25a1 1 0 1 0 0-2 1 1 0 0 0 0 2ZM8.75 11a1 1 0 1 0-2 0 1 1 0 0 0 2 0Zm-1 4.25a1 1 0 1 0 0-2 1 1 0 0 0 0 2Z"/></svg>