<svg width="28" height="28" viewBox="0 0 28 28" xmlns="http://www.w3.org/2000/svg"><path d="M7 9.73c0-.4.33-.73.73-.73h5.54c.4 0 .73.33.73.73v.04c0 .4-.33.73-.73.73H7.73A.73.73 0 0 1 7 9.77v-.04Zm0 4c0-.4.33-.73.73-.73h10.54c.4 0 .73.33.73.73v.15c-.23.18-.44.39-.62.61l-.1.01H7.72a.73.73 0 0 1-.73-.73v-.04Zm8.05 8.77h-9.3c-1.24 0-2.25-1-2.25-2.25V7.75c0-1.24 1.01-2.25 2.25-2.25h16.5c1.24 0 2.25 1 2.25 2.25v6.6c.62.71 1 1.64 1 2.65h.5V7.75A3.75 3.75 0 0 0 22.25 4H5.75A3.75 3.75 0 0 0 2 7.75v12.5A3.75 3.75 0 0 0 5.75 24h9.32c-.05-.25-.07-.5-.07-.75v-.2c0-.2.02-.37.05-.55ZM7.73 17c-.4 0-.73.33-.73.73v.04c0 .4.33.73.73.73h7.54c.4 0 .73-.33.73-.73v-.04c0-.4-.33-.73-.73-.73H7.73Zm16.77 0a3 3 0 1 1-6 0 3 3 0 0 1 6 0Zm2.5 6.25c0 1.87-1.57 3.75-5.5 3.75-3.93 0-5.5-1.88-5.5-3.75v-.2c0-1.13.92-2.05 2.05-2.05h6.9c1.13 0 2.05.92 2.05 2.04v.21Z"/></svg>