<svg width="24" height="24" viewBox="0 0 24 24" xmlns="http://www.w3.org/2000/svg"><path d="M11 16.5V21H6.25A3.25 3.25 0 013 17.75V8.5h18v3.38a2.74 2.74 0 00-1.75-.63H17.9a1.25 1.25 0 00-2.3 0A2.75 2.75 0 0013 14v.05a2.5 2.5 0 00-2 2.45zm-5-.25a1.25 1.25 0 102.5 0 1.25 1.25 0 00-2.5 0zm0-4.5a1.25 1.25 0 102.5 0 1.25 1.25 0 00-2.5 0zm4.75 0a1.25 1.25 0 102.5 0 1.25 1.25 0 00-2.5 0zM21 6.25C21 4.45 19.54 3 17.75 3H6.25A3.25 3.25 0 003 6.25V7h18v-.75zM14 15h-.5c-.83 0-1.5.67-1.5 1.5V18h2.5v-.25a.75.75 0 011.5 0V18h3v-.25a.75.75 0 011.5 0V18H23v-1.5c0-.83-.67-1.5-1.5-1.5H21v-1c0-.97-.78-1.75-1.75-1.75h-3.5c-.97 0-1.75.78-1.75 1.75v1zm1.5-1c0-.14.11-.25.25-.25h3.5c.14 0 .25.11.25.25v1h-4v-1zM12 21.5v-2h2.5v.75a.75.75 0 001.5 0v-.75h3v.75a.75.75 0 001.5 0v-.75H23v2c0 .83-.67 1.5-1.5 1.5h-8a1.5 1.5 0 01-1.5-1.5z"/></svg>