<svg width="20" height="20" viewBox="0 0 20 20" xmlns="http://www.w3.org/2000/svg"><path d="M5.5 3A2.5 2.5 0 003 5.5V6h14v-.5A2.5 2.5 0 0014.5 3h-9zM17 7H3v7.5A2.5 2.5 0 005.5 17H9v-3.5a2.5 2.5 0 012.04-2.46A2.5 2.5 0 0113.5 9h2c.56 0 1.08.19 1.5.5V7zm-9 3a1 1 0 11-2 0 1 1 0 012 0zm-1 4a1 1 0 110-2 1 1 0 010 2zm4-4a1 1 0 11-2 0 1 1 0 012 0zm1 2v-.5c0-.83.67-1.5 1.5-1.5h2c.83 0 1.5.67 1.5 1.5v.5h.5c.83 0 1.5.67 1.5 1.5V15h-2v-.5a.5.5 0 00-1 0v.5h-3v-.5a.5.5 0 00-1 0v.5h-2v-1.5c0-.83.67-1.5 1.5-1.5h.5zm1-.5v.5h3v-.5a.5.5 0 00-.5-.5h-2a.5.5 0 00-.5.5zm4 4.5h2v1.5c0 .83-.67 1.5-1.5 1.5h-6a1.5 1.5 0 01-1.5-1.5V16h2v.5a.5.5 0 001 0V16h3v.5a.5.5 0 001 0V16z"/></svg>