<svg width="24" height="24" viewBox="0 0 24 24" xmlns="http://www.w3.org/2000/svg"><path d="M21 6.25C21 4.45 19.54 3 17.75 3H6.25A3.25 3.25 0 003 6.25v11.5C3 19.55 4.46 21 6.25 21H11v-1.5H6.25c-.97 0-1.75-.78-1.75-1.75V8.5h15v2.76c.57.05 1.08.28 1.5.62V6.25zM6.25 4.5h11.5c.97 0 1.75.78 1.75 1.75V7h-15v-.75c0-.97.78-1.75 1.75-1.75zm9.5 6.75h1.65a1.25 1.25 0 00-2.33.08c.22-.05.45-.08.68-.08zM9 15.75a1.25 1.25 0 10-2.5 0 1.25 1.25 0 002.5 0zm0-4a1.25 1.25 0 10-2.5 0 1.25 1.25 0 002.5 0zm4.25 0a1.25 1.25 0 10-2.5 0 1.25 1.25 0 002.5 0zM14 15h-.5c-.83 0-1.5.67-1.5 1.5V18h2.5v-.25a.75.75 0 011.5 0V18h3v-.25a.75.75 0 011.5 0V18H23v-1.5c0-.83-.67-1.5-1.5-1.5H21v-1c0-.97-.78-1.75-1.75-1.75h-3.5c-.97 0-1.75.78-1.75 1.75v1zm1.5-1c0-.14.11-.25.25-.25h3.5c.14 0 .25.11.25.25v1h-4v-1zM12 21.5v-2h2.5v.75a.75.75 0 001.5 0v-.75h3v.75a.75.75 0 001.5 0v-.75H23v2c0 .83-.67 1.5-1.5 1.5h-8a1.5 1.5 0 01-1.5-1.5z"/></svg>