<svg width="32" height="32" viewBox="0 0 32 32" xmlns="http://www.w3.org/2000/svg"><path d="M3 7.5A4.5 4.5 0 0 1 7.5 3h17A4.5 4.5 0 0 1 29 7.5v6.65c-.6-.28-1.28-.5-2-.69V11H5v13.5A2.5 2.5 0 0 0 7.5 27H14v1c0 .3.04.64.15 1H7.5A4.5 4.5 0 0 1 3 24.5v-17Zm25.5 12.36c-.55.3-1.23.55-2 .74-1.03.25-2.23.4-3.5.4-3.87 0-7-1.34-7-3s3.13-3 7-3c1.27 0 2.47.15 3.5.4.77.2 1.45.45 2 .74.94.51 1.5 1.16 1.5 1.86 0 .7-.56 1.35-1.5 1.86ZM16.94 29.5c-.6-.44-.94-.95-.94-1.5v-7.33c.44.33.94.6 1.46.83a16.51 16.51 0 0 0 9.04.64c.73-.16 1.4-.37 2-.62l.04-.02c.52-.22 1.02-.5 1.46-.83V28c0 1.66-3.13 3-7 3-2.6 0-4.85-.6-6.06-1.5Z"/></svg>