<svg width="20" height="20" viewBox="0 0 20 20" xmlns="http://www.w3.org/2000/svg"><path d="M19 5.5a4.5 4.5 0 1 1-9 0 4.5 4.5 0 0 1 9 0Zm-2.15-1.85a.5.5 0 0 0-.7 0L13.5 6.29l-.65-.64a.5.5 0 0 0-.7.7l1 1c.2.2.5.2.7 0l3-3a.5.5 0 0 0 0-.7Z"/><path d="m14.5 11 .33-.01a2.5 2.5 0 0 1-.2.42l-3.46 5.91c-.15.27-.4.47-.67.58v-7.03a1 1 0 0 0 .46-1.16c.95.8 2.19 1.29 3.54 1.29Z"/><path d="M9 5.5c0 1.35.49 2.59 1.3 3.54a1 1 0 0 0-.8 1.83v7.04a1.37 1.37 0 0 1-.7-.59l-3.46-5.9a2.5 2.5 0 0 1-.1-2.34L6.7 6h-.2A1.5 1.5 0 0 1 5 4.5v-2a.5.5 0 0 1 1 0v2c0 .28.22.5.5.5h2.52L9 5.5Z"/></svg>