<svg width="16" height="16" viewBox="0 0 16 16" xmlns="http://www.w3.org/2000/svg"><path d="M13 2H3a2 2 0 0 0-2 2v2.36c.28-.33.62-.6 1-.82V4a1 1 0 0 1 1-1h10a1 1 0 0 1 1 1v6a1 1 0 0 1-1 1H7.46c-.14.22-.3.43-.46.63V12h6a2 2 0 0 0 2-2V4a2 2 0 0 0-2-2ZM6.64 6a3.97 3.97 0 0 0-2.27-.98A.5.5 0 0 1 4.5 5h7a.5.5 0 0 1 0 1H6.64ZM8.5 9h3a.5.5 0 0 0 0-1h-3a.5.5 0 0 0 0 1ZM1.36 7.56A3 3 0 0 0 2 11.22v3.28a.5.5 0 0 0 .78.41L4 14.1l1.22.82A.5.5 0 0 0 6 14.5v-3.28a3 3 0 1 0-4.64-3.66Zm2.36 5.52-.72.49v-1.75a2.8 2.8 0 0 0 2 0v1.75l-.72-.49a.5.5 0 0 0-.56 0Zm1.4-2.42a2 2 0 1 1-2.23-3.32 2 2 0 0 1 2.22 3.32Z"/></svg>