<svg width="20" height="20" viewBox="0 0 20 20" xmlns="http://www.w3.org/2000/svg"><path d="M18 5a2 2 0 0 0-2-2H4a2 2 0 0 0-2 2v3.15c.3-.27.64-.5 1-.68V5a1 1 0 0 1 1-1h12a1 1 0 0 1 1 1v8a1 1 0 0 1-1 1H8.74l-.24.33V15H16a2 2 0 0 0 2-2V5ZM1.5 11.5c0 .95.38 1.82 1 2.45V18c0 .41.47.65.8.4l1.4-1.05a.5.5 0 0 1 .6 0l1.4 1.05c.33.25.8.01.8-.4v-4.05A3.49 3.49 0 0 0 5 8a3.5 3.5 0 0 0-3.5 3.5ZM5 15c.54 0 1.05-.12 1.5-.34v2.09L5.26 16a.5.5 0 0 0-.52 0l-1.24.75v-2.09c.45.22.96.34 1.5.34Zm0-1a2.5 2.5 0 1 1 0-5 2.5 2.5 0 0 1 0 5Zm10-7.5a.5.5 0 0 0-.5-.5h-9a.5.5 0 0 0 0 1h9a.5.5 0 0 0 .5-.5Zm-.5 4.5a.5.5 0 0 1 0 1h-4a.5.5 0 0 1 0-1h4Z"/></svg>