<svg width="20" height="20" viewBox="0 0 20 20" xmlns="http://www.w3.org/2000/svg"><path d="M16.49 6h.01a1.5 1.5 0 1 0-1.41-2l-.01.02A1.5 1.5 0 0 0 16.48 6Zm-5.4 10a1.5 1.5 0 1 0 1.42-2h-.01c-.65 0-1.2.42-1.41 1l-.01.02a1.5 1.5 0 0 0 0 .98ZM3.5 17a1.5 1.5 0 1 1 0-3 1.5 1.5 0 0 1 0 3ZM7.49 6a1.5 1.5 0 1 0 .02-3 1.5 1.5 0 0 0-.02 3Zm-3.62 7.03 2.32-6.4c.28.17.6.3.94.34l-2.32 6.4c-.28-.17-.6-.3-.94-.34ZM14.05 5h-4.1a2.51 2.51 0 0 0 0-1h4.1a2.51 2.51 0 0 0 0 1Zm-8.1 11h4.1a2.51 2.51 0 0 1 0-1h-4.1a2.51 2.51 0 0 1 0 1Zm6.92-2.97 2.32-6.4c.28.17.6.3.94.34l-2.32 6.4c-.28-.17-.6-.3-.94-.34Z"/></svg>