<svg width="24" height="24" viewBox="0 0 24 24" xmlns="http://www.w3.org/2000/svg"><path d="M18.88 6.66a2 2 0 0 0 1.33.33 2 2 0 1 0-1.33-.33ZM14 19a2 2 0 1 0 4 0 2 2 0 0 0-4 0ZM4 21a2 2 0 1 1 0-4 2 2 0 0 1 0 4ZM6.88 6.66a2 2 0 0 0 3-.97 2 2 0 1 0-3 .97Zm-.4.93L4.08 16c.52.01 1.01.16 1.44.41L7.92 8a2.98 2.98 0 0 1-1.44-.41ZM17.1 5.75h-6.18a3 3 0 0 0 0-1.5h6.18a3 3 0 0 0 0 1.5Zm-4 14a3 3 0 0 1 0-1.5H6.91a3 3 0 0 1 0 1.5h6.18ZM16.08 16l2.4-8.41c.43.25.92.4 1.44.4l-2.4 8.42c-.43-.25-.92-.4-1.44-.4Z"/></svg>