<svg width="20" height="20" viewBox="0 0 20 20" xmlns="http://www.w3.org/2000/svg"><path d="M15 4.5a1.5 1.5 0 1 0 3 0 1.5 1.5 0 0 0-3 0Zm-4 11a1.5 1.5 0 1 0 3 0 1.5 1.5 0 0 0-3 0ZM3.5 17a1.5 1.5 0 1 1 0-3 1.5 1.5 0 0 1 0 3ZM6 4.5a1.5 1.5 0 1 0 3 0 1.5 1.5 0 0 0-3 0Zm8.11.75H9.9a2.5 2.5 0 0 0 0-1.5h4.22a2.5 2.5 0 0 0 0 1.5ZM3.61 13 5.98 6.5c.4.3.88.48 1.41.5l-2.37 6.52c-.4-.3-.88-.48-1.41-.5Zm6.5 3.25H5.9a2.5 2.5 0 0 0 0-1.5h4.22a2.5 2.5 0 0 0 0 1.5Zm2.5-3.25 2.37-6.51c.4.3.88.48 1.41.5l-2.37 6.52c-.4-.3-.88-.48-1.41-.5Z"/></svg>