<svg width="16" height="16" viewBox="0 0 16 16" xmlns="http://www.w3.org/2000/svg"><path d="M10 6.5c0-.28.22-.5.5-.5h2a.5.5 0 0 1 0 1h-2a.5.5 0 0 1-.5-.5Zm.5 2.5a.5.5 0 0 0 0 1h2a.5.5 0 0 0 0-1h-2ZM6 6a1 1 0 1 1-2 0 1 1 0 0 1 2 0ZM3.75 8a.75.75 0 0 0-.75.75v.75S3 11 5 11s2-1.5 2-1.5v-.75A.75.75 0 0 0 6.25 8h-2.5ZM8.5 6.25a.75.75 0 1 1-1.5 0 .75.75 0 0 1 1.5 0Zm-.56 3.7V10H8a1 1 0 0 0 1-1v-.5a.5.5 0 0 0-.5-.5h-.67c.11.23.17.48.17.75v.81a1.96 1.96 0 0 1-.06.4ZM1 5.5A2.5 2.5 0 0 1 3.5 3h9A2.5 2.5 0 0 1 15 5.5v5a2.5 2.5 0 0 1-2.5 2.5h-9A2.5 2.5 0 0 1 1 10.5v-5ZM3.5 4C2.67 4 2 4.67 2 5.5v5c0 .83.67 1.5 1.5 1.5h9c.83 0 1.5-.67 1.5-1.5v-5c0-.83-.67-1.5-1.5-1.5h-9Z"/></svg>