<svg width="16" height="16" viewBox="0 0 16 16" xmlns="http://www.w3.org/2000/svg"><path d="M11 1H5a2 2 0 0 0-2 2v10c0 1.1.9 2 2 2h2.26a5.5 5.5 0 0 1-.66-1H5a1 1 0 0 1-1-1h2.2A5.5 5.5 0 0 1 13 6.2V3a2 2 0 0 0-2-2ZM5.75 3h4.5c.41 0 .75.34.75.75v.5c0 .41-.34.75-.75.75h-4.5A.75.75 0 0 1 5 4.25v-.5c0-.41.34-.75.75-.75ZM16 11.5a4.5 4.5 0 1 1-9 0 4.5 4.5 0 0 1 9 0Zm-2.65-1.15a.5.5 0 0 0-.7-.7l-1.15 1.14-1.15-1.14a.5.5 0 0 0-.7.7l1.14 1.15-1.14 1.15a.5.5 0 0 0 .7.7l1.15-1.14 1.15 1.14a.5.5 0 0 0 .7-.7l-1.14-1.15 1.14-1.15Z"/></svg>