<svg width="16" height="16" viewBox="0 0 16 16" xmlns="http://www.w3.org/2000/svg"><path d="M11 1H5a2 2 0 0 0-2 2v10c0 1.1.9 2 2 2h2.26a5.5 5.5 0 0 1-.66-1H5a1 1 0 0 1-1-1h2.2c-.08-.33-.15-.66-.18-1H4V3a1 1 0 0 1 1-1h6a1 1 0 0 1 1 1v3.02c.34.03.68.1 1 .19V3a2 2 0 0 0-2-2Zm.5 15a4.5 4.5 0 1 0 0-9 4.5 4.5 0 0 0 0 9Zm1.85-6.35c.2.2.2.5 0 .7l-1.14 1.15 1.14 1.15a.5.5 0 0 1-.7.7l-1.15-1.14-1.15 1.14a.5.5 0 0 1-.7-.7l1.14-1.15-1.14-1.15a.5.5 0 0 1 .7-.7l1.15 1.14 1.15-1.14c.2-.2.5-.2.7 0ZM6 3a1 1 0 0 0-1 1v1a1 1 0 0 0 1 1h4a1 1 0 0 0 1-1V4a1 1 0 0 0-1-1H6Zm0 1h4v1H6V4Z"/></svg>