<svg width="20" height="20" viewBox="0 0 20 20" xmlns="http://www.w3.org/2000/svg"><path d="M4 4c0-1.1.9-2 2-2h8a2 2 0 0 1 2 2v5.2A5.5 5.5 0 0 0 9.2 16H5a1 1 0 0 0 1 1h3.6c.18.36.4.7.66 1H6a2 2 0 0 1-2-2V4Zm2.75 0a.75.75 0 0 0-.75.75v.5c0 .41.34.75.75.75h6.5c.41 0 .75-.34.75-.75v-.5a.75.75 0 0 0-.75-.75h-6.5ZM19 14.5a4.5 4.5 0 1 1-9 0 4.5 4.5 0 0 1 9 0Zm-2.65-1.15a.5.5 0 0 0-.7-.7l-1.15 1.14-1.15-1.14a.5.5 0 0 0-.7.7l1.14 1.15-1.14 1.15a.5.5 0 0 0 .7.7l1.15-1.14 1.15 1.14a.5.5 0 0 0 .7-.7l-1.14-1.15 1.14-1.15Z"/></svg>