<svg width="20" height="20" viewBox="0 0 20 20" xmlns="http://www.w3.org/2000/svg"><path d="M6 5a1 1 0 0 1 1-1h6a1 1 0 0 1 1 1v1a1 1 0 0 1-1 1H7a1 1 0 0 1-1-1V5Zm1 0v1h6V5H7ZM4 4v12c0 1.1.9 2 2 2h4.26a5.5 5.5 0 0 1-.66-1H6a1 1 0 0 1-1-1h4.2c-.08-.32-.15-.66-.18-1H5V4a1 1 0 0 1 1-1h8a1 1 0 0 1 1 1v5.02c.34.03.68.1 1 .19V4a2 2 0 0 0-2-2H6a2 2 0 0 0-2 2Zm15 10.5a4.5 4.5 0 1 1-9 0 4.5 4.5 0 0 1 9 0Zm-2.65-1.15a.5.5 0 0 0-.7-.7l-1.15 1.14-1.15-1.14a.5.5 0 0 0-.7.7l1.14 1.15-1.14 1.15a.5.5 0 0 0 .7.7l1.15-1.14 1.15 1.14a.5.5 0 0 0 .7-.7l-1.14-1.15 1.14-1.15Z"/></svg>