<svg width="20" height="20" viewBox="0 0 20 20" xmlns="http://www.w3.org/2000/svg"><path d="M7.5 9a1 1 0 1 0 0-2 1 1 0 0 0 0 2Zm6-1a1 1 0 1 1-2 0 1 1 0 0 1 2 0ZM3 6v8a3 3 0 0 0 3 3h5.38a1.97 1.97 0 0 0 1.41-.59l3.62-3.62a2 2 0 0 0 .59-1.41V6a3 3 0 0 0-3-3H6a3 3 0 0 0-3 3Zm13 0v5h-2.25c-1.2 0-2.24.78-2.6 1.86-.34.09-.72.14-1.15.14a4.5 4.5 0 0 1-2.51-.74 1.97 1.97 0 0 1-.14-.11.5.5 0 0 0-.7.7v.01l.02.02a2 2 0 0 0 .22.18 5.5 5.5 0 0 0 4.11.86V16H6a2 2 0 0 1-2-2V6c0-1.1.9-2 2-2h8a2 2 0 0 1 2 2Zm-3.91 9.7a1 1 0 0 1-.09.08v-2.03c0-.97.78-1.75 1.75-1.75h2.03l-.07.09-3.62 3.62Z"/></svg>