<svg width="24" height="24" viewBox="0 0 24 24" xmlns="http://www.w3.org/2000/svg"><path d="M9.5 20.25V13.5H6.93A6.14 6.14 0 0 1 2.87 16a.75.75 0 1 1-.24-1.5c.91-.13 1.66-.5 2.26-1H1.75a.75.75 0 0 1 0-1.5h20.5a.75.75 0 0 1 0 1.5h-.75v6.75a.75.75 0 0 1-1.5 0V13.5h-5.3l-.1.9 3.57-.4a.75.75 0 1 1 .16 1.5l-4.5.5a.75.75 0 0 1-.83-.83l.19-1.67H11v6.75a.75.75 0 0 1-1.5 0Zm12-9.25V4.75a.75.75 0 0 0-1.5 0V11h1.5Zm-6.52 0 .52-4.67a.75.75 0 1 0-1.5-.16L13.47 11h1.5ZM11 11V4.75a.75.75 0 0 0-1.5 0V11H11Zm-2.84 0c.23-.8.34-1.57.34-2.25A.75.75 0 0 0 7.75 8h-5a.75.75 0 1 0 0 1.5h4.2a7.1 7.1 0 0 1-.37 1.5h1.58Z"/></svg>