<svg width="20" height="20" viewBox="0 0 20 20" xmlns="http://www.w3.org/2000/svg"><path d="M9.5 4.75a.75.75 0 0 0-1.5 0V9h1.5V4.75ZM1.75 10a.75.75 0 0 0 0 1.5h2.41c-.37.23-.87.4-1.53.5a.75.75 0 1 0 .24 1.5c1.68-.27 2.75-1 3.37-2H8v4.75a.75.75 0 0 0 1.5 0V11.5h1.12l-.12 1.7a.75.75 0 0 0 .81.8l3-.25a.75.75 0 1 0-.12-1.5l-2.13.18.06-.93H16v4.75a.75.75 0 0 0 1.5 0V11.5h.75a.75.75 0 0 0 0-1.5H1.75Zm10.54-1h-1.5L11 5.7a.75.75 0 1 1 1.5.1L12.29 9ZM16 9h1.5V4.75a.75.75 0 0 0-1.5 0V9ZM5.45 9h1.51C7 8.56 7 8.14 7 7.75A.75.75 0 0 0 6.25 7h-3.5a.75.75 0 1 0 0 1.5h2.74l-.04.5Z"/></svg>