<svg width="16" height="16" viewBox="0 0 16 16" xmlns="http://www.w3.org/2000/svg"><path d="M6 12.5V8H4.25a3.56 3.56 0 0 1-2.67 2 .5.5 0 0 1-.16-1 2.46 2.46 0 0 0 1.65-1H1.5a.5.5 0 0 1 0-1h13a.5.5 0 0 1 0 1H14v4.5a.5.5 0 0 1-1 0V8H9.15l-.09.91 2.87-.4a.5.5 0 0 1 .14.98l-3.5.5A.5.5 0 0 1 8 9.45L8.15 8H7v4.5a.5.5 0 0 1-1 0ZM14 6V3.5a.5.5 0 0 0-1 0V6h1ZM9.35 6l.15-1.45a.5.5 0 1 0-1-.1L8.35 6h1ZM7 6V3.5a.5.5 0 0 0-1 0V6h1ZM4.88 6c.09-.56.12-1.08.12-1.5a.5.5 0 0 0-.5-.5h-3a.5.5 0 0 0 0 1h2.48a8.2 8.2 0 0 1-.12 1h1.02Z"/></svg>