<svg width="16" height="16" viewBox="0 0 16 16" xmlns="http://www.w3.org/2000/svg"><path d="M8 5a.75.75 0 1 0 0-1.5A.75.75 0 0 0 8 5Zm.74-3.55a1.17 1.17 0 0 0-1.48 0l-5 4.07A.83.83 0 0 0 2.8 7H3v4.2c-.6.3-1 .92-1 1.63v.67c0 .28.22.5.5.5h11a.5.5 0 0 0 .5-.5v-.67c0-.7-.4-1.33-1-1.63V7h.21a.83.83 0 0 0 .53-1.48l-5-4.07Zm-.84.78a.17.17 0 0 1 .2 0L12.75 6H3.26L7.9 2.23ZM12 11h-1V7h1v4Zm-2 0H8.5V7H10v4Zm-2.5 0H6V7h1.5v4Zm4.67 1c.46 0 .83.37.83.83V13H3v-.17c0-.46.37-.83.83-.83h8.34ZM5 11H4V7h1v4Z"/></svg>