<svg width="20" height="20" viewBox="0 0 20 20" xmlns="http://www.w3.org/2000/svg"><path d="M10 6a4 4 0 1 0 0 8 4 4 0 0 0 0-8Zm-3 4a3 3 0 1 1 6 0 3 3 0 0 1-6 0Zm1.12-8a1.5 1.5 0 0 0-1.34.83L6.2 4H4.5A2.5 2.5 0 0 0 2 6.5v8A2.5 2.5 0 0 0 4.5 17h11a2.5 2.5 0 0 0 2.5-2.5v-8A2.5 2.5 0 0 0 15.5 4h-1.69l-.58-1.17A1.5 1.5 0 0 0 11.89 2H8.12Zm-.44 1.28A.5.5 0 0 1 8.12 3h3.77c.19 0 .36.1.45.28l.72 1.44a.5.5 0 0 0 .45.28h2c.82 0 1.5.67 1.5 1.5v8c0 .83-.68 1.5-1.5 1.5h-11A1.5 1.5 0 0 1 3 14.5v-8C3 5.67 3.67 5 4.5 5h2a.5.5 0 0 0 .44-.28l.73-1.44Z"/></svg>