<svg width="20" height="20" viewBox="0 0 20 20" xmlns="http://www.w3.org/2000/svg"><path d="M7.5 3a4.5 4.5 0 0 0-.5 8.97v1A5.5 5.5 0 1 1 12.98 7h-1A4.5 4.5 0 0 0 7.5 3Zm8.5 8a1 1 0 1 1-2 0 1 1 0 0 1 2 0Zm-5.5-3A2.5 2.5 0 0 0 8 10.5v5a2.5 2.5 0 0 0 2.5 2.5h5a2.5 2.5 0 0 0 2.5-2.5v-5A2.5 2.5 0 0 0 15.5 8h-5ZM9 10.5c0-.83.67-1.5 1.5-1.5h5c.83 0 1.5.67 1.5 1.5v5c0 .23-.05.45-.15.65l-2.44-2.44a2 2 0 0 0-2.82 0l-2.44 2.44A1.5 1.5 0 0 1 9 15.5v-5Zm.85 6.35 2.44-2.44a1 1 0 0 1 1.42 0l2.44 2.44c-.2.1-.42.15-.65.15h-5a1.5 1.5 0 0 1-.65-.15Z"/></svg>