<svg width="28" height="28" viewBox="0 0 28 28" xmlns="http://www.w3.org/2000/svg"><path d="M10.5 4.5a6 6 0 00-.5 11.98v1.5A7.5 7.5 0 1117.98 10h-1.5a6 6 0 00-5.98-5.5zm3.75 6.5A3.25 3.25 0 0011 14.25v7.5c0 1.8 1.46 3.25 3.25 3.25h7.5c1.8 0 3.25-1.46 3.25-3.25v-7.5c0-1.8-1.46-3.25-3.25-3.25h-7.5zm-1.75 3.25c0-.97.78-1.75 1.75-1.75h7.5c.97 0 1.75.78 1.75 1.75v7.5c0 .2-.04.4-.1.59l-3.63-3.63a2.5 2.5 0 00-3.54 0l-3.63 3.63c-.06-.19-.1-.38-.1-.59v-7.5zm1.16 9.15l3.63-3.63a1 1 0 011.42 0l3.63 3.63c-.19.06-.38.1-.59.1h-7.5c-.2 0-.4-.04-.59-.1zM22 15.5a1.5 1.5 0 11-3 0 1.5 1.5 0 013 0z"/></svg>