<svg width="16" height="16" viewBox="0 0 16 16" xmlns="http://www.w3.org/2000/svg"><path d="M14.53 4.28a5.5 5.5 0 0 0-.8-1.3l-1.75 1.74a2 2 0 0 0 2.55-.44Zm-3.25-.26 1.74-1.75a5.5 5.5 0 0 0-1.3-.8 2 2 0 0 0-.44 2.55ZM10 3c0 .65.2 1.25.55 1.74l-.8.8-3.49-3.49a5.48 5.48 0 0 1 4.4-.93A2.99 2.99 0 0 0 10 3Zm.46 3.25.8-.8a2.99 2.99 0 0 0 3.62-.11 5.53 5.53 0 0 1-.94 4.4l-3.48-3.49Zm2.82 4.24L9.75 6.96l-.6.6a7.47 7.47 0 0 1 1.82 4.24 5.5 5.5 0 0 0 2.31-1.3ZM4.2 5.03a5.5 5.5 0 0 1 1.3-2.31l3.54 3.53-.6.6A7.47 7.47 0 0 0 4.2 5.03ZM2.5 6C1.67 6 1 6.67 1 7.5v1A6.5 6.5 0 0 0 7.5 15h1c.83 0 1.5-.67 1.5-1.5v-1A6.5 6.5 0 0 0 3.5 6h-1Zm1.9 3.4c.2-.2.5-.2.7 0l1.5 1.5a.5.5 0 0 1-.7.7l-1.5-1.5a.5.5 0 0 1 0-.7Z"/></svg>