<svg width="20" height="20" viewBox="0 0 20 20" xmlns="http://www.w3.org/2000/svg"><path d="M16.58 4.13a6 6 0 0 1 .83 1.28 2 2 0 0 1-2.43.31l1.6-1.6Zm-.7-.71-1.6 1.6a2 2 0 0 1 .3-2.44 6 6 0 0 1 1.3.84ZM18 8a6 6 0 0 0-.21-1.59 2.99 2.99 0 0 1-3.53.04L13.21 7.5l3.8 3.8c.63-.94.99-2.08.99-3.3Zm-5-4c0-.67.22-1.29.59-1.79a6 6 0 0 0-4.9.78l3.81 3.8 1.05-1.05A2.99 2.99 0 0 1 13 4Zm-1.3 5a8.97 8.97 0 0 1 2.2 4.7 6 6 0 0 0 2.49-1.6L12.5 8.2l-.8.8Zm.1-1.5-.8.8a8.97 8.97 0 0 0-4.7-2.2A6 6 0 0 1 7.9 3.6l3.9 3.89ZM3.5 7C2.67 7 2 7.67 2 8.5V10a8 8 0 0 0 8 8h1.5c.83 0 1.5-.67 1.5-1.5V15a8 8 0 0 0-8-8H3.5Zm2.65 4.15c.2-.2.5-.2.7 0l2 2a.5.5 0 0 1-.7.7l-2-2a.5.5 0 0 1 0-.7Z"/></svg>