<svg width="20" height="20" viewBox="0 0 20 20" xmlns="http://www.w3.org/2000/svg"><path d="M13.7 12.7a5 5 0 0 0 1.46-.83L8.13 4.84A5 5 0 0 0 7.3 6.3a8.95 8.95 0 0 0-1-.2 6 6 0 1 1 7.6 7.6 8.97 8.97 0 0 0-.2-1Zm-1-4.7 3.17 3.16a4.98 4.98 0 0 0 1.06-4.02 2.99 2.99 0 0 1-3.17-.2L12.71 8Zm3.17-3.16-1.39 1.38a2 2 0 0 0 2.16-.08 5 5 0 0 0-.77-1.3ZM12.5 4.5c0-.52.13-1 .36-1.43a5.03 5.03 0 0 0-4.02 1.06L12 7.29l1.05-1.05a2.99 2.99 0 0 1-.55-1.74Zm1 0c0 .37.1.72.28 1.02l1.38-1.4a5 5 0 0 0-1.3-.76 2 2 0 0 0-.36 1.14ZM3.5 8a.5.5 0 0 0-.5.5V10a7 7 0 0 0 7 7h1.5a.5.5 0 0 0 .5-.5V15a7 7 0 0 0-7-7H3.5ZM2 8.5C2 7.67 2.67 7 3.5 7H5a8 8 0 0 1 8 8v1.5c0 .83-.67 1.5-1.5 1.5H10a8 8 0 0 1-8-8V8.5Zm4.15 2.65c.2-.2.5-.2.7 0l2 2a.5.5 0 0 1-.7.7l-2-2a.5.5 0 0 1 0-.7Z"/></svg>