<svg width="24" height="24" viewBox="0 0 24 24" xmlns="http://www.w3.org/2000/svg"><path d="M20.16 4.9a8 8 0 0 1 1.04 1.6 2.75 2.75 0 0 1-3.8 1.15l2.76-2.75ZM19.1 3.84l-2.75 2.75A2.74 2.74 0 0 1 17.5 2.8c.57.28 1.11.63 1.6 1.04ZM22 10c0-.62-.07-1.21-.2-1.79a4.24 4.24 0 0 1-5.48.53l-.76.76 5.03 5.03A7.96 7.96 0 0 0 22 10Zm-7.5-4.75c0-1.2.5-2.28 1.29-3.05a8.03 8.03 0 0 0-6.32 1.2l5.03 5.04.76-.76a4.23 4.23 0 0 1-.76-2.43Zm0 5.31 5.13 5.13A7.99 7.99 0 0 1 16 17.75c0-2.42-.88-4.64-2.35-6.34l.85-.85Zm-1.9-.21A9.71 9.71 0 0 0 6.24 8a7.99 7.99 0 0 1 2.06-3.63l5.13 5.13-.85.85ZM4.24 9C3.01 9 2 10 2 11.25v2A8.75 8.75 0 0 0 10.75 22h2c1.24 0 2.25-1 2.25-2.25v-2A8.75 8.75 0 0 0 6.25 9h-2Zm2.47 4.72c.3-.3.77-.3 1.06 0l2.5 2.5a.75.75 0 1 1-1.06 1.06l-2.5-2.5a.75.75 0 0 1 0-1.06Z"/></svg>