<svg width="24" height="24" viewBox="0 0 24 24" xmlns="http://www.w3.org/2000/svg"><path d="M20.1 4.97c.42.52.78 1.08 1.07 1.66a2.77 2.77 0 0 1-3.66.93l2.58-2.59Zm-1.07-1.06-2.59 2.58a2.75 2.75 0 0 1 .93-3.66 8.2 8.2 0 0 1 1.66 1.08Zm1.5 11.05a8.26 8.26 0 0 0 1.23-6.7 4.25 4.25 0 0 1-5.34.38l-1.1 1.11 5.2 5.21Zm-5.17-7.38a4.25 4.25 0 0 1 .39-5.34 8.26 8.26 0 0 0-6.71 1.24l5.21 5.2 1.1-1.1Zm-2.17 2.17-5.3-5.3A8.21 8.21 0 0 0 5.9 7.68c1.91.3 4.44 1.02 6.53 2.82l.75-.75Zm-1.46 1.46a9.2 9.2 0 0 1 1.06 1.06 12.13 12.13 0 0 1 2.56 6.08 16.23 16.23 0 0 1 .13 1.32 2.3 2.3 0 0 1-2.5 2.3c-1.98-.15-5.34-.77-7.76-3.19S2.18 13 2.02 11.02v-.19a2.3 2.3 0 0 1 2.5-2.3c.34.02.72.06 1.14.12 1.8.27 4.15.93 6.07 2.56Zm-3.7 2.26a.75.75 0 0 0-1.06 1.06l2.5 2.5a.75.75 0 1 0 1.06-1.06l-2.5-2.5Zm8.29 4.62a13.02 13.02 0 0 0-2.82-6.53l.75-.75 5.3 5.3a8.21 8.21 0 0 1-3.23 1.98Z"/></svg>