<svg width="24" height="24" viewBox="0 0 24 24" xmlns="http://www.w3.org/2000/svg"><path d="M18.04 15.1c-.64.5-1.37.88-2.16 1.12.08.5.12 1 .12 1.53A8 8 0 1 0 6.25 8c.52 0 1.03.04 1.53.12.24-.8.62-1.52 1.12-2.16l9.14 9.14Zm1.06-1.06L15.06 10l.76-.76a4.23 4.23 0 0 0 4.65.13 6.56 6.56 0 0 1-1.37 4.67ZM16.22 3.89c.66.24 1.27.59 1.82 1.01l-2.2 2.2a2.74 2.74 0 0 1 .38-3.21Zm-1.46 4.29-.76.76L9.96 4.9a6.47 6.47 0 0 1 4.67-1.37 4.23 4.23 0 0 0 .13 4.65Zm5.35-.4a2.74 2.74 0 0 1-3.2.37l2.19-2.19c.42.55.77 1.16 1 1.82ZM4.25 10.5a.75.75 0 0 0-.75.75v2c0 4 3.25 7.25 7.25 7.25h2c.41 0 .75-.34.75-.75v-2c0-4-3.25-7.25-7.25-7.25h-2ZM2 11.25C2 10.01 3 9 4.25 9h2A8.75 8.75 0 0 1 15 17.75v2c0 1.24-1 2.25-2.25 2.25h-2A8.75 8.75 0 0 1 2 13.25v-2Zm5.78 2.47a.75.75 0 0 0-1.06 1.06l2.5 2.5a.75.75 0 1 0 1.06-1.06l-2.5-2.5Z"/></svg>