<svg width="24" height="24" viewBox="0 0 24 24" xmlns="http://www.w3.org/2000/svg"><path d="M1 8.57V4.43c0-.57.32-1.09.83-1.34l3.5-1.75a1.5 1.5 0 011.34 0l3.5 1.75c.5.25.83.77.83 1.34v4.14a1.5 1.5 0 01-.83 1.35l-3.5 1.75a1.5 1.5 0 01-1.34 0l-3.5-1.75A1.5 1.5 0 011 8.57zm1.55-4.04a.5.5 0 00.23.67L5.5 6.56V9.5a.5.5 0 101 0V6.56L9.22 5.2a.5.5 0 10-.44-.9L6 5.7 3.22 4.3a.5.5 0 00-.67.23zm9-1.53c.29.41.45.9.45 1.43v4.14a2.5 2.5 0 01-1.38 2.24l-3.5 1.75a2.5 2.5 0 01-2.24 0L2 11.12v6.13c0 1.17.9 2.13 2.04 2.24a3 3 0 005.92.01h2.08a3 3 0 005.92 0h1.79c1.24 0 2.25-1 2.25-2.25v-5.41c0-.34-.07-.66-.22-.97l-1.7-3.58A2.25 2.25 0 0018.05 6H16.5v-.75c0-1.24-1-2.25-2.25-2.25h-2.7zm7.7 12.5h1.25V17h-1.25a.75.75 0 110-1.5zm-.52-7.57L20.18 11H16.5V7.5h1.55c.3 0 .55.17.68.43zM8.5 19a1.5 1.5 0 11-3 0 1.5 1.5 0 013 0zm6.5-1.5a1.5 1.5 0 110 3 1.5 1.5 0 010-3z"/></svg>