<svg width="28" height="28" viewBox="0 0 28 28" xmlns="http://www.w3.org/2000/svg"><path d="M4 5.25C4 3.45 5.46 2 7.25 2h13.5C22.55 2 24 3.46 24 5.25v12.13c-.12.08-.23.17-.34.28l-1.16 1.16V5.25c0-.97-.78-1.75-1.75-1.75H7.25c-.97 0-1.75.78-1.75 1.75v17.5c0 .97.78 1.75 1.75 1.75h8.07l1.5 1.5H7.25A3.25 3.25 0 014 22.75V5.25zm6.5 3.5a1.25 1.25 0 11-2.5 0 1.25 1.25 0 012.5 0zm-1.25 6.5a1.25 1.25 0 100-2.5 1.25 1.25 0 000 2.5zm0 5.25a1.25 1.25 0 100-2.5 1.25 1.25 0 000 2.5zM12.75 8a.75.75 0 000 1.5h6.5a.75.75 0 000-1.5h-6.5zM12 14c0-.41.34-.75.75-.75h6.5a.75.75 0 010 1.5h-6.5A.75.75 0 0112 14zm.75 4.5a.75.75 0 000 1.5h6.5a.75.75 0 000-1.5h-6.5zm13.03 1.28l-6 6a.75.75 0 01-1.06 0l-3-3a.75.75 0 011.06-1.06l2.47 2.47 5.47-5.47a.75.75 0 111.06 1.06z"/></svg>