<svg width="24" height="24" viewBox="0 0 24 24" xmlns="http://www.w3.org/2000/svg"><path d="M20 4.1A2.25 2.25 0 0 0 17.74 2H6.1A2.25 2.25 0 0 0 4 4.26V19.9A2.25 2.25 0 0 0 6.26 22h7.57l-1.5-1.5H6.15a.75.75 0 0 1-.65-.75V4.15a.75.75 0 0 1 .75-.65h11.6c.37.06.65.37.65.75v11.57l1.16-1.16c.1-.1.22-.2.34-.28V4.1ZM16.28 22a.7.7 0 0 1-.08 0 .75.75 0 0 1-.5-.22l-2.5-2.5a.75.75 0 0 1 1.07-1.06l1.97 1.97 4.47-4.47a.75.75 0 1 1 1.06 1.06l-5 5c-.13.13-.3.21-.5.22Zm-2.45-5.5H11.25a.75.75 0 0 1 0-1.5h5a.75.75 0 1 1 0 1.5h-2.4ZM9 7.75a1 1 0 1 1-2 0 1 1 0 0 1 2 0Zm1.5 0c0-.41.33-.75.75-.75h5a.75.75 0 1 1 0 1.5h-5a.75.75 0 0 1-.75-.75Zm.75 3.25a.75.75 0 0 0 0 1.5h5a.75.75 0 1 0 0-1.5h-5ZM8 12.75a1 1 0 1 0 0-2 1 1 0 0 0 0 2Zm1 3a1 1 0 1 1-2 0 1 1 0 0 1 2 0Z"/></svg>