<svg width="20" height="20" viewBox="0 0 20 20" xmlns="http://www.w3.org/2000/svg"><path d="M4 4c0-1.1.9-2 2-2h8a2 2 0 0 1 2 2v9.88l-1 1.01V4a1 1 0 0 0-1-1H6a1 1 0 0 0-1 1v12a1 1 0 0 0 1 1h4.09c.07.2.18.39.34.55l.44.45H6a2 2 0 0 1-2-2V4Zm4 1.5a1 1 0 1 1-2 0 1 1 0 0 1 2 0ZM9.5 5a.5.5 0 0 0 0 1h4a.5.5 0 0 0 0-1h-4Zm0 4a.5.5 0 0 0 0 1h4a.5.5 0 0 0 0-1h-4ZM9 13.5c0-.28.22-.5.5-.5h4a.5.5 0 0 1 0 1h-4a.5.5 0 0 1-.5-.5Zm-2-3a1 1 0 1 0 0-2 1 1 0 0 0 0 2Zm0 4a1 1 0 1 0 0-2 1 1 0 0 0 0 2Zm10.86.35a.5.5 0 0 0-.72-.7l-3.64 3.68-1.64-1.68a.5.5 0 1 0-.72.7l1.93 1.97a.6.6 0 0 0 .86 0l3.93-3.97Z"/></svg>