<svg width="20" height="20" viewBox="0 0 20 20" xmlns="http://www.w3.org/2000/svg"><path d="M10 6.5a4.5 4.5 0 1 1-9 0 4.5 4.5 0 0 1 9 0Zm-4-2a.5.5 0 0 0-1 0V6H3.5a.5.5 0 0 0 0 1H5v1.5a.5.5 0 0 0 1 0V7h1.5a.5.5 0 0 0 0-1H6V4.5ZM5.5 12a5.5 5.5 0 0 0 4.9-8H12a2 2 0 0 1 2 2v6a2 2 0 0 1-2 2H4a2 2 0 0 1-2-2v-1.26A5.48 5.48 0 0 0 5.5 12Zm-1.23 3c.34.6.99 1 1.73 1h6a4 4 0 0 0 4-4V8a2 2 0 0 0-1-1.73V12a3 3 0 0 1-3 3H4.27Zm2 2c.34.6.99 1 1.73 1h4a6 6 0 0 0 6-6v-2a2 2 0 0 0-1-1.73V12a5 5 0 0 1-5 5H6.27Z"/></svg>