<svg width="20" height="20" viewBox="0 0 20 20" xmlns="http://www.w3.org/2000/svg"><path d="M10 6.5a4.5 4.5 0 1 1-9 0 4.5 4.5 0 0 1 9 0Zm-4-2a.5.5 0 0 0-1 0V6H3.5a.5.5 0 0 0 0 1H5v1.5a.5.5 0 0 0 1 0V7h1.5a.5.5 0 0 0 0-1H6V4.5Zm6 .5h-1.2c-.1-.35-.24-.68-.4-1H12a2 2 0 0 1 2 2v6a2 2 0 0 1-2 2H4a2 2 0 0 1-2-2v-1.26c.3.26.64.48 1 .66v.6a1 1 0 0 0 1 1h8a1 1 0 0 0 1-1V6a1 1 0 0 0-1-1ZM6 16a2 2 0 0 1-1.73-1H12a3 3 0 0 0 3-3V6.27c.6.34 1 .99 1 1.73v4a4 4 0 0 1-4 4H6Zm2 2a2 2 0 0 1-1.73-1H12a5 5 0 0 0 5-5V8.27c.6.34 1 .99 1 1.73v2a6 6 0 0 1-6 6H8Z"/></svg>