<svg width="24" height="24" viewBox="0 0 24 24" xmlns="http://www.w3.org/2000/svg"><path d="M12 7.5a5.5 5.5 0 1 0-11 0 5.5 5.5 0 0 0 11 0ZM7 8v2.5a.5.5 0 1 1-1 0V8H3.5a.5.5 0 0 1 0-1H6V4.5a.5.5 0 0 1 1 0V7h2.5a.5.5 0 0 1 0 1H7Zm-.5 6a6.5 6.5 0 0 0 6-9H15a2 2 0 0 1 2 2v7a2 2 0 0 1-2 2H4a2 2 0 0 1-2-2v-1.81A6.48 6.48 0 0 0 6.5 14Zm0 4.5A2 2 0 0 1 4.56 17H15.5a2.5 2.5 0 0 0 2.5-2.5V7.56a2 2 0 0 1 1.5 1.94v5a4 4 0 0 1-4 4h-9ZM9 21a2 2 0 0 1-1.94-1.5h9.19c2.35 0 4.25-1.9 4.25-4.25v-5.19A2 2 0 0 1 22 12v3.25A5.75 5.75 0 0 1 16.25 21H9Z"/></svg>