<svg width="24" height="24" viewBox="0 0 24 24" xmlns="http://www.w3.org/2000/svg"><path d="M12 7.5a5.5 5.5 0 1 0-11 0 5.5 5.5 0 0 0 11 0ZM7 8v2.5a.5.5 0 1 1-1 0V8H3.5a.5.5 0 0 1 0-1H6V4.5a.5.5 0 0 1 1 0V7h2.5a.5.5 0 0 1 0 1H7Zm8-1.5h-2.08A6.45 6.45 0 0 0 12.5 5H15a2 2 0 0 1 2 2v7a2 2 0 0 1-2 2H4a2 2 0 0 1-2-2v-1.81c.44.43.95.8 1.5 1.08V14c0 .28.22.5.5.5h11a.5.5 0 0 0 .5-.5V7a.5.5 0 0 0-.5-.5ZM4.56 17a2 2 0 0 0 1.94 1.5h9a4 4 0 0 0 4-4v-5A2 2 0 0 0 18 7.56v6.94a2.5 2.5 0 0 1-2.5 2.5H4.56Zm2.5 2.5A2 2 0 0 0 9 21h7.25A5.75 5.75 0 0 0 22 15.25V12a2 2 0 0 0-1.5-1.94v5.19c0 2.35-1.9 4.25-4.25 4.25H7.06Z"/></svg>