<svg width="48" height="48" viewBox="0 0 48 48" xmlns="http://www.w3.org/2000/svg"><path d="M15.5 26a2.5 2.5 0 1 0 0-5 2.5 2.5 0 0 0 0 5Zm11-2.5a2.5 2.5 0 1 1-5 0 2.5 2.5 0 0 1 5 0Zm6 2.5a2.5 2.5 0 1 0 0-5 2.5 2.5 0 0 0 0 5ZM18 31.5a2.5 2.5 0 1 1-5 0 2.5 2.5 0 0 1 5 0Zm6 2.5a2.5 2.5 0 1 0 0-5 2.5 2.5 0 0 0 0 5ZM6 12.25C6 8.8 8.8 6 12.25 6h23.5C39.2 6 42 8.8 42 12.25v23.5C42 39.2 39.2 42 35.75 42h-23.5A6.25 6.25 0 0 1 6 35.75v-23.5Zm6.25-3.75a3.75 3.75 0 0 0-3.75 3.75V14h31v-1.75a3.75 3.75 0 0 0-3.75-3.75h-23.5ZM8.5 35.75a3.75 3.75 0 0 0 3.75 3.75h23.5a3.75 3.75 0 0 0 3.75-3.75V16.5h-31v19.25Z"/></svg>