<svg width="32" height="32" viewBox="0 0 32 32" xmlns="http://www.w3.org/2000/svg"><path d="M9.17 6H7.5C6.67 6 6 6.67 6 7.5v19c0 .83.67 1.5 1.5 1.5H12a1 1 0 1 1 0 2H7.5A3.5 3.5 0 0 1 4 26.5v-19A3.5 3.5 0 0 1 7.5 4h1.67A3 3 0 0 1 12 2h6a3 3 0 0 1 2.83 2h1.67A3.5 3.5 0 0 1 26 7.5a1 1 0 1 1-2 0c0-.83-.67-1.5-1.5-1.5h-1.67A3 3 0 0 1 18 8h-6a3 3 0 0 1-2.83-2ZM11 5a1 1 0 0 0 1 1h6a1 1 0 1 0 0-2h-6a1 1 0 0 0-1 1Zm3 8.5a3.5 3.5 0 0 1 3.5-3.5h8a3.5 3.5 0 0 1 3.5 3.5v13a3.5 3.5 0 0 1-3.5 3.5h-8a3.5 3.5 0 0 1-3.5-3.5v-13Z"/></svg>