<svg width="16" height="16" viewBox="0 0 16 16" xmlns="http://www.w3.org/2000/svg"><path d="M3.5 3.88a.61.61 0 0 1 1.13-.34.75.75 0 0 0 1.24-.83 2.11 2.11 0 1 0-2.09 3.26c.07.02.15.03.22.03h3.34a5.47 5.47 0 0 1 4.72-.78.75.75 0 0 0-.75-.72H4.11a.61.61 0 0 1-.61-.62ZM4.75 7h1.5a5.5 5.5 0 0 0-.88 1.5h-.62a.75.75 0 0 1 0-1.5Zm-2 2.5h2.34a5.53 5.53 0 0 0-.07 1.5H2.75a.75.75 0 0 1 0-1.5Zm2 2.5h.46c.15.54.38 1.04.68 1.5H4.75a.75.75 0 0 1 0-1.5Zm3-10a.75.75 0 1 0 0 1.5h5.5a.75.75 0 0 0 0-1.5h-5.5ZM15 10.5a4.5 4.5 0 1 1-9 0 4.5 4.5 0 0 1 9 0Zm-4-2a.5.5 0 0 0-1 0V10H8.5a.5.5 0 0 0 0 1H10v1.5a.5.5 0 1 0 1 0V11h1.5a.5.5 0 0 0 0-1H11V8.5Z"/></svg>