<svg width="28" height="28" viewBox="0 0 28 28" xmlns="http://www.w3.org/2000/svg"><path d="M3.5 7.51a1.98 1.98 0 0 1 3.63-1.1.75.75 0 1 0 1.25-.83 3.48 3.48 0 1 0-2.93 5.4c.04.02.08.02.13.02h15.67a.75.75 0 1 0 0-1.5H5.62a.75.75 0 0 0-.14-.01C4.4 9.49 3.5 8.6 3.5 7.5ZM11.75 6a.75.75 0 0 0 0 1.5h13.5a.75.75 0 0 0 0-1.5h-13.5Zm-5 7.25a.75.75 0 0 0 0 1.5h8.93a7.48 7.48 0 0 1 2.9-1.5H6.74Zm-4 3.75h11.11c-.24.47-.45.97-.59 1.5H2.75a.75.75 0 1 1 0-1.5Zm4 3.5H13c0 .51.05 1.02.15 1.5h-6.4a.75.75 0 1 1 0-1.5Zm20.25 0a6.5 6.5 0 1 1-13 0 6.5 6.5 0 0 1 13 0Zm-6-4a.5.5 0 0 0-1 0V20h-3.5a.5.5 0 1 0 0 1H20v3.5a.5.5 0 1 0 1 0V21h3.5a.5.5 0 1 0 0-1H21v-3.5Z"/></svg>