<svg width="28" height="28" viewBox="0 0 28 28" xmlns="http://www.w3.org/2000/svg"><path d="M4 7.5a1.5 1.5 0 012.75-.83A1 1 0 008.4 5.56 3.5 3.5 0 105.46 11H21a1 1 0 100-2H5.5A1.5 1.5 0 014 7.5zM12 5a1 1 0 100 2h13a1 1 0 100-2H12zm-5 8a1 1 0 100 2h8.4a7.47 7.47 0 015.06-2H7zm-4 4h10.87c-.33.62-.58 1.3-.72 2H3a1 1 0 110-2zm4 4h6.02c.04.7.18 1.37.4 2H7a1 1 0 110-2zm20-.5a6.5 6.5 0 11-13 0 6.5 6.5 0 0113 0zm-6-4a.5.5 0 00-1 0V20h-3.5a.5.5 0 000 1H20v3.5a.5.5 0 001 0V21h3.5a.5.5 0 000-1H21v-3.5z"/></svg>