<svg width="16" height="16" viewBox="0 0 16 16" xmlns="http://www.w3.org/2000/svg"><path d="M8 2a6 6 0 1 0 .88 11.94.75.75 0 1 0-.22-1.49 4.48 4.48 0 0 1-5.11-5.13 4.48 4.48 0 0 1 5.11-3.77.75.75 0 0 0 .22-1.49A6.07 6.07 0 0 0 8 2Zm3.58 1.18a.75.75 0 0 0-.9 1.2c.36.27.67.58.94.94a.75.75 0 1 0 1.2-.9c-.35-.47-.77-.89-1.24-1.24Zm2.36 3.94a.75.75 0 1 0-1.49.22c.07.43.07.89 0 1.32a.75.75 0 0 0 1.49.22c.08-.58.08-1.18 0-1.76Zm-1.12 4.45a.75.75 0 0 0-1.2-.89c-.27.36-.58.67-.94.94a.75.75 0 0 0 .9 1.2c.47-.35.89-.77 1.24-1.25Z"/></svg>