<svg width="16" height="16" viewBox="0 0 16 16" xmlns="http://www.w3.org/2000/svg"><path d="M8 2a6 6 0 1 0 0 12c.4 0 .8-.04 1.17-.11a.5.5 0 1 0-.2-.99 5.15 5.15 0 0 1-3.75-.74 5.03 5.03 0 0 1-1.38-1.38v-.01a4.97 4.97 0 0 1 1.39-6.93 4.97 4.97 0 0 1 3.75-.74.5.5 0 0 0 .2-.99A6.06 6.06 0 0 0 8 2.01Zm3.33 1.01a.5.5 0 0 0-.55.83c.54.37 1.01.84 1.38 1.38a.5.5 0 0 0 .83-.55c-.44-.66-1-1.22-1.66-1.66Zm2.56 3.82a.5.5 0 1 0-.99.2c.13.62.13 1.32 0 1.95a.5.5 0 0 0 .99.19c.15-.76.15-1.58 0-2.34Zm-.9 4.5a.5.5 0 0 0-.83-.55 5.03 5.03 0 0 1-1.38 1.38.5.5 0 0 0 .55.83c.66-.44 1.22-1 1.66-1.66Z"/></svg>