<svg width="20" height="20" viewBox="0 0 20 20" xmlns="http://www.w3.org/2000/svg"><path d="M10 2a7.96 7.96 0 0 0-8 8 8.08 8.08 0 0 0 1.5 4.66A8.04 8.04 0 0 0 10 18c.44 0 .88-.04 1.3-.1a.75.75 0 0 0-.24-1.49 6.5 6.5 0 1 1 0-12.83.75.75 0 0 0 .24-1.47c-.42-.07-.86-.1-1.3-.1Zm4.66 1.5a.75.75 0 0 0-.87 1.22c.57.41 1.08.92 1.5 1.5a.75.75 0 0 0 1.21-.88 8.04 8.04 0 0 0-1.84-1.84Zm3.23 5.2a.75.75 0 0 0-1.48.24c.12.69.12 1.43 0 2.12a.75.75 0 0 0 1.48.24c.14-.85.14-1.75 0-2.6Zm-1.39 5.96a.75.75 0 0 0-1.22-.87 6.54 6.54 0 0 1-1.5 1.5.75.75 0 1 0 .88 1.21 8.04 8.04 0 0 0 1.84-1.84Z"/></svg>