<svg width="20" height="20" viewBox="0 0 20 20" xmlns="http://www.w3.org/2000/svg"><path d="M8.44 2.15a7.95 7.95 0 0 0-6.34 6.6 8.06 8.06 0 0 0 3.46 7.9 8.08 8.08 0 0 0 6 1.19.5.5 0 0 0-.2-.97 7 7 0 1 1 0-13.73.5.5 0 0 0 .2-.99 8.04 8.04 0 0 0-3.12 0Zm6 1.2a.5.5 0 0 0-.55.83 7.04 7.04 0 0 1 1.93 1.93.5.5 0 1 0 .83-.56 8.04 8.04 0 0 0-2.2-2.2Zm3.4 5.09a.5.5 0 1 0-.97.2 7.2 7.2 0 0 1 0 2.73.5.5 0 1 0 .98.2 8.2 8.2 0 0 0 0-3.13Zm-1.19 6a.5.5 0 1 0-.83-.55 7.04 7.04 0 0 1-1.93 1.93.5.5 0 1 0 .55.83 8.04 8.04 0 0 0 2.21-2.2Z"/></svg>