<svg width="24" height="24" viewBox="0 0 24 24" xmlns="http://www.w3.org/2000/svg"><path d="M11.8 4A7.97 7.97 0 0 0 4 12.2a8 8 0 0 0 9.56 7.65 1 1 0 1 1 .39 1.96 10.05 10.05 0 0 1-9.36-3.1 9.96 9.96 0 0 1 .43-13.87 9.97 9.97 0 0 1 8.93-2.65 1 1 0 1 1-.39 1.96A8.04 8.04 0 0 0 11.8 4Zm5.76-.32a1 1 0 0 0-1.12 1.67 8.05 8.05 0 0 1 2.21 2.2 1 1 0 0 0 1.67-1.1 10.05 10.05 0 0 0-2.76-2.77Zm4.25 6.37a1 1 0 0 0-1.96.39 8.04 8.04 0 0 1 0 3.12 1 1 0 1 0 1.96.39 10.05 10.05 0 0 0 0-3.9Zm-1.5 7.5a1 1 0 0 0-1.66-1.1 8.05 8.05 0 0 1-2.2 2.2 1 1 0 0 0 1.1 1.67 10.05 10.05 0 0 0 2.77-2.76Z"/></svg>