<svg width="24" height="24" viewBox="0 0 24 24" xmlns="http://www.w3.org/2000/svg"><path d="M11.78 3.25a8.75 8.75 0 1 0 1.93 17.33.75.75 0 0 1 .29 1.47 10.3 10.3 0 0 1-9.6-3.17A10.25 10.25 0 0 1 14 1.94a.75.75 0 0 1-.3 1.48 8.8 8.8 0 0 0-1.92-.17Zm5.92.23a.75.75 0 0 0-.84 1.24 8.8 8.8 0 0 1 2.42 2.42.75.75 0 0 0 1.24-.84 10.3 10.3 0 0 0-2.82-2.82ZM22.05 10a.75.75 0 1 0-1.47.3 8.8 8.8 0 0 1 0 3.4.75.75 0 0 0 1.47.3 10.3 10.3 0 0 0 0-4Zm-1.53 7.7a.75.75 0 0 0-1.24-.84 8.8 8.8 0 0 1-2.42 2.42.75.75 0 0 0 .84 1.24 10.3 10.3 0 0 0 2.82-2.82Z"/></svg>