<svg width="28" height="28" viewBox="0 0 28 28" xmlns="http://www.w3.org/2000/svg"><path d="M15 11.75c0-.41.34-.75.75-.75h5.5a.75.75 0 0 1 0 1.5h-5.5a.75.75 0 0 1-.75-.75Zm.75 3.25a.75.75 0 0 0 0 1.5h5.5a.75.75 0 0 0 0-1.5h-5.5Zm-4.5-3.25a1.75 1.75 0 1 1-3.5 0 1.75 1.75 0 0 1 3.5 0ZM7 14.5h5a1 1 0 0 1 1 1v.5s-.5 2.5-3.5 2.5S6 16 6 16v-.5a1 1 0 0 1 1-1ZM2 6.75A2.75 2.75 0 0 1 4.75 4h18.5A2.75 2.75 0 0 1 26 6.75v14.5A2.75 2.75 0 0 1 23.25 24H4.75A2.75 2.75 0 0 1 2 21.25V6.75ZM4.75 5.5c-.69 0-1.25.56-1.25 1.25v14.5c0 .69.56 1.25 1.25 1.25h18.5c.7 0 1.25-.56 1.25-1.25V6.75c0-.69-.56-1.25-1.25-1.25H4.75Z"/></svg>