<svg width="20" height="20" viewBox="0 0 20 20" xmlns="http://www.w3.org/2000/svg"><path d="M4 4c0-1.1.9-2 2-2h8a2 2 0 012 2v11a1 1 0 01-1 1H5a1 1 0 001 1h9.5a.5.5 0 010 1H6a2 2 0 01-2-2V4zm6 1c-.76 0-1.47.16-2.02.48C7.43 5.8 7 6.31 7 7c0 .69.43 1.2.98 1.52.55.32 1.26.48 2.02.48s1.47-.16 2.02-.48c.55-.32.98-.83.98-1.52 0-.69-.43-1.2-.98-1.52A4.08 4.08 0 0010 5zM7.03 9.03a.79.79 0 00-.03.22c0 .3.18.55.33.71.17.18.4.36.65.5a4.1 4.1 0 004.04 0c.26-.14.48-.32.65-.5.15-.16.33-.41.33-.71a.79.79 0 00-.03-.22l-.45.3a5.1 5.1 0 01-5.49-.3zm0 2a.79.79 0 00-.03.22c0 .3.18.55.33.71.17.18.4.36.65.5a4.1 4.1 0 004.04 0c.26-.14.48-.32.65-.5.15-.16.33-.41.33-.71a.79.79 0 00-.03-.22l-.45.3a5.1 5.1 0 01-5.49-.3z"/></svg>