<svg width="16" height="16" viewBox="0 0 16 16" xmlns="http://www.w3.org/2000/svg"><path d="M6 1a2 2 0 0 0-2 2v2.09A1.5 1.5 0 0 1 4.91 7h.59a1.5 1.5 0 1 1 0 3h-.59A1.5 1.5 0 0 1 4 11.91V13c0 1.1.9 2 2 2h4a2 2 0 0 0 2-2v-1.09a1.5 1.5 0 0 1-.91-1.91h-.59a1.5 1.5 0 1 1 0-3h.59A1.5 1.5 0 0 1 12 5.09V3a2 2 0 0 0-2-2H6Zm4.5 7h2.8l-1.15-1.15a.5.5 0 0 1 .7-.7l2 2a.5.5 0 0 1 .15.35.5.5 0 0 1-.14.35l-2 2a.5.5 0 0 1-.71-.7L13.29 9H10.5a.5.5 0 0 1-.5-.5.5.5 0 0 1 .5-.5Zm-5 1a.5.5 0 0 0 0-1H2.7l1.15-1.15a.5.5 0 1 0-.7-.7l-2 2A.5.5 0 0 0 1 8.5a.5.5 0 0 0 .15.35l2 2a.5.5 0 0 0 .7-.7L2.71 9H5.5Z"/></svg>