<svg width="16" height="16" viewBox="0 0 16 16" xmlns="http://www.w3.org/2000/svg"><path d="M4 3c0-1.1.9-2 2-2h4a2 2 0 0 1 2 2v2.09a1.5 1.5 0 0 0-1 1.41V3a1 1 0 0 0-1-1H6a1 1 0 0 0-1 1v3.5a1.5 1.5 0 0 0-1-1.41V3Zm7 7.5V13a1 1 0 0 1-1 1H6a1 1 0 0 1-1-1v-2.5a1.5 1.5 0 0 1-1 1.41V13c0 1.1.9 2 2 2h4a2 2 0 0 0 2-2v-1.09a1.5 1.5 0 0 1-1-1.41ZM1.15 8.15l2-2a.5.5 0 1 1 .7.7L2.71 8H5.5a.5.5 0 0 1 0 1H2.7l1.15 1.15a.5.5 0 0 1-.7.7l-2-2A.5.5 0 0 1 1 8.5a.5.5 0 0 1 .14-.35Zm11.7 2.7 2-2A.5.5 0 0 0 15 8.5a.5.5 0 0 0-.15-.35l-2-2a.5.5 0 0 0-.7.7L13.29 8H10.5a.5.5 0 0 0 0 1h2.8l-1.15 1.15a.5.5 0 0 0 .7.7Z"/></svg>