<svg width="20" height="20" viewBox="0 0 20 20" xmlns="http://www.w3.org/2000/svg"><path d="M2.85 2.15a.5.5 0 1 0-.7.7l3.03 3.03a9.63 9.63 0 0 0-3.06 2.86.5.5 0 0 0 .82.57 8.61 8.61 0 0 1 2.97-2.7l1.44 1.44A6.44 6.44 0 0 0 4.28 11a.5.5 0 1 0 .9.45A5.41 5.41 0 0 1 8.1 8.82l1.86 1.85a4.02 4.02 0 0 0-3.63 2.43.5.5 0 0 0 .92.4 3.03 3.03 0 0 1 3.93-1.6l1.65 1.65a.5.5 0 0 0 .2.2l4.1 4.1a.5.5 0 0 0 .71-.7l-15-15ZM9.6 7.48l1.02 1.02a5.43 5.43 0 0 1 4.28 2.97.5.5 0 0 0 .9-.46A6.43 6.43 0 0 0 9.6 7.48ZM7.14 5.01l.8.81a8.6 8.6 0 0 1 9.2 3.5.5.5 0 0 0 .83-.57A9.61 9.61 0 0 0 7.14 5.02Zm3.82 8.78a1.3 1.3 0 1 1-1.83 1.83 1.3 1.3 0 0 1 1.83-1.83Z"/></svg>