<svg width="32" height="32" viewBox="0 0 32 32" xmlns="http://www.w3.org/2000/svg"><path d="M23 3c0-1.1.9-2 2-2h4a2 2 0 012 2v6a2 2 0 01-2 2h-1v19a1 1 0 11-2 0V11h-1a2 2 0 01-2-2V3zm-1.5 0H10.4a4 4 0 00-3.9 3.13L5.86 9H5a1 1 0 000 2h.42l-.33 1.48A4 4 0 003 16v10a3 3 0 003 3h1a3 3 0 003-3v-1h12v1a3 3 0 002.5 2.96v-2.1A1 1 0 0124 26v-1h.5V12.46a3.48 3.48 0 01-1.3-.46H7.25l1.2-5.43A2 2 0 0110.41 5H21.5V3zM5 26v-1h3v1a1 1 0 01-1 1H6a1 1 0 01-1-1zm8.5-5a1 1 0 110-2h5a1 1 0 110 2h-5zM11 17.5a1.5 1.5 0 11-3 0 1.5 1.5 0 013 0zM22.5 16a1.5 1.5 0 110 3 1.5 1.5 0 010-3z"/></svg>