<svg width="24" height="24" viewBox="0 0 24 24" xmlns="http://www.w3.org/2000/svg"><path d="M17.25 2a1 1 0 011-1H22a1 1 0 011 1v5a1 1 0 01-1 1h-1v14.25a.75.75 0 01-1.5 0V8h-1.25a1 1 0 01-1-1V2zM15.8 3l.45.03v1.53c-.14-.04-.3-.06-.45-.06H8.2c-.8 0-1.5.55-1.7 1.33L5.71 9H18.5v9.5h-1v1.25c0 .13.11.25.25.25h.75v1.5h-.75c-.97 0-1.75-.79-1.75-1.75V18.5H8v1.25c0 .96-.78 1.75-1.75 1.75h-1.5C3.78 21.5 3 20.7 3 19.75v-8.5c0-.81.43-1.53 1.08-1.92l.2-.83h-.53a.75.75 0 01-.74-.65L3 7.75c0-.38.28-.7.65-.74l.1-.01h.91l.39-1.54A3.25 3.25 0 018.2 3h7.6zM6.5 18.5h-2v1.25c0 .13.11.25.25.25h1.5c.14 0 .25-.12.25-.25V18.5zm7.25-4.5h-3.6a.75.75 0 000 1.5h3.7a.75.75 0 00-.1-1.5zM17 12a1 1 0 100 2 1 1 0 000-2zM7 12a1 1 0 100 2 1 1 0 000-2z"/></svg>