<svg width="20" height="20" viewBox="0 0 20 20" xmlns="http://www.w3.org/2000/svg"><path d="M14 1.5c0-.28.22-.5.5-.5h4c.28 0 .5.22.5.5v5a.5.5 0 0 1-.5.5H17v11.5a.5.5 0 0 1-1 0V7h-1.5a.5.5 0 0 1-.5-.5v-5ZM13 3H6.14a2.5 2.5 0 0 0-2.45 2.01l-.2.99h-.74a.75.75 0 0 0 0 1.5h.44l-.11.56A1.5 1.5 0 0 0 2 9.5v5c0 .83.67 1.5 1.5 1.5H4v1a1 1 0 1 0 2 0v-1h8v1a1 1 0 0 0 1 1v-3H3.5a.5.5 0 0 1-.5-.5v-5c0-.28.22-.5.5-.5H15V8H4.11l.56-2.8C4.8 4.5 5.42 4 6.14 4H13V3Zm2 9a1 1 0 1 0-2 0 1 1 0 0 0 2 0Zm-8 0a1 1 0 1 0-2 0 1 1 0 0 0 2 0Z"/></svg>