<svg width="16" height="16" viewBox="0 0 16 16" xmlns="http://www.w3.org/2000/svg"><path d="M10 .5c0-.28.22-.5.5-.5h4c.28 0 .5.22.5.5v5a.5.5 0 01-.5.5H13v8.5a.5.5 0 01-1 0V6h-1.5a.5.5 0 01-.5-.5v-5zM5.32 2H9v1H5.32a1 1 0 00-1 .87L4.06 6H9.1c.2.58.76 1 1.41 1h-7a.5.5 0 00-.5.5v3c0 .28.22.5.5.5H11v1H5v1.25a.75.75 0 01-1.5 0V12A1.5 1.5 0 012 10.5v-3c0-.67.43-1.23 1.03-1.43L3.04 6H2.5a.5.5 0 010-1h.67l.17-1.26A2 2 0 015.32 2zm5.43 6.25c.09 0 .17.02.25.04v1.42a.75.75 0 11-.25-1.46zM6 9a.75.75 0 11-1.5 0A.75.75 0 016 9z"/></svg>