<svg width="48" height="48" viewBox="0 0 48 48" xmlns="http://www.w3.org/2000/svg"><path d="M36.5 2a2 2 0 00-2 2v10c0 1.1.9 2 2 2H39v28.75a1.25 1.25 0 102.5 0V16H44a2 2 0 002-2V4a2 2 0 00-2-2h-7.5zm-4 4.19c-.49-.13-1-.19-1.52-.19h-14.3a6.25 6.25 0 00-6.08 4.76L9.81 14H7.25a1.25 1.25 0 100 2.5H9.2l-.43 1.77A4.25 4.25 0 006 22.25v17.5C6 41.55 7.46 43 9.25 43h3.5c1.8 0 3.25-1.46 3.25-3.25V36.5h16v3.25c0 1.8 1.46 3.25 3.25 3.25H37v-2.5h-1.75a.75.75 0 01-.75-.75V36.5H37V34H8.5V22.25c0-.97.78-1.75 1.75-1.75H37V18H11.4l1.63-6.64a3.75 3.75 0 013.64-2.86h14.3c.55 0 1.06.11 1.53.32V6.2zM20.25 28a1.25 1.25 0 100 2.5h7.5a1.25 1.25 0 100-2.5h-7.5zM14 28a2 2 0 100-4 2 2 0 000 4zm22-2a2 2 0 11-4 0 2 2 0 014 0zM8.5 39.75V36.5h5v3.25c0 .41-.34.75-.75.75h-3.5a.75.75 0 01-.75-.75z"/></svg>