<svg width="20" height="20" viewBox="0 0 20 20" xmlns="http://www.w3.org/2000/svg"><path d="M9.5 3a3.5 3.5 0 0 0-3.43 2.81l-.06.3a.75.75 0 0 0 1.48.29l.05-.3A2 2 0 1 1 9.5 8.5H2.75a.75.75 0 1 0 0 1.5H9.5a3.5 3.5 0 0 0 0-7Zm6.05 5c-.93 0-1.78.52-2.19 1.35l-.03.06a.75.75 0 1 0 1.34.68l.03-.07a.95.95 0 0 1 1.8.43v.05a1 1 0 0 1-1 1H2.75a.75.75 0 0 0 0 1.5H12.38a.88.88 0 1 1 0 1.75.88.88 0 0 1-.74-.39l-.02-.02a.75.75 0 0 0-1.24.83l.01.02A2.38 2.38 0 0 0 14.6 13h.91a2.5 2.5 0 0 0 2.5-2.5v-.05C18 9.1 16.9 8 15.55 8ZM4 5a1 1 0 1 0 0-2 1 1 0 0 0 0 2Zm4 11a1 1 0 1 1-2 0 1 1 0 0 1 2 0Zm8-10a1 1 0 1 0 0-2 1 1 0 0 0 0 2Z"/></svg>