<svg width="20" height="20" viewBox="0 0 20 20" xmlns="http://www.w3.org/2000/svg"><path d="M4 4.75a.75.75 0 1 0 0-1.5.75.75 0 0 0 0 1.5ZM9.75 3.5a3.25 3.25 0 0 0-3.18 2.61l-.06.3a.5.5 0 1 0 .98.19l.06-.3A2.25 2.25 0 1 1 9.75 9H2.5a.5.5 0 1 0 0 1h7.25a3.25 3.25 0 0 0 0-6.5ZM15.5 8a2.5 2.5 0 0 0-2.5 2.5.5.5 0 0 0 1 0 1.5 1.5 0 1 1 1.5 1.5h-13a.5.5 0 1 0 0 1h9.75a1.25 1.25 0 1 1 0 2.5c-.62 0-1.15-.45-1.25-1.05v-.03a.5.5 0 1 0-1 .16l.01.03a2.26 2.26 0 0 0 4.49-.36c0-.46-.14-.9-.38-1.25h1.38a2.5 2.5 0 0 0 0-5Zm-7.75 8a.75.75 0 1 1-1.5 0 .75.75 0 0 1 1.5 0ZM16 5.75a.75.75 0 1 0 0-1.5.75.75 0 0 0 0 1.5Z"/></svg>