<svg width="24" height="24" viewBox="0 0 24 24" xmlns="http://www.w3.org/2000/svg"><path d="M11.97 4a4.07 4.07 0 0 0-3.9 2.88l-.04.15a.75.75 0 1 0 1.44.44l.04-.15a2.57 2.57 0 0 1 2.46-1.82 2.5 2.5 0 1 1 .03 5H2.75a.75.75 0 0 0 0 1.5H12a4 4 0 1 0-.03-8Zm7.1 6c-1.26 0-2.38.82-2.78 2.01a.75.75 0 0 0 1.42.48 1.43 1.43 0 0 1 2.79.44V13c0 .83-.67 1.5-1.5 1.5H2.75a.75.75 0 0 0 0 1.5h12.5a1.25 1.25 0 1 1 0 2.5h-.13c-.4 0-.77-.23-.95-.58a.75.75 0 0 0-1.34.67A2.56 2.56 0 0 0 15.12 20h.13a2.75 2.75 0 0 0 2.45-4H19a3 3 0 0 0 3-3v-.07A2.93 2.93 0 0 0 19.07 10ZM5 5a1 1 0 1 1-2 0 1 1 0 0 1 2 0Zm4 16a1 1 0 1 0 0-2 1 1 0 0 0 0 2ZM20 6a1 1 0 1 1-2 0 1 1 0 0 1 2 0Z"/></svg>