<svg width="24" height="25" viewBox="0 0 24 25" xmlns="http://www.w3.org/2000/svg"><path d="M15.25 12c.97 0 1.75.78 1.75 1.75v4c0 .97-.78 1.75-1.75 1.75h-4.78l-.04-.05a5.48 5.48 0 00-.43-5.61v-.34h-.26a5.52 5.52 0 00-1.67-1.36c.21-.1.44-.14.68-.14h6.5zm-3.75 4.5V18h3.75c.14 0 .25-.11.25-.25V16.5h-4zm4-1.5v-1.25a.25.25 0 00-.25-.25H11.5V15h4zm2.5 6h-6.03l.52.51c.28.28.44.63.5.99H18a2 2 0 002-2V10.33a2 2 0 00-.59-1.42L13.6 3.1a.5.5 0 00-.05-.04 2.07 2.07 0 00-.34-.25l-.05-.03-.05-.03-.16-.09c-.2-.08-.41-.12-.63-.14h-.06a.6.6 0 00-.08-.01H6a2 2 0 00-2 2v7.2c.48-.13.98-.2 1.5-.2v-7c0-.28.22-.5.5-.5h6v4.5c0 1.1.9 2 2 2h4.5v10a.5.5 0 01-.5.5zm-.62-12H14a.5.5 0 01-.5-.5V5.12L17.38 9zM5.5 21.5c.97 0 1.87-.3 2.6-.83l2.62 2.61a.75.75 0 101.06-1.06l-2.61-2.61a4.5 4.5 0 10-3.67 1.9zm0-1.5a3 3 0 110-6 3 3 0 010 6z"/></svg>