<svg width="20" height="20" viewBox="0 0 20 20" xmlns="http://www.w3.org/2000/svg"><path d="M2 6.75A2.75 2.75 0 0 1 4.75 4h10.5A2.75 2.75 0 0 1 18 6.75V8H2V6.75ZM13.5 9H2v4.25A2.75 2.75 0 0 0 4.75 16H9v-2.5a2.5 2.5 0 0 1 2.04-2.46A2.5 2.5 0 0 1 13.5 9ZM12 12v-.5c0-.83.67-1.5 1.5-1.5h2c.83 0 1.5.67 1.5 1.5v.5h.5c.83 0 1.5.67 1.5 1.5V15h-2v-.5a.5.5 0 0 0-1 0v.5h-3v-.5a.5.5 0 0 0-1 0v.5h-2v-1.5c0-.83.67-1.5 1.5-1.5h.5Zm1-.5v.5h3v-.5a.5.5 0 0 0-.5-.5h-2a.5.5 0 0 0-.5.5Zm4 5V16h2v1.5c0 .83-.67 1.5-1.5 1.5h-6a1.5 1.5 0 0 1-1.5-1.5V16h2v.5a.5.5 0 0 0 1 0V16h3v.5a.5.5 0 0 0 1 0Z"/></svg>