<svg width="20" height="20" viewBox="0 0 20 20" xmlns="http://www.w3.org/2000/svg"><path d="M4.5 3A2.5 2.5 0 0 0 2 5.5v9A2.5 2.5 0 0 0 4.5 17h5.1c-.16-.32-.3-.65-.4-1H4.5A1.5 1.5 0 0 1 3 14.5v-7h4.07c.41 0 .8-.17 1.09-.47L9.62 5.5h5.88c.83 0 1.5.67 1.5 1.5v2.6c.36.18.7.4 1 .66V7a2.5 2.5 0 0 0-2.5-2.5H9.67l-1.6-1.2a1.5 1.5 0 0 0-.9-.3H4.5ZM3 5.5C3 4.67 3.67 4 4.5 4h2.67c.1 0 .21.04.3.1l1.22.92-1.26 1.32a.5.5 0 0 1-.36.16H3v-1ZM14.5 10a4.5 4.5 0 1 1 0 9 4.5 4.5 0 0 1 0-9Zm2.35 4.85a.5.5 0 0 0 .15-.35.5.5 0 0 0-.15-.35l-2-2a.5.5 0 0 0-.7.7L15.29 14H12.5a.5.5 0 0 0 0 1h2.8l-1.15 1.15a.5.5 0 0 0 .7.7l2-2Z"/></svg>