<svg width="16" height="16" viewBox="0 0 16 16" xmlns="http://www.w3.org/2000/svg"><path d="M7 4.5v5a2.5 2.5 0 0 1-5 0V9a.5.5 0 0 1 1 0v.5a1.5 1.5 0 1 0 3 0v-5a.5.5 0 0 1 1 0Zm3.68 3.03C9.63 7.14 9 6.86 9 6.25 9 5.33 9.8 5 10.5 5s1.5.33 1.5 1.25a.5.5 0 0 0 1 0 2.28 2.28 0 0 0-1.57-2.15 3.22 3.22 0 0 0-1.86 0A2.28 2.28 0 0 0 8 6.25c0 1.35 1.29 1.83 2.32 2.22 1.04.39 1.68.67 1.68 1.28 0 .92-.8 1.25-1.5 1.25S9 10.67 9 9.75a.5.5 0 0 0-1 0A2.28 2.28 0 0 0 10.5 12 2.28 2.28 0 0 0 13 9.75c0-1.35-1.29-1.83-2.32-2.22Z"/></svg>