<svg width="20" height="20" viewBox="0 0 20 20" xmlns="http://www.w3.org/2000/svg"><path d="M10 2v4.5c0 .83.67 1.5 1.5 1.5H16v8.5c0 .83-.67 1.5-1.5 1.5h-3.55c.03-.16.05-.33.05-.5v-4a2.5 2.5 0 00-2.04-2.46A2.5 2.5 0 006.5 9h-2c-.17 0-.34.02-.5.05V3.5C4 2.67 4.67 2 5.5 2H10zm1 .25V6.5c0 .28.22.5.5.5h4.25L11 2.25zM3 11.5v.5h-.5c-.83 0-1.5.67-1.5 1.5v4c0 .83.67 1.5 1.5 1.5h6c.83 0 1.5-.67 1.5-1.5v-4c0-.83-.67-1.5-1.5-1.5H8v-.5c0-.83-.67-1.5-1.5-1.5h-2c-.83 0-1.5.67-1.5 1.5zm1.5-.5h2c.28 0 .5.22.5.5v.5H4v-.5c0-.28.22-.5.5-.5z"/></svg>