<svg width="24" height="24" viewBox="0 0 24 24" xmlns="http://www.w3.org/2000/svg"><path d="M12 2v6c0 1.1.9 2 2 2h6v10a2 2 0 01-2 2h-5.05c.03-.16.05-.33.05-.5v-5a2.5 2.5 0 00-2-2.45v-.3A2.75 2.75 0 008.25 11h-3.5c-.26 0-.51.04-.75.1V4c0-1.1.9-2 2-2h6zm1.5.5V8c0 .28.22.5.5.5h5.5l-6-6zM3 15h-.5c-.83 0-1.5.67-1.5 1.5v5c0 .83.67 1.5 1.5 1.5h8c.83 0 1.5-.67 1.5-1.5v-5c0-.83-.67-1.5-1.5-1.5H10v-1.25c0-.97-.78-1.75-1.75-1.75h-3.5C3.78 12 3 12.78 3 13.75V15zm1.5-1.25c0-.14.11-.25.25-.25h3.5c.14 0 .25.11.25.25V15h-4v-1.25z"/></svg>