<svg width="20" height="20" viewBox="0 0 20 20" xmlns="http://www.w3.org/2000/svg"><path d="M5 2.5a.5.5 0 00-1 0c0 1 .69 1.52 1.16 1.87l.04.03c.53.4.8.63.8 1.1a.5.5 0 001 0c0-1-.69-1.52-1.16-1.87L5.8 3.6c-.53-.4-.8-.63-.8-1.1zM3.93 7a.93.93 0 00-.93.93V12a6 6 0 0011.2 3H16a3 3 0 100-6h-1V7.93a.93.93 0 00-.93-.93H3.93zM16 14h-1.34c.22-.63.34-1.3.34-2v-2h1a2 2 0 110 4zM7.5 2c.28 0 .5.22.5.5 0 .47.27.7.8 1.1l.04.03C9.31 3.98 10 4.5 10 5.5a.5.5 0 01-1 0c0-.47-.27-.7-.8-1.1l-.04-.03C7.69 4.02 7 3.5 7 2.5c0-.28.22-.5.5-.5zm3.5.5a.5.5 0 00-1 0c0 1 .69 1.52 1.16 1.87l.04.03c.53.4.8.63.8 1.1a.5.5 0 001 0c0-1-.69-1.52-1.16-1.87l-.04-.03c-.53-.4-.8-.63-.8-1.1z"/></svg>