<svg width="16" height="16" viewBox="0 0 16 16" xmlns="http://www.w3.org/2000/svg"><path d="M2.5 0c.28 0 .5.22.5.5 0 .47.27.7.8 1.1l.04.03C4.31 1.98 5 2.5 5 3.5a.5.5 0 01-1 0c0-.47-.27-.7-.8-1.1l-.04-.03C2.69 2.02 2 1.5 2 .5c0-.28.22-.5.5-.5zm3 0c.28 0 .5.22.5.5 0 .47.27.7.8 1.1l.04.03C7.31 1.98 8 2.5 8 3.5a.5.5 0 01-1 0c0-.47-.27-.7-.8-1.1l-.04-.03C5.69 2.02 5 1.5 5 .5c0-.28.22-.5.5-.5zM9 .5a.5.5 0 00-1 0c0 1 .69 1.52 1.16 1.87l.04.03c.53.4.8.63.8 1.1a.5.5 0 001 0c0-1-.69-1.52-1.16-1.87L9.8 1.6C9.27 1.2 9 .97 9 .5zM13 6h.5a2.5 2.5 0 010 5h-.7A5.5 5.5 0 012 9.5V5.9c0-.5.4-.9.9-.9h9.2c.5 0 .9.4.9.9V6zM3 6v3.5a4.5 4.5 0 109 0V6H3zm10 1v2.5c0 .17 0 .34-.02.5h.52a1.5 1.5 0 000-3H13z"/></svg>