<svg width="24" height="24" viewBox="0 0 24 24" xmlns="http://www.w3.org/2000/svg"><path d="M5.5 2.75a.75.75 0 0 0-1.5 0c0 1.27.93 1.92 1.5 2.32l.07.04c.68.48.93.7.93 1.14a.75.75 0 0 0 1.5 0c0-1.27-.93-1.92-1.5-2.32l-.07-.04c-.68-.48-.93-.7-.93-1.14ZM3 9.82C3 8.82 3.82 8 4.82 8h12.36c1 0 1.82.82 1.82 1.82v.68h.75a3.25 3.25 0 0 1 0 6.5h-1.33A8 8 0 0 1 3 14V9.82Zm14.5 0a.32.32 0 0 0-.32-.32H4.82a.32.32 0 0 0-.32.32V14a6.5 6.5 0 1 0 13 0V9.82ZM19.75 12H19v2c0 .51-.05 1.01-.14 1.5h.89a1.75 1.75 0 1 0 0-3.5Zm-11-10c.41 0 .75.34.75.75 0 .43.25.66.93 1.14l.06.04c.58.4 1.51 1.05 1.51 2.32a.75.75 0 0 1-1.5 0c0-.43-.25-.66-.93-1.14l-.06-.04C8.93 4.67 8 4.02 8 2.75c0-.41.34-.75.75-.75Zm4.75.75a.75.75 0 0 0-1.5 0c0 1.27.93 1.92 1.5 2.32l.07.04c.68.48.93.7.93 1.14a.75.75 0 0 0 1.5 0c0-1.27-.93-1.92-1.5-2.32l-.07-.04c-.68-.48-.93-.7-.93-1.14Z"/></svg>