<svg width="16" height="16" viewBox="0 0 16 16" xmlns="http://www.w3.org/2000/svg"><path d="M3 .5a.5.5 0 00-1 0c0 1 .69 1.52 1.16 1.87l.04.03c.53.4.8.63.8 1.1a.5.5 0 001 0c0-1-.69-1.52-1.16-1.87L3.8 1.6C3.27 1.2 3 .97 3 .5zm3 0a.5.5 0 00-1 0c0 1 .69 1.52 1.16 1.87l.04.03c.53.4.8.63.8 1.1a.5.5 0 001 0c0-1-.69-1.52-1.16-1.87L6.8 1.6C6.27 1.2 6 .97 6 .5zM8.5 0c.28 0 .5.22.5.5 0 .47.27.7.8 1.1l.04.03c.47.35 1.16.87 1.16 1.87a.5.5 0 01-1 0c0-.47-.27-.7-.8-1.1l-.04-.03C8.69 2.02 8 1.5 8 .5c0-.28.22-.5.5-.5zM2 5.9c0-.5.4-.9.9-.9h9.2c.5 0 .9.4.9.9V6h.5a2.5 2.5 0 010 5h-.7A5.5 5.5 0 012 9.5V5.9zM12.98 10h.52a1.5 1.5 0 000-3H13v2.5c0 .17 0 .34-.02.5z"/></svg>