<svg width="24" height="24" viewBox="0 0 24 24" xmlns="http://www.w3.org/2000/svg"><path d="M5.5 2.75a.75.75 0 00-1.5 0c0 1.27.93 1.92 1.5 2.32l.07.04c.68.48.93.7.93 1.14a.75.75 0 001.5 0c0-1.27-.93-1.92-1.5-2.32l-.07-.04c-.68-.48-.93-.7-.93-1.14zM3 9.82C3 8.82 3.82 8 4.82 8h12.36c1 0 1.82.82 1.82 1.82v.68h.75a3.25 3.25 0 010 6.5h-1.33A8 8 0 013 14V9.82zm14.5 0a.32.32 0 00-.32-.32H4.82a.32.32 0 00-.32.32V14a6.5 6.5 0 1013 0V9.82zM19.75 12H19v2c0 .51-.05 1.01-.14 1.5h.89a1.75 1.75 0 100-3.5zm-11-10c.41 0 .75.34.75.75 0 .43.25.66.93 1.14l.06.04c.58.4 1.51 1.05 1.51 2.32a.75.75 0 01-1.5 0c0-.43-.25-.66-.93-1.14l-.06-.04C8.93 4.67 8 4.02 8 2.75c0-.41.34-.75.75-.75zm4.75.75a.75.75 0 00-1.5 0c0 1.27.93 1.92 1.5 2.32l.07.04c.68.48.93.7.93 1.14a.75.75 0 001.5 0c0-1.27-.93-1.92-1.5-2.32l-.07-.04c-.68-.48-.93-.7-.93-1.14z"/></svg>