<svg width="24" height="24" viewBox="0 0 24 24" xmlns="http://www.w3.org/2000/svg"><path d="M5.5 2.75a.75.75 0 00-1.5 0c0 1.27.93 1.92 1.5 2.32l.07.04c.68.48.93.7.93 1.14a.75.75 0 001.5 0c0-1.27-.93-1.92-1.5-2.32l-.07-.04c-.68-.48-.93-.7-.93-1.14zM4.82 8C3.82 8 3 8.82 3 9.82V14a8 8 0 0015.42 3h1.33a3.25 3.25 0 000-6.5H19v-.68c0-1-.82-1.82-1.82-1.82H4.82zm14.93 7.5h-.89c.1-.49.14-.99.14-1.5v-2h.75a1.75 1.75 0 110 3.5zM8.75 2c.41 0 .75.34.75.75 0 .43.25.66.93 1.14l.06.04c.58.4 1.51 1.05 1.51 2.32a.75.75 0 01-1.5 0c0-.43-.25-.66-.93-1.14l-.06-.04C8.93 4.67 8 4.02 8 2.75c0-.41.34-.75.75-.75zm4.75.75a.75.75 0 00-1.5 0c0 1.27.93 1.92 1.5 2.32l.07.04c.68.48.93.7.93 1.14a.75.75 0 001.5 0c0-1.27-.93-1.92-1.5-2.32l-.07-.04c-.68-.48-.93-.7-.93-1.14z"/></svg>