<svg width="24" height="24" viewBox="0 0 24 24" xmlns="http://www.w3.org/2000/svg"><path d="M17.25 2c.41 0 .75.34.75.75v16.69l2.22-2.22a.75.75 0 111.06 1.06l-3.5 3.5c-.3.3-.77.3-1.06 0l-3.5-3.5a.75.75 0 111.06-1.06l2.22 2.22V2.75c0-.41.34-.75.75-.75zm-9.48.49a.75.75 0 00-1.4-.01l-3.32 8.5a.75.75 0 101.4.54l.79-2.02h3.55l.76 2.01a.75.75 0 001.4-.52l-3.18-8.5zM5.82 8l1.23-3.15L8.23 8h-2.4zM4 13.75c0-.41.34-.75.75-.75H9.5a.75.75 0 01.63 1.15L6.11 20.5H9.5a.75.75 0 110 1.5H4.75a.75.75 0 01-.63-1.15l4.02-6.35H4.75a.75.75 0 01-.75-.75z"/></svg>