<svg width="20" height="20" viewBox="0 0 20 20" xmlns="http://www.w3.org/2000/svg"><path d="M3 6a3 3 0 0 1 3-3h8a3 3 0 0 1 3 3v3.6a5.5 5.5 0 0 0-7.78 3.34 4.23 4.23 0 0 1-1.73-.68 1.97 1.97 0 0 1-.14-.11.5.5 0 0 0-.7.7v.01l.02.02a2 2 0 0 0 .22.18 5.22 5.22 0 0 0 2.14.87A5.56 5.56 0 0 0 9.6 17H6a3 3 0 0 1-3-3V6Zm4.5 3a1 1 0 1 0 0-2 1 1 0 0 0 0 2Zm6-1a1 1 0 1 0-2 0 1 1 0 0 0 2 0Zm5.5 6.5a4.5 4.5 0 1 1-9 0 4.5 4.5 0 0 1 9 0Zm-4-2a.5.5 0 0 0-1 0V14h-1.5a.5.5 0 0 0 0 1H14v1.5a.5.5 0 0 0 1 0V15h1.5a.5.5 0 0 0 0-1H15v-1.5Z"/></svg>