<svg width="24" height="24" viewBox="0 0 24 24" xmlns="http://www.w3.org/2000/svg"><path d="M18.25 3C17.01 3 16 4 16 5.25v5.92a6.51 6.51 0 014.5.56V5.25C20.5 4 19.5 3 18.25 3zM14 9.25v2.77a6.5 6.5 0 00-1.99 8.96l-.26.02c-1.24 0-2.25-1-2.25-2.25v-9.5a2.25 2.25 0 114.5 0zm-11 4a2.25 2.25 0 114.5 0v5.5a2.25 2.25 0 11-4.5 0v-5.5zm20 4.25a5.5 5.5 0 11-11 0 5.5 5.5 0 0111 0zm-4.94-3.08a.58.58 0 00-1.12 0l-.55 1.79h-1.8c-.57 0-.8.75-.35 1.1l1.46 1.1-.56 1.79c-.17.56.44 1.03.9.68l1.46-1.1 1.46 1.1c.46.35 1.07-.12.9-.68l-.56-1.79 1.46-1.1c.46-.35.22-1.1-.35-1.1h-1.8l-.55-1.79z"/></svg>