<svg width="16" height="16" viewBox="0 0 16 16" xmlns="http://www.w3.org/2000/svg"><path d="M12 2.5a1.5 1.5 0 00-3 0v4.1a5.48 5.48 0 013-.58V2.5zm-4 3v1.76a5.49 5.49 0 00-1.8 5.71A1.5 1.5 0 015 11.5v-6a1.5 1.5 0 113 0zM2.5 7C3.33 7 4 7.67 4 8.5v3a1.5 1.5 0 01-3 0v-3C1 7.67 1.67 7 2.5 7zM16 11.5a4.5 4.5 0 11-9 0 4.5 4.5 0 019 0zm-4.02-2.64a.5.5 0 00-.96 0l-.47 1.53H9c-.48 0-.68.65-.3.95l1.26.94-.48 1.53c-.15.49.38.89.77.59l1.25-.95 1.25.95c.4.3.92-.1.77-.59l-.48-1.53 1.25-.94c.4-.3.2-.95-.3-.95h-1.54l-.47-1.53z"/></svg>