<svg width="20" height="20" viewBox="0 0 20 20" xmlns="http://www.w3.org/2000/svg"><path d="M15 3a2 2 0 012 2v4.6c-.32-.16-.65-.3-1-.4V5a1 1 0 10-2 0v4.02c-.34.03-.68.1-1 .19V5c0-1.1.9-2 2-2zM9.07 15.36c.09.57.26 1.1.5 1.6A2 2 0 018 15V8a2 2 0 114 0v1.6c-.36.18-.7.4-1 .66V8a1 1 0 10-2 0v7a1 1 0 00.07.36zM5 9a2 2 0 012 2v4a2 2 0 11-4 0v-4c0-1.1.9-2 2-2zm1 2a1 1 0 10-2 0v4a1 1 0 102 0v-4zm13 3.5a4.5 4.5 0 11-9 0 4.5 4.5 0 019 0zm-4.02-2.64a.5.5 0 00-.96 0l-.47 1.53H12c-.48 0-.69.65-.3.95l1.26.94-.48 1.53c-.15.49.38.89.77.59l1.25-.95 1.25.95c.4.3.92-.1.77-.59l-.48-1.53 1.25-.94c.4-.3.2-.95-.3-.95h-1.54l-.47-1.53z"/></svg>