<svg width="16" height="16" viewBox="0 0 16 16" xmlns="http://www.w3.org/2000/svg"><path d="M12 2.5a1.5 1.5 0 0 0-3 0v4.1c.32-.16.65-.3 1-.4V2.5a.5.5 0 0 1 1 0v3.52a5.57 5.57 0 0 1 1 0V2.5ZM8 7.26V5.5a1.5 1.5 0 1 0-3 0v6c0 .65.42 1.2 1 1.41V5.5a.5.5 0 0 1 1 0v2.84c.28-.4.62-.77 1-1.08ZM4 8.5a1.5 1.5 0 1 0-3 0v3a1.5 1.5 0 0 0 3 0v-3ZM2.5 8c.28 0 .5.22.5.5v3a.5.5 0 0 1-1 0v-3c0-.28.22-.5.5-.5ZM16 11.5a4.5 4.5 0 1 1-9 0 4.5 4.5 0 0 1 9 0Zm-4.02-2.64a.5.5 0 0 0-.96 0l-.47 1.53H9c-.48 0-.68.65-.3.95l1.26.94-.48 1.53c-.15.49.38.89.77.59l1.25-.95 1.25.95c.4.3.92-.1.77-.59l-.48-1.53 1.25-.94c.4-.3.2-.95-.3-.95h-1.54l-.47-1.53Z"/></svg>