<svg width="32" height="32" viewBox="0 0 32 32" xmlns="http://www.w3.org/2000/svg"><path d="M27 7a3 3 0 1 0-6 0v7.22a9.03 9.03 0 0 1 2-.22V7a1 1 0 1 1 2 0v7.22c.7.16 1.37.4 2 .72V7Zm-8 6v1.94c-.73.36-1.4.81-2 1.35V13a1 1 0 1 0-2 0v5.87a8.96 8.96 0 0 0 .49 9.09A3 3 0 0 1 13 25V13a3 3 0 1 1 6 0Zm-8 6a3 3 0 1 0-6 0v6a3 3 0 1 0 6 0v-6Zm-3-1a1 1 0 0 1 1 1v6a1 1 0 1 1-2 0v-6a1 1 0 0 1 1-1Zm22.5 5a7.5 7.5 0 1 1-15 0 7.5 7.5 0 0 1 15 0Zm-8.21-4.86-.94 2.83h-3a.75.75 0 0 0-.43 1.36l2.4 1.7-.92 2.8a.75.75 0 0 0 1.14.84L23 25.93l2.46 1.74a.75.75 0 0 0 1.14-.84l-.93-2.8 2.41-1.7a.75.75 0 0 0-.43-1.36h-3l-.94-2.83a.75.75 0 0 0-1.42 0Z"/></svg>