<svg width="20" height="20" viewBox="0 0 20 20" xmlns="http://www.w3.org/2000/svg"><path d="M15 3a2 2 0 012 2v4.6a5.48 5.48 0 00-4-.4V5c0-1.1.9-2 2-2zM9 14.5c0 .88.2 1.72.58 2.46A2 2 0 018 15V8a2 2 0 114 0v1.6a5.5 5.5 0 00-3 4.9zM7 11a2 2 0 10-4 0v4a2 2 0 104 0v-4zm12 3.5a4.5 4.5 0 11-9 0 4.5 4.5 0 019 0zm-4.02-2.64a.5.5 0 00-.96 0l-.47 1.53H12c-.48 0-.69.65-.3.95l1.26.94-.48 1.53c-.15.49.38.89.77.59l1.25-.95 1.25.95c.4.3.92-.1.77-.59l-.48-1.53 1.25-.94c.4-.3.2-.95-.3-.95h-1.54l-.47-1.53z"/></svg>