<svg width="20" height="20" viewBox="0 0 20 20" xmlns="http://www.w3.org/2000/svg"><path d="M9 2a4 4 0 1 0 0 8 4 4 0 0 0 0-8Zm-5 9a2 2 0 0 0-2 2c0 1.7.83 2.97 2.13 3.8A9.14 9.14 0 0 0 9 18c.41 0 .82-.02 1.21-.06a5.48 5.48 0 0 1 .05-6.94H4Zm6.64 2.92a2 2 0 0 0 1.43-2.48l-.16-.55c.25-.2.53-.37.82-.5l.34.36a2 2 0 0 0 2.9 0l.33-.35c.3.14.58.32.84.52l-.13.42a2 2 0 0 0 1.46 2.52l.35.09a4.7 4.7 0 0 1 0 1.01l-.45.12a2 2 0 0 0-1.43 2.48l.15.55c-.25.2-.53.37-.82.5l-.34-.36a2 2 0 0 0-2.9 0l-.33.35c-.3-.14-.58-.32-.84-.52l.13-.42a2 2 0 0 0-1.46-2.52l-.35-.09a4.71 4.71 0 0 1 0-1.01l.46-.12Zm4.86.58a1 1 0 1 0-2 0 1 1 0 0 0 2 0Z"/></svg>