<svg width="20" height="20" viewBox="0 0 20 20" xmlns="http://www.w3.org/2000/svg"><path d="M11.5 4a1.5 1.5 0 0 0-3 0h3Zm-4 0a2.5 2.5 0 0 1 5 0h5a.5.5 0 0 1 0 1h-1.05l-.49 4.2a5.48 5.48 0 0 0-.98-.18L15.44 5H4.56l1.18 10.23A2 2 0 0 0 7.73 17H9.6c.18.36.4.7.66 1H7.73a3 3 0 0 1-2.98-2.66L3.55 5H2.5a.5.5 0 0 1 0-1h5ZM19 14.5a4.5 4.5 0 1 1-9 0 4.5 4.5 0 0 1 9 0Zm-2.65-1.15a.5.5 0 0 0-.7-.7l-1.15 1.14-1.15-1.14a.5.5 0 0 0-.7.7l1.14 1.15-1.14 1.15a.5.5 0 0 0 .7.7l1.15-1.14 1.15 1.14a.5.5 0 0 0 .7-.7l-1.14-1.15 1.14-1.15Z"/></svg>