<svg width="24" height="24" viewBox="0 0 24 24" xmlns="http://www.w3.org/2000/svg"><path d="M3 4.5C3 3.67 3.67 3 4.5 3h15c.83 0 1.5.67 1.5 1.5V6c0 .83-.67 1.5-1.5 1.5h-15A1.5 1.5 0 013 6V4.5zM4 9h16v2.5a6.48 6.48 0 00-5.5.23c-.01-.4-.34-.73-.75-.73h-3.5a.75.75 0 000 1.5h3.1a6.49 6.49 0 00-1.33 8.5H7.75A3.75 3.75 0 014 17.25V9zm19 8.5a5.5 5.5 0 11-11 0 5.5 5.5 0 0111 0zm-6.65-2.15a.5.5 0 00-.7-.7l-1.5 1.5a.5.5 0 000 .7l1.5 1.5a.5.5 0 00.7-.7l-.64-.65h2.04c1.24 0 2.25 1 2.25 2.25v.25a.5.5 0 001 0v-.25c0-1.8-1.46-3.25-3.25-3.25h-2.04l.64-.65z"/></svg>