<svg width="28" height="28" viewBox="0 0 28 28" xmlns="http://www.w3.org/2000/svg"><path d="M11.75 12.5a.75.75 0 0 0 0 1.5h4.5a.75.75 0 0 0 0-1.5h-4.5ZM3 5.25C3 4.01 4 3 5.25 3h17.5C23.99 3 25 4 25 5.25v2c0 .78-.4 1.47-1 1.87v4.75a7.45 7.45 0 0 0-1.5-.6V9.5h-17v10.75c0 1.8 1.46 3.25 3.25 3.25h4.87c.24.54.53 1.04.88 1.5H8.75A4.75 4.75 0 0 1 4 20.25V9.12c-.6-.4-1-1.09-1-1.87v-2Zm2.25-.75a.75.75 0 0 0-.75.75v2c0 .41.34.75.75.75h17.5c.41 0 .75-.34.75-.75v-2a.75.75 0 0 0-.75-.75H5.25ZM27 20.5a6.5 6.5 0 1 1-13 0 6.5 6.5 0 0 1 13 0Zm-8.15-2.65a.5.5 0 0 0-.7-.7l-2 2a.5.5 0 0 0 0 .7l2 2a.5.5 0 0 0 .7-.7L17.71 20h2.54A2.75 2.75 0 0 1 23 22.75V23a.5.5 0 0 0 1 0v-.25A3.75 3.75 0 0 0 20.25 19h-2.54l1.14-1.15Z"/></svg>