<svg width="48" height="48" viewBox="0 0 48 48" xmlns="http://www.w3.org/2000/svg"><path d="M6.25 8.75a2.5 2.5 0 012.5-2.5h30.5a2.5 2.5 0 012.5 2.5v4a2.5 2.5 0 01-2.5 2.5H8.75a2.5 2.5 0 01-2.5-2.5v-4zm2 9h31.5v5.15a12.97 12.97 0 00-11 .7v-.1c0-.69-.56-1.25-1.25-1.25h-7a1.25 1.25 0 100 2.5H27a12.98 12.98 0 00-3.11 17H15.5c-4 0-7.25-3.25-7.25-7.25V17.75zM46 35a11 11 0 11-22 0 11 11 0 0122 0zm-14.3-3.3a1 1 0 00-1.4-1.4l-3 3a1 1 0 000 1.4l3 3a1 1 0 001.4-1.4L30.42 35H36a4 4 0 014 4 1 1 0 102 0 6 6 0 00-6-6h-5.59l1.3-1.3z"/></svg>