<svg width="28" height="28" viewBox="0 0 28 28" xmlns="http://www.w3.org/2000/svg"><path d="M3 4.5C3 3.67 3.67 3 4.5 3h19c.83 0 1.5.67 1.5 1.5v2c0 .83-.67 1.5-1.5 1.5h-19A1.5 1.5 0 013 6.5v-2zm1 5h20v4.37A7.5 7.5 0 0014.5 25H8.75A4.75 4.75 0 014 20.25V9.5zm7.75 3a.75.75 0 000 1.5h4.5a.75.75 0 000-1.5h-4.5zm15.25 8a6.5 6.5 0 11-13 0 6.5 6.5 0 0113 0zm-8.15-2.65a.5.5 0 00-.7-.7l-2 2a.5.5 0 000 .7l2 2a.5.5 0 00.7-.7L17.71 20h2.54A2.75 2.75 0 0123 22.75V23a.5.5 0 001 0v-.25A3.75 3.75 0 0020.25 19h-2.54l1.14-1.15z"/></svg>