<svg width="32" height="32" viewBox="0 0 32 32" xmlns="http://www.w3.org/2000/svg"><path d="M3 5c0-1.1.9-2 2-2h22a2 2 0 012 2v2a2 2 0 01-2 2H5a2 2 0 01-2-2V5zm1 6h24v4.52a8.96 8.96 0 00-8.1-.97A1 1 0 0019 14h-6a1 1 0 100 2h4.34a8.98 8.98 0 00-1.05 13H9.5A5.5 5.5 0 014 23.5V11zm19 19.5a7.5 7.5 0 100-15 7.5 7.5 0 000 15zm-1.22-10.22l-1.22 1.22h2.69c2.35 0 4.25 1.9 4.25 4.25v.5a.75.75 0 01-1.5 0v-.5A2.75 2.75 0 0023.25 23h-2.69l1.22 1.22a.75.75 0 11-1.06 1.06l-2.5-2.5a.75.75 0 010-1.06l2.5-2.5a.75.75 0 111.06 1.06z"/></svg>