<svg width="24" height="24" viewBox="0 0 24 24" xmlns="http://www.w3.org/2000/svg"><path d="M10.25 11a.75.75 0 000 1.5h3.1c.35-.3.74-.55 1.15-.77-.01-.4-.34-.73-.75-.73h-3.5zm-2.5 8.5h3.56c.18.53.42 1.04.71 1.5H7.75A3.75 3.75 0 014 17.25V8.62c-.6-.4-1-1.09-1-1.87v-1.5C3 4.01 4 3 5.25 3h13.5C19.99 3 21 4 21 5.25v1.5c0 .78-.4 1.47-1 1.87v2.88c-.47-.2-.98-.34-1.5-.42V9h-13v8.25c0 1.24 1 2.25 2.25 2.25zm-2.5-15a.75.75 0 00-.75.75v1.5c0 .41.34.75.75.75h13.5c.41 0 .75-.34.75-.75v-1.5a.75.75 0 00-.75-.75H5.25zM23 17.5a5.5 5.5 0 11-11 0 5.5 5.5 0 0111 0zm-6.65-2.15a.5.5 0 00-.7-.7l-1.5 1.5a.5.5 0 000 .7l1.5 1.5a.5.5 0 00.7-.7l-.64-.65h2.04c1.24 0 2.25 1 2.25 2.25v.25a.5.5 0 001 0v-.25c0-1.8-1.46-3.25-3.25-3.25h-2.04l.64-.65z"/></svg>