<svg width="16" height="16" viewBox="0 0 16 16" xmlns="http://www.w3.org/2000/svg"><path d="M1 3.5C1 2.67 1.67 2 2.5 2h11c.83 0 1.5.67 1.5 1.5v1c0 .65-.42 1.2-1 1.41v.69c-.32-.16-.65-.3-1-.4V6H3v5.5c0 .83.67 1.5 1.5 1.5h1.7c.1.35.24.68.4 1H4.5A2.5 2.5 0 012 11.5V5.91c-.58-.2-1-.76-1-1.41v-1zM2.5 3a.5.5 0 00-.5.5v1c0 .28.22.5.5.5h11a.5.5 0 00.5-.5v-1a.5.5 0 00-.5-.5h-11zm9 13a4.5 4.5 0 100-9 4.5 4.5 0 000 9zm-.9-6.4l-.9.9h1.55A2.75 2.75 0 0114 13.25v.25a.5.5 0 01-1 0v-.25c0-.97-.78-1.75-1.75-1.75H9.71l.9.9a.5.5 0 01-.71.7l-1.76-1.75a.5.5 0 010-.7L9.9 8.9a.5.5 0 01.7.7z"/></svg>