<svg width="32" height="32" viewBox="0 0 32 32" xmlns="http://www.w3.org/2000/svg"><path d="M13 14a1 1 0 100 2h4.34a8.99 8.99 0 012.55-1.45A1 1 0 0019 14h-6zM9.5 27h5.44c.36.73.81 1.4 1.35 2H9.5A5.5 5.5 0 014 23.5V10.24A3 3 0 013 8V6a3 3 0 013-3h20a3 3 0 013 3v2a3 3 0 01-1 2.24v5.28a8.97 8.97 0 00-2-1V11H6v12.5A3.5 3.5 0 009.5 27zM6 5a1 1 0 00-1 1v2a1 1 0 001 1h20a1 1 0 001-1V6a1 1 0 00-1-1H6zm17 25.5a7.5 7.5 0 100-15 7.5 7.5 0 000 15zm-1.22-10.22l-1.22 1.22h2.69c2.35 0 4.25 1.9 4.25 4.25v.5a.75.75 0 01-1.5 0v-.5A2.75 2.75 0 0023.25 23h-2.69l1.22 1.22a.75.75 0 11-1.06 1.06l-2.5-2.5a.75.75 0 010-1.06l2.5-2.5a.75.75 0 111.06 1.06z"/></svg>