<svg width="48" height="48" viewBox="0 0 48 48" xmlns="http://www.w3.org/2000/svg"><path d="M20.5 22.25a1.25 1.25 0 100 2.5H27c.55-.43 1.13-.81 1.75-1.15v-.1c0-.69-.56-1.25-1.25-1.25h-7zm-5 17h7.21c.3.88.7 1.72 1.18 2.5H15.5c-4 0-7.25-3.25-7.25-7.25V17.32a3.75 3.75 0 01-2-3.32v-4A3.75 3.75 0 0110 6.25h28A3.75 3.75 0 0141.75 10v4c0 1.44-.81 2.69-2 3.32v5.58a12.9 12.9 0 00-2.5-.7v-4.45h-26.5V34.5a4.75 4.75 0 004.75 4.75zM10 8.75c-.69 0-1.25.56-1.25 1.25v4c0 .69.56 1.25 1.25 1.25h28c.69 0 1.25-.56 1.25-1.25v-4c0-.69-.56-1.25-1.25-1.25H10zM46 35a11 11 0 11-22 0 11 11 0 0122 0zm-14.3-3.3a1 1 0 00-1.4-1.4l-3 3a1 1 0 000 1.4l3 3a1 1 0 001.4-1.4L30.42 35H36a4 4 0 014 4 1 1 0 102 0 6 6 0 00-6-6h-5.59l1.3-1.3z"/></svg>