<svg width="20" height="20" viewBox="0 0 20 20" xmlns="http://www.w3.org/2000/svg"><path d="M10.5 3.12a1 1 0 0 0-1 0L3.47 6.64a1 1 0 0 0 0 1.72l6.02 3.5a1 1 0 0 0 1 0l6.01-3.5a1 1 0 0 0 0-1.72l-6-3.52Zm-1 1.16a1 1 0 0 1 1 0L16 7.5l-5.5 3.2a1 1 0 0 1-1 0L3.99 7.5l5.5-3.22ZM3.06 9.65l6.44 3.62a1 1 0 0 0 .98 0l6.44-3.62a1 1 0 0 1-.42 1.26l-6 3.5a1 1 0 0 1-1.01 0l-6.01-3.5a1 1 0 0 1-.42-1.26Zm0 2.45 6.44 3.63a1 1 0 0 0 .98 0l6.44-3.63a1 1 0 0 1-.42 1.26l-6 3.5a1 1 0 0 1-1.01 0l-6.01-3.5a1 1 0 0 1-.42-1.26Z"/></svg>