<svg width="24" height="24" viewBox="0 0 24 24" xmlns="http://www.w3.org/2000/svg"><path d="m18.5 3.43 1.18-1.18a1 1 0 0 1 1.41 0l.7.7a1 1 0 0 1 0 1.42l-1.18 1.18-2.12-2.12ZM17.42 4.5l-3.82 3.82-.16-.16a2.75 2.75 0 0 0-4.4.72l-.42.83a.6.6 0 0 1-.66.32l-.07-.01a4.7 4.7 0 0 0-4.7 1.8 6.03 6.03 0 0 0 .57 7.87l.6.6a6.03 6.03 0 0 0 7.87.56 4.7 4.7 0 0 0 1.8-4.7l-.02-.06a.6.6 0 0 1 .32-.67l.84-.41a2.75 2.75 0 0 0 .71-4.4l-.16-.17 3.82-3.82-2.12-2.12Zm-8 10.07a1.5 1.5 0 1 1 2.13-2.12 1.5 1.5 0 0 1-2.12 2.12Z"/></svg>