<svg width="24" height="24" viewBox="0 0 24 24" xmlns="http://www.w3.org/2000/svg"><path d="M12.75 2.75a.75.75 0 0 0-1.5 0v1.5a.75.75 0 0 0 1.5 0v-1.5Zm6.28 2.22c.3.3.3.77 0 1.06l-1.06 1.06a.75.75 0 0 1-1.06-1.06l1.06-1.06c.3-.3.77-.3 1.06 0ZM6.59 13a5.5 5.5 0 1 1 10.82 0h3.84a.75.75 0 0 1 0 1.5H2.75a.75.75 0 0 1 0-1.5h3.84Zm.16 3a.75.75 0 0 0 0 1.5h10.5a.75.75 0 0 0 0-1.5H6.75Zm4 3a.75.75 0 0 0 0 1.5h2.5a.75.75 0 0 0 0-1.5h-2.5ZM4.97 4.97c.3-.3.77-.3 1.06 0l1.06 1.06a.75.75 0 1 1-1.06 1.06L4.97 6.03a.75.75 0 0 1 0-1.06Z"/></svg>