<svg width="24" height="24" viewBox="0 0 24 24" xmlns="http://www.w3.org/2000/svg"><path d="M12.75 2.75a.75.75 0 0 0-1.5 0v1.5a.75.75 0 0 0 1.5 0v-1.5Zm6.28 2.22c.3.3.3.77 0 1.06l-1.06 1.06a.75.75 0 0 1-1.06-1.06l1.06-1.06c.3-.3.77-.3 1.06 0ZM17.41 13a5.5 5.5 0 1 0-10.82 0H2.75a.75.75 0 0 0 0 1.5h18.5a.75.75 0 0 0 0-1.5h-3.84ZM12 8a4 4 0 0 1 3.87 5H8.13A4 4 0 0 1 12 8Zm-6 8.75c0-.41.34-.75.75-.75h10.5a.75.75 0 0 1 0 1.5H6.75a.75.75 0 0 1-.75-.75Zm4 3c0-.41.34-.75.75-.75h2.5a.75.75 0 0 1 0 1.5h-2.5a.75.75 0 0 1-.75-.75ZM4.97 4.97c.3-.3.77-.3 1.06 0l1.06 1.06a.75.75 0 1 1-1.06 1.06L4.97 6.03a.75.75 0 0 1 0-1.06Z"/></svg>