<svg width="48" height="48" viewBox="0 0 48 48" xmlns="http://www.w3.org/2000/svg"><path d="M24 13.08A10.92 10.92 0 0 1 34.74 26h8.01a1.25 1.25 0 1 1 0 2.5H5.25a1.25 1.25 0 0 1 0-2.5h8.01A10.92 10.92 0 0 1 24 13.08ZM15.82 26h16.36A8.44 8.44 0 0 0 24 15.58 8.42 8.42 0 0 0 15.82 26ZM11.5 9.8l.1.1 2.14 2.14a1.25 1.25 0 0 1-1.66 1.86l-.1-.09-2.15-2.15A1.25 1.25 0 0 1 11.5 9.8Zm26.63.1c.46.45.49 1.17.1 1.66l-.1.1L36 13.81a1.25 1.25 0 0 1-1.86-1.67l.09-.1 2.15-2.14a1.25 1.25 0 0 1 1.76 0ZM24 4c.65 0 1.18.49 1.24 1.12l.01.13v3.03a1.25 1.25 0 0 1-2.5.13V5.25c0-.7.56-1.25 1.25-1.25Zm-2.75 34a1.25 1.25 0 1 0 0 2.5h5.5a1.25 1.25 0 0 0 0-2.5h-5.5ZM12 33.25c0-.7.56-1.25 1.25-1.25h21.5a1.25 1.25 0 1 1 0 2.5h-21.5c-.69 0-1.25-.56-1.25-1.25Z"/></svg>