<svg width="20" height="20" viewBox="0 0 20 20" xmlns="http://www.w3.org/2000/svg"><path d="M9.65 2.15c.2-.2.5-.2.7 0l2 2a.5.5 0 0 1-.7.7L10.5 3.71V6.5a.5.5 0 0 1-1 0V3.7L8.35 4.86a.5.5 0 1 1-.7-.7l2-2ZM10 12a2 2 0 1 0 0-4 2 2 0 0 0 0 4Zm0-1a1 1 0 1 1 0-2 1 1 0 0 1 0 2Zm5.85 1.35 2-2a.5.5 0 0 0 0-.7l-2-2a.5.5 0 0 0-.7.7l1.14 1.15H13.5a.5.5 0 0 0 0 1h2.8l-1.15 1.15a.5.5 0 0 0 .7.7Zm-5.5 5.5 2-2a.5.5 0 0 0-.7-.7l-1.15 1.14V13.5a.5.5 0 0 0-1 0v2.8l-1.15-1.15a.5.5 0 0 0-.7.7l2 2c.2.2.5.2.7 0Zm-8.2-7.5a.5.5 0 0 1 0-.7l2-2a.5.5 0 1 1 .7.7L3.71 9.5H6.5a.5.5 0 0 1 0 1H3.7l1.15 1.15a.5.5 0 0 1-.7.7l-2-2Z"/></svg>