<svg width="20" height="20" viewBox="0 0 20 20" xmlns="http://www.w3.org/2000/svg"><path d="M17 5.5A2.5 2.5 0 0 0 14.5 3h-9A2.5 2.5 0 0 0 3 5.5v9A2.5 2.5 0 0 0 5.5 17h1.25A2.25 2.25 0 0 1 11 15.97a2.25 2.25 0 0 1 4 0 2.25 2.25 0 0 1 1.99-1.22l.01-.25v-9ZM6 6.75c0-.41.32-.75.7-.75h6.6c.38 0 .7.34.7.75s-.32.75-.7.75H6.7c-.38 0-.7-.34-.7-.75Zm0 3c0-.41.32-.75.7-.75h3.6c.38 0 .7.34.7.75s-.32.75-.7.75H6.7c-.38 0-.7-.34-.7-.75ZM6.7 12h6.6c.38 0 .7.34.7.75s-.32.75-.7.75H6.7c-.38 0-.7-.34-.7-.75s.32-.75.7-.75Zm3.55 5a1.25 1.25 0 1 1-2.5 0 1.25 1.25 0 0 1 2.5 0ZM13 18.25a1.25 1.25 0 1 0 0-2.5 1.25 1.25 0 0 0 0 2.5Zm4 0a1.25 1.25 0 1 0 0-2.5 1.25 1.25 0 0 0 0 2.5Z"/></svg>