<svg xmlns="http://www.w3.org/2000/svg" focusable="false" viewBox="0 0 20 20" aria-hidden="true">
	<title>LockClosedKey</title>
	<path d="M10 2a3 3 0 0 1 3 3v1h1a2 2 0 0 1 2 2v1h-.03c-.33 0-.65.05-.97.13V8a1 1 0 0 0-1-1H6a1 1 0 0 0-1 1v7a1 1 0 0 0 1 1h3.39c-.25.27-.39.62-.39 1H6a2 2 0 0 1-2-2V8c0-1.1.9-2 2-2h1V5a3 3 0 0 1 3-3Zm0 8.5a1 1 0 1 1 0 2 1 1 0 0 1 0-2ZM10 3a2 2 0 0 0-2 2v1h4V5a2 2 0 0 0-2-2Zm.15 15.85c.1.1.21.15.35.15h2c.11 0 .2-.03.27-.07.07-.04.12-.1.15-.17a.86.86 0 0 0 .06-.24l.02-.25V18l.56-.02a.47.47 0 0 0 .3-.12c.07-.07.11-.17.12-.3L14 17h.5c.1 0 .2-.02.27-.07a.5.5 0 0 0 .15-.17.65.65 0 0 0 .07-.24 2.34 2.34 0 0 0 .01-.5v-.2c.17.07.35.11.52.14a2.87 2.87 0 0 0 2.62-.86A3.11 3.11 0 0 0 19 13a2.94 2.94 0 0 0-.88-2.13 3 3 0 0 0-5.03 2.84l-2.94 2.94c-.1.1-.15.21-.15.35v1.5c0 .14.05.25.15.35Zm7.13-7.13c.15.14.22.32.22.53 0 .2-.07.39-.22.53a.72.72 0 0 1-.53.22.72.72 0 0 1-.53-.22.72.72 0 0 1-.22-.53c0-.2.07-.39.22-.53a.72.72 0 0 1 .53-.22c.2 0 .39.07.53.22Z"></path>
</svg>