<svg xmlns="http://www.w3.org/2000/svg" focusable="false" viewBox="0 0 20 20" aria-hidden="true">
	<path d="M9 2.39a1.5 1.5 0 0 1 2 0l5.5 4.94c.32.28.5.69.5 1.12v7.05c0 .83-.67 1.5-1.5 1.5H13a1.5 1.5 0 0 1-1.5-1.5V12a.5.5 0 0 0-.5-.5H9a.5.5 0 0 0-.5.5v3.5c0 .83-.67 1.5-1.5 1.5H4.5A1.5 1.5 0 0 1 3 15.5V8.45c0-.43.18-.84.5-1.12L9 2.39Zm1.33.74a.5.5 0 0 0-.66 0l-5.5 4.94a.5.5 0 0 0-.17.38v7.05c0 .28.22.5.5.5H7a.5.5 0 0 0 .5-.5V12c0-.83.67-1.5 1.5-1.5h2c.83 0 1.5.67 1.5 1.5v3.5c0 .28.22.5.5.5h2.5a.5.5 0 0 0 .5-.5V8.45a.5.5 0 0 0-.17-.38l-5.5-4.94Z"></path>
</svg>