<svg width="24" height="24" viewBox="0 0 24 24" xmlns="http://www.w3.org/2000/svg"><path d="M12.34 2.3a.75.75 0 0 0-1.34.45v4.5a.75.75 0 0 0 1.5 0v-2.3l1.16 1.5c.23.32.67.4 1 .18l1.7-1.1-.82 2.48a.75.75 0 0 0 .71.99h3.19l-1.22 1.22a.75.75 0 0 0-.08.97l1.65 2.31h-1.54a.75.75 0 0 0 0 1.5h3a.75.75 0 0 0 .61-1.19l-2.13-2.98 2.05-2.05a.75.75 0 0 0-.53-1.28h-3.96l1.17-3.51a.75.75 0 0 0-1.12-.87L14.42 5l-2.08-2.7ZM2.86 13.74h-.11a.75.75 0 0 1 0-1.5h.77l.26-1.41A2.25 2.25 0 0 1 6 9h6.09c1.03 0 1.93.7 2.18 1.7l.39 1.55h.6a.75.75 0 1 1 0 1.5h-.11c.53.5.86 1.21.86 2v4.75a1.5 1.5 0 1 1-3 0V20H5v.5a1.5 1.5 0 1 1-3 0v-4.75c0-.79.33-1.5.86-2Zm2.4-2.64L4.9 13h8.35v-.12l-.44-1.81a.75.75 0 0 0-.73-.57H5.99a.75.75 0 0 0-.73.61ZM13 16.5a1 1 0 1 0-2 0 1 1 0 0 0 2 0Zm-7 1a1 1 0 1 0 0-2 1 1 0 0 0 0 2Z"/></svg>