<svg width="16" height="16" viewBox="0 0 16 16" xmlns="http://www.w3.org/2000/svg"><path d="M8.9 1.2a.5.5 0 0 0-.9.3v2a.5.5 0 0 0 1 0V3l.61.8a.5.5 0 0 0 .59.16l1.48-.6-.65 1.98a.5.5 0 0 0 .47.66h1.58l-1.39 1.11a.5.5 0 0 0 0 .78L13.08 9H11.5a.5.5 0 0 0 0 1h3a.5.5 0 0 0 .31-.89l-2-1.61 2-1.61A.5.5 0 0 0 14.5 5h-2.3l.77-2.34a.5.5 0 0 0-.66-.62l-2.13.85L8.9 1.2ZM7.5 11a.5.5 0 1 0 0-1 .5.5 0 0 0 0 1ZM4 10.5a.5.5 0 1 1-1 0 .5.5 0 0 1 1 0ZM9.36 8l.1.62A2 2 0 0 1 10 10v3a1 1 0 1 1-2 0H3a1 1 0 1 1-2 0v-3a2 2 0 0 1 .55-1.38L1.64 8H1a.5.5 0 0 1 0-1h.75a.5.5 0 0 1 .03 0l.1-.71A1.5 1.5 0 0 1 3.37 5h4.26c.75 0 1.38.55 1.49 1.29l.1.71a.5.5 0 0 1 .03 0H10a.5.5 0 0 1 0 1h-.64ZM2.87 6.43l-.23 1.6L3 8h5l.36.03-.23-1.6a.5.5 0 0 0-.5-.43H3.37a.5.5 0 0 0-.5.43ZM9 10a1 1 0 0 0-1-1H3a1 1 0 0 0-1 1v2h7v-2Z"/></svg>