<svg width="32" height="32" viewBox="0 0 32 32" xmlns="http://www.w3.org/2000/svg"><path d="M16.72 3.3A1 1 0 0 0 15 4v5a1 1 0 1 0 2 0V6.48l2.28 2.36a1 1 0 0 0 1.34.1L22 7.85l-.95 2.83A1 1 0 0 0 22 12h3l-1.8 2.4a1 1 0 0 0 .18 1.38L26.15 18H24a1 1 0 1 0 0 2h5a1 1 0 0 0 .62-1.78l-4.24-3.4 2.42-3.22A1 1 0 0 0 27 10h-3.61l1.56-4.68a1 1 0 0 0-1.57-1.1L20.1 6.8l-3.37-3.5ZM17 23a1 1 0 1 0 0-2 1 1 0 0 0 0 2ZM7 22a1 1 0 1 1-2 0 1 1 0 0 1 2 0Zm2.75 0a1 1 0 1 0 0 2h3.5a1 1 0 1 0 0-2h-3.5ZM20 18h-1.06A4 4 0 0 1 21 21.5v6a2.5 2.5 0 0 1-2.5 2.5H17a2.5 2.5 0 0 1-2.5-2.5v-1h-6v1A2.5 2.5 0 0 1 6 30H4.5A2.5 2.5 0 0 1 2 27.5v-6A4 4 0 0 1 4.06 18H3a1 1 0 1 1 0-2h1.49l.21-1.28A3.25 3.25 0 0 1 7.9 12h7.2a3.25 3.25 0 0 1 3.2 2.72l.21 1.28H20a1 1 0 1 1 0 2ZM6.67 15.04l-.4 2.46h10.47l-.41-2.46c-.1-.6-.62-1.04-1.24-1.04H7.91c-.62 0-1.14.44-1.24 1.04ZM16.5 26.5v1c0 .28.22.5.5.5h1.5a.5.5 0 0 0 .5-.5v-1h-2.5ZM4 26.5v1c0 .28.22.5.5.5H6a.5.5 0 0 0 .5-.5v-1H4Zm2-7a2 2 0 0 0-2 2v3h15v-3a2 2 0 0 0-2-2H6Z"/></svg>