<svg width="20" height="20" viewBox="0 0 20 20" xmlns="http://www.w3.org/2000/svg"><path d="M2 4.5A2.5 2.5 0 0 1 4.5 2h9A2.5 2.5 0 0 1 16 4.5v2.21c-.34.03-.68.1-1 .22V6H3v7.5c0 .83.67 1.5 1.5 1.5h6.7l-.45.76-.12.24H4.5A2.5 2.5 0 0 1 2 13.5v-9ZM4.5 3C3.67 3 3 3.67 3 4.5V5h12v-.5c0-.83-.67-1.5-1.5-1.5h-9Zm9.37 6.1c-.56.97-.46 2.14.15 3l-2.4 4.16a1.16 1.16 0 0 0 2 1.16l2.41-4.17a2.78 2.78 0 0 0 2.36-4.58l-1.3 2.27a.93.93 0 0 1-1.61-.92l1.3-2.27c-1.12-.21-2.3.3-2.9 1.34Zm-1.3 2.05c-.13-.69-.07-1.4.2-2.08l-1.92-1.92a.5.5 0 1 0-.7.7L12.29 10l-2.14 2.15a.5.5 0 1 0 .7.7l1.71-1.7Zm-4.22-3.3a.5.5 0 0 0-.7-.7l-2.5 2.5a.5.5 0 0 0 0 .7l2.5 2.5a.5.5 0 0 0 .7-.7L6.21 10l2.14-2.15Z"/></svg>