<svg width="16" height="16" viewBox="0 0 16 16" xmlns="http://www.w3.org/2000/svg"><path d="M12.37.57l3.51 6.32A.75.75 0 0115.23 8H7.77a.75.75 0 01-.66-1.11L10.63.57a1 1 0 011.74 0zM11.5 7a.5.5 0 100-1 .5.5 0 000 1zM11 2v2.5a.5.5 0 101 0V2a.5.5 0 00-1 0zM6.83 6.04l-1.07.98a6.62 6.62 0 00.59 1.42 6.27 6.27 0 00.93 1.23l1.4-.44a2 2 0 012.14.64l.84 1.02a1.9 1.9 0 01-.17 2.6c-1.32 1.22-3.37 1.55-4.8.24A15.9 15.9 0 011.9 5.5C1.5 3.6 2.82 2 4.54 1.48c.97-.3 2 .21 2.35 1.16l.46 1.22a2 2 0 01-.52 2.18z"/></svg>