<svg width="20" height="20" viewBox="0 0 20 20" xmlns="http://www.w3.org/2000/svg"><path d="m12.6 1.55-3.5 7A1 1 0 0 0 10 10h7a1 1 0 0 0 .9-1.45l-3.5-7a1 1 0 0 0-1.8 0ZM14 3.5v3a.5.5 0 1 1-1 0v-3a.5.5 0 1 1 1 0ZM13.5 9a.5.5 0 1 1 0-1 .5.5 0 0 1 0 1ZM6.54 2.12a4.1 4.1 0 0 0-2.99.32 2.87 2.87 0 0 0-1.5 2.5c-.06 1.8.36 4.22 2.02 7.06A16.28 16.28 0 0 0 9 17.48c.94.63 1.99.65 2.88.24a3.9 3.9 0 0 0 1.96-2.22c.2-.5.15-1.06-.12-1.53l-.95-1.7a2.5 2.5 0 0 0-3.07-1.12l-.67.26c-.32.12-.62.06-.79-.1A4.32 4.32 0 0 1 7.1 9.19c-.06-.26.06-.56.34-.78l.6-.45a2.5 2.5 0 0 0 .67-3.24l-.97-1.7c-.26-.45-.7-.78-1.2-.9Z"/></svg>