<svg width="48" height="48" viewBox="0 0 48 48" xmlns="http://www.w3.org/2000/svg"><path d="M15.75 27.25a8.25 8.25 0 0116.22-2.15l-.1.1c-.46.5-.94 1.02-1.82 1.4-1.07.46-2.82.73-5.85-.03-3.38-.84-5.66-.34-7.25.65a7.2 7.2 0 00-1.16.9 8.34 8.34 0 01-.04-.87zM6 12a6 6 0 016-6h24a6 6 0 016 6v24a6 6 0 01-6 6H12a6 6 0 01-6-6V12zm10 2.25a2 2 0 100-4 2 2 0 000 4zm8-2c0 .69.56 1.25 1.25 1.25h7.5a1.25 1.25 0 100-2.5h-7.5c-.69 0-1.25.56-1.25 1.25zm0 4.25A10.75 10.75 0 1024 38a10.75 10.75 0 000-21.5z"/></svg>