<svg width="24" height="24" viewBox="0 0 24 24" xmlns="http://www.w3.org/2000/svg"><path d="M12 8a5.25 5.25 0 100 10.5A5.25 5.25 0 0012 8zm-3.75 5.25a3.75 3.75 0 017.5-.19c-.18.17-.39.34-.7.47-.53.23-1.4.37-2.93-.02-1.7-.42-2.84-.17-3.64.33l-.17.1a3.77 3.77 0 01-.06-.69zm.75-7a1 1 0 11-2 0 1 1 0 012 0zm3.75-.75a.75.75 0 000 1.5h3.5a.75.75 0 000-1.5h-3.5zM6.25 3A3.25 3.25 0 003 6.25v11.5C3 19.55 4.46 21 6.25 21h11.5c1.8 0 3.25-1.46 3.25-3.25V6.25C21 4.45 19.54 3 17.75 3H6.25zM4.5 6.25c0-.97.78-1.75 1.75-1.75h11.5c.97 0 1.75.78 1.75 1.75v11.5c0 .97-.78 1.75-1.75 1.75H6.25c-.97 0-1.75-.78-1.75-1.75V6.25z"/></svg>