<svg width="48" height="48" viewBox="0 0 48 48" xmlns="http://www.w3.org/2000/svg"><path d="M24 16a10.5 10.5 0 1 0 0 21 10.5 10.5 0 0 0 0-21Zm-8 10.5a8 8 0 0 1 15.9-1.32l-.03.03c-.46.5-.94 1-1.82 1.39-1.07.46-2.82.73-5.85-.03-3.38-.84-5.66-.34-7.25.65-.31.2-.59.4-.84.61A8.05 8.05 0 0 1 16 26.5Zm2-14.25a2 2 0 1 1-4 0 2 2 0 0 1 4 0ZM25.25 11a1.25 1.25 0 1 0 0 2.5h7.5a1.25 1.25 0 1 0 0-2.5h-7.5Zm-13-5A6.25 6.25 0 0 0 6 12.25v23.5C6 39.2 8.8 42 12.25 42h23.5C39.2 42 42 39.2 42 35.75v-23.5C42 8.8 39.2 6 35.75 6h-23.5ZM8.5 12.25a3.75 3.75 0 0 1 3.75-3.75h23.5a3.75 3.75 0 0 1 3.75 3.75v23.5a3.75 3.75 0 0 1-3.75 3.75h-23.5a3.75 3.75 0 0 1-3.75-3.75v-23.5Z"/></svg>