<svg width="20" height="20" viewBox="0 0 20 20" xmlns="http://www.w3.org/2000/svg"><path d="M10 7a4 4 0 0 1 3.92 3.21l.03.01-.02.04A4.01 4.01 0 0 1 10 15a4 4 0 0 1 0-8Zm-2.52 3.67c.67-.3 1.54-.43 2.64-.16 1.46.37 2.33-.06 2.73-.46a3 3 0 0 0-5.85.88c.15-.1.3-.18.48-.26ZM7.5 5.5a.75.75 0 1 1-1.5 0 .75.75 0 0 1 1.5 0Zm3-.5a.5.5 0 0 0 0 1h3a.5.5 0 0 0 0-1h-3ZM6 3a3 3 0 0 0-3 3v8a3 3 0 0 0 3 3h8a3 3 0 0 0 3-3V6a3 3 0 0 0-3-3H6ZM4 6c0-1.1.9-2 2-2h8a2 2 0 0 1 2 2v8a2 2 0 0 1-2 2H6a2 2 0 0 1-2-2V6Z"/></svg>