<svg width="20" height="20" viewBox="0 0 20 20" xmlns="http://www.w3.org/2000/svg"><path d="M7 7.5a2.5 2.5 0 0 1-5 0 .5.5 0 0 1 1 0 1.5 1.5 0 1 0 3 0v-1a2.5 2.5 0 1 1 1-2v3Zm-1-3a1.5 1.5 0 1 0-3 0 1.5 1.5 0 0 0 3 0ZM10.5 2A2.5 2.5 0 0 0 8 4.5v3a2.5 2.5 0 1 0 1-2v-1a1.5 1.5 0 1 1 3 0 .5.5 0 0 0 1 0A2.5 2.5 0 0 0 10.5 2Zm0 7a1.5 1.5 0 1 1 0-3 1.5 1.5 0 0 1 0 3Zm6-6c-.83 0-1.5.67-1.5 1.5v3a1.5 1.5 0 0 0 3 0v-3c0-.83-.67-1.5-1.5-1.5ZM14 4.5a2.5 2.5 0 0 1 5 0v3a2.5 2.5 0 0 1-5 0v-3ZM3.5 12a.5.5 0 0 0-.5.5v5a.5.5 0 0 0 1 0V16h1.5a.5.5 0 0 0 0-1H4v-2h2.5a.5.5 0 0 0 0-1h-3Zm5 0a.5.5 0 0 0-.5.5v5a.5.5 0 0 0 1 0V16h1a2 2 0 1 0 0-4H8.5Zm1.5 3H9v-2h1a1 1 0 1 1 0 2Zm3-1.25c0-.97.78-1.75 1.75-1.75h.75c.83 0 1.5.67 1.5 1.5a.5.5 0 0 1-1 0 .5.5 0 0 0-.5-.5h-.75a.75.75 0 0 0 0 1.5h.5a1.75 1.75 0 1 1 0 3.5h-.75a1.5 1.5 0 0 1-1.5-1.5.5.5 0 0 1 1 0c0 .28.22.5.5.5h.75a.75.75 0 0 0 0-1.5h-.5c-.97 0-1.75-.78-1.75-1.75Z"/></svg>