<svg width="24" height="24" viewBox="0 0 24 24" xmlns="http://www.w3.org/2000/svg"><path d="M8 6V4.25C8 3.01 9 2 10.25 2h3.5C14.99 2 16 3 16 4.25V6h1.75C19.55 6 21 7.46 21 9.25v5.25a3.5 3.5 0 0 0-1.67-2.99c.1-.23.17-.49.17-.76v-1.5c0-.97-.78-1.75-1.75-1.75H6.25c-.97 0-1.75.78-1.75 1.75v1.5c0 .97.78 1.75 1.75 1.75H10V12a1 1 0 0 1 1-1h2a1 1 0 0 1 1 1v.5h.63c-.3.44-.52.95-.6 1.5H14a1 1 0 0 1-1 1h-2a1 1 0 0 1-1-1H6.25c-.64 0-1.24-.19-1.75-.51v3.26c0 .97.78 1.75 1.75 1.75h6.06c-.2.38-.31.81-.31 1.27v.1a4 4 0 0 0 0 .13H6.25A3.25 3.25 0 0 1 3 16.75v-7.5C3 7.45 4.46 6 6.25 6H8Zm5.75-2.5h-3.5a.75.75 0 0 0-.75.75V6h5V4.25a.75.75 0 0 0-.75-.75Zm6.25 11a2.5 2.5 0 1 1-5 0 2.5 2.5 0 0 1 5 0Zm2 5.38c0 1.55-1.29 3.12-4.5 3.12S13 21.44 13 19.87v-.1c0-.98.8-1.77 1.77-1.77h5.46c.98 0 1.77.8 1.77 1.77v.1Z"/></svg>