<svg width="24" height="24" viewBox="0 0 24 24" xmlns="http://www.w3.org/2000/svg"><path d="M14 2.75c0-.41.34-.75.75-.75h6.5c.41 0 .75.34.75.75v6.5a.75.75 0 0 1-1.5 0V4.56l-3.97 3.97a.75.75 0 1 1-1.06-1.06l3.97-3.97h-4.69a.75.75 0 0 1-.75-.75Zm0 8a.75.75 0 1 0 0-1.5.75.75 0 0 0 0 1.5ZM12.75 12a.75.75 0 1 1-1.5 0 .75.75 0 0 1 1.5 0Zm-2.53-6.66-.86-2.03A2.06 2.06 0 0 0 6.85 2.1l-1.08.35a3.26 3.26 0 0 0-2.15 2.4c-.63 2.73.13 6.05 2.26 9.97 2.13 3.91 4.46 6.26 7 7.05 1.08.34 2.24.04 3.05-.77l.82-.82c.76-.77.87-2.02.26-2.92l-1.23-1.81a2.03 2.03 0 0 0-2.33-.82l-2.28.76A8.68 8.68 0 0 1 7.82 9.7L9.7 7.9c.68-.65.89-1.69.51-2.57Z"/></svg>