<svg width="28" height="28" viewBox="0 0 28 28" xmlns="http://www.w3.org/2000/svg"><path d="M13.25 25.25v-7.73l.08-.07.67-.67.67.67.08.07v7.73a.75.75 0 01-1.5 0zm.08-14.45a1.83 1.83 0 00-.08-.07V2.75a.75.75 0 011.5 0v7.98l-.08.07-.67.67-.67-.67zm-1.86 4.67a.75.75 0 101.06 1.06L14 15.06l1.47 1.47a.75.75 0 101.06-1.06L15.06 14l1.47-1.47a.75.75 0 10-1.06-1.06L14 12.94l-1.47-1.47a.75.75 0 10-1.06 1.06L12.94 14l-1.47 1.47zM3.75 3a.75.75 0 000 1.5h1.5c1.24 0 2.25 1 2.25 2.25V9.5H3.75a.75.75 0 000 1.5H7.5v6H3.75a.75.75 0 000 1.5H7.5v2.75c0 1.24-1 2.25-2.25 2.25h-1.5a.75.75 0 000 1.5h1.5A3.75 3.75 0 009 21.25V6.75A3.75 3.75 0 005.25 3h-1.5zm19 0A3.75 3.75 0 0019 6.75v14.5A3.75 3.75 0 0022.75 25h2.5a.75.75 0 000-1.5h-2.5c-1.24 0-2.25-1-2.25-2.25V18.5h4.75a.75.75 0 000-1.5H20.5v-6h4.75a.75.75 0 000-1.5H20.5V6.75c0-1.24 1-2.25 2.25-2.25h2.5a.75.75 0 000-1.5h-2.5z"/></svg>