<svg width="28" height="28" viewBox="0 0 28 28" xmlns="http://www.w3.org/2000/svg"><path d="M13.25 25.25v-7.73l.08-.07.67-.67.67.67.08.07v7.73a.75.75 0 01-1.5 0zm.08-14.45a1.83 1.83 0 00-.08-.07V2.75a.75.75 0 011.5 0v7.98l-.08.07-.67.67-.67-.67zm-1.86 4.67a.75.75 0 101.06 1.06L14 15.06l1.47 1.47a.75.75 0 101.06-1.06L15.06 14l1.47-1.47a.75.75 0 10-1.06-1.06L14 12.94l-1.47-1.47a.75.75 0 10-1.06 1.06L12.94 14l-1.47 1.47zM4 25a1 1 0 01-1-1v-5.5h6v2.75A3.75 3.75 0 015.25 25H4zm5-14v6H3v-6h6zm0-4.25V9.5H3V4a1 1 0 011-1h1.25A3.75 3.75 0 019 6.75zM22.75 3A3.75 3.75 0 0019 6.75V9.5h6V4a1 1 0 00-1-1h-1.25zM25 11h-6v6h6v-6zm-6 10.25V18.5h6V24a1 1 0 01-1 1h-1.25A3.75 3.75 0 0119 21.25z"/></svg>