<svg width="16" height="16" viewBox="0 0 16 16" xmlns="http://www.w3.org/2000/svg"><path d="M8 1.5c.28 0 .5.22.5.5v3.38a1.5 1.5 0 00-.07.07L8 5.88l-.44-.44a1.5 1.5 0 00-.06-.06V2c0-.28.22-.5.5-.5zm.43 9.05l.07.07V14a.5.5 0 01-1 0v-3.38l.06-.06.44-.44.43.43zM2.5 14a.5.5 0 01-.5-.5V11h3v.5A2.5 2.5 0 012.5 14zM5 6v4H2V6h3zm0-1v-.5A2.5 2.5 0 002.5 2a.5.5 0 00-.5.5V5h3zm8.5-3A2.5 2.5 0 0011 4.5V5h3V2.5a.5.5 0 00-.5-.5zM11 6h3v4h-3V6zm3 5h-3v.5a2.5 2.5 0 002.5 2.5.5.5 0 00.5-.5V11zM6.15 6.15c.2-.2.5-.2.7 0L8 7.29l1.15-1.14a.5.5 0 11.7.7L8.71 8l1.14 1.15a.5.5 0 01-.7.7L8 8.71 6.85 9.85a.5.5 0 01-.7-.7L7.29 8 6.15 6.85a.5.5 0 010-.7z"/></svg>