<svg width="24" height="24" viewBox="0 0 24 24" xmlns="http://www.w3.org/2000/svg"><path d="M20.06 8.45a3.22 3.22 0 0 1 0 4.55l-7.12 7.1c-.26.27-.59.46-.94.57l-4.3 1.29a1 1 0 0 1-1.24-1.27l1.36-4.22c.11-.34.3-.65.56-.9l7.13-7.13a3.22 3.22 0 0 1 4.55 0Zm-3.5 1.05-7.12 7.13a.75.75 0 0 0-.19.3l-1.07 3.32 3.38-1.02c.12-.03.23-.1.32-.18L19 11.94a1.72 1.72 0 1 0-2.43-2.44Zm-8.4-7.13.04.1 3.25 8.25-1.15 1.16L9.56 10H5.44l-1 2.52a.75.75 0 0 1-.87.45l-.1-.03a.75.75 0 0 1-.45-.87l.03-.1 3.76-9.5a.75.75 0 0 1 1.34-.1ZM7.5 4.79 6.04 8.5h2.92L7.5 4.8Z"/></svg>