<svg width="24" height="24" viewBox="0 0 24 24" xmlns="http://www.w3.org/2000/svg"><path d="M19.75 5C20.99 5 22 6 22 7.25v9.5C22 18 20.99 19 19.75 19H4.25C3.01 19 2 18 2 16.75v-9.5C2 6.01 3 5 4.25 5h15.5Zm0 1.5H4.25a.75.75 0 0 0-.75.75v9.5c0 .42.34.75.75.75h15.5c.41 0 .75-.33.75-.75v-9.5a.75.75 0 0 0-.75-.75ZM6.5 16H10a.75.75 0 0 0 0-1.5H6.5a.75.75 0 0 0 0 1.5Zm3-5a1 1 0 1 1 0 2 1 1 0 0 1 0-2Zm-3 0a1 1 0 1 1 0 2 1 1 0 0 1 0-2ZM6 8a1 1 0 1 1 0 2 1 1 0 0 1 0-2Zm3 0a1 1 0 1 1 0 2 1 1 0 0 1 0-2Z"/></svg>