<svg width="28" height="28" viewBox="0 0 28 28" xmlns="http://www.w3.org/2000/svg"><path d="M21.75 3C23.55 3 25 4.46 25 6.25v8.81a4.02 4.02 0 00-1.5-1.52V9.5h-19v12.25c0 .97.78 1.75 1.75 1.75H15V25H6.25A3.25 3.25 0 013 21.75V6.25C3 4.45 4.46 3 6.25 3h15.5zm0 1.5H6.25c-.97 0-1.75.78-1.75 1.75V8h19V6.25c0-.97-.78-1.75-1.75-1.75zM18.5 18H18a2 2 0 00-2 2v5c0 1.1.9 2 2 2h7a2 2 0 002-2v-5a2 2 0 00-2-2h-.5v-1a3 3 0 10-6 0v1zm1.5-1a1.5 1.5 0 013 0v1h-3v-1zm3 5.5a1.5 1.5 0 11-3 0 1.5 1.5 0 013 0z"/></svg>