<svg width="24" height="24" viewBox="0 0 24 24" xmlns="http://www.w3.org/2000/svg"><path d="M17.75 3C19.55 3 21 4.46 21 6.25v5.3a3.5 3.5 0 00-1.5-.9V8.5h-15v9.25c0 .97.78 1.75 1.75 1.75H13V21H6.25A3.25 3.25 0 013 17.75V6.25C3 4.45 4.46 3 6.25 3h11.5zm0 1.5H6.25c-.97 0-1.75.78-1.75 1.75V7h15v-.75c0-.97-.78-1.75-1.75-1.75zM16 15h-.5c-.83 0-1.5.67-1.5 1.5v5c0 .83.67 1.5 1.5 1.5h6c.83 0 1.5-.67 1.5-1.5v-5c0-.83-.67-1.5-1.5-1.5H21v-1a2.5 2.5 0 00-5 0v1zm1.5-1a1 1 0 112 0v1h-2v-1zm2 5a1 1 0 11-2 0 1 1 0 012 0z"/></svg>