<svg width="32" height="32" viewBox="0 0 32 32" xmlns="http://www.w3.org/2000/svg"><path d="M7.5 3A4.5 4.5 0 003 7.5v17A4.5 4.5 0 007.5 29h8.63a4.01 4.01 0 01-.13-1v-1H7.5A2.5 2.5 0 015 24.5V11h22v4a5 5 0 011.92 3.1l.08.03V7.5A4.5 4.5 0 0024.5 3h-17zM5 7.5A2.5 2.5 0 017.5 5h17A2.5 2.5 0 0127 7.5V9H5V7.5zm15.5 12H20a2.5 2.5 0 00-2.5 2.5v6a2.5 2.5 0 002.5 2.5h8a2.5 2.5 0 002.5-2.5v-6a2.5 2.5 0 00-2.5-2.5h-.5V19a3.5 3.5 0 10-7 0v.5zm2-.5a1.5 1.5 0 013 0v.5h-3V19zm3.5 6a2 2 0 11-4 0 2 2 0 014 0z"/></svg>