<svg width="20" height="20" viewBox="0 0 20 20" xmlns="http://www.w3.org/2000/svg"><path d="M2 7a5 5 0 0 0 4.03 4.9 6.48 6.48 0 0 1 1.66-3.78 2 2 0 0 0-2.21.58.5.5 0 1 1-.76-.65 3 3 0 0 1 3.76-.66 6.47 6.47 0 0 1 3.43-1.36A5 5 0 0 0 2 7Zm4.25-1.5a.75.75 0 1 1-1.5 0 .75.75 0 0 1 1.5 0Zm3 0a.75.75 0 1 1-1.5 0 .75.75 0 0 1 1.5 0Zm8.75 7a5.5 5.5 0 1 1-11 0 5.5 5.5 0 0 1 11 0Zm-6.75-1a.75.75 0 1 0-1.5 0 .75.75 0 0 0 1.5 0Zm3.86 2.57a.5.5 0 0 0-.71.05 2.5 2.5 0 0 1-3.8 0 .5.5 0 1 0-.76.66 3.5 3.5 0 0 0 5.32 0 .5.5 0 0 0-.05-.71Zm-.61-1.82a.75.75 0 1 0 0-1.5.75.75 0 0 0 0 1.5Z"/></svg>