<svg width="24" height="24" viewBox="0 0 24 24" xmlns="http://www.w3.org/2000/svg"><path d="M2 8.5a6.5 6.5 0 0 0 4.94 6.31 8 8 0 0 1 1.72-4.8 2 2 0 0 0-1.68.69.75.75 0 0 1-1.14-.97 3.5 3.5 0 0 1 4.02-.95 8 8 0 0 1 4.95-1.84A6.5 6.5 0 0 0 2 8.5Zm5.5-2a1 1 0 1 1-2 0 1 1 0 0 1 2 0Zm4 0a1 1 0 1 1-2 0 1 1 0 0 1 2 0ZM22 15a7 7 0 1 1-14 0 7 7 0 0 1 14 0Zm-8.5-1.5a1 1 0 1 0-2 0 1 1 0 0 0 2 0Zm4.47 3.22a.63.63 0 0 0-.88.07 2.75 2.75 0 0 1-4.18 0 .62.62 0 1 0-.95.82 4 4 0 0 0 6.08-.01.62.62 0 0 0-.07-.88Zm-.47-2.22a1 1 0 1 0 0-2 1 1 0 0 0 0 2Z"/></svg>