<svg width="20" height="20" viewBox="0 0 20 20" xmlns="http://www.w3.org/2000/svg"><path d="M7 2a5 5 0 0 1 4.9 4.03c-.33.03-.66.08-.98.16a4 4 0 1 0-4.73 4.73c-.08.32-.13.65-.16.99A5 5 0 0 1 7 2Zm.7 6.12c.24-.26.5-.5.78-.73a3 3 0 0 0-3.76.66.5.5 0 1 0 .76.65 2 2 0 0 1 2.21-.58ZM6.24 5.5a.75.75 0 1 1-1.5 0 .75.75 0 0 1 1.5 0Zm3 0a.75.75 0 1 1-1.5 0 .75.75 0 0 1 1.5 0Zm1.25 6.75a.75.75 0 1 0 0-1.5.75.75 0 0 0 0 1.5Zm4.6 1.82c.21.18.24.5.06.7a3.5 3.5 0 0 1-5.32.01.5.5 0 1 1 .76-.65 2.5 2.5 0 0 0 3.8 0 .5.5 0 0 1 .7-.06Zm-.6-1.82a.75.75 0 1 0 0-1.5.75.75 0 0 0 0 1.5Zm-2 5.75a5.5 5.5 0 1 0 0-11 5.5 5.5 0 0 0 0 11Zm0-1a4.5 4.5 0 1 1 0-9 4.5 4.5 0 0 1 0 9Z"/></svg>