<svg width="32" height="32" viewBox="0 0 32 32" xmlns="http://www.w3.org/2000/svg"><path d="M11 12a1 1 0 1 0 0 2h10a1 1 0 1 0 0-2H11Zm-1 6a1 1 0 0 1 1-1h5a1 1 0 1 1 0 2h-5a1 1 0 0 1-1-1Zm1 4a1 1 0 1 0 0 2h8a1 1 0 1 0 0-2h-8ZM21.83 4A3 3 0 0 0 19 2h-6a3 3 0 0 0-2.83 2H8.5A3.5 3.5 0 0 0 5 7.5v19A3.5 3.5 0 0 0 8.5 30h15a3.5 3.5 0 0 0 3.5-3.5v-19A3.5 3.5 0 0 0 23.5 4h-1.67ZM12 5a1 1 0 0 1 1-1h6a1 1 0 1 1 0 2h-6a1 1 0 0 1-1-1ZM7 7.5C7 6.67 7.67 6 8.5 6h1.67A3 3 0 0 0 13 8h6a3 3 0 0 0 2.83-2h1.67c.83 0 1.5.67 1.5 1.5v19c0 .83-.67 1.5-1.5 1.5h-15A1.5 1.5 0 0 1 7 26.5v-19Z"/></svg>