<svg width="24" height="24" viewBox="0 0 24 24" xmlns="http://www.w3.org/2000/svg"><path d="M17.95 4.1a2.08 2.08 0 012.94 2.94.76.76 0 00-.07.08l-4.18 4.18a.67.67 0 01-.95-.95l3.83-3.82a.75.75 0 10-1.06-1.06l-3.83 3.82a2.17 2.17 0 103.07 3.07l4.32-4.32a3.58 3.58 0 00-5.13-5l-3.67 3.68a.75.75 0 101.06 1.06l3.67-3.68zm-4.87 7.48l-1.08.57-8.5-4.47V7.1c.08-.9.83-1.6 1.75-1.6h7.77l1.5-1.5H5.06A3.25 3.25 0 002 7.25v9.68a3.25 3.25 0 003.25 3.06h13.68a3.25 3.25 0 003.06-3.25V9.48l-1.5 1.5v5.91c-.08.9-.83 1.6-1.75 1.6H5.11c-.9-.08-1.61-.83-1.61-1.75V9.37l8.15 4.29.1.04c.19.07.4.06.6-.04l1.42-.75c-.34-.4-.57-.85-.69-1.33z"/></svg>