<svg width="28" height="28" viewBox="0 0 28 28" xmlns="http://www.w3.org/2000/svg"><path d="M15.78 14.91l-1.44.75a.75.75 0 01-.58.05l-.1-.05L4.5 10.9v8.84c0 .92.7 1.67 1.6 1.75h15.65c.91 0 1.66-.7 1.74-1.6v-7.91l1.5-1.5v9.26A3.25 3.25 0 0121.93 23H6.24a3.25 3.25 0 01-3.23-3.06L3 19.74V8.24A3.25 3.25 0 016.06 5H17.52l-1.5 1.5H6.25c-.92 0-1.67.7-1.74 1.6l-.01.15v.96l9.5 4.94 1.09-.57c.11.48.34.94.69 1.33zM21.95 4.1a2.08 2.08 0 012.94 2.94l-6.24 6.25-.01.01a.67.67 0 01-.95-.95l5.08-5.07a.75.75 0 10-1.06-1.06l-5.08 5.07a2.17 2.17 0 103.07 3.07l6.25-6.26a3.58 3.58 0 10-5.06-5.06l-5.67 5.68a.75.75 0 101.06 1.06l5.67-5.68z"/></svg>