<svg width="28" height="28" viewBox="0 0 28 28" xmlns="http://www.w3.org/2000/svg"><path d="M20.4 15.07l4.6-4.6v9.27A3.25 3.25 0 0121.92 23H6.24a3.25 3.25 0 01-3.23-3.06L3 19.74v-9.62l10.65 5.54c.22.11.48.11.7 0l1.43-.75.14.16a3.17 3.17 0 004.49 0zM6.26 5h11.27L14.51 8a1.75 1.75 0 001.07 2.98 3.17 3.17 0 00-.5 2.6l-1.08.56L3 8.43v-.18A3.25 3.25 0 016.06 5h.19zm15.7-.9l-5.67 5.68z"/><path d="M21.95 4.1a2.08 2.08 0 012.94 2.94l-6.25 6.26a.67.67 0 01-.95-.95l5.08-5.07a.75.75 0 10-1.06-1.06l-5.08 5.07a2.17 2.17 0 003.07 3.07l6.25-6.26a3.58 3.58 0 00-5.06-5.06l-5.67 5.68a.75.75 0 101.06 1.06l5.67-5.68z"/></svg>