<svg width="20" height="20" viewBox="0 0 20 20" xmlns="http://www.w3.org/2000/svg"><path d="M2.85 2.15a.5.5 0 1 0-.7.7l1.4 1.41A2.99 2.99 0 0 0 3 6v8c0 .65.2 1.25.56 1.74l5.39-5.3c.14-.14.3-.25.46-.32l.64.63-.36.36a.51.51 0 0 0-.04.04l-5.38 5.3c.49.35 1.08.55 1.73.55h8c.6 0 1.15-.17 1.62-.47l.01-.01.1-.07 1.42 1.4a.5.5 0 0 0 .7-.7l-15-15ZM13 7.5a.5.5 0 1 1-1 0 .5.5 0 0 1 1 0ZM5.22 3.1 16.9 14.78A3 3 0 0 0 17 14V6a3 3 0 0 0-3-3H6a3 3 0 0 0-.78.1ZM14 7.5a1.5 1.5 0 1 1-3 0 1.5 1.5 0 0 1 3 0Z"/></svg>