<svg width="20" height="20" viewBox="0 0 20 20" xmlns="http://www.w3.org/2000/svg"><path d="M2.85 2.15a.5.5 0 1 0-.7.7L7 7.71v1.08l-4.3 4.3a2 2 0 0 0 0 2.82L4.1 17.3a2 2 0 0 0 2.82 0l4.3-4.29h1.08l4.86 4.85a.5.5 0 0 0 .7-.7l-15-15Zm12.67 9.13-1.06 1.06.65.65a.5.5 0 0 0 .24-.14l1.44-1.44a2 2 0 0 0 0-2.82L11.41 3.2a2 2 0 0 0-2.82 0L7.15 4.65a.5.5 0 0 0-.14.24l.65.65L9.3 3.91a1 1 0 0 1 1.42 0l5.38 5.38a1 1 0 0 1 0 1.42l-.57.57Zm-7.67 1.57a.5.5 0 1 0-.7-.7l-1 1a.5.5 0 1 0 .7.7l1-1ZM7.5 9.71l2.8 2.79-4.1 4.09a1 1 0 0 1-1.4 0L3.4 15.2a1 1 0 0 1 0-1.42L7.5 9.71Z"/></svg>