<svg width="32" height="32" viewBox="0 0 32 32" xmlns="http://www.w3.org/2000/svg"><path d="M23.5 4h-1.67A3 3 0 0 0 19 2h-6a3 3 0 0 0-2.83 2H8.5A3.5 3.5 0 0 0 5 7.5v19A3.5 3.5 0 0 0 8.5 30h5.55a2.5 2.5 0 0 1 .03-1.13l.79-3.05c.18-.68.52-1.3 1-1.82H11a1 1 0 1 1 0-2h6.86l6.65-6.7c.7-.71 1.58-1.13 2.49-1.26V7.5A3.5 3.5 0 0 0 23.5 4ZM13 4h6a1 1 0 1 1 0 2h-6a1 1 0 1 1 0-2Zm-3 9a1 1 0 0 1 1-1h10a1 1 0 1 1 0 2H11a1 1 0 0 1-1-1Zm1 4h5a1 1 0 1 1 0 2h-5a1 1 0 1 1 0-2Zm18.65 3.42-8.61 8.55c-.35.35-.8.6-1.27.72l-3.02.78a1 1 0 0 1-1.22-1.22l.8-3.05c.11-.46.35-.88.68-1.21l8.57-8.64a2.88 2.88 0 1 1 4.07 4.07Z"/></svg>