<svg width="20" height="20" viewBox="0 0 20 20" xmlns="http://www.w3.org/2000/svg"><path d="M7.5 2a.5.5 0 000 1h4a.5.5 0 000-1h-4zm7.66 1.93a.5.5 0 10-.71.7l1.41 1.42a.5.5 0 10.71-.7l-1.41-1.42zM9.5 6a.5.5 0 00-.5.5v4a.5.5 0 001 0v-4a.5.5 0 00-.5-.5zm1.54 11.83A7.02 7.02 0 012.5 11a7 7 0 0114 0v.04a3.02 3.02 0 00-1 0V11a6 6 0 10-4.5 5.81v.69c0 .11.01.22.04.33zM14 14a2 2 0 114 0v2a2 2 0 11-4 0v-2zm2-1a1 1 0 00-1 1v2a1 1 0 102 0v-2a1 1 0 00-1-1zm-3-.5a.5.5 0 00-.72-.45l-1 .5a.5.5 0 10.44.9l.28-.14v4.19a.5.5 0 001 0v-5z"/></svg>