<svg width="24" height="24" viewBox="0 0 24 24" xmlns="http://www.w3.org/2000/svg"><path d="M12 5a8.5 8.5 0 018.38 7.05 4.28 4.28 0 00-4.38 2.2v-.5a1.75 1.75 0 00-2.3-1.66l-.95.32V8.65a.75.75 0 00-1.5 0V13.34a1.75 1.75 0 001.25 2.64v6c-.17.02-.33.02-.5.02a8.5 8.5 0 010-17zm7.17.12l.08.06 1.15 1a.75.75 0 01-.9 1.2l-.08-.06-1.15-1a.75.75 0 01.9-1.2zM14.25 2.5a.75.75 0 01.1 1.5h-4.6a.75.75 0 01-.1-1.5h4.6zm.44 10.64c.2.14.31.37.31.61v8.5a.75.75 0 01-1.5 0v-7.46l-.51.17a.75.75 0 01-.48-1.42l1.5-.5a.75.75 0 01.68.1zm1.81 3.11a3.25 3.25 0 016.5 0v3.5a3.25 3.25 0 01-6.5 0v-3.5zm3.25-1.75c-.97 0-1.75.78-1.75 1.75v3.5a1.75 1.75 0 103.5 0v-3.5c0-.97-.78-1.75-1.75-1.75z"/></svg>