<svg width="20" height="20" viewBox="0 0 20 20" xmlns="http://www.w3.org/2000/svg"><path d="M7 2.5c0-.28.22-.5.5-.5h4a.5.5 0 010 1h-4a.5.5 0 01-.5-.5zm7.45 1.43c.2-.2.51-.2.7 0l1.42 1.41a.5.5 0 11-.7.71l-1.42-1.41a.5.5 0 010-.71zM16.5 11v.04a3.02 3.02 0 00-2.63.85 1.5 1.5 0 00-2.04-.73l-1 .5A1.5 1.5 0 0011 14.4v3.09c0 .11.01.22.04.33A7.02 7.02 0 012.5 11a7 7 0 0114 0zM9 6.5v4a.5.5 0 001 0v-4a.5.5 0 00-1 0zm5 7.5a2 2 0 114 0v2a2 2 0 11-4 0v-2zm2-1a1 1 0 00-1 1v2a1 1 0 102 0v-2a1 1 0 00-1-1zm-3-.5a.5.5 0 00-.72-.45l-1 .5a.5.5 0 10.44.9l.28-.14v4.19a.5.5 0 001 0v-5z"/></svg>