<svg width="24" height="24" viewBox="0 0 24 24" xmlns="http://www.w3.org/2000/svg"><path d="M12 5a8.5 8.5 0 018.38 7.05 4.28 4.28 0 00-1.52.04 7 7 0 10-6.36 8.4v1.5L12 22a8.5 8.5 0 010-17zm.75 7.4V8.66a.75.75 0 00-1.5.1v4.59c.21-.34.54-.61.95-.75l.55-.18zm6.4-7.29l.08.06 1.16.97a.75.75 0 01-.88 1.21l-.08-.06-1.16-.96a.75.75 0 01.88-1.22zm-4.9-2.61a.75.75 0 01.1 1.5h-4.6a.75.75 0 01-.1-1.5h4.6zm.44 10.64c.2.14.31.37.31.61v8.5a.75.75 0 01-1.5 0v-7.46l-.51.17a.75.75 0 01-.48-1.42l1.5-.5a.75.75 0 01.68.1zm1.81 3.11a3.25 3.25 0 016.5 0v3.5a3.25 3.25 0 01-6.5 0v-3.5zm3.25-1.75c-.97 0-1.75.78-1.75 1.75v3.5a1.75 1.75 0 103.5 0v-3.5c0-.97-.78-1.75-1.75-1.75z"/></svg>