<svg width="24" height="25" viewBox="0 0 24 25" xmlns="http://www.w3.org/2000/svg"><path d="M3.75 5.5a.75.75 0 000 1.5h16.5a.75.75 0 000-1.5H3.75zm0 4a.75.75 0 000 1.5h16.5a.75.75 0 000-1.5H3.75zM3 14.25c0-.41.34-.75.75-.75h9.06c-.43.44-.8.95-1.08 1.5H3.75a.75.75 0 01-.75-.75zM11 18c0-.17 0-.34.02-.5H3.75a.75.75 0 000 1.5h7.33a6.55 6.55 0 01-.08-1zm12 0a5.5 5.5 0 11-11 0 5.5 5.5 0 0111 0zm-4.47-3.5H17.1a.5.5 0 00-.47.32l-1.13 3a.5.5 0 00.47.68h.78l-.77 2.32a.52.52 0 00.92.44l2.63-4.03a.47.47 0 00-.4-.73h-.63l.5-1.32a.5.5 0 00-.47-.68z"/></svg>