<svg width="16" height="16" viewBox="0 0 16 16" xmlns="http://www.w3.org/2000/svg"><path d="M2 5.5A2.5 2.5 0 0 1 4.5 3h7A2.5 2.5 0 0 1 14 5.5v1.1c-.32-.16-.65-.3-1-.4v-.7c0-.83-.67-1.5-1.5-1.5H8v3.26A5.49 5.49 0 0 0 6.2 13H4.5A2.5 2.5 0 0 1 2 10.5v-5ZM4.5 5a.5.5 0 0 0 0 1h1a.5.5 0 0 0 0-1h-1ZM4 8c0 .28.22.5.5.5h1a.5.5 0 0 0 0-1h-1A.5.5 0 0 0 4 8Zm.5 2a.5.5 0 0 0 0 1h1a.5.5 0 0 0 0-1h-1ZM16 11.5a4.5 4.5 0 1 1-9 0 4.5 4.5 0 0 1 9 0Zm-3.8 0 1.15-1.15a.5.5 0 0 0-.7-.7l-1.15 1.14-1.15-1.14a.5.5 0 0 0-.7.7l1.14 1.15-1.14 1.15a.5.5 0 0 0 .7.7l1.15-1.14 1.15 1.14a.5.5 0 0 0 .7-.7l-1.14-1.15Z"/></svg>