<svg width="16" height="16" viewBox="0 0 16 16" xmlns="http://www.w3.org/2000/svg"><path d="M4.5 3A2.5 2.5 0 0 0 2 5.5v5A2.5 2.5 0 0 0 4.5 13h1.7c-.08-.32-.15-.66-.18-1H4.5A1.5 1.5 0 0 1 3 10.5v-5C3 4.67 3.67 4 4.5 4H7v4.34c.28-.4.62-.77 1-1.08V4h3.5c.83 0 1.5.67 1.5 1.5v.7c.35.1.68.24 1 .4V5.5A2.5 2.5 0 0 0 11.5 3h-7ZM4 5.5c0-.28.22-.5.5-.5h1a.5.5 0 0 1 0 1h-1a.5.5 0 0 1-.5-.5ZM4 8c0-.28.22-.5.5-.5h1a.5.5 0 0 1 0 1h-1A.5.5 0 0 1 4 8Zm0 2.5c0-.28.22-.5.5-.5h1a.5.5 0 0 1 0 1h-1a.5.5 0 0 1-.5-.5Zm12 1a4.5 4.5 0 1 1-9 0 4.5 4.5 0 0 1 9 0Zm-3.8 0 1.15-1.15a.5.5 0 0 0-.7-.7l-1.15 1.14-1.15-1.14a.5.5 0 0 0-.7.7l1.14 1.15-1.14 1.15a.5.5 0 0 0 .7.7l1.15-1.14 1.15 1.14a.5.5 0 0 0 .7-.7l-1.14-1.15Z"/></svg>