<svg width="20" height="20" viewBox="0 0 20 20" xmlns="http://www.w3.org/2000/svg"><path d="M2 6a3 3 0 0 1 3-3h10a3 3 0 0 1 3 3v4.26a5.5 5.5 0 0 0-1-.66V6a2 2 0 0 0-2-2H9v11h.02c.03.34.1.68.19 1H5a3 3 0 0 1-3-3V6Zm4.59 1a.5.5 0 0 0-.09-1H4.41a.5.5 0 0 0 .09 1h2.09Zm0 3a.5.5 0 0 0-.09-1H4.41a.5.5 0 0 0 .09 1h2.09ZM7 12.5a.5.5 0 0 0-.5-.5H4.41a.5.5 0 0 0 .09 1h2.09a.5.5 0 0 0 .41-.5Zm12 2a4.5 4.5 0 1 1-9 0 4.5 4.5 0 0 1 9 0Zm-3.8 0 1.15-1.15a.5.5 0 0 0-.7-.7l-1.15 1.14-1.15-1.14a.5.5 0 0 0-.7.7l1.14 1.15-1.14 1.15a.5.5 0 0 0 .7.7l1.15-1.14 1.15 1.14a.5.5 0 0 0 .7-.7l-1.14-1.15Z"/></svg>