<svg width="20" height="20" viewBox="0 0 20 20" xmlns="http://www.w3.org/2000/svg"><path d="M6.59 7a.5.5 0 0 0-.09-1H4.41a.5.5 0 0 0 .09 1h2.09Zm0 3a.5.5 0 0 0-.09-1H4.41a.5.5 0 0 0 .09 1h2.09ZM7 12.5a.5.5 0 0 1-.41.5H4.5a.5.5 0 0 1-.09-1H6.5c.28 0 .5.22.5.5ZM5 3a3 3 0 0 0-3 3v7a3 3 0 0 0 3 3h4.2c-.08-.32-.15-.66-.18-1H9V4h6a2 2 0 0 1 2 2v3.6c.36.18.7.4 1 .66V6a3 3 0 0 0-3-3H5Zm0 1h3v11H5a2 2 0 0 1-2-2V6c0-1.1.9-2 2-2Zm14 10.5a4.5 4.5 0 1 1-9 0 4.5 4.5 0 0 1 9 0Zm-3.8 0 1.15-1.15a.5.5 0 0 0-.7-.7l-1.15 1.14-1.15-1.14a.5.5 0 0 0-.7.7l1.14 1.15-1.14 1.15a.5.5 0 0 0 .7.7l1.15-1.14 1.15 1.14a.5.5 0 0 0 .7-.7l-1.14-1.15Z"/></svg>