<svg width="32" height="32" viewBox="0 0 32 32" xmlns="http://www.w3.org/2000/svg"><path d="M2 8.5A4.5 4.5 0 0 1 6.5 4h19A4.5 4.5 0 0 1 30 8.5v8.84a9.05 9.05 0 0 0-2-1.82V8.5A2.5 2.5 0 0 0 25.5 6H13v20h1.51c.25.71.6 1.38 1 2H6.5A4.5 4.5 0 0 1 2 23.5v-15Zm4.5.5a1 1 0 0 0 0 2h2a1 1 0 1 0 0-2h-2Zm-1 7a1 1 0 0 0 1 1h2a1 1 0 1 0 0-2h-2a1 1 0 0 0-1 1Zm0 6a1 1 0 0 0 1 1h2a1 1 0 1 0 0-2h-2a1 1 0 0 0-1 1ZM23 15.5a7.5 7.5 0 1 1 0 15 7.5 7.5 0 0 1 0-15Zm2.72 3.72L23 21.94l-2.72-2.72a.75.75 0 1 0-1.06 1.06L21.94 23l-2.72 2.72a.75.75 0 1 0 1.06 1.06L23 24.06l2.72 2.72a.75.75 0 1 0 1.06-1.06L24.06 23l2.72-2.72a.75.75 0 1 0-1.06-1.06Z"/></svg>