<svg width="48" height="48" viewBox="0 0 48 48" xmlns="http://www.w3.org/2000/svg"><path d="M10.25 7A6.25 6.25 0 0 0 4 13.25v21.5C4 38.2 6.8 41 10.25 41h13.21c-.4-.79-.74-1.63-.98-2.5H19v-29h18.75a3.75 3.75 0 0 1 3.75 3.75v10.49c.9.52 1.75 1.16 2.5 1.88V13.25C44 9.8 41.2 7 37.75 7h-27.5ZM8.5 15c0-.69.56-1.25 1.25-1.25h3.5a1.25 1.25 0 1 1 0 2.5h-3.5c-.69 0-1.25-.56-1.25-1.25Zm0 9c0-.69.56-1.25 1.25-1.25h3.5a1.25 1.25 0 1 1 0 2.5h-3.5c-.69 0-1.25-.56-1.25-1.25Zm1.25 7.75h3.5a1.25 1.25 0 1 1 0 2.5h-3.5a1.25 1.25 0 1 1 0-2.5ZM46 35a11 11 0 1 1-22 0 11 11 0 0 1 22 0Zm-5.3-4.3a1 1 0 0 0-1.4-1.4L35 33.58l-4.3-4.3a1 1 0 0 0-1.4 1.42L33.58 35l-4.3 4.3a1 1 0 0 0 1.42 1.4L35 36.42l4.3 4.3a1 1 0 0 0 1.4-1.42L36.42 35l4.3-4.3Z"/></svg>