<svg width="24" height="24" viewBox="0 0 24 24" xmlns="http://www.w3.org/2000/svg"><path d="M9.5 5.85c.28 0 .54.16.67.41L11 7.91l1.6.2a.75.75 0 0 1 .39 1.32l-1.15.95.4 1.8a.75.75 0 0 1-1.13.8l-1.6-1-1.6 1a.75.75 0 0 1-1.13-.8l.4-1.8-1.15-.95a.75.75 0 0 1 .39-1.32L8 7.9l.82-1.65a.75.75 0 0 1 .67-.41ZM4 4h11a2 2 0 0 1 2 2v7a2 2 0 0 1-2 2H4a2 2 0 0 1-2-2V6c0-1.1.9-2 2-2Zm11 1.5H4a.5.5 0 0 0-.5.5v7c0 .28.22.5.5.5h11a.5.5 0 0 0 .5-.5V6a.5.5 0 0 0-.5-.5ZM4.56 16a2 2 0 0 0 1.94 1.5h9a4 4 0 0 0 4-4v-5A2 2 0 0 0 18 6.56v6.94a2.5 2.5 0 0 1-2.5 2.5H4.56Zm2.5 2.5A2 2 0 0 0 9 20h7.25A5.75 5.75 0 0 0 22 14.25V11a2 2 0 0 0-1.5-1.94v5.19c0 2.35-1.9 4.25-4.25 4.25H7.06Z"/></svg>