<svg width="24" height="24" viewBox="0 0 24 24" xmlns="http://www.w3.org/2000/svg"><path d="M3 4.5C3 3.67 3.67 3 4.5 3h15c.83 0 1.5.67 1.5 1.5V6c0 .83-.67 1.5-1.5 1.5h-15A1.5 1.5 0 013 6V4.5zM4 9h16v2.5a6.48 6.48 0 00-5.5.23c-.01-.4-.34-.73-.75-.73h-3.5a.75.75 0 000 1.5h3.1a6.49 6.49 0 00-1.33 8.5H7.75A3.75 3.75 0 014 17.25V9zm10.28 4.98a2 2 0 01-1.44 2.5l-.59.14a5.73 5.73 0 000 1.8l.55.13a2 2 0 011.45 2.51l-.19.64c.44.38.94.7 1.49.92l.49-.52a2 2 0 012.9 0l.5.52a5.28 5.28 0 001.48-.9l-.2-.7a2 2 0 011.44-2.5l.59-.14a5.73 5.73 0 00-.01-1.8l-.54-.13a2 2 0 01-1.45-2.51l.19-.63c-.44-.39-.94-.7-1.49-.93l-.49.52a2 2 0 01-2.9 0l-.5-.52c-.54.22-1.04.53-1.48.91l.2.69zM17.5 19c-.8 0-1.45-.67-1.45-1.5S16.7 16 17.5 16c.8 0 1.45.67 1.45 1.5S18.3 19 17.5 19z"/></svg>