<svg width="16" height="16" viewBox="0 0 16 16" xmlns="http://www.w3.org/2000/svg"><path d="M1 3a1 1 0 011-1h12a1 1 0 011 1v1a1 1 0 01-1 1H2a1 1 0 01-1-1V3zm5.6 11H4.5A2.5 2.5 0 012 11.5V6h9.5a5.5 5.5 0 00-4.9 8zm2.47-5.56a2 2 0 01-1.43 2.48l-.46.12a4.7 4.7 0 000 1.02l.35.08A2 2 0 019 14.66l-.13.42c.26.2.54.38.84.52l.32-.35a2 2 0 012.91 0l.34.36c.3-.13.57-.3.82-.5l-.15-.55a2 2 0 011.43-2.48l.46-.12a4.7 4.7 0 00-.01-1.01l-.35-.09A2 2 0 0114 8.34l.13-.42c-.26-.2-.54-.38-.84-.52l-.32.35a2 2 0 01-2.91 0l-.34-.36c-.29.13-.57.3-.82.5l.16.55zm2.43 4.06a1 1 0 110-2 1 1 0 010 2z"/></svg>