<svg width="28" height="28" viewBox="0 0 28 28" xmlns="http://www.w3.org/2000/svg"><path d="M11 13.25c0-.41.34-.75.75-.75h4.5a.75.75 0 0 1 0 1.5h-4.5a.75.75 0 0 1-.75-.75ZM5.25 3C4.01 3 3 4 3 5.25v2c0 .78.4 1.47 1 1.87v11.13A4.75 4.75 0 0 0 8.75 25h5.75a7.49 7.49 0 0 1-.88-1.5H8.75a3.25 3.25 0 0 1-3.25-3.25V9.5h17v3.77c.53.14 1.03.35 1.5.6V9.12c.6-.4 1-1.09 1-1.87v-2C25 4.01 24 3 22.75 3H5.25ZM4.5 5.25c0-.41.34-.75.75-.75h17.5c.41 0 .75.34.75.75v2c0 .41-.34.75-.75.75H5.25a.75.75 0 0 1-.75-.75v-2Zm10.86 13.94a2 2 0 0 0 1.44-2.5l-.34-1.15a6.2 6.2 0 0 1 1.75-1.1l.85.9a2 2 0 0 0 2.9 0l.85-.88a6.2 6.2 0 0 1 1.75 1.1l-.33 1.1a2 2 0 0 0 1.45 2.5l.98.24a6.8 6.8 0 0 1 0 2.15l-1.02.26a2 2 0 0 0-1.44 2.5l.34 1.15a6.2 6.2 0 0 1-1.75 1.1l-.85-.9a2 2 0 0 0-2.9 0l-.85.88a6.2 6.2 0 0 1-1.75-1.1l.32-1.1a2 2 0 0 0-1.45-2.5l-.97-.24a6.8 6.8 0 0 1 0-2.15l1.02-.26ZM22 20.5a1.5 1.5 0 1 0-3 0 1.5 1.5 0 0 0 3 0Z"/></svg>