<svg width="28" height="28" viewBox="0 0 28 28" xmlns="http://www.w3.org/2000/svg"><path d="M4.5 3C3.67 3 3 3.67 3 4.5v2C3 7.33 3.67 8 4.5 8h19c.83 0 1.5-.67 1.5-1.5v-2c0-.83-.67-1.5-1.5-1.5h-19zM24 9.5H4v10.75A4.75 4.75 0 008.75 25h5.75A7.5 7.5 0 0124 13.87V9.5zm-13 3.75c0-.41.34-.75.75-.75h4.5a.75.75 0 010 1.5h-4.5a.75.75 0 01-.75-.75zm4.36 5.94l-1.03.26a6.8 6.8 0 000 2.15l.98.23a2 2 0 011.45 2.52l-.32 1.1c.52.45 1.11.83 1.75 1.1l.85-.9a2 2 0 012.9 0l.85.9a6.2 6.2 0 001.75-1.09l-.34-1.16a2 2 0 011.44-2.5l1.03-.25a6.8 6.8 0 000-2.15l-.99-.23a2 2 0 01-1.45-2.51l.33-1.1a6.2 6.2 0 00-1.75-1.1l-.85.88a2 2 0 01-2.9 0l-.85-.9a6.2 6.2 0 00-1.75 1.1l.34 1.16a2 2 0 01-1.45 2.5zM22 20.5a1.5 1.5 0 11-3 0 1.5 1.5 0 013 0z"/></svg>