<svg width="16" height="16" viewBox="0 0 16 16" xmlns="http://www.w3.org/2000/svg"><path d="M2.5 2C1.67 2 1 2.67 1 3.5v1c0 .65.42 1.2 1 1.41v5.59A2.5 2.5 0 004.5 14h2.1c-.16-.32-.3-.65-.4-1H4.5A1.5 1.5 0 013 11.5V6h10.5c.83 0 1.5-.67 1.5-1.5v-1c0-.83-.67-1.5-1.5-1.5h-11zM2 3.5c0-.28.22-.5.5-.5h11c.28 0 .5.22.5.5v1a.5.5 0 01-.5.5h-11a.5.5 0 01-.5-.5v-1zm7.07 4.94a2 2 0 01-1.43 2.48l-.46.12a4.7 4.7 0 000 1.02l.35.08A2 2 0 019 14.66l-.13.42c.26.2.54.38.84.52l.32-.35a2 2 0 012.91 0l.34.36c.3-.13.57-.3.82-.5l-.15-.55a2 2 0 011.43-2.48l.46-.12a4.7 4.7 0 00-.01-1.01l-.35-.09A2 2 0 0114 8.34l.13-.42c-.26-.2-.54-.38-.84-.52l-.32.35a2 2 0 01-2.91 0l-.34-.36c-.29.13-.57.3-.82.5l.16.55zm2.43 4.06a1 1 0 110-2 1 1 0 010 2z"/></svg>