<svg width="24" height="24" viewBox="0 0 24 24" xmlns="http://www.w3.org/2000/svg"><path d="M3 5.25C3 4.01 4 3 5.25 3h13.5C19.99 3 21 4 21 5.25v1.5c0 .78-.4 1.47-1 1.87v2.88c-.47-.2-.98-.34-1.5-.42V9h-13v8.25c0 1.24 1 2.25 2.25 2.25h3.56c.18.53.42 1.04.71 1.5H7.75A3.75 3.75 0 014 17.25V8.62c-.6-.4-1-1.09-1-1.87v-1.5zm2.25-.75a.75.75 0 00-.75.75v1.5c0 .41.34.75.75.75h13.5c.41 0 .75-.34.75-.75v-1.5a.75.75 0 00-.75-.75H5.25zm8.5 6.5c.4 0 .74.33.75.73-.41.22-.8.48-1.15.77h-3.1a.75.75 0 010-1.5h3.5zm.53 2.98a2 2 0 01-1.44 2.5l-.59.14a5.73 5.73 0 000 1.8l.55.13a2 2 0 011.45 2.51l-.19.64c.44.38.94.7 1.49.92l.49-.52a2 2 0 012.9 0l.5.52a5.28 5.28 0 001.48-.9l-.2-.7a2 2 0 011.44-2.5l.59-.14a5.73 5.73 0 00-.01-1.8l-.54-.13a2 2 0 01-1.45-2.51l.19-.63c-.44-.39-.94-.7-1.49-.93l-.49.52a2 2 0 01-2.9 0l-.5-.52c-.54.22-1.04.53-1.48.91l.2.69zM17.5 19c-.8 0-1.45-.67-1.45-1.5S16.7 16 17.5 16c.8 0 1.45.67 1.45 1.5S18.3 19 17.5 19z"/></svg>