<svg width="24" height="24" viewBox="0 0 24 24" xmlns="http://www.w3.org/2000/svg"><path d="M3 6a1 1 0 0 1 1-1h3a1 1 0 0 1 0 2H4a1 1 0 0 1-1-1Zm6.58 0a1 1 0 0 1 1-1h3a1 1 0 1 1 0 2h-3a1 1 0 0 1-1-1ZM16 6a1 1 0 0 1 1-1h3a1 1 0 1 1 0 2h-3a1 1 0 0 1-1-1ZM3 10a1 1 0 0 1 1-1h3a1 1 0 0 1 0 2H4a1 1 0 0 1-1-1Zm6.58 0a1 1 0 0 1 1-1h3a1 1 0 1 1 0 2h-3a1 1 0 0 1-1-1ZM16 10a1 1 0 0 1 1-1h3a1 1 0 1 1 0 2h-3a1 1 0 0 1-1-1ZM3 14a1 1 0 0 1 1-1h3a1 1 0 1 1 0 2H4a1 1 0 0 1-1-1Zm6.58 0a1 1 0 0 1 1-1h3a1 1 0 1 1 0 2h-3a1 1 0 0 1-1-1ZM16 14a1 1 0 0 1 1-1h3a1 1 0 1 1 0 2h-3a1 1 0 0 1-1-1ZM3 18a1 1 0 0 1 1-1h3a1 1 0 1 1 0 2H4a1 1 0 0 1-1-1Zm6.58 0a1 1 0 0 1 1-1h3a1 1 0 1 1 0 2h-3a1 1 0 0 1-1-1ZM16 18a1 1 0 0 1 1-1h3a1 1 0 1 1 0 2h-3a1 1 0 0 1-1-1Z"/></svg>