<svg width="24" height="24" viewBox="0 0 24 24" xmlns="http://www.w3.org/2000/svg"><path d="M16.75 2C17.99 2 19 3 19 4.25v15.5c0 1.24-1 2.25-2.25 2.25h-5.56A6.5 6.5 0 0 0 4 11.5V4.25C4 3.01 5 2 6.25 2h10.5Zm-2 3.5h-6.5c-.38 0-.7.28-.74.65v1.6c0 .38.27.7.64.74l.1.01h6.5c.38 0 .7-.28.75-.65v-1.6a.75.75 0 0 0-.75-.75Z"/><path d="M20 15h.75c.38 0 .7.28.74.65l.01.1v1.5c0 .38-.28.7-.65.74l-.1.01H20v-3Z"/><path d="M20 11h.75c.38 0 .7.28.74.65l.01.1v1.5c0 .38-.28.7-.65.74l-.1.01H20v-3Z"/><path d="M20 7h.75c.38 0 .7.28.74.65l.01.1v1.5c0 .38-.28.7-.65.74l-.1.01H20V7Z"/><path d="M12 17.5a5.5 5.5 0 1 0-11 0 5.5 5.5 0 0 0 11 0ZM7 18v2.5a.5.5 0 1 1-1 0V18H3.5a.5.5 0 0 1 0-1H6v-2.5a.5.5 0 1 1 1 0V17h2.5a.5.5 0 0 1 0 1H7Z"/></svg>