<svg width="20" height="20" viewBox="0 0 20 20" xmlns="http://www.w3.org/2000/svg"><path d="M10 5.5a4.5 4.5 0 1 0 9 0 4.5 4.5 0 0 0-9 0Zm6.5-3c.28 0 .5.22.5.5v1.5a.5.5 0 0 1-.5.5H15a.5.5 0 0 1 0-1h.47a1.98 1.98 0 0 0-1.72-.1 2 2 0 0 0-.66.44.5.5 0 1 1-.71-.71A3 3 0 0 1 16 3.15V3c0-.28.22-.5.5-.5Zm-.88 5.53A3 3 0 0 1 13 7.85V8a.5.5 0 0 1-1 0V6.5c0-.28.22-.5.5-.5H14a.5.5 0 0 1 0 1h-.47a1.98 1.98 0 0 0 1.72.1 2 2 0 0 0 .66-.44.5.5 0 1 1 .71.71 3 3 0 0 1-1 .66ZM17 13v-2.6c.36-.18.7-.4 1-.66V13a2 2 0 0 1-2 2h-3v2h1.5a.5.5 0 0 1 0 1h-9a.5.5 0 0 1 0-1H7v-2H4a2 2 0 0 1-2-2V4c0-1.1.9-2 2-2h6.26c-.26.3-.48.64-.66 1H4a1 1 0 0 0-1 1v9a1 1 0 0 0 1 1h12a1 1 0 0 0 1-1Zm-5 2H8v2h4v-2Z"/></svg>