<svg width="24" height="24" viewBox="0 0 24 24" xmlns="http://www.w3.org/2000/svg"><path d="M13.4 2.51a3.75 3.75 0 0 0-2.8 0l-2.2.9L18 7.12l3.37-1.3c-.14-.12-.3-.2-.46-.28l-7.5-3.04ZM22 7.2l-9.25 3.58v2.3A6.48 6.48 0 0 1 22 12.8V7.19Zm-10.75 3.58v4.94a6.5 6.5 0 0 0 0 3.58v2.4a3.75 3.75 0 0 1-.66-.2l-7.5-3.04C2.43 18.18 2 17.54 2 16.83V7.19l9.25 3.58ZM2.63 5.83 12 9.45l3.92-1.52-9.55-3.7L3.1 5.54c-.17.07-.32.16-.46.28ZM17.5 23a5.5 5.5 0 1 0 0-11 5.5 5.5 0 0 0 0 11Zm2.65-7.85a.5.5 0 0 1 .7.7l-4 4a.5.5 0 0 1-.7 0l-2-2a.5.5 0 0 1 .7-.7l1.65 1.64 3.65-3.64Z"/></svg>