<svg width="48" height="48" viewBox="0 0 48 48" xmlns="http://www.w3.org/2000/svg"><path d="M13.04 16a11 11 0 0 1 21.92 0h.29a7.75 7.75 0 0 1 7.7 8.63 13.08 13.08 0 0 0-2.68-2.4 5.25 5.25 0 0 0-5.02-3.73h-1.5c-.69 0-1.25-.56-1.25-1.25V17a8.5 8.5 0 0 0-17 0v.25c0 .69-.56 1.25-1.25 1.25h-1.5a5.25 5.25 0 1 0 0 10.5h7.88c-.26.8-.45 1.64-.54 2.5h-7.34a7.75 7.75 0 0 1 0-15.5h.3ZM44 33a11 11 0 1 1-22 0 11 11 0 0 1 22 0Zm-5.7-4.7L31 35.58l-3.3-3.3a1 1 0 0 0-1.4 1.42l4 4a1 1 0 0 0 1.4 0l8-8a1 1 0 0 0-1.4-1.42Z"/></svg>