<svg width="16" height="16" viewBox="0 0 16 16" xmlns="http://www.w3.org/2000/svg"><path d="M5.5 5.5c0-.28.22-.5.5-.5h4a.5.5 0 0 1 .4.2 3 3 0 0 0-1.14.8H6a.5.5 0 0 1-.5-.5Zm3 2.5H6a.5.5 0 0 0 0 1h2.67a3 3 0 0 1-.17-1Zm-1.1 6H4.5a.5.5 0 0 1-.5-.5v-10c0-.28.22-.5.5-.5h7c.28 0 .5.22.5.5v1.54c.36.06.7.19 1 .36V3.5c0-.83-.67-1.5-1.5-1.5v-.5a.5.5 0 0 0-1 0V2h-2v-.5a.5.5 0 0 0-1 0V2h-2v-.5a.5.5 0 0 0-1 0V2C3.67 2 3 2.67 3 3.5v10c0 .83.67 1.5 1.5 1.5H8.2c-.32-.29-.59-.62-.8-1Zm1.81.5A2.49 2.49 0 0 1 8 12.38a1.3 1.3 0 0 1 1.33-1.3h4.34c.74 0 1.33.58 1.33 1.3 0 1.14-.8 2.15-1.96 2.43l-.08.02a6.2 6.2 0 0 1-2.92 0l-.08-.02a2.63 2.63 0 0 1-.75-.31ZM13 9.32A2 2 0 0 1 9.5 8 2 2 0 1 1 13 9.32ZM5.5 11.5c0-.28.22-.5.5-.5h.5a.5.5 0 0 1 0 1H6a.5.5 0 0 1-.5-.5Z"/></svg>