<svg width="20" height="20" viewBox="0 0 20 20" xmlns="http://www.w3.org/2000/svg"><path d="M6 2c.2 0 .39.13.47.32l2.75 7a.5.5 0 01-.94.36L7.62 8H4.38l-.66 1.68a.5.5 0 01-.94-.36l2.75-7A.5.5 0 016 2zm1.23 5L6 3.87 4.77 7h2.46zm-1.98 4a2.25 2.25 0 00-1.15 4.18A2.9 2.9 0 003 17.5a.5.5 0 001 0c0-.8.4-1.3.8-1.6a2.72 2.72 0 01.77-.4H8v2a.5.5 0 001 0v-6a.5.5 0 00-.5-.5H5.25zm0 1H8v2.5H5.25a1.25 1.25 0 110-2.5zM14.5 2c.28 0 .5.22.5.5v13.8l2.15-2.15a.5.5 0 01.7.7l-3 3a.5.5 0 01-.7 0l-3-3a.5.5 0 01.7-.7L14 16.29V2.5c0-.28.22-.5.5-.5z"/></svg>