<svg width="32" height="32" viewBox="0 0 32 32" xmlns="http://www.w3.org/2000/svg"><path d="M6.5 6.13A4 4 0 0110.4 3h11.2a4 4 0 013.9 3.13L26.14 9H27a1 1 0 110 2h-.42l.33 1.48A4 4 0 0129 16v10a3 3 0 01-3 3h-1a3 3 0 01-3-3v-1H10v1a3 3 0 01-3 3H6a3 3 0 01-3-3V16a4 4 0 012.09-3.52L5.42 11H5a1 1 0 110-2h.86l.64-2.87zm17.05.44A2 2 0 0021.59 5H10.41a2 2 0 00-1.96 1.57L7.25 12h17.5l-1.2-5.43zM24 25v1a1 1 0 001 1h1a1 1 0 001-1v-1h-3zM5 25v1a1 1 0 001 1h1a1 1 0 001-1v-1H5zm2-11a2 2 0 00-2 2v7h22v-7a2 2 0 00-2-2H7zm6.5 5a1 1 0 100 2h5a1 1 0 100-2h-5zM11 17.5a1.5 1.5 0 11-3 0 1.5 1.5 0 013 0zM22.5 19a1.5 1.5 0 100-3 1.5 1.5 0 000 3z"/></svg>