<svg width="16" height="16" viewBox="0 0 16 16" xmlns="http://www.w3.org/2000/svg"><path d="M9 9h1V8H9v1Zm3.25-6h-9.5C1.78 3 1 3.79 1 4.75v7.5c0 .96.78 1.75 1.75 1.75h9.5c.96 0 1.75-.79 1.75-1.75v-7.5C14 3.79 13.21 3 12.25 3ZM5.96 6.7a.5.5 0 0 1-.46.3H4v1h1a.5.5 0 1 1 0 1H4v1.5a.5.5 0 1 1-1 0v-4a.5.5 0 0 1 .5-.5h2a.5.5 0 0 1 .35.15.5.5 0 0 1 .11.54ZM11.5 9a.5.5 0 1 1 0 1H11v.5a.5.5 0 1 1-1 0V10H9v.5a.5.5 0 1 1-1 0V10h-.5a.5.5 0 0 1-.5-.5.5.5 0 0 1 .5-.5H8V8h-.5a.5.5 0 0 1-.5-.5.5.5 0 0 1 .5-.5H8v-.5a.5.5 0 1 1 1 0V7h1v-.5a.5.5 0 1 1 1 0V7h.5a.5.5 0 1 1 0 1H11v1h.5Z"/></svg>