<svg width="16" height="16" viewBox="0 0 16 16" xmlns="http://www.w3.org/2000/svg"><path d="M6 6.4a.5.5 0 0 0-.5-.4h-2a.5.5 0 0 0-.5.5v4a.5.5 0 0 0 1 0V9h1a.5.5 0 1 0 0-1H4V7h1.5a.5.5 0 0 0 .5-.6Zm5.85 3.45A.5.5 0 0 0 11.5 9H11V8h.5a.5.5 0 0 0 0-1H11v-.5a.5.5 0 0 0-1 0V7H9v-.5a.5.5 0 0 0-1 0V7h-.5a.5.5 0 1 0 0 1H8v1h-.5a.5.5 0 1 0 0 1H8v.5a.5.5 0 0 0 1 0V10h1v.5a.5.5 0 0 0 1 0V10h.5a.5.5 0 0 0 .35-.15ZM9 8h1v1H9V8ZM2.75 3C1.78 3 1 3.78 1 4.75v7.5c0 .97.78 1.75 1.75 1.75h9.5c.97 0 1.75-.78 1.75-1.75v-7.5C14 3.78 13.22 3 12.25 3h-9.5ZM2 4.75c0-.41.34-.75.75-.75h9.5c.41 0 .75.34.75.75v7.5c0 .41-.34.75-.75.75h-9.5a.75.75 0 0 1-.75-.75v-7.5Z"/></svg>