<svg width="20" height="20" viewBox="0 0 20 20" xmlns="http://www.w3.org/2000/svg"><path d="M6 2a2 2 0 0 0-2 2v5.2c.32-.08.66-.15 1-.18V4a1 1 0 0 1 1-1h7a1 1 0 0 1 1 1v11h-3.02c-.03.34-.1.68-.19 1H15a3 3 0 0 0 3-3v-2h-3V4a2 2 0 0 0-2-2H6Zm9 13v-3h2v1a2 2 0 0 1-2 2ZM7.5 5a.5.5 0 0 0 0 1h4a.5.5 0 0 0 0-1h-4ZM7 7.5c0-.28.22-.5.5-.5h4a.5.5 0 0 1 0 1h-4a.5.5 0 0 1-.5-.5Zm3 7a4.5 4.5 0 1 1-9 0 4.5 4.5 0 0 1 9 0Zm-4-2a.5.5 0 0 0-1 0V14H3.5a.5.5 0 0 0 0 1H5v1.5a.5.5 0 0 0 1 0V15h1.5a.5.5 0 0 0 0-1H6v-1.5Z"/></svg>