<svg width="20" height="20" viewBox="0 0 20 20" xmlns="http://www.w3.org/2000/svg"><path d="M2 4.5C2 3.67 2.67 3 3.5 3h13a1.5 1.5 0 0 1 .5 2.91V12h-1V6H4v10h1v-3.5c0-.28.22-.5.5-.5h4c.2 0 .38.12.46.3A2 2 0 0 0 9 14v-1H6v3h3v1H3.5a.5.5 0 0 1-.5-.5V5.91c-.58-.2-1-.76-1-1.41ZM3.5 4a.5.5 0 0 0 0 1h13a.5.5 0 0 0 0-1h-13Zm2 3a.5.5 0 0 0-.5.5v3c0 .28.22.5.5.5h9a.5.5 0 0 0 .5-.5v-3a.5.5 0 0 0-.5-.5h-9Zm.5 3V8h8v2H6Zm13 4.5v3c0 .83-.67 1.5-1.5 1.5h-6a1.5 1.5 0 0 1-1.5-1.5v-3c0-.83.67-1.5 1.5-1.5h6c.83 0 1.5.67 1.5 1.5ZM17.5 18c0-.28.22-.5.5-.5v-1c-.83 0-1.5.67-1.5 1.5h1Zm.5-3.5a.5.5 0 0 1-.5-.5h-1c0 .83.67 1.5 1.5 1.5v-1Zm-6.5-.5a.5.5 0 0 1-.5.5v1c.83 0 1.5-.67 1.5-1.5h-1Zm-.5 3.5c.28 0 .5.22.5.5h1c0-.83-.67-1.5-1.5-1.5v1Zm3.5-3a1.5 1.5 0 1 0 0 3 1.5 1.5 0 0 0 0-3Z"/></svg>