<svg width="24" height="24" viewBox="0 0 24 24" xmlns="http://www.w3.org/2000/svg"><path d="M13 3.5a1.5 1.5 0 100 3 1.5 1.5 0 000-3zM10 5a3 3 0 115.27 1.97 2.6 2.6 0 01.76.76L17 9.26l.16.23.17.27 1.93.97a2.25 2.25 0 01-2 4.03l-2.48-1.23a2.15 2.15 0 01-.45-.3l-.1-.08c0 .13.05.27.13.39l.84 1.22c.33.5.53 1.04.58 1.63l.23 3.2a2.23 2.23 0 01-2.08 2.39 2.23 2.23 0 01-2.4-2.08l-.2-2.78-1.03-1.26-1.93 4.74C8 21.47 7.17 22 6.29 22l-.04-.01a2.24 2.24 0 01-2.08-3.1l1.8-4.42a2.25 2.25 0 01-1.82-3.03l.92-2.4.03-.06.52-1.36c.25-.66.8-1.16 1.48-1.36l2.25-.66.09-.03.09-.02.07-.01c.15-.03.3-.04.44-.04A3.01 3.01 0 0110 5zm.22 2.03a.75.75 0 00-.41 0l-2.3.67a.75.75 0 00-.5.45l-1.46 3.83a.75.75 0 001.39.57L8.16 9.8a.62.62 0 011.14.48l-.86 2.13-2.88 7.07a.75.75 0 001.38.56l2.2-5.39a1.14 1.14 0 011.9-.2l1.68 2.04c.03.04.05.09.05.14L13 19.8a.75.75 0 001.5-.1l-.23-3.19a1.75 1.75 0 00-.31-.87v-.01l-.01-.01-.84-1.23c-.42-.6-.5-1.38-.25-2.07l.25-.64.26-.54a.71.71 0 011.17-.15l.58.91c.07.12.17.21.3.27l2.5 1.25a.75.75 0 10.67-1.34l-2.32-1.16-.39-.63a2.28 2.28 0 00-.12-.17l-1.03-1.63a.75.75 0 00-.43-.32l-4.08-1.14z"/></svg>