<svg width="16" height="16" viewBox="0 0 16 16" xmlns="http://www.w3.org/2000/svg"><path d="M8.75 2a1.25 1.25 0 1 0 0 2.5 1.25 1.25 0 0 0 0-2.5ZM6.5 3.25a2.25 2.25 0 1 1 3.83 1.6c.24.13.44.32.59.55l.64 1.04 1.29.8a1.6 1.6 0 1 1-1.7 2.72l-1.45-.9.58.8c.25.36.41.78.46 1.2l.25 2.16a1.6 1.6 0 0 1-3.18.36l-.23-1.99-.35-.5-1.14 2.9a1.6 1.6 0 1 1-2.98-1.17L4.21 10a1.6 1.6 0 0 1-1.47-2.2l.96-2.37c.2-.48.61-.83 1.11-.95l1.82-.44h.01c-.09-.25-.14-.51-.14-.79Zm.65 1.77a.6.6 0 0 0-.29 0l-1.81.43a.6.6 0 0 0-.42.36l-.96 2.36a.6.6 0 1 0 1.1.46l.76-1.86a.48.48 0 0 1 .89.35l-2.38 6.06a.6.6 0 0 0 1.12.44l1.13-2.88a1 1 0 0 1 1.73-.22l.46.62a.4.4 0 0 1 .08.2l.24 2.13a.6.6 0 1 0 1.2-.14l-.25-2.14a1.6 1.6 0 0 0-.3-.76l-.73-.99a1 1 0 0 1-.13-.94l.34-.9a.4.4 0 0 1 .72-.08l.24.4a.6.6 0 0 0 .2.19l1.6 1a.6.6 0 1 0 .63-1.02l-1.29-.8a1 1 0 0 1-.32-.32l-.64-1.04a.6.6 0 0 0-.36-.26l-2.56-.65Z"/></svg>