<svg width="20" height="20" viewBox="0 0 20 20" xmlns="http://www.w3.org/2000/svg"><path d="M11 6a2 2 0 100-4 2 2 0 000 4zm-2.52.18c.26-.05.52.07.73.23a2.99 2.99 0 002.7.45.95.95 0 01.52-.05c.46.11.89.37 1.2.75l1.26 1.5a.5.5 0 00.23.16l1.02.34a1.25 1.25 0 01-.78 2.37l-1.5-.5c-.22-.07-.42-.2-.57-.38l-.49-.59a.5.5 0 00-.86.17l-.15.44a.5.5 0 00.06.44l1.05 1.6c.2.3.33.66.37 1.03l.22 2.5a1.25 1.25 0 11-2.49.22l-.2-2.3a.5.5 0 00-.09-.24l-.72-1.1a.5.5 0 00-.88.08L7.4 17.25a1.25 1.25 0 11-2.3-1L7.96 9.7a.5.5 0 00-.58-.69l-.12.03a.25.25 0 00-.17.15l-.5 1.13-.01.03-.45.94a1.25 1.25 0 01-2.26-1.08l.44-.92.5-1.12a2.75 2.75 0 011.87-1.56l1.73-.4c.02-.02.05-.02.07-.03z"/></svg>