<svg width="24" height="24" viewBox="0 0 24 24" xmlns="http://www.w3.org/2000/svg"><path d="M13.7 2.33a3.75 3.75 0 012.6 0l4.3 1.6c.7.25 1.15.9 1.15 1.63v9.3A5.5 5.5 0 0016.12 11c-.3-.36-.7-.65-1.17-.83l-4.3-1.59a4.75 4.75 0 00-2.4-.23v-2.8c0-.73.46-1.38 1.14-1.64l4.31-1.59zm-2.4 3.92c-.13.4.08.82.47.96l2.66.92c.37.13.77.13 1.14 0l2.65-.92a.75.75 0 00-.49-1.42l-2.65.92a.25.25 0 01-.16 0l-2.66-.92a.75.75 0 00-.95.46zm3.57 5a1.74 1.74 0 00-.26-.13l-4.31-1.6a3.75 3.75 0 00-2.6 0l-4.3 1.6c-.7.25-1.15.91-1.15 1.64v5.67c0 .73.46 1.39 1.14 1.64l4.31 1.6c.84.3 1.76.3 2.6 0l2.64-.98a5.49 5.49 0 01-1.74-5.67l-1.45.5v2.7a.75.75 0 01-1.5 0v-2.7l-2.48-.85a.75.75 0 01.49-1.42L9 14.2l2.73-.95a.75.75 0 01.36-.03 5.5 5.5 0 012.78-1.98zm5.3 7.86a4.5 4.5 0 10-1.06 1.06l2.61 2.6a.75.75 0 001.06-1.05l-2.61-2.61zm-.67-2.61a3 3 0 11-6 0 3 3 0 016 0z"/></svg>