<svg width="24" height="24" viewBox="0 0 24 24" xmlns="http://www.w3.org/2000/svg"><path d="M14.22 3.74c.5-.19 1.06-.19 1.56 0l4.3 1.59c.1.04.17.13.17.23v6.92a5.5 5.5 0 011.5 2.37V5.56c0-.73-.46-1.38-1.14-1.64L16.3 2.33a3.75 3.75 0 00-2.6 0l-4.3 1.6c-.7.25-1.15.9-1.15 1.63v2.8c.5-.08 1-.08 1.5 0v-2.8c0-.1.07-.2.16-.23l4.31-1.6zm.65 7.5a1.74 1.74 0 00-.26-.12l-4.31-1.6a3.75 3.75 0 00-2.6 0l-4.3 1.6c-.7.25-1.15.91-1.15 1.64v5.67c0 .73.46 1.39 1.14 1.64l4.31 1.6c.84.3 1.76.3 2.6 0l2.64-.98c-.41-.35-.77-.75-1.06-1.2l-2.1.77c-.5.18-1.06.18-1.56 0l-4.3-1.6a.25.25 0 01-.17-.23v-5.67c0-.1.07-.2.16-.23l4.31-1.6c.5-.18 1.06-.18 1.56 0l3.33 1.24c.52-.41 1.12-.73 1.76-.93zm-2.78 1.98a.75.75 0 00-.36.03L9 14.2l-2.74-.95a.75.75 0 10-.5 1.42l2.49.85v2.7a.75.75 0 001.5 0v-2.7l1.45-.5c.18-.66.49-1.27.89-1.8zm-.78-6.5c-.14.38.07.81.46.95l2.66.92c.37.12.77.12 1.14 0l2.65-.92a.75.75 0 00-.49-1.42l-2.65.92a.25.25 0 01-.16 0l-2.66-.92a.75.75 0 00-.95.46zm8.86 12.39a4.5 4.5 0 10-1.06 1.06l2.61 2.6a.75.75 0 001.06-1.05l-2.61-2.61zm-.67-2.61a3 3 0 11-6 0 3 3 0 016 0z"/></svg>