<svg width="16" height="16" viewBox="0 0 16 16" xmlns="http://www.w3.org/2000/svg"><path d="M6 1.5a.5.5 0 0 0-1 0v5a.5.5 0 0 1-1 0v-5a.5.5 0 0 0-1 0v5a.5.5 0 0 1-1 0v-4a.5.5 0 0 0-1 0v6.3c0 .54.13 1.07.37 1.56L2 11.62A2.5 2.5 0 0 0 4.24 13h.26c1.39 0 2.44-1.14 2.99-2.17.42-.8 1.2-1.73 2.7-2.37a.5.5 0 0 0 .23-.74c-.3-.45-.66-.73-1.04-.9A2.08 2.08 0 0 0 8 6.76V2.5a.5.5 0 0 0-1 0v4a.5.5 0 0 1-1 0v-5ZM11 16a5 5 0 0 1-4.42-2.66 5.74 5.74 0 0 0 1.8-2.05c.31-.6.93-1.36 2.21-1.91a1.5 1.5 0 0 0 .66-2.21c-.32-.47-.7-.84-1.14-1.1A5 5 0 1 1 11 16Zm1.75-4.5a.75.75 0 1 0 0-1.5.75.75 0 0 0 0 1.5Zm-.03.55a.5.5 0 0 0-.67.23c-.12.24-.37.43-.7.55-.32.13-.65.17-.85.17a.5.5 0 0 0 0 1c.3 0 .77-.06 1.22-.23.45-.18.95-.5 1.23-1.05a.5.5 0 0 0-.23-.67Z"/></svg>