<svg width="28" height="28" viewBox="0 0 28 28" xmlns="http://www.w3.org/2000/svg"><path d="M10.75 2.75c-.18 0-.36.03-.51.07A1.7 1.7 0 0 0 8.75 2c-.68 0-1.2.35-1.49.82a1.82 1.82 0 0 0-.51-.07c-.9 0-1.5.6-1.68 1.28A1.74 1.74 0 0 0 3 5.75v6c0 .62.27 1.39.56 2.04.3.68.67 1.37.98 1.9A2.64 2.64 0 0 0 6.84 17h1.64c.88 0 1.7-.42 2.23-1.13l.6-.83c.5-.68 1.07-1.31 1.7-1.87l.96-.83 1.72-1.23c.2-.14.31-.37.31-.61C16 9.03 14.9 8 13.5 8c-.37 0-.71.07-1 .17V4.5c0-.85-.65-1.75-1.75-1.75Zm-2.25 1c0-.07.03-.13.07-.18.03-.04.09-.07.18-.07.1 0 .15.03.18.07.04.05.07.11.07.18v4.5a.75.75 0 0 0 1.5 0V4.5c0-.07.03-.13.07-.18.03-.04.08-.07.18-.07.1 0 .14.03.18.07.04.04.07.11.07.18v4.99a.75.75 0 0 0 1.23.57l.03-.03c.15-.13.6-.53 1.24-.53.47 0 .83.24.95.65l-1.38.99a.78.78 0 0 0-.06.04l-.98.86c-.73.63-1.38 1.34-1.94 2.12l-.6.82c-.23.33-.6.52-1.01.52H6.84c-.43 0-.8-.22-1-.56-.3-.5-.64-1.14-.9-1.76a4.33 4.33 0 0 1-.44-1.43v-6c0-.07.03-.13.07-.18.03-.04.09-.07.18-.07.1 0 .15.03.18.07.04.05.07.11.07.18v3a.75.75 0 0 0 1.5 0V4.5c0-.07.03-.13.07-.18.03-.04.08-.07.18-.07.1 0 .15.03.2.08.03.04.05.08.05.12v3.8a.75.75 0 0 0 1.5 0v-4.5Zm9 22.25a8.5 8.5 0 0 1-8.49-8.04 3.75 3.75 0 0 0 1.5-.55l-.01.09a7 7 0 1 0 6.5-6.98v-.02c0-.53-.1-1.03-.3-1.46A8.5 8.5 0 1 1 17.5 26Zm-1.38-10a1.12 1.12 0 1 1-2.24 0 1.12 1.12 0 0 1 2.24 0ZM20 17.12a1.12 1.12 0 1 0 0-2.24 1.12 1.12 0 0 0 0 2.24Zm-5.17 2.64a.75.75 0 0 0-1.15.97 5 5 0 0 0 7.64 0 .75.75 0 1 0-1.14-.97 3.5 3.5 0 0 1-5.35 0Z"/></svg>