<svg width="32" height="32" viewBox="0 0 32 32" xmlns="http://www.w3.org/2000/svg"><path d="M7 3a1 1 0 0 1 1 1v5.5a.5.5 0 0 0 1 0V3a1 1 0 0 1 2 0v6.5a.5.5 0 0 0 1 0V4a1 1 0 1 1 2 0v7.55a4.31 4.31 0 0 1 2.48-.5c.5.08.86.3 1.1.56a1.69 1.69 0 0 1 .35.53l.01.02v.02a1 1 0 0 1-.44 1.19h-.02l-.06.04a9.68 9.68 0 0 0-1.18.82c-.76.58-1.74 1.43-2.64 2.5-.37.45-.8.85-1.27 1.2A4.46 4.46 0 0 1 9.53 19H8.26a4 4 0 0 1-3.43-1.94l-1.12-1.87A5 5 0 0 1 3 12.62V5a1 1 0 0 1 2 0v5.5a.5.5 0 0 0 1 0V4a1 1 0 0 1 1-1Zm4 17.5v-.26a7.83 7.83 0 0 0 3.75-2.54 14.84 14.84 0 0 1 3.5-3.03 2.5 2.5 0 0 0 .83-3.56A9.5 9.5 0 1 1 11 20.5Zm5.37 2.05a1 1 0 0 0-.15 1.4 5.5 5.5 0 0 0 8.56 0 1 1 0 0 0-1.56-1.25 3.5 3.5 0 0 1-5.44 0 1 1 0 0 0-1.4-.15ZM19.25 19a1.25 1.25 0 1 0-2.5 0 1.25 1.25 0 0 0 2.5 0ZM23 20.25a1.25 1.25 0 1 0 0-2.5 1.25 1.25 0 0 0 0 2.5Z"/></svg>