<svg width="32" height="32" viewBox="0 0 32 32" xmlns="http://www.w3.org/2000/svg"><path d="M8.39 3.16a2.5 2.5 0 0 1 4.22 0A2.5 2.5 0 0 1 16 5.5v4.9c.9-.3 1.69-.3 2.4-.02a3.32 3.32 0 0 1 1.8 1.94c.46 1.13-.34 2.08-1.1 2.4a12.93 12.93 0 0 0-5 3.81A5.95 5.95 0 0 1 9.54 21H8.26a5 5 0 0 1-4.28-2.43L2.86 16.7A6 6 0 0 1 2 13.62V6.5a2.5 2.5 0 0 1 3.39-2.34 2.5 2.5 0 0 1 3-1ZM14 5.5a.5.5 0 0 0-1 0V10a1 1 0 1 1-2 0V4.5a.5.5 0 0 0-1 0V10a1 1 0 1 1-2 0V5.5a.5.5 0 0 0-1 0V11a1 1 0 1 1-2 0V6.5a.5.5 0 0 0-1 0v7.12a4 4 0 0 0 .57 2.05l1.12 1.87A3 3 0 0 0 8.26 19h1.27c1.1 0 2.19-.66 3-1.7a14.92 14.92 0 0 1 5.75-4.4c-.16-.33-.36-.56-.61-.66-.26-.1-.88-.18-2.14.6A1 1 0 0 1 14 12V5.5Zm-2.83 16.79a9.5 9.5 0 1 0 10.08-11.26c.15.27.27.53.35.73.2.48.26.94.24 1.36a7.5 7.5 0 1 1-8.78 8.35c-.57.35-1.2.64-1.9.82Zm5.2.26a1 1 0 0 1 1.4.15 3.5 3.5 0 0 0 5.45 0 1 1 0 0 1 1.56 1.26 5.5 5.5 0 0 1-8.56 0 1 1 0 0 1 .15-1.4Zm1.63-2.3a1.25 1.25 0 1 0 0-2.5 1.25 1.25 0 0 0 0 2.5ZM24.25 19a1.25 1.25 0 1 1-2.5 0 1.25 1.25 0 0 1 2.5 0Z"/></svg>