<svg width="48" height="48" viewBox="0 0 48 48" xmlns="http://www.w3.org/2000/svg"><path d="M18.5 18.26a5.9 5.9 0 0 1 3.67-1.2 3.97 3.97 0 0 1 2.48 1.07l.02.02v.01a1.25 1.25 0 0 1-.32 1.93l-.01.01a3.48 3.48 0 0 0-.4.25c-.28.2-.7.5-1.2.95a19.7 19.7 0 0 0-3.84 4.6l-.11.23A6.16 6.16 0 0 1 13.82 29h-3.04a5.25 5.25 0 0 1-4.82-3.16L4.6 22.72c-.4-.92-.6-1.9-.6-2.9V7.25a1.25 1.25 0 1 1 2.5 0v9a.75.75 0 0 0 1.5 0V5.75a1.25 1.25 0 1 1 2.5 0v9.5a.75.75 0 0 0 1.5 0v-11a1.25 1.25 0 1 1 2.5 0v11a.75.75 0 0 0 1.5 0v-9.5a1.25 1.25 0 1 1 2.5 0v12.5ZM30 44.87a15 15 0 0 1-14.97-14.12 8.42 8.42 0 0 0 5.55-3.88l.05-.1.07-.1.07-.11a17.93 17.93 0 0 1 3.28-3.89c.45-.38.81-.65 1.03-.8l.08-.05a8.88 8.88 0 0 0 .22-.14 3.23 3.23 0 0 0 .83-4.94l-.09-.1-.04-.05-.07-.07-.24-.22c-.24-.21-.5-.39-.77-.55l-.03-.02A15 15 0 1 1 30 44.87Zm0-8.5c-2.3 0-4.3-1.16-5.45-2.93a1.25 1.25 0 1 0-2.1 1.36A8.97 8.97 0 0 0 30 38.87c3.15 0 5.94-1.6 7.55-4.07a1.25 1.25 0 1 0-2.1-1.36A6.47 6.47 0 0 1 30 36.37Zm6-9.5a2 2 0 1 0-4 0 2 2 0 0 0 4 0Zm-10 2a2 2 0 1 0 0-4 2 2 0 0 0 0 4Z"/></svg>