<svg width="48" height="48" viewBox="0 0 48 48" xmlns="http://www.w3.org/2000/svg"><path d="M11 7.75a.75.75 0 0 0-1.5 0v9a1.25 1.25 0 1 1-2.5 0v-7.5a.75.75 0 0 0-1.5 0v10.57c0 .8.16 1.57.48 2.3l1.36 3.13a3.75 3.75 0 0 0 3.44 2.25h3.04c1.42 0 2.8-.86 3.73-2.21 2.67-3.9 6.16-6.31 7.85-7.33a2.2 2.2 0 0 0-1.1-1c-.45-.15-1.45-.2-3.26 1.26a1.25 1.25 0 0 1-2.04-.97v-9.5a.75.75 0 0 0-1.5 0v7.5a1.25 1.25 0 1 1-2.5 0v-9a.75.75 0 0 0-1.5 0v9a1.25 1.25 0 1 1-2.5 0v-7.5Zm10.5 7.21a4.7 4.7 0 0 1 3.62-.36 4.93 4.93 0 0 1 2.7 2.58c.57 1.16-.08 2.3-.91 2.8a23.46 23.46 0 0 0-7.3 6.72c-1.26 1.85-3.33 3.3-5.8 3.3h-3.03a6.25 6.25 0 0 1-5.73-3.76l-1.36-3.12a8.25 8.25 0 0 1-.69-3.3V9.25a3.25 3.25 0 0 1 4.39-3.04 3.25 3.25 0 0 1 4-1.5 3.25 3.25 0 0 1 5.72 0 3.24 3.24 0 0 1 4.39 3.04v7.21ZM15.12 31.9a15 15 0 1 0 13.74-16.86c.35.49.6.94.76 1.26.2.4.32.81.38 1.2a12.5 12.5 0 1 1-12.45 13.61 8.4 8.4 0 0 1-2.43.79Zm7.7 1.3a1.25 1.25 0 0 1 1.73.37A6.47 6.47 0 0 0 30 36.5c2.3 0 4.3-1.16 5.45-2.93a1.25 1.25 0 1 1 2.1 1.36A8.97 8.97 0 0 1 30 39a8.97 8.97 0 0 1-7.55-4.07 1.25 1.25 0 0 1 .37-1.73ZM34 29a2 2 0 1 0 0-4 2 2 0 0 0 0 4Zm-6-2a2 2 0 1 1-4 0 2 2 0 0 1 4 0Z"/></svg>