<svg width="12" height="12" viewBox="0 0 12 12" xmlns="http://www.w3.org/2000/svg"><path d="M4 3v-.75C4 1.56 4.56 1 5.25 1h1.5C7.44 1 8 1.56 8 2.25V3h1a2 2 0 0 1 2 2v4a2 2 0 0 1-2 2H3a2 2 0 0 1-2-2V5c0-1.1.9-2 2-2h1Zm1-.75V3h2v-.75A.25.25 0 0 0 6.75 2h-1.5a.25.25 0 0 0-.25.25ZM3 4a1 1 0 0 0-1 1v.5C2 6.33 2.67 7 3.5 7H5v-.5c0-.28.22-.5.5-.5h1c.28 0 .5.22.5.5V7h1.5c.83 0 1.5-.67 1.5-1.5V5a1 1 0 0 0-1-1H3Zm5.5 4H7v.5a.5.5 0 0 1-.5.5h-1a.5.5 0 0 1-.5-.5V8H3.5c-.56 0-1.08-.19-1.5-.5V9a1 1 0 0 0 1 1h6a1 1 0 0 0 1-1V7.5c-.42.31-.94.5-1.5.5Z"/></svg>