<svg width="16" height="16" viewBox="0 0 16 16" xmlns="http://www.w3.org/2000/svg"><path d="M5 5V3.5C5 2.67 5.67 2 6.5 2h3c.83 0 1.5.67 1.5 1.5V5h1a2 2 0 0 1 2 2v5a2 2 0 0 1-2 2H4a2 2 0 0 1-2-2V7c0-1.1.9-2 2-2h1Zm1-1.5V5h4V3.5a.5.5 0 0 0-.5-.5h-3a.5.5 0 0 0-.5.5Zm-3 6V12a1 1 0 0 0 1 1h8a1 1 0 0 0 1-1V9.5c-.42.31-.94.5-1.5.5H9v.5a.5.5 0 0 1-.5.5h-1a.5.5 0 0 1-.5-.5V10H4.5c-.56 0-1.08-.19-1.5-.5ZM7 9v-.5c0-.28.22-.5.5-.5h1c.28 0 .5.22.5.5V9h2.5c.83 0 1.5-.67 1.5-1.5V7a1 1 0 0 0-1-1H4a1 1 0 0 0-1 1v.5C3 8.33 3.67 9 4.5 9H7Z"/></svg>