<svg width="20" height="20" viewBox="0 0 20 20" xmlns="http://www.w3.org/2000/svg"><path d="M7 5V3.75C7 2.78 7.78 2 8.75 2h2.5c.97 0 1.75.78 1.75 1.75V5h1.5A2.5 2.5 0 0 1 17 7.5v1c0 .83-.67 1.5-1.5 1.5H11v-.5a.5.5 0 0 0-.5-.5h-1a.5.5 0 0 0-.5.5v.5H4.5A1.5 1.5 0 0 1 3 8.5v-1A2.5 2.5 0 0 1 5.5 5H7Zm1 0h4V3.75a.75.75 0 0 0-.75-.75h-2.5a.75.75 0 0 0-.75.75V5Zm-5 5.5v3A2.5 2.5 0 0 0 5.5 16h9a2.5 2.5 0 0 0 2.5-2.5v-3c-.42.31-.94.5-1.5.5H11v.5a.5.5 0 0 1-.5.5h-1a.5.5 0 0 1-.5-.5V11H4.5c-.56 0-1.08-.19-1.5-.5Z"/></svg>