<svg width="20" height="20" viewBox="0 0 20 20" xmlns="http://www.w3.org/2000/svg"><path d="M7 5V3.75C7 2.78 7.78 2 8.75 2h2.5c.97 0 1.75.78 1.75 1.75V5h1.5A2.5 2.5 0 0 1 17 7.5v6a2.5 2.5 0 0 1-2.5 2.5h-9A2.5 2.5 0 0 1 3 13.5v-6A2.5 2.5 0 0 1 5.5 5H7Zm1-1.25V5h4V3.75a.75.75 0 0 0-.75-.75h-2.5a.75.75 0 0 0-.75.75ZM5.5 6C4.67 6 4 6.67 4 7.5v1c0 .83.67 1.5 1.5 1.5H9v-.5c0-.28.22-.5.5-.5h1c.28 0 .5.22.5.5v.5h3.5c.83 0 1.5-.67 1.5-1.5v-1c0-.83-.67-1.5-1.5-1.5h-9Zm9 5H11v.5a.5.5 0 0 1-.5.5h-1a.5.5 0 0 1-.5-.5V11H5.5c-.56 0-1.08-.19-1.5-.5v3c0 .83.67 1.5 1.5 1.5h9c.83 0 1.5-.67 1.5-1.5v-3c-.42.31-.94.5-1.5.5Z"/></svg>