<svg width="24" height="24" viewBox="0 0 24 24" xmlns="http://www.w3.org/2000/svg"><path d="M10.25 3.5h3.5c.41 0 .75.34.75.75V6h-5V4.25c0-.41.34-.75.75-.75ZM8 4.25V6H6.25A3.25 3.25 0 0 0 3 9.25v7.5C3 18.55 4.46 20 6.25 20h11.5c1.8 0 3.25-1.46 3.25-3.25v-7.5C21 7.45 19.54 6 17.75 6H16V4.25C16 3.01 15 2 13.75 2h-3.5C9.01 2 8 3 8 4.25Zm11.5 5v1.5c0 .97-.78 1.75-1.75 1.75H14V12a1 1 0 0 0-1-1h-2a1 1 0 0 0-1 1v.5H6.25c-.97 0-1.75-.78-1.75-1.75v-1.5c0-.97.78-1.75 1.75-1.75h11.5c.97 0 1.75.78 1.75 1.75Zm0 4.24v3.26c0 .97-.78 1.75-1.75 1.75H6.25c-.97 0-1.75-.78-1.75-1.75v-3.26c.5.32 1.1.51 1.75.51H10a1 1 0 0 0 1 1h2a1 1 0 0 0 1-1h3.75c.64 0 1.24-.19 1.75-.51Z"/></svg>