<svg width="28" height="28" viewBox="0 0 28 28" xmlns="http://www.w3.org/2000/svg"><path d="M10.5 4.75V7h7V4.75a.75.75 0 0 0-.75-.75h-5.5a.75.75 0 0 0-.75.75Zm8.5 0V7h2.25A3.75 3.75 0 0 1 25 10.75v2c0 1.24-1 2.25-2.25 2.25H16.5c0-.83-.67-1.5-1.5-1.5h-2c-.83 0-1.5.67-1.5 1.5H5.25c-1.2 0-2.18-.94-2.25-2.12v-2.13A3.75 3.75 0 0 1 6.75 7H9V4.75c0-1.24 1-2.25 2.25-2.25h5.5c1.24 0 2.25 1 2.25 2.25Zm-16 11v4.5A3.75 3.75 0 0 0 6.75 24h14.5A3.75 3.75 0 0 0 25 20.25v-4.5c-.63.47-1.4.75-2.25.75H16.5v.5c0 .83-.67 1.5-1.5 1.5h-2a1.5 1.5 0 0 1-1.5-1.5v-.5H5.25c-.84 0-1.62-.28-2.25-.75Z"/></svg>