<svg width="48" height="48" viewBox="0 0 48 48" xmlns="http://www.w3.org/2000/svg"><path d="M18.5 8.25V12h11V8.25c0-.97-.78-1.75-1.75-1.75h-7.5c-.97 0-1.75.78-1.75 1.75ZM16 12V8.25C16 5.9 17.9 4 20.25 4h7.5C30.1 4 32 5.9 32 8.25V12h3.75C39.2 12 42 14.8 42 18.25v3.5a3.75 3.75 0 0 1-3.75 3.75H28V25a2 2 0 0 0-2-2h-4a2 2 0 0 0-2 2v.5H9.75A3.75 3.75 0 0 1 6 21.75v-3.5C6 14.8 8.8 12 12.25 12H16Zm4 16H9.75c-1.4 0-2.7-.46-3.75-1.25v7C6 37.2 8.8 40 12.25 40h23.5C39.2 40 42 37.2 42 33.75v-7A6.22 6.22 0 0 1 38.25 28H28v1a2 2 0 0 1-2 2h-4a2 2 0 0 1-2-2v-1Z"/></svg>