<svg width="48" height="48" viewBox="0 0 48 48" xmlns="http://www.w3.org/2000/svg"><path d="M16 12V8.25C16 5.9 17.9 4 20.25 4h7.5C30.1 4 32 5.9 32 8.25V12h3.75C39.2 12 42 14.8 42 18.25v15.5C42 37.2 39.2 40 35.75 40h-23.5A6.25 6.25 0 0 1 6 33.75v-15.5C6 14.8 8.8 12 12.25 12H16Zm2.5-3.75V12h11V8.25c0-.97-.78-1.75-1.75-1.75h-7.5c-.97 0-1.75.78-1.75 1.75Zm21 10a3.75 3.75 0 0 0-3.75-3.75h-23.5a3.75 3.75 0 0 0-3.75 3.75v3.5a3.75 3.75 0 0 0 3.75 3.75H20V25c0-1.1.9-2 2-2h4a2 2 0 0 1 2 2v.5h7.75a3.75 3.75 0 0 0 3.75-3.75v-3.5ZM12.25 28c-1.4 0-2.7-.46-3.75-1.25v7a3.75 3.75 0 0 0 3.75 3.75h23.5a3.75 3.75 0 0 0 3.75-3.75v-7A6.22 6.22 0 0 1 35.75 28H28v1a2 2 0 0 1-2 2h-4a2 2 0 0 1-2-2v-1h-7.75Z"/></svg>