<svg width="24" height="24" viewBox="0 0 24 24" xmlns="http://www.w3.org/2000/svg"><path d="m9.8 3.24 1.5 1.5-6.57 6.55-1.5-1.5a3.25 3.25 0 0 1 0-4.59L5.2 3.24a3.25 3.25 0 0 1 4.6 0Zm4.4 17.52-1.5-1.5 6.57-6.55 1.5 1.5a3.25 3.25 0 0 1 0 4.59l-1.97 1.96a3.25 3.25 0 0 1-4.6 0ZM3.24 14.2a3.25 3.25 0 0 0 0 4.6l1.96 1.96a3.25 3.25 0 0 0 4.6 0L20.76 9.8a3.25 3.25 0 0 0 0-4.6L18.8 3.24a3.25 3.25 0 0 0-4.6 0L3.24 14.2ZM12.75 9a.75.75 0 1 1-1.5 0 .75.75 0 0 1 1.5 0ZM9 12.75a.75.75 0 1 1 0-1.5.75.75 0 0 1 0 1.5Zm3 0a.75.75 0 1 1 0-1.5.75.75 0 0 1 0 1.5Zm3.75-.75a.75.75 0 1 1-1.5 0 .75.75 0 0 1 1.5 0ZM12 15.75a.75.75 0 1 1 0-1.5.75.75 0 0 1 0 1.5Z"/></svg>