<svg width="20" height="20" viewBox="0 0 20 20" xmlns="http://www.w3.org/2000/svg"><path d="m8.27 3.06 1.02 1.03-5.2 5.2-1.03-1.02a2.5 2.5 0 0 1 0-3.54l1.67-1.67a2.5 2.5 0 0 1 3.54 0Zm3.46 13.88-1.02-1.03 5.2-5.2 1.03 1.02a2.5 2.5 0 0 1 0 3.54l-1.67 1.67a2.5 2.5 0 0 1-3.54 0Zm-8.67-5.2a2.5 2.5 0 0 0 0 3.53l1.67 1.67a2.5 2.5 0 0 0 3.54 0l8.67-8.67a2.5 2.5 0 0 0 0-3.54l-1.67-1.67a2.5 2.5 0 0 0-3.54 0l-8.67 8.67ZM10 8.5a.5.5 0 1 1 0-1 .5.5 0 0 1 0 1Zm0 2a.5.5 0 1 1 0-1 .5.5 0 0 1 0 1ZM8.5 10a.5.5 0 1 1-1 0 .5.5 0 0 1 1 0Zm3.5.5a.5.5 0 1 1 0-1 .5.5 0 0 1 0 1ZM10.5 12a.5.5 0 1 1-1 0 .5.5 0 0 1 1 0Z"/></svg>