<svg width="24" height="24" viewBox="0 0 24 24" xmlns="http://www.w3.org/2000/svg"><path d="M17.21 2.24a.75.75 0 0 0-1.42-.48l-.75 2.25a.75.75 0 0 0 1.42.48l.75-2.25Zm4.57-.02c.3.3.3.77 0 1.06l-2.5 2.5a.75.75 0 1 1-1.06-1.06l2.5-2.5c.3-.3.77-.3 1.06 0Zm-12.7 2.1a2.33 2.33 0 0 1 3.8-.58l7 7.5c1.09 1.18.7 3.07-.76 3.72l-3.42 1.51A3.99 3.99 0 0 1 12 22a4 4 0 0 1-3.61-2.29l-1.42.63A1.8 1.8 0 0 1 5 20.01l-1.43-1.36a1.8 1.8 0 0 1-.4-2.1l5.9-12.23Zm.68 14.79a2.5 2.5 0 0 0 4.57-2.03l-4.57 2.03Zm2.01-14.35a.83.83 0 0 0-1.34.2l-5.9 12.25a.3.3 0 0 0 .06.35l1.44 1.36c.1.08.22.1.33.05l12.15-5.38c.52-.23.66-.9.27-1.32l-7-7.5ZM19 8.25c0-.41.34-.75.75-.75h2a.75.75 0 0 1 0 1.5h-2a.75.75 0 0 1-.75-.75Z"/></svg>