<svg width="32" height="32" viewBox="0 0 32 32" xmlns="http://www.w3.org/2000/svg"><path d="M20.04 4.75a1 1 0 0 0 1.92.55l.83-2.88a1 1 0 1 0-1.92-.55l-.83 2.88ZM28.7 3.3a1 1 0 0 1 0 1.42l-3 3a1 1 0 1 1-1.42-1.42l3-3a1 1 0 0 1 1.42 0ZM26 11a1 1 0 0 1 1-1h3a1 1 0 0 1 0 2h-3a1 1 0 0 1-1-1ZM11.96 5.66a3 3 0 0 1 4.8-.78l10.36 10.36a3 3 0 0 1-.78 4.8l-4.75 2.38A5.48 5.48 0 0 1 16.5 30a5.5 5.5 0 0 1-4.72-2.68l-2.72 1.36a3 3 0 0 1-3.46-.56L3.88 26.4a3 3 0 0 1-.56-3.46l8.64-17.28Zm1.62 20.77a3.5 3.5 0 0 0 6.21-3.11l-6.21 3.1Zm1.77-20.14a1 1 0 0 0-1.6.26L5.1 23.83A1 1 0 0 0 5.29 25l1.72 1.72a1 1 0 0 0 1.16.18l17.28-8.64a1 1 0 0 0 .26-1.6L15.35 6.3Z"/></svg>