<svg width="20" height="20" viewBox="0 0 20 20" xmlns="http://www.w3.org/2000/svg"><path d="M8.5 2c.56 0 1.08.19 1.5.5a2.5 2.5 0 0 1 4 2V6h1a1 1 0 0 1 1 1v3.88l-1 1V7h-3v2a3 3 0 0 0-1 .17V7H5v8c0 1.1.9 2 2 2h3.09a1.5 1.5 0 0 0 0 1H7a3 3 0 0 1-3-3V7a1 1 0 0 1 1-1h1V4.5A2.5 2.5 0 0 1 8.5 2Zm0 1C7.67 3 7 3.67 7 4.5V6h3V4.5C10 3.67 9.33 3 8.5 3Zm3 0c-.3 0-.6.1-.83.25.2.37.33.8.33 1.25V6h2V4.5c0-.83-.67-1.5-1.5-1.5Zm.5 11a2 2 0 1 0 0-4 2 2 0 0 0 0 4Zm0-3a1 1 0 1 1 0 2 1 1 0 0 1 0-2Zm5 8a2 2 0 1 0 0-4 2 2 0 0 0 0 4Zm0-3a1 1 0 1 1 0 2 1 1 0 0 1 0-2Zm.85-4.15a.5.5 0 0 0-.7-.7l-6 6a.5.5 0 0 0 .7.7l6-6Z"/></svg>