<svg width="20" height="20" viewBox="0 0 20 20" xmlns="http://www.w3.org/2000/svg"><path d="M6 4.5V6H5a1 1 0 0 0-1 1v8a2.93 2.93 0 0 0 .88 2.13A3 3 0 0 0 7 18h3.09a1.5 1.5 0 0 1 .35-1.56l.56-.56v-1.05a3 3 0 0 1 0-5.66V4.5a2.48 2.48 0 0 0-.33-1.24 1.48 1.48 0 0 1 2.21.66c.08.18.12.37.12.58V6h-1v3a3 3 0 0 1 3 2.88l1-1V7a1 1 0 0 0-1-1h-1V4.5a2.48 2.48 0 0 0-4-2A2.54 2.54 0 0 0 8.5 2a2.42 2.42 0 0 0-1.77.73A2.43 2.43 0 0 0 6 4.5Zm4 0V6H7V4.5a1.48 1.48 0 0 1 .91-1.38 1.48 1.48 0 0 1 1.97.8c.08.18.12.37.12.58Zm2 9.5a2 2 0 1 0 0-4 2 2 0 0 0 0 4Zm0-3a1 1 0 1 1 0 2 1 1 0 0 1 0-2Zm5 8a2 2 0 1 0 0-4 2 2 0 0 0 0 4Zm0-3a1 1 0 1 1 0 2 1 1 0 0 1 0-2Zm.85-4.15a.5.5 0 0 0-.7-.7l-6 6a.5.5 0 0 0 .7.7l6-6Z"/></svg>