<svg width="20" height="20" viewBox="0 0 20 20" xmlns="http://www.w3.org/2000/svg"><path d="M10 4c2.82 0 4.41 1.92 4.65 4.25h.07c1.24 0 2.32.7 2.88 1.75h-1.21a2.24 2.24 0 0 0-1.67-.75h-.07a1 1 0 0 1-1-.9C13.45 6.32 12.11 5 10 5S6.55 6.32 6.35 8.35a1 1 0 0 1-1 .9h-.07A2.33 2.33 0 0 0 3 11.62 2.33 2.33 0 0 0 5.28 14H9v1H5.28A3.33 3.33 0 0 1 2 11.62c0-1.8 1.37-3.27 3.1-3.37h.25C5.6 5.9 7.18 4 10 4Zm0 8a1 1 0 0 1 1-1h7a1 1 0 0 1 1 1v4a1 1 0 0 1-1 1h-2v1h.5a.5.5 0 0 1 0 1h-4a.5.5 0 0 1 0-1h.5v-1h-2a1 1 0 0 1-1-1v-4Z"/></svg>