<svg width="24" height="24" viewBox="0 0 24 24" xmlns="http://www.w3.org/2000/svg"><path d="M3 6.25C3 4.45 4.46 3 6.25 3H10a1 1 0 1 1 0 2H6.25C5.56 5 5 5.56 5 6.25V10a1 1 0 1 1-2 0V6.25ZM13 4a1 1 0 0 1 1-1h3.75C19.55 3 21 4.46 21 6.25V10a1 1 0 1 1-2 0V6.25C19 5.56 18.44 5 17.75 5H14a1 1 0 0 1-1-1Zm-9 9a1 1 0 0 1 1 1v3.59l4.53-4.53a3.5 3.5 0 0 1 4.94 0L19 17.6V14a1 1 0 1 1 2 0v3.75c0 1.8-1.46 3.25-3.25 3.25H14a1 1 0 1 1 0-2h3.59l-4.53-4.53a1.5 1.5 0 0 0-2.12 0L6.4 19H10a1 1 0 1 1 0 2H6.25A3.25 3.25 0 0 1 3 17.75V14a1 1 0 0 1 1-1Zm13.5-4.25a2.25 2.25 0 1 1-4.5 0 2.25 2.25 0 0 1 4.5 0Z"/></svg>