<svg width="20" height="20" viewBox="0 0 20 20" xmlns="http://www.w3.org/2000/svg"><path d="M6 4a1 1 0 0 0-1 1v2a1 1 0 0 0 1 1h6a1 1 0 0 0 1-1V5a1 1 0 0 0-1-1H6Zm0 1h6v2H6V5Zm2 5a1 1 0 1 1 2 0 1 1 0 0 1-2 0Zm1 1.75a1 1 0 1 0 0 2 1 1 0 0 0 0-2ZM11 10a1 1 0 1 1 2 0 1 1 0 0 1-2 0Zm1 1.75a1 1 0 1 0 0 2 1 1 0 0 0 0-2ZM5 10a1 1 0 1 1 2 0 1 1 0 0 1-2 0Zm1 1.75a1 1 0 1 0 0 2 1 1 0 0 0 0-2ZM5.5 2A2.5 2.5 0 0 0 3 4.5v9A2.5 2.5 0 0 0 5.5 16h7a2.5 2.5 0 0 0 2.5-2.5v-9A2.5 2.5 0 0 0 12.5 2h-7ZM4 4.5C4 3.67 4.67 3 5.5 3h7c.83 0 1.5.67 1.5 1.5v9c0 .83-.67 1.5-1.5 1.5h-7A1.5 1.5 0 0 1 4 13.5v-9ZM7.5 18a2.5 2.5 0 0 1-2-1h7a3.5 3.5 0 0 0 3.5-3.5v-9c.6.46 1 1.18 1 2v7a4.5 4.5 0 0 1-4.5 4.5h-5Z"/></svg>