<svg width="20" height="20" viewBox="0 0 20 20" xmlns="http://www.w3.org/2000/svg"><path d="M12 5.5a.5.5 0 00-.5-.5h-3a.5.5 0 000 1h3a.5.5 0 00.5-.5zm5 0a.5.5 0 00-.5-.5h-3a.5.5 0 000 1h3a.5.5 0 00.5-.5zm-10 0a.5.5 0 00-.5-.5h-3a.5.5 0 000 1h3a.5.5 0 00.5-.5zm5 3a.5.5 0 00-.5-.5h-3a.5.5 0 000 1h3a.5.5 0 00.5-.5zm5 0a.5.5 0 00-.5-.5h-3a.5.5 0 000 1h3a.5.5 0 00.5-.5zm-10 0a.5.5 0 00-.5-.5h-3a.5.5 0 000 1h3a.5.5 0 00.5-.5zm5 3a.5.5 0 00-.5-.5h-3a.5.5 0 000 1h3a.5.5 0 00.5-.5zm5 0a.5.5 0 00-.5-.5h-3a.5.5 0 000 1h3a.5.5 0 00.5-.5zm-10 0a.5.5 0 00-.5-.5h-3a.5.5 0 000 1h3a.5.5 0 00.5-.5zm5 3a.5.5 0 00-.5-.5h-3a.5.5 0 000 1h3a.5.5 0 00.5-.5zm5 0a.5.5 0 00-.5-.5h-3a.5.5 0 000 1h3a.5.5 0 00.5-.5zm-10 0a.5.5 0 00-.5-.5h-3a.5.5 0 000 1h3a.5.5 0 00.5-.5z"/></svg>