<svg width="24" height="24" viewBox="0 0 24 24" xmlns="http://www.w3.org/2000/svg"><path d="M3 5.75c0-.41.34-.75.75-.75h3.5a.75.75 0 010 1.5h-3.5A.75.75 0 013 5.75zm6.5 0c0-.41.34-.75.75-.75h3.5a.75.75 0 010 1.5h-3.5a.75.75 0 01-.75-.75zm6.5 0c0-.41.34-.75.75-.75h3.5a.75.75 0 010 1.5h-3.5a.75.75 0 01-.75-.75zm-13 4c0-.41.34-.75.75-.75h3.5a.75.75 0 010 1.5h-3.5A.75.75 0 013 9.75zm6.5 0c0-.41.34-.75.75-.75h3.5a.75.75 0 010 1.5h-3.5a.75.75 0 01-.75-.75zm6.5 0c0-.41.34-.75.75-.75h3.5a.75.75 0 010 1.5h-3.5a.75.75 0 01-.75-.75zm-13 4c0-.41.34-.75.75-.75h3.5a.75.75 0 010 1.5h-3.5a.75.75 0 01-.75-.75zm6.5 0c0-.41.34-.75.75-.75h3.5a.75.75 0 010 1.5h-3.5a.75.75 0 01-.75-.75zm6.5 0c0-.41.34-.75.75-.75h3.5a.75.75 0 010 1.5h-3.5a.75.75 0 01-.75-.75zm-13 4c0-.41.34-.75.75-.75h3.5a.75.75 0 010 1.5h-3.5a.75.75 0 01-.75-.75zm6.5 0c0-.41.34-.75.75-.75h3.5a.75.75 0 010 1.5h-3.5a.75.75 0 01-.75-.75zm6.5 0c0-.41.34-.75.75-.75h3.5a.75.75 0 010 1.5h-3.5a.75.75 0 01-.75-.75z"/></svg>