<svg width="20" height="20" viewBox="0 0 20 20" xmlns="http://www.w3.org/2000/svg"><path d="M12 5.75a.75.75 0 0 0-.75-.75h-2.5a.75.75 0 0 0 0 1.5h2.5c.41 0 .75-.34.75-.75Zm5 0a.75.75 0 0 0-.75-.75h-2.5a.75.75 0 0 0 0 1.5h2.5c.41 0 .75-.34.75-.75Zm-10 0A.75.75 0 0 0 6.25 5h-2.5a.75.75 0 0 0 0 1.5h2.5c.41 0 .75-.34.75-.75Zm5 3a.75.75 0 0 0-.75-.75h-2.5a.75.75 0 0 0 0 1.5h2.5c.41 0 .75-.34.75-.75Zm5 0a.75.75 0 0 0-.75-.75h-2.5a.75.75 0 0 0 0 1.5h2.5c.41 0 .75-.34.75-.75Zm-10 0A.75.75 0 0 0 6.25 8h-2.5a.75.75 0 0 0 0 1.5h2.5c.41 0 .75-.34.75-.75Zm5 3a.75.75 0 0 0-.75-.75h-2.5a.75.75 0 0 0 0 1.5h2.5c.41 0 .75-.34.75-.75Zm5 0a.75.75 0 0 0-.75-.75h-2.5a.75.75 0 0 0 0 1.5h2.5c.41 0 .75-.34.75-.75Zm-10 0a.75.75 0 0 0-.75-.75h-2.5a.75.75 0 0 0 0 1.5h2.5c.41 0 .75-.34.75-.75Zm5 3a.75.75 0 0 0-.75-.75h-2.5a.75.75 0 0 0 0 1.5h2.5c.41 0 .75-.34.75-.75Zm5 0a.75.75 0 0 0-.75-.75h-2.5a.75.75 0 0 0 0 1.5h2.5c.41 0 .75-.34.75-.75Zm-10 0a.75.75 0 0 0-.75-.75h-2.5a.75.75 0 0 0 0 1.5h2.5c.41 0 .75-.34.75-.75Z"/></svg>