<svg width="24" height="24" viewBox="0 0 24 24" xmlns="http://www.w3.org/2000/svg"><path d="M3 6a1 1 0 011-1h3a1 1 0 010 2H4a1 1 0 01-1-1zm6.58 0a1 1 0 011-1h3a1 1 0 110 2h-3a1 1 0 01-1-1zM16 6a1 1 0 011-1h3a1 1 0 110 2h-3a1 1 0 01-1-1zM3 10a1 1 0 011-1h3a1 1 0 010 2H4a1 1 0 01-1-1zm6.58 0a1 1 0 011-1h3a1 1 0 110 2h-3a1 1 0 01-1-1zM16 10a1 1 0 011-1h3a1 1 0 110 2h-3a1 1 0 01-1-1zM3 14a1 1 0 011-1h3a1 1 0 110 2H4a1 1 0 01-1-1zm6.58 0a1 1 0 011-1h3a1 1 0 110 2h-3a1 1 0 01-1-1zM16 14a1 1 0 011-1h3a1 1 0 110 2h-3a1 1 0 01-1-1zM3 18a1 1 0 011-1h3a1 1 0 110 2H4a1 1 0 01-1-1zm6.58 0a1 1 0 011-1h3a1 1 0 110 2h-3a1 1 0 01-1-1zM16 18a1 1 0 011-1h3a1 1 0 110 2h-3a1 1 0 01-1-1z"/></svg>