<svg width="24" height="24" viewBox="0 0 24 24" xmlns="http://www.w3.org/2000/svg"><path d="M11 17.5c0-1.29.38-2.49 1.02-3.5H5.25C4.01 14 3 15 3 16.25v.92c0 .57.18 1.13.51 1.6C5.06 20.92 7.58 22 11 22c.6 0 1.17-.03 1.72-.1A6.48 6.48 0 0111 17.5zM11 2a5 5 0 110 10 5 5 0 010-10zm12 15.5a5.5 5.5 0 11-11 0 5.5 5.5 0 0111 0zm-4.94-3.08a.58.58 0 00-1.12 0l-.55 1.79h-1.8c-.57 0-.8.75-.35 1.1l1.46 1.1-.56 1.79c-.17.56.44 1.03.9.68l1.46-1.1 1.46 1.1c.46.35 1.07-.12.9-.68l-.56-1.79 1.46-1.1c.46-.35.22-1.1-.35-1.1h-1.8l-.55-1.79z"/></svg>