<svg width="24" height="24" viewBox="0 0 24 24" xmlns="http://www.w3.org/2000/svg"><path d="M11.31 15.5c.18-.53.42-1.04.71-1.5H5.25C4.01 14 3 15 3 16.25v.58c0 .89.32 1.75.9 2.43C5.47 21.1 7.85 22 11 22c.6 0 1.17-.03 1.72-.1-.4-.42-.73-.9-1-1.42l-.72.02c-2.74 0-4.7-.75-5.96-2.21-.34-.41-.54-.93-.54-1.46v-.58c0-.42.34-.75.75-.75h6.06zM11 2a5 5 0 110 10 5 5 0 010-10zm0 1.5a3.5 3.5 0 100 7 3.5 3.5 0 000-7zm12 14a5.5 5.5 0 11-11 0 5.5 5.5 0 0111 0zm-4.94-3.08a.58.58 0 00-1.12 0l-.55 1.79h-1.8c-.57 0-.8.75-.35 1.1l1.46 1.1-.56 1.79c-.17.56.44 1.03.9.68l1.46-1.1 1.46 1.1c.46.35 1.07-.12.9-.68l-.56-1.79 1.46-1.1c.46-.35.22-1.1-.35-1.1h-1.8l-.55-1.79z"/></svg>