<svg width="28" height="28" viewBox="0 0 28 28" xmlns="http://www.w3.org/2000/svg"><path d="M13 20.5c0 2.1.86 4 2.25 5.36-.72.1-1.47.14-2.25.14-5.79 0-10-2.57-10-6.29V19a3 3 0 013-3h8.5a7.47 7.47 0 00-1.5 4.5zM13 2a6 6 0 110 12 6 6 0 010-12zm14 18.5a6.5 6.5 0 11-13 0 6.5 6.5 0 0113 0zm-5.79-3.96a.74.74 0 00-1.42 0l-.72 2.3h-2.32c-.73 0-1.03.97-.44 1.41l1.88 1.42-.72 2.3c-.23.72.57 1.32 1.16.88l1.87-1.42 1.88 1.42c.58.44 1.38-.16 1.15-.88l-.72-2.3 1.88-1.42c.59-.44.29-1.41-.44-1.41h-2.32l-.72-2.3z"/></svg>