<svg width="32" height="32" viewBox="0 0 32 32" xmlns="http://www.w3.org/2000/svg"><path d="M22 9A7 7 0 118 9a7 7 0 0114 0zm-2 0a5 5 0 10-10 0 5 5 0 0010 0zM6.5 18A3.5 3.5 0 003 21.5v.5c0 2.4 1.52 4.42 3.68 5.8A15.67 15.67 0 0015 30c.74 0 1.47-.04 2.19-.13a9.05 9.05 0 01-1.68-1.88L15 28c-2.88 0-5.43-.74-7.24-1.9C5.94 24.96 5 23.48 5 22v-.5c0-.83.67-1.5 1.5-1.5h8.01c.25-.71.6-1.38 1-2H6.5zm24 5a7.5 7.5 0 11-15 0 7.5 7.5 0 0115 0zm-8.21-4.86l-.94 2.83h-3a.75.75 0 00-.43 1.36l2.4 1.7-.92 2.8a.75.75 0 001.14.84L23 25.93l2.46 1.74a.75.75 0 001.14-.84l-.93-2.8 2.41-1.7a.75.75 0 00-.43-1.36h-3l-.94-2.83a.75.75 0 00-1.42 0z"/></svg>