<svg width="48" height="48" viewBox="0 0 48 48" xmlns="http://www.w3.org/2000/svg"><path d="M24 4a10 10 0 100 20 10 10 0 000-20zm-7.5 10a7.5 7.5 0 1115 0 7.5 7.5 0 01-15 0zm-4.25 14A4.25 4.25 0 008 32.25V33c0 3.76 1.94 6.57 4.92 8.38C15.85 43.16 19.79 44 24 44c.53 0 1.06-.01 1.58-.04-.7-.74-1.33-1.57-1.84-2.46-3.82-.04-7.16-.82-9.52-2.26-2.36-1.43-3.72-3.5-3.72-6.24v-.75c0-.97.78-1.75 1.75-1.75H22.8c.33-.88.74-1.72 1.24-2.5H12.25zM46 35a11 11 0 11-22 0 11 11 0 0122 0zm-9.81-6.6c-.37-1.2-2-1.2-2.38 0l-1.2 3.83h-3.86c-1.2 0-1.71 1.62-.73 2.36l3.12 2.37-1.2 3.83c-.37 1.2.95 2.2 1.94 1.45L35 39.88l3.12 2.36c.99.75 2.3-.25 1.93-1.45l-1.2-3.83 3.13-2.37c.98-.74.48-2.36-.73-2.36h-3.87L36.2 28.4z"/></svg>