<svg width="20" height="20" viewBox="0 0 20 20" xmlns="http://www.w3.org/2000/svg"><path d="M9 2a4 4 0 100 8 4 4 0 000-8zM6 6a3 3 0 116 0 3 3 0 01-6 0zm-2 5a2 2 0 00-2 2c0 1.7.83 2.97 2.13 3.8A9.14 9.14 0 009 18c.41 0 .82-.02 1.21-.06A5.5 5.5 0 019.6 17 12 12 0 019 17a8.16 8.16 0 01-4.33-1.05A3.36 3.36 0 013 13a1 1 0 011-1h5.6c.18-.36.4-.7.66-1H4zm15 3.5a4.5 4.5 0 11-9 0 4.5 4.5 0 019 0zm-4.02-2.64a.5.5 0 00-.96 0l-.47 1.53H12c-.48 0-.69.65-.3.95l1.26.94-.48 1.53c-.15.49.38.89.77.59l1.25-.95 1.25.95c.4.3.92-.1.77-.59l-.48-1.53 1.25-.94c.4-.3.2-.95-.3-.95h-1.54l-.47-1.53z"/></svg>