<svg width="20" height="20" viewBox="0 0 20 20" xmlns="http://www.w3.org/2000/svg"><path d="M12 5a1 1 0 1 0 0-2 1 1 0 0 0 0 2Zm-2-1H7a2 2 0 0 1-1.77 1.99l-.47 4.16A2 2 0 0 1 6 12h5a2 2 0 0 1 1.24-1.85L11.77 6A2 2 0 0 1 10 4Zm1.27 9H5.73a2 2 0 1 1-1.96-2.99l.47-4.16A2 2 0 1 1 6.74 3h3.53a2 2 0 1 1 2.5 2.85l.46 4.16A2 2 0 1 1 11.27 13ZM3 12a1 1 0 1 0 2 0 1 1 0 0 0-2 0Zm2-9a1 1 0 1 0 0 2 1 1 0 0 0 0-2Zm7 9a1 1 0 1 0 2 0 1 1 0 0 0-2 0Zm1.97-4.4A4.5 4.5 0 1 1 9.65 15h.85a.5.5 0 0 0 0-1h-2a.5.5 0 0 0-.5.5v2a.5.5 0 0 0 1 0v-.72A5.48 5.48 0 0 0 18.5 12a5.5 5.5 0 0 0-4.65-5.43l.12 1.03Z"/></svg>