<svg width="28" height="28" viewBox="0 0 28 28" xmlns="http://www.w3.org/2000/svg"><path d="M5.19 2c-1.2 0-2.2.95-2.25 2.15l-.87 19.5A2.25 2.25 0 004.32 26h3.86c1.28 0 2.3-1.07 2.25-2.35l-.87-19.5A2.25 2.25 0 007.32 2H5.19zm-.75 2.22c.01-.4.34-.72.75-.72h2.13c.4 0 .73.32.74.72l.87 19.5a.75.75 0 01-.75.78H4.32a.75.75 0 01-.75-.78l.87-19.5zM10.53 26c.4-.41.68-.93.82-1.5H13v-6.75c0-.69.56-1.25 1.25-1.25h7c.7 0 1.25.56 1.25 1.25v6.75h.75c.7 0 1.25-.56 1.25-1.25V8.45l-6.75 6.1A.75.75 0 0116.5 14V8.44l-5.52 5-.09-1.94 5.86-5.3a.75.75 0 011.25.55v5.56l6.75-6.12a.75.75 0 011.25.56v16.5A2.75 2.75 0 0123.25 26H10.53zm3.97-1.5H21V18h-6.5v6.5z"/></svg>