<svg width="16" height="16" viewBox="0 0 16 16" xmlns="http://www.w3.org/2000/svg"><path d="M1.46 2.44c.03-.8.7-1.44 1.5-1.44h1.08c.8 0 1.47.64 1.5 1.44l.42 11A1.5 1.5 0 014.46 15H2.54a1.5 1.5 0 01-1.5-1.56l.42-11zM2.96 2a.5.5 0 00-.5.48l-.42 11a.5.5 0 00.5.52h1.92a.5.5 0 00.5-.52l-.42-11a.5.5 0 00-.5-.48H2.96zM13.5 15c.83 0 1.5-.67 1.5-1.5v-9a.5.5 0 00-.85-.35L11 7.29V4.5a.5.5 0 00-.83-.37L6.72 7.19l.05 1.3L10 5.6V8.5a.5.5 0 00.85.35L14 5.71v7.79a.5.5 0 01-.5.5H13v-3a1 1 0 00-1-1H9a1 1 0 00-1 1v3H6.91c-.07.37-.23.7-.45 1h7.04zM9 14v-3h3v3H9z"/></svg>