<svg width="32" height="32" viewBox="0 0 32 32" xmlns="http://www.w3.org/2000/svg"><path d="M5.82 2a3 3 0 00-3 2.9l-.75 22a3 3 0 003 3.1h3.86a3 3 0 003-3.1l-.75-22a3 3 0 00-3-2.9H5.82zm-1 2.97a1 1 0 011-.97h2.36a1 1 0 011 .97l.75 22a1 1 0 01-1 1.03H5.07a1 1 0 01-1-1.03l.75-22zM11.58 30H26.5a3.5 3.5 0 003.5-3.5V7a1 1 0 00-1.7-.7L21 13.58V7a1 1 0 00-1.7-.7l-6.84 6.83.1 2.73L19 9.41V16a1 1 0 001.7.7L28 9.42V26.5c0 .83-.67 1.5-1.5 1.5H26v-7.5c0-.83-.67-1.5-1.5-1.5h-8c-.83 0-1.5.67-1.5 1.5V28h-2.2a4 4 0 01-1.22 2zM17 28v-7h7v7h-7z"/></svg>