<svg width="24" height="24" viewBox="0 0 24 24" xmlns="http://www.w3.org/2000/svg"><path d="M16.61 8.79l.1-.08 1.79-1.8 1.8 1.8a1 1 0 001.31.08l.1-.08a1 1 0 00.08-1.32l-.08-.1-1.8-1.79 1.8-1.8a1 1 0 00.08-1.31l-.08-.1a1 1 0 00-1.32-.08l-.1.08-1.79 1.8-1.8-1.8a1 1 0 00-1.31-.08l-.1.08a1 1 0 00-.08 1.32l.08.1 1.8 1.79-1.8 1.8a1 1 0 00-.08 1.31l.08.1a1 1 0 001.22.15l.1-.07zM18.5 21a2.5 2.5 0 002.5-2.5v-5a2.5 2.5 0 00-2.5-2.5H13V5.5A2.5 2.5 0 0010.5 3h-5A2.5 2.5 0 003 5.5v13A2.5 2.5 0 005.5 21h13zM5 11V5.5c0-.28.22-.5.5-.5h5c.28 0 .5.22.5.5V11H5zm6 8H5.5a.5.5 0 01-.5-.5V13h6v6zm7.5 0H13v-6h5.5c.28 0 .5.22.5.5v5a.5.5 0 01-.5.5z"/></svg>