<svg width="20" height="20" viewBox="0 0 20 20" xmlns="http://www.w3.org/2000/svg"><path d="M4.5 3C3.67 3 3 3.67 3 4.5v11c0 .83.67 1.5 1.5 1.5H9c.83 0 1.5-.67 1.5-1.5v-5h5c.83 0 1.5-.67 1.5-1.5V4.5c0-.83-.67-1.5-1.5-1.5h-11zm11 6.5h-5V4h5c.28 0 .5.22.5.5V9a.5.5 0 01-.5.5zm-6 0H4v-5c0-.28.22-.5.5-.5h5v5.5zm0 1v5a.5.5 0 01-.5.5H4.5a.5.5 0 01-.5-.5v-5h5.5zm4.35 2.65a.5.5 0 00-.7.7l1.64 1.65-1.64 1.65a.5.5 0 00.7.7l1.65-1.64 1.65 1.64a.5.5 0 00.7-.7l-1.64-1.65 1.64-1.65a.5.5 0 00-.7-.7l-1.65 1.64-1.65-1.64z"/></svg>