<svg width="20" height="20" viewBox="0 0 20 20" xmlns="http://www.w3.org/2000/svg"><path d="M4.5 3C3.67 3 3 3.67 3 4.5v11c0 .83.67 1.5 1.5 1.5h4.75c.83 0 1.5-.67 1.5-1.5v-4.75h4.75c.83 0 1.5-.67 1.5-1.5V4.5c0-.83-.67-1.5-1.5-1.5h-11zm11 6.25h-4.75V4.5h4.75v4.75zm-6.25 0H4.5V4.5h4.75v4.75zm0 1.5v4.75H4.5v-4.75h4.75zm5.03 2.47a.75.75 0 10-1.06 1.06l1.22 1.22-1.22 1.22a.75.75 0 101.06 1.06l1.22-1.22 1.22 1.22a.75.75 0 101.06-1.06l-1.22-1.22 1.22-1.22a.75.75 0 10-1.06-1.06l-1.22 1.22-1.22-1.22z"/></svg>