<svg width="20" height="20" viewBox="0 0 20 20" xmlns="http://www.w3.org/2000/svg"><path d="M4.5 17A1.5 1.5 0 0 1 3 15.5v-11C3 3.67 3.67 3 4.5 3h4.75c.83 0 1.5.67 1.5 1.5v4.75h4.75c.83 0 1.5.67 1.5 1.5v4.75c0 .83-.67 1.5-1.5 1.5h-11Zm11-6.25h-4.75v4.75h4.75v-4.75Zm-6.25 0H4.5v4.75h4.75v-4.75Zm0-1.5V4.5H4.5v4.75h4.75Zm5.03-2.47a.75.75 0 1 1-1.06-1.06l1.22-1.22-1.22-1.22a.75.75 0 0 1 1.06-1.06l1.22 1.22 1.22-1.22a.75.75 0 1 1 1.06 1.06L16.56 4.5l1.22 1.22a.75.75 0 0 1-1.06 1.06L15.5 5.56l-1.22 1.22Z"/></svg>