<svg width="24" height="24" viewBox="0 0 24 24" xmlns="http://www.w3.org/2000/svg"><path d="M21.7 8.85l.08-.07a.75.75 0 00.07-.98l-.07-.08-2.22-2.22 2.22-2.22a.75.75 0 00.07-.97l-.07-.09a.75.75 0 00-.98-.07l-.08.07-2.22 2.22-2.22-2.22a.75.75 0 00-.98-.07l-.08.07a.75.75 0 00-.07.98l.07.08 2.22 2.22-2.22 2.22a.75.75 0 00-.07.98l.07.08c.27.27.68.3.98.07l.08-.07 2.22-2.22 2.22 2.22c.26.27.68.3.97.07zM18.74 21c1.24 0 2.25-1 2.25-2.25V13.5c0-1.24-1-2.25-2.25-2.25h-6v-6c0-1.24-1-2.25-2.25-2.25H5.25C4.01 3 3 4 3 5.25v13.5C3 19.99 4 21 5.25 21h13.5zm-7.5-9.75H4.5v-6c0-.41.34-.75.75-.75h5.25c.41 0 .75.34.75.75v6zm7.5 8.25h-6v-6.75h6c.41 0 .75.34.75.75v5.25c0 .41-.34.75-.75.75zm-7.5 0h-6a.75.75 0 01-.75-.75v-6h6.75v6.75z"/></svg>