<svg width="16" height="16" viewBox="0 0 16 16" xmlns="http://www.w3.org/2000/svg"><path d="M6 4a2 2 0 1 1 4 0 2 2 0 0 1-4 0Zm2-1a1 1 0 1 0 0 2 1 1 0 0 0 0-2Zm3 1.5a1.5 1.5 0 1 1 3 0 1.5 1.5 0 0 1-3 0Zm1.5-.5a.5.5 0 1 0 0 1 .5.5 0 0 0 0-1Zm-9-1a1.5 1.5 0 1 0 0 3 1.5 1.5 0 0 0 0-3ZM3 4.5a.5.5 0 1 1 1 0 .5.5 0 0 1-1 0ZM4.27 7A2 2 0 0 0 4 8H2v2.5a1.5 1.5 0 0 0 2.1 1.38c.07.33.19.64.34.94A2.5 2.5 0 0 1 1 10.5V8a1 1 0 0 1 1-1h2.27Zm7.3 5.82A2.5 2.5 0 0 0 15 10.5V8a1 1 0 0 0-1-1h-2.27A2 2 0 0 1 12 8h2v2.5a1.5 1.5 0 0 1-2.1 1.38c-.07.33-.19.64-.34.94ZM6 7a1 1 0 0 0-1 1v3a3 3 0 0 0 6 0V8a1 1 0 0 0-1-1H6Zm0 1h4v3a2 2 0 0 1-4 0V8Z"/></svg>