<svg width="16" height="16" viewBox="0 0 16 16" xmlns="http://www.w3.org/2000/svg"><path d="M6 4a2 2 0 114 0 2 2 0 01-4 0zm2-1a1 1 0 100 2 1 1 0 000-2zm3 1.5a1.5 1.5 0 113 0 1.5 1.5 0 01-3 0zm1.5-.5a.5.5 0 100 1 .5.5 0 000-1zm-9-1a1.5 1.5 0 100 3 1.5 1.5 0 000-3zM3 4.5a.5.5 0 111 0 .5.5 0 01-1 0zM4.27 7A2 2 0 004 8H2v2.5a1.5 1.5 0 002.1 1.38c.07.33.19.64.34.94A2.5 2.5 0 011 10.5V8a1 1 0 011-1h2.27zm7.3 5.82A2.5 2.5 0 0015 10.5V8a1 1 0 00-1-1h-2.27A2 2 0 0112 8h2v2.5a1.5 1.5 0 01-2.1 1.38c-.07.33-.19.64-.34.94zM6 7a1 1 0 00-1 1v3a3 3 0 006 0V8a1 1 0 00-1-1H6zm0 1h4v3a2 2 0 01-4 0V8z"/></svg>