<svg width="28" height="28" viewBox="0 0 28 28" xmlns="http://www.w3.org/2000/svg"><path d="M17.75 11c.97 0 1.75.78 1.75 1.75v6.75a5.5 5.5 0 0 1-11 0v-6.75c0-.97.79-1.75 1.75-1.75h7.5Zm-14 0h4.38c-.35.42-.57.95-.62 1.53v6.97c0 1.13.28 2.2.8 3.13A4.49 4.49 0 0 1 2 18.5v-5.75c0-.97.78-1.75 1.75-1.75Zm16.12 0h4.38c.97 0 1.75.78 1.75 1.75v5.75a4.5 4.5 0 0 1-6.3 4.13l.06-.1c.43-.82.69-1.73.74-2.7v-7.08c0-.67-.23-1.28-.63-1.75ZM14 3a3.5 3.5 0 1 1 0 7 3.5 3.5 0 0 1 0-7Zm8 1a3 3 0 1 1 0 6 3 3 0 0 1 0-6ZM6 4a3 3 0 1 1 0 6 3 3 0 0 1 0-6Z"/></svg>