<svg width="24" height="24" viewBox="0 0 24 24" xmlns="http://www.w3.org/2000/svg"><path d="M20.25 4a.75.75 0 0 1 0 1.5H3.75a.75.75 0 0 1 0-1.5h16.5Zm-9.5 3.5a.75.75 0 0 1 0 1.5h-7a.75.75 0 1 1 0-1.5h7Zm.75 7.75a.75.75 0 0 0-.75-.75h-7a.75.75 0 0 0 0 1.5h7c.41 0 .75-.34.75-.75ZM10.75 11a.75.75 0 0 1 0 1.5h-7a.75.75 0 0 1 0-1.5h7ZM21 18.75a.75.75 0 0 0-.75-.75H3.75a.75.75 0 0 0 0 1.5h16.5c.41 0 .75-.34.75-.75ZM19.5 11a2.5 2.5 0 0 0-5 0v4.75a.75.75 0 0 1-1.5 0V11a4 4 0 0 1 8 0v4.75a.75.75 0 0 1-1.5 0V11Z"/></svg>