<svg width="28" height="28" viewBox="0 0 28 28" xmlns="http://www.w3.org/2000/svg"><path d="M14.3 2.1c.24-.6.94-1.23 1.82-.98 1.78.5 2.46 2.38 2.64 4.15.16 1.51 0 3.23-.35 4.73h2.17a3.75 3.75 0 0 1 3.68 4.5l-1.23 6.04a6.75 6.75 0 0 1-8.47 5.15l-7.7-2.2A3.75 3.75 0 0 1 4.2 20.5L3.78 18a2.96 2.96 0 0 1 1.65-3.08c4.78-2.42 6.6-7.06 8.61-12.16l.26-.66Zm1.44.5a.24.24 0 0 0-.04.06l-.32.8c-1.94 4.95-3.97 10.12-9.27 12.8-.61.3-.94.93-.85 1.5l.42 2.5c.14.85.77 1.55 1.6 1.79l7.69 2.2c2.94.84 5.98-1 6.59-4l1.23-6.05c.28-1.4-.79-2.7-2.2-2.7h-3.15a.75.75 0 0 1-.72-.97c.47-1.54.72-3.49.55-5.1-.18-1.68-.74-2.62-1.51-2.86l-.02.02Z"/></svg>