<svg width="20" height="20" viewBox="0 0 20 20" xmlns="http://www.w3.org/2000/svg"><path d="M12.5 2A2.5 2.5 0 0 0 10 4.5v3a2.5 2.5 0 0 0 5 0v-3A2.5 2.5 0 0 0 12.5 2Zm0 7A1.5 1.5 0 0 1 11 7.5v-3a1.5 1.5 0 0 1 3 0v3c0 .83-.67 1.5-1.5 1.5Zm-9 3a.5.5 0 0 0-.5.5v5a.5.5 0 0 0 1 0V16h1.5a.5.5 0 0 0 0-1H4v-2h2.5a.5.5 0 0 0 0-1h-3Zm5 0a.5.5 0 0 0-.5.5v5a.5.5 0 0 0 1 0V16h1a2 2 0 1 0 0-4H8.5Zm1.5 3H9v-2h1a1 1 0 1 1 0 2Zm3-1.25c0-.97.78-1.75 1.75-1.75h.76c.82 0 1.49.67 1.49 1.49v.01a.5.5 0 0 1-1 0v-.01a.49.49 0 0 0-.49-.49h-.76a.75.75 0 0 0 0 1.5h.5a1.75 1.75 0 1 1 0 3.5h-.76c-.82 0-1.49-.67-1.49-1.49v-.01a.5.5 0 0 1 1 0v.01c0 .27.22.49.49.49h.76a.75.75 0 0 0 0-1.5h-.5c-.97 0-1.75-.78-1.75-1.75ZM6.75 3h-.5c-.49 0-.91.28-1.12.69-.08.17-.24.31-.44.31-.36 0-.65-.32-.5-.65A2.25 2.25 0 0 1 6.25 2h.5a2.25 2.25 0 0 1 1.41 4 2.25 2.25 0 0 1-1.41 4h-.5c-.92 0-1.71-.55-2.06-1.35-.15-.33.14-.65.5-.65.2 0 .36.14.44.31.2.41.63.69 1.12.69h.5a1.25 1.25 0 0 0 0-2.5H6.5a.5.5 0 0 1 0-1h.25a1.25 1.25 0 0 0 0-2.5Z"/></svg>