<svg width="24" height="24" viewBox="0 0 24 24" xmlns="http://www.w3.org/2000/svg"><path d="M18.68 2.4c.2-.37.65-.5 1.01-.3a4.9 4.9 0 0 1 1.72 6.49.75.75 0 0 1-1.33-.7l.05-.09a3.4 3.4 0 0 0-1.16-4.39.75.75 0 0 1-.3-1.02Zm-4 12.88a.75.75 0 0 0-.91-.53l-1.93.52-.1.03a.75.75 0 0 0 .49 1.42l1.93-.52.1-.04a.75.75 0 0 0 .43-.88Zm.42-9.62a2.25 2.25 0 0 0-2.76-1.59L7.74 5.3a2.25 2.25 0 0 0-1.58 2.76L8.9 18.34a2.25 2.25 0 0 0 2.76 1.6l4.6-1.23a2.25 2.25 0 0 0 1.58-2.76L15.1 5.66Zm-2.37-.14c.4-.1.8.13.92.53l2.75 10.29c.11.4-.13.81-.53.92l-4.6 1.23a.75.75 0 0 1-.91-.53L7.6 7.67c-.1-.4.14-.81.54-.92l4.59-1.23Zm5.82-1.22a.75.75 0 1 0-.9 1.2l.02.02.16.18c.08.1.14.21.17.31a1.07 1.07 0 0 1-.04.58l-.05.14a.75.75 0 0 0 1.42.49l.05-.13.05-.18c.1-.41.13-.85.01-1.29a2.6 2.6 0 0 0-.9-1.32ZM2.54 15.41a.75.75 0 0 1 1.34.66l-.1.2-.1.28a3.54 3.54 0 0 0 .6 3.36c.26.32.51.54.68.65l.07.04a.75.75 0 1 1-.75 1.3 5.04 5.04 0 0 1-1.74-6.49Zm3.11.94a.75.75 0 0 0-.98.4 1.8 1.8 0 0 0-.04.14l-.06.17a2.42 2.42 0 0 0 .4 2.11c.18.23.35.4.48.5a.75.75 0 0 0 .92-1.2l-.04-.02c-.04-.04-.1-.1-.15-.18a.95.95 0 0 1-.17-.31 1.07 1.07 0 0 1 .03-.58l.05-.15a.75.75 0 0 0-.44-.88Z"/></svg>