<svg width="20" height="20" viewBox="0 0 20 20" xmlns="http://www.w3.org/2000/svg"><path d="M10.62 2.21a1 1 0 0 0-1.24 0l-3.3 2.61A1.5 1.5 0 0 0 6 7.14l-1.46 1.2a1.5 1.5 0 0 0 .51 2.6l-1.59 1.48A1.49 1.49 0 0 0 4.5 15H8v1.75c0 .69.57 1.25 1.26 1.25h1.5c.69 0 1.25-.56 1.25-1.25V15h3.5c1.35 0 2-1.66 1.02-2.58l-1.59-1.48a1.5 1.5 0 0 0 .52-2.6l-1.47-1.2a1.5 1.5 0 0 0-.05-2.32l-3.31-2.6ZM11 15v1.75c0 .14-.11.25-.25.25h-1.5a.25.25 0 0 1-.25-.25V15h2ZM10 3l3.3 2.6a.5.5 0 0 1-.28.9.5.5 0 0 0-.3.88l2.09 1.73a.5.5 0 0 1-.32.89h-.76a.5.5 0 0 0-.34.86l2.45 2.3c.32.3.1.84-.34.84h-11a.49.49 0 0 1-.34-.85l2.44-2.29a.5.5 0 0 0-.34-.86H5.5a.5.5 0 0 1-.31-.89l2.1-1.73a.5.5 0 0 0-.3-.88.5.5 0 0 1-.3-.9L10 3Z"/></svg>