<svg width="20" height="20" viewBox="0 0 20 20" xmlns="http://www.w3.org/2000/svg"><path d="M6 1c.3 0 .58.18.7.46l2.5 6a.75.75 0 1 1-1.4.58L7.39 7H4.63l-.44 1.04a.75.75 0 1 1-1.38-.58l2.5-6A.75.75 0 0 1 6 1Zm0 2.7-.75 1.8h1.5L6 3.7Zm9-.95a.75.75 0 0 0-1.5 0v12.57l-1.45-1.58a.75.75 0 0 0-1.1 1.02l2.75 3a.75.75 0 0 0 1.1 0l2.75-3a.75.75 0 0 0-1.1-1.02L15 15.32V2.75ZM5 11.5a.5.5 0 1 1-1 0 .5.5 0 0 1 1 0Zm-3 4C2 13.45 3.91 12 6 12s4 1.45 4 3.5S8.09 19 6 19s-4-1.45-4-3.5Zm4-2c-1.5 0-2.5 1-2.5 2s1 2 2.5 2 2.5-1 2.5-2-1-2-2.5-2ZM7.5 12a.5.5 0 1 0 0-1 .5.5 0 0 0 0 1Z"/></svg>