<svg width="48" height="48" viewBox="0 0 48 48" xmlns="http://www.w3.org/2000/svg"><path d="M26.82 11.44A12.49 12.49 0 0016.5 6H8.25A4.25 4.25 0 004 10.25v8.25a12.5 12.5 0 0011.65 12.47 15.5 15.5 0 01.72-10.84l-5-5a1.25 1.25 0 011.76-1.77l4.5 4.5a15.52 15.52 0 019.19-6.42zm-4.93 21.9c.52.66 1.11 1.25 1.77 1.77l8.98-8.98a1.25 1.25 0 00-1.77-1.77l-8.98 8.98zm-6.52 6.53l4.74-4.75A13.5 13.5 0 0130.5 13h9.25C42.1 13 44 14.9 44 17.25v9.25a13.5 13.5 0 01-22.12 10.39l-4.75 4.74a1.25 1.25 0 01-1.76-1.76z"/></svg>