<svg width="32" height="32" viewBox="0 0 32 32" xmlns="http://www.w3.org/2000/svg"><path d="M10.45 20.98c.39 1.24 1 2.37 1.8 3.35L9.3 27.29a1 1 0 101.42 1.42l2.96-2.97A10 10 0 0030 18v-7a3 3 0 00-3-3h-7c-.3 0-.61.01-.92.04A9 9 0 0011 3H5a3 3 0 00-3 3v6a9 9 0 008.45 8.98zM4 6a1 1 0 011-1h6a7 7 0 016.03 3.45c-1.93.6-3.62 1.77-4.85 3.32L8.71 8.29a1 1 0 00-1.42 1.42l3.78 3.78a9.96 9.96 0 00-1.03 5.45A7 7 0 014 12V6zm16 20a7.97 7.97 0 01-4.9-1.68l6.6-6.61a1 1 0 00-1.4-1.42l-6.62 6.62A8 8 0 0120 10h7a1 1 0 011 .99v7a8 8 0 01-8 8z"/></svg>