<svg width="48" height="48" viewBox="0 0 48 48" xmlns="http://www.w3.org/2000/svg"><path d="M16.5 6a12.5 12.5 0 0111.35 7.26c.86-.17 1.74-.26 2.65-.26h9.25C42.1 13 44 14.9 44 17.25v9.25a13.5 13.5 0 01-22.12 10.39l-4.75 4.74a1.25 1.25 0 01-1.76-1.76l4.74-4.75a13.48 13.48 0 01-2.36-4.18A12.5 12.5 0 014 18.5v-8.25C4 7.9 5.9 6 8.25 6h8.25zm7.16 29.11A11 11 0 0041.5 26.5v-9.25c0-.97-.78-1.75-1.75-1.75H30.5a11 11 0 00-8.61 17.84l8.98-8.98a1.25 1.25 0 011.77 1.77l-8.98 8.98zM16.5 28.5c.22 0 .43 0 .64-.02a13.62 13.62 0 01.75-6.82l-6.52-6.53a1.25 1.25 0 011.76-1.77l5.95 5.94A13.55 13.55 0 0125.43 14 10 10 0 0016.5 8.5H8.25c-.97 0-1.75.78-1.75 1.75v8.25a10 10 0 0010 10z"/></svg>