<svg width="20" height="20" viewBox="0 0 20 20" xmlns="http://www.w3.org/2000/svg"><path d="M13 6.5A2.5 2.5 0 0 0 10.5 4h-6A2.5 2.5 0 0 0 2 6.5v3.76a5.5 5.5 0 0 1 8.8 5.73A2.5 2.5 0 0 0 13 13.5v-7Zm1 1.43v4.15l2.76 2.35a.75.75 0 0 0 1.24-.57V6.2a.75.75 0 0 0-1.23-.57L14 7.93ZM1 14.5a4.5 4.5 0 1 0 9 0 4.5 4.5 0 0 0-9 0Zm6.5-3c.28 0 .5.22.5.5v1.5a.5.5 0 0 1-.5.5H6a.5.5 0 0 1 0-1h.47a1.99 1.99 0 0 0-2.38.34.5.5 0 0 1-.71-.71A3 3 0 0 1 7 12.15V12c0-.28.22-.5.5-.5Zm-.88 5.53A3 3 0 0 1 4 16.85V17a.5.5 0 0 1-1 0v-1.5c0-.28.22-.5.5-.5H5a.5.5 0 0 1 0 1h-.47a1.99 1.99 0 0 0 2.38-.34.5.5 0 0 1 .71.71 3 3 0 0 1-1 .66Z"/></svg>