<svg width="16" height="16" viewBox="0 0 16 16" xmlns="http://www.w3.org/2000/svg"><path d="M8 2c.28 0 .5.22.5.5v1a.5.5 0 0 1-1 0v-1c0-.28.22-.5.5-.5Zm0 9a3 3 0 1 0 0-6 3 3 0 0 0 0 6Zm0-1a2 2 0 1 1 0-4 2 2 0 0 1 0 4Zm5.5-1.5a.5.5 0 0 0 0-1h-1a.5.5 0 0 0 0 1h1ZM8 12c.28 0 .5.22.5.5v1a.5.5 0 0 1-1 0v-1c0-.28.22-.5.5-.5ZM3.5 8.5a.5.5 0 0 0 0-1h-1a.5.5 0 0 0 0 1h1Zm.15-4.85c.2-.2.5-.2.7 0l.5.5a.5.5 0 1 1-.7.7l-.5-.5a.5.5 0 0 1 0-.7Zm.7 8.7a.5.5 0 1 1-.7-.7l.5-.5a.5.5 0 1 1 .7.7l-.5.5Zm8-8.7a.5.5 0 0 0-.7 0l-.5.5a.5.5 0 0 0 .7.7l.5-.5a.5.5 0 0 0 0-.7Zm-1.2 8.2.5.5a.5.5 0 0 0 .7-.7l-.5-.5a.5.5 0 0 0-.7.7Z"/></svg>