<svg width="20" height="20" viewBox="0 0 20 20" xmlns="http://www.w3.org/2000/svg"><path d="M10.5 3.5a.5.5 0 0 0-1 0v1a.5.5 0 0 0 1 0v-1ZM10 6a4 4 0 1 0 0 8 4 4 0 0 0 0-8Zm-3 4a3 3 0 1 1 6 0 3 3 0 0 1-6 0Zm10 0a.5.5 0 0 1-.5.5h-1a.5.5 0 0 1 0-1h1c.28 0 .5.22.5.5Zm-6.5 5.5a.5.5 0 0 0-1 0v1a.5.5 0 0 0 1 0v-1ZM5 10a.5.5 0 0 1-.5.5h-1a.5.5 0 0 1 0-1h1c.28 0 .5.22.5.5Zm.85-4.85a.5.5 0 1 0-.7.7l.5.5a.5.5 0 1 0 .7-.7l-.5-.5Zm-.7 9.7c.2.2.5.2.7 0l.5-.5a.5.5 0 0 0-.7-.7l-.5.5a.5.5 0 0 0 0 .7Zm9-9.7a.5.5 0 0 1 .7.7l-.5.5a.5.5 0 0 1-.7-.7l.5-.5Zm.7 9.7a.5.5 0 0 1-.7 0l-.5-.5a.5.5 0 0 1 .7-.7l.5.5c.2.2.2.5 0 .7Z"/></svg>