<svg width="28" height="28" viewBox="0 0 28 28" xmlns="http://www.w3.org/2000/svg"><path d="M14.75 4.75a.75.75 0 0 0-1.5 0v1.5a.75.75 0 0 0 1.5 0v-1.5ZM20 14a6 6 0 1 1-12 0 6 6 0 0 1 12 0Zm-1.5 0A4.5 4.5 0 0 0 14 9.5v9a4.5 4.5 0 0 0 4.5-4.5Zm5.5 0c0 .41-.34.75-.75.75h-1.5a.75.75 0 0 1 0-1.5h1.5c.41 0 .75.34.75.75Zm-9.25 7.75a.75.75 0 0 0-1.5 0v1.5a.75.75 0 0 0 1.5 0v-1.5ZM7 14c0 .41-.34.75-.75.75h-1.5a.75.75 0 0 1 0-1.5h1.5c.41 0 .75.34.75.75Zm.78-7.28a.75.75 0 0 0-1.06 1.06l1 1a.75.75 0 0 0 1.06-1.06l-1-1ZM6.72 21.28c.3.3.77.3 1.06 0l1-1a.75.75 0 1 0-1.06-1.06l-1 1c-.3.3-.3.77 0 1.06Zm13.5-14.56a.75.75 0 1 1 1.06 1.06l-1 1a.75.75 0 1 1-1.06-1.06l1-1Zm1.06 14.56c-.3.3-.77.3-1.06 0l-.99-.99a.75.75 0 1 1 1.06-1.06l.99.99c.3.3.3.77 0 1.06Z"/></svg>