<svg width="28" height="28" viewBox="0 0 28 28" xmlns="http://www.w3.org/2000/svg"><path d="M14 4c.41 0 .75.34.75.75v1.5a.75.75 0 0 1-1.5 0v-1.5c0-.41.33-.75.75-.75Zm0 16a6 6 0 1 0 0-12 6 6 0 0 0 0 12Zm0-1.5a4.5 4.5 0 1 1 0-9 4.5 4.5 0 0 1 0 9Zm9.25-3.75a.75.75 0 0 0 0-1.5h-1.5a.75.75 0 0 0 0 1.5h1.5ZM14 21c.41 0 .75.34.75.75v1.5a.75.75 0 0 1-1.5 0v-1.5c0-.41.33-.75.75-.75Zm-7.75-6.25a.75.75 0 0 0 0-1.5h-1.5a.75.75 0 0 0 0 1.5h1.5Zm.47-8.03c.3-.3.77-.3 1.06 0l1 1a.75.75 0 0 1-1.06 1.06l-1-1a.75.75 0 0 1 0-1.06Zm1.06 14.56a.75.75 0 0 1-1.06-1.06l1-1a.75.75 0 0 1 1.06 1.06l-1 1Zm13.5-14.56a.75.75 0 0 0-1.06 0l-1 1a.75.75 0 0 0 1.06 1.06l1-1c.3-.3.3-.77 0-1.06Zm-1.06 14.56a.75.75 0 1 0 1.06-1.06l-.99-.99a.75.75 0 1 0-1.06 1.06l.99.99Z"/></svg>