<svg width="16" height="16" viewBox="0 0 16 16" xmlns="http://www.w3.org/2000/svg"><path d="M14 6v5.5a2.5 2.5 0 0 1-2.5 2.5h-7A2.5 2.5 0 0 1 2 11.5V8.91a1.5 1.5 0 0 0 1.56-.35l1.5-1.5c.3-.3.44-.68.44-1.06H14ZM5.25 9a.75.75 0 1 0 0-1.5.75.75 0 0 0 0 1.5Zm0 2.5a.75.75 0 1 0 0-1.5.75.75 0 0 0 0 1.5ZM8 9a.75.75 0 1 0 0-1.5A.75.75 0 0 0 8 9Zm0 2.5A.75.75 0 1 0 8 10a.75.75 0 0 0 0 1.5ZM10.75 9a.75.75 0 1 0 0-1.5.75.75 0 0 0 0 1.5ZM5.12 5H14v-.5A2.5 2.5 0 0 0 11.5 2h-7A2.5 2.5 0 0 0 2 4.5v1.8l-.65-.65a.5.5 0 1 0-.7.7l1.5 1.5c.2.2.5.2.7 0l1.5-1.5a.5.5 0 1 0-.7-.7L3 6.29V4.9A1.5 1.5 0 0 1 5.12 5Z"/></svg>