<svg width="20" height="20" viewBox="0 0 20 20" xmlns="http://www.w3.org/2000/svg"><path d="M5.5 17A2.5 2.5 0 0 1 3 14.5v-4a.5.5 0 0 1 1 0v4c0 .83.67 1.5 1.5 1.5h9c.83 0 1.5-.67 1.5-1.5V7H6.5c0-.36-.14-.72-.4-1H16v-.5c0-.83-.67-1.5-1.5-1.5h-9C4.67 4 4 4.67 4 5.5v1.8l.65-.65a.5.5 0 1 1 .7.7l-1.5 1.5a.5.5 0 0 1-.7 0l-1.5-1.5a.5.5 0 1 1 .7-.7l.65.64V5.5A2.5 2.5 0 0 1 5.5 3h9A2.5 2.5 0 0 1 17 5.5v9a2.5 2.5 0 0 1-2.5 2.5h-9ZM8 10a1 1 0 1 1-2 0 1 1 0 0 1 2 0Zm-1 4a1 1 0 1 0 0-2 1 1 0 0 0 0 2Zm4-4a1 1 0 1 1-2 0 1 1 0 0 1 2 0Zm-1 4a1 1 0 1 0 0-2 1 1 0 0 0 0 2Zm4-4a1 1 0 1 1-2 0 1 1 0 0 1 2 0Z"/></svg>