<svg width="24" height="24" viewBox="0 0 24 24" xmlns="http://www.w3.org/2000/svg"><path d="M6.25 3A3.25 3.25 0 0 0 3 6.25v2.69l-.72-.72a.75.75 0 0 0-1.06 1.06l2 2c.3.3.77.3 1.06 0l2-2a.75.75 0 0 0-1.06-1.06l-.72.72V6.25c0-.97.78-1.75 1.75-1.75h11.5c.97 0 1.75.78 1.75 1.75V7H5.9a1.74 1.74 0 0 1 1.58 1.5H19.5v9.25c0 .97-.78 1.75-1.75 1.75H6.25c-.97 0-1.75-.78-1.75-1.75v-4a.75.75 0 0 0-1.5 0v4C3 19.55 4.46 21 6.25 21h11.5c1.8 0 3.25-1.46 3.25-3.25V6.25C21 4.45 19.54 3 17.75 3H6.25Zm1.5 11.5a1.25 1.25 0 1 1 0 2.5 1.25 1.25 0 0 1 0-2.5Zm4.25 0a1.25 1.25 0 1 1 0 2.5 1.25 1.25 0 0 1 0-2.5Zm-4.25-4a1.25 1.25 0 1 1 0 2.5 1.25 1.25 0 0 1 0-2.5Zm4.25 0a1.25 1.25 0 1 1 0 2.5 1.25 1.25 0 0 1 0-2.5Zm4.25 0a1.25 1.25 0 1 1 0 2.5 1.25 1.25 0 0 1 0-2.5Z"/></svg>