<svg width="32" height="32" viewBox="0 0 32 32" xmlns="http://www.w3.org/2000/svg"><path d="M4 9a5 5 0 0 1 5-5h14a5 5 0 0 1 5 5v1H10.3a2.5 2.5 0 0 0-4.07-.77L6 9.46v2.13l1.3-1.3a1 1 0 1 1 1.4 1.42l-3 3a1 1 0 0 1-1.4 0l-3-3a1 1 0 1 1 1.4-1.42L4 11.6V9Zm0 7.3V23a5 5 0 0 0 5 5h14a5 5 0 0 0 5-5V12H10.3c-.13.28-.3.54-.53.77l-3 3a2.5 2.5 0 0 1-2.77.52Zm8 .2a1.5 1.5 0 1 1-3 0 1.5 1.5 0 0 1 3 0ZM10.5 20a1.5 1.5 0 1 1 0 3 1.5 1.5 0 0 1 0-3Zm7 1.5a1.5 1.5 0 1 1-3 0 1.5 1.5 0 0 1 3 0ZM16 15a1.5 1.5 0 1 1 0 3 1.5 1.5 0 0 1 0-3Zm7 1.5a1.5 1.5 0 1 1-3 0 1.5 1.5 0 0 1 3 0Z"/></svg>