<svg width="48" height="48" viewBox="0 0 48 48" xmlns="http://www.w3.org/2000/svg"><path d="M12.25 6A6.25 6.25 0 0 0 6 12.25V18l-1.93-1.7a1.25 1.25 0 1 0-1.64 1.9l4 3.5c.47.4 1.17.4 1.64 0l4-3.5a1.25 1.25 0 1 0-1.64-1.9L8.5 18v-5.75a3.75 3.75 0 0 1 3.75-3.75h23.5a3.75 3.75 0 0 1 3.75 3.75V14h-28v.01a3.24 3.24 0 0 1 2.91 2.49H39.5v19.25a3.75 3.75 0 0 1-3.75 3.75h-23.5a3.75 3.75 0 0 1-3.75-3.75v-8.5a1.25 1.25 0 1 0-2.5 0v8.5C6 39.2 8.8 42 12.25 42h23.5C39.2 42 42 39.2 42 35.75v-23.5C42 8.8 39.2 6 35.75 6h-23.5ZM18 23.5a2.5 2.5 0 1 1-5 0 2.5 2.5 0 0 1 5 0Zm6 2.5a2.5 2.5 0 1 0 0-5 2.5 2.5 0 0 0 0 5Zm11-2.5a2.5 2.5 0 1 1-5 0 2.5 2.5 0 0 1 5 0ZM15.5 34a2.5 2.5 0 1 0 0-5 2.5 2.5 0 0 0 0 5Zm11-2.5a2.5 2.5 0 1 1-5 0 2.5 2.5 0 0 1 5 0Z"/></svg>