<svg width="24" height="24" viewBox="0 0 24 24" xmlns="http://www.w3.org/2000/svg"><path d="M11.39 2.29a7.23 7.23 0 0 0-2.37 6.78 8.5 8.5 0 0 0-5.13-.98.96.96 0 0 0-.87 1.04 8.97 8.97 0 0 0 2.06 4.78c-.41 0-.83.02-1.25.07-.5.07-.85.5-.81 1A7.6 7.6 0 0 0 10.59 22H13.4a7.6 7.6 0 0 0 7.57-7.01.94.94 0 0 0-.81-1 8.8 8.8 0 0 0-1.23-.08A8.97 8.97 0 0 0 21 9.13a.96.96 0 0 0-.88-1.04 8.55 8.55 0 0 0-5.14.98A7.23 7.23 0 0 0 12.6 2.3a.93.93 0 0 0-1.22 0Zm.61 9.44a5.74 5.74 0 0 1 0-7.96 5.74 5.74 0 0 1 0 7.96Zm0 5.6a9.02 9.02 0 0 0-4.23-2.97 7.75 7.75 0 0 1-3.18-4.8 6.43 6.43 0 0 1 4.67 1.51c1.03.87 1.48 1.93 1.82 2.72l.25.55a.75.75 0 0 0 1.34 0l.25-.55a6.8 6.8 0 0 1 1.81-2.72 6.46 6.46 0 0 1 4.7-1.52 7.75 7.75 0 0 1-3.17 4.8A9.02 9.02 0 0 0 12 17.33Zm.64 1.71c1.4-2.33 4-3.78 6.78-3.62a6.1 6.1 0 0 1-6.01 5.08H10.59a6.1 6.1 0 0 1-6.01-5.08 7.45 7.45 0 0 1 6.78 3.62.75.75 0 0 0 1.28 0Z"/></svg>