<svg width="20" height="20" viewBox="0 0 20 20" xmlns="http://www.w3.org/2000/svg"><path d="M3 11a7 7 0 0 1 13.79-1.7c.48.22.88.57 1.18 1a8 8 0 1 0-13.63 6.35.5.5 0 0 0 .7-.7A6.98 6.98 0 0 1 3 11Zm11.64-1.87a5 5 0 1 0-8.18 5.4.5.5 0 0 0 .7-.7A3.99 3.99 0 0 1 10 7a4 4 0 0 1 3.74 2.57c.27-.2.57-.35.9-.44ZM8 11a2 2 0 1 1 4 0 2 2 0 0 1-4 0Zm2-1a1 1 0 1 0 0 2 1 1 0 0 0 0-2Zm7.5 2a2 2 0 1 1-4 0 2 2 0 0 1 4 0Zm1.5 4.5c0 1.25-1 2.5-3.5 2.5S12 17.75 12 16.5c0-.83.67-1.5 1.5-1.5h4c.83 0 1.5.67 1.5 1.5Z"/></svg>