<svg width="24" height="24" viewBox="0 0 24 24" xmlns="http://www.w3.org/2000/svg"><path d="M3.5 13a8.5 8.5 0 0 1 16.88-1.46 3.5 3.5 0 0 1 1.58 2.4 10 10 0 1 0-17.03 6.12.75.75 0 0 0 1.05-1.05A8.47 8.47 0 0 1 3.5 13Zm14.7-1.99A6.5 6.5 0 1 0 7.4 17.6a.75.75 0 1 0 1.07-1.06 5 5 0 1 1 8.3-5.07c.42-.25.9-.41 1.42-.46ZM9.5 13a2.5 2.5 0 1 1 5 0 2.5 2.5 0 0 1-5 0Zm2.5-1a1 1 0 1 0 0 2 1 1 0 0 0 0-2Zm9 2.5a2.5 2.5 0 1 1-5 0 2.5 2.5 0 0 1 5 0Zm2 5.38c0 1.55-1.29 3.12-4.5 3.12S14 21.44 14 19.87v-.1c0-.98.8-1.77 1.77-1.77h5.46c.98 0 1.77.8 1.77 1.77v.1Z"/></svg>