<svg width="16" height="16" viewBox="0 0 16 16" xmlns="http://www.w3.org/2000/svg"><path d="M8 9a2 2 0 1 0 0-4 2 2 0 0 0 0 4Zm0-1a1 1 0 1 1 0-2 1 1 0 0 1 0 2ZM1 4.75C1 3.78 1.78 3 2.75 3h10.5c.97 0 1.75.78 1.75 1.75v.43A2.3 2.3 0 0 0 14 5v-.25a.75.75 0 0 0-.75-.75H2.75a.75.75 0 0 0-.75.75v6.5c0 .41.34.75.75.75H5v-1a1 1 0 0 1 1-1h4a1 1 0 0 1 .96.71c-.49-.07-.98.04-1.4.29H6v1h2.56c-.26.3-.43.64-.51 1h-5.3C1.78 13 1 12.22 1 11.25v-6.5Zm11.58 2.83.29-.75a1.32 1.32 0 0 1 1.74-.73l.39.17c.47.2.86.57.94 1.06.46 2.73-1.9 6.6-4.63 7.59a1.6 1.6 0 0 1-1.44-.25l-.35-.23c-.6-.41-.7-1.24-.2-1.79l.54-.6c.26-.3.66-.42 1.04-.33l1.22.29c.97-.6 1.5-1.46 1.56-2.56l-.88-.86a.94.94 0 0 1-.22-1Z"/></svg>