<svg width="24" height="24" viewBox="0 0 24 24" xmlns="http://www.w3.org/2000/svg"><path d="M22 6.25C22 5.01 20.99 4 19.75 4H4.25C3.01 4 2 5 2 6.25v11.5C2 19 3 20 4.25 20h9.76c.03-.42.2-.84.48-1.2l.8-1.01a2.2 2.2 0 0 1 1.7-.83V15.6c-.07-.9-.83-1.61-1.75-1.61H8.61c-.9.08-1.61.83-1.61 1.75v2.75H4.25a.75.75 0 0 1-.75-.75V6.25c0-.41.34-.75.75-.75h15.5c.41 0 .75.34.75.75v3.77c.33-.05.68-.02 1.02.1l.44.13.04.01V6.25ZM15 10a3 3 0 1 0-6 0 3 3 0 0 0 6 0Zm4.2 3 .47-1.21c.24-.61.92-.93 1.55-.73l.43.14c.72.24 1.32.8 1.35 1.57.1 3.11-2.48 7.58-5.22 9.06-.67.36-1.46.12-2.03-.4l-.34-.3a1.25 1.25 0 0 1-.14-1.7l.8-1.02a1.2 1.2 0 0 1 1.22-.42l1.3.32a3.78 3.78 0 0 0 1.77-3.08l-.92-.96a1.2 1.2 0 0 1-.25-1.28Z"/></svg>