<svg width="16" height="16" viewBox="0 0 16 16" xmlns="http://www.w3.org/2000/svg"><path d="M4.5 2A2.5 2.5 0 0 0 2 4.5v7A2.5 2.5 0 0 0 4.5 14h1.76A5.48 5.48 0 0 1 6 7.34V6h1.34a5.47 5.47 0 0 1 6.66.26V4.5A2.5 2.5 0 0 0 11.5 2h-7ZM3 11h2v2h-.5A1.5 1.5 0 0 1 3 11.5V11Zm0-5h2v4H3V6Zm7-1H6V3h4v2ZM4.5 3H5v2H3v-.5C3 3.67 3.67 3 4.5 3ZM13 4.5V5h-2V3h.5c.83 0 1.5.67 1.5 1.5ZM10.5 15a4.5 4.5 0 1 0 0-9 4.5 4.5 0 0 0 0 9Zm0-7c.28 0 .5.22.5.5V10h1.5a.5.5 0 0 1 0 1H11v1.5a.5.5 0 0 1-1 0V11H8.5a.5.5 0 0 1 0-1H10V8.5c0-.28.22-.5.5-.5Z"/></svg>