<svg width="24" height="24" viewBox="0 0 24 24" xmlns="http://www.w3.org/2000/svg"><path d="M9.5 21h2.52a6.47 6.47 0 0 1-.85-5H9.5v5ZM21 9.5v2.52a6.47 6.47 0 0 0-5-.85V9.5h5Zm-6.5 0v2.23a6.53 6.53 0 0 0-2.77 2.77H9.5v-5h5ZM21 8V6.25C21 4.45 19.54 3 17.75 3H16v5h5Zm-6.5-5h-5v5h5V3ZM8 3H6.25A3.25 3.25 0 0 0 3 6.25V8h5V3ZM3 9.5v5h5v-5H3ZM3 16v1.75C3 19.55 4.46 21 6.25 21H8v-5H3Zm20 1.5a5.5 5.5 0 1 0-11 0 5.5 5.5 0 0 0 11 0Zm-5 .5v2.5a.5.5 0 1 1-1 0V18h-2.5a.5.5 0 1 1 0-1H17v-2.5a.5.5 0 0 1 1 0V17h2.5a.5.5 0 1 1 0 1H18Z"/></svg>