<svg width="32" height="32" viewBox="0 0 32 32" xmlns="http://www.w3.org/2000/svg"><path d="M7 10.5a3.5 3.5 0 117 0 3.5 3.5 0 01-7 0zM10.5 5a5.5 5.5 0 100 11 5.5 5.5 0 000-11zM21 12a2 2 0 114 0 2 2 0 01-4 0zm2-4a4 4 0 100 8 4 4 0 000-8zM2 21a3 3 0 013-3h11a3 3 0 013 3v.23a2.76 2.76 0 01-.02.27 5.56 5.56 0 01-1.13 2.7c-1.17 1.51-3.37 2.8-7.35 2.8-3.98 0-6.18-1.29-7.35-2.8A5.56 5.56 0 012 21.24V21zm2 .18v.11l.09.4c.09.35.27.82.64 1.29.7.9 2.25 2.02 5.77 2.02 3.52 0 5.07-1.12 5.77-2.02a3.56 3.56 0 00.73-1.79V21a1 1 0 00-1-1H5a1 1 0 00-1 1v.18zm15.48 3.31c.93.32 2.08.51 3.52.51 3.2 0 5.02-.95 6.01-2.12a4.26 4.26 0 00.99-2.36V20.46C30 19.1 28.9 18 27.54 18h-8.19c.5.56.86 1.24 1.04 2h7.15c.25 0 .45.2.46.45v.04l-.06.25c-.06.22-.19.53-.45.84-.51.6-1.7 1.42-4.49 1.42a9.21 9.21 0 01-2.72-.35 7.04 7.04 0 01-.8 1.84z"/></svg>