<svg width="48" height="48" viewBox="0 0 48 48" xmlns="http://www.w3.org/2000/svg"><path d="M10.5 16a5.5 5.5 0 1 1 11 0 5.5 5.5 0 0 1-11 0ZM16 8a8 8 0 1 0 0 16 8 8 0 0 0 0-16Zm14.5 10a3.5 3.5 0 1 1 7 0 3.5 3.5 0 0 1-7 0Zm3.5-6a6 6 0 1 0 0 12 6 6 0 0 0 0-12Zm0 27c-2.18 0-3.92-.35-5.32-.92a10.96 10.96 0 0 0 1.35-2.16c1.02.35 2.32.58 3.97.58 4.27 0 6.17-1.53 7.06-2.83a5.55 5.55 0 0 0 .94-2.68v-.24c0-.69-.56-1.25-1.25-1.25h-9.89c-.2-.94-.64-1.8-1.25-2.5h11.14a3.75 3.75 0 0 1 3.75 3.75V31.05a3.66 3.66 0 0 1-.02.36c-.03.23-.07.55-.16.92a8.05 8.05 0 0 1-1.2 2.75C41.7 37.16 38.97 39 34 39ZM6.75 27A3.75 3.75 0 0 0 3 30.75v1.3a3.76 3.76 0 0 0 .03.42 8.69 8.69 0 0 0 1.7 4.16C6.47 38.95 9.82 41 16 41c6.18 0 9.52-2.05 11.28-4.37A8.69 8.69 0 0 0 29 32.05v-1.3A3.75 3.75 0 0 0 25.25 27H6.75ZM5.5 32.02v-1.27c0-.69.56-1.25 1.25-1.25h18.5c.69 0 1.25.56 1.25 1.25v1.27a5.19 5.19 0 0 1-.14.88c-.16.6-.46 1.41-1.07 2.22-1.19 1.56-3.71 3.38-9.29 3.38-5.57 0-8.1-1.82-9.29-3.38a6.19 6.19 0 0 1-1.2-3.1Z"/></svg>