<svg width="24" height="24" viewBox="0 0 24 24" xmlns="http://www.w3.org/2000/svg"><path d="M5.5 8a2.5 2.5 0 115 0 2.5 2.5 0 01-5 0zM8 4a4 4 0 100 8 4 4 0 000-8zm7.5 5a1.5 1.5 0 113 0 1.5 1.5 0 01-3 0zM17 6a3 3 0 100 6 3 3 0 000-6zm-2.75 13.04c.7.28 1.6.46 2.75.46 2.28 0 3.59-.7 4.3-1.56a3.14 3.14 0 00.7-1.73v-.03c0-1.2-.97-2.18-2.18-2.18H14.1c.4.41.68.93.81 1.5h4.91a.68.68 0 01.68.7l-.04.18c-.04.16-.13.38-.32.6C19.8 17.42 18.97 18 17 18c-.98 0-1.67-.15-2.17-.34-.1.4-.28.88-.58 1.38zM4.25 14C3.01 14 2 15 2 16.25v.28a2.07 2.07 0 00.01.2c.02.14.04.32.1.53.09.42.29.98.68 1.55C3.61 19.97 5.17 21 8 21s4.39-1.03 5.2-2.2a4.48 4.48 0 00.8-2.27v-.28c0-1.24-1-2.25-2.25-2.25h-7.5zm-.75 2.5v-.25c0-.41.34-.75.75-.75h7.5c.41 0 .75.34.75.75v.34l-.06.33c-.07.28-.2.65-.46 1.02-.5.71-1.56 1.56-3.98 1.56s-3.49-.85-3.98-1.56a2.99 2.99 0 01-.52-1.43z"/></svg>