<svg width="12" height="12" viewBox="0 0 12 12" xmlns="http://www.w3.org/2000/svg"><path d="M3 4a1 1 0 112 0 1 1 0 01-2 0zm1-2a2 2 0 100 4 2 2 0 000-4zm4 2.5a.5.5 0 111 0 .5.5 0 01-1 0zM8.5 3a1.5 1.5 0 100 3 1.5 1.5 0 000-3zM1 8.25C1 7.56 1.56 7 2.25 7h3.5C6.44 7 7 7.56 7 8.25v.05a1.05 1.05 0 01-.02.2 2.06 2.06 0 01-.39.93c-.42.59-1.21 1.07-2.59 1.07s-2.17-.48-2.6-1.07A2.18 2.18 0 011 8.3v-.05zm1 .03v.02l.02.13c.03.11.09.27.2.42.2.27.66.65 1.78.65s1.58-.38 1.78-.65A1.18 1.18 0 006 8.28v-.03A.25.25 0 005.75 8h-3.5a.25.25 0 00-.25.25v.03zM8.5 10c-.36 0-.67-.04-.93-.1a2.86 2.86 0 00.38-.94c.15.02.34.04.55.04.89 0 1.23-.27 1.36-.44a.67.67 0 00.14-.31.25.25 0 00-.25-.25H7.99c-.04-.37-.17-.7-.37-1h2.13c.69 0 1.25.56 1.25 1.25v.02a.99.99 0 010 .09l-.05.21c-.04.17-.13.4-.31.62-.37.46-1.03.81-2.14.81z"/></svg>