<svg width="16" height="16" viewBox="0 0 16 16" xmlns="http://www.w3.org/2000/svg"><path d="M4 5.5a1.5 1.5 0 113 0 1.5 1.5 0 01-3 0zM5.5 3a2.5 2.5 0 100 5 2.5 2.5 0 000-5zm5 3a1 1 0 112 0 1 1 0 01-2 0zm1-2a2 2 0 100 4 2 2 0 000-4zm-10 6.5C1.5 9.67 2.17 9 3 9h5c.83 0 1.5.67 1.5 1.5v.11a1.38 1.38 0 01-.01.14c0 .08-.03.2-.06.34-.07.27-.2.64-.46 1-.55.76-1.6 1.41-3.47 1.41-1.88 0-2.92-.65-3.47-1.4a2.85 2.85 0 01-.53-1.49v-.11zm1 .09v.06l.04.2c.04.18.13.42.3.65.33.45 1.04 1 2.66 1s2.33-.55 2.66-1a1.85 1.85 0 00.34-.9V10.5A.5.5 0 008 10H3a.5.5 0 00-.5.5v.09zm9 1.91a4.1 4.1 0 01-1.46-.24c.19-.34.3-.67.36-.93.27.1.63.17 1.1.17 1.12 0 1.58-.38 1.78-.67a1.22 1.22 0 00.22-.56v-.02a.25.25 0 00-.25-.25h-2.8c-.07-.37-.23-.7-.45-1h3.25c.69 0 1.25.56 1.25 1.25v.02a1.35 1.35 0 010 .1l-.05.27c-.05.21-.15.5-.36.78-.42.59-1.2 1.08-2.59 1.08z"/></svg>