<svg width="28" height="28" viewBox="0 0 28 28" xmlns="http://www.w3.org/2000/svg"><path d="M9.5 5a4.5 4.5 0 100 9 4.5 4.5 0 000-9zm-3 4.5a3 3 0 116 0 3 3 0 01-6 0zM20 7a3.5 3.5 0 100 7 3.5 3.5 0 000-7zm-2 3.5a2 2 0 114 0 2 2 0 01-4 0zM2 18.25C2 17.01 3 16 4.25 16h10.5c1.24 0 2.25 1 2.25 2.25v.53a2.24 2.24 0 01-.02.24 5.09 5.09 0 01-.98 2.43C15 22.8 13.07 24 9.5 24S4 22.8 3 21.45a5.09 5.09 0 01-1-2.67v-.53zm1.5.5v.11l.08.41c.09.35.26.81.61 1.28.68.9 2.12 1.95 5.31 1.95 3.2 0 4.63-1.05 5.3-1.95a3.59 3.59 0 00.7-1.79v-.51a.75.75 0 00-.75-.75H4.25a.75.75 0 00-.75.75v.5zm13.6 2.87A9.9 9.9 0 0020 22c2.77 0 4.32-.8 5.16-1.76a3.48 3.48 0 00.84-1.96v-.02-.01c0-1.24-1-2.25-2.25-2.25h-6.66c.4.41.69.93.82 1.5h5.84a.75.75 0 01.74.79c0 .04-.01.12-.04.22-.06.2-.18.47-.42.75-.47.54-1.55 1.24-4.03 1.24-.94 0-1.68-.1-2.26-.26a6.1 6.1 0 01-.64 1.38z"/></svg>