<svg width="20" height="20" viewBox="0 0 20 20" xmlns="http://www.w3.org/2000/svg"><path d="M10 2v4.5c0 .83.67 1.5 1.5 1.5H16v8.5c0 .83-.67 1.5-1.5 1.5h-4c.3-.43.5-.93.5-1.5V10.3c-.11-1.42-1.4-2.36-2.65-2.83A8.86 8.86 0 004 7.12V3.5C4 2.67 4.67 2 5.5 2H10zm1 .25V6.5c0 .28.22.5.5.5h4.25L11 2.25zM6.88 8.12c.4.07.78.17 1.12.3 1.2.45 2 1.21 2 2.08 0 1.38-2.01 2.5-4.5 2.5S1 11.88 1 10.5 3.01 8 5.5 8c.48 0 .94.04 1.38.12zM5.5 14c1.38 0 2.68-.3 3.67-.86.3-.16.58-.36.83-.59v3.95c0 1.38-2.01 2.5-4.5 2.5S1 17.88 1 16.5v-3.95c.25.23.54.43.83.6 1 .54 2.29.85 3.67.85z"/></svg>