<svg width="20" height="20" viewBox="0 0 20 20" xmlns="http://www.w3.org/2000/svg"><path d="M6 2a2 2 0 00-2 2v3.13c.32-.06.66-.1 1-.12V4a1 1 0 011-1h4v3.5c0 .83.67 1.5 1.5 1.5H15v8a1 1 0 01-1 1h-3.05c-.08.37-.24.7-.45 1H14a2 2 0 002-2V7.41c0-.4-.16-.78-.44-1.06l-3.91-3.91A1.5 1.5 0 0010.59 2H6zm8.8 5h-3.3a.5.5 0 01-.5-.5V3.2L14.8 7zM6.87 8.12c.4.07.78.17 1.12.3 1.2.45 2 1.21 2 2.08 0 1.38-2.01 2.5-4.5 2.5S1 11.88 1 10.5 3.01 8 5.5 8c.48 0 .94.04 1.38.12zM5.5 14c1.38 0 2.68-.3 3.67-.86.3-.16.58-.36.83-.59v3.95c0 1.38-2.01 2.5-4.5 2.5S1 17.88 1 16.5v-3.95c.25.23.54.43.83.6 1 .54 2.29.85 3.67.85z"/></svg>