<svg width="24" height="24" viewBox="0 0 24 24" xmlns="http://www.w3.org/2000/svg"><path d="M18.5 20a.5.5 0 01-.5.5h-6c0 .58-.2 1.08-.53 1.5H18a2 2 0 002-2V9.83a2 2 0 00-.59-1.42L13.6 2.6a.5.5 0 00-.05-.04 2.07 2.07 0 00-.34-.25l-.05-.03-.05-.03-.16-.09c-.2-.08-.41-.12-.63-.14h-.06a.6.6 0 00-.08-.01H6a2 2 0 00-2 2v7.19c.48-.1.98-.16 1.5-.18V4c0-.27.22-.5.5-.5h6V8c0 1.1.9 2 2 2h4.5v10zm-5-15.38l3.88 3.88H14a.5.5 0 01-.5-.5V4.62zm-3.1 17.06C9.57 22.47 7.9 23 6 23c-2.05 0-3.81-.62-4.58-1.5-.27-.3-.42-.64-.42-1v-4c.31.26.66.49 1.02.66A9.1 9.1 0 006 18a10.76 10.76 0 003-.44c.35-.11.68-.25.98-.4.36-.17.71-.4 1.02-.67v4.01c0 .43-.21.83-.6 1.18zm-4.9-9.67a10.17 10.17 0 012 .1c.55.09 1.05.22 1.5.39 1.21.46 2 1.18 2 2 0 .82-.79 1.54-2 2-.45.17-.95.3-1.5.39A9.7 9.7 0 016 17c-2.76 0-5-1.12-5-2.5 0-1.03 1.23-1.9 3-2.3.47-.1.97-.16 1.5-.19z"/></svg>