<svg width="24" height="24" viewBox="0 0 24 24" xmlns="http://www.w3.org/2000/svg"><path d="M7.92 1.6a1 1 0 00-1.84 0l-3 7a1 1 0 001.84.8l.6-1.4h2.96l.6 1.4a1 1 0 001.84-.8l-3-7zM7.62 6H6.38L7 4.54 7.63 6zM18.5 3a1 1 0 10-2 0v15.59l-1.8-1.8a1 1 0 00-1.4 1.42l3.5 3.5a1 1 0 001.4 0l3.5-3.5a1 1 0 00-1.4-1.42l-1.8 1.8V3zM5.75 13a.75.75 0 100-1.5.75.75 0 000 1.5zM9 12.25a.75.75 0 11-1.5 0 .75.75 0 011.5 0zM7 13.5c-2.78 0-5.25 2.01-5.25 4.75S4.22 23 7 23s5.25-2.01 5.25-4.75S9.78 13.5 7 13.5zm-3.25 4.75c0-1.4 1.33-2.75 3.25-2.75s3.25 1.35 3.25 2.75S8.92 21 7 21s-3.25-1.35-3.25-2.75z"/></svg>