<svg width="16" height="16" viewBox="0 0 16 16" xmlns="http://www.w3.org/2000/svg"><path d="M5.46.31a.5.5 0 00-.92 0l-2 5a.5.5 0 00.92.38l.28-.7L6.26 5l.28.69a.5.5 0 00.92-.38l-2-5zM5.86 4H4.14L5 1.85 5.86 4zM1.5 12c0-1.74 1.66-3 3.5-3s3.5 1.26 3.5 3-1.66 3-3.5 3-3.5-1.26-3.5-3zM5 10c-1.47 0-2.5.98-2.5 2s1.03 2 2.5 2 2.5-.98 2.5-2-1.03-2-2.5-2zm7.5-9c.28 0 .5.22.5.5v11.8l1.15-1.15a.5.5 0 01.7.7l-2 2a.5.5 0 01-.7 0l-2-2a.5.5 0 01.7-.7L12 13.29V1.5c0-.28.22-.5.5-.5zM4 8.5a.5.5 0 11-1 0 .5.5 0 011 0zm2.5.5a.5.5 0 100-1 .5.5 0 000 1z"/></svg>