<svg width="20" height="20" viewBox="0 0 20 20" xmlns="http://www.w3.org/2000/svg"><path d="M4.66 6.03c.2.06.34.26.34.47v7a.5.5 0 0 1-1 0V7.96a6 6 0 0 1-1.24.97.5.5 0 0 1-.52-.86c.94-.56 1.31-1.1 1.64-1.57l.22-.3a.5.5 0 0 1 .56-.17Zm3.84.43A.5.5 0 0 1 9 6h3.5a.5.5 0 0 1 0 1H9.46L9.3 8.93l1.28-.15a2.62 2.62 0 1 1 .3 5.22h-.35c-.8 0-1.55-.31-2.1-.87l-.28-.28a.5.5 0 1 1 .7-.7l.28.27c.37.37.87.58 1.4.58h.35a1.62 1.62 0 1 0-.19-3.23L8.81 10a.5.5 0 0 1-.56-.54l.25-3Zm6.35 3.69a.5.5 0 0 0-.7.7L15.29 12l-1.14 1.15a.5.5 0 0 0 .7.7L16 12.71l1.15 1.14a.5.5 0 0 0 .7-.7L16.71 12l1.14-1.15a.5.5 0 0 0-.7-.7L16 11.29l-1.15-1.14ZM6.5 14a.5.5 0 1 0 0-1 .5.5 0 0 0 0 1Z"/></svg>