<svg width="20" height="20" viewBox="0 0 20 20" xmlns="http://www.w3.org/2000/svg"><path d="M17.18 2.93a2.97 2.97 0 00-4.26-.06l-9.37 9.38c-.33.33-.56.74-.66 1.2l-.88 3.94a.5.5 0 00.6.6l3.92-.87c.47-.1.9-.34 1.24-.68L8.2 16c-.11-.39-.18-.8-.2-1.21l-.95.94c-.2.2-.46.35-.74.41l-3.16.7.7-3.18c.07-.27.2-.51.4-.7l7.99-8 2.8 2.8L13.78 9c.41.02.82.09 1.21.2l2.13-2.13a2.97 2.97 0 00.05-4.15zm-3.55.65a1.97 1.97 0 012.79 2.8l-.67.66-2.8-2.79.68-.67zm-2.56 7.86a2 2 0 01-1.43 2.48l-.46.12a4.7 4.7 0 000 1.02l.35.08A2 2 0 0111 17.66l-.13.42c.26.2.54.38.84.52l.32-.35a2 2 0 012.91 0l.34.36c.3-.13.57-.3.82-.5l-.15-.55a2 2 0 011.43-2.48l.46-.12a4.7 4.7 0 00-.01-1.01l-.35-.09A2 2 0 0116 11.34l.13-.42c-.26-.2-.54-.38-.84-.52l-.32.35a2 2 0 01-2.91 0l-.34-.36c-.29.13-.57.3-.82.5l.16.55zm2.43 4.06a1 1 0 110-2 1 1 0 010 2z"/></svg>