<svg width="24" height="24" viewBox="0 0 24 24" xmlns="http://www.w3.org/2000/svg"><path d="M15.9 3.05a3.58 3.58 0 115.05 5.06l-.89.89L15 3.94l.9-.9zM13.93 5l-10 10c-.4.4-.7.92-.82 1.48l-1.1 4.6a.75.75 0 00.9.9l4.6-1.1A3.1 3.1 0 009 20.06l1.15-1.15a6.52 6.52 0 017.76-7.76L19 10.06 13.94 5zm-.66 8.98a2 2 0 01-1.44 2.5l-.59.14a5.73 5.73 0 000 1.8l.55.13a2 2 0 011.45 2.51l-.19.64c.44.38.94.7 1.49.92l.49-.52a2 2 0 012.9 0l.5.52a5.28 5.28 0 001.48-.9l-.2-.7a2 2 0 011.44-2.5l.59-.14a5.73 5.73 0 00-.01-1.8l-.54-.13a2 2 0 01-1.45-2.51l.19-.63c-.44-.39-.94-.7-1.49-.93l-.49.52a2 2 0 01-2.9 0l-.5-.52c-.54.22-1.04.53-1.48.91l.2.69zM16.5 19c-.8 0-1.45-.67-1.45-1.5S15.7 16 16.5 16c.8 0 1.45.67 1.45 1.5S17.3 19 16.5 19z"/></svg>