<svg width="32" height="32" viewBox="0 0 32 32" xmlns="http://www.w3.org/2000/svg"><path d="M7.5 3A4.5 4.5 0 003 7.5v13A4.5 4.5 0 007.5 25h13a4.5 4.5 0 004.5-4.5v-13A4.5 4.5 0 0020.5 3h-13zM5 7.5A2.5 2.5 0 017.5 5h13A2.5 2.5 0 0123 7.5v13a2.5 2.5 0 01-2.5 2.5h-13A2.5 2.5 0 015 20.5v-13zm6 21a4.5 4.5 0 01-3.75-2H21.5a5 5 0 005-5v-14-.25c1.2.81 2 2.19 2 3.75v10.5a7 7 0 01-7 7H11zM7.5 16.37A2.37 2.37 0 019.88 14h8.24a2.37 2.37 0 012.38 2.38 4.6 4.6 0 01-2.04 3.9A7.85 7.85 0 0114 21.5a7.85 7.85 0 01-4.46-1.22 4.6 4.6 0 01-2.04-3.9zM9.88 16c-.21 0-.38.17-.38.38a2.6 2.6 0 001.18 2.26c.78.54 1.94.86 3.32.86s2.54-.32 3.32-.86a2.6 2.6 0 001.18-2.27c0-.2-.17-.37-.38-.37H9.88zm2.62-6.5a1.5 1.5 0 113 0 1.5 1.5 0 01-3 0zM14 6a3.5 3.5 0 100 7 3.5 3.5 0 000-7z"/></svg>