<svg width="20" height="20" viewBox="0 0 20 20" xmlns="http://www.w3.org/2000/svg"><path d="M9 8.5a2 2 0 1 0 0-4 2 2 0 0 0 0 4Zm0-1a1 1 0 1 1 0-2 1 1 0 0 1 0 2ZM6.5 9C5.67 9 5 9.67 5 10.5c0 .33.04 1.05.62 1.68.59.63 1.63 1.07 3.38 1.07s2.79-.43 3.37-1.06A2.4 2.4 0 0 0 13 10.5c0-.83-.67-1.5-1.5-1.5h-5ZM6 10.5c0-.28.22-.5.5-.5h5c.28 0 .5.22.5.5 0 .25-.03.66-.36 1-.32.35-1.04.75-2.64.75s-2.32-.4-2.64-.75a1.41 1.41 0 0 1-.36-1ZM3 6a3 3 0 0 1 3-3h6a3 3 0 0 1 3 3v6a3 3 0 0 1-3 3H6a3 3 0 0 1-3-3V6Zm3-2a2 2 0 0 0-2 2v6c0 1.1.9 2 2 2h6a2 2 0 0 0 2-2V6a2 2 0 0 0-2-2H6Zm2 13a3 3 0 0 1-2.24-1h6.74a3.5 3.5 0 0 0 3.5-3.5V5.76A3 3 0 0 1 17 8v4.5a4.5 4.5 0 0 1-4.5 4.5H8Z"/></svg>