<svg width="28" height="28" viewBox="0 0 28 28" xmlns="http://www.w3.org/2000/svg"><path d="M6.75 3A3.75 3.75 0 0 0 3 6.75v11.5A3.75 3.75 0 0 0 6.75 22h11.5A3.75 3.75 0 0 0 22 18.25V6.75A3.75 3.75 0 0 0 18.25 3H6.75Zm2.13 11h7.24c1.04 0 1.88.77 1.88 1.72a3.3 3.3 0 0 1-1.73 2.89c-1.02.61-2.36.89-3.77.89-1.4 0-2.75-.28-3.77-.9A3.3 3.3 0 0 1 7 15.73c0-.95.84-1.72 1.88-1.72Zm6.62-5a3 3 0 1 1-6 0 3 3 0 0 1 6 0ZM9.25 24.5c-1.24 0-2.34-.6-3.02-1.53.17.02.34.03.52.03h12C21.1 23 23 21.1 23 18.75v-12c0-.18 0-.35-.03-.52a3.74 3.74 0 0 1 1.53 3.02v9.5a5.75 5.75 0 0 1-5.75 5.75h-9.5Z"/></svg>