<svg width="16" height="16" viewBox="0 0 16 16" xmlns="http://www.w3.org/2000/svg"><path d="M13.5 1c.28 0 .5.22.5.5V2h.5a.5.5 0 0 1 0 1H14v.5a.5.5 0 0 1-1 0V3h-.5a.5.5 0 0 1 0-1h.5v-.5c0-.28.22-.5.5-.5Zm-10 2c.28 0 .5.22.5.5V4h.5a.5.5 0 1 1 0 1H4v.5a.5.5 0 1 1-1 0V5h-.5a.5.5 0 0 1 0-1H3v-.5c0-.28.22-.5.5-.5Zm9 9a.5.5 0 0 0 0-1H12v-.5a.5.5 0 0 0-1 0v.5h-.5a.5.5 0 0 0 0 1h.5v.5a.5.5 0 0 0 1 0V12h.5ZM8.73 4.56a1.91 1.91 0 0 1 2.7 2.71l-7.16 7.17a1.91 1.91 0 0 1-2.71-2.7l7.17-7.18Zm-.48 1.9-5.98 5.98a.91.91 0 0 0 1.29 1.3l5.98-5.99-1.29-1.3Zm2 .58.48-.48a.91.91 0 1 0-1.3-1.29l-.47.48 1.29 1.3Z"/></svg>