<svg width="20" height="20" viewBox="0 0 20 20" xmlns="http://www.w3.org/2000/svg"><path d="M6.5 10a.5.5 0 1 0 0 1 .5.5 0 0 0 0-1ZM6 12.5a.5.5 0 1 1 1 0 .5.5 0 0 1-1 0Zm2-2c0-.28.22-.5.5-.5h4a.5.5 0 0 1 0 1h-4a.5.5 0 0 1-.5-.5Zm.5 1.5a.5.5 0 0 0 0 1h4a.5.5 0 0 0 0-1h-4ZM6 2a2 2 0 0 0-2 2v10c0 1.1.9 2 2 2h7a2 2 0 0 0 2-2V7.41c0-.4-.16-.78-.44-1.06l-3.91-3.91A1.5 1.5 0 0 0 9.59 2H6ZM5 4a1 1 0 0 1 1-1h3v3.5c0 .83.67 1.5 1.5 1.5H14v6a1 1 0 0 1-1 1H6a1 1 0 0 1-1-1V4Zm5 2.5V3.2L13.8 7h-3.3a.5.5 0 0 1-.5-.5ZM16 8a1 1 0 0 1 1 1v5.06A3.94 3.94 0 0 1 13.06 18H7a1 1 0 0 1-1-1h7a3 3 0 0 0 3-3V8Z"/></svg>