<svg width="24" height="24" viewBox="0 0 24 24" xmlns="http://www.w3.org/2000/svg"><path d="M7.75 11.5a.75.75 0 100 1.5.75.75 0 000-1.5zM7 15.25a.75.75 0 111.5 0 .75.75 0 01-1.5 0zm3-3c0-.41.34-.75.75-.75h3.05a.75.75 0 010 1.5h-3.05a.75.75 0 01-.75-.75zm.75 2.25a.75.75 0 000 1.5h3.05a.75.75 0 000-1.5h-3.05zM6.25 2C5.01 2 4 3 4 4.25v13c0 1.24 1 2.25 2.25 2.25h9c1.24 0 2.25-1 2.25-2.25V8.87c0-.6-.24-1.17-.66-1.6l-4.62-4.61c-.42-.42-1-.66-1.59-.66H6.25zM5.5 4.25c0-.41.34-.75.75-.75h4.25v3.25C10.5 7.99 11.51 9 12.75 9H16v8.25c0 .41-.34.75-.75.75h-9a.75.75 0 01-.75-.75v-13zm6.5 2.5V4.56l2.94 2.94h-2.19a.75.75 0 01-.75-.75zM8.75 22c-.98 0-1.81-.63-2.12-1.5h8.62c1.8 0 3.25-1.46 3.25-3.25V8.94l.84.84c.42.42.66 1 .66 1.59v5.88A4.75 4.75 0 0115.25 22h-6.5z"/></svg>