<svg width="20" height="20" viewBox="0 0 20 20" xmlns="http://www.w3.org/2000/svg"><path d="M3.5 5.5a1 1 0 0 1 1.84-.56.75.75 0 0 0 1.24-.83A2.5 2.5 0 1 0 4.6 8h10.67a.75.75 0 0 0 0-1.5H4.5a1 1 0 0 1-1-1ZM9.75 4a.75.75 0 0 0 0 1.5h7.5a.75.75 0 0 0 0-1.5h-7.5Zm-4 5a.75.75 0 0 0 0 1.5h4.98A5.48 5.48 0 0 1 14.5 9H5.75Zm-3 2.5h7.14c-.3.46-.53.96-.68 1.5H2.75a.75.75 0 0 1 0-1.5Zm3 2.5h3.27a5.57 5.57 0 0 0 .07 1.5H5.75a.75.75 0 0 1 0-1.5Zm13.25.5a4.5 4.5 0 1 1-9 0 4.5 4.5 0 0 1 9 0Zm-4-2a.5.5 0 0 0-1 0V14h-1.5a.5.5 0 0 0 0 1H14v1.5a.5.5 0 1 0 1 0V15h1.5a.5.5 0 1 0 0-1H15v-1.5Z"/></svg>