<svg width="20" height="20" viewBox="0 0 20 20" xmlns="http://www.w3.org/2000/svg"><path d="M3 5.25a1.25 1.25 0 0 1 2.3-.7.5.5 0 1 0 .82-.55 2.25 2.25 0 1 0-1.74 3.5H15.5a.5.5 0 0 0 0-1H4.38a.5.5 0 0 0-.06 0A1.25 1.25 0 0 1 3 5.25ZM8.5 4a.5.5 0 0 0 0 1h9a.5.5 0 0 0 0-1h-9Zm-3 5a.5.5 0 0 0 0 1h5.84c.9-.63 1.98-1 3.16-1h-9Zm-3 2.5h7.39c-.2.31-.38.65-.52 1H2.5a.5.5 0 0 1 0-1Zm3 2.5h3.52a5.57 5.57 0 0 0 0 1H5.5a.5.5 0 0 1 0-1Zm13.5.5a4.5 4.5 0 1 1-9 0 4.5 4.5 0 0 1 9 0Zm-4-2a.5.5 0 0 0-1 0V14h-1.5a.5.5 0 0 0 0 1H14v1.5a.5.5 0 0 0 1 0V15h1.5a.5.5 0 0 0 0-1H15v-1.5Z"/></svg>