<svg width="24" height="24" viewBox="0 0 24 24" xmlns="http://www.w3.org/2000/svg"><path d="M17.5 12a5.5 5.5 0 1 1 0 11 5.5 5.5 0 0 1 0-11Zm0 2h-.09a.5.5 0 0 0-.4.4l-.01.1V17h-2.6a.5.5 0 0 0-.4.41v.18c.04.2.2.36.4.4l.1.01H17v2.6c.05.2.2.36.41.4h.18a.5.5 0 0 0 .4-.4l.01-.1V18h2.6a.5.5 0 0 0 .4-.41v-.18a.5.5 0 0 0-.4-.4l-.1-.01H18v-2.6a.5.5 0 0 0-.41-.4h-.09Zm-6.48 4c.05.7.22 1.38.48 2H7a1 1 0 0 1-.12-2h4.14Zm.48-3c-.26.62-.43 1.3-.48 2H4a1 1 0 0 1-.12-2h7.62Zm2.54-3c-.81.51-1.5 1.2-2.02 2H7a1 1 0 0 1-.12-2h7.16ZM6 5a3 3 0 0 1 2.78 1.87 1 1 0 0 1-1.8.86l-.05-.1A1 1 0 1 0 6 9h11.5a1 1 0 0 1 .12 2H6a3 3 0 0 1 0-6Zm14 1a1 1 0 0 1 .12 2H11a1 1 0 0 1-.12-2H20Z"/></svg>