<svg width="20" height="20" viewBox="0 0 20 20" xmlns="http://www.w3.org/2000/svg"><path d="M4.96 5.67 2.15 2.85a.5.5 0 1 1 .7-.7l15 15a.5.5 0 0 1-.7.7l-2.32-2.31A6.98 6.98 0 0 1 2.5 11c0-2.13.96-4.05 2.46-5.33Zm9.16 9.16L10 10.7v.79a.5.5 0 0 1-1 0V9.7L5.67 6.39A5.99 5.99 0 0 0 9.5 17c1.86 0 3.52-.85 4.62-2.17ZM9 6.5v.38l1 1V6.5a.5.5 0 0 0-1 0Zm6.5 4.5a6 6 0 0 1-.35 2.03l.77.77A7 7 0 0 0 6.7 4.58l.77.77A5.99 5.99 0 0 1 15.5 11Zm-8-9a.5.5 0 0 0 0 1h4a.5.5 0 0 0 0-1h-4Zm7.66 1.93a.5.5 0 1 0-.71.7l1.41 1.42a.5.5 0 1 0 .71-.7l-1.41-1.42Z"/></svg>