<svg width="24" height="24" viewBox="0 0 24 24" xmlns="http://www.w3.org/2000/svg"><path d="M3.28 2.22a.75.75 0 1 0-1.06 1.06l4 4a8.5 8.5 0 1 0 12.01 12.01l2.49 2.5a.75.75 0 0 0 1.06-1.07L3.28 2.22Zm13.88 16a7 7 0 1 1-9.89-9.89l3.98 3.98v1.04a.75.75 0 0 0 1.37.33l4.54 4.55Zm-5.72-9.97 1.31 1.32V8.65a.75.75 0 0 0-1.31-.4ZM19 13.5a7 7 0 0 1-.3 2.02l1.18 1.18A8.5 8.5 0 0 0 8.8 5.62L9.97 6.8A7 7 0 0 1 19 13.5Zm.15-8.39.08.06 1.16.97a.75.75 0 0 1-.88 1.21l-.08-.06-1.16-.96a.75.75 0 0 1 .88-1.22Zm-4.9-2.61a.75.75 0 0 1 .1 1.5h-4.6a.75.75 0 0 1-.1-1.5h4.6Z"/></svg>