<svg width="24" height="24" viewBox="0 0 24 24" xmlns="http://www.w3.org/2000/svg"><path d="M6.75 3A4.75 4.75 0 002 7.75v4.5a5.5 5.5 0 011.5-.88V7.75c0-1.8 1.46-3.25 3.25-3.25h10c.41 0 .75.34.75.75v.25H19v-.25C19 4.01 18 3 16.75 3h-10zm13 17.5h-7.78l-1.5-1.5h9.28c.41 0 .75-.34.75-.75v-9.5a.75.75 0 00-.75-.75h-12a.75.75 0 00-.75.75v2.46A5.5 5.5 0 005.5 11V8.75c0-1.24 1-2.25 2.25-2.25h12c1.24 0 2.25 1 2.25 2.25v9.5c0 1.24-1 2.25-2.25 2.25zM5.5 21c.97 0 1.87-.3 2.6-.83l2.62 2.61a.75.75 0 101.06-1.06l-2.61-2.61A4.5 4.5 0 105.5 21zm0-1.5a3 3 0 110-6 3 3 0 010 6z"/></svg>