<svg width="16" height="16" viewBox="0 0 16 16" xmlns="http://www.w3.org/2000/svg"><path d="M8 9a1 1 0 1 0 0-2 1 1 0 0 0 0 2ZM4.5 8a3.5 3.5 0 0 1 6.86-.98l-1.4 1.4A2 2 0 0 0 8 6a2 2 0 1 0 .42 3.95l-1.08 1.08-.3.34A3.5 3.5 0 0 1 4.5 8ZM8 3.5a4.5 4.5 0 0 1 4.18 2.83c.45-.26.97-.37 1.48-.32a6 6 0 1 0-7.54 7.69l.23-.91c.04-.19.1-.36.18-.54A4.5 4.5 0 0 1 8 3.5Zm3.49 4.8L8.3 11.48l-.26.26a2.77 2.77 0 0 0-.73 1.29l-.23.9-.07.31a.6.6 0 0 0 .73.74l1.22-.3c.48-.12.93-.38 1.29-.73l4.28-4.29a1.56 1.56 0 0 0-2.09-2.31l-.11.1-.85.85Z"/></svg>