<svg width="16" height="16" viewBox="0 0 16 16" xmlns="http://www.w3.org/2000/svg"><path d="M4.5 6h1a1.5 1.5 0 0 1 0 3H5v1.5a.5.5 0 0 1-1 0v-4a.5.5 0 0 1 .5-.5ZM5 8h.5a.5.5 0 0 0 0-1H5v1Zm5 .67 1.4-1.87a.5.5 0 1 0-.8-.6L9.5 7.67 8.4 6.2a.5.5 0 1 0-.8.6L9 8.67v1.83a.5.5 0 0 0 1 0V8.67ZM2.75 3C1.78 3 1 3.78 1 4.75v7.5c0 .97.78 1.75 1.75 1.75h9.5c.97 0 1.75-.78 1.75-1.75v-7.5C14 3.78 13.22 3 12.25 3h-9.5ZM2 4.75c0-.41.34-.75.75-.75h9.5c.41 0 .75.34.75.75v7.5c0 .41-.34.75-.75.75h-9.5a.75.75 0 0 1-.75-.75v-7.5Z"/></svg>