<svg width="16" height="16" viewBox="0 0 16 16" xmlns="http://www.w3.org/2000/svg"><path d="M5.5 10a4.5 4.5 0 1 0 0-9 4.5 4.5 0 0 0 0 9Zm1.85-5.15-2 2a.5.5 0 0 1-.7 0l-1-1a.5.5 0 1 1 .7-.7l.65.64 1.65-1.64a.5.5 0 1 1 .7.7ZM6 10.98v1.52A2.5 2.5 0 0 0 8.5 15h4a2.5 2.5 0 0 0 2.5-2.5v-4A2.5 2.5 0 0 0 12.5 6h-1.52c-.03.34-.1.68-.19 1h1.71c.83 0 1.5.67 1.5 1.5v4c0 .83-.67 1.5-1.5 1.5h-4A1.5 1.5 0 0 1 7 12.5v-1.7c-.32.08-.66.15-1 .18Zm6.35-1.13a.5.5 0 0 0-.7-.7L10 10.79l-.65-.64a.5.5 0 0 0-.7.7l1 1c.2.2.5.2.7 0l2-2Z"/></svg>