<svg width="16" height="16" viewBox="0 0 16 16" xmlns="http://www.w3.org/2000/svg"><path d="M9 5.5a3.5 3.5 0 1 0-7 0 3.5 3.5 0 0 0 7 0Zm1 0a4.5 4.5 0 1 1-9 0 4.5 4.5 0 0 1 9 0Zm-4 7v-1.52c.34-.03.68-.1 1-.19v1.71c0 .83.67 1.5 1.5 1.5h4c.83 0 1.5-.67 1.5-1.5v-4c0-.83-.67-1.5-1.5-1.5h-1.7c.09-.32.15-.66.18-1h1.52A2.5 2.5 0 0 1 15 8.5v4a2.5 2.5 0 0 1-2.5 2.5h-4A2.5 2.5 0 0 1 6 12.5Zm1.35-8.35c.2.2.2.5 0 .7l-2 2a.5.5 0 0 1-.7 0l-1-1a.5.5 0 1 1 .7-.7l.65.64 1.65-1.64c.2-.2.5-.2.7 0Zm5 5.7a.5.5 0 0 0-.7-.7L10 10.79l-.65-.64a.5.5 0 0 0-.7.7l1 1c.2.2.5.2.7 0l2-2Z"/></svg>