<svg width="20" height="20" viewBox="0 0 20 20" xmlns="http://www.w3.org/2000/svg"><path d="M12 7A5 5 0 1 0 2 7a5 5 0 0 0 10 0Zm1 0A6 6 0 1 1 1 7a6 6 0 0 1 12 0Zm-5 9v-2.07c.34-.05.68-.12 1-.22V16c0 1.1.9 2 2 2h5a2 2 0 0 0 2-2v-5a2 2 0 0 0-2-2h-2.29c.1-.32.17-.66.22-1H16a3 3 0 0 1 3 3v5a3 3 0 0 1-3 3h-5a3 3 0 0 1-3-3ZM9.85 5.15c.2.2.2.5 0 .7l-3 3a.5.5 0 0 1-.7 0l-1.5-1.5a.5.5 0 1 1 .7-.7L6.5 7.79l2.65-2.64c.2-.2.5-.2.7 0Zm3.5 10.2 3-3a.5.5 0 0 0-.7-.7L13 14.29l-1.15-1.14a.5.5 0 0 0-.7.7l1.5 1.5c.2.2.5.2.7 0Z"/></svg>