<svg width="24" height="24" viewBox="0 0 24 24" xmlns="http://www.w3.org/2000/svg"><path d="M8.5 16a7.5 7.5 0 1 0 0-15 7.5 7.5 0 0 0 0 15Zm3.78-9.22-4 4c-.3.3-.77.3-1.06 0l-2-2a.75.75 0 0 1 1.06-1.06l1.47 1.47 3.47-3.47a.75.75 0 1 1 1.06 1.06Zm8 6.94c.3.3.3.77 0 1.06l-4 4c-.3.3-.77.3-1.06 0l-2-2a.75.75 0 1 1 1.06-1.06l1.47 1.47 3.47-3.47c.3-.3.77-.3 1.06 0ZM9.75 20v-3.1c.52-.07 1.02-.19 1.5-.35V20c0 .97.78 1.75 1.75 1.75h7c.97 0 1.75-.78 1.75-1.75v-7c0-.97-.78-1.75-1.75-1.75h-3.45c.16-.48.28-.98.36-1.5H20c1.8 0 3.25 1.46 3.25 3.25v7c0 1.8-1.46 3.25-3.25 3.25h-7A3.25 3.25 0 0 1 9.75 20Z"/></svg>