<svg width="28" height="28" viewBox="0 0 28 28" xmlns="http://www.w3.org/2000/svg"><path d="M23.5 6.75c0-1.24-1-2.25-2.25-2.25h-5a.75.75 0 0 1 0-1.5h5A3.75 3.75 0 0 1 25 6.75v14.5A3.75 3.75 0 0 1 21.25 25H6.75A3.75 3.75 0 0 1 3 21.25v-5a.75.75 0 0 1 1.5 0v5c0 1.24 1 2.25 2.25 2.25H14v-6.75A2.75 2.75 0 0 1 16.75 14h6.75V6.75Zm0 8.75h-6.75c-.69 0-1.25.56-1.25 1.25v6.75h5.75c1.24 0 2.25-1 2.25-2.25V15.5Zm-11-11.75a.75.75 0 0 0-.75-.75h-8a.75.75 0 0 0-.75.75v8a.75.75 0 0 0 1.5 0V5.56l6.22 6.22a.75.75 0 1 0 1.06-1.06L5.56 4.5h6.19c.41 0 .75-.34.75-.75Z"/></svg>