<svg width="24" height="24" viewBox="0 0 24 24" xmlns="http://www.w3.org/2000/svg"><path d="M15.9 3.05 3.93 15c-.4.4-.7.92-.82 1.48l-1.1 4.6a.75.75 0 0 0 .9.9l4.6-1.1A3.1 3.1 0 0 0 9 20.07l1.15-1.15a6.52 6.52 0 0 1-.12-2L7.94 19a1.6 1.6 0 0 1-.76.43l-3.42.8.82-3.4c.06-.3.21-.56.42-.77l10-10L17.94 9l-2.03 2.03a6.57 6.57 0 0 1 2 .12l3.04-3.04a3.58 3.58 0 0 0-5.06-5.06Zm4 1.06c.8.81.8 2.13 0 2.94l-.9.89L16.06 5l.9-.9a2.08 2.08 0 0 1 2.93 0ZM22 17.5a5.5 5.5 0 1 1-11 0 5.5 5.5 0 0 1 11 0Zm-6.65-2.15a.5.5 0 0 0-.7-.7l-1.5 1.5a.5.5 0 0 0 0 .7l1.5 1.5a.5.5 0 0 0 .7-.7l-.64-.65h2.04c1.24 0 2.25 1 2.25 2.25v.25a.5.5 0 0 0 1 0v-.25c0-1.8-1.46-3.25-3.25-3.25h-2.04l.64-.65Z"/></svg>