<svg width="16" height="16" viewBox="0 0 16 16" xmlns="http://www.w3.org/2000/svg"><path d="M9.73 1.56a1.91 1.91 0 0 1 2.71 2.7l-.73.74L9 2.3l.73-.74ZM8.3 3 2.34 8.95c-.18.19-.32.4-.4.65l-.91 2.74a.5.5 0 0 0 .63.63l2.74-.91c.24-.08.46-.22.65-.4l.06-.06A5.53 5.53 0 0 1 10.3 5l-2-2Zm2.21 12a4.5 4.5 0 1 0 0-9 4.5 4.5 0 0 0 0 9Zm-.9-6.4-.9.9h1.55A2.75 2.75 0 0 1 13 12.25v.25a.5.5 0 0 1-1 0v-.25c0-.97-.78-1.75-1.75-1.75H8.71l.9.9a.5.5 0 0 1-.71.7l-1.76-1.75a.5.5 0 0 1 0-.7L8.9 7.9a.5.5 0 1 1 .7.7Z"/></svg>