<svg width="28" height="28" viewBox="0 0 28 28" xmlns="http://www.w3.org/2000/svg"><path d="M3.5 6.68V9h5.92c.33 0 .65-.13.89-.37l1.88-1.88-1.88-1.88a1.25 1.25 0 0 0-.89-.37H5.75c-1.22 0-2.21.97-2.25 2.18ZM2 9.83V6.75A3.75 3.75 0 0 1 5.75 3h3.67c.73 0 1.43.29 1.95.8l2.2 2.2h8.68A3.75 3.75 0 0 1 26 9.75v4.65c-.44-.48-.95-.9-1.5-1.25v-3.4c0-1.24-1-2.25-2.25-2.25h-8.69l-2.2 2.2c-.51.51-1.2.8-1.94.8H3.5v9.75c0 1.24 1.01 2.25 2.25 2.25h7.87c.24.54.53 1.04.88 1.5H5.75A3.75 3.75 0 0 1 2 20.25V9.83ZM20.5 13a6.5 6.5 0 1 1 0 13 6.5 6.5 0 0 1 0-13Zm-4 6a.5.5 0 0 0 0 1h6.8l-2.15 2.15a.5.5 0 0 0 .7.7l3-3a.5.5 0 0 0 .15-.35.5.5 0 0 0-.15-.35l-3-3a.5.5 0 0 0-.7.7L23.29 19H16.5Z"/></svg>