<svg width="48" height="48" viewBox="0 0 48 48" xmlns="http://www.w3.org/2000/svg"><path d="M4 12.25C4 8.8 6.8 6 10.25 6h6.46c1 0 1.95.4 2.66 1.1l3.38 3.38-5.15 5.15c-.24.24-.55.37-.89.37H4v-3.75Zm0 6.25v16.25C4 38.2 6.8 41 10.25 41h13.8A13 13 0 0 1 44 24.62v-7.37C43.99 13.8 41.2 11 37.74 11H25.77l-6.4 6.4c-.7.7-1.66 1.1-2.66 1.1H4ZM35 23a11 11 0 1 1 0 22 11 11 0 0 1 0-22Zm-8 11a1 1 0 0 0 1 1h11.59l-3.3 3.3a1 1 0 0 0 1.42 1.4l5-5a1 1 0 0 0 0-1.4l-5-5a1 1 0 0 0-1.42 1.4l3.3 3.3H28a1 1 0 0 0-1 1Z"/></svg>