<svg width="16" height="16" viewBox="0 0 16 16" xmlns="http://www.w3.org/2000/svg"><path d="M3 5.5V10a1 1 0 0 0 1 1h1.02c.03.34.1.68.19 1H4a2 2 0 0 1-2-2V4c0-1.1.9-2 2-2h1.75a.5.5 0 0 1 .32.11l1.1.89H12a2 2 0 0 1 2 2v1.26a5.5 5.5 0 0 0-1-.66V5a1 1 0 0 0-1-1H7.23L6.14 5.32a.5.5 0 0 1-.39.18H3ZM5.58 3H4a1 1 0 0 0-1 1v.5h2.52l.77-.93L5.58 3Zm.45 8a4.47 4.47 0 0 0 4.47 4 4.5 4.5 0 1 0-4.47-4Zm4.82 1.85a.5.5 0 0 1-.7-.7L11.29 11H8.5a.5.5 0 0 1 0-1h2.8l-1.15-1.15a.5.5 0 0 1 .7-.7l2 2a.5.5 0 0 1 .15.35.5.5 0 0 1-.14.35l-2 2Z"/></svg>