<svg width="28" height="28" viewBox="0 0 28 28" xmlns="http://www.w3.org/2000/svg"><path d="M21.5 15a5.5 5.5 0 1 1 0 11 5.5 5.5 0 0 1 0-11ZM10.2 4c.47 0 .92.14 1.3.4l.15.12 2.37 1.98h9.73c1.14 0 2.08.84 2.23 1.94l.01.16.01.15v7.06a6.52 6.52 0 0 0-1.5-1.08V8.75c0-.38-.28-.7-.65-.74l-.1-.01h-9.73l-2.37 1.98c-.36.3-.8.47-1.25.51l-.2.01H3.5v11.25c0 .38.28.7.65.74l.1.01h11.06c.18.53.42 1.04.71 1.5H4.25c-1.2 0-2.17-.93-2.24-2.1L2 21.75V6.25c0-1.2.93-2.17 2.1-2.24L4.25 4h5.96Zm11.6 13.55-.08.04-.07.06-.06.07a.5.5 0 0 0 0 .56l.06.07L23.29 20H18.4a.5.5 0 0 0-.4.41v.18c.04.2.2.36.4.4l.1.01h4.8l-1.65 1.65-.06.07a.5.5 0 0 0 .7.7l.06-.07 2.54-2.54.03-.04.04-.08.03-.08V20.39l-.03-.08-.04-.08-.04-.05-2.53-2.53-.07-.06a.5.5 0 0 0-.49-.04ZM10.2 5.5H4.26c-.38 0-.7.28-.74.65l-.01.1V9h6.7c.15 0 .28-.04.4-.11l.09-.06 1.89-1.58-1.9-1.58a.75.75 0 0 0-.37-.16l-.1-.01Z"/></svg>