<svg width="20" height="20" viewBox="0 0 20 20" xmlns="http://www.w3.org/2000/svg"><path d="M16 10.4v.6h-3.5a.5.5 0 0 0-.5.5v.01a1.75 1.75 0 0 1-.03.3c-.04.2-.1.46-.23.72-.13.25-.3.49-.57.66-.26.18-.63.31-1.17.31-.54 0-.9-.13-1.17-.3a1.7 1.7 0 0 1-.57-.67A2.57 2.57 0 0 1 8 11.5v-.01a.5.5 0 0 0-.5-.5H4V7c0-1.1.9-2 2-2h2.02c.03-.34.1-.68.19-1H6a3 3 0 0 0-3 3v8a3 3 0 0 0 3 3h8a3 3 0 0 0 3-3V9.74c-.3.26-.64.48-1 .66Zm-2.5-.4a4.5 4.5 0 1 0 0-9 4.5 4.5 0 0 0 0 9Zm-2.35-4.15a.5.5 0 0 1 .7-.7L13 6.29V3.5a.5.5 0 0 1 1 0v2.8l1.15-1.15a.5.5 0 0 1 .7.7l-2 2a.5.5 0 0 1-.35.15.5.5 0 0 1-.35-.14l-2-2Z"/></svg>