<svg width="24" height="24" viewBox="0 0 24 24" xmlns="http://www.w3.org/2000/svg"><path d="M3.75 4a.75.75 0 000 1.5h16.5a.75.75 0 000-1.5H3.75zM3 8.25c0-.41.34-.75.75-.75h4.68A5 5 0 007.42 9H3.75A.75.75 0 013 8.25zM15.46 9a4.02 4.02 0 00-5.4-1.5A4.02 4.02 0 008 11v4.75a.75.75 0 101.5 0V11a2.5 2.5 0 115 0v4.75a.75.75 0 00.75.75.75.75 0 00.75-.75V11c0-.73-.2-1.41-.54-2zM3.75 11H7v1.5H3.75a.75.75 0 010-1.5zm0 3.5H7v1.25c0 .08 0 .17.02.25H3.75a.75.75 0 010-1.5zm9.75 1.25c0 .08 0 .17.02.25h-3.04l.02-.25V14.5h3v1.25zm6.75-3.25H17V11h3.25a.75.75 0 010 1.5zM17 15.75c0 .08 0 .17-.02.25h3.27a.75.75 0 000-1.5H17v1.25zm-3.5-3.25h-3V11h3v1.5zm2.07-5A5 5 0 0116.58 9h3.67a.75.75 0 000-1.5h-4.68zM3.75 18a.75.75 0 000 1.5h16.5a.75.75 0 000-1.5H3.75z"/></svg>