<svg width="20" height="20" viewBox="0 0 20 20" xmlns="http://www.w3.org/2000/svg"><path d="M3.5 2.75a.75.75 0 000 1.5h13a.75.75 0 000-1.5h-13zM7.75 8.5a2.25 2.25 0 014.5 0v5a.75.75 0 001.5 0v-5a3.75 3.75 0 10-7.5 0v5a.75.75 0 001.5 0v-5zm-5 7c0-.41.34-.75.75-.75h13a.75.75 0 010 1.5h-13a.75.75 0 01-.75-.75zm13.75-3.75h-1.75v1.5h1.75a.75.75 0 000-1.5zm-13 0h1.75v1.5H3.5a.75.75 0 010-1.5zm5.25-3h2.5v1.5h-2.5v-1.5zm0 3h2.5v1.5h-2.5v-1.5zm-3.5-3v1.5H3.5a.75.75 0 010-1.5h1.75zm11.25 0h-1.75v1.5h1.75a.75.75 0 000-1.5zm-2.63-3c.32.45.57.95.71 1.5h1.92a.75.75 0 000-1.5h-2.63zm-7.74 0c-.32.45-.57.95-.71 1.5H3.5a.75.75 0 010-1.5h2.63z"/></svg>