<svg width="24" height="24" viewBox="0 0 24 24" xmlns="http://www.w3.org/2000/svg"><path d="M3.75 3.75a1 1 0 000 2h16.5a1 1 0 100-2H3.75zm12.12 5.5a4.27 4.27 0 00-5.87-2A4.27 4.27 0 007.75 11v4.75a1 1 0 001 1 1 1 0 001-1V11a2.28 2.28 0 01.84-1.75 2.24 2.24 0 012.82 0 2.25 2.25 0 01.84 1.75v4.75a1 1 0 001 1 1 1 0 001-1V11a4.32 4.32 0 00-.38-1.75zm-12.12-2h4.58c-.57.55-1.01 1.24-1.28 2h-3.3a1 1 0 010-2zm0 3.5h3v2h-3a1 1 0 110-2zm0 3.5h3v1.5a2 2 0 00.06.5H3.75a1 1 0 110-2zm7 1.5a2 2 0 01-.06.5h2.62a2 2 0 01-.06-.5v-1.5h-2.5v1.5zm6.5 0a2 2 0 01-.06.5h3.06a1 1 0 100-2h-3v1.5zm3-3h-3V11v-.25h3a1 1 0 110 2zm-7-1.75v1.75h-2.5V11c0-.09 0-.17.03-.25h2.45l.02.25zm7-1.75h-3.3a5.25 5.25 0 00-1.28-2h4.58a1 1 0 110 2zm-16.5 8.5h16.5a1 1 0 110 2H3.75a1 1 0 110-2z"/></svg>