<svg width="24" height="24" viewBox="0 0 24 24" xmlns="http://www.w3.org/2000/svg"><path d="M3 6.25C3 4.45 4.46 3 6.25 3h11.5C19.55 3 21 4.46 21 6.25v5.17c-.39-.46-.9-.82-1.5-1.01V6.25c0-.97-.78-1.75-1.75-1.75h-5v5.84c-.57.13-1.09.42-1.5.81V4.5h-5c-.97 0-1.75.78-1.75 1.75v5h6.65c-.39.41-.68.93-.81 1.5H4.5v5c0 .97.78 1.75 1.75 1.75h4.16c.19.6.55 1.11 1.01 1.5H6.25A3.25 3.25 0 0 1 3 17.75V6.25Zm8.25 7.25c0-1.24 1-2.25 2.25-2.25h5c1.24 0 2.25 1 2.25 2.25v5c0 1.24-1 2.25-2.25 2.25h-5c-1.24 0-2.25-1-2.25-2.25v-5Z"/></svg>