<svg width="28" height="28" viewBox="0 0 28 28" xmlns="http://www.w3.org/2000/svg"><path d="M6.75 3h14.5A3.75 3.75 0 0 1 25 6.75v6.45c-.4-.44-.92-.78-1.5-.99V6.75c0-1.24-1-2.25-2.25-2.25h-6.5v7.63c-.56.16-1.08.45-1.5.82V4.5h-6.5c-1.24 0-2.25 1-2.25 2.25v6.5h8.45c-.37.42-.66.94-.82 1.5H4.5v6.5c0 1.24 1 2.25 2.25 2.25h5.46c.2.58.55 1.1.99 1.5H6.75A3.75 3.75 0 0 1 3 21.25V6.75A3.75 3.75 0 0 1 6.75 3ZM13 15.75A2.75 2.75 0 0 1 15.75 13h6.5A2.75 2.75 0 0 1 25 15.75v6.5A2.75 2.75 0 0 1 22.25 25h-6.5A2.75 2.75 0 0 1 13 22.25v-6.5Z"/></svg>