<svg width="32" height="32" viewBox="0 0 32 32" xmlns="http://www.w3.org/2000/svg"><path d="M3 7.5A4.5 4.5 0 0 1 7.5 3h17A4.5 4.5 0 0 1 29 7.5v7.29a4.74 4.74 0 0 0-2-1.12V7.5A2.5 2.5 0 0 0 24.5 5H17v8.67c-.76.2-1.44.6-2 1.12V5H7.5A2.5 2.5 0 0 0 5 7.5V15h9.79a4.74 4.74 0 0 0-1.12 2H5v7.5A2.5 2.5 0 0 0 7.5 27h6.17c.2.76.6 1.44 1.12 2H7.5A4.5 4.5 0 0 1 3 24.5v-17Zm12 10.75c0-1.8 1.46-3.25 3.25-3.25h7.5c1.8 0 3.25 1.46 3.25 3.25v7.5c0 1.8-1.46 3.25-3.25 3.25h-7.5A3.25 3.25 0 0 1 15 25.75v-7.5Z"/></svg>