<svg width="20" height="20" viewBox="0 0 20 20" xmlns="http://www.w3.org/2000/svg"><path d="M17.78 4.22a.75.75 0 0 1-1.06 1.06L16 4.56v3.69a.75.75 0 0 1-1.5 0V4.56l-.72.72a.75.75 0 1 1-1.06-1.06l2-2c.3-.3.77-.3 1.06 0l2 2ZM3 4.25c0-.41.34-.75.75-.75h5.5a.75.75 0 0 1 0 1.5h-5.5A.75.75 0 0 1 3 4.25ZM15.25 11c.41 0 .75.34.75.75v3.69l.72-.72a.75.75 0 1 1 1.06 1.06l-2 2c-.3.3-.77.3-1.06 0l-2-2a.75.75 0 1 1 1.06-1.06l.72.72v-3.69c0-.41.34-.75.75-.75ZM3 9.25c0-.41.34-.75.75-.75h7.5a.75.75 0 0 1 0 1.5h-7.5A.75.75 0 0 1 3 9.25Zm.75 4.25a.75.75 0 0 0 0 1.5h5.5a.75.75 0 0 0 0-1.5h-5.5Z"/></svg>