<svg width="24" height="24" viewBox="0 0 24 24" xmlns="http://www.w3.org/2000/svg"><path d="M14.2 14.75c.27.3.74.33 1.05.06l2.5-2.25a.75.75 0 000-1.12l-2.5-2.25a.75.75 0 00-1 1.12l1.05.94h-3.55a.75.75 0 100 1.5h3.55l-1.05.94a.75.75 0 00-.06 1.06zM2 6.75A2.75 2.75 0 014.75 4h14.5A2.75 2.75 0 0122 6.75v10.5A2.75 2.75 0 0119.25 20H4.75A2.75 2.75 0 012 17.25V6.75zM4.75 5.5c-.69 0-1.25.56-1.25 1.25v10.5c0 .69.56 1.25 1.25 1.25H8v-13H4.75zm4.75 0v13h9.75c.69 0 1.25-.56 1.25-1.25V6.75c0-.69-.56-1.25-1.25-1.25H9.5z"/></svg>