<svg width="20" height="20" viewBox="0 0 20 20" xmlns="http://www.w3.org/2000/svg"><path d="M10.5 3.5a.5.5 0 00-.68-.46L3.95 5.36A1.5 1.5 0 003 6.76v5.74c0 .35.36.6.68.46l.32-.12v1.07c-.97.35-2-.37-2-1.41V6.75a2.5 2.5 0 011.58-2.32l5.87-2.32a1.5 1.5 0 012.05 1.3l-1 .4v-.3zm3 2a.5.5 0 00-.68-.46L6.63 7.49a1 1 0 00-.63.93v6.08c0 .35.36.6.68.46L8 14.44v1.08l-.95.37A1.5 1.5 0 015 14.5V8.43a2 2 0 011.26-1.86l6.19-2.45a1.5 1.5 0 012.05 1.4v.1l-1 .39v-.5zm2.82 1.54a.5.5 0 01.68.46v6.62a.5.5 0 01-.32.47l-6 2.37a.5.5 0 01-.68-.46V9.88c0-.2.13-.4.32-.47l6-2.37zM18 7.5a1.5 1.5 0 00-2.05-1.4l-6 2.38A1.5 1.5 0 009 9.88v6.62a1.5 1.5 0 002.05 1.4l6-2.38c.57-.23.95-.78.95-1.4V7.5z"/></svg>