<svg width="16" height="16" viewBox="0 0 16 16" xmlns="http://www.w3.org/2000/svg"><path d="m12.37.57 3.51 6.32A.75.75 0 0 1 15.23 8H7.77A.75.75 0 0 1 7.1 6.9L10.63.57a1 1 0 0 1 1.74 0ZM11.5 7a.5.5 0 1 0 0-1 .5.5 0 0 0 0 1ZM11 2v2.5a.5.5 0 1 0 1 0V2a.5.5 0 0 0-1 0ZM6.83 6.04l-1.07.98a6.62 6.62 0 0 0 .59 1.43 6.27 6.27 0 0 0 .93 1.22l1.4-.44a2 2 0 0 1 2.14.64l.84 1.02a1.9 1.9 0 0 1-.17 2.6c-1.32 1.22-3.37 1.55-4.8.24A15.9 15.9 0 0 1 1.9 5.5c-.4-1.89.91-3.48 2.63-4.01.97-.3 2 .21 2.35 1.16l.46 1.22a2 2 0 0 1-.52 2.18Z"/></svg>