<svg width="20" height="20" viewBox="0 0 20 20" xmlns="http://www.w3.org/2000/svg"><path d="M2.15 2.15c.2-.2.5-.2.7 0l15 15a.5.5 0 0 1-.7.7L15.29 16H3.51a1.5 1.5 0 0 1-1.5-1.5V9.89c.16.07.33.1.5.11.17 0 .34-.04.5-.1v4.6a.5.5 0 0 0 .5.5h2.5v-1.5A1.5 1.5 0 0 1 7.5 12h3.78l-1.01-1.02A2.5 2.5 0 0 1 7.5 8.22L2.15 2.85a.5.5 0 0 1 0-.7ZM17.62 15.5l-.71-.71a.5.5 0 0 0 .1-.29v-9a.5.5 0 0 0-.5-.5H7.11l-1-1H16.5A1.5 1.5 0 0 1 18 5.5v9c0 .37-.13.73-.38 1ZM8.57 6.45a2.5 2.5 0 0 1 3.48 3.48L8.57 6.45ZM4.03 9.39a.18.18 0 0 1 .09-.06l.45-.15a.94.94 0 0 0 .6-.6l.14-.46a.18.18 0 0 1 .1-.1L5.49 8a.18.18 0 0 1 .13.06l.04.06.15.46a.95.95 0 0 0 .6.6l.46.15c.02 0 .03 0 .04.02a.18.18 0 0 1-.03.32l-.46.15a.95.95 0 0 0-.6.6l-.15.45a.18.18 0 0 1-.17.12.18.18 0 0 1-.17-.12l-.14-.46a.94.94 0 0 0-.6-.6l-.46-.14a.18.18 0 0 1-.09-.07.18.18 0 0 1-.03-.1c0-.04.01-.08.03-.1Zm-1.7-.44A.3.3 0 0 0 2.5 9a.3.3 0 0 0 .28-.18V8.8l.25-.77a1.58 1.58 0 0 1 1-1l.77-.24a.3.3 0 0 0 .14-.46.3.3 0 0 0-.14-.11h-.02l-.76-.25c-.24-.08-.45-.21-.62-.38-.12-.12-.2-.26-.28-.4a1.44 1.44 0 0 1-.1-.22l-.25-.77a.3.3 0 0 0-.28-.2.3.3 0 0 0-.29.2l-.25.77v.02a1.58 1.58 0 0 1-.98.98l-.77.25a.3.3 0 0 0-.2.28.3.3 0 0 0 .2.29l.77.24a1.58 1.58 0 0 1 1 1l.25.77c.02.06.05.1.1.15Z"/></svg>