<svg width="24" height="24" viewBox="0 0 24 24" xmlns="http://www.w3.org/2000/svg"><path d="M2.22 2.22c.3-.3.77-.3 1.06 0l18.5 18.5a.75.75 0 0 1-1.06 1.06L18.94 20H4.25A2.25 2.25 0 0 1 2 17.75v-6.2c.06.07.13.14.21.2a1.38 1.38 0 0 0 1.29.14v5.86a.75.75 0 0 0 .75.75H7v-2.76A1.75 1.75 0 0 1 8.6 14h4.33l-1-1A3 3 0 0 1 9 10.06L2.22 3.28a.75.75 0 0 1 0-1.06Zm12.4 9.23-4.07-4.08a3 3 0 0 1 4.08 4.08Zm5.88 5.86V6.25a.75.75 0 0 0-.75-.75H8.68L7.18 4h12.57A2.25 2.25 0 0 1 22 6.25v11.5c0 .3-.06.6-.18.89L20.5 17.3ZM2.66 10.76l-.3-.92a1.91 1.91 0 0 0-1.2-1.2l-.92-.3a.36.36 0 0 1-.17-.55c.04-.06.1-.1.17-.13l.92-.3a1.9 1.9 0 0 0 1.18-1.18v-.02l.3-.92a.36.36 0 0 1 .55-.17c.07.04.11.1.14.17l.3.92a1.88 1.88 0 0 0 1.2 1.2l.91.3h.02c.07.02.13.07.18.13a.37.37 0 0 1 0 .42c-.05.06-.1.1-.18.13l-.92.3a1.89 1.89 0 0 0-1.2 1.2l-.3.92v.02a.38.38 0 0 1-.13.15.37.37 0 0 1-.42 0 .36.36 0 0 1-.13-.17Zm2.77.61-.54.18a.21.21 0 0 0-.1.32.2.2 0 0 0 .1.08l.54.17a1.12 1.12 0 0 1 .7.7l.17.54a.21.21 0 0 0 .32.1.22.22 0 0 0 .08-.1l.17-.54a1.1 1.1 0 0 1 .7-.7l.54-.17a.21.21 0 0 0 .14-.2.2.2 0 0 0-.14-.2H8.1l-.54-.17a1.12 1.12 0 0 1-.7-.7l-.17-.54a.22.22 0 0 0-.08-.1.22.22 0 0 0-.2-.03.22.22 0 0 0-.12.12l-.18.54c-.02.08-.05.16-.1.23-.04.07-.1.14-.15.2-.12.12-.27.22-.43.27Z"/></svg>