<svg width="48" height="48" viewBox="0 0 48 48" xmlns="http://www.w3.org/2000/svg"><path d="M41.97 6.02a6.9 6.9 0 0 0-9.76 0L8.04 30.2a6 6 0 0 0-1.57 2.75l-2.43 9.49a1.25 1.25 0 0 0 1.52 1.52l9.49-2.42a6 6 0 0 0 2.76-1.58L37.97 19.8l.88.94c.65.68.63 1.76-.04 2.43l-3.44 3.45a1.25 1.25 0 0 0 1.76 1.76l3.45-3.44a4.25 4.25 0 0 0 .1-5.91l-.94-1 2.23-2.24a6.9 6.9 0 0 0 0-9.77Zm-8 1.77a4.4 4.4 0 0 1 6.24 6.23L16.04 38.2c-.45.44-1 .76-1.61.91l-7.45 1.9 1.9-7.44c.16-.6.48-1.16.93-1.6L33.97 7.78Z"/></svg>