<svg width="24" height="24" viewBox="0 0 24 24" xmlns="http://www.w3.org/2000/svg"><path d="M5.25 2h5a.75.75 0 0 1 0 1.5h-5c-.97 0-1.75.78-1.75 1.75v3.13c-.58.26-1.1.65-1.5 1.13V5.25C2 3.45 3.46 2 5.25 2Zm10.37 18.5c-.26.58-.65 1.1-1.13 1.5h4.26c1.8 0 3.25-1.46 3.25-3.25v-5a.75.75 0 0 0-1.5 0v5c0 .97-.78 1.75-1.75 1.75h-3.13Zm5.63-9.5c.41 0 .75-.34.75-.75v-5C22 3.45 20.54 2 18.75 2h-5a.75.75 0 0 0 0 1.5h5c.97 0 1.75.78 1.75 1.75v5c0 .41.34.75.75.75Zm-16-2A3.25 3.25 0 0 0 2 12.25v6.5C2 20.55 3.46 22 5.25 22h6.5c1.8 0 3.25-1.46 3.25-3.25v-6.5C15 10.45 13.54 9 11.75 9h-6.5ZM3.5 12.25c0-.97.78-1.75 1.75-1.75H6V13H3.5v-.75ZM6 14.5V17H3.5v-2.5H6ZM7.5 17v-2.5h2V17h-2Zm3.5 0v-2.5h2.5V17H11Zm-3.5 1.5h2v2h-2v-2Zm3.5 0h2.5v.25c0 .97-.78 1.75-1.75 1.75H11v-2Zm0-8h.75c.97 0 1.75.78 1.75 1.75V13H11v-2.5ZM9.5 13h-2v-2.5h2V13ZM6 18.5v2h-.75c-.97 0-1.75-.78-1.75-1.75v-.25H6Z"/></svg>