<svg width="16" height="16" viewBox="0 0 16 16" xmlns="http://www.w3.org/2000/svg"><path d="M2 8a6 6 0 0 0 4 5.66 5.48 5.48 0 0 1-.74-1.47A5.03 5.03 0 0 1 4 11h1.02a5.57 5.57 0 0 1 0-1h-1.6a4.98 4.98 0 0 1 0-4h1.74a12.06 12.06 0 0 0-.07 3.5c.15-.8.47-1.55.93-2.2.03-.45.08-.89.16-1.3h1.16a5.47 5.47 0 0 1 6.32 0A6 6 0 0 0 2 8Zm6-5c.37 0 .88.36 1.31 1.32.1.2.18.43.26.68H6.43c.08-.25.16-.47.26-.68C7.12 3.36 7.63 3 8 3Zm-2.22.9c-.15.34-.29.7-.4 1.1H4a5.02 5.02 0 0 1 2.04-1.6c-.1.16-.18.33-.26.5Zm4.18-.5c.81.35 1.52.9 2.04 1.6h-1.38a7.53 7.53 0 0 0-.66-1.6ZM15 10.5a4.5 4.5 0 1 1-9 0 4.5 4.5 0 0 1 9 0ZM10.5 8a.5.5 0 0 0-.5.5v2c0 .28.22.5.5.5H12a.5.5 0 0 0 0-1h-1V8.5a.5.5 0 0 0-.5-.5Z"/></svg>