<svg width="16" height="16" viewBox="0 0 16 16" xmlns="http://www.w3.org/2000/svg"><path d="M3 3c0-1.1.9-2 2-2h6a2 2 0 0 1 2 2v6.5H9.5A3 3 0 0 0 7.84 15H5a2 2 0 0 1-2-2V3Zm6.59 2a.5.5 0 0 0-.09-1H6.41a.5.5 0 0 0 .09 1h3.09ZM10 8a.5.5 0 0 0-.5-.5H6.41a.5.5 0 0 0 .09 1h3.09A.5.5 0 0 0 10 8Zm-3 4.5A2.5 2.5 0 0 1 9.5 10h.5a.5.5 0 0 1 0 1h-.5a1.5 1.5 0 0 0 0 3h.5a.5.5 0 0 1 0 1h-.5A2.5 2.5 0 0 1 7 12.5Zm5.5-2c0-.28.22-.5.5-.5h.5a2.5 2.5 0 0 1 0 5H13a.5.5 0 0 1 0-1h.5a1.5 1.5 0 0 0 0-3H13a.5.5 0 0 1-.5-.5Zm-3.5 2c0-.28.22-.5.5-.5h4a.5.5 0 0 1 0 1h-4a.5.5 0 0 1-.5-.5Z"/></svg>