<svg width="16" height="16" viewBox="0 0 16 16" xmlns="http://www.w3.org/2000/svg"><path d="M11 2H5a1 1 0 0 0-1 1v10a1 1 0 0 0 1 1h1.34c.17.37.42.71.71 1H5a2 2 0 0 1-2-2V3c0-1.1.9-2 2-2h6a2 2 0 0 1 2 2v6h-1V3a1 1 0 0 0-1-1Zm-1.5 8a2.5 2.5 0 0 0 0 5h.5a.5.5 0 0 0 0-1h-.5a1.5 1.5 0 0 1 0-3h.5a.5.5 0 0 0 0-1h-.5Zm3 .5c0-.28.22-.5.5-.5h.5a2.5 2.5 0 0 1 0 5H13a.5.5 0 0 1 0-1h.5a1.5 1.5 0 0 0 0-3H13a.5.5 0 0 1-.5-.5Zm-3 1.5a.5.5 0 0 0 0 1h4a.5.5 0 0 0 0-1h-4Zm.5-7.5a.5.5 0 0 1-.41.5H6.5a.5.5 0 0 1-.09-1H9.5c.28 0 .5.22.5.5Zm-.41 4a.5.5 0 0 0-.09-1H6.41a.5.5 0 0 0 .09 1h3.09Z"/></svg>