<svg width="20" height="20" viewBox="0 0 20 20" xmlns="http://www.w3.org/2000/svg"><path d="M6 2a2 2 0 0 0-2 2v12c0 1.1.9 2 2 2h3.05a3.49 3.49 0 0 1 2.45-6h4c.17 0 .34.01.5.04V4a2 2 0 0 0-2-2H6Zm1.5 4h5a.5.5 0 0 1 0 1h-5a.5.5 0 0 1 0-1ZM9 15.5a2.5 2.5 0 0 1 2.5-2.5h.5a.5.5 0 0 1 0 1h-.5a1.5 1.5 0 0 0 0 3h.5a.5.5 0 0 1 0 1h-.5A2.5 2.5 0 0 1 9 15.5Zm6-2.5a.5.5 0 0 0 0 1h.5a1.5 1.5 0 0 1 0 3H15a.5.5 0 0 0 0 1h.5a2.5 2.5 0 0 0 0-5H15Zm-3.5 2a.5.5 0 0 0 0 1h4a.5.5 0 0 0 0-1h-4Zm-4-5h5a.5.5 0 0 1 0 1h-5a.5.5 0 0 1 0-1Z"/></svg>