<svg width="20" height="20" viewBox="0 0 20 20" xmlns="http://www.w3.org/2000/svg"><path d="M17.2 1.29a1 1 0 0 0-1.4 0l-1.5 1.5a1 1 0 0 0 0 1.42l1.5 1.5a1 1 0 0 0 1.4 0l1.51-1.5a1 1 0 0 0 0-1.42l-1.5-1.5ZM15 3.5 16.5 2 18 3.5 16.5 5 15 3.5ZM13 3H5.5A2.5 2.5 0 0 0 3 5.5v9A2.5 2.5 0 0 0 5.5 17h9a2.5 2.5 0 0 0 2.5-2.5V7h-4V3ZM5.36 16A1.5 1.5 0 0 1 4 14.5V13h3v3H5.36ZM8 13h4v3H8v-3Zm8 1.64A1.5 1.5 0 0 1 14.5 16H13v-3h3V14.64ZM8 8h4v4H8V8Zm5 4V8h3v4h-3ZM8 4h4v3H8V4ZM5.5 4H7v3H4V5.36A1.5 1.5 0 0 1 5.5 4ZM4 12V8h3v4H4Z"/></svg>