<svg width="20" height="20" viewBox="0 0 20 20" xmlns="http://www.w3.org/2000/svg"><path d="M3.25 6a1.25 1.25 0 1 0 0-2.5 1.25 1.25 0 0 0 0 2.5ZM7 4.75c0-.41.34-.75.75-.75h9.5a.75.75 0 0 1 0 1.5h-9.5A.75.75 0 0 1 7 4.75ZM7.75 9a.75.75 0 0 0 0 1.5h5.46a5.48 5.48 0 0 1 4.39-.09.75.75 0 0 0-.35-1.41h-9.5Zm0 5h2.46c-.14.48-.21.98-.21 1.5H7.75a.75.75 0 0 1 0-1.5ZM4.5 9.75a1.25 1.25 0 1 1-2.5 0 1.25 1.25 0 0 1 2.5 0ZM3.25 16a1.25 1.25 0 1 0 0-2.5 1.25 1.25 0 0 0 0 2.5ZM20 15.5a4.5 4.5 0 1 1-9 0 4.5 4.5 0 0 1 9 0Zm-4-2a.5.5 0 0 0-1 0V15h-1.5a.5.5 0 0 0 0 1H15v1.5a.5.5 0 0 0 1 0V16h1.5a.5.5 0 0 0 0-1H16v-1.5Z"/></svg>