<svg width="24" height="24" viewBox="0 0 24 24" xmlns="http://www.w3.org/2000/svg"><path d="M5 18a1.5 1.5 0 10-3 0 1.5 1.5 0 003 0zm7.02-1H7.38a1 1 0 00.12 2h4.67a6.52 6.52 0 01-.15-2zm1.79-4H7.5a1 1 0 01-.12-2H18.5c-1.84 0-3.5.77-4.69 2zM5 12a1.5 1.5 0 10-3 0 1.5 1.5 0 003 0zm0-6a1.5 1.5 0 10-3 0 1.5 1.5 0 003 0zm16-1H7.38a1 1 0 00.12 2h13.62A1 1 0 0021 5zm3 12.5a5.5 5.5 0 10-11 0 5.5 5.5 0 0011 0zm-5 .5v2.5a.5.5 0 11-1 0V18h-2.5a.5.5 0 010-1H18v-2.5a.5.5 0 111 0V17h2.5a.5.5 0 010 1H19z"/></svg>