<svg width="24" height="24" viewBox="0 0 24 24" xmlns="http://www.w3.org/2000/svg"><path d="M4.5 18.75a1.25 1.25 0 10-2.5 0 1.25 1.25 0 002.5 0zm7.52-.75H6.65a.75.75 0 00.1 1.5h5.56a6.47 6.47 0 01-.3-1.5zm1.79-5H6.75a.75.75 0 01-.1-1.5h9.34c-.83.35-1.57.86-2.18 1.5zm-9.31-.75a1.25 1.25 0 10-2.5 0 1.25 1.25 0 002.5 0zm0-6.5a1.25 1.25 0 10-2.5 0 1.25 1.25 0 002.5 0zM21.25 5H6.65a.75.75 0 00.1 1.5h14.6a.75.75 0 00-.1-1.5zM24 17.5a5.5 5.5 0 10-11 0 5.5 5.5 0 0011 0zm-5 .5v2.5a.5.5 0 11-1 0V18h-2.5a.5.5 0 010-1H18v-2.5a.5.5 0 111 0V17h2.5a.5.5 0 010 1H19z"/></svg>