<svg width="20" height="20" viewBox="0 0 20 20" xmlns="http://www.w3.org/2000/svg"><path d="M15 6a1 1 0 0 1 1 1v2.2c-.32-.08-.66-.15-1-.18V7h-3v2.6c-.36.18-.7.4-1 .66V7H5v8a1.98 1.98 0 0 0 1.23 1.84c.24.1.5.16.77.16h2.6c.18.36.4.7.66 1H7a3 3 0 0 1-3-3V7a1 1 0 0 1 1-1h1V4.5a2.42 2.42 0 0 1 .73-1.77A2.43 2.43 0 0 1 8.5 2a2.43 2.43 0 0 1 1.5.5 2.44 2.44 0 0 1 2.48-.3 2.53 2.53 0 0 1 1.32 1.33c.13.3.2.63.2.97V6h1Zm-2-1.5a1.47 1.47 0 0 0-.44-1.06A1.48 1.48 0 0 0 11.5 3c-.3 0-.58.09-.83.26A2.5 2.5 0 0 1 11 4.5V6h2V4.5ZM7 6h3V4.5a1.47 1.47 0 0 0-.44-1.06A1.48 1.48 0 0 0 8.5 3a1.47 1.47 0 0 0-1.06.44A1.48 1.48 0 0 0 7 4.5V6Zm12 8.5a4.5 4.5 0 1 1-9 0 4.5 4.5 0 0 1 9 0Zm-4.98-1.97a.45.45 0 0 0-.45-.03.5.5 0 0 0-.15.1.51.51 0 0 0-.14.36v3.08a.5.5 0 0 0 .14.35.45.45 0 0 0 .52.12.54.54 0 0 0 .09-.05l2.3-1.57a.46.46 0 0 0 .16-.18.54.54 0 0 0 0-.49.49.49 0 0 0-.17-.18l-2.3-1.5Z"/></svg>