<svg width="24" height="24" viewBox="0 0 24 24" xmlns="http://www.w3.org/2000/svg"><path d="M11 17.5c0-1.29.38-2.49 1.02-3.5H5.25C4.01 14 3 15 3 16.25v.92c0 .57.18 1.13.51 1.6C5.06 20.92 7.58 22 11 22c.6 0 1.17-.03 1.72-.1A6.48 6.48 0 0 1 11 17.5ZM11 2a5 5 0 1 1 0 10 5 5 0 0 1 0-10Zm1 15.5a5.5 5.5 0 1 0 11 0 5.5 5.5 0 0 0-11 0Zm8.5-3.5c.28 0 .5.22.5.5v2a.5.5 0 0 1-.5.5h-2a.5.5 0 0 1 0-1h1a2.5 2.5 0 0 0-4.03.04.5.5 0 0 1-.8-.59 3.5 3.5 0 0 1 5.33-.4v-.55c0-.28.22-.5.5-.5ZM15 19.95v.55a.5.5 0 0 1-1 0v-2c0-.28.22-.5.5-.5h2a.5.5 0 0 1 0 1h-1a2.5 2.5 0 0 0 3.91.11.5.5 0 0 1 .77.65 3.5 3.5 0 0 1-5.18.19Z"/></svg>