<svg width="48" height="48" viewBox="0 0 48 48" xmlns="http://www.w3.org/2000/svg"><path d="M22 4a10 10 0 1 0 0 20 10 10 0 0 0 0-20Zm-7.5 10a7.5 7.5 0 1 1 15 0 7.5 7.5 0 0 1-15 0Zm-4.25 14A4.25 4.25 0 0 0 6 32.25V33c0 3.76 1.94 6.57 4.92 8.38C13.85 43.16 17.79 44 22 44c1.17 0 2.32-.06 3.43-.2-.65-.71-1.23-1.5-1.72-2.35-.56.03-1.13.05-1.71.05-3.93 0-7.37-.79-9.78-2.26C9.86 37.81 8.5 35.74 8.5 33v-.75c0-.97.78-1.75 1.75-1.75H22.8c.33-.88.74-1.72 1.24-2.5H10.25ZM24 35a11 11 0 1 0 22 0 11 11 0 0 0-22 0Zm8.65-7.1A7 7 0 0 1 40 29.6V29a1 1 0 1 1 2 0v3a1 1 0 0 1-1 1h-3a1 1 0 1 1 0-2h.57a5 5 0 0 0-7.1-.04 1 1 0 0 1-1.42-1.41 7 7 0 0 1 2.6-1.64Zm4.7 14.2A7 7 0 0 1 30 40.4v.6a1 1 0 1 1-2 0v-3a1 1 0 0 1 1-1h3a1 1 0 1 1 0 2h-.57a5 5 0 0 0 7.1.04 1 1 0 0 1 1.42 1.41 7 7 0 0 1-2.6 1.64Z"/></svg>