<svg width="20" height="20" viewBox="0 0 20 20" xmlns="http://www.w3.org/2000/svg"><path d="M7.09 3c.2-.58.76-1 1.41-1h3c.65 0 1.2.42 1.41 1h1.59c.83 0 1.5.67 1.5 1.5v10.48c-.43.22-.78.56-1 .99V4.5a.5.5 0 00-.5-.5h-1.59c-.2.58-.76 1-1.41 1h-3a1.5 1.5 0 01-1.41-1H5.5a.5.5 0 00-.5.5v12c0 .28.22.5.5.5h1.25c0 .36.08.7.23 1H5.5A1.5 1.5 0 014 16.5v-12C4 3.67 4.67 3 5.5 3h1.59zM8.5 3a.5.5 0 000 1h3a.5.5 0 000-1h-3zm1.75 14a1.25 1.25 0 11-2.5 0 1.25 1.25 0 012.5 0zM13 18.25a1.25 1.25 0 100-2.5 1.25 1.25 0 000 2.5zm4 0a1.25 1.25 0 100-2.5 1.25 1.25 0 000 2.5z"/></svg>