<svg width="48" height="48" viewBox="0 0 48 48" xmlns="http://www.w3.org/2000/svg"><path d="M18.25 4A4.25 4.25 0 0014 8.25v31.5C14 42.1 15.9 44 18.25 44h11.5C32.1 44 34 42.1 34 39.75V8.25C34 5.9 32.1 4 29.75 4h-11.5zm-1.75 8.75h4.25a1.25 1.25 0 100-2.5H16.5v-2c0-.97.78-1.75 1.75-1.75h11.5c.97 0 1.75.78 1.75 1.75v31.5c0 .97-.78 1.75-1.75 1.75h-11.5c-.97 0-1.75-.78-1.75-1.75v-2h4.25a1.25 1.25 0 100-2.5H16.5V31.5h8.25a1.25 1.25 0 100-2.5H16.5v-3.75h4.25a1.25 1.25 0 100-2.5H16.5V19h8.25a1.25 1.25 0 100-2.5H16.5v-3.75z"/></svg>