<svg width="20" height="20" viewBox="0 0 20 20" xmlns="http://www.w3.org/2000/svg"><path d="M3 5.5A2.5 2.5 0 0 1 5.5 3h9A2.5 2.5 0 0 1 17 5.5v9a2.5 2.5 0 0 1-2.5 2.5h-4.1c.16-.32.3-.65.4-1h3.7c.82 0 1.5-.67 1.5-1.5V7H9.5A1.5 1.5 0 0 1 8 5.5V4H5.5C4.67 4 4 4.67 4 5.5v3.7c-.35.1-.69.24-1 .4V5.5ZM16 6v-.5c0-.83-.68-1.5-1.5-1.5H9v1.5c0 .28.22.5.5.5H16Zm-6 8.5a4.5 4.5 0 1 1-9 0 4.5 4.5 0 0 1 9 0Zm-6.85-.35a.5.5 0 0 0-.15.35.5.5 0 0 0 .15.35l2 2a.5.5 0 0 0 .7-.7L4.71 15H7.5a.5.5 0 0 0 0-1H4.7l1.15-1.15a.5.5 0 0 0-.7-.7l-2 2Z"/></svg>