<svg width="32" height="32" viewBox="0 0 32 32" xmlns="http://www.w3.org/2000/svg"><path d="M20.5 7.07a10 10 0 0 0-10.95 1.3 3.12 3.12 0 0 0-3.6 5l12.7 12.7a3.12 3.12 0 0 0 5-3.62 10 10 0 0 0 1.28-10.97l3.15-3.15a3.12 3.12 0 1 0-4.42-4.42l-3.15 3.16Zm-9.4 2.6A8 8 0 0 1 22.32 20.9L11.1 9.68Zm-3.73.7c.42-.43 1.1-.44 1.54-.04L21.7 23.1a1.12 1.12 0 0 1-1.63 1.55l-12.7-12.7a1.12 1.12 0 0 1 0-1.6Zm14.86-2.2 2.85-2.84a1.12 1.12 0 1 1 1.58 1.59l-2.84 2.84a10.12 10.12 0 0 0-1.59-1.58ZM7.71 19.72a1 1 0 1 0-1.42-1.42l-3 3a1 1 0 1 0 1.42 1.42l3-3Zm3 1.58a1 1 0 0 1 0 1.42l-3 3a1 1 0 0 1-1.42-1.42l3-3a1 1 0 0 1 1.42 0Zm3 4.42a1 1 0 0 0-1.42-1.42l-3 3a1 1 0 1 0 1.42 1.42l3-3Z"/></svg>