<svg width="20" height="20" viewBox="0 0 20 20" xmlns="http://www.w3.org/2000/svg"><path d="M17.43 2.57a1.94 1.94 0 00-2.74 0L12.65 4.6v.01a6 6 0 00-6.76 1.02 1.91 1.91 0 00-1.74 3.22l7 7a1.91 1.91 0 003.23-1.74 6 6 0 001.01-6.76l2.04-2.03c.76-.76.76-2 0-2.75zm-2.57 3.9a6.05 6.05 0 00-1.34-1.33l1.88-1.86a.94.94 0 111.33 1.33l-1.87 1.87zm-8.02-.34a5 5 0 017.03 7.03l-.01-.01-7-7-.02-.02zm-.72.7l7.05 7.05a.91.91 0 01-1.31 1.27l-7-7a.91.91 0 011.26-1.32zm.73 6.32c.2.2.2.5 0 .7l-2 2a.5.5 0 01-.7-.7l2-2c.2-.2.5-.2.7 0zm-2-1.3a.5.5 0 10-.7-.7l-2 2a.5.5 0 10.7.7l2-2zm4 3.3c.2.2.2.5 0 .7l-2 2a.5.5 0 01-.7-.7l2-2c.2-.2.5-.2.7 0z"/></svg>