<svg width="20" height="20" viewBox="0 0 20 20" xmlns="http://www.w3.org/2000/svg"><path d="M15.48 2.42l-1.7 1.7a7.03 7.03 0 012.06 2.02l1.68-1.68a1.44 1.44 0 10-2.04-2.04zM4.85 11.85a.5.5 0 00-.7-.7l-2 2a.5.5 0 00.7.7l2-2zm2 2a.5.5 0 00-.7-.7l-2 2a.5.5 0 00.7.7l2-2zm2 1.3c.2.2.2.5 0 .7l-2 2a.5.5 0 01-.7-.7l2-2c.2-.2.5-.2.7 0zm4.86-.8a1.46 1.46 0 00-.18-.22L5.87 6.47a1.45 1.45 0 00-2.05 2.05l7.66 7.66a1.45 1.45 0 002.23-1.82zM6.58 5.78a2.46 2.46 0 00-.45-.36 6 6 0 018.46 8.46c-.1-.16-.22-.3-.35-.44L6.58 5.77z"/></svg>