<svg width="24" height="24" viewBox="0 0 24 24" xmlns="http://www.w3.org/2000/svg"><path d="M21.49 4.98L19.48 7a9.05 9.05 0 00-2.47-2.47l2.01-2a1.75 1.75 0 112.47 2.46zM5.28 13.72c.3.3.3.77 0 1.06l-2 2a.75.75 0 01-1.06-1.06l2-2c.3-.3.77-.3 1.06 0zm2.5 3.56a.75.75 0 10-1.06-1.06l-2 2a.75.75 0 101.06 1.06l2-2zm2.5 2.5a.75.75 0 10-1.06-1.06l-2 2a.75.75 0 101.06 1.06l2-2zM3.74 7.26a1.75 1.75 0 012.47 0l10.56 10.56a1.75 1.75 0 11-2.47 2.48L3.74 9.74a1.75 1.75 0 010-2.48zm3.18-.7a2.76 2.76 0 00-.43-.36A8 8 0 0117.8 17.5c-.1-.13-.2-.26-.32-.39L6.92 6.56z"/></svg>