<svg width="16" height="16" viewBox="0 0 16 16" xmlns="http://www.w3.org/2000/svg"><path d="M5.8 3.7C6.62 2.6 7.77 1.9 9.2 2c.92.07 1.57.47 2 .96a3.4 3.4 0 01.8 2v.01s-.02-.2 0 0a.5.5 0 01-1 .06V5a2.06 2.06 0 00-.09-.45c-.08-.3-.22-.64-.47-.93-.27-.3-.67-.57-1.31-.62-1-.08-1.85.4-2.55 1.3-.6.77-1.05 1.82-1.35 2.99-.38 1.53-.39 3.32.21 4.48.36.7.94 1.16 1.85 1.23 1.42.12 2.28-.8 2.78-1.64.17-.3.37-.79.44-.97l.02-.07a.5.5 0 01.94.35v.02l-.03.05c-.06.18-.29.75-.51 1.13-.57.97-1.73 2.29-3.72 2.13a3.15 3.15 0 01-2.66-1.77c-.76-1.47-.7-3.55-.29-5.18A9.1 9.1 0 015.8 3.69zm5.67 6.97v.02z"/></svg>