<svg width="24" height="24" viewBox="0 0 24 24" xmlns="http://www.w3.org/2000/svg"><path d="M9.11 5.61a5.92 5.92 0 014.7-1.6c1.67.12 2.71.9 3.33 1.8.49.69.8 1.53.86 2.37v.02a.75.75 0 01-1.5.1 3.37 3.37 0 00-.59-1.63A2.78 2.78 0 0013.7 5.5a4.42 4.42 0 00-3.55 1.2c-.95.9-1.69 2.31-2.17 4.23-.47 1.9-.63 3.78-.22 5.19.2.69.53 1.24 1 1.63.46.4 1.12.68 2.05.75 2.07.17 4.02-1 4.72-2.97l.01-.01m0 0a.75.75 0 011.43.46l-.01.02v.02l-.01.02-.05.12A6.02 6.02 0 0110.7 20a5 5 0 01-2.9-1.1 4.76 4.76 0 01-1.48-2.36c-.52-1.79-.3-3.98.2-5.97.53-2.08 1.37-3.8 2.6-4.96"/></svg>