<svg width="20" height="20" viewBox="0 0 20 20" xmlns="http://www.w3.org/2000/svg"><path d="M5.12 8.78c.86-3.45 3.06-6.28 6.4-6.03a3.8 3.8 0 013.15 1.96 4.8 4.8 0 01.57 1.7v.01s-.07-.42 0 0a.75.75 0 01-1.49.16v-.01a1.88 1.88 0 00-.06-.32 3.3 3.3 0 00-.32-.8 2.31 2.31 0 00-1.97-1.2c-2.2-.17-4.02 1.67-4.82 4.89a8.77 8.77 0 00-.07 4.47c.2.63.49 1.13.89 1.49.39.35.92.6 1.66.65 1.49.12 2.4-.5 2.95-1.13a4.2 4.2 0 00.77-1.32s.25-.72.93-.52c.44.13.62.53.5.93v.02a2.11 2.11 0 01-.06.17 5.23 5.23 0 01-1 1.7 4.82 4.82 0 01-4.21 1.65A4.23 4.23 0 016.4 16.2a4.7 4.7 0 01-1.32-2.15c-.5-1.63-.38-3.59.04-5.28zm8.63-2.2z"/></svg>