<svg width="20" height="20" viewBox="0 0 20 20" xmlns="http://www.w3.org/2000/svg"><path d="M5.36 8.84C6.22 5.43 8.35 2.76 11.5 3c1.58.12 2.47 1 2.95 1.83a4.54 4.54 0 01.55 1.6v.02s0-.01 0 0a.5.5 0 01-1 .1v-.02l-.01-.07a3.54 3.54 0 00-.4-1.14A2.56 2.56 0 0011.41 4c-2.4-.18-4.27 1.82-5.09 5.08a9.01 9.01 0 00-.06 4.6c.2.66.52 1.2.96 1.6.44.4 1.02.66 1.8.72 1.46.12 2.4-.43 3-1.05.63-.62.9-1.34.97-1.54l.02-.06a.5.5 0 01.96.29v.03l-.03.06c-.09.26-.43 1.14-1.2 1.92-.78.8-2 1.5-3.8 1.35a3.98 3.98 0 01-2.38-.97c-.61-.54-1.01-1.26-1.25-2.05a10 10 0 01.04-5.14zm8.62 4.8z"/></svg>