<svg width="16" height="16" viewBox="0 0 16 16" xmlns="http://www.w3.org/2000/svg"><path d="M9.9 8.3a.42.42 0 0 0-.8 0l-.11.36a.5.5 0 0 1-.33.33l-.36.1c-.4.13-.4.7 0 .81l.35.1a.5.5 0 0 1 .34.34l.1.36c.13.4.7.4.81 0l.1-.36a.5.5 0 0 1 .34-.33l.36-.1c.4-.13.4-.7 0-.81l-.36-.1a.5.5 0 0 1-.33-.34l-.1-.36ZM7.55 5.39a.58.58 0 0 0-1.1 0l-.17.48a.67.67 0 0 1-.4.4l-.5.18a.58.58 0 0 0 0 1.1l.5.17c.18.07.33.22.4.4l.17.5c.18.5.92.51 1.1 0l.17-.5a.67.67 0 0 1 .4-.4l.5-.17a.58.58 0 0 0 0-1.1l-.5-.17a.67.67 0 0 1-.4-.4l-.17-.5ZM2 8a6 6 0 1 1 12 0A6 6 0 0 1 2 8Zm6-5a5 5 0 1 0 0 10A5 5 0 0 0 8 3Z"/></svg>