<svg width="28" height="28" viewBox="0 0 28 28" xmlns="http://www.w3.org/2000/svg"><path d="M14 2a12 12 0 1 0 0 24 12 12 0 0 0 0-24Zm-3.56 5.75c.35-1 1.77-1 2.12 0l.52 1.46c.12.33.38.6.72.71l1.45.52c1 .35 1 1.77 0 2.12l-1.45.51c-.34.12-.6.39-.72.72l-.52 1.46c-.35 1-1.77 1-2.12 0l-.51-1.45c-.12-.34-.39-.6-.72-.73l-1.46-.51c-1-.35-1-1.77 0-2.12l1.46-.52c.33-.11.6-.38.72-.72l.51-1.45Zm7.88 6.83.4 1.14c.1.26.3.46.57.55l1.13.4a.87.87 0 0 1 0 1.65l-1.13.4c-.27.1-.47.3-.56.56l-.4 1.14a.87.87 0 0 1-1.65 0l-.4-1.13a.92.92 0 0 0-.56-.56l-1.14-.4a.87.87 0 0 1 0-1.65l1.14-.4c.26-.1.46-.3.56-.57l.4-1.13a.87.87 0 0 1 1.64 0Z"/></svg>