<svg width="32" height="32" viewBox="0 0 32 32" xmlns="http://www.w3.org/2000/svg"><path d="M16 2a14 14 0 1 0 0 28 14 14 0 0 0 0-28Zm-3.8 6.92a1.37 1.37 0 0 1 2.6 0l.63 1.78c.14.4.47.73.88.87l1.77.63a1.37 1.37 0 0 1 0 2.6l-1.77.63c-.41.14-.74.46-.88.87l-.63 1.78a1.37 1.37 0 0 1-2.6 0l-.62-1.77a1.44 1.44 0 0 0-.88-.88l-1.78-.63a1.37 1.37 0 0 1 0-2.6l1.78-.63c.4-.14.73-.46.88-.88l.62-1.77Zm9.13 8.66.4 1.14c.09.26.3.46.56.55l1.13.4a.87.87 0 0 1 0 1.65l-1.13.4c-.27.1-.47.3-.56.56l-.4 1.14a.87.87 0 0 1-1.65 0l-.4-1.13a.92.92 0 0 0-.56-.56l-1.14-.4a.87.87 0 0 1 0-1.65l1.14-.4c.26-.1.46-.3.56-.57l.4-1.13a.87.87 0 0 1 1.64 0Z"/></svg>