<svg width="48" height="48" viewBox="0 0 48 48" xmlns="http://www.w3.org/2000/svg"><path d="M17.12 12.33a2 2 0 0 1 3.77 0l.91 2.6c.22.59.69 1.06 1.28 1.27l2.59.92a2 2 0 0 1 0 3.77l-2.59.91a2.1 2.1 0 0 0-1.28 1.28l-.91 2.59a2 2 0 0 1-3.77 0l-.92-2.59a2.1 2.1 0 0 0-1.28-1.28l-2.59-.91a2 2 0 0 1 0-3.77l2.6-.92a2.1 2.1 0 0 0 1.27-1.28l.92-2.59ZM31.42 25a1.5 1.5 0 0 0-2.83 0l-.69 1.94c-.16.45-.51.8-.96.96l-1.94.69a1.5 1.5 0 0 0 0 2.82l1.94.69c.45.16.8.51.96.96L28.6 35a1.5 1.5 0 0 0 2.82 0l.7-1.94c.15-.45.5-.8.95-.96l1.94-.69a1.5 1.5 0 0 0 0-2.82l-1.94-.7c-.45-.15-.8-.5-.96-.95L31.41 25ZM4 24a20 20 0 1 1 40 0 20 20 0 0 1-40 0ZM24 6.5a17.5 17.5 0 1 0 0 35 17.5 17.5 0 0 0 0-35Z"/></svg>