<svg width="20" height="20" viewBox="0 0 20 20" xmlns="http://www.w3.org/2000/svg"><path d="M10 3a7 7 0 1 0 0 14 7 7 0 0 0 0-14Zm-8 7a8 8 0 1 1 16 0 8 8 0 0 1-16 0Zm5.17-4.42a.87.87 0 0 1 1.65 0l.26.73c.1.28.33.5.61.6l.73.26a.87.87 0 0 1 0 1.65l-.73.26a1 1 0 0 0-.6.61l-.27.73a.87.87 0 0 1-1.65 0l-.25-.73a1 1 0 0 0-.61-.6l-.73-.27a.88.88 0 0 1 0-1.65l.73-.25a1 1 0 0 0 .6-.61l.26-.73Zm5.5 4.42a.7.7 0 0 0-1.34 0l-.18.6a.83.83 0 0 1-.56.55l-.59.18a.7.7 0 0 0 0 1.34l.6.18c.26.08.47.29.55.56l.18.6a.7.7 0 0 0 1.34 0l.18-.6a.83.83 0 0 1 .56-.56l.6-.18a.7.7 0 0 0 0-1.34l-.6-.18a.83.83 0 0 1-.56-.56l-.18-.59Z"/></svg>