<svg width="24" height="24" viewBox="0 0 24 24" xmlns="http://www.w3.org/2000/svg"><path d="M6.94 8L2.22 3.28a.75.75 0 011.06-1.06l18.5 18.5a.75.75 0 11-1.06 1.06L16 17.06l-3.45 3.45a3.25 3.25 0 01-4.6 0L3.5 16.06a3.25 3.25 0 010-4.6L6.94 8zm8 8L8 9.06l-3.46 3.48c-.68.68-.67 1.78.01 2.46l4.46 4.45c.69.68 1.8.68 2.48 0L14.94 16zm5.05-5.05L17 13.94 18.06 15 21.05 12c.6-.61.95-1.44.95-2.3V4.25C22 3.01 21 2 19.75 2H14.3c-.87 0-1.7.34-2.3.95L9 5.95 10.06 7l2.99-2.99c.33-.33.77-.51 1.24-.51h5.46c.41 0 .75.34.75.75v5.46c0 .47-.18.91-.51 1.24zM17 5.5a1.5 1.5 0 110 3 1.5 1.5 0 010-3z"/></svg>