<svg width="24" height="24" viewBox="0 0 24 24" xmlns="http://www.w3.org/2000/svg"><path d="M22.14 3.3a4.53 4.53 0 00-.9-1.13.75.75 0 00-.97 1.16c.13.1.35.35.59.74.4.67.64 1.48.64 2.43 0 .95-.24 1.76-.64 2.43-.24.39-.46.64-.59.74a.75.75 0 00.96 1.16c.25-.21.59-.58.91-1.13.54-.9.86-1.96.86-3.2 0-1.24-.32-2.3-.86-3.2z"/><path d="M19.87 4.4c-.23-.36-.48-.6-.67-.75a.75.75 0 00-.9 1.2A2.24 2.24 0 0119 6.5a2.24 2.24 0 01-.7 1.65l-.08.07a.75.75 0 00.98 1.13 3.73 3.73 0 001.3-2.85c0-.81-.23-1.52-.63-2.1z"/><path d="M17 3.75a.75.75 0 00-1.31-.5L14.16 5h-1.4a.75.75 0 00-.76.75v1.5c0 .41.34.75.75.75h1.41l1.53 1.74A.75.75 0 0017 9.25v-5.5z"/><path d="M11 5a1 1 0 01.25-.66v-.32a1.76 1.76 0 00-.24-.02H3.76C2.79 4 2 4.78 2 5.75v12.5C2 19.2 2.79 20 3.76 20H11l.24-.02V8.66A1 1 0 0111 8V5zM9.25 15.5h.1a.75.75 0 010 1.5H7.65a.75.75 0 010-1.5h1.6z"/><path d="M13.53 9h-.78v10.98l.26.02h7.24c.97 0 1.75-.79 1.75-1.75v-6.77a1.75 1.75 0 01-2.99-1c-.42.07-.87-.03-1.23-.27a1.76 1.76 0 01-2.8.33L13.52 9zm2.72 6.5h.1a.75.75 0 010 1.5H14.65a.75.75 0 010-1.5h1.6z"/></svg>