<svg width="24" height="24" viewBox="0 0 24 24" xmlns="http://www.w3.org/2000/svg"><path d="M6.25 3.5c-.97 0-1.75.78-1.75 1.75v2.5c0 .97.78 1.75 1.75 1.75h2.5c.97 0 1.75-.78 1.75-1.75v-2.5c0-.97-.78-1.75-1.75-1.75h-2.5Zm7.25 1.75v2.5c0 .97.78 1.75 1.75 1.75h2.5c.97 0 1.75-.78 1.75-1.75v-2.5c0-.97-.78-1.75-1.75-1.75h-2.5c-.97 0-1.75.78-1.75 1.75ZM15.25 5h2.5c.14 0 .25.11.25.25v2.5c0 .14-.11.25-.25.25h-2.5a.25.25 0 0 1-.25-.25v-2.5c0-.14.11-.25.25-.25ZM6.5 11.5a4.5 4.5 0 1 0 0 9h5.23a6.47 6.47 0 0 1-.72-3.37 1.5 1.5 0 0 1 .7-2.6A6.53 6.53 0 0 1 15 11.5H6.5Zm.5 6a1.5 1.5 0 1 1 0-3 1.5 1.5 0 0 1 0 3Zm16 0a5.5 5.5 0 1 1-11 0 5.5 5.5 0 0 1 11 0Zm-2.15-2.35a.5.5 0 0 0-.7 0l-3.65 3.64-1.65-1.64a.5.5 0 0 0-.7.7l2 2c.2.2.5.2.7 0l4-4a.5.5 0 0 0 0-.7Z"/></svg>