<svg width="20" height="20" viewBox="0 0 20 20" xmlns="http://www.w3.org/2000/svg"><path d="M5 3.5c0-.28.22-.5.5-.5h3c.28 0 .5.22.5.5v3a.5.5 0 0 1-.5.5h-3a.5.5 0 0 1-.5-.5v-3Zm6.5-.5a.5.5 0 0 0-.5.5v3c0 .28.22.5.5.5h3a.5.5 0 0 0 .5-.5v-3a.5.5 0 0 0-.5-.5h-3Zm.5 3V4h2v2h-2ZM6 8a4 4 0 1 0 0 8h3.2a5.5 5.5 0 0 1 .1-3.29A1 1 0 0 1 10 11a1 1 0 0 1 .23.03 5.49 5.49 0 0 1 7.1-1.25A4 4 0 0 0 14 8H6Zm0 5a1 1 0 1 1 0-2 1 1 0 0 1 0 2Zm13 1.5a4.5 4.5 0 1 1-9 0 4.5 4.5 0 0 1 9 0Zm-2.85-1.85-2.65 2.64-.65-.64a.5.5 0 0 0-.7.7l1 1c.2.2.5.2.7 0l3-3a.5.5 0 0 0-.7-.7Z"/></svg>