<svg width="24" height="24" viewBox="0 0 24 24" xmlns="http://www.w3.org/2000/svg"><path d="M17.75 3C19.55 3 21 4.46 21 6.25v3a.75.75 0 0 1-1.5 0v-3c0-.97-.78-1.75-1.75-1.75h-3a.75.75 0 0 1 0-1.5h3ZM6.25 3A3.25 3.25 0 0 0 3 6.25v3a.75.75 0 0 0 1.5 0v-3c0-.97.78-1.75 1.75-1.75h3a.75.75 0 0 0 0-1.5h-3Zm11.5 18c1.8 0 3.25-1.46 3.25-3.25v-3a.75.75 0 0 0-1.5 0v3c0 .97-.78 1.75-1.75 1.75h-3a.75.75 0 0 0 0 1.5h3ZM3 17.75C3 19.55 4.46 21 6.25 21h3a.75.75 0 0 0 0-1.5h-3c-.97 0-1.75-.78-1.75-1.75v-3a.75.75 0 0 0-1.5 0v3ZM12 15a3 3 0 1 0 0-6 3 3 0 0 0 0 6Zm0-1.5a1.5 1.5 0 1 1 0-3 1.5 1.5 0 0 1 0 3Zm-4.5-5a1 1 0 1 0 0-2 1 1 0 0 0 0 2Z"/></svg>