<svg width="20" height="20" viewBox="0 0 20 20" xmlns="http://www.w3.org/2000/svg"><path d="M3 5.5A2.5 2.5 0 0 1 5.5 3h9A2.5 2.5 0 0 1 17 5.5v9a2.5 2.5 0 0 1-2.5 2.5h-9A2.5 2.5 0 0 1 3 14.5v-9ZM5.5 4C4.67 4 4 4.67 4 5.5V6h12v-.5c0-.83-.67-1.5-1.5-1.5h-9ZM16 7H4v7.5c0 .83.67 1.5 1.5 1.5h9c.83 0 1.5-.67 1.5-1.5V7ZM5 9a1 1 0 0 1 1-1h2a1 1 0 0 1 1 1v5a1 1 0 0 1-1 1H6a1 1 0 0 1-1-1V9Zm3 0H6v5h2V9Zm2 1.5c0-.28.22-.5.5-.5h3a.5.5 0 0 1 0 1h-3a.5.5 0 0 1-.5-.5Zm.5-2.5a.5.5 0 0 0 0 1h4a.5.5 0 0 0 0-1h-4Z"/></svg>