<svg width="48" height="48" viewBox="0 0 48 48" xmlns="http://www.w3.org/2000/svg"><path d="M25.25 20a1.25 1.25 0 1 0 0 2.5h9.5a1.25 1.25 0 1 0 0-2.5h-9.5ZM24 26.25c0-.69.56-1.25 1.25-1.25h6.5a1.25 1.25 0 1 1 0 2.5h-6.5c-.69 0-1.25-.56-1.25-1.25ZM12 23a3 3 0 0 1 3-3h3a3 3 0 0 1 3 3v10a3 3 0 0 1-3 3h-3a3 3 0 0 1-3-3V23Zm2.5-.5v11h4v-11h-4ZM12.25 6A6.25 6.25 0 0 0 6 12.25v23.5C6 39.2 8.8 42 12.25 42h23.5C39.2 42 42 39.2 42 35.75v-23.5C42 8.8 39.2 6 35.75 6h-23.5Zm0 33.5a3.75 3.75 0 0 1-3.75-3.75V16.5h31v19.25a3.75 3.75 0 0 1-3.75 3.75h-23.5Z"/></svg>