<svg width="20" height="20" viewBox="0 0 20 20" xmlns="http://www.w3.org/2000/svg"><path d="M5.25 2A3.25 3.25 0 002 5.25v3a.75.75 0 001.5 0v-3c0-.97.78-1.75 1.75-1.75h3a.75.75 0 000-1.5h-3zm6.5 0a.75.75 0 000 1.5h3c.97 0 1.75.78 1.75 1.75v3a.75.75 0 001.5 0v-3C18 3.45 16.54 2 14.75 2h-3zM18 11.75a.75.75 0 00-1.5 0v3c0 .97-.78 1.75-1.75 1.75h-3a.75.75 0 000 1.5h3c1.8 0 3.25-1.46 3.25-3.25v-3zM3.5 10h4a2.5 2.5 0 012.5 2.5v4A2.5 2.5 0 017.5 19h-4A2.5 2.5 0 011 16.5v-4A2.5 2.5 0 013.5 10zm.72 2.55a.5.5 0 00-.72.45v3a.5.5 0 00.72.45l3-1.5a.5.5 0 000-.9l-3-1.5z"/></svg>