<svg width="24" height="24" viewBox="0 0 24 24" xmlns="http://www.w3.org/2000/svg"><path d="M17.5 3.75a.75.75 0 0 0-1.5 0v14.3a2.5 2.5 0 0 1 1.5.95v-7.5h2.25a.75.75 0 0 0 0-1.5H17.5V3.75ZM3.75 5a.75.75 0 0 0 0 1.5h7.72a13.42 13.42 0 0 1-1.6 5.24c-1.19 2.1-3.1 3.76-6.12 3.76a.75.75 0 0 0 0 1.5c3.71 0 6.05-2.1 7.43-4.52A14.71 14.71 0 0 0 13 5.75a.75.75 0 0 0-.75-.75h-8.5ZM12 20.5a1.5 1.5 0 1 1-3 0 1.5 1.5 0 0 1 3 0Zm3.5 1.5a1.5 1.5 0 1 0 0-3 1.5 1.5 0 0 0 0 3Zm5 0a1.5 1.5 0 1 0 0-3 1.5 1.5 0 0 0 0 3Z"/></svg>