<svg width="32" height="32" viewBox="0 0 32 32" xmlns="http://www.w3.org/2000/svg"><path d="M2 16a14 14 0 1128 0 14 14 0 01-28 0zm15.56-7.85a1 1 0 10.39-1.96 10.06 10.06 0 00-7.1 1.24A10 10 0 007.7 21.59a1 1 0 101.66-1.12 8 8 0 018.2-12.32zm5.68 2.4a1 1 0 00-.35 1.37 8 8 0 01-.24 8.54 1 1 0 101.66 1.11 10 10 0 00.3-10.66 1 1 0 00-1.37-.36zm-2.25-2.5l-1.05.85a336.39 336.39 0 00-5.78 4.72c-.2.17-.38.35-.56.54a2.46 2.46 0 003.75 3.2c.16-.2.3-.42.44-.64.17-.28.4-.64.63-1.04a204.85 204.85 0 003.13-5.4l.49-.86.18-.32a.82.82 0 00-1.23-1.05z"/></svg>