<svg width="20" height="20" viewBox="0 0 20 20" xmlns="http://www.w3.org/2000/svg"><path d="M10 18a8 8 0 1 0 0-16 8 8 0 0 0 0 16Zm1.82-12.66a5 5 0 0 0-5.36 8.2.5.5 0 0 1-.7.7 6 6 0 0 1 6.42-9.83.5.5 0 0 1-.36.93Zm3.77 2.48a6 6 0 0 1-1.35 6.42.5.5 0 1 1-.7-.7 5 5 0 0 0 1.12-5.36.5.5 0 0 1 .93-.36Zm-1.5-2a.5.5 0 0 1 .1.62l-.1.2a323.59 323.59 0 0 1-.69 1.2l-.23.4-.3.53a184.46 184.46 0 0 1-1.48 2.48 4.28 4.28 0 0 1-.16.23 1.5 1.5 0 1 1-2.28-1.95c.07-.09.2-.2.34-.33l.56-.48a125.12 125.12 0 0 1 2.96-2.4l.27-.22.37-.3a.5.5 0 0 1 .64.02Z"/></svg>