<svg width="32" height="32" viewBox="0 0 32 32" xmlns="http://www.w3.org/2000/svg"><path d="M22.96 21.87a1 1 0 001.35-.3 10 10 0 00.3-10.67 1 1 0 10-1.72 1.03 8 8 0 01-.24 8.52 1 1 0 00.31 1.42zm-14.42.16a1 1 0 01-.83-.44A10 10 0 0117.95 6.2a1 1 0 11-.39 1.96 8 8 0 00-8.2 12.32 1 1 0 01-.82 1.56zM21.52 7.88a.82.82 0 00-.53.17l-1.05.85a336.39 336.39 0 00-5.78 4.72c-.2.17-.38.35-.56.54a2.46 2.46 0 003.75 3.2c.16-.2.3-.42.44-.64.17-.28.4-.64.63-1.04a204.85 204.85 0 003.13-5.4l.49-.86.18-.32a.82.82 0 00-.7-1.22zM16 2a14 14 0 100 28 14 14 0 000-28zM4 16a12 12 0 1124 0 12 12 0 01-24 0z"/></svg>