<svg width="16" height="16" viewBox="0 0 16 16" xmlns="http://www.w3.org/2000/svg"><path d="m13.3 14.02.85.83a.5.5 0 0 0 .7-.7l-13-13a.5.5 0 1 0-.7.7L4 4.71V8c0 .83.4 1.56 1.02 2.02.04-.41.12-.8.24-1.18A1.5 1.5 0 0 1 5 8V5.7l1.98 2a4.5 4.5 0 0 0 6.32 6.32Zm-2.19-2.2-.15.37a.5.5 0 0 1-.93-.02l-.64-1.8-.22.5a.5.5 0 0 1-.46.3H8a.5.5 0 0 1 0-1h.38l.33-.76 2.4 2.4ZM8.56 6.44l6 6a4.5 4.5 0 0 0-6-6ZM4.79 2.67l.71.71A1.5 1.5 0 0 1 8 4.5v1.1c.32-.16.65-.3 1-.4v-.7a2.5 2.5 0 0 0-4.2-1.83Zm.53 9.67a5.47 5.47 0 0 1-.28-1.16A3.5 3.5 0 0 1 3 8a.5.5 0 0 0-1 0 4.5 4.5 0 0 0 3.32 4.34Z"/></svg>