<svg width="24" height="24" viewBox="0 0 24 24" xmlns="http://www.w3.org/2000/svg"><path d="M7 8.06V12a4 4 0 0 0 4.17 4c.14-.58.35-1.13.63-1.63A2.5 2.5 0 0 1 8.5 12V9.56l4.62 4.62a5.5 5.5 0 0 0 7.72 7.7.75.75 0 0 0 .94-1.16L3.28 2.22a.75.75 0 1 0-1.06 1.06L7 8.06Zm11.14 11.15-.17.47a.5.5 0 0 1-.94-.02l-.79-2.36 1.9 1.9Zm-2.34-2.35-.34.83A.5.5 0 0 1 15 18h-1a.5.5 0 0 1 0-1h.66l.37-.91.77.77ZM13.5 6v4.32l1.28 1.28.22-.1V6a4 4 0 0 0-7.59-1.77l1.16 1.16A2.5 2.5 0 0 1 13.5 6Zm2.04 6.36 7.1 7.1A5.49 5.49 0 0 0 17.5 12c-.69 0-1.35.13-1.96.36ZM11 17.5c0 1.1.27 2.13.75 3.03v.72a.75.75 0 0 1-1.5.1v-2.37A6.75 6.75 0 0 1 4 12.48v-.73a.75.75 0 0 1 1.5-.1v.6a5.25 5.25 0 0 0 5.03 5.25H11Z"/></svg>