<svg width="28" height="28" viewBox="0 0 28 28" xmlns="http://www.w3.org/2000/svg"><path d="M8.5 9.56v4.94a4.5 4.5 0 0 0 4.65 4.5c.11-.55.28-1.08.5-1.57A3 3 0 0 1 10 14.5v-3.44l5.4 5.4a6.5 6.5 0 0 0 9.13 9.13l.19.2a.75.75 0 0 0 1.06-1.07L3.28 2.22a.75.75 0 1 0-1.06 1.06L8.5 9.56Zm12.78 12.78-.31.84a.5.5 0 0 1-.95-.04l-.88-2.94 2.14 2.14Zm-2.4-2.4-.43 1.24a.5.5 0 0 1-.47.34H16.5a.5.5 0 0 1 0-1h1.12l.47-1.37.78.79ZM8.62 5.43 10 6.82V6.5a3 3 0 1 1 6 0v6.32l1.03 1.03.47-.23V6.5a4.5 4.5 0 0 0-8.87-1.06Zm9.15 9.16 3.97 3.97a.5.5 0 0 1 .7.2l.48.97.77.78h.8a.5.5 0 0 1 .17.97l1.73 1.73a6.5 6.5 0 0 0-8.63-8.63ZM13 21h.02c.06.99.32 1.93.73 2.77v1.48a.75.75 0 0 1-1.5 0v-2.78A8 8 0 0 1 5 14.5v-.75a.75.75 0 0 1 1.5 0v.75A6.5 6.5 0 0 0 13 21Z"/></svg>