<svg width="32" height="32" viewBox="0 0 32 32" xmlns="http://www.w3.org/2000/svg"><path d="M9 10.41V16a6 6 0 0 0 5.06 5.93c.08-.68.24-1.34.46-1.96A4 4 0 0 1 11 16v-3.59l6.04 6.04a7.5 7.5 0 0 0 10.51 10.51l.74.75a1 1 0 0 0 1.42-1.42l-26-26a1 1 0 0 0-1.42 1.42L9 10.4Zm15.37 15.37-.16.47a.75.75 0 0 1-1.42 0l-1.1-3.14 2.68 2.67Zm-3.18-3.17-.26.68a.75.75 0 0 1-.7.48h-1.48a.75.75 0 0 1 0-1.5h.96l.32-.82 1.16 1.16Zm-1.42-6.38 4.7 4.7.07-.18a.75.75 0 0 1 1.41-.01l.57 1.53h.73a.75.75 0 0 1 .06 1.5l2.46 2.46a7.5 7.5 0 0 0-10-10ZM9.39 5.86l1.64 1.63A4 4 0 0 1 19 8v6.94c.63-.32 1.3-.56 2-.72V8A6 6 0 0 0 9.4 5.86ZM7 16a8 8 0 0 0 7.05 7.94c.18 1.78.89 3.4 1.95 4.72V29a1 1 0 1 1-2 0v-3.05A10 10 0 0 1 5 16a1 1 0 1 1 2 0Z"/></svg>