<svg width="28" height="28" viewBox="0 0 28 28" xmlns="http://www.w3.org/2000/svg"><path d="M14 2a5 5 0 0 0-4.79 3.56 5 5 0 0 0-4.02 6.3A5 5 0 0 0 8 21h3v3c0 1.1.9 2 2 2h2a2 2 0 0 0 2-2v-3h3a5 5 0 0 0 2.81-9.14 5 5 0 0 0-4.02-6.3A5 5 0 0 0 14 2Zm1.5 19v3a.5.5 0 0 1-.5.5h-2a.5.5 0 0 1-.5-.5v-3h3ZM10.55 6.38a3.5 3.5 0 0 1 6.9 0c.06.35.35.6.7.62a3.5 3.5 0 0 1 3.06 4.9c-.16.36 0 .79.35.97A3.5 3.5 0 0 1 20 19.5H8a3.5 3.5 0 0 1-1.56-6.63c.35-.18.5-.6.35-.97A3.5 3.5 0 0 1 9.85 7a.75.75 0 0 0 .7-.62Z"/></svg>