<svg width="20" height="20" viewBox="0 0 20 20" xmlns="http://www.w3.org/2000/svg"><path d="M8.75 4.75A.75.75 0 0 0 8 4H5.8a4 4 0 0 0 .2 8h2.1a.75.75 0 0 0-.1-1.5H5.84a2.5 2.5 0 0 1 .16-5h2.1a.75.75 0 0 0 .65-.75ZM18 8a4 4 0 0 0-4-4h-2.1a.75.75 0 0 0 .1 1.5h2.16a2.5 2.5 0 0 1 2.08 3.61c.5.16.93.46 1.24.86.33-.58.52-1.25.52-1.97ZM6.25 7.25h7.5a.75.75 0 0 1 .1 1.5h-7.6a.75.75 0 0 1-.1-1.5h.1ZM12 12v-.5c0-.83.67-1.5 1.5-1.5h2c.83 0 1.5.67 1.5 1.5v.5h.5c.83 0 1.5.67 1.5 1.5V15h-2v-.5a.5.5 0 0 0-1 0v.5h-3v-.5a.5.5 0 0 0-1 0v.5h-2v-1.5c0-.83.67-1.5 1.5-1.5h.5Zm1-.5v.5h3v-.5a.5.5 0 0 0-.5-.5h-2a.5.5 0 0 0-.5.5Zm4 5V16h2v1.5c0 .83-.67 1.5-1.5 1.5h-6a1.5 1.5 0 0 1-1.5-1.5V16h2v.5a.5.5 0 0 0 1 0V16h3v.5a.5.5 0 0 0 1 0Z"/></svg>