<svg width="24" height="24" viewBox="0 0 24 24" xmlns="http://www.w3.org/2000/svg"><path d="M6.5 12a5.5 5.5 0 1 1 0 11 5.5 5.5 0 0 1 0-11ZM13 1a10 10 0 1 1-1 19.95c.32-.5.57-1.04.74-1.62H13a8.34 8.34 0 0 0 0-16.66A8.34 8.34 0 0 0 4.67 11v.26c-.58.17-1.12.42-1.62.73A10 10 0 0 1 13 1ZM3.72 14.59l-.07.06-.06.07a.5.5 0 0 0 0 .56l.06.07 2.14 2.15-2.14 2.15-.06.07a.5.5 0 0 0 0 .56l.06.07.07.06c.17.12.4.12.56 0l.07-.06 2.15-2.14 2.15 2.14.07.06c.17.12.4.12.56 0l.07-.06.06-.07a.5.5 0 0 0 0-.56l-.06-.07-2.14-2.15 2.14-2.15.06-.07a.5.5 0 0 0 0-.56l-.06-.07-.07-.06a.5.5 0 0 0-.56 0l-.07.06-2.15 2.14-2.15-2.14-.07-.06a.5.5 0 0 0-.49-.04l-.07.04ZM12.25 5c.38 0 .7.28.74.65l.01.1V11h3.25a.75.75 0 0 1 .1 1.5h-4.1a.75.75 0 0 1-.74-.65l-.01-.1v-6c0-.41.34-.75.75-.75Z"/></svg>