<svg width="24" height="24" viewBox="0 0 24 24" xmlns="http://www.w3.org/2000/svg"><path d="M18.88 6.66a2 2 0 001.33.33 2 2 0 10-1.33-.33zM2 19a2 2 0 104 0 2 2 0 00-4 0zM6.88 6.66a2 2 0 003-.97 2 2 0 10-3 .97zM4.08 16l2.4-8.41c.43.25.92.4 1.44.4l-2.4 8.42c-.43-.25-.92-.4-1.44-.4zM17.09 5.75h-6.18a3 3 0 000-1.5h6.18a3 3 0 000 1.5zm-5.69 14c-.18-.48-.3-.98-.36-1.5H6.91a3 3 0 010 1.5h4.49zM19.92 8l-.9 3.18A6.52 6.52 0 0017.5 11l.97-3.41c.43.25.92.4 1.44.4zM23 17.5a5.5 5.5 0 11-11 0 5.5 5.5 0 0111 0zm-7.15-2.35a.5.5 0 00-.7.7l1.64 1.65-1.64 1.65a.5.5 0 00.7.7l1.65-1.64 1.65 1.64a.5.5 0 00.7-.7l-1.64-1.65 1.64-1.65a.5.5 0 00-.7-.7l-1.65 1.64-1.65-1.64z"/></svg>