<svg width="24" height="24" viewBox="0 0 24 24" xmlns="http://www.w3.org/2000/svg"><path d="M18.88 6.66a2 2 0 0 0 1.33.33 2 2 0 1 0-1.33-.33ZM2 19a2 2 0 1 0 4 0 2 2 0 0 0-4 0ZM6.88 6.66a2 2 0 0 0 3-.97 2 2 0 1 0-3 .97ZM4.08 16l2.4-8.41c.43.25.92.4 1.44.4l-2.4 8.42c-.43-.25-.92-.4-1.44-.4ZM17.09 5.75h-6.18a3 3 0 0 0 0-1.5h6.18a3 3 0 0 0 0 1.5Zm-5.69 14c-.18-.48-.3-.98-.36-1.5H6.91a3 3 0 0 1 0 1.5h4.49ZM19.92 8l-.9 3.18A6.52 6.52 0 0 0 17.5 11l.97-3.41c.43.25.92.4 1.44.4ZM23 17.5a5.5 5.5 0 1 1-11 0 5.5 5.5 0 0 1 11 0Zm-7.15-2.35a.5.5 0 0 0-.7.7l1.64 1.65-1.64 1.65a.5.5 0 0 0 .7.7l1.65-1.64 1.65 1.64a.5.5 0 0 0 .7-.7l-1.64-1.65 1.64-1.65a.5.5 0 0 0-.7-.7l-1.65 1.64-1.65-1.64Z"/></svg>