<svg width="24" height="24" viewBox="0 0 24 24" xmlns="http://www.w3.org/2000/svg"><path d="M18.59 6.41A2 2 0 0022 5a2 2 0 10-3.44 1.4l.03.01zM2 19a2 2 0 104 0 2 2 0 00-4 0zM6.59 6.41A2 2 0 0010 5a2 2 0 00-2-2 2 2 0 00-1.44 3.4l.03.01zm-.33 1.04L3.82 16a3.05 3.05 0 011.92.54L8.18 8a3.05 3.05 0 01-1.92-.54zM17.17 6h-6.34a3 3 0 000-2h6.34a3 3 0 000 2zM11.5 20a6.46 6.46 0 01-.48-2h-4.2a3 3 0 010 2h4.68zm8.68-12l-.92 3.24a6.5 6.5 0 00-2.02-.24l1.02-3.55a2.99 2.99 0 001.92.54zM23 17.5a5.5 5.5 0 11-11 0 5.5 5.5 0 0111 0zm-7.15-2.35a.5.5 0 00-.7.7l1.64 1.65-1.64 1.65a.5.5 0 00.7.7l1.65-1.64 1.65 1.64a.5.5 0 00.7-.7l-1.64-1.65 1.64-1.65a.5.5 0 00-.7-.7l-1.65 1.64-1.65-1.64z"/></svg>