<svg width="20" height="20" viewBox="0 0 20 20" xmlns="http://www.w3.org/2000/svg"><path d="M4.5 2A2.5 2.5 0 0 0 2 4.5v9A2.5 2.5 0 0 0 4.5 16h1.54a3.53 3.53 0 0 1-.04-.5v-4A3.5 3.5 0 0 1 9.5 8h6c.17 0 .34.01.5.04V4.5A2.5 2.5 0 0 0 13.5 2h-9ZM5 4.5c0-.28.22-.5.5-.5h7a.5.5 0 0 1 0 1h-7a.5.5 0 0 1-.5-.5Zm2 2c0-.28.22-.5.5-.5h5a.5.5 0 0 1 0 1h-5a.5.5 0 0 1-.5-.5Zm5.5 7.2-5.3-3.17A2.5 2.5 0 0 1 9.5 9h6a2.5 2.5 0 0 1 2.3 1.53l-5.3 3.17Zm.26 1L18 11.59v3.92a2.5 2.5 0 0 1-2.5 2.5h-6A2.5 2.5 0 0 1 7 15.5v-3.92l5.24 3.13c.16.1.36.1.52 0Z"/></svg>