<svg width="20" height="20" viewBox="0 0 20 20" xmlns="http://www.w3.org/2000/svg"><path d="M2 4.5A2.5 2.5 0 0 1 4.5 2h9A2.5 2.5 0 0 1 16 4.5v3.54a3.53 3.53 0 0 0-.5-.04H15V4.5c0-.83-.67-1.5-1.5-1.5h-9C3.67 3 3 3.67 3 4.5v9c0 .83.67 1.5 1.5 1.5H6v.5c0 .17.01.34.04.5H4.5A2.5 2.5 0 0 1 2 13.5v-9Zm11 3a.5.5 0 0 1-.5.5h-5a.5.5 0 0 1 0-1h5c.28 0 .5.22.5.5Zm-8-2c0-.28.22-.5.5-.5h7a.5.5 0 0 1 0 1h-7a.5.5 0 0 1-.5-.5Zm2 6A2.5 2.5 0 0 1 9.5 9h6a2.5 2.5 0 0 1 2.5 2.5v4a2.5 2.5 0 0 1-2.5 2.5h-6A2.5 2.5 0 0 1 7 15.5v-4ZM9.5 10a1.5 1.5 0 0 0-1.48 1.23l4.48 2.69 4.48-2.69A1.5 1.5 0 0 0 15.5 10h-6ZM8 15.5c0 .83.67 1.5 1.5 1.5h6c.83 0 1.5-.67 1.5-1.5v-3.12l-4.24 2.55a.5.5 0 0 1-.52 0L8 12.38v3.12Z"/></svg>