<svg width="24" height="24" viewBox="0 0 24 24" xmlns="http://www.w3.org/2000/svg"><path d="M3.28 2.22a.75.75 0 10-1.06 1.06L3.94 5H2.75a.75.75 0 000 1.5h2.69l5 5H2.75a.75.75 0 000 1.5h9.19l3.03 3.03a.75.75 0 00-.75.19l-2 2c-.3.3-.3.77 0 1.06l2 2a.75.75 0 101.06-1.06l-.72-.72h3.88l2.28 2.28a.75.75 0 001.06-1.06L3.28 2.22zM16.94 18h-2.38l.72-.72c.2-.2.27-.5.19-.75L16.94 18zM19 11.5h-4.32l1.5 1.5H19a2.5 2.5 0 011.6 4.42l1.06 1.06A3.99 3.99 0 0019 11.5zM8.18 5l1.5 1.5h11.57a.75.75 0 000-1.5H8.18zM2 18.75c0-.41.34-.75.75-.75h6.5a.75.75 0 010 1.5h-6.5a.75.75 0 01-.75-.75z"/></svg>