<svg width="20" height="20" viewBox="0 0 20 20" xmlns="http://www.w3.org/2000/svg"><path d="M2.15 2.15c.2-.2.5-.2.7 0l15 15a.5.5 0 01-.7.7L14.29 15h-1.94l.23.27a.75.75 0 01-1.16.96l-1.25-1.5a.75.75 0 010-.96l1.25-1.5a.75.75 0 01.07-.07L9.3 10H2.75a.75.75 0 010-1.5h5.04L4.3 5H2.75a.75.75 0 010-1.5h.04l-.64-.65a.5.5 0 010-.7zm8.47 6.35h5.13a3.25 3.25 0 011.16 6.29l-1.29-1.29h.13a1.75 1.75 0 100-3.5h-3.63l-1.5-1.5zM7.12 5l-1.5-1.5h11.63a.75.75 0 010 1.5H7.12zm-4.37 8.5a.75.75 0 000 1.5h4.5a.75.75 0 000-1.5h-4.5z"/></svg>