<svg width="24" height="24" viewBox="0 0 24 24" xmlns="http://www.w3.org/2000/svg"><path d="M18 20.5h-5.01c-.06.6-.34 1.12-.76 1.5H18a2 2 0 002-2V9.83a2 2 0 00-.59-1.42L13.6 2.6a.5.5 0 00-.05-.04 2.07 2.07 0 00-.34-.25l-.05-.03-.05-.03-.16-.09c-.2-.08-.41-.12-.63-.14h-.06a.6.6 0 00-.08-.01H6a2 2 0 00-2 2v7h1.5V4c0-.27.22-.5.5-.5h6V8c0 1.1.9 2 2 2h4.5v10a.5.5 0 01-.5.5zm-.62-12H14a.5.5 0 01-.5-.5V4.62l3.88 3.88zm-4.38 9V19h2.25c.97 0 1.75-.78 1.75-1.75v-4c0-.97-.78-1.75-1.75-1.75H9.18c.47.34.81.83.97 1.4.54.13 1.02.44 1.35.88V13h3.75c.14 0 .25.11.25.25v1.25h-3.6l.75 1.5h2.85v1.25c0 .14-.11.25-.25.25H13zM2.6 12c-.88 0-1.6.72-1.6 1.6v6.42c0 .65.39 1.21.94 1.46a1.83 1.83 0 003.59.14h1.03a1.83 1.83 0 003.55 0h.52c.75 0 1.37-.61 1.37-1.37v-3c0-.2-.05-.42-.15-.6l-1.02-2.06c-.23-.46-.7-.76-1.23-.76h-.35v-.23c0-.88-.72-1.6-1.6-1.6H2.6zm6.65 4.58v-1.83h.35c.17 0 .33.1.41.25l.79 1.58H9.25zm-6.42 4.59a.92.92 0 111.84 0 .92.92 0 01-1.84 0zm5.5.91a.92.92 0 110-1.83.92.92 0 010 1.83z"/></svg>