<svg width="16" height="16" viewBox="0 0 16 16" xmlns="http://www.w3.org/2000/svg"><path d="M8.8 2.1a.9.9 0 0 0-1.6 0L5.66 5.18l-3.4.5a.9.9 0 0 0-.5 1.53l2.46 2.4L3.65 13a.9.9 0 0 0 1.3.95l.92-.48a5.48 5.48 0 0 1-.46-.89l-.74.39.56-3.24a.9.9 0 0 0-.26-.8l-2.35-2.3 3.25-.46a.9.9 0 0 0 .68-.5L8 2.73l1.2 2.42a5.5 5.5 0 0 1 1.04-.14L8.81 2.1ZM5 10.5v-.1.2-.1Zm10 0a4.5 4.5 0 1 1-9 0 4.5 4.5 0 0 1 9 0Zm-4-2a.5.5 0 0 0-1 0V10H8.5a.5.5 0 0 0 0 1H10v1.5a.5.5 0 1 0 1 0V11h1.5a.5.5 0 1 0 0-1H11V8.5Z"/></svg>