<svg width="16" height="16" viewBox="0 0 16 16" xmlns="http://www.w3.org/2000/svg"><path d="M9 1v3.5c0 .83.67 1.5 1.5 1.5H14v7.5c0 .83-.67 1.5-1.5 1.5H8.19c.2-.35.27-.77.16-1.18C9.95 13.63 11 12.1 11 10.5a5.5 5.5 0 00-7-5.3V2.5C4 1.67 4.67 1 5.5 1H9zM6.86 14.79A4.5 4.5 0 1110 10.5c0 1.3-.89 2.34-1.98 2.34a1.37 1.37 0 01-1.18-.58 1.82 1.82 0 01-2.84-.2c-.3-.41-.48-.97-.48-1.56 0-.6.17-1.15.48-1.57.34-.47.86-.77 1.5-.77a1.82 1.82 0 01.97.27.51.51 0 01.08-.1.54.54 0 01.93.3v1.87c0 .9.2 1.26.54 1.26.45 0 .9-.52.9-1.26A3.4 3.4 0 005.5 7.08a3.4 3.4 0 00-3.42 3.42 3.42 3.42 0 004.25 3.32l.2-.06.15-.05a.54.54 0 01.43.99l-.06.03-.19.06zM4.6 10.5c0 .72.38 1.26.9 1.26s.9-.54.9-1.26-.38-1.26-.9-1.26-.9.54-.9 1.26zM10 1.25V4.5c0 .28.22.5.5.5h3.25L10 1.25zm-2.17 9.57z"/></svg>