<svg width="28" height="28" viewBox="0 0 28 28" xmlns="http://www.w3.org/2000/svg"><path d="M6.4 2A2.4 2.4 0 004 4.4v9.24c.47-.24.98-.44 1.5-.58V4.4c0-.5.4-.9.9-.9H14V10c0 1.1.9 2 2 2h6.5v11.6c0 .5-.4.9-.9.9h-8.46c-.54.34-1.17.55-1.86.58a2.03 2.03 0 01.16.92H21.6a2.4 2.4 0 002.4-2.4V11.58c0-.73-.29-1.43-.8-1.95L16.25 2.7a2.4 2.4 0 00-1.7-.7H6.4zm15.54 8.5H16a.5.5 0 01-.5-.5V4.06l6.44 6.44zM14 20.5a6.5 6.5 0 10-4.53 6.2l.26-.1.1-.04a.78.78 0 00-.63-1.42l-.2.07-.3.08a4.95 4.95 0 113.74-4.79c0 1.07-.65 1.82-1.3 1.82-.49 0-.78-.53-.78-1.82v-2.7a.78.78 0 00-1.46-.29 2.6 2.6 0 00-1.4-.39c-1.76 0-2.86 1.58-2.86 3.38 0 1.8 1.1 3.38 2.86 3.38.8 0 1.45-.32 1.93-.84.39.54.95.84 1.71.84 1.57 0 2.86-1.5 2.86-3.38zm-7.8 0c0-1.04.55-1.82 1.3-1.82s1.3.78 1.3 1.82-.55 1.82-1.3 1.82-1.3-.78-1.3-1.82z"/></svg>