<svg width="28" height="28" viewBox="0 0 28 28" xmlns="http://www.w3.org/2000/svg"><path d="M14 2v8c0 1.1.9 2 2 2h8v11.6a2.4 2.4 0 01-2.4 2.4H11.44a1.97 1.97 0 00-.16-.92c2.34-.09 3.92-2.27 3.92-4.58A7.7 7.7 0 004 13.64V4.4A2.4 2.4 0 016.4 2H14zm1.5.48V10c0 .28.22.5.5.5h7.5c-.09-.13-.2-.25-.3-.37L15.75 2.7a2.4 2.4 0 00-.26-.22zM14 20.5a6.5 6.5 0 10-4.53 6.2l.26-.1.1-.04a.78.78 0 00-.63-1.42l-.2.07-.3.08a4.95 4.95 0 113.74-4.79c0 1.07-.65 1.82-1.3 1.82-.49 0-.78-.53-.78-1.82v-2.7a.78.78 0 00-1.46-.29 2.6 2.6 0 00-1.4-.39c-1.76 0-2.86 1.58-2.86 3.38 0 1.8 1.1 3.38 2.86 3.38.8 0 1.45-.32 1.93-.84.39.54.95.84 1.71.84 1.57 0 2.86-1.5 2.86-3.38zm-7.8 0c0-1.04.55-1.82 1.3-1.82s1.3.78 1.3 1.82-.55 1.82-1.3 1.82-1.3-.78-1.3-1.82z"/></svg>