<svg width="24" height="24" viewBox="0 0 24 24" xmlns="http://www.w3.org/2000/svg"><path d="M18.5 20a.5.5 0 01-.5.5h-5.97c-.54.56-1.25.95-2.08 1.04.05.15.07.3.07.46H18a2 2 0 002-2V9.83a2 2 0 00-.59-1.42L13.6 2.6a.5.5 0 00-.05-.04 2.07 2.07 0 00-.34-.25l-.05-.03-.05-.03-.16-.09c-.2-.08-.41-.12-.63-.14h-.06a.6.6 0 00-.08-.01H6a2 2 0 00-2 2v7.28c.48-.19.98-.33 1.5-.4V4c0-.27.22-.5.5-.5h6V8c0 1.1.9 2 2 2h4.5v10zm-5-15.38l3.88 3.88H14a.5.5 0 01-.5-.5V4.62zM4 14.15a4.16 4.16 0 012.5-.83c2.3 0 4.18 1.87 4.18 4.18 0 .9-.55 1.54-1.1 1.54-.41 0-.66-.45-.66-1.54v-2.29a.66.66 0 00-1.23-.24 2.2 2.2 0 00-1.19-.33c-1.49 0-2.42 1.33-2.42 2.86 0 .87.3 1.67.83 2.2a2.22 2.22 0 001.59.65c.67.01 1.23-.26 1.64-.7.32.45.8.71 1.44.71 1.33 0 2.42-1.27 2.42-2.86a5.5 5.5 0 10-3.84 5.24l.23-.07.08-.04a.66.66 0 00-.53-1.2l-.17.06-.25.06A4.2 4.2 0 014 14.15zm1.5 4.02a2.18 2.18 0 010-1.33c.17-.53.54-.88 1-.88.64 0 1.1.66 1.1 1.54s-.46 1.54-1.1 1.54c-.46 0-.83-.35-1-.87z"/></svg>