<svg width="24" height="24" viewBox="0 0 24 24" xmlns="http://www.w3.org/2000/svg"><path d="M12 2v6c0 1.1.9 2 2 2h6v10a2 2 0 01-2 2h-7.98c0-.15-.02-.3-.07-.46 1.97-.21 3.25-2.1 3.25-4.04A6.7 6.7 0 004 11.28V4c0-1.1.9-2 2-2h6zm1.5.5V8c0 .28.22.5.5.5h5.5l-6-6zm-1.5 15a5.5 5.5 0 10-3.84 5.24l.23-.07.08-.04a.66.66 0 00-.53-1.2l-.17.06-.25.06a4.2 4.2 0 01-5.2-4.05 4.18 4.18 0 018.36 0c0 .9-.55 1.54-1.1 1.54-.41 0-.66-.45-.66-1.54v-2.29a.66.66 0 00-1.23-.24 2.2 2.2 0 00-1.19-.33c-1.49 0-2.42 1.33-2.42 2.86 0 1.53.93 2.86 2.42 2.86.67 0 1.23-.27 1.64-.7.32.44.8.7 1.44.7 1.33 0 2.42-1.27 2.42-2.86zm-6.6 0c0-.88.46-1.54 1.1-1.54.64 0 1.1.66 1.1 1.54s-.46 1.54-1.1 1.54c-.64 0-1.1-.66-1.1-1.54z"/></svg>