<svg width="48" height="48" viewBox="0 0 48 48" xmlns="http://www.w3.org/2000/svg"><path d="M12.25 4A4.25 4.25 0 008 8.25v16.43c.8-.28 1.63-.48 2.5-.59V8.25c0-.97.78-1.75 1.75-1.75H24v8.75A3.75 3.75 0 0027.75 19h9.75v20.75c0 .97-.78 1.75-1.75 1.75H22.47a5.98 5.98 0 01-4.63 2c.05.16.1.33.12.5h17.79C38.1 44 40 42.1 40 39.75V18.41c0-.6-.24-1.16-.66-1.59L27.18 4.66c-.43-.42-1-.66-1.6-.66H12.26zm23.23 12.5h-7.73c-.69 0-1.25-.56-1.25-1.25V7.52l8.98 8.98zM22 35.72a10 10 0 10-6.66 9.7 1 1 0 00-.67-1.88A7.99 7.99 0 014 36a8 8 0 1116 0v1.65a2 2 0 01-4-.15v-5.62a1 1 0 00-1.99-.04A4.18 4.18 0 0011.5 31C8.98 31 7 33.25 7 35.97c0 2.71 1.98 4.96 4.5 4.96 1.2 0 2.29-.51 3.09-1.35A4 4 0 0022 37.53v-1.81zM11.5 33h.15c1.27.1 2.33 1.34 2.35 2.93v.22c-.09 1.58-1.2 2.78-2.5 2.78-1.35 0-2.5-1.3-2.5-2.96C9 34.3 10.15 33 11.5 33z"/></svg>