<svg width="16" height="16" viewBox="0 0 16 16" xmlns="http://www.w3.org/2000/svg"><path d="M6 1a2 2 0 00-2 2v2.2c.32-.08.66-.15 1-.18V3a1 1 0 011-1h3v2.5c0 .83.67 1.5 1.5 1.5H13v7a1 1 0 01-1 1H8.39c.05.35-.03.7-.2 1H12a2 2 0 002-2V5.41c0-.4-.16-.78-.44-1.06l-2.91-2.91A1.5 1.5 0 009.59 1H6zm6.8 4h-2.3a.5.5 0 01-.5-.5V2.2L12.8 5zm-5.94 9.79A4.48 4.48 0 015.5 15a4.5 4.5 0 114.5-4.5c0 1.3-.89 2.34-1.98 2.34-.52 0-.92-.2-1.18-.58a1.88 1.88 0 01-1.84.51 1.84 1.84 0 01-1-.7c-.3-.42-.48-.98-.48-1.57 0-.6.17-1.15.48-1.57a1.84 1.84 0 012.47-.5.54.54 0 011 .2l.01.07v1.8c0 .9.2 1.26.54 1.26.45 0 .9-.52.9-1.26a3.42 3.42 0 10-3.42 3.42h.03a3.91 3.91 0 00.8-.1l.2-.06.15-.05a.54.54 0 01.43.99l-.06.03-.19.06zM5 9.44c-.25.22-.4.6-.4 1.06 0 .46.15.84.4 1.06.14.13.31.2.5.2.52 0 .9-.54.9-1.26s-.38-1.26-.9-1.26a.74.74 0 00-.5.2z"/></svg>