<svg width="20" height="20" viewBox="0 0 20 20" xmlns="http://www.w3.org/2000/svg"><path d="M7 2.5c0-.28.22-.5.5-.5h4a.5.5 0 0 1 0 1h-4a.5.5 0 0 1-.5-.5Zm7.45 1.43c.2-.2.51-.2.7 0l1.42 1.41a.5.5 0 1 1-.7.71l-1.42-1.41a.5.5 0 0 1 0-.71ZM9 6.5a.5.5 0 0 1 1 0v5a.5.5 0 0 1-1 0v-5Zm3 11.04A6.98 6.98 0 0 1 2.5 11a7 7 0 0 1 13.95-.87 3.5 3.5 0 0 0-1.03-.13 6 6 0 1 0-3.23 6.37A3.5 3.5 0 0 0 12 17.5v.04ZM15.5 11a2.5 2.5 0 0 0-2.5 2.5.5.5 0 0 0 1 0 1.5 1.5 0 1 1 1.5 1.5 2.5 2.5 0 0 0-2.5 2.5v1c0 .28.22.5.5.5h4a.5.5 0 0 0 0-1H14v-.5c0-.83.67-1.5 1.5-1.5a2.5 2.5 0 0 0 0-5Z"/></svg>