<svg width="24" height="24" viewBox="0 0 24 24" xmlns="http://www.w3.org/2000/svg"><path d="M20.4 12.16a8.5 8.5 0 1 0-5.4 9.3v-.21c0-.56.1-1.09.3-1.58a7 7 0 1 1 3.54-7.65 4.3 4.3 0 0 1 1.55.14Zm-7.66-3.51a.75.75 0 0 0-1.49.1v4.6a.75.75 0 0 0 1.5-.1v-4.6Zm6.49-3.48-.08-.06a.75.75 0 0 0-.88 1.22l1.16.96.08.06a.75.75 0 0 0 .88-1.21l-1.16-.97ZM15 3.25a.75.75 0 0 0-.75-.75h-4.6a.75.75 0 0 0 .1 1.5h4.6a.75.75 0 0 0 .65-.75ZM19.25 13A3.25 3.25 0 0 0 16 16.25a.75.75 0 0 0 1.5 0A1.75 1.75 0 1 1 19.25 18 3.25 3.25 0 0 0 16 21.25v1c0 .41.34.75.75.75h5a.75.75 0 0 0 0-1.5H17.5v-.25c0-.97.78-1.75 1.75-1.75a3.25 3.25 0 0 0 0-6.5Z"/></svg>