<svg width="24" height="24" viewBox="0 0 24 24" xmlns="http://www.w3.org/2000/svg"><path d="M8.5 12.75v4c0 .43.08.85.22 1.25H3.5A1.5 1.5 0 012 16.5v-13A1.5 1.5 0 013.5 2h6A1.5 1.5 0 0111 3.5V7h1.5A1.5 1.5 0 0114 8.5V9h-1.75a3.75 3.75 0 00-3.75 3.75zm-.33-7.62A.75.75 0 007.75 5a.76.76 0 00-.75.75.75.75 0 101.17-.62zm0 3A.75.75 0 007.75 8a.76.76 0 00-.75.75.75.75 0 101.17-.62zm-3.34 4.24c.13.09.27.13.42.13a.76.76 0 00.75-.75.75.75 0 10-1.17.62zm0-3c.13.09.27.13.42.13A.76.76 0 006 8.75a.75.75 0 10-1.17.62zm0-3c.13.09.27.13.42.13A.76.76 0 006 5.75a.75.75 0 10-1.17.62zm2.5 6c.13.09.27.13.42.13a.76.76 0 00.75-.75.75.75 0 10-1.17.62zm2.17.38A2.75 2.75 0 0112.25 10h7A2.75 2.75 0 0122 12.75v4a2.75 2.75 0 01-2.75 2.75H18v1h1.25a.75.75 0 010 1.5h-7a.75.75 0 010-1.5h1.25v-1h-1.25a2.75 2.75 0 01-2.75-2.75v-4zM15 19.5v1h1.5v-1H15zm-2.75-8c-.69 0-1.25.56-1.25 1.25v4c0 .69.56 1.25 1.25 1.25h7c.69 0 1.25-.56 1.25-1.25v-4c0-.69-.56-1.25-1.25-1.25h-7z"/></svg>