<svg width="16" height="16" viewBox="0 0 16 16" xmlns="http://www.w3.org/2000/svg"><path d="M3 2.25c0-.14.11-.25.25-.25h4.5c.14 0 .26.11.25.25v2c0 .69.56 1.25 1.25 1.25h.5c.14 0 .25.11.25.25V6h1v-.25-.05a1.25 1.25 0 00-1.25-1.2h-.5A.25.25 0 019 4.25v-2C9 1.56 8.45 1 7.75 1h-4.5C2.56 1 2 1.56 2 2.25v8.5c0 .69.56 1.25 1.25 1.25H5.1c-.06-.24-.1-.49-.1-.75V11H3.25a.25.25 0 01-.25-.25v-8.5zM4.5 4a.5.5 0 100-1 .5.5 0 000 1zM5 5.5a.5.5 0 11-1 0 .5.5 0 011 0zM4.5 8a.5.5 0 100-1 .5.5 0 000 1zM7 3.5a.5.5 0 11-1 0 .5.5 0 011 0zM6.5 6a.5.5 0 100-1 .5.5 0 000 1zM6 8.75C6 7.78 6.78 7 7.75 7h5.5c.97 0 1.75.78 1.75 1.75v2.5c0 .97-.78 1.75-1.75 1.75H12v1h.5a.5.5 0 010 1h-4a.5.5 0 010-1H9v-1H7.75C6.78 13 6 12.22 6 11.25v-2.5zM7.75 12h5.5c.41 0 .75-.34.75-.75v-2.5a.75.75 0 00-.75-.75h-5.5a.75.75 0 00-.75.75v2.5c0 .41.34.75.75.75zM11 14v-1h-1v1h1z"/></svg>