<svg width="20" height="20" viewBox="0 0 20 20" xmlns="http://www.w3.org/2000/svg"><path d="M2 3.25C2 2.56 2.56 2 3.25 2h5.5C9.44 2 10 2.56 10 3.25v2.5c0 .14.11.25.25.25h1.5c.69 0 1.25.56 1.25 1.25V8h-3c-.82 0-1.57.33-2.1.86A.75.75 0 107.16 10 3 3 0 007 11v4H3.25C2.56 15 2 14.44 2 13.75V3.25zM8.27 10A2 2 0 0110 9h7a2 2 0 012 2v4a2 2 0 01-2 2h-2v1h1.5a.5.5 0 010 1h-6a.5.5 0 010-1H12v-1h-2a2 2 0 01-2-2v-4c0-.36.1-.7.27-1zM10 10a1 1 0 00-1 1v4a1 1 0 001 1h7a1 1 0 001-1v-4a1 1 0 00-1-1h-7zM4 4.75a.75.75 0 101.5 0 .75.75 0 00-1.5 0zm.75 3a.75.75 0 100-1.5.75.75 0 000 1.5zM4 9.25a.75.75 0 101.5 0 .75.75 0 00-1.5 0zM7.25 5.5a.75.75 0 100-1.5.75.75 0 000 1.5zM6.5 7A.75.75 0 108 7a.75.75 0 00-1.5 0zM14 18v-1h-1v1h1z"/></svg>