<svg width="20" height="20" viewBox="0 0 20 20" xmlns="http://www.w3.org/2000/svg"><path d="M3 3.25c0-.14.11-.25.25-.25h5.5c.14 0 .25.11.25.25v2.5C9 6.44 9.56 7 10.25 7h1.5c.14 0 .25.11.25.25V8h1v-.75C13 6.56 12.44 6 11.75 6h-1.5a.25.25 0 01-.25-.25v-2.5C10 2.56 9.44 2 8.75 2h-5.5C2.56 2 2 2.56 2 3.25v10.5c0 .69.56 1.25 1.25 1.25H7v-1H3.25a.25.25 0 01-.25-.25V3.25zM7.25 8.5c.27 0 .51.15.64.36A3 3 0 007.17 10a.75.75 0 01.08-1.5zm-2.5-3a.75.75 0 100-1.5.75.75 0 000 1.5zM5.5 7A.75.75 0 114 7a.75.75 0 011.5 0zm-.75 3a.75.75 0 100-1.5.75.75 0 000 1.5zM8 4.75a.75.75 0 11-1.5 0 .75.75 0 011.5 0zm-.75 3a.75.75 0 100-1.5.75.75 0 000 1.5zM8 11c0-1.1.9-2 2-2h7a2 2 0 012 2v4a2 2 0 01-2 2h-2v1h1.5a.5.5 0 010 1h-6a.5.5 0 010-1H12v-1h-2a2 2 0 01-2-2v-4zm2 5h7a1 1 0 001-1v-4a1 1 0 00-1-1h-7a1 1 0 00-1 1v4a1 1 0 001 1zm4 2v-1h-1v1h1z"/></svg>