<svg width="24" height="24" viewBox="0 0 24 24" xmlns="http://www.w3.org/2000/svg"><path d="M10.52 4.25a4.5 4.5 0 013.07.04l5.91 2.1a3 3 0 011 .59v-.42a2 2 0 00-1.33-1.88L14 2.85a6 6 0 00-4.02 0L4.83 4.68A2 2 0 003.5 6.56v.42a3 3 0 011-.6l5.91-2.1c.04 0 .07-.02.1-.03zm2.73.98a3.75 3.75 0 00-2.5 0l-5.92 2.1A2 2 0 003.5 9.2v8.24a2 2 0 001.33 1.88l5.92 2.1c.8.29 1.7.29 2.5 0l5.92-2.1a2 2 0 001.33-1.88V9.2a2 2 0 00-1.33-1.88l-5.92-2.1zm-6.8 4.88c.14-.39.57-.6.96-.45L12 11.29l4.6-1.63a.75.75 0 01.5 1.4l-4.35 1.55v4.72a.75.75 0 01-1.5 0v-4.72l-4.34-1.54a.75.75 0 01-.46-.96z"/></svg>