<svg width="16" height="16" viewBox="0 0 16 16" xmlns="http://www.w3.org/2000/svg"><path d="M11.65 4.32 5.04 1.5l-2.08.8c-.2.08-.39.2-.53.35L9 5.46l2.65-1.14ZM7.92.38l-1.55.6 6.55 2.8 2.65-1.14a1.5 1.5 0 0 0-.53-.35L10.08.38a3 3 0 0 0-2.16 0ZM9.5 6.33 16 3.55v6.76a1.5 1.5 0 0 1-.96 1.4l-4.96 1.91a3 3 0 0 1-.58.16V6.33Zm-1 4.17V6.33L2 3.55v2.71A4.5 4.5 0 0 1 3.5 6c2.76 0 5 2.01 5 4.5Zm-5 3.5c.79 0 1.51-.26 2.1-.7l2.55 2.55a.5.5 0 1 0 .7-.7L6.3 12.6A3.5 3.5 0 1 0 3.5 14Zm0-1a2.5 2.5 0 1 1 0-5 2.5 2.5 0 0 1 0 5Z"/></svg>