<svg width="20" height="20" viewBox="0 0 20 20" xmlns="http://www.w3.org/2000/svg"><path d="m10 7.96 3.03-1.21-7.5-3-2.59 1.03a1.5 1.5 0 0 0-.36.21L10 7.96Zm-7.96-2.1c-.03.1-.04.2-.04.32v3.08a4.5 4.5 0 0 1 5.56 6.18l1.94 1.94V8.84L2.04 5.85Zm8.46 11.87c.27-.04.54-.1.8-.21l5.76-2.3c.57-.23.94-.78.94-1.4V6.18c0-.11-.01-.22-.04-.33L10.5 8.84v8.9ZM17.42 5l-3.04 1.22-7.5-3 1.82-.73a3.5 3.5 0 0 1 2.6 0l5.76 2.3c.13.06.25.13.36.21ZM3.5 17c.79 0 1.51-.26 2.1-.7l2.55 2.55a.5.5 0 1 0 .7-.7L6.3 15.6A3.5 3.5 0 1 0 3.5 17Zm0-1a2.5 2.5 0 1 1 0-5 2.5 2.5 0 0 1 0 5Z"/></svg>