<svg width="24" height="24" viewBox="0 0 24 24" xmlns="http://www.w3.org/2000/svg"><path d="M13.4 2.51a3.75 3.75 0 0 0-2.8 0L3.1 5.55c-.67.27-1.1.91-1.1 1.62v4.43c.47-.24.97-.41 1.5-.5V7.74l7.75 3.01v10.02l.24.23c.21.22.36.48.44.75.5.01 1-.08 1.48-.27l7.5-3.04c.66-.27 1.09-.91 1.09-1.62V7.17c0-.7-.43-1.35-1.1-1.62l-7.5-3.04Zm-2.25 1.4a2.25 2.25 0 0 1 1.7 0l6.59 2.66-2.67 1.04-7.53-2.93 1.91-.78ZM7.21 5.5l7.48 2.9L12 9.46 4.6 6.56 7.21 5.5Zm13.13 11.56-7.5 3.04-.09.03v-9.37l7.75-2.99v9.06c0 .1-.06.19-.16.23ZM4.5 21c.97 0 1.87-.3 2.6-.83l2.62 2.61a.75.75 0 1 0 1.06-1.06l-2.61-2.61A4.5 4.5 0 1 0 4.5 21Zm0-1.5a3 3 0 1 1 0-6 3 3 0 0 1 0 6Z"/></svg>