<svg width="16" height="16" viewBox="0 0 16 16" xmlns="http://www.w3.org/2000/svg"><path d="M10.08.38a3 3 0 0 0-2.16 0l-4.96 1.9A1.5 1.5 0 0 0 2 3.69v2.58c.32-.12.65-.2 1-.23V3.97l5.5 2.36v7.05l.44.44a3 3 0 0 0 1.14-.2l4.96-1.9c.58-.23.96-.79.96-1.4V3.68a1.5 1.5 0 0 0-.96-1.4L10.08.38Zm-1.8.93a2 2 0 0 1 1.44 0l4.72 1.82-1.95.83-5.6-2.12 1.4-.53ZM9.5 6.33 15 3.97v6.34c0 .21-.13.4-.32.47l-4.96 1.9c-.07.04-.15.06-.22.08V6.33ZM9 5.46 3.56 3.13l1.94-.75 5.66 2.15L9 5.46ZM3.5 14c.79 0 1.51-.26 2.1-.7l2.55 2.55a.5.5 0 1 0 .7-.7L6.3 12.6A3.5 3.5 0 1 0 3.5 14Zm0-1a2.5 2.5 0 1 1 0-5 2.5 2.5 0 0 1 0 5Z"/></svg>