<svg width="20" height="20" viewBox="0 0 20 20" xmlns="http://www.w3.org/2000/svg"><path d="M8.7 2.48a3.5 3.5 0 0 1 2.6 0l5.76 2.3c.57.23.94.78.94 1.4v7.64a1.5 1.5 0 0 1-.94 1.4l-5.76 2.3c-.48.19-.99.27-1.5.24a1.5 1.5 0 0 0-.24-.32l-.06-.06V8.84L3 6.24v2.79c-.35.04-.68.11-1 .23V6.18c0-.62.37-1.17.94-1.4l5.76-2.3Zm2.23.93a2.5 2.5 0 0 0-1.86 0l-1.35.54 6.16 2.46 2.27-.91-5.22-2.1Zm1.6 3.54L6.38 4.49l-2.53 1L10 7.97l2.53-1.01ZM17 6.24l-6.5 2.6v7.88c.15-.03.29-.07.43-.13l5.76-2.3a.5.5 0 0 0 .31-.47V6.24ZM3.5 17c.79 0 1.51-.26 2.1-.7l2.55 2.55a.5.5 0 1 0 .7-.7L6.3 15.6A3.5 3.5 0 1 0 3.5 17Zm0-1a2.5 2.5 0 1 1 0-5 2.5 2.5 0 0 1 0 5Z"/></svg>