<svg width="24" height="24" viewBox="0 0 24 24" xmlns="http://www.w3.org/2000/svg"><path d="M12.19 4.14a1.5 1.5 0 0 0-2.4 1.13L9.7 7H12a1 1 0 1 1 0 2H9.62l-.39 8.85a3.5 3.5 0 0 1-5.8 2.48l-.09-.08a1 1 0 0 1 1.32-1.5l.09.07c.94.83 2.43.2 2.48-1.06L7.63 9H6a1 1 0 0 1 0-2h1.71l.08-1.82a3.5 3.5 0 0 1 5.6-2.64l.21.16a1 1 0 1 1-1.2 1.6l-.21-.16Zm.9 8.9a.5.5 0 0 1 .69.23l.8 1.73-3.29 3.3a1 1 0 0 0 1.42 1.4l2.78-2.78.78 1.66a2.5 2.5 0 0 0 3.86.86l.5-.42a1 1 0 1 0-1.27-1.54l-.5.42a.5.5 0 0 1-.78-.17L17 15.42l2.7-2.71a1 1 0 1 0-1.4-1.42l-2.2 2.2-.52-1.07a2.5 2.5 0 0 0-3.46-1.13l-.6.33a1 1 0 0 0 .96 1.76l.6-.33Z"/></svg>