<svg width="20" height="20" viewBox="0 0 20 20" xmlns="http://www.w3.org/2000/svg"><path d="M4 5c0-1.1.9-2 2-2h7a2 2 0 0 1 2 2v7h3v2a3 3 0 0 1-3 3H9.94a2 2 0 0 0 .06-.5v-4a2 2 0 0 0-1.1-1.79L7.46 10a.5.5 0 0 0 .03 0h4a.5.5 0 0 0 0-1h-4a.5.5 0 0 0-.38.82l-1.23-.6a2 2 0 0 0-1.78 0L4 9.25V5Zm11 11a2 2 0 0 0 2-2v-1h-2v3ZM7.5 6a.5.5 0 0 0 0 1h4a.5.5 0 0 0 0-1h-4Zm.95 5.6-3-1.5a1 1 0 0 0-.9 0l-3 1.5a1 1 0 0 0-.55.9v4a1 1 0 0 0 .55.9l3 1.5a1 1 0 0 0 .9 0l3-1.5a1 1 0 0 0 .55-.9v-4a1 1 0 0 0-.55-.9Zm-6.41 1.13a.5.5 0 0 1 .66-.26l2.3.99 2.3-1a.5.5 0 0 1 .4.93l-2.2.94V17a.5.5 0 1 1-1 0v-2.67l-2.2-.94a.5.5 0 0 1-.26-.66Z"/></svg>