<svg width="24" height="24" viewBox="0 0 24 24" xmlns="http://www.w3.org/2000/svg"><path d="M4 5.25C4 4.01 5 3 6.25 3h9.5C16.99 3 18 4 18 5.25V14h4v3.75c0 1.8-1.46 3.25-3.25 3.25h-7.08c.21-.37.33-.8.33-1.25v-4.5a2.5 2.5 0 0 0-1.38-2.24l-1.03-.51h4.16a.75.75 0 0 0 0-1.5h-5.5c-.32 0-.6.2-.7.48l-.43-.22a2.5 2.5 0 0 0-2.24 0L4 11.7V5.25ZM18 19.5h.75c.97 0 1.75-.78 1.75-1.75V15.5H18v4ZM7.5 7.75c0 .41.34.75.75.75h5.5a.75.75 0 0 0 0-1.5h-5.5a.75.75 0 0 0-.75.75Zm2.67 6.16-3.5-1.75a1.5 1.5 0 0 0-1.34 0l-3.5 1.75c-.5.25-.83.77-.83 1.34v4.5c0 .57.32 1.09.83 1.34l3.5 1.75c.42.22.92.22 1.34 0l3.5-1.75c.5-.25.83-.77.83-1.34v-4.5a1.5 1.5 0 0 0-.83-1.34Zm-7.62 1.37a.5.5 0 0 1 .67-.23L6 16.45l2.78-1.4a.5.5 0 1 1 .44.9L6.5 17.3v3.19a.5.5 0 1 1-1 0v-3.2l-2.72-1.35a.5.5 0 0 1-.23-.67Z"/></svg>