<svg width="24" height="24" viewBox="0 0 24 24" xmlns="http://www.w3.org/2000/svg"><path d="M5 6.25C5 5.01 6 4 7.25 4h8.5C16.99 4 18 5 18 6.25V14h3.5v3.25c0 1.8-1.46 3.25-3.25 3.25h-6.36c.07-.24.11-.49.11-.75V19h4.5V6.25a.75.75 0 0 0-.75-.75h-8.5a.75.75 0 0 0-.75.75v4.8a2.5 2.5 0 0 0-1.5.16V6.25ZM14.25 13h-3.66l-2.43-1.21a.75.75 0 0 1 .59-.29h5.5a.75.75 0 0 1 0 1.5ZM18 19h.25c.97 0 1.75-.78 1.75-1.75V15.5h-2V19ZM8 8.75c0-.41.34-.75.75-.75h5.5a.75.75 0 0 1 0 1.5h-5.5A.75.75 0 0 1 8 8.75Zm2.17 5.16-3.5-1.75a1.5 1.5 0 0 0-1.34 0l-3.5 1.75c-.5.25-.83.77-.83 1.34v4.5c0 .57.32 1.09.83 1.34l3.5 1.75c.42.22.92.22 1.34 0l3.5-1.75c.5-.25.83-.77.83-1.34v-4.5a1.5 1.5 0 0 0-.83-1.34Zm-7.62 1.37a.5.5 0 0 1 .67-.23L6 16.45l2.78-1.4a.5.5 0 1 1 .44.9L6.5 17.3v3.19a.5.5 0 1 1-1 0v-3.2l-2.72-1.35a.5.5 0 0 1-.23-.67Z"/></svg>