<svg width="20" height="20" viewBox="0 0 20 20" xmlns="http://www.w3.org/2000/svg"><path d="M4 4c0-1.1.9-2 2-2h7a2 2 0 0 1 2 2v7h3v2a3 3 0 0 1-3 3h-4.5v-4.38a1 1 0 0 0-.55-.9l-4-2a1 1 0 0 0-.9 0L4 9.25V4Zm11 11a2 2 0 0 0 2-2v-1h-2v3ZM7.5 5a.5.5 0 0 0 0 1h4a.5.5 0 0 0 0-1h-4Zm0 2a.5.5 0 0 0 0 1h4a.5.5 0 0 0 0-1h-4Zm-6 8.88v-3.76a1 1 0 0 1 .55-.9l3-1.5a1 1 0 0 1 .9 0l3 1.5a1 1 0 0 1 .55.9v3.76a1 1 0 0 1-.55.9l-3 1.5a1 1 0 0 1-.9 0l-3-1.5a1 1 0 0 1-.55-.9Zm1.04-3.57a.5.5 0 0 0 .27.65L5 13.9v2.61a.5.5 0 0 0 1 0v-2.61l2.2-.93a.5.5 0 0 0-.4-.92L5.5 13l-2.3-.97a.5.5 0 0 0-.66.27Z"/></svg>