<svg width="24" height="24" viewBox="0 0 24 24" xmlns="http://www.w3.org/2000/svg"><path d="m8.07 18.94 6.5-14.5a.75.75 0 0 1 1.4.52l-.04.1-6.5 14.5a.75.75 0 0 1-1.4-.52l.04-.1 6.5-14.5-6.5 14.5Zm-5.85-7.47 4.25-4.25a.75.75 0 0 1 1.13.98l-.07.08L3.81 12l3.72 3.72a.75.75 0 0 1-.98 1.13l-.08-.07-4.25-4.25a.75.75 0 0 1-.07-.98l.07-.08 4.25-4.25-4.25 4.25Zm14.25-4.25a.75.75 0 0 1 .98-.07l.08.07 4.25 4.25c.27.27.3.68.07.98l-.07.08-4.25 4.25a.75.75 0 0 1-1.13-.98l.07-.08L20.19 12l-3.72-3.72a.75.75 0 0 1 0-1.06Z"/></svg>