<svg width="24" height="24" viewBox="0 0 24 24" xmlns="http://www.w3.org/2000/svg"><path d="M3.28 2.98a2 2 0 0 1-1.44 2.5l-.59.14a5.73 5.73 0 0 0 0 1.8l.55.13a2 2 0 0 1 1.45 2.51l-.19.64c.44.38.94.7 1.49.92l.49-.52a2 2 0 0 1 2.9 0l.5.52a5.28 5.28 0 0 0 1.48-.91l-.2-.69a2 2 0 0 1 1.44-2.5l.59-.14a5.72 5.72 0 0 0 0-1.8l-.55-.13a2 2 0 0 1-1.45-2.51l.19-.63c-.44-.39-.94-.7-1.49-.93l-.49.52a2 2 0 0 1-2.9 0l-.5-.52c-.54.22-1.04.53-1.48.9l.2.7ZM6.5 8c-.8 0-1.45-.67-1.45-1.5S5.7 5 6.5 5c.8 0 1.45.67 1.45 1.5S7.3 8 6.5 8Zm1 4.92a6.55 6.55 0 0 1-1.5.06v4.27c0 1.24 1 2.25 2.25 2.25h5.5c1.24 0 2.25-1 2.25-2.25v-13C16 3.01 15 2 13.75 2h-2.56c.43.44.8.95 1.08 1.5h1.48c.41 0 .75.34.75.75v13c0 .41-.34.75-.75.75h-5.5a.75.75 0 0 1-.75-.75v-4.33Zm2.25 2.58a.75.75 0 0 0 0 1.5h2.5a.75.75 0 0 0 0-1.5h-2.5Zm-1.12 5c.3.87 1.14 1.5 2.12 1.5h3.5c2.35 0 4.25-1.9 4.25-4.25v-11c0-.98-.63-1.81-1.5-2.12v13.12a2.75 2.75 0 0 1-2.75 2.75H8.63Z"/></svg>