<svg width="24" height="24" viewBox="0 0 24 24" xmlns="http://www.w3.org/2000/svg"><path d="M2 6c0-1.1.9-2 2-2h1v7.17a6.49 6.49 0 0 0-3 1.64V6Zm14 2.5h-4a.5.5 0 0 0-.5.5v1c0 .28.22.5.5.5h4a.5.5 0 0 0 .5-.5V9a.5.5 0 0 0-.5-.5ZM12.5 20H20a2 2 0 0 0 2-2V6a2 2 0 0 0-2-2H6.5v7a6.5 6.5 0 0 1 6 9ZM10 9c0-1.1.9-2 2-2h4a2 2 0 0 1 2 2v1a2 2 0 0 1-2 2h-4a2 2 0 0 1-2-2V9Zm-3.5 3a5.5 5.5 0 1 1 0 11 5.5 5.5 0 0 1 0-11Zm.5 8.5V18h2.5a.5.5 0 0 0 0-1H7v-2.5a.5.5 0 1 0-1 0V17H3.5a.5.5 0 0 0 0 1H6v2.5a.5.5 0 1 0 1 0Z"/></svg>