<svg width="24" height="24" viewBox="0 0 24 24" xmlns="http://www.w3.org/2000/svg"><path d="M2 6c0-1.1.9-2 2-2h16a2 2 0 0 1 2 2v12a2 2 0 0 1-2 2h-7.5c.2-.47.34-.98.42-1.5H20a.5.5 0 0 0 .5-.5V6a.5.5 0 0 0-.5-.5H7.5v5.58a6.55 6.55 0 0 0-1.5-.06V5.5H4a.5.5 0 0 0-.5.5v5.73c-.55.29-1.06.65-1.5 1.08V6Zm10 1a2 2 0 0 0-2 2v1c0 1.1.9 2 2 2h4a2 2 0 0 0 2-2V9a2 2 0 0 0-2-2h-4Zm4 1.5c.28 0 .5.22.5.5v1a.5.5 0 0 1-.5.5h-4a.5.5 0 0 1-.5-.5V9c0-.28.22-.5.5-.5h4ZM6.5 12a5.5 5.5 0 1 1 0 11 5.5 5.5 0 0 1 0-11Zm.5 8.5V18h2.5a.5.5 0 0 0 0-1H7v-2.5a.5.5 0 1 0-1 0V17H3.5a.5.5 0 0 0 0 1H6v2.5a.5.5 0 1 0 1 0Z"/></svg>