<svg width="16" height="16" viewBox="0 0 16 16" xmlns="http://www.w3.org/2000/svg"><path d="M14.15 14.85c.1.1.22.15.35.15a.5.5 0 0 0 .35-.85l-13-13a.5.5 0 0 0-.7.7L3.39 4.1A2 2 0 0 0 2 6v5c0 1.11.9 2 2 2h8l.27-.01 1.88 1.87ZM11.29 12H4a1 1 0 0 1-1-1V6a1 1 0 0 1 1-1h.3l1.25 1.26a3 3 0 0 0 4.18 4.18L11.3 12ZM6.28 6.98l2.74 2.74a2 2 0 0 1-2.74-2.74ZM12 4h-.7l-.58-1.17A1.5 1.5 0 0 0 9.38 2H6.62a1.5 1.5 0 0 0-1.34.83l-.11.22.74.74.26-.51A.5.5 0 0 1 6.62 3h2.76c.2 0 .37.1.45.28l.72 1.44A.5.5 0 0 0 11 5h1a1 1 0 0 1 1 1v4.88l.86.85A2 2 0 0 0 14 11V6a2 2 0 0 0-2-2ZM10.9 8.77A3 3 0 0 0 7.23 5.1l.9.9c1 .07 1.79.86 1.86 1.85l.9.9Z"/></svg>