<svg width="16" height="16" viewBox="0 0 16 16" xmlns="http://www.w3.org/2000/svg"><path d="m1.85 1.15 13 13a.5.5 0 0 1-.7.7l-1.89-1.88A3.98 3.98 0 0 0 12 13H4a2 2 0 0 1-2-2V6a2 2 0 0 1 1.4-1.9L1.15 1.85a.5.5 0 0 1 .7-.7ZM5 8a3 3 0 0 0 4.73 2.44l-.72-.72a2 2 0 0 1-2.73-2.73l-.72-.72A2.98 2.98 0 0 0 5 8Zm3-3a3 3 0 0 1 2.89 3.77l2.97 2.96A2 2 0 0 0 14 11V6a2 2 0 0 0-2-2h-.7l-.58-1.17A1.5 1.5 0 0 0 9.38 2H6.62a1.5 1.5 0 0 0-1.34.83l-.11.22L7.23 5.1c.25-.06.5-.11.77-.11Zm1.99 2.86c-.07-1-.86-1.78-1.85-1.85l1.85 1.85Z"/></svg>