<svg width="24" height="24" viewBox="0 0 24 24" xmlns="http://www.w3.org/2000/svg"><path d="M2 6.75A2.75 2.75 0 0 1 4.75 4h14.5A2.75 2.75 0 0 1 22 6.75v10.5A2.75 2.75 0 0 1 19.25 20h-6.78l-2.04-2.05c.36-.74.57-1.57.57-2.45h4.25a.75.75 0 0 0 0-1.5h-4.46a5.47 5.47 0 0 0-.68-1.5h7.14a.75.75 0 0 0 0-1.5H8.66a5.48 5.48 0 0 0-6.66.26V6.75ZM6.75 8a.75.75 0 0 0 0 1.5h6.5a.75.75 0 0 0 0-1.5h-6.5ZM5.5 20c.97 0 1.87-.3 2.6-.83l2.62 2.61a.75.75 0 1 0 1.06-1.06l-2.61-2.61A4.5 4.5 0 1 0 5.5 20Zm0-1.5a3 3 0 1 1 0-6 3 3 0 0 1 0 6Z"/></svg>