<svg width="24" height="24" viewBox="0 0 24 24" xmlns="http://www.w3.org/2000/svg"><path d="M4.75 4A2.75 2.75 0 0 0 2 6.75v4.5a5.5 5.5 0 0 1 1.5-.88V6.75c0-.69.56-1.25 1.25-1.25h14.5c.69 0 1.25.56 1.25 1.25v10.5c0 .69-.56 1.25-1.25 1.25h-8.28l1.5 1.5h6.78A2.75 2.75 0 0 0 22 17.25V6.75A2.75 2.75 0 0 0 19.25 4H4.75Zm3.91 7c.58.4 1.07.91 1.45 1.5h7.14a.75.75 0 0 0 0-1.5H8.66Zm6.59 4.5H11a5.5 5.5 0 0 0-.2-1.5h4.45a.75.75 0 0 1 0 1.5ZM6.75 8a.75.75 0 0 0 0 1.5h6.5a.75.75 0 0 0 0-1.5h-6.5ZM5.5 20c.97 0 1.87-.3 2.6-.83l2.62 2.61a.75.75 0 1 0 1.06-1.06l-2.61-2.61A4.5 4.5 0 1 0 5.5 20Zm0-1.5a3 3 0 1 1 0-6 3 3 0 0 1 0 6Z"/></svg>