<svg width="20" height="20" viewBox="0 0 20 20" xmlns="http://www.w3.org/2000/svg"><path d="M2 2.75c0-.41.34-.75.75-.75h6c.41 0 .75.34.75.75v5.5a.75.75 0 0 1-1.5 0V3.5H2.75A.75.75 0 0 1 2 2.75Zm4.5 7a.75.75 0 0 0-1.5 0v.75H2.75a.75.75 0 0 0 0 1.5h6a.75.75 0 0 0 0-1.5H6.5v-.75ZM5.75 19c2.07 0 3.75-1.34 3.75-3s-1.68-3-3.75-3C3.68 13 2 14.34 2 16s1.68 3 3.75 3Zm0-1.5c-1.57 0-2.25-.97-2.25-1.5s.68-1.5 2.25-1.5C7.32 14.5 8 15.47 8 16s-.68 1.5-2.25 1.5ZM14.25 2c.41 0 .75.34.75.75v12.57l1.45-1.58a.75.75 0 0 1 1.1 1.02l-2.75 3a.75.75 0 0 1-1.1 0l-2.75-3a.75.75 0 0 1 1.1-1.02l1.45 1.58V2.75c0-.41.34-.75.75-.75Z"/></svg>