<svg width="16" height="16" viewBox="0 0 16 16" xmlns="http://www.w3.org/2000/svg"><path d="M2 1.5c0-.28.22-.5.5-.5h5c.28 0 .5.22.5.5v5a.5.5 0 0 1-1 0V2H2.5a.5.5 0 0 1-.5-.5Zm11 0a.5.5 0 0 0-1 0v11.8l-1.15-1.15a.5.5 0 0 0-.7.7l2 2c.2.2.5.2.7 0l2-2a.5.5 0 0 0-.7-.7L13 13.29V1.5Zm-4 12C9 14.88 7.43 16 5.5 16S2 14.88 2 13.5 3.57 11 5.5 11 9 12.12 9 13.5Zm-1 0c0-.28-.16-.63-.6-.95A3.3 3.3 0 0 0 5.5 12a3.3 3.3 0 0 0-1.9.55c-.44.32-.6.67-.6.95 0 .28.16.63.6.95a3.3 3.3 0 0 0 1.9.55 3.3 3.3 0 0 0 1.9-.55c.44-.32.6-.67.6-.95Zm-6-4c0-.28.22-.5.5-.5H5V7.5a.5.5 0 0 1 1 0V9h2.5a.5.5 0 0 1 0 1h-6a.5.5 0 0 1-.5-.5Z"/></svg>