<svg width="32" height="32" viewBox="0 0 32 32" xmlns="http://www.w3.org/2000/svg"><path d="M23 3c0-1.1.9-2 2-2h4a2 2 0 0 1 2 2v6a2 2 0 0 1-2 2h-1v19a1 1 0 1 1-2 0V11h-1a2 2 0 0 1-2-2V3Zm-1.5 0H10.4a4 4 0 0 0-3.9 3.13L5.86 9H5a1 1 0 0 0 0 2h.42l-.33 1.48A4 4 0 0 0 3 16v10a3 3 0 0 0 3 3h1a3 3 0 0 0 3-3v-1h12v1a3 3 0 0 0 2.5 2.96v-2.1A1 1 0 0 1 24 26v-1h.5v-2H5v-7c0-1.1.9-2 2-2h17.5v-1.54a3.48 3.48 0 0 1-1.3-.46H7.25l1.2-5.43A2 2 0 0 1 10.41 5H21.5V3ZM5 26v-1h3v1a1 1 0 0 1-1 1H6a1 1 0 0 1-1-1Zm7.5-6a1 1 0 0 1 1-1h5a1 1 0 1 1 0 2h-5a1 1 0 0 1-1-1Zm-3-1a1.5 1.5 0 1 0 0-3 1.5 1.5 0 0 0 0 3ZM24 17.5a1.5 1.5 0 1 1-3 0 1.5 1.5 0 0 1 3 0Z"/></svg>