<svg width="32" height="32" viewBox="0 0 32 32" xmlns="http://www.w3.org/2000/svg"><path d="M10 22a2 2 0 1 0 0-4 2 2 0 0 0 0 4Zm8-2a2 2 0 1 1-4 0 2 2 0 0 1 4 0Zm4 2a2 2 0 1 0 0-4 2 2 0 0 0 0 4ZM6.13 4.09A3 3 0 0 1 8.44 3h15.12a3 3 0 0 1 2.31 1.09l4.67 5.63A2 2 0 0 1 28.99 13H28v12.75c0 1.8-1.46 3.25-3.25 3.25H7.25A3.25 3.25 0 0 1 4 25.75V13H3a2 2 0 0 1-1.54-3.28L6.13 4.1ZM6 13v12.75c0 .69.56 1.25 1.25 1.25h17.5c.69 0 1.25-.56 1.25-1.25V13H6Zm2.44-8a1 1 0 0 0-.77.36L3.01 11h25.98l-4.66-5.64a1 1 0 0 0-.77-.36H8.44Z"/></svg>