<svg width="20" height="20" viewBox="0 0 20 20" xmlns="http://www.w3.org/2000/svg"><path d="M10 12c0 .92-.31 1.78-.84 2.45l3.7 3.7a.5.5 0 1 1-.72.7l-3.69-3.69A4 4 0 1 1 10 12Zm-4 3a3 3 0 1 0 0-6 3 3 0 0 0 0 6ZM5.5 3a.5.5 0 0 0-.5.5v3.6c-.35.07-.68.18-1 .32V3.5C4 2.67 4.67 2 5.5 2h5.09c.4 0 .78.16 1.06.44l3.91 3.91c.28.28.44.67.44 1.06v9.09c0 .83-.67 1.5-1.5 1.5h-.59a1.5 1.5 0 0 0-.35-.56l-.44-.44h1.38a.5.5 0 0 0 .5-.5V8h-3.5A1.5 1.5 0 0 1 10 6.5V3H5.5Zm5.5.2v3.3c0 .28.22.5.5.5h3.3L11 3.2Z"/></svg>