<svg width="20" height="20" viewBox="0 0 20 20" xmlns="http://www.w3.org/2000/svg"><path d="M17.25 8c.41 0 .75.34.75.75v2.5c0 .41-.34.75-.75.75h-2.5a.75.75 0 1 1 0-1.5h.69l-2.22-2.22a.75.75 0 0 1 1.06-1.06l2.22 2.22v-.7c0-.4.34-.74.75-.74Zm-3.83-4.91a.75.75 0 0 0-1-1.01l-8 4a.75.75 0 1 0 .67 1.34l2.18-1.1 1.9 1.91-1.1 2.18a.75.75 0 1 0 1.35.68l4-8ZM9.88 6.82l-1.2-1.2 2.4-1.2-1.2 2.4ZM12 14.75a.75.75 0 0 0-1.5 0v.69L3.28 8.22a.75.75 0 1 0-1.06 1.06l7.22 7.22h-.69a.75.75 0 0 0 0 1.5h2.5c.41 0 .75-.34.75-.75v-2.5Z"/></svg>