<svg width="24" height="24" viewBox="0 0 24 24" xmlns="http://www.w3.org/2000/svg"><path d="M21.25 10.5a.75.75 0 0 0-.75.75v1.19l-4.22-4.22a.75.75 0 1 0-1.06 1.06l4.22 4.22h-1.19a.75.75 0 0 0 0 1.5h3c.41 0 .75-.34.75-.75v-3a.75.75 0 0 0-.75-.75Zm-5.32-7.43a.75.75 0 0 0-1-1l-9.5 4.5a.75.75 0 1 0 .64 1.36L8.65 6.7l2.64 2.64-1.22 2.58a.75.75 0 0 0 1.36.64l4.5-9.5Zm-3.96 4.84L10.1 6.03l3.58-1.7-1.7 3.58ZM15 18.25a.75.75 0 0 0-1.5 0v1.19L3.28 9.22a.75.75 0 1 0-1.06 1.06L12.44 20.5h-1.19a.75.75 0 0 0 0 1.5h3c.41 0 .75-.34.75-.75v-3Z"/></svg>