<svg width="48" height="48" viewBox="0 0 48 48" xmlns="http://www.w3.org/2000/svg"><path d="M42.7 8.18a4.82 4.82 0 0 0-7.41-.74l-8.35 8.35c-.56.56-.93 1.3-1.05 2.08l-.88 5.69a1.25 1.25 0 0 0 1.52 1.4l5.77-1.32a3.75 3.75 0 0 0 1.87-1.07l8.01-8.39a4.82 4.82 0 0 0 .53-6Zm-20.16 15a3.75 3.75 0 0 0 4.55 4.22l5.77-1.33a6.25 6.25 0 0 0 3.12-1.77L44 15.9v17.85C44 37.2 41.2 40 37.75 40h-27.5A6.25 6.25 0 0 1 4 33.75v-9.6l.21-.12c.58-.4 1.29-.95 2.05-1.53l1.05-.8c1.18-.9 2.44-1.8 3.67-2.53a9.93 9.93 0 0 1 3.29-1.37c.86-.13 1.39.06 1.78.51.23.27.31.5.34.7.03.23 0 .51-.12.88-.25.76-.8 1.59-1.47 2.62l-.04.05c-.63.96-1.4 2.13-1.71 3.33a4.16 4.16 0 0 0-.07 2.04c.17.72.55 1.37 1.14 1.95a4.26 4.26 0 0 0 2.74 1.3c.93.07 1.78-.17 2.46-.48a8.17 8.17 0 0 0 2.3-1.55l.01-.01-.88-.89.88.88a1.25 1.25 0 0 0-1.76-1.77l-.02.02a3.72 3.72 0 0 1-.41.35c-.3.23-.7.5-1.14.7-.44.19-.87.29-1.26.26a1.77 1.77 0 0 1-1.16-.57c-.3-.3-.41-.55-.46-.76-.05-.22-.05-.48.04-.82a10 10 0 0 1 1.4-2.6l.11-.19c.6-.9 1.32-1.99 1.68-3.08.2-.6.31-1.27.22-1.98-.1-.72-.4-1.4-.92-2a4.24 4.24 0 0 0-4.06-1.36c-1.39.21-2.84.9-4.18 1.69-1.36.8-2.71 1.78-3.9 2.68l-1.14.87-.67.51v-6.83C4 10.8 6.8 8 10.25 8H31.2l-6.02 6.02a6.25 6.25 0 0 0-1.76 3.47l-.88 5.69Z"/></svg>