<svg width="32" height="32" viewBox="0 0 32 32" xmlns="http://www.w3.org/2000/svg"><path d="M3 4a1 1 0 0 1 2 0v24a1 1 0 1 1-2 0V4Zm7.5 1A3.5 3.5 0 0 0 7 8.5v3a3.5 3.5 0 0 0 3.5 3.5h15a3.5 3.5 0 0 0 3.5-3.5v-3A3.5 3.5 0 0 0 25.5 5h-15ZM9 8.5c0-.83.67-1.5 1.5-1.5h15c.83 0 1.5.67 1.5 1.5v3c0 .83-.67 1.5-1.5 1.5h-15A1.5 1.5 0 0 1 9 11.5v-3Zm1.5 8.5A3.5 3.5 0 0 0 7 20.5v3a3.5 3.5 0 0 0 3.5 3.5h9a3.5 3.5 0 0 0 3.5-3.5v-3a3.5 3.5 0 0 0-3.5-3.5h-9ZM9 20.5c0-.83.67-1.5 1.5-1.5h9c.83 0 1.5.67 1.5 1.5v3c0 .83-.67 1.5-1.5 1.5h-9A1.5 1.5 0 0 1 9 23.5v-3Z"/></svg>