<svg width="20" height="20" viewBox="0 0 20 20" xmlns="http://www.w3.org/2000/svg"><path d="M4.5 3C3.67 3 3 3.67 3 4.5v2a.5.5 0 0 1-1 0v-2A2.5 2.5 0 0 1 4.5 2h2a.5.5 0 0 1 0 1h-2ZM5 17a2 2 0 0 1-2-2v-1.5a.5.5 0 0 0-1 0V15a3 3 0 0 0 3 3h1.5a.5.5 0 0 0 0-1H5ZM17 4.5c0-.83-.67-1.5-1.5-1.5h-2a.5.5 0 0 1 0-1h2A2.5 2.5 0 0 1 18 4.5v2a.5.5 0 0 1-1 0v-2ZM6.5 5a.5.5 0 0 0-.5.5v1a.5.5 0 0 0 1 0V6h2.5v6.2c.25-.54.6-1.04 1-1.47V6H13v.5a.5.5 0 0 0 1 0v-1a.5.5 0 0 0-.5-.5h-7ZM8 14h1.02a5.57 5.57 0 0 0 0 1H8a.5.5 0 0 1 0-1Zm11 .5a4.5 4.5 0 1 1-9 0 4.5 4.5 0 0 1 9 0Zm-2.85-1.85-2.65 2.64-.65-.64a.5.5 0 0 0-.7.7l1 1c.2.2.5.2.7 0l3-3a.5.5 0 0 0-.7-.7Z"/></svg>