<svg width="24" height="24" viewBox="0 0 24 24" xmlns="http://www.w3.org/2000/svg"><path d="M5.5 4C4.67 4 4 4.67 4 5.5V8a1 1 0 0 1-2 0V5.5A3.5 3.5 0 0 1 5.5 2H8a1 1 0 0 1 0 2H5.5Zm0 16A1.5 1.5 0 0 1 4 18.5V16a1 1 0 1 0-2 0v2.5A3.5 3.5 0 0 0 5.5 22H8a1 1 0 1 0 0-2H5.5ZM20 5.5c0-.83-.67-1.5-1.5-1.5H16a1 1 0 1 1 0-2h2.5A3.5 3.5 0 0 1 22 5.5V8a1 1 0 1 1-2 0V5.5ZM7.75 6a1 1 0 0 0-1 1v1.5a1 1 0 0 0 2 0V8H11v8H9.75a1 1 0 1 0 0 2h1.27A6.48 6.48 0 0 1 13 12.81V8h2.25v.5a1 1 0 1 0 2 0V7a1 1 0 0 0-1-1h-8.5ZM23 17.5a5.5 5.5 0 1 1-11 0 5.5 5.5 0 0 1 11 0Zm-2.15-2.35a.5.5 0 0 0-.7 0l-3.65 3.64-1.65-1.64a.5.5 0 0 0-.7.7l2 2c.2.2.5.2.7 0l4-4a.5.5 0 0 0 0-.7Z"/></svg>