<svg width="16" height="16" viewBox="0 0 16 16" xmlns="http://www.w3.org/2000/svg"><path d="M10.75 4.5a2.75 2.75 0 1 0-5.5 0 2.75 2.75 0 0 0 5.5 0Zm-4.5 0a1.75 1.75 0 1 1 3.5 0 1.75 1.75 0 0 1-3.5 0Zm.8 8.67 1.08 1.08H8c-3.14 0-5-2.03-5-4v-.5c0-.83.67-1.5 1.5-1.5h4.18a1.5 1.5 0 0 0-.24.2l-.8.8H4.5a.5.5 0 0 0-.5.5v.5c0 1.25 1.08 2.6 3.05 2.92Zm.1-1.31a.5.5 0 0 1 0-.71l2-2a.5.5 0 1 1 .7.7L8.72 11h4.58l-1.14-1.14a.5.5 0 1 1 .7-.7l2 1.99a.5.5 0 0 1 0 .7l-2 2a.5.5 0 1 1-.7-.7L13.29 12H8.71l1.15 1.15a.5.5 0 0 1-.71.7l-2-2Z"/></svg>