<svg width="20" height="20" viewBox="0 0 20 20" xmlns="http://www.w3.org/2000/svg"><path d="M4.5 10a.5.5 0 0 0-1 0 5.5 5.5 0 0 0 5 5.48v2.02a.5.5 0 0 0 1 0v-.7c-.32-.7-.5-1.48-.5-2.3A4.5 4.5 0 0 1 4.5 10ZM12 5v4.6A5.51 5.51 0 0 0 9.2 13 3.02 3.02 0 0 1 6 10V5a3 3 0 0 1 6 0Zm-2 9.5a4.5 4.5 0 1 0 9 0 4.5 4.5 0 0 0-9 0Zm6.5-3c.28 0 .5.22.5.5v1.5a.5.5 0 0 1-.5.5H15a.5.5 0 0 1 0-1h.47a1.97 1.97 0 0 0-.94-.25 2 2 0 0 0-1.44.59.5.5 0 0 1-.71-.71 3 3 0 0 1 3.62-.48V12c0-.28.22-.5.5-.5Zm-.88 5.53a3 3 0 0 1-2.62-.18V17a.5.5 0 0 1-1 0v-1.5c0-.28.22-.5.5-.5H14a.5.5 0 0 1 0 1h-.47a1.97 1.97 0 0 0 .94.25 2 2 0 0 0 1.44-.59.5.5 0 0 1 .71.71 3 3 0 0 1-1 .66Z"/></svg>