<svg width="20" height="20" viewBox="0 0 20 20" xmlns="http://www.w3.org/2000/svg"><path d="M4.22 5.22a.75.75 0 0 0 1.06 1.06L6 5.56v3.69a.75.75 0 0 0 1.5 0V5.56l.72.72a.75.75 0 0 0 1.06-1.06l-2-2a.75.75 0 0 0-1.06 0l-2 2Zm7.5 0a.75.75 0 1 0 1.06 1.06l.72-.72v10.69a.75.75 0 1 0 1.5 0V5.56l.72.72a.75.75 0 0 0 1.06-1.06l-2-2a.75.75 0 0 0-1.06 0l-2 2ZM3 13.5c0-.3.19-.58.47-.7l7.5-3a.75.75 0 1 1 .56 1.4L9.5 12v3l2.03.8a.75.75 0 0 1-.56 1.4l-7.5-3a.75.75 0 0 1-.47-.7Zm2.77 0 2.23.9v-1.8l-2.23.9Z"/></svg>