<svg width="24" height="24" viewBox="0 0 24 24" xmlns="http://www.w3.org/2000/svg"><path d="M5.22 5.22a.75.75 0 0 0 1.06 1.06L7 5.56v3.69a.75.75 0 0 0 1.5 0V5.56l.72.72a.75.75 0 1 0 1.06-1.06l-2-2a.75.75 0 0 0-1.06 0l-2 2Zm7.75 15.73-9.5-3.76a.75.75 0 0 1-.1-1.34l.1-.05 9.5-3.75a.75.75 0 0 1 .65 1.35l-.1.05-2.52 1v4.1l2.52 1c.35.14.54.52.45.88l-.03.1a.75.75 0 0 1-.87.45l-.1-.03ZM5.79 16.5l3.71 1.46v-2.92L5.8 16.5Zm8.93-10.22a.75.75 0 0 1 0-1.06l2-2c.3-.3.77-.3 1.06 0l2 2a.75.75 0 0 1-1.06 1.06L18 5.56v14.69a.75.75 0 0 1-1.5 0V5.56l-.72.72c-.3.3-.77.3-1.06 0Z"/></svg>