<svg width="24" height="24" viewBox="0 0 24 24" xmlns="http://www.w3.org/2000/svg"><path d="M4.25 2C3.01 2 2 3 2 4.25v15.5C2 20.99 3 22 4.25 22h4.42a1.74 1.74 0 0 1 0-1.5H4.25a.75.75 0 0 1-.75-.75V4.25c0-.41.34-.75.75-.75h5.5c.41 0 .75.34.75.75V6H12V4.25C12 3.01 11 2 9.75 2h-5.5ZM7 9.25C7 8.01 8 7 9.25 7h10.5C20.99 7 22 8 22 9.25v6.5c0 1.24-1 2.25-2.25 2.25H17.5v2.5h1.25a.75.75 0 0 1 0 1.5h-8.5a.75.75 0 0 1 0-1.5h1.25V18H9.25C8.01 18 7 17 7 15.75v-6.5Zm9 11.25V18h-3v2.5h3Zm3.75-4c.41 0 .75-.34.75-.75v-6.5a.75.75 0 0 0-.75-.75H9.25a.75.75 0 0 0-.75.75v6.5c0 .41.34.75.75.75h10.5Z"/></svg>