<svg width="28" height="28" viewBox="0 0 28 28" xmlns="http://www.w3.org/2000/svg"><path d="M3.28 2.22a.75.75 0 10-1.06 1.06l5.72 5.73H5.25A3.25 3.25 0 002 12.26v3.49C2 17.55 3.46 19 5.25 19h3.01c.45 0 .87.17 1.2.47l4.94 4.63c.8.74 2.1.18 2.1-.92v-5.62l8.22 8.22a.75.75 0 001.06-1.06L3.28 2.22zm7.34 5.22l5.88 5.88v-8.5c0-1.1-1.3-1.67-2.1-.92l-3.78 3.54zm9.55 9.55l1.14 1.14a9.46 9.46 0 00-.96-9.83.75.75 0 10-1.2.9 7.96 7.96 0 011.02 7.8zm2.8 2.8l1.1 1.1A13.2 13.2 0 0022.7 5.25a.75.75 0 10-1.12 1 11.7 11.7 0 011.4 13.54z"/></svg>