<svg width="20" height="20" viewBox="0 0 20 20" xmlns="http://www.w3.org/2000/svg"><path d="M2.85 2.15a.5.5 0 1 0-.7.7L5.29 6H3.5C2.68 6 2 6.67 2 7.5v5c0 .83.68 1.5 1.5 1.5H6.1a.5.5 0 0 1 .34.13l3.88 3.6a1 1 0 0 0 1.68-.74V12.7l5.15 5.15a.5.5 0 0 0 .7-.7l-2.56-2.57L2.85 2.15ZM11 11.7V17l-3.88-3.6A1.5 1.5 0 0 0 6.1 13H3.5a.5.5 0 0 1-.5-.5v-5c0-.28.22-.5.5-.5h2.6l.18-.01L11 11.7ZM11 3v5.88l1 1V3a1 1 0 0 0-1.68-.74L7.24 5.12l.71.71L11 3.01Zm3.06 8.94.74.74a5.5 5.5 0 0 0-.04-5.43.5.5 0 1 0-.86.5 4.5 4.5 0 0 1 .16 4.19Zm1.84 1.84.72.72a8 8 0 0 0-.66-9.83.5.5 0 1 0-.74.66 7 7 0 0 1 .68 8.45Z"/></svg>