<svg width="24" height="24" viewBox="0 0 24 24" xmlns="http://www.w3.org/2000/svg"><path d="M3.28 2.22a.75.75 0 1 0-1.06 1.06L6.44 7.5H4.25C3.01 7.5 2 8.5 2 9.75v4.5c0 1.24 1 2.25 2.25 2.25h3.68c.18 0 .36.06.5.19l4.49 3.99c.8.72 2.08.14 2.08-.93v-3.69l5.72 5.72a.75.75 0 0 0 1.06-1.06L3.28 2.22ZM13.5 14.56v4.63l-4.08-3.63A2.25 2.25 0 0 0 7.93 15H4.25a.75.75 0 0 1-.75-.75v-4.5c0-.42.34-.75.75-.75h3.68l5.57 5.56Zm0-9.75v5.5l1.5 1.5V4.26a1.25 1.25 0 0 0-2.08-.93l-3.4 3.02 1.06 1.06 2.92-2.6Zm3.64 9.15 1.14 1.14a6.97 6.97 0 0 0-.12-6.43.75.75 0 0 0-1.32.72 5.47 5.47 0 0 1 .3 4.57Zm2.25 2.25 1.1 1.09a9.96 9.96 0 0 0-.45-11.25.75.75 0 0 0-1.2.9 8.46 8.46 0 0 1 .55 9.26Z"/></svg>