<svg width="20" height="20" viewBox="0 0 20 20" xmlns="http://www.w3.org/2000/svg"><path d="M3.3 4 2.14 2.85a.5.5 0 1 1 .7-.7l15 15a.5.5 0 0 1-.7.7l-2-2A3 3 0 0 1 12.27 18H7.73a3 3 0 0 1-2.98-2.66L3.55 5H2.5a.5.5 0 0 1 0-1h.8Zm10.99 11L12 12.7V14a.5.5 0 0 1-1 0v-2.3l-2-2V14a.5.5 0 0 1-1 0V8.7L4.6 5.3l1.14 9.93A2 2 0 0 0 7.73 17h4.54a2 2 0 0 0 1.99-1.77l.03-.24ZM11 8.87l1 1V8a.5.5 0 0 0-1 0v.88ZM15.44 5l-.86 7.46.9.9.97-8.36h1.05a.5.5 0 0 0 0-1h-5a2.5 2.5 0 0 0-5 0H6.12l1 1h8.32ZM11.5 4h-3a1.5 1.5 0 1 1 3 0Z"/></svg>