<svg width="20" height="20" viewBox="0 0 20 20" xmlns="http://www.w3.org/2000/svg"><path d="M3 2.96a.5.5 0 01.54-.46l3.05.27c2.15.2 4.21.45 5.9.73 1.67.28 3.04.6 3.77.96.19.1.37.21.51.36.14.16.27.4.22.69a.95.95 0 01-.4.57c-.16.13-.38.24-.63.34-.99.4-2.89.77-5.92 1.15-2.15.27-3.44.53-4.1.77H5.9l.3.1c.34.1.77.2 1.28.28 1 .18 2.25.33 3.59.44a30.96 30.96 0 014.01.63l-.83.83a30 30 0 00-3.27-.46 43.66 43.66 0 01-3.68-.45c-.52-.1-.98-.2-1.37-.3-.37-.1-.71-.24-.95-.4a.94.94 0 01-.34-.38.68.68 0 01.04-.64c.1-.17.25-.28.39-.36.14-.08.32-.16.52-.23a23.3 23.3 0 014.31-.82c3.05-.38 4.83-.75 5.68-1.09.1-.04.2-.08.26-.12l-.04-.01c-.57-.3-1.8-.6-3.48-.87-1.66-.27-3.7-.52-5.84-.72L3.46 3.5A.5.5 0 013 2.96zm10.44 8.48a1.5 1.5 0 00-.44.97l-1.51.2a16 16 0 00-4.2.87c-.37.16-.55.3-.63.4-.06.08-.05.11-.04.14.02.07.08.19.26.35.17.15.4.31.7.48.57.33 1.31.63 2.02.86l2.64.81a.5.5 0 01-.3.96l-2.65-.82c-.74-.24-1.55-.57-2.21-.94-.33-.19-.64-.4-.88-.62a1.78 1.78 0 01-.55-.81c-.1-.36-.01-.72.23-1.03.23-.28.58-.5 1.02-.7.88-.38 2.32-.7 4.47-.95.88-.1 1.6-.2 2.2-.3l-.13.13zm3.41-1.3a.5.5 0 00-.7 0l-2 2a.5.5 0 00.7.71L16 11.71v5.58l-1.15-1.14a.5.5 0 00-.7.7l2 2c.2.2.5.2.7 0l2-2a.5.5 0 00-.7-.7L17 17.29v-5.58l1.15 1.14a.5.5 0 00.7-.7l-2-2z"/></svg>