<svg width="20" height="20" viewBox="0 0 20 20" xmlns="http://www.w3.org/2000/svg"><path d="M2.75 2.93c.04-.4.4-.71.82-.68l3.04.28c2.16.2 4.22.45 5.92.73 1.66.27 3.08.6 3.85.98.2.1.4.23.57.41.18.2.36.51.28.9-.06.36-.3.6-.48.73a3 3 0 01-.7.37c-1.02.4-2.95.8-5.98 1.17-1.44.18-2.5.36-3.22.52a42.44 42.44 0 004.24.57 31.21 31.21 0 013.52.5l-1.28 1.29a31.6 31.6 0 00-2.36-.3 43.94 43.94 0 01-3.7-.45c-.53-.09-1-.2-1.4-.3-.37-.11-.75-.24-1.02-.43a1.19 1.19 0 01-.43-.49.93.93 0 01.06-.87c.13-.22.32-.36.47-.44.17-.1.36-.18.56-.26.8-.28 2.22-.56 4.37-.83 2.7-.33 4.38-.66 5.3-.96-.64-.2-1.63-.42-2.9-.63a88.96 88.96 0 00-5.8-.72l-3.05-.27a.75.75 0 01-.68-.82zm10.13 8.23a1.75 1.75 0 00-.32 1.56c-.32.05-.67.09-1.05.13-2.12.24-3.4.55-4.11.86-.3.13-.45.24-.51.3.03.04.07.1.16.17.15.14.36.3.64.45.56.32 1.29.61 1.98.84l2.64.81a.75.75 0 11-.44 1.44L9.2 16.9c-.75-.25-1.58-.58-2.25-.96-.34-.2-.67-.41-.93-.65a2.03 2.03 0 01-.62-.94c-.12-.44-.01-.88.28-1.24.26-.33.65-.58 1.1-.77.93-.4 2.4-.73 4.55-.98.58-.06 1.09-.13 1.54-.2zm3.9-1.44a.75.75 0 00-1.06 0l-2 2a.75.75 0 101.06 1.06l.72-.72v4.38l-.72-.72a.75.75 0 10-1.06 1.06l2 2c.3.3.77.3 1.06 0l2-2a.75.75 0 10-1.06-1.06l-.72.72v-4.38l.72.72a.75.75 0 101.06-1.06l-2-2z"/></svg>