<svg width="24" height="24" viewBox="0 0 24 24" xmlns="http://www.w3.org/2000/svg"><path d="M10.1 15.5c.06-.52.2-1.02.42-1.5H4.25C3.01 14 2 15 2 16.25v.58c0 .89.32 1.75.9 2.43C4.47 21.1 6.85 22 10 22c1.41 0 2.67-.18 3.77-.55l-1.21-1.21c-.76.17-1.62.26-2.56.26-2.74 0-4.7-.75-5.96-2.21-.34-.41-.54-.93-.54-1.46v-.58c0-.42.34-.75.75-.75h5.86zM10 2a5 5 0 110 10 5 5 0 010-10zm0 1.5a3.5 3.5 0 100 7 3.5 3.5 0 000-7zM17.04 23a.75.75 0 01-.53-.22l-4.4-4.41a3.47 3.47 0 014.9-4.9l.03.03.04-.03a3.47 3.47 0 014.9 4.9l-4.4 4.4a.75.75 0 01-.54.23z"/></svg>