<svg width="20" height="20" viewBox="0 0 20 20" xmlns="http://www.w3.org/2000/svg"><path d="M13.58 2.38a3 3 0 0 0-2.16 0L7.96 3.7A1.5 1.5 0 0 0 7 5.1v1.1a4 4 0 0 1 1.94.23l3.46 1.34A2.5 2.5 0 0 1 14 10.1v4.78c0 .2-.03.4-.07.6l3.1-1.2c.59-.22.97-.78.97-1.4V5.1a1.5 1.5 0 0 0-.96-1.4l-3.46-1.33Zm1.87 2.15a.5.5 0 1 1 .35.94l-2.76 1.06a1.5 1.5 0 0 1-1.08 0L9.2 5.47a.5.5 0 0 1 .35-.94l2.77 1.07a.5.5 0 0 0 .36 0l2.77-1.07ZM6.42 7.38a3 3 0 0 1 2.16 0l3.46 1.33c.58.22.96.78.96 1.4v4.78a1.5 1.5 0 0 1-.96 1.4l-3.46 1.33a3 3 0 0 1-2.16 0l-3.46-1.33a1.5 1.5 0 0 1-.96-1.4V10.1c0-.62.38-1.18.96-1.4l3.46-1.33Zm4.67 2.91a.5.5 0 0 0-.64-.28L7.5 11.14 4.55 10a.5.5 0 1 0-.35.93L7 12.02v2.49a.5.5 0 0 0 1 0V12l2.8-1.07a.5.5 0 0 0 .3-.65Z"/></svg>