<svg width="24" height="24" viewBox="0 0 24 24" xmlns="http://www.w3.org/2000/svg"><path d="M12 2a5.5 5.5 0 00-5.14 3.53A12.95 12.95 0 003.56 5a12.05 12.05 0 00-.78 0h-.04a.76.76 0 00-.73.7v.07a7.84 7.84 0 000 .79c.02.51.08 1.23.22 2.03.14.74.35 1.57.7 2.4h-.18a.75.75 0 00-.75.75V12a10 10 0 0020 0v-.25a.75.75 0 00-.75-.75H21v-.13a4.88 4.88 0 00-3.67-4.72A5.5 5.5 0 0012 2zM8.27 6.04a4 4 0 017.45-.02 4.88 4.88 0 00-4.03 2.82 7.61 7.61 0 00-3.42-2.8zm11.23 4.83V11h-6.73l-.02-.05v-.07a3.37 3.37 0 116.75 0zM9.72 8.79c.64.65 1.1 1.42 1.44 2.22h-2.1L7.28 9.22a.75.75 0 10-1.06 1.06l.72.72H4.57c-.44-.88-.7-1.81-.86-2.67-.13-.72-.18-1.36-.2-1.82.46.02 1.1.07 1.82.2 1.46.27 3.16.85 4.39 2.07zM4.79 16.5H19.2a8.5 8.5 0 01-14.42 0zm-1.28-4H20.5a8.46 8.46 0 01-.53 2.5H4.04a8.46 8.46 0 01-.53-2.5zM2.71 5h.03-.02z"/></svg>