<svg width="24" height="24" viewBox="0 0 24 24" xmlns="http://www.w3.org/2000/svg"><path d="M12 2a5.5 5.5 0 00-5.14 3.53A12.95 12.95 0 003.56 5a12.05 12.05 0 00-.78 0h-.06a.75.75 0 00-.71.7v.07a7.84 7.84 0 000 .79c.02.51.08 1.23.22 2.03.14.74.35 1.57.7 2.4h-.18a.75.75 0 00-.75.75V12a10 10 0 00.46 3h19.08a10 10 0 00.46-3v-.25a.75.75 0 00-.75-.75H21v-.13a4.88 4.88 0 00-3.67-4.72A5.5 5.5 0 0012 2zm0 1.5a4 4 0 013.72 2.52 4.88 4.88 0 00-4.03 2.82 7.61 7.61 0 00-3.42-2.8A4 4 0 0112 3.5zm7.5 7.38V11h-6.73l-.02-.05v-.07a3.37 3.37 0 116.75 0zm-9.78-2.1c.64.65 1.1 1.42 1.44 2.22h-2.1L7.28 9.22a.75.75 0 10-1.06 1.06l.72.72H4.57c-.44-.88-.7-1.81-.86-2.67-.13-.72-.18-1.36-.2-1.82.46.02 1.1.07 1.82.2 1.46.27 3.16.85 4.39 2.07zM3.07 16.5a10 10 0 0017.86 0H3.07zm9.68-5.55l.02.05z"/></svg>