<svg width="48" height="48" viewBox="0 0 48 48" xmlns="http://www.w3.org/2000/svg"><path d="M41.76 25.64l.36-.64a14 14 0 10-24.25-14l-.12.22c-.41.71-.18 1.62.52 2.05L28 19.14l-5.38 8.92c-4.71.42-8.74 2.92-10.9 6.45a3.24 3.24 0 012.46.82c1.97-2.84 5.53-4.83 9.83-4.83s7.86 2 9.83 4.83a3.28 3.28 0 012.46-.82c-2.14-3.5-6.11-5.99-10.77-6.44l4.61-7.63 9.54 5.76c.72.44 1.67.18 2.09-.56zm-4.08-16.2a11.5 11.5 0 012.4 14.09l-4.87-2.95.02-.03a18.06 18.06 0 001.71-3.72c.64-1.94 1.12-4.5.74-7.4zm-4.26-2.42c-2.15.96-4 2.56-5.38 3.99a28.93 28.93 0 00-2.86 3.48l-.02.02-4.75-2.87a11.5 11.5 0 0113.01-4.62zM27.3 15.8l.49-.66a26.4 26.4 0 012.05-2.4c1.48-1.53 3.3-3.02 5.24-3.7.51 2.7.1 5.15-.52 7a15.56 15.56 0 01-1.49 3.24l-5.77-3.48zm9.4 20.9c-.2-.13-.44-.2-.68-.2L36 36.5h-.03a1.25 1.25 0 00-1.16.85c-.04.13-1.3 3.65-4.81 3.65-3.52 0-4.77-3.5-4.81-3.65a1.25 1.25 0 00-2.38 0c-.04.13-1.3 3.65-4.81 3.65-3.52 0-4.77-3.5-4.81-3.65a1.24 1.24 0 00-1.16-.85h-.02a1.25 1.25 0 00-1.17.8c-.02.05-1.74 4.45-5.59 4.45a1.25 1.25 0 000 2.5 8.2 8.2 0 006.75-3.9 7.3 7.3 0 0012 0 7.3 7.3 0 0012 0 8.2 8.2 0 006.75 3.9 1.25 1.25 0 100-2.5c-2.48 0-4.09-1.86-4.91-3.18a8.54 8.54 0 01-.67-1.26c-.1-.25-.26-.45-.47-.6z"/></svg>