<svg width="32" height="32" viewBox="0 0 32 32" xmlns="http://www.w3.org/2000/svg"><path d="M25.5 3.19a9.04 9.04 0 00-12.26 3.25l-.33.57a.85.85 0 00.32 1.18l6.37 3.64-3.81 6.58h-.08c-3.69 0-6.88 2.11-8.78 5.1a2.36 2.36 0 011.98.2 8.66 8.66 0 016.8-3.57c2.8 0 5.35 1.54 7 3.85a2.35 2.35 0 011.69-.61 10.82 10.82 0 00-6.72-4.76l3.43-5.93 6.15 3.5a.88.88 0 001.2-.31l.34-.58A8.8 8.8 0 0025.5 3.2zm-2.55 8.55l-3.68-2.1a12.2 12.2 0 012.07-2.47c.74-.66 1.62-1.26 2.82-1.92.18 1.1.23 2.02.12 2.92a9.46 9.46 0 01-1.33 3.57zm1.52.87A11.17 11.17 0 0026 8.38c.12-.9.09-1.77-.02-2.7a7.08 7.08 0 011.39 8.59l-2.91-1.66zm-4.31-6.72c-.92.83-1.66 1.75-2.4 2.89l-2.9-1.65a7.27 7.27 0 018.04-3.16 15.45 15.45 0 00-2.74 1.92zM8.54 25.41a.87.87 0 00-.87-.6.87.87 0 00-.81.67c-.3 1.2-.86 1.85-1.5 2.24-.67.4-1.53.55-2.49.55a.87.87 0 00-.87.87c0 .47.4.86.87.86 1.12 0 2.34-.18 3.4-.8.6-.37 1.13-.86 1.54-1.51a5.23 5.23 0 008.19-.03 5.23 5.23 0 008.28-.1A6.08 6.08 0 0029.12 30c.48 0 .87-.39.87-.86 0-.48-.39-.87-.87-.87a4.24 4.24 0 01-4-2.85.87.87 0 00-.83-.6.87.87 0 00-.84.59 3.47 3.47 0 01-6.63.14.87.87 0 00-.82-.59c-.38 0-.7.24-.83.59a3.47 3.47 0 01-6.63-.14z"/></svg>