<svg width="32" height="32" viewBox="0 0 32 32" xmlns="http://www.w3.org/2000/svg"><path d="M24 6.5V8h1a5 5 0 015 5v7.5a3.5 3.5 0 01-3.5 3.5H25v1.5a3.5 3.5 0 01-3.5 3.5h-11A3.5 3.5 0 017 25.5V24H5.5A3.5 3.5 0 012 20.5V13a5 5 0 015-5h1V6.5A3.5 3.5 0 0111.5 3h9A3.5 3.5 0 0124 6.5zm-14 0V8h12V6.5c0-.83-.67-1.5-1.5-1.5h-9c-.83 0-1.5.67-1.5 1.5zm-1 19c0 .83.67 1.5 1.5 1.5h11c.83 0 1.5-.67 1.5-1.5v-6c0-.83-.67-1.5-1.5-1.5h-11c-.83 0-1.5.67-1.5 1.5v6zM25 22h1.5c.83 0 1.5-.67 1.5-1.5V13a3 3 0 00-3-3H7a3 3 0 00-3 3v7.5c0 .83.67 1.5 1.5 1.5H7v-2.5a3.5 3.5 0 013.5-3.5h11a3.5 3.5 0 013.5 3.5V22z"/></svg>