<svg width="28" height="28" viewBox="0 0 28 28" xmlns="http://www.w3.org/2000/svg"><path d="M7 5.77V7H6a4 4 0 00-4 4v7a3 3 0 003 3h2v1a3 3 0 003 3h8a3 3 0 003-3v-1h2a3 3 0 003-3v-7a4 4 0 00-4-4h-1V5.75A2.75 2.75 0 0018.25 3l-8.5.02A2.75 2.75 0 007 5.77zM21 19.5V17a3 3 0 00-3-3h-8a3 3 0 00-3 3v2.5H5A1.5 1.5 0 013.5 18v-7A2.5 2.5 0 016 8.5h16a2.5 2.5 0 012.5 2.5v7c0 .83-.67 1.5-1.5 1.5h-2zM19.5 5.75V7h-11V5.77c0-.7.56-1.25 1.25-1.25l8.5-.02c.69 0 1.25.56 1.25 1.25zM10 15.5h8c.83 0 1.5.67 1.5 1.5v5c0 .83-.67 1.5-1.5 1.5h-8A1.5 1.5 0 018.5 22v-5c0-.83.67-1.5 1.5-1.5z"/></svg>