<svg width="20" height="20" viewBox="0 0 20 20" xmlns="http://www.w3.org/2000/svg"><path d="M4.99 7.6 3.55 9.13A2 2 0 0 0 3 10.5V15a1 1 0 0 0 1 1h3.7c.2.35.41.7.62 1H4a2 2 0 0 1-2-2v-4.5a3 3 0 0 1 .82-2.07L8.2 2.78a2.5 2.5 0 0 1 3.62 0l5.37 5.65A3 3 0 0 1 18 10.5V15a2 2 0 0 1-2 2h-4.32c.2-.3.43-.65.63-1H16a1 1 0 0 0 1-1v-4.5a2 2 0 0 0-.55-1.38L14.43 7c-1.48-.19-2.55.3-3.68.8-.27.12-.53.24-.81.35-.72.3-1.49.53-2.37.47A5.18 5.18 0 0 1 5 7.6ZM8.9 3.48l-3.23 3.4c.77.5 1.4.7 1.96.75.66.05 1.26-.13 1.92-.4l.7-.3c.9-.4 1.93-.88 3.2-.95l-2.37-2.5a1.5 1.5 0 0 0-2.18 0Zm.35 13.13-.4-.6A4.79 4.79 0 0 1 8 14a2 2 0 1 1 4 0c0 .5-.41 1.29-.86 2l-.4.6a.9.9 0 0 1-1.48 0ZM11 14a1 1 0 1 0-2 0 1 1 0 0 0 2 0Z"/></svg>