<svg width="24" height="24" viewBox="0 0 24 24" xmlns="http://www.w3.org/2000/svg"><path d="M13.91 2.85a2.75 2.75 0 0 0-3.82 0l-7.1 6.87A3.25 3.25 0 0 0 2 12.06v6.69C2 19.99 3 21 4.25 21h6.04a22.1 22.1 0 0 1-1.36-2.03 9.71 9.71 0 0 1-.63-1.28c-.16-.41-.3-.88-.3-1.35 0-1.08.44-2.15 1.12-2.94.69-.8 1.7-1.4 2.88-1.4s2.19.6 2.88 1.4c.68.8 1.12 1.86 1.12 2.94 0 .47-.14.94-.3 1.35-.17.42-.4.86-.63 1.28A22.1 22.1 0 0 1 13.7 21h6.04c1.24 0 2.25-1 2.25-2.25v-6.69c0-.88-.36-1.72-.99-2.34l-7.1-6.87Zm-2.78 1.08a1.25 1.25 0 0 1 1.74 0l3.45 3.34c-.7.09-1.38.26-2.02.47-.68.22-1.38.51-2.04.78l-1.1.44c-.98.37-1.88.61-2.78.58a4.7 4.7 0 0 1-2.3-.72l5.05-4.89Zm.13 16.7a.92.92 0 0 0 1.48 0c.88-1.17 2.26-3.16 2.26-4.29C15 14.7 13.66 13 12 13s-3 1.69-3 3.34c0 1.13 1.38 3.12 2.26 4.3ZM13.5 16a1.5 1.5 0 1 1-3 0 1.5 1.5 0 0 1 3 0Z"/></svg>