<svg width="24" height="24" viewBox="0 0 24 24" xmlns="http://www.w3.org/2000/svg"><path d="M13.92 2.78a2.75 2.75 0 0 0-3.84 0l-7.1 6.95A3.25 3.25 0 0 0 2 12.05v6.7C2 19.99 3 21 4.25 21h6.04c-.32-.43-.7-.95-1.04-1.5h-5a.75.75 0 0 1-.75-.75v-6.7c0-.47.19-.92.53-1.25l.93-.91a6.34 6.34 0 0 0 3.37 1.15c1.2.04 2.32-.28 3.36-.68.44-.16.84-.33 1.24-.5.6-.24 1.19-.48 1.84-.7 1-.32 2-.52 3.1-.42l2.1 2.06c.34.33.53.78.53 1.25v6.7c0 .41-.34.75-.75.75h-5c-.35.55-.72 1.07-1.04 1.5h6.04c1.24 0 2.25-1 2.25-2.25v-6.7c0-.87-.35-1.71-.98-2.32l-7.1-6.95Zm-2.8 1.08a1.25 1.25 0 0 1 1.75 0l3.5 3.41c-.73.08-1.42.26-2.07.47-.68.22-1.38.51-2.04.78l-1.1.44c-.98.37-1.88.61-2.78.58a4.7 4.7 0 0 1-2.32-.73l5.07-4.95Zm.14 16.77a.92.92 0 0 0 1.48 0c.24-.32.53-.71.81-1.13.73-1.08 1.45-2.35 1.45-3.16C15 14.7 13.66 13 12 13s-3 1.69-3 3.34c0 .81.72 2.08 1.45 3.16.28.42.57.8.81 1.13ZM13.5 16a1.5 1.5 0 1 1-3 0 1.5 1.5 0 0 1 3 0Z"/></svg>