<svg width="28" height="28" viewBox="0 0 28 28" xmlns="http://www.w3.org/2000/svg"><path d="M15.87 3.73a2.75 2.75 0 0 0-3.74 0l-7.92 7.33c-.77.7-1.21 1.7-1.21 2.75v8.44A2.75 2.75 0 0 0 5.75 25h6.52a18.15 18.15 0 0 1-1.6-2.16 6.82 6.82 0 0 1-1.17-3.37A4.49 4.49 0 0 1 14 15c2.48 0 4.5 2 4.5 4.47 0 1.18-.58 2.4-1.18 3.37-.5.83-1.1 1.58-1.59 2.16h6.52A2.75 2.75 0 0 0 25 22.25v-8.44c0-1.04-.44-2.04-1.2-2.75l-7.93-7.33Zm-2.72 1.1a1.25 1.25 0 0 1 1.7 0l3.6 3.34c-1.64.14-3.07.76-4.34 1.3l-.82.34c-1.01.4-1.92.7-2.84.7-.78 0-1.61-.21-2.56-.81l5.26-4.86Zm4.35 14.64c0 1.78-1.8 4.07-2.82 5.22a.9.9 0 0 1-1.36 0c-1.02-1.15-2.82-3.44-2.82-5.22A3.49 3.49 0 0 1 14 16c1.93 0 3.5 1.55 3.5 3.47Zm-1.75 0c0-.96-.78-1.73-1.75-1.73s-1.75.77-1.75 1.73.78 1.74 1.75 1.74 1.75-.78 1.75-1.74Z"/></svg>