<svg width="28" height="28" viewBox="0 0 28 28" xmlns="http://www.w3.org/2000/svg"><path d="M12.13 3.73a2.75 2.75 0 0 1 3.74 0l7.92 7.33c.77.7 1.21 1.7 1.21 2.75v8.44A2.75 2.75 0 0 1 22.25 25h-6.46c.36-.42.76-.94 1.14-1.5h5.32c.69 0 1.25-.56 1.25-1.25v-8.44c0-.63-.26-1.22-.72-1.65L20.1 9.69c-2-.28-3.63.4-5.36 1.14l-.9.37c-1.05.43-2.18.8-3.4.8-1.2 0-2.4-.35-3.7-1.25l-1.53 1.41a2.25 2.25 0 0 0-.72 1.65v8.44c0 .69.56 1.25 1.25 1.25h5.32c.38.56.78 1.08 1.14 1.5H5.75A2.75 2.75 0 0 1 3 22.25v-8.44c0-1.04.44-2.04 1.2-2.75l7.93-7.33Zm2.72 1.1a1.25 1.25 0 0 0-1.7 0L7.9 9.7c.95.6 1.78.8 2.56.8.92 0 1.83-.28 2.84-.7l.82-.33c1.27-.54 2.7-1.16 4.34-1.3l-3.6-3.33Zm2.65 14.64c0 1.78-1.8 4.07-2.82 5.22a.9.9 0 0 1-1.36 0c-1.02-1.15-2.82-3.44-2.82-5.22A3.49 3.49 0 0 1 14 16c1.93 0 3.5 1.55 3.5 3.47Zm-1.75 0c0-.96-.78-1.73-1.75-1.73s-1.75.77-1.75 1.73.78 1.74 1.75 1.74 1.75-.78 1.75-1.74Z"/></svg>