<svg width="24" height="24" viewBox="0 0 24 24" xmlns="http://www.w3.org/2000/svg"><path d="M8.03 8.97a.75.75 0 0 0-1.06 0l-1.75 1.75a.75.75 0 1 0 1.06 1.06l.47-.47v2.94a.75.75 0 0 0 1.5 0v-2.94l.47.47a.75.75 0 0 0 1.06-1.06L8.03 8.97Zm6.19 4.06 1.75 1.75c.3.3.77.3 1.06 0l1.75-1.75a.75.75 0 1 0-1.06-1.06l-.47.47V9.5a.75.75 0 0 0-1.5 0v2.94l-.47-.47a.75.75 0 1 0-1.06 1.06ZM5.25 4A3.25 3.25 0 0 0 2 7.25v9.5C2 18.55 3.46 20 5.25 20h13.5c1.8 0 3.25-1.46 3.25-3.25v-9.5C22 5.45 20.54 4 18.75 4H5.25ZM3.5 7.25c0-.97.78-1.75 1.75-1.75h6v13h-6c-.97 0-1.75-.78-1.75-1.75v-9.5Zm9.25-1.75h6c.97 0 1.75.78 1.75 1.75v9.5c0 .97-.78 1.75-1.75 1.75h-6v-13Z"/></svg>