<svg width="24" height="24" viewBox="0 0 24 24" xmlns="http://www.w3.org/2000/svg"><path d="M2.35 12.57c-.68 1.9-.77 3.88.44 5.1l.24.24a629.85 629.85 0 003.02 3.04c1.28 1.28 3.3 1.3 5.29.66a16.3 16.3 0 006.22-4.04 16.3 16.3 0 004.04-6.22c.64-1.99.62-4.01-.66-5.3a756.94 756.94 0 01-2.89-2.9l-.36-.37c-1.23-1.21-3.2-1.12-5.1-.44-1.97.71-4.15 2.14-6.12 4.11a17.45 17.45 0 00-4.12 6.12zm15.14-5.7v.06a5.12 5.12 0 01-.15.57 14.34 14.34 0 01-3.6 6.03 15.61 15.61 0 01-6.78 3.94l-.03.01H6.9s-.75.09-.9-.57c-.08-.4.18-.8.58-.9h.03a4.38 4.38 0 00.5-.14 14.1 14.1 0 005.57-3.4 12.84 12.84 0 003.2-5.36 6.85 6.85 0 00.12-.46c.07-.4.44-.7.86-.64.41.07.69.45.62.86z"/></svg>