<svg width="20" height="20" viewBox="0 0 20 20" xmlns="http://www.w3.org/2000/svg"><path d="M4 3h1a1 1 0 0 1 1 1v4h1V4a2 2 0 0 0-2-2H4a2 2 0 0 0-2 2v11c0 1.1.9 2 2 2h1a2 2 0 0 0 2-2v-4H6v4a1 1 0 0 1-1 1H4a1 1 0 0 1-1-1V4a1 1 0 0 1 1-1Zm11-1a2 2 0 0 0-2 2v11c0 1.1.9 2 2 2h1a2 2 0 0 0 2-2V4a2 2 0 0 0-2-2h-1Zm1 1a1 1 0 0 1 1 1v11a1 1 0 0 1-1 1h-1a1 1 0 0 1-1-1V4a1 1 0 0 1 1-1h1ZM9.15 7.15c.2-.2.5-.2.7 0l2 2c.2.2.2.5 0 .7l-2 2a.5.5 0 0 1-.7-.7L10.29 10H5.5a.5.5 0 0 1 0-1h4.8L9.14 7.85a.5.5 0 0 1 0-.7Z"/></svg>