<svg width="1892" height="1715" xmlns="http://www.w3.org/2000/svg" xmlns:xlink="http://www.w3.org/1999/xlink" xml:space="preserve" overflow="hidden"><defs><clipPath id="clip0"><rect x="1207" y="342" width="1892" height="1715"/></clipPath></defs><g clip-path="url(#clip0)" transform="translate(-1207 -342)"><path d="M1920.03 871.888C1930.4 866.704 1942.6 866.704 1952.97 871.888L2247.64 1019.21C2260.12 1025.45 2268 1038.2 2268 1052.15 2268 1066.1 2260.12 1078.85 2247.64 1085.09L2018.86 1199.47 2247.64 1313.84C2260.12 1320.08 2268 1332.83 2268 1346.79 2268 1360.74 2260.12 1373.49 2247.64 1379.73L1973.33 1516.87 1973.33 1813.17C1973.33 1826.57 1966.05 1838.92 1954.32 1845.4 1942.59 1851.89 1928.26 1851.49 1916.9 1844.36L1622.24 1659.25C1611.51 1652.51 1605 1640.73 1605 1628.06L1605 1052.15C1605 1038.2 1612.88 1025.45 1625.36 1019.21L1920.03 871.888ZM1678.67 1074.91 1678.67 1607.71 1899.67 1746.54 1899.67 1494.1C1899.67 1480.15 1907.55 1467.4 1920.03 1461.16L2148.81 1346.79 1920.03 1232.41C1907.55 1226.17 1899.67 1213.42 1899.67 1199.47 1899.67 1185.52 1907.55 1172.76 1920.03 1166.53L2148.81 1052.15 1936.5 946.006 1678.67 1074.91Z" fill="#4A81C3" fill-rule="evenodd"/><path d="M3099 706.638C3099 780.223 3099 696.337 3097.89 771.004 3095.78 774.731 3096.97 834.153 3093.86 865.99 3090.74 897.826 3086.66 930.626 3079.2 962.023 3068.36 1007.66 3055.7 1053.05 3040.55 1097.44 3019.18 1160.03 2991.3 1220.11 2955.54 1275.82 2926.63 1320.86 2896.01 1365 2863.28 1407.32 2837.12 1441.13 2808.21 1473.19 2777.72 1503.18 2723.62 1556.38 2647.25 1636.72 2600.36 1644.61 2553.47 1652.51 2512.74 1592.16 2496.39 1550.54 2480.04 1508.92 2503.51 1448.68 2502.28 1394.91 2501.05 1341.14 2501.69 1282.77 2489.02 1227.92 2475.78 1170.58 2456.51 1115.39 2427.26 1063.72 2397.83 1011.73 2362.01 964.991 2318.8 924.087 2264.8 872.964 2202.91 833.988 2133.83 806.007 2067.19 779.019 1997.7 765.912 1926.45 764.538 1890.33 763.845 1853.93 769.667 1817.9 774.462 1759.15 782.285 1704.18 802.882 1651.86 829.899 1610.65 851.181 1572.67 877.526 1537.43 908.165 1484.43 954.25 1441.37 1007.87 1407.71 1069.29 1384.12 1112.34 1365.23 1157.47 1354.4 1205.29 1346.59 1239.78 1339.52 1275.01 1337.89 1310.17 1336.03 1350.44 1337.23 1391.5 1343.22 1431.3 1349.4 1472.34 1360.12 1513.26 1373.92 1552.45 1394.13 1609.86 1423.3 1663.42 1464.54 1708.75 1495.15 1742.39 1526.19 1776.49 1561.58 1804.69 1616.89 1848.8 1679.72 1880.22 1747.73 1902.02 1808.91 1921.63 1871.55 1931.42 1934.9 1934.19 1987.84 1936.51 2041.26 1933.65 2094.15 1929.25 2144.49 1925.06 2194.63 1917.2 2244.46 1908.64 2336.47 1892.83 2424.59 1863.24 2508.86 1823.8 2562.61 1798.65 2613.56 1767.54 2665.84 1739.24 2669.46 1737.28 2673.72 1736.51 2677.68 1735.18L2679.74 1738.35C2677.67 1741.34 2675.97 1744.71 2673.46 1747.28 2660.81 1760.21 2647.87 1772.85 2635.19 1785.74 2591.23 1830.44 2541.64 1868.17 2489.32 1902.29 2438.95 1935.14 2385.61 1962.69 2329.62 1984.53 2275.72 2005.57 2220.8 2023.93 2163.32 2032.61 2108.68 2040.87 2054.07 2050.19 1999.1 2055.1 1958.97 2058.68 1918.27 2056.18 1877.83 2055.79 1824.34 2055.27 1772.2 2045.58 1720.39 2032.7 1646.1 2014.23 1577.21 1983.22 1513.76 1941.36 1459.7 1905.7 1411.36 1862.85 1369.99 1812.25 1338.04 1773.16 1309.36 1732.07 1287.13 1686.93 1271.51 1655.21 1257.66 1622.41 1245.76 1589.12 1229.63 1543.96 1219.87 1484.82 1213.41 1449.42 1206.95 1414.01 1208.74 1379.38 1207 1376.69 1207 1315.36 1207.69 1359.93 1208.78 1297.52 1210.87 1294.22 1210.97 1266.46 1213.49 1248.53 1216.01 1230.61 1219.65 1209.33 1223.89 1189.98 1238.99 1121.05 1264.27 1056.03 1299.03 994.534 1326.65 945.66 1359.69 900.764 1397.73 859.811 1437.69 816.798 1482.22 779.066 1532.07 747.306 1570.95 722.536 1611.07 700.527 1654.32 685.341 1694.9 671.086 1736.37 658.597 1778.31 649.158 1809.36 642.173 1841.72 639.184 1873.63 638.136 1980.5 634.636 2087.67 643.856 2194.34 632.141 2226.81 628.578 2259.06 621.936 2290.97 614.735 2337.53 604.231 2381.41 585.473 2423.09 562.87 2482.82 530.477 2536.74 489.705 2583.59 440.1 2588.65 434.739 2593.81 426.249 2601.33 431.898 2605.82 435.27 2607.99 444.77 2607.46 451.201 2605.98 468.805 2603.46 486.45 2599.68 503.709 2584.16 574.425 2560.19 641.958 2522.4 704.154 2517.47 712.255 2513.72 721.071 2509.43 729.556L2512.24 732.429C2516.68 731.612 2521.24 731.213 2525.53 729.908L2583.59 711.791C2635.98 695.79 2685.26 672.717 2731.48 643.709 2784.54 610.421 2830.93 569.338 2871.02 520.821 2913.42 469.51 2948.11 413.377 2980.6 355.607 2983.97 349.63 2990.76 343.173 2996.9 342.046 3000.8 341.331 3008.12 349.183 3011.03 354.708 3056.12 440.588 3084.88 531.494 3093.99 628.346 3094.21 630.742 3097.27 704.384 3099 706.638Z" fill="#682A7B" fill-rule="evenodd"/></g></svg>