<svg width="24" height="24" viewBox="0 0 24 24" xmlns="http://www.w3.org/2000/svg"><path d="M5.96 3.42a1 1 0 0 0-1.88-.03l-2.51 6.5a1 1 0 0 0 1.86.72l.22-.56H6.2l.19.53a1 1 0 1 0 1.89-.66l-2.31-6.5Zm-.48 4.63H4.42l.56-1.42.5 1.42ZM9 3.75a1 1 0 0 1 1-1H12.19c.21 0 .85 0 1.45.33.33.19.64.47.86.88.22.4.33.88.33 1.42 0 .52-.12.97-.32 1.33.14.13.26.28.37.46.25.41.37.9.37 1.46a2.4 2.4 0 0 1-1.29 2.25c-.62.33-1.29.37-1.58.37H10a1 1 0 0 1-1-1v-6.5ZM12.17 6c.13 0 .33-.03.46-.11.05-.03.1-.07.12-.12a.8.8 0 0 0 .08-.4 1 1 0 0 0-.09-.46.19.19 0 0 0-.08-.08 1.09 1.09 0 0 0-.5-.08H11V6h1.17Zm0 2H11v1.25h1.38c.17 0 .44-.03.63-.14a.4.4 0 0 0 .17-.14c.02-.04.07-.14.07-.34 0-.26-.05-.38-.08-.42a.28.28 0 0 0-.13-.11 1.6 1.6 0 0 0-.66-.1h-.2Zm8.47-4.95c.69.34 1.2.97 1.55 1.92a1 1 0 1 1-1.88.68c-.22-.6-.45-.75-.55-.8-.16-.08-.35-.1-.76-.1a.9.9 0 0 0-.64.22c-.15.13-.29.35-.4.63a3.63 3.63 0 0 0-.21 1.14v.01c0 .53.01 1.16.21 1.67.1.24.22.42.38.55.15.12.38.24.77.29.12 0 .38 0 .63-.08.22-.09.44-.24.6-.58a1 1 0 1 1 1.82.82c-.84 1.85-2.68 1.89-3.27 1.82a3.4 3.4 0 0 1-1.83-.73 3.3 3.3 0 0 1-.96-1.36 6.4 6.4 0 0 1 0-4.25c.17-.47.46-1 .94-1.43a2.89 2.89 0 0 1 2-.72c.36 0 .99 0 1.6.3Zm-2.75 11.88a.6.6 0 0 0-.18.28 1 1 0 0 1-1.92-.55c.1-.36.33-.84.77-1.23a2.85 2.85 0 0 1 1.94-.68c1.7 0 2.75 1.26 2.75 2.48 0 .42-.08 1.11-.54 1.72a2.2 2.2 0 0 1 .54 1.53c0 .9-.3 1.64-.9 2.15-.57.47-1.26.62-1.85.62-.54 0-1.12-.09-1.63-.41a2.62 2.62 0 0 1-1.07-1.46 1 1 0 0 1 1.9-.62c.1.27.19.35.24.39.07.04.22.1.56.1.29 0 .47-.07.56-.15.06-.05.19-.2.19-.62 0-.15-.03-.2-.05-.21a.41.41 0 0 0-.16-.12c-.24-.11-.57-.15-.83-.15a1 1 0 1 1 0-2c.67 0 .85-.2.9-.26a.83.83 0 0 0 .14-.51c0-.09-.12-.48-.75-.48-.36 0-.53.1-.61.18Zm-7.14.6c0-.42.35-.78.74-.78.33 0 .57.16.68.32.08.12.17.37-.1.83-.13.22-.33.42-.62.66l-.48.35-.08.05-.48.35c-.76.57-1.66 1.42-1.66 2.94a1 1 0 0 0 1 1h3.45a1 1 0 0 0 0-2h-2l.42-.34.42-.31.08-.06c.18-.12.38-.26.57-.41.38-.3.8-.7 1.1-1.21.6-1.02.6-2.1.06-2.94a2.78 2.78 0 0 0-5.1 1.54 1 1 0 1 0 2 0Zm-5.73 1.26-.21.16a1 1 0 0 1-1.11-1.67 3.31 3.31 0 0 0 1.35-1.74 1 1 0 0 1 1.97.21v6.5a1 1 0 1 1-2 0v-3.46Z"/></svg>