<svg width="28" height="28" viewBox="0 0 28 28" xmlns="http://www.w3.org/2000/svg"><path d="M21.7 5.3a1 1 0 10-1.4 1.4L21.6 8c-4.56.16-7.06 2.86-9.27 5.26l-.06.06C9.94 15.84 7.9 18 4 18a1 1 0 100 2c4.81 0 7.4-2.79 9.67-5.26l.06-.06c2.25-2.42 4.22-4.52 7.85-4.67l-1.29 1.28a1 1 0 001.42 1.42l3-3a1 1 0 000-1.42l-3-3zM4 8c3.88 0 6.31 1.81 8.3 3.81l-.66.72-.1.11-.6.64C9.08 11.4 7.14 10 4 10a1 1 0 110-2zm17.6 12c-3.65-.13-5.98-1.89-7.9-3.81l.66-.72.1-.11.6-.64c1.77 1.78 3.62 3.15 6.52 3.27l-1.29-1.28a1 1 0 011.42-1.42l3 3a1 1 0 010 1.42l-3 3a1 1 0 01-1.42-1.42l1.3-1.3z"/></svg>