<svg width="16" height="16" viewBox="0 0 16 16" xmlns="http://www.w3.org/2000/svg"><path d="M12.35 3.65a.5.5 0 00-.7.7l.65.65c-2.33.08-3.78 1.4-5.1 2.6l-.04.03C5.78 8.89 4.53 10 2.5 10a.5.5 0 000 1c2.44 0 3.95-1.37 5.3-2.6l.04-.03c1.33-1.22 2.54-2.3 4.45-2.37l-.64.65a.5.5 0 00.7.7l1.5-1.5a.5.5 0 000-.7l-1.5-1.5zM2.5 5c1.83 0 3.13.77 4.24 1.67l-.25.22-.5.46A5.35 5.35 0 002.5 6a.5.5 0 010-1zm9.8 6a6.5 6.5 0 01-4.04-1.67l.25-.22.5-.46A5.4 5.4 0 0012.3 10l-.64-.65a.5.5 0 01.7-.7l1.5 1.5c.2.2.2.5 0 .7l-1.5 1.5a.5.5 0 01-.7-.7l.65-.65z"/></svg>