<svg width="32" height="32" viewBox="0 0 32 32" xmlns="http://www.w3.org/2000/svg"><path d="M25.13 5.62a1.25 1.25 0 00-1.76 1.76l1.4 1.4c-4.94.37-7.93 3.5-10.58 6.26l-.1.1c-2.9 3.03-5.44 5.61-9.84 5.61a1.25 1.25 0 000 2.5c5.53 0 8.74-3.35 11.56-6.29l.1-.1c2.66-2.78 5-5.17 8.77-5.56l-1.31 1.32a1.25 1.25 0 101.76 1.76l3.5-3.5c.5-.48.5-1.28 0-1.76l-3.5-3.5zM4.25 8.75c4.36 0 7.27 2.07 9.69 4.39l-.75.77-.18.19-.81.84c-2.22-2.13-4.52-3.69-7.95-3.69a1.25 1.25 0 110-2.5zm20.52 14.46c-3.82-.28-6.48-2.21-8.7-4.35l.74-.77.18-.19.81-.84c1.98 1.9 4.03 3.35 6.88 3.64l-1.31-1.32a1.25 1.25 0 011.76-1.76l3.5 3.5c.5.48.5 1.28 0 1.76l-3.5 3.5a1.25 1.25 0 01-1.76-1.76l1.4-1.4z"/></svg>