<svg width="28" height="28" viewBox="0 0 28 28" xmlns="http://www.w3.org/2000/svg"><path d="M21.78 5.72a.75.75 0 10-1.06 1.06l1.72 1.72h-.19c-4.68 0-7.31 2.56-9.73 4.92l-.04.04C10.03 15.85 7.79 18 3.75 18a.75.75 0 000 1.5c4.68 0 7.31-2.56 9.73-4.92l.04-.04c2.45-2.39 4.69-4.54 8.73-4.54h.19l-1.72 1.72a.75.75 0 101.06 1.06l3-3c.3-.3.3-.77 0-1.06l-3-3zM3.75 8.5c3.92 0 6.4 1.8 8.52 3.76l-.4.4-.1.09-.57.56C9.19 11.46 7.08 10 3.75 10a.75.75 0 010-1.5zm18.5 11c-3.92 0-6.4-1.8-8.52-3.76l.4-.4.1-.09.57-.56c2.01 1.85 4.12 3.31 7.45 3.31h.19l-1.72-1.72a.75.75 0 111.06-1.06l3 3c.3.3.3.77 0 1.06l-3 3a.75.75 0 11-1.06-1.06l1.72-1.72h-.19z"/></svg>