<svg width="24" height="24" viewBox="0 0 24 24" xmlns="http://www.w3.org/2000/svg"><path d="M19.2 4.3a1 1 0 10-1.4 1.4l.8.8c-3.81.17-6.17 2.6-8.23 4.72l-.09.08C8.06 13.6 6.15 15.5 3 15.5a1 1 0 100 2c4.05 0 6.5-2.52 8.63-4.72l.09-.08c2.12-2.19 3.96-4.02 6.85-4.19l-.78.78a1 1 0 001.42 1.42l2.5-2.5a1 1 0 000-1.42l-2.5-2.5zM3 6.5c3.23 0 5.44 1.6 7.29 3.37l-.58.58-.14.16-.68.69C7.19 9.68 5.48 8.5 3 8.5a1 1 0 110-2zm15.6 11c-3.02-.14-5.12-1.68-6.89-3.37l.58-.58.14-.16.68-.69c1.6 1.53 3.21 2.66 5.46 2.79l-.78-.78a1 1 0 011.42-1.42l2.5 2.5a1 1 0 010 1.42l-2.5 2.5a1 1 0 01-1.42-1.42l.8-.8z"/></svg>