<svg width="20" height="20" viewBox="0 0 20 20" xmlns="http://www.w3.org/2000/svg"><path d="M15.85 4.15a.5.5 0 00-.7.7L16.3 6c-3.33.07-5.29 1.9-7.1 3.6l-.04.03C7.28 11.4 5.53 13 2.5 13a.5.5 0 000 1c3.45 0 5.45-1.87 7.3-3.6l.04-.03C11.68 8.65 13.4 7.07 16.3 7l-1.14 1.15a.5.5 0 00.7.7l2-2a.5.5 0 000-.7l-2-2zM2.5 6c2.81 0 4.66 1.24 6.26 2.64l-.28.26-.46.43C6.52 8.03 4.92 7 2.5 7a.5.5 0 010-1zm13.8 8c-2.7-.06-4.5-1.28-6.06-2.64l.28-.26.46-.43c1.46 1.27 3 2.27 5.31 2.33l-1.14-1.15a.5.5 0 01.7-.7l2 2c.2.2.2.5 0 .7l-2 2a.5.5 0 01-.7-.7L16.3 14z"/></svg>