<svg width="48" height="48" viewBox="0 0 48 48" xmlns="http://www.w3.org/2000/svg"><path d="M38.06 8.94a1.5 1.5 0 00-2.12 2.12L38.88 14h-.38c-8.5 0-13.2 4.63-17.47 8.85l-.08.08C16.62 27.2 12.7 31 5.5 31a1.5 1.5 0 000 3c8.5 0 13.2-4.63 17.47-8.85l.08-.08C27.38 20.8 31.3 17 38.5 17h.38l-2.94 2.94a1.5 1.5 0 002.12 2.12l5.5-5.5a1.5 1.5 0 000-2.12l-5.5-5.5zM5.5 14c6.93 0 11.34 3.09 15.05 6.52l-.83.81-.18.18-1.14 1.11C14.95 19.45 11.28 17 5.5 17a1.5 1.5 0 010-3zm33 20c-6.93 0-11.34-3.09-15.05-6.52l.83-.81.18-.18 1.14-1.11C29.05 28.55 32.72 31 38.5 31h.38l-2.94-2.94a1.5 1.5 0 012.12-2.12l5.5 5.5a1.5 1.5 0 010 2.12l-5.5 5.5a1.5 1.5 0 01-2.12-2.12L38.88 34h-.38z"/></svg>