<svg width="48" height="48" viewBox="0 0 48 48" xmlns="http://www.w3.org/2000/svg"><path d="M38.13 8.87a1.25 1.25 0 00-1.76 1.76L39.73 14h-.98c-8.39 0-13.15 4.7-17.55 9.03l-.08.08c-4.46 4.4-8.56 8.39-15.87 8.39a1.25 1.25 0 100 2.5c8.39 0 13.15-4.7 17.55-9.03l.08-.08c4.46-4.4 8.56-8.39 15.87-8.39h.98l-3.36 3.37a1.25 1.25 0 001.76 1.76l5.5-5.5c.5-.48.5-1.28 0-1.76l-5.5-5.5zM5.25 14c7 0 11.47 3.26 15.3 6.86l-.64.64-.2.19-.94.93c-3.66-3.41-7.5-6.12-13.52-6.12a1.25 1.25 0 110-2.5zm33.5 20c-7 0-11.47-3.26-15.3-6.86l.64-.64.2-.19.94-.93c3.66 3.41 7.5 6.12 13.52 6.12h.98l-3.36-3.37a1.25 1.25 0 011.76-1.76l5.5 5.5c.5.48.5 1.28 0 1.76l-5.5 5.5a1.25 1.25 0 01-1.76-1.76L39.73 34h-.98z"/></svg>