<svg width="16" height="16" viewBox="0 0 16 16" xmlns="http://www.w3.org/2000/svg"><path d="M12.28 3.47a.75.75 0 10-1.06 1.06l.26.27c-2.09.25-3.37 1.52-4.47 2.63l-.04.04C5.71 8.73 4.66 9.75 2.75 9.75a.75.75 0 000 1.5c2.56 0 4-1.45 5.24-2.68l.04-.04c1.05-1.05 1.95-1.93 3.33-2.2l-.14.14a.75.75 0 001.06 1.06l1.5-1.5c.3-.3.3-.77 0-1.06l-1.5-1.5zM2.75 4.75a6 6 0 014 1.52l-.4.4-.09.1-.58.56a4.42 4.42 0 00-2.93-1.08.75.75 0 010-1.5zm8.73 6.45a6.1 6.1 0 01-3.24-1.47l.41-.4.09-.1.58-.56c.6.48 1.24.84 2.04 1l-.14-.14a.75.75 0 011.06-1.06l1.5 1.5c.3.3.3.77 0 1.06l-1.5 1.5a.75.75 0 11-1.06-1.06l.26-.27z"/></svg>