<svg width="20" height="20" viewBox="0 0 20 20" xmlns="http://www.w3.org/2000/svg"><path d="M15.78 3.72a.75.75 0 10-1.06 1.06l.75.75c-3.09.28-4.88 2.2-6.47 3.9l-.05.06C7.2 11.38 5.65 13 2.75 13a.75.75 0 000 1.5c3.58 0 5.53-2.09 7.25-3.94l.05-.05c1.58-1.7 2.98-3.17 5.34-3.46l-.67.67a.75.75 0 001.06 1.06l2-2c.3-.3.3-.77 0-1.06l-2-2zM2.75 5.5c2.78 0 4.58 1.26 6.05 2.7l-.48.5-.1.1-.45.49C6.42 7.97 4.99 7 2.75 7a.75.75 0 110-1.5zm12.72 8.97c-2.34-.21-3.94-1.37-5.27-2.66l.49-.51.09-.1.45-.49c1.17 1.14 2.4 2.02 4.16 2.24l-.67-.67a.75.75 0 111.06-1.06l2 2c.3.3.3.77 0 1.06l-2 2a.75.75 0 11-1.06-1.06l.75-.75z"/></svg>