<svg width="32" height="32" viewBox="0 0 32 32" xmlns="http://www.w3.org/2000/svg"><path d="M25.2 5.8a1 1 0 10-1.4 1.4L25.6 9c-5.18.17-8.35 3.34-11.22 6.21l-.09.08C11.26 18.33 8.53 21 4 21a1 1 0 100 2c5.42 0 8.68-3.26 11.62-6.21l.09-.08c2.93-2.94 5.58-5.54 9.87-5.7l-1.79 1.78a1 1 0 101.42 1.42l3.5-3.5a1 1 0 000-1.42l-3.5-3.5zM4 9c4.4 0 7.38 2.15 9.92 4.54l-.51.52-.18.17-.73.73C10.1 12.72 7.63 11 4 11a1 1 0 110-2zm21.6 14c-4.19-.13-7.06-2.23-9.52-4.54l.51-.51.18-.18.73-.73c2.3 2.16 4.67 3.82 8.08 3.95l-1.79-1.78a1 1 0 011.42-1.42l3.5 3.5a1 1 0 010 1.42l-3.5 3.5a1 1 0 01-1.42-1.42l1.8-1.8z"/></svg>