<svg width="20" height="20" viewBox="0 0 20 20" xmlns="http://www.w3.org/2000/svg"><path d="M8 2c-.37 0-.73.04-1.08.1a.5.5 0 0 0-.4.4l-.26 1.36c-.05.25-.3.4-.54.31l-1.3-.45a.5.5 0 0 0-.55.14A5.5 5.5 0 0 0 2.8 5.74c-.07.2-.01.4.14.54l1.05.9c.19.17.19.47 0 .63l-1.05.91a.5.5 0 0 0-.14.54c.23.7.6 1.34 1.08 1.88.14.15.35.2.54.14l1.3-.45c.25-.08.5.06.55.31l.27 1.36c.03.2.19.35.39.4a5.52 5.52 0 0 0 2.17 0 .5.5 0 0 0 .4-.4l.25-1.36c.05-.25.3-.4.55-.31l1.3.45c.19.06.4 0 .54-.14a5.5 5.5 0 0 0 1.08-1.89.5.5 0 0 0-.14-.53l-1.04-.9a.42.42 0 0 1 0-.63l1.04-.9a.5.5 0 0 0 .14-.54 5.5 5.5 0 0 0-1.08-1.89.5.5 0 0 0-.54-.14l-1.3.45a.42.42 0 0 1-.55-.31L9.48 2.5a.5.5 0 0 0-.4-.4C8.75 2.05 8.39 2 8 2ZM6.5 7.5a1.5 1.5 0 1 1 3 0 1.5 1.5 0 0 1-3 0Zm4.66 4.95a.46.46 0 0 1 .53-.15l.8.27c.26.1.54-.07.6-.34l.15-.83c.04-.2.2-.36.4-.38a3.55 3.55 0 0 1 .72 0c.2.02.35.18.4.38l.15.83c.06.27.34.43.6.34l.8-.27c.19-.07.4-.02.52.15.14.2.27.4.36.62.09.19.03.4-.13.53l-.64.56c-.2.18-.2.5 0 .68l.64.56c.16.13.22.34.13.53-.1.22-.22.43-.36.62a.46.46 0 0 1-.52.15l-.8-.27a.45.45 0 0 0-.6.34l-.16.83c-.04.2-.19.36-.4.38a3.55 3.55 0 0 1-.71 0 .46.46 0 0 1-.4-.38l-.16-.83a.45.45 0 0 0-.6-.34l-.8.27c-.18.07-.4.02-.52-.15a3.5 3.5 0 0 1-.36-.62.46.46 0 0 1 .13-.53l.64-.56c.21-.18.21-.5 0-.68l-.64-.56a.46.46 0 0 1-.13-.53c.1-.22.22-.43.36-.62ZM15 14.5a1 1 0 1 0-2 0 1 1 0 0 0 2 0Z"/></svg>