<svg width="24" height="24" viewBox="0 0 24 24" xmlns="http://www.w3.org/2000/svg"><path d="M9 2c-.47 0-.93.05-1.38.14-.3.06-.53.29-.59.59l-.36 1.86a.25.25 0 0 1-.32.19l-1.8-.62a.75.75 0 0 0-.8.21 7 7 0 0 0-1.38 2.4c-.1.28-.02.6.21.8L4.02 8.8c.11.1.11.28 0 .38l-1.44 1.24a.75.75 0 0 0-.21.8 7 7 0 0 0 1.38 2.4c.2.23.52.31.8.21l1.8-.62c.14-.05.3.04.32.2l.36 1.85c.06.3.3.54.6.6a7.03 7.03 0 0 0 2.76 0c.3-.07.53-.3.58-.6l.36-1.86a.25.25 0 0 1 .33-.19l1.79.62c.28.1.6.02.8-.21a7 7 0 0 0 1.39-2.4c.1-.29 0-.6-.22-.8l-1.43-1.24a.25.25 0 0 1 0-.38l1.43-1.24c.23-.2.31-.51.22-.8a7 7 0 0 0-1.39-2.4.75.75 0 0 0-.8-.21l-1.79.62a.25.25 0 0 1-.33-.2l-.36-1.85a.75.75 0 0 0-.58-.6A7.03 7.03 0 0 0 9 2ZM7.25 9a1.75 1.75 0 1 1 3.5 0 1.75 1.75 0 0 1-3.5 0Zm6.16 5.78a.47.47 0 0 1 .53-.15l1.26.44c.26.09.54-.07.6-.34l.25-1.31c.04-.2.2-.36.4-.39a4.54 4.54 0 0 1 1.1 0c.2.03.36.19.4.39l.26 1.3c.05.28.33.44.59.35l1.26-.44c.2-.06.4 0 .53.15.22.3.41.62.56.97.08.19.02.4-.14.53l-1 .88c-.21.18-.21.5 0 .68l1 .88c.16.13.22.34.14.53a4.5 4.5 0 0 1-.56.97.47.47 0 0 1-.53.15l-1.26-.44a.45.45 0 0 0-.6.34l-.25 1.31c-.04.2-.2.36-.4.39a4.53 4.53 0 0 1-1.1 0 .47.47 0 0 1-.4-.39l-.26-1.3a.45.45 0 0 0-.59-.35l-1.26.44c-.2.06-.4 0-.53-.15a4.5 4.5 0 0 1-.56-.97.47.47 0 0 1 .14-.53l1-.88c.21-.18.21-.5 0-.68l-1-.88a.47.47 0 0 1-.14-.53c.15-.35.34-.67.56-.97Zm4.84 2.72a1.25 1.25 0 1 0-2.5 0 1.25 1.25 0 0 0 2.5 0Z"/></svg>