<svg width="24" height="24" viewBox="0 0 24 24" xmlns="http://www.w3.org/2000/svg"><path d="m8.4 3.53-.25 1.34a1.75 1.75 0 0 1-2.3 1.32l-1.29-.44a5.5 5.5 0 0 0-.6 1.03l1.04.9c.8.7.8 1.94 0 2.64l-1.03.9c.16.37.36.71.6 1.03l1.29-.44c1-.35 2.08.27 2.29 1.32l.26 1.34c.39.04.8.04 1.2 0l.25-1.34a1.75 1.75 0 0 1 2.29-1.32l1.29.44c.23-.32.43-.67.6-1.04L13 10.32c-.8-.7-.8-1.94 0-2.64l1.03-.9a5.5 5.5 0 0 0-.6-1.03l-1.29.44c-1 .35-2.09-.27-2.29-1.32L9.6 3.53c-.39-.04-.8-.04-1.2 0Zm-.78-1.4a7.03 7.03 0 0 1 2.77 0c.3.07.53.3.58.6l.36 1.86c.03.15.19.24.33.19l1.79-.62c.28-.1.6-.02.8.21a7 7 0 0 1 1.39 2.4c.1.29 0 .6-.22.8l-1.43 1.24a.25.25 0 0 0 0 .38l1.43 1.24c.23.2.31.51.22.8a7 7 0 0 1-1.39 2.4.75.75 0 0 1-.8.21l-1.79-.62a.25.25 0 0 0-.33.2l-.36 1.85a.75.75 0 0 1-.58.6 7.03 7.03 0 0 1-2.77 0 .75.75 0 0 1-.59-.6l-.36-1.86a.25.25 0 0 0-.32-.19l-1.8.62c-.28.1-.6.02-.8-.21a7 7 0 0 1-1.38-2.4.75.75 0 0 1 .21-.8L4.02 9.2a.25.25 0 0 0 0-.38L2.58 7.57a.75.75 0 0 1-.21-.8 7 7 0 0 1 1.38-2.4c.2-.23.52-.31.8-.21l1.8.62c.14.05.3-.04.32-.2l.36-1.85c.06-.3.3-.53.6-.6Zm6.32 12.5a.47.47 0 0 0-.53.15c-.22.3-.41.62-.56.97-.08.19-.02.4.14.53l1 .88c.21.18.21.5 0 .68l-1 .88a.47.47 0 0 0-.14.53c.15.35.34.67.56.97.12.16.34.21.53.15l1.26-.44c.26-.09.54.07.6.34l.25 1.31c.04.2.2.36.4.39a4.53 4.53 0 0 0 1.1 0c.2-.03.36-.19.4-.39l.26-1.3a.45.45 0 0 1 .59-.35l1.26.44c.2.06.4 0 .53-.15.22-.3.41-.62.56-.97a.47.47 0 0 0-.14-.53l-1-.88a.45.45 0 0 1 0-.68l1-.88a.47.47 0 0 0 .14-.53 4.5 4.5 0 0 0-.56-.97.47.47 0 0 0-.53-.15l-1.26.44a.45.45 0 0 1-.6-.34l-.25-1.31a.47.47 0 0 0-.4-.39 4.53 4.53 0 0 0-1.1 0 .47.47 0 0 0-.4.39l-.26 1.3a.45.45 0 0 1-.59.35l-1.26-.44ZM17 18.75a1.25 1.25 0 1 1 0-2.5 1.25 1.25 0 0 1 0 2.5ZM8 9a1 1 0 1 1 2 0 1 1 0 0 1-2 0Zm1-2.5a2.5 2.5 0 1 0 0 5 2.5 2.5 0 0 0 0-5Z"/></svg>