<svg width="20" height="20" viewBox="0 0 20 20" xmlns="http://www.w3.org/2000/svg"><path d="M15.75 2.75a.75.75 0 00-1.5 0v8a.75.75 0 001.5 0V7.5H17A.75.75 0 0017 6h-1.25V2.75zm-7 .25a.75.75 0 000 1.5H12V5c0 .92-.19 1.95-.68 2.72C10.85 8.45 10.09 9 8.75 9a.75.75 0 000 1.5 4.3 4.3 0 003.83-1.97c.7-1.1.92-2.45.92-3.53V3.75a.75.75 0 00-.75-.75h-4zM6.28 4.22a.75.75 0 00-1.06 0l-2 2c-.3.3-.3.77 0 1.06l2 2a.75.75 0 001.06-1.06l-.72-.72h.69a.75.75 0 000-1.5h-.69l.72-.72c.3-.3.3-.77 0-1.06zm0 7.5a.75.75 0 00-1.06 0l-2 2c-.3.3-.3.77 0 1.06l2 2a.75.75 0 001.06-1.06L5.56 15h10.69a.75.75 0 000-1.5H5.56l.72-.72c.3-.3.3-.77 0-1.06z"/></svg>