<svg width="24" height="24" viewBox="0 0 24 24" xmlns="http://www.w3.org/2000/svg"><path d="M18.25 4c.41 0 .75.34.75.75V8h1.25a.75.75 0 010 1.5H19v3.75a.75.75 0 01-1.5 0v-8.5c0-.41.34-.75.75-.75zM9.5 5.75c0-.41.34-.75.75-.75h5c.39 0 .71.3.75.68.2 2.14-1.14 5.97-5.53 7.29a.75.75 0 01-.44-1.44A6 6 0 0014.5 6.5h-4.25a.75.75 0 01-.75-.75zm-4.28.47a.75.75 0 011.06 1.06L5.56 8h2.19a.75.75 0 010 1.5H5.56l.72.72a.75.75 0 11-1.06 1.06l-2-2a.75.75 0 010-1.06l2-2zm0 8a.75.75 0 011.06 1.06l-.72.72h14.69a.75.75 0 010 1.5H5.56l.72.72a.75.75 0 11-1.06 1.06l-2-2a.75.75 0 010-1.06l2-2z"/></svg>