<svg width="20" height="20" viewBox="0 0 20 20" xmlns="http://www.w3.org/2000/svg"><path d="M15 2.5a.5.5 0 00-1 0v8a.5.5 0 001 0V7h1.5a.5.5 0 000-1H15V2.5zM8.5 3a.5.5 0 000 1H12v.75c0 .95-.2 2.03-.72 2.86C10.77 8.4 9.93 9 8.5 9a.5.5 0 000 1c1.77 0 2.93-.78 3.62-1.86.67-1.04.88-2.34.88-3.39V3.5a.5.5 0 00-.5-.5h-4zM5.85 4.15a.5.5 0 00-.7 0l-2 2a.5.5 0 000 .7l2 2a.5.5 0 10.7-.7L4.71 7H6.5a.5.5 0 000-1H4.7l1.15-1.15a.5.5 0 000-.7zm0 8a.5.5 0 00-.7 0l-2 2a.5.5 0 000 .7l2 2a.5.5 0 00.7-.7L4.71 15H16.5a.5.5 0 000-1H4.7l1.15-1.15a.5.5 0 000-.7z"/></svg>