<svg width="20" height="20" viewBox="0 0 20 20" xmlns="http://www.w3.org/2000/svg"><path d="M17 7v1.61c-.2-.04-.41-.1-.61-.18-.46-.2-.92-.52-1.38-1A1.39 1.39 0 0 0 14 7H17ZM3 7h11c-.36 0-.73.14-1 .43a3.5 3.5 0 0 1-2.6 1.24c-.81 0-1.4.67-1.4 1.41v2.8A6.49 6.49 0 0 0 10.53 17H5.5A2.5 2.5 0 0 1 3 14.5V7Zm11.5-4A2.5 2.5 0 0 1 17 5.5V6H3v-.5A2.5 2.5 0 0 1 5.5 3h9ZM16 9.35a4.06 4.06 0 0 0 1.6.32c.2 0 .35.14.4.33v2.58c0 2.69-1.31 4.51-3.87 5.4a.39.39 0 0 1-.26 0A6.66 6.66 0 0 1 12 17c-.39-.3-.72-.63-.99-1a5.5 5.5 0 0 1-1-3.15l-.01-.27v-2.5a.4.4 0 0 1 .4-.41 4.5 4.5 0 0 0 3.32-1.55.39.39 0 0 1 .56 0c.54.57 1.11.97 1.72 1.23Z"/></svg>