<svg width="24" height="24" viewBox="0 0 24 24" xmlns="http://www.w3.org/2000/svg"><path d="M21 8.5v4.11a3.16 3.16 0 0 1-1-.38c-.33-.19-.66-.45-1-.8a1.39 1.39 0 0 0-2 0 3.5 3.5 0 0 1-2.6 1.24c-.81 0-1.4.67-1.4 1.41v2.8c.04 1.15.3 2.2.82 3.1.2.37.44.71.72 1.02H6.25A3.25 3.25 0 0 1 3 17.75V8.5h18ZM18 12a.4.4 0 0 0-.28.12 4.5 4.5 0 0 1-3.32 1.55.4.4 0 0 0-.4.41v2.77c.04 1.01.27 1.9.69 2.65.32.58.76 1.08 1.31 1.5.52.4 1.15.73 1.87.98.09.03.18.03.26 0 2.56-.89 3.87-2.71 3.87-5.4V14a.4.4 0 0 0-.4-.33 4.21 4.21 0 0 1-2.1-.57 5.55 5.55 0 0 1-1.22-.98A.4.4 0 0 0 18 12Zm-.25-9C19.55 3 21 4.46 21 6.25V7H3v-.75C3 4.45 4.46 3 6.25 3h11.5Z"/></svg>