<svg width="32" height="32" viewBox="0 0 32 32" xmlns="http://www.w3.org/2000/svg"><path d="M7.5 3A4.5 4.5 0 0 0 3 7.5v17A4.5 4.5 0 0 0 7.5 29h9.47a9.87 9.87 0 0 1-1.42-2H7.5A2.5 2.5 0 0 1 5 24.5V11h22v4.82c.65.24 1.32.43 2 .57V7.5A4.5 4.5 0 0 0 24.5 3h-17ZM29 17.91l.57.1a.5.5 0 0 1 .43.49v4.03c0 3.9-2.3 6.73-6.82 8.47a.5.5 0 0 1-.36 0 13.96 13.96 0 0 1-3.65-2A7.86 7.86 0 0 1 16 22.53V18.5a.5.5 0 0 1 .43-.5 15.05 15.05 0 0 0 6.3-2.42.5.5 0 0 1 .55 0A15.3 15.3 0 0 0 29 17.91ZM5 7.5A2.5 2.5 0 0 1 7.5 5h17A2.5 2.5 0 0 1 27 7.5V9H5V7.5Z"/></svg>