<svg width="28" height="28" viewBox="0 0 28 28" xmlns="http://www.w3.org/2000/svg"><path d="M21.75 3C23.55 3 25 4.46 25 6.25v8.9c-.5-.22-1-.57-1.48-1.06l-.02-.02V9.5h-19v12.25c0 .97.78 1.75 1.75 1.75h9.83c.2.53.43 1.03.73 1.5H6.25A3.25 3.25 0 0 1 3 21.75V6.25C3 4.45 4.46 3 6.25 3h15.5Zm1.75 13.02a5.62 5.62 0 0 0 3.1.98c.28 0 .5.22.5.5v3c0 3.22-1.64 5.4-4.84 6.47a.5.5 0 0 1-.32 0c-3.2-1.06-4.84-3.25-4.84-6.47v-3c0-.28.22-.5.5-.5 1.53 0 2.9-.61 4.15-1.85.2-.2.5-.2.7 0 .34.34.7.63 1.05.87ZM21.75 4.5H6.25c-.97 0-1.75.78-1.75 1.75V8h19V6.25c0-.97-.78-1.75-1.75-1.75Z"/></svg>