<svg width="20" height="20" viewBox="0 0 20 20" xmlns="http://www.w3.org/2000/svg"><path d="M17 6.5c0-.3-.19-.58-.47-.7l-7.5-3a.75.75 0 0 0-.56 1.4l2.03.8v3l-2.03.8a.75.75 0 1 0 .56 1.4l7.5-3a.75.75 0 0 0 .47-.7Zm-2.77 0L12 7.4V5.6l2.23.9ZM5 3.75a.75.75 0 0 1 1.5 0v10.69l.72-.72a.75.75 0 1 1 1.06 1.06l-2 2c-.3.3-.77.3-1.06 0l-2-2a.75.75 0 0 1 1.06-1.06l.72.72V3.75Zm8 7a.75.75 0 0 1 1.5 0v3.69l.72-.72a.75.75 0 1 1 1.06 1.06l-2 2a.75.75 0 0 1-1.06 0l-2-2a.75.75 0 0 1 1.06-1.06l.72.72v-3.69Z"/></svg>