<svg width="20" height="20" viewBox="0 0 20 20" xmlns="http://www.w3.org/2000/svg"><path d="M11 1a8 8 0 1 1-.59 15.98c.16-.31.29-.64.38-.98H11a7 7 0 1 0-7-6.8c-.34.1-.67.23-.98.39L3 9a8 8 0 0 1 8-8Zm-.5 3a.5.5 0 0 1 .5.41V9h2.5a.5.5 0 0 1 .09 1H10.5a.5.5 0 0 1-.5-.41V4.5c0-.28.22-.5.5-.5ZM10 14.5a4.5 4.5 0 1 1-9 0 4.5 4.5 0 0 1 9 0Zm-2.65-1.15a.5.5 0 0 0-.7-.7L5.5 13.79l-1.15-1.14a.5.5 0 0 0-.7.7l1.14 1.15-1.14 1.15a.5.5 0 0 0 .7.7l1.15-1.14 1.15 1.14a.5.5 0 0 0 .7-.7L6.21 14.5l1.14-1.15Z"/></svg>