<svg width="16" height="16" viewBox="0 0 16 16" xmlns="http://www.w3.org/2000/svg"><path d="M8.35 2.15a.5.5 0 0 0-.7 0A5.72 5.72 0 0 1 3.5 4a.5.5 0 0 0-.5.5v3c0 3.22 1.64 5.4 4.84 6.47.1.04.22.04.32 0C11.36 12.91 13 10.72 13 7.5v-3a.5.5 0 0 0-.5-.5c-1.53 0-2.9-.61-4.15-1.85ZM8 5.5c-.16 0-.3.36-.39.91-.05.31-.08.68-.1 1.09h.98c-.02-.4-.05-.78-.1-1.09-.1-.55-.23-.91-.39-.91Zm-1.33.54A9.5 9.5 0 0 0 6.5 7.5h-.96A2.5 2.5 0 0 1 6.7 5.86a5.2 5.2 0 0 0-.03.18Zm.03 4.1A2.5 2.5 0 0 1 5.55 8.5h.96a9.5 9.5 0 0 0 .2 1.64Zm1.69-.55c.05-.31.08-.68.1-1.09h-.98c.02.4.05.78.1 1.09.1.55.23.91.39.91s.3-.36.39-.91Zm.94.37c.09-.4.14-.91.16-1.46h.96a2.5 2.5 0 0 1-1.15 1.64l.03-.18Zm-.03-4.1a2.5 2.5 0 0 1 1.15 1.64h-.96a9.5 9.5 0 0 0-.2-1.64ZM8 11.5a3.5 3.5 0 1 1 0-7 3.5 3.5 0 0 1 0 7Z"/></svg>