<svg width="24" height="24" viewBox="0 0 24 24" xmlns="http://www.w3.org/2000/svg"><path d="M6.75 7.5a.75.75 0 000 1.5h3.5a.75.75 0 000-1.5h-3.5zM6 11.25c0-.41.34-.75.75-.75h6.5a.75.75 0 010 1.5h-6.5a.75.75 0 01-.75-.75zm.75 2.25a.75.75 0 000 1.5h4.5a.75.75 0 000-1.5h-4.5zM5.25 4h11.5a3.25 3.25 0 013.24 3.07l.01.18v8.5a3.25 3.25 0 01-3.07 3.24l-.18.01H5.25a3.25 3.25 0 01-3.24-3.07L2 15.75v-8.5a3.25 3.25 0 013.07-3.24L5.25 4zM3.5 7.2v8.55c0 .92.7 1.67 1.6 1.74l.15.01h11.5c.92 0 1.67-.7 1.74-1.6l.01-.15V7.2c-.03-.94-.8-1.7-1.75-1.7H5.25c-.92 0-1.67.7-1.74 1.6v.1H3.5zm17.5.31c.9.58 1.5 1.59 1.5 2.74v6c0 2.9-2.35 5.25-5.25 5.25h-9c-1.15 0-2.16-.6-2.74-1.5h11.74A3.75 3.75 0 0021 16.25V7.51z"/></svg>