<svg width="48" height="48" viewBox="0 0 48 48" xmlns="http://www.w3.org/2000/svg"><path d="M35.75 6C39.2 6 42 8.8 42 12.25v23.5C42 39.2 39.2 42 35.75 42h-23.5A6.25 6.25 0 0 1 6 35.75v-23.5C6 8.8 8.8 6 12.25 6h23.5ZM8.5 19.5v9H17v-9H8.5Zm0 11.5v4.75a3.75 3.75 0 0 0 3.75 3.75H17V31H8.5Zm11 8.5h9V31h-9v8.5Zm11.5 0h4.75a3.75 3.75 0 0 0 3.75-3.75V31H31v8.5Zm8.5-11v-9H31v9h8.5Zm0-11.5v-4.75a3.75 3.75 0 0 0-3.75-3.75H31V17h8.5Zm-11-8.5h-9V17h9V8.5ZM17 8.5h-4.75a3.75 3.75 0 0 0-3.75 3.75V17H17V8.5Zm11.5 20v-9h-9v9h9Z"/></svg>