<svg width="20" height="20" viewBox="0 0 20 20" xmlns="http://www.w3.org/2000/svg"><path d="M3.5 4.5c-.1 0-.2 0-.3.02A2.5 2.5 0 0 1 5.5 3h9A2.5 2.5 0 0 1 17 5.5v4.1c-.32-.16-.65-.3-1-.4V5.5c0-.83-.67-1.5-1.5-1.5h-9c-.51 0-.97.26-1.24.65a2 2 0 0 0-.76-.15ZM9.2 16c.1.35.24.68.4 1H5.5A2.5 2.5 0 0 1 3 14.5V8.44a2 2 0 0 0 1 0v6.06c0 .83.67 1.5 1.5 1.5h3.7Zm.4-4c.18-.36.4-.7.66-1H7.5a.5.5 0 0 0 0 1h2.1ZM3.5 5.5a1 1 0 0 0-1 1 1 1 0 1 0 1-1Zm4 2.5a.5.5 0 0 0 0 1h5a.5.5 0 0 0 0-1h-5ZM19 14.5a4.5 4.5 0 1 1-9 0 4.5 4.5 0 0 1 9 0Zm-4-2a.5.5 0 0 0-1 0V14h-1.5a.5.5 0 0 0 0 1H14v1.5a.5.5 0 0 0 1 0V15h1.5a.5.5 0 0 0 0-1H15v-1.5Z"/></svg>