<svg width="24" height="24" viewBox="0 0 24 24" xmlns="http://www.w3.org/2000/svg"><path d="M7 3.5c-1.9 0-3.5 1.64-3.5 3.75 0 1.08.42 2.03 1.08 2.7.25.26.42.58.42.94C5 11.5 4.5 12 3.89 12H2.75a.75.75 0 0 1 0-1.5h.32A5.41 5.41 0 0 1 2 7.25C2 4.39 4.2 2 7 2s5 2.4 5 5.25c0 1.22-.4 2.35-1.07 3.25h.32a.75.75 0 0 1 0 1.5h-1.14C9.5 12 9 11.5 9 10.89c0-.36.17-.68.42-.93a3.85 3.85 0 0 0 1.08-2.71C10.5 5.14 8.9 3.5 7 3.5Zm.69 9.95a.75.75 0 0 0-1.38 0l-3.25 7.5a.75.75 0 1 0 1.38.6L5.1 20h3.78l.67 1.55a.75.75 0 1 0 1.38-.6l-3.25-7.5Zm.55 5.05H5.76L7 15.64l1.24 2.86ZM17.25 2c.41 0 .75.34.75.75v16.69l2.22-2.22a.75.75 0 1 1 1.06 1.06l-3.5 3.5c-.3.3-.77.3-1.06 0l-3.5-3.5a.75.75 0 1 1 1.06-1.06l2.22 2.22V2.75c0-.41.34-.75.75-.75Z"/></svg>