<svg width="20" height="20" viewBox="0 0 20 20" xmlns="http://www.w3.org/2000/svg"><path d="M3 6.13A3.06 3.06 0 0 1 6 3c1.64 0 3 1.38 3 3.13 0 1.22-.68 2.27-1.65 2.79-.2.1-.35.3-.35.53 0 .3.24.55.55.55H9.5a.5.5 0 0 0 0-1h-.63A4.19 4.19 0 0 0 10 6.12 4.06 4.06 0 0 0 6 2C3.77 2 2 3.86 2 6.13c0 1.1.43 2.12 1.13 2.87H2.5a.5.5 0 0 0 0 1h1.95c.3 0 .55-.24.55-.55a.62.62 0 0 0-.35-.53A3.14 3.14 0 0 1 3 6.12ZM15 2.5a.5.5 0 0 0-1 0v13.8l-2.15-2.15a.5.5 0 0 0-.7.7l3 3c.2.2.5.2.7 0l3-3a.5.5 0 0 0-.7-.7L15 16.29V2.5Zm-8.54 8.8a.5.5 0 0 0-.92 0l-2.5 6a.5.5 0 1 0 .92.4l.5-1.2a.5.5 0 0 0 .04 0h3a.5.5 0 0 0 .04 0l.5 1.2a.5.5 0 0 0 .92-.4l-2.5-6Zm.67 4.2H4.88L6 12.8l1.13 2.7Z"/></svg>