<svg width="20" height="20" viewBox="0 0 20 20" xmlns="http://www.w3.org/2000/svg"><path d="M14 2H6a2 2 0 0 0-2 2v12c0 1.1.9 2 2 2h4.26a5.5 5.5 0 0 1-.66-1H6a1 1 0 0 1-1-1V4a1 1 0 0 1 1-1h8a1 1 0 0 1 1 1v5.02c.34.03.68.1 1 .19V4a2 2 0 0 0-2-2Zm-1 4.5a.5.5 0 0 1-.41.5H7.5a.5.5 0 0 1-.09-1h5.09c.28 0 .5.22.5.5ZM14.5 19a4.5 4.5 0 1 0 0-9 4.5 4.5 0 0 0 0 9Zm0-7c.28 0 .5.22.5.5V14h1.5a.5.5 0 0 1 0 1H15v1.5a.5.5 0 0 1-1 0V15h-1.5a.5.5 0 0 1 0-1H14v-1.5c0-.28.22-.5.5-.5Zm-7-2h3.84c-.4.28-.77.62-1.08 1H7.5a.5.5 0 0 1 0-1Z"/></svg>