<svg width="24" height="24" viewBox="0 0 24 24" xmlns="http://www.w3.org/2000/svg"><path d="M4 4.25C4 3.01 5 2 6.25 2h11.5C18.99 2 20 3 20 4.25v7.25c-.47-.2-.98-.34-1.5-.42V4.25a.75.75 0 0 0-.75-.75H6.25a.75.75 0 0 0-.75.75v15.5c0 .41.34.75.75.75h5.48c.29.55.65 1.06 1.08 1.5H6.25C5.01 22 4 21 4 19.75V4.25ZM16.25 11c.11 0 .22.02.31.07a6.47 6.47 0 0 0-3.21 1.43h-5.6a.75.75 0 0 1 0-1.5h8.5Zm-8.5-4.5a.75.75 0 0 0 0 1.5h8.5a.75.75 0 0 0 0-1.5h-8.5ZM23 17.5a5.5 5.5 0 1 0-11 0 5.5 5.5 0 0 0 11 0Zm-5 .5v2.5a.5.5 0 1 1-1 0V18h-2.5a.5.5 0 0 1 0-1H17v-2.5a.5.5 0 1 1 1 0V17h2.5a.5.5 0 0 1 0 1H18Z"/></svg>