<svg width="28" height="28" viewBox="0 0 28 28" xmlns="http://www.w3.org/2000/svg"><path d="M13 2a4.5 4.5 0 0 0-4.5 4.5v8a4.5 4.5 0 0 0 4.65 4.5 7.51 7.51 0 0 1 4.35-5.38V6.5A4.5 4.5 0 0 0 13 2Zm0 19h.02c.06.99.32 1.93.73 2.77v1.48a.75.75 0 0 1-1.5 0v-2.78A8 8 0 0 1 5 14.5v-.75a.75.75 0 0 1 1.5 0v.75A6.5 6.5 0 0 0 13 21Zm14-.5a6.5 6.5 0 1 0-13 0 6.5 6.5 0 0 0 13 0Zm-8-3c.23 0 .42.15.48.36l1.07 3.58.98-2.62a.5.5 0 0 1 .92-.04l.86 1.74h1.19a.5.5 0 1 1 0 1H23a.5.5 0 0 1-.45-.28l-.49-.99-1.1 2.93a.5.5 0 0 1-.94-.04l-1.05-3.5-.52 1.54a.5.5 0 0 1-.47.34H16.5a.5.5 0 0 1 0-1h1.12l.9-2.68a.5.5 0 0 1 .49-.34Z"/></svg>