<svg width="28" height="28" viewBox="0 0 28 28" xmlns="http://www.w3.org/2000/svg"><path d="M13 2a4.5 4.5 0 00-4.5 4.5v8a4.5 4.5 0 004.65 4.5c.11-.55.28-1.08.5-1.57A3 3 0 0110 14.5v-8a3 3 0 116 0v8c.46-.35.96-.64 1.5-.88V6.5A4.5 4.5 0 0013 2zm0 19h.02c.06.99.32 1.93.73 2.77v1.48a.75.75 0 01-1.5 0v-2.78A8 8 0 015 14.5v-.75a.75.75 0 011.5 0v.75A6.5 6.5 0 0013 21zm14-.5a6.5 6.5 0 11-13 0 6.5 6.5 0 0113 0zm-8-3a.5.5 0 00-.47.34l-.9 2.68H16.5a.5.5 0 100 1h1.48a.5.5 0 00.47-.34l.52-1.53 1.05 3.5a.5.5 0 00.95.03l1.1-2.93.48.99a.5.5 0 00.45.28h1.5a.5.5 0 000-1h-1.19l-.86-1.74a.5.5 0 00-.92.04l-.98 2.62-1.07-3.58a.5.5 0 00-.47-.36z"/></svg>