<svg width="24" height="24" viewBox="0 0 24 24" xmlns="http://www.w3.org/2000/svg"><path d="M11 17.5c0 1.1.27 2.13.75 3.03v.72a.75.75 0 01-1.5.1v-2.37A6.75 6.75 0 014 12.48v-.73a.75.75 0 011.5-.1v.6a5.25 5.25 0 005.03 5.25H11zm.17-1.5A6.51 6.51 0 0115 11.5V6a4 4 0 00-8 0v6a4 4 0 004.17 4zM23 17.5a5.5 5.5 0 10-11 0 5.5 5.5 0 0011 0zm-6.99-3c.21 0 .4.14.46.34L17.53 18l1-2.68a.5.5 0 01.92-.04L20.3 17H21a.5.5 0 010 1h-1a.5.5 0 01-.45-.28l-.48-.97-1.1 2.93a.5.5 0 01-.94-.02l-1.07-3.2-.5 1.23A.5.5 0 0115 18h-1a.5.5 0 010-1h.66l.88-2.19a.5.5 0 01.47-.31z"/></svg>