<svg width="16" height="16" viewBox="0 0 16 16" xmlns="http://www.w3.org/2000/svg"><path d="M4 4.5a2.5 2.5 0 015 0v.7c-.35.1-.68.24-1 .4V4.5a1.5 1.5 0 10-3 0V8c0 .31.1.6.26.84-.12.37-.2.77-.24 1.18A2.5 2.5 0 014 8V4.5zm1.32 7.84a5.47 5.47 0 01-.28-1.16A3.5 3.5 0 013 8a.5.5 0 00-1 0 4.5 4.5 0 003.32 4.34zM15 10.5a4.5 4.5 0 11-9 0 4.5 4.5 0 019 0zm-5.56-2a.5.5 0 00-.47.3l-.59 1.37H8a.5.5 0 100 1h.71a.5.5 0 00.46-.3l.22-.5.64 1.8a.5.5 0 00.93.02l.68-1.68.2.4a.5.5 0 00.45.26H13a.5.5 0 000-1h-.41L12 9.1a.5.5 0 00-.9.05l-.58 1.44-.63-1.76a.5.5 0 00-.46-.33z"/></svg>