<svg width="48" height="48" viewBox="0 0 48 48" xmlns="http://www.w3.org/2000/svg"><path d="M22 4a8 8 0 00-8 8v12a8 8 0 008.35 8A13.03 13.03 0 0130 23V12a8 8 0 00-8-8zm0 31.25c.03 1.68.39 3.29 1 4.76v2.74a1.25 1.25 0 11-2.5 0v-5.08A14 14 0 018 23.75a1.25 1.25 0 112.5 0A11.5 11.5 0 0022 35.25zM46 35a11 11 0 11-22 0 11 11 0 0122 0zm-13.98-6a1 1 0 00-.95.64l-1.7 4.4H28a1 1 0 100 2h2.04a1 1 0 00.94-.64l.97-2.51 2.6 7.44a1 1 0 001.89.02l2.2-5.85.47.95a1 1 0 00.87.55l2 .03a1 1 0 10.04-2l-1.4-.02-1.23-2.46a1 1 0 00-1.83.1l-2.03 5.42-2.59-7.4a1 1 0 00-.92-.67z"/></svg>