<svg width="32" height="32" viewBox="0 0 32 32" xmlns="http://www.w3.org/2000/svg"><path d="M15 2a6 6 0 00-6 6v8a6 6 0 005.06 5.93c.08-.68.24-1.34.46-1.96A4 4 0 0111 16V8a4 4 0 018 0v6.94c.63-.32 1.3-.56 2-.72V8a6 6 0 00-6-6zM7 16a8 8 0 007.05 7.94c.18 1.78.89 3.4 1.95 4.72V29a1 1 0 11-2 0v-3-.05A10 10 0 015 16a1 1 0 112 0zm16 14.5a7.5 7.5 0 100-15 7.5 7.5 0 000 15zm-1.59-11.25c.32 0 .6.2.7.5l1.39 3.98 1.04-2.98a.75.75 0 011.41-.01l.57 1.53h.73a.75.75 0 010 1.5H26c-.31 0-.6-.2-.7-.49l-.03-.07-1.06 3.04a.75.75 0 01-1.42 0l-1.43-4.08-.43 1.12a.75.75 0 01-.7.48h-1.48a.75.75 0 010-1.5h.96l1-2.54c.1-.3.39-.49.7-.48z"/></svg>