<svg width="48" height="48" viewBox="0 0 48 48" xmlns="http://www.w3.org/2000/svg"><path d="M14 12a8 8 0 1116 0v11c-.9.37-1.73.84-2.51 1.39l.01-.39V12a5.5 5.5 0 10-11 0v12a5.5 5.5 0 006.79 5.35c-.4.83-.72 1.72-.94 2.64L22 32a8 8 0 01-8-8V12zm9 28a12.95 12.95 0 01-1-4.75 11.5 11.5 0 01-11.5-11.5 1.25 1.25 0 10-2.5 0 14 14 0 0012.5 13.92v5.08a1.25 1.25 0 102.5 0v-2.74zm23-5a11 11 0 11-22 0 11 11 0 0122 0zm-13.98-6a1 1 0 00-.95.64l-1.7 4.4H28a1 1 0 100 2h2.04a1 1 0 00.94-.64l.97-2.51 2.6 7.44a1 1 0 001.89.02l2.2-5.85.47.95a1 1 0 00.87.55l2 .03a1 1 0 10.04-2l-1.4-.02-1.23-2.46a1 1 0 00-1.83.1l-2.03 5.42-2.59-7.4a1 1 0 00-.92-.67z"/></svg>