<svg width="24" height="24" viewBox="0 0 24 24" xmlns="http://www.w3.org/2000/svg"><path d="m12.23 5.64.91 1.86 2.05.29c.2.03.29.29.14.44l-1.48 1.44.35 2.03c.03.21-.19.37-.37.27L12 11.01l-1.83.96a.25.25 0 0 1-.37-.27l.35-2.03-1.48-1.44a.26.26 0 0 1 .14-.44l2.05-.3.91-1.85c.1-.19.37-.19.46 0ZM19 9a7 7 0 1 0-12 4.9V21.35c.08.55.71.84 1.18.51L12 19.18l3.82 2.68.09.06a.75.75 0 0 0 1.09-.67V13.9c1.24-1.26 2-3 2-4.9Zm-3.5 6.06v4.75l-3.07-2.16-.1-.06a.75.75 0 0 0-.76.06L8.5 19.8v-4.74a6.97 6.97 0 0 0 7 0ZM6.5 9a5.5 5.5 0 1 1 11 0 5.5 5.5 0 0 1-11 0Z"/></svg>