<svg width="20" height="20" viewBox="0 0 20 20" xmlns="http://www.w3.org/2000/svg"><path d="M17.25 5a.75.75 0 0 1 0 1.5H2.75a.75.75 0 0 1 0-1.5h14.5Zm0 3a.75.75 0 0 1 0 1.5h-.46a5.48 5.48 0 0 0-4.58 0H2.75a.75.75 0 0 1 0-1.5h14.5Zm-14.5 7.5h6.34a5.53 5.53 0 0 1-.07-1.5H2.75a.75.75 0 0 0 0 1.5Zm0-3h6.62a5.5 5.5 0 0 1 .89-1.5H2.75a.75.75 0 0 0 0 1.5Zm7.25 2a4.5 4.5 0 1 0 9 0 4.5 4.5 0 0 0-9 0Zm4.15-2.35a.5.5 0 0 1 .7.7L13.71 14h2.79a.5.5 0 0 1 0 1h-2.8l1.15 1.15a.5.5 0 0 1-.7.7l-2-2a.5.5 0 0 1-.15-.35.5.5 0 0 1 .14-.35l2-2Z"/></svg>