<svg width="24" height="24" viewBox="0 0 24 24" xmlns="http://www.w3.org/2000/svg"><path d="M17.5 12a5.5 5.5 0 1 1 0 11 5.5 5.5 0 0 1 0-11Zm-.78 2.59-.07.06-2.52 2.51-.04.05-.04.08-.02.06-.02.08v.11l.01.09.03.08.03.06.05.07 2.52 2.51a.5.5 0 0 0 .76-.63l-.05-.07L15.7 18h4.79a.5.5 0 0 0 .5-.41v-.09a.5.5 0 0 0-.41-.5h-4.88l1.65-1.65a.5.5 0 0 0 .05-.63l-.05-.07a.5.5 0 0 0-.64-.06ZM11.02 17H2.65a.75.75 0 0 0 .1 1.5h8.33a6.55 6.55 0 0 1-.06-1.5Zm.71-2.5H2.75a.75.75 0 0 1-.1-1.5H12.8c-.43.44-.8.95-1.08 1.5ZM21.25 9H2.65a.75.75 0 0 0 .1 1.5h18.6a.75.75 0 0 0-.1-1.5Zm0-4H2.65a.75.75 0 0 0 .1 1.5h18.6a.75.75 0 0 0-.1-1.5Z"/></svg>