<svg width="32" height="32" viewBox="0 0 32 32" xmlns="http://www.w3.org/2000/svg"><path d="M24.8 2.95a3.25 3.25 0 00-4.59 0L17 6.17A3.25 3.25 0 0013.75 3h-7.5A3.25 3.25 0 003 6.25v19.5C3 27.55 4.46 29 6.25 29h19.5c1.8 0 3.25-1.46 3.25-3.25v-7.5c0-1.76-1.4-3.2-3.16-3.25l3.21-3.2a3.25 3.25 0 000-4.6l-4.24-4.25zM17 12.82L19.18 15H17v-2.18zM15 15H5V6.25C5 5.56 5.56 5 6.25 5h7.5c.69 0 1.25.56 1.25 1.25V15zM5 17h10v10H6.25C5.56 27 5 26.44 5 25.75V17zm12 10V17h8.75c.69 0 1.25.56 1.25 1.25v7.5c0 .69-.56 1.25-1.25 1.25H17z"/></svg>