<svg width="24" height="24" viewBox="0 0 24 24" xmlns="http://www.w3.org/2000/svg"><path d="M6.25 3A3.25 3.25 0 003 6.25v11.5C3 19.55 4.46 21 6.25 21h4.8c.09-.48.32-.94.69-1.31l.19-.19H6.25c-.97 0-1.75-.78-1.75-1.75V8.5h15v2.53l.51.09c.47.1.82.4.99.79V6.25C21 4.45 19.54 3 17.75 3H6.25zm13.88 9.51a.41.41 0 00-.33-.42 4.06 4.06 0 00-3.75 1.1 4.07 4.07 0 00-.87 4.47l-2.73 2.73a1.52 1.52 0 000 2.16c.6.6 1.56.6 2.16 0l2.73-2.73a4.07 4.07 0 005.57-4.62c-.08-.35-.51-.44-.77-.18l-1.9 1.9a1.53 1.53 0 01-.74.4 1.53 1.53 0 01-1.42-2.56l1.9-1.9a.5.5 0 00.15-.35zM17.72 21l-.12-.03-.03.03h.15z"/></svg>