<svg width="28" height="28" viewBox="0 0 28 28" xmlns="http://www.w3.org/2000/svg"><path d="M6.75 3A3.75 3.75 0 003 6.75v14.5A3.75 3.75 0 006.75 25H13a3 3 0 01.4-1.5H6.75c-1.24 0-2.25-1-2.25-2.25V9.5h19v3.6l.05.02c.43.1 1.19.73 1.4 1.38H25V6.75A3.75 3.75 0 0021.25 3H6.75zM23.5 8h-19V6.75c0-1.24 1-2.25 2.25-2.25h14.5c1.24 0 2.25 1 2.25 2.25V8zm-8.91 15.58a2 2 0 000 2.83 2 2 0 002.82 0l3.65-3.64a4.5 4.5 0 005.9-4.92c-.06-.37-.5-.48-.76-.22l-1.79 1.78a2 2 0 11-2.82-2.82l1.78-1.79c.26-.26.15-.7-.22-.75a4.5 4.5 0 00-4.92 5.89l-3.64 3.64z"/></svg>