<svg width="48" height="48" viewBox="0 0 48 48" xmlns="http://www.w3.org/2000/svg"><path d="M6 12.25C6 8.8 8.8 6 12.25 6h23.5C39.2 6 42 8.8 42 12.25v11.43a2.35 2.35 0 00-1.7-1.41 9.96 9.96 0 00-.8-.16V16.5h-31v19.25a3.75 3.75 0 003.75 3.75h10.64c-.5.76-.79 1.62-.87 2.5h-9.77A6.25 6.25 0 016 35.75v-23.5zm33.5 0a3.75 3.75 0 00-3.75-3.75h-23.5a3.75 3.75 0 00-3.75 3.75V14h31v-1.75zm.35 11.96c.35.09.46.53.2.79l-3.52 3.53a3.5 3.5 0 004.94 4.94L45 29.95c.26-.26.7-.16.79.2a8.02 8.02 0 01-10.4 9.41l-5.42 5.41a3.5 3.5 0 01-4.94-4.94l5.4-5.42a7.99 7.99 0 019.42-10.4z"/></svg>