<svg width="32" height="32" viewBox="0 0 32 32" xmlns="http://www.w3.org/2000/svg"><path d="M3 7.5A4.5 4.5 0 017.5 3h17A4.5 4.5 0 0129 7.5V17c0-1.55-1.25-2.16-1.93-2.29l-.07-.02V11H5v13.5A2.5 2.5 0 007.5 27h7.42a4.01 4.01 0 00-.26 2H7.5A4.5 4.5 0 013 24.5v-17zM7.5 5A2.5 2.5 0 005 7.5V9h22V7.5A2.5 2.5 0 0024.5 5h-17zm8.68 24a2.5 2.5 0 01.68-2.27l3.44-3.43a5.5 5.5 0 016.1-7.23c.37.07.48.51.22.77l-1.89 1.9a2.5 2.5 0 003.54 3.53l1.89-1.89c.26-.26.7-.15.77.22a5.5 5.5 0 01-7.02 6.17l-3.5 3.5A2.5 2.5 0 0116.17 29z"/></svg>