<svg width="24" height="24" viewBox="0 0 24 24" xmlns="http://www.w3.org/2000/svg"><path d="M3 6.25C3 4.45 4.46 3 6.25 3h11.5C19.55 3 21 4.46 21 6.25v5.66a1.4 1.4 0 00-.99-.8 5.08 5.08 0 00-.51-.08V8.5h-15v9.25c0 .97.78 1.75 1.75 1.75h5.68l-.19.19c-.37.37-.6.83-.7 1.31H6.25A3.25 3.25 0 013 17.75V6.25zm16.5 0c0-.97-.78-1.75-1.75-1.75H6.25c-.97 0-1.75.78-1.75 1.75V7h15v-.75zM12.07 21c.08-.22.2-.43.38-.6l2.73-2.74a4.07 4.07 0 014.62-5.57c.21.05.33.23.33.42a.5.5 0 01-.15.35l-1.9 1.9a1.53 1.53 0 002.16 2.16l1.9-1.9c.26-.26.69-.17.77.18a4.07 4.07 0 01-5.57 4.62l-2.73 2.73A1.53 1.53 0 0112.07 21zm5.5 0h.15l-.12-.03-.03.03z"/></svg>