<svg width="16" height="16" viewBox="0 0 16 16" xmlns="http://www.w3.org/2000/svg"><path d="M2 4.5A2.5 2.5 0 014.5 2h7A2.5 2.5 0 0114 4.5v1.12a1.38 1.38 0 00-1-.59 4.53 4.53 0 00-.52-.03H13v-.5c0-.83-.67-1.5-1.5-1.5h-7C3.67 3 3 3.67 3 4.5V5h9.48c-1 0-2 .33-2.83 1H3v5.5c0 .83.67 1.5 1.5 1.5h1c-.23.3-.38.65-.45 1H4.5A2.5 2.5 0 012 11.5v-7zm11.24 1.86a.39.39 0 00-.35-.34 3.51 3.51 0 00-3.72 4.68l-2.73 2.73a1.5 1.5 0 000 2.13 1.5 1.5 0 002.13 0l2.73-2.73a3.52 3.52 0 004.68-3.72c-.05-.37-.48-.47-.75-.21l-.97.97a1.5 1.5 0 11-2.13-2.13l.97-.97a.49.49 0 00.14-.4z"/></svg>