<svg width="16" height="16" viewBox="0 0 16 16" xmlns="http://www.w3.org/2000/svg"><path d="M6.55 4.33C6.41 3.93 6.75 3 8 3c.63 0 1.02.2 1.25.39a1.42 1.42 0 01.3.34.5.5 0 00.9-.45v-.02l-.02-.01a1.43 1.43 0 00-.13-.2c-.1-.13-.23-.29-.43-.44C9.48 2.29 8.87 2 8 2 6.24 2 5.17 3.46 5.6 4.67c.2.51.53.88.9 1.18.32.25.7.47 1.04.66l.12.07c.79.46 1.44.88 1.75 1.7.19.48.1.9-.15 1.2-.26.3-.74.55-1.43.55-.85 0-1.3-.32-1.54-.6A1.56 1.56 0 016 8.9.5.5 0 005 9.1v.01l.01.02a1.61 1.61 0 00.1.3c.08.18.21.42.42.65.43.5 1.15.94 2.3.94.91 0 1.7-.33 2.19-.91.49-.6.62-1.4.32-2.2-.45-1.18-1.41-1.76-2.2-2.2l-.11-.07c-.36-.2-.66-.38-.92-.59a1.64 1.64 0 01-.57-.73zM4.5 13a.5.5 0 000 1h7a.5.5 0 000-1h-7z"/></svg>