<svg width="24" height="24" viewBox="0 0 24 24" xmlns="http://www.w3.org/2000/svg"><path d="M15.28 14.98a2 2 0 0 1-1.44 2.5l-.59.14a5.73 5.73 0 0 0 0 1.8l.55.13a2 2 0 0 1 1.45 2.51l-.19.64c.44.38.94.7 1.49.92l.49-.52a2 2 0 0 1 2.9 0l.5.52a5.28 5.28 0 0 0 1.48-.91l-.2-.69a2 2 0 0 1 1.44-2.5l.59-.14a5.72 5.72 0 0 0 0-1.8l-.55-.13a2 2 0 0 1-1.45-2.51l.19-.63c-.44-.39-.94-.7-1.49-.93l-.49.52a2 2 0 0 1-2.9 0l-.5-.52c-.54.22-1.04.53-1.48.9l.2.7ZM18.5 20c-.8 0-1.45-.67-1.45-1.5S17.7 17 18.5 17c.8 0 1.45.67 1.45 1.5S19.3 20 18.5 20ZM6.25 21h6.25a6.48 6.48 0 0 1-.32-4.02.76.76 0 0 1-.18.02h-.1a.75.75 0 0 1-.65-.75v-6.7l-2.72 2.73-.08.07a.75.75 0 0 1-.98-1.13l4-4 .08-.07c.3-.22.71-.2.98.07l4 4 .07.08c.22.3.2.71-.07.98l-.04.04a6.5 6.5 0 0 1 4.51.18V6.25C21 4.45 19.54 3 17.75 3H6.25A3.25 3.25 0 0 0 3 6.25v11.5C3 19.55 4.46 21 6.25 21Zm6.5-11.44v5.9A6.52 6.52 0 0 1 16 12.5a.75.75 0 0 1-.53-.22l-2.72-2.72Z"/></svg>