<svg width="24" height="24" viewBox="0 0 24 24" xmlns="http://www.w3.org/2000/svg"><path d="M15.28 14.98a2 2 0 0 1-1.44 2.5l-.59.14a5.73 5.73 0 0 0 0 1.8l.55.13a2 2 0 0 1 1.45 2.51l-.19.64c.44.38.94.7 1.49.92l.49-.52a2 2 0 0 1 2.9 0l.5.52a5.28 5.28 0 0 0 1.48-.91l-.2-.69a2 2 0 0 1 1.44-2.5l.59-.14a5.72 5.72 0 0 0 0-1.8l-.55-.13a2 2 0 0 1-1.45-2.51l.19-.63c-.44-.39-.94-.7-1.49-.93l-.49.52a2 2 0 0 1-2.9 0l-.5-.52c-.54.22-1.04.53-1.48.9l.2.7ZM18.5 20c-.8 0-1.45-.67-1.45-1.5S17.7 17 18.5 17c.8 0 1.45.67 1.45 1.5S19.3 20 18.5 20ZM6.25 21h6.25c-.2-.47-.34-.98-.42-1.5H6.25c-.97 0-1.75-.78-1.75-1.75V6.25c0-.97.78-1.75 1.75-1.75h11.5c.97 0 1.75.78 1.75 1.75v5.83c.52.08 1.03.22 1.5.42V6.25C21 4.45 19.54 3 17.75 3H6.25A3.25 3.25 0 0 0 3 6.25v11.5C3 19.55 4.46 21 6.25 21ZM12 17c.06 0 .12 0 .18-.02.13-.53.32-1.04.57-1.51V9.56l2.72 2.72c.15.15.34.22.53.22.16-.07.32-.13.49-.18l.04-.04a.75.75 0 0 0 .07-.98l-.07-.08-4-4a.75.75 0 0 0-.98-.07l-.08.07-4 4a.75.75 0 0 0 .98 1.13l.08-.07 2.72-2.72v6.69c0 .38.28.7.65.74l.1.01Z"/></svg>