<svg width="16" height="16" viewBox="0 0 16 16" xmlns="http://www.w3.org/2000/svg"><path d="M5.5 7a2.5 2.5 0 1 0 0-5 2.5 2.5 0 0 0 0 5Zm8-2a2 2 0 1 1-4 0 2 2 0 0 1 4 0ZM8 8c.83 0 1.5.67 1.5 1.5V9.59c0 .25-.19 2.91-4 2.91-4 0-4-2.93-4-2.93V9.5C1.5 8.67 2.17 8 3 8h5Zm4.58.58.29-.75a1.32 1.32 0 0 1 1.74-.73l.39.17c.47.2.86.57.94 1.06.46 2.73-1.9 6.6-4.63 7.59a1.6 1.6 0 0 1-1.44-.25l-.35-.23c-.6-.41-.7-1.24-.2-1.79l.54-.6c.26-.3.66-.42 1.04-.33l1.22.29c.97-.6 1.5-1.46 1.56-2.56l-.88-.86a.94.94 0 0 1-.22-1Z"/></svg>