<svg width="16" height="16" viewBox="0 0 16 16" xmlns="http://www.w3.org/2000/svg"><path d="M5.5 3a1.5 1.5 0 1 0 0 3 1.5 1.5 0 0 0 0-3ZM3 4.5a2.5 2.5 0 1 1 5 0 2.5 2.5 0 0 1-5 0Zm8.5-.5a1 1 0 1 0 0 2 1 1 0 0 0 0-2Zm-2 1a2 2 0 1 1 4 0 2 2 0 0 1-4 0ZM3 8c-.83 0-1.5.67-1.5 1.5v.11a1.39 1.39 0 0 0 .01.14c0 .08.03.2.06.34.07.27.2.64.46 1 .55.76 1.6 1.41 3.47 1.41 1.88 0 2.92-.65 3.47-1.4A2.85 2.85 0 0 0 9.5 9.6V9.5C9.5 8.67 8.83 8 8 8H3Zm-.5 1.6V9.5c0-.28.22-.5.5-.5h5c.28 0 .5.22.5.5v.15l-.04.2c-.04.18-.13.42-.3.65-.33.45-1.04 1-2.66 1s-2.33-.55-2.66-1a1.85 1.85 0 0 1-.34-.9Zm10.08-1.02.29-.75a1.32 1.32 0 0 1 1.74-.73l.39.17c.47.2.86.57.94 1.06.46 2.73-1.9 6.6-4.63 7.59a1.6 1.6 0 0 1-1.44-.25l-.35-.23c-.6-.41-.7-1.24-.2-1.79l.54-.6c.26-.3.66-.42 1.04-.33l1.22.29c.97-.6 1.5-1.46 1.56-2.56l-.88-.86a.94.94 0 0 1-.22-1Z"/></svg>