<svg width="20" height="20" viewBox="0 0 20 20" xmlns="http://www.w3.org/2000/svg"><path d="M6.75 2.5a3.25 3.25 0 1 0 0 6.5 3.25 3.25 0 0 0 0-6.5ZM1.5 12c0-1.1.9-2 2-2H10a2 2 0 0 1 2 2V12.08a1.43 1.43 0 0 1-.01.18 3.95 3.95 0 0 1-.67 1.8C10.62 15.09 9.26 16 6.75 16c-2.51 0-3.87-.92-4.57-1.93a3.95 3.95 0 0 1-.68-1.99V12Zm13-8a2.5 2.5 0 1 0 0 5 2.5 2.5 0 0 0 0-5Zm1.08 7.58.29-.75a1.32 1.32 0 0 1 1.74-.73l.39.17c.47.2.86.57.94 1.06.46 2.73-1.9 6.6-4.63 7.59a1.6 1.6 0 0 1-1.44-.25l-.35-.23c-.6-.41-.7-1.24-.2-1.79l.54-.6c.26-.3.66-.42 1.04-.33l1.22.29c.97-.6 1.5-1.46 1.56-2.56l-.88-.86a.94.94 0 0 1-.22-1Z"/></svg>