<svg width="24" height="24" viewBox="0 0 24 24" xmlns="http://www.w3.org/2000/svg"><path d="M8 11a4 4 0 1 0 0-8 4 4 0 0 0 0 8Zm9 0a3 3 0 1 0 0-6 3 3 0 0 0 0 6ZM4.25 13C3.01 13 2 14 2 15.25v.25S2 20 8 20s6-4.5 6-4.5v-.25c0-1.24-1-2.25-2.25-2.25h-7.5Zm13.94 1 .48-1.21c.24-.61.92-.93 1.55-.73l.43.14c.72.24 1.32.8 1.35 1.57.1 3.11-2.48 7.58-5.22 9.06-.67.36-1.46.12-2.03-.4l-.34-.3a1.25 1.25 0 0 1-.14-1.7l.8-1.02a1.2 1.2 0 0 1 1.22-.42l1.3.32a3.78 3.78 0 0 0 1.77-3.08l-.92-.96a1.2 1.2 0 0 1-.25-1.28Z"/></svg>