<svg width="24" height="24" viewBox="0 0 24 24" xmlns="http://www.w3.org/2000/svg"><path d="M5.5 7a2.5 2.5 0 1 1 5 0 2.5 2.5 0 0 1-5 0ZM8 3a4 4 0 1 0 0 8 4 4 0 0 0 0-8Zm7.5 5a1.5 1.5 0 1 1 3 0 1.5 1.5 0 0 1-3 0ZM17 5a3 3 0 1 0 0 6 3 3 0 0 0 0-6ZM4.25 13C3.01 13 2 14 2 15.25v.28a2.07 2.07 0 0 0 .01.2c.02.14.04.32.1.53.09.42.29.98.68 1.55C3.61 18.97 5.17 20 8 20s4.39-1.03 5.2-2.2a4.48 4.48 0 0 0 .8-2.27v-.28c0-1.24-1-2.25-2.25-2.25h-7.5Zm-.75 2.5v-.25c0-.41.34-.75.75-.75h7.5c.41 0 .75.34.75.75v.34l-.06.33c-.07.28-.2.65-.46 1.02-.5.71-1.56 1.56-3.98 1.56s-3.49-.85-3.98-1.56a2.99 2.99 0 0 1-.52-1.43ZM18.2 14l.47-1.21c.24-.61.92-.93 1.55-.73l.43.14c.72.24 1.32.8 1.35 1.57.1 3.11-2.48 7.58-5.22 9.06-.67.36-1.46.12-2.03-.4l-.34-.3a1.25 1.25 0 0 1-.14-1.7l.8-1.02a1.2 1.2 0 0 1 1.22-.42l1.3.32a3.78 3.78 0 0 0 1.77-3.08l-.92-.96a1.2 1.2 0 0 1-.25-1.28Z"/></svg>