<svg width="16" height="16" viewBox="0 0 16 16" xmlns="http://www.w3.org/2000/svg"><path d="M5.5 3a1.5 1.5 0 1 0 0 3 1.5 1.5 0 0 0 0-3ZM3 4.5a2.5 2.5 0 1 1 5 0 2.5 2.5 0 0 1-5 0Zm8.5-.5a1 1 0 1 0 0 2 1 1 0 0 0 0-2Zm-2 1a2 2 0 1 1 3.18 1.62c-.1.04-.18.1-.26.16A2 2 0 0 1 9.5 5ZM3 8c-.83 0-1.5.67-1.5 1.5v.11a1.39 1.39 0 0 0 .01.14c0 .08.03.2.06.34.07.27.2.64.46 1 .55.76 1.6 1.41 3.47 1.41 1.88 0 2.92-.65 3.47-1.4A2.85 2.85 0 0 0 9.5 9.6V9.5C9.5 8.67 8.83 8 8 8H3Zm-.5 1.6V9.5c0-.28.22-.5.5-.5h5c.28 0 .5.22.5.5v.15l-.04.2c-.04.18-.13.42-.3.65-.33.45-1.04 1-2.66 1s-2.33-.55-2.66-1a1.85 1.85 0 0 1-.34-.9Zm8.7 2.64.86.3a3.29 3.29 0 0 0 1.25-2.02l.02-.17-.72-.68a.88.88 0 0 1-.22-.9l.03-.08.32-.76a.78.78 0 0 1 .88-.49l.08.02.4.13c.4.13.72.48.82.91.24 1.04-.05 2.3-.86 3.78-.8 1.48-1.69 2.37-2.65 2.67-.37.12-.77.03-1.07-.22l-.08-.08-.31-.3a.88.88 0 0 1-.15-1.04l.05-.07.47-.69a.79.79 0 0 1 .8-.33l.08.02Z"/></svg>