<svg width="32" height="32" viewBox="0 0 32 32" xmlns="http://www.w3.org/2000/svg"><path d="M10 11a4 4 0 1 0 0-8 4 4 0 0 0 0 8Zm-8 4.5A2.5 2.5 0 0 1 4.5 13h6.37a5.49 5.49 0 0 0 1.97 6.5H10.5a4 4 0 0 0-3.55 2.15 6.53 6.53 0 0 1-3.9-2.54C2 17.59 2 16.03 2 15.75v-.25Zm23.05 6.15a6.53 6.53 0 0 0 3.9-2.54C30 17.59 30 16.02 30 15.75v-.25a2.5 2.5 0 0 0-2.5-2.5h-6.37a5.49 5.49 0 0 1-1.97 6.5h2.34a4 4 0 0 1 3.55 2.15ZM26 7a4 4 0 1 1-8 0 4 4 0 0 1 8 0ZM8 23.5a2.5 2.5 0 0 1 2.5-2.5h11a2.5 2.5 0 0 1 2.5 2.5v.25c0 .27 0 1.84-1.05 3.36C21.85 28.69 19.75 30 16 30c-3.76 0-5.85-1.3-6.95-2.89C8 25.59 8 24.03 8 23.75v-.25Zm8-4.5a4 4 0 1 0 0-8 4 4 0 0 0 0 8Z"/></svg>