<svg width="32" height="32" viewBox="0 0 32 32" xmlns="http://www.w3.org/2000/svg"><path d="M8 7a2 2 0 1 1 4 0 2 2 0 0 1-4 0Zm2-4a4 4 0 1 0 0 8 4 4 0 0 0 0-8ZM4.5 13A2.5 2.5 0 0 0 2 15.5v.25c0 .27 0 1.84 1.05 3.36a6.53 6.53 0 0 0 3.9 2.54c.39-.74 1-1.34 1.74-1.72-2.33-.25-3.44-1.16-4-1.96A4 4 0 0 1 4 15.75v-.25c0-.28.22-.5.5-.5h6c0-.7.13-1.38.37-2H4.5Zm24.45 6.11a6.53 6.53 0 0 1-3.9 2.54c-.39-.74-1-1.34-1.74-1.72 2.33-.25 3.44-1.16 4-1.96a4 4 0 0 0 .69-2.22v-.25a.5.5 0 0 0-.5-.5h-6c0-.7-.13-1.38-.37-2h6.37a2.5 2.5 0 0 1 2.5 2.5v.25c0 .27 0 1.84-1.05 3.36ZM20 7a2 2 0 1 1 4 0 2 2 0 0 1-4 0Zm2-4a4 4 0 1 0 0 8 4 4 0 0 0 0-8Zm-6 10a2 2 0 1 0 0 4 2 2 0 0 0 0-4Zm-4 2a4 4 0 1 1 8 0 4 4 0 0 1-8 0Zm-4 8.5a2.5 2.5 0 0 1 2.5-2.5h11a2.5 2.5 0 0 1 2.5 2.5v.25c0 .27 0 1.84-1.05 3.36C21.85 28.69 19.75 30 16 30c-3.76 0-5.85-1.3-6.95-2.89C8 25.59 8 24.03 8 23.75v-.25Zm2.5-.5a.5.5 0 0 0-.5.5v.25a4 4 0 0 0 .7 2.22c.65.93 2.06 2.03 5.3 2.03 3.24 0 4.65-1.1 5.3-2.03a4 4 0 0 0 .7-2.22v-.25a.5.5 0 0 0-.5-.5h-11Z"/></svg>