<svg width="48" height="48" viewBox="0 0 48 48" xmlns="http://www.w3.org/2000/svg"><path d="M15 17a6 6 0 1 0 0-12 6 6 0 0 0 0 12Zm18 0a6 6 0 1 0 0-12 6 6 0 0 0 0 12ZM4 22.45C4 20.55 5.54 19 7.45 19h9.62a7.96 7.96 0 0 0 1.64 10h-2.26c-2.01 0-3.77 1.09-4.71 2.7-3.22-.63-5.18-2.2-6.32-3.96A9.18 9.18 0 0 1 4 22.88v-.43ZM31.55 29c2.01 0 3.77 1.09 4.71 2.7 3.22-.63 5.18-2.2 6.32-3.96C44 25.54 44 23.27 44 22.88v-.43c0-1.9-1.54-3.45-3.45-3.45h-9.62a7.96 7.96 0 0 1-1.64 10h2.26ZM30 23a6 6 0 1 1-12 0 6 6 0 0 1 12 0ZM13 34.45c0-1.9 1.54-3.45 3.45-3.45h15.1c1.9 0 3.45 1.54 3.45 3.45v.43c0 .4 0 2.66-1.42 4.86C32.1 42.04 29.23 44 24 44s-8.1-1.97-9.58-4.26C13 37.54 13 35.27 13 34.88v-.43Z"/></svg>