<svg width="16" height="16" viewBox="0 0 16 16" xmlns="http://www.w3.org/2000/svg"><path d="M3 3a2 2 0 1 1 4 0 2 2 0 0 1-4 0Zm6.78 1.58A2 2 0 0 0 11 5a2 2 0 1 0-1.22-.42ZM6.27 6a2 2 0 1 1 3.46 2 2 2 0 0 1-3.46-2ZM2.5 6h2.67a3 3 0 0 0 .6 3H5.5c-1.09 0-2 .7-2.35 1.66a3.73 3.73 0 0 1-.94-.55A3.25 3.25 0 0 1 1 7.5C1 6.67 1.67 6 2.5 6Zm8 3c1.09 0 2 .7 2.35 1.66.34-.14.66-.32.94-.55.75-.6 1.21-1.5 1.21-2.61 0-.83-.67-1.5-1.5-1.5h-2.67a3 3 0 0 1-.6 3h.27Zm1.39 1.93c.07.17.11.37.11.57 0 1.12-.46 2.01-1.21 2.61-.74.6-1.74.89-2.79.89a4.43 4.43 0 0 1-2.79-.89A3.25 3.25 0 0 1 4 11.5 1.5 1.5 0 0 1 5.5 10h5c.63 0 1.16.38 1.39.93Z"/></svg>