<svg width="24" height="24" viewBox="0 0 24 24" xmlns="http://www.w3.org/2000/svg"><path d="M7.5 8a3 3 0 1 0 0-6 3 3 0 0 0 0 6ZM2 10.77C2 9.79 2.8 9 3.77 9h4.77a3.98 3.98 0 0 0 .81 5H8.27c-1.19 0-2.2.75-2.6 1.8a4.6 4.6 0 0 1-2.97-2.1 5.15 5.15 0 0 1-.7-2.57v-.36ZM16 11c0-.73-.2-1.41-.54-2h4.77c.98 0 1.77.8 1.77 1.77v.36c0 .2 0 1.4-.7 2.57a4.6 4.6 0 0 1-2.98 2.1 2.77 2.77 0 0 0-2.59-1.8h-1.08A3.99 3.99 0 0 0 16 11Zm3.5-6a3 3 0 1 1-6 0 3 3 0 0 1 6 0Zm-13 11.77c0-.98.8-1.77 1.77-1.77h7.46c.98 0 1.77.8 1.77 1.77v.36c0 .2 0 1.4-.7 2.57-.74 1.24-2.19 2.3-4.8 2.3s-4.06-1.06-4.8-2.3a5.15 5.15 0 0 1-.7-2.57v-.36ZM12 14a3 3 0 1 0 0-6 3 3 0 0 0 0 6Z"/></svg>