<svg width="48" height="48" viewBox="0 0 48 48" xmlns="http://www.w3.org/2000/svg"><path d="M11.5 11a3.5 3.5 0 1 1 7 0 3.5 3.5 0 0 1-7 0ZM15 5a6 6 0 1 0 0 12 6 6 0 0 0 0-12Zm14.5 6a3.5 3.5 0 1 1 7 0 3.5 3.5 0 0 1-7 0ZM33 5a6 6 0 1 0 0 12 6 6 0 0 0 0-12ZM4 22.45C4 20.55 5.54 19 7.45 19h9.62c-.44.76-.76 1.6-.93 2.5h-8.7a.95.95 0 0 0-.94.95v.43c0 .27 0 1.93 1.02 3.5.9 1.39 2.72 2.92 6.68 3.1a5.47 5.47 0 0 0-2.46 2.22c-3.22-.63-5.18-2.2-6.32-3.96A9.18 9.18 0 0 1 4 22.88v-.43Zm29.8 7.03a5.47 5.47 0 0 1 2.46 2.22c3.22-.63 5.18-2.2 6.32-3.96C44 25.54 44 23.27 44 22.88v-.43c0-1.9-1.54-3.45-3.45-3.45h-9.62c.44.76.76 1.6.93 2.5h8.7c.52 0 .94.42.94.95v.43c0 .27 0 1.93-1.02 3.5-.9 1.39-2.72 2.92-6.68 3.1ZM24 19.5a3.5 3.5 0 1 0 0 7 3.5 3.5 0 0 0 0-7ZM18 23a6 6 0 1 1 12 0 6 6 0 0 1-12 0Zm-5 11.45c0-1.9 1.54-3.45 3.45-3.45h15.1c1.9 0 3.45 1.54 3.45 3.45v.43c0 .4 0 2.66-1.42 4.86C32.1 42.04 29.23 44 24 44s-8.1-1.97-9.58-4.26C13 37.54 13 35.27 13 34.88v-.43Zm3.45-.95a.95.95 0 0 0-.95.95v.42c0 .28 0 1.94 1.02 3.51.95 1.48 2.96 3.12 7.48 3.12 4.52 0 6.53-1.64 7.48-3.12a6.68 6.68 0 0 0 1.02-3.5v-.43a.95.95 0 0 0-.95-.95h-15.1Z"/></svg>