<svg width="24" height="24" viewBox="0 0 24 24" xmlns="http://www.w3.org/2000/svg"><path d="M13.45 2.53c-.84-.7-2.06-.7-2.9 0L3.8 8.23c-.5.42-.8 1.05-.8 1.71v9.31c0 .97.78 1.75 1.75 1.75h14.5c.97 0 1.75-.78 1.75-1.75v-9.3c0-.67-.3-1.3-.8-1.73l-6.75-5.69Zm-1.93 1.15a.75.75 0 0 1 .96 0l6.75 5.7c.17.13.27.34.27.56v9.31c0 .14-.11.25-.25.25H4.75a.25.25 0 0 1-.25-.25v-9.3c0-.23.1-.44.27-.58l6.75-5.7Zm1.23 2.57a.75.75 0 0 0-1.5 0v1.5a.75.75 0 0 0 1.5 0v-1.5ZM12 10.5c.41 0 .75.34.75.75v1.5a.75.75 0 0 1-1.5 0v-1.5c0-.41.34-.75.75-.75Zm.75 5.75a.75.75 0 0 0-1.5 0v1.5a.75.75 0 0 0 1.5 0v-1.5Z"/></svg>