<svg width="32" height="32" viewBox="0 0 32 32" xmlns="http://www.w3.org/2000/svg"><path d="M15.19 4.3c.47-.4 1.15-.4 1.62 0l9.75 8.3c.28.25.44.6.44.96V26.5a.5.5 0 0 1-.5.5h-21a.5.5 0 0 1-.5-.5V13.56c0-.37.16-.71.44-.95l9.75-8.31Zm2.92-1.52a3.25 3.25 0 0 0-4.22 0l-9.75 8.3A3.25 3.25 0 0 0 3 13.57V26.5A2.5 2.5 0 0 0 5.5 29h21a2.5 2.5 0 0 0 2.5-2.5V13.56c0-.95-.42-1.86-1.14-2.47L18.1 2.78ZM17 8a1 1 0 1 0-2 0v2a1 1 0 1 0 2 0V8Zm-1 6a1 1 0 0 1 1 1v2a1 1 0 1 1-2 0v-2a1 1 0 0 1 1-1Zm1 8a1 1 0 1 0-2 0v2a1 1 0 1 0 2 0v-2Z"/></svg>