<svg width="20" height="20" viewBox="0 0 20 20" xmlns="http://www.w3.org/2000/svg"><path d="M4.5 2A2.5 2.5 0 0 0 2 4.5v8A2.5 2.5 0 0 0 4.5 15h8a2.5 2.5 0 0 0 2.5-2.5v-8A2.5 2.5 0 0 0 12.5 2h-8ZM14 8H9V3h3.5c.83 0 1.5.67 1.5 1.5V8ZM8 8H3V4.5C3 3.67 3.67 3 4.5 3H8v5ZM3 9h5v5H4.5A1.5 1.5 0 0 1 3 12.5V9Zm6 0h5v3.5c0 .83-.67 1.5-1.5 1.5H9V9Zm-1.5 9a2.5 2.5 0 0 1-2.45-2H6.1c.2.58.76 1 1.41 1h5.75A3.75 3.75 0 0 0 17 13.25V7.5c0-.65-.42-1.2-1-1.41V5.05a2.5 2.5 0 0 1 2 2.45v5.75A4.75 4.75 0 0 1 13.25 18H7.5Z"/></svg>