<svg width="24" height="24" viewBox="0 0 24 24" xmlns="http://www.w3.org/2000/svg"><path d="M14.74 5.46a2.84 2.84 0 0 1 1.8 1.8l.45 1.38a.54.54 0 0 0 1.01.03l.01-.02.05-.15.4-1.24a2.84 2.84 0 0 1 1.3-1.57c.16-.1.32-.17.5-.23l1.38-.44a.54.54 0 0 0 0-1.03h-.03l-1.38-.45a2.84 2.84 0 0 1-1.8-1.8L18 .36a.54.54 0 0 0-1.03 0l-.45 1.38-.01.03a2.84 2.84 0 0 1-1.76 1.76l-1.38.45a.54.54 0 0 0 0 1.03l1.38.45Zm9.04 4.75-.76-.25a1.58 1.58 0 0 1-1-1l-.25-.76a.3.3 0 0 0-.57 0l-.25.77a1.58 1.58 0 0 1-.98 1l-.1.03-.67.21a.3.3 0 0 0-.2.29.3.3 0 0 0 .2.28l.76.25a1.58 1.58 0 0 1 1 1l.25.77a.3.3 0 0 0 .12.14.3.3 0 0 0 .46-.14l.24-.77a1.58 1.58 0 0 1 1-1l.77-.24a.3.3 0 0 0 0-.57h-.02ZM12 22.01a10 10 0 0 0 9.8-8.04 1.3 1.3 0 0 1-1.54-.86l-.25-.76a.57.57 0 0 0-.36-.36l-.78-.26a1.3 1.3 0 0 1-.7-1.88 1.55 1.55 0 0 1-2.14-.9l-.44-1.38a1.81 1.81 0 0 0-1.16-1.16l-1.4-.46a1.54 1.54 0 0 1 .02-2.92l1.36-.44c.14-.05.28-.11.4-.2A10 10 0 1 0 12 22Zm-4.6-7.35c.33-.26.8-.2 1.06.12a4.5 4.5 0 0 0 7.07 0 .75.75 0 1 1 1.18.94 6 6 0 0 1-9.43 0 .75.75 0 0 1 .13-1.06ZM7.76 10a1.25 1.25 0 1 1 2.5 0 1.25 1.25 0 0 1-2.5 0Zm6 0a1.25 1.25 0 1 1 2.5 0 1.25 1.25 0 0 1-2.5 0Z"/></svg>