<svg width="32" height="32" viewBox="0 0 32 32" xmlns="http://www.w3.org/2000/svg"><path d="M21.49 7.51a3.49 3.49 0 0 1 .84 1.36l.54 1.69a.66.66 0 0 0 1.26 0l.54-1.69a3.47 3.47 0 0 1 2.2-2.2l1.69-.54a.67.67 0 0 0 0-1.25l-.04-.01-1.68-.55a3.47 3.47 0 0 1-2.2-2.2L24.1.45a.66.66 0 0 0-1.25 0l-.55 1.69-.01.04a3.47 3.47 0 0 1-2.15 2.15l-1.69.55a.67.67 0 0 0 0 1.25l1.69.55c.51.17.98.46 1.36.84Zm9.33 4.85.92.3h.02a.36.36 0 0 1 0 .68l-.92.3a1.9 1.9 0 0 0-.94.7c-.1.15-.2.32-.26.5l-.3.92a.36.36 0 0 1-.68 0l-.3-.92a1.89 1.89 0 0 0-.52-.8 1.9 1.9 0 0 0-.68-.4l-.92-.3a.36.36 0 0 1 0-.68l.92-.3a1.89 1.89 0 0 0 1.18-1.2l.11-.35.19-.57a.36.36 0 0 1 .68 0l.3.92a1.89 1.89 0 0 0 1.2 1.2ZM17.05 4.05a12 12 0 1 0 10.9 13.12 1.86 1.86 0 0 0 2 .07 14 14 0 1 1-9.79-14.61c-.16.11-.33.2-.52.27l-1.66.54c-.36.12-.68.33-.93.6ZM14 13a2 2 0 1 1-4 0 2 2 0 0 1 4 0Zm6 2a2 2 0 1 0 0-4 2 2 0 0 0 0 4ZM9.55 19.1a1 1 0 0 1 1.34.45l.04.06.17.26c.17.22.44.53.84.85A6.3 6.3 0 0 0 16 22c2 0 3.29-.66 4.06-1.28a4.76 4.76 0 0 0 1.05-1.17 1 1 0 0 1 1.78.9v.02l-.02.02-.01.03a3.76 3.76 0 0 1-.36.55c-.26.34-.64.78-1.19 1.21A8.28 8.28 0 0 1 16 24c-2.5 0-4.21-.84-5.31-1.72a6.76 6.76 0 0 1-1.57-1.8v-.02H9.1v-.01a1 1 0 0 1 .44-1.34Z"/></svg>