<svg width="20" height="20" viewBox="0 0 20 20" xmlns="http://www.w3.org/2000/svg"><path d="m14.88.28.35 1.07a2.2 2.2 0 0 0 1.4 1.4l1.07.35h.02a.42.42 0 0 1 0 .8l-1.07.35a2.2 2.2 0 0 0-1.4 1.4l-.35 1.07a.42.42 0 0 1-.8 0l-.35-1.07a2.23 2.23 0 0 0-1.4-1.4l-1.07-.35a.42.42 0 0 1 0-.8l1.07-.35a2.2 2.2 0 0 0 1.38-1.4l.35-1.07a.42.42 0 0 1 .8 0Zm4.9 7.93-.76-.25a1.58 1.58 0 0 1-1-1l-.25-.76a.3.3 0 0 0-.57 0l-.25.77a1.58 1.58 0 0 1-.98 1l-.77.24a.3.3 0 0 0 0 .57l.77.25a1.58 1.58 0 0 1 1 1l.03.1.21.67a.3.3 0 0 0 .58 0l.24-.77a1.58 1.58 0 0 1 1-1l.77-.24a.3.3 0 0 0 0-.57h-.02ZM17.3 12a1.3 1.3 0 0 1-.53-.21A7 7 0 1 1 10.1 3a1.42 1.42 0 0 1 .88-.85l.2-.07a8 8 0 1 0 6.59 9.9c-.15.03-.3.03-.46 0Zm-4.63.6a4.01 4.01 0 0 1-5.52-.16.5.5 0 1 0-.7.7 5.01 5.01 0 0 0 7.08.02l.02-.02.06-.07a.5.5 0 0 0-.76-.63l-.18.17Zm.83-4.09a1 1 0 1 0-2 0 1 1 0 0 0 2 0Zm-5 0a1 1 0 1 0-2 0 1 1 0 0 0 2 0Z"/></svg>