<svg width="16" height="16" viewBox="0 0 16 16" xmlns="http://www.w3.org/2000/svg"><path d="M13.8 2.22h-.02l-.76-.26a1.58 1.58 0 0 1-1-1L11.77.2a.3.3 0 0 0-.57 0l-.25.77a1.58 1.58 0 0 1-.98 1l-.6.19-.17.05a.3.3 0 0 0-.15.11.3.3 0 0 0 .15.46l.77.25.08.03a1.58 1.58 0 0 1 .89.9l.03.07.24.77a.3.3 0 0 0 .29.2.3.3 0 0 0 .29-.2l.24-.77a1.58 1.58 0 0 1 1-1l.77-.24a.3.3 0 0 0 0-.57Zm1.41 3.35.62.2a.24.24 0 0 1 0 .46l-.6.2a1.26 1.26 0 0 0-.8.8l-.2.6a.24.24 0 0 1-.24.17.24.24 0 0 1-.22-.16l-.2-.61a1.26 1.26 0 0 0-.8-.8l-.03-.01-.58-.2a.24.24 0 0 1 0-.45l.61-.2a1.26 1.26 0 0 0 .8-.8l.19-.6a.24.24 0 0 1 .46 0l.2.6a1.26 1.26 0 0 0 .8.8ZM8.06 2.9 8.1 3H8a5 5 0 1 0 4.98 5.46 1.25 1.25 0 0 0 .94.54A6 6 0 1 1 8.1 2a1.3 1.3 0 0 0-.04.9ZM6.25 7.75a.75.75 0 1 0 0-1.5.75.75 0 0 0 0 1.5Zm-.11 1.92a.5.5 0 1 0-.75.66 3.5 3.5 0 0 0 5.22 0 .5.5 0 0 0-.75-.66 2.5 2.5 0 0 1-3.72 0ZM10.5 7A.75.75 0 1 1 9 7a.75.75 0 0 1 1.5 0Z"/></svg>