<svg width="16" height="16" viewBox="0 0 16 16" xmlns="http://www.w3.org/2000/svg"><path d="M13.8 2.22h-.02l-.76-.26a1.58 1.58 0 0 1-1-1L11.77.2a.3.3 0 0 0-.57 0l-.25.77a1.58 1.58 0 0 1-.98 1l-.6.19-.17.05a.3.3 0 0 0-.15.11.3.3 0 0 0 .15.46l.77.25.08.03a1.58 1.58 0 0 1 .92.97l.24.77a.3.3 0 0 0 .29.2.3.3 0 0 0 .29-.2l.24-.77a1.58 1.58 0 0 1 1-1l.77-.24a.3.3 0 0 0 0-.57Zm1.41 3.35.62.2a.24.24 0 0 1 0 .46l-.6.2a1.26 1.26 0 0 0-.8.8l-.2.6a.24.24 0 0 1-.24.17.24.24 0 0 1-.22-.16l-.2-.61a1.26 1.26 0 0 0-.8-.8l-.61-.2a.24.24 0 0 1-.12-.1.25.25 0 0 1 .12-.36l.61-.2a1.26 1.26 0 0 0 .8-.8l.19-.6a.24.24 0 0 1 .46 0l.2.6a1.26 1.26 0 0 0 .8.8ZM8 14a6 6 0 0 0 5.92-5 1.24 1.24 0 0 1-1.1-.85l-.2-.61a.26.26 0 0 0-.16-.16l-.63-.2A1.24 1.24 0 0 1 11 6v-.1a1.3 1.3 0 0 1-.74-.8l-.24-.75a.54.54 0 0 0-.14-.23.6.6 0 0 0-.22-.14l-.8-.25A1.3 1.3 0 0 1 8.1 2H8a6 6 0 1 0 0 12ZM6.25 7.75a.75.75 0 1 1 0-1.5.75.75 0 0 1 0 1.5Zm-.11 1.92a2.5 2.5 0 0 0 3.72 0 .5.5 0 1 1 .75.66 3.5 3.5 0 0 1-5.22 0 .5.5 0 0 1 .75-.66Zm3.61-1.92a.75.75 0 1 1 0-1.5.75.75 0 0 1 0 1.5ZM11.5 5Z"/></svg>