<svg width="48" height="48" viewBox="0 0 48 48" xmlns="http://www.w3.org/2000/svg"><path d="M32.4 11.6a5.36 5.36 0 0 1 1.28 2.11l.85 2.6a1.03 1.03 0 0 0 1.94 0l.85-2.6a5.36 5.36 0 0 1 3.4-3.39l2.6-.84a1.03 1.03 0 0 0 0-1.94l-.06-.02-2.6-.84a5.36 5.36 0 0 1-3.4-3.4l-.84-2.6a1.03 1.03 0 0 0-1.94 0l-.85 2.6-.02.07a5.36 5.36 0 0 1-3.32 3.33l-2.6.84a1.03 1.03 0 0 0 0 1.94l2.6.85c.8.26 1.51.7 2.1 1.3Zm13.83 6.94 1.38.44.03.01a.54.54 0 0 1 0 1.03l-1.38.44a2.84 2.84 0 0 0-1.8 1.8l-.45 1.38a.54.54 0 0 1-1.03.01l-.44-1.38a2.84 2.84 0 0 0-1.36-1.61v-.02a2.84 2.84 0 0 0-.44-.18L39.36 20a.54.54 0 0 1 0-1.03l1.38-.44a2.84 2.84 0 0 0 1.77-1.8l.45-1.38a.54.54 0 0 1 1.03 0l.44 1.38a2.83 2.83 0 0 0 1.8 1.8ZM25.68 6.58a17.5 17.5 0 1 0 15.79 18.41 2.57 2.57 0 0 0 1.64.98c.27.04.53.04.8 0A20 20 0 1 1 29.6 4.8l-2.54.82c-.55.19-1.03.52-1.39.96ZM20 19.5a2.5 2.5 0 1 1-5 0 2.5 2.5 0 0 1 5 0ZM30.5 22a2.5 2.5 0 1 0 0-5 2.5 2.5 0 0 0 0 5ZM18.45 34.68c1.71.9 3.62 1.34 5.55 1.32a11.72 11.72 0 0 0 9.82-5.1 1.25 1.25 0 1 0-2.13-1.3A9.21 9.21 0 0 1 24 33.5a9.22 9.22 0 0 1-7.69-3.9 1.25 1.25 0 1 0-2.13 1.3c1.1 1.6 2.56 2.9 4.27 3.78Z"/></svg>