<svg width="20" height="20" viewBox="0 0 20 20" xmlns="http://www.w3.org/2000/svg"><path d="M15.5 7A2.5 2.5 0 0 1 18 9.33v6.17a2.5 2.5 0 0 1-2.33 2.5H9.5A2.5 2.5 0 0 1 7 15.66V9.5A2.5 2.5 0 0 1 9.34 7h6.16Zm0 1h-6c-.78 0-1.42.6-1.5 1.35v6.15c0 .78.6 1.42 1.36 1.5h6.14c.78 0 1.42-.6 1.5-1.36V9.5c0-.78-.6-1.42-1.35-1.5h-.15Zm-3 1a.5.5 0 0 1 .5.4V12h2.5a.5.5 0 0 1 .1 1H13v2.5a.5.5 0 0 1-1 .09v-2.6H9.5a.5.5 0 0 1-.09-.98l.1-.01H12V9.5c0-.28.22-.5.5-.5Zm.16-5.3.05.15L13.3 6h-1.04l-.5-1.89a1.5 1.5 0 0 0-1.7-1.1l-.14.04L4.1 4.6a1.5 1.5 0 0 0-1.09 1.7l.03.14 1.55 5.8a1.5 1.5 0 0 0 1.4 1.1v1a2.5 2.5 0 0 1-2.3-1.68l-.06-.17-1.55-5.8a2.5 2.5 0 0 1 1.6-3l.16-.05 5.8-1.56a2.5 2.5 0 0 1 2.96 1.46l.05.15Z"/></svg>