<svg width="16" height="16" viewBox="0 0 16 16" xmlns="http://www.w3.org/2000/svg"><path d="M4.9 5.4a1.35 1.35 0 0 1 1.9 0l.2.19.18-.19a1.36 1.36 0 0 1 1.93 1.92L7.15 9.27a.2.2 0 0 1-.29 0L4.9 7.31a1.35 1.35 0 0 1 0-1.92ZM2 7a5 5 0 1 1 2.89 4.53l-2.3.46a.5.5 0 0 1-.58-.59l.46-2.29A4.98 4.98 0 0 1 2 7Zm5-4a4 4 0 0 0-3.56 5.82c.05.1.06.21.04.32l-.34 1.72 1.72-.34a.5.5 0 0 1 .32.04A4 4 0 1 0 7 3Zm-1.14 9.9a4.98 4.98 0 0 0 5.25.63l2.3.46a.5.5 0 0 0 .58-.59l-.46-2.29a4.98 4.98 0 0 0-.64-5.25 6.03 6.03 0 0 1 0 2.24 4.01 4.01 0 0 1-.33 2.72.5.5 0 0 0-.04.32l.34 1.72-1.72-.34a.5.5 0 0 0-.32.04 3.98 3.98 0 0 1-2.72.34 6.03 6.03 0 0 1-2.24 0Z"/></svg>