<svg width="20" height="20" viewBox="0 0 20 20" xmlns="http://www.w3.org/2000/svg"><path d="M2.04 8.5a6.5 6.5 0 1 1 3.72 5.88l-2.49.7a1 1 0 0 1-1.2-1.33l.8-2.08a6.47 6.47 0 0 1-.83-3.17Zm3.51-2.01a1.9 1.9 0 0 0 0 2.68L8.3 11.9c.12.12.3.12.42 0l2.73-2.73a1.9 1.9 0 0 0-2.7-2.69l-.25.27-.27-.27a1.9 1.9 0 0 0-2.68 0ZM11.5 18a6.49 6.49 0 0 1-4.93-2.26 7.5 7.5 0 0 0 1.76.26 5.47 5.47 0 0 0 5.67.4l.18-.09 2.86.8-.97-2.53.13-.21a5.47 5.47 0 0 0-.16-5.98c-.01-.6-.1-1.2-.24-1.76a6.48 6.48 0 0 1 1.38 8.04l.8 2.08a1 1 0 0 1-1.21 1.32l-2.49-.7c-.84.4-1.79.63-2.78.63Z"/></svg>