<svg width="20" height="20" viewBox="0 0 20 20" xmlns="http://www.w3.org/2000/svg"><path d="M5.55 6.49a1.9 1.9 0 0 1 2.68 0l.27.27.26-.26a1.9 1.9 0 0 1 2.69 2.68l-2.73 2.73a.3.3 0 0 1-.42 0L5.56 9.17a1.9 1.9 0 0 1 0-2.68ZM2.04 8.5a6.5 6.5 0 1 1 3.72 5.88l-2.49.7a1 1 0 0 1-1.2-1.33l.8-2.08a6.47 6.47 0 0 1-.83-3.17ZM8.54 3a5.5 5.5 0 0 0-4.7 8.37l.13.2L3 14.12l2.86-.8.18.09A5.5 5.5 0 1 0 8.54 3ZM6.57 15.74a6.49 6.49 0 0 0 7.71 1.64l2.49.7a1 1 0 0 0 1.2-1.33l-.8-2.08a6.47 6.47 0 0 0-1.37-8.04c.15.56.23 1.15.24 1.76a5.47 5.47 0 0 1 .16 5.98l-.13.2.97 2.54-2.86-.8-.18.09a5.47 5.47 0 0 1-5.67-.4 7.5 7.5 0 0 1-1.76-.26Z"/></svg>