<svg width="28" height="28" viewBox="0 0 28 28" xmlns="http://www.w3.org/2000/svg"><path d="M2 12a9 9 0 1 1 4.96 8.04l-3.39.91c-.92.25-1.78-.6-1.53-1.53l.91-3.39A8.97 8.97 0 0 1 2 12Zm4.79-3.2a2.75 2.75 0 0 0 0 3.86l3.93 3.97c.16.16.43.16.59 0l3.9-3.94a2.76 2.76 0 0 0 0-3.87 2.7 2.7 0 0 0-3.84-.01l-.37.38-.38-.38a2.69 2.69 0 0 0-3.83-.01Zm3.48 13.17a8.98 8.98 0 0 0 10.77 2.07l3.39.91c.92.25 1.77-.6 1.53-1.53l-.91-3.39a9 9 0 0 0-5.12-12.55c.31.63.56 1.3.74 1.98a7.5 7.5 0 0 1 2.92 10.13.75.75 0 0 0-.07.55l.88 3.25-3.26-.87a.75.75 0 0 0-.55.07 7.46 7.46 0 0 1-8.21-.68 10.09 10.09 0 0 1-2.11.06Z"/></svg>