<svg width="24" height="24" viewBox="0 0 24 24" xmlns="http://www.w3.org/2000/svg"><path d="M2 10.5a7.5 7.5 0 1 1 4.41 6.84c-1.26.29-2.61.54-3.24.65a1 1 0 0 1-1.15-1.17c.12-.61.38-1.92.68-3.15A7.47 7.47 0 0 1 2 10.5Zm4.34-2.16c-.79.8-.79 2.08 0 2.87l2.95 2.95c.12.12.32.12.44 0l2.93-2.93a2.03 2.03 0 0 0-2.88-2.88l-.28.28-.29-.28c-.8-.8-2.08-.8-2.87 0ZM14.56 21a7.47 7.47 0 0 1-5.1-2 8.28 8.28 0 0 0 2.18-.26 5.97 5.97 0 0 0 5.6.14l.24-.13.26.07c.92.22 1.96.44 2.74.6-.18-.74-.41-1.75-.64-2.64l-.07-.28.13-.25a5.97 5.97 0 0 0-2.09-7.8 8.44 8.44 0 0 0-.8-2.04 7.5 7.5 0 0 1 4.35 10.26l.67 2.8c.2.9-.57 1.7-1.47 1.5-.72-.15-1.87-.39-2.91-.63-.94.42-1.99.66-3.09.66Z"/></svg>