<svg width="24" height="24" viewBox="0 0 24 24" xmlns="http://www.w3.org/2000/svg"><path d="M13 16.5a5.5 5.5 0 11-11 0 5.5 5.5 0 0111 0zM8.53 13H7.1a.5.5 0 00-.47.32l-1.13 3a.5.5 0 00.47.68h.78l-.77 2.32a.52.52 0 00.92.44l2.63-4.03a.47.47 0 00-.4-.73H8.5l.5-1.32a.5.5 0 00-.47-.68zm8.1-6.46l2.96 2.96h-5.92a6.25 6.25 0 01-6.02-6.25.75.75 0 10-1.5 0v.25A7.75 7.75 0 0013.9 11h5.69l-2.97 2.96-.07.09a.75.75 0 001.13.97l4.25-4.24.07-.08c.22-.3.2-.71-.07-.98l-4.25-4.24-.08-.08a.75.75 0 00-.98 1.14z"/></svg>