<svg width="20" height="20" viewBox="0 0 20 20" xmlns="http://www.w3.org/2000/svg"><path d="m2.85 2.15 15 15a.5.5 0 0 1-.7.7l-1.41-1.4c-.5.34-1.1.55-1.74.55H6a3 3 0 0 1-3-3V6c0-.65.2-1.25.55-1.74l-1.4-1.4a.5.5 0 1 1 .7-.71Zm12.17 13.57L4.28 4.98A2 2 0 0 0 4 6v8c0 1.1.9 2 2 2h8a2 2 0 0 0 1.02-.28Zm1.88-.94-.9-.9V11.5a.5.5 0 0 1 1 0V14a3 3 0 0 1-.1.78ZM5.22 3.1l.9.9H8.5a.5.5 0 0 0 0-1H6a3 3 0 0 0-.78.1Zm5.78.4c0-.28.22-.5.5-.5h5c.28 0 .5.22.5.5v5a.5.5 0 0 1-1 0V4.7l-4.15 4.15a.5.5 0 0 1-.7-.7L15.29 4H11.5a.5.5 0 0 1-.5-.5Z"/></svg>