<svg width="24" height="24" viewBox="0 0 24 24" xmlns="http://www.w3.org/2000/svg"><path d="M3.28 2.22a.75.75 0 1 0-1.06 1.06l1.26 1.26c-.3.5-.48 1.08-.48 1.71v11.5C3 19.55 4.46 21 6.25 21h11.5c.63 0 1.21-.18 1.7-.48l1.27 1.26a.75.75 0 0 0 1.06-1.06L3.28 2.22Zm14.65 16.77-.18.01H6.25C5.56 19 5 18.44 5 17.75V6.25l.01-.18L17.93 19ZM13 9.83 14.17 11a1 1 0 0 0 .54-.28L19 6.4V10a1 1 0 1 0 2 0V4a1 1 0 0 0-1-1h-6a1 1 0 1 0 0 2h3.59l-4.3 4.3a1 1 0 0 0-.28.53ZM21 17.82l-2-2V14a1 1 0 1 1 2 0v3.82ZM6.18 3l2 2H10a1 1 0 1 0 0-2H6.18Z"/></svg>