<svg width="28" height="28" viewBox="0 0 28 28" xmlns="http://www.w3.org/2000/svg"><path d="m3.28 2.22 22.5 22.5a.75.75 0 0 1-1.06 1.06l-1.47-1.47c-.64.44-1.42.69-2.25.69H7a4 4 0 0 1-4-4V7c0-.83.25-1.6.7-2.25L2.21 3.28a.75.75 0 1 1 1.06-1.06Zm18.5 20.62L5.16 6.22A2 2 0 0 0 5 7v14c0 1.1.9 2 2 2h14a2 2 0 0 0 .78-.16ZM6.25 3.07 8.18 5h3.32a1 1 0 1 0 0-2H7c-.26 0-.5.02-.75.07Zm18.68 18.68L23 19.82V16.5a1 1 0 1 1 2 0V21c0 .26-.02.5-.07.75ZM15.5 4a1 1 0 0 1 1-1H24a1 1 0 0 1 1 1v7.5a1 1 0 1 1-2 0V6.41l-5.8 5.8a1 1 0 1 1-1.4-1.42L21.58 5H16.5a1 1 0 0 1-1-1Z"/></svg>