<svg width="20" height="20" viewBox="0 0 20 20" xmlns="http://www.w3.org/2000/svg"><path d="M7.5 8.75a.75.75 0 1 1-1.5 0 .75.75 0 0 1 1.5 0Zm1.75.75a.75.75 0 1 0 0-1.5.75.75 0 0 0 0 1.5ZM7.5 11.25a.75.75 0 1 1-1.5 0 .75.75 0 0 1 1.5 0Zm1.75.75a.75.75 0 1 0 0-1.5.75.75 0 0 0 0 1.5Zm5.25 2.25a.75.75 0 1 1-1.5 0 .75.75 0 0 1 1.5 0Zm-.75-1.75a.75.75 0 1 0 0-1.5.75.75 0 0 0 0 1.5ZM7 2a.5.5 0 0 0-.5.5V4h-.94a.5.5 0 0 0-.5.5v1.74A2 2 0 0 0 4 8v8.5c0 .27.22.5.5.5h12a.5.5 0 0 0 .5-.5v-4A4.5 4.5 0 0 0 12.5 8H12a2 2 0 0 0-.94-1.7V4.5a.5.5 0 0 0-.5-.5H9.5V2.5A.5.5 0 0 0 9 2H7Zm3 4H6.06V5h4v1H10Zm1 10h-1v-2a1 1 0 0 0-1-1H7a1 1 0 0 0-1 1v2H5V8a1 1 0 0 1 1-1h4a1 1 0 0 1 1 1v8Zm-4 0v-2h2v2H7Zm9 0h-4V9h.5a3.5 3.5 0 0 1 3.5 3.5V16ZM8.5 4h-1V3h1v1Z"/></svg>