<svg width="16" height="16" viewBox="0 0 16 16" xmlns="http://www.w3.org/2000/svg"><path d="M8 4.5a2.5 2.5 0 1 1-5 0 2.5 2.5 0 0 1 5 0ZM11.5 6a5.5 5.5 0 0 0-1.58.23 2 2 0 1 1 3.16 0A5.5 5.5 0 0 0 11.5 6ZM3 8h4.26a5.48 5.48 0 0 0-1.17 4.48l-.59.02c-4 0-4-2.93-4-2.93V9.5C1.5 8.67 2.17 8 3 8Zm13 3.5a4.5 4.5 0 1 1-9 0 4.5 4.5 0 0 1 9 0Zm-4.02-2.64a.5.5 0 0 0-.96 0l-.47 1.53H9c-.48 0-.68.65-.3.95l1.26.94-.48 1.53c-.15.49.38.89.77.59l1.25-.95 1.25.95c.4.3.92-.1.77-.59l-.48-1.53 1.25-.94c.4-.3.2-.95-.3-.95h-1.54l-.47-1.53Z"/></svg>