<svg width="20" height="20" viewBox="0 0 20 20" xmlns="http://www.w3.org/2000/svg"><path d="M6.75 2.5a3.25 3.25 0 1 0 0 6.5 3.25 3.25 0 0 0 0-6.5ZM1.5 12c0-1.1.9-2 2-2H10a2 2 0 0 1 1 .26 5.49 5.49 0 0 0-1.88 5.4c-.64.21-1.42.34-2.37.34-2.51 0-3.87-.92-4.57-1.93a3.95 3.95 0 0 1-.68-1.99V12ZM17 6.5a2.5 2.5 0 1 1-5 0 2.5 2.5 0 0 1 5 0Zm2 8a4.5 4.5 0 1 1-9 0 4.5 4.5 0 0 1 9 0Zm-2-1.1h-1.55l-.47-1.54a.5.5 0 0 0-.96 0l-.47 1.53H12c-.48 0-.69.65-.3.95l1.26.94-.48 1.53c-.15.49.38.89.77.59l1.25-.95 1.25.95c.4.3.92-.1.77-.59l-.48-1.53 1.25-.94c.4-.3.2-.95-.3-.95Z"/></svg>