<svg width="28" height="28" viewBox="0 0 28 28" xmlns="http://www.w3.org/2000/svg"><path d="M9.5 13a4.5 4.5 0 1 0 0-9 4.5 4.5 0 0 0 0 9Zm14-3.5a3.5 3.5 0 1 1-7 0 3.5 3.5 0 0 1 7 0ZM2 17.25C2 16.01 3 15 4.25 15h10.5c.2 0 .39.03.57.07a7.48 7.48 0 0 0-2.07 7.35c-.98.36-2.2.58-3.75.58C2 23 2 17.75 2 17.75v-.5Zm25 3.25a6.5 6.5 0 1 1-13 0 6.5 6.5 0 0 1 13 0Zm-5.79-3.96a.74.74 0 0 0-1.42 0l-.72 2.3h-2.32c-.73 0-1.03.97-.44 1.41l1.88 1.42-.72 2.3c-.23.72.57 1.32 1.16.88l1.87-1.42 1.88 1.42c.58.44 1.38-.16 1.15-.88l-.72-2.3 1.88-1.42c.59-.44.29-1.41-.44-1.41h-2.32l-.72-2.3Z"/></svg>