<svg width="32" height="32" viewBox="0 0 32 32" xmlns="http://www.w3.org/2000/svg"><path d="M10.5 14a5.5 5.5 0 1 0 0-11 5.5 5.5 0 0 0 0 11ZM23 14a4 4 0 1 0 0-8 4 4 0 0 0 0 8Zm-9 9c0-2.71 1.2-5.14 3.1-6.8A3 3 0 0 0 16 16H5a3 3 0 0 0-3 3v.15S2 25 10.5 25c1.44 0 2.64-.17 3.63-.45A9.06 9.06 0 0 1 14 23Zm16.5 0a7.5 7.5 0 1 1-15 0 7.5 7.5 0 0 1 15 0Zm-8.21-4.86-.94 2.83h-3a.75.75 0 0 0-.43 1.36l2.4 1.7-.92 2.8a.75.75 0 0 0 1.14.84L23 25.93l2.46 1.74a.75.75 0 0 0 1.14-.84l-.93-2.8 2.41-1.7a.75.75 0 0 0-.43-1.36h-3l-.94-2.83a.75.75 0 0 0-1.42 0Z"/></svg>