<svg width="24" height="24" viewBox="0 0 24 24" xmlns="http://www.w3.org/2000/svg"><path d="M8 11a4 4 0 1 0 0-8 4 4 0 0 0 0 8Zm9 0a3 3 0 1 0 0-6 3 3 0 0 0 0 6ZM4.25 13C3.01 13 2 14 2 15.25v.25S2 20 8 20a7.9 7.9 0 0 0 3.28-.61 6.5 6.5 0 0 1 1.36-6.2 2.24 2.24 0 0 0-.89-.19h-7.5ZM23 17.5a5.5 5.5 0 1 1-11 0 5.5 5.5 0 0 1 11 0Zm-4.94-3.08a.58.58 0 0 0-1.12 0l-.55 1.79h-1.8c-.57 0-.8.75-.35 1.1l1.46 1.1-.56 1.79c-.17.56.44 1.03.9.68l1.46-1.1 1.46 1.1c.46.35 1.07-.12.9-.68l-.56-1.79 1.46-1.1c.46-.35.22-1.1-.35-1.1h-1.8l-.55-1.79Z"/></svg>