<svg width="20" height="20" viewBox="0 0 20 20" xmlns="http://www.w3.org/2000/svg"><path d="M9.18 15.87c.1.38.23.74.4 1.09A3.99 3.99 0 0 1 6 13h-.5A1.5 1.5 0 0 0 4 14.5v2a.5.5 0 0 1-1 0v-2A2.5 2.5 0 0 1 5.5 12H6v-1.5H2.5a.5.5 0 0 1 0-1H6V8h-.5A2.5 2.5 0 0 1 3 5.5v-2a.5.5 0 0 1 1 0v2A1.5 1.5 0 0 0 5.5 7H6a3 3 0 0 1 2.31-2.92A2 2 0 0 1 8 3v-.5a.5.5 0 0 1 1 0V3a1 1 0 0 0 2 0v-.5a.5.5 0 0 1 1 0V3a2 2 0 0 1-.31 1.08A3 3 0 0 1 14 7h.5A1.5 1.5 0 0 0 16 5.5v-2a.5.5 0 0 1 1 0v2A2.5 2.5 0 0 1 14.5 8H14v1.03c-.34.03-.67.09-1 .18V7a2 2 0 0 0-2-2H9a2 2 0 0 0-2 2v6a2.99 2.99 0 0 0 2.18 2.87ZM19 14.5a4.5 4.5 0 1 1-9 0 4.5 4.5 0 0 1 9 0Zm-7.3 2.1 4.9-4.9a3.48 3.48 0 0 0-4.57.33 3.5 3.5 0 0 0-.33 4.57Zm6.3-2.1c0-.76-.24-1.5-.7-2.1l-4.9 4.9a3.48 3.48 0 0 0 4.57-.33A3.5 3.5 0 0 0 18 14.5Z"/></svg>