<svg width="24" height="24" viewBox="0 0 24 24" xmlns="http://www.w3.org/2000/svg"><path d="M15.75 2C16.99 2 18 3 18 4.25v7c-.56.2-1.07.5-1.5.9v-7.9a.75.75 0 0 0-.75-.75h-7.5a.75.75 0 0 0-.75.75v15.5c0 .41.34.75.75.75h2.78c-.02.1-.03.2-.03.31V22H8.25C7.01 22 6 21 6 19.75V4.25C6 3.01 7 2 8.25 2h7.5Zm-2.5 15.5c.1 0 .2.02.28.05L12.08 19h-1.33a.75.75 0 0 1 0-1.5h2.5ZM19.5 19a3.5 3.5 0 1 0-3.38-2.59.75.75 0 0 0-.15.12l-3.75 3.75a.75.75 0 0 0-.22.53v1.44c0 .41.34.75.75.75h1.75a.5.5 0 0 0 .5-.5V22h1a.5.5 0 0 0 .5-.5v-1h1a.5.5 0 0 0 .5-.5v-1h1.5Zm1.5-4a1 1 0 1 1-2 0 1 1 0 0 1 2 0Z"/></svg>