<svg width="24" height="24" viewBox="0 0 24 24" xmlns="http://www.w3.org/2000/svg"><path d="M3 6.75c0-.41.34-.75.75-.75h3.26c1 0 1.95.4 2.65 1.1l2.95 2.95c.6.6 1.43.95 2.3.95h4.53l-3.72-3.72a.75.75 0 111.06-1.06l5 5c.3.3.3.77 0 1.06l-5 5a.75.75 0 11-1.06-1.06l3.72-3.72h-4.47c-.9 0-1.75.37-2.36 1.01l-2.68 2.82c-.7.75-1.69 1.17-2.72 1.17H3.75a.75.75 0 010-1.5h3.46c.62 0 1.2-.25 1.63-.7l2.68-2.82c.26-.27.55-.51.86-.71-.3-.19-.58-.4-.83-.66L8.6 8.16c-.42-.42-1-.66-1.6-.66H3.76A.75.75 0 013 6.75z"/></svg>