<svg width="20" height="20" viewBox="0 0 20 20" xmlns="http://www.w3.org/2000/svg"><path d="M5 3a2 2 0 0 0-2 2v1c0 1.1.9 2 2 2h.27A2 2 0 0 0 5 9v2a2 2 0 0 0 .68 1.5A2 2 0 0 0 5 14v1c0 1.1.9 2 2 2h8a2 2 0 0 0 2-2v-1a2 2 0 0 0-.68-1.5A2 2 0 0 0 17 11V9a2 2 0 0 0-.68-1.5A2 2 0 0 0 17 6V5a2 2 0 0 0-2-2H5Zm10 9h-5V8h5a1 1 0 0 1 1 1v2a1 1 0 0 1-1 1ZM9 8v4H7a1 1 0 0 1-1-1V9a1 1 0 0 1 1-1h2Zm1 5h5a1 1 0 0 1 1 1v1a1 1 0 0 1-1 1h-5v-3Zm-1 0v3H7a1 1 0 0 1-1-1v-1a1 1 0 0 1 1-1h2ZM8 7V4h7a1 1 0 0 1 1 1v1a1 1 0 0 1-1 1H8ZM7 7H5a1 1 0 0 1-1-1V5a1 1 0 0 1 1-1h2v3Z"/></svg>