<svg width="24" height="24" viewBox="0 0 24 24" xmlns="http://www.w3.org/2000/svg"><path d="M3 6.25C3 4.45 4.46 3 6.25 3h4a.75.75 0 010 1.5h-4c-.97 0-1.75.78-1.75 1.75v4a.75.75 0 01-1.5 0v-4zm10-2.5c0-.41.34-.75.75-.75h4C19.55 3 21 4.46 21 6.25v4a.75.75 0 01-1.5 0v-4c0-.97-.78-1.75-1.75-1.75h-4a.75.75 0 01-.75-.75zM3.75 13c.41 0 .75.34.75.75v4c0 .2.04.4.1.59l5.63-5.63a2.5 2.5 0 013.54 0l5.63 5.63c.06-.19.1-.38.1-.59v-4a.75.75 0 011.5 0v4c0 1.8-1.46 3.25-3.25 3.25h-4a.75.75 0 010-1.5h4c.2 0 .4-.04.59-.1l-5.63-5.63a1 1 0 00-1.42 0L5.66 19.4c.19.06.38.1.59.1h4a.75.75 0 010 1.5h-4A3.25 3.25 0 013 17.75v-4c0-.41.34-.75.75-.75zm11.5-5a.75.75 0 100 1.5.75.75 0 000-1.5zM13 8.75a2.25 2.25 0 114.5 0 2.25 2.25 0 01-4.5 0z"/></svg>