<svg width="24" height="24" viewBox="0 0 24 24" xmlns="http://www.w3.org/2000/svg"><path d="M3 6.25C3 4.45 4.46 3 6.25 3H10a1 1 0 110 2H6.25C5.56 5 5 5.56 5 6.25V10a1 1 0 11-2 0V6.25zM13 4a1 1 0 011-1h3.75C19.55 3 21 4.46 21 6.25V10a1 1 0 11-2 0V6.25C19 5.56 18.44 5 17.75 5H14a1 1 0 01-1-1zm-9 9a1 1 0 011 1v3.59l4.53-4.53a3.5 3.5 0 014.94 0L19 17.6V14a1 1 0 112 0v3.75c0 1.8-1.46 3.25-3.25 3.25H14a1 1 0 110-2h3.59l-4.53-4.53a1.5 1.5 0 00-2.12 0L6.4 19H10a1 1 0 110 2H6.25A3.25 3.25 0 013 17.75V14a1 1 0 011-1zm13.5-4.25a2.25 2.25 0 11-4.5 0 2.25 2.25 0 014.5 0z"/></svg>