<svg width="28" height="28" viewBox="0 0 28 28" xmlns="http://www.w3.org/2000/svg"><path d="M11.77 3.5a4.25 4.25 0 0 1 4.46 0l9.91 6.11a.75.75 0 0 1 .02 1.27L22 13.6v6.65c0 .3-.16.48-.35.67l-.41.37A11.37 11.37 0 0 1 14 24a11.05 11.05 0 0 1-7.65-3.08c-.19-.2-.35-.37-.35-.67V13.6l-3-1.96v6.11a.75.75 0 0 1-1.5 0V10.5l.01-.13a.75.75 0 0 1 .35-.76l9.9-6.11ZM7.5 14.58v5.36A9.86 9.86 0 0 0 14 22.5a9.56 9.56 0 0 0 6.5-2.56v-5.36l-4.17 2.73a4.25 4.25 0 0 1-4.66 0L7.5 14.58Zm7.94-9.8c-.88-.55-2-.55-2.88 0l-8.91 5.49 8.84 5.78c.92.6 2.1.6 3.02 0l8.84-5.78-8.9-5.5Z"/></svg>