<svg width="24" height="24" viewBox="0 0 24 24" xmlns="http://www.w3.org/2000/svg"><path d="M3 17h7.52l-2 2H3a1 1 0 01-.12-2H3zm0-2h7.85a1.75 1.75 0 01-.78-2H2.88A1 1 0 003 15zm0-8h18.12A1 1 0 0021 5H2.88A1 1 0 003 7zm9.72 9.22a.75.75 0 111.06 1.06l-4.5 4.5a.75.75 0 11-1.06-1.06l4.5-4.5zM3 9h10a1 1 0 01.12 2H3a1 1 0 01-.12-2H3zm13.5-1c.38 0 .7.28.74.66l.14 1.13a3.25 3.25 0 002.83 2.83l1.13.14a.75.75 0 010 1.48l-1.13.14a3.25 3.25 0 00-2.83 2.83l-.14 1.13a.75.75 0 01-1.48 0l-.14-1.13a3.25 3.25 0 00-2.83-2.83l-1.13-.14a.75.75 0 010-1.48l1.13-.14a3.25 3.25 0 002.83-2.83l.14-1.13A.75.75 0 0116.5 8z"/></svg>