<svg width="24" height="24" viewBox="0 0 24 24" xmlns="http://www.w3.org/2000/svg"><path d="M2.75 17h7.78l-1.5 1.5H2.75a.75.75 0 0 1-.1-1.5h.1Zm0-2.5h7.56a1.74 1.74 0 0 1-.24-1.5H2.65a.75.75 0 0 0 .1 1.5Zm9.97 1.72a.75.75 0 1 1 1.06 1.06l-4.5 4.5a.75.75 0 0 1-1.06-1.06l4.5-4.5ZM2.75 9h10.5a.75.75 0 0 1 .1 1.5H2.75a.75.75 0 0 1-.1-1.5h.1Zm0-4h18.5a.75.75 0 0 1 .1 1.5H2.75a.75.75 0 0 1-.1-1.5h.1ZM16.5 8c.38 0 .7.28.74.66l.14 1.13a3.25 3.25 0 0 0 2.83 2.83l1.13.14a.75.75 0 0 1 0 1.48l-1.13.14a3.25 3.25 0 0 0-2.83 2.83l-.14 1.13a.75.75 0 0 1-1.48 0l-.14-1.13a3.25 3.25 0 0 0-2.83-2.83l-1.13-.14a.75.75 0 0 1 0-1.48l1.13-.14a3.25 3.25 0 0 0 2.83-2.83l.14-1.13A.75.75 0 0 1 16.5 8Zm0 3.77a4.76 4.76 0 0 1-1.73 1.73 4.76 4.76 0 0 1 1.73 1.73 4.76 4.76 0 0 1 1.73-1.73 4.76 4.76 0 0 1-1.73-1.73Z"/></svg>