<svg width="20" height="20" viewBox="0 0 20 20" xmlns="http://www.w3.org/2000/svg"><path d="M11.15 6.85a.5.5 0 0 0 .7-.7L10.71 5h1.79A2.5 2.5 0 0 1 15 7.5V12a3 3 0 1 0 1 .17V7.5A3.5 3.5 0 0 0 12.5 4h-1.8l1.15-1.15a.5.5 0 0 0-.7-.7l-2 2a.5.5 0 0 0 0 .7l2 2ZM17 15a2 2 0 1 1-4 0 2 2 0 0 1 4 0ZM8 5a3 3 0 0 1-3 3v4.5A2.5 2.5 0 0 0 7.5 15h1.8l-1.15-1.15a.5.5 0 0 1 .7-.7l2 2c.2.2.2.5 0 .7l-2 2a.5.5 0 0 1-.7-.7L9.29 16H7.5A3.5 3.5 0 0 1 4 12.5V7.83A3 3 0 1 1 8 5ZM7 5a2 2 0 1 0-4 0 2 2 0 0 0 4 0Z"/></svg>