<svg width="24" height="24" viewBox="0 0 24 24" xmlns="http://www.w3.org/2000/svg"><path d="M9 5.5a3.5 3.5 0 0 1-3 3.46V15a3 3 0 0 0 3 3h2.69l-.97-.97a.75.75 0 1 1 1.06-1.06l2.25 2.25c.3.3.3.77 0 1.06l-2.25 2.25a.75.75 0 1 1-1.06-1.06l.97-.97H9A4.5 4.5 0 0 1 4.5 15V8.86A3.5 3.5 0 1 1 9 5.5Zm-1.5 0a2 2 0 1 0-4 0 2 2 0 0 0 4 0Zm14.5 13a3.5 3.5 0 1 1-4-3.46V9a3 3 0 0 0-3-3h-1.94l.97.97a.75.75 0 0 1-1.06 1.06l-2.25-2.25a.75.75 0 0 1 0-1.06l2.25-2.25a.75.75 0 1 1 1.06 1.06l-.97.97H15A4.5 4.5 0 0 1 19.5 9v6.14A3.5 3.5 0 0 1 22 18.5Zm-1.5 0a2 2 0 1 0-4 0 2 2 0 0 0 4 0Z"/></svg>