<svg width="24" height="24" viewBox="0 0 24 24" xmlns="http://www.w3.org/2000/svg"><path d="M3.5 12a8.5 8.5 0 1117 0 8.5 8.5 0 01-17 0zM12 2a10 10 0 100 20 10 10 0 000-20zm2.64 5.1A1.75 1.75 0 0117 8.76v6.5a1.75 1.75 0 01-2.36 1.64l-1.56-.58A2.63 2.63 0 018 15.38v-.95l-.86-.31A1.75 1.75 0 016 12.46v-.95c0-.73.45-1.38 1.14-1.64l7.5-2.77zM9.5 15v.38a1.13 1.13 0 002.17.42L9.5 15zm6-6.24c0-.18-.18-.3-.34-.24l-7.5 2.78a.25.25 0 00-.16.23v.95c0 .1.06.2.16.24l7.5 2.77c.16.06.34-.06.34-.23v-6.5z"/></svg>