<svg width="24" height="24" viewBox="0 0 24 24" xmlns="http://www.w3.org/2000/svg"><path d="M3.5 12a8.5 8.5 0 1 1 17 0 8.5 8.5 0 0 1-17 0ZM12 2a10 10 0 1 0 0 20 10 10 0 0 0 0-20Zm2.64 5.1A1.75 1.75 0 0 1 17 8.76v6.5a1.75 1.75 0 0 1-2.36 1.64l-1.56-.58A2.63 2.63 0 0 1 8 15.38v-.95l-.86-.31A1.75 1.75 0 0 1 6 12.46v-.95c0-.73.45-1.38 1.14-1.64l7.5-2.77ZM9.5 15v.38a1.13 1.13 0 0 0 2.17.42L9.5 15Zm6-6.24c0-.18-.18-.3-.34-.24l-7.5 2.78a.25.25 0 0 0-.16.23v.95c0 .1.06.2.16.24l7.5 2.77c.16.06.34-.06.34-.23v-6.5Z"/></svg>