<svg width="16" height="16" viewBox="0 0 16 16" xmlns="http://www.w3.org/2000/svg"><path d="M5 3a1 1 0 00-1 1v1a1 1 0 001 1h5a1 1 0 001-1V4a1 1 0 00-1-1H5zm0 1h5v1H5V4zm1 3a1 1 0 100 2 1 1 0 000-2zm3 0a1 1 0 100 2 1 1 0 000-2zm-3 3.03a1 1 0 100 2 1 1 0 000-2zm3 0a1 1 0 100 2 1 1 0 000-2zM4.5 1A2.5 2.5 0 002 3.5v8A2.5 2.5 0 004.5 14h6a2.5 2.5 0 002.5-2.5v-8A2.5 2.5 0 0010.5 1h-6zM3 3.5C3 2.67 3.67 2 4.5 2h6c.83 0 1.5.67 1.5 1.5v8c0 .83-.67 1.5-1.5 1.5h-6A1.5 1.5 0 013 11.5v-8zM6.5 16a2.5 2.5 0 01-2-1h6a3.5 3.5 0 003.5-3.5v-8c.6.46 1 1.18 1 2v6a4.5 4.5 0 01-4.5 4.5h-4z"/></svg>