<svg width="16" height="16" viewBox="0 0 16 16" xmlns="http://www.w3.org/2000/svg"><path d="M5 3a1 1 0 0 0-1 1v1a1 1 0 0 0 1 1h5a1 1 0 0 0 1-1V4a1 1 0 0 0-1-1H5Zm0 1h5v1H5V4Zm1 3a1 1 0 1 0 0 2 1 1 0 0 0 0-2Zm3 0a1 1 0 1 0 0 2 1 1 0 0 0 0-2Zm-3 3.03a1 1 0 1 0 0 2 1 1 0 0 0 0-2Zm3 0a1 1 0 1 0 0 2 1 1 0 0 0 0-2ZM4.5 1A2.5 2.5 0 0 0 2 3.5v8A2.5 2.5 0 0 0 4.5 14h6a2.5 2.5 0 0 0 2.5-2.5v-8A2.5 2.5 0 0 0 10.5 1h-6ZM3 3.5C3 2.67 3.67 2 4.5 2h6c.83 0 1.5.67 1.5 1.5v8c0 .83-.67 1.5-1.5 1.5h-6A1.5 1.5 0 0 1 3 11.5v-8ZM6.5 16a2.5 2.5 0 0 1-2-1h6a3.5 3.5 0 0 0 3.5-3.5v-8c.6.46 1 1.18 1 2v6a4.5 4.5 0 0 1-4.5 4.5h-4Z"/></svg>