<svg width="20" height="20" viewBox="0 0 20 20" xmlns="http://www.w3.org/2000/svg"><path d="M13 11h-2v2h2v2h-2v2h2v-2h2v2h2v-2h-2v-2h2v-2h-2v2h-2v-2ZM5 5h2v2H5V5Zm0-2a2 2 0 0 0-2 2v2c0 1.1.9 2 2 2h2a2 2 0 0 0 2-2V5a2 2 0 0 0-2-2H5Zm-.75 1.75c0-.28.22-.5.5-.5h2.5c.28 0 .5.22.5.5v2.5a.5.5 0 0 1-.5.5h-2.5a.5.5 0 0 1-.5-.5v-2.5ZM5 13h2v2H5v-2Zm0-2a2 2 0 0 0-2 2v2c0 1.1.9 2 2 2h2a2 2 0 0 0 2-2v-2a2 2 0 0 0-2-2H5Zm-.75 1.75c0-.28.22-.5.5-.5h2.5c.28 0 .5.22.5.5v2.5a.5.5 0 0 1-.5.5h-2.5a.5.5 0 0 1-.5-.5v-2.5ZM13 5h2v2h-2V5Zm0-2a2 2 0 0 0-2 2v2c0 1.1.9 2 2 2h2a2 2 0 0 0 2-2V5a2 2 0 0 0-2-2h-2Zm-.75 1.75c0-.28.22-.5.5-.5h2.5c.28 0 .5.22.5.5v2.5a.5.5 0 0 1-.5.5h-2.5a.5.5 0 0 1-.5-.5v-2.5Z"/></svg>