<svg width="28" height="28" viewBox="0 0 28 28" xmlns="http://www.w3.org/2000/svg"><path d="M18.33 15v3.33h3.34v3.34H25V25h-3.33v-3.33h-3.34V25H15v-3.33h3.33v-3.34H15V15h3.33Zm-7.83 0a2.5 2.5 0 0 1 2.5 2.5v5a2.5 2.5 0 0 1-2.5 2.5h-5A2.5 2.5 0 0 1 3 22.5v-5A2.5 2.5 0 0 1 5.5 15h5Zm0 2h-5a.5.5 0 0 0-.5.5v5c0 .28.22.5.5.5h5a.5.5 0 0 0 .5-.5v-5a.5.5 0 0 0-.5-.5Zm-.75 1.25v3.5h-3.5v-3.5h3.5ZM25 15v3.33h-3.33V15H25ZM10.5 3A2.5 2.5 0 0 1 13 5.5v5a2.5 2.5 0 0 1-2.5 2.5h-5A2.5 2.5 0 0 1 3 10.5v-5A2.5 2.5 0 0 1 5.5 3h5Zm12 0A2.5 2.5 0 0 1 25 5.5v5a2.5 2.5 0 0 1-2.5 2.5h-5a2.5 2.5 0 0 1-2.5-2.5v-5A2.5 2.5 0 0 1 17.5 3h5Zm-12 2h-5a.5.5 0 0 0-.5.5v5c0 .28.22.5.5.5h5a.5.5 0 0 0 .5-.5v-5a.5.5 0 0 0-.5-.5Zm12 0h-5a.5.5 0 0 0-.5.5v5c0 .28.22.5.5.5h5a.5.5 0 0 0 .5-.5v-5a.5.5 0 0 0-.5-.5Zm-.75 1.25v3.5h-3.5v-3.5h3.5Zm-12 0v3.5h-3.5v-3.5h3.5Z"/></svg>