<svg width="24" height="24" viewBox="0 0 24 24" xmlns="http://www.w3.org/2000/svg"><path d="M5.25 2h5a.75.75 0 0 1 0 1.5h-5c-.97 0-1.75.78-1.75 1.75v2.96c-.58.2-1.1.55-1.5.99V5.25C2 3.45 3.46 2 5.25 2Zm10.54 18.5c-.2.58-.55 1.1-.99 1.5h3.95c1.8 0 3.25-1.46 3.25-3.25v-5a.75.75 0 0 0-1.5 0v5c0 .97-.78 1.75-1.75 1.75h-2.96Zm5.46-9.5c.41 0 .75-.34.75-.75v-5C22 3.45 20.54 2 18.75 2h-5a.75.75 0 0 0 0 1.5h5c.97 0 1.75.78 1.75 1.75v5c0 .41.34.75.75.75ZM7 9h3v3.5H7V9Zm0 5h3v3.5H7V14Zm4.5 0v3.5H15V14h-3.5ZM7 19h3v3H7v-3Zm4.5 0v3h.75A2.75 2.75 0 0 0 15 19.25V19h-3.5Zm0-10v3.5H15v-.75A2.75 2.75 0 0 0 12.25 9h-.75Zm-6 0h-.75A2.75 2.75 0 0 0 2 11.75v.75h3.5V9Zm0 5H2v3.5h3.5V14Zm0 5H2v.25A2.75 2.75 0 0 0 4.75 22h.75v-3Z"/></svg>