<svg width="20" height="20" viewBox="0 0 20 20" xmlns="http://www.w3.org/2000/svg"><path d="M8.5 9h3c.83 0 1.5.67 1.5 1.5v3c0 .83-.67 1.5-1.5 1.5h-3A1.5 1.5 0 0 1 7 13.5v-3C7 9.67 7.67 9 8.5 9ZM8 10.5v.5h2v-1H8.5a.5.5 0 0 0-.5.5ZM8 12v1.5c0 .28.22.5.5.5H10v-2H8Zm3.5 2a.5.5 0 0 0 .5-.5v-3a.5.5 0 0 0-.5-.5H11v4h.5ZM7 2a3 3 0 0 0-3 3v10a3 3 0 0 0 3 3h6a3 3 0 0 0 3-3V7.54a3 3 0 0 0-.88-2.13L12.6 2.88A3 3 0 0 0 10.46 2H7ZM5 5c0-1.1.9-2 2-2h3.46a2 2 0 0 1 1.42.59l2.53 2.53A2 2 0 0 1 15 7.54V15a2 2 0 0 1-2 2H7a2 2 0 0 1-2-2V5Z"/></svg>