<svg width="16" height="16" viewBox="0 0 16 16" xmlns="http://www.w3.org/2000/svg"><path d="M1 4.75C1 3.78 1.78 3 2.75 3h10.5c.97 0 1.75.78 1.75 1.75v1.79a3.98 3.98 0 0 0-2.37-.52.5.5 0 0 0-.13-.02h-3a.5.5 0 0 0 0 1h.85a4 4 0 0 0-1.28 2.24.5.5 0 0 0-.05.39 4.05 4.05 0 0 0 .98 3.02V13H2.75C1.78 13 1 12.22 1 11.25v-6.5Zm4.26 2.96a1.36 1.36 0 1 0 0-2.71 1.36 1.36 0 0 0 0 2.71Zm-1.4.68a.86.86 0 0 0-.86.86c0 .77.52 1.43 1.27 1.62l.05.01c.62.16 1.27.16 1.88 0h.06a1.67 1.67 0 0 0 1.26-1.63.86.86 0 0 0-.86-.86h-2.8ZM16 10a3 3 0 1 1-6 0 3 3 0 0 1 6 0Zm-1 3.46a3.98 3.98 0 0 1-4 0v2.29c0 .2.21.31.38.22L13 15l1.62.97c.17.1.38-.03.38-.22v-2.29Z"/></svg>