<svg width="20" height="20" viewBox="0 0 20 20" xmlns="http://www.w3.org/2000/svg"><path d="M16.5 2c.28 0 .5.22.5.5V4a2 2 0 0 1-2 2H5a2 2 0 0 1-2-2V2.5a.5.5 0 0 1 1 0V4a1 1 0 0 0 1 1h2V2.5a.5.5 0 0 1 1 0V5h4V2.5a.5.5 0 0 1 1 0V5h2a1 1 0 0 0 1-1V2.5c0-.28.22-.5.5-.5Zm0 16a.5.5 0 0 0 .5-.5V16a2 2 0 0 0-2-2H5a2 2 0 0 0-2 2v1.5a.5.5 0 0 0 1 0V16a1 1 0 0 1 1-1h2v2.5a.5.5 0 0 0 1 0V15h4v2.5a.5.5 0 0 0 1 0V15h2a1 1 0 0 1 1 1v1.5c0 .28.22.5.5.5Zm1-7.5a.5.5 0 0 0 0-1h-4.89a5 5 0 0 1-.48.5l.14.13c.12.12.25.24.35.37h4.88Zm-15-1h4.89a5 5 0 0 0 .34.35l.14.14-.14.14c-.12.12-.25.24-.35.37H2.5a.5.5 0 0 1 0-1Zm9.35 2.35a.5.5 0 0 0 0-.7L10.71 10l1.14-1.15a.5.5 0 0 0-.7-.7L10 9.29 8.85 8.15a.5.5 0 1 0-.7.7L9.29 10l-1.14 1.15a.5.5 0 0 0 .7.7L10 10.71l1.15 1.14c.2.2.5.2.7 0Z"/></svg>