<svg width="16" height="16" viewBox="0 0 16 16" xmlns="http://www.w3.org/2000/svg"><path d="M1 4.5A2.5 2.5 0 0 1 3.5 2h2.09c.4 0 .78.16 1.06.44L8 3.79 5.94 5.85a.5.5 0 0 1-.35.15H1V4.5ZM1 7v4.5A2.5 2.5 0 0 0 3.5 14h5a1.5 1.5 0 0 1-1.38-2.08l2.08-5A1.5 1.5 0 0 1 10.58 6h3.48c.36 0 .68.12.93.33A2.5 2.5 0 0 0 12.5 4H9.2L6.66 6.56A1.5 1.5 0 0 1 5.59 7H1Zm7.5 6h1.75l-.59 2.36c-.12.48.46.83.83.49l4.87-4.55a.75.75 0 0 0-.51-1.3h-1.1l.78-2.34a.5.5 0 0 0-.47-.66h-3.47a.5.5 0 0 0-.47.3l-2.08 5c-.14.34.1.7.46.7Z"/></svg>