<svg width="16" height="16" viewBox="0 0 16 16" xmlns="http://www.w3.org/2000/svg"><path d="M2 4.5V6h3.59a.5.5 0 0 0 .35-.15L7.29 4.5 5.94 3.15A.5.5 0 0 0 5.59 3H3.5C2.67 3 2 3.67 2 4.5Zm-1 0A2.5 2.5 0 0 1 3.5 2h2.09c.4 0 .78.16 1.06.44L8.2 4h4.29A2.5 2.5 0 0 1 15 6.33c-.26-.2-.58-.33-.94-.33h-.15c-.2-.58-.76-1-1.41-1H8.2L6.66 6.56A1.5 1.5 0 0 1 5.59 7H2v4.5c0 .83.67 1.5 1.5 1.5h3.59c.2.57.74 1 1.41 1h-5A2.5 2.5 0 0 1 1 11.5v-7ZM8.5 13h1.75l-.59 2.36c-.12.48.46.83.83.49l4.87-4.55a.75.75 0 0 0-.51-1.3h-1.1l.78-2.34a.5.5 0 0 0-.47-.66h-3.47a.5.5 0 0 0-.47.3l-2.08 5c-.14.34.1.7.46.7Z"/></svg>