<svg width="20" height="20" viewBox="0 0 20 20" xmlns="http://www.w3.org/2000/svg"><path d="M10.56 4.5h4.94a2.5 2.5 0 0 1 2.48 2.17l.01.17L18 7v2h-3.42c-.6 0-1.15.36-1.38.92l-2.08 5A1.5 1.5 0 0 0 12.5 17h-8A2.5 2.5 0 0 1 2 14.66V7.5H7.22c.3-.04.6-.16.83-.36l.1-.1 2.41-2.54ZM7.16 3c.28 0 .54.07.77.21l.14.09 1.31.99-1.95 2.05-.06.06a.5.5 0 0 1-.22.1H2v-1A2.5 2.5 0 0 1 4.34 3h2.83Zm6.45 13c.33 0 .57.3.49.62l-.44 1.74c-.12.48.46.83.83.49l4.87-4.55a.75.75 0 0 0-.51-1.3h-.4a.5.5 0 0 1-.48-.66l.56-1.68a.5.5 0 0 0-.47-.66h-3.47a.5.5 0 0 0-.47.3l-2.08 5c-.14.34.1.7.46.7h1.11Z"/></svg>