<svg width="20" height="20" viewBox="0 0 20 20" xmlns="http://www.w3.org/2000/svg"><path d="M2 5.5A2.5 2.5 0 0 1 4.5 3h2.48c.47 0 .91.18 1.24.51L9.5 4.8 7.44 6.85a.5.5 0 0 1-.35.15H2V5.5ZM2 8v6.5A2.5 2.5 0 0 0 4.5 17h8a1.5 1.5 0 0 1-1.38-2.08l2.08-5A1.5 1.5 0 0 1 14.58 9H18V7.5A2.5 2.5 0 0 0 15.5 5h-4.8L8.16 7.56A1.5 1.5 0 0 1 7.09 8H2Zm10.5 8h1.75l-.59 2.36c-.12.48.46.83.83.49l4.87-4.55a.75.75 0 0 0-.51-1.3h-1.1l.78-2.34a.5.5 0 0 0-.47-.66h-3.47a.5.5 0 0 0-.47.3l-2.08 5c-.14.34.1.7.46.7Z"/></svg>