<svg width="24" height="24" viewBox="0 0 24 24" xmlns="http://www.w3.org/2000/svg"><path d="M2 8V6.25C2 4.45 3.46 3 5.25 3h2.88c.6 0 1.17.24 1.59.66l1.53 1.53-2.6 2.59a.75.75 0 0 1-.52.22H2Zm0 1.5v8.25C2 19.55 3.46 21 5.25 21h10.72l.25-1H14.5a1.5 1.5 0 0 1-1.36-2.14l2.82-6a1.5 1.5 0 0 1 1.36-.86H22V8.75c0-1.8-1.46-3.25-3.25-3.25h-5.69L9.72 8.84c-.42.42-1 .66-1.6.66H2ZM17.32 12h4.83a.5.5 0 0 1 .43.75L20.75 16h1.5c.64 0 .99.76.56 1.24L18 22.75c-.5.58-1.45.09-1.26-.66L17.5 19h-3a.5.5 0 0 1-.45-.71l2.82-6a.5.5 0 0 1 .45-.29Z"/></svg>