<svg width="24" height="24" viewBox="0 0 24 24" xmlns="http://www.w3.org/2000/svg"><path d="M13.82 6.5h5.93c1.14 0 2.08.84 2.23 1.94l.01.16.01.15V11h-4.68a1.5 1.5 0 0 0-1.36.86l-2.82 6A1.5 1.5 0 0 0 14.5 20H4.25c-1.2 0-2.17-.93-2.24-2.1L2 17.75V10.5h6.4c.4-.04.77-.18 1.1-.4l.15-.12 4.17-3.48ZM8.21 4c.46 0 .9.14 1.28.4l.16.12 2.1 1.75-3.06 2.56-.09.06a.75.75 0 0 1-.29.1l-.1.01H2V6.25c0-1.2.93-2.17 2.1-2.24L4.25 4h3.96Zm9.1 8h4.84a.5.5 0 0 1 .43.75L20.75 16h1.5c.64 0 .99.76.56 1.24L18 22.75c-.5.58-1.45.09-1.26-.66L17.5 19h-3a.5.5 0 0 1-.45-.71l2.82-6a.5.5 0 0 1 .45-.29Z"/></svg>