<svg width="24" height="24" viewBox="0 0 24 24" xmlns="http://www.w3.org/2000/svg"><path d="M3.5 6.25V8h4.63c.2 0 .39-.08.53-.22l1.53-1.53-1.53-1.53a.75.75 0 0 0-.53-.22H5.25c-.97 0-1.75.78-1.75 1.75Zm-1.5 0C2 4.45 3.46 3 5.25 3h2.88c.6 0 1.17.24 1.59.66l1.84 1.84h7.19c1.8 0 3.25 1.46 3.25 3.25V11h-1.5V8.75c0-.97-.78-1.75-1.75-1.75h-7.19L9.72 8.84c-.42.42-1 .66-1.6.66H3.5v8.25c0 .97.78 1.75 1.75 1.75h8.13c.27.3.66.5 1.12.5h1.72l-.25 1H5.25A3.25 3.25 0 0 1 2 17.75V6.25ZM17.32 12h4.83a.5.5 0 0 1 .43.75L20.75 16h1.5c.64 0 .99.76.56 1.24L18 22.75c-.5.58-1.45.09-1.26-.66L17.5 19h-3a.5.5 0 0 1-.45-.71l2.82-6a.5.5 0 0 1 .45-.29Z"/></svg>