<svg width="48" height="48" viewBox="0 0 48 48" xmlns="http://www.w3.org/2000/svg"><path d="M4 7.25C4 5.45 5.46 4 7.25 4h33.5C42.55 4 44 5.46 44 7.25v2.5c0 1.35-.83 2.51-2 3V26a18 18 0 0 1-36 0V12.75a3.25 3.25 0 0 1-2-3v-2.5ZM8.5 13v13a15.5 15.5 0 0 0 31 0V13h-31Zm33-3.25v-2.5a.75.75 0 0 0-.75-.75H7.25a.75.75 0 0 0-.75.75v2.5c0 .41.34.75.75.75h33.5c.41 0 .75-.34.75-.75ZM15.5 27a8.5 8.5 0 1 1 17 0 8.5 8.5 0 0 1-17 0ZM24 16a11 11 0 1 0 0 22 11 11 0 0 0 0-22Zm-6 11a6 6 0 1 1 12 0 6 6 0 0 1-12 0Z"/></svg>