<svg width="20" height="20" viewBox="0 0 20 20" xmlns="http://www.w3.org/2000/svg"><path d="M10.32 2.01 10 2a4 4 0 0 0-3.84 5.13l-3.98 3.99a.6.6 0 0 0-.18.42v2.86c0 .33.27.6.6.6h2.8a.6.6 0 0 0 .6-.6V13h1.9a.6.6 0 0 0 .6-.6v-1.7l.73-.73c-.21-.26-.4-.54-.56-.84l-1 .99a.6.6 0 0 0-.17.42V12H5.6a.6.6 0 0 0-.6.6V14H3v-2.3L7.32 7.4l-.12-.3a3 3 0 0 1 1.96-3.97c.33-.42.72-.8 1.16-1.1Zm3.18 4.24a.75.75 0 1 0 0-1.5.75.75 0 0 0 0 1.5ZM9 6.5a4.5 4.5 0 1 1 7 3.74v2.05l.78.79a.6.6 0 0 1 0 .84L15.71 15l1.06 1.07a.6.6 0 0 1-.04.89l-2.36 1.88a.6.6 0 0 1-.74 0l-2.4-1.92a.6.6 0 0 1-.23-.47v-6.2A4.5 4.5 0 0 1 9 6.5ZM13.5 3a3.5 3.5 0 0 0-1.75 6.53.5.5 0 0 1 .25.43v6.3l2 1.6 1.75-1.4-1.03-1.04a.6.6 0 0 1 0-.84l1.07-1.08-.61-.62a.6.6 0 0 1-.18-.42v-2.5c0-.17.1-.34.25-.43A3.5 3.5 0 0 0 13.5 3Z"/></svg>