<svg width="20" height="20" viewBox="0 0 20 20" xmlns="http://www.w3.org/2000/svg"><path d="M8.5 2c.28 0 .5.22.5.5V5h1.5a.5.5 0 1 1 0 1H9v4.38l-1 1V2.5c0-.28.22-.5.5-.5Z"/><path d="M14.11 6.67a2.27 2.27 0 0 1 3.09-.13l.13.12.12.14c.73.85.73 2.11 0 2.96l-.12.13-6.9 6.93a1.5 1.5 0 0 1-.55.35l-.16.05-3.1.77a.5.5 0 0 1-.62-.53l.02-.09.8-3.08c.05-.2.14-.4.28-.57l.1-.12 6.91-6.93Z"/><path d="M2 3.5c0-.28.22-.5.5-.5h4a.5.5 0 0 1 .5.43c.19 1.35-.46 4.82-4.3 6.53a.5.5 0 1 1-.4-.92A5.88 5.88 0 0 0 6.02 4H2.5a.5.5 0 0 1-.5-.5Z"/></svg>