<svg width="24" height="24" viewBox="0 0 24 24" xmlns="http://www.w3.org/2000/svg"><path d="M10.75 2.5c.41 0 .75.34.75.75V6.5H13A.75.75 0 0 1 13 8h-1.5v3.03l-1.5 1.5V3.25c0-.41.34-.75.75-.75Zm-.43 11.12 1.18-1.18 4-4A3.22 3.22 0 0 1 20.07 13l-7.12 7.1c-.27.27-.59.46-.94.57l-4.3 1.29a1 1 0 0 1-1.24-1.27l1.36-4.22c.11-.34.3-.65.56-.9l1.94-1.95Zm-.88 3a.75.75 0 0 0-.19.3l-1.07 3.33 3.38-1.02c.12-.03.23-.1.32-.18L19 11.94a1.72 1.72 0 1 0-2.43-2.44l-7.13 7.13ZM2 4.26c0-.41.34-.75.75-.75h5c.39 0 .71.3.75.68.2 2.14-1.14 5.97-5.53 7.29a.75.75 0 1 1-.44-1.44A6 6 0 0 0 7 5H2.75A.75.75 0 0 1 2 4.25Z"/></svg>