<svg width="24" height="24" viewBox="0 0 24 24" xmlns="http://www.w3.org/2000/svg"><path d="M9.8 2.03a.75.75 0 00-.1 1.5 10.5 10.5 0 019.78 9.77.75.75 0 101.5-.1A12 12 0 009.8 2.03zm-1.3 13.6a1.13 1.13 0 100-2.26 1.13 1.13 0 000 2.25zm-.52 6.14l-.4-.38a4307.72 4307.72 0 01-2.96-2.96 5.5 5.5 0 117.77 0l-2.01 2-1.35 1.34c-.29.3-.76.3-1.05 0zm-2.3-10.05a4 4 0 000 5.65l2.04 2.03.78.78.82-.8 2.01-2a4 4 0 10-5.65-5.66zM9.82 5.5A.75.75 0 009.68 7 6.99 6.99 0 0116 13.3a.75.75 0 101.5-.13A8.49 8.49 0 009.82 5.5z"/></svg>