<svg width="24" height="24" viewBox="0 0 24 24" xmlns="http://www.w3.org/2000/svg"><path d="M12 17a2 2 0 1 0 0-4 2 2 0 0 0 0 4Zm2-12a2 2 0 0 1-.54 1.37l2.62 3.28c.07.1.2.12.3.07l2.66-1.33a2 2 0 1 1 2.4 1.56l-1.8 9.62A1.75 1.75 0 0 1 17.92 21H6.08c-.84 0-1.56-.6-1.72-1.43l-1.8-9.62a2 2 0 1 1 2.4-1.56l2.65 1.33c.1.05.24.02.3-.07l2.63-3.28A2 2 0 0 1 12 3a2 2 0 0 1 2 2Zm-2 2h-.04L9.1 10.59c-.51.64-1.41.84-2.15.47l-2.81-1.4a2 2 0 0 1-.1.05l1.8 9.59c.03.11.13.2.25.2h11.84c.12 0 .22-.09.25-.2l1.8-9.59a2.02 2.02 0 0 1-.1-.06l-2.81 1.4c-.74.38-1.64.18-2.15-.46L12.04 7H12Z"/></svg>