<svg width="16" height="16" viewBox="0 0 16 16" xmlns="http://www.w3.org/2000/svg"><path d="m10.65 1.44 2.91 2.91c.28.28.44.66.44 1.06V13a2 2 0 0 1-2 2h-1.6c.37-.23.65-.58.78-1H12a1 1 0 0 0 1-1V6h-2.5A1.5 1.5 0 0 1 9 4.5V2H6a1 1 0 0 0-1 1v6.61c-.05.08-.1.17-.13.26a.67.67 0 0 0-.12.06A2.48 2.48 0 0 0 4 9.2V3a2 2 0 0 1 2-2h3.59c.4 0 .78.16 1.06.44Zm-.5 3.41c.09.1.22.15.35.15h2.29L10 2.21V4.5c0 .13.05.26.15.35ZM2.5 15A1.5 1.5 0 0 1 1 13.5v-2a1.5 1.5 0 0 1 3 0 .5.5 0 0 1-1 0 .5.5 0 0 0-1 0v2a.5.5 0 0 0 1 0 .5.5 0 0 1 1 0A1.5 1.5 0 0 1 2.5 15Zm7-2H9v-1h.5a.5.5 0 0 0 0-1H9v-.5a.5.5 0 0 0-1 0v.5H7v-.5a.5.5 0 0 0-1 0v.5h-.5a.5.5 0 0 0 0 1H6l.01 1H5.5a.5.5 0 0 0 0 1h.52v.5a.5.5 0 0 0 1 0V14H8v.5a.5.5 0 0 0 1 0V14h.5a.5.5 0 0 0 0-1ZM8 13h-.99v-1H8v1Z"/></svg>