<svg width="20" height="20" viewBox="0 0 20 20" xmlns="http://www.w3.org/2000/svg"><path d="M3 5.75A2.75 2.75 0 0 1 5.75 3h8.5A2.75 2.75 0 0 1 17 5.75V9c-.69.03-1.37.31-1.9.84L11.94 13H9.5a.5.5 0 0 0 0 1h1.44l-.67.67c-.4.41-.7.92-.84 1.49l-.21.84H5.75A2.75 2.75 0 0 1 3 14.25v-8.5ZM6.75 8a.75.75 0 1 0 0-1.5.75.75 0 0 0 0 1.5Zm.75 2.25a.75.75 0 1 0-1.5 0 .75.75 0 0 0 1.5 0ZM6.75 14a.75.75 0 1 0 0-1.5.75.75 0 0 0 0 1.5ZM9 7.5c0 .28.22.5.5.5h4a.5.5 0 0 0 0-1h-4a.5.5 0 0 0-.5.5Zm.5 2.5a.5.5 0 0 0 0 1h4a.5.5 0 0 0 0-1h-4Zm1.48 5.38 4.83-4.83a1.87 1.87 0 1 1 2.64 2.64l-4.83 4.83a2.2 2.2 0 0 1-1.02.58l-1.5.37a.89.89 0 0 1-1.07-1.07l.37-1.5c.1-.39.3-.74.58-1.02Z"/></svg>