<svg width="24" height="24" viewBox="0 0 24 24" xmlns="http://www.w3.org/2000/svg"><path d="M6.25 3A3.25 3.25 0 0 0 3 6.25v11.5C3 19.55 4.46 21 6.25 21h4.92l.35-1.42c.16-.65.5-1.24.97-1.72l1.37-1.36h-2.61a.75.75 0 1 1 0-1.5h4.1l3.04-3.04a3.28 3.28 0 0 1 2.61-.95V6.25C21 4.45 19.54 3 17.75 3H6.25Zm2.5 5.25a1 1 0 1 1-2 0 1 1 0 0 1 2 0Zm1.75 0c0-.41.34-.75.75-.75h5.5a.75.75 0 0 1 0 1.5h-5.5a.75.75 0 0 1-.75-.75Zm0 3.75c0-.41.34-.75.75-.75h5.5a.75.75 0 1 1 0 1.5h-5.5a.75.75 0 0 1-.75-.75Zm-2.75-1a1 1 0 1 1 0 2 1 1 0 0 1 0-2Zm1 4.75a1 1 0 1 1-2 0 1 1 0 0 1 2 0Zm10.35-3.08-5.9 5.9c-.35.35-.6.78-.7 1.25l-.47 1.83c-.2.8.53 1.52 1.32 1.32l1.83-.46c.47-.12.9-.36 1.25-.7l5.9-5.9a2.29 2.29 0 0 0-3.23-3.24Z"/></svg>