<svg width="24" height="24" viewBox="0 0 24 24" xmlns="http://www.w3.org/2000/svg"><path d="M3 6.25C3 4.45 4.46 3 6.25 3h11.5C19.55 3 21 4.46 21 6.25v4.76a3.3 3.3 0 0 0-1.5.22V6.25c0-.97-.78-1.75-1.75-1.75H6.25c-.97 0-1.75.78-1.75 1.75v11.5c0 .97.78 1.75 1.75 1.75h5.3l-.03.08-.35 1.42H6.25A3.25 3.25 0 0 1 3 17.75V6.25ZM15.36 15l-1.5 1.5h-2.61a.75.75 0 1 1 0-1.5h4.1ZM7.75 9.25a1 1 0 1 0 0-2 1 1 0 0 0 0 2Zm3.5-1.75a.75.75 0 0 0 0 1.5h5.5a.75.75 0 0 0 0-1.5h-5.5ZM10.5 12c0-.41.34-.75.75-.75h5.5a.75.75 0 1 1 0 1.5h-5.5a.75.75 0 0 1-.75-.75Zm-2.75 1a1 1 0 1 0 0-2 1 1 0 0 0 0 2Zm0 3.75a1 1 0 1 0 0-2 1 1 0 0 0 0 2Zm11.35-4.08-5.9 5.9c-.35.35-.6.78-.7 1.25l-.47 1.83c-.2.8.53 1.52 1.32 1.32l1.83-.46c.47-.12.9-.36 1.25-.7l5.9-5.9a2.29 2.29 0 0 0-3.23-3.24Z"/></svg>