<svg width="24" height="24" viewBox="0 0 24 24" xmlns="http://www.w3.org/2000/svg"><path d="M17.74 10.75c.6.6 1.1 1.3 1.5 2.07a.75.75 0 1 1-1.34.68 6.56 6.56 0 0 0-11.71-.02.75.75 0 1 1-1.34-.67 8.06 8.06 0 0 1 12.9-2.06Zm-2.1 3.07c.45.45.82 1 1.08 1.58a.75.75 0 1 1-1.38.6A3.6 3.6 0 0 0 8.75 16a.75.75 0 1 1-1.37-.6 5.1 5.1 0 0 1 8.26-1.57Zm4.8-5.54c.52.5 1 1.09 1.42 1.7a.75.75 0 1 1-1.24.85 10.45 10.45 0 0 0-17.23 0 .75.75 0 0 1-1.23-.86 11.95 11.95 0 0 1 18.29-1.69Zm-7.38 8.16a1.5 1.5 0 1 1-2.12 2.12 1.5 1.5 0 0 1 2.12-2.12Z"/></svg>