<svg width="20" height="20" viewBox="0 0 20 20" xmlns="http://www.w3.org/2000/svg"><path d="M10 3c2.82 0 4.41 1.92 4.65 4.25h.07a3.3 3.3 0 0 1 3.18 2.54c-.17-.1-.35-.2-.53-.27A7.47 7.47 0 0 0 14.5 9c-1.07 0-2.08.18-2.87.52-.39.17-.77.4-1.07.7-.3.3-.56.73-.56 1.28V14H5.28A3.33 3.33 0 0 1 2 10.62a3.33 3.33 0 0 1 3.28-3.37h.07C5.6 4.9 7.18 3 10 3Zm7.47 11.28c-.8.47-1.86.72-2.97.72-1.1 0-2.16-.25-2.97-.72-.18-.1-.36-.22-.53-.36V17c0 1.1 1.57 2 3.5 2s3.5-.9 3.5-2v-3.08c-.17.14-.35.26-.53.36ZM14.5 10c-1.93 0-3.5.9-3.5 2s1.57 2 3.5 2 3.5-.9 3.5-2-1.57-2-3.5-2Z"/></svg>