<svg width="32" height="32" viewBox="0 0 32 32" xmlns="http://www.w3.org/2000/svg"><path d="M6.5 7.11V7a4 4 0 0 1 4-4h12A6.5 6.5 0 0 1 29 9.5V17a4 4 0 0 1-4 4v.5a4.5 4.5 0 0 1-4.5 4.5h-5.64l-4.4 3.65A1.5 1.5 0 0 1 8 28.5V26H7a4 4 0 0 1-4-4V11.5a4.5 4.5 0 0 1 3.5-4.39Zm2-.11h12a4.5 4.5 0 0 1 4.5 4.5V19a2 2 0 0 0 2-2V9.5A4.5 4.5 0 0 0 22.5 5h-12a2 2 0 0 0-2 2Zm-1 2A2.5 2.5 0 0 0 5 11.5V22c0 1.1.9 2 2 2h2a1 1 0 0 1 1 1v2.43l3.86-3.2a1 1 0 0 1 .64-.23h6a2.5 2.5 0 0 0 2.5-2.5v-10A2.5 2.5 0 0 0 20.5 9h-13Z"/></svg>