<svg width="20" height="20" viewBox="0 0 20 20" xmlns="http://www.w3.org/2000/svg"><path d="M4.5 2c.28 0 .5.22.5.5v2a.5.5 0 0 1-.5.5h-2a.5.5 0 0 1 0-1H4V2.5c0-.28.22-.5.5-.5Zm11 0c.28 0 .5.22.5.5V4h1.5a.5.5 0 0 1 0 1h-2a.5.5 0 0 1-.5-.5v-2c0-.28.22-.5.5-.5Zm-11 16a.5.5 0 0 0 .5-.5v-2a.5.5 0 0 0-.5-.5h-2a.5.5 0 0 0 0 1H4v1.5c0 .28.22.5.5.5Zm11 0a.5.5 0 0 0 .5-.5V16h1.5a.5.5 0 0 0 0-1h-2a.5.5 0 0 0-.5.5v2c0 .28.22.5.5.5ZM6 6a1 1 0 0 1 1-1h6a1 1 0 0 1 1 1v8a1 1 0 0 1-1 1H7a1 1 0 0 1-1-1V6Zm2 2.5c0 .28.22.5.5.5h3a.5.5 0 0 0 0-1h-3a.5.5 0 0 0-.5.5Zm0 2c0 .28.22.5.5.5h2a.5.5 0 0 0 0-1h-2a.5.5 0 0 0-.5.5Z"/></svg>