<svg width="24" height="24" viewBox="0 0 24 24" xmlns="http://www.w3.org/2000/svg"><path d="M17.25 2A2.75 2.75 0 0120 4.75v6.6c-.24-.06-.49-.1-.75-.1H16V6.73c0-.4-.34-.73-.75-.73a.74.74 0 00-.75.73v4.82A2.75 2.75 0 0013 14v.05c-.48.1-.92.34-1.26.67l-.03-3a.73.73 0 00-1.46.01l.04 3.55c0 .4.33.72.73.72h.03c-.03.16-.05.33-.05.5V20H4.75A2.75 2.75 0 012 17.25V4.75A2.75 2.75 0 014.75 2h12.5zM6.75 8a.75.75 0 00-.75.75v6.5a.75.75 0 001.5 0v-6.5A.75.75 0 006.75 8zM14 15h-.5c-.83 0-1.5.67-1.5 1.5V18h2.5v-.25a.75.75 0 011.5 0V18h3v-.25a.75.75 0 011.5 0V18H23v-1.5c0-.83-.67-1.5-1.5-1.5H21v-1c0-.97-.78-1.75-1.75-1.75h-3.5c-.97 0-1.75.78-1.75 1.75v1zm1.5-1c0-.14.11-.25.25-.25h3.5c.14 0 .25.11.25.25v1h-4v-1zM12 21.5v-2h2.5v.75a.75.75 0 001.5 0v-.75h3v.75a.75.75 0 001.5 0v-.75H23v2c0 .83-.67 1.5-1.5 1.5h-8a1.5 1.5 0 01-1.5-1.5z"/></svg>