<svg width="16" height="16" viewBox="0 0 16 16" xmlns="http://www.w3.org/2000/svg"><path d="m11.58 12.29 2.57 2.56a.5.5 0 0 0 .7-.7l-13-13a.5.5 0 1 0-.7.7L2.99 3.7A5.97 5.97 0 0 0 2 7c0 2.87 1.93 5.5 5.73 7.92.17.1.37.1.54 0a17.98 17.98 0 0 0 3.31-2.63Zm-.7-.7c-.69.7-1.54 1.4-2.56 2.1L8 13.9l-.32-.2C4.54 11.55 3 9.32 3 7c0-.94.26-1.83.71-2.58l7.16 7.16ZM9.45 7.33l-1.8-1.8a1.5 1.5 0 0 1 1.8 1.8Zm2.65 2.65c.6-.98.89-1.97.89-2.99a5 5 0 0 0-7.93-4.05l-.71-.72A6 6 0 0 1 14 7c0 1.29-.39 2.52-1.16 3.72l-.73-.73Z"/></svg>