<svg width="24" height="24" viewBox="0 0 24 24" xmlns="http://www.w3.org/2000/svg"><path d="M10.25 3.5h3.5a.75.75 0 010 1.5h-3.5a.75.75 0 010-1.5zm3.5-1.5h-3.5c-1.16 0-2.11.87-2.24 2H6.25C5.01 4 4 5 4 6.25v13.5C4 20.99 5 22 6.25 22h11.5c1.24 0 2.25-1 2.25-2.25V6.25C20 5.01 19 4 17.75 4h-1.76a2.25 2.25 0 00-2.24-2zm2.75 11.75v3.5a.75.75 0 01-1.5 0v-3.5a.75.75 0 011.5 0zM12 11c.41 0 .75.34.75.75v5.5a.75.75 0 01-1.5 0v-5.5c0-.41.34-.75.75-.75zM9 9.75v7.5a.75.75 0 01-1.5 0v-7.5a.75.75 0 011.5 0z"/></svg>