<svg width="24" height="24" viewBox="0 0 24 24" xmlns="http://www.w3.org/2000/svg"><path d="M15.99 4a2.25 2.25 0 00-2.24-2h-3.5c-1.16 0-2.11.87-2.24 2H6.25C5.01 4 4 5 4 6.25v13.5C4 20.99 5 22 6.25 22h11.5c1.24 0 2.25-1 2.25-2.25V6.25C20 5.01 19 4 17.75 4h-1.76zm0 .1l.01.15V4.1zm-5.74 2.4h3.5c.78 0 1.47-.4 1.87-1h2.13c.41 0 .75.34.75.75v13.5c0 .41-.34.75-.75.75H6.25a.75.75 0 01-.75-.75V6.25c0-.41.34-.75.75-.75h2.13c.4.6 1.09 1 1.87 1zm0-3h3.5a.75.75 0 010 1.5h-3.5a.75.75 0 010-1.5zm6.25 10.75a.75.75 0 00-1.5 0v3a.75.75 0 001.5 0v-3zM12 11c.41 0 .75.34.75.75v5.5a.75.75 0 01-1.5 0v-5.5c0-.41.34-.75.75-.75zM9 9.75a.75.75 0 00-1.5 0v7.5a.75.75 0 001.5 0v-7.5z"/></svg>