<svg width="32" height="32" viewBox="0 0 32 32" xmlns="http://www.w3.org/2000/svg"><path d="M9 13a2 2 0 0 0-2 2v8c0 1.1.9 2 2 2h3a2 2 0 0 0 2-2v-8a2 2 0 0 0-2-2H9Zm0 2h3v8H9v-8Zm7-1a1 1 0 0 1 1-1h7a1 1 0 1 1 0 2h-7a1 1 0 0 1-1-1Zm1 3a1 1 0 1 0 0 2h5a1 1 0 1 0 0-2h-5ZM3 7.5A4.5 4.5 0 0 1 7.5 3h17A4.5 4.5 0 0 1 29 7.5v17a4.5 4.5 0 0 1-4.5 4.5h-17A4.5 4.5 0 0 1 3 24.5v-17ZM7.5 5A2.5 2.5 0 0 0 5 7.5V9h22V7.5A2.5 2.5 0 0 0 24.5 5h-17ZM27 11H5v13.5A2.5 2.5 0 0 0 7.5 27h17a2.5 2.5 0 0 0 2.5-2.5V11Z"/></svg>