<svg width="24" height="24" viewBox="0 0 24 24" xmlns="http://www.w3.org/2000/svg"><path d="M3 6.25C3 4.45 4.46 3 6.25 3h11.5C19.55 3 21 4.46 21 6.25v11.5c0 1.8-1.46 3.25-3.25 3.25H6.25A3.25 3.25 0 013 17.75V6.25zM6.25 4.5c-.97 0-1.75.78-1.75 1.75v.25h15v-.25c0-.97-.78-1.75-1.75-1.75H6.25zM4.5 17.75c0 .97.78 1.75 1.75 1.75h11.5c.97 0 1.75-.78 1.75-1.75V8h-15v9.75zM6.85 9.5h3.3c.47 0 .85.38.85.85v6.8c0 .47-.38.85-.85.85h-3.3a.85.85 0 01-.85-.85v-6.8c0-.47.38-.85.85-.85zm.65 7h2V11h-2v5.5zm4.5-6.25c0-.41.34-.75.75-.75h4.5a.75.75 0 010 1.5h-4.5a.75.75 0 01-.75-.75zm.75 2.25a.75.75 0 000 1.5h3.5a.75.75 0 000-1.5h-3.5z"/></svg>