<svg width="24" height="24" viewBox="0 0 24 24" xmlns="http://www.w3.org/2000/svg"><path d="M6.25 3A3.25 3.25 0 003 6.25v11.5C3 19.55 4.46 21 6.25 21h11.5c1.8 0 3.25-1.46 3.25-3.25V6.25C21 4.45 19.54 3 17.75 3H6.25zM4.5 8h15v9.75c0 .97-.78 1.75-1.75 1.75H6.25c-.97 0-1.75-.78-1.75-1.75V8zM6 10.35c0-.47.38-.85.85-.85h3.3c.47 0 .85.38.85.85v6.8c0 .47-.38.85-.85.85h-3.3a.85.85 0 01-.85-.85v-6.8zm1.5.65v5.5h2V11h-2zm5.25-1.5h4.5a.75.75 0 010 1.5h-4.5a.75.75 0 010-1.5zM12 13.25c0-.41.34-.75.75-.75h3.5a.75.75 0 010 1.5h-3.5a.75.75 0 01-.75-.75z"/></svg>