<svg width="20" height="20" viewBox="0 0 20 20" xmlns="http://www.w3.org/2000/svg"><path d="M10.5 2a.5.5 0 0 0 0 1h1.59l.6 3H7V4.5a.5.5 0 0 0-.5-.5h-2a.5.5 0 0 0 0 1H6v1.46L5.58 9H5.5A3.5 3.5 0 1 0 9 12.67l3.97-5.3.36 1.83a3.5 3.5 0 1 0 .98-.2L13 2.4a.5.5 0 0 0-.49-.4h-2ZM3 12.5A2.5 2.5 0 0 1 5.41 10l-.4 2.42a.5.5 0 0 0 .49.58h2.45A2.5 2.5 0 0 1 3 12.5Zm3.09-.5.3-1.83c.8.3 1.39.99 1.56 1.83H6.09Zm.47-2.84L6.92 7H12l-3.22 4.29a3.5 3.5 0 0 0-2.22-2.13Zm6.97 1.04.48 2.4a.5.5 0 0 0 .98-.2l-.48-2.4a2.5 2.5 0 1 1-.98.2Z"/></svg>