<svg width="24" height="24" viewBox="0 0 24 24" xmlns="http://www.w3.org/2000/svg"><path d="M13.75 2c-.69 0-1.25.56-1.25 1.25v2.5c0 .69.56 1.25 1.25 1.25h4C18.44 7 19 6.44 19 5.75v-2.5C19 2.56 18.44 2 17.75 2h-4zm2.75 7.25a.75.75 0 00-1.5 0v6.69l-1.22-1.22a.75.75 0 10-1.06 1.06l2.5 2.5c.3.3.77.3 1.06 0l2.5-2.5a.75.75 0 10-1.06-1.06l-1.22 1.22V9.25zM6.25 13.5c-.69 0-1.25.56-1.25 1.25v2.5c0 .69.56 1.25 1.25 1.25h4c.69 0 1.25-.56 1.25-1.25v-2.5c0-.69-.56-1.25-1.25-1.25h-4zM3.5 16.75a.75.75 0 00-1.5 0v2a2.75 2.75 0 002.75 2.75h14.5A2.75 2.75 0 0022 18.75v-2a.75.75 0 00-1.5 0v2c0 .69-.56 1.25-1.25 1.25H4.75c-.69 0-1.25-.56-1.25-1.25v-2z"/></svg>