<svg width="24" height="24" viewBox="0 0 24 24" xmlns="http://www.w3.org/2000/svg"><path d="M14 3.5v2h3.5v-2H14zm-1.5-.25c0-.69.56-1.25 1.25-1.25h4c.69 0 1.25.56 1.25 1.25v2.5C19 6.44 18.44 7 17.75 7h-4c-.69 0-1.25-.56-1.25-1.25v-2.5zm3.25 5.25c.41 0 .75.34.75.75v6.69l1.22-1.22a.75.75 0 111.06 1.06l-2.5 2.5c-.3.3-.77.3-1.06 0l-2.5-2.5a.75.75 0 111.06-1.06L15 15.94V9.25c0-.41.34-.75.75-.75zM6.5 15v2H10v-2H6.5zM5 14.75c0-.69.56-1.25 1.25-1.25h4c.69 0 1.25.56 1.25 1.25v2.5c0 .69-.56 1.25-1.25 1.25h-4c-.69 0-1.25-.56-1.25-1.25v-2.5zM2.75 16c.41 0 .75.34.75.75v2c0 .69.56 1.25 1.25 1.25h14.5c.69 0 1.25-.56 1.25-1.25v-2a.75.75 0 011.5 0v2a2.75 2.75 0 01-2.75 2.75H4.75A2.75 2.75 0 012 18.75v-2c0-.41.34-.75.75-.75z"/></svg>