<svg width="20" height="20" viewBox="0 0 20 20" xmlns="http://www.w3.org/2000/svg"><path d="M12 3v-.5c0-.83.67-1.5 1.5-1.5h2c.83 0 1.5.67 1.5 1.5V3h.5c.83 0 1.5.67 1.5 1.5V6h-2v-.5a.5.5 0 0 0-1 0V6h-3v-.5a.5.5 0 0 0-1 0V6h-2V4.5c0-.83.67-1.5 1.5-1.5h.5Zm3.5-1h-2a.5.5 0 0 0-.5.5V3h3v-.5a.5.5 0 0 0-.5-.5ZM17 7h2v1.5c0 .83-.67 1.5-1.5 1.5h-6A1.5 1.5 0 0 1 10 8.5V7h2v.5a.5.5 0 0 0 1 0V7h3v.5a.5.5 0 0 0 1 0V7ZM6 2h5.05v.04A2.5 2.5 0 0 0 9.5 3H6a1 1 0 0 0-1 1v11h10v-4h1v4.5a.5.5 0 0 1-.5.5H5a1 1 0 0 0 1 1h9.5a.5.5 0 0 1 0 1H6a2 2 0 0 1-2-2V4c0-1.1.9-2 2-2Z"/></svg>