<svg width="20" height="20" viewBox="0 0 20 20" xmlns="http://www.w3.org/2000/svg"><path d="M3.5 3a.5.5 0 1 0 0 1h.75L2.08 9.22a.95.95 0 0 0-.08.4 3 3 0 0 0 6 0 .95.95 0 0 0-.08-.4L5.75 4H9.5v10H6a2 2 0 1 0 0 4h8a2 2 0 0 0 0-4h-3.5V4h3.75l-2.17 5.22a.96.96 0 0 0-.08.4 3 3 0 0 0 6 0 .96.96 0 0 0-.08-.4L15.75 4h.75a.5.5 0 0 0 0-1h-13ZM5 11.5A2 2 0 0 1 3.06 10h3.88A2 2 0 0 1 5 11.5Zm0-6.7L6.75 9h-3.5L5 4.8ZM6 15h8a1 1 0 0 1 0 2H6a1 1 0 1 1 0-2Zm10.75-6h-3.5L15 4.8 16.75 9Zm-3.69 1h3.88a2 2 0 0 1-3.88 0Z"/></svg>