<svg width="20" height="20" viewBox="0 0 20 20" xmlns="http://www.w3.org/2000/svg"><path d="M13.5 5A2.5 2.5 0 0116 7.5v.83h1.17a.83.83 0 01.83.84v1.67a.83.83 0 01-.83.83H16v.83a2.5 2.5 0 01-2.5 2.5h-2.26l-.53-1.06h3.04c.65 0 1.18-.5 1.24-1.12l.01-.13V7.2c0-.64-.5-1.17-1.12-1.24H4.5c-.65 0-1.4.5-1.5 1.13v5.46l-.63 1.26A2.49 2.49 0 012 12.5v-5A2.5 2.5 0 014.5 5h9zM5.6 9.55l-3.5 7A1 1 0 003 18h7a1 1 0 00.9-1.45l-3.5-7a1 1 0 00-1.8 0zM7 11.5v3a.5.5 0 11-1 0v-3a.5.5 0 111 0zM6.5 17a.5.5 0 110-1 .5.5 0 010 1z"/></svg>