<svg width="16" height="16" viewBox="0 0 16 16" xmlns="http://www.w3.org/2000/svg"><path d="M6 5.5a4.5 4.5 0 1 0 9 0 4.5 4.5 0 0 0-9 0Zm6.5-3c.28 0 .5.22.5.5v1.5a.5.5 0 0 1-.5.5H11a.5.5 0 0 1 0-1h.47a1.98 1.98 0 0 0-1.72-.1 2 2 0 0 0-.66.44.5.5 0 0 1-.71-.71A3 3 0 0 1 12 3.15V3c0-.28.22-.5.5-.5Zm-.88 5.53A3 3 0 0 1 9 7.85V8a.5.5 0 0 1-1 0V6.5c0-.28.22-.5.5-.5H10a.5.5 0 0 1 0 1h-.47a2 2 0 0 0 2.38-.34.5.5 0 1 1 .71.71 3 3 0 0 1-1 .66ZM10.5 11H12a1 1 0 0 0 .89-.54c.4-.2.77-.44 1.11-.72V10a2 2 0 0 1-2 2h-2v1h1.5a.5.5 0 1 1 0 1h-7a.5.5 0 0 1 0-1H6v-1H4a2 2 0 0 1-2-2V4c0-1.1.9-2 2-2h2.26c-.26.3-.48.64-.66 1H4a1 1 0 0 0-1 1v6a1 1 0 0 0 1 1h6.5ZM9 12H7v1h2v-1Z"/></svg>