<svg width="24" height="24" viewBox="0 0 24 24" xmlns="http://www.w3.org/2000/svg"><path d="M12 6.5a5.5 5.5 0 1011 0 5.5 5.5 0 00-11 0zM20.5 3c.28 0 .5.22.5.5v2a.5.5 0 01-.5.5h-2a.5.5 0 010-1h1a2.5 2.5 0 00-4.03.04.5.5 0 01-.8-.59 3.5 3.5 0 015.33-.4V3.5c0-.28.22-.5.5-.5zM15 8.95v.55a.5.5 0 01-1 0v-2c0-.28.22-.5.5-.5h2a.5.5 0 010 1h-1a2.5 2.5 0 003.91.11.5.5 0 11.77.65 3.5 3.5 0 01-5.18.19zM17.5 13c1.75 0 3.33-.69 4.5-1.8v4.55c0 1.2-.93 2.17-2.1 2.25h-4.4v2.5h1.75a.75.75 0 01.1 1.5H6.75a.75.75 0 01-.1-1.5H8.5V18H4.25c-1.2 0-2.17-.92-2.24-2.1L2 15.76V5.25c0-1.2.93-2.17 2.1-2.25h7.92a6.5 6.5 0 005.48 10zM14 18h-4v2.5h4V18z"/></svg>