<svg width="16" height="16" viewBox="0 0 16 16" xmlns="http://www.w3.org/2000/svg"><path d="M14 9.74A5.5 5.5 0 0 1 6.26 2H3.5C2.67 2 2 2.67 2 3.5v7c0 .83.67 1.5 1.5 1.5H6v1H4.5a.5.5 0 0 0 0 1h7a.5.5 0 1 0 0-1H10v-1h2.5c.83 0 1.5-.67 1.5-1.5v-.76ZM9 13H7v-1h2v1Zm1.5-3a4.5 4.5 0 1 1 0-9 4.5 4.5 0 0 1 0 9ZM12 3v.15a3 3 0 0 0-3.62.48.5.5 0 0 0 .7.7A2 2 0 0 1 11.48 4H11a.5.5 0 0 0 0 1h1.5a.5.5 0 0 0 .5-.5V3a.5.5 0 0 0-1 0Zm-1.55 5.25a3 3 0 0 0 2.17-.88.5.5 0 0 0-.7-.7A2 2 0 0 1 9.52 7H10a.5.5 0 0 0 0-1H8.5a.5.5 0 0 0-.5.5V8a.5.5 0 0 0 1 0v-.15a3 3 0 0 0 1.45.4Z"/></svg>