<svg width="16" height="16" viewBox="0 0 16 16" xmlns="http://www.w3.org/2000/svg"><path d="M6 5.5a4.5 4.5 0 109 0 4.5 4.5 0 00-9 0zm6.5-3c.28 0 .5.22.5.5v1.5a.5.5 0 01-.5.5H11a.5.5 0 010-1h.47a1.98 1.98 0 00-1.72-.1 2 2 0 00-.66.44.5.5 0 01-.71-.71A3 3 0 0112 3.15V3c0-.28.22-.5.5-.5zm-.88 5.53A3 3 0 019 7.85V8a.5.5 0 01-1 0V6.5c0-.28.22-.5.5-.5H10a.5.5 0 010 1h-.47a2 2 0 002.38-.34.5.5 0 11.71.71 3 3 0 01-1 .66zM10.5 11H12a1 1 0 00.89-.54c.4-.2.77-.44 1.11-.72V10a2 2 0 01-2 2h-2v1h1.5a.5.5 0 110 1h-7a.5.5 0 010-1H6v-1H4a2 2 0 01-2-2V4c0-1.1.9-2 2-2h2.26c-.26.3-.48.64-.66 1H4a1 1 0 00-1 1v6a1 1 0 001 1h6.5zM9 12H7v1h2v-1z"/></svg>