<svg width="20" height="20" viewBox="0 0 20 20" xmlns="http://www.w3.org/2000/svg"><path d="M8.9 3.04a1.25 1.25 0 0 1 2.2 0l1.66 3.1-1.02-.35a.75.75 0 0 0-.48 1.42l3 1a.75.75 0 0 0 .98-.59l.5-3a.75.75 0 1 0-1.48-.24l-.17 1.04-1.67-3.1a2.75 2.75 0 0 0-4.84 0L5.84 5.57a.75.75 0 0 0 1.33.7L8.9 3.05Zm8.04 10.87-1.91-3.56a.75.75 0 1 1 1.32-.71l1.91 3.56a2.75 2.75 0 0 1-2.42 4.05H12.3l.72.72a.75.75 0 1 1-1.06 1.06l-2-2a.75.75 0 0 1 0-1.06l2-2a.75.75 0 1 1 1.06 1.06l-.72.72h3.53c.94 0 1.55-1 1.1-1.84Zm-9.69 1.84a.75.75 0 0 1 0 1.5H4.16a2.75 2.75 0 0 1-2.42-4.05L3.6 9.76l-1.35.45a.75.75 0 1 1-.48-1.42l3-1a.75.75 0 0 1 .95.47l1 3a.75.75 0 1 1-1.42.48l-.4-1.22-1.83 3.39c-.44.83.16 1.84 1.1 1.84h3.09Z"/></svg>