<svg width="32" height="32" viewBox="0 0 32 32" xmlns="http://www.w3.org/2000/svg"><path d="M18.18 5.28a2.5 2.5 0 00-4.36 0l-2.9 5.18-1.79-.9 2.94-5.26a4.5 4.5 0 017.86 0l2.74 4.9.36-1.44a1 1 0 011.94.48l-1 4a1 1 0 01-1.21.73l-4-1a1 1 0 11.48-1.94l1.86.46-2.92-5.21zm5.4 9.68l1.8-.9 4.04 7.24c1.68 3-.49 6.7-3.92 6.7H18.4l1.3 1.3a1 1 0 11-1.42 1.4l-3-3a1 1 0 010-1.4l3-3a1 1 0 111.42 1.4L18.4 26h7.09a2.5 2.5 0 002.18-3.72l-4.1-7.32zM13 26H6.5a2.5 2.5 0 01-2.18-3.72l3.87-6.93.9 2.05a1 1 0 001.83-.8l-1.75-4a1 1 0 00-1.15-.57l-4.25 1a1 1 0 10.46 1.94l2.17-.5-3.83 6.83A4.5 4.5 0 006.5 28H13v-2z"/></svg>