<svg width="32" height="32" viewBox="0 0 32 32" xmlns="http://www.w3.org/2000/svg"><path d="M9 4a5 5 0 0 0-5 5v14a5 5 0 0 0 5 5h5a9.99 9.99 0 0 1-1.17-2H9a3 3 0 0 1-3-3V10h20v2.83c.72.32 1.39.71 2 1.17V9a5 5 0 0 0-5-5H9Zm16.83 4H6.17A3 3 0 0 1 9 6h14a3 3 0 0 1 2.83 2ZM16 14v-1a1 1 0 0 0-1-1H9a1 1 0 0 0-1 1v10a1 1 0 0 0 1 1h3.2c-.13-.65-.2-1.32-.2-2h-2v-8h4v2c.57-.76 1.25-1.43 2-2Zm.68 14.57.04-.16a4 4 0 0 0-2.9-5.02c-.12-.9-.1-1.82.08-2.74a4 4 0 0 0 2.88-4.99c.7-.6 1.5-1.1 2.34-1.43a4 4 0 0 0 5.8 0l.1-.12a7.96 7.96 0 0 1 2.3 1.32l-.04.16a4 4 0 0 0 2.9 5.02c.12.9.1 1.82-.08 2.74a4 4 0 0 0-2.88 4.99c-.7.61-1.5 1.1-2.34 1.43a4 4 0 0 0-5.8 0l-.1.12a7.97 7.97 0 0 1-2.3-1.32ZM20.85 24c1.06.61 2.44.22 3.08-.88.64-1.1.29-2.5-.78-3.12a2.27 2.27 0 0 0-3.08.89c-.64 1.1-.3 2.5.78 3.1Z"/></svg>