<svg width="16" height="16" viewBox="0 0 16 16" xmlns="http://www.w3.org/2000/svg"><path d="M9 4.5A1.75 1.75 0 1 0 9 1a1.75 1.75 0 0 0 0 3.5Zm-2.15.15h-.02a1.1 1.1 0 0 0-.54-.03l-2.45.5a1.1 1.1 0 0 0-.8.65l-.81 1.91a1.1 1.1 0 0 0 1.92 1.05.69.69 0 0 0 .07-.13l.5-1.28a.5.5 0 0 1 .93.36v.02l-.15.4-.02.04-2.1 5.36a1.1 1.1 0 1 0 2.04.8l1.18-2.99c.06-.15.2-.25.36-.3a.51.51 0 0 1 .5.13l.29.3a1 1 0 0 1 .26.54l.3 2.08a1.1 1.1 0 1 0 2.18-.32l-.4-2.73a1.1 1.1 0 0 0-.28-.6L8.63 9.18a.7.7 0 0 1-.18-.57l.02-.12a.47.47 0 0 1 .84-.23l.44.55c.1.14.25.25.42.32l1.8.79a1.1 1.1 0 1 0 .87-2.02l-1.32-.57a1 1 0 0 1-.38-.3l-.88-1.1a1.1 1.1 0 0 0-.54-.37l-.04-.02c-.15-.04-.3-.05-.46-.04a2.79 2.79 0 0 1-1.95-.6c-.13-.1-.26-.2-.42-.24Z"/></svg>