<svg width="24" height="24" viewBox="0 0 24 24" xmlns="http://www.w3.org/2000/svg"><path d="M11.9 14h7.85C21 14 22 15 22 16.25v.9c0 1.1-.47 2.14-1.3 2.85-1.57 1.34-3.81 2-6.7 2h-.18c.23-.47.24-1.02.03-1.5H14c2.56 0 4.46-.56 5.72-1.64.5-.43.78-1.05.78-1.7v-.91a.75.75 0 0 0-.75-.75h-7.77a5.56 5.56 0 0 0-.07-1.5Zm-5.4-3.5a4.5 4.5 0 0 1 3.46 7.38l2.82 2.81a.75.75 0 0 1-.97 1.14l-.09-.08-2.9-2.9A4.5 4.5 0 1 1 6.5 10.5Zm0 1.5a3 3 0 1 0 0 6 3 3 0 0 0 0-6ZM14 2a5 5 0 1 1 0 10 5 5 0 0 1 0-10Zm0 1.5a3.5 3.5 0 1 0 0 7 3.5 3.5 0 0 0 0-7Z"/></svg>