<svg width="20" height="20" viewBox="0 0 20 20" xmlns="http://www.w3.org/2000/svg"><path d="M9.82 3.04a.5.5 0 01.68.46v.3l1-.4a1.5 1.5 0 00-2.05-1.3L3.58 4.44A2.5 2.5 0 002 6.75v5.75a1.5 1.5 0 002 1.41v-1.07l-.32.12A.5.5 0 013 12.5V6.75c0-.61.38-1.16.95-1.39l5.87-2.32zm3 2a.5.5 0 01.68.46V6l1-.4v-.1a1.5 1.5 0 00-2.05-1.4L6.26 6.57A2 2 0 005 8.42v6.08a1.5 1.5 0 002.05 1.4l.95-.38v-1.08l-1.32.52A.5.5 0 016 14.5V8.42a1 1 0 01.63-.93l6.19-2.45zM17 7.5a.5.5 0 00-.68-.46l-6 2.37a.5.5 0 00-.32.47v6.62c0 .35.36.6.68.46l.34-.13c.03.33.12.66.25.98l-.22.08A1.5 1.5 0 019 16.5V9.88c0-.62.38-1.17.95-1.4l6-2.37A1.5 1.5 0 0118 7.5v2.84c-.26-.38-.6-.7-1-.94V7.5zm.5 4.5a2 2 0 11-4 0 2 2 0 014 0zm1.5 4.5c0 1.25-1 2.5-3.5 2.5S12 17.75 12 16.5c0-.83.67-1.5 1.5-1.5h4c.83 0 1.5.67 1.5 1.5z"/></svg>