<svg width="24" height="24" viewBox="0 0 24 24" xmlns="http://www.w3.org/2000/svg"><path d="M17.25 2c.41 0 .75.34.75.75v16.69l2.22-2.22a.75.75 0 111.06 1.06l-3.5 3.5c-.3.3-.77.3-1.06 0l-3.5-3.5a.75.75 0 111.06-1.06l2.22 2.22V2.75c0-.41.34-.75.75-.75zM8.37 6.03l2.57 5.92a.75.75 0 11-1.38.6L8.9 11H5.11l-.67 1.55a.75.75 0 11-1.38-.6l2.57-5.92a2.25 2.25 0 112.74 0zM8.24 9.5L7 6.64 5.76 9.5h2.48zM6.25 4.25a.75.75 0 101.5 0 .75.75 0 00-1.5 0zm1.44 9.2l3.25 7.5a.75.75 0 11-1.38.6L8.9 20H5.11l-.67 1.55a.75.75 0 11-1.38-.6l3.25-7.5a.75.75 0 011.38 0zm.55 5.05L7 15.64 5.76 18.5h2.48z"/></svg>