<svg width="24" height="24" viewBox="0 0 24 24" xmlns="http://www.w3.org/2000/svg"><path d="M17.5 2a1 1 0 011 1v15.59l1.8-1.8a1 1 0 011.4 1.42l-3.5 3.5a1 1 0 01-1.4 0l-3.5-3.5a1 1 0 011.4-1.42l1.8 1.8V3a1 1 0 011-1zM8.73 6.3A2.5 2.5 0 007 2a2.5 2.5 0 00-1.73 4.3l-2.2 5.32a1 1 0 101.85.76L5.5 11h3l.58 1.38a1 1 0 101.84-.76L8.72 6.3zM7.68 9H6.32L7 7.37 7.68 9zM6.5 4.5a.5.5 0 111 0 .5.5 0 01-1 0zm1.42 9.1a1 1 0 00-1.84 0l-3 7a1 1 0 101.84.8l.6-1.4h2.96l.6 1.4a1 1 0 101.84-.8l-3-7zm-.3 4.4H6.38L7 16.54 7.63 18z"/></svg>