<svg width="20" height="20" viewBox="0 0 20 20" xmlns="http://www.w3.org/2000/svg"><path d="M13.5 2c.28 0 .5.22.5.5v13.8l2.15-2.15a.5.5 0 01.7.7l-3 3a.5.5 0 01-.7 0l-3-3a.5.5 0 01.7-.7L13 16.29V2.5c0-.28.22-.5.5-.5zM6 11a.5.5 0 00-.46.3l-2.5 6a.5.5 0 10.92.4l.5-1.2a.5.5 0 00.04 0h3a.5.5 0 00.04 0l.5 1.2a.5.5 0 00.92-.4l-2.5-6A.5.5 0 006 11zm0 1.8l1.13 2.7H4.88L6 12.8zm-.68-7.96L3.04 10.3a.5.5 0 10.92.38l.5-1.2a.5.5 0 00.04.01h3a.5.5 0 00.04 0l.5 1.2a.5.5 0 00.92-.4L6.68 4.85a1.5 1.5 0 10-1.36 0zM6 5.8l1.13 2.7H4.88L6 5.8zm-.5-2.3a.5.5 0 111 0 .5.5 0 01-1 0z"/></svg>