<svg width="16" height="16" viewBox="0 0 16 16" xmlns="http://www.w3.org/2000/svg"><path d="M12.25 1c.41 0 .75.34.75.75v10.69l.72-.72a.75.75 0 111.06 1.06l-2 2c-.3.3-.77.3-1.06 0l-2-2a.75.75 0 111.06-1.06l.72.72V1.75c0-.41.34-.75.75-.75zM6.31 4.51L7.7 7.97a.75.75 0 01-1.4.56L6.1 8H3.9l-.2.53a.75.75 0 01-1.4-.56L3.7 4.51A2 2 0 015 1a2 2 0 011.31 3.51zM5.5 6.5L5 5.27 4.5 6.5h1zM4.5 3a.5.5 0 101 0 .5.5 0 00-1 0zm1.2 5.97a.75.75 0 00-1.4 0l-2 5a.75.75 0 001.4.56l.2-.53h2.2l.2.53a.75.75 0 001.4-.56l-2-5zm-.2 3.53h-1l.5-1.23.5 1.23z"/></svg>