<svg width="16" height="16" viewBox="0 0 16 16" xmlns="http://www.w3.org/2000/svg"><path d="M12.25 1c.41 0 .75.34.75.75v10.69l.72-.72a.75.75 0 1 1 1.06 1.06l-2 2c-.3.3-.77.3-1.06 0l-2-2a.75.75 0 1 1 1.06-1.06l.72.72V1.75c0-.41.34-.75.75-.75ZM6.31 4.51 7.7 7.97a.75.75 0 0 1-1.4.56L6.1 8H3.9l-.2.53a.75.75 0 0 1-1.4-.56L3.7 4.51A2 2 0 0 1 5 1a2 2 0 0 1 1.31 3.51ZM5.5 6.5 5 5.27 4.5 6.5h1ZM4.5 3a.5.5 0 1 0 1 0 .5.5 0 0 0-1 0Zm1.2 5.97a.75.75 0 0 0-1.4 0l-2 5a.75.75 0 0 0 1.4.56l.2-.53h2.2l.2.53a.75.75 0 0 0 1.4-.56l-2-5Zm-.2 3.53h-1l.5-1.23.5 1.23Z"/></svg>