<svg width="28" height="28" viewBox="0 0 28 28" xmlns="http://www.w3.org/2000/svg"><path d="M21 16a3 3 0 012.83 2H14v-.5H7c-.78 0-1.42.6-1.5 1.36v.85c0 2.68 3.39 4.79 8.5 4.79V24h7.47c-1.79 1.24-4.4 2-7.47 2-5.79 0-10-2.57-10-6.29V19a3 3 0 013-3h14zm3 3v.71c0 .27-.02.53-.07.79H14V19h10zm-.37 2.5H14V23h8.63c.43-.46.77-.96 1-1.5zM19.95 7.25a6.07 6.07 0 010 1.5H14v-1.5h5.95zm-.2-1a5.97 5.97 0 00-.7-1.5H14v1.5h5.74zM14 2c1.65 0 3.15.67 4.24 1.75H14V3.5a4.5 4.5 0 100 9v-.25h4.24A6 6 0 1114 2zm5.04 9.25H14v-1.5h5.74c-.16.54-.4 1.04-.7 1.5z"/></svg>