<svg width="32" height="32" viewBox="0 0 32 32" xmlns="http://www.w3.org/2000/svg"><path d="M16 11a5 5 0 1 0 0 10 5 5 0 0 0 0-10Zm-3 5a3 3 0 1 1 6 0 3 3 0 0 1-6 0Zm-.16 13.63a13.59 13.59 0 0 0 6.32 0 1.48 1.48 0 0 0 1.13-1.28l.23-2.13a1.47 1.47 0 0 1 2.07-1.2l1.95.86a1.47 1.47 0 0 0 1.67-.35 14.25 14.25 0 0 0 3.16-5.44 1.48 1.48 0 0 0-.54-1.63l-1.73-1.27a1.48 1.48 0 0 1 0-2.4l1.73-1.27a1.47 1.47 0 0 0 .53-1.63 14.2 14.2 0 0 0-3.15-5.44 1.48 1.48 0 0 0-1.68-.35l-1.94.86a1.48 1.48 0 0 1-2.07-1.2l-.24-2.12a1.48 1.48 0 0 0-1.14-1.29A15.12 15.12 0 0 0 16 2a15.4 15.4 0 0 0-3.15.36 1.47 1.47 0 0 0-1.14 1.28l-.24 2.13a1.5 1.5 0 0 1-2.07 1.2l-1.95-.85a1.5 1.5 0 0 0-1.67.35 14.25 14.25 0 0 0-3.16 5.44 1.48 1.48 0 0 0 .54 1.63l1.72 1.27a1.49 1.49 0 0 1 0 2.4l-1.72 1.27a1.48 1.48 0 0 0-.54 1.63c.64 2.03 1.71 3.9 3.16 5.45a1.46 1.46 0 0 0 1.08.46c.2 0 .4-.04.59-.12l1.96-.86a1.48 1.48 0 0 1 2.06 1.2l.24 2.13a1.48 1.48 0 0 0 1.12 1.27Zm5.5-1.87c-1.54.32-3.13.32-4.68 0l-.2-1.74a3.48 3.48 0 0 0-4.85-2.8l-1.6.7a12.24 12.24 0 0 1-2.35-4.06l1.42-1.05a3.49 3.49 0 0 0 0-5.61l-1.42-1.05A12.24 12.24 0 0 1 7 8.1l1.6.7a3.45 3.45 0 0 0 3.72-.6A3.5 3.5 0 0 0 13.47 6l.2-1.75c.77-.15 1.56-.23 2.35-.24.78.01 1.56.09 2.32.24l.2 1.74A3.48 3.48 0 0 0 23.4 8.8l1.6-.7a12.21 12.21 0 0 1 2.34 4.04l-1.42 1.05a3.48 3.48 0 0 0 0 5.62l1.42 1.05A12.27 12.27 0 0 1 25 23.9l-1.6-.7a3.47 3.47 0 0 0-4.87 2.81l-.19 1.75Z"/></svg>