<svg width="16" height="16" viewBox="0 0 16 16" xmlns="http://www.w3.org/2000/svg"><path d="M3.5 1A2.5 2.5 0 0 0 1 3.5v7A2.5 2.5 0 0 0 3.5 13h4.55c.07-.37.23-.7.45-1h-5A1.5 1.5 0 0 1 2 10.5v-7C2 2.67 2.67 2 3.5 2h7c.83 0 1.5.67 1.5 1.5v2.54a3.02 3.02 0 0 1 1 0V3.5A2.5 2.5 0 0 0 10.5 1h-7Zm6.35 4.85a.5.5 0 0 0-.7-.7L6 8.29 4.85 7.15a.5.5 0 1 0-.7.7l1.5 1.5c.2.2.5.2.7 0l3.5-3.5ZM14.5 9a2 2 0 1 1-4 0 2 2 0 0 1 4 0Zm1.5 4.5c0 1.25-1 2.5-3.5 2.5S9 14.75 9 13.5c0-.83.67-1.5 1.5-1.5h4c.83 0 1.5.67 1.5 1.5Z"/></svg>