<svg width="20" height="20" viewBox="0 0 20 20" xmlns="http://www.w3.org/2000/svg"><path d="M4.5 3A2.5 2.5 0 0 0 2 5.5v9A2.5 2.5 0 0 0 4.5 17H9v-.19c0-.28.05-.56.15-.81H4.5A1.5 1.5 0 0 1 3 14.5V8h4.09c.4 0 .78-.16 1.06-.44L9.7 6h5.79c.83 0 1.5.67 1.5 1.5v3.51c.37.04.7.17 1 .37V7.5A2.5 2.5 0 0 0 15.5 5H9.7L8.23 3.51A1.75 1.75 0 0 0 6.98 3H4.5ZM3 5.5C3 4.67 3.67 4 4.5 4h2.48c.2 0 .4.08.53.22L8.8 5.5 7.44 6.85a.5.5 0 0 1-.35.15H3V5.5Zm11.5 7.25a1.75 1.75 0 1 1-3.5 0 1.75 1.75 0 0 1 3.5 0Zm1.5 4.06c0 1.1-.86 2.19-3 2.19s-3-1.1-3-2.19c0-.72.58-1.31 1.29-1.31h3.42c.71 0 1.29.59 1.29 1.31Zm.48 1.69h.02c1.79 0 2.5-.94 2.5-1.88a1.1 1.1 0 0 0-1.07-1.12H16.6c.25.38.4.83.4 1.31 0 .58-.17 1.18-.52 1.69ZM18 13.25a1.25 1.25 0 1 1-2.5 0 1.25 1.25 0 0 1 2.5 0Z"/></svg>