<svg width="24" height="24" viewBox="0 0 24 24" xmlns="http://www.w3.org/2000/svg"><path d="M2 8V6.25C2 4.45 3.46 3 5.25 3h2.88c.6 0 1.17.24 1.59.66l1.53 1.53-2.6 2.59a.75.75 0 0 1-.52.22H2Zm0 1.5v8.25C2 19.55 3.46 21 5.25 21h5.9c-.1-.37-.15-.75-.15-1.13 0-1.37.94-2.75 2.41-2.86a3.24 3.24 0 0 1 2.34-5.51c1.45 0 2.68.95 3.1 2.26A2.74 2.74 0 0 1 22 13.3V8.75c0-1.8-1.46-3.25-3.25-3.25h-5.69L9.72 8.84c-.42.42-1 .66-1.6.66H2Zm16 5.25a2.25 2.25 0 1 1-4.5 0 2.25 2.25 0 0 1 4.5 0Zm1.5 5.13c0 1.55-1.07 3.12-3.75 3.12-2.68 0-3.75-1.56-3.75-3.13 0-1.03.72-1.87 1.6-1.87h4.3c.88 0 1.6.84 1.6 1.88Zm1.25-2.38a1.75 1.75 0 1 0 0-3.5 1.75 1.75 0 0 0 0 3.5Zm-.25 2.38c0 .71-.18 1.46-.58 2.12H20c2.15 0 3-1.1 3-2.19a1.3 1.3 0 0 0-1.28-1.31h-1.54c.2.42.32.9.32 1.38Z"/></svg>