<svg width="24" height="24" viewBox="0 0 24 24" xmlns="http://www.w3.org/2000/svg"><path d="M3.5 6.25V8h4.63c.2 0 .39-.08.53-.22l1.53-1.53-1.53-1.53a.75.75 0 0 0-.53-.22H5.25c-.97 0-1.75.78-1.75 1.75Zm-1.5 0C2 4.45 3.46 3 5.25 3h2.88c.6 0 1.17.24 1.59.66l1.84 1.84h7.19c1.8 0 3.25 1.46 3.25 3.25v4.55a2.74 2.74 0 0 0-1.5-.29V8.75c0-.97-.78-1.75-1.75-1.75h-7.19L9.72 8.84c-.42.42-1 .66-1.6.66H3.5v8.25c0 .97.78 1.75 1.75 1.75h5.77l-.02.38c0 .37.05.75.15 1.12h-5.9A3.25 3.25 0 0 1 2 17.75V6.25Zm16 8.5a2.25 2.25 0 1 1-4.5 0 2.25 2.25 0 0 1 4.5 0Zm1.5 5.13c0 1.55-1.07 3.12-3.75 3.12-2.68 0-3.75-1.56-3.75-3.13 0-1.03.72-1.87 1.6-1.87h4.3c.88 0 1.6.84 1.6 1.88Zm1.25-2.38a1.75 1.75 0 1 0 0-3.5 1.75 1.75 0 0 0 0 3.5Zm-.25 2.38c0 .71-.18 1.46-.58 2.12H20c2.15 0 3-1.1 3-2.19a1.3 1.3 0 0 0-1.28-1.31h-1.54c.2.42.32.9.32 1.38Z"/></svg>