<svg width="20" height="20" viewBox="0 0 20 20" xmlns="http://www.w3.org/2000/svg"><path d="M4 3a2 2 0 0 0-2 2v6c0 1.1.9 2 2 2h8a2 2 0 0 0 2-2V5a2 2 0 0 0-2-2H4Zm4.33 2.08.91 1.73 1.8.22a.38.38 0 0 1 .2.67L9.91 8.74l.45 1.93a.38.38 0 0 1-.56.4L8 10l-1.8 1.08a.38.38 0 0 1-.57-.4l.45-1.93L4.77 7.7a.38.38 0 0 1 .19-.67l1.8-.22.9-1.73a.38.38 0 0 1 .67 0ZM4.27 14c.34.6.99 1 1.73 1h6a4 4 0 0 0 4-4V7a2 2 0 0 0-1-1.73V11a3 3 0 0 1-3 3H4.27Zm2 2c.34.6.99 1 1.73 1h4a6 6 0 0 0 6-6V9a2 2 0 0 0-1-1.73V11a5 5 0 0 1-5 5H6.27Z"/></svg>