<svg width="20" height="20" viewBox="0 0 20 20" xmlns="http://www.w3.org/2000/svg"><path d="M11.32 2.92a1.5 1.5 0 0 0-2.64 0L6.83 6.37a.5.5 0 1 1-.88-.47L7.8 2.45a2.5 2.5 0 0 1 4.4 0l2.01 3.74.3-1.77a.5.5 0 0 1 .98.16l-.5 3a.5.5 0 0 1-.65.4l-3-1a.5.5 0 0 1 .32-.95l1.62.54-1.96-3.65Zm4.03 6.4a.5.5 0 0 0-.22.7l2.03 3.77c.54 1-.19 2.21-1.32 2.21H11.7l1.14-1.15a.5.5 0 0 0-.7-.7l-2 2a.5.5 0 0 0 0 .7l2 2a.5.5 0 0 0 .7-.7L11.71 17h4.13a2.5 2.5 0 0 0 2.2-3.68l-2.03-3.78a.5.5 0 0 0-.66-.21ZM4.16 16H7.5a.5.5 0 0 1 0 1H4.16a2.5 2.5 0 0 1-2.2-3.68l2.15-4-1.95.65a.5.5 0 1 1-.32-.94l3-1a.5.5 0 0 1 .63.31l1 3a.5.5 0 0 1-.94.32l-.6-1.77-2.09 3.9A1.5 1.5 0 0 0 4.16 16Z"/></svg>