<svg width="16" height="16" viewBox="0 0 16 16" xmlns="http://www.w3.org/2000/svg"><path d="M10.04 1.3a.5.5 0 0 1 .66-.26A7.8 7.8 0 0 1 15 8.48v.03a.5.5 0 0 1-1-.01v-.05c.02-.34.1-2.16-.93-3.86a7.21 7.21 0 0 0-2.77-2.63.5.5 0 0 1-.26-.66Zm.05 2.41a.5.5 0 0 1 .7-.11s.24.15.52.4a4.51 4.51 0 0 1 1.46 3.19v.06a.5.5 0 0 1-1 0 3.48 3.48 0 0 0-1.56-2.84.5.5 0 0 1-.12-.7Zm-7.55 7a4 4 0 0 1 6.92-4l.82 1.42L12.2 9.5a.5.5 0 0 1-.04.84l-2.53 1.46-2.74 1.58-2.53 1.46a.5.5 0 0 1-.75-.38l-.24-2.34-.82-1.42Zm7.71 1.9-3 1.73a1.75 1.75 0 0 0 3-1.73Z"/></svg>