<svg width="16" height="16" viewBox="0 0 16 16" xmlns="http://www.w3.org/2000/svg"><path d="M10.7 1.04a.5.5 0 0 0-.4.92l.28.15a7.21 7.21 0 0 1 2.49 2.48c1.02 1.7.95 3.52.93 3.86v.05a.5.5 0 0 0 1 0v-.02a7.87 7.87 0 0 0-.06-1.43 7.8 7.8 0 0 0-4.24-6Zm.1 2.56a.5.5 0 1 0-.57.82 3.53 3.53 0 0 1 1.54 2.83.5.5 0 0 0 1 0v-.06a3.35 3.35 0 0 0-.06-.61A4.6 4.6 0 0 0 11.31 4c-.28-.26-.52-.41-.52-.41Zm-8.26 7.1a4 4 0 0 1 6.93-4l.82 1.43 1.9 1.38a.5.5 0 0 1-.04.84l-2.53 1.46-2.74 1.58-2.53 1.46a.5.5 0 0 1-.74-.38l-.25-2.34-.82-1.42Zm.86-.5.88 1.52a.5.5 0 0 1 .06.2l.18 1.68 6.46-3.73-1.37-1a.5.5 0 0 1-.14-.15L8.6 7.2a3 3 0 0 0-5.2 3Zm3.85 4.14a1.75 1.75 0 0 0 3-1.74l-3 1.74Z"/></svg>