<svg width="24" height="24" viewBox="0 0 24 24" xmlns="http://www.w3.org/2000/svg"><path d="M18.25 4A3.75 3.75 0 0 1 22 7.75v8.5A3.75 3.75 0 0 1 18.25 20H5.75A3.75 3.75 0 0 1 2 16.25v-8.5A3.75 3.75 0 0 1 5.75 4h12.5Zm0 1.5H5.75c-1.24 0-2.25 1-2.25 2.25v8.5c0 1.24 1 2.25 2.25 2.25h12.5c1.24 0 2.25-1 2.25-2.25v-8.5c0-1.24-1-2.25-2.25-2.25Zm0 7.5c.41 0 .75.34.75.75V15a2 2 0 0 1-2 2h-1.25a.75.75 0 0 1 0-1.5H17a.5.5 0 0 0 .5-.5v-1.25c0-.41.34-.75.75-.75Zm-12.5 0c.41 0 .75.34.75.75V15c0 .28.22.5.5.5h1.25a.75.75 0 0 1 0 1.5H7a2 2 0 0 1-2-2v-1.25c0-.41.34-.75.75-.75ZM7 7h1.25a.75.75 0 0 1 .1 1.5H7a.5.5 0 0 0-.5.41v1.34a.75.75 0 0 1-1.5.1V9a2 2 0 0 1 1.85-2H7Zm10 0a2 2 0 0 1 2 2v1.25a.75.75 0 0 1-1.5 0V9a.5.5 0 0 0-.5-.5h-1.25a.75.75 0 0 1 0-1.5H17Z"/></svg>