<svg width="20" height="20" viewBox="0 0 20 20" xmlns="http://www.w3.org/2000/svg"><path d="M13.25 3.5A5.75 5.75 0 0 0 7.5 9.25v1c0 1.24-1 2.25-2.25 2.25h-2.5a.75.75 0 0 1 0-1.5h2.5c.41 0 .75-.34.75-.75v-1C6 5.25 9.25 2 13.25 2h.5a.75.75 0 0 1 0 1.5h-.5Zm-2.75 6c0-1.8 1.46-3.25 3.25-3.25h3.5a.75.75 0 0 0 0-1.5h-3.5A4.75 4.75 0 0 0 9 9.5v1c0 1.8-1.46 3.25-3.25 3.25h-3a.75.75 0 0 0 0 1.5h3a4.75 4.75 0 0 0 4.75-4.75v-1Zm3.75-.5a.75.75 0 0 0-.75.75v1c0 .66-.09 1.3-.25 1.9a1.9 1.9 0 0 0-1.59.05c.22-.61.34-1.27.34-1.95v-1c0-1.24 1-2.25 2.25-2.25h3a.75.75 0 0 1 0 1.5h-3Zm-1.4 9.16a.5.5 0 0 1-.7.7l-2-2a.5.5 0 0 1 0-.7l2-2a.5.5 0 0 1 .7.7l-1.14 1.16h5.58l-1.14-1.15a.5.5 0 0 1 .7-.7l2 2c.2.19.2.5 0 .7l-2 2a.5.5 0 0 1-.7-.7l1.14-1.15h-5.58l1.14 1.14Z"/></svg>