<svg width="20" height="20" viewBox="0 0 20 20" xmlns="http://www.w3.org/2000/svg"><path d="M5.5 14A1.5 1.5 0 0 1 4 12.5v-5C4 6.67 4.67 6 5.5 6h9c.83 0 1.5.67 1.5 1.5v5c0 .83-.67 1.5-1.5 1.5h-9Zm0-7a.5.5 0 0 0-.5.5V9h10V7.5a.5.5 0 0 0-.5-.5h-9ZM7 10H5v2.5c0 .28.22.5.5.5H7v-3Zm1 3h6.5a.5.5 0 0 0 .5-.5V10H8v3ZM2 6.5A2.5 2.5 0 0 1 4.5 4h11A2.5 2.5 0 0 1 18 6.5v7a2.5 2.5 0 0 1-2.5 2.5h-11A2.5 2.5 0 0 1 2 13.5v-7ZM4.5 5C3.67 5 3 5.67 3 6.5v7c0 .83.67 1.5 1.5 1.5h11c.83 0 1.5-.67 1.5-1.5v-7c0-.83-.67-1.5-1.5-1.5h-11Z"/></svg>