<svg width="32" height="32" viewBox="0 0 32 32" xmlns="http://www.w3.org/2000/svg"><path d="M9.43 10.85 2.3 3.7a1 1 0 0 1 1.42-1.42l26 26a1 1 0 0 1-1.42 1.42L25 26.39a4 4 0 0 1-6.49 2.73 3.98 3.98 0 0 1-5 0A4 4 0 0 1 7 26v-8.8a4.2 4.2 0 0 1 0-.2 8.97 8.97 0 0 1 2.43-6.15ZM22.6 24H9v2a2 2 0 0 0 3.67 1.1 1 1 0 0 1 1.66 0 2 2 0 0 0 3.34 0 1 1 0 0 1 1.66 0A2 2 0 0 0 23 26v-1.59l-.41-.41Zm-2-2-9-9h-1.34A6.96 6.96 0 0 0 9 17.2V22h11.59ZM23 17.2v2.26l2 2V17c0-3-1.47-5.65-3.71-7.29-1.03-1.01-1.71-1.85-1.91-2.87A2.5 2.5 0 0 0 18.5 2h-5a2.5 2.5 0 0 0-.96 4.81c-.1.54-.33 1.03-.68 1.51l1.43 1.43A6 6 0 0 0 14.5 7.2h2.91c.3 1.6 1.31 2.78 2.33 3.8h-5.2l2 2h5.2A6.97 6.97 0 0 1 23 17.1v.03a.6.6 0 0 0 0 .06v.01ZM13 4.5c0-.28.22-.5.5-.5h5a.5.5 0 0 1 0 1h-5a.5.5 0 0 1-.5-.5Z"/></svg>