<svg width="32" height="32" viewBox="0 0 32 32" xmlns="http://www.w3.org/2000/svg"><path d="M18.96 4.19a.5.5 0 01.7-.08l1.09.86L16.8 10h2.54l2.97-3.78 2.5 2.01c.23.18.26.5.07.72l-.9 1.05h2.6a2.5 2.5 0 00-.52-3.33l-5.14-4.12a2.5 2.5 0 00-3.52.4L11.8 10h2.56l4.6-5.81zM21 19a1 1 0 100 2h3a1 1 0 100-2h-3zM6 7a3 3 0 00-3 3v14.5A4.5 4.5 0 007.5 29h17a4.5 4.5 0 004.5-4.5v-9a4.5 4.5 0 00-4.5-4.5H6a1 1 0 110-2h4.58l1.6-2H6zM5 24.5V12.83A3 3 0 006 13h18.5a2.5 2.5 0 012.5 2.5v9a2.5 2.5 0 01-2.5 2.5h-17A2.5 2.5 0 015 24.5z"/></svg>