<svg width="24" height="24" viewBox="0 0 24 24" xmlns="http://www.w3.org/2000/svg"><path d="M14.36 2.6a.25.25 0 01.36-.04l.92.81L12.74 7h1.92l2.1-2.63 1.66 1.45c.1.1.11.25.02.35l-.69.83h1.95c.5-.72.38-1.71-.3-2.3l-3.69-3.26a1.75 1.75 0 00-2.53.23L8.98 7h1.9l3.48-4.4zM5.25 6.5a.75.75 0 000 1.5h13c1.8 0 3.25 1.46 3.25 3.25v6.5c0 1.8-1.46 3.25-3.25 3.25h-12A3.25 3.25 0 013 17.75V7.25C3 6.01 4 5 5.25 5h4.32l-1.2 1.5H5.26zm10.25 8.25c0 .41.34.75.75.75h2a.75.75 0 000-1.5h-2a.75.75 0 00-.75.75z"/></svg>