<svg width="24" height="24" viewBox="0 0 24 24" xmlns="http://www.w3.org/2000/svg"><path d="M14.36 2.6a.25.25 0 01.36-.04l.92.81L12.74 7h1.92l2.1-2.63 1.66 1.45c.1.1.11.25.02.35l-.69.83h1.95c.5-.72.38-1.71-.3-2.3l-3.69-3.26a1.75 1.75 0 00-2.53.23L8.98 7h1.9l3.48-4.4zM16.25 14a.75.75 0 000 1.5h2a.75.75 0 000-1.5h-2zM4.5 7.25c0-.41.34-.75.75-.75h3.13L9.57 5H5.25C4.01 5 3 6 3 7.25v10.5C3 19.55 4.46 21 6.25 21h12c1.8 0 3.25-1.46 3.25-3.25v-6.5c0-1.8-1.46-3.25-3.25-3.25h-13a.75.75 0 01-.75-.75zm0 10.5V9.37c.23.08.49.13.75.13h13c.97 0 1.75.78 1.75 1.75v6.5c0 .97-.78 1.75-1.75 1.75h-12c-.97 0-1.75-.78-1.75-1.75z"/></svg>