<svg width="24" height="24" viewBox="0 0 24 24" xmlns="http://www.w3.org/2000/svg"><path d="M17.25 2A2.75 2.75 0 0120 4.75v6.59a3.49 3.49 0 00-1.5-.34V4.75c0-.69-.56-1.25-1.25-1.25H4.75c-.69 0-1.25.56-1.25 1.25v12.5c0 .69.56 1.25 1.25 1.25h8.56c-.2.38-.31.81-.31 1.27v.1a4 4 0 000 .13H4.75A2.75 2.75 0 012 17.25V4.75A2.75 2.75 0 014.75 2h12.5zM9 13.44l6.47-6.47a.75.75 0 011.13.98l-.07.08-7 7a.75.75 0 01-.98.07l-.08-.07-3-3a.75.75 0 01.98-1.13l.08.07L9 13.44zm12 1.06a2.5 2.5 0 11-5 0 2.5 2.5 0 015 0zm2 5.38c0 1.55-1.29 3.12-4.5 3.12S14 21.44 14 19.87v-.1c0-.98.8-1.77 1.77-1.77h5.46c.98 0 1.77.8 1.77 1.77v.1z"/></svg>