<svg width="20" height="20" viewBox="0 0 20 20" xmlns="http://www.w3.org/2000/svg"><path d="M12.85 6.85a.5.5 0 00-.7-.7L7.5 10.79 5.85 9.15a.5.5 0 10-.7.7l2 2c.2.2.5.2.7 0l5-5zM4.68 2A2.68 2.68 0 002 4.68v8.64C2 14.8 3.2 16 4.68 16h6.37c.07-.37.23-.7.45-1H4.68C3.75 15 3 14.25 3 13.32V4.68C3 3.75 3.75 3 4.68 3h8.64c.93 0 1.68.75 1.68 1.68v4.36a3.02 3.02 0 011 0V4.68C16 3.2 14.8 2 13.32 2H4.68zM17.5 12a2 2 0 11-4 0 2 2 0 014 0zm1.5 4.5c0 1.25-1 2.5-3.5 2.5S12 17.75 12 16.5c0-.83.67-1.5 1.5-1.5h4c.83 0 1.5.67 1.5 1.5z"/></svg>