<svg width="24" height="24" viewBox="0 0 24 24" xmlns="http://www.w3.org/2000/svg"><path d="M6.25 3A3.25 3.25 0 003 6.25v11.5C3 19.55 4.46 21 6.25 21h6.92a3.74 3.74 0 01-.17-1.13v-.1l.01-.27H6.25c-.97 0-1.75-.78-1.75-1.75V6.25c0-.97.78-1.75 1.75-1.75h11.5c.97 0 1.75.78 1.75 1.75v4.9a3.5 3.5 0 011.5.9v-5.8C21 4.45 19.54 3 17.75 3H6.25zm11.03 6.28a.75.75 0 10-1.06-1.06L10 14.44l-2.22-2.22a.75.75 0 00-1.06 1.06l2.75 2.75c.29.29.76.29 1.06 0l6.75-6.75zM21 14.5a2.5 2.5 0 11-5 0 2.5 2.5 0 015 0zm2 5.38c0 1.55-1.29 3.12-4.5 3.12S14 21.44 14 19.87v-.1c0-.98.8-1.77 1.77-1.77h5.46c.98 0 1.77.8 1.77 1.77v.1z"/></svg>