<svg width="24" height="24" viewBox="0 0 24 24" xmlns="http://www.w3.org/2000/svg"><path d="M16.09 6.41a2.84 2.84 0 0 0-1.35-.95L13.36 5a.54.54 0 0 1 0-1.03l.71-.23.67-.22a2.82 2.82 0 0 0 1.76-1.76l.01-.03.45-1.38a.54.54 0 0 1 1.03 0l.44 1.38a2.84 2.84 0 0 0 1.8 1.8l1.38.44.03.01a.54.54 0 0 1 0 1.03l-1.38.44a2.84 2.84 0 0 0-1.57 1.3c-.1.15-.17.32-.23.5l-.45 1.38a.54.54 0 0 1-1.03 0l-.44-1.38c-.1-.3-.25-.6-.45-.85Zm7.7 3.8-.77-.25a1.58 1.58 0 0 1-1-1l-.25-.76a.3.3 0 0 0-.57 0l-.25.77a1.58 1.58 0 0 1-.72.88l-.26.11-.77.25a.3.3 0 0 0 0 .57l.77.25a1.58 1.58 0 0 1 1 1l.24.77a.3.3 0 0 0 .12.14.3.3 0 0 0 .46-.14l.24-.77a1.58 1.58 0 0 1 1-1l.77-.24a.3.3 0 0 0 0-.57h-.02Zm-3.04 3.55c-.15-.1-.27-.23-.36-.38a8.5 8.5 0 1 1-8.03-9.87c.18-.22.42-.39.7-.48l1.35-.44c.14-.05.28-.11.4-.2a10 10 0 1 0 7 11.58 1.3 1.3 0 0 1-1.06-.2ZM12 16.5a4.5 4.5 0 0 1-3.54-1.72.75.75 0 0 0-1.18.93 6 6 0 0 0 9.43 0 .75.75 0 0 0-1.18-.92A4.5 4.5 0 0 1 12 16.5ZM10.25 10a1.25 1.25 0 1 0-2.5 0 1.25 1.25 0 0 0 2.5 0Zm6 0a1.25 1.25 0 1 0-2.5 0 1.25 1.25 0 0 0 2.5 0Z"/></svg>