<svg width="20" height="20" viewBox="0 0 20 20" xmlns="http://www.w3.org/2000/svg"><path d="m14.88.28.35 1.07a2.2 2.2 0 0 0 1.4 1.4l1.07.35h.02a.42.42 0 0 1 0 .8l-1.07.35a2.2 2.2 0 0 0-1.4 1.4l-.01.04-.01.01-.23.7-.1.32a.42.42 0 0 1-.16.2.42.42 0 0 1-.64-.2l-.35-1.07a2.23 2.23 0 0 0-1.4-1.4l-.64-.22-.43-.13a.42.42 0 0 1-.28-.4.42.42 0 0 1 .28-.4l1.07-.35a2.2 2.2 0 0 0 1.38-1.4l.35-1.07a.42.42 0 0 1 .8 0Zm4.9 7.93-.76-.25a1.58 1.58 0 0 1-1-1l-.25-.76a.3.3 0 0 0-.57 0l-.25.77a1.58 1.58 0 0 1-.98 1l-.77.24a.3.3 0 0 0-.15.11.3.3 0 0 0 .15.46l.77.25a1.58 1.58 0 0 1 1 1l.24.77a.3.3 0 0 0 .58 0l.24-.77a1.58 1.58 0 0 1 1-1l.77-.24a.3.3 0 0 0 0-.57h-.02ZM10 18a8 8 0 0 0 7.75-6.02 1.3 1.3 0 0 1-1.48-.87l-.25-.76a.57.57 0 0 0-.36-.36l-.79-.26a1.3 1.3 0 0 1-.75-1.78 1.4 1.4 0 0 1-.44-.21l-.04-.03-.03-.02c-.21-.17-.37-.4-.46-.66l-.34-1.07a1.2 1.2 0 0 0-.76-.76l-1.1-.36a1.42 1.42 0 0 1 .02-2.7l.2-.06A8 8 0 1 0 10 18Zm-3.55-5.57c.2-.2.51-.2.7 0a4.01 4.01 0 0 0 5.52.17l.18-.17.06-.06a.5.5 0 0 1 .7.7l-.06.06-.2.2a5.01 5.01 0 0 1-6.9-.2.5.5 0 0 1 0-.7ZM11.5 8.5a1 1 0 1 1 2 0 1 1 0 0 1-2 0Zm-5 0a1 1 0 1 1 2 0 1 1 0 0 1-2 0Z"/></svg>