<svg width="48" height="48" viewBox="0 0 48 48" xmlns="http://www.w3.org/2000/svg"><path d="M32.83 12.11a5.36 5.36 0 00-2.54-1.8l-2.6-.85a1.03 1.03 0 010-1.94l2.6-.84a5.36 5.36 0 003.32-3.33l.02-.06.85-2.6a1.03 1.03 0 011.94 0l.84 2.6a5.36 5.36 0 003.4 3.39l2.6.84.05.02a1.03 1.03 0 010 1.94l-2.6.84a5.36 5.36 0 00-3.4 3.4l-.84 2.6-.03.06a1.03 1.03 0 01-1.9-.07l-.86-2.6a5.35 5.35 0 00-.85-1.6zm6.27 7.07a.54.54 0 00-.09.2.54.54 0 00.35.64l1.38.45a2.84 2.84 0 011.8 1.8l.45 1.38a.54.54 0 001 .04v-.01a.5.5 0 00.02-.04l.45-1.38a2.84 2.84 0 011.8-1.8l1.38-.44a.54.54 0 000-1.03h-.03l-1.38-.45a2.84 2.84 0 01-1.8-1.8L44 15.36a.54.54 0 00-1.03 0l-.45 1.38a2.84 2.84 0 01-1.77 1.8l-1.38.44c-.1.04-.2.11-.26.2zM24 44a20 20 0 115.61-39.2l-2.54.82a3.04 3.04 0 00-1.93 3.79 3.03 3.03 0 001.88 1.93l2.65.87a3.37 3.37 0 012.11 2.12l.85 2.6a3.05 3.05 0 002.85 2.06c.62 0 1.22-.18 1.73-.53a2.54 2.54 0 001.49 3.44l1.42.46a.84.84 0 01.52.53l.45 1.37a2.57 2.57 0 002.02 1.71c.27.04.53.04.8 0A20 20 0 0124 44zm-6.5-22a2.5 2.5 0 100-5 2.5 2.5 0 000 5zM33 19.5a2.5 2.5 0 10-5 0 2.5 2.5 0 005 0zM18.45 34.68c1.71.9 3.62 1.34 5.55 1.32a11.72 11.72 0 009.82-5.1 1.25 1.25 0 10-2.13-1.3A9.21 9.21 0 0124 33.5a9.22 9.22 0 01-7.69-3.9 1.25 1.25 0 10-2.13 1.3c1.1 1.6 2.56 2.9 4.27 3.78z"/></svg>