<svg width="48" height="48" viewBox="0 0 48 48" xmlns="http://www.w3.org/2000/svg"><path d="M32.4 11.6a5.36 5.36 0 011.28 2.11l.85 2.6a1.03 1.03 0 001.94 0l.85-2.6a5.36 5.36 0 013.4-3.39l2.6-.84a1.03 1.03 0 000-1.94l-.06-.02-2.6-.84a5.36 5.36 0 01-3.4-3.4l-.84-2.6a1.03 1.03 0 00-1.94 0l-.85 2.6-.02.07a5.36 5.36 0 01-3.32 3.33l-2.6.84a1.03 1.03 0 000 1.94l2.6.85c.8.26 1.51.7 2.1 1.3zm13.83 6.94l1.38.44.03.01a.54.54 0 010 1.03l-1.38.44a2.84 2.84 0 00-1.8 1.8l-.45 1.38a.54.54 0 01-1.03.01l-.44-1.38a2.84 2.84 0 00-1.36-1.61v-.02a2.84 2.84 0 00-.44-.18L39.36 20a.54.54 0 010-1.03l1.38-.44a2.84 2.84 0 001.77-1.8l.45-1.38a.54.54 0 011.03 0l.44 1.38a2.83 2.83 0 001.8 1.8zM25.68 6.58a17.5 17.5 0 1015.79 18.41 2.57 2.57 0 001.64.98c.27.04.53.04.8 0A20 20 0 1129.6 4.8l-2.54.82c-.55.19-1.03.52-1.39.96zM20 19.5a2.5 2.5 0 11-5 0 2.5 2.5 0 015 0zM30.5 22a2.5 2.5 0 100-5 2.5 2.5 0 000 5zM18.45 34.68c1.71.9 3.62 1.34 5.55 1.32a11.72 11.72 0 009.82-5.1 1.25 1.25 0 10-2.13-1.3A9.21 9.21 0 0124 33.5a9.22 9.22 0 01-7.69-3.9 1.25 1.25 0 10-2.13 1.3c1.1 1.6 2.56 2.9 4.27 3.78z"/></svg>