<svg width="28" height="28" viewBox="0 0 28 28" xmlns="http://www.w3.org/2000/svg"><path d="M17.32 6.22a3.16 3.16 0 0 1 1.6 1.85l.5 1.53a.6.6 0 0 0 .48.4.6.6 0 0 0 .63-.3.62.62 0 0 0 .04-.1l.5-1.53a3.15 3.15 0 0 1 2-2l1.53-.5a.6.6 0 0 0 0-1.14h-.03l-1.54-.5a3.15 3.15 0 0 1-2-2L20.55.4a.6.6 0 0 0-1.14 0l-.5 1.53-.01.04a3.15 3.15 0 0 1-1.96 1.95l-1.53.5a.6.6 0 0 0-.1 1.1.6.6 0 0 0 .1.05l1.53.5c.14.04.27.09.4.15Zm4.72 4.62a.36.36 0 0 1 .2-.18l.92-.3a1.9 1.9 0 0 0 1.18-1.2l.3-.92a.36.36 0 0 1 .68 0l.3.92a1.89 1.89 0 0 0 1.2 1.2l.92.3h.02a.36.36 0 0 1 0 .68l-.92.3a1.9 1.9 0 0 0-.95.71c-.1.15-.19.32-.25.5l-.3.91a.36.36 0 0 1-.68 0l-.3-.92a1.89 1.89 0 0 0-1.2-1.2l-.92-.3a.36.36 0 0 1-.2-.5ZM14 26a12 12 0 0 0 11.99-11.42 1.36 1.36 0 0 1-2.28-.51l-.3-.91a.9.9 0 0 0-.56-.57l-.94-.3a1.36 1.36 0 0 1-.84-1.7 1.6 1.6 0 0 1-2.58-.7l-.5-1.52a2.1 2.1 0 0 0-.52-.84 2.16 2.16 0 0 0-.84-.52l-1.55-.5a1.6 1.6 0 0 1 .02-3.03l1.51-.5c.3-.1.57-.27.8-.49A12 12 0 1 0 14 26Zm3.5-13a1.5 1.5 0 1 1 0-3 1.5 1.5 0 0 1 0 3ZM12 11.5a1.5 1.5 0 1 1-3 0 1.5 1.5 0 0 1 3 0Zm-3.67 5.63a.75.75 0 0 1 1.04.2 2.25 2.25 0 0 0 .25.3A5.92 5.92 0 0 0 14 19.5a5.92 5.92 0 0 0 4.62-2.16l.01-.01a.75.75 0 0 1 1.24.84l-.01.02-.01.01-.01.02a3.85 3.85 0 0 1-.36.43A7.42 7.42 0 0 1 14 21a7.42 7.42 0 0 1-5.86-2.81v-.01h-.01a.75.75 0 0 1 .2-1.05Z"/></svg>