<svg width="28" height="28" viewBox="0 0 28 28" xmlns="http://www.w3.org/2000/svg"><path d="M18.17 6.83a3.16 3.16 0 01.76 1.24l.5 1.53a.6.6 0 001.14 0l.5-1.53a3.15 3.15 0 012-2l1.53-.5a.6.6 0 000-1.14h-.03l-1.54-.5a3.15 3.15 0 01-2-2L20.55.4a.6.6 0 00-1.14 0l-.5 1.53-.01.04a3.15 3.15 0 01-1.95 1.95h.02-.03l-1.53.5a.6.6 0 000 1.15l1.53.5c.47.15.9.41 1.24.76zm8.65 3.53l.92.3h.02a.36.36 0 010 .68l-.92.3a1.9 1.9 0 00-1.2 1.2l-.3.92a.36.36 0 01-.68 0l-.2-.58-.1-.34a1.9 1.9 0 00-1.2-1.2l-.92-.3a.36.36 0 010-.68l.92-.3c.2-.07.4-.18.57-.32l.07-.06a1.87 1.87 0 00.54-.82l.3-.92a.36.36 0 01.68 0l.3.92a1.89 1.89 0 001.2 1.2zm-2.03 4.63a1.36 1.36 0 01-.33-.1 10.5 10.5 0 11-9.53-11.35c.06-.02.11-.05.17-.06l1.51-.5c.3-.1.57-.27.8-.49A12 12 0 1026 14.6a1.36 1.36 0 01-1.2.4zM10.5 13a1.5 1.5 0 100-3 1.5 1.5 0 000 3zm8.5-1.5a1.5 1.5 0 11-3 0 1.5 1.5 0 013 0zM8.33 17.13a.75.75 0 011.04.2 2.25 2.25 0 00.25.3A5.92 5.92 0 0014 19.5a5.92 5.92 0 004.62-2.16l.01-.01a.75.75 0 011.24.84l-.01.02-.02.03a3.85 3.85 0 01-.36.43A7.42 7.42 0 0114 21a7.42 7.42 0 01-5.86-2.81v-.01h-.01a.75.75 0 01.2-1.05z"/></svg>