<svg width="32" height="32" viewBox="0 0 32 32" xmlns="http://www.w3.org/2000/svg"><path d="M18 5.56a.67.67 0 00.44.57l1.69.55a3.47 3.47 0 012.2 2.2l.54 1.68a.66.66 0 001.24.05v-.02l.02-.03.12-.36.42-1.33a3.47 3.47 0 012.2-2.2l1.69-.54a.67.67 0 000-1.25l-.04-.01-1.68-.55a3.47 3.47 0 01-2.2-2.2L24.1.45a.66.66 0 00-1.25 0l-.55 1.69-.01.04a3.47 3.47 0 01-2.15 2.15l-1.69.55a.67.67 0 00-.44.69zm9.93 6.3c.19-.2.33-.44.41-.7l.3-.92a.36.36 0 01.68 0l.3.92a1.89 1.89 0 001.2 1.2l.92.3h.02a.36.36 0 010 .68l-.92.3a1.9 1.9 0 00-.94.7c-.1.15-.2.32-.26.5l-.3.92a.36.36 0 01-.68 0l-.3-.92a1.89 1.89 0 00-1.2-1.2l-.92-.3a.36.36 0 01-.23-.45.36.36 0 01.23-.24l.92-.3a1.9 1.9 0 00.77-.5zM16 30a14 14 0 114.16-27.37c-.16.11-.33.2-.52.27l-1.66.54a2.18 2.18 0 00-1.45 1.72 2.16 2.16 0 001.42 2.37l1.71.56a1.97 1.97 0 011.24 1.25l.55 1.67a2.18 2.18 0 002.03 1.48c.44 0 .87-.12 1.23-.37a1.86 1.86 0 001.03 2.63l.95.3.15.1c.04.04.07.1.1.15l.3.91a1.88 1.88 0 001.48 1.26 1.86 1.86 0 001.23-.23A14 14 0 0116 30zm-4-15a2 2 0 100-4 2 2 0 000 4zm10-2a2 2 0 10-4 0 2 2 0 004 0zM9.55 19.1a1 1 0 00-.44 1.35v.02a2.45 2.45 0 00.1.18l.3.42c.25.34.63.78 1.18 1.21A8.28 8.28 0 0016 24c2.5 0 4.21-.84 5.31-1.72a6.76 6.76 0 001.55-1.76l.01-.03.01-.02v-.01h.01v-.01a1 1 0 00-1.78-.9l-.04.06-.17.26c-.17.22-.44.53-.84.85A6.3 6.3 0 0116 22c-2 0-3.29-.66-4.06-1.28a4.76 4.76 0 01-1.05-1.17 1 1 0 00-1.34-.44z"/></svg>