<svg width="28" height="28" viewBox="0 0 28 28" xmlns="http://www.w3.org/2000/svg"><path d="M17.32 6.22a3.16 3.16 0 011.6 1.85l.5 1.53a.6.6 0 00.48.4.6.6 0 00.63-.3.62.62 0 00.04-.1l.5-1.53a3.15 3.15 0 012-2l1.53-.5a.6.6 0 000-1.14h-.03l-1.54-.5a3.15 3.15 0 01-2-2L20.55.4a.6.6 0 00-1.14 0l-.5 1.53-.01.04a3.15 3.15 0 01-1.96 1.95l-1.53.5a.6.6 0 00-.1 1.1.6.6 0 00.1.05l1.53.5c.14.04.27.09.4.15zm4.72 4.62a.36.36 0 01.2-.18l.92-.3a1.9 1.9 0 001.18-1.2l.3-.92a.36.36 0 01.68 0l.3.92a1.89 1.89 0 001.2 1.2l.92.3h.02a.36.36 0 010 .68l-.92.3a1.9 1.9 0 00-.95.71c-.1.15-.19.32-.25.5l-.3.91a.36.36 0 01-.68 0l-.3-.92a1.89 1.89 0 00-1.2-1.2l-.92-.3a.36.36 0 01-.2-.5zM14 26a12 12 0 0011.99-11.42 1.36 1.36 0 01-2.28-.51l-.3-.91a.9.9 0 00-.56-.57l-.94-.3a1.36 1.36 0 01-.84-1.7 1.6 1.6 0 01-2.58-.7l-.5-1.52a2.1 2.1 0 00-.52-.84 2.16 2.16 0 00-.84-.52l-1.55-.5a1.6 1.6 0 01.02-3.03l1.51-.5c.3-.1.57-.27.8-.49A12 12 0 1014 26zm3.5-13a1.5 1.5 0 110-3 1.5 1.5 0 010 3zM12 11.5a1.5 1.5 0 11-3 0 1.5 1.5 0 013 0zm-3.67 5.63a.75.75 0 011.04.2 2.25 2.25 0 00.25.3A5.92 5.92 0 0014 19.5a5.92 5.92 0 004.62-2.16l.01-.01a.75.75 0 011.24.84l-.01.02-.01.01-.01.02a3.85 3.85 0 01-.36.43A7.42 7.42 0 0114 21a7.42 7.42 0 01-5.86-2.81v-.01h-.01a.75.75 0 01.2-1.05z"/></svg>