<svg width="20" height="20" viewBox="0 0 20 20" xmlns="http://www.w3.org/2000/svg"><path d="M10 16c-.46.6-1.18 1-2 1H3.5A1.5 1.5 0 0 1 2 15.5v-11C2 3.67 2.67 3 3.5 3H8c.82 0 1.54.4 2 1 .46-.6 1.18-1 2-1h4.5c.83 0 1.5.67 1.5 1.5v7c0-.82-.4-1.54-1-2v-5a.5.5 0 0 0-.5-.5H12c-.83 0-1.5.67-1.5 1.5v9c0 .52.27.99.68 1.25.13.45.32.86.57 1.24A2.5 2.5 0 0 1 10 16ZM3 4.5v11c0 .28.22.5.5.5H8c.83 0 1.5-.67 1.5-1.5v-9C9.5 4.67 8.83 4 8 4H3.5a.5.5 0 0 0-.5.5Zm14.43 11.6c.35-.44.57-1 .57-1.6a.5.5 0 0 1 1 0 3.5 3.5 0 0 1-3 3.46v.54a.5.5 0 0 1-1 0v-.54a3.49 3.49 0 0 1-3-3.46.5.5 0 0 1 1 0 2.49 2.49 0 0 0 2.5 2.5 2.5 2.5 0 0 0 1.93-.9ZM14 11.5a1.5 1.5 0 0 1 3 0v3a1.5 1.5 0 0 1-3 0v-3Z"/></svg>