<svg width="28" height="28" viewBox="0 0 28 28" xmlns="http://www.w3.org/2000/svg"><path d="M11.5 4c.98 0 1.86.4 2.5 1.05A3.49 3.49 0 0 1 16.5 4H24a2 2 0 0 1 2 2v10.5a4 4 0 0 0-2-3.46V6h-7.5c-.83 0-1.5.67-1.5 1.5v13c0 .56.3 1.04.75 1.3.24.81.62 1.55 1.13 2.2h-.38c-.98 0-1.86-.4-2.5-1.05A3.49 3.49 0 0 1 11.5 24H4a2 2 0 0 1-2-2V6c0-1.1.9-2 2-2h7.5ZM13 20.5v-13c0-.83-.67-1.5-1.5-1.5H4v16h7.5c.83 0 1.5-.67 1.5-1.5Zm4.42 1.5a4.98 4.98 0 0 1-.42-2 .5.5 0 0 1 1 0 3.98 3.98 0 0 0 3.59 3.98 4.05 4.05 0 0 0 .81 0h.01l.19-.02A4 4 0 0 0 26 20a.5.5 0 0 1 1 0 5 5 0 0 1-4.5 5v1.5a.5.5 0 0 1-1 0v-1.52A4.97 4.97 0 0 1 17.42 22Zm4.58.5a2.49 2.49 0 0 0 2.5-2.5v-3.5A2.49 2.49 0 0 0 22 14a2.5 2.5 0 0 0-2.5 2.5V20a2.5 2.5 0 0 0 2.5 2.5Z"/></svg>