<svg width="24" height="24" viewBox="0 0 24 24" xmlns="http://www.w3.org/2000/svg"><path d="M17.5 1a5.5 5.5 0 1 1 0 11 5.5 5.5 0 0 1 0-11Zm-3 5a.5.5 0 0 0 0 1h4.8l-1.65 1.65a.5.5 0 0 0 .7.7l2.5-2.5a.5.5 0 0 0 0-.7l-2.5-2.5a.5.5 0 0 0-.7.7L19.29 6H14.5Zm6 8.75v-2.48a6.52 6.52 0 0 0 1.5-1.08v3.56c0 1.8-1.46 3.25-3.25 3.25h-5.74L8 21.75a1.25 1.25 0 0 1-2-1V18h-.75A3.25 3.25 0 0 1 2 14.75v-8.5C2 4.45 3.46 3 5.25 3h6.77c-.3.46-.53.97-.7 1.5H5.24c-.97 0-1.75.78-1.75 1.75v8.5c0 .97.78 1.75 1.75 1.75H7.5v3.75l5.01-3.75h6.24c.97 0 1.75-.78 1.75-1.75Z"/></svg>