<svg width="24" height="24" viewBox="0 0 24 24" xmlns="http://www.w3.org/2000/svg"><path d="M5 13.75c0-.69.56-1.25 1.25-1.25h4c.69 0 1.25.56 1.25 1.25v2c0 .69-.56 1.25-1.25 1.25h-4C5.56 17 5 16.44 5 15.75v-2Zm1.5.25v1.5H10V14H6.5Zm7.25-1.5c-.69 0-1.25.56-1.25 1.25v2c0 .69.56 1.25 1.25 1.25h4c.69 0 1.25-.56 1.25-1.25v-2c0-.69-.56-1.25-1.25-1.25h-4Zm.25 3V14h3.5v1.5H14ZM5 8.25C5 7.56 5.56 7 6.25 7h4c.69 0 1.25.56 1.25 1.25v2c0 .69-.56 1.25-1.25 1.25h-4c-.69 0-1.25-.56-1.25-1.25v-2Zm1.5.25V10H10V8.5H6.5ZM13.75 7c-.69 0-1.25.56-1.25 1.25v2c0 .69.56 1.25 1.25 1.25h4c.69 0 1.25-.56 1.25-1.25v-2C19 7.56 18.44 7 17.75 7h-4Zm.25 3V8.5h3.5V10H14ZM2 6.75A2.75 2.75 0 0 1 4.75 4h14.5A2.75 2.75 0 0 1 22 6.75v10.5A2.75 2.75 0 0 1 19.25 20H4.75A2.75 2.75 0 0 1 2 17.25V6.75ZM4.75 5.5c-.69 0-1.25.56-1.25 1.25v10.5c0 .69.56 1.25 1.25 1.25h14.5c.69 0 1.25-.56 1.25-1.25V6.75c0-.69-.56-1.25-1.25-1.25H4.75Z"/></svg>