<svg width="20" height="20" viewBox="0 0 20 20" xmlns="http://www.w3.org/2000/svg"><path d="m6.72 4.33-3.9 4.1A3 3 0 0 0 2 10.5V15c0 1.1.9 2 2 2h7.59l-1.74-.52A28.3 28.3 0 0 1 6 14.99c-.54-.26-1-.54-1.35-.84C4.32 13.86 4 13.48 4 13c0-.98.77-1.54 1.58-1.86.82-.34 1.9-.52 2.92-.68l.63-.1c.82-.12 1.6-.23 2.22-.4.4-.1.7-.2.9-.32.2-.12.25-.21.26-.26.02-.06.02-.16-.12-.34-.14-.2-.38-.41-.71-.66-.44-.32-.96-.64-1.51-.97l-1-.62a7.08 7.08 0 0 1-2.22-1.95c-.1-.16-.18-.33-.23-.5ZM15.56 17l-.07-.02a54.15 54.15 0 0 1-1.58-.39c-1.03-.26-2.4-.63-3.76-1.07a27.36 27.36 0 0 1-3.7-1.42c-.5-.25-.9-.49-1.15-.71-.27-.24-.3-.37-.3-.39 0-.33.23-.65.95-.94.7-.28 1.66-.45 2.7-.61l.6-.1c.83-.11 1.67-.24 2.35-.41.43-.11.83-.25 1.16-.44.32-.19.62-.47.73-.88a1.4 1.4 0 0 0-.29-1.17c-.23-.32-.57-.61-.93-.88-.47-.34-1.06-.7-1.64-1.06l-.92-.57a6.22 6.22 0 0 1-1.9-1.63.99.99 0 0 1-.18-.66c.02-.15.1-.33.25-.55l.3-.32a2.5 2.5 0 0 1 3.63 0l5.37 5.65A3 3 0 0 1 18 10.5V15a2 2 0 0 1-2 2h-.44Z"/></svg>