<svg width="20" height="20" viewBox="0 0 20 20" xmlns="http://www.w3.org/2000/svg"><path d="M15.48 17H4a2 2 0 0 1-2-2v-4.5a3 3 0 0 1 .82-2.07L8.2 2.78a2.5 2.5 0 0 1 3.62 0l5.37 5.65A3 3 0 0 1 18 10.5V15a2 2 0 0 1-2 2h-.52ZM9.1 3.31a1.75 1.75 0 0 0-.56.86c-.04.2-.01.4.1.6.23.46.8.92 1.56 1.43l.8.5c.5.32 1.03.64 1.43.96.33.24.63.52.83.83.22.32.34.7.24 1.13-.1.41-.41.7-.73.88-.33.2-.73.33-1.16.44-.68.17-1.52.3-2.35.42l-.6.09c-1.04.16-2 .33-2.7.61-.72.3-.95.6-.95.94 0 .01.01.12.28.33.25.2.63.4 1.13.6.99.4 2.33.77 3.7 1.08a67.33 67.33 0 0 0 5.34.98l.08.01H16a1 1 0 0 0 1-1v-4.5a2 2 0 0 0-.55-1.38L11.1 3.47a1.5 1.5 0 0 0-2-.16ZM7.6 4.87 3.55 9.12A2 2 0 0 0 3 10.5V15a1 1 0 0 0 1 1h5.94l-.05-.01c-1.38-.32-2.8-.7-3.86-1.14a5.99 5.99 0 0 1-1.36-.73C4.33 13.86 4 13.49 4 13c0-.98.77-1.54 1.58-1.86.82-.34 1.9-.52 2.92-.68l.63-.1c.82-.12 1.6-.23 2.22-.4.4-.1.7-.2.9-.32.2-.12.25-.21.26-.26.02-.08.02-.18-.09-.34a2.7 2.7 0 0 0-.6-.6c-.38-.28-.82-.55-1.3-.85l-.88-.56a5.45 5.45 0 0 1-1.9-1.8 2.1 2.1 0 0 1-.15-.36Z"/></svg>