<svg width="24" height="24" viewBox="0 0 24 24" xmlns="http://www.w3.org/2000/svg"><path d="M10.09 2.85a2.75 2.75 0 0 1 3.82 0l7.1 6.87c.63.62.99 1.46.99 2.34v6.69c0 1.24-1 2.25-2.25 2.25h-1.06l-.06-.01a50.71 50.71 0 0 1-1.84-.48c-1.2-.33-2.78-.8-4.36-1.36a24.95 24.95 0 0 1-4.29-1.9c-.57-.34-1-.67-1.28-.98-.3-.32-.36-.54-.36-.67 0-.31.2-.65 1.02-.99.8-.33 1.91-.53 3.14-.73l.7-.1c.97-.15 1.97-.3 2.78-.5.51-.14 1-.31 1.4-.55.4-.24.8-.6.94-1.15.15-.61-.1-1.15-.41-1.54A5.22 5.22 0 0 0 14.83 9c-.67-.43-1.53-.87-2.38-1.3l-.96-.5a9.88 9.88 0 0 1-2.64-1.78c-.24-.28-.32-.5-.33-.65-.01-.15.03-.37.3-.68l.02-.03 1.25-1.2ZM7.22 5.63l-4.23 4.1A3.25 3.25 0 0 0 2 12.05v6.69C2 19.99 3 21 4.25 21h8.94l-1.27-.43a26.37 26.37 0 0 1-4.55-2.03c-.63-.38-1.2-.8-1.62-1.26A2.52 2.52 0 0 1 5 15.6c0-1.27.98-1.97 1.95-2.37.99-.41 2.27-.64 3.48-.83l.74-.11c.97-.15 1.86-.28 2.6-.47.45-.12.79-.25 1-.38.23-.13.25-.22.25-.22v-.05a.64.64 0 0 0-.12-.2c-.16-.2-.45-.43-.88-.7-.6-.4-1.36-.78-2.18-1.2l-1.05-.54c-1.14-.6-2.35-1.3-3.06-2.12-.2-.23-.39-.5-.51-.78Z"/></svg>