<svg width="24" height="24" viewBox="0 0 24 24" xmlns="http://www.w3.org/2000/svg"><path d="M13.92 2.78a2.75 2.75 0 0 0-3.84 0l-7.1 6.95A3.25 3.25 0 0 0 2 12.05v6.7C2 19.99 3 21 4.25 21h15.5c1.24 0 2.25-1 2.25-2.25v-6.7c0-.87-.35-1.71-.98-2.32l-7.1-6.95Zm4.72 16.72-.1-.01a44.13 44.13 0 0 1-1.83-.26c-1.2-.19-2.78-.47-4.36-.85a22.1 22.1 0 0 1-4.27-1.4 4.88 4.88 0 0 1-1.25-.8c-.27-.27-.33-.46-.33-.58 0-.31.2-.65 1.02-.99.8-.33 1.91-.53 3.14-.73l.7-.1c.97-.15 1.97-.3 2.78-.5.51-.14 1-.31 1.4-.55.4-.24.8-.6.94-1.15a1.81 1.81 0 0 0-.32-1.49 4.6 4.6 0 0 0-1.06-1.03c-.51-.38-1.17-.78-1.8-1.16-.34-.2-.67-.4-.97-.6a5.65 5.65 0 0 1-1.91-1.66.87.87 0 0 1-.11-.62c.04-.2.19-.5.57-.89l.11-.14.14-.13a1.25 1.25 0 0 1 1.74 0l7.1 6.94c.34.33.53.78.53 1.25v6.7c0 .41-.34.75-.75.75h-1.1ZM8.94 6c.04.12.1.24.16.35.49.9 1.5 1.63 2.42 2.22l1.1.67c.59.36 1.13.68 1.59 1.02.36.27.59.5.72.68.11.17.1.24.1.28 0 0-.03.09-.25.22s-.56.26-1.01.38c-.74.19-1.63.32-2.6.47l-.74.11c-1.2.19-2.5.42-3.48.83-.97.4-1.95 1.1-1.95 2.37 0 .67.34 1.22.78 1.64.43.43 1.01.79 1.65 1.1.93.45 2.07.83 3.25 1.16H4.25a.75.75 0 0 1-.75-.75v-6.7c0-.47.19-.92.53-1.25L8.93 6Z"/></svg>