<svg width="28" height="28" viewBox="0 0 28 28" xmlns="http://www.w3.org/2000/svg"><path d="M12.13 3.73a2.75 2.75 0 0 1 3.74 0l7.92 7.33c.77.7 1.21 1.7 1.21 2.75v8.44A2.75 2.75 0 0 1 22.25 25h-.46l-.07-.02a52.44 52.44 0 0 1-2.14-.6c-1.4-.43-3.24-1.02-5.09-1.72a29.96 29.96 0 0 1-5-2.36 7.24 7.24 0 0 1-1.54-1.22c-.35-.39-.45-.68-.45-.88 0-.25.08-.43.24-.59.19-.18.5-.35.95-.5.93-.3 2.21-.43 3.62-.53l.76-.05c1.13-.07 2.3-.14 3.24-.31.59-.1 1.15-.26 1.61-.5.47-.25.9-.63 1.06-1.24.17-.7-.14-1.28-.53-1.71-.38-.42-.93-.8-1.5-1.13-.8-.45-1.79-.91-2.77-1.36l-1.36-.64c-1.44-.7-2.6-1.37-3.18-2.04-.27-.32-.35-.57-.34-.78.02-.22.13-.54.58-.99a.76.76 0 0 0 .07-.08l2.18-2.02Zm-4.2 3.88-3.72 3.45c-.77.7-1.21 1.7-1.21 2.75v8.44A2.75 2.75 0 0 0 5.75 25h10.84c-.84-.28-1.74-.6-2.63-.94a31.38 31.38 0 0 1-5.27-2.49 8.69 8.69 0 0 1-1.86-1.49A2.88 2.88 0 0 1 6 18.2c0-.67.26-1.23.7-1.66.4-.4.95-.67 1.52-.86 1.13-.37 2.6-.5 3.99-.6l.8-.05c1.13-.07 2.18-.14 3.04-.29.52-.1.91-.21 1.17-.35.25-.13.3-.23.3-.27 0-.02.03-.11-.18-.34-.22-.25-.6-.53-1.15-.84-.73-.42-1.61-.83-2.55-1.26-.48-.22-.98-.45-1.48-.7-1.4-.67-2.85-1.46-3.66-2.42-.24-.28-.44-.6-.57-.95Z"/></svg>