<svg width="28" height="28" viewBox="0 0 28 28" xmlns="http://www.w3.org/2000/svg"><path d="M15.87 3.73a2.75 2.75 0 0 0-3.74 0l-7.92 7.33c-.77.7-1.21 1.7-1.21 2.75v8.44A2.75 2.75 0 0 0 5.75 25h16.5A2.75 2.75 0 0 0 25 22.25v-8.44c0-1.04-.44-2.04-1.2-2.75l-7.93-7.33Zm5.88 19.77a22.95 22.95 0 0 1-.57-.1 75.64 75.64 0 0 1-6.75-1.51 26.83 26.83 0 0 1-5-1.85 6.18 6.18 0 0 1-1.5-1.05c-.33-.34-.43-.6-.43-.79 0-.25.08-.43.24-.59.19-.18.5-.35.95-.5.93-.3 2.21-.43 3.62-.53l.76-.05c1.13-.07 2.3-.14 3.24-.31.59-.1 1.15-.26 1.61-.5.47-.25.9-.63 1.06-1.24.16-.63-.05-1.2-.38-1.65a5.32 5.32 0 0 0-1.26-1.15c-.62-.44-1.42-.9-2.2-1.34-.4-.23-.8-.45-1.16-.67-1.16-.7-2.03-1.34-2.41-1.97a1.09 1.09 0 0 1-.17-.79c.05-.26.22-.62.68-1.08a.76.76 0 0 0 .03-.04l1.04-.95a1.25 1.25 0 0 1 1.7 0l7.93 7.32c.46.43.72 1.03.72 1.65v8.44c0 .69-.56 1.25-1.25 1.25h-.5ZM9.98 7.77c.07.24.17.47.3.7.6 1 1.8 1.8 2.93 2.49l1.29.74c.73.42 1.4.8 1.98 1.2.44.31.74.58.9.81.16.22.16.33.14.4 0 .05-.05.15-.3.28a4.2 4.2 0 0 1-1.17.35c-.86.15-1.9.22-3.04.3l-.8.05c-1.39.1-2.86.22-3.99.6-.57.18-1.11.45-1.53.85-.43.43-.69.99-.69 1.66 0 .73.37 1.35.86 1.84.48.5 1.14.94 1.88 1.33a28.25 28.25 0 0 0 5.9 2.13H5.75c-.69 0-1.25-.56-1.25-1.25v-8.44c0-.63.26-1.22.72-1.65l4.76-4.4Z"/></svg>