<svg width="32" height="32" viewBox="0 0 32 32" xmlns="http://www.w3.org/2000/svg"><path d="M28 12s0 1.13-.47 2.63l-5.18-5.19A1.5 1.5 0 0021.3 9h-4.6c-.33 0-.66.12-.92.32l-1.82 1.43a1.2 1.2 0 11-1.49-1.9L18.66 4H20a8 8 0 018 8zM7.38 15.33a1.08 1.08 0 00-1.52 0L4.3 16.88c-.42.42-.42 1.1 0 1.53.43.42 1.1.42 1.53 0l1.54-1.55c.43-.42.43-1.1 0-1.53zm1.6 2.09c.42-.42 1.1-.42 1.52 0 .43.42.43 1.1 0 1.53L8.96 20.5c-.42.42-1.1.42-1.52 0a1.08 1.08 0 010-1.53l1.54-1.55zm4.12 2.6a1.08 1.08 0 00-1.53 0l-1.54 1.54c-.42.43-.42 1.11 0 1.53.42.43 1.1.43 1.52 0l1.55-1.54c.42-.43.42-1.11 0-1.53zm2.59 2.6a1.08 1.08 0 00-1.53 0l-1.54 1.54c-.43.42-.43 1.1 0 1.53.42.42 1.1.42 1.52 0l1.55-1.55c.42-.42.42-1.1 0-1.53zm-.65-18.33a7.46 7.46 0 00-1.7-.29H13a8 8 0 00-8 8v2.09a2.57 2.57 0 014.16 1.58 2.57 2.57 0 013.16 2.53 2.56 2.56 0 012.59 2.6 2.59 2.59 0 011.83 4.41l-.22.22 1.27 1.26c.42.42 1.1.42 1.52 0 .41-.4.41-1.07 0-1.48a.75.75 0 011.06-1.07c.42.41 1.1.41 1.52 0 .41-.41.41-1.08 0-1.49a.75.75 0 011.06-1.07c.42.42 1.1.41 1.51 0 .43-.42.42-1.1.02-1.5l-2.26-2.26a.75.75 0 011.06-1.06l2.64 2.63c.53.53 1.4.53 1.85.08.46-.45.45-1.3-.07-1.83L21.06 11h-4.2l-1.68 1.32a3.2 3.2 0 11-3.95-5.05l3.8-2.98z"/></svg>