<svg width="24" height="24" viewBox="0 0 24 24" xmlns="http://www.w3.org/2000/svg"><path d="M12.24 2.96c-.23 0-.44.11-.58.28l-.06.04a6.3 6.3 0 0 0-6.26 1.56 6.2 6.2 0 0 0-1.74 5.5l-.02.02-.95.95a2.1 2.1 0 0 0 0 3c.49.48 1.15.68 1.79.6a2.1 2.1 0 0 0 1.88 1.56 2.13 2.13 0 0 0 2.02 1.94 2.14 2.14 0 0 0 3.4 1.59l.4.38a2.15 2.15 0 0 0 3.64-1.32 2.13 2.13 0 0 0 1.94-1.93 2.13 2.13 0 0 0 1.87-1.6 2.1 2.1 0 0 0 1.76-3.6l-.83-.83.17-.67a6.02 6.02 0 0 0-5.83-7.46h-2.6Zm2.92 4.95 3.47 3.44.02.02 1.62 1.61c.25.25.25.64 0 .88a.63.63 0 0 1-.89 0l-1.62-1.61a.76.76 0 0 0-1.06 0l-.02.02c-.3.29-.3.76 0 1.05l1.27 1.26c.24.24.24.64 0 .88a.63.63 0 0 1-.82.06.76.76 0 0 0-.99.07.74.74 0 0 0-.06.98c.19.25.17.6-.06.82a.63.63 0 0 1-.83.05.76.76 0 0 0-1 .06c-.26.27-.29.7-.06.99.2.25.18.6-.05.83a.64.64 0 0 1-.9 0l-.37-.37.1-.1a2.1 2.1 0 0 0-1.4-3.61 2.1 2.1 0 0 0-1.95-2 2.14 2.14 0 0 0-2.41-1.93 2.13 2.13 0 0 0-2.12-1.56 4.77 4.77 0 0 1 4.95-5.23l-1.5 1.13a2.31 2.31 0 0 0-.44 3.25 2.33 2.33 0 0 0 3.26.44l1.9-1.43h1.96ZM9.4 6.84l3.14-2.38h.5a2.75 2.75 0 0 1 .19.01h1.62a4.52 4.52 0 0 1 4.43 5.37l-3.21-3.2a.75.75 0 0 0-.54-.23h-2.58a.75.75 0 0 0-.45.15l-2.1 1.59a.83.83 0 0 1-1.16-.16.81.81 0 0 1 .16-1.15ZM6.03 14.8a.62.62 0 0 1 0-.88l.96-.95a.63.63 0 0 1 .89 0c.24.24.24.62 0 .87l-.96.96a.63.63 0 0 1-.88 0Zm-.49-3.37a.62.62 0 0 1 0 .87l-.96.95a.63.63 0 0 1-.89 0 .62.62 0 0 1 0-.88l.96-.95a.63.63 0 0 1 .88 0h.01Zm5.35 7.31a.63.63 0 0 1-.89 0 .62.62 0 0 1 0-.88l.96-.95a.63.63 0 0 1 .89 0c.24.25.24.64 0 .88l-.96.95Zm-2.02-2a.63.63 0 0 1-.89 0 .62.62 0 0 1 0-.88l.96-.96h.01a.63.63 0 0 1 .88 0c.24.25.24.64 0 .88l-.96.96Z"/></svg>