<svg width="48" height="48" viewBox="0 0 48 48" xmlns="http://www.w3.org/2000/svg"><path d="M12 8a3 3 0 00-3 3v1.5a1.5 1.5 0 01-3 0V11a6 6 0 1112 0v7h15v-7a3 3 0 10-6 0v1.5a1.5 1.5 0 11-3 0V11a6 6 0 0112 0v17.71a16.96 16.96 0 01-3 .29v-8H18v3.52a21.15 21.15 0 00-3-.46V11a3 3 0 00-3-3zM5.34 30.48a1.5 1.5 0 01.2-2.1v-.01h.01l.01-.01.03-.02a4.98 4.98 0 01.34-.25 13.24 13.24 0 014.48-1.8c3.1-.61 7.47-.45 12.92 2.32a20.3 20.3 0 0012.48 2.17 17.83 17.83 0 004.89-1.52l.05-.02a1.5 1.5 0 011.5 2.6h-.02l-.02.02a7.13 7.13 0 01-.43.22 20.82 20.82 0 01-5.51 1.66c-3.65.57-8.7.4-14.3-2.45-4.87-2.48-8.56-2.53-10.97-2.05a10.25 10.25 0 00-3.39 1.33 3.57 3.57 0 00-.16.12 1.5 1.5 0 01-2.1-.2zm0 9a1.5 1.5 0 01.2-2.1v-.01h.01l.01-.01.03-.02a4.98 4.98 0 01.34-.25 13.24 13.24 0 014.48-1.79c3.1-.62 7.47-.46 12.92 2.31a20.3 20.3 0 0012.48 2.17 17.83 17.83 0 004.89-1.52l.05-.02a1.5 1.5 0 011.5 2.6h-.02l-.02.02a7.13 7.13 0 01-.43.22 20.82 20.82 0 01-5.51 1.66c-3.65.57-8.7.4-14.3-2.45-4.87-2.48-8.56-2.53-10.97-2.05a10.25 10.25 0 00-3.39 1.33 3.57 3.57 0 00-.16.12 1.5 1.5 0 01-2.1-.2z"/></svg>