<svg width="24" height="24" viewBox="0 0 24 24" xmlns="http://www.w3.org/2000/svg"><path d="M5.5 5.75a1.25 1.25 0 112.5 0v6.29c.48.04.98.13 1.5.27V11H16v3.5a6.52 6.52 0 001.5-.2V5.75a2.75 2.75 0 10-5.5 0v.5a.75.75 0 001.5 0v-.5a1.25 1.25 0 112.5 0V9.5H9.5V5.75a2.75 2.75 0 00-5.5 0v.5a.75.75 0 001.5 0v-.5zm-1.22 9.78a.75.75 0 01-1.06-1.06l.02-.02a2.15 2.15 0 01.16-.14c.1-.1.25-.2.44-.33.4-.26.96-.56 1.7-.76 1.5-.4 3.6-.37 6.2 1.11a7.94 7.94 0 005.77 1 7.5 7.5 0 002.3-.94.75.75 0 01.88 1.21l-.02.02a3.06 3.06 0 01-.2.13c-.14.08-.33.2-.57.32a9.43 9.43 0 01-8.9-.43c-2.28-1.3-3.98-1.27-5.07-.97a4.43 4.43 0 00-1.64.85zm-1.06 4c.3.29.77.29 1.06 0l.01-.01.07-.06a4.43 4.43 0 011.57-.79c1.1-.3 2.8-.33 5.06.96a9.43 9.43 0 006.85 1.16 8.99 8.99 0 002.83-1.17l.01-.01h.01a.75.75 0 00-.88-1.22l-.02.02a3.56 3.56 0 01-.56.31 7.94 7.94 0 01-7.5-.4c-2.59-1.47-4.7-1.5-6.2-1.1a5.92 5.92 0 00-2.3 1.23v.01h-.01v.01a.75.75 0 000 1.06z"/></svg>