<svg width="20" height="20" viewBox="0 0 20 20" xmlns="http://www.w3.org/2000/svg"><path d="M5.75 4a.75.75 0 00-.75.75v.5a.75.75 0 01-1.5 0v-.5a2.25 2.25 0 014.5 0V7.5h5V4.75a.75.75 0 10-1.5 0v.5a.75.75 0 11-1.5 0v-.5a2.25 2.25 0 014.5 0v7.03c-.4.13-.91.23-1.5.22V9H8v1.23A7.16 7.16 0 006.5 10V4.75A.75.75 0 005.75 4zm.06 8.53c-.8.09-1.35.42-1.6.61a.75.75 0 01-.9-1.2c.4-.31 1.2-.77 2.33-.9a6.84 6.84 0 014.24 1.05c2.93 1.7 5.3.58 6 .17a.75.75 0 11.75 1.3 7.33 7.33 0 01-7.5-.17 5.36 5.36 0 00-3.32-.86zm0 3c-.8.09-1.35.42-1.6.61a.75.75 0 01-.9-1.2c.4-.31 1.2-.77 2.33-.9a6.84 6.84 0 014.24 1.05c2.93 1.7 5.3.58 6 .17a.75.75 0 11.75 1.3 7.33 7.33 0 01-7.5-.17 5.36 5.36 0 00-3.32-.86z"/></svg>