<svg width="48" height="48" viewBox="0 0 48 48" xmlns="http://www.w3.org/2000/svg"><path d="M9 10.75a3.25 3.25 0 016.5 0v13.4c.8.08 1.63.2 2.5.4V21h15.5v8.06a17.22 17.22 0 002.5-.27V10.75a5.75 5.75 0 00-11.5 0v1a1.25 1.25 0 102.5 0v-1a3.25 3.25 0 016.5 0v7.75H18v-7.75a5.75 5.75 0 00-11.5 0v1a1.25 1.25 0 102.5 0v-1zm13.05 20C12.57 25.9 7.33 30.4 7.1 30.6c-.51.46-1.3.42-1.76-.09-.46-.5-.43-1.28.08-1.75.27-.25 6.69-5.94 17.8-.23 9.93 5.1 17.59.76 17.91.57a1.26 1.26 0 011.7.44c.36.59.17 1.35-.43 1.7-.23.14-3.9 2.26-9.44 2.26-3.84-.1-7.47-.98-10.9-2.75zM7.1 39.6c.24-.2 5.48-4.71 14.96.15a24.93 24.93 0 0010.9 2.75c5.54 0 9.2-2.12 9.44-2.26.6-.35.79-1.11.44-1.7a1.26 1.26 0 00-1.71-.44c-.32.2-7.98 4.54-17.9-.57-11.12-5.7-17.54-.02-17.81.23a1.24 1.24 0 00-.08 1.75c.46.51 1.25.55 1.76.1z"/></svg>