<svg width="32" height="32" viewBox="0 0 32 32" xmlns="http://www.w3.org/2000/svg"><path d="M8 5a2 2 0 00-2 2v1a1 1 0 01-2 0V7a4 4 0 118 0v5h10V7a2 2 0 10-4 0v1a1 1 0 11-2 0V7a4 4 0 018 0v11.82a10.8 10.8 0 01-2 .18v-5H12v1.87c-.7-.17-1.36-.27-2-.32V7a2 2 0 00-2-2zM4.66 20.3a1 1 0 01-1.33-1.5h.01l.02-.02a2.95 2.95 0 01.23-.19c.15-.1.37-.25.65-.41.56-.32 1.37-.7 2.42-.93 2.13-.49 5.14-.4 8.88 1.57 3.4 1.8 6.4 1.87 8.55 1.5a11.81 11.81 0 003.35-1.1l.03-.02h.01a1 1 0 011.04 1.7l-.03.02a4.5 4.5 0 01-.29.16 13.8 13.8 0 01-3.78 1.22c-2.5.42-5.97.32-9.81-1.71-3.34-1.76-5.86-1.77-7.5-1.4a6.83 6.83 0 00-2.43 1.1h-.02zm0 6a1 1 0 01-1.33-1.5h.01l.02-.02a2.95 2.95 0 01.23-.19c.15-.1.37-.25.65-.41.56-.32 1.37-.7 2.42-.93 2.13-.49 5.14-.4 8.88 1.57 3.4 1.8 6.4 1.87 8.55 1.5a11.81 11.81 0 003.35-1.1l.03-.02h.01a1 1 0 011.04 1.7l-.03.02a4.5 4.5 0 01-.29.16 13.8 13.8 0 01-3.78 1.22c-2.5.42-5.97.32-9.81-1.71-3.34-1.76-5.86-1.77-7.5-1.4a6.83 6.83 0 00-2.43 1.1h-.02z"/></svg>