<svg width="24" height="24" viewBox="0 0 24 24" xmlns="http://www.w3.org/2000/svg"><path d="M6 6a1 1 0 012 0v6.03c.63.06 1.3.19 2 .41V11h6v3.48c.8 0 1.48-.17 2-.35V6a3 3 0 00-6 0 1 1 0 102 0 1 1 0 112 0v3h-6V6a3 3 0 00-6 0 1 1 0 002 0zm.6 9.02c-1.03.13-1.7.55-2 .77a1 1 0 01-1.2-1.6c.49-.37 1.49-.97 2.95-1.15a8.87 8.87 0 015.51 1.32 7.5 7.5 0 007.63.18 1 1 0 011.02 1.72 9.49 9.49 0 01-9.64-.17C9.03 15.05 7.6 14.9 6.6 15.02zm-2 4.77c.3-.22.97-.64 2-.77 1-.12 2.43.03 4.27 1.07a9.49 9.49 0 009.64.17 1 1 0 10-1.02-1.72 7.5 7.5 0 01-7.63-.18 8.87 8.87 0 00-5.51-1.32 6.14 6.14 0 00-2.96 1.16 1 1 0 001.22 1.6z"/></svg>