<svg width="20" height="20" viewBox="0 0 20 20" xmlns="http://www.w3.org/2000/svg"><path d="M5 5a1 1 0 012 0v5.05c.32.03.65.1 1 .19V9h5v3c.37 0 .7-.03 1-.09V5a2 2 0 10-4 0v.5a.5.5 0 001 0V5a1 1 0 112 0v3H8V5a2 2 0 10-4 0v.5a.5.5 0 001 0V5zm8.08 9a7.6 7.6 0 01-3.83-1.08c-3.42-1.97-5.32-.15-5.39-.08a.5.5 0 01-.71 0 .48.48 0 010-.7c.1-.1 2.48-2.46 6.6-.1a6 6 0 006.45.05c.22-.16.53-.11.7.1a.5.5 0 01-.1.7 6.65 6.65 0 01-3.72 1.1V14zm-3.83 1.92A7.6 7.6 0 0013.08 17v-.01a6.65 6.65 0 003.71-1.1.5.5 0 00.11-.7.51.51 0 00-.7-.1 6 6 0 01-6.44-.04c-4.13-2.37-6.5 0-6.61.1-.2.19-.2.5 0 .7.2.19.52.18.71 0 .07-.08 1.97-1.9 5.39.07z"/></svg>