<svg width="32" height="32" viewBox="0 0 32 32" xmlns="http://www.w3.org/2000/svg"><path d="M8.25 5.5c-.97 0-1.75.78-1.75 1.75v.5a1.25 1.25 0 11-2.5 0v-.5a4.25 4.25 0 018.5 0v4.25H22V7.25a1.75 1.75 0 10-3.5 0v.5a1.25 1.25 0 11-2.5 0v-.5a4.25 4.25 0 018.5 0v11.42A9.72 9.72 0 0122 19v-5h-9.5v1.98c-.88-.23-1.71-.37-2.5-.44V7.25c0-.97-.78-1.75-1.75-1.75zM3.39 18.9v-.01l.03-.03a2.93 2.93 0 01.24-.2c.15-.11.36-.27.64-.44a8.46 8.46 0 012.42-.96c2.14-.5 5.16-.41 8.94 1.59a12.72 12.72 0 008.26 1.48 10.72 10.72 0 003.13-1.07l.03-.02a1.25 1.25 0 011.35 2.1l-.01.01-.03.02a4.62 4.62 0 01-.3.17 13.21 13.21 0 01-3.75 1.25c-2.5.44-5.95.33-9.85-1.73-3.29-1.74-5.69-1.72-7.2-1.37a5.97 5.97 0 00-2.18 1.01 1.25 1.25 0 01-1.72-1.8zm0 6v-.01l.03-.03a2.93 2.93 0 01.24-.2c.15-.11.36-.27.64-.44a8.46 8.46 0 012.42-.96c2.14-.5 5.16-.41 8.94 1.59a12.72 12.72 0 008.26 1.48 10.72 10.72 0 003.13-1.07l.03-.02a1.25 1.25 0 011.35 2.1l-.01.01-.03.02a4.62 4.62 0 01-.3.17 13.21 13.21 0 01-3.75 1.25c-2.5.44-5.95.33-9.85-1.73-3.29-1.74-5.69-1.72-7.2-1.37a5.97 5.97 0 00-2.18 1.01 1.25 1.25 0 01-1.72-1.8z"/></svg>