<svg width="17" height="17" viewBox="0 0 17 17" xmlns="http://www.w3.org/2000/svg"><path d="M5.5 3a1.5 1.5 0 1 0 0 3 1.5 1.5 0 0 0 0-3ZM3 4.5a2.5 2.5 0 1 1 5 0 2.5 2.5 0 0 1-5 0Zm8.5-.5a1 1 0 1 0 0 2 1 1 0 0 0 0-2Zm-2 1a2 2 0 1 1 3.6 1.19c-.36.14-.7.36-1 .65l-.1.1A2 2 0 0 1 9.5 5Zm-2.23 6.67L9.5 9.44A1.5 1.5 0 0 0 8 8H3c-.83 0-1.5.67-1.5 1.5v.11a1.39 1.39 0 0 0 .01.14c0 .08.03.2.06.34.07.27.2.64.46 1 .55.76 1.6 1.41 3.47 1.41.46 0 .87-.04 1.23-.1.15-.27.33-.52.54-.73ZM2.5 9.6V9.5c0-.28.22-.5.5-.5h5c.28 0 .5.22.5.5v.15l-.04.2c-.04.18-.13.42-.3.65-.33.45-1.04 1-2.66 1s-2.33-.55-2.66-1a1.85 1.85 0 0 1-.34-.9Zm5.48 2.78 4.83-4.83a1.87 1.87 0 1 1 2.64 2.64l-4.83 4.83a2.2 2.2 0 0 1-1.02.58l-1.5.37a.89.89 0 0 1-1.07-1.07l.37-1.5c.1-.39.3-.74.58-1.02Z"/></svg>