<svg width="24" height="24" viewBox="0 0 24 24" xmlns="http://www.w3.org/2000/svg"><path d="M8 5.5a2.5 2.5 0 1 0 0 5 2.5 2.5 0 0 0 0-5ZM4 8a4 4 0 1 1 8 0 4 4 0 0 1-8 0Zm13-.5a1.5 1.5 0 1 0 0 3 1.5 1.5 0 0 0 0-3ZM14 9a3 3 0 1 1 6 0 3 3 0 0 1-6 0ZM2 16.25C2 15.01 3 14 4.25 14h7.5c1.24 0 2.25 1 2.25 2.25v.1l-1.5 1.51c-.48.48-.82 1.07-.98 1.72l-.2.78C10.5 20.75 9.4 21 8 21c-2.83 0-4.39-1.03-5.2-2.2a4.49 4.49 0 0 1-.8-2.27v-.28Zm1.5.24v.1l.06.33c.07.28.2.65.46 1.02.5.71 1.56 1.56 3.98 1.56s3.49-.85 3.98-1.56a2.99 2.99 0 0 0 .52-1.43v-.26a.75.75 0 0 0-.75-.75h-7.5a.75.75 0 0 0-.75.75v.24Zm15.6-3.82-5.9 5.9c-.35.35-.6.78-.7 1.25l-.47 1.83c-.2.8.53 1.52 1.32 1.32l1.83-.46c.47-.12.9-.36 1.25-.7l5.9-5.9a2.29 2.29 0 0 0-3.23-3.24Z"/></svg>