<svg width="24" height="24" viewBox="0 0 24 24" xmlns="http://www.w3.org/2000/svg"><path d="M5.22 6.28a.75.75 0 0 1 0-1.06l2-2c.3-.3.77-.3 1.06 0l2 2a.75.75 0 1 1-1.06 1.06l-.72-.72v3.19a.75.75 0 1 1-1.5 0V5.56l-.72.72c-.3.3-.77.3-1.06 0Zm9.5-1.06a.75.75 0 0 0 1.06 1.06l.72-.72v14.69a.75.75 0 0 0 1.5 0V5.56l.72.72a.75.75 0 1 0 1.06-1.06l-2-2a.75.75 0 0 0-1.06 0l-2 2ZM4 13.25c0-.41.34-.75.75-.75h3v-1.25a.75.75 0 0 1 1.5 0v1.25h4.5a.75.75 0 0 1 0 1.5h-9a.75.75 0 0 1-.75-.75ZM5.5 21a.75.75 0 0 1-.75-.75v-4c0-.41.34-.75.75-.75h1.25c1.08 0 2.43.21 3.53.92a4.3 4.3 0 0 1 1.97 3.83.75.75 0 0 1-1.5 0c0-1.34-.55-2.1-1.28-2.57-.77-.5-1.8-.68-2.72-.68h-.5v3.25c0 .41-.34.75-.75.75Z"/></svg>