<svg width="24" height="24" viewBox="0 0 24 24" xmlns="http://www.w3.org/2000/svg"><path d="M19.7 6.7a1 1 0 0 0 0-1.4l-2-2a1 1 0 0 0-1.4 0l-2 2a1 1 0 0 0 1.4 1.4l.3-.29V20a1 1 0 1 0 2 0V6.41l.3.3a1 1 0 0 0 1.4 0Zm-9-1.4a1 1 0 0 1-1.4 1.4L9 6.42V8a1 1 0 0 1-2 0V6.41l-.3.3a1 1 0 0 1-1.4-1.42l2-2a1 1 0 0 1 1.4 0l2 2ZM4 12a1 1 0 1 0 0 2h9.25a1 1 0 1 0 0-2H9v-1a1 1 0 1 0-2 0v1H4Zm0 8a1 1 0 1 0 2 0v-3h.25c.9 0 1.87.18 2.59.64.65.42 1.16 1.1 1.16 2.36a1 1 0 1 0 2 0c0-1.94-.86-3.26-2.09-4.04A6.91 6.91 0 0 0 6.25 15H5a1 1 0 0 0-1 1v4Z"/></svg>