<svg width="24" height="24" viewBox="0 0 24 24" xmlns="http://www.w3.org/2000/svg"><path d="M5.25 3C4.01 3 3 4 3 5.25v11c0 1.24 1 2.25 2.25 2.25h11c1.24 0 2.25-1 2.25-2.25v-11c0-1.24-1-2.25-2.25-2.25h-11ZM4.5 5.25c0-.41.34-.75.75-.75h11c.41 0 .75.34.75.75v11c0 .41-.34.75-.75.75h-11a.75.75 0 0 1-.75-.75v-11ZM7.75 21c-.98 0-1.81-.63-2.12-1.5h10.62c1.8 0 3.25-1.46 3.25-3.25V5.63c.87.3 1.5 1.14 1.5 2.12v8.5A4.75 4.75 0 0 1 16.25 21h-8.5Zm3-14.5c.41 0 .75.34.75.75V10h2.75a.75.75 0 0 1 0 1.5H11.5v2.75a.75.75 0 0 1-1.5 0V11.5H7.25a.75.75 0 0 1 0-1.5H10V7.25c0-.41.34-.75.75-.75Z"/></svg>