<svg width="16" height="16" viewBox="0 0 16 16" xmlns="http://www.w3.org/2000/svg"><path d="M2.75 2.75h10.5v1.5H2.75v-1.5Z" fill="#E62C46"/><path d="M2.75 4h10.5v1.5H2.75V4Z" fill="#F36D38"/><path d="M2.75 5.25h10.5V7H2.75V5.25Z" fill="#FFD23E"/><path d="M2.75 6.5h10.5v1.75H2.75V6.5Z" fill="#61BC51"/><path d="M2.75 7.75h10.5v1.5H2.75v-1.5Z" fill="#1793E8"/><path d="M2.75 9h10.5v1.25H2.75V9Z" fill="#B73FBB"/><path d="M2.5 2h11c.28 0 .5.22.5.5v8a.5.5 0 0 1-.5.5H3v2.5a.5.5 0 0 1-1 0v-11c0-.28.22-.5.5-.5ZM3 3v7h10V3H3Z"/></svg>