<svg width="20" height="20" viewBox="0 0 20 20" xmlns="http://www.w3.org/2000/svg"><path d="M3.75 3.75h12.5v1.5H3.75v-1.5Z" fill="#E62C46"/><path d="M3.75 5h12.5v1.5H3.75V5Z" fill="#F36D38"/><path d="M3.75 6h12.5v1.75H3.75V6Z" fill="#FFD23E"/><path d="M3.75 7.5h12.5v1.75H3.75V7.5Z" fill="#61BC51"/><path d="M3.75 9h12.5v1.25H3.75V9Z" fill="#1793E8"/><path d="M3.75 10h12.5v1.25H3.75V10Z" fill="#B73FBB"/><path d="M3.5 3h13c.28 0 .5.22.5.5v8a.5.5 0 0 1-.5.5H4v5.5a.5.5 0 0 1-1 0v-14c0-.28.22-.5.5-.5ZM4 4v7h12V4H4Z"/></svg>