<svg width="28" height="28" viewBox="0 0 28 28" xmlns="http://www.w3.org/2000/svg"><path d="M5 4h18v2.75H5V4Z" fill="#E62C46"/><path d="M5 6.5h18v2.25H5V6.5Z" fill="#F36D38"/><path d="M5 8.5h18v2.25H5V8.5Z" fill="#FFD23E"/><path d="M5 10.5h18v2.25H5V10.5Z" fill="#61BC51"/><path d="M5 12.5h18v2.25H5V12.5Z" fill="#1793E8"/><path fill="#B73FBB" d="M5 14.5h18V17H5z"/><path d="M4.75 3a.75.75 0 0 0-.75.75v20.5a.75.75 0 0 0 1.5 0V18h17.75c.41 0 .75-.34.75-.75V3.75a.75.75 0 0 0-.75-.75H4.75Zm.75 1.5h17v12h-17v-12Z"/></svg>