<svg width="20" height="20" viewBox="0 0 20 20" xmlns="http://www.w3.org/2000/svg"><path d="M9.32 2.03A.5.5 0 009 2.5v6.33L6.8 7.1a.5.5 0 00-.6.78L8.86 10 6.2 12.1a.5.5 0 10.62.8L9 11.16v6.33a.5.5 0 00.87.33l4-4.5a.5.5 0 00-.06-.72L10.49 10l3.32-2.6a.5.5 0 00.06-.73l-4-4.5a.5.5 0 00-.55-.14zM10 10.9l2.77 2.17L10 16.18v-5.3zm0-1.78v-5.3l2.77 3.13L10 9.1zm6.34-2.53a.5.5 0 01.7.15 6 6 0 01-.01 6.54.5.5 0 01-.84-.54 5 5 0 000-5.45.5.5 0 01.15-.7zm-.91 1.35a.5.5 0 00-.86.52 3 3 0 010 3.1.5.5 0 10.86.51 4 4 0 000-4.13z"/></svg>