<svg width="20" height="20" viewBox="0 0 20 20" xmlns="http://www.w3.org/2000/svg"><path d="M14.46 1.67a.5.5 0 1 0-1 0v.83a.5.5 0 0 0 1 0v-.83Zm3.4 1.18a.5.5 0 0 0-.71-.7l-1.5 1.5a.5.5 0 0 0 .7.7l1.5-1.5Zm-10 10a.5.5 0 1 0-.71-.7l-1 1a.5.5 0 1 0 .7.7l1-1ZM7 5v3.8l-4.3 4.29a2 2 0 0 0 0 2.82L4.1 17.3a2 2 0 0 0 2.82 0l4.3-4.3H15a.5.5 0 0 0 .35-.14l1.44-1.44a2 2 0 0 0 0-2.82L11.41 3.2a2 2 0 0 0-2.82 0L7.15 4.65A.5.5 0 0 0 7 5ZM9.3 3.9a1 1 0 0 1 1.4 0L16.1 9.3a1 1 0 0 1 0 1.42l-1.1 1.08L8.22 5l1.08-1.08ZM8 6.21 13.8 12h-2.6L8 8.8V6.2Zm-.5 3.5 2.8 2.79-4.1 4.09a1 1 0 0 1-1.4 0L3.4 15.2a1 1 0 0 1 0-1.42L7.5 9.71Zm10-4.17a.5.5 0 1 0 0 1h.83a.5.5 0 1 0 0-1h-.83Z"/></svg>