<svg width="28" height="28" viewBox="0 0 28 28" xmlns="http://www.w3.org/2000/svg"><path d="m21.2 4.13 1.5-1.52a1 1 0 0 1 1.41 0L25.3 3.8a1 1 0 0 1 0 1.4l-1.5 1.53-2.6-2.6ZM20.13 5.2l-4.2 4.25-.19-.2a3.2 3.2 0 0 0-5.13.84l-.5 1.02a.92.92 0 0 1-1 .49l-.1-.02a5.6 5.6 0 0 0-5.58 2.13 7.22 7.22 0 0 0 .68 9.44l.73.73a7.22 7.22 0 0 0 9.44.67 5.6 5.6 0 0 0 2.13-5.58l-.02-.09a.92.92 0 0 1 .5-1l1.01-.5a3.2 3.2 0 0 0 .84-5.13l-.2-.2 4.19-4.25-2.6-2.6ZM10.59 17.4a2 2 0 1 1 2.82-2.82 2 2 0 0 1-2.82 2.82Z"/></svg>