<svg width="20" height="20" viewBox="0 0 20 20" xmlns="http://www.w3.org/2000/svg"><path d="m14.5 3.78 1.11-1.12c.23-.23.6-.23.83 0l.9.9c.22.23.22.6 0 .83L16.22 5.5l-1.73-1.73Zm-.72.71-2.53 2.53-.13-.13a2.13 2.13 0 0 0-3.4.55l-.34.68a.6.6 0 0 1-.66.32h-.06a3.72 3.72 0 0 0-3.7 1.4 4.8 4.8 0 0 0 .44 6.27l.49.49a4.8 4.8 0 0 0 6.26.44 3.72 3.72 0 0 0 1.42-3.7l-.01-.06a.6.6 0 0 1 .32-.66l.68-.34a2.13 2.13 0 0 0 .55-3.4l-.13-.13 2.53-2.53-1.73-1.73Zm-5.41 7.14a1.25 1.25 0 1 1 1.76-1.76 1.25 1.25 0 0 1-1.76 1.76Z"/></svg>