<svg width="48" height="48" viewBox="0 0 48 48" xmlns="http://www.w3.org/2000/svg"><path d="M15 19.25c0-.69.56-1.25 1.25-1.25h15.5a1.25 1.25 0 110 2.5h-15.5c-.69 0-1.25-.56-1.25-1.25zM17.25 2.5a1.25 1.25 0 100 2.5H18v2h-3.75A6.25 6.25 0 008 13.25v22.5A6.25 6.25 0 0014.03 42c-.02.08-.03.16-.03.25v1.5a1.25 1.25 0 102.5 0v-1.5c0-.09 0-.17-.02-.25h14.54l-.02.25v1.5a1.25 1.25 0 102.5 0v-1.5c0-.09 0-.17-.02-.25h.27C37.2 42 40 39.2 40 35.75v-22.5C40 9.8 37.2 7 33.75 7H29.5V5h1.25a1.25 1.25 0 100-2.5h-13.5zM27 5v2h-6.5V5H27zM14.25 9.5h19.5a3.75 3.75 0 013.75 3.75v22.5a3.75 3.75 0 01-3.75 3.75h-19.5a3.75 3.75 0 01-3.75-3.75v-22.5a3.75 3.75 0 013.75-3.75z"/></svg>