<svg width="20" height="20" viewBox="0 0 20 20" xmlns="http://www.w3.org/2000/svg"><path d="M17.5 5a.5.5 0 0 1 0 1h-15a.5.5 0 0 1 0-1h15Zm0 3a.5.5 0 0 1 0 1h-15a.5.5 0 0 1 0-1h15Zm-7.24 3c-.26.3-.48.64-.66 1H2.5a.5.5 0 0 1 0-1h7.76ZM9 14.5c0 .17 0 .34.02.5H2.5a.5.5 0 0 1 0-1h6.52l-.02.5Zm5.5 4.5a4.5 4.5 0 1 0 0-9 4.5 4.5 0 0 0 0 9Zm1.15-2.65-1.15-1.14-1.15 1.14a.5.5 0 0 1-.7-.7l1.14-1.15-1.14-1.15a.5.5 0 0 1 .7-.7l1.15 1.14 1.15-1.14a.5.5 0 0 1 .7.7l-1.14 1.15 1.14 1.15a.5.5 0 0 1-.7.7Z"/></svg>