<svg width="24" height="24" viewBox="0 0 24 24" xmlns="http://www.w3.org/2000/svg"><path d="M5 7a2 2 0 1 0 0-4 2 2 0 0 0 0 4Zm14 0a2 2 0 1 0 0-4 2 2 0 0 0 0 4Zm2 12a2 2 0 1 1-4 0 2 2 0 0 1 4 0ZM5 21a2 2 0 1 0 0-4 2 2 0 0 0 0 4ZM7.83 6a3 3 0 0 0 0-2h4.67A2.5 2.5 0 0 1 15 6.5V9h2.5a2.5 2.5 0 0 1 2.5 2.5v4.67a3 3 0 0 0-2 0V11.5a.5.5 0 0 0-.5-.5H15v1.5a2.5 2.5 0 0 1-2.5 2.5H11v2.5c0 .28.22.5.5.5h4.67a3 3 0 0 0 0 2H11.5A2.5 2.5 0 0 1 9 17.5V15H6.5A2.5 2.5 0 0 1 4 12.5V7.83a3 3 0 0 0 2 0v4.67c0 .28.22.5.5.5H9v-1.5A2.5 2.5 0 0 1 11.5 9H13V6.5a.5.5 0 0 0-.5-.5H7.83ZM13 12.5V11h-1.5a.5.5 0 0 0-.5.5V13h1.5a.5.5 0 0 0 .5-.5Z"/></svg>