<svg width="20" height="20" viewBox="0 0 20 20" xmlns="http://www.w3.org/2000/svg"><path d="M7 4.5c0 .17-.02.34-.05.5H10a1 1 0 0 1 1 1v2h-1a2 2 0 0 0-2 2v1H6a1 1 0 0 1-1-1V6.95a2.51 2.51 0 0 1-1 0V10c0 1.1.9 2 2 2h2v2c0 1.1.9 2 2 2h3.05a2.51 2.51 0 0 1 0-1H10a1 1 0 0 1-1-1v-2h1a2 2 0 0 0 2-2V9h2a1 1 0 0 1 1 1v3.05a2.51 2.51 0 0 1 1 0V10a2 2 0 0 0-2-2h-2V6a2 2 0 0 0-2-2H6.95c.03.16.05.33.05.5ZM11 9v1a1 1 0 0 1-1 1H9v-1a1 1 0 0 1 1-1h1ZM6 4.5a1.5 1.5 0 1 1-3 0 1.5 1.5 0 0 1 3 0Zm11 11a1.5 1.5 0 1 1-3 0 1.5 1.5 0 0 1 3 0Zm0-11a1.5 1.5 0 1 1-3 0 1.5 1.5 0 0 1 3 0Zm-11 11a1.5 1.5 0 1 1-3 0 1.5 1.5 0 0 1 3 0Z"/></svg>