<svg width="24" height="24" viewBox="0 0 24 24" xmlns="http://www.w3.org/2000/svg"><path d="M20.5 10.5a8.5 8.5 0 1 0-17 0 8.5 8.5 0 0 0 17 0Zm-7.03 5.37c-.66 1.42-1.29 1.63-1.47 1.63-.18 0-.8-.21-1.47-1.63-.3-.65-.57-1.45-.75-2.37h4.44c-.18.92-.44 1.72-.75 2.37ZM9.5 10.5c0-.52.02-1.02.07-1.5h4.86a16.42 16.42 0 0 1 0 3H9.57c-.05-.48-.07-.98-.07-1.5Zm5.07 6.51c.52-.93.93-2.13 1.17-3.51h2.59a7.02 7.02 0 0 1-3.76 3.51ZM15.94 12a17.98 17.98 0 0 0 0-3h2.9a7.03 7.03 0 0 1 0 3h-2.9ZM5.16 12a7.03 7.03 0 0 1 0-3h2.9a17.98 17.98 0 0 0 0 3h-2.9Zm3.1 1.5c.24 1.38.65 2.58 1.17 3.51a7.02 7.02 0 0 1-3.76-3.51h2.59Zm5.96-6H9.78c.18-.92.44-1.72.75-2.37C11.19 3.7 11.82 3.5 12 3.5c.18 0 .8.21 1.47 1.63.3.65.57 1.45.75 2.37Zm4.1 0h-2.58a11.34 11.34 0 0 0-1.17-3.51c1.65.65 3 1.91 3.76 3.51Zm-10.06 0H5.67a7.02 7.02 0 0 1 3.76-3.51c-.52.93-.93 2.13-1.17 3.51ZM4 16h.25c.4.55.84 1.05 1.33 1.5H4.57l-.83 3h16.52l-.83-3h-1c.48-.45.93-.95 1.32-1.5H20c.34 0 .63.22.72.55l1.25 4.5a.75.75 0 0 1-.72.95H2.75a.75.75 0 0 1-.72-.95l1.25-4.5A.75.75 0 0 1 4 16Z"/></svg>