<svg width="32" height="32" viewBox="0 0 32 32" xmlns="http://www.w3.org/2000/svg"><path d="M16 10v6h4a1 1 0 1 1 0 2h-5a1 1 0 0 1-1-1v-7a1 1 0 1 1 2 0ZM3 8c0 1.52.68 2.89 1.75 3.8a11.97 11.97 0 0 0 2.09 11.95l-2.55 2.54a1 1 0 1 0 1.42 1.42l2.54-2.55a11.95 11.95 0 0 0 15.5 0l2.54 2.55a1 1 0 0 0 1.42-1.42l-2.55-2.54a11.95 11.95 0 0 0 2.09-11.95 4.99 4.99 0 1 0-7.05-7.05 11.97 11.97 0 0 0-8.4 0A4.99 4.99 0 0 0 3 8Zm2 0a3 3 0 0 1 4.89-2.33 12.06 12.06 0 0 0-4.22 4.22A2.99 2.99 0 0 1 5 8Zm22 0c0 .72-.25 1.37-.67 1.89a12.06 12.06 0 0 0-4.22-4.22A3 3 0 0 1 27 8ZM16 6a10 10 0 1 1 0 20 10 10 0 0 1 0-20Z"/></svg>