<svg width="24" height="24" viewBox="0 0 24 24" xmlns="http://www.w3.org/2000/svg"><path d="M5.25 3.5c-.97 0-1.75.78-1.75 1.75v3a.75.75 0 0 1-1.5 0v-3C2 3.45 3.46 2 5.25 2h3a.75.75 0 0 1 0 1.5h-3Zm0 17c-.97 0-1.75-.78-1.75-1.75v-3a.75.75 0 0 0-1.5 0v3C2 20.55 3.46 22 5.25 22h3a.75.75 0 0 0 0-1.5h-3ZM20.5 5.25c0-.97-.78-1.75-1.75-1.75h-3a.75.75 0 0 1 0-1.5h3C20.55 2 22 3.46 22 5.25v3a.75.75 0 0 1-1.5 0v-3ZM18.75 20.5c.97 0 1.75-.78 1.75-1.75v-3a.75.75 0 0 1 1.5 0v3c0 1.8-1.46 3.25-3.25 3.25h-3a.75.75 0 0 1 0-1.5h3ZM7.75 6a.75.75 0 0 0-.75.75V8a.75.75 0 0 0 1.5 0v-.5h2.75v9h-1.5a.75.75 0 0 0 0 1.5h4.5a.75.75 0 0 0 0-1.5h-1.5v-9h2.75V8A.75.75 0 0 0 17 8V6.75a.75.75 0 0 0-.75-.75h-8.5Z"/></svg>