<svg width="20" height="20" viewBox="0 0 20 20" xmlns="http://www.w3.org/2000/svg"><path d="M12.5 8a.5.5 0 1 0 0-1 .5.5 0 0 0 0 1ZM3 6a3 3 0 0 1 3-3h8a3 3 0 0 1 3 3v8c0 .65-.2 1.25-.56 1.74l-5.39-5.3a1.5 1.5 0 0 0-1.7-.28A4.5 4.5 0 0 0 3 8.76V6Zm9.5 3a1.5 1.5 0 1 0 0-3 1.5 1.5 0 0 0 0 3Zm-.59 8H14c.65 0 1.24-.2 1.73-.55l-5.38-5.3a.5.5 0 0 0-.58-.09 4.5 4.5 0 0 1-.2 3.38l2 2c.15.16.27.36.34.56Zm-3.6-2.4a3.5 3.5 0 1 0-.7.7l2.54 2.55a.5.5 0 0 0 .7-.7L8.3 14.6ZM5.5 15a2.5 2.5 0 1 1 0-5 2.5 2.5 0 0 1 0 5Z"/></svg>