<svg width="24" height="24" viewBox="0 0 24 24" xmlns="http://www.w3.org/2000/svg"><path d="M21 8.5v3.52A6.47 6.47 0 0017.75 11a1.25 1.25 0 00-2.16.29 6.52 6.52 0 00-4.14 3.84 1.25 1.25 0 00-.43 1.9 6.58 6.58 0 00.6 3.23l-.23.74H6.25A3.25 3.25 0 013 17.75V8.5h18zM7.25 15a1.25 1.25 0 100 2.5 1.25 1.25 0 000-2.5zm0-4.5a1.25 1.25 0 100 2.5 1.25 1.25 0 000-2.5zm4.75 0a1.25 1.25 0 100 2.5 1.25 1.25 0 000-2.5zm5.97 1.52A5.48 5.48 0 0123 17.5a5.5 5.5 0 01-8.17 4.81l-2.18.67a.5.5 0 01-.63-.62l.67-2.2a5.5 5.5 0 015.28-8.15v.01zM15 16.5c0 .28.22.5.5.5h4a.5.5 0 100-1h-4a.5.5 0 00-.5.5zm.5 2.5h2a.5.5 0 100-1h-2a.5.5 0 100 1zm2.25-16C19.55 3 21 4.46 21 6.25V7H3v-.75C3 4.45 4.46 3 6.25 3h11.5z"/></svg>