<svg width="48" height="48" viewBox="0 0 48 48" xmlns="http://www.w3.org/2000/svg"><path d="M22 4a10 10 0 1 0 0 20 10 10 0 0 0 0-20Zm-7.5 10a7.5 7.5 0 1 1 15 0 7.5 7.5 0 0 1-15 0Zm-4.25 14A4.25 4.25 0 0 0 6 32.25V33c0 3.76 1.94 6.57 4.92 8.38C13.85 43.16 17.78 44 22 44c0-.33.04-.66.13-1l.39-1.5H22c-3.93 0-7.37-.79-9.78-2.26C9.86 37.81 8.5 35.74 8.5 33v-.75c0-.97.78-1.75 1.75-1.75h20.9L33.6 28H10.25Zm34.58-2.83a3.98 3.98 0 0 0-5.65.02l-13.5 13.72a3 3 0 0 0-.78 1.35l-.83 3.24a2 2 0 0 0 2.43 2.44l3.24-.84a3 3 0 0 0 1.35-.77L44.8 30.82a3.98 3.98 0 0 0 .02-5.65Z"/></svg>