<svg width="16" height="16" viewBox="0 0 16 16" xmlns="http://www.w3.org/2000/svg"><path d="M4.77 2.92a2.7 2.7 0 0 1 .24-.13A7.1 7.1 0 0 1 8 2a6.35 6.35 0 0 1 3.22.92h.01a.5.5 0 0 0 .54-.84h-.01l-.02-.02a3.5 3.5 0 0 0-.28-.16A8.1 8.1 0 0 0 8 1a7.35 7.35 0 0 0-3.74 1.06l-.02.01a.5.5 0 0 0 .53.85ZM4 4a2 2 0 0 0-2 2v4c0 1.1.9 2 2 2h4.5a2 2 0 0 0 2-2v-.14l2.75 1.57A.5.5 0 0 0 14 11V5a.5.5 0 0 0-.75-.43L10.5 6.14V6a2 2 0 0 0-2-2H4Zm6.5 3.29L13 5.86v4.28L10.5 8.7V7.29ZM3 6a1 1 0 0 1 1-1h4.5a1 1 0 0 1 1 1v4a1 1 0 0 1-1 1H4a1 1 0 0 1-1-1V6Zm1.77 7.08a.5.5 0 0 0-.54.84h.01l.02.02a3.02 3.02 0 0 0 .28.16A8.08 8.08 0 0 0 8 15a7.35 7.35 0 0 0 3.74-1.06l.02-.01a.5.5 0 0 0-.53-.85 2.4 2.4 0 0 1-.24.13A7.09 7.09 0 0 1 8 14a6.35 6.35 0 0 1-3.22-.92h-.01Z"/></svg>