<svg width="20" height="20" viewBox="0 0 20 20" xmlns="http://www.w3.org/2000/svg"><path d="M17 5.5a.5.5 0 00-.5-.5h-5a.5.5 0 000 1h5a.5.5 0 00.5-.5zm-8 0a.5.5 0 00-.5-.5h-5a.5.5 0 000 1h5a.5.5 0 00.5-.5zm8 3a.5.5 0 00-.5-.5h-5a.5.5 0 000 1h5a.5.5 0 00.5-.5zm-8 0a.5.5 0 00-.5-.5h-5a.5.5 0 000 1h5a.5.5 0 00.5-.5zm8 3a.5.5 0 00-.5-.5h-5a.5.5 0 000 1h5a.5.5 0 00.5-.5zm-8 0a.5.5 0 00-.5-.5h-5a.5.5 0 000 1h5a.5.5 0 00.5-.5zm8 3a.5.5 0 00-.5-.5h-5a.5.5 0 000 1h5a.5.5 0 00.5-.5zm-8 0a.5.5 0 00-.5-.5h-5a.5.5 0 000 1h5a.5.5 0 00.5-.5z"/></svg>