<svg width="24" height="24" viewBox="0 0 24 24" xmlns="http://www.w3.org/2000/svg"><path d="M3 5.75c0-.41.34-.75.75-.75h6.5a.75.75 0 010 1.5h-6.5A.75.75 0 013 5.75zm0 4c0-.41.34-.75.75-.75h6.5a.75.75 0 010 1.5h-6.5A.75.75 0 013 9.75zm0 4c0-.41.34-.75.75-.75h6.5a.75.75 0 010 1.5h-6.5a.75.75 0 01-.75-.75zm0 4c0-.41.34-.75.75-.75h6.5a.75.75 0 010 1.5h-6.5a.75.75 0 01-.75-.75zm10-12c0-.41.34-.75.75-.75h6.5a.75.75 0 010 1.5h-6.5a.75.75 0 01-.75-.75zm0 4c0-.41.34-.75.75-.75h6.5a.75.75 0 010 1.5h-6.5a.75.75 0 01-.75-.75zm0 4c0-.41.34-.75.75-.75h6.5a.75.75 0 010 1.5h-6.5a.75.75 0 01-.75-.75zm0 4c0-.41.34-.75.75-.75h6.5a.75.75 0 010 1.5h-6.5a.75.75 0 01-.75-.75z"/></svg>