<svg width="24" height="24" viewBox="0 0 24 24" xmlns="http://www.w3.org/2000/svg"><path d="M10.5 7a3 3 0 1 0 0 6 3 3 0 0 0 0-6ZM9 10a1.5 1.5 0 1 1 3 0 1.5 1.5 0 0 1-3 0ZM2 6.25C2 5.01 3 4 4.25 4h12.5C17.99 4 19 5 19 6.25V11h-1.5V8.5h-.75c-1.24 0-2.25-1-2.25-2.25V5.5h-8v.75c0 1.24-1 2.25-2.25 2.25H3.5v3h.75c1.24 0 2.25 1 2.25 2.25v.75H14V16H4.25C3.01 16 2 15 2 13.75v-7.5Zm2.25-.75a.75.75 0 0 0-.75.75V7h.75c.41 0 .75-.34.75-.75V5.5h-.75ZM17.5 7v-.75a.75.75 0 0 0-.75-.75H16v.75c0 .41.34.75.75.75h.75Zm-14 6.75c0 .41.34.75.75.75H5v-.75a.75.75 0 0 0-.75-.75H3.5v.75Zm.9 3.75H14V19H7a3 3 0 0 1-2.6-1.5ZM22 11V9a3 3 0 0 0-1.5-2.6V11H22Zm-5.5 1c-.83 0-1.5.67-1.5 1.5v8c0 .83.67 1.5 1.5 1.5h5c.83 0 1.5-.67 1.5-1.5v-8c0-.83-.67-1.5-1.5-1.5h-5Zm.5 4.5h1a.5.5 0 0 1 0 1h-1a.5.5 0 0 1 0-1Zm3 0h1a.5.5 0 0 1 0 1h-1a.5.5 0 0 1 0-1Zm-3 2h1a.5.5 0 0 1 0 1h-1a.5.5 0 0 1 0-1Zm3 0h1a.5.5 0 0 1 0 1h-1a.5.5 0 0 1 0-1Zm-3 2h1a.5.5 0 0 1 0 1h-1a.5.5 0 0 1 0-1Zm3 0h1a.5.5 0 0 1 0 1h-1a.5.5 0 0 1 0-1ZM16.5 14c0-.28.22-.5.5-.5h4c.28 0 .5.22.5.5v1a.5.5 0 0 1-.5.5h-4a.5.5 0 0 1-.5-.5v-1Z"/></svg>