<svg width="24" height="24" viewBox="0 0 24 24" xmlns="http://www.w3.org/2000/svg"><path d="M5.75 2a2.75 2.75 0 00-1.44 5.1A4.26 4.26 0 003 10.24a.75.75 0 001.5 0c0-1.11.49-1.8.98-2.21a3.33 3.33 0 01.9-.54H9.5v2.75a.75.75 0 001.5 0v-7.5a.75.75 0 00-.75-.75h-4.5zm.52 4h-.52a1.25 1.25 0 110-2.5H9.5V6H6.27zm.8 6c-.3 0-.59.19-.7.48l-3.32 8.5a.75.75 0 001.4.54l.79-2.02h3.55l.76 2.01a.75.75 0 001.4-.52l-3.18-8.5a.75.75 0 00-.7-.49zm-.02 2.85L8.23 18h-2.4l1.22-3.15zM17.25 2c.41 0 .75.34.75.75v16.69l2.22-2.22a.75.75 0 111.06 1.06l-3.5 3.5c-.3.3-.77.3-1.06 0l-3.5-3.5a.75.75 0 111.06-1.06l2.22 2.22V2.75c0-.41.34-.75.75-.75z"/></svg>