<svg width="24" height="24" viewBox="0 0 24 24" xmlns="http://www.w3.org/2000/svg"><path d="M3 5a3 3 0 0 1 3-3h4a1 1 0 0 1 1 1v7a1 1 0 1 1-2 0V8H6.34l-.14.04c-.13.04-.31.11-.49.24C5.41 8.5 5 8.95 5 10a1 1 0 1 1-2 0c0-1.27.4-2.18.95-2.8A3 3 0 0 1 3 5Zm3.27 1H9V4H6a1 1 0 0 0 0 2h.27ZM17.5 2a1 1 0 0 1 1 1v15.59l1.8-1.8a1 1 0 0 1 1.4 1.42l-3.5 3.5a1 1 0 0 1-1.4 0l-3.5-3.5a1 1 0 0 1 1.4-1.42l1.8 1.8V3a1 1 0 0 1 1-1ZM7.98 12.67a1 1 0 0 0-1.9 0L3.3 20.74a1 1 0 1 0 1.89.66l.4-1.2h2.88l.41 1.2a1 1 0 0 0 1.9-.66l-2.8-8.07Zm-1.69 5.54.74-2.15.75 2.15H6.29Z"/></svg>