<svg width="20" height="20" viewBox="0 0 20 20" xmlns="http://www.w3.org/2000/svg"><path d="m10 9.3 1.08-1.09a7.57 7.57 0 0 1-1.06-1.96 17.37 17.37 0 0 1-.85-3.2 6.97 6.97 0 0 0-3.75 1.66L10 9.29Zm1.79-.38L10.71 10l4.58 4.58a6.97 6.97 0 0 0 1.66-3.75l-.42-.07c-.9-.18-1.88-.43-2.77-.78a7.57 7.57 0 0 1-1.97-1.06Zm5.2.9a6.97 6.97 0 0 0-1.7-4.4L12.5 8.2c.43.32.99.6 1.61.85a16.39 16.39 0 0 0 2.89.78ZM11.8 7.5l2.8-2.8A6.98 6.98 0 0 0 10.16 3l.06.27c.17.87.4 1.8.72 2.62.25.62.53 1.18.85 1.6ZM10 10.7 8.92 11.8c.44.55.79 1.25 1.06 1.96a17.37 17.37 0 0 1 .86 3.2 6.97 6.97 0 0 0 3.74-1.66L10 10.71Zm-1.8 1.8-2.78 2.8a6.97 6.97 0 0 0 4.4 1.7c0-.1-.03-.18-.04-.27-.18-.87-.41-1.8-.73-2.62a6.83 6.83 0 0 0-.84-1.6Zm-.7-.7c-.43-.33-.98-.6-1.61-.85A16.38 16.38 0 0 0 3 10.17c.04 1.58.61 3.15 1.7 4.41l2.8-2.79Zm.71-.72L9.3 10 4.71 5.42a6.97 6.97 0 0 0-1.66 3.74l.42.08c.9.18 1.88.43 2.78.78.72.28 1.4.62 1.96 1.06Zm7.45 4.58A8 8 0 1 1 4.34 4.34a8 8 0 0 1 11.32 11.32Z"/></svg>