<svg width="24" height="24" viewBox="0 0 24 24" xmlns="http://www.w3.org/2000/svg"><path d="M18.43 12.87c-1.28-.39-2.76-.9-4.16-2.08L13.07 12l6.51 6.52a9.94 9.94 0 002.16-4.22l-.01-.01v-.01a3.74 3.74 0 00-1.35-.8c-.43-.17-.9-.3-1.42-.46l-.53-.15zm.1-8.45l-4.25 4.24a9.6 9.6 0 01-1.7-3.52l-.15-.47c-.15-.54-.31-1.1-.5-1.6-.15-.36-.31-.71-.52-1.05a9.98 9.98 0 017.11 2.4zm1.05 1.06l-4.24 4.24a9.6 9.6 0 003.52 1.7l.47.15c.54.15 1.1.31 1.6.5.36.15.71.31 1.05.52a9.98 9.98 0 00-2.4-7.11zm-9.86-3.2l-.01-.01a9.94 9.94 0 00-4.23 2.15L12 10.94l1.21-1.21a10.93 10.93 0 01-2.08-4.16l-.15-.52c-.15-.53-.29-1-.46-1.43-.21-.56-.46-1-.8-1.34zm-7.59 8.1a9.95 9.95 0 012.29-4.9L10.94 12l-1.09 1.09a10.34 10.34 0 00-4.66-1.91l-.6-.12c-.6-.12-1.15-.22-1.64-.37-.32-.09-.59-.19-.82-.3zM2 11.97c0 2.34.8 4.68 2.42 6.56l4.36-4.36a9.13 9.13 0 00-3.89-1.51l-.54-.1A21.14 21.14 0 012 11.95zm7.85 3.25l-4.37 4.37A9.97 9.97 0 0012.24 22c-.15-.3-.27-.62-.37-.93-.17-.54-.29-1.13-.4-1.7l-.11-.5a8.6 8.6 0 00-1.51-3.66zm4.05 6.61a9.94 9.94 0 004.62-2.24L12 13.06l-1.08 1.09a9.88 9.88 0 011.9 4.4l.12.56c.12.56.22 1.05.36 1.51.16.5.35.9.6 1.2z"/></svg>