<svg width="24" height="24" viewBox="0 0 24 24" xmlns="http://www.w3.org/2000/svg"><path d="M9.2 9.25a.75.75 0 0 1 1.05-.06l2.5 2.25a.75.75 0 0 1 0 1.12l-2.5 2.25a.75.75 0 0 1-1-1.12l1.05-.94H6.75a.75.75 0 1 1 0-1.5h3.55l-1.05-.94a.75.75 0 0 1-.06-1.06Zm12.8 8A2.75 2.75 0 0 1 19.25 20H4.75A2.75 2.75 0 0 1 2 17.25V6.75A2.75 2.75 0 0 1 4.75 4h14.5A2.75 2.75 0 0 1 22 6.75v10.5Zm-2.75 1.25c.69 0 1.25-.56 1.25-1.25V6.75c0-.7-.56-1.25-1.25-1.25H16v13h3.25Zm-4.75 0v-13H4.75c-.69 0-1.25.56-1.25 1.25v10.5c0 .7.56 1.25 1.25 1.25h9.75Z"/></svg>