<svg width="24" height="24" viewBox="0 0 24 24" xmlns="http://www.w3.org/2000/svg"><path d="M12 2c-.67 0-1.32.07-1.95.19a.75.75 0 0 0 .29 1.47 8.55 8.55 0 0 1 3.32 0 .75.75 0 0 0 .3-1.47C13.31 2.07 12.65 2 12 2ZM7.28 4.93a.75.75 0 0 0-.84-1.25 10.05 10.05 0 0 0-2.76 2.76.75.75 0 1 0 1.25.84 8.55 8.55 0 0 1 2.35-2.35Zm10.28-1.25a.75.75 0 0 0-.84 1.25 8.55 8.55 0 0 1 2.35 2.35.75.75 0 1 0 1.25-.84 10.05 10.05 0 0 0-2.76-2.76Zm4.25 6.37a.75.75 0 0 0-1.47.29 8.54 8.54 0 0 1 0 3.32.75.75 0 1 0 1.47.3 10.05 10.05 0 0 0 0-3.91Zm-18.15.29a.75.75 0 0 0-1.47-.3 10.05 10.05 0 0 0 0 3.91.75.75 0 0 0 1.47-.29 8.55 8.55 0 0 1 0-3.32Zm1.27 6.38a.75.75 0 0 0-1.25.84 10.05 10.05 0 0 0 2.76 2.76.75.75 0 0 0 .84-1.25 8.55 8.55 0 0 1-2.35-2.35Zm15.39.84a.75.75 0 0 0-1.25-.84 8.55 8.55 0 0 1-2.35 2.35.75.75 0 1 0 .84 1.25 10.05 10.05 0 0 0 2.76-2.76Zm-9.98 2.78a.75.75 0 1 0-.3 1.47 10.05 10.05 0 0 0 3.91 0 .75.75 0 0 0-.29-1.47 8.54 8.54 0 0 1-3.32 0ZM9 9.24c0-.94 1.02-1.55 1.86-1.09l5.75 3.2a.75.75 0 0 1 0 1.3l-5.75 3.19A1.25 1.25 0 0 1 9 14.74v-5.5Z"/></svg>