<svg width="48" height="48" viewBox="0 0 48 48" xmlns="http://www.w3.org/2000/svg"><path d="M20 10.5v.5h8v-.5a4 4 0 00-8 0zm-2.5.5v-.5a6.5 6.5 0 1113 0v.5h11.25a1.25 1.25 0 110 2.5h-2.92l-2 23.86A7.25 7.25 0 0129.61 44H18.39a7.25 7.25 0 01-7.22-6.64l-2-23.86H6.25a1.25 1.25 0 110-2.5H17.5zm-3.84 26.15a4.75 4.75 0 004.73 4.35h11.22c2.47 0 4.53-1.9 4.73-4.35l1.98-23.65H11.68l1.98 23.65zm7.84-16.9a1.25 1.25 0 10-2.5 0v14.5a1.25 1.25 0 102.5 0v-14.5zM27.75 19c.69 0 1.25.56 1.25 1.25v14.5a1.25 1.25 0 11-2.5 0v-14.5c0-.69.56-1.25 1.25-1.25z"/></svg>