<svg width="16" height="16" viewBox="0 0 16 16" xmlns="http://www.w3.org/2000/svg"><path d="m10.88.28.35 1.07a2.2 2.2 0 0 0 1.4 1.4l1.07.35h.02a.42.42 0 0 1 0 .8l-1.07.35a2.2 2.2 0 0 0-1.4 1.4l-.35 1.07a.42.42 0 0 1-.8 0l-.35-1.07a2.2 2.2 0 0 0-1.4-1.4L7.28 3.9a.42.42 0 0 1 0-.8l1.07-.35a2.2 2.2 0 0 0 1.38-1.4l.35-1.07a.42.42 0 0 1 .8 0Zm4.9 7.93-.76-.25a1.58 1.58 0 0 1-1-1l-.25-.76a.3.3 0 0 0-.57 0l-.25.77a1.58 1.58 0 0 1-.98 1l-.77.24a.3.3 0 0 0 0 .57l.77.25a1.58 1.58 0 0 1 1 1l.24.77a.3.3 0 0 0 .58 0l.24-.77a1.58 1.58 0 0 1 1-1l.77-.24a.3.3 0 0 0 0-.57h-.02Zm-3.5 2.94c.09.23.23.42.42.58A5.99 5.99 0 0 1 5 13.19l-2.34.78a.5.5 0 0 1-.64-.6l.71-2.5a6 6 0 0 1 4.58-8.83l-.36.11A1.43 1.43 0 0 0 6 3.41a5 5 0 0 0-2.3 7.14.5.5 0 0 1 .05.4l-.5 1.78 1.65-.56a.5.5 0 0 1 .43.06 4.97 4.97 0 0 0 6.83-1.45l.12.37Z"/></svg>