<svg width="20" height="20" viewBox="0 0 20 20" xmlns="http://www.w3.org/2000/svg"><path d="m14.88.28.35 1.07a2.2 2.2 0 0 0 1.4 1.4l1.07.35h.02a.42.42 0 0 1 0 .8l-1.07.35a2.2 2.2 0 0 0-1.4 1.4l-.35 1.07a.42.42 0 0 1-.8 0l-.35-1.07a2.23 2.23 0 0 0-1.4-1.4l-1.07-.35a.42.42 0 0 1 0-.8l1.07-.35a2.2 2.2 0 0 0 1.38-1.4l.35-1.07a.42.42 0 0 1 .8 0Zm4.9 7.93-.76-.25a1.58 1.58 0 0 1-1-1l-.25-.76a.3.3 0 0 0-.57 0l-.25.77a1.58 1.58 0 0 1-.98 1l-.77.24a.3.3 0 0 0 0 .57l.77.25a1.58 1.58 0 0 1 1 1l.24.77a.3.3 0 0 0 .58 0l.24-.77a1.58 1.58 0 0 1 1-1l.77-.24a.3.3 0 0 0 0-.57h-.02ZM17.5 12c-.27 0-.52-.08-.74-.23a1.4 1.4 0 0 1-.48-.62l-.26-.8a.52.52 0 0 0-.14-.22.64.64 0 0 0-.22-.14l-.77-.25c-.27-.1-.49-.26-.65-.48a1.3 1.3 0 0 1-.12-1.3 1.32 1.32 0 0 1-.45-.22 1.51 1.51 0 0 1-.52-.69l-.36-1.09a1.27 1.27 0 0 0-.29-.47 1.3 1.3 0 0 0-.47-.3l-1.06-.34A1.41 1.41 0 0 1 10 3.5a1.4 1.4 0 0 1 .95-1.35l.22-.07A8 8 0 0 0 2 10v.35l.03.38c.1 1.01.38 1.99.83 2.89l.06.12-.9 3.64-.02.08v.08c.03.3.31.52.62.45l3.65-.91.12.06a8 8 0 0 0 11.37-5.16l-.26.02Z"/></svg>