<svg width="20" height="20" viewBox="0 0 20 20" xmlns="http://www.w3.org/2000/svg"><path d="m14.88.28.35 1.07a2.2 2.2 0 0 0 1.4 1.4l1.07.35h.02a.42.42 0 0 1 0 .8l-1.07.35a2.2 2.2 0 0 0-1.4 1.4l-.35 1.07a.42.42 0 0 1-.8 0l-.35-1.07a2.23 2.23 0 0 0-1.4-1.4l-1.07-.35a.42.42 0 0 1 0-.8l1.07-.35a2.2 2.2 0 0 0 1.38-1.4l.35-1.07a.42.42 0 0 1 .8 0Zm4.9 7.93-.76-.25a1.58 1.58 0 0 1-1-1l-.25-.76a.3.3 0 0 0-.57 0l-.25.77a1.58 1.58 0 0 1-.98 1l-.77.24a.3.3 0 0 0 0 .57l.77.25a1.58 1.58 0 0 1 1 1l.24.77a.3.3 0 0 0 .58 0l.24-.77a1.58 1.58 0 0 1 1-1l.77-.24a.3.3 0 0 0 0-.57h-.02ZM17.5 12c-.26 0-.51-.08-.73-.22a7 7 0 0 1-10.2 4.33l-.08-.04-.1-.02a.5.5 0 0 0-.18 0l-3.02.76.75-3.02.02-.1a.5.5 0 0 0-.07-.27A7 7 0 0 1 10.1 3a1.42 1.42 0 0 1 .86-.85l.22-.07A8 8 0 0 0 2 10v.35l.03.38c.1 1.01.38 1.99.83 2.89l.06.12-.9 3.64-.02.08v.08c.03.3.31.52.62.45l3.65-.91.12.06a8 8 0 0 0 11.37-5.16l-.26.02Z"/></svg>