<svg width="24" height="24" viewBox="0 0 24 24" xmlns="http://www.w3.org/2000/svg"><path d="M16.09 6.41a2.84 2.84 0 0 0-1.35-.95L13.36 5a.54.54 0 0 1 0-1.03l1.38-.44a2.84 2.84 0 0 0 1.76-1.77l.01-.03.45-1.38a.54.54 0 0 1 1.03 0l.44 1.38a2.84 2.84 0 0 0 1.8 1.8l1.38.44.03.01a.54.54 0 0 1 0 1.03l-1.38.44a2.84 2.84 0 0 0-1.8 1.8l-.45 1.38a.54.54 0 0 1-1.03 0l-.44-1.38c-.1-.3-.25-.6-.45-.85Zm7.7 3.8-.77-.25a1.58 1.58 0 0 1-1-1l-.25-.76a.3.3 0 0 0-.57 0l-.25.77a1.58 1.58 0 0 1-.98 1l-.77.24a.3.3 0 0 0 0 .57l.77.25a1.58 1.58 0 0 1 1 1l.24.77a.3.3 0 0 0 .58 0l.24-.77a1.58 1.58 0 0 1 1-1l.77-.24a.3.3 0 0 0 0-.57h-.02ZM12 2a10 10 0 0 1 2.76.39c-.12.07-.24.13-.37.17L13.05 3c-.3.1-.58.3-.77.57a1.57 1.57 0 0 0 0 1.79c.17.28.42.5.72.64l1.4.46c.27.09.52.24.72.44l.18.1c.13.17.22.35.29.55L16 9c.1.3.3.58.57.77a1.57 1.57 0 0 0 1.57.12 1.28 1.28 0 0 0 .06 1.4c.16.23.38.4.63.49l.79.25a.59.59 0 0 1 .36.37l.24.76c.1.26.26.49.49.65a1.29 1.29 0 0 0 1.09.2 10 10 0 0 1-14.44 6.85l-4.3 1.12a.85.85 0 0 1-1.03-1.04l1.11-4.29A10 10 0 0 1 12 2Z"/></svg>