<svg width="24" height="24" viewBox="0 0 24 24" xmlns="http://www.w3.org/2000/svg"><path d="M16.09 6.41a2.84 2.84 0 0 0-1.35-.95L13.36 5a.54.54 0 0 1 0-1.03l1.38-.44a2.84 2.84 0 0 0 1.76-1.77l.01-.03.45-1.38a.54.54 0 0 1 1.03 0l.44 1.38a2.84 2.84 0 0 0 1.8 1.8l1.38.44.03.01a.54.54 0 0 1 0 1.03l-1.38.44a2.84 2.84 0 0 0-1.8 1.8l-.45 1.38a.54.54 0 0 1-1.03 0l-.44-1.38c-.1-.3-.25-.6-.45-.85Zm7.7 3.8-.77-.25a1.58 1.58 0 0 1-1-1l-.25-.76a.3.3 0 0 0-.57 0l-.25.77a1.58 1.58 0 0 1-.98 1l-.77.24a.3.3 0 0 0 0 .57l.77.25a1.58 1.58 0 0 1 1 1l.24.77a.3.3 0 0 0 .58 0l.24-.77a1.58 1.58 0 0 1 1-1l.77-.24a.3.3 0 0 0 0-.57h-.02ZM12 2a10 10 0 0 1 2.76.39c-.12.07-.24.13-.37.17L13.05 3c-.28.1-.53.28-.72.5H12a8.5 8.5 0 0 0-7.43 12.64l.15.27-1.1 3.98 3.98-1.11.27.15a8.5 8.5 0 0 0 12.5-5.96c.1.13.2.24.34.34a1.29 1.29 0 0 0 1.09.2A10 10 0 0 1 7.4 20.88L3.6 21.96a1.25 1.25 0 0 1-1.54-1.54l1.06-3.83A10 10 0 0 1 12 2Z"/></svg>