<svg width="28" height="28" viewBox="0 0 28 28" xmlns="http://www.w3.org/2000/svg"><path d="M18.17 6.83a3.16 3.16 0 0 1 .76 1.24l.5 1.53a.6.6 0 0 0 1.14 0l.5-1.53a3.15 3.15 0 0 1 2-2l1.53-.5a.6.6 0 0 0 0-1.14h-.03l-1.54-.5a3.15 3.15 0 0 1-2-2L20.55.4a.6.6 0 0 0-1.14 0l-.5 1.53-.01.04a3.15 3.15 0 0 1-1.96 1.96l-1.53.5a.6.6 0 0 0 0 1.14l1.53.5c.47.15.9.41 1.24.76Zm8.65 3.53.92.3h.02a.36.36 0 0 1 0 .68l-.92.3a1.9 1.9 0 0 0-1.2 1.2l-.3.92a.36.36 0 0 1-.68 0l-.3-.92a1.9 1.9 0 0 0-1.2-1.2l-.92-.3a.36.36 0 0 1 0-.68l.92-.3a1.9 1.9 0 0 0 1.18-1.2l.3-.92a.36.36 0 0 1 .68 0l.3.92a1.89 1.89 0 0 0 1.2 1.2ZM14 2a12 12 0 0 1 3.45.5c-.24.23-.53.4-.84.5l-1.52.5c-.32.1-.6.31-.8.59a1.58 1.58 0 0 0 0 1.85c.2.27.47.48.78.59l1.56.5a2.25 2.25 0 0 1 1 .73c.16.19.28.4.35.64l.5 1.53c.11.32.32.6.59.8a1.64 1.64 0 0 0 1.86 0l.13-.11a1.34 1.34 0 0 0 .85 1.66l.94.3c.13.05.24.12.34.22.1.1.17.22.22.35l.3.92A1.34 1.34 0 0 0 25 15a1.37 1.37 0 0 0 .99-.42A12 12 0 0 1 8.36 24.6L3.6 25.95c-.94.27-1.8-.6-1.54-1.54l1.36-4.77A12 12 0 0 1 14 2Z"/></svg>