<svg width="32" height="32" viewBox="0 0 32 32" xmlns="http://www.w3.org/2000/svg"><path d="M21.49 8.51a3.49 3.49 0 0 1 .84 1.36l.54 1.69a.66.66 0 0 0 1.26 0l.54-1.69a3.47 3.47 0 0 1 2.2-2.2l1.69-.54a.67.67 0 0 0 0-1.25l-.04-.01-1.68-.55a3.47 3.47 0 0 1-2.2-2.2l-.55-1.68a.66.66 0 0 0-1.25 0l-.55 1.69-.01.04a3.47 3.47 0 0 1-2.15 2.15l-1.69.55a.67.67 0 0 0 0 1.25l1.69.55c.51.17.98.46 1.36.84Zm9.33 4.85.92.3h.02a.36.36 0 0 1 0 .68l-.92.3a1.9 1.9 0 0 0-1.2 1.2l-.3.92a.36.36 0 0 1-.68 0l-.3-.92a1.9 1.9 0 0 0-1.2-1.2l-.92-.3a.36.36 0 0 1 0-.68l.92-.3a1.9 1.9 0 0 0 1.18-1.2l.3-.92a.36.36 0 0 1 .68 0l.3.92a1.89 1.89 0 0 0 1.2 1.2ZM16 2c1.68 0 3.3.3 4.79.84-.1.2-.23.4-.39.56-.21.22-.47.38-.76.48L18 4.44a2.17 2.17 0 0 0-1.5 2.06 2.17 2.17 0 0 0 1.45 2l1.71.56c.36.12.71.35.93.66.14.17.24.37.31.58l.55 1.7a2.16 2.16 0 0 0 3.3 1.08 1.9 1.9 0 0 0-.25.9 1.84 1.84 0 0 0 1.24 1.75l1 .3.14.11c.04.04.08.1.09.15l.3.91a2 2 0 0 0 .69.94 1.89 1.89 0 0 0 1.85.17A14 14 0 0 1 9.44 28.37l-5.53 1.57a1.5 1.5 0 0 1-1.85-1.85l1.57-5.53A14 14 0 0 1 16 2Z"/></svg>