<svg width="48" height="48" viewBox="0 0 48 48" xmlns="http://www.w3.org/2000/svg"><path d="M31.83 13.11a5.36 5.36 0 0 0-2.54-1.8l-2.6-.85a1.03 1.03 0 0 1 0-1.94l2.6-.84a5.36 5.36 0 0 0 3.32-3.33l.02-.06.85-2.6a1.03 1.03 0 0 1 1.94 0l.84 2.6a5.36 5.36 0 0 0 3.4 3.39l2.6.84.05.02a1.03 1.03 0 0 1 0 1.94l-2.6.84a5.36 5.36 0 0 0-3.4 3.4l-.84 2.6-.03.06a1.03 1.03 0 0 1-1.9-.07l-.86-2.6a5.35 5.35 0 0 0-.85-1.6Zm14.78 6.87-1.38-.44a2.84 2.84 0 0 1-1.8-1.8L43 16.36a.54.54 0 0 0-1.03 0l-.45 1.38a2.84 2.84 0 0 1-1.77 1.8l-1.38.44a.54.54 0 0 0 0 1.03l1.38.45c.15.05.3.11.44.18v.02a2.84 2.84 0 0 1 1.36 1.61l.45 1.38a.54.54 0 0 0 1 .04v-.01a.5.5 0 0 0 .02-.04l.45-1.38a2.84 2.84 0 0 1 1.8-1.8l1.38-.44a.54.54 0 0 0 0-1.03h-.03ZM29.93 5l.08-.08a20 20 0 0 0-23.6 28.6l-2.34 8.25a1.75 1.75 0 0 0 2.16 2.16l8.24-2.34a20 20 0 0 0 29.36-14.97 2.55 2.55 0 0 1-2.83-.08 2.54 2.54 0 0 1-.89-1.35l-.44-1.37a.86.86 0 0 0-.4-.48l-.12-.06-1.42-.46a2.55 2.55 0 0 1-1.7-2.4c0-.34.08-.69.22-1a3 3 0 0 1-4.59-1.51l-.84-2.59a3.24 3.24 0 0 0-2.17-2.11L26 12.35a3 3 0 0 1-1.44-4.58c.37-.52.9-.91 1.51-1.12l2.57-.83c.49-.17.93-.45 1.29-.82Z"/></svg>