<svg width="24" height="24" viewBox="0 0 24 24" xmlns="http://www.w3.org/2000/svg"><path d="M13 9a1 1 0 1 1-2 0 1 1 0 0 1 2 0Zm-6.25 2.5a.75.75 0 0 0 0 1.5h2.5a.75.75 0 0 0 0-1.5h-2.5Zm7.25.75c0-.41.34-.75.75-.75h2.5a.75.75 0 0 1 0 1.5h-2.5a.75.75 0 0 1-.75-.75ZM9.75 3a.75.75 0 0 0-.75.75V5H6a4 4 0 0 0-4 4h-.25a.75.75 0 0 0-.75.75v3.5c0 .41.34.75.75.75H2v2.5a4 4 0 0 0 4 4h1.55a4 4 0 0 0 2.16-.64l2.15-1.38a.25.25 0 0 1 .28 0l2.15 1.38a4 4 0 0 0 2.16.64H18a4 4 0 0 0 4-4V14h.25c.41 0 .75-.34.75-.75v-3.5a.75.75 0 0 0-.75-.75H22a4 4 0 0 0-4-4h-3V3.75a.75.75 0 0 0-.75-.75h-4.5ZM6 6.5h12A2.5 2.5 0 0 1 20.5 9v7.5A2.5 2.5 0 0 1 18 19h-1.55a2.5 2.5 0 0 1-1.35-.4l-2.15-1.38a1.75 1.75 0 0 0-1.9 0L8.9 18.6c-.4.26-.88.4-1.35.4H6a2.5 2.5 0 0 1-2.5-2.5V9A2.5 2.5 0 0 1 6 6.5Z"/></svg>