<svg width="20" height="20" viewBox="0 0 20 20" xmlns="http://www.w3.org/2000/svg"><path d="M14.66 3.07a.5.5 0 0 0-.66.38.5.5 0 0 0 .46.6A2 2 0 0 1 16 6v8a2 2 0 0 1-1.6 1.95.5.5 0 0 0-.4.6.5.5 0 0 0 .66.38A3 3 0 0 0 17 14V6a3 3 0 0 0-2.34-2.93Zm-9.32 0a.5.5 0 0 1 .66.38.5.5 0 0 1-.46.6A2 2 0 0 0 4 6v8a2 2 0 0 0 1.6 1.95.5.5 0 0 1 .4.6.5.5 0 0 1-.66.38A3 3 0 0 1 3 14V6a3 3 0 0 1 2.34-2.93ZM8 16.5c0-.28.22-.5.5-.5h3a.5.5 0 0 1 0 1h-3a.5.5 0 0 1-.5-.5ZM8.5 3a.5.5 0 0 0 0 1h3a.5.5 0 0 0 0-1h-3Z"/></svg>