<svg width="48" height="48" viewBox="0 0 48 48" xmlns="http://www.w3.org/2000/svg"><path d="M24 6.5A17.5 17.5 0 0 0 8.84 32.74c.17.3.21.65.12.97l-2.12 7.44 7.44-2.11c.33-.1.68-.05.97.12a17.4 17.4 0 0 0 8.49 2.34c.51.88 1.12 1.7 1.82 2.44a19.92 19.92 0 0 1-11.1-2.35l-8.23 2.34a1.75 1.75 0 0 1-2.16-2.16l2.34-8.24a20 20 0 1 1 37.53-7.97c-.74-.7-1.56-1.31-2.44-1.82A17.5 17.5 0 0 0 24 6.5ZM46 35a11 11 0 1 1-22 0 11 11 0 0 1 22 0Zm-10-7a1 1 0 1 0-2 0v6h-6a1 1 0 1 0 0 2h6v6a1 1 0 1 0 2 0v-6h6a1 1 0 1 0 0-2h-6v-6Z"/></svg>