<svg width="28" height="28" viewBox="0 0 28 28" xmlns="http://www.w3.org/2000/svg"><path d="M14 2.5a11.5 11.5 0 0 1 11.47 12.38c-.44-.4-.94-.73-1.47-1.01a10 10 0 1 0-18.67 5.1l.16.28-1.4 4.67 4.67-1.4.27.16A9.95 9.95 0 0 0 13.86 24c.28.53.63 1.02 1.02 1.47a11.67 11.67 0 0 1-6.3-1.33l-4.51 1.35a1.25 1.25 0 0 1-1.56-1.55l1.36-4.5A11.5 11.5 0 0 1 14 2.5Zm13 18a6.5 6.5 0 1 1-13 0 6.5 6.5 0 0 1 13 0Zm-6-4a.5.5 0 0 0-1 0V20h-3.5a.5.5 0 0 0 0 1H20v3.5a.5.5 0 0 0 1 0V21h3.5a.5.5 0 0 0 0-1H21v-3.5Z"/></svg>