<svg width="24" height="24" viewBox="0 0 24 24" xmlns="http://www.w3.org/2000/svg"><path d="M13.4 2.51a3.75 3.75 0 00-2.8 0l-2.2.9L18 7.12l3.37-1.3c-.14-.12-.3-.2-.46-.28l-7.5-3.04zM22 7.2l-9.25 3.58v2.3A6.48 6.48 0 0122 12.8V7.19zm-10.75 8.52v-4.94L2 7.19v9.64c0 .71.43 1.35 1.1 1.62l7.5 3.04c.2.09.43.15.65.2v-2.4a6.5 6.5 0 010-3.58zM2.63 5.83L12 9.45l3.92-1.52-9.55-3.7L3.1 5.54c-.17.07-.32.16-.46.28zM17.5 12a5.5 5.5 0 100 11 5.5 5.5 0 000-11zM14 17.46l.02-.09.02-.06.03-.07.03-.04 2.55-2.55.07-.06a.5.5 0 01.7.7l-.07.06L15.71 17h5.38c.2.05.36.2.4.41l.01.1v.08a.5.5 0 01-.41.4L21 18h-5.3l1.65 1.65.06.07a.5.5 0 010 .57l-.06.06-.07.06a.5.5 0 01-.56 0l-.07-.06-2.52-2.5-.04-.06-.04-.08-.03-.08-.01-.06-.01-.06v-.05z"/></svg>