<svg width="48" height="48" viewBox="0 0 48 48" xmlns="http://www.w3.org/2000/svg"><path d="M31.6 6.84a1.25 1.25 0 00-2.1.91v5.47a18.14 18.14 0 00-7.02 1.58c-4.4 2-8.92 6.37-9.97 15.56a1.25 1.25 0 002.07 1.07c4.34-3.85 8.4-5.5 11.34-6.21 1.47-.36 2.67-.47 3.48-.5h.1v5.53a1.25 1.25 0 002.1.91l12-11.25a1.25 1.25 0 000-1.82l-12-11.25zm-1 8.9h.03A1.25 1.25 0 0032 14.5v-3.86L40.92 19 32 27.36V23.5c0-.63-.45-1.16-1.1-1.24h-.04a4.78 4.78 0 00-.4-.04c-.28 0-.66-.02-1.14 0-.97.03-2.33.17-3.99.56-2.68.65-6.1 1.98-9.78 4.66 1.5-6.08 4.87-8.96 7.97-10.36a15.64 15.64 0 017.09-1.34zM12.26 8A6.25 6.25 0 006 14.25v21.5C6 39.2 8.8 42 12.25 42h21.5C37.2 42 40 39.2 40 35.75V33.5a1.25 1.25 0 00-2.5 0v2.25a3.75 3.75 0 01-3.75 3.75h-21.5a3.75 3.75 0 01-3.75-3.75v-21.5a3.75 3.75 0 013.75-3.75h8.25a1.25 1.25 0 100-2.5h-8.25z"/></svg>