<svg width="16" height="16" viewBox="0 0 16 16" xmlns="http://www.w3.org/2000/svg"><path d="M10.3 2.1a.5.5 0 00-.8.4v2a5.27 5.27 0 00-1.68.34 4.7 4.7 0 00-2.1 1.57A6.77 6.77 0 004.5 9.95a.5.5 0 00.85.4A8.33 8.33 0 018.6 8.3c.36-.12.66-.2.9-.23V10a.5.5 0 00.83.37l4.5-4a.5.5 0 00-.02-.76l-4.5-3.5zm-.36 3.4a.5.5 0 00.56-.5V3.52l3.22 2.5L10.5 8.9V7.5A.5.5 0 0010 7h-.04a2.97 2.97 0 00-.46.04A8.9 8.9 0 005.73 8.7c.2-.7.48-1.26.8-1.68a3.7 3.7 0 011.65-1.24 4.37 4.37 0 011.74-.28h.02zM4.5 3A2.5 2.5 0 002 5.5v6A2.5 2.5 0 004.5 14h6a2.5 2.5 0 002.5-2.5v-1a.5.5 0 00-1 0v1c0 .83-.67 1.5-1.5 1.5h-6A1.5 1.5 0 013 11.5v-6C3 4.67 3.67 4 4.5 4h2a.5.5 0 000-1h-2z"/></svg>