<svg width="28" height="28" viewBox="0 0 28 28" xmlns="http://www.w3.org/2000/svg"><path d="M18.27 3.21l7.5 7.25a.75.75 0 010 1.08l-7.5 7.25a.73.73 0 01-.81.15.75.75 0 01-.46-.69v-3.74c-6.7.27-9.52 4.02-9.64 4.18a.77.77 0 01-.84.27.75.75 0 01-.52-.71c0-8.02 6.59-10.48 11-10.73V3.75a.75.75 0 011.27-.54zM7.75 4A4.75 4.75 0 003 8.75v11.5A4.75 4.75 0 007.75 25h11.5A4.75 4.75 0 0024 20.25v-.5a.75.75 0 00-1.5 0v.5c0 1.8-1.46 3.25-3.25 3.25H7.75a3.25 3.25 0 01-3.25-3.25V8.75c0-1.8 1.46-3.25 3.25-3.25h4.5a.75.75 0 000-1.5h-4.5z"/></svg>