<svg width="28" height="28" viewBox="0 0 28 28" xmlns="http://www.w3.org/2000/svg"><path d="M18.27 3.21l7.5 7.25a.75.75 0 010 1.08l-7.5 7.25a.73.73 0 01-.81.15.75.75 0 01-.46-.69v-3.74c-6.7.27-9.52 4.02-9.64 4.18a.77.77 0 01-.84.27.75.75 0 01-.52-.71c0-8.02 6.59-10.48 11-10.73V3.75a.75.75 0 011.27-.54zm.23 10.54v2.71L24.17 11 18.5 5.52v2.73a.76.76 0 01-.75.75c-.97 0-8.85.22-10.09 7.28A15.58 15.58 0 0117.75 13a.76.76 0 01.75.75zm4.22 5.47a.76.76 0 01.53-.22.76.76 0 01.75.75v.5A4.75 4.75 0 0119.25 25H7.75A4.75 4.75 0 013 20.25V8.75A4.75 4.75 0 017.75 4h4.5a.75.75 0 110 1.5h-4.5A3.26 3.26 0 004.5 8.75v11.5a3.26 3.26 0 003.25 3.25h11.5a3.26 3.26 0 003.25-3.25v-.5c0-.2.08-.39.22-.53z"/></svg>