<svg width="16" height="16" viewBox="0 0 16 16" xmlns="http://www.w3.org/2000/svg"><path d="M9.78 2.05a.5.5 0 01.53.06l4.5 3.5a.5.5 0 01.02.76l-4.5 4A.5.5 0 019.5 10V8.06c-.24.04-.54.1-.9.23-.88.29-2.06.87-3.25 2.06a.5.5 0 01-.85-.4c.14-1.57.6-2.71 1.23-3.54a4.7 4.7 0 012.1-1.57 5.37 5.37 0 011.67-.35V2.5c0-.2.1-.37.28-.45zM2 5.5A2.5 2.5 0 014.5 3h2a.5.5 0 010 1h-2C3.67 4 3 4.67 3 5.5v6c0 .83.67 1.5 1.5 1.5h6c.83 0 1.5-.67 1.5-1.5v-1a.5.5 0 011 0v1a2.5 2.5 0 01-2.5 2.5h-6A2.5 2.5 0 012 11.5v-6z"/></svg>