<svg width="24" height="24" viewBox="0 0 24 24" xmlns="http://www.w3.org/2000/svg"><path d="M3.28 2.22a.75.75 0 1 0-1.06 1.06L11 12.06v7.29a.75.75 0 0 0 1.5-.1v-5.69l2.5 2.5v3.29a.75.75 0 0 0 1.5-.1v-1.69l4.22 4.22a.75.75 0 0 0 1.06-1.06L3.28 2.22ZM19 15.82l1.5 1.5V5.64a.75.75 0 0 0-1.5.12v10.06Zm-4-4 1.5 1.5V8.65a.75.75 0 0 0-1.5.1v3.07ZM3.75 17c.38 0 .7.28.74.65l.01.1v1.5a.75.75 0 0 1-1.5.1v-1.6c0-.41.34-.75.75-.75Zm4-3c.38 0 .7.28.74.65l.01.1v4.5a.75.75 0 0 1-1.5.1v-4.6c0-.41.34-.75.75-.75Z"/></svg>