<svg width="16" height="16" viewBox="0 0 16 16" xmlns="http://www.w3.org/2000/svg"><path d="M10.87 1.02a.5.5 0 0 1 .37.6l-.25 1a.5.5 0 1 1-.97-.24l.24-1a.5.5 0 0 1 .61-.36Zm2.98 1.13c.2.2.2.5 0 .7l-1 1a.5.5 0 1 1-.7-.7l1-1c.2-.2.5-.2.7 0ZM6.28 13.03a2 2 0 0 0 3.63-1.6l-3.63 1.6Zm-.92.4-1 .45a1.4 1.4 0 0 1-1.55-.29l-.4-.4a1.4 1.4 0 0 1-.3-1.55L6 2.84a1.4 1.4 0 0 1 2.27-.43l5.33 5.31c.7.7.48 1.87-.42 2.27l-2.34 1.03a3 3 0 0 1-5.47 2.42ZM14.5 5h-1a.5.5 0 0 0 0 1h1a.5.5 0 1 0 0-1ZM6.9 3.24l-3.87 8.8a.4.4 0 0 0 .09.44l.4.4c.11.12.29.15.44.09l8.8-3.9a.4.4 0 0 0 .12-.64L7.55 3.12a.4.4 0 0 0-.65.12Z"/></svg>