<svg width="28" height="28" viewBox="0 0 28 28" xmlns="http://www.w3.org/2000/svg"><path d="M17.53 4.47a.75.75 0 1 0 1.44.38l.65-2.41a.75.75 0 1 0-1.45-.39l-.64 2.42Zm7.25-1.25c.3.3.3.77 0 1.06l-2.5 2.5a.75.75 0 1 1-1.06-1.06l2.5-2.5c.3-.3.77-.3 1.06 0ZM10.18 23.7a4.75 4.75 0 0 0 8.47-4.23l3.83-1.91a2.75 2.75 0 0 0 .71-4.4L14.85 4.8a2.75 2.75 0 0 0-4.4.71L3.29 19.83A2.75 2.75 0 0 0 3.81 23L5 24.2a2.75 2.75 0 0 0 3.17.5l2.01-1Zm1.35-.67 5.78-2.89a3.24 3.24 0 0 1-3.06 4.36 3.25 3.25 0 0 1-2.72-1.47Zm.26-16.84c.38-.76 1.4-.93 2-.32l8.34 8.34c.6.6.44 1.62-.32 2L7.5 23.37c-.48.24-1.06.14-1.44-.24l-1.2-1.19a1.25 1.25 0 0 1-.23-1.44L11.8 6.2ZM22.5 9.75c0-.41.34-.75.75-.75h2.5a.75.75 0 0 1 0 1.5h-2.5a.75.75 0 0 1-.75-.75Z"/></svg>