<svg width="16" height="16" viewBox="0 0 16 16" xmlns="http://www.w3.org/2000/svg"><path d="M10.87 1.01a.5.5 0 01.37.61l-.25 1a.5.5 0 11-.97-.24l.24-1a.5.5 0 01.61-.37zm2.98 1.14c.2.2.2.5 0 .7l-1 1a.5.5 0 11-.7-.7l1-1c.2-.2.5-.2.7 0zM6.28 13.03a2 2 0 003.63-1.6l-3.63 1.6zm-.92.4l-1 .45a1.4 1.4 0 01-1.55-.29l-.4-.4a1.4 1.4 0 01-.3-1.55L6 2.84a1.4 1.4 0 012.27-.43l5.33 5.31c.7.7.48 1.87-.42 2.27l-2.34 1.03a3 3 0 01-5.47 2.42zM14.5 5h-1a.5.5 0 000 1h1a.5.5 0 100-1zM6.9 3.24l-3.87 8.8a.4.4 0 00.09.44l.4.4c.11.12.29.15.44.09l8.8-3.9a.4.4 0 00.12-.64L7.55 3.12a.4.4 0 00-.65.12z"/></svg>