<svg width="24" height="24" viewBox="0 0 24 24" xmlns="http://www.w3.org/2000/svg"><path d="M17.21 2.24a.75.75 0 00-1.42-.48l-.75 2.25a.75.75 0 001.42.48l.75-2.25zm4.57-.02c.3.3.3.77 0 1.06l-2.5 2.5a.75.75 0 11-1.06-1.06l2.5-2.5c.3-.3.77-.3 1.06 0zm-8.9 1.52a2.33 2.33 0 00-3.8.58l-5.9 12.24a1.8 1.8 0 00.39 2.09L5 20.01c.53.5 1.3.63 1.97.33l1.42-.63a4 4 0 007.3-3.24l3.43-1.51a2.33 2.33 0 00.76-3.71l-7-7.5zm1.45 13.34a2.5 2.5 0 01-4.57 2.03l4.57-2.03zM19 8.25c0-.41.34-.75.75-.75h2a.75.75 0 010 1.5h-2a.75.75 0 01-.75-.75z"/></svg>