<svg width="28" height="28" viewBox="0 0 28 28" xmlns="http://www.w3.org/2000/svg"><path d="M17.53 4.47a.75.75 0 101.44.38l.65-2.41a.75.75 0 10-1.45-.39l-.64 2.42zm7.25-1.25c.3.3.3.77 0 1.06l-2.5 2.5a.75.75 0 01-1.06-1.06l2.5-2.5c.3-.3.77-.3 1.06 0zM22.5 9.75c0-.41.34-.75.75-.75h2.5a.75.75 0 010 1.5h-2.5a.75.75 0 01-.75-.75zM14.25 26a4.75 4.75 0 01-4.07-2.3l-2 1A2.75 2.75 0 015 24.2L3.8 23a2.75 2.75 0 01-.5-3.17l7.15-14.3a2.75 2.75 0 014.4-.72l8.34 8.34a2.75 2.75 0 01-.71 4.4l-3.83 1.92a4.74 4.74 0 01-4.4 6.53zm3.05-5.86l-5.77 2.89a3.25 3.25 0 005.78-2.89z"/></svg>