<svg width="20" height="20" viewBox="0 0 20 20" xmlns="http://www.w3.org/2000/svg"><path d="M5.5 4C4.67 4 4 4.67 4 5.5v1a.5.5 0 0 1-1 0v-1A2.5 2.5 0 0 1 5.5 3h1a.5.5 0 0 1 0 1h-1Zm1 1C5.67 5 5 5.67 5 6.5v7c0 .83.67 1.5 1.5 1.5h7c.83 0 1.5-.67 1.5-1.5v-7c0-.83-.67-1.5-1.5-1.5h-7Zm8-1c.83 0 1.5.67 1.5 1.5v1a.5.5 0 0 0 1 0v-1A2.5 2.5 0 0 0 14.5 3h-1a.5.5 0 0 0 0 1h1Zm0 12c.83 0 1.5-.67 1.5-1.5v-1a.5.5 0 0 1 1 0v1a2.5 2.5 0 0 1-2.5 2.5h-1a.5.5 0 0 1 0-1h1Zm-9 0A1.5 1.5 0 0 1 4 14.5v-1.25a.5.5 0 0 0-1 0v1.25A2.5 2.5 0 0 0 5.5 17h1.25a.5.5 0 0 0 0-1H5.5Z"/></svg>