<svg width="20" height="20" viewBox="0 0 20 20" xmlns="http://www.w3.org/2000/svg"><path d="M5.5 4C4.67 4 4 4.67 4 5.5v1a.5.5 0 0 1-1 0v-1A2.5 2.5 0 0 1 5.5 3h1a.5.5 0 0 1 0 1h-1ZM16 5.5c0-.83-.67-1.5-1.5-1.5h-1a.5.5 0 0 1 0-1h1A2.5 2.5 0 0 1 17 5.5v1a.5.5 0 0 1-1 0v-1Zm0 9c0 .83-.67 1.5-1.5 1.5h-1a.5.5 0 0 0 0 1h1a2.5 2.5 0 0 0 2.5-2.5v-1a.5.5 0 0 0-1 0v1Zm-12 0c0 .83.67 1.5 1.5 1.5h1.25a.5.5 0 0 1 0 1H5.5A2.5 2.5 0 0 1 3 14.5v-1.25a.5.5 0 0 1 1 0v1.25ZM6.5 5C5.67 5 5 5.67 5 6.5v7c0 .83.67 1.5 1.5 1.5h7c.83 0 1.5-.67 1.5-1.5v-7c0-.83-.67-1.5-1.5-1.5h-7ZM6 6.5c0-.28.22-.5.5-.5h7c.28 0 .5.22.5.5v7a.5.5 0 0 1-.5.5h-7a.5.5 0 0 1-.5-.5v-7Z"/></svg>