<svg width="24" height="24" viewBox="0 0 24 24" xmlns="http://www.w3.org/2000/svg"><path d="M13 4.75C13 3.8 12.22 3 11.25 3h-6.5C3.78 3 3 3.8 3 4.75v4.5c0 .97.78 1.75 1.75 1.75h6.5c.97 0 1.75-.78 1.75-1.75v-4.5ZM9 14.73c0-.96-.78-1.75-1.75-1.75H4.75c-.97 0-1.75.79-1.75 1.75v4.52C3 20.2 3.78 21 4.75 21h2.49c.97 0 1.75-.79 1.75-1.75v-4.52Zm2.51-9.98v4.5c0 .14-.11.25-.25.25h-6.5a.25.25 0 0 1-.25-.25v-4.5c0-.14.11-.25.25-.25h6.5c.14 0 .25.11.25.25ZM7.5 14.73v4.52c0 .14-.11.25-.25.25H4.75a.25.25 0 0 1-.25-.25v-4.52c0-.13.11-.25.25-.25h2.49c.14 0 .25.12.25.25Zm13.51.02c0-.97-.78-1.75-1.75-1.75h-6.5c-.92 0-1.67.7-1.74 1.6v4.65c0 .96.78 1.75 1.74 1.75h6.5c.97 0 1.75-.79 1.75-1.75v-4.5Zm-1.5 0v4.5c0 .14-.1.25-.25.25h-6.5a.25.25 0 0 1-.25-.25v-4.56c.04-.11.13-.2.25-.2h6.5c.14 0 .25.12.25.26Zm1.5-10C21 3.8 20.22 3 19.25 3h-2.5C15.8 3 15 3.8 15 4.75v4.5c0 .97.79 1.75 1.75 1.75h2.5c.97 0 1.75-.78 1.75-1.75v-4.5Zm-1.5 4.5c0 .14-.1.25-.25.25h-2.5a.25.25 0 0 1-.25-.25v-4.5c0-.14.11-.25.25-.25h2.5c.14 0 .25.11.25.25v4.5Z"/></svg>