<svg width="24" height="24" viewBox="0 0 24 24" xmlns="http://www.w3.org/2000/svg"><path d="M13 4.75C13 3.8 12.22 3 11.25 3h-6.5C3.8 3 3 3.8 3 4.75v4.5C3 10.22 3.8 11 4.75 11h6.5c.97 0 1.75-.78 1.75-1.75v-4.5zM9 14.73c0-.96-.78-1.75-1.75-1.75H4.75c-.96 0-1.75.79-1.75 1.75v4.52C3 20.22 3.8 21 4.75 21h2.49c.97 0 1.75-.78 1.75-1.75v-4.52zm12.01.02c0-.97-.78-1.75-1.75-1.75h-6.5c-.91 0-1.67.7-1.74 1.6v4.65c0 .97.78 1.75 1.74 1.75h6.5c.97 0 1.75-.78 1.75-1.75v-4.5zm0-10C21 3.8 20.22 3 19.25 3h-2.5C15.8 3 15 3.8 15 4.75v4.5c0 .97.79 1.75 1.75 1.75h2.5c.97 0 1.75-.78 1.75-1.75v-4.5z"/></svg>