<svg width="16" height="16" viewBox="0 0 16 16" xmlns="http://www.w3.org/2000/svg"><path d="M3.75 2C2.78 2 2 2.78 2 3.75v2.5C2 7.22 2.78 8 3.75 8h3.5C8.22 8 9 7.22 9 6.25v-2.5C9 2.78 8.22 2 7.25 2h-3.5zm5 7C7.78 9 7 9.78 7 10.75v1.5c0 .97.78 1.75 1.75 1.75h3.5c.97 0 1.75-.78 1.75-1.75v-1.5C14 9.78 13.22 9 12.25 9h-3.5zm-5 0C2.78 9 2 9.78 2 10.75v1.5c0 .97.78 1.75 1.75 1.75h.5C5.22 14 6 13.22 6 12.25v-1.5C6 9.78 5.22 9 4.25 9h-.5zm8-7C10.78 2 10 2.78 10 3.75v2.5c0 .97.78 1.75 1.75 1.75h.5C13.22 8 14 7.22 14 6.25v-2.5C14 2.78 13.22 2 12.25 2h-.5z"/></svg>