<svg width="20" height="20" viewBox="0 0 20 20" xmlns="http://www.w3.org/2000/svg"><path d="m8.07 3.3 1.32.99-1.96 2.05a.5.5 0 0 1-.36.16H2v-1A2.5 2.5 0 0 1 4.5 3h2.67c.32 0 .64.1.9.3Zm.09 3.73 2.4-2.53h4.94A2.5 2.5 0 0 1 18 6.84v3.42A5.5 5.5 0 0 0 9.6 17H4.5A2.5 2.5 0 0 1 2 14.5v-7h5.07c.41 0 .8-.17 1.09-.47ZM19 14.5a4.5 4.5 0 1 1-9 0 4.5 4.5 0 0 1 9 0Zm-4.15-2.35a.5.5 0 0 0-.35-.15.5.5 0 0 0-.35.15l-2 2a.5.5 0 0 0 .7.7L14 13.71v2.79a.5.5 0 1 0 1 0v-2.8l1.15 1.15a.5.5 0 1 0 .7-.7l-2-2Z"/></svg>