<svg width="20" height="20" viewBox="0 0 20 20" xmlns="http://www.w3.org/2000/svg"><path d="M2 5.5C2 4.67 2.67 4 3.5 4h13c.83 0 1.5.67 1.5 1.5v5.84a3.49 3.49 0 0 0-1.5-.34h-4a3.5 3.5 0 0 0-3.16 5H3.5A1.5 1.5 0 0 1 2 14.5v-9Zm3 3a1.5 1.5 0 1 0 3 0 1.5 1.5 0 0 0-3 0Zm4 3.2a.95.95 0 0 0-.95-.95h-3.1a.95.95 0 0 0-.95.95c0 .85.58 1.58 1.4 1.79l.06.01c.68.18 1.4.18 2.08 0l.06-.01c.82-.2 1.4-.94 1.4-1.8ZM11.5 8a.5.5 0 0 0 0 1h3a.5.5 0 0 0 0-1h-3Zm1 4a2.5 2.5 0 0 0 0 5h.5a.5.5 0 0 0 0-1h-.5a1.5 1.5 0 0 1 0-3h.5a.5.5 0 0 0 0-1h-.5Zm3.5 0a.5.5 0 0 0 0 1h.5a1.5 1.5 0 0 1 0 3H16a.5.5 0 0 0 0 1h.5a2.5 2.5 0 0 0 0-5H16Zm-3.5 2a.5.5 0 0 0 0 1h4a.5.5 0 0 0 0-1h-4Z"/></svg>