<svg width="24" height="24" viewBox="0 0 24 24" xmlns="http://www.w3.org/2000/svg"><path d="M5.25 3.5c-.97 0-1.75.78-1.75 1.75v3a.75.75 0 01-1.5 0v-3C2 3.45 3.46 2 5.25 2h3a.75.75 0 010 1.5h-3zm0 17c-.97 0-1.75-.78-1.75-1.75v-3a.75.75 0 00-1.5 0v3C2 20.55 3.46 22 5.25 22h3a.75.75 0 000-1.5h-3zM20.5 5.25c0-.97-.78-1.75-1.75-1.75h-3a.75.75 0 010-1.5h3C20.55 2 22 3.46 22 5.25v3a.75.75 0 01-1.5 0v-3zM7.75 6a.75.75 0 00-.75.75V8a.75.75 0 001.5 0v-.5h2.75v8.2c.29-1 .8-1.9 1.5-2.64V7.5h2.75V8A.75.75 0 0017 8V6.75a.75.75 0 00-.75-.75h-8.5zm2 10.5h1.33a6.55 6.55 0 00-.06 1.5H9.75a.75.75 0 010-1.5zm13.25 1a5.5 5.5 0 11-11 0 5.5 5.5 0 0111 0zm-2.15-2.35a.5.5 0 00-.7 0l-3.65 3.64-1.65-1.64a.5.5 0 00-.7.7l2 2c.2.2.5.2.7 0l4-4a.5.5 0 000-.7z"/></svg>