<svg width="28" height="28" viewBox="0 0 28 28" xmlns="http://www.w3.org/2000/svg"><path d="M3 2.75a.75.75 0 0 1 1.5 0v22.5a.75.75 0 0 1-1.5 0V2.75ZM8.75 5A2.75 2.75 0 0 0 6 7.75v2.5A2.75 2.75 0 0 0 8.75 13h13.5A2.75 2.75 0 0 0 25 10.25v-2.5A2.75 2.75 0 0 0 22.25 5H8.75ZM7.5 7.75c0-.69.56-1.25 1.25-1.25h13.5c.69 0 1.25.56 1.25 1.25v2.5c0 .69-.56 1.25-1.25 1.25H8.75c-.69 0-1.25-.56-1.25-1.25v-2.5ZM8.75 15A2.75 2.75 0 0 0 6 17.75v2.5A2.75 2.75 0 0 0 8.75 23h8a2.75 2.75 0 0 0 2.75-2.75v-2.5A2.75 2.75 0 0 0 16.75 15h-8ZM7.5 17.75c0-.69.56-1.25 1.25-1.25h8c.69 0 1.25.56 1.25 1.25v2.5c0 .69-.56 1.25-1.25 1.25h-8c-.69 0-1.25-.56-1.25-1.25v-2.5Z"/></svg>