<svg width="24" height="24" viewBox="0 0 24 24" xmlns="http://www.w3.org/2000/svg"><path d="M5.5 3A2.5 2.5 0 0 0 3 5.5v3a2.5 2.5 0 0 0 5 0V8h2.27a2 2 0 0 0 .98.85v6.3a2 2 0 0 0-.98.85H8v-.5a2.5 2.5 0 0 0-5 0v3a2.5 2.5 0 0 0 5 0v-1h2.06a2 2 0 0 0 3.88 0H16v1a2.5 2.5 0 0 0 5 0v-3a2.5 2.5 0 0 0-5 0v.5h-2.27a2 2 0 0 0-.98-.85v-6.3a2 2 0 0 0 .98-.85H16v.5a2.5 2.5 0 0 0 5 0v-3a2.5 2.5 0 0 0-5 0v1h-2.06a2 2 0 0 0-3.88 0H8v-1A2.5 2.5 0 0 0 5.5 3Zm-1 2.5a1 1 0 0 1 2 0v3a1 1 0 0 1-2 0v-3Zm1 9a1 1 0 0 1 1 1v3a1 1 0 1 1-2 0v-3a1 1 0 0 1 1-1Zm12-9a1 1 0 1 1 2 0v3a1 1 0 1 1-2 0v-3Zm1 9a1 1 0 0 1 1 1v3a1 1 0 1 1-2 0v-3a1 1 0 0 1 1-1Z"/></svg>