<svg width="20" height="20" viewBox="0 0 20 20" xmlns="http://www.w3.org/2000/svg"><path d="M3 4a2 2 0 1 1 4 0v1h1.59a1.5 1.5 0 0 1 2.82 0H13V4a2 2 0 1 1 4 0v3a2 2 0 1 1-4 0V6h-1.59a1.5 1.5 0 0 1-.91.91v6.18c.43.15.76.48.91.91H13v-1a2 2 0 1 1 4 0v3a2 2 0 1 1-4 0v-1h-1.59a1.5 1.5 0 0 1-2.82 0H7v1a2 2 0 1 1-4 0v-3a2 2 0 1 1 4 0v1h1.59c.15-.43.48-.76.91-.91V6.9A1.5 1.5 0 0 1 8.59 6H7v1a2 2 0 1 1-4 0V4Zm2-1a1 1 0 0 0-1 1v3a1 1 0 0 0 2 0V4a1 1 0 0 0-1-1Zm10 0a1 1 0 0 0-1 1v3a1 1 0 1 0 2 0V4a1 1 0 0 0-1-1ZM5 12a1 1 0 0 0-1 1v3a1 1 0 1 0 2 0v-3a1 1 0 0 0-1-1Zm9 1v3a1 1 0 1 0 2 0v-3a1 1 0 1 0-2 0Z"/></svg>