<svg width="16" height="16" viewBox="0 0 16 16" xmlns="http://www.w3.org/2000/svg"><path d="M4.5 2A2.5 2.5 0 0 0 2 4.5V5h3V2h-.5ZM6 2v3h4V2H6ZM5 6H2v4h3V6Zm1 1.34c.37-.52.82-.97 1.34-1.34H6v1.34ZM5 11H2v.5A2.5 2.5 0 0 0 4.5 14H5v-3Zm9-6v-.5A2.5 2.5 0 0 0 11.5 2H11v3h3ZM8.06 7.44a2 2 0 0 1-1.43 2.48l-.46.12a4.71 4.71 0 0 0 .01 1.01l.35.09A2 2 0 0 1 8 13.66l-.13.42c.26.2.54.38.84.52l.32-.35a2 2 0 0 1 2.91 0l.34.36c.3-.13.57-.3.82-.5l-.16-.55a2 2 0 0 1 1.44-2.48l.46-.12a4.7 4.7 0 0 0-.01-1.01l-.35-.09A2 2 0 0 1 13 7.34l.13-.42c-.26-.2-.54-.38-.84-.52l-.32.35a2 2 0 0 1-2.91 0l-.34-.36c-.3.13-.57.3-.82.5l.15.55Zm2.44 4.06a1 1 0 1 1 0-2 1 1 0 0 1 0 2Z"/></svg>