<svg width="20" height="20" viewBox="0 0 20 20" xmlns="http://www.w3.org/2000/svg"><path d="M17 9.6a5.48 5.48 0 0 0-4-.4V8h4v1.6ZM9.2 13a5.5 5.5 0 0 0 .4 4H8v-4h1.2ZM12 9.6A5.52 5.52 0 0 0 9.6 12H8V8h4v1.6ZM7 8v4H3V8h4Zm0 5H3v1.5A2.5 2.5 0 0 0 5.5 17H7v-4Zm10-6h-4V3h1.5A2.5 2.5 0 0 1 17 5.5V7Zm-5 0V3H8v4h4ZM7 7V3H5.5A2.5 2.5 0 0 0 3 5.5V7h4Zm5.06 4.44a2 2 0 0 1-1.43 2.48l-.46.12a4.74 4.74 0 0 0 .01 1.01l.35.09A2 2 0 0 1 12 17.66l-.13.42c.26.2.54.38.84.52l.32-.35a2 2 0 0 1 2.91 0l.34.36c.3-.13.57-.3.82-.5l-.16-.55a2 2 0 0 1 1.44-2.48l.46-.12a4.7 4.7 0 0 0-.01-1.01l-.35-.09A2 2 0 0 1 17 11.34l.13-.42c-.26-.2-.54-.38-.84-.52l-.32.35a2 2 0 0 1-2.91 0l-.34-.36c-.3.13-.57.3-.82.5l.15.55Zm2.44 4.06a1 1 0 1 1 0-2 1 1 0 0 1 0 2Z"/></svg>