<svg width="28" height="28" viewBox="0 0 28 28" xmlns="http://www.w3.org/2000/svg"><path d="M3 6.75A3.75 3.75 0 0 1 6.75 3H9.5v6.5H3V6.75ZM3 11v6h6.5v-6H3Zm0 7.5v2.75A3.75 3.75 0 0 0 6.75 25H9.5v-6.5H3Zm8 6.5h3.5a7.47 7.47 0 0 1-1.23-6.5H11V25Zm14-14v3.5a7.47 7.47 0 0 0-6.5-1.23V11H25Zm-8 0v2.87A7.53 7.53 0 0 0 13.87 17H11v-6h6Zm8-1.5V6.75A3.75 3.75 0 0 0 21.25 3H18.5v6.5H25ZM17 3h-6v6.5h6V3Zm-.2 13.7a2 2 0 0 1-1.45 2.5l-1.02.25a6.8 6.8 0 0 0 0 2.15l.98.23a2 2 0 0 1 1.45 2.52l-.32 1.1c.52.45 1.11.83 1.75 1.1l.85-.9a2 2 0 0 1 2.9 0l.85.9a6.2 6.2 0 0 0 1.75-1.09l-.34-1.16a2 2 0 0 1 1.44-2.5l1.03-.25a6.8 6.8 0 0 0 0-2.15l-.99-.23a2 2 0 0 1-1.45-2.51l.33-1.1a6.2 6.2 0 0 0-1.75-1.1l-.85.88a2 2 0 0 1-2.9 0l-.85-.9a6.2 6.2 0 0 0-1.75 1.1l.34 1.16Zm3.7 5.3a1.5 1.5 0 1 1 0-3 1.5 1.5 0 0 1 0 3Z"/></svg>