<svg width="24" height="24" viewBox="0 0 24 24" xmlns="http://www.w3.org/2000/svg"><path d="M8.38 4.5c-.5 0-.94.29-1.14.73L6.18 7.56a.75.75 0 11-1.36-.62l1.06-2.33A2.75 2.75 0 018.38 3h7.24c1.08 0 2.06.63 2.5 1.61l1.06 2.33a.75.75 0 11-1.36.62l-1.06-2.33c-.2-.44-.65-.73-1.14-.73H8.38zm-1.88 9a3 3 0 100 6 3 3 0 000-6zm-4.5 3a4.5 4.5 0 018.97-.5h2.06a4.5 4.5 0 11.08 1.5H10.9a4.5 4.5 0 01-8.89-1zm15.5-3a3 3 0 100 6 3 3 0 000-6zM2.93 10.97c5.13-1.3 13-1.3 18.14 0a.75.75 0 10.36-1.45c-5.37-1.36-13.5-1.36-18.86 0a.75.75 0 10.36 1.45z"/></svg>