<svg width="28" height="28" viewBox="0 0 28 28" xmlns="http://www.w3.org/2000/svg"><path d="m2.01 8.6.22.18a2.23 2.23 0 0 1 .53.87l.35 1.07a.42.42 0 0 0 .78.02l.01-.03.35-1.07a2.2 2.2 0 0 1 1.4-1.4l1.07-.34A.43.43 0 0 0 7 7.5a.42.42 0 0 0-.28-.4H6.7l-1.07-.35a2.2 2.2 0 0 1-1.4-1.4l-.35-1.07-.02-.03-.02-.02a.42.42 0 0 0-.12-.16.42.42 0 0 0-.49 0 .42.42 0 0 0-.15.2l-.35 1.07-.01.03a2.21 2.21 0 0 1-.58.89 2.19 2.19 0 0 1-.79.48l-1.07.35a.42.42 0 0 0-.2.64c.05.07.12.13.2.15l1.07.35c.24.09.46.21.65.37h.01Zm14.46.42a3.5 3.5 0 1 1-4.95 4.95 3.5 3.5 0 0 1 4.95-4.95Zm-3.88 1.06a2 2 0 1 0 2.83 2.83 2 2 0 0 0-2.83-2.83Zm-6.31 1.99-.61.2a.24.24 0 0 0 0 .45l.6.2a1.27 1.27 0 0 1 .8.8l.2.62c.02.05.05.09.1.12a.24.24 0 0 0 .27 0 .24.24 0 0 0 .09-.12l.2-.61c.06-.19.16-.35.3-.5.14-.13.3-.23.5-.3l.6-.2a.24.24 0 0 0 .17-.22.24.24 0 0 0-.17-.23l-.62-.2a1.26 1.26 0 0 1-.8-.8l-.2-.6a.26.26 0 0 0-.08-.13.25.25 0 0 0-.23-.02.24.24 0 0 0-.14.14l-.2.61a1.27 1.27 0 0 1-.3.5c-.14.13-.3.23-.48.29ZM22.99 4H4.91l-.07.02.34 1.02c.06.17.15.33.29.46h17.52A1.5 1.5 0 0 1 24.5 7v14a1.5 1.5 0 0 1-1.5 1.5H20v-4a2 2 0 0 0-2-2h-8a2 2 0 0 0-2 2v4H5A1.5 1.5 0 0 1 3.52 21v-9a1.41 1.41 0 0 1-1.35-.97l-.15-.45V21a3 3 0 0 0 3 3H23a3 3 0 0 0 3-3V7a3 3 0 0 0-3-3ZM18.5 22.5h-9v-4c0-.28.22-.5.5-.5h8c.28 0 .5.22.5.5v4Z"/></svg>