<svg width="16" height="16" viewBox="0 0 16 16" xmlns="http://www.w3.org/2000/svg"><path d="M6.5 5.75c0-.27-.06-.52-.17-.75h1.34a1.74 1.74 0 0 0-.16.89c.35-.23.72-.42 1.12-.56a.75.75 0 0 1 .95-.25A5.54 5.54 0 0 1 10.84 5 1.75 1.75 0 0 0 9.25 4h-4.5A1.75 1.75 0 1 0 6.5 5.75Zm-1.75.75a.75.75 0 1 1 0-1.5.75.75 0 0 1 0 1.5ZM12 5.2V2.5a.5.5 0 0 0-.5-.5h-9a.5.5 0 0 0-.5.5V9c0 .28.22.5.5.5h2.6c-.07.32-.1.66-.1 1H2.5A1.5 1.5 0 0 1 1 9V2.5C1 1.67 1.67 1 2.5 1h9c.83 0 1.5.67 1.5 1.5v3.1c-.32-.16-.65-.3-1-.4Zm3 5.3a4.5 4.5 0 1 1-9 0 4.5 4.5 0 0 1 9 0ZM9.6 7.9a.5.5 0 0 0-.7 0L7.15 9.65a.5.5 0 0 0 0 .7L8.9 12.1a.5.5 0 0 0 .7-.7l-.9-.9h1.55c.97 0 1.75.78 1.75 1.75v.25a.5.5 0 0 0 1 0v-.25a2.75 2.75 0 0 0-2.75-2.75H8.71l.9-.9a.5.5 0 0 0 0-.7Z"/></svg>