<svg width="20" height="20" viewBox="0 0 20 20" xmlns="http://www.w3.org/2000/svg"><path d="M2.85 2.15a.5.5 0 1 0-.7.7l1.4 1.41A2.99 2.99 0 0 0 3 6v6a3 3 0 0 0 3 3h6c.65 0 1.25-.2 1.74-.55l.86.85c-.59.44-1.31.7-2.1.7H5.76A3 3 0 0 0 8 17h4.5c1.06 0 2.04-.37 2.8-.98l1.85 1.83a.5.5 0 0 0 .7-.7l-15-15Zm5.63 7.04a2 2 0 0 0-.9.52L4.29 13A2 2 0 0 1 4 12V6a2 2 0 0 1 .28-1.02l4.2 4.2ZM14 6v5.88l.9.9A3 3 0 0 0 15 12V6a3 3 0 0 0-3-3H6a3 3 0 0 0-.78.1l.9.9H12a2 2 0 0 1 2 2Zm1.8 7.68.76.76c.28-.59.44-1.25.44-1.94V8a3 3 0 0 0-1-2.24v6.74a3.56 3.56 0 0 1-.2 1.18ZM11.5 7.5a1 1 0 1 0 0-2 1 1 0 0 0 0 2Zm-1.8 2.91 3.32 3.31A2 2 0 0 1 12 14H6a2 2 0 0 1-1.02-.28l3.31-3.3a1 1 0 0 1 1.42 0Z"/></svg>