<svg width="16" height="16" viewBox="0 0 16 16" xmlns="http://www.w3.org/2000/svg"><path d="M2.5 1.75a.75.75 0 0 0-1.5 0v4.5c0 .41.34.75.75.75h6c.41 0 .75-.34.75-.75v-4.5a.75.75 0 0 0-1.5 0V5.5H5.5V3.75a.75.75 0 0 0-1.5 0V5.5H2.5V1.75Zm10.5 0a.75.75 0 0 0-1.5 0v10.69l-.72-.72a.75.75 0 1 0-1.06 1.06l2 2c.3.3.77.3 1.06 0l2-2a.75.75 0 1 0-1.06-1.06l-.72.72V1.75ZM5 9c.3 0 .58.19.7.47l2 5a.75.75 0 0 1-1.4.56l-.2-.53H3.9l-.2.53a.75.75 0 0 1-1.4-.56l2-5A.75.75 0 0 1 5 9Zm0 2.77L4.5 13h1L5 11.77Z"/></svg>