<svg width="24" height="24" viewBox="0 0 24 24" xmlns="http://www.w3.org/2000/svg"><path d="M15.84 2.66c-.87-.89-2.3-.9-3.19-.02l-9.6 9.5c-.89.89-.89 2.33 0 3.21l5.1 5c.9.88 2.31.87 3.18-.01l.22-.22a6.45 6.45 0 01-.48-1.65l-.8.81c-.3.3-.77.3-1.06 0l-5.1-5a.75.75 0 010-1.07l1.53-1.51L11 17.07c.04-.6.17-1.2.37-1.75L6.7 10.64l7-6.94c.3-.29.78-.29 1.07.01l4.91 5.01c.29.3.29.76 0 1.05l-1.28 1.3c.58.07 1.14.23 1.66.45l.68-.7c.87-.87.87-2.27.01-3.15l-4.9-5z"/><path d="M19.29 12.3a5.5 5.5 0 11-1.82-.3"/><path d="M17.5 12c.63 0 1.23.1 1.79.3z"/><path d="M17.5 12h-.03z"/></svg>