<svg width="17" height="16" viewBox="0 0 17 16" xmlns="http://www.w3.org/2000/svg"><path d="M4.75 2A2.75 2.75 0 0 0 2 4.75v6a2.75 2.75 0 0 0 2.75 2.75h2.42l.18-.7c.07-.28.17-.55.3-.8h-2.9c-.69 0-1.25-.56-1.25-1.25V5H12v2.38l.63-.63c.26-.26.55-.45.87-.57V4.75A2.75 2.75 0 0 0 10.75 2h-6Zm6.24 6.4a.5.5 0 0 0-.14-.25l-2-2a.5.5 0 0 0-.7.7L9.79 8.5l-1.64 1.65a.5.5 0 0 0 .24.84l2.6-2.6ZM6.85 6.84a.5.5 0 0 0-.7-.7l-2 2a.5.5 0 0 0 0 .7l2 2a.5.5 0 1 0 .7-.7L5.21 8.5l1.64-1.65Zm8.7.6c-.61-.6-1.6-.6-2.21 0l-4.3 4.3c-.35.35-.6.8-.72 1.28l-.3 1.21a.6.6 0 0 0 .73.74l1.22-.3c.48-.12.93-.37 1.29-.73l4.28-4.29c.61-.6.61-1.6 0-2.2Z"/></svg>