<svg width="16" height="16" viewBox="0 0 16 16" xmlns="http://www.w3.org/2000/svg"><path d="M10.67 11.38a.5.5 0 0 1-.05-.05l-.23-.23c-.18.09-.37.15-.55.2-.48.1-1.02.06-1.4-.33-.52-.53-.59-1.36-.29-2.11L7 7.71V11a.5.5 0 0 1-1 0v-.36c-.16.09-.33.17-.5.24-.57.25-1.31.43-2.07.2-1.7-.53-1.92-2.81-.46-3.71a3.9 3.9 0 0 1 2.37-.35c.24.03.46.06.65.1 0-.16-.01-.31-.03-.46L5 5.7a2.74 2.74 0 0 0-1.75.23.5.5 0 0 1-.5-.86l.02-.02a1.93 1.93 0 0 1 .22-.1 3.77 3.77 0 0 1 .99-.27L1.15 1.85a.5.5 0 1 1 .7-.7l13 13a.5.5 0 0 1-.7.7l-3.48-3.47Zm-1.06-1.06-.64-.64c-.01.27.07.48.18.6.04.03.17.1.46.04ZM6 8.14a7.5 7.5 0 0 0-.77-.12c-.67-.08-1.33-.04-1.74.2-.75.47-.61 1.64.23 1.9.44.13.92.04 1.39-.16.35-.14.65-.33.89-.48V8.14Zm8 .41c.18.66-.11 1.6-1.12 2.21l.72.72c1.18-.81 1.66-2.08 1.37-3.19a2.36 2.36 0 0 0-1.38-1.57 2.91 2.91 0 0 0-.6-.19V6.5a.5.5 0 0 0-1-.02c-.28.02-.58.07-.9.15l.1-.83c.66-.07 1.32-.17 1.92-.31a.5.5 0 0 0-.23-.98c-.48.12-1 .2-1.53.26l.14-.67a.5.5 0 1 0-.98-.2l-.19.95c-.44.02-.87.01-1.29-.02a.5.5 0 1 0-.07 1c.4.03.8.04 1.21.03-.05.4-.08.78-.1 1.14-.22.1-.43.22-.61.34l1.62 1.62c-.03-.38-.05-.8-.04-1.27a5.26 5.26 0 0 1 .86-.2 4.28 4.28 0 0 1-.68 1.6l.71.72c.46-.6.82-1.36.98-2.27.1.03.2.06.28.1.44.19.7.52.81.91Z"/></svg>