<svg width="16" height="16" viewBox="0 0 16 16" xmlns="http://www.w3.org/2000/svg"><path d="m11.1 11.8 3.05 3.05a.5.5 0 0 0 .7-.7l-13-13a.5.5 0 1 0-.7.7L3.8 4.5a3.6 3.6 0 0 0-1.4.4.75.75 0 0 0 .72 1.31c.32-.18 1-.3 1.58-.16.28.06.47.18.6.3.05.07.1.14.14.24a9.07 9.07 0 0 0-1.35-.05c-.37.03-.8.1-1.17.29-.6.3-1.05.7-1.29 1.24a2.6 2.6 0 0 0-.11 1.58c.12.6.56 1.4 1.5 1.72.68.24 1.52.2 2.5-.19A.75.75 0 0 0 7 11V7.7l.74.73a2.25 2.25 0 0 0-.15 1.8 2 2 0 0 0 1.3 1.29 3.1 3.1 0 0 0 1.59.07c.16.15.38.23.61.2ZM5.05 8.06c.16.01.3.04.44.06v1.43c-1.07.54-1.68.51-1.98.4a.8.8 0 0 1-.53-.6c-.07-.34-.04-.54.02-.67.05-.13.19-.31.58-.5.13-.07.33-.12.61-.14.27-.02.57-.01.86.02Zm9 1.34c.03.39-.18.98-1.08 1.46l1.09 1.09c1.03-.68 1.56-1.63 1.48-2.66a2.9 2.9 0 0 0-1.8-2.39l.01-.02a2.32 2.32 0 0 0 0-.18v-.03a.75.75 0 0 0-1.47-.14 6 6 0 0 0-1.14-.01c0-.18.02-.36.04-.54a8.42 8.42 0 0 0 2.08-.52.75.75 0 1 0-.54-1.4c-.46.18-.89.3-1.3.37l.06-.28a.75.75 0 1 0-1.47-.3l-.14.69-1.04-.08a.75.75 0 0 0-.16 1.49l1 .08-.05.84-.44.2 2.14 2.14c-.07-.4-.13-.8-.16-1.19.28-.03.59-.03.9 0l-.23.87c-.06.17-.16.35-.32.51l1.07 1.06c.3-.32.55-.7.68-1.15.1-.3.17-.58.23-.83.36.27.53.61.56.92Z"/></svg>