<svg width="20" height="20" viewBox="0 0 20 20" xmlns="http://www.w3.org/2000/svg"><path d="M2.85 2.15a.5.5 0 1 0-.7.7l2.27 2.28a5.1 5.1 0 0 0-1.48.58l-.02.02a.5.5 0 0 0 .56.83 1.44 1.44 0 0 1 .21-.12 3.9 3.9 0 0 1 1.62-.42L7.5 8.2c-.43-.1-.91-.18-1.42-.2a4.57 4.57 0 0 0-3.2 1 2.66 2.66 0 0 0-.81 2.84 2.97 2.97 0 0 0 2.25 2.08c.9.2 1.86-.07 2.64-.4.38-.18.74-.37 1.05-.56v.53a.5.5 0 1 0 1 0V9.7l1.23 1.24c-.4.99-.33 2.08.3 2.74.42.46 1.05.53 1.63.4.28-.07.58-.19.86-.35l4.12 4.11a.5.5 0 0 0 .7-.7l-15-15ZM12.3 13c-.12.05-.24.08-.34.1-.39.1-.6.01-.69-.09-.21-.23-.34-.69-.22-1.26L12.29 13ZM6.04 9c.72.04 1.4.2 1.97.37v2.39c-.35.26-.87.59-1.45.85-.7.3-1.43.47-2.04.35a1.97 1.97 0 0 1-1.5-1.39c-.19-.66-.03-1.35.5-1.79.76-.63 1.65-.81 2.52-.77Zm6.46.74.01.65 1.21 1.21a7.2 7.2 0 0 1-.2-2.38l.13-.04c.46-.12.89-.17 1.28-.16a5.85 5.85 0 0 1-1.1 2.7l.72.7A6.82 6.82 0 0 0 15.9 9.2c.77.26 1.28.8 1.5 1.38.34.94.04 2.25-1.54 3.18l.73.72c1.73-1.12 2.28-2.8 1.74-4.24A3.37 3.37 0 0 0 16 8.17V8a.5.5 0 1 0-1 0v.02c-.43-.01-.88.03-1.35.13.05-.38.13-.8.22-1.25a21.3 21.3 0 0 0 2.24-.41.5.5 0 1 0-.22-.98c-.62.15-1.2.27-1.77.35.1-.38.23-.85.35-1.2a.5.5 0 0 0-.94-.33c-.18.5-.37 1.22-.47 1.65-.5.03-1 .03-1.53 0a.5.5 0 1 0-.06 1c.47.02.92.03 1.36 0-.11.58-.2 1.1-.25 1.56-.44.22-.83.48-1.15.77l.7.7.37-.27Z"/></svg>