<svg width="20" height="20" viewBox="0 0 20 20" xmlns="http://www.w3.org/2000/svg"><path d="m14.5 3.38-.72.72a7 7 0 1 0 1.17 10.85.5.5 0 0 1 .7.7A8 8 0 1 1 14.5 3.39Zm-2.94 2.94.75-.75a5 5 0 1 0 1.23 7.97.5.5 0 1 0-.71-.71 4 4 0 1 1-1.27-6.51Zm4.3-2.17c.19.2.19.5 0 .7l-4.9 4.9a1 1 0 1 1-.7-.72l4.89-4.88c.2-.2.5-.2.7 0ZM17 13.5a.5.5 0 1 1-1 0 .5.5 0 0 1 1 0ZM16.5 7a.5.5 0 1 0 0-1 .5.5 0 0 0 0 1Zm1.5 4.25a.5.5 0 1 1-1 0 .5.5 0 0 1 1 0Zm-.5-2a.5.5 0 1 0 0-1 .5.5 0 0 0 0 1Zm-2.5 2a.5.5 0 1 1-1 0 .5.5 0 0 1 1 0Zm-.5-2a.5.5 0 1 0 0-1 .5.5 0 0 0 0 1Z"/></svg>