<svg width="48" height="48" viewBox="0 0 48 48" xmlns="http://www.w3.org/2000/svg"><path d="M43.63 4.37c.5.48.5 1.28 0 1.76l-4.91 4.92a9.25 9.25 0 0 1-.74 12.24l-3.35 3.34c-.48.5-1.28.5-1.76 0l-11.5-11.5a1.25 1.25 0 0 1 0-1.76l3.34-3.35a9.25 9.25 0 0 1 12.24-.74l4.92-4.91a1.25 1.25 0 0 1 1.76 0Zm-7.6 7.42a6.75 6.75 0 0 0-9.55 0l-2.46 2.46 9.73 9.73 2.46-2.46a6.75 6.75 0 0 0 0-9.54l-.19-.19ZM9.27 36.95l-4.91 4.92a1.25 1.25 0 0 0 1.76 1.76l4.92-4.91a9.25 9.25 0 0 0 12.24-.74l3.34-3.35c.5-.48.5-1.28 0-1.76l-1.36-1.37 3.36-3.37a1.25 1.25 0 0 0-1.76-1.76l-3.37 3.36-5.23-5.23 3.36-3.37a1.25 1.25 0 0 0-1.76-1.76l-3.37 3.36-1.37-1.36a1.25 1.25 0 0 0-1.76 0l-3.35 3.34a9.25 9.25 0 0 0-.74 12.24Zm2.51-10.47 2.46-2.46 9.73 9.73-2.46 2.46a6.75 6.75 0 0 1-9.54 0l-.19-.19a6.75 6.75 0 0 1 0-9.54Z"/></svg>