<svg width="20" height="20" viewBox="0 0 20 20" xmlns="http://www.w3.org/2000/svg"><path d="M2 6a3 3 0 0 1 3-3h8a3 3 0 0 1 3 3v3.2a5.5 5.5 0 0 0-3 0V6.5a.5.5 0 0 0-1 0v3.1a5.5 5.5 0 0 0-2.5 2.6v-1.7a.5.5 0 0 0-1 0v3a.5.5 0 0 0 .52.5 5.5 5.5 0 0 0 .58 3H5a3 3 0 0 1-3-3V6Zm3.5 2a.5.5 0 0 0-.5.5v5a.5.5 0 0 0 1 0v-5a.5.5 0 0 0-.5-.5Zm6.57 3.44a2 2 0 0 1-1.43 2.48l-.47.12a4.7 4.7 0 0 0 .01 1.01l.35.09A2 2 0 0 1 12 17.66l-.13.42c.26.2.54.38.84.52l.32-.35a2 2 0 0 1 2.91 0l.34.36c.3-.13.57-.3.82-.5l-.15-.55a2 2 0 0 1 1.43-2.48l.46-.12a4.73 4.73 0 0 0-.01-1.01l-.35-.09A2 2 0 0 1 17 11.34l.13-.42c-.26-.2-.54-.38-.84-.52l-.32.35a2 2 0 0 1-2.91 0l-.34-.36c-.3.13-.57.3-.82.5l.16.55Zm2.43 4.06a1 1 0 1 1 0-2 1 1 0 0 1 0 2Z"/></svg>