<svg width="24" height="24" viewBox="0 0 24 24" xmlns="http://www.w3.org/2000/svg"><path d="M6.54 5.48a8.46 8.46 0 014.71-1.95v1.72a.75.75 0 001.5 0V3.53a8.5 8.5 0 017.74 7.97h-1.74a.75.75 0 000 1.5h1.7a8.45 8.45 0 01-3.17 5.67.75.75 0 00.94 1.16A9.93 9.93 0 0022 12a10 10 0 10-16.23 7.83.75.75 0 00.96-1.16A8.66 8.66 0 013.56 13h1.69a.75.75 0 000-1.5H3.51c.11-1.88.84-3.6 1.97-4.96l1.24 1.24a.75.75 0 001.06-1.06L6.54 5.48zm10.22 1.15a.65.65 0 00-.8.02l-.23.18a396.1 396.1 0 00-4.21 3.6 37.86 37.86 0 00-1.1 1.05c-.66.8-.52 1.98.3 2.62.83.64 2.03.5 2.68-.3a37.18 37.18 0 00.78-1.3 152.48 152.48 0 002.62-4.85l.13-.24a.61.61 0 00-.17-.78z"/></svg>