<svg width="16" height="16" viewBox="0 0 16 16" xmlns="http://www.w3.org/2000/svg"><path d="M10.5 1.5c0-.28.22-.5.5-.5h3.5a.5.5 0 0 1 .41.79L11.96 6h2.54a.5.5 0 0 1 0 1H11a.5.5 0 0 1-.41-.79L13.54 2H11a.5.5 0 0 1-.5-.5ZM6 5.5c0-.28.22-.5.5-.5H9a.5.5 0 0 1 .38.82L7.57 8H9a.5.5 0 0 1 0 1H6.5a.5.5 0 0 1-.38-.82L7.93 6H6.5a.5.5 0 0 1-.5-.5Zm4.34-.67.97-1.38A4.49 4.49 0 0 0 3.5 6.5v2.4l-.96 2.41A.5.5 0 0 0 3 12h10a.5.5 0 0 0 .46-.69l-.96-2.4V8H11a1.5 1.5 0 0 1-.65-.15A1.5 1.5 0 0 1 9 10H6.5a1.5 1.5 0 0 1-1.15-2.46l.55-.66A1.5 1.5 0 0 1 6.5 4H9c.57 0 1.09.32 1.34.83ZM8 14.5A2 2 0 0 1 6.06 13h3.88A2 2 0 0 1 8 14.5Z"/></svg>