<svg width="16" height="16" viewBox="0 0 16 16" xmlns="http://www.w3.org/2000/svg"><path d="M11 1a.5.5 0 0 0 0 1h2.54l-2.95 4.21A.5.5 0 0 0 11 7h3.5a.5.5 0 1 0 0-1h-2.54l2.95-4.21A.5.5 0 0 0 14.5 1H11ZM6.5 5a.5.5 0 0 0 0 1h1.43L6.12 8.18A.5.5 0 0 0 6.5 9H9a.5.5 0 0 0 0-1H7.57l1.81-2.18A.5.5 0 0 0 9 5H6.5ZM8 3a3.5 3.5 0 0 0-3.5 3.5V9a.5.5 0 0 1-.04.19L3.74 11h8.52l-.72-1.81A.5.5 0 0 1 11.5 9v-.5a.5.5 0 0 1 1 0v.4l.96 2.41A.5.5 0 0 1 13 12h-3a2 2 0 1 1-4 0H3a.5.5 0 0 1-.46-.69l.96-2.4V6.5a4.5 4.5 0 0 1 6.19-4.17.5.5 0 1 1-.38.92C8.91 3.1 8.47 3 8 3Zm-1 9a1 1 0 1 0 2 0H7Z"/></svg>