<svg width="20" height="20" viewBox="0 0 20 20" xmlns="http://www.w3.org/2000/svg"><path d="M9 2a4 4 0 1 0 0 8 4 4 0 0 0 0-8ZM6 6a3 3 0 1 1 6 0 3 3 0 0 1-6 0Zm-2 5a2 2 0 0 0-2 2c0 1.7.83 2.97 2.13 3.8A9.14 9.14 0 0 0 9 18v-1a8.16 8.16 0 0 1-4.33-1.05A3.36 3.36 0 0 1 3 13a1 1 0 0 1 1-1h5.27A2 2 0 0 1 11 11H4Zm10.51 4.93-4.5-2.63c.1-.73.73-1.3 1.49-1.3h6c.83 0 1.5.67 1.5 1.5l-4.49 2.43Zm.23 1.01 4.26-2.3v2.86c0 .83-.67 1.5-1.5 1.5h-6a1.5 1.5 0 0 1-1.5-1.5v-3.05l4.25 2.48c.15.09.33.1.49.01Z"/></svg>