<svg width="24" height="24" viewBox="0 0 24 24" xmlns="http://www.w3.org/2000/svg"><path d="M11 15.5c0-.56.19-1.08.5-1.5H5.25C4.01 14 3 15 3 16.25v.58c0 .89.32 1.75.9 2.43C5.47 21.1 7.85 22 11 22h.05a2.51 2.51 0 0 1-.05-.5v-1c-2.74 0-4.7-.74-5.96-2.21-.34-.4-.54-.93-.54-1.46v-.58c0-.41.34-.75.75-.75H11ZM11 2a5 5 0 1 1 0 10 5 5 0 0 1 0-10Zm0 1.5a3.5 3.5 0 1 0 0 7 3.5 3.5 0 0 0 0-7Zm6.51 15.43-5.5-3.2a2 2 0 0 1 2-1.73H21a2 2 0 0 1 2 1.97l-5.49 2.96Zm.23 1.01L23 17.11V21a2 2 0 0 1-2 2h-7a2 2 0 0 1-2-2v-4.13l5.25 3.06c.15.09.33.1.49.01Z"/></svg>