<svg width="24" height="24" viewBox="0 0 24 24" xmlns="http://www.w3.org/2000/svg"><path d="M2 7.25C2 5.45 3.46 4 5.25 4h13.5C20.55 4 22 5.46 22 7.25V9H3.5v5.75c0 .97.78 1.75 1.75 1.75h8.06c-.2.38-.31.81-.31 1.27v.1a4 4 0 000 .13H5.25A3.25 3.25 0 012 14.75v-7.5zM5.25 5.5c-.97 0-1.75.78-1.75 1.75v.25h17v-.25c0-.97-.78-1.75-1.75-1.75H5.25zm15.75 7a2.5 2.5 0 11-5 0 2.5 2.5 0 015 0zm2 5.38c0 1.55-1.29 3.12-4.5 3.12S14 19.44 14 17.87v-.1c0-.98.8-1.77 1.77-1.77h5.46c.98 0 1.77.8 1.77 1.77v.1z"/></svg>