<svg width="24" height="24" viewBox="0 0 24 24" xmlns="http://www.w3.org/2000/svg"><path d="M19.75 3C20.99 3 22 4 22 5.25v7.56a6.52 6.52 0 0 0-1.5-1.08V5.25a.75.75 0 0 0-.75-.75H4.25a.75.75 0 0 0-.75.75v11.5c0 .42.34.75.75.75H7v-2.75c0-.92.7-1.67 1.6-1.74l.15-.01h4.06c-.43.44-.8.95-1.08 1.5H8.75a.25.25 0 0 0-.24.2l-.01.05v2.75H11c0 .52.06 1.02.18 1.5H4.25C3.01 19 2 18 2 16.75V5.25C2 4.01 3 3 4.25 3h15.5ZM12 6a3 3 0 1 1 0 6 3 3 0 0 1 0-6Zm0 1.5a1.5 1.5 0 1 0 0 3 1.5 1.5 0 0 0 0-3Zm5.5 4.5a5.5 5.5 0 1 1 0 11 5.5 5.5 0 0 1 0-11Zm2 5.5h-2V15a.5.5 0 0 0-1 0v3c0 .28.22.5.5.5h2.5a.5.5 0 0 0 0-1Z"/></svg>