<svg width="28" height="28" viewBox="0 0 28 28" xmlns="http://www.w3.org/2000/svg"><path d="M4.75 4A2.75 2.75 0 0 0 2 6.75v14.5A2.75 2.75 0 0 0 4.75 24h9.12a7.47 7.47 0 0 1 .28-7.5H10a2 2 0 0 0-2 2v4H4.75c-.69 0-1.25-.56-1.25-1.25V6.75c0-.69.56-1.25 1.25-1.25h18.5c.7 0 1.25.56 1.25 1.25v7.4c.55.35 1.06.77 1.5 1.25V6.75A2.75 2.75 0 0 0 23.25 4H4.75Zm12.75 7.5a3.5 3.5 0 1 1-7 0 3.5 3.5 0 0 1 7 0Zm9.5 9a6.5 6.5 0 1 1-13 0 6.5 6.5 0 0 1 13 0Zm-6.5-4a.5.5 0 0 0-.5.5v3.5c0 .28.22.5.5.5h3a.5.5 0 0 0 0-1H21v-3a.5.5 0 0 0-.5-.5Z"/></svg>