<svg width="28" height="28" viewBox="0 0 28 28" xmlns="http://www.w3.org/2000/svg"><path d="M2 6.75A2.75 2.75 0 0 1 4.75 4h18.5A2.75 2.75 0 0 1 26 6.75v8.65c-.44-.48-.95-.9-1.5-1.25v-7.4c0-.69-.56-1.25-1.25-1.25H4.75c-.69 0-1.25.56-1.25 1.25v14.5c0 .69.56 1.25 1.25 1.25H8v-4c0-1.1.9-2 2-2h4.15c-.3.47-.54.97-.72 1.5H10a.5.5 0 0 0-.5.5v4h3.77c.14.53.35 1.03.6 1.5H4.75A2.75 2.75 0 0 1 2 21.25V6.75ZM14 9.5a2 2 0 1 0 0 4 2 2 0 0 0 0-4Zm-3.5 2a3.5 3.5 0 1 1 7 0 3.5 3.5 0 0 1-7 0Zm16.5 9a6.5 6.5 0 1 1-13 0 6.5 6.5 0 0 1 13 0Zm-6.5-4a.5.5 0 0 0-.5.5v3.5c0 .28.22.5.5.5h3a.5.5 0 0 0 0-1H21v-3a.5.5 0 0 0-.5-.5Z"/></svg>