<svg width="24" height="24" viewBox="0 0 24 24" xmlns="http://www.w3.org/2000/svg"><path d="M4 4.75A2.75 2.75 0 016.75 2h10.5A2.75 2.75 0 0120 4.75v.42c0 2.02-1.06 3.89-2.8 4.93l-1.8 1.09a.75.75 0 00-.04 1.26l2.12 1.44A5.75 5.75 0 0120 18.65v.6A2.75 2.75 0 0117.25 22H6.75A2.75 2.75 0 014 19.25v-.6c0-1.9.94-3.69 2.52-4.76l2.12-1.44a.75.75 0 00-.04-1.26L6.8 10.1A5.75 5.75 0 014 5.17v-.42zM6.75 3.5c-.69 0-1.25.56-1.25 1.25v.42c0 1.5.78 2.88 2.06 3.64L9.37 9.9c1.41.84 1.47 2.87.11 3.79l-2.12 1.44a4.25 4.25 0 00-1.86 3.52v.6c0 .69.56 1.25 1.25 1.25h10.5c.69 0 1.25-.56 1.25-1.25v-.6c0-1.41-.7-2.73-1.86-3.52l-2.12-1.44a2.25 2.25 0 01.1-3.79l1.82-1.09a4.25 4.25 0 002.06-3.64v-.42c0-.69-.56-1.25-1.25-1.25H6.75z"/></svg>