<svg width="20" height="20" viewBox="0 0 20 20" xmlns="http://www.w3.org/2000/svg"><path d="M5.92 18c-.25 0-.5-.05-.72-.16-.23-.1-.44-.24-.62-.42A1.88 1.88 0 014 16.08a5.6 5.6 0 01.5-2.3 5.35 5.35 0 011.44-1.88l1.82-1.52a.5.5 0 000-.77L5.94 8.1A5.34 5.34 0 014 3.92c0-.25.05-.5.16-.72.1-.23.24-.44.42-.62A1.88 1.88 0 015.92 2h8.16c.25 0 .5.05.72.16.23.1.44.24.62.42A1.88 1.88 0 0116 3.92a5.3 5.3 0 01-1.94 4.17l-1.82 1.53a.5.5 0 000 .77l1.82 1.5A5.38 5.38 0 0116 16.09c0 .25-.05.5-.16.72-.1.23-.24.44-.42.62a1.88 1.88 0 01-1.34.58H5.92zm8.12-1a.96.96 0 00.68-.28c.1-.1.16-.2.2-.3.04-.12.07-.24.08-.38a4.33 4.33 0 00-1.58-3.37l-1.82-1.52a1.53 1.53 0 01-.54-1.15 1.51 1.51 0 01.54-1.16l1.82-1.51A4.33 4.33 0 0015 3.96a.96.96 0 00-.28-.68.87.87 0 00-.3-.2c-.12-.04-.24-.07-.38-.08H5.96a.98.98 0 00-.37.07.87.87 0 00-.3.21c-.1.1-.17.2-.21.3-.05.12-.07.24-.08.38a4.49 4.49 0 00.9 2.67c.2.25.42.48.68.7L8.4 8.84a1.51 1.51 0 010 2.3l-1.82 1.53A4.31 4.31 0 005 16.04c0 .13.02.26.07.37.05.12.12.22.21.3.1.1.2.16.3.21.12.05.24.07.38.08h8.08z"/></svg>