<svg width="28" height="28" viewBox="0 0 28 28" xmlns="http://www.w3.org/2000/svg"><path d="M14 5c-2.14 0-4.11.75-5.66 2H10a1 1 0 110 2H6a1 1 0 01-1-1.01V4a1 1 0 012 0v1.51a11 11 0 0117.99 8.98 7.48 7.48 0 00-2-1.07A9 9 0 0014 5zm-.58 17.98c.26.73.62 1.4 1.07 2-.16.02-.33.02-.49.02A11 11 0 013.05 12.9a1 1 0 112 .2 9 9 0 008.38 9.88zM15.4 15a7.51 7.51 0 012.04-1.35 1 1 0 00-.94-.65H15V8a1 1 0 10-2 0v6a1 1 0 001 1h1.4zM27 20.5a6.5 6.5 0 11-13 0 6.5 6.5 0 0113 0zm-9.15-3.35a.5.5 0 00-.7.7l2.64 2.65-2.64 2.65a.5.5 0 00.7.7l2.65-2.64 2.65 2.64a.5.5 0 00.7-.7l-2.64-2.65 2.64-2.65a.5.5 0 00-.7-.7l-2.65 2.64-2.65-2.64z"/></svg>