<svg width="28" height="28" viewBox="0 0 28 28" xmlns="http://www.w3.org/2000/svg"><path d="M14 4.5c-2.2 0-4.22.75-5.83 2h1.58a.75.75 0 010 1.5h-3.5a.75.75 0 01-.75-.75v-3.5a.75.75 0 011.5 0v1.76a11 11 0 0117.99 8.98 7.5 7.5 0 00-1.5-.87A9.5 9.5 0 0014 4.5zm-.38 19c.23.53.53 1.03.87 1.49L14 25A11 11 0 013 14c0-.56.04-.86.12-1.35a.75.75 0 011.48.2v.01c-.07.48-.1.69-.1 1.14a9.5 9.5 0 009.12 9.5zM15.4 15a7.51 7.51 0 011.88-1.28.75.75 0 00-.53-.22H14.5V7.75a.75.75 0 00-1.5 0v6.5c0 .41.34.75.75.75h1.65zM27 20.5a6.5 6.5 0 11-13 0 6.5 6.5 0 0113 0zm-9.15-3.35a.5.5 0 00-.7.7l2.64 2.65-2.64 2.65a.5.5 0 00.7.7l2.65-2.64 2.65 2.64a.5.5 0 00.7-.7l-2.64-2.65 2.64-2.65a.5.5 0 00-.7-.7l-2.65 2.64-2.65-2.64z"/></svg>