<svg width="24" height="24" viewBox="0 0 24 24" xmlns="http://www.w3.org/2000/svg"><path d="M4.5 12a7.5 7.5 0 006.8 7.47c.18.54.42 1.06.72 1.53H12a9 9 0 01-8.9-10.38.75.75 0 01.76-.62c.46 0 .79.44.72.9-.05.35-.08.72-.08 1.1zm8.31 1a6.52 6.52 0 011.88-1.36.75.75 0 00-.44-.14H12.5V7.75a.75.75 0 00-1.5 0v4.5c0 .41.34.75.75.75h1.06zm8.19-.98c-.47-.3-.99-.54-1.53-.72A7.5 7.5 0 006.9 6.5h1.35a.75.75 0 010 1.5h-3a.75.75 0 01-.75-.75v-3a.75.75 0 011.5 0v1.04A9 9 0 0121 12v.03zm2 5.48a5.5 5.5 0 11-11 0 5.5 5.5 0 0111 0zm-7.15-2.35a.5.5 0 00-.7.7l1.64 1.65-1.64 1.65a.5.5 0 00.7.7l1.65-1.64 1.65 1.64a.5.5 0 00.7-.7l-1.64-1.65 1.64-1.65a.5.5 0 00-.7-.7l-1.65 1.64-1.65-1.64z"/></svg>