<svg width="48" height="48" viewBox="0 0 48 48" xmlns="http://www.w3.org/2000/svg"><path d="M9 24a15 15 0 0013.6 14.94c.35 1.09.84 2.12 1.44 3.06H24A18 18 0 016.07 22.45c.07-.84.8-1.45 1.64-1.45.82 0 1.43.75 1.36 1.57-.05.47-.07.95-.07 1.43zm17.7 1a13 13 0 013.22-1.97A1.5 1.5 0 0028.5 22H25v-6.5a1.5 1.5 0 00-3 0v8c0 .83.67 1.5 1.5 1.5h3.2zm15.3-.96c-.94-.6-1.97-1.09-3.06-1.43a15 15 0 00-25.4-9.36h3.21a1.5 1.5 0 010 3h-6.5a1.5 1.5 0 01-1.5-1.5v-6.5a1.5 1.5 0 113 0v2.56A18 18 0 0142 24v.04zM46 35a11 11 0 11-22 0 11 11 0 0122 0zm-5.3-4.3a1 1 0 00-1.4-1.4L35 33.58l-4.3-4.3a1 1 0 00-1.4 1.42L33.58 35l-4.3 4.3a1 1 0 001.42 1.4L35 36.42l4.3 4.3a1 1 0 001.4-1.42L36.42 35l4.3-4.3z"/></svg>