<svg width="32" height="32" viewBox="0 0 32 32" xmlns="http://www.w3.org/2000/svg"><path d="M16 5a11 11 0 0110.95 9.9c.74.37 1.43.84 2.05 1.39V16A13 13 0 007 6.62V4.5a1 1 0 00-2 0V9a1 1 0 001 1h5a1 1 0 100-2H8.45c1.97-1.86 4.63-3 7.55-3zm3 9a1 1 0 01.9.55c-.94.34-1.8.84-2.56 1.45H16a1 1 0 01-1-1V9a1 1 0 112 0v5h2zm-4.1 12.95c.37.74.84 1.43 1.39 2.05H16A13 13 0 013.05 14.84.94.94 0 014 14c.61 0 1.08.56 1.03 1.17a11 11 0 009.88 11.77zM23 15.5a7.5 7.5 0 110 15 7.5 7.5 0 010-15zm2.72 3.72L23 21.94l-2.72-2.72a.75.75 0 10-1.06 1.06L21.94 23l-2.72 2.72a.75.75 0 101.06 1.06L23 24.06l2.72 2.72a.75.75 0 101.06-1.06L24.06 23l2.72-2.72a.75.75 0 10-1.06-1.06z"/></svg>