<svg width="48" height="48" viewBox="0 0 48 48" xmlns="http://www.w3.org/2000/svg"><path d="M8.5 24a15.5 15.5 0 0 0 14.28 15.45c.33.9.76 1.76 1.26 2.55H24A18 18 0 0 1 6.1 22.15 1.3 1.3 0 0 1 7.4 21c.72 0 1.26.66 1.18 1.37-.05.53-.08 1.08-.08 1.63Zm18.2 1a13 13 0 0 1 3.1-1.92 1.25 1.25 0 0 0-1.05-.58H25v-7.25a1.25 1.25 0 1 0-2.5 0v8.5c0 .69.56 1.25 1.25 1.25h2.94Zm15.3-.96c-.8-.5-1.65-.93-2.55-1.26A15.5 15.5 0 0 0 12.6 13.5h4.15a1.25 1.25 0 1 1 0 2.5h-6.5C9.56 16 9 15.44 9 14.75v-6.5a1.25 1.25 0 1 1 2.5 0v2.8A18 18 0 0 1 42 24v.04ZM46 35a11 11 0 1 1-22 0 11 11 0 0 1 22 0Zm-5.3-4.3a1 1 0 0 0-1.4-1.4L35 33.58l-4.3-4.3a1 1 0 0 0-1.4 1.42L33.58 35l-4.3 4.3a1 1 0 0 0 1.42 1.4L35 36.42l4.3 4.3a1 1 0 0 0 1.4-1.42L36.42 35l4.3-4.3Z"/></svg>