<svg width="32" height="32" viewBox="0 0 32 32" xmlns="http://www.w3.org/2000/svg"><path d="M16 5a11 11 0 0110.95 9.9c.95.47 1.8 1.1 2.53 1.85l.02-.75a13.5 13.5 0 00-22-10.49v-.76a1.25 1.25 0 10-2.5 0v4.5c0 .69.56 1.25 1.25 1.25h4.5a1.25 1.25 0 100-2.5h-2.3c1.97-1.86 4.63-3 7.55-3zm1.34 11a8.97 8.97 0 013.55-1.75c-.19-.44-.63-.75-1.14-.75H17.5V9.25a1.25 1.25 0 10-2.5 0v5.5c0 .69.56 1.25 1.25 1.25h1.1zm-.59 13.48a9.03 9.03 0 01-1.84-2.53A11 11 0 015 15.35c.05-.7-.48-1.35-1.19-1.35-.67 0-1.25.5-1.3 1.17L2.5 16a13.5 13.5 0 0014.25 13.48zM23 15.5a7.5 7.5 0 110 15 7.5 7.5 0 010-15zm2.72 3.72L23 21.94l-2.72-2.72a.75.75 0 10-1.06 1.06L21.94 23l-2.72 2.72a.75.75 0 101.06 1.06L23 24.06l2.72 2.72a.75.75 0 101.06-1.06L24.06 23l2.72-2.72a.75.75 0 10-1.06-1.06z"/></svg>