<svg width="20" height="20" viewBox="0 0 20 20" xmlns="http://www.w3.org/2000/svg"><path d="M6.5 2c.28 0 .5.22.5.5V3h3.5c.28 0 .5.22.5.5v1a.5.5 0 01-1 0V4H3v.5a.5.5 0 01-1 0v-1c0-.28.22-.5.5-.5H6v-.5c0-.28.22-.5.5-.5zm7.39 11.81a.5.5 0 10-.78-.62l-3.65 4.56L7.6 15.9a.5.5 0 00-.7.7l2.25 2.25a.5.5 0 00.74-.04l4-5zM4.5 5a.5.5 0 000 1h2.96L6.11 7.69A.5.5 0 006 8H2.5a.5.5 0 000 1H6v2.62a.38.38 0 01-.62.3l-.06-.05a.5.5 0 00-.64.76l.05.05A1.38 1.38 0 007 11.62V9h3.5a.5.5 0 000-1H7.14l1.75-2.19A.5.5 0 008.5 5h-4zm10.47-1.68a.5.5 0 00-.94 0l-3 8a.5.5 0 00.94.36l1-2.68H16.03l1 2.68a.5.5 0 00.94-.36l-3-8zm-.47 1.6L15.65 8h-2.3l1.15-3.08z"/></svg>