<svg width="20" height="20" viewBox="0 0 20 20" xmlns="http://www.w3.org/2000/svg"><path d="M5.75 1c.41 0 .75.34.75.75v.75h3.25c.41 0 .75.34.75.75v1a.75.75 0 0 1-1.5 0V4H2.5v.25a.75.75 0 0 1-1.5 0v-1c0-.41.34-.75.75-.75H5v-.75c0-.41.34-.75.75-.75Zm8.34 12.72a.75.75 0 0 0-1.18-.94l-3.47 4.35-1.66-1.66a.75.75 0 0 0-1.06 1.06l2.25 2.25a.75.75 0 0 0 1.12-.06l4-5ZM3 5.75c0-.41.34-.75.75-.75h4a.75.75 0 0 1 .53 1.28L6.56 8h3.19a.75.75 0 0 1 0 1.5H6.5v1.83a1.67 1.67 0 0 1-2.74 1.28l-.04-.03a.75.75 0 0 1 .96-1.16l.04.04a.17.17 0 0 0 .28-.13V9.5H1.75a.75.75 0 0 1 0-1.5H5v-.25c0-.2.08-.39.22-.53l.72-.72H3.75A.75.75 0 0 1 3 5.75Zm12.7-2.78a.75.75 0 0 0-1.4 0l-3.24 8a.75.75 0 0 0 1.38.56l.83-2.03h3.46l.83 2.03a.75.75 0 0 0 1.38-.56l-3.25-8ZM15 5.24 16.12 8h-2.24L15 5.24Z"/></svg>