<svg width="28" height="28" viewBox="0 0 28 28" xmlns="http://www.w3.org/2000/svg"><path d="M6.75 3A3.75 3.75 0 0 0 3 6.75v7.5A3.75 3.75 0 0 0 6.75 18h7.42a3 3 0 1 0-.13-1.5H6.75c-1.24 0-2.25-1-2.25-2.25v-7.5c0-1.24 1-2.25 2.25-2.25h7.5c1.24 0 2.25 1 2.25 2.25v.5a.75.75 0 0 0 1.5 0v-.5A3.75 3.75 0 0 0 14.25 3h-7.5Zm7.08 7a3 3 0 1 0 .13 1.5h7.29c1.24 0 2.25 1 2.25 2.25v7.5c0 1.24-1 2.25-2.25 2.25h-7.5c-1.24 0-2.25-1-2.25-2.25v-.5a.75.75 0 0 0-1.5 0v.5A3.75 3.75 0 0 0 13.75 25h7.5A3.75 3.75 0 0 0 25 21.25v-7.5A3.75 3.75 0 0 0 21.25 10h-7.42Z"/></svg>