<svg width="24" height="24" viewBox="0 0 24 24" xmlns="http://www.w3.org/2000/svg"><path d="M3 6.25C3 4.45 4.46 3 6.25 3h6c1.8 0 3.25 1.46 3.25 3.25a.75.75 0 0 1-1.5 0c0-.97-.78-1.75-1.75-1.75h-6c-.97 0-1.75.78-1.75 1.75v6c0 .97.78 1.75 1.75 1.75h5.85a2.75 2.75 0 1 1 0 1.5H6.25A3.25 3.25 0 0 1 3 12.25v-6Zm10.5 8.5a1.25 1.25 0 1 0 2.5 0 1.25 1.25 0 0 0-2.5 0ZM17.75 10c.97 0 1.75.78 1.75 1.75v6c0 .97-.78 1.75-1.75 1.75h-6c-.97 0-1.75-.78-1.75-1.75a.75.75 0 0 0-1.5 0c0 1.8 1.46 3.25 3.25 3.25h6c1.8 0 3.25-1.46 3.25-3.25v-6c0-1.8-1.46-3.25-3.25-3.25H11.9a2.75 2.75 0 1 0 0 1.5h5.85Zm-8.5-2a1.25 1.25 0 1 1 0 2.5 1.25 1.25 0 0 1 0-2.5Z"/></svg>