<svg width="32" height="32" viewBox="0 0 32 32" xmlns="http://www.w3.org/2000/svg"><path d="M2 16a14 14 0 1128 0 14 14 0 01-28 0zm12.38 3.16a7.67 7.67 0 012.14-1.71l.4-.24c.73-.43 1.54-.92 2.17-1.51a4.2 4.2 0 001.4-3.2A4.5 4.5 0 0016 8c-1.36 0-2.44.55-3.15 1.07a6.2 6.2 0 00-1.14 1.08 1 1 0 001.6 1.2 1.47 1.47 0 01.16-.18c.13-.13.32-.3.56-.49A3.36 3.36 0 0116 10a2.5 2.5 0 012.5 2.5c0 .77-.29 1.28-.78 1.74-.46.43-1.04.78-1.76 1.21l-.48.29c-.89.54-1.9 1.2-2.67 2.19A6.34 6.34 0 0011.5 22a1 1 0 001 1h7a1 1 0 100-2h-5.92c.14-.78.43-1.37.8-1.84z"/></svg>