<svg width="20" height="20" viewBox="0 0 20 20" xmlns="http://www.w3.org/2000/svg"><path d="M2 10a8 8 0 1116 0 8 8 0 01-16 0zm6.4-2.7a.96.96 0 01.1-.11c.07-.08.18-.18.33-.29A2 2 0 0110 6.5c.83 0 1.5.67 1.5 1.5 0 .46-.17.78-.47 1.06-.27.26-.61.47-1.03.72l-.27.17c-.5.32-1.07.7-1.5 1.26a3.6 3.6 0 00-.73 2.29c0 .28.22.5.5.5h4a.5.5 0 000-1H8.53c.08-.5.26-.88.49-1.18.32-.4.75-.71 1.25-1.02l.23-.15c.41-.25.87-.53 1.22-.87.45-.43.78-1 .78-1.78A2.5 2.5 0 0010 5.5c-.76 0-1.36.3-1.76.6a3.47 3.47 0 00-.64.6.5.5 0 00.8.6z"/></svg>