<svg width="24" height="24" viewBox="0 0 24 24" xmlns="http://www.w3.org/2000/svg"><path d="M22 12a10 10 0 11-20 0 10 10 0 0120 0zM10.35 8.95a1.07 1.07 0 01.11-.13c.1-.09.22-.21.4-.34.34-.25.82-.48 1.39-.48.97 0 1.75.78 1.75 1.75 0 .53-.2.86-.53 1.16-.32.28-.72.5-1.24.78l-.34.18a6.4 6.4 0 00-1.94 1.48 4.38 4.38 0 00-.95 2.9c0 .41.34.75.75.75h5a.75.75 0 000-1.5h-4.18c.1-.52.3-.9.54-1.2.37-.45.88-.77 1.5-1.11l.29-.16c.51-.27 1.1-.6 1.57-1a2.9 2.9 0 001.03-2.28c0-1.8-1.46-3.25-3.25-3.25-.99 0-1.76.4-2.28.77a4.46 4.46 0 00-.82.78.75.75 0 001.2.9zm0 0z"/></svg>