<svg width="28" height="28" viewBox="0 0 28 28" xmlns="http://www.w3.org/2000/svg"><path d="M3.5 14a10.5 10.5 0 1121 0 10.5 10.5 0 01-21 0zM14 2a12 12 0 100 24 12 12 0 000-24zm-3.7 7.98c.33.24.8.18 1.05-.15a1.74 1.74 0 01.17-.19c.12-.13.3-.3.54-.47A3.3 3.3 0 0114 8.5a2.5 2.5 0 012.5 2.5c0 .77-.29 1.24-.75 1.63-.44.37-.99.65-1.66 1l-.44.22c-.82.43-1.75.96-2.46 1.8a5.35 5.35 0 00-1.19 3.6c0 .41.34.75.75.75h6.5a.75.75 0 000-1.5h-5.7c.1-.84.4-1.43.79-1.88.5-.6 1.2-1.02 2-1.44l.38-.2c.67-.33 1.42-.71 2-1.2A3.46 3.46 0 0018 11a4 4 0 00-4-4 4.8 4.8 0 00-2.83.96 5.58 5.58 0 00-1.02.96c-.25.34-.18.8.15 1.06z"/></svg>