<svg width="24" height="24" viewBox="0 0 24 24" xmlns="http://www.w3.org/2000/svg"><path d="M3.5 12a8.5 8.5 0 1117 0 8.5 8.5 0 01-17 0zM12 2a10 10 0 100 20 10 10 0 000-20zm-1.65 6.95a.75.75 0 01-1.2-.9 2.14 2.14 0 01.23-.26c.14-.15.34-.33.6-.52a3.86 3.86 0 012.27-.77c1.8 0 3.25 1.46 3.25 3.25a2.9 2.9 0 01-1.03 2.28c-.47.4-1.06.73-1.57 1l-.29.16c-.62.34-1.13.66-1.5 1.11-.24.3-.45.68-.54 1.2h4.18a.75.75 0 010 1.5h-5a.75.75 0 01-.75-.75c0-1.25.36-2.18.95-2.9a6.4 6.4 0 011.94-1.48l.34-.18c.52-.28.92-.5 1.24-.78.34-.3.53-.63.53-1.16C14 8.78 13.22 8 12.25 8c-.57 0-1.05.23-1.4.48a2.96 2.96 0 00-.5.47z"/></svg>