<svg width="28" height="28" viewBox="0 0 28 28" xmlns="http://www.w3.org/2000/svg"><path d="M3.5 12a7.5 7.5 0 1 1 3.9 6.59.75.75 0 0 0-.54-.07l-3.26.87.88-3.25a.75.75 0 0 0-.07-.55A7.46 7.46 0 0 1 3.5 12ZM11 3a9 9 0 0 0-8.05 13.03l-.9 3.4c-.26.92.6 1.77 1.52 1.52l3.4-.9A9 9 0 1 0 11 3Zm6 22a8.98 8.98 0 0 1-6.73-3.03 10.08 10.08 0 0 0 2.1-.06 7.47 7.47 0 0 0 8.22.68c.17-.1.37-.12.55-.07l3.25.87-.87-3.25a.75.75 0 0 1 .07-.55 7.5 7.5 0 0 0-2.91-10.12 9.93 9.93 0 0 0-.75-1.98 9 9 0 0 1 5.12 12.54l.9 3.4c.25.92-.6 1.77-1.52 1.52l-3.4-.9A8.97 8.97 0 0 1 17 25Z"/></svg>