<svg width="32" height="32" viewBox="0 0 32 32" xmlns="http://www.w3.org/2000/svg"><path d="M9.5 21.5a1 1 0 001-1v-6.09l1.3 1.3a1 1 0 001.4-1.42l-3-3a1 1 0 00-1.4 0l-3 3a1 1 0 101.4 1.42l1.3-1.3v6.09a1 1 0 001 1zm14-9.5a1 1 0 10-2 0v6.09l-1.3-1.3a1 1 0 00-1.4 1.42l3 3a1 1 0 001.4 0l3-3a1 1 0 00-1.4-1.42l-1.3 1.3V12zm-17-8A4.5 4.5 0 002 8.5v15A4.5 4.5 0 006.5 28h19a4.5 4.5 0 004.5-4.5v-15A4.5 4.5 0 0025.5 4h-19zM4 8.5A2.5 2.5 0 016.5 6H15v20H6.5A2.5 2.5 0 014 23.5v-15zM17 26V6h8.5A2.5 2.5 0 0128 8.5v15a2.5 2.5 0 01-2.5 2.5H17z"/></svg>