<svg width="48" height="48" viewBox="0 0 48 48" xmlns="http://www.w3.org/2000/svg"><path d="M10.25 8A6.25 6.25 0 0 0 4 14.25v19.5C4 37.2 6.8 40 10.25 40h27.5C41.2 40 44 37.2 44 33.75v-19.5C44 10.8 41.2 8 37.75 8h-27.5Zm12.5 2.5v27h-12.5a3.75 3.75 0 0 1-3.75-3.75v-19.5a3.75 3.75 0 0 1 3.75-3.75h12.5Zm2.5 27v-27h12.5a3.75 3.75 0 0 1 3.75 3.75v19.5a3.75 3.75 0 0 1-3.75 3.75h-12.5Zm13.13-11.12-4.25 4.25c-.48.5-1.28.5-1.76 0l-4.25-4.25a1.25 1.25 0 0 1 1.76-1.76L32 26.73v-8.48a1.25 1.25 0 1 1 2.5 0v8.48l2.12-2.11a1.25 1.25 0 0 1 1.76 1.76Zm-24.51-9.01a1.25 1.25 0 0 1 1.76 0l4.25 4.25a1.25 1.25 0 0 1-1.76 1.76L16 21.27v8.48a1.25 1.25 0 1 1-2.5 0v-8.48l-2.12 2.11a1.25 1.25 0 0 1-1.76-1.76l4.25-4.25Z"/></svg>