<svg width="24" height="24" viewBox="0 0 24 24" xmlns="http://www.w3.org/2000/svg"><path d="M12.75 20h6c1.8 0 3.25-1.46 3.25-3.25v-9.5C22 5.45 20.54 4 18.75 4h-6v16zm3.97-5.22l-1.75-1.75a.75.75 0 111.06-1.06l.47.47V9.5a.75.75 0 011.5 0v2.94l.47-.47a.75.75 0 111.06 1.06l-1.75 1.75c-.3.3-.77.3-1.06 0zM11.25 4h-6A3.25 3.25 0 002 7.25v9.5C2 18.55 3.46 20 5.25 20h6V4zM7.28 8.97l1.75 1.75a.75.75 0 11-1.06 1.06l-.47-.47v2.94a.75.75 0 01-1.5 0v-2.94l-.47.47a.75.75 0 01-1.06-1.06l1.75-1.75c.3-.3.77-.3 1.06 0z"/></svg>