<svg width="24" height="24" viewBox="0 0 24 24" xmlns="http://www.w3.org/2000/svg"><path d="M23 6.5a5.5 5.5 0 11-11 0 5.5 5.5 0 0111 0zm-2.15-2.35a.5.5 0 00-.7 0L16.5 7.79l-1.65-1.64a.5.5 0 00-.7.7l2 2c.2.2.5.2.7 0l4-4a.5.5 0 000-.7zm-.35 11.6v-3.48a6.52 6.52 0 001.5-1.08v4.56c0 1.2-.93 2.17-2.1 2.25h-4.4v2.5h1.75a.75.75 0 01.1 1.5H6.75a.75.75 0 01-.1-1.5H8.5V18H4.25c-1.2 0-2.17-.92-2.24-2.1L2 15.76V5.25c0-1.2.93-2.17 2.1-2.25h7.92c-.3.46-.53.97-.7 1.5H4.24c-.38 0-.7.28-.74.65l-.01.1v10.5c0 .38.28.7.65.74l.1.01h15.5c.38 0 .7-.28.74-.65v-.1zM14 18h-4v2.5h4V18z"/></svg>