<svg width="24" height="24" viewBox="0 0 24 24" xmlns="http://www.w3.org/2000/svg"><path d="M2 6.25C2 5.01 3 4 4.25 4h15.5C20.99 4 22 5 22 6.25v11.5c0 1.24-1 2.25-2.25 2.25H4.25C3.01 20 2 19 2 17.75V6.25zm2.25-.75a.75.75 0 00-.75.75v11.5c0 .41.34.75.75.75h15.5c.41 0 .75-.34.75-.75V6.25a.75.75 0 00-.75-.75H4.25zM7 16a1 1 0 11-2 0 1 1 0 012 0zm-2-3.25c0-.41.33-.75.75-.75 2.34 0 4.24 1.9 4.24 4.25a.75.75 0 01-1.5 0 2.75 2.75 0 00-2.74-2.75.75.75 0 01-.75-.75zm0-3c0-.42.33-.76.75-.76 4 0 7.25 3.25 7.25 7.26a.75.75 0 01-1.5 0 5.75 5.75 0 00-5.75-5.76.75.75 0 01-.75-.75z"/></svg>