<svg width="24" height="24" viewBox="0 0 24 24" xmlns="http://www.w3.org/2000/svg"><path d="M6.5 12a5.5 5.5 0 1 0 0 11 5.5 5.5 0 0 0 0-11Zm.78 2.59.07.06 2.52 2.51.04.05.04.08.02.06.02.08v.11l-.01.09-.03.08-.03.06-.05.07-2.52 2.51a.5.5 0 0 1-.76-.63l.05-.07L8.3 18H3.5a.5.5 0 0 1-.5-.41v-.09a.5.5 0 0 1 .41-.5h4.88l-1.65-1.65a.5.5 0 0 1-.05-.63l.05-.07a.5.5 0 0 1 .64-.06Zm5.7 2.41H21.12a1 1 0 0 1-.12 2h-8.17a6.52 6.52 0 0 0 .15-2Zm-.48-2H21a1 1 0 0 0 .12-2h-9.93c.55.58 1 1.25 1.31 2Zm8.5-4a1 1 0 0 0 .12-2H3a1 1 0 0 0-.12 2H21ZM3 5h18.12A1 1 0 0 1 21 7H2.88A1 1 0 0 1 3 5Z"/></svg>