<svg width="20" height="20" viewBox="0 0 20 20" xmlns="http://www.w3.org/2000/svg"><path d="M3.5 3a.5.5 0 0 0-.5.5v4a.5.5 0 0 0 1 0V4.7l3.15 3.15a.5.5 0 1 0 .7-.7L4.71 4H7.5a.5.5 0 0 0 0-1h-4Zm0 14a.5.5 0 0 1-.5-.5v-4a.5.5 0 0 1 1 0v2.8l3.15-3.15a.5.5 0 0 1 .7.7L4.71 16H7.5a.5.5 0 0 1 0 1h-4ZM17 3.5a.5.5 0 0 0-.5-.5h-4a.5.5 0 0 0 0 1h2.8l-3.15 3.15a.5.5 0 0 0 .7.7L16 4.71V7.5a.5.5 0 0 0 1 0v-4ZM16.5 17a.5.5 0 0 0 .5-.5v-4a.5.5 0 0 0-1 0v2.8l-3.15-3.15a.5.5 0 0 0-.7.7L15.29 16H12.5a.5.5 0 0 0 0 1h4Z"/></svg>