<svg width="24" height="24" viewBox="0 0 24 24" xmlns="http://www.w3.org/2000/svg"><path d="M7.67 14.92a1 1 0 0 1 1.41 1.42L6.41 19H8a1 1 0 0 1 1 .89V20a1 1 0 0 1-1 1H4a1 1 0 0 1-1-1v-4a1 1 0 1 1 2 0v1.6l2.67-2.68ZM16 21a1 1 0 1 1 0-2h1.59l-2.67-2.66a1 1 0 0 1-.08-1.32l.08-.1a1 1 0 0 1 1.42 0L19 17.6V16a1 1 0 0 1 .89-.99H20a1 1 0 0 1 1 1v4a1 1 0 0 1-1 1h-4ZM8 3a1 1 0 0 1 0 2H6.42l2.66 2.67a1 1 0 0 1 .09 1.32l-.09.1a1 1 0 0 1-1.41 0L5 6.4V8a1 1 0 0 1-.88 1H4a1 1 0 0 1-1-1V4a1 1 0 0 1 1-1h4Zm12 0a1 1 0 0 1 1 1v4a1 1 0 1 1-2 0V6.41l-2.66 2.67a1 1 0 0 1-1.32.09l-.1-.09a1 1 0 0 1 0-1.41L17.6 5H16a1 1 0 0 1-.99-.88V4a1 1 0 0 1 1-1h4Z"/></svg>