<svg width="24" height="24" viewBox="0 0 24 24" xmlns="http://www.w3.org/2000/svg"><path d="M8.08 6.88A4.07 4.07 0 0111.98 4a4 4 0 11.03 8H2.74a.75.75 0 010-1.5H12a2.5 2.5 0 10-.03-5c-1.13 0-2.13.74-2.46 1.82l-.04.15a.75.75 0 11-1.44-.44l.05-.15zm8.2 5.13a2.93 2.93 0 015.71.92V13a3 3 0 01-2.99 3h-1.3a2.75 2.75 0 01-2.45 4h-.13c-.97 0-1.86-.55-2.29-1.41a.75.75 0 011.34-.67c.18.35.55.58.95.58h.13a1.25 1.25 0 100-2.5H2.75a.75.75 0 010-1.5H19c.83 0 1.5-.67 1.5-1.5v-.07a1.43 1.43 0 00-2.79-.44.75.75 0 01-1.42-.48z"/></svg>