<svg width="24" height="24" viewBox="0 0 24 24" xmlns="http://www.w3.org/2000/svg"><path d="M7.75 6.19a4.3 4.3 0 0 1 3.98-2.69 4.25 4.25 0 1 1 .02 8.5H3a1 1 0 1 1 0-2h8.75a2.25 2.25 0 1 0-.02-4.5A2.3 2.3 0 0 0 9.6 6.93l-.17.44a1 1 0 0 1-1.86-.74l.18-.44Zm8.05 5.5a3.18 3.18 0 0 1 6.2 1v.06c0 1.8-1.46 3.25-3.25 3.25h-1c.16.38.25.8.25 1.25v.07a3.18 3.18 0 0 1-6.2 1 1 1 0 0 1 1.9-.64 1.18 1.18 0 0 0 2.3-.36v-.07c0-.69-.56-1.25-1.25-1.25H3a1 1 0 1 1 0-2h15.75c.69 0 1.25-.56 1.25-1.25v-.07a1.18 1.18 0 0 0-2.3-.36 1 1 0 0 1-1.9-.64Z"/></svg>