<svg width="20" height="20" viewBox="0 0 20 20" xmlns="http://www.w3.org/2000/svg"><path d="M6 9.5a.5.5 0 1 0 0-1 .5.5 0 0 0 0 1ZM8.5 9a.5.5 0 1 1-1 0 .5.5 0 0 1 1 0ZM7 11.5a.5.5 0 1 0 0-1 .5.5 0 0 0 0 1Zm2.5-.5a.5.5 0 1 1-1 0 .5.5 0 0 1 1 0Zm1.5.5a.5.5 0 1 0 0-1 .5.5 0 0 0 0 1Zm2.5-.5a.5.5 0 1 1-1 0 .5.5 0 0 1 1 0ZM10 9.5a.5.5 0 1 0 0-1 .5.5 0 0 0 0 1Zm2.5-.5a.5.5 0 1 1-1 0 .5.5 0 0 1 1 0Zm1.5.5a.5.5 0 1 0 0-1 .5.5 0 0 0 0 1ZM4.77 6a2.5 2.5 0 0 0-2.44 3.07l.7 3A2.5 2.5 0 0 0 5.47 14h9.06a2.5 2.5 0 0 0 2.43-1.93l.7-3A2.5 2.5 0 0 0 15.23 6H4.77ZM3.3 8.84A1.5 1.5 0 0 1 4.77 7h10.46c.97 0 1.68.9 1.46 1.84l-.7 3A1.5 1.5 0 0 1 14.53 13H5.47c-.7 0-1.3-.48-1.46-1.16l-.7-3Z"/></svg>