<svg width="16" height="16" viewBox="0 0 16 16" xmlns="http://www.w3.org/2000/svg"><path d="M5 8a.5.5 0 100-1 .5.5 0 000 1zm1.5 1.5a.5.5 0 11-1 0 .5.5 0 011 0zM8 10a.5.5 0 100-1 .5.5 0 000 1zm2.5-.5a.5.5 0 11-1 0 .5.5 0 011 0zM7 8a.5.5 0 100-1 .5.5 0 000 1zm2.5-.5a.5.5 0 11-1 0 .5.5 0 011 0zM11 8a.5.5 0 100-1 .5.5 0 000 1zM3.02 5a2 2 0 00-1.94 2.47l.72 3A2 2 0 003.75 12h8.52a2 2 0 001.94-1.53l.73-3A2 2 0 0012.99 5H3.02zm-.97 2.23A1 1 0 013.02 6H13a1 1 0 01.97 1.24l-.72 3a1 1 0 01-.97.76H3.75a1 1 0 01-.98-.77l-.72-3z"/></svg>