<svg width="24" height="24" viewBox="0 0 24 24" xmlns="http://www.w3.org/2000/svg"><path d="M2.23 10.39a2.75 2.75 0 0 1 2.68-3.4h14.18a2.75 2.75 0 0 1 2.68 3.4l-1.08 4.5A2.75 2.75 0 0 1 18.02 17H5.98a2.75 2.75 0 0 1-2.68-2.11l-1.07-4.5ZM7 11.5A.75.75 0 1 0 7 10a.75.75 0 0 0 0 1.5Zm3.25-.75a.75.75 0 1 0-1.5 0 .75.75 0 0 0 1.5 0Zm-2 3.25a.75.75 0 1 0 0-1.5.75.75 0 0 0 0 1.5Zm3.25-.75a.75.75 0 1 0-1.5 0 .75.75 0 0 0 1.5 0Zm1.75.75a.75.75 0 1 0 0-1.5.75.75 0 0 0 0 1.5Zm3.25-.75a.75.75 0 1 0-1.5 0 .75.75 0 0 0 1.5 0ZM12 11.5a.75.75 0 1 0 0-1.5.75.75 0 0 0 0 1.5Zm3.25-.75a.75.75 0 1 0-1.5 0 .75.75 0 0 0 1.5 0Zm1.75.75a.75.75 0 1 0 0-1.5.75.75 0 0 0 0 1.5Z"/></svg>