<svg width="16" height="16" viewBox="0 0 16 16" xmlns="http://www.w3.org/2000/svg"><path d="M9.49 3.52a2.83 2.83 0 0 0-.2.19.75.75 0 0 1-1.07-1.06l.02-.02a2.16 2.16 0 0 1 .66-.5c.7-.27 1.4-.12 1.92.27.24.16.39.36.49.52l.11.19.02.02.06.11 1.03-1.02a.75.75 0 0 1 1.06 1.06l-1.35 1.35.09.15.2.32.06.1a2.74 2.74 0 0 0 .13.2l.02.02.1.07a.16.16 0 0 0 .12 0 .75.75 0 0 1 .08-.05 2.72 2.72 0 0 0 .22-.2.75.75 0 0 1 1.06 1.07l-.02.02c-.15.15-.3.3-.55.43-.5.31-1.38.41-2.07-.28a2.66 2.66 0 0 1-.36-.49l-.1-.16-.07-.11-1.06 1.06a.75.75 0 0 1-1.06-1.06l1.37-1.37a8.05 8.05 0 0 1-.26-.47l-.02-.02-.08-.14c-.04-.07-.06-.08-.07-.09a.75.75 0 0 1-.03-.02c-.15-.11-.3-.14-.45-.09Zm-3.2 1.42a1.86 1.86 0 0 1 1.73 1.8c.04.73-.22 1.33-.67 1.78-.43.44-1 .7-1.55.88-.89.28-1.9.36-2.65.36-.1.4-.11.7-.08.91.04.25.14.42.3.56l.04.04c.14.14.3.2.72.28.94.1 1.9-.44 2.52-1.29a.75.75 0 0 1 1.21.88c-.83 1.15-2.3 2.1-3.95 1.9l-.05-.02H3.8c-.38-.08-.97-.2-1.45-.69-.4-.36-.68-.84-.77-1.42a4.11 4.11 0 0 1 .25-2l.09-.25c.06-.19.38-1.08 1.02-1.93a4.02 4.02 0 0 1 3.33-1.79Zm-2.53 3.3c.52-.03 1.1-.11 1.6-.27.42-.13.74-.3.92-.5a.76.76 0 0 0 .23-.64v-.06a.36.36 0 0 0-.1-.24.34.34 0 0 0-.1-.07.12.12 0 0 0-.04-.02h-.03c-.88-.03-1.56.5-2.09 1.19-.15.2-.28.42-.4.61Z"/></svg>