<svg width="16" height="16" viewBox="0 0 16 16" xmlns="http://www.w3.org/2000/svg"><path d="M9.14 3.04c-.08.04-.12.08-.29.24a.5.5 0 1 1-.7-.7l.01-.02c.16-.16.3-.3.55-.42a1.7 1.7 0 0 1 1.72.21c.2.14.33.3.42.45l.1.18.02.03a2.9 2.9 0 0 0 .13.21c.03.07.06.13.1.18l1.26-1.26a.5.5 0 1 1 .7.7l-1.49 1.5a5.85 5.85 0 0 0 .39.63l.07.12c.09.14.14.22.18.25.12.12.23.16.32.16.1 0 .18-.03.22-.05a1 1 0 0 0 .34-.27.5.5 0 1 1 .7.7v.02c-.16.15-.3.28-.51.4-.42.26-1.18.35-1.78-.25-.13-.13-.24-.3-.32-.44l-.1-.15a5.67 5.67 0 0 0-.24-.39L9.66 6.35a.5.5 0 1 1-.7-.7l1.5-1.5v-.02a9.47 9.47 0 0 1-.36-.63l-.01-.02-.08-.14a.5.5 0 0 0-.17-.18.71.71 0 0 0-.7-.12ZM6.5 4.97c.41 0 .78.2 1.04.48.26.28.45.66.45 1.09.05.66-.18 1.2-.59 1.61-.39.4-.92.65-1.46.82-.94.3-2.04.37-2.8.35a2.8 2.8 0 0 0-.13 1.22 1.14 1.14 0 0 0 .41.74c.2.2.46.27.87.36 1.07.13 2.13-.5 2.8-1.4a.5.5 0 0 1 .8.58c-.8 1.11-2.2 2-3.74 1.8h-.08c-.38-.08-.92-.2-1.35-.63-.37-.33-.61-.76-.7-1.29a3.9 3.9 0 0 1 .24-1.88l.1-.26c.05-.17.36-1.05 1-1.89.63-.85 1.66-1.74 3.14-1.7ZM3.54 8.32a7.74 7.74 0 0 0 2.11-.3c.46-.14.82-.34 1.05-.57a1.02 1.02 0 0 0 .3-.9c0-.14-.06-.3-.17-.4a.48.48 0 0 0-.33-.18H6.5c-1.02-.03-1.78.57-2.33 1.3-.27.37-.48.75-.62 1.05Z"/></svg>