<svg width="20" height="20" viewBox="0 0 20 20" xmlns="http://www.w3.org/2000/svg"><path d="M15 2.5a.5.5 0 00-1 0v13.8l-2.15-2.15a.5.5 0 00-.7.7l3 3c.2.2.5.2.7 0l3-3a.5.5 0 00-.7-.7L15 16.29V2.5zm-13 13c0-2 1.87-3.5 4-3.5s4 1.5 4 3.5S8.13 19 6 19s-4-1.5-4-3.5zM6 13c-1.73 0-3 1.19-3 2.5S4.27 18 6 18s3-1.19 3-2.5S7.73 13 6 13zm-1.5-1a.5.5 0 100-1 .5.5 0 000 1zm3.5-.5a.5.5 0 11-1 0 .5.5 0 011 0zM6 2c.2 0 .38.12.46.3l2.5 6a.5.5 0 01-.92.4l-.5-1.2a.5.5 0 01-.04 0h-3a.5.5 0 01-.04 0l-.5 1.2a.5.5 0 01-.92-.4l2.5-6A.5.5 0 016 2zm0 1.8L4.88 6.5h2.25L6 3.8z"/></svg>