<svg width="24" height="24" viewBox="0 0 24 24" xmlns="http://www.w3.org/2000/svg"><path d="M6.25 3a.75.75 0 0 1 0 1.5h-.5c-.69 0-1.25.56-1.25 1.25v12.5c0 .69.56 1.25 1.25 1.25h.5a.75.75 0 0 1 0 1.5h-.5A2.75 2.75 0 0 1 3 18.25V5.75A2.75 2.75 0 0 1 5.75 3h.5Zm7 1.5a.75.75 0 0 0 0-1.5h-2.5a.75.75 0 0 0 0 1.5h2.5Zm6.25 6.25a.75.75 0 0 1 1.5 0v2.5a.75.75 0 0 1-1.5 0v-2.5Zm-5.5 9.5c0 .41-.34.75-.75.75h-2.5a.75.75 0 0 1 0-1.5h2.5c.41 0 .75.34.75.75ZM17.75 3a.75.75 0 0 0 0 1.5h.5c.69 0 1.25.56 1.25 1.25v.5a.75.75 0 0 0 1.5 0v-.5A2.75 2.75 0 0 0 18.25 3h-.5ZM17 20.25c0 .41.34.75.75.75h.5A2.75 2.75 0 0 0 21 18.25v-.5a.75.75 0 0 0-1.5 0v.5c0 .69-.56 1.25-1.25 1.25h-.5a.75.75 0 0 0-.75.75Z"/></svg>