<svg width="24" height="24" viewBox="0 0 24 24" xmlns="http://www.w3.org/2000/svg"><path d="M2 5.25C2 3.45 3.46 2 5.25 2h8a3.3 3.3 0 0 1 1.82.56 3.27 3.27 0 0 1 1.42 2.4l.01.29V7.5h2.25A3.24 3.24 0 0 1 22 10.75v8c0 1.8-1.46 3.25-3.25 3.25h-8a3.25 3.25 0 0 1-3.25-3.25V16.5H5.25a3.28 3.28 0 0 1-1.7-.48h-.02a3.27 3.27 0 0 1-1.52-2.47l-.01-.3v-8Zm1.5 2.81v1.88L9.94 3.5H8.06L3.5 8.06ZM5.94 3.5h-.69c-.97 0-1.75.78-1.75 1.75v.69L5.94 3.5Zm6.12 0L3.5 12.06v1.19c0 .2.04.4.1.59L7.64 9.8A3.26 3.26 0 0 1 9.8 7.64l4.04-4.04c-.19-.06-.38-.1-.59-.1h-1.19Zm2.84 1.16L12.06 7.5h1.88L15 6.44V5.25c0-.2-.04-.4-.1-.59Zm-7.4 7.4L4.66 14.9c.19.06.38.1.59.1h1.19l1.06-1.06v-1.88Zm1.5 6.5v.19c0 .47.18.9.48 1.2l3.46-3.45h-1.88L9 18.56Zm7.5-5.62 3.46-3.46c-.32-.3-.74-.48-1.21-.48h-.19l-2.06 2.06v1.88Zm4-1.88-9.44 9.44h1.88l7.56-7.56v-1.88Zm0 4-5.44 5.44h1.88l3.56-3.56v-1.88Zm-.03 4.03a1.75 1.75 0 0 1-1.38 1.38l1.38-1.38ZM9 10.75V15h4.25c.97 0 1.75-.78 1.75-1.75V9h-4.25C9.78 9 9 9.78 9 10.75Z"/></svg>