<svg width="16" height="16" viewBox="0 0 16 16" xmlns="http://www.w3.org/2000/svg"><path d="M2 4c0-1.1.9-2 2-2h5a2 2 0 0 1 2 2v1h1a2 2 0 0 1 2 2v5a2 2 0 0 1-2 2H7a2 2 0 0 1-2-2v-1H4a2 2 0 0 1-2-2V4Zm1 2.56v1.58L8.14 3H6.56L3 6.56ZM5.14 3H4a1 1 0 0 0-1 1v1.14L5.14 3Zm4.31.1L7.55 5H9.3l.71-.7V4a1 1 0 0 0-.55-.9ZM5 7.57 3.1 9.45A1 1 0 0 0 4 10h.3l.7-.7V7.55ZM11.7 13h.3a1 1 0 0 0 1-1v-.3L11.7 13Zm1.3-2.7V8.7L8.7 13h1.6l2.7-2.7Zm0-3V7a1 1 0 0 0-.45-.84L11 7.71V9c0 .1 0 .21-.03.32L13 7.29Zm-3.68 3.67C9.22 11 9.1 11 9 11H7.7l-1.54 1.55A1 1 0 0 0 7 13h.3l2.02-2.03ZM6 7v3h3a1 1 0 0 0 1-1V6H7a1 1 0 0 0-1 1Z"/></svg>