<svg width="24" height="24" viewBox="0 0 24 24" xmlns="http://www.w3.org/2000/svg"><path d="M17 3.75c0-.41.34-.75.75-.75h.5A2.75 2.75 0 0121 5.75v12.5A2.75 2.75 0 0118.25 21h-.5a.75.75 0 010-1.5h.5c.69 0 1.25-.56 1.25-1.25V5.75c0-.69-.56-1.25-1.25-1.25h-.5a.75.75 0 01-.75-.75zm-3.75.75a.75.75 0 000-1.5h-2.5a.75.75 0 000 1.5h2.5zm0 15a.75.75 0 010 1.5h-2.5a.75.75 0 010-1.5h2.5zM6.25 3a.75.75 0 010 1.5h-.5c-.69 0-1.25.56-1.25 1.25v12.5c0 .69.56 1.25 1.25 1.25h.5a.75.75 0 010 1.5h-.5A2.75 2.75 0 013 18.25V5.75A2.75 2.75 0 015.75 3h.5z"/></svg>