<svg width="20" height="20" viewBox="0 0 20 20" xmlns="http://www.w3.org/2000/svg"><path d="M5.5 6a.5.5 0 1 0 0 1h4a.5.5 0 0 0 0-1h-4ZM5 9c0-.28.22-.5.5-.5h7a.5.5 0 0 1 0 1h-7A.5.5 0 0 1 5 9Zm.5 2a.5.5 0 0 0 0 1h4a.5.5 0 0 0 0-1h-4ZM16 5.5A2.5 2.5 0 0 0 13.5 3h-9A2.5 2.5 0 0 0 2 5.5v7A2.5 2.5 0 0 0 4.5 15h9a2.5 2.5 0 0 0 2.5-2.5v-7Zm-13 7v-7C3 4.67 3.67 4 4.5 4h9c.83 0 1.5.67 1.5 1.5v7c0 .83-.67 1.5-1.5 1.5h-9A1.5 1.5 0 0 1 3 12.5ZM6.5 17a2.5 2.5 0 0 1-2-1h9a3.5 3.5 0 0 0 3.5-3.5v-7c.6.46 1 1.18 1 2v5a4.5 4.5 0 0 1-4.5 4.5h-7Z"/></svg>