<svg width="32" height="32" viewBox="0 0 32 32" xmlns="http://www.w3.org/2000/svg"><path d="M8 9a1 1 0 1 0 0 2h7a1 1 0 1 0 0-2H8Zm-1 5a1 1 0 0 1 1-1h12a1 1 0 1 1 0 2H8a1 1 0 0 1-1-1Zm1 3a1 1 0 1 0 0 2h8a1 1 0 1 0 0-2H8ZM2 8.5A4.5 4.5 0 0 1 6.5 4h15A4.5 4.5 0 0 1 26 8.5v11a4.5 4.5 0 0 1-4.5 4.5h-15A4.5 4.5 0 0 1 2 19.5v-11ZM6.5 6A2.5 2.5 0 0 0 4 8.5v11A2.5 2.5 0 0 0 6.5 22h15a2.5 2.5 0 0 0 2.5-2.5v-11A2.5 2.5 0 0 0 21.5 6h-15ZM28 21a5 5 0 0 1-5 5H7.1c1.26 1.24 3 2 4.9 2h11a7 7 0 0 0 7-7v-7c0-1.9-.76-3.64-2-4.9V21Z"/></svg>