<svg width="16" height="16" viewBox="0 0 16 16" xmlns="http://www.w3.org/2000/svg"><path d="M4.5 4a.5.5 0 0 0 0 1h3a.5.5 0 0 0 0-1h-3ZM4 6.5c0-.28.22-.5.5-.5h5a.5.5 0 0 1 0 1h-5a.5.5 0 0 1-.5-.5ZM4.5 8a.5.5 0 0 0 0 1h3a.5.5 0 0 0 0-1h-3Zm-3-3.5A2.5 2.5 0 0 1 4 2h6.5A2.5 2.5 0 0 1 13 4.5v5a2.5 2.5 0 0 1-2.5 2.5H4a2.5 2.5 0 0 1-2.5-2.5v-5ZM4 3c-.83 0-1.5.67-1.5 1.5v5c0 .83.67 1.5 1.5 1.5h6.5c.83 0 1.5-.67 1.5-1.5v-5c0-.83-.67-1.5-1.5-1.5H4Zm10 6.5a3.5 3.5 0 0 1-3.5 3.5H3.67c.77.63 1.76 1 2.83 1h4A4.5 4.5 0 0 0 15 9.5v-3c0-1.07-.37-2.06-1-2.83V9.5Z"/></svg>