<svg width="20" height="20" viewBox="0 0 20 20" xmlns="http://www.w3.org/2000/svg"><path d="m7.25 14.5.22-1.5H8.7l-.22 1.5H7.25ZM14.5 18c.83 0 1.5-.67 1.5-1.5v-13c0-.83-.67-1.5-1.5-1.5h-9C4.67 2 4 2.67 4 3.5v13c0 .83.67 1.5 1.5 1.5h9Zm-4.57-6.44-.07.44h.64a.5.5 0 0 1 0 1h-.78l-.22 1.5h.5a.5.5 0 0 1 0 1h-.65l-.16 1.07a.5.5 0 0 1-.99-.14l.14-.93H7.1l-.16 1.07a.5.5 0 0 1-.99-.14l.14-.93H5.5a.5.5 0 0 1 0-1h.74l.22-1.5H6a.5.5 0 0 1 0-1h.6l.09-.59a.5.5 0 0 1 .99.15L7.6 12h1.24l.09-.59a.5.5 0 0 1 .99.15Z"/></svg>