<svg width="20" height="20" viewBox="0 0 20 20" xmlns="http://www.w3.org/2000/svg"><path d="M2 4.25C2 3.56 2.56 3 3.25 3h13.5c.69 0 1.25.56 1.25 1.25v1.5C18 6.44 17.44 7 16.75 7H3.25C2.56 7 2 6.44 2 5.75v-1.5ZM3 8h14v1.6a5.48 5.48 0 0 0-5.66.4H8.5a.5.5 0 0 0 0 1h1.76a5.48 5.48 0 0 0-.66 6H6a3 3 0 0 1-3-3V8Zm11.5 11a4.5 4.5 0 1 0 0-9 4.5 4.5 0 0 0 0 9Zm-.9-6.4-.9.9h1.55A2.75 2.75 0 0 1 17 16.25v.25a.5.5 0 0 1-1 0v-.25c0-.97-.78-1.75-1.75-1.75h-1.54l.9.9a.5.5 0 0 1-.71.7l-1.76-1.75a.5.5 0 0 1 0-.7l1.76-1.75a.5.5 0 0 1 .7.7Z"/></svg>