<svg width="24" height="24" viewBox="0 0 24 24" xmlns="http://www.w3.org/2000/svg"><path d="M2 8V6.25C2 4.45 3.46 3 5.25 3h2.88c.6 0 1.17.24 1.59.66l1.53 1.53-2.6 2.59a.75.75 0 0 1-.52.22H2Zm0 1.5v8.25C2 19.55 3.46 21 5.25 21h6.63a4.75 4.75 0 0 1 3.87-7.5h3.5c1.02 0 1.97.32 2.75.88V8.75c0-1.8-1.46-3.25-3.25-3.25h-5.69L9.72 8.84c-.42.42-1 .66-1.6.66H2Zm21 8.75a3.75 3.75 0 0 0-3.75-3.75h-.1a.75.75 0 0 0 .1 1.5h.15a2.25 2.25 0 0 1-.15 4.5l-.1.01a.75.75 0 0 0 .1 1.5V22h.2A3.75 3.75 0 0 0 23 18.24Zm-6.5-3a.75.75 0 0 0-.75-.75h-.2a3.75 3.75 0 0 0 .2 7.5h.1a.75.75 0 0 0-.1-1.5h-.15a2.25 2.25 0 0 1 .15-4.5h.1a.75.75 0 0 0 .65-.75Zm3.5 3a.75.75 0 0 0-.75-.75h-3.6a.75.75 0 0 0 .1 1.5h3.6a.75.75 0 0 0 .65-.75Z"/></svg>