<svg width="24" height="24" viewBox="0 0 24 24" xmlns="http://www.w3.org/2000/svg"><path d="M3.5 6.25V8h4.63c.2 0 .39-.08.53-.22l1.53-1.53-1.53-1.53a.75.75 0 0 0-.53-.22H5.25c-.97 0-1.75.78-1.75 1.75Zm-1.5 0C2 4.45 3.46 3 5.25 3h2.88c.6 0 1.17.24 1.59.66l1.84 1.84h7.19c1.8 0 3.25 1.46 3.25 3.25v5.63a4.73 4.73 0 0 0-1.5-.71V8.75c0-.97-.78-1.75-1.75-1.75h-7.19L9.72 8.84c-.42.42-1 .66-1.6.66H3.5v8.25c0 .97.78 1.75 1.75 1.75h5.92c.14.55.39 1.05.7 1.5H5.26A3.25 3.25 0 0 1 2 17.75V6.25Zm21 12a3.75 3.75 0 0 0-3.75-3.75h-.1a.75.75 0 0 0 .1 1.5h.15a2.25 2.25 0 0 1-.15 4.5l-.1.01a.75.75 0 0 0 .1 1.5V22h.2A3.75 3.75 0 0 0 23 18.24Zm-6.5-3a.75.75 0 0 0-.75-.75h-.2a3.75 3.75 0 0 0 .2 7.5h.1a.75.75 0 0 0-.1-1.5h-.15a2.25 2.25 0 0 1 .15-4.5h.1a.75.75 0 0 0 .65-.75Zm3.5 3a.75.75 0 0 0-.75-.75h-3.6a.75.75 0 0 0 .1 1.5h3.6a.75.75 0 0 0 .65-.75Z"/></svg>