<svg width="28" height="28" viewBox="0 0 28 28" xmlns="http://www.w3.org/2000/svg"><path d="M2 6.75A3.75 3.75 0 0 1 5.75 3h3.67c.73 0 1.43.29 1.95.8l1.88 1.89-2.94 2.94c-.24.24-.56.37-.89.37H2V6.75Zm0 3.75v9.75A3.75 3.75 0 0 0 5.75 24h8.13a4.75 4.75 0 0 1 3.87-7.5h5.5c1.03 0 1.97.32 2.75.88V9.75A3.75 3.75 0 0 0 22.25 6h-7.19l-3.7 3.7c-.51.51-1.2.8-1.94.8H2ZM17.75 19a2.25 2.25 0 0 0 0 4.5h.5a.75.75 0 0 1 0 1.5h-.5a3.75 3.75 0 1 1 0-7.5h.5a.75.75 0 0 1 0 1.5h-.5ZM17 21.25c0-.41.34-.75.75-.75h5.5a.75.75 0 0 1 0 1.5h-5.5a.75.75 0 0 1-.75-.75Zm6.25 2.25a2.25 2.25 0 0 0 0-4.5h-.5a.75.75 0 0 1 0-1.5h.5a3.75 3.75 0 1 1 0 7.5h-.5a.75.75 0 0 1 0-1.5h.5Z"/></svg>