<svg width="32" height="32" viewBox="0 0 32 32" xmlns="http://www.w3.org/2000/svg"><path d="M2 8.5A4.5 4.5 0 0 1 6.5 4h3.96c.93 0 1.82.37 2.48 1.03L15 7.09l-3.47 3.47a1.5 1.5 0 0 1-1.07.44H2V8.5ZM2 13v10.5A4.5 4.5 0 0 0 6.5 28h8.3a6 6 0 0 1 5.2-9h6c1.54 0 2.94.58 4 1.53V12a4.5 4.5 0 0 0-4.5-4.5h-8.09l-4.47 4.47A3.5 3.5 0 0 1 10.46 13H2Zm19.5 8.5a1 1 0 0 0-1-1H20a4.5 4.5 0 1 0 0 9h.5a1 1 0 1 0 0-2H20a2.5 2.5 0 0 1 0-5h.5a1 1 0 0 0 1-1Zm4-1a1 1 0 1 0 0 2h.5a2.5 2.5 0 0 1 0 5h-.5a1 1 0 1 0 0 2h.5a4.5 4.5 0 1 0 0-9h-.5Zm-5 3.5a1 1 0 1 0 0 2h5a1 1 0 1 0 0-2h-5Z"/></svg>