<svg width="32" height="32" viewBox="0 0 32 32" xmlns="http://www.w3.org/2000/svg"><path d="M4 8.5V11h6.46c.4 0 .78-.16 1.07-.44l2.06-2.06-2.06-2.06A1.5 1.5 0 0 0 10.46 6H6.5A2.5 2.5 0 0 0 4 8.5Zm-2 0A4.5 4.5 0 0 1 6.5 4h3.96c.93 0 1.82.37 2.48 1.03L15.4 7.5H25.5A4.5 4.5 0 0 1 30 12v8.53a6 6 0 0 0-2-1.19V12a2.5 2.5 0 0 0-2.5-2.5H15.41l-2.47 2.47A3.5 3.5 0 0 1 10.46 13H4v10.5A2.5 2.5 0 0 0 6.5 26h7.58c.12.72.37 1.4.72 2H6.5A4.5 4.5 0 0 1 2 23.5v-15Zm19.5 13a1 1 0 0 0-1-1H20a4.5 4.5 0 1 0 0 9h.5a1 1 0 1 0 0-2H20a2.5 2.5 0 0 1 0-5h.5a1 1 0 0 0 1-1Zm4-1a1 1 0 1 0 0 2h.5a2.5 2.5 0 0 1 0 5h-.5a1 1 0 1 0 0 2h.5a4.5 4.5 0 1 0 0-9h-.5Zm-5 3.5a1 1 0 1 0 0 2h5a1 1 0 1 0 0-2h-5Z"/></svg>