<svg width="48" height="48" viewBox="0 0 48 48" xmlns="http://www.w3.org/2000/svg"><path d="M4 12.25C4 8.8 6.8 6 10.25 6h6.46c1 0 1.95.4 2.66 1.1l3.38 3.38-5.15 5.15c-.24.24-.55.37-.89.37H4v-3.75Zm0 6.25v16.25C4 38.2 6.8 41 10.25 41h11.62a8.42 8.42 0 0 1-.87-3.75A8.13 8.13 0 0 1 29 29h10c1.9 0 3.63.68 5 1.8V17.26C44 13.8 41.2 11 37.75 11H25.77l-6.4 6.4c-.7.7-1.66 1.1-2.66 1.1H4Zm19 18.75C23 33.8 25.8 31 29.25 31h1.5a1.25 1.25 0 1 1 0 2.5h-1.5a3.75 3.75 0 1 0 0 7.5h1.5a1.25 1.25 0 1 1 0 2.5h-1.5A6.25 6.25 0 0 1 23 37.25Zm22 0C45 33.8 42.2 31 38.75 31h-1.5a1.25 1.25 0 1 0 0 2.5h1.5a3.75 3.75 0 1 1 0 7.5h-1.5a1.25 1.25 0 1 0 0 2.5h1.5c3.45 0 6.25-2.8 6.25-6.25Zm-17 0c0-.69.56-1.25 1.25-1.25h9.5a1.25 1.25 0 1 1 0 2.5h-9.5c-.69 0-1.25-.56-1.25-1.25Z"/></svg>