<svg width="48" height="48" viewBox="0 0 48 48" xmlns="http://www.w3.org/2000/svg"><path d="M6.5 12.25V16h10.21c.34 0 .65-.13.89-.37l3.38-3.38-3.38-3.38a1.25 1.25 0 0 0-.89-.37h-6.46a3.75 3.75 0 0 0-3.75 3.75Zm-2.5 0C4 8.8 6.8 6 10.25 6h6.46c1 0 1.95.4 2.66 1.1l3.9 3.9h14.48C41.2 11 44 13.8 44 17.25v13.56a7.91 7.91 0 0 0-2.5-1.4V17.25a3.75 3.75 0 0 0-3.75-3.75H23.27l-3.9 3.9c-.7.7-1.66 1.1-2.66 1.1H6.5v16.25a3.75 3.75 0 0 0 3.75 3.75h10.84c.13.89.4 1.73.78 2.5H10.25A6.25 6.25 0 0 1 4 34.75v-22.5Zm19 25C23 33.8 25.8 31 29.25 31h1.5a1.25 1.25 0 1 1 0 2.5h-1.5a3.75 3.75 0 1 0 0 7.5h1.5a1.25 1.25 0 1 1 0 2.5h-1.5A6.25 6.25 0 0 1 23 37.25Zm22 0C45 33.8 42.2 31 38.75 31h-1.5a1.25 1.25 0 1 0 0 2.5h1.5a3.75 3.75 0 1 1 0 7.5h-1.5a1.25 1.25 0 1 0 0 2.5h1.5c3.45 0 6.25-2.8 6.25-6.25Zm-17 0c0-.69.56-1.25 1.25-1.25h9.5a1.25 1.25 0 1 1 0 2.5h-9.5c-.69 0-1.25-.56-1.25-1.25Z"/></svg>