<svg width="20" height="20" viewBox="0 0 20 20" xmlns="http://www.w3.org/2000/svg"><path d="M9.39 4.29 8.07 3.3a1.5 1.5 0 0 0-.9-.3H4.5A2.5 2.5 0 0 0 2 5.5v1h5.07a.5.5 0 0 0 .36-.16L9.4 4.3Zm1.17.21-2.4 2.53c-.29.3-.68.47-1.09.47H2v7A2.5 2.5 0 0 0 4.5 17h2.26a4.5 4.5 0 0 1 3.74-7h5c.93 0 1.79.28 2.5.76V6.84a2.5 2.5 0 0 0-2.5-2.34h-4.94ZM8 14.5a2.5 2.5 0 0 1 2.5-2.5h1a.5.5 0 0 0 0-1h-1a3.5 3.5 0 1 0 0 7h1a.5.5 0 0 0 0-1h-1A2.5 2.5 0 0 1 8 14.5Zm10 0a2.5 2.5 0 0 0-2.5-2.5h-1a.5.5 0 0 1 0-1h1a3.5 3.5 0 1 1 0 7h-1a.5.5 0 0 1 0-1h1a2.5 2.5 0 0 0 2.5-2.5Zm-8 0c0-.28.22-.5.5-.5h5a.5.5 0 0 1 0 1h-5a.5.5 0 0 1-.5-.5Z"/></svg>