<svg width="24" height="24" viewBox="0 0 24 24" xmlns="http://www.w3.org/2000/svg"><path d="M20.3 9.5h.95c.27 0 .52-.06.75-.17v7.42a3.25 3.25 0 01-3.07 3.24l-.18.01H5.25a3.25 3.25 0 01-3.24-3.07L2 16.75V8.61l9.65 5.05c.22.12.48.12.7 0L20.3 9.5zM12.53 4H5.06a3.25 3.25 0 00-3.04 2.92L12 12.15l5.07-2.65h-3.32a1.75 1.75 0 01-1.22-3 1.74 1.74 0 010-2.5zm8.72-2a.75.75 0 110 1.5h-7.5a.75.75 0 01-.75-.75.75.75 0 01.75-.75h7.5zm0 2.5a.75.75 0 110 1.5h-7.6a.75.75 0 01.1-1.5h7.5zM13 7.75c0-.41.34-.75.75-.75h7.5a.75.75 0 010 1.5h-7.5a.75.75 0 01-.75-.75z"/></svg>