<svg width="28" height="28" viewBox="0 0 28 28" xmlns="http://www.w3.org/2000/svg"><path d="M15.08 6.28A1.75 1.75 0 0115.17 5h-9.1A3.25 3.25 0 003 8.26v11.68A3.25 3.25 0 006.26 23h15.68A3.25 3.25 0 0025 19.74V10.5h-3.97L14 14.15 4.5 9.21v-1.1c.08-.9.83-1.61 1.75-1.61h8.92a1.75 1.75 0 01-.09-.22zm-.73 9.39l9.15-4.77v8.99c-.08.9-.83 1.61-1.75 1.61H6.11c-.9-.08-1.61-.83-1.61-1.75V10.9l9.15 4.77.12.04c.19.07.4.05.58-.04zM16 2.75c0-.41.34-.75.75-.75h8.5a.75.75 0 110 1.5h-8.5a.75.75 0 01-.75-.75zM16.75 5l-.14.01a.75.75 0 00.14 1.49h8.5a.75.75 0 000-1.5h-8.5zM16 8.75c0-.41.34-.75.75-.75h8.5a.75.75 0 010 1.5h-8.5a.75.75 0 01-.75-.75z"/></svg>