<svg width="28" height="28" viewBox="0 0 28 28" xmlns="http://www.w3.org/2000/svg"><path d="M15.08 6.28A1.75 1.75 0 0 1 15.17 5h-9.1A3.25 3.25 0 0 0 3 8.26v11.68A3.25 3.25 0 0 0 6.26 23h15.68A3.25 3.25 0 0 0 25 19.74V10.5h-3.97L14 14.15 4.5 9.21v-1.1c.08-.9.83-1.61 1.75-1.61h8.92a1.75 1.75 0 0 1-.09-.22Zm-.73 9.39 9.15-4.77v8.99c-.08.9-.83 1.61-1.75 1.61H6.11c-.9-.08-1.61-.83-1.61-1.75V10.9l9.15 4.77.12.04c.19.07.4.05.58-.04ZM16 2.75c0-.41.34-.75.75-.75h8.5a.75.75 0 1 1 0 1.5h-8.5a.75.75 0 0 1-.75-.75ZM16.75 5l-.14.01a.75.75 0 0 0 .14 1.49h8.5a.75.75 0 0 0 0-1.5h-8.5ZM16 8.75c0-.41.34-.75.75-.75h8.5a.75.75 0 0 1 0 1.5h-8.5a.75.75 0 0 1-.75-.75Z"/></svg>