<svg width="24" height="24" viewBox="0 0 24 24" xmlns="http://www.w3.org/2000/svg"><path d="M12.53 4H5.07A3.25 3.25 0 0 0 2 7.26v9.68A3.25 3.25 0 0 0 5.26 20h13.68A3.25 3.25 0 0 0 22 16.74V9.33c-.23.11-.48.17-.75.17h-.75v7.39c-.08.9-.83 1.61-1.75 1.61H5.11c-.9-.08-1.61-.83-1.61-1.75V9.37l8.15 4.3.1.04c.2.07.41.05.6-.05l7.9-4.16h-3.21L12 12.15 3.5 7.68V7.1c.08-.9.83-1.61 1.75-1.61h6.77a1.76 1.76 0 0 1 .5-1.5Zm8.72-2a.75.75 0 1 1 0 1.5h-7.5a.75.75 0 0 1-.75-.75.75.75 0 0 1 .75-.75h7.5Zm0 2.5a.75.75 0 1 1 0 1.5h-7.6a.75.75 0 0 1 .1-1.5h7.5ZM13 7.75c0-.41.34-.75.75-.75h7.5a.75.75 0 0 1 0 1.5h-7.5a.75.75 0 0 1-.75-.75Z"/></svg>