<svg width="28" height="28" viewBox="0 0 28 28" xmlns="http://www.w3.org/2000/svg"><path d="M15.08 6.28A1.75 1.75 0 0115.17 5h-9.1A3.25 3.25 0 003 8.26v.18l11 5.72 7.03-3.65h-4.28a1.75 1.75 0 01-.9-3.25 1.76 1.76 0 01-.77-.97zm9.2 4.22l-9.93 5.17a.75.75 0 01-.7 0L3 10.12v9.81A3.25 3.25 0 006.26 23h15.68A3.25 3.25 0 0025 19.74V10.5h-.72zM16 2.75c0-.41.34-.75.75-.75h8.5a.75.75 0 110 1.5h-8.5a.75.75 0 01-.75-.75zM16.75 5l-.14.01a.75.75 0 00.14 1.49h8.5a.75.75 0 000-1.5h-8.5zM16 8.75c0-.41.34-.75.75-.75h8.5a.75.75 0 010 1.5h-8.5a.75.75 0 01-.75-.75z"/></svg>