<svg width="24" height="24" viewBox="0 0 24 24" xmlns="http://www.w3.org/2000/svg"><path d="M5.25 4A3.25 3.25 0 002 7.25v8.5C2 17.55 3.46 19 5.25 19h13.5c1.8 0 3.25-1.46 3.25-3.25v-8.5C22 5.45 20.54 4 18.75 4H5.25zM3.5 7.25c0-.97.78-1.75 1.75-1.75H8v1.2A2.5 2.5 0 004.5 9c0 .36.07.7.2 1H3.5V7.25zM9.5 9a1 1 0 111 1h-1V9zM8 10H7a1 1 0 111-1v1zm0 2.56v4.94H5.25c-.97 0-1.75-.78-1.75-1.75V11.5h3.44l-1.72 1.72a.75.75 0 101.06 1.06L8 12.56zm1.5 4.94v-4.94l1.72 1.72a.75.75 0 101.06-1.06l-1.72-1.72h9.94v4.25c0 .97-.78 1.75-1.75 1.75H9.5zm0-10.8V5.5h9.25c.97 0 1.75.78 1.75 1.75V10h-7.7a2.5 2.5 0 00-2.3-3.5c-.36 0-.7.07-1 .2z"/></svg>