<svg width="20" height="20" viewBox="0 0 20 20" xmlns="http://www.w3.org/2000/svg"><path d="M7.36 3.68c.81-.48 1.82-.76 3.06-.76a4.54 4.54 0 014.02 2.33v.02h.01s-.45-.77 0 0a1.25 1.25 0 01-2.23 1.13 2.17 2.17 0 00-.4-.46 2.04 2.04 0 00-1.4-.52c-.85 0-1.4.19-1.77.4-.37.22-.61.52-.79.83a3.04 3.04 0 00-.36 1.27v4.16a2.5 2.5 0 105 0v-.41h-1.25a1.25 1.25 0 010-2.5h2.5c.69 0 1.25.56 1.25 1.25v1.66a5 5 0 11-10 0V7.92c0 1.58 0 0 0 0v-.04a2.97 2.97 0 01.01-.22 5.41 5.41 0 01.67-2.22c.35-.63.88-1.28 1.68-1.76z"/></svg>