<svg width="16" height="16" viewBox="0 0 16 16" xmlns="http://www.w3.org/2000/svg"><path d="M12.9 5.24A3.99 3.99 0 0 1 14 8.25a4.47 4.47 0 0 0-1-.22V8a3 3 0 0 0-.87-2.1.5.5 0 0 1 .69-.72l.07.06ZM8.25 11c-.12.32-.2.65-.23 1H6.7l1.15 1.15c.17.17.19.44.05.64l-.05.07a.5.5 0 0 1-.64.05l-.07-.05-2-2a.5.5 0 0 1-.06-.64l.06-.07 2-2a.5.5 0 0 1 .76.63l-.05.07L6.7 11h1.55Zm.52-8.91.07.05 2 2 .06.08a.5.5 0 0 1 0 .56l-.05.07-2 2-.08.06a.5.5 0 0 1-.56 0l-.07-.05-.06-.07a.5.5 0 0 1 0-.57l.06-.07L9.29 5H6a3 3 0 0 0-3 2.82V8c0 .82.33 1.56.86 2.1a.5.5 0 0 1-.71.7A4 4 0 0 1 5.8 4h3.5L8.14 2.85l-.06-.07a.5.5 0 0 1 .7-.7ZM16 12.5a3.5 3.5 0 1 1-7 0 3.5 3.5 0 0 1 7 0Zm-2.95-2.66a.62.62 0 0 0-.68.23c-.21.3-.58.73-1.1.98a.5.5 0 1 0 .45.9c.3-.15.56-.34.78-.53v3.08a.5.5 0 0 0 1 0v-4.08a.61.61 0 0 0-.45-.58Z"/></svg>