<svg width="28" height="28" viewBox="0 0 28 28" xmlns="http://www.w3.org/2000/svg"><path d="M3.28 2.22a.75.75 0 10-1.06 1.06l7.57 7.57-3.62 1.4a1.75 1.75 0 00-.61 2.87l3.13 3.13L3 23.94V25h1.06l5.69-5.69 3.13 3.13c.9.9 2.42.57 2.87-.6l1.4-3.63 7.57 7.57a.75.75 0 001.06-1.06L3.28 2.22zm12.7 14.83a3.4 3.4 0 00-.04.11l-1.59 4.13a.25.25 0 01-.4.1l-7.33-7.33a.25.25 0 01.09-.41l4.13-1.6c.03 0 .07-.02.11-.04L16 17.05zM11.8 8.62l1.13 1.12 2.23-4.71a1.75 1.75 0 012.82-.5l5.48 5.5c.86.85.6 2.3-.49 2.81l-4.71 2.23 1.12 1.13 4.23-2a3.25 3.25 0 00.91-5.24l-5.48-5.48a3.25 3.25 0 00-5.24.9l-2 4.24z"/></svg>