<svg width="16" height="16" viewBox="0 0 16 16" xmlns="http://www.w3.org/2000/svg"><path d="M3.25 1C2.56 1 2 1.56 2 2.25v8.5c0 .69.56 1.25 1.25 1.25H5v-1.56c0-.7.29-1.36.8-1.84l.65-.6A.5.5 0 1 1 7 7.49l1.64-1.52A2 2 0 0 1 11 5.7a1.25 1.25 0 0 0-1.25-1.2h-.5A.25.25 0 0 1 9 4.25v-2C9 1.56 8.45 1 7.75 1h-4.5ZM4.5 4a.5.5 0 1 1 0-1 .5.5 0 0 1 0 1ZM5 5.5a.5.5 0 1 1-1 0 .5.5 0 0 1 1 0ZM4.5 8a.5.5 0 1 1 0-1 .5.5 0 0 1 0 1ZM7 3.5a.5.5 0 1 1-1 0 .5.5 0 0 1 1 0ZM6.5 6a.5.5 0 1 1 0-1 .5.5 0 0 1 0 1Zm4.18.7a1 1 0 0 0-1.36 0L6.48 9.34c-.3.28-.48.68-.48 1.1V14a1 1 0 0 0 1 1h1.5a1 1 0 0 0 1-1v-1h1v1a1 1 0 0 0 1 1H13a1 1 0 0 0 1-1v-3.56c0-.42-.17-.82-.48-1.1L10.68 6.7Zm-3.52 3.37L10 7.43l2.84 2.64c.1.1.16.23.16.37V14h-1.5v-1a1 1 0 0 0-1-1h-1a1 1 0 0 0-1 1v1H7v-3.56a.5.5 0 0 1 .16-.37Z"/></svg>