<svg width="24" height="24" viewBox="0 0 24 24" xmlns="http://www.w3.org/2000/svg"><path d="M3.5 2C2.67 2 2 2.67 2 3.5v13c0 .83.67 1.5 1.5 1.5H9v-3.32c0-.76.32-1.49.87-2L14 8.81V8.5c0-.83-.67-1.5-1.5-1.5H11V3.5c0-.83-.67-1.5-1.5-1.5h-6zM6 5.75a.75.75 0 11-1.5 0 .75.75 0 011.5 0zM5.25 9.5a.75.75 0 110-1.5.75.75 0 010 1.5zM6 11.75a.75.75 0 11-1.5 0 .75.75 0 011.5 0zM7.75 6.5a.75.75 0 110-1.5.75.75 0 010 1.5zm.75 2.25a.75.75 0 11-1.5 0 .75.75 0 011.5 0zm-.75 3.75a.75.75 0 110-1.5.75.75 0 010 1.5zm9.44-3.06a1.75 1.75 0 00-2.38 0l-4.25 3.97c-.36.33-.56.79-.56 1.27v5.82c0 .83.67 1.5 1.5 1.5h2c.83 0 1.5-.67 1.5-1.5V18h2v2.5c0 .83.67 1.5 1.5 1.5h2c.83 0 1.5-.67 1.5-1.5v-5.82c0-.48-.2-.94-.56-1.27L17.2 9.44zm-1.36 1.1c.1-.1.24-.1.34 0l4.25 3.96c.05.05.08.12.08.18v5.82h-2V18c0-.83-.67-1.5-1.5-1.5h-2c-.83 0-1.5.67-1.5 1.5v2.5h-2v-5.82c0-.06.03-.13.08-.18l4.25-3.96zM9.25 2h-5.5z"/></svg>