<svg width="16" height="16" viewBox="0 0 16 16" xmlns="http://www.w3.org/2000/svg"><path d="M3.25 2a.25.25 0 0 0-.25.25v8.5c0 .14.11.25.25.25H5v1H3.25C2.56 12 2 11.44 2 10.75v-8.5C2 1.56 2.56 1 3.25 1h4.5c.7 0 1.26.56 1.25 1.25v2c0 .14.11.25.25.25h.5c.67 0 1.22.53 1.25 1.2a2 2 0 0 0-1.52-.2h-.23C8.56 5.5 8 4.94 8 4.25v-2A.25.25 0 0 0 7.75 2h-4.5Zm7.43 4.7a1 1 0 0 0-1.36 0L6.48 9.34c-.3.28-.48.68-.48 1.1V14a1 1 0 0 0 1 1h1.5a1 1 0 0 0 1-1v-1h1v1a1 1 0 0 0 1 1H13a1 1 0 0 0 1-1v-3.56c0-.42-.17-.82-.48-1.1L10.68 6.7Zm-3.52 3.37L10 7.43l2.84 2.64c.1.1.16.23.16.37V14h-1.5v-1a1 1 0 0 0-1-1h-1a1 1 0 0 0-1 1v1H7v-3.56a.5.5 0 0 1 .16-.37ZM5 3.5a.5.5 0 1 1-1 0 .5.5 0 0 1 1 0ZM4.5 6a.5.5 0 1 0 0-1 .5.5 0 0 0 0 1ZM5 7.5a.5.5 0 1 1-1 0 .5.5 0 0 1 1 0ZM6.5 4a.5.5 0 1 0 0-1 .5.5 0 0 0 0 1ZM7 5.5a.5.5 0 1 1-1 0 .5.5 0 0 1 1 0ZM6.5 8a.5.5 0 1 0 0-1 .5.5 0 0 0 0 1Z"/></svg>