<svg width="20" height="20" viewBox="0 0 20 20" xmlns="http://www.w3.org/2000/svg"><path d="M8.5 7.5a1 1 0 1 0 0-2 1 1 0 0 0 0 2ZM5 6a3 3 0 0 1 3-3h6a3 3 0 0 1 3 3v6a3 3 0 0 1-3 3H8a3 3 0 0 1-3-3V6Zm3-2a2 2 0 0 0-2 2v6c0 .37.1.72.28 1.02L9.79 9.5a1.71 1.71 0 0 1 2.42 0l3.51 3.52A2 2 0 0 0 16 12V6a2 2 0 0 0-2-2H8Zm7.02 9.72-3.52-3.51a.71.71 0 0 0-1 0l-3.52 3.51A2 2 0 0 0 8 14h6a2 2 0 0 0 1.02-.28ZM12 17a3 3 0 0 0 2.24-1H7.5A3.5 3.5 0 0 1 4 12.5V5.76A3 3 0 0 0 3 8v4.5A4.5 4.5 0 0 0 7.5 17H12Z"/></svg>