<svg width="20" height="20" viewBox="0 0 20 20" xmlns="http://www.w3.org/2000/svg"><path d="M9 1a8 8 0 0 1 7.98 8.59A5.46 5.46 0 0 0 16 9.2V9a7 7 0 1 0-6.8 7c.1.34.23.67.39.98L9 17A8 8 0 1 1 9 1ZM6.15 11.43a4 4 0 0 0 3.19 1.17l-.03.06c-.1.3-.19.62-.24.95a5 5 0 0 1-3.62-1.48.5.5 0 0 1 .7-.7ZM11.5 6.5a1 1 0 1 1 0 2 1 1 0 0 1 0-2Zm-5 0a1 1 0 1 1 0 2 1 1 0 0 1 0-2Zm12.5 8a4.5 4.5 0 1 1-9 0 4.5 4.5 0 0 1 9 0Zm-4-2a.5.5 0 0 0-1 0V14h-1.5a.5.5 0 0 0 0 1H14v1.5a.5.5 0 0 0 1 0V15h1.5a.5.5 0 0 0 0-1H15v-1.5Z"/></svg>