<svg width="24" height="24" viewBox="0 0 24 24" xmlns="http://www.w3.org/2000/svg"><path d="M17.5 12a5.5 5.5 0 1 1 0 11 5.5 5.5 0 0 1 0-11ZM12 2a10 10 0 0 1 9.97 10.78 6.5 6.5 0 0 0-10.88 3.63 4.49 4.49 0 0 1-2.63-1.63.75.75 0 0 0-1.18.93 6 6 0 0 0 3.73 2.21c.1 1.56.76 2.98 1.77 4.05L12 22a10 10 0 1 1 0-20Zm5.5 12h-.09a.5.5 0 0 0-.4.4l-.01.1V17h-2.6a.5.5 0 0 0-.4.4v.19c.04.2.2.36.4.4H17v2.61c.05.2.2.36.41.4h.18a.5.5 0 0 0 .4-.4l.01-.1V18h2.6a.5.5 0 0 0 .4-.41v-.18a.5.5 0 0 0-.4-.4l-.1-.01H18v-2.6a.5.5 0 0 0-.41-.4h-.09ZM9 8.75a1.25 1.25 0 1 0 0 2.5 1.25 1.25 0 0 0 0-2.5Zm6 0a1.25 1.25 0 1 0 0 2.5 1.25 1.25 0 0 0 0-2.5Z"/></svg>