<svg width="32" height="32" viewBox="0 0 32 32" xmlns="http://www.w3.org/2000/svg"><path d="M3 7.5A4.5 4.5 0 0 1 7.5 3h17A4.5 4.5 0 0 1 29 7.5v8.77a9.04 9.04 0 0 0-2-1.57V7.5A2.5 2.5 0 0 0 24.5 5h-17A2.5 2.5 0 0 0 5 7.5v17A2.5 2.5 0 0 0 7.5 27h7.2c.43.74.96 1.41 1.57 2H7.5A4.5 4.5 0 0 1 3 24.5v-17Zm27 15a7.5 7.5 0 1 1-15 0 7.5 7.5 0 0 1 15 0Zm-4.72-3.78a.75.75 0 1 0-1.06 1.06L25.44 21H22.5a4.25 4.25 0 0 0-4.25 4.25v.5a.75.75 0 0 0 1.5 0v-.5a2.75 2.75 0 0 1 2.75-2.75h2.94l-1.22 1.22a.75.75 0 1 0 1.06 1.06l2.5-2.5c.3-.3.3-.77 0-1.06l-2.5-2.5Z"/></svg>