<svg width="20" height="20" viewBox="0 0 20 20" xmlns="http://www.w3.org/2000/svg"><path d="M14.5 3A2.5 2.5 0 0 1 17 5.5v9a2.5 2.5 0 0 1-2.5 2.5h-9A2.5 2.5 0 0 1 3 14.5v-9A2.5 2.5 0 0 1 5.5 3h9Zm-1.78 6H7.28c-.44 0-.6.05-.77.13a.9.9 0 0 0-.38.38c-.07.14-.12.29-.13.62v2.59c0 .44.05.6.13.77.1.16.22.29.38.38.14.07.29.12.62.13H12.72c.44 0 .6-.05.77-.13a.9.9 0 0 0 .38-.38c.07-.14.12-.29.13-.62v-2.59c0-.44-.05-.6-.13-.77a.9.9 0 0 0-.38-.38 1.24 1.24 0 0 0-.62-.13h-.15Zm.2 1h.07V13H7.01v-2.98h5.9Zm.58-4H6.41a.5.5 0 0 0 0 1h7.18a.5.5 0 0 0 0-1h-.09Z"/></svg>