<svg width="24" height="24" viewBox="0 0 24 24" xmlns="http://www.w3.org/2000/svg"><path d="M10.5 4c-.2.47-.34.98-.42 1.5H6.25c-.97 0-1.75.78-1.75 1.75V14H9c.38 0 .7.28.74.65l.01.1a2.25 2.25 0 0 0 4.5 0c0-.41.34-.75.75-.75h4.5v-1.73a6.52 6.52 0 0 0 1.5-1.08v7.56c0 1.8-1.46 3.25-3.25 3.25H6.25A3.25 3.25 0 0 1 3 18.75V7.25C3 5.45 4.46 4 6.25 4h4.25Zm6-3a5.5 5.5 0 1 1 0 11 5.5 5.5 0 0 1 0-11Zm.22 2.59-.07.06-.06.07a.5.5 0 0 0 0 .56l.06.07L18.29 6h-5.38a.5.5 0 0 0-.4.41l-.01.09v.09c.05.2.2.36.41.4L13 7h5.3l-1.65 1.65-.06.07a.5.5 0 0 0 .7.7l.06-.07 2.54-2.54.04-.05.03-.07.02-.06.02-.08v-.1l-.02-.08-.03-.08-.04-.07-.04-.06-2.52-2.51-.07-.06a.5.5 0 0 0-.56 0Z"/></svg>