<svg width="16" height="16" viewBox="0 0 16 16" xmlns="http://www.w3.org/2000/svg"><path d="M6.5 1c-.65 0-1.2.42-1.42 1H4.5C3.67 2 3 2.67 3 3.5v8c0 .83.67 1.5 1.5 1.5h6c.83 0 1.5-.67 1.5-1.5v-8c0-.83-.67-1.5-1.5-1.5h-.59c-.2-.58-.76-1-1.41-1h-2ZM6 2.5c0-.28.22-.5.5-.5h2a.5.5 0 0 1 0 1h-2a.5.5 0 0 1-.5-.5ZM4.5 3h.58c.21.58.77 1 1.42 1h2c.65 0 1.2-.42 1.41-1h.59c.28 0 .5.22.5.5v8a.5.5 0 0 1-.5.5h-6a.5.5 0 0 1-.5-.5v-8c0-.28.22-.5.5-.5Zm8.5 8.5V3.27A2 2 0 0 1 14 5v6.5a3.5 3.5 0 0 1-3.5 3.5H6a2 2 0 0 1-1.73-1h6.23a2.5 2.5 0 0 0 2.5-2.5Z"/></svg>