<svg width="20" height="20" viewBox="0 0 20 20" xmlns="http://www.w3.org/2000/svg"><path d="M5.88 6.59a2.5 2.5 0 1 1 .7-.7L8.63 7.9a2.49 2.49 0 0 1 2.76 0l2.03-2.03a2.5 2.5 0 1 1 .7.7L12.1 8.63a2.49 2.49 0 0 1 0 2.76l2.03 2.03a2.5 2.5 0 1 1-.7.7l-2.04-2.02a2.49 2.49 0 0 1-2.76 0L6.6 14.12a2.5 2.5 0 1 1-.7-.7l2.02-2.04a2.49 2.49 0 0 1 0-2.76L5.88 6.6ZM6 4.5a1.5 1.5 0 1 0-3 0 1.5 1.5 0 0 0 3 0Zm11 0a1.5 1.5 0 1 0-3 0 1.5 1.5 0 0 0 3 0ZM4.5 17a1.5 1.5 0 1 0 0-3 1.5 1.5 0 0 0 0 3ZM17 15.5a1.5 1.5 0 1 0-3 0 1.5 1.5 0 0 0 3 0ZM11.5 10a1.5 1.5 0 1 0-3 0 1.5 1.5 0 0 0 3 0Z"/></svg>