<svg width="48" height="48" viewBox="0 0 48 48" xmlns="http://www.w3.org/2000/svg"><path d="M25 6.02a1.25 1.25 0 00-1.92 0c-2.99 3.59-8.9 7.85-12.29 9.75-.34.19-.57.53-.63.92l-2.73 19.8H5.25a1.25 1.25 0 000 2.5h37.5a1.25 1.25 0 100-2.5h-2.1l-2.73-19.8a1.25 1.25 0 00-.63-.92C33.9 13.87 28 9.6 25 6.02zm8.23 30.45c-3.4-4.79-5.8-9.46-8.02-17.99a1.25 1.25 0 00-2.43 0c-2.45 9.6-5.37 14.37-8.05 18H9.96l2.6-18.84c3.25-1.9 8.26-5.52 11.48-8.94 3.22 3.42 8.23 7.03 11.49 8.94l2.6 18.83h-4.9zm-3.03 0H17.8c2.1-3.04 4.25-6.95 6.2-13.12a48.79 48.79 0 006.2 13.12z"/></svg>