<svg width="24" height="24" viewBox="0 0 24 24" xmlns="http://www.w3.org/2000/svg"><path d="M10.75 20a.75.75 0 1 1 0 1.5.75.75 0 0 1 0-1.5Zm4.5 0a.75.75 0 1 1 0 1.5.75.75 0 0 1 0-1.5ZM8.5 19a.75.75 0 1 1 0 1.5.75.75 0 0 1 0-1.5Zm4.5 0a.75.75 0 1 1 0 1.5.75.75 0 0 1 0-1.5Zm4.5 0a.75.75 0 1 1 0 1.5.75.75 0 0 1 0-1.5ZM13 6.01c3.17 0 4.97 2.1 5.23 4.63h.08a3.69 3.69 0 1 1 0 7.37H7.69a3.69 3.69 0 1 1 0-7.37h.08A4.95 4.95 0 0 1 13 6.01Zm0 1.5a3.86 3.86 0 0 0-3.87 3.89c0 .35-.32.63-.69.63h-.69c-1.26 0-2.28 1-2.28 2.24a2.26 2.26 0 0 0 2.28 2.24h10.5c1.26 0 2.29-1 2.29-2.24a2.26 2.26 0 0 0-2.29-2.24h-.69c-.36 0-.68-.28-.68-.63 0-2.29-1.8-3.9-3.88-3.9Zm-8.63 2.66c.14.35 0 .74-.32.93l-.09.05-.92.38a.75.75 0 0 1-.67-1.34l.1-.05.92-.38c.38-.16.82.02.98.4Zm6.48-4.84-.17.06c-.53.19-1.02.44-1.46.76a2.44 2.44 0 0 0-2.8 3.67c-.48.13-.94.35-1.36.63a3.94 3.94 0 0 1 5.8-5.12Zm-7.9.03.1.04.92.38A.75.75 0 0 1 3.5 7.2l-.1-.03-.93-.39a.75.75 0 0 1 .47-1.42Zm3.8-2.98.05.09.39.92a.75.75 0 0 1-1.35.67l-.04-.1-.38-.92a.75.75 0 0 1 1.34-.66Zm4.36-.32c.35.14.53.52.44.87l-.03.1-.39.93a.75.75 0 0 1-1.42-.46l.04-.11.38-.93c.16-.38.6-.56.98-.4Z"/></svg>