<svg width="24" height="24" viewBox="0 0 24 24" xmlns="http://www.w3.org/2000/svg"><path d="M3.5 20c-.03.29.21.53.5.5l12.06-1.34c.38-.05.54-.5.27-.77l-1.8-1.8a.75.75 0 0 1 0-1.06l5.84-5.83a.45.45 0 0 0 0-.64l-5.43-5.43a.45.45 0 0 0-.64 0L8.47 9.47c-.3.29-.77.29-1.06 0l-1.8-1.8a.45.45 0 0 0-.77.27L3.5 20Zm.67 1.99A1.95 1.95 0 0 1 2 19.83L3.35 7.77a1.95 1.95 0 0 1 3.32-1.16l1.27 1.26 5.3-5.3c.76-.76 2-.76 2.76 0L21.43 8c.76.76.76 2 0 2.76l-5.3 5.3 1.26 1.27a1.95 1.95 0 0 1-1.16 3.32L4.17 21.99Z"/></svg>