<svg width="28" height="28" viewBox="0 0 28 28" xmlns="http://www.w3.org/2000/svg"><path d="M15.36 2.66c.88-.88 2.3-.88 3.18 0l6.8 6.8c.88.88.88 2.3 0 3.18l-6.6 6.6 1.6 1.6a2.25 2.25 0 0 1-1.39 3.83L4.45 26a2.25 2.25 0 0 1-2.44-2.44l1.32-14.5a2.25 2.25 0 0 1 3.83-1.39l1.6 1.6 6.6-6.6Zm2.12 1.06a.75.75 0 0 0-1.06 0L9.3 10.85c-.3.3-.77.3-1.06 0L6.1 8.72a.75.75 0 0 0-1.28.47L3.5 23.69c-.04.46.35.85.82.8l14.5-1.31a.75.75 0 0 0 .46-1.28l-2.13-2.13a.75.75 0 0 1 0-1.06l7.13-7.13c.3-.3.3-.77 0-1.06l-6.8-6.8Z"/></svg>