<svg width="48" height="48" viewBox="0 0 48 48" xmlns="http://www.w3.org/2000/svg"><path d="M9.86 43.97a5.25 5.25 0 0 1-5.82-5.81l2.66-23.4a4.25 4.25 0 0 1 7.2-2.54L16.74 15l9.47-9.46a5.25 5.25 0 0 1 7.43 0l8.83 8.85a5.25 5.25 0 0 1 0 7.43L33 31.27l2.75 2.75a4.25 4.25 0 0 1-2.51 7.22L9.86 43.97Zm-3.34-5.53a2.75 2.75 0 0 0 3.05 3.04l23.39-2.72a1.75 1.75 0 0 0 1.03-2.97l-3.63-3.64a1.25 1.25 0 0 1 0-1.77L40.7 20.05a2.75 2.75 0 0 0 0-3.89l-8.83-8.85a2.75 2.75 0 0 0-3.9 0L17.65 17.65c-.49.48-1.27.48-1.76 0L12.15 14a1.75 1.75 0 0 0-2.96 1.05L6.52 38.44Z"/></svg>