<svg width="20" height="20" viewBox="0 0 20 20" xmlns="http://www.w3.org/2000/svg"><path d="M10 2v4.5c0 .83.67 1.5 1.5 1.5H16v8.5c0 .83-.67 1.5-1.5 1.5H9a2 2 0 0 0 2-2v-2.5a2.5 2.5 0 0 0-2.04-2.46A2.5 2.5 0 0 0 6.5 9h-2c-.17 0-.34.02-.5.05V3.5C4 2.67 4.67 2 5.5 2H10Zm1 .25V6.5c0 .28.22.5.5.5h4.25L11 2.25ZM4.5 10c-.83 0-1.5.67-1.5 1.5v.5h-.5c-.83 0-1.5.67-1.5 1.5V16a1 1 0 0 0 1 1h1v.5c0 .83.67 1.5 1.5 1.5h2c.83 0 1.5-.67 1.5-1.5V17h1a1 1 0 0 0 1-1v-2.5c0-.83-.67-1.5-1.5-1.5H8v-.5c0-.83-.67-1.5-1.5-1.5h-2ZM7 12H4v-.5c0-.28.22-.5.5-.5h2c.28 0 .5.22.5.5v.5Zm-2.5 4h2c.28 0 .5.22.5.5v1a.5.5 0 0 1-.5.5h-2a.5.5 0 0 1-.5-.5v-1c0-.28.22-.5.5-.5Z"/></svg>