<svg width="24" height="24" viewBox="0 0 24 24" xmlns="http://www.w3.org/2000/svg"><path d="M12 2v6c0 1.1.9 2 2 2h6v10a2 2 0 0 1-2 2h-7.1c.04-.16.07-.33.09-.5H11a2 2 0 0 0 2-2V16a2.5 2.5 0 0 0-2-2.45A2.75 2.75 0 0 0 8.24 11h-3.5c-.26 0-.51.04-.75.1V4c0-1.1.9-2 2-2h6Zm1.5.5V8c0 .28.22.5.5.5h5.5l-6-6ZM3 13.75c0-.97.78-1.75 1.75-1.75h3.5c.97 0 1.75.78 1.75 1.75v.75h.5c.83 0 1.5.67 1.5 1.5v3.5a1 1 0 0 1-1 1h-1v.75c0 .97-.78 1.75-1.75 1.75h-3.5C3.78 23 3 22.22 3 21.25v-.75H2a1 1 0 0 1-1-1V16c0-.83.67-1.5 1.5-1.5H3v-.75Zm5.5 0a.25.25 0 0 0-.25-.25h-3.5a.25.25 0 0 0-.25.25v.75h4v-.75Zm-4 5.5v2c0 .14.11.25.25.25h3.5c.14 0 .25-.11.25-.25v-2a.25.25 0 0 0-.25-.25h-3.5a.25.25 0 0 0-.25.25Z"/></svg>