<svg width="24" height="24" viewBox="0 0 24 24" xmlns="http://www.w3.org/2000/svg"><path d="M18.5 20a.5.5 0 0 1-.5.5h-5.27a2 2 0 0 1-1.73 1h-.01c-.02.17-.05.34-.1.5H18a2 2 0 0 0 2-2V9.83a2 2 0 0 0-.59-1.42L13.6 2.6a.5.5 0 0 0-.05-.04 2.07 2.07 0 0 0-.34-.25l-.05-.03-.05-.03-.16-.09c-.2-.08-.41-.12-.63-.14h-.06a.6.6 0 0 0-.08-.01H6a2 2 0 0 0-2 2v7.1c.24-.06.49-.1.75-.1h.75V4c0-.27.22-.5.5-.5h6V8c0 1.1.9 2 2 2h4.5v10Zm-5-15.38 3.88 3.88H14a.5.5 0 0 1-.5-.5V4.62ZM3 13.75c0-.97.78-1.75 1.75-1.75h3.5c.97 0 1.75.78 1.75 1.75v.75h.5c.83 0 1.5.67 1.5 1.5v3.5a1 1 0 0 1-1 1h-1v.75c0 .97-.78 1.75-1.75 1.75h-3.5C3.78 23 3 22.22 3 21.25v-.75H2a1 1 0 0 1-1-1V16c0-.83.67-1.5 1.5-1.5H3v-.75Zm5.5 0a.25.25 0 0 0-.25-.25h-3.5a.25.25 0 0 0-.25.25v.75h4v-.75Zm-4 5.5v2c0 .14.11.25.25.25h3.5c.14 0 .25-.11.25-.25v-2a.25.25 0 0 0-.25-.25h-3.5a.25.25 0 0 0-.25.25Z"/></svg>