<svg width="28" height="28" viewBox="0 0 28 28" xmlns="http://www.w3.org/2000/svg"><path d="M14 2v8c0 1.1.9 2 2 2h8v11.6a2.4 2.4 0 0 1-2.4 2.4h-9.2c.06-.24.1-.49.1-.75V25a2.5 2.5 0 0 0 2.5-2.5V19a3 3 0 0 0-2.5-2.96v-.29A2.75 2.75 0 0 0 9.75 13h-4.5c-.45 0-.87.1-1.25.3V4.4A2.4 2.4 0 0 1 6.4 2H14Zm1.5.48V10c0 .28.22.5.5.5h7.5c-.09-.13-.2-.25-.3-.37L15.75 2.7a2.4 2.4 0 0 0-.26-.22ZM5.25 14c-.97 0-1.75.78-1.75 1.75V17H3a2 2 0 0 0-2 2v3.5c0 .83.67 1.5 1.5 1.5h1v1.25c0 .97.78 1.75 1.75 1.75h4.5c.97 0 1.75-.78 1.75-1.75V24h1c.83 0 1.5-.67 1.5-1.5V19a2 2 0 0 0-2-2h-.5v-1.25c0-.97-.78-1.75-1.75-1.75h-4.5ZM5 17v-1.25c0-.14.11-.25.25-.25h4.5c.14 0 .25.11.25.25V17H5Zm0 5.75c0-.14.11-.25.25-.25h4.5c.14 0 .25.11.25.25v2.5c0 .14-.11.25-.25.25h-4.5a.25.25 0 0 1-.25-.25v-2.5Z"/></svg>