<svg width="28" height="28" viewBox="0 0 28 28" xmlns="http://www.w3.org/2000/svg"><path d="M6.4 2A2.4 2.4 0 0 0 4 4.4v8.9c.38-.2.8-.3 1.25-.3h.25V4.4c0-.5.4-.9.9-.9H14V10c0 1.1.9 2 2 2h6.5v11.6c0 .5-.4.9-.9.9H14c-.42.31-.94.5-1.5.5v.25c0 .26-.04.51-.1.75h9.2a2.4 2.4 0 0 0 2.4-2.4V11.58c0-.73-.29-1.43-.8-1.95L16.25 2.7a2.4 2.4 0 0 0-1.7-.7H6.4Zm15.54 8.5H16a.5.5 0 0 1-.5-.5V4.06l6.44 6.44ZM5.25 14c-.97 0-1.75.78-1.75 1.75V17H3a2 2 0 0 0-2 2v3.5c0 .83.67 1.5 1.5 1.5h1v1.25c0 .97.78 1.75 1.75 1.75h4.5c.97 0 1.75-.78 1.75-1.75V24h1c.83 0 1.5-.67 1.5-1.5V19a2 2 0 0 0-2-2h-.5v-1.25c0-.97-.78-1.75-1.75-1.75h-4.5ZM5 17v-1.25c0-.14.11-.25.25-.25h4.5c.14 0 .25.11.25.25V17H5Zm0 5.75c0-.14.11-.25.25-.25h4.5c.14 0 .25.11.25.25v2.5c0 .14-.11.25-.25.25h-4.5a.25.25 0 0 1-.25-.25v-2.5Z"/></svg>