<svg width="48" height="48" viewBox="0 0 48 48" xmlns="http://www.w3.org/2000/svg"><path d="M24 4v11.25A3.75 3.75 0 0 0 27.75 19H40v21a3 3 0 0 1-3 3H25.65A3.99 3.99 0 0 0 27 40v-7a5 5 0 0 0-4.08-4.92A5 5 0 0 0 18 24h-8c-.71 0-1.39.15-2 .42V7a3 3 0 0 1 3-3h13Zm2.5.46v10.79c0 .69.56 1.25 1.25 1.25h11.71L26.5 4.46ZM10 26a3 3 0 0 0-3 3v1H6a3 3 0 0 0-3 3v7c0 1.1.9 2 2 2h2v1a3 3 0 0 0 3 3h8a3 3 0 0 0 3-3v-1h2a2 2 0 0 0 2-2v-7a3 3 0 0 0-3-3h-1v-1a3 3 0 0 0-3-3h-8Zm9 4H9v-1a1 1 0 0 1 1-1h8a1 1 0 0 1 1 1v1Zm-9 8h8a1 1 0 0 1 1 1v4a1 1 0 0 1-1 1h-8a1 1 0 0 1-1-1v-4a1 1 0 0 1 1-1Z"/></svg>