<svg width="48" height="48" viewBox="0 0 48 48" xmlns="http://www.w3.org/2000/svg"><path d="M12.25 4A4.25 4.25 0 0 0 8 8.25v16.17a4.98 4.98 0 0 1 2-.42h.5V8.25c0-.97.78-1.75 1.75-1.75H24v8.75A3.75 3.75 0 0 0 27.75 19h9.75v20.75c0 .97-.78 1.75-1.75 1.75h-9.04A4 4 0 0 1 23 44h12.75C38.1 44 40 42.1 40 39.75V18.41c0-.6-.24-1.16-.66-1.59L27.18 4.66c-.43-.42-1-.66-1.6-.66H12.26Zm23.23 12.5h-7.73c-.69 0-1.25-.56-1.25-1.25V7.52l8.98 8.98ZM10 26a3 3 0 0 0-3 3v1H6a3 3 0 0 0-3 3v7c0 1.1.9 2 2 2h2v1a3 3 0 0 0 3 3h8a3 3 0 0 0 3-3v-1h2a2 2 0 0 0 2-2v-7a3 3 0 0 0-3-3h-1v-1a3 3 0 0 0-3-3h-8Zm9 4H9v-1a1 1 0 0 1 1-1h8a1 1 0 0 1 1 1v1Zm-9 8h8a1 1 0 0 1 1 1v4a1 1 0 0 1-1 1h-8a1 1 0 0 1-1-1v-4a1 1 0 0 1 1-1Z"/></svg>