<svg width="32" height="32" viewBox="0 0 32 32" xmlns="http://www.w3.org/2000/svg"><path d="M8 2a3 3 0 0 0-3 3v10.84c.45-.22.96-.34 1.5-.34H7V5a1 1 0 0 1 1-1h9v5a3 3 0 0 0 3 3h5v15a1 1 0 0 1-1 1h-5.59c-.2.84-.72 1.55-1.43 2H24a3 3 0 0 0 3-3V10.83a3 3 0 0 0-.88-2.12L20.3 2.88A3 3 0 0 0 18.17 2H8Zm16.59 8H20a1 1 0 0 1-1-1V4.41L24.59 10ZM6.5 17a2 2 0 0 0-2 2v1h-.25C3.01 20 2 21 2 22.25v5c0 .97.78 1.75 1.75 1.75h.75c0 1.1.9 2 2 2h6a2 2 0 0 0 2-2h.75c.97 0 1.75-.78 1.75-1.75v-5c0-1.24-1-2.25-2.25-2.25h-.25v-1a2 2 0 0 0-2-2h-6ZM6 20v-1c0-.28.22-.5.5-.5h6c.28 0 .5.22.5.5v1H6Zm0 6.5c0-.28.22-.5.5-.5h6c.28 0 .5.22.5.5V29a.5.5 0 0 1-.5.5h-6A.5.5 0 0 1 6 29v-2.5Z"/></svg>