<svg width="32" height="32" viewBox="0 0 32 32" xmlns="http://www.w3.org/2000/svg"><path d="M17 2v7a3 3 0 0 0 3 3h7v15a3 3 0 0 1-3 3h-7.02a3.25 3.25 0 0 0 1.52-2.75v-5a3.75 3.75 0 0 0-2.51-3.54 3.5 3.5 0 0 0-3.49-3.21h-6c-.54 0-1.05.12-1.5.34V5a3 3 0 0 1 3-3h9Zm2 .12V9a1 1 0 0 0 1 1h6.88a3 3 0 0 0-.76-1.3L20.3 2.89A3 3 0 0 0 19 2.12ZM6.5 17a2 2 0 0 0-2 2v1h-.25C3.01 20 2 21 2 22.25v5c0 .97.78 1.75 1.75 1.75h.75c0 1.1.9 2 2 2h6a2 2 0 0 0 2-2h.75c.97 0 1.75-.78 1.75-1.75v-5c0-1.24-1-2.25-2.25-2.25h-.25v-1a2 2 0 0 0-2-2h-6ZM6 20v-1c0-.28.22-.5.5-.5h6c.28 0 .5.22.5.5v1H6Zm0 6.5c0-.28.22-.5.5-.5h6c.28 0 .5.22.5.5V29a.5.5 0 0 1-.5.5h-6A.5.5 0 0 1 6 29v-2.5Z"/></svg>