<svg width="24" height="24" viewBox="0 0 24 24" xmlns="http://www.w3.org/2000/svg"><path d="M19.8 2H7.75A3.25 3.25 0 0 0 4.5 5.25V15.5H2.75c-.97 0-1.75.78-1.75 1.75v1.82A2.94 2.94 0 0 0 4 22h11.25a3.22 3.22 0 0 0 3.28-3.11V8.5h3.27c.66 0 1.2-.54 1.2-1.2V4.98a2.98 2.98 0 0 0-3.2-2.97ZM7.75 3.5h9.68c-.25.44-.4.94-.4 1.48v13.87c0 .88-.76 1.65-1.78 1.65-1.01 0-1.77-.77-1.77-1.65v-2.1c0-.69-.56-1.25-1.25-1.25H6V5.25c0-.97.78-1.75 1.75-1.75Zm-5 13.5h9.23v1.85c0 .61.17 1.17.48 1.65H4c-.86 0-1.5-.63-1.5-1.43v-1.82c0-.14.11-.25.25-.25ZM21.5 4.98V7h-2.97V4.98a1.48 1.48 0 1 1 2.97 0Z"/></svg>