<svg width="20" height="20" viewBox="0 0 20 20" xmlns="http://www.w3.org/2000/svg"><path d="m10.99 5.24-.25.36a.9.9 0 0 1-1.5-.04c-.09-.1-.16-.23-.24-.35C8.5 4.45 8 3.55 8 3a2 2 0 1 1 4 0c0 .55-.5 1.45-1 2.21l-.01.03ZM11 3a1 1 0 1 0-2 0 1 1 0 0 0 2 0ZM8.43 6.17l-.25-.38-5.36 5.64A3 3 0 0 0 2 13.5V15c0 1.1.9 2 2 2h12a2 2 0 0 0 2-2v-1.5a3 3 0 0 0-.82-2.07L11.82 5.8l-.25.38c-.11.16-.24.3-.38.4l2.27 2.4c-1.27.07-2.3.54-3.2.95l-.7.3c-.66.27-1.26.44-1.92.4a4.07 4.07 0 0 1-1.96-.75l3.13-3.3a1.95 1.95 0 0 1-.38-.4Z"/></svg>