<svg width="24" height="24" viewBox="0 0 24 24" xmlns="http://www.w3.org/2000/svg"><path d="M15 4.34c0 1.13-1.38 3.12-2.26 4.3-.38.49-1.1.49-1.48 0A24.68 24.68 0 0 1 10 6.8c-.55-.9-1-1.83-1-2.47C9 2.7 10.34 1 12 1s3 1.69 3 3.34Zm-3.87.88a1.5 1.5 0 0 0 1.74 0 1.5 1.5 0 1 0-1.74 0Zm-5.05 6.6 3.68-3.56c-.28-.4-.57-.85-.83-1.29L3 12.72A3.25 3.25 0 0 0 2 15.06v3.69C2 19.99 3 21 4.25 21h15.5c1.24 0 2.25-1 2.25-2.25v-3.69c0-.88-.36-1.72-.99-2.34l-5.94-5.75c-.26.44-.55.88-.83 1.29l2.08 2.01c-.7.09-1.38.26-2.02.47-.68.22-1.38.5-2.04.78l-1.1.44c-.98.37-1.88.61-2.78.58a4.7 4.7 0 0 1-2.3-.72Z"/></svg>