<svg width="24" height="24" viewBox="0 0 24 24" xmlns="http://www.w3.org/2000/svg"><path d="M13.51 7.55c-.27.4-.54.77-.77 1.08-.38.5-1.1.5-1.48 0A26.42 26.42 0 0 1 10 6.81c-.55-.9-1-1.83-1-2.47C9 2.7 10.34 1 12 1s3 1.69 3 3.34c0 .53-.3 1.25-.71 1.98-.24.42-.5.84-.78 1.23Zm-.64-2.33a1.5 1.5 0 1 0-1.74 0 1.5 1.5 0 0 0 1.74 0Zm-6.8 6.6 3.69-3.56c-.28-.4-.57-.85-.83-1.29L3 12.72A3.25 3.25 0 0 0 2 15.06v3.69C2 19.99 3 21 4.25 21h15.5c1.24 0 2.25-1 2.25-2.25v-3.69c0-.88-.36-1.72-.99-2.34l-5.94-5.75c-.26.44-.55.88-.83 1.29l2.08 2.01c-.7.09-1.38.26-2.02.47-.68.22-1.38.5-2.04.78l-1.1.44c-.98.37-1.88.61-2.78.58a4.7 4.7 0 0 1-2.3-.72ZM4.04 13.8l.94-.9a6.34 6.34 0 0 0 3.36 1.14c1.2.04 2.32-.28 3.36-.68.44-.16.84-.33 1.24-.5.6-.24 1.19-.48 1.84-.7.99-.32 1.99-.51 3.06-.42l2.14 2.06c.34.33.53.79.53 1.26v3.69c0 .41-.34.75-.75.75H4.25a.75.75 0 0 1-.75-.75v-3.69c0-.47.2-.93.53-1.26Z"/></svg>