<svg width="20" height="20" viewBox="0 0 20 20" xmlns="http://www.w3.org/2000/svg"><path d="M17 5.75a.75.75 0 0 0-.75-.75h-4.5a.75.75 0 0 0 0 1.5h4.5c.41 0 .75-.34.75-.75Zm-8 0A.75.75 0 0 0 8.25 5h-4.5a.75.75 0 0 0 0 1.5h4.5c.41 0 .75-.34.75-.75Zm8 3a.75.75 0 0 0-.75-.75h-4.5a.75.75 0 0 0 0 1.5h4.5c.41 0 .75-.34.75-.75Zm-8 0A.75.75 0 0 0 8.25 8h-4.5a.75.75 0 0 0 0 1.5h4.5c.41 0 .75-.34.75-.75Zm8 3a.75.75 0 0 0-.75-.75h-4.5a.75.75 0 0 0 0 1.5h4.5c.41 0 .75-.34.75-.75Zm-8 0a.75.75 0 0 0-.75-.75h-4.5a.75.75 0 0 0 0 1.5h4.5c.41 0 .75-.34.75-.75Zm8 3a.75.75 0 0 0-.75-.75h-4.5a.75.75 0 0 0 0 1.5h4.5c.41 0 .75-.34.75-.75Zm-8 0a.75.75 0 0 0-.75-.75h-4.5a.75.75 0 0 0 0 1.5h4.5c.41 0 .75-.34.75-.75Z"/></svg>