<svg width="16" height="16" viewBox="0 0 16 16" xmlns="http://www.w3.org/2000/svg"><path d="M2.5 1.75a.75.75 0 0 0 0 1.5h11a.75.75 0 0 0 0-1.5h-11Zm7.5 2.5a.75.75 0 0 0 0 1.5h3.5a.75.75 0 0 0 0-1.5H10ZM9.25 7.5c0-.41.34-.75.75-.75h3.5a.75.75 0 0 1 0 1.5H10a.75.75 0 0 1-.75-.75ZM10 9.25a.75.75 0 0 0 0 1.5h3.5a.75.75 0 0 0 0-1.5H10ZM1.75 12.5c0-.41.34-.75.75-.75h11a.75.75 0 0 1 0 1.5h-11a.75.75 0 0 1-.75-.75ZM3.25 7a1.75 1.75 0 1 1 3.5 0v3.5a.75.75 0 0 0 1.5 0V7a3.25 3.25 0 1 0-6.5 0v3.5a.75.75 0 0 0 1.5 0V7Z"/></svg>