<svg width="24" height="24" viewBox="0 0 24 24" xmlns="http://www.w3.org/2000/svg"><path d="M3.75 4a.75.75 0 0 0 0 1.5h16.5a.75.75 0 0 0 0-1.5H3.75Zm9.5 3.5a.75.75 0 0 0 0 1.5h7a.75.75 0 0 0 0-1.5h-7Zm-.75 7.75c0-.41.34-.75.75-.75h7a.75.75 0 0 1 0 1.5h-7a.75.75 0 0 1-.75-.75Zm.75-4.25a.75.75 0 0 0 0 1.5h7a.75.75 0 0 0 0-1.5h-7ZM3 18.75c0-.41.34-.75.75-.75h16.5a.75.75 0 0 1 0 1.5H3.75a.75.75 0 0 1-.75-.75ZM4.5 11a2.5 2.5 0 0 1 5 0v4.75a.75.75 0 0 0 1.5 0V11a4 4 0 1 0-8 0v4.75a.75.75 0 0 0 1.5 0V11Z"/></svg>