<svg width="16" height="16" viewBox="0 0 16 16" xmlns="http://www.w3.org/2000/svg"><path d="M11 1a.5.5 0 000 1h2.54l-2.95 4.21A.5.5 0 0011 7h3.5a.5.5 0 100-1h-2.54l2.95-4.21A.5.5 0 0014.5 1H11zM6.5 5a.5.5 0 000 1h1.43L6.12 8.18A.5.5 0 006.5 9H9a.5.5 0 000-1H7.57l1.81-2.18A.5.5 0 009 5H6.5zM8 3a3.5 3.5 0 00-3.5 3.5V9a.5.5 0 01-.04.19L3.74 11h8.52l-.72-1.81A.5.5 0 0111.5 9v-.5a.5.5 0 011 0v.4l.96 2.41A.5.5 0 0113 12h-3a2 2 0 11-4 0H3a.5.5 0 01-.46-.69l.96-2.4V6.5a4.5 4.5 0 016.19-4.17.5.5 0 11-.38.92C8.91 3.1 8.47 3 8 3zm-1 9a1 1 0 102 0H7z"/></svg>