<svg width="16" height="16" viewBox="0 0 16 16" xmlns="http://www.w3.org/2000/svg"><path d="M10.5 1.5c0-.28.22-.5.5-.5h3.5a.5.5 0 01.41.79L11.96 6h2.54a.5.5 0 010 1H11a.5.5 0 01-.41-.79L13.54 2H11a.5.5 0 01-.5-.5zM6 5.5c0-.28.22-.5.5-.5H9a.5.5 0 01.38.82L7.57 8H9a.5.5 0 010 1H6.5a.5.5 0 01-.38-.82L7.93 6H6.5a.5.5 0 01-.5-.5zm4.34-.67l.97-1.38A4.49 4.49 0 003.5 6.5v2.4l-.96 2.41A.5.5 0 003 12h10a.5.5 0 00.46-.69l-.96-2.4V8H11a1.5 1.5 0 01-.65-.15A1.5 1.5 0 019 10H6.5a1.5 1.5 0 01-1.15-2.46l.55-.66A1.5 1.5 0 016.5 4H9c.57 0 1.09.32 1.34.83zM8 14.5A2 2 0 016.06 13h3.88A2 2 0 018 14.5z"/></svg>