<svg width="16" height="16" viewBox="0 0 16 16" xmlns="http://www.w3.org/2000/svg"><path d="M14 4.5A2.5 2.5 0 0 0 11.5 2h-7A2.5 2.5 0 0 0 2 4.5v7A2.5 2.5 0 0 0 4.5 14h1.76a5.5 5.5 0 0 1-.66-1H4.5A1.5 1.5 0 0 1 3 11.5V6h4.34a5.47 5.47 0 0 1 6.66.26V4.5Zm-3.5.5H3v-.5C3 3.67 3.67 3 4.5 3h7c.83 0 1.5.67 1.5 1.5V5h-2.5ZM6.64 9.92a2 2 0 0 0 1.43-2.48L7.9 6.9c.25-.2.53-.37.82-.5l.34.36a2 2 0 0 0 2.9 0l.33-.35c.3.14.58.32.84.52l-.13.42a2 2 0 0 0 1.46 2.52l.35.09a4.7 4.7 0 0 1 0 1.01l-.45.12a2 2 0 0 0-1.43 2.48l.15.55c-.25.2-.53.37-.82.5l-.34-.36a2 2 0 0 0-2.9 0l-.33.35c-.3-.14-.58-.32-.84-.52l.13-.42a2 2 0 0 0-1.46-2.52l-.35-.09a4.7 4.7 0 0 1 0-1.01l.46-.12Zm4.86.58a1 1 0 1 0-2 0 1 1 0 0 0 2 0Z"/></svg>