<svg width="24" height="24" viewBox="0 0 24 24" xmlns="http://www.w3.org/2000/svg"><path d="M4 5.25C4 3.45 5.46 2 7.25 2h9.5C18.55 2 20 3.46 20 5.25v5.03a1.76 1.76 0 00-.23.29A7 7 0 0012.1 22H7.25A3.25 3.25 0 014 18.75V5.25zM9 5a2 2 0 00-2 2v1c0 1.1.9 2 2 2h6a2 2 0 002-2V7a2 2 0 00-2-2H9zm.5 8.25a1.25 1.25 0 10-2.5 0 1.25 1.25 0 002.5 0zM8.25 18.5a1.25 1.25 0 100-2.5 1.25 1.25 0 000 2.5zm13-3.5c.41 0 .75-.34.75-.75V11.5a.75.75 0 00-1.5 0v.63A6 6 0 1023 17a.75.75 0 00-1.5 0 4.5 4.5 0 11-1.69-3.51h.01v.01H18.5a.75.75 0 000 1.5h2.75z"/></svg>