<svg width="24" height="24" viewBox="0 0 24 24" xmlns="http://www.w3.org/2000/svg"><path d="M7 7c0-1.1.9-2 2-2h6a2 2 0 012 2v1a2 2 0 01-2 2H9a2 2 0 01-2-2V7zm2-.5a.5.5 0 00-.5.5v1c0 .28.22.5.5.5h6a.5.5 0 00.5-.5V7a.5.5 0 00-.5-.5H9zm-.75 8a1.25 1.25 0 100-2.5 1.25 1.25 0 000 2.5zm1.25 2.75a1.25 1.25 0 11-2.5 0 1.25 1.25 0 012.5 0zM7.25 22h4.85a7.03 7.03 0 01-1.16-1.5H7.25c-.97 0-1.75-.78-1.75-1.75V5.25c0-.97.78-1.75 1.75-1.75h9.5c.97 0 1.75.78 1.75 1.75v4.91c.44.1.86.23 1.27.4a1.76 1.76 0 01.23-.28V5.25C20 3.45 18.54 2 16.75 2h-9.5A3.25 3.25 0 004 5.25v13.5C4 20.55 5.46 22 7.25 22zm14-7c.41 0 .75-.34.75-.75V11.5a.75.75 0 00-1.5 0v.63A6 6 0 1023 17a.75.75 0 00-1.5 0 4.5 4.5 0 11-1.69-3.51h.01v.01H18.5a.75.75 0 000 1.5h2.75z"/></svg>