<svg width="20" height="20" viewBox="0 0 20 20" xmlns="http://www.w3.org/2000/svg"><path d="M13.5 2h-7A2.5 2.5 0 0 0 4 4.5v11A2.5 2.5 0 0 0 6.5 18h3.77a5.48 5.48 0 0 1-.64-6.07 1 1 0 1 1 1.17-1.52A5.48 5.48 0 0 1 16 9.19V4.5A2.5 2.5 0 0 0 13.5 2Zm-6 2h5c.83 0 1.5.67 1.5 1.5v1c0 .83-.67 1.5-1.5 1.5h-5A1.5 1.5 0 0 1 6 6.5v-1C6 4.67 6.67 4 7.5 4Zm.5 7a1 1 0 1 1-2 0 1 1 0 0 1 2 0Zm0 3a1 1 0 1 1-2 0 1 1 0 0 1 2 0Zm9.5-1.52a.5.5 0 0 0 .5-.5v-2a.5.5 0 0 0-1 0v.76a4.5 4.5 0 1 0 2 3.74.5.5 0 1 0-1 0 3.5 3.5 0 1 1-1.7-3h-.8a.5.5 0 1 0 0 1h2Z"/></svg>