<svg width="24" height="24" viewBox="0 0 24 24" xmlns="http://www.w3.org/2000/svg"><path d="m9.56 7.5.06.12 5.3 13a1 1 0 0 1-1.8.87l-.05-.1-1.38-3.4H5.41l-1.5 3.42a1 1 0 0 1-1.2.55l-.11-.04a1 1 0 0 1-.56-1.2l.04-.12 5.7-13a1 1 0 0 1 1.78-.1ZM19 2a1 1 0 0 1 1 .88V7h1a1 1 0 0 1 1 .88V8a1 1 0 0 1-.88 1H20v7a1 1 0 0 1-.88 1H19a1 1 0 0 1-1-.88V3a1 1 0 0 1 1-1ZM8.66 10.57 6.28 16h4.6l-2.22-5.43ZM11 2h5a1 1 0 0 1 1 .88V5.97a4 4 0 0 1-4 4 1 1 0 1 1 0-2 2 2 0 0 0 2-1.85V4h-4a1 1 0 0 1-.12-2H16h-5Z"/></svg>