<svg width="32" height="32" viewBox="0 0 32 32" xmlns="http://www.w3.org/2000/svg"><path d="M5 7c0-2.76 4.92-5 11-5s11 2.24 11 5-4.92 5-11 5S5 9.76 5 7Zm0 6.25v-2.37c.73.61 1.57 1.1 2.4 1.48.56.25 1.16.48 1.8.68a18.33 18.33 0 0 0-4.2.21Zm19.6-.9A21.33 21.33 0 0 1 16 14c-.93 0-1.84-.05-2.72-.14.42.15.81.33 1.18.53 1.06.58 2.42 1.67 2.53 3.38l.01-.01V28c0 .78-.27 1.46-.65 2C22.26 29.9 27 27.7 27 25V10.88c-.73.61-1.57 1.1-2.4 1.48ZM1 28c0 .55.34 1.06.94 1.5C3.14 30.4 5.4 31 8 31c3.87 0 7-1.34 7-3v-7.33c-.44.33-.94.6-1.46.83l-.04.02c-.6.25-1.27.46-2 .62-1.08.23-2.27.36-3.5.36-2.09 0-4.05-.36-5.54-1A6.98 6.98 0 0 1 1 20.67V28Zm10.5-7.4c.77-.2 1.45-.45 2-.74.94-.51 1.5-1.16 1.5-1.86 0-.7-.56-1.35-1.5-1.86a8.53 8.53 0 0 0-2-.74c-1.03-.25-2.22-.4-3.5-.4-3.87 0-7 1.34-7 3s3.13 3 7 3c1.28 0 2.47-.15 3.5-.4Z"/></svg>