<svg width="32" height="32" viewBox="0 0 32 32" xmlns="http://www.w3.org/2000/svg"><path d="M27 7c0-2.76-4.92-5-11-5S5 4.24 5 7v6.25a16.9 16.9 0 0 1 2-.22V9.88C9 11.16 12.28 12 16 12c3.72 0 7-.84 9-2.12V25c0 .11-.2.87-2.05 1.71A16.6 16.6 0 0 1 17 27.98V28c0 .78-.27 1.46-.65 2C22.26 29.9 27 27.7 27 25V7Zm-2 0c0 .11-.2.87-2.05 1.71A17.4 17.4 0 0 1 16 10a17.4 17.4 0 0 1-6.95-1.29C7.19 7.87 7 7.11 7 7c0-.11.2-.87 2.05-1.71A17.4 17.4 0 0 1 16 4c2.82 0 5.27.52 6.95 1.29C24.81 6.13 25 6.89 25 7ZM1 28c0 .55.34 1.06.94 1.5C3.14 30.4 5.4 31 8 31c3.87 0 7-1.34 7-3v-7.33c-.44.33-.94.6-1.46.83l-.04.02c-.6.25-1.27.46-2 .62-1.08.23-2.27.36-3.5.36-2.09 0-4.05-.36-5.54-1A6.98 6.98 0 0 1 1 20.67V28Zm10.5-7.4c.77-.2 1.45-.45 2-.74.94-.51 1.5-1.16 1.5-1.86 0-.7-.56-1.35-1.5-1.86a8.53 8.53 0 0 0-2-.74c-1.03-.25-2.22-.4-3.5-.4-3.87 0-7 1.34-7 3s3.13 3 7 3c1.28 0 2.47-.15 3.5-.4Z"/></svg>