<svg width="28" height="28" viewBox="0 0 28 28" xmlns="http://www.w3.org/2000/svg"><path d="M21.75 3C23.55 3 25 4.46 25 6.25v8.25a7.49 7.49 0 0 0-1.5-.88V9.5h-19v12.25c0 .97.78 1.75 1.75 1.75h7.37c.24.54.53 1.04.88 1.5H6.25A3.25 3.25 0 0 1 3 21.75V6.25C3 4.45 4.46 3 6.25 3h15.5Zm0 1.5H6.25c-.97 0-1.75.78-1.75 1.75V8h19V6.25c0-.97-.78-1.75-1.75-1.75ZM20.5 27a6.5 6.5 0 1 0 0-13 6.5 6.5 0 0 0 0 13Zm-.9-9.4 4.03 2.27c.5.28.5.98 0 1.26L19.6 23.4a.73.73 0 0 1-1.1-.63v-4.54c0-.56.6-.91 1.1-.63Z"/></svg>