<svg width="16" height="16" viewBox="0 0 16 16" xmlns="http://www.w3.org/2000/svg"><path d="M6 11.5A5.5 5.5 0 0 1 11.5 6H2v5.5A2.5 2.5 0 0 0 4.5 14h2.1c-.38-.75-.6-1.6-.6-2.5Zm8-7A2.5 2.5 0 0 0 11.5 2h-7A2.5 2.5 0 0 0 2 4.5V5h12v-.5ZM11.5 16a4.5 4.5 0 1 0 0-9 4.5 4.5 0 0 0 0 9Zm-.74-6.55c.1 0 .18.03.26.08l2.3 1.51c.07.05.12.1.16.18a.54.54 0 0 1-.03.54.46.46 0 0 1-.13.13l-2.3 1.57a.54.54 0 0 1-.12.06.45.45 0 0 1-.32-.02.57.57 0 0 1-.16-.1.5.5 0 0 1-.14-.36V9.96a.5.5 0 0 1 .3-.46.44.44 0 0 1 .18-.05Z"/></svg>