<svg width="24" height="24" viewBox="0 0 24 24" xmlns="http://www.w3.org/2000/svg"><path d="M21 8.5v3.52A6.5 6.5 0 0 0 12.02 21H6.25A3.25 3.25 0 0 1 3 17.75V8.5h18ZM17.75 3C19.55 3 21 4.46 21 6.25V7H3v-.75C3 4.45 4.46 3 6.25 3h11.5Zm-.25 20a5.5 5.5 0 1 0 0-11 5.5 5.5 0 0 0 0 11Zm-.9-8c.11 0 .22.03.31.1l2.81 1.84a.6.6 0 0 1 .28.52.65.65 0 0 1-.11.36.56.56 0 0 1-.16.16l-2.8 1.92a.66.66 0 0 1-.17.07.55.55 0 0 1-.4-.02.7.7 0 0 1-.18-.13.61.61 0 0 1-.18-.44v-3.76a.62.62 0 0 1 .37-.57.53.53 0 0 1 .23-.05Z"/></svg>