<svg width="28" height="28" viewBox="0 0 28 28" xmlns="http://www.w3.org/2000/svg"><path d="M2 6.75A2.75 2.75 0 0 1 4.75 4h18.5A2.75 2.75 0 0 1 26 6.75v14.5A2.75 2.75 0 0 1 23.25 24H4.75A2.75 2.75 0 0 1 2 21.25V6.75ZM4.75 5.5c-.69 0-1.25.56-1.25 1.25v14.5c0 .69.56 1.25 1.25 1.25H8v-4c0-1.1.9-2 2-2h8a2 2 0 0 1 2 2v4h3.25c.7 0 1.25-.56 1.25-1.25V6.75c0-.69-.56-1.25-1.25-1.25H4.75Zm13.75 17v-4a.5.5 0 0 0-.5-.5h-8a.5.5 0 0 0-.5.5v4h9ZM14 9.5a2 2 0 1 0 0 4 2 2 0 0 0 0-4Zm-3.5 2a3.5 3.5 0 1 1 7 0 3.5 3.5 0 0 1-7 0Z"/></svg>