<svg width="48" height="48" viewBox="0 0 48 48" xmlns="http://www.w3.org/2000/svg"><path d="M24 26a6 6 0 1 0 0-12 6 6 0 0 0 0 12Zm0-2.5a3.5 3.5 0 1 1 0-7 3.5 3.5 0 0 1 0 7ZM4 11.75A3.75 3.75 0 0 1 7.75 8h32.5A3.75 3.75 0 0 1 44 11.75v24.5A3.75 3.75 0 0 1 40.25 40H7.75A3.75 3.75 0 0 1 4 36.25v-24.5Zm3.75-1.25c-.69 0-1.25.56-1.25 1.25v24.5c0 .69.56 1.25 1.25 1.25H14v-6.25c0-1.8 1.46-3.25 3.25-3.25h13.5c1.8 0 3.25 1.46 3.25 3.25v6.25h6.25c.69 0 1.25-.56 1.25-1.25v-24.5c0-.69-.56-1.25-1.25-1.25H7.75Zm23.75 27v-6.25a.75.75 0 0 0-.75-.75h-13.5a.75.75 0 0 0-.75.75v6.25h15Z"/></svg>