<svg width="20" height="20" viewBox="0 0 20 20" xmlns="http://www.w3.org/2000/svg"><path d="M1.8 2.1a.5.5 0 1 0-.6.8l2 1.5a.5.5 0 1 0 .6-.8l-2-1.5ZM1 7a.5.5 0 0 0 0 1h1.5a.5.5 0 0 0 0-1H1Zm11.45 9a2.5 2.5 0 0 1-4.9 0h4.9ZM10 2a5.92 5.92 0 0 1 5.98 5.35l.02.23V11.4l.95 2.6.03.08.01.09v.08c0 .32-.19.6-.51.71l-.12.03-.11.01H3.75a.75.75 0 0 1-.74-.76v-.12l.04-.13.95-2.58V7.57A5.9 5.9 0 0 1 10 2Zm8.9.2a.5.5 0 0 0-.7-.1l-2 1.5a.5.5 0 0 0 .6.8l2-1.5a.5.5 0 0 0 .1-.7Zm.6 5.3A.5.5 0 0 0 19 7h-1.5a.5.5 0 0 0 0 1H19a.5.5 0 0 0 .5-.5Z"/></svg>