<svg width="20" height="20" viewBox="0 0 20 20" xmlns="http://www.w3.org/2000/svg"><path d="M8.5 3a.5.5 0 0 0 0 1h3a.5.5 0 0 0 0-1h-3ZM5.54 4.05a2 2 0 0 0-1.5 1.55.5.5 0 0 1-.59.4.5.5 0 0 1-.38-.66 3 3 0 0 1 2.34-2.29.5.5 0 0 1 .6.4.5.5 0 0 1-.47.6ZM3.07 14.66a.5.5 0 0 1 .38-.66.5.5 0 0 1 .6.46A2 2 0 0 0 6 16h8a2 2 0 0 0 1.95-1.6.5.5 0 0 1 .6-.4.5.5 0 0 1 .38.66A3 3 0 0 1 14 17H6a3 3 0 0 1-2.93-2.34ZM14.6 3.06a3 3 0 0 1 2.36 2.36.5.5 0 0 1-.4.58.5.5 0 0 1-.6-.46 2 2 0 0 0-1.55-1.5.5.5 0 0 1-.4-.59.5.5 0 0 1 .6-.4ZM16.5 12a.5.5 0 0 1-.5-.5v-3a.5.5 0 0 1 1 0v3a.5.5 0 0 1-.5.5ZM3 11.5a.5.5 0 0 0 1 0v-3a.5.5 0 0 0-1 0v3Z"/></svg>