<svg width="24" height="24" viewBox="0 0 24 24" xmlns="http://www.w3.org/2000/svg"><path d="M6.54 5.48a8.46 8.46 0 0 1 4.71-1.95v1.72a.75.75 0 0 0 1.5 0V3.53a8.5 8.5 0 0 1 7.74 7.97h-1.74a.75.75 0 0 0 0 1.5h1.7a8.45 8.45 0 0 1-3.17 5.67.75.75 0 0 0 .94 1.16A9.93 9.93 0 0 0 22 12a10 10 0 1 0-16.23 7.83.75.75 0 0 0 .96-1.16A8.66 8.66 0 0 1 3.56 13h1.69a.75.75 0 0 0 0-1.5H3.51c.11-1.88.84-3.6 1.97-4.96l1.24 1.24a.75.75 0 0 0 1.06-1.06L6.54 5.48Zm10.22 1.15a.65.65 0 0 0-.8.02l-.23.18a396.1 396.1 0 0 0-4.21 3.6 37.86 37.86 0 0 0-1.1 1.05c-.66.8-.52 1.98.3 2.62.83.64 2.03.5 2.68-.3a37.18 37.18 0 0 0 .78-1.3 152.48 152.48 0 0 0 2.62-4.85l.13-.24a.61.61 0 0 0-.17-.78Z"/></svg>