<svg width="20" height="20" viewBox="0 0 20 20" xmlns="http://www.w3.org/2000/svg"><path d="M2.75 3.75c.41 0 .75.34.75.75V15A.75.75 0 0 1 2 15V4.5c0-.41.34-.75.75-.75Zm14.5 0c.41 0 .75.34.75.75v1.31a.75.75 0 0 1-1.5 0V4.5c0-.41.34-.75.75-.75Zm0 3.94c.41 0 .75.33.75.75v2.62a.75.75 0 0 1-1.5 0V8.44c0-.42.34-.75.75-.75Zm0 5.25c.41 0 .75.33.75.75V15a.75.75 0 0 1-1.5 0v-1.31c0-.42.34-.75.75-.75Zm-1.97-2.66c.3-.3.3-.77 0-1.06l-4.25-4.25a.75.75 0 1 0-1.06 1.06L12.94 9H5.75a.75.75 0 0 0 0 1.5h7.19l-2.97 2.97a.75.75 0 1 0 1.06 1.06l4.25-4.25Z"/></svg>