<svg width="16" height="16" viewBox="0 0 16 16" xmlns="http://www.w3.org/2000/svg"><path d="m11.45 12.15 2.7 2.7a.5.5 0 0 0 .7-.7l-13-13a.5.5 0 1 0-.7.7L4.5 5.21V7.5a.5.5 0 0 1-1 0V4.75a.75.75 0 0 0-1.5 0V9.5c0 .81.34 1.71.74 2.5.41.79.9 1.53 1.29 2.05.45.62 1.17.95 1.9.95h2.33c.96 0 1.8-.54 2.26-1.34.3-.52.61-1.03.93-1.5ZM8.5 6.38 7 4.88V1.75a.75.75 0 0 1 1.5 0v4.63Zm4.1 4.1-3.5-3.5a.5.5 0 0 0 .4-.48V2.75a.75.75 0 0 1 1.5 0v5.63c.18-.14.37-.27.57-.38.32-.18.7-.33 1.1-.34.42 0 .83.14 1.18.49.19.18.2.47.03.67l-.02.02a11.41 11.41 0 0 0-.3.37 40.8 40.8 0 0 0-.96 1.27ZM4.57 2.44 6 3.88V2.75a.75.75 0 0 0-1.43-.3Z"/></svg>