<svg width="16" height="16" viewBox="0 0 16 16" xmlns="http://www.w3.org/2000/svg"><path d="M3.3 4.01c-.73.1-1.3.73-1.3 1.49v4c0 .81.34 1.71.74 2.5.41.79.9 1.53 1.29 2.05.45.62 1.17.95 1.9.95h1.84c1.26 0 2.23-.94 2.66-1.97.19-.44.41-.85.66-1.23l3.06 3.05a.5.5 0 0 0 .7-.7l-13-13a.5.5 0 1 0-.7.7L3.3 4.01Zm7.07 7.06c-.32.48-.62 1-.86 1.57-.34.8-1.02 1.36-1.74 1.36H5.94c-.45 0-.86-.2-1.1-.54-.37-.5-.83-1.19-1.2-1.92A4.89 4.89 0 0 1 3 9.5v-4a.5.5 0 1 1 1 0v2a.5.5 0 0 0 1 0V5.7l5.37 5.37ZM6 3.5v.38l1 1V2.5a.5.5 0 0 1 1 0v3.38l.9.9A.5.5 0 0 0 9 6.5v-3a.5.5 0 0 1 1 0v4.38l.91.91c.42-.4.8-.65 1.13-.7a.7.7 0 0 1 .46.09c.09.05.19.12.3.24h-.02a13.35 13.35 0 0 0-1.15 1.09l.7.7a13.03 13.03 0 0 1 1.44-1.29l.02-.01a.5.5 0 0 0 .13-.69 2.76 2.76 0 0 0-.94-.92 1.7 1.7 0 0 0-1.09-.2c-.31.05-.61.18-.89.35V3.5a1.5 1.5 0 0 0-2.05-1.4 1.5 1.5 0 0 0-2.9 0 1.5 1.5 0 0 0-1.55.28l.71.71a.5.5 0 0 1 .79.4Z"/></svg>