<svg width="24" height="24" viewBox="0 0 24 24" xmlns="http://www.w3.org/2000/svg"><path d="M5 6.06 2.22 3.28a.75.75 0 1 1 1.06-1.06l18.5 18.5a.75.75 0 0 1-1.06 1.06l-4.3-4.3-.11.12c-.62.71-1.14 1.5-1.56 2.34l-.14.26a3.25 3.25 0 0 1-2.9 1.8H9.53a3 3 0 0 1-2.63-1.46C6.17 19.26 5 16.94 5 14.75V6.06Zm3 3-1-1V11a.5.5 0 0 0 1 0V9.06Zm2-2.24-2-2v-.57a1 1 0 0 1 2 0v2.57Zm3 3-2-2V3a1 1 0 1 1 2 0v6.82Zm5.38 5.38-4.45-4.45a.5.5 0 0 0 .07-.25V4.25a1 1 0 1 1 2 0v7.77c.38-.21.84-.4 1.36-.5.68-.14 1.45-.22 2.09-.14.3.04.66.12.96.31.33.22.59.58.59 1.06 0 .23-.1.45-.29.6l-2.2 1.7-.13.15Z"/></svg>