<svg width="24" height="24" viewBox="0 0 24 24" xmlns="http://www.w3.org/2000/svg"><path d="M4.83 5.9 2.22 3.28a.75.75 0 0 1 1.06-1.06l18.5 18.5a.75.75 0 0 1-1.06 1.06l-4.22-4.22c-.77.8-1.42 1.7-1.92 2.7A3.15 3.15 0 0 1 11.77 22H9.04a3 3 0 0 1-2.62-1.46c-.75-1.27-1.92-3.6-1.92-5.79V7c0-.4.12-.78.33-1.1Zm10.61 10.6L8.5 9.56v.94a.75.75 0 0 1-1.5 0V8.06l-1-1v7.7c0 1.74.98 3.77 1.71 5.03.26.44.76.71 1.33.71h2.73c.62 0 1.2-.35 1.47-.91a12.26 12.26 0 0 1 2.2-3.09ZM9.5 5.25v1.07l1.5 1.5V4c0-.28.21-.5.5-.5.29 0 .5.22.5.5v4.82l1.5 1.5V5.21c0-.24.2-.47.5-.47.26 0 .5.24.5.5v6.07l1.64 1.64.18-.14c.36-.25.81-.5 1.3-.58.54-.1 1.05-.04 1.4.14.2.1.36.26.44.53l-1.66 1.24a.76.76 0 0 0-.08.07l-.16.16 1.06 1.06.12-.12 1.96-1.47c.19-.14.3-.36.3-.6 0-1.06-.53-1.8-1.3-2.2a3.76 3.76 0 0 0-2.33-.29c-.52.1-.99.29-1.37.5V5.25a2.03 2.03 0 0 0-2.61-1.91A1.98 1.98 0 0 0 11.49 2c-.9 0-1.61.58-1.88 1.34a1.96 1.96 0 0 0-2.28.81L8.5 5.32v-.07c0-.28.22-.5.5-.5.29 0 .5.22.5.5Z"/></svg>