<svg width="28" height="28" viewBox="0 0 28 28" xmlns="http://www.w3.org/2000/svg"><path d="m19.28 20.34-.55.75c-.39.53-.73 1.1-1.03 1.7l-.7 1.4a3.25 3.25 0 0 1-2.9 1.8h-3.6a3.06 3.06 0 0 1-2.86-1.85C6.98 22.54 6 19.77 6 17.25V7.06L2.22 3.28a.75.75 0 1 1 1.06-1.06l22.5 22.5a.75.75 0 0 1-1.06 1.06l-5.44-5.44ZM8 9.06v3.69a.75.75 0 0 0 1.5 0v-2.19L8 9.06Zm13.52 8.25-.44.6-4.98-5c.24-.12.4-.37.4-.66V4.5a1 1 0 1 1 2 0v9.86a8.1 8.1 0 0 1 1.97-.84c.8-.21 1.68-.3 2.42-.16.36.07.75.21 1.06.47.34.28.55.68.55 1.17 0 .26-.13.5-.35.63l-2.63 1.68ZM15 3v8.82l-2-2V3a1 1 0 1 1 2 0Zm-3.5 1.5v3.82l-2-2V4.5a1 1 0 0 1 2 0Z"/></svg>