<svg width="28" height="28" viewBox="0 0 28 28" xmlns="http://www.w3.org/2000/svg"><path d="M3.28 2.22a.75.75 0 1 0-1.06 1.06l3.4 3.41c-.39.42-.62 1-.62 1.58v8.98c0 1.41.43 2.88.96 4.15a22.3 22.3 0 0 0 1.67 3.2c.57.91 1.57 1.4 2.6 1.4h3.86c1.24 0 2.37-.7 2.92-1.81l.37-.77c.5-.98 1.13-1.9 1.88-2.7l.2-.2 5.26 5.26a.75.75 0 0 0 1.06-1.06L3.28 2.22Zm15.11 17.23-.22.24c-.86.91-1.58 1.95-2.13 3.07l-.38.76c-.3.6-.9.98-1.57.98h-3.86c-.56 0-1.06-.27-1.33-.7a20.8 20.8 0 0 1-1.55-2.97 9.7 9.7 0 0 1-.85-3.58V8.27c0-.2.07-.38.2-.52L8 9.06v3.69a.75.75 0 0 0 1.5 0v-2.19l1.5 1.5v.19a.75.75 0 0 0 .92.73l6.47 6.47ZM8.15 4.97 9.5 6.32V5.8c0-.45.33-.8.75-.8s.75.35.75.8v2.02l1.5 1.5V4.27c0-.42.32-.77.75-.77.44 0 .75.33.75.76v6.56l1.5 1.5V5.76c0-.4.32-.76.75-.76.38 0 .75.36.75.8v8.02l1.38 1.38.05-.05c.24-.22.4-.36.63-.5.27-.15.66-.3 1.38-.4.66-.11 1.34-.02 1.83.24.35.19.6.47.7.9l-2.15 1.5a.76.76 0 0 0-.12.1l-.26.27 1.07 1.06.23-.25 2.44-1.7c.2-.15.32-.38.32-.62 0-1.24-.64-2.1-1.52-2.58a4.5 4.5 0 0 0-2.77-.41c-.74.11-1.27.28-1.71.5V5.8a2.3 2.3 0 0 0-2.26-2.3c-.3 0-.57.06-.82.16A2.21 2.21 0 0 0 13.25 2c-1.1 0-1.91.74-2.17 1.66a2.24 2.24 0 0 0-2.93 1.31Z"/></svg>