<svg width="20" height="20" viewBox="0 0 20 20" xmlns="http://www.w3.org/2000/svg"><path d="M14.25 2c.41 0 .75.34.75.75v12.57l1.45-1.58a.75.75 0 0 1 1.1 1.02l-2.75 3a.75.75 0 0 1-1.1 0l-2.75-3a.75.75 0 0 1 1.1-1.02l1.45 1.58V2.75c0-.41.34-.75.75-.75ZM7.33 5.5A2 2 0 0 0 6 2a2 2 0 0 0-1.33 3.5L2.81 9.95a.75.75 0 0 0 1.38.58l.44-1.04h2.75l.43 1.04a.75.75 0 0 0 1.38-.58L7.33 5.5ZM6.75 8h-1.5L6 6.2 6.75 8ZM5.5 4a.5.5 0 1 1 1 0 .5.5 0 0 1-1 0Zm1.2 6.96a.75.75 0 0 0-1.4 0l-2.5 6a.75.75 0 0 0 1.4.58l.43-1.04h2.75l.43 1.04a.75.75 0 0 0 1.38-.58l-2.5-6ZM6.74 15h-1.5L6 13.2l.75 1.8Z"/></svg>