<svg width="16" height="16" viewBox="0 0 16 16" xmlns="http://www.w3.org/2000/svg"><path d="M12 1.5a.5.5 0 0 0-1 0v11.8l-1.15-1.15a.5.5 0 0 0-.7.7l2 2c.2.2.5.2.7 0l2-2a.5.5 0 0 0-.7-.7L12 13.29V1.5ZM5.46 9.31l2 5a.5.5 0 1 1-.92.38L6.26 14H3.74l-.28.69a.5.5 0 1 1-.92-.38l2-5a.5.5 0 0 1 .92 0Zm.4 3.69L5 10.85 4.14 13h1.72ZM4.33 3.84l-1.8 4.47a.5.5 0 0 0 .93.38l.28-.7L6.26 8l.28.69a.5.5 0 0 0 .92-.38L5.67 3.84a1.5 1.5 0 1 0-1.34 0Zm.67 1L5.86 7H4.14L5 4.85ZM4.5 2.5a.5.5 0 1 1 1 0 .5.5 0 0 1-1 0Z"/></svg>