<svg width="16" height="16" viewBox="0 0 16 16" xmlns="http://www.w3.org/2000/svg"><path d="m7.2 10.5.65-.65a.5.5 0 1 0-.7-.7l-.65.64-.65-.64a.5.5 0 1 0-.7.7l.64.65-.64.65a.5.5 0 0 0 .7.7l.65-.64.65.64a.5.5 0 1 0 .7-.7l-.64-.65ZM3.6 1.59A2 2 0 0 1 5 1h3.59c.4 0 .77.16 1.06.44l2.91 2.91c.28.29.44.67.44 1.06V13a2 2 0 0 1-2 2H5a2 2 0 0 1-2-2V3a2 2 0 0 1 .59-1.41ZM12 11V6H9.5A1.5 1.5 0 0 1 8 4.5V2H5a1 1 0 0 0-1 1v10a1 1 0 0 0 1 1h6a1 1 0 0 0 1-1v-1H9.5a.5.5 0 0 1 0-1H12ZM9.5 5h2.3L9 2.2v2.3a.5.5 0 0 0 .5.5Z"/></svg>