<svg width="28" height="28" viewBox="0 0 28 28" xmlns="http://www.w3.org/2000/svg"><path d="M5 9.5a4.5 4.5 0 119 0 4.5 4.5 0 01-9 0zm4.5-3a3 3 0 100 6 3 3 0 000-6zm7 4a3.5 3.5 0 117 0 3.5 3.5 0 01-7 0zm3.5-2a2 2 0 100 4 2 2 0 000-4zM2 18.25C2 17.01 3 16 4.25 16h10.5c.24 0 .46.04.68.1a1.74 1.74 0 00-.4 1.45.75.75 0 00-.28-.05H4.25a.75.75 0 00-.75.75v.61l.08.41c.09.35.26.81.61 1.28.68.9 2.12 1.95 5.31 1.95 3.2 0 4.63-1.05 5.3-1.95l.2-.29c0 .61.32 1.15.8 1.46a5.22 5.22 0 01-.35.36C14.33 23.16 12.49 24 9.5 24 5.94 24 4 22.8 3 21.45a5.09 5.09 0 01-1-2.67v-.53zm14.75-1.75a.75.75 0 000 1.5h8.5a.75.75 0 000-1.5h-8.5zm0 3a.75.75 0 000 1.5h8.5a.75.75 0 000-1.5h-8.5zm0 3a.75.75 0 000 1.5h8.5a.75.75 0 000-1.5h-8.5z"/></svg>