<svg width="28" height="28" viewBox="0 0 28 28" xmlns="http://www.w3.org/2000/svg"><path d="M9.5 2a5.5 5.5 0 110 11 5.5 5.5 0 010-11zM17 16.85A2 2 0 0015 15H3.85A2 2 0 002 17v2.75c.17 4 4.35 5.25 7.5 5.25 1.94 0 4.26-.47 5.8-1.77a1.74 1.74 0 01.55-2.48 1.75 1.75 0 01.9-3.25H17v-.65zm1 .65h7.25c.27 0 .52.06.75.17V16.85A2 2 0 0024 15h-6.78l.13.15c.4.51.65 1.15.65 1.85v.5zM16.75 23a.75.75 0 010-1.5h8.5a.75.75 0 010 1.5h-8.5zm8.5-3a.75.75 0 000-1.5h-8.5a.75.75 0 000 1.5h8.5zM25 8.5a4.5 4.5 0 10-9 0 4.5 4.5 0 009 0zM16.75 26a.75.75 0 010-1.5h8.5a.75.75 0 010 1.5h-8.5z"/></svg>