<svg width="24" height="24" viewBox="0 0 24 24" xmlns="http://www.w3.org/2000/svg"><path d="M13 13a2 2 0 011.94 1.5h-1.19c-.17 0-.34.02-.5.07a.5.5 0 00-.16-.06L13 14.5H3.9a.5.5 0 00-.25.14.5.5 0 00-.14.26l-.01.1v1.5c0 1 .45 1.72 1.42 2.24.82.45 2 .72 3.26.76h.64a7.76 7.76 0 003.18-.71c.01.47.2.9.53 1.21-.1.1-.19.2-.26.31-1.18.5-2.56.69-3.77.69-2.72 0-6.34-.96-6.5-4.27V15a2 2 0 011.85-2H13zm2.95 1.5c-.08-.5-.3-.96-.6-1.34l-.13-.16H20a2 2 0 011.97 1.65c-.22-.1-.46-.15-.72-.15h-5.3zm5.3 1a.75.75 0 010 1.5h-7.5a.75.75 0 01-.75-.75.75.75 0 01.75-.75h7.5zm0 2.5a.75.75 0 110 1.5h-7.6a.75.75 0 01.1-1.5h7.5zM8.5 2a4.5 4.5 0 110 9 4.5 4.5 0 010-9zm0 1.5a3 3 0 100 6 3 3 0 000-6zm9 .5a3.5 3.5 0 110 7 3.5 3.5 0 010-7zm0 1.5a2 2 0 100 4 2 2 0 000-4zM13 21.25c0-.41.34-.75.75-.75h7.5a.75.75 0 010 1.5h-7.5a.75.75 0 01-.75-.75z"/></svg>