<svg width="28" height="28" viewBox="0 0 28 28" xmlns="http://www.w3.org/2000/svg"><path d="M15 15a2 2 0 012 1.85v.65h-.25c-.49 0-.93.2-1.25.53V17a.5.5 0 00-.41-.5H4l-.1.01a.5.5 0 00-.25.14.5.5 0 00-.14.25l-.01.1v2.5c0 1.34.59 2.33 1.8 3.02 1 .58 2.38.93 3.86.97l.34.01.43-.01c1.22-.05 3.95-.38 5.07-2.16V22h.02a1.76 1.76 0 00.28 1.23C13.76 24.54 11.44 25 9.5 25c-3.15 0-7.33-1.25-7.5-5.25V17a2 2 0 011.85-2H15zm1 4.25c0-.41.34-.75.75-.75h8.5a.75.75 0 110 1.5h-8.5a.75.75 0 01-.75-.75zm.75 2.25l-.14.01a.75.75 0 00.14 1.49h8.5a.75.75 0 000-1.5h-8.5zm8.5-4c.27 0 .52.06.75.17V16.84a2 2 0 00-1.85-1.83L24 15h-6.78l.13.16c.3.38.51.84.6 1.34h6.14a.5.5 0 01.41.5v.5h.75zM9.5 2a5.5 5.5 0 110 11 5.5 5.5 0 010-11zm0 1.5a4 4 0 100 8 4 4 0 000-8zm11 .5a4.5 4.5 0 110 9 4.5 4.5 0 010-9zm0 1.5a3 3 0 100 6 3 3 0 000-6zM16 25.25c0-.41.34-.75.75-.75h8.5a.75.75 0 010 1.5h-8.5a.75.75 0 01-.75-.75z"/></svg>