<svg width="24" height="24" viewBox="0 0 24 24" xmlns="http://www.w3.org/2000/svg"><path d="M13.5 13c.78 0 1.42.6 1.5 1.36v.14h-1.25a1.75 1.75 0 00-1.22 3 1.74 1.74 0 000 2.5c-.1.1-.19.2-.26.31-1.18.5-2.56.69-3.77.69-2.72 0-6.34-.96-6.5-4.27V14.5c0-.78.6-1.42 1.36-1.5H13.5zm-.5 3.25c0-.41.34-.75.75-.75h7.5a.75.75 0 010 1.5h-7.5a.75.75 0 01-.75-.75zm0 2.5c0-.41.34-.75.75-.75h7.5a.75.75 0 110 1.5h-7.6a.75.75 0 01-.65-.75zm8.25-4.25c.27 0 .52.06.75.17V14.36A1.5 1.5 0 0020.5 13h-5.01l.11.16c.25.39.4.85.4 1.34h5.25zM8.5 2a4.5 4.5 0 110 9 4.5 4.5 0 010-9zm9 2a3.5 3.5 0 110 7 3.5 3.5 0 010-7zM13 21.25c0-.41.34-.75.75-.75h7.5a.75.75 0 010 1.5h-7.5a.75.75 0 01-.75-.75z"/></svg>