<svg width="16" height="16" viewBox="0 0 16 16" xmlns="http://www.w3.org/2000/svg"><path d="M4 5.5a1.5 1.5 0 113 0 1.5 1.5 0 01-3 0zM5.5 3a2.5 2.5 0 100 5 2.5 2.5 0 000-5zm5 3a1 1 0 112 0 1 1 0 01-2 0zm1-2a2 2 0 100 4 2 2 0 000-4zM8 9h.08a1.5 1.5 0 000 1H3a.5.5 0 00-.5.5v.15l.04.2c.04.18.13.42.3.65.33.45 1.04 1 2.66 1 1.41 0 2.13-.42 2.51-.82.04.31.17.6.37.82-.1.1-.17.23-.23.36-.61.38-1.46.64-2.65.64-1.88 0-2.92-.65-3.47-1.4a2.85 2.85 0 01-.53-1.49v-.11C1.5 9.67 2.17 9 3 9h5zm1.5 0a.5.5 0 000 1h5a.5.5 0 000-1h-5zm0 2a.5.5 0 000 1h5a.5.5 0 000-1h-5zm0 2a.5.5 0 000 1h5a.5.5 0 000-1h-5z"/></svg>