<svg width="28" height="28" viewBox="0 0 28 28" xmlns="http://www.w3.org/2000/svg"><path d="M9.5 14a4.5 4.5 0 100-9 4.5 4.5 0 000 9zm14-3.5a3.5 3.5 0 11-7 0 3.5 3.5 0 017 0zM2 18.25C2 17.01 3 16 4.25 16h10.5c.24 0 .46.04.68.1a1.74 1.74 0 00.42 2.65 1.75 1.75 0 00-.05 2.97 5.2 5.2 0 01-.39.4C14.34 23.14 12.53 24 9.5 24 2 24 2 18.75 2 18.75v-.5zm14.75-1.75a.75.75 0 000 1.5h8.5a.75.75 0 000-1.5h-8.5zm0 3a.75.75 0 000 1.5h8.5a.75.75 0 000-1.5h-8.5zm0 3a.75.75 0 000 1.5h8.5a.75.75 0 000-1.5h-8.5z"/></svg>