<svg width="20" height="20" viewBox="0 0 20 20" xmlns="http://www.w3.org/2000/svg"><path d="M5.5 3A2.5 2.5 0 0 0 3 5.5v9A2.5 2.5 0 0 0 5.5 17h4.1c-.16-.32-.3-.65-.4-1H5.5A1.5 1.5 0 0 1 4 14.5V13h5.2c.1-.35.24-.68.4-1H8V8h8v1.2c.35.1.68.24 1 .4V5.5A2.5 2.5 0 0 0 14.5 3h-9ZM7 12H4V8h3v4ZM4 7V5.5C4 4.67 4.67 4 5.5 4H12v3H4Zm12-1.5V7h-3V4h1.5c.83 0 1.5.67 1.5 1.5Zm3 9a4.5 4.5 0 1 1-9 0 4.5 4.5 0 0 1 9 0Zm-4-2a.5.5 0 0 0-1 0V14h-1.5a.5.5 0 0 0 0 1H14v1.5a.5.5 0 0 0 1 0V15h1.5a.5.5 0 0 0 0-1H15v-1.5Z"/></svg>