<svg width="20" height="20" viewBox="0 0 20 20" xmlns="http://www.w3.org/2000/svg"><path d="M10 3c2.46 0 3.86 1.57 4.07 3.47h.06A2.82 2.82 0 0 1 17 9.24 2.82 2.82 0 0 1 14.13 12h-.73l-.96 1.74a.5.5 0 0 1-.88-.48l.7-1.26H10.4l-.96 1.74a.5.5 0 0 1-.88-.48l.7-1.26H7.4l-.96 1.74a.5.5 0 0 1-.88-.48l.7-1.26h-.39A2.82 2.82 0 0 1 3 9.24c0-1.47 1.2-2.67 2.7-2.76h.23C6.13 4.55 7.53 3 10 3Zm-2.89 8h7.07c1 0 1.82-.78 1.82-1.74s-.81-1.74-1.82-1.74h-.55c-.29 0-.54-.22-.54-.5A3.02 3.02 0 0 0 10 4a3.04 3.04 0 0 0-3.09 3.02c0 .28-.25.5-.54.5h-.55c-1 0-1.82.78-1.82 1.74S4.81 11 5.82 11H7.1Zm.64 3.32a.5.5 0 0 1 .18.68l-1 1.75a.5.5 0 0 1-.86-.5l1-1.75a.5.5 0 0 1 .68-.18Zm3.18.68a.5.5 0 0 0-.86-.5l-1 1.75a.5.5 0 0 0 .86.5l1-1.75Z"/></svg>