<svg width="20" height="20" viewBox="0 0 20 20" xmlns="http://www.w3.org/2000/svg"><path d="M10 3c2.46 0 3.86 1.57 4.07 3.47h.06A2.82 2.82 0 0 1 17 9.24 2.82 2.82 0 0 1 14.13 12h-.73l-.96 1.74a.5.5 0 0 1-.88-.48l.7-1.26H10.4l-.96 1.74a.5.5 0 0 1-.88-.48l.7-1.26H7.4l-.96 1.74a.5.5 0 0 1-.88-.48l.7-1.26h-.39A2.82 2.82 0 0 1 3 9.24c0-1.47 1.2-2.67 2.7-2.76h.23C6.13 4.55 7.53 3 10 3ZM7.75 14.32a.5.5 0 0 1 .18.68l-1 1.75a.5.5 0 0 1-.86-.5l1-1.75a.5.5 0 0 1 .68-.18Zm3.18.68a.5.5 0 0 0-.86-.5l-1 1.75a.5.5 0 0 0 .86.5l1-1.75Z"/></svg>