<svg width="24" height="24" viewBox="0 0 24 24" xmlns="http://www.w3.org/2000/svg"><path d="M8.75 5a.75.75 0 000 1.5h1.5a.75.75 0 000-1.5h-1.5zM8 8.75c0-.41.34-.75.75-.75h1.5a.75.75 0 010 1.5h-1.5A.75.75 0 018 8.75zM8.75 11a.75.75 0 000 1.5h1.5a.75.75 0 000-1.5h-1.5zM5 4c0-1.1.9-2 2-2h6.23a2 2 0 011.42.59l3.76 3.76A2 2 0 0119 7.77V17a2 2 0 01-2 2H7a2 2 0 01-2-2V4zm2-.5a.5.5 0 00-.5.5v13c0 .28.22.5.5.5h10a.5.5 0 00.5-.5V8.5h-3.25c-.97 0-1.75-.78-1.75-1.75V3.5H7zm7 .56v2.69c0 .14.11.25.25.25h2.69L14 4.06zM3.5 15.75a.75.75 0 00-1.5 0v1.75A4.5 4.5 0 006.5 22h11a4.5 4.5 0 004.5-4.5v-1.75a.75.75 0 00-1.5 0v1.75a3 3 0 01-3 3h-11a3 3 0 01-3-3v-1.75z"/></svg>