<svg width="24" height="24" viewBox="0 0 24 24" xmlns="http://www.w3.org/2000/svg"><path d="M7 2a2 2 0 00-2 2v13c0 1.1.9 2 2 2h10a2 2 0 002-2V8.5h-4.75c-.97 0-1.75-.78-1.75-1.75V2H7zm1.75 3h1.5a.75.75 0 010 1.5h-1.5a.75.75 0 010-1.5zM8 8.75c0-.41.34-.75.75-.75h1.5a.75.75 0 010 1.5h-1.5A.75.75 0 018 8.75zM8.75 11h1.5a.75.75 0 010 1.5h-1.5a.75.75 0 010-1.5zM14 2l5 5h-4.75a.25.25 0 01-.25-.25V2zM2.75 15c.41 0 .75.34.75.75v1.75a3 3 0 003 3h11a3 3 0 003-3v-1.75a.75.75 0 011.5 0v1.75a4.5 4.5 0 01-4.5 4.5h-11A4.5 4.5 0 012 17.5v-1.75c0-.41.34-.75.75-.75zM12.5 2H14z"/></svg>