<svg width="24" height="24" viewBox="0 0 24 24" xmlns="http://www.w3.org/2000/svg"><path d="m19.53 3.22 2 2a.75.75 0 0 1-1.06 1.06l-.72-.72v4.69a.75.75 0 0 1-1.5 0V5.56l-.72.72a.75.75 0 1 1-1.06-1.06l2-2a.75.75 0 0 1 1.06 0ZM2 5.75c0-.41.34-.75.75-.75h8.5a.75.75 0 0 1 0 1.5h-8.5A.75.75 0 0 1 2 5.75Zm0 6.5c0-.41.34-.75.75-.75h11.5a.75.75 0 0 1 0 1.5H2.75a.75.75 0 0 1-.75-.75ZM2.75 18a.75.75 0 0 0 0 1.5h8.5a.75.75 0 0 0 0-1.5h-8.5Zm15.5.44v-4.69a.75.75 0 0 1 1.5 0v4.69l.72-.72a.75.75 0 1 1 1.06 1.06l-2 2a.75.75 0 0 1-1.06 0l-2-2a.75.75 0 1 1 1.06-1.06l.72.72Z"/></svg>