<svg width="16" height="16" viewBox="0 0 16 16" xmlns="http://www.w3.org/2000/svg"><path d="M5 1c.28 0 .5.22.5.5V2h2v-.5a.5.5 0 011 0V2h2v-.5a.5.5 0 011 0V2c.83 0 1.5.67 1.5 1.5v1.9a2.99 2.99 0 00-2.6-.2.5.5 0 00-.4-.2H6a.5.5 0 000 1h3.26a2.99 2.99 0 00-.76 2H6a.5.5 0 000 1h2.67a3 3 0 00.6 1.02 1.5 1.5 0 00-.38.1A2.3 2.3 0 007 12.39c0 .93.38 1.8 1 2.42v.2H4.5A1.5 1.5 0 013 13.5v-10C3 2.67 3.67 2 4.5 2v-.5c0-.28.22-.5.5-.5zm.5 10.5c0 .28.22.5.5.5h.5a.5.5 0 000-1H6a.5.5 0 00-.5.5zm3.83-.41H9.2A1.3 1.3 0 008 12.38a2.48 2.48 0 001.21 2.12c.23.13.48.24.75.3l.08.03a6.2 6.2 0 002.92 0l.08-.02A2.52 2.52 0 0015 12.38c0-.72-.6-1.3-1.33-1.3H9.33zM11.5 6a2 2 0 110 4 2 2 0 01-2-2c0-1.1.9-2 2-2z"/></svg>