<svg width="24" height="24" viewBox="0 0 24 24" xmlns="http://www.w3.org/2000/svg"><path d="M5.75 22c-1.24 0-2.25-1-2.25-2.25v-14c0-1.24 1-2.25 2.25-2.25h.75v-.75c0-.38.28-.7.65-.74l.1-.01c.38 0 .7.28.74.65l.01.1v.75h3v-.75c0-.38.28-.7.65-.74l.1-.01c.38 0 .7.28.74.65l.01.1v.75h3v-.75c0-.38.28-.7.65-.74l.1-.01c.38 0 .7.28.74.65l.01.1v.75h.75c1.24 0 2.25 1 2.25 2.25v5.59a3.49 3.49 0 00-1.5-.34V5.75a.75.75 0 00-.75-.75h-12c-.42 0-.75.34-.75.75v14c0 .42.34.75.75.75h7.3c.1.53.3 1.04.62 1.5H5.75zm1.5-6h4a.75.75 0 01.1 1.5h-4.1a.75.75 0 01-.1-1.5h.1zm0-8h9a.75.75 0 01.1 1.5h-9.1a.75.75 0 01-.1-1.5h.1zm11.25 9a2.5 2.5 0 100-5 2.5 2.5 0 000 5zm0 6c3.21 0 4.5-1.57 4.5-3.13v-.1c0-.98-.8-1.77-1.77-1.77h-5.46c-.98 0-1.77.8-1.77 1.77v.1c0 1.57 1.29 3.13 4.5 3.13zM7.25 12a.75.75 0 000 1.5h6a.75.75 0 000-1.5h-6z"/></svg>