<svg width="24" height="24" viewBox="0 0 24 24" xmlns="http://www.w3.org/2000/svg"><path d="M16.25 2c.38 0 .7.28.74.65l.01.1v.75h.75c1.24 0 2.25 1 2.25 2.25v5.59A3.5 3.5 0 0016.05 17h-.28A2.77 2.77 0 0013 19.77v.1c0 .75.21 1.49.67 2.13H5.75c-1.24 0-2.25-1-2.25-2.25v-14c0-1.24 1-2.25 2.25-2.25h.75v-.75a.75.75 0 011.5-.1v.85h3v-.75a.75.75 0 011.5-.1v.85h3v-.75c0-.41.34-.75.75-.75zm-5 14h-4.1a.75.75 0 000 1.5H11.35a.75.75 0 000-1.5h-.1zm5-8h-9.1a.75.75 0 000 1.5h9.2a.75.75 0 000-1.5h-.1zM6.5 12.75c0 .41.34.75.75.75h6a.75.75 0 000-1.5h-6a.75.75 0 00-.75.75zM21 14.5a2.5 2.5 0 11-5 0 2.5 2.5 0 015 0zm2 5.38c0 1.55-1.29 3.12-4.5 3.12S14 21.44 14 19.87v-.1c0-.98.8-1.77 1.77-1.77h5.46c.98 0 1.77.8 1.77 1.77v.1z"/></svg>