<svg width="16" height="16" viewBox="0 0 16 16" xmlns="http://www.w3.org/2000/svg"><path d="M4.65 4.65c.2-.2.5-.2.7 0L7 6.29l1.65-1.64a.5.5 0 1 1 .7.7L7.71 7l1.64 1.65a.5.5 0 1 1-.7.7L7 7.71 5.35 9.35a.5.5 0 1 1-.7-.7L6.29 7 4.65 5.35a.5.5 0 0 1 0-.7ZM4 2a2 2 0 0 0-2 2v6c0 1.1.9 2 2 2h6a2 2 0 0 0 2-2V4a2 2 0 0 0-2-2H4ZM3 4a1 1 0 0 1 1-1h6a1 1 0 0 1 1 1v6a1 1 0 0 1-1 1H4a1 1 0 0 1-1-1V4Zm10-.73c.6.34 1 .99 1 1.73v5.5a3.5 3.5 0 0 1-3.5 3.5H5a2 2 0 0 1-1.73-1h7.23a2.5 2.5 0 0 0 2.5-2.5V3.27Z"/></svg>