<svg width="24" height="24" viewBox="0 0 24 24" xmlns="http://www.w3.org/2000/svg"><path d="M2 7.25C2 5.45 3.46 4 5.25 4h13.5C20.55 4 22 5.46 22 7.25v9.5c0 1.8-1.46 3.25-3.25 3.25H5.25A3.25 3.25 0 0 1 2 16.75v-9.5Zm16.5.5v.5a.75.75 0 0 0 1.5 0v-.5a.75.75 0 0 0-1.5 0Zm.75 7.25a.75.75 0 0 0-.75.75v.5a.75.75 0 0 0 1.5 0v-.5a.75.75 0 0 0-.75-.75Zm-.75-3.25v.5a.75.75 0 0 0 1.5 0v-.5a.75.75 0 0 0-1.5 0ZM4.75 7a.75.75 0 0 0-.75.75v.5a.75.75 0 0 0 1.5 0v-.5A.75.75 0 0 0 4.75 7ZM4 15.75v.5a.75.75 0 0 0 1.5 0v-.5a.75.75 0 0 0-1.5 0ZM4.75 11a.75.75 0 0 0-.75.75v.5a.75.75 0 0 0 1.5 0v-.5a.75.75 0 0 0-.75-.75Z"/></svg>