<svg width="24" height="24" viewBox="0 0 24 24" xmlns="http://www.w3.org/2000/svg"><path d="M10.79 3.1c.5-1 1.92-1 2.42 0l2.36 4.78 5.27.77c1.1.16 1.55 1.52.75 2.3l-.9.88a6.46 6.46 0 0 0-1.52-.61l1.15-1.13-5.05-.74a1.35 1.35 0 0 1-1.01-.73L12 4.04 9.74 8.62c-.2.4-.58.67-1.02.73l-5.05.74 3.66 3.56c.32.31.46.76.39 1.2l-.87 5.02L11 17.7c.02.54.1 1.07.24 1.57l-3.96 2.08a1.35 1.35 0 0 1-1.96-1.42l.9-5.25-3.81-3.72c-.8-.78-.36-2.14.75-2.3l5.27-.77 2.36-4.78ZM23 17.5a5.5 5.5 0 1 1-11 0 5.5 5.5 0 0 1 11 0Zm-7.15-2.35a.5.5 0 0 0-.7.7l1.64 1.65-1.64 1.65a.5.5 0 0 0 .7.7l1.65-1.64 1.65 1.64a.5.5 0 0 0 .7-.7l-1.64-1.65 1.64-1.65a.5.5 0 0 0-.7-.7l-1.65 1.64-1.65-1.64Z"/></svg>