<svg width="20" height="20" viewBox="0 0 20 20" xmlns="http://www.w3.org/2000/svg"><path d="M3 13.5A3.5 3.5 0 0 0 6.5 17h7.83c-.77.63-1.76 1-2.83 1h-5A4.5 4.5 0 0 1 2 13.5v-5c0-1.07.37-2.06 1-2.83v7.83Zm1.73 1.77A2.5 2.5 0 0 1 4 13.5v-9A2.5 2.5 0 0 1 6.5 2h9A2.5 2.5 0 0 1 18 4.5v9a2.5 2.5 0 0 1-2.5 2.5h-9a2.5 2.5 0 0 1-1.77-.73ZM17 6V4.5A1.5 1.5 0 0 0 15.64 3H14v3h3Zm-4-3H9v3h4V3ZM8 3H6.5A1.5 1.5 0 0 0 5 4.36V6h3V3Zm1 4v4h4V7H9Zm-4 4h3V7H5v4Zm4 1v3h4v-3H9Zm-2.5 3H8v-3H5v1.5A1.5 1.5 0 0 0 6.36 15h.14Zm7.5-3v3h1.5a1.5 1.5 0 0 0 1.5-1.36V12h-3Zm0-5v4h3V7h-3Z"/></svg>