<svg width="48" height="48" viewBox="0 0 48 48" xmlns="http://www.w3.org/2000/svg"><path d="M32.5 26a2.5 2.5 0 110-5 2.5 2.5 0 010 5zm-11-2.5a2.5 2.5 0 105 0 2.5 2.5 0 00-5 0zm-6 2.5a2.5 2.5 0 110-5 2.5 2.5 0 010 5zM30 31.5a2.5 2.5 0 105 0 2.5 2.5 0 00-5 0zM24 34a2.5 2.5 0 110-5 2.5 2.5 0 010 5zm18-21.75C42 8.8 39.2 6 35.75 6h-23.5A6.25 6.25 0 006 12.25v23.5C6 39.2 8.8 42 12.25 42h23.5C39.2 42 42 39.2 42 35.75v-23.5zM35.75 8.5a3.75 3.75 0 013.75 3.75V14h-31v-1.75a3.75 3.75 0 013.75-3.75h23.5zm3.75 27.25a3.75 3.75 0 01-3.75 3.75h-23.5a3.75 3.75 0 01-3.75-3.75V16.5h31v19.25z"/></svg>