<svg width="16" height="16" viewBox="0 0 16 16" xmlns="http://www.w3.org/2000/svg"><path d="M10.75 9a.75.75 0 1 1 0-1.5.75.75 0 0 1 0 1.5ZM10 10.75a.75.75 0 1 0 1.5 0 .75.75 0 0 0-1.5 0ZM8 9a.75.75 0 1 1 0-1.5A.75.75 0 0 1 8 9Zm-.75 1.75a.75.75 0 1 0 1.5 0 .75.75 0 0 0-1.5 0ZM5.25 9a.75.75 0 1 1 0-1.5.75.75 0 0 1 0 1.5ZM2 4.5A2.5 2.5 0 0 1 4.5 2h7A2.5 2.5 0 0 1 14 4.5v7a2.5 2.5 0 0 1-2.5 2.5h-7A2.5 2.5 0 0 1 2 11.5v-7ZM13 6H3v5.5c0 .83.67 1.5 1.5 1.5h7c.83 0 1.5-.67 1.5-1.5V6Zm-1.5-3h-7C3.67 3 3 3.67 3 4.5V5h10v-.5c0-.83-.67-1.5-1.5-1.5Z"/></svg>