<svg width="20" height="20" viewBox="0 0 20 20" xmlns="http://www.w3.org/2000/svg"><path d="M6.5 8.08c.04-.3.33-.58.75-.58.41 0 .7.28.75.58A.5.5 0 1 0 9 7.92 1.73 1.73 0 0 0 7.25 6.5c-.86 0-1.62.59-1.74 1.42a.5.5 0 1 0 .98.16Zm6.25-.58c-.42 0-.71.28-.76.58a.5.5 0 0 1-.98-.16c.12-.83.88-1.42 1.74-1.42.85 0 1.61.59 1.74 1.42a.5.5 0 0 1-.99.16c-.04-.3-.34-.58-.75-.58ZM5.5 10a.5.5 0 0 0-.5.55A4.86 4.86 0 0 0 10 15c2.84 0 4.75-2 5-4.45a.5.5 0 0 0-.5-.55h-9Zm4.5 4a3.85 3.85 0 0 1-3.92-3h7.83c-.4 1.7-1.83 3-3.91 3Zm0-12a8 8 0 1 0 0 16 8 8 0 0 0 0-16Zm-7 8a7 7 0 1 1 14 0 7 7 0 0 1-14 0Z"/></svg>