<svg width="24" height="24" viewBox="0 0 24 24" xmlns="http://www.w3.org/2000/svg"><path d="M6.75 12a.75.75 0 0 0-.75.82c.28 3.07 2.55 5.68 6 5.68s5.72-2.6 6-5.68a.75.75 0 0 0-.75-.82H6.75ZM12 17a4.4 4.4 0 0 1-4.37-3.5h8.74A4.4 4.4 0 0 1 12 17Zm3.25-8.25c-.4 0-.71.29-.76.61a.75.75 0 1 1-1.48-.22 2.25 2.25 0 0 1 2.24-1.89c1.12 0 2.08.8 2.24 1.89a.75.75 0 1 1-1.48.22.75.75 0 0 0-.76-.61Zm-7.26.61a.75.75 0 0 1 .76-.61c.4 0 .71.29.76.61a.75.75 0 1 0 1.48-.22 2.25 2.25 0 0 0-2.24-1.89c-1.12 0-2.08.8-2.24 1.89a.75.75 0 0 0 1.48.22ZM12 2a10 10 0 1 0 0 20 10 10 0 0 0 0-20ZM3.5 12a8.5 8.5 0 1 1 17 0 8.5 8.5 0 0 1-17 0Z"/></svg>