<svg width="16" height="16" viewBox="0 0 16 16" xmlns="http://www.w3.org/2000/svg"><path d="M5.65 2.64a.5.5 0 0 0 .7.72l1.3-1.25a.5.5 0 0 1 .7 0l1.3 1.25a.5.5 0 0 0 .7-.72l-1.3-1.25a1.5 1.5 0 0 0-2.08 0L5.65 2.64Zm-2.29 3.7a.5.5 0 1 0-.72-.68l-1.25 1.3a1.5 1.5 0 0 0 0 2.08l1.25 1.3a.5.5 0 0 0 .72-.68L2.11 8.35a.5.5 0 0 1 0-.7l1.25-1.3Zm2.99 6.3a.5.5 0 0 0-.7.72l1.32 1.26c.58.55 1.5.55 2.08 0l1.3-1.26a.5.5 0 1 0-.7-.72l-1.3 1.25a.5.5 0 0 1-.69 0l-1.31-1.25Zm7.01-6.99a.5.5 0 1 0-.72.7l1.26 1.3c.18.2.18.5 0 .7l-1.26 1.3a.5.5 0 1 0 .72.7l1.26-1.3a1.5 1.5 0 0 0 0-2.09l-1.26-1.3ZM5 6.5C5 5.67 5.67 5 6.5 5h3c.83 0 1.5.67 1.5 1.5v3c0 .83-.67 1.5-1.5 1.5h-3A1.5 1.5 0 0 1 5 9.5v-3Z"/></svg>