<svg width="16" height="16" viewBox="0 0 16 16" xmlns="http://www.w3.org/2000/svg"><path d="M5 2.25c-1.04 0-2 .94-2 2.25 0 .64.23 1.2.59 1.6.23.24.41.55.41.9a1 1 0 0 1-1 1H1.75a.75.75 0 0 1 0-1.5h.29a3.95 3.95 0 0 1-.54-2C1.5 2.5 3 .75 5 .75S8.5 2.49 8.5 4.5c0 .72-.2 1.41-.54 2h.29a.75.75 0 0 1 0 1.5H7a1 1 0 0 1-1-1c0-.35.18-.66.41-.9.36-.4.59-.96.59-1.6 0-1.3-.96-2.25-2-2.25Zm8-.5a.75.75 0 0 0-1.5 0v10.69l-.72-.72a.75.75 0 1 0-1.06 1.06l2 2c.3.3.77.3 1.06 0l2-2a.75.75 0 1 0-1.06-1.06l-.72.72V1.75ZM5.7 8.97a.75.75 0 0 0-1.4 0l-2 5a.75.75 0 0 0 1.4.56l.2-.53h2.2l.2.53a.75.75 0 0 0 1.4-.56l-2-5Zm-.2 3.53h-1l.5-1.23.5 1.23Z"/></svg>