<svg width="24" height="24" viewBox="0 0 24 24" xmlns="http://www.w3.org/2000/svg"><path d="M4 7.1C4 5.36 5.37 4 7 4s3 1.36 3 3.1c0 1.1-.55 2.06-1.38 2.6-.35.24-.62.6-.62 1.02V11a1 1 0 001 1h2a1 1 0 00.1-2c.57-.82.9-1.82.9-2.9C12 4.3 9.78 2 7 2S2 4.3 2 7.1c0 1.08.33 2.08.9 2.9a1 1 0 00.1 2h2a1 1 0 001-1v-.28c0-.42-.27-.78-.62-1.01A3.11 3.11 0 014 7.1zM18.5 3a1 1 0 10-2 0v15.59l-1.8-1.8a1 1 0 00-1.4 1.42l3.5 3.5a1 1 0 001.4 0l3.5-3.5a1 1 0 00-1.4-1.42l-1.8 1.8V3zM7.92 13.6a1 1 0 00-1.84 0l-3 7a1 1 0 101.84.8l.6-1.4h2.96l.6 1.4a1 1 0 101.84-.8l-3-7zm-.3 4.4H6.38L7 16.54 7.63 18z"/></svg>