<svg width="16" height="16" viewBox="0 0 16 16" xmlns="http://www.w3.org/2000/svg"><path d="M5.85 6.15a.5.5 0 00-.7 0l-.65.64-.65-.64a.5.5 0 10-.7.7l.64.65-.64.65a.5.5 0 10.7.7l.65-.64.65.64a.5.5 0 10.7-.7l-.64-.65.64-.65a.5.5 0 000-.7zm3.3 0a.5.5 0 11.7.7l-.64.65.64.65a.5.5 0 01-.7.7l-.65-.64-.65.64a.5.5 0 11-.7-.7l.64-.65-.64-.65a.5.5 0 11.7-.7l.65.64.65-.64zM11.5 8a.5.5 0 000 1h1a.5.5 0 000-1h-1zm-8-5A2.5 2.5 0 001 5.5v4A2.5 2.5 0 003.5 12h9A2.5 2.5 0 0015 9.5v-4A2.5 2.5 0 0012.5 3h-9zM2 5.5C2 4.67 2.67 4 3.5 4h9c.83 0 1.5.67 1.5 1.5v4c0 .83-.67 1.5-1.5 1.5h-9A1.5 1.5 0 012 9.5v-4z"/></svg>