<svg width="16" height="16" viewBox="0 0 16 16" xmlns="http://www.w3.org/2000/svg"><path d="M5.85 6.15a.5.5 0 0 0-.7 0l-.65.64-.65-.64a.5.5 0 1 0-.7.7l.64.65-.64.65a.5.5 0 1 0 .7.7l.65-.64.65.64a.5.5 0 1 0 .7-.7l-.64-.65.64-.65a.5.5 0 0 0 0-.7Zm3.3 0a.5.5 0 1 1 .7.7l-.64.65.64.65a.5.5 0 0 1-.7.7l-.65-.64-.65.64a.5.5 0 1 1-.7-.7l.64-.65-.64-.65a.5.5 0 1 1 .7-.7l.65.64.65-.64ZM11.5 8a.5.5 0 0 0 0 1h1a.5.5 0 0 0 0-1h-1Zm-8-5A2.5 2.5 0 0 0 1 5.5v4A2.5 2.5 0 0 0 3.5 12h9A2.5 2.5 0 0 0 15 9.5v-4A2.5 2.5 0 0 0 12.5 3h-9ZM2 5.5C2 4.67 2.67 4 3.5 4h9c.83 0 1.5.67 1.5 1.5v4c0 .83-.67 1.5-1.5 1.5h-9A1.5 1.5 0 0 1 2 9.5v-4Z"/></svg>