<svg width="16" height="16" viewBox="0 0 16 16" xmlns="http://www.w3.org/2000/svg"><path d="M1 5.5A2.5 2.5 0 013.5 3h9A2.5 2.5 0 0115 5.5v4a2.5 2.5 0 01-2.5 2.5h-9A2.5 2.5 0 011 9.5v-4zm4.15.65l-.65.64-.65-.64a.5.5 0 10-.7.7l.64.65-.64.65a.5.5 0 10.7.7l.65-.64.65.64a.5.5 0 10.7-.7l-.64-.65.64-.65a.5.5 0 10-.7-.7zm4 0l-.65.64-.65-.64a.5.5 0 10-.7.7l.64.65-.64.65a.5.5 0 10.7.7l.65-.64.65.64a.5.5 0 10.7-.7l-.64-.65.64-.65a.5.5 0 00-.7-.7zM11 8.5c0 .28.22.5.5.5h1a.5.5 0 000-1h-1a.5.5 0 00-.5.5z"/></svg>