<svg width="20" height="20" viewBox="0 0 20 20" xmlns="http://www.w3.org/2000/svg"><path d="M2 6.75A2.75 2.75 0 0 1 4.75 4h10.5A2.75 2.75 0 0 1 18 6.75v5.5A2.75 2.75 0 0 1 15.25 15H4.75A2.75 2.75 0 0 1 2 12.25v-5.5Zm5.15 1.4-.65.64-.65-.64a.5.5 0 1 0-.7.7l.64.65-.64.65a.5.5 0 0 0 .7.7l.65-.64.65.64a.5.5 0 0 0 .7-.7l-.64-.65.64-.65a.5.5 0 1 0-.7-.7Zm4 0-.65.64-.65-.64a.5.5 0 1 0-.7.7l.64.65-.64.65a.5.5 0 0 0 .7.7l.65-.64.65.64a.5.5 0 0 0 .7-.7l-.64-.65.64-.65a.5.5 0 0 0-.7-.7ZM13 10.5c0 .28.22.5.5.5h2a.5.5 0 0 0 0-1h-2a.5.5 0 0 0-.5.5Z"/></svg>