<svg width="20" height="20" viewBox="0 0 20 20" xmlns="http://www.w3.org/2000/svg"><path d="M12 12h2v2h-2v-2ZM5 2h10a.5.5 0 0 1 .38.18l2.5 3c.12.14.12.21.12.3V7a3 3 0 0 1-1 2.24v8.26a.5.5 0 0 1-.5.5H10v-6.5a.5.5 0 0 0-.5-.5h-4a.5.5 0 0 0-.5.5V18H3.5a.5.5 0 0 1-.5-.5V9.24A3 3 0 0 1 2 7V5.5a.5.5 0 0 1 .12-.32l2.5-3A.5.5 0 0 1 5 2ZM3 6v1a2 2 0 1 0 4 0V6H3Zm5 0v1a2 2 0 1 0 4 0V6H8Zm5 0v1a2 2 0 1 0 4 0V6h-4ZM5.23 3 3.57 5h3.57l.67-2H5.23Zm6.58 2-.67-2H8.86l-.67 2h3.62Zm1.05 0h3.57l-1.66-2h-2.58l.67 2ZM11 11.5v3c0 .28.22.5.5.5h3a.5.5 0 0 0 .5-.5v-3a.5.5 0 0 0-.5-.5h-3a.5.5 0 0 0-.5.5ZM9 18v-6H6v6h3Z"/></svg>