<svg width="24" height="24" viewBox="0 0 24 24" xmlns="http://www.w3.org/2000/svg"><path d="M15.99 4a2.25 2.25 0 0 0-2.24-2h-3.5c-1.16 0-2.11.87-2.24 2H6.25C5.01 4 4 5 4 6.25v13.5C4 20.99 5 22 6.25 22H8.5c-.31-.42-.5-.94-.5-1.5H6.25a.75.75 0 0 1-.75-.75V6.25c0-.41.34-.75.75-.75h2.13c.4.6 1.09 1 1.87 1h3.5c.78 0 1.47-.4 1.87-1h2.13c.41 0 .75.34.75.75V19a2.5 2.5 0 0 1 1.5-.95V6.25C20 5.01 19 4 17.75 4h-1.76Zm0 .1.01.15V4.1Zm-5.74-.6h3.5a.75.75 0 0 1 0 1.5h-3.5a.75.75 0 0 1 0-1.5Zm1.75 17a1.5 1.5 0 1 1-3 0 1.5 1.5 0 0 1 3 0Zm3.5 1.5a1.5 1.5 0 1 0 0-3 1.5 1.5 0 0 0 0 3Zm5 0a1.5 1.5 0 1 0 0-3 1.5 1.5 0 0 0 0 3Z"/></svg>