<svg width="20" height="20" viewBox="0 0 20 20" xmlns="http://www.w3.org/2000/svg"><path d="M12.5 4.5a2.5 2.5 0 1 1-5 0 2.5 2.5 0 0 1 5 0Zm5 .5a2 2 0 1 1-4 0 2 2 0 0 1 4 0Zm-13 2a2 2 0 1 0 0-4 2 2 0 0 0 0 4ZM6 9.25C6 8.56 6.56 8 7.25 8h5.5c.61 0 1.12.44 1.23 1.02A5.5 5.5 0 0 0 10.25 18L10 18a4 4 0 0 1-4-4V9.25Zm8.99-.23c1.14.1 2.18.55 3.01 1.24V9.25C18 8.56 17.44 8 16.75 8h-2.13c.2.3.33.65.37 1.02ZM5 9.25c0-.46.14-.9.38-1.25H3.25C2.56 8 2 8.56 2 9.25V13a3 3 0 0 0 3.4 2.97C5.14 15.37 5 14.7 5 14V9.25Zm14 5.25a4.5 4.5 0 1 1-9 0 4.5 4.5 0 0 1 9 0Zm-4-2a.5.5 0 0 0-1 0V14h-1.5a.5.5 0 0 0 0 1H14v1.5a.5.5 0 0 0 1 0V15h1.5a.5.5 0 0 0 0-1H15v-1.5Z"/></svg>