<svg width="20" height="20" viewBox="0 0 20 20" xmlns="http://www.w3.org/2000/svg"><path d="M5 2a2 2 0 00-2 2v5.6A5.5 5.5 0 019.74 18H13a2 2 0 002-2V4a2 2 0 00-2-2H5zm0 3c0-.28.22-.5.5-.5h7c.28 0 .5.22.5.5v2a.5.5 0 01-.5.5h-7A.5.5 0 015 7V5zm11 1h.5c.28 0 .5.22.5.5V8a.5.5 0 01-.5.5H16V6zm0 3.5h.5c.28 0 .5.22.5.5v1.5a.5.5 0 01-.5.5H16V9.5zm0 3.5h.5c.28 0 .5.22.5.5V15a.5.5 0 01-.5.5H16V13zM1 14.5a4.5 4.5 0 109 0 4.5 4.5 0 00-9 0zm6.5-3c.28 0 .5.22.5.5v1.5a.5.5 0 01-.5.5H6a.5.5 0 010-1h.47a1.99 1.99 0 00-2.38.34.5.5 0 01-.71-.71A3 3 0 017 12.15V12c0-.28.22-.5.5-.5zm-.88 5.53A3 3 0 014 16.85V17a.5.5 0 01-1 0v-1.5c0-.28.22-.5.5-.5H5a.5.5 0 010 1h-.47a1.99 1.99 0 002.38-.34.5.5 0 01.71.71 3 3 0 01-1 .66z"/></svg>