<svg width="20" height="20" viewBox="0 0 20 20" xmlns="http://www.w3.org/2000/svg"><path d="M5.5 4.5A.5.5 0 0 0 5 5v2c0 .28.22.5.5.5h7A.5.5 0 0 0 13 7V5a.5.5 0 0 0-.5-.5h-7Zm.5 2v-1h6v1H6ZM3 4c0-1.1.9-2 2-2h8a2 2 0 0 1 2 2v12a2 2 0 0 1-2 2H9.74c.26-.3.48-.64.66-1H13a1 1 0 0 0 1-1V4a1 1 0 0 0-1-1H5a1 1 0 0 0-1 1v5.2c-.35.1-.68.24-1 .4V4Zm13 2h.5c.28 0 .5.22.5.5V8a.5.5 0 0 1-.5.5H16V6Zm.5 3.5H16V12h.5a.5.5 0 0 0 .5-.5V10a.5.5 0 0 0-.5-.5ZM16 13h.5c.28 0 .5.22.5.5V15a.5.5 0 0 1-.5.5H16V13ZM1 14.5a4.5 4.5 0 1 0 9 0 4.5 4.5 0 0 0-9 0Zm6.5-3c.28 0 .5.22.5.5v1.5a.5.5 0 0 1-.5.5H6a.5.5 0 0 1 0-1h.47a1.99 1.99 0 0 0-2.38.34.5.5 0 0 1-.71-.71A3 3 0 0 1 7 12.15V12c0-.28.22-.5.5-.5Zm-.88 5.53A3 3 0 0 1 4 16.85V17a.5.5 0 0 1-1 0v-1.5c0-.28.22-.5.5-.5H5a.5.5 0 0 1 0 1h-.47a1.99 1.99 0 0 0 2.38-.34.5.5 0 0 1 .71.71 3 3 0 0 1-1 .66Z"/></svg>