<svg width="16" height="16" viewBox="0 0 16 16" xmlns="http://www.w3.org/2000/svg"><path d="M15 5.5a4.5 4.5 0 1 1-9 0 4.5 4.5 0 0 1 9 0Zm-2.65-1.15a.5.5 0 0 0-.7-.7L10.5 4.79 9.35 3.65a.5.5 0 1 0-.7.7L9.79 5.5 8.65 6.65a.5.5 0 1 0 .7.7l1.15-1.14 1.15 1.14a.5.5 0 0 0 .7-.7L11.21 5.5l1.14-1.15ZM10.5 11c1.33 0 2.55-.47 3.5-1.26v2.76a2.5 2.5 0 0 1-2.5 2.5h-7A2.5 2.5 0 0 1 2 12.5v-7A2.5 2.5 0 0 1 4.5 3h1.1c-.16.32-.3.65-.4 1h-.7C3.67 4 3 4.67 3 5.5V9h2.5c.28 0 .5.22.5.5a2.55 2.55 0 0 0 .26 1.03c.3.61.84.97 1.74.97.7 0 1.17-.21 1.5-.6.32.07.66.1 1 .1Z"/></svg>