<svg width="24" height="24" viewBox="0 0 24 24" xmlns="http://www.w3.org/2000/svg"><path d="M19 4.5a2.5 2.5 0 0 1-3.01 2.44L14.7 9.06a3.99 3.99 0 0 1 1.29 3l1.3.26a2.5 2.5 0 1 1-.28 1.47l-1.32-.26a4.02 4.02 0 0 1-1.75 1.96l.5 1.51h.05a2.5 2.5 0 1 1-1.47.48l-.5-1.51a4.05 4.05 0 0 1-3.75-1.6l-1.8.85.02.28a2.5 2.5 0 1 1-.62-1.65l1.75-.83a4 4 0 0 1 .79-3.57l-1-1.13A2.5 2.5 0 0 1 4.5 6a2.5 2.5 0 1 1 4.59 1.38l.98 1.12a3.98 3.98 0 0 1 3.36-.23l1.25-2.06a2.5 2.5 0 0 1 1.82-4.22A2.5 2.5 0 0 1 19 4.5Zm-1.5 0a1 1 0 1 0-2 0 1 1 0 0 0 2 0ZM7 7a1 1 0 1 0 0-2 1 1 0 0 0 0 2Zm5 7.5a2.5 2.5 0 1 0 0-5 2.5 2.5 0 0 0 0 5Zm-6.5 1a1 1 0 1 0-2 0 1 1 0 0 0 2 0Zm10 4a1 1 0 1 0-2 0 1 1 0 0 0 2 0Zm4-5a1 1 0 1 0 0-2 1 1 0 0 0 0 2Z"/></svg>