<svg width="48" height="48" viewBox="0 0 48 48" xmlns="http://www.w3.org/2000/svg"><path d="M12.5 17.5a11 11 0 1 1 21.18 4.16l.2.05c.77.16 1.5.44 2.16.8a13.5 13.5 0 1 0-23.96 2.17 7.34 7.34 0 0 1 2.53-.7 10.95 10.95 0 0 1-2.11-6.48Zm20 0c0 1.33-.29 2.6-.81 3.74L30 20.87V17.5a6.5 6.5 0 1 0-13 .09v6.14a9 9 0 1 1 15.5-6.23Zm-9-4.5a4.5 4.5 0 0 0-4.5 4.5v9.47l-1.87-.69a5.34 5.34 0 0 0-7.1 4.13c-.15.88.32 1.73 1.11 2.08 7.3 3.29 10.4 6.38 11.48 8.7a3.02 3.02 0 0 0 3.03 1.79l6.24-.73a4.25 4.25 0 0 0 3.6-3.1l2.3-8.34a5.75 5.75 0 0 0-4.33-7.15L28 22.5V17.5a4.5 4.5 0 0 0-4.5-4.5Z"/></svg>