<svg width="16" height="16" viewBox="0 0 16 16" xmlns="http://www.w3.org/2000/svg"><path d="M14 8a6 6 0 1 0-5.75 6 4.5 4.5 0 0 1-.14-2.5H8a.75.75 0 1 1 .58-1.22A4.5 4.5 0 0 1 14 8.25L14 8ZM7.5 4.91a.5.5 0 0 1 1 0V8.59a.5.5 0 0 1-1 0V4.91Zm1.55 7.22a2 2 0 0 0 1.4-2.43v-.04c.25-.17.52-.32.8-.43a2 2 0 0 0 2.56.02c.3.13.59.3.84.5a2 2 0 0 0 1.3 2.2 3.52 3.52 0 0 1 .03.9l-.03.02a2 2 0 0 0-1.4 2.43v.04a3.5 3.5 0 0 1-.8.43 2 2 0 0 0-2.56-.02 3.5 3.5 0 0 1-.84-.5 2 2 0 0 0-1.3-2.2 3.52 3.52 0 0 1-.03-.9l.03-.02Zm4.2.37a.75.75 0 1 0-1.5 0 .75.75 0 0 0 1.5 0Z"/></svg>