<svg width="16" height="16" viewBox="0 0 16 16" xmlns="http://www.w3.org/2000/svg"><path d="M14 8a6 6 0 1 0-5.75 6 4.47 4.47 0 0 1-.22-1H8a5 5 0 1 1 5-5v.03c.34.04.68.11 1 .22V8Zm-5.42 2.28a.75.75 0 1 0-.47 1.21c.1-.43.26-.84.47-1.21ZM8.5 4.91A.5.5 0 0 0 7.5 5v3.59a.5.5 0 0 0 1-.09V4.91Zm.56 7.22a2 2 0 0 0 1.4-2.43v-.04c.25-.17.52-.32.8-.43a2 2 0 0 0 2.56.02c.3.13.59.3.84.5a2 2 0 0 0 1.3 2.2 3.52 3.52 0 0 1 .03.9l-.03.02a2 2 0 0 0-1.4 2.43v.04a3.5 3.5 0 0 1-.8.43 2 2 0 0 0-2.56-.02 3.5 3.5 0 0 1-.84-.5 2 2 0 0 0-1.3-2.2 3.52 3.52 0 0 1-.03-.9l.03-.02Zm4.2.37a.75.75 0 1 0-1.5 0 .75.75 0 0 0 1.5 0Z"/></svg>