<svg width="24" height="24" viewBox="0 0 24 24" xmlns="http://www.w3.org/2000/svg"><path d="M6.25 3A3.25 3.25 0 003 6.25v13a.75.75 0 001.5 0v-13c0-.97.78-1.75 1.75-1.75h11.5c.97 0 1.75.78 1.75 1.75v4.98c.48-.19 1-.26 1.5-.22V6.25C21 4.45 19.55 3 17.75 3H6.25zm6.95 15.57l5.9-5.9a2.29 2.29 0 113.23 3.23l-5.9 5.9c-.34.35-.78.6-1.25.71l-1.83.46-.15.03c-.59.2-2.98.57-3.82-.1-.58-.44-.46-1.33-.22-1.81.04-.08-.02-.18-.1-.17-.67.1-1.25.45-1.83.8-.79.47-1.57.94-2.55.82a2.08 2.08 0 01-1.71-1.26c-.1-.21.18-.4.39-.29.46.26 1.1.5 1.63.38.37-.08.9-.45 1.5-.87 1.06-.76 2.33-1.65 3.28-1.27.84.34 1.46 1.15 1.03 2.11-.05.12 0 .27.13.3.42.1.78.06 1.13-.1l.43-1.72c.12-.47.36-.9.7-1.25z"/></svg>