<svg width="20" height="20" viewBox="0 0 20 20" xmlns="http://www.w3.org/2000/svg"><path d="M8.5 3a5.5 5.5 0 014.38 8.82l4.15 4.15a.75.75 0 01-.98 1.13l-.08-.07-4.15-4.15c-.28.22-.6.41-.92.57-.1-.5-.27-.99-.5-1.43a4 4 0 10-5.86-2.94c-.5.1-1 .25-1.44.47A5.5 5.5 0 018.5 3zm-5.44 8.44a2 2 0 01-1.43 2.48l-.46.12a4.7 4.7 0 00.01 1.01l.35.09A2 2 0 013 17.66l-.13.42c.26.2.54.38.84.52l.32-.35a2 2 0 012.91 0l.34.36c.3-.13.57-.3.82-.5l-.16-.55a2 2 0 011.44-2.48l.46-.12a4.7 4.7 0 00-.01-1.01l-.35-.09A2 2 0 018 11.34l.13-.42c-.26-.2-.54-.38-.84-.52l-.32.35a2 2 0 01-2.91 0l-.34-.36c-.3.13-.57.3-.82.5l.15.55zM5.5 15.5a1 1 0 110-2 1 1 0 010 2z"/></svg>