<svg width="20" height="20" viewBox="0 0 20 20" xmlns="http://www.w3.org/2000/svg"><path d="M6 2.2V4h2.3L6.34 2.06a.2.2 0 0 0-.35.15ZM5 4V2.2a1.2 1.2 0 0 1 2.06-.85L9 3.3V2.5c0-.83.67-1.5 1.5-1.5h3c.83 0 1.5.67 1.5 1.5V4h1a.5.5 0 0 1 .5.56l-1.35 11.67A2 2 0 0 1 13.16 18H6.84a2 2 0 0 1-1.99-1.77L3.5 4.56A.5.5 0 0 1 4 4h1Zm9 0V2.5a.5.5 0 0 0-.5-.5h-3a.5.5 0 0 0-.5.5V4h4Zm-2.7 3.75c-.58-1-2.02-1-2.6 0l-.45.78a.5.5 0 1 0 .87.5l.45-.78a.5.5 0 0 1 .86 0l.45.78a.5.5 0 0 0 .87-.5l-.45-.78Zm.86 3.5a.5.5 0 0 1-.43.75H11a.5.5 0 0 0 0 1h.73a1.5 1.5 0 0 0 1.3-2.25l-.1-.19a.5.5 0 0 0-.87.5l.1.19ZM9 12h-.73a.5.5 0 0 1-.44-.75l.11-.19a.5.5 0 0 0-.86-.5l-.11.19A1.5 1.5 0 0 0 8.27 13H9a.5.5 0 0 0 0-1Z"/></svg>