<svg width="24" height="24" viewBox="0 0 24 24" xmlns="http://www.w3.org/2000/svg"><path d="M8.55 1.44A1.49 1.49 0 0 0 6 2.5V5.5H4.62a.75.75 0 0 0-.74.83L5.36 20C5.48 21.13 6.45 22 7.6 22h8.8c1.15 0 2.12-.87 2.24-2l1.48-13.67a.75.75 0 0 0-.75-.83H18V2.75C18 1.78 17.22 1 16.25 1h-3.5C11.78 1 11 1.78 11 2.75v1.17L8.55 1.44Zm7.95 1.31V5.5h-4V2.75c0-.14.11-.25.25-.25h3.5c.14 0 .25.11.25.25ZM10.45 5.5H7.5V2.51l2.95 2.99Zm1.34 4.9-.67 1a.75.75 0 1 1-1.24-.82l.67-1a1.75 1.75 0 0 1 2.9 0l.67 1a.75.75 0 0 1-1.24.83l-.67-1a.25.25 0 0 0-.42 0Zm-1.9 3.23-.36.6a.5.5 0 0 0 .43.76h.79a.75.75 0 0 1 0 1.5h-.8a2 2 0 0 1-1.7-3.03l.36-.6a.75.75 0 1 1 1.28.77Zm4.48-1.03a.75.75 0 0 1 1.03.26l.36.6a2 2 0 0 1-1.72 3.03h-.79a.75.75 0 0 1 0-1.5h.8a.5.5 0 0 0 .42-.75l-.36-.61a.75.75 0 0 1 .26-1.03Z"/></svg>