<svg width="24" height="24" viewBox="0 0 24 24" xmlns="http://www.w3.org/2000/svg"><path d="M7.49 1c.4 0 .78.16 1.06.44L11 3.92V2.75c0-.97.78-1.75 1.75-1.75h3.5c.97 0 1.75.78 1.75 1.75V5.5h1.37a.75.75 0 0 1 .75.83L18.64 20A2.25 2.25 0 0 1 16.4 22H7.6a2.25 2.25 0 0 1-2.24-2L3.88 6.32a.75.75 0 0 1 .74-.83H6V2.49C6 1.67 6.67 1 7.49 1Zm9.01 4.5V2.75a.25.25 0 0 0-.25-.25h-3.5a.25.25 0 0 0-.25.25V5.5h4Zm-9-2.99V5.5h2.95L7.5 2.51Zm-.65 17.32c.04.38.36.67.75.67h8.8c.39 0 .7-.29.75-.67L18.54 7H5.46l1.4 12.83Zm4.94-9.42c.1-.15.32-.15.42 0l.67 1a.75.75 0 0 0 1.24-.83l-.67-1a1.75 1.75 0 0 0-2.9 0l-.67 1a.75.75 0 0 0 1.24.83l.67-1ZM9.64 12.6c.35.21.47.67.25 1.03l-.36.6a.5.5 0 0 0 .43.76h.79a.75.75 0 0 1 0 1.5h-.8a2 2 0 0 1-1.7-3.03l.36-.6a.75.75 0 0 1 1.03-.26Zm4.47 1.03a.75.75 0 1 1 1.29-.77l.36.6a2 2 0 0 1-1.72 3.03h-.79a.75.75 0 0 1 0-1.5h.8a.5.5 0 0 0 .42-.75l-.36-.61Z"/></svg>