<svg width="16" height="16" viewBox="0 0 16 16" xmlns="http://www.w3.org/2000/svg"><path d="M4.01 2a2 2 0 0 0-2 2v1.5h1V4a1 1 0 0 1 1-1h8a1 1 0 0 1 1 1v1.5H14V4a2 2 0 0 0-2-2H4.01Zm-2 8v-.75h1v.74a1 1 0 0 0 1 1h8a1 1 0 0 0 1-1v-.74H14v.74a2 2 0 0 1-2 2h-2V13h1.5a.5.5 0 0 1 0 1H4.53a.5.5 0 0 1 0-1h1.5v-1h-2a2 2 0 0 1-2-2Zm7 2H7v1h2v-1ZM6.47 4.3a.5.5 0 0 0-.9-.04L4.2 7H2.5a.5.5 0 0 0 0 1H4.5a.5.5 0 0 0 .45-.28l1-2 1.58 3.96a.5.5 0 0 0 .91.04L10 6.62l.56 1.1A.5.5 0 0 0 11 8h2.5a.5.5 0 0 0 0-1h-2.19l-.86-1.73a.5.5 0 0 0-.9 0l-1.5 3-1.58-3.96Z"/></svg>