<svg width="20" height="20" viewBox="0 0 20 20" xmlns="http://www.w3.org/2000/svg"><path d="M4.75 5.25v2a.75.75 0 0 0 1.5 0v-2h2a.75.75 0 0 0 0-1.5h-2v-2a.75.75 0 0 0-1.5 0v2h-2a.75.75 0 0 0 0 1.5h2ZM11 4.5c0-.41.34-.75.75-.75h5.5a.75.75 0 0 1 0 1.5h-5.5A.75.75 0 0 1 11 4.5Zm-8.78 6.78 2.22 2.22-2.22 2.22a.75.75 0 1 0 1.06 1.06l2.22-2.22 2.22 2.22a.75.75 0 0 0 1.06-1.06L6.56 13.5l2.22-2.22a.75.75 0 1 0-1.06-1.06L5.5 12.44l-2.22-2.22a.75.75 0 1 0-1.06 1.06Zm9.53 1.47a.75.75 0 0 0 0 1.5h5.5a.75.75 0 0 0 0-1.5h-5.5ZM15.5 11a1 1 0 1 1-2 0 1 1 0 0 1 2 0Zm-1 6a1 1 0 1 0 0-2 1 1 0 0 0 0 2Z"/></svg>