<svg width="20" height="20" viewBox="0 0 20 20" xmlns="http://www.w3.org/2000/svg"><path d="M5 5v2.5a.5.5 0 0 0 1 0V5h2.5a.5.5 0 0 0 0-1H6V1.5a.5.5 0 0 0-1 0V4H2.5a.5.5 0 0 0 0 1H5Zm6-.5c0-.28.22-.5.5-.5h6a.5.5 0 0 1 0 1h-6a.5.5 0 0 1-.5-.5ZM8.85 16.15 6.21 13.5l2.64-2.65a.5.5 0 0 0-.7-.7L5.5 12.79l-2.65-2.64a.5.5 0 0 0-.7.7l2.64 2.65-2.64 2.65a.5.5 0 0 0 .7.7l2.65-2.64 2.65 2.64a.5.5 0 0 0 .7-.7ZM11.5 13a.5.5 0 0 0 0 1h6a.5.5 0 0 0 0-1h-6Zm4-2a1 1 0 1 1-2 0 1 1 0 0 1 2 0Zm-1 6a1 1 0 1 0 0-2 1 1 0 0 0 0 2Z"/></svg>