<svg width="24" height="24" viewBox="0 0 24 24" xmlns="http://www.w3.org/2000/svg"><path d="M6.25 2c.41 0 .75.34.75.75V5.5h2.75a.75.75 0 010 1.5H7v2.75a.75.75 0 01-1.5 0V7H2.75a.75.75 0 010-1.5H5.5V2.75c0-.41.34-.75.75-.75zm8 3.5a.75.75 0 000 1.5h7a.75.75 0 000-1.5h-7zm-.75 12.25c0-.41.34-.75.75-.75h7a.75.75 0 010 1.5h-7a.75.75 0 01-.75-.75zM17.75 16a1 1 0 100-2 1 1 0 000 2zm1 5a1 1 0 11-2 0 1 1 0 012 0zM2.22 14.28a.75.75 0 111.06-1.06l2.97 2.97 2.97-2.97a.75.75 0 111.06 1.06l-2.97 2.97 2.97 2.97a.75.75 0 11-1.06 1.06l-2.97-2.97-2.97 2.97a.75.75 0 01-1.06-1.06l2.97-2.97-2.97-2.97z"/></svg>