<svg width="28" height="28" viewBox="0 0 28 28" xmlns="http://www.w3.org/2000/svg"><path d="M8 2.75a.75.75 0 00-1.5 0V6.5H2.75a.75.75 0 000 1.5H6.5v3.75a.75.75 0 001.5 0V8h3.75a.75.75 0 000-1.5H8V2.75zm8.25 3.75a.75.75 0 000 1.5h9a.75.75 0 000-1.5h-9zm0 13a.75.75 0 000 1.5h9a.75.75 0 000-1.5h-9zm4.5-1.5a1.5 1.5 0 100-3 1.5 1.5 0 000 3zm1.5 6a1.5 1.5 0 11-3 0 1.5 1.5 0 013 0zM2.22 16.28a.75.75 0 011.06-1.06l3.97 3.97 3.97-3.97a.75.75 0 111.06 1.06l-3.97 3.97 3.97 3.97a.75.75 0 01-1.06 1.06l-3.97-3.97-3.97 3.97a.75.75 0 11-1.06-1.06l3.97-3.97-3.97-3.97z"/></svg>