<svg width="16" height="16" viewBox="0 0 16 16" xmlns="http://www.w3.org/2000/svg"><path d="M3.75 6.25v-1h-1a.75.75 0 010-1.5h1v-1a.75.75 0 011.5 0v1h1a.75.75 0 010 1.5h-1v1a.75.75 0 01-1.5 0zm6-2.5a.75.75 0 000 1.5h3.5a.75.75 0 000-1.5h-3.5zm-7.53 8.97a.75.75 0 101.06 1.06l1.22-1.22 1.22 1.22a.75.75 0 001.06-1.06L5.56 11.5l1.22-1.22a.75.75 0 10-1.06-1.06L4.5 10.44 3.28 9.22a.75.75 0 00-1.06 1.06l1.22 1.22-1.22 1.22zM11.5 10a1 1 0 100-2 1 1 0 000 2zm-2 .25a.75.75 0 000 1.5h4a.75.75 0 000-1.5h-4zm3 2.75a1 1 0 11-2 0 1 1 0 012 0z"/></svg>