<svg width="48" height="48" viewBox="0 0 48 48" xmlns="http://www.w3.org/2000/svg"><path d="M12.75 4c.69 0 1.25.56 1.25 1.25v6.25h5.75a1.25 1.25 0 110 2.5H14v5.75a1.25 1.25 0 11-2.5 0V14H5.25a1.25 1.25 0 110-2.5h6.25V5.25c0-.69.56-1.25 1.25-1.25zm15.5 7.5a1.25 1.25 0 100 2.5h14.5a1.25 1.25 0 100-2.5h-14.5zM27 35.25c0-.69.56-1.25 1.25-1.25h14.5a1.25 1.25 0 110 2.5h-14.5c-.69 0-1.25-.56-1.25-1.25zM35.5 32a2 2 0 100-4 2 2 0 000 4zm2 8.75a2 2 0 11-4 0 2 2 0 014 0zM4.37 29.13a1.25 1.25 0 011.76-1.76l6.37 6.36 6.37-6.36a1.25 1.25 0 011.76 1.76l-6.36 6.37 6.36 6.37a1.25 1.25 0 01-1.76 1.76l-6.37-6.36-6.37 6.36a1.25 1.25 0 01-1.76-1.76l6.36-6.37-6.36-6.37z"/></svg>