<svg width="28" height="28" viewBox="0 0 28 28" xmlns="http://www.w3.org/2000/svg"><path d="M8.5 2.5a1 1 0 10-2 0V6H3a1 1 0 000 2h3.5v3.5a1 1 0 102 0V8H12a1 1 0 100-2H8.5V2.5zM16 6a1 1 0 100 2h9a1 1 0 100-2h-9zm0 13a1 1 0 100 2h9a1 1 0 100-2h-9zm4.75-1a1.5 1.5 0 100-3 1.5 1.5 0 000 3zm1.5 5.5a1.5 1.5 0 11-3 0 1.5 1.5 0 013 0zM2.29 15.3a1 1 0 011.42 0l3.79 3.79 3.8-3.8a1 1 0 111.4 1.42L8.92 20.5l3.8 3.8a1 1 0 01-1.42 1.4L7.5 21.92l-3.8 3.8a1 1 0 01-1.4-1.42l3.79-3.79-3.8-3.8a1 1 0 010-1.4z"/></svg>