<svg width="20" height="20" viewBox="0 0 20 20" xmlns="http://www.w3.org/2000/svg"><path d="M17.34 3c.38.05.66.37.66.75v5.5a.75.75 0 01-1.5 0V6.11l-.34.24a.75.75 0 11-.8-1.28 2.76 2.76 0 001.12-1.38l.04-.12a.75.75 0 01.82-.57zM1 7.75c0-.41.34-.75.75-.75h3c.41 0 .75.34.75.75 0 .82-.13 1.97-.64 3a3.92 3.92 0 01-3 2.24.75.75 0 01-.23-1.48c.96-.15 1.53-.7 1.88-1.43.25-.5.38-1.06.44-1.58h-2.2A.75.75 0 011 7.75zm7-3a.75.75 0 00-1.5 0v10.5a.75.75 0 001.5 0V4.75zM13.25 4c.41 0 .75.34.75.75v10.5a.75.75 0 01-1.5 0V4.75c0-.41.34-.75.75-.75zm-2.26 1.88a.75.75 0 10-1.48-.26l-1 5.5a.75.75 0 00.87.87l2-.35a.75.75 0 00-.26-1.48l-.94.17.8-4.45z"/></svg>