<svg width="16" height="16" viewBox="0 0 16 16" xmlns="http://www.w3.org/2000/svg"><path d="M8.5 7.5c0-.83.67-1.5 1.5-1.5h1.5a.5.5 0 0 1 0 1H10a.5.5 0 0 0-.5.5V8c0 .28.22.5.5.5h.5c.83 0 1.5.67 1.5 1.5v.5c0 .83-.67 1.5-1.5 1.5H9a.5.5 0 0 1 0-1h1.5a.5.5 0 0 0 .5-.5V10a.5.5 0 0 0-.5-.5H10A1.5 1.5 0 0 1 8.5 8v-.5Zm-.5-1a.5.5 0 0 0-1 0v4a.5.5 0 0 1-.5.5h-1a.5.5 0 0 0 0 1h1c.83 0 1.5-.67 1.5-1.5v-4Zm-6-2A2.5 2.5 0 0 1 4.5 2h7A2.5 2.5 0 0 1 14 4.5v7a2.5 2.5 0 0 1-2.5 2.5h-7A2.5 2.5 0 0 1 2 11.5v-7ZM4.5 3C3.67 3 3 3.67 3 4.5v7c0 .83.67 1.5 1.5 1.5h7c.83 0 1.5-.67 1.5-1.5v-7c0-.83-.67-1.5-1.5-1.5h-7Z"/></svg>