<svg width="20" height="20" viewBox="0 0 20 20" xmlns="http://www.w3.org/2000/svg"><path d="M7.5 9c-.24 0-.47.06-.68.16.82.2 1.56.58 2.18 1.1V10h3.5c.28 0 .5.22.5.5V12h-2.6c.16.32.3.65.4 1H13v1.5a.5.5 0 0 1-.5.5h-1.52c-.03.34-.1.68-.19 1h1.71c.83 0 1.5-.67 1.5-1.5v-4c0-.83-.67-1.5-1.5-1.5h-5ZM4 9.2c.32-.08.66-.15 1-.18V4a1 1 0 0 1 1-1h4v3.5c0 .83.67 1.5 1.5 1.5H15v8a1 1 0 0 1-1 1h-3.6c-.18.36-.4.7-.66 1H14a2 2 0 0 0 2-2V7.41c0-.4-.16-.78-.44-1.06l-3.91-3.91A1.5 1.5 0 0 0 10.59 2H6a2 2 0 0 0-2 2v5.2ZM14.8 7h-3.3a.5.5 0 0 1-.5-.5V3.2L14.8 7ZM10 14.5a4.5 4.5 0 1 1-9 0 4.5 4.5 0 0 1 9 0Zm-2.15.35A.5.5 0 0 0 8 14.5a.5.5 0 0 0-.15-.35l-2-2a.5.5 0 0 0-.7.7L6.29 14H3.5a.5.5 0 0 0 0 1h2.8l-1.15 1.15a.5.5 0 0 0 .7.7l2-2Z"/></svg>