<svg width="20" height="20" viewBox="0 0 20 20" xmlns="http://www.w3.org/2000/svg"><path d="M10 4c2.46 0 3.86 1.57 4.07 3.47h.06A2.82 2.82 0 0 1 17 10.24 2.82 2.82 0 0 1 14.13 13h-1.5a.5.5 0 1 1-.95 0H7.44l-1.5 2.75a.5.5 0 0 1-.9-.4l.03-.08L6.3 13h-.43A2.82 2.82 0 0 1 3 10.24a2.82 2.82 0 0 1 2.87-2.77h.06C6.13 5.57 7.53 4 10 4Zm1.5 11a.5.5 0 1 1 0 1 .5.5 0 0 1 0-1Zm-2.2-.94c.22.12.31.37.24.59l-.04.08-.56 1.01a.5.5 0 0 1-.68.2.49.49 0 0 1-.23-.59l.03-.08.56-1.01a.5.5 0 0 1 .68-.2Zm4.2-.06a.5.5 0 1 1 0 1 .5.5 0 0 1 0-1Z"/></svg>