<svg width="16" height="16" viewBox="0 0 16 16" xmlns="http://www.w3.org/2000/svg"><path d="M2 4v6c0 1.1.9 2 2 2h1.2c-.08-.32-.15-.66-.18-1H4a1 1 0 01-1-1V5.5h2.75a.5.5 0 00.34-.13L7.59 4H12a1 1 0 011 1v.6c.36.18.7.4 1 .66V5a2 2 0 00-2-2H7.18l-1.12-.89A.5.5 0 005.75 2H4a2 2 0 00-2 2zm1 0a1 1 0 011-1h1.57l.87.7-.88.8H3V4zm3 6.5a4.5 4.5 0 109 0 4.5 4.5 0 00-9 0zm6.5-3c.28 0 .5.22.5.5v1.5a.5.5 0 01-.5.5H11a.5.5 0 010-1h.47a1.98 1.98 0 00-1.72-.1 2 2 0 00-.66.44.5.5 0 01-.71-.71A3 3 0 0112 8.15V8c0-.28.22-.5.5-.5zm-.88 5.53A3 3 0 019 12.85V13a.5.5 0 01-1 0v-1.5c0-.28.22-.5.5-.5H10a.5.5 0 010 1h-.47a1.99 1.99 0 002.38-.34.5.5 0 01.71.71 3 3 0 01-1 .66z"/></svg>