<svg width="24" height="24" viewBox="0 0 24 24" xmlns="http://www.w3.org/2000/svg"><path d="M13.82 6.5h5.93c1.14 0 2.08.84 2.23 1.94l.01.16.01.15v3.06A6.5 6.5 0 0012.02 20H4.25c-1.2 0-2.17-.93-2.24-2.1L2 17.75V10.5h6.4c.4-.04.77-.18 1.1-.4l.15-.12 4.17-3.48zM8.21 4c.46 0 .9.14 1.28.4l.16.12 2.1 1.75-3.06 2.56-.09.06a.75.75 0 01-.29.1l-.1.01H2V6.25c0-1.2.93-2.17 2.1-2.24L4.25 4h3.96zM12 16.5a5.5 5.5 0 1011 0 5.5 5.5 0 00-11 0zm8.5-3.5c.28 0 .5.22.5.5v2a.5.5 0 01-.5.5h-2a.5.5 0 010-1h1a2.5 2.5 0 00-4.03.04.5.5 0 01-.8-.59 3.5 3.5 0 015.33-.4v-.55c0-.28.22-.5.5-.5zM15 18.95v.55a.5.5 0 01-1 0v-2c0-.28.22-.5.5-.5h2a.5.5 0 010 1h-1a2.5 2.5 0 003.91.11.5.5 0 01.77.65 3.5 3.5 0 01-5.18.19z"/></svg>