<svg width="16" height="16" viewBox="0 0 16 16" xmlns="http://www.w3.org/2000/svg"><path d="M7.2 3h-.02l-1.12-.89A.5.5 0 005.75 2H4a2 2 0 00-2 2v.5h3.56L7.2 3zm1.5 0L6.08 5.37a.5.5 0 01-.34.13H2V10c0 1.1.9 2 2 2h1.2A5.5 5.5 0 0114 6.26V5a2 2 0 00-2-2H8.7zM6 10.5a4.5 4.5 0 109 0 4.5 4.5 0 00-9 0zm6.5-3c.28 0 .5.22.5.5v1.5a.5.5 0 01-.5.5H11a.5.5 0 010-1h.47a1.98 1.98 0 00-1.72-.1 2 2 0 00-.66.44.5.5 0 01-.71-.71A3 3 0 0112 8.15V8c0-.28.22-.5.5-.5zm-.88 5.53A3 3 0 019 12.85V13a.5.5 0 01-1 0v-1.5c0-.28.22-.5.5-.5H10a.5.5 0 010 1h-.47a1.99 1.99 0 002.38-.34.5.5 0 01.71.71 3 3 0 01-1 .66z"/></svg>