<svg width="24" height="24" viewBox="0 0 24 24" xmlns="http://www.w3.org/2000/svg"><path d="M8.2 4c.47 0 .92.14 1.3.4l.15.12 2.37 1.98h7.73c1.14 0 2.08.84 2.23 1.94l.01.16.01.15v3.06a6.52 6.52 0 00-1.5-1.08V8.75c0-.38-.28-.7-.65-.74l-.1-.01h-7.73L9.65 9.98c-.36.3-.8.47-1.25.51l-.2.01H3.5v7.25c0 .38.28.7.65.74l.1.01h7.06c.18.53.42 1.04.71 1.5H4.25c-1.2 0-2.17-.93-2.24-2.1L2 17.75V6.25c0-1.2.93-2.17 2.1-2.24L4.25 4h3.96zm0 1.5H4.26c-.38 0-.7.28-.74.65l-.01.1V9h4.7c.15 0 .28-.04.4-.11l.09-.06 1.89-1.58-1.9-1.58a.75.75 0 00-.37-.16l-.1-.01zm3.8 11a5.5 5.5 0 1011 0 5.5 5.5 0 00-11 0zm8.5-3.5c.28 0 .5.22.5.5v2a.5.5 0 01-.5.5h-2a.5.5 0 010-1h1a2.5 2.5 0 00-4.03.04.5.5 0 01-.8-.59 3.5 3.5 0 015.33-.4v-.55c0-.28.22-.5.5-.5zM15 18.95v.55a.5.5 0 01-1 0v-2c0-.28.22-.5.5-.5h2a.5.5 0 010 1h-1a2.5 2.5 0 003.91.11.5.5 0 01.77.65 3.5 3.5 0 01-5.18.19z"/></svg>