<svg width="28" height="28" viewBox="0 0 28 28" xmlns="http://www.w3.org/2000/svg"><path d="M5 9.5a4.5 4.5 0 1 1 9 0 4.5 4.5 0 0 1-9 0Zm4.5-3a3 3 0 1 0 0 6 3 3 0 0 0 0-6Zm7 4a3.5 3.5 0 1 1 7 0 3.5 3.5 0 0 1-7 0Zm3.5-2a2 2 0 1 0 0 4 2 2 0 0 0 0-4ZM2 18.25C2 17.01 3 16 4.25 16h10.5l.26.01-1.48 1.49H4.25a.75.75 0 0 0-.75.75v.61l.08.41c.09.35.26.81.61 1.28.68.9 2.12 1.95 5.31 1.95a8.5 8.5 0 0 0 3.8-.73l1.1 1.1A9.46 9.46 0 0 1 9.5 24C5.94 24 4 22.8 3 21.45a5.09 5.09 0 0 1-1-2.67v-.53Zm15.78-1.47a.75.75 0 0 0-1.06-1.06l-3.5 3.5c-.3.3-.3.77 0 1.06l3.5 3.5a.75.75 0 0 0 1.06-1.06l-2.22-2.22h8.88l-2.22 2.22a.75.75 0 0 0 1.06 1.06l3.5-3.5c.3-.3.3-.77 0-1.06l-3.5-3.5a.75.75 0 0 0-1.06 1.06L24.44 19h-8.88l2.22-2.22Z"/></svg>