<svg width="16" height="16" viewBox="0 0 16 16" xmlns="http://www.w3.org/2000/svg"><path d="M6 5.06V3.5c0-1.59 2.15-2.09 2.85-.65l1.55 3.18 1.57-.01a3 3 0 0 1 3.03 3v.48a1.5 1.5 0 0 1-1.98 1.42l-2.25-.77-5.23 1.77c-1.54.51-2.69-1.43-1.5-2.53l1.22-1.12-3.24-1.1a1.5 1.5 0 0 1-.73-2.3L3 2.47c.63-.88 2-.44 2 .63v1.6l1 .36Zm3.3.98L7.95 3.28c-.23-.47-.95-.3-.95.22v1.93l1.54.56a1 1 0 0 0 .36.06h.4ZM1 14.5c0-.28.22-.5.5-.5h13a.5.5 0 0 1 0 1h-13a.5.5 0 0 1-.5-.5Zm1.34-8.28 3.25 1.1a1 1 0 0 1 .35 1.69l-1.22 1.12c-.4.36-.01 1.01.5.84l5.23-1.76a1 1 0 0 1 .65 0l2.24.76A.5.5 0 0 0 14 9.5v-.48a2 2 0 0 0-2.02-2l-3.08.03a2 2 0 0 1-.7-.12L4.33 5.52A.5.5 0 0 1 4 5.05V3.1a.1.1 0 0 0-.18-.06L2.1 5.45a.5.5 0 0 0 .24.77Z"/></svg>