<svg width="24" height="24" viewBox="0 0 24 24" xmlns="http://www.w3.org/2000/svg"><path d="M11.5 7.49V5.04c0-.58.79-.75 1.03-.22l1.42 3.2h-1a.64.64 0 0 1-.23-.05L11.5 7.5Zm4.1.53-1.7-3.8C13 2.2 10 2.83 10 5.03v1.85l-1.5-.6V4.77a1.75 1.75 0 0 0-3.21-.96L3.38 6.7a2.3 2.3 0 0 0 1.04 3.4l3.5 1.46-2.05 1.9c-1.62 1.5 0 4.16 2.09 3.4l6.76-2.46 3.46 1.44A2.04 2.04 0 0 0 21 13.96v-1.23c0-2.6-2.11-4.71-4.72-4.71h-.69ZM7 6.95c0 .22.13.42.34.5l4.83 1.92c.25.1.52.15.79.15h3.32a3.22 3.22 0 0 1 3.22 3.21v1.23c0 .39-.39.65-.74.5l-3.64-1.52a1 1 0 0 0-.73-.02l-6.95 2.53c-.55.2-.97-.5-.55-.9l2.62-2.42a1 1 0 0 0-.3-1.66L5 8.71a.8.8 0 0 1-.36-1.18l1.91-2.91c.14-.2.46-.11.46.14v2.2Zm-4 13.3c0-.41.34-.75.75-.75h16.5a.75.75 0 0 1 0 1.5H3.75a.75.75 0 0 1-.75-.75Z"/></svg>