<svg width="20" height="20" viewBox="0 0 20 20" xmlns="http://www.w3.org/2000/svg"><path d="M9 5.87a.83.83 0 1 0 0-1.66.83.83 0 0 0 0 1.66ZM2.5 17H9v-1H3v-.83c0-.65.52-1.17 1.17-1.17H9v-.5c0-.56.19-1.08.5-1.5V8H11v3.05h.04A2.5 2.5 0 0 1 12 9.5V8h2v1h1V8h.1a.92.92 0 0 0 .52-1.67L9.77 2.18a1.33 1.33 0 0 0-1.54 0L2.38 6.33A.92.92 0 0 0 2.9 8H3v5.34c-.6.38-1 1.06-1 1.83v1.33c0 .28.22.5.5.5ZM8.8 3a.33.33 0 0 1 .4 0l5.63 4H3.17L8.8 3ZM4 13V8h2v5H4Zm4.5 0H7V8h1.5v5Zm3.5-1v-.5c0-.83.67-1.5 1.5-1.5h2c.83 0 1.5.67 1.5 1.5v.5h.5c.83 0 1.5.67 1.5 1.5V15h-2v-.5a.5.5 0 1 0-1 0v.5h-3v-.5a.5.5 0 1 0-1 0v.5h-2v-1.5c0-.83.67-1.5 1.5-1.5h.5Zm1-.5v.5h3v-.5a.5.5 0 0 0-.5-.5h-2a.5.5 0 0 0-.5.5Zm4 4.5h2v1.5c0 .83-.67 1.5-1.5 1.5h-6a1.5 1.5 0 0 1-1.5-1.5V16h2v.5a.5.5 0 1 0 1 0V16h3v.5a.5.5 0 1 0 1 0V16Z"/></svg>