<svg width="20" height="20" viewBox="0 0 20 20" xmlns="http://www.w3.org/2000/svg"><path d="M11 3a1 1 0 0 1 1-1h3a1 1 0 0 1 1 1v2a1 1 0 0 1-1 1h-3a1 1 0 0 1-1-1V3Zm4 0h-3v2h3V3Zm-1.85 4.15c.2-.2.5-.2.7 0l2 2a.5.5 0 0 1-.7.7L14 8.71v5.79a.5.5 0 0 1-1 0V8.7l-1.15 1.15a.5.5 0 0 1-.7-.7l2-2ZM4 12a1 1 0 0 1 1-1h3a1 1 0 0 1 1 1v2a1 1 0 0 1-1 1H5a1 1 0 0 1-1-1v-2Zm4 0H5v2h3v-2Zm-5.5 1c.28 0 .5.22.5.5V15a1 1 0 0 0 1 1h12a1 1 0 0 0 1-1v-1.5a.5.5 0 0 1 1 0V15a2 2 0 0 1-2 2H4a2 2 0 0 1-2-2v-1.5c0-.28.22-.5.5-.5Z"/></svg>