<svg width="28" height="28" viewBox="0 0 28 28" xmlns="http://www.w3.org/2000/svg"><path d="M22.74 6.33a5.5 5.5 0 01-.5 7.2l-1.94 1.95c-.3.3-.77.3-1.06 0l-6.72-6.71a.75.75 0 010-1.06l1.95-1.95a5.5 5.5 0 017.21-.5l3.04-3.04a.75.75 0 011.07 1.06l-3.05 3.05zm-9.96 5.95a.75.75 0 00-1.06-1.06l-2.13 2.12-.82-.82a.75.75 0 00-1.06 0l-1.95 1.94a5.5 5.5 0 00-.5 7.22l-3.04 3.04a.75.75 0 101.07 1.06l3.04-3.04a5.5 5.5 0 007.21-.5l1.95-1.94c.29-.3.29-.77 0-1.06l-.83-.83 2.12-2.13a.75.75 0 10-1.06-1.06l-2.12 2.13-2.95-2.95 2.13-2.12z"/></svg>