<svg width="24" height="24" viewBox="0 0 24 24" xmlns="http://www.w3.org/2000/svg"><path d="M9 3.75c0-.41.34-.75.75-.75h4.5c.41 0 .75.34.75.75V5h3a4 4 0 014 4h.25c.41 0 .75.34.75.75v3.5c0 .41-.34.75-.75.75H22v2.5a4 4 0 01-4 4h-1.55a4 4 0 01-2.16-.64l-2.15-1.38a.25.25 0 00-.28 0l-2.15 1.38a4 4 0 01-2.16.64H6a4 4 0 01-4-4V14h-.25a.75.75 0 01-.75-.75v-3.5c0-.41.34-.75.75-.75H2a4 4 0 014-4h3V3.75zM12 10a1 1 0 100-2 1 1 0 000 2zm-6 2.25c0 .41.34.75.75.75h2.5a.75.75 0 000-1.5h-2.5a.75.75 0 00-.75.75zm8.75-.75a.75.75 0 000 1.5h2.5a.75.75 0 000-1.5h-2.5z"/></svg>