<svg width="24" height="24" viewBox="0 0 24 24" xmlns="http://www.w3.org/2000/svg"><path d="m17.74 10.75.3.3a2.54 2.54 0 0 0-1.85.31 6.56 6.56 0 0 0-10 2.12.75.75 0 1 1-1.34-.67 8.06 8.06 0 0 1 12.9-2.06ZM11.96 19l1.21-2.43A1.5 1.5 0 1 0 11.95 19Zm2.23-4.46.67-1.36a5.1 5.1 0 0 0-7.48 2.2.75.75 0 0 0 1.37.61 3.6 3.6 0 0 1 5.43-1.45Zm6.26-6.26c.5.5.99 1.09 1.4 1.7a.75.75 0 1 1-1.23.85 10.45 10.45 0 0 0-17.23 0 .75.75 0 0 1-1.23-.86 11.95 11.95 0 0 1 18.29-1.69Zm-4.3 4.55-3.99 8A1.5 1.5 0 0 0 13.5 23h8a1.5 1.5 0 0 0 1.34-2.17l-4-8a1.5 1.5 0 0 0-2.68 0ZM18 15.5v3a.5.5 0 0 1-1 0v-3a.5.5 0 0 1 1 0Zm-.5 5.5a.5.5 0 1 1 0-1 .5.5 0 0 1 0 1Z"/></svg>