<svg width="24" height="24" viewBox="0 0 24 24" xmlns="http://www.w3.org/2000/svg"><path d="M7.42 2.83C7.6 2.33 8.07 2 8.6 2h6.46c.85 0 1.45.84 1.18 1.65L14.8 8h3.96c1.1 0 1.66 1.33.9 2.12l-.96.99a6.5 6.5 0 00-7.54 7.78l-2.56 2.65c-1.06 1.08-2.88.1-2.55-1.38l1.27-5.66-1.57-.01c-1.2 0-2.04-1.2-1.64-2.34l3.32-9.32zm6.86 11.15a2 2 0 01-1.44 2.5l-.59.14a5.73 5.73 0 000 1.8l.55.13a2 2 0 011.45 2.51l-.19.64c.44.38.94.7 1.49.92l.49-.52a2 2 0 012.9 0l.5.52a5.28 5.28 0 001.48-.9l-.2-.7a2 2 0 011.44-2.5l.59-.14a5.73 5.73 0 00-.01-1.8l-.54-.13a2 2 0 01-1.45-2.51l.19-.63c-.44-.39-.94-.7-1.49-.93l-.49.52a2 2 0 01-2.9 0l-.5-.52c-.54.22-1.04.53-1.48.91l.2.69zM17.5 19c-.8 0-1.45-.67-1.45-1.5S16.7 16 17.5 16c.8 0 1.45.67 1.45 1.5S18.3 19 17.5 19z"/></svg>