<svg width="20" height="20" viewBox="0 0 20 20" xmlns="http://www.w3.org/2000/svg"><path d="M7.21 2c-.47 0-.89.31-1.02.77l-2.25 7.87c-.2.68.32 1.36 1.02 1.36h1.27l-1.17 4.68c-.26 1.05 1.04 1.78 1.8 1l2.21-2.27a5.5 5.5 0 016.22-6.35l.24-.24c.65-.68.18-1.82-.76-1.82H12.2l1.27-3.6c.23-.69-.28-1.4-1.01-1.4H7.21zm4.86 9.44a2 2 0 01-1.43 2.48l-.46.12a4.7 4.7 0 000 1.02l.35.08A2 2 0 0112 17.66l-.13.42c.26.2.54.38.84.52l.32-.35a2 2 0 012.91 0l.34.36c.3-.13.57-.3.82-.5l-.15-.55a2 2 0 011.43-2.48l.46-.12a4.7 4.7 0 00-.01-1.01l-.35-.09A2 2 0 0117 11.34l.13-.42c-.26-.2-.54-.38-.84-.52l-.32.35a2 2 0 01-2.91 0l-.34-.36c-.29.13-.57.3-.82.5l.16.55zm2.43 4.06a1 1 0 110-2 1 1 0 010 2z"/></svg>