<svg width="16" height="16" viewBox="0 0 16 16" xmlns="http://www.w3.org/2000/svg"><path d="M4.53.22a.75.75 0 1 0-1.06 1.06l1 1c.3.3.77.3 1.06 0l1-1A.75.75 0 0 0 5.47.22L5 .69 4.53.22ZM2.5 3.75c0 .41.34.75.75.75h1.69L2.72 6.72A.75.75 0 0 0 3.25 8h3.5a.75.75 0 0 0 0-1.5H5.06l2.22-2.22A.75.75 0 0 0 6.75 3h-3.5a.75.75 0 0 0-.75.75Zm3.2 5.72a.75.75 0 0 0-1.4 0l-2 5a.75.75 0 0 0 1.4.56l.2-.53h2.2l.2.53a.75.75 0 0 0 1.4-.56l-2-5ZM5.5 13h-1l.5-1.23.5 1.23Zm6.75-12c.41 0 .75.34.75.75v10.69l.72-.72a.75.75 0 1 1 1.06 1.06l-2 2c-.3.3-.77.3-1.06 0l-2-2a.75.75 0 1 1 1.06-1.06l.72.72V1.75c0-.41.34-.75.75-.75Z"/></svg>