<svg width="24" height="24" viewBox="0 0 24 24" xmlns="http://www.w3.org/2000/svg"><path d="M4.97.38a1 1 0 0 1 1.4-.16l.63.5.63-.5a1 1 0 1 1 1.24 1.56l-1.25 1a1 1 0 0 1-1.24 0l-1.25-1a1 1 0 0 1-.16-1.4ZM17.5 2a1 1 0 0 1 1 1v15.59l1.8-1.8a1 1 0 0 1 1.4 1.42l-3.5 3.5a1 1 0 0 1-1.4 0l-3.5-3.5a1 1 0 0 1 1.4-1.42l1.8 1.8V3a1 1 0 0 1 1-1ZM7 13a1 1 0 0 1 .92.6l3 7a1 1 0 0 1-1.84.8l-.6-1.4H5.52l-.6 1.4a1 1 0 0 1-1.84-.8l3-7A1 1 0 0 1 7 13Zm0 3.54L6.37 18h1.26L7 16.54ZM4.5 4a1 1 0 1 0 0 2h3.23l-3.97 4.32A1 1 0 0 0 4.5 12H10a1 1 0 1 0 0-2H6.77l3.97-4.32A1 1 0 0 0 10 4H4.5Z"/></svg>