<svg width="24" height="24" viewBox="0 0 24 24" xmlns="http://www.w3.org/2000/svg"><path d="M6.22 1.16a.75.75 0 1 0-.94 1.18l1.25 1c.28.21.66.21.94 0l1.25-1a.75.75 0 1 0-.94-1.18L7 1.8l-.78-.63ZM7 13c.3 0 .57.18.69.45l3.25 7.5a.75.75 0 1 1-1.38.6L8.9 20H5.11l-.67 1.55a.75.75 0 1 1-1.38-.6l3.25-7.5A.75.75 0 0 1 7 13Zm0 2.64L5.76 18.5h2.48L7 15.64ZM4 4.75c0-.41.34-.75.75-.75h5a.75.75 0 0 1 .6 1.2l-4.08 5.3h3.48a.75.75 0 0 1 0 1.5h-5a.75.75 0 0 1-.6-1.2l4.08-5.3H4.75A.75.75 0 0 1 4 4.75ZM17.25 2c.41 0 .75.34.75.75v16.69l2.22-2.22a.75.75 0 1 1 1.06 1.06l-3.5 3.5c-.3.3-.77.3-1.06 0l-3.5-3.5a.75.75 0 0 1 1.06-1.06l2.22 2.22V2.75c0-.41.34-.75.75-.75Z"/></svg>