<svg width="20" height="20" viewBox="0 0 20 20" xmlns="http://www.w3.org/2000/svg"><path d="M7 4.5c0 .17-.02.34-.05.5H10a1 1 0 0 1 1 1v2h-1a2 2 0 0 0-2 2v1H6a1 1 0 0 1-1-1V6.95a2.51 2.51 0 0 1-1 0V10c0 1.1.9 2 2 2h2v2a2 2 0 0 0 1.16 1.81A5.51 5.51 0 0 1 9 14v-4a1 1 0 0 1 1-1h4a5.58 5.58 0 0 1 1.81.16A2 2 0 0 0 14 8h-2V6a2 2 0 0 0-2-2H6.95c.03.16.05.33.05.5Zm-1 0a1.5 1.5 0 1 1-3 0 1.5 1.5 0 0 1 3 0Zm11 0a1.5 1.5 0 1 1-3 0 1.5 1.5 0 0 1 3 0Zm-11 11a1.5 1.5 0 1 1-3 0 1.5 1.5 0 0 1 3 0Zm8.5 3.5a4.5 4.5 0 1 0 0-9 4.5 4.5 0 0 0 0 9Zm-.9-6.4-.9.9h1.55A2.75 2.75 0 0 1 17 16.25v.25a.5.5 0 0 1-1 0v-.25c0-.97-.78-1.75-1.75-1.75h-1.54l.9.9a.5.5 0 0 1-.71.7l-1.76-1.75a.5.5 0 0 1 0-.7l1.76-1.75a.5.5 0 0 1 .7.7Z"/></svg>