<svg width="20" height="20" viewBox="0 0 20 20" xmlns="http://www.w3.org/2000/svg"><path d="M17.85 4.35a.5.5 0 0 0-.7-.7L15.5 5.29l-.65-.64a.5.5 0 0 0-.7.7l1 1c.2.2.5.2.7 0l2-2Zm-15.1.15a.75.75 0 0 0 0 1.5h8.5a.75.75 0 0 0 0-1.5h-8.5Zm0 5a.75.75 0 0 0 0 1.5h8.5a.75.75 0 0 0 0-1.5h-8.5ZM2 15.25c0-.41.34-.75.75-.75h8.5a.75.75 0 0 1 0 1.5h-8.5a.75.75 0 0 1-.75-.75Zm13.85-3.4 2-2a.5.5 0 0 0-.7-.7l-1.65 1.64-.65-.64a.5.5 0 0 0-.7.7l1 1c.2.2.5.2.7 0Zm2 3-2 2a.5.5 0 0 1-.7 0l-1-1a.5.5 0 0 1 .7-.7l.65.64 1.65-1.64a.5.5 0 0 1 .7.7Z"/></svg>