<svg width="20" height="20" viewBox="0 0 20 20" xmlns="http://www.w3.org/2000/svg"><path d="M6 2a2 2 0 0 0-2 2v12c0 1.1.9 2 2 2h9.5a.5.5 0 0 0 0-1H6a1 1 0 0 1-1-1h10a1 1 0 0 0 1-1V4a2 2 0 0 0-2-2H6Zm4 10.5-.04-.02a.62.62 0 0 1-.15-.14 2.76 2.76 0 0 1-.4-.82A9.4 9.4 0 0 1 9.01 9h1.98a9.4 9.4 0 0 1-.4 2.52c-.13.38-.27.65-.4.82a.62.62 0 0 1-.15.14.15.15 0 0 1-.03.02H10ZM13.97 9a4 4 0 0 1-2.6 3.26l.17-.42c.25-.76.41-1.75.45-2.84h1.98Zm0-1h-1.98a10.43 10.43 0 0 0-.61-3.26A4 4 0 0 1 13.97 8Zm-5.35 4.26A4 4 0 0 1 6.03 9h1.98a10.43 10.43 0 0 0 .61 3.26ZM6.03 8a4 4 0 0 1 2.6-3.26l-.17.42c-.25.76-.41 1.75-.45 2.84H6.03ZM10 4.5l.04.02c.04.02.09.06.15.14.13.17.27.44.4.82.21.64.36 1.52.4 2.52H9.01c.04-1 .19-1.88.4-2.52.13-.38.27-.65.4-.82a.62.62 0 0 1 .15-.14.15.15 0 0 1 .03-.02H10Z"/></svg>