<svg width="32" height="32" viewBox="0 0 32 32" xmlns="http://www.w3.org/2000/svg"><path d="M16.25 2.5c.69 0 1.25.56 1.25 1.25v4.2l2.67-2.68a1.25 1.25 0 011.77 1.77l-4.44 4.44V15h3.52l4.44-4.44a1.25 1.25 0 011.77 1.77L24.56 15h4.19a1.25 1.25 0 110 2.5h-4.2l2.68 2.67a1.25 1.25 0 11-1.77 1.77l-4.44-4.44H17.5v3.52l4.44 4.44a1.25 1.25 0 01-1.77 1.77l-2.67-2.67v4.19a1.25 1.25 0 11-2.5 0v-4.2l-2.67 2.68a1.25 1.25 0 11-1.77-1.77L15 21.02V17.5h-3.52l-4.44 4.44a1.25 1.25 0 01-1.77-1.77l2.67-2.67H3.75a1.25 1.25 0 110-2.5h4.2l-2.68-2.67a1.25 1.25 0 011.77-1.77L11.48 15H15v-3.52l-4.44-4.44a1.25 1.25 0 011.77-1.77L15 7.94V3.75c0-.69.56-1.25 1.25-1.25z"/></svg>