<svg width="48" height="48" viewBox="0 0 48 48" xmlns="http://www.w3.org/2000/svg"><path d="M24.5 4c.83 0 1.5.67 1.5 1.5v7.83l4.5-4.5a1.5 1.5 0 012.12 2.12L26 17.57V23h5.43l6.62-6.62a1.5 1.5 0 012.13 2.12l-4.5 4.5h7.82a1.5 1.5 0 010 3h-7.83l4.26 4.26a1.5 1.5 0 01-2.12 2.12L31.43 26H26v5.43l6.38 6.38a1.5 1.5 0 01-2.12 2.12L26 35.67v7.83a1.5 1.5 0 01-3 0v-7.83l-4.5 4.5a1.5 1.5 0 01-2.12-2.12L23 31.43V26h-5.43l-6.62 6.62a1.5 1.5 0 01-2.13-2.12l4.5-4.5H5.5a1.5 1.5 0 010-3h7.83l-4.75-4.75a1.5 1.5 0 012.12-2.12L17.57 23H23v-5.43l-6.87-6.87a1.5 1.5 0 012.12-2.12L23 13.33V5.5c0-.83.67-1.5 1.5-1.5z"/></svg>