<svg width="24" height="24" viewBox="0 0 24 24" xmlns="http://www.w3.org/2000/svg"><path d="M12 2a1 1 0 011 1v2.55l1.7-1.7a1 1 0 111.42 1.4L13 8.39V11h2.62l3.12-3.12a1 1 0 111.42 1.41L18.45 11H21a1 1 0 110 2h-2.55l1.7 1.7a1 1 0 01-1.4 1.42L15.61 13H13v2.62l3.12 3.12a1 1 0 01-1.41 1.42L13 18.45V21a1 1 0 11-2 0v-2.55l-1.7 1.7a1 1 0 01-1.42-1.4L11 15.61V13H8.38l-3.12 3.12a1 1 0 01-1.42-1.41L5.55 13H3a1 1 0 110-2h2.55l-1.7-1.7a1 1 0 111.4-1.42L8.39 11H11V8.38L7.88 5.26a1 1 0 011.41-1.42L11 5.55V3a1 1 0 011-1z"/></svg>