<svg width="24" height="24" viewBox="0 0 24 24" xmlns="http://www.w3.org/2000/svg"><path d="M11.75 2c.41 0 .75.34.75.75V5.9l2.13-2.13a.75.75 0 111.06 1.06l-3.19 3.2V11h2.97l3.2-3.2a.75.75 0 011.06 1.07L17.6 11h3.15a.75.75 0 010 1.5H17.6l2.13 2.13a.75.75 0 11-1.06 1.06l-3.2-3.19H12.5v2.97l3.2 3.2a.75.75 0 01-1.07 1.06L12.5 17.6v3.15a.75.75 0 01-1.5 0V17.6l-2.13 2.13a.75.75 0 11-1.06-1.06l3.19-3.2V12.5H8.03l-3.2 3.2a.75.75 0 01-1.06-1.07L5.9 12.5H2.75a.75.75 0 010-1.5H5.9L3.77 8.87A.75.75 0 014.83 7.8L8.03 11H11V8.03l-3.2-3.2a.75.75 0 111.07-1.06L11 5.9V2.75c0-.41.34-.75.75-.75z"/></svg>