<svg width="20" height="20" viewBox="0 0 20 20" xmlns="http://www.w3.org/2000/svg"><path d="M10 2c.41 0 .75.34.75.75v2.19l1.47-1.47a.75.75 0 111.06 1.06l-2.53 2.53v2.19h2.19l2.53-2.53a.75.75 0 111.06 1.06l-1.47 1.47h2.19a.75.75 0 010 1.5h-2.19l1.47 1.47a.75.75 0 11-1.06 1.06l-2.53-2.53h-2.19v2.19l2.53 2.53a.75.75 0 11-1.06 1.06l-1.47-1.47v2.19a.75.75 0 01-1.5 0v-2.19l-1.47 1.47a.75.75 0 01-1.06-1.06l2.53-2.53v-2.19H7.06l-2.53 2.53a.75.75 0 01-1.06-1.06l1.47-1.47H2.75a.75.75 0 010-1.5h2.19L3.47 7.78a.75.75 0 011.06-1.06l2.53 2.53h2.19V7.06L6.72 4.53a.75.75 0 011.06-1.06l1.47 1.47V2.75c0-.41.34-.75.75-.75z"/></svg>