<svg width="20" height="20" viewBox="0 0 20 20" xmlns="http://www.w3.org/2000/svg"><path d="M10 2c.28 0 .5.22.5.5v3.04l1.9-1.9a.5.5 0 01.7.71l-2.6 2.6V9.5h2.54l2.6-2.6a.5.5 0 01.71.7l-1.9 1.9h3.05a.5.5 0 010 1h-3.04l1.9 1.9a.5.5 0 01-.71.7l-2.6-2.6H10.5v2.54l2.6 2.6a.5.5 0 01-.7.71l-1.9-1.9v3.05a.5.5 0 01-1 0v-3.04l-1.9 1.9a.5.5 0 01-.7-.71l2.6-2.6V10.5H6.96l-2.6 2.6a.5.5 0 01-.71-.7l1.9-1.9H2.5a.5.5 0 010-1h3.04l-1.9-1.9a.5.5 0 11.71-.7l2.6 2.6H9.5V6.96l-2.6-2.6a.5.5 0 11.7-.71l1.9 1.9V2.5c0-.28.22-.5.5-.5z"/></svg>