<svg width="48" height="48" viewBox="0 0 48 48" xmlns="http://www.w3.org/2000/svg"><path d="M24.25 3.5c.69 0 1.25.56 1.25 1.25v8.73l5.12-5.11a1.25 1.25 0 011.76 1.76l-6.88 6.89V23h5.98l6.89-6.88a1.25 1.25 0 011.76 1.76L35.02 23h8.73a1.25 1.25 0 110 2.5h-8.73l4.86 4.87a1.25 1.25 0 01-1.76 1.76l-6.64-6.63H25.5v5.98l6.63 6.64a1.25 1.25 0 01-1.76 1.76l-4.87-4.86v8.73a1.25 1.25 0 11-2.5 0v-8.73l-5.12 5.11a1.25 1.25 0 01-1.76-1.76L23 31.48V25.5h-5.98l-6.89 6.88a1.25 1.25 0 01-1.76-1.76l5.11-5.12H4.75a1.25 1.25 0 110-2.5h8.73l-5.36-5.37a1.25 1.25 0 011.76-1.76L17.02 23H23v-5.98l-7.13-7.14a1.25 1.25 0 011.76-1.76L23 13.48V4.75c0-.69.56-1.25 1.25-1.25z"/></svg>