<svg width="32" height="32" viewBox="0 0 32 32" xmlns="http://www.w3.org/2000/svg"><path d="M16 2a1 1 0 011 1v5.09l3.3-3.3a1 1 0 111.4 1.42L17 10.9V15h4.09l4.7-4.7a1 1 0 111.42 1.4L23.9 15H29a1 1 0 110 2h-5.09l3.3 3.3a1 1 0 01-1.42 1.4L21.1 17H17v4.09l4.7 4.7a1 1 0 01-1.4 1.42L17 23.9V29a1 1 0 11-2 0v-5.09l-3.3 3.3a1 1 0 01-1.4-1.42l4.7-4.7V17h-4.09l-4.7 4.7a1 1 0 01-1.42-1.4L8.1 17H3a1 1 0 110-2h5.09l-3.3-3.3a1 1 0 111.42-1.4l4.7 4.7H15v-4.09l-4.7-4.7a1 1 0 111.4-1.42L15 8.1V3a1 1 0 011-1z"/></svg>