<svg width="48" height="48" viewBox="0 0 48 48" xmlns="http://www.w3.org/2000/svg"><path d="M24 7c.7 0 1.25.56 1.25 1.25v2.5a1.25 1.25 0 11-2.5 0v-2.5c0-.69.56-1.25 1.25-1.25zm.05 27.02a9.98 9.98 0 100-19.95 9.98 9.98 0 000 19.95zm0-2.5a7.48 7.48 0 110-14.95 7.48 7.48 0 010 14.95zm15.7-6.27a1.25 1.25 0 100-2.5h-2.5a1.25 1.25 0 000 2.5h2.5zM24 36c.7 0 1.25.56 1.25 1.25v2.5a1.25 1.25 0 01-2.5 0v-2.5c0-.69.56-1.25 1.25-1.25zM10.75 25.25a1.25 1.25 0 100-2.5h-2.5a1.25 1.25 0 100 2.5h2.5zm1.62-12.88a1.25 1.25 0 011.76 0l1.5 1.5a1.25 1.25 0 11-1.76 1.76l-1.5-1.5a1.25 1.25 0 010-1.76zm1.76 23.26a1.25 1.25 0 01-1.76-1.76l1.5-1.5a1.25 1.25 0 011.76 1.76l-1.5 1.5zm21.5-23.26a1.25 1.25 0 00-1.76 0l-1.5 1.5a1.25 1.25 0 101.76 1.76l1.5-1.5c.5-.48.5-1.28 0-1.76zm-1.76 23.26a1.25 1.25 0 001.76-1.76l-1.5-1.5a1.25 1.25 0 00-1.76 1.76l1.5 1.5z"/></svg>