<svg width="32" height="32" viewBox="0 0 32 32" xmlns="http://www.w3.org/2000/svg"><path d="M17 5a1 1 0 00-2 0v2a1 1 0 102 0V5zm6 11a7 7 0 11-14 0 7 7 0 0114 0zm-2 0a5 5 0 00-5-5v10a5 5 0 005-5zm7 0a1 1 0 01-1 1h-2a1 1 0 110-2h2a1 1 0 011 1zm-11 9a1 1 0 00-2 0v2a1 1 0 102 0v-2zm-9-9a1 1 0 01-1 1H5a1 1 0 110-2h2a1 1 0 011 1zm.7-8.7a1 1 0 00-1.4 1.4l1 1a1 1 0 001.4-1.4l-1-1zM7.3 24.7a1 1 0 001.4 0l1-1a1 1 0 10-1.4-1.4l-1 1a1 1 0 000 1.4zm16-17.4a1 1 0 011.4 1.4l-1 1a1 1 0 01-1.4-1.4l1-1zm0 17.4l-1-1a1 1 0 011.4-1.4l1 1a1 1 0 01-1.4 1.4z"/></svg>