<svg width="48" height="48" viewBox="0 0 48 48" xmlns="http://www.w3.org/2000/svg"><path d="M25.25 8.25a1.25 1.25 0 10-2.5 0v2.5a1.25 1.25 0 002.5 0v-2.5zm8.77 15.8a9.98 9.98 0 11-19.95 0 9.98 9.98 0 0119.95 0zm-2.5 0a7.48 7.48 0 00-7.47-7.48H24v14.95h.05a7.48 7.48 0 007.47-7.47zM41 24c0 .69-.56 1.25-1.25 1.25h-2.5a1.25 1.25 0 010-2.5h2.5c.7 0 1.25.56 1.25 1.25zM25.25 37.25a1.25 1.25 0 10-2.5 0v2.5a1.25 1.25 0 002.5 0v-2.5zM12 24c0 .69-.56 1.25-1.25 1.25h-2.5a1.25 1.25 0 110-2.5h2.5c.7 0 1.25.56 1.25 1.25zm2.13-11.63a1.25 1.25 0 00-1.76 1.76l1.5 1.5a1.25 1.25 0 001.76-1.76l-1.5-1.5zm-1.76 23.26c.48.5 1.28.5 1.76 0l1.5-1.5a1.25 1.25 0 10-1.76-1.76l-1.5 1.5a1.25 1.25 0 000 1.76zm21.5-23.26a1.25 1.25 0 011.76 1.76l-1.5 1.5a1.25 1.25 0 01-1.76-1.76l1.5-1.5zm1.76 23.26c-.48.5-1.28.5-1.76 0l-1.5-1.5a1.25 1.25 0 111.76-1.76l1.5 1.5c.5.48.5 1.28 0 1.76z"/></svg>