<svg width="16" height="16" viewBox="0 0 16 16" xmlns="http://www.w3.org/2000/svg"><path d="M8.5 2.5a.5.5 0 00-1 0v1a.5.5 0 001 0v-1zM8 5a3 3 0 110 6 3 3 0 010-6zm2 3a2 2 0 00-2-2v4a2 2 0 002-2zm4 0a.5.5 0 01-.5.5h-1a.5.5 0 010-1h1c.28 0 .5.22.5.5zm-5.5 4.5a.5.5 0 00-1 0v1a.5.5 0 001 0v-1zM4 8a.5.5 0 01-.5.5h-1a.5.5 0 010-1h1c.28 0 .5.22.5.5zm.35-4.35a.5.5 0 00-.7.7l.5.5a.5.5 0 10.7-.7l-.5-.5zm-.7 8.7c.2.2.5.2.7 0l.5-.5a.5.5 0 10-.7-.7l-.5.5a.5.5 0 000 .7zm8-8.7a.5.5 0 01.7.7l-.5.5a.5.5 0 01-.7-.7l.5-.5zm0 8.7l-.5-.5a.5.5 0 01.7-.7l.5.5a.5.5 0 01-.7.7z"/></svg>