<svg width="32" height="32" viewBox="0 0 32 32" xmlns="http://www.w3.org/2000/svg"><path d="M16 4a1 1 0 0 1 1 1v2a1 1 0 0 1-2 0V5a1 1 0 0 1 1-1Zm0 19a7 7 0 1 0 0-14 7 7 0 0 0 0 14Zm0-2a5 5 0 1 1 0-10 5 5 0 0 1 0 10Zm11-4a1 1 0 0 0 0-2h-2a1 1 0 1 0 0 2h2Zm-11 7a1 1 0 0 1 1 1v2a1 1 0 0 1-2 0v-2a1 1 0 0 1 1-1Zm-9-7a1 1 0 1 0 0-2H5a1 1 0 1 0 0 2h2Zm.3-9.7a1 1 0 0 1 1.4 0l1 1a1 1 0 1 1-1.4 1.4l-1-1a1 1 0 0 1 0-1.4Zm1.4 17.4a1 1 0 0 1-1.4-1.4l1-1a1 1 0 0 1 1.4 1.4l-1 1Zm16-17.4a1 1 0 0 0-1.4 0l-1 1a1 1 0 0 0 1.4 1.4l1-1a1 1 0 0 0 0-1.4Zm-2.4 16.4 1 1a1 1 0 0 0 1.4-1.4l-1-1a1 1 0 0 0-1.4 1.4Z"/></svg>