<svg width="24" height="24" viewBox="0 0 24 24" xmlns="http://www.w3.org/2000/svg"><path d="M12 3.5c.41 0 .75.34.75.75v1a.75.75 0 01-1.5 0v-1c0-.41.34-.75.75-.75zM12 17a5 5 0 100-10 5 5 0 000 10zm0-1.5a3.5 3.5 0 110-7 3.5 3.5 0 010 7zm7.75-2.75a.75.75 0 000-1.5h-1a.75.75 0 000 1.5h1zM12 18c.41 0 .75.34.75.75v1a.75.75 0 01-1.5 0v-1c0-.41.34-.75.75-.75zm-6.75-5.25a.75.75 0 000-1.5h-1a.75.75 0 000 1.5h1zm.97-6.53c.3-.3.77-.3 1.06 0l.5.5a.75.75 0 01-1.06 1.06l-.5-.5a.75.75 0 010-1.06zm1.06 11.56a.75.75 0 01-1.06-1.06l.5-.5a.75.75 0 011.06 1.06l-.5.5zm10.5-11.56a.75.75 0 00-1.06 0l-.5.5a.75.75 0 001.06 1.06l.5-.5c.3-.3.3-.77 0-1.06zm-1.06 11.56a.75.75 0 101.06-1.06l-.5-.5a.75.75 0 10-1.06 1.06l.5.5z"/></svg>