<svg width="32" height="32" viewBox="0 0 32 32" xmlns="http://www.w3.org/2000/svg"><path d="M16 4a1 1 0 011 1v2a1 1 0 01-2 0V5a1 1 0 011-1zm0 19a7 7 0 100-14 7 7 0 000 14zm0-2a5 5 0 110-10 5 5 0 010 10zm11-4a1 1 0 000-2h-2a1 1 0 100 2h2zm-11 7a1 1 0 011 1v2a1 1 0 01-2 0v-2a1 1 0 011-1zm-9-7a1 1 0 100-2H5a1 1 0 100 2h2zm.3-9.7a1 1 0 011.4 0l1 1a1 1 0 11-1.4 1.4l-1-1a1 1 0 010-1.4zm1.4 17.4a1 1 0 01-1.4-1.4l1-1a1 1 0 011.4 1.4l-1 1zm16-17.4a1 1 0 00-1.4 0l-1 1a1 1 0 001.4 1.4l1-1a1 1 0 000-1.4zm-2.4 16.4l1 1a1 1 0 001.4-1.4l-1-1a1 1 0 00-1.4 1.4z"/></svg>