<svg width="20" height="20" viewBox="0 0 20 20" xmlns="http://www.w3.org/2000/svg"><path d="M10 3c.28 0 .5.22.5.5v1a.5.5 0 0 1-1 0v-1c0-.28.22-.5.5-.5Zm0 3a4 4 0 1 0 0 8 4 4 0 0 0 0-8Zm0 7V7a3 3 0 1 1 0 6Zm6.5-2.5a.5.5 0 0 0 0-1h-1a.5.5 0 0 0 0 1h1ZM10 15c.28 0 .5.22.5.5v1a.5.5 0 0 1-1 0v-1c0-.28.22-.5.5-.5Zm-5.5-4.5a.5.5 0 0 0 0-1h-1a.5.5 0 0 0 0 1h1Zm.65-5.35c.2-.2.5-.2.7 0l.5.5a.5.5 0 1 1-.7.7l-.5-.5a.5.5 0 0 1 0-.7Zm.7 9.7a.5.5 0 0 1-.7-.7l.5-.5a.5.5 0 0 1 .7.7l-.5.5Zm9-9.7a.5.5 0 0 0-.7 0l-.5.5a.5.5 0 0 0 .7.7l.5-.5a.5.5 0 0 0 0-.7Zm-.7 9.7a.5.5 0 0 0 .7-.7l-.5-.5a.5.5 0 0 0-.7.7l.5.5Z"/></svg>