<svg width="28" height="28" viewBox="0 0 28 28" xmlns="http://www.w3.org/2000/svg"><path d="M14 4c.41 0 .75.34.75.75v1.5a.75.75 0 01-1.5 0v-1.5c0-.41.33-.75.75-.75zm0 16a6 6 0 100-12 6 6 0 000 12zm0-1.5a4.5 4.5 0 110-9 4.5 4.5 0 010 9zm9.25-3.75a.75.75 0 000-1.5h-1.5a.75.75 0 000 1.5h1.5zM14 21c.41 0 .75.34.75.75v1.5a.75.75 0 01-1.5 0v-1.5c0-.41.33-.75.75-.75zm-7.75-6.25a.75.75 0 000-1.5h-1.5a.75.75 0 000 1.5h1.5zm.47-8.03c.3-.3.77-.3 1.06 0l1 1a.75.75 0 01-1.06 1.06l-1-1a.75.75 0 010-1.06zm1.06 14.56a.75.75 0 01-1.06-1.06l1-1a.75.75 0 011.06 1.06l-1 1zm13.5-14.56a.75.75 0 00-1.06 0l-1 1a.75.75 0 001.06 1.06l1-1c.3-.3.3-.77 0-1.06zm-1.06 14.56a.75.75 0 101.06-1.06l-.99-.99a.75.75 0 10-1.06 1.06l.99.99z"/></svg>