<svg width="16" height="16" viewBox="0 0 16 16" xmlns="http://www.w3.org/2000/svg"><path d="M8 2c.28 0 .5.22.5.5v1a.5.5 0 01-1 0v-1c0-.28.22-.5.5-.5zm0 9a3 3 0 100-6 3 3 0 000 6zm0-1a2 2 0 110-4 2 2 0 010 4zm5.5-1.5a.5.5 0 000-1h-1a.5.5 0 000 1h1zM8 12c.28 0 .5.22.5.5v1a.5.5 0 01-1 0v-1c0-.28.22-.5.5-.5zM3.5 8.5a.5.5 0 000-1h-1a.5.5 0 000 1h1zm.15-4.85c.2-.2.5-.2.7 0l.5.5a.5.5 0 11-.7.7l-.5-.5a.5.5 0 010-.7zm.7 8.7a.5.5 0 11-.7-.7l.5-.5a.5.5 0 11.7.7l-.5.5zm8-8.7a.5.5 0 00-.7 0l-.5.5a.5.5 0 00.7.7l.5-.5a.5.5 0 000-.7zm-1.2 8.2l.5.5a.5.5 0 00.7-.7l-.5-.5a.5.5 0 00-.7.7z"/></svg>