<svg width="28" height="28" viewBox="0 0 28 28" xmlns="http://www.w3.org/2000/svg"><path d="M14.75 4.75a.75.75 0 00-1.5 0v1.5a.75.75 0 001.5 0v-1.5zM20 14a6 6 0 11-12 0 6 6 0 0112 0zm-1.5 0A4.5 4.5 0 0014 9.5v9a4.5 4.5 0 004.5-4.5zm5.5 0c0 .41-.34.75-.75.75h-1.5a.75.75 0 010-1.5h1.5c.41 0 .75.34.75.75zm-9.25 7.75a.75.75 0 00-1.5 0v1.5a.75.75 0 001.5 0v-1.5zM7 14c0 .41-.34.75-.75.75h-1.5a.75.75 0 010-1.5h1.5c.41 0 .75.34.75.75zm.78-7.28a.75.75 0 00-1.06 1.06l1 1a.75.75 0 001.06-1.06l-1-1zM6.72 21.28c.3.3.77.3 1.06 0l1-1a.75.75 0 10-1.06-1.06l-1 1c-.3.3-.3.77 0 1.06zm13.5-14.56a.75.75 0 111.06 1.06l-1 1a.75.75 0 11-1.06-1.06l1-1zm1.06 14.56c-.3.3-.77.3-1.06 0l-.99-.99a.75.75 0 111.06-1.06l.99.99c.3.3.3.77 0 1.06z"/></svg>