<svg width="28" height="28" viewBox="0 0 28 28" xmlns="http://www.w3.org/2000/svg"><path d="M6.25 5h13.5a3.25 3.25 0 013.24 3.07l.01.18v9.5a3.25 3.25 0 01-3.07 3.24l-.18.01H6.25a3.25 3.25 0 01-3.24-3.07L3 17.75v-9.5a3.25 3.25 0 013.07-3.24L6.25 5zm15.25 5.37l-8.15 4.3c-.19.1-.4.1-.6.04l-.1-.05-8.15-4.29v7.38c0 .92.7 1.67 1.6 1.74l.15.01h13.5c.92 0 1.67-.7 1.74-1.6l.01-.15v-7.38zM19.75 6.5H6.25c-.92 0-1.67.7-1.74 1.6l-.01.15v.43l8.5 4.47 8.5-4.47v-.43c0-.92-.7-1.67-1.6-1.74l-.15-.01zM6.01 22c.58.9 1.59 1.5 2.74 1.5h11.5c2.9 0 5.25-2.35 5.25-5.25v-7.5c0-1.15-.6-2.16-1.5-2.74v10.24A3.75 3.75 0 0120.25 22H6.01z"/></svg>