<svg width="16" height="16" viewBox="0 0 16 16" xmlns="http://www.w3.org/2000/svg"><path d="M10.5 5h3.25L10 1.25V4.5c0 .28.22.5.5.5Zm0 1A1.5 1.5 0 0 1 9 4.5V1H5.5C4.67 1 4 1.67 4 2.5v7.01l.04.03c.08.06.16.12.23.2.07.07.14.15.2.24l.01.02a2.44 2.44 0 0 1 1.94-1h.15c.64 0 1.27.26 1.72.71l.2.23.01.03A2.44 2.44 0 0 1 10.42 9h.15A2.41 2.41 0 0 1 13 11.43c0 .34-.11.67-.32.94l.09.18a2.43 2.43 0 0 1-.25 2.45A1.5 1.5 0 0 0 14 13.5V6h-3.5Zm-9.06 8.56A1.5 1.5 0 0 0 4 13.5a.5.5 0 1 0-1 0 .5.5 0 1 1-1 0v-2a.5.5 0 1 1 1 0 .5.5 0 1 0 1 0 1.5 1.5 0 1 0-3 0v2c0 .4.16.78.44 1.06Zm4.99.44h.14a1.43 1.43 0 0 0 1.3-2.03c-.14-.3-.37-.53-.66-.67l-.97-.5a.43.43 0 0 1 .19-.8h.14a.43.43 0 0 1 .43.43v.07c0 .06.02.13.04.19a.47.47 0 0 0 .46.27.54.54 0 0 0 .5-.53A1.43 1.43 0 0 0 6.57 10h-.14a1.43 1.43 0 0 0-.64 2.7l.98.5a.43.43 0 0 1-.2.8h-.14a.45.45 0 0 1-.32-.16.45.45 0 0 1-.11-.34.47.47 0 0 0-.5-.46.54.54 0 0 0-.5.53A1.43 1.43 0 0 0 6.43 15Zm4 0h.14a1.43 1.43 0 0 0 .64-2.7l-.98-.5a.43.43 0 0 1 .2-.8h.14a.43.43 0 0 1 .43.43v.07a.47.47 0 0 0 .5.46.54.54 0 0 0 .5-.53A1.43 1.43 0 0 0 10.57 10h-.14a1.43 1.43 0 0 0-.64 2.7l.98.5a.43.43 0 0 1-.2.8h-.14a.46.46 0 0 1-.33-.16.45.45 0 0 1-.1-.34.47.47 0 0 0-.5-.46.54.54 0 0 0-.5.53A1.43 1.43 0 0 0 10.43 15Z"/></svg>