<svg width="20" height="20" viewBox="0 0 20 20" xmlns="http://www.w3.org/2000/svg"><path d="M3 17a2 2 0 0 1-2-2V5c0-1.1.9-2 2-2h1a2 2 0 0 1 2 2v10a2 2 0 0 1-2 2H3Zm-1-2a1 1 0 0 0 1 1h1a1 1 0 0 0 1-1V5a1 1 0 0 0-1-1H3a1 1 0 0 0-1 1v10Zm7 2a2 2 0 0 1-2-2V5c0-1.1.9-2 2-2h1a2 2 0 0 1 2 2v10a2 2 0 0 1-2 2H9Zm-1-2a1 1 0 0 0 1 1h1a1 1 0 0 0 1-1V5a1 1 0 0 0-1-1H9a1 1 0 0 0-1 1v10Zm7 2a2 2 0 0 1-2-2V5c0-1.1.9-2 2-2h1a2 2 0 0 1 2 2v10a2 2 0 0 1-2 2h-1Zm-1-2a1 1 0 0 0 1 1h1a1 1 0 0 0 1-1V5a1 1 0 0 0-1-1h-1a1 1 0 0 0-1 1v10Z"/></svg>