<svg width="16" height="16" viewBox="0 0 16 16" xmlns="http://www.w3.org/2000/svg"><path d="M4.5 2A2.5 2.5 0 002 4.5v7A2.5 2.5 0 004.5 14h1.76A5.48 5.48 0 016 7.34V6h1.34a5.47 5.47 0 016.66.26V4.5A2.5 2.5 0 0011.5 2h-7zM3 11h2v2h-.5A1.5 1.5 0 013 11.5V11zm0-5h2v4H3V6zm7-1H6V3h4v2zM4.5 3H5v2H3v-.5C3 3.67 3.67 3 4.5 3zM13 4.5V5h-2V3h.5c.83 0 1.5.67 1.5 1.5zM10.5 15a4.5 4.5 0 100-9 4.5 4.5 0 000 9zm0-7c.28 0 .5.22.5.5V10h1.5a.5.5 0 010 1H11v1.5a.5.5 0 01-1 0V11H8.5a.5.5 0 010-1H10V8.5c0-.28.22-.5.5-.5z"/></svg>