<svg width="28" height="28" viewBox="0 0 28 28" xmlns="http://www.w3.org/2000/svg"><path d="M3 6.75A3.75 3.75 0 0 1 6.75 3H9.5v6.5H3V6.75ZM3 11v6h6.5v-6H3Zm0 7.5v2.75A3.75 3.75 0 0 0 6.75 25H9.5v-6.5H3Zm8 6.5h3.5a7.47 7.47 0 0 1-1.23-6.5H11V25Zm14-14v3.5a7.47 7.47 0 0 0-6.5-1.23V11H25Zm-8 0v2.87A7.53 7.53 0 0 0 13.87 17H11v-6h6Zm8-1.5V6.75A3.75 3.75 0 0 0 21.25 3H18.5v6.5H25ZM17 3h-6v6.5h6V3Zm10 17.5a6.5 6.5 0 1 1-13 0 6.5 6.5 0 0 1 13 0Zm-6-4a.5.5 0 0 0-1 0V20h-3.5a.5.5 0 0 0 0 1H20v3.5a.5.5 0 0 0 1 0V21h3.5a.5.5 0 0 0 0-1H21v-3.5Z"/></svg>