<svg width="20" height="20" viewBox="0 0 20 20" xmlns="http://www.w3.org/2000/svg"><path d="M13 7h4V5.5A2.5 2.5 0 0 0 14.5 3H13v4Zm-6 5V8H3v4h4Zm2.6 0A5.52 5.52 0 0 1 12 9.6V8H8v4h1.6Zm4.9-3c.9 0 1.75.22 2.5.6V8h-4v1.2c.48-.13.98-.2 1.5-.2ZM9 14.5c0-.52.07-1.02.2-1.5H8v4h1.6c-.38-.75-.6-1.6-.6-2.5ZM7 13H3v1.5A2.5 2.5 0 0 0 5.5 17H7v-4Zm5-6V3H8v4h4ZM7 3v4H3V5.5A2.5 2.5 0 0 1 5.5 3H7Zm12 11.5a4.5 4.5 0 1 1-9 0 4.5 4.5 0 0 1 9 0Zm-4-2a.5.5 0 0 0-1 0V14h-1.5a.5.5 0 0 0 0 1H14v1.5a.5.5 0 0 0 1 0V15h1.5a.5.5 0 0 0 0-1H15v-1.5Z"/></svg>