<svg width="28" height="28" viewBox="0 0 28 28" xmlns="http://www.w3.org/2000/svg"><path d="M6.25 3A3.25 3.25 0 003 6.25v13.5C3 21.55 4.46 23 6.25 23h13.5c1.8 0 3.25-1.46 3.25-3.25V6.25C23 4.45 21.54 3 19.75 3H6.25zM4.5 6.25c0-.97.78-1.75 1.75-1.75h13.5c.97 0 1.75.78 1.75 1.75V7h-17v-.75zm0 2.25h17v11.25c0 .97-.78 1.75-1.75 1.75H6.25c-.97 0-1.75-.78-1.75-1.75V8.5zm4.25 17C7.6 25.5 6.59 24.9 6 24h14.24A3.75 3.75 0 0024 20.25v-1.07V6c.9.58 1.5 1.6 1.5 2.74v11.5c0 2.9-2.35 5.25-5.25 5.25H8.75z"/></svg>