<svg width="28" height="28" viewBox="0 0 28 28" xmlns="http://www.w3.org/2000/svg"><path d="M2.75 13.25h7.73l.07.08.67.67-.67.67-.07.08H2.75a.75.75 0 010-1.5zm14.45.08l.07-.08h7.98a.75.75 0 010 1.5h-7.98a1.83 1.83 0 00-.07-.08l-.67-.67.67-.67zm-4.67-1.86a.75.75 0 10-1.06 1.06L12.94 14l-1.47 1.47a.75.75 0 101.06 1.06L14 15.06l1.47 1.47a.75.75 0 101.06-1.06L15.06 14l1.47-1.47a.75.75 0 10-1.06-1.06L14 12.94l-1.47-1.47zM25 3.75a.75.75 0 00-1.5 0v1.5c0 1.24-1 2.25-2.25 2.25H18.5V3.75a.75.75 0 00-1.5 0V7.5h-6V3.75a.75.75 0 00-1.5 0V7.5H6.75c-1.24 0-2.25-1-2.25-2.25v-1.5a.75.75 0 00-1.5 0v1.5A3.75 3.75 0 006.75 9h14.5A3.75 3.75 0 0025 5.25v-1.5zm0 19A3.75 3.75 0 0021.25 19H6.75A3.75 3.75 0 003 22.75v2.5a.75.75 0 001.5 0v-2.5c0-1.24 1-2.25 2.25-2.25H9.5v4.75a.75.75 0 001.5 0V20.5h6v4.75a.75.75 0 001.5 0V20.5h2.75c1.24 0 2.25 1 2.25 2.25v2.5a.75.75 0 001.5 0v-2.5z"/></svg>