<svg width="16" height="16" viewBox="0 0 16 16" xmlns="http://www.w3.org/2000/svg"><path d="M13 2.5c0 .83-.67 1.5-1.5 1.5H11V2.5a.5.5 0 00-1 0V4H6V2.5a.5.5 0 00-1 0V4h-.5A1.5 1.5 0 013 2.5a.5.5 0 00-1 0A2.5 2.5 0 004.5 5h7A2.5 2.5 0 0014 2.5a.5.5 0 00-1 0zm1 11a2.5 2.5 0 00-2.5-2.5h-7A2.5 2.5 0 002 13.5a.5.5 0 001 0c0-.83.67-1.5 1.5-1.5H5v1.5a.5.5 0 001 0V12h4v1.5a.5.5 0 001 0V12h.5c.83 0 1.5.67 1.5 1.5a.5.5 0 001 0zM9.85 6.15c.2.2.2.5 0 .7L8.71 8l1.14 1.15a.5.5 0 01-.7.7L8 8.71 6.85 9.85a.5.5 0 01-.7-.7L7.29 8 6.15 6.85a.5.5 0 11.7-.7L8 7.29l1.15-1.14c.2-.2.5-.2.7 0zM14.5 8a.5.5 0 01-.5.5h-3.38a1.48 1.48 0 00-.07-.07L10.12 8l.44-.44.06-.06H14c.28 0 .5.22.5.5zm-9.05.43l-.07.07H2a.5.5 0 010-1h3.38l.06.06.44.44-.43.43z"/></svg>