<svg width="16" height="16" viewBox="0 0 16 16" xmlns="http://www.w3.org/2000/svg"><path d="M2 2h3v3h-.5A2.5 2.5 0 012 2.5V2zm8 3H6V2h4v3zm1 0h.5A2.5 2.5 0 0014 2.5V2h-3v3zm3 8.5a2.5 2.5 0 00-2.5-2.5H11v3h3v-.5zM10 11v3H6v-3h4zm-5 3v-3h-.5A2.5 2.5 0 002 13.5v.5h3zm4.85-7.85c.2.2.2.5 0 .7L8.71 8l1.14 1.15a.5.5 0 01-.7.7L8 8.71 6.85 9.85a.5.5 0 01-.7-.7L7.29 8 6.15 6.85a.5.5 0 11.7-.7L8 7.29l1.15-1.14c.2-.2.5-.2.7 0zM14.5 8a.5.5 0 01-.5.5h-3.38a1.48 1.48 0 00-.07-.07L10.12 8l.44-.44.06-.06H14c.28 0 .5.22.5.5zm-9.05.43l-.07.07H2a.5.5 0 010-1h3.38l.06.06.44.44-.43.43z"/></svg>