<svg width="28" height="28" viewBox="0 0 28 28" xmlns="http://www.w3.org/2000/svg"><path d="M3 4a1 1 0 011-1h5.5v6H6.75A3.75 3.75 0 013 5.25V4zm14 5h-6V3h6v6zm4.25 0H18.5V3H24a1 1 0 011 1v1.25A3.75 3.75 0 0121.25 9zM25 22.75A3.75 3.75 0 0021.25 19H18.5v6H24a1 1 0 001-1v-1.25zM17 19h-6v6h6v-6zM6.75 19H9.5v6H4a1 1 0 01-1-1v-1.25A3.75 3.75 0 016.75 19zm-4-5.75h7.73l.07.08.67.67-.67.67-.07.08H2.75a.75.75 0 010-1.5zm14.45.08l.07-.08h7.98a.75.75 0 010 1.5h-7.98a1.83 1.83 0 00-.07-.08l-.67-.67.67-.67zm-4.67-1.86a.75.75 0 10-1.06 1.06L12.94 14l-1.47 1.47a.75.75 0 101.06 1.06L14 15.06l1.47 1.47a.75.75 0 101.06-1.06L15.06 14l1.47-1.47a.75.75 0 10-1.06-1.06L14 12.94l-1.47-1.47z"/></svg>