<svg width="20" height="20" viewBox="0 0 20 20" xmlns="http://www.w3.org/2000/svg"><path d="M2 5.5C2 4.67 2.67 4 3.5 4h13c.83 0 1.5.67 1.5 1.5v8c0 .83-.67 1.5-1.5 1.5h-13A1.5 1.5 0 0 1 2 13.5v-8ZM3.5 5a.5.5 0 0 0-.5.5v8c0 .28.22.5.5.5h13a.5.5 0 0 0 .5-.5v-8a.5.5 0 0 0-.5-.5h-13ZM5 12.5c0-.28.22-.5.5-.5h3a.5.5 0 0 1 0 1h-3a.5.5 0 0 1-.5-.5ZM4.75 8a.75.75 0 1 0 0-1.5.75.75 0 0 0 0 1.5Zm3.75-.75a.75.75 0 1 1-1.5 0 .75.75 0 0 1 1.5 0ZM5.25 10.5a.75.75 0 1 0 0-1.5.75.75 0 0 0 0 1.5ZM9 9.75a.75.75 0 1 1-1.5 0 .75.75 0 0 1 1.5 0ZM14.5 12a.5.5 0 0 1 0 1h-3a.5.5 0 0 1 0-1h3Zm0-4.75a.75.75 0 1 0 1.5 0 .75.75 0 0 0-1.5 0ZM12.25 8a.75.75 0 1 1 0-1.5.75.75 0 0 1 0 1.5ZM14 9.75a.75.75 0 1 0 1.5 0 .75.75 0 0 0-1.5 0Zm-2.25.75a.75.75 0 1 1 0-1.5.75.75 0 0 1 0 1.5Z"/></svg>