<svg width="24" height="24" viewBox="0 0 24 24" xmlns="http://www.w3.org/2000/svg"><path d="M19.75 5C20.99 5 22 6 22 7.25v9.5C22 18 20.99 19 19.75 19H4.25C3.01 19 2 18 2 16.75v-9.5C2 6.01 3 5 4.25 5h15.5ZM6.5 16H10a.75.75 0 0 0 0-1.5H6.5a.75.75 0 0 0 0 1.5Zm7.5 0h3.5a.75.75 0 0 0 0-1.5H14a.75.75 0 0 0 0 1.5Zm3.5-5a1 1 0 1 0 0 2 1 1 0 0 0 0-2Zm-3 0a1 1 0 1 0 0 2 1 1 0 0 0 0-2Zm-5 0a1 1 0 1 0 0 2 1 1 0 0 0 0-2Zm-3 0a1 1 0 1 0 0 2 1 1 0 0 0 0-2ZM6 8a1 1 0 1 0 0 2 1 1 0 0 0 0-2Zm3 0a1 1 0 1 0 0 2 1 1 0 0 0 0-2Zm6 0a1 1 0 1 0 0 2 1 1 0 0 0 0-2Zm3 0a1 1 0 1 0 0 2 1 1 0 0 0 0-2Z"/></svg>