<svg width="32" height="32" viewBox="0 0 32 32" xmlns="http://www.w3.org/2000/svg"><path d="M11.5 2A2.5 2.5 0 0 0 9 4.5v4.02a.5.5 0 0 1-.5.48h-4A2.5 2.5 0 0 0 2 11.5v4A2.5 2.5 0 0 0 4.5 18h11a2.5 2.5 0 0 0 2.5-2.5v-4c0-.28.22-.5.5-.5h4A2.5 2.5 0 0 0 25 8.5v-4A2.5 2.5 0 0 0 22.5 2h-11Zm11 7H18V4h4.5c.28 0 .5.22.5.5v4a.5.5 0 0 1-.5.5ZM16 9h-5V4.5c0-.28.22-.5.5-.5H16v5Zm-7 2v5H4.5a.5.5 0 0 1-.5-.5v-4c0-.28.22-.5.5-.5H9Zm2 0h5.05c-.03.16-.05.33-.05.5v4a.5.5 0 0 1-.5.5H11v-5Zm12.5 3a2.5 2.5 0 0 0-2.5 2.5v4a.5.5 0 0 1-.5.5h-11A2.5 2.5 0 0 0 7 23.5v4A2.5 2.5 0 0 0 9.5 30h18a2.5 2.5 0 0 0 2.5-2.5v-11a2.5 2.5 0 0 0-2.5-2.5h-4ZM21 23v5h-5v-5h5Zm7 0v4.5a.5.5 0 0 1-.5.5H23v-5h5Zm-5-2v-4.5c0-.28.22-.5.5-.5h4c.28 0 .5.22.5.5V21h-5Zm-9 2v5H9.5a.5.5 0 0 1-.5-.5v-4c0-.28.22-.5.5-.5H14Z"/></svg>