<svg width="20" height="20" viewBox="0 0 20 20" xmlns="http://www.w3.org/2000/svg"><path d="M6 2a2 2 0 0 0-2 2v12c0 1.1.9 2 2 2h4.26a5.5 5.5 0 0 1-.66-1H6a1 1 0 0 1-1-1h4.2A5.5 5.5 0 0 1 16 9.2V4a2 2 0 0 0-2-2H6Zm.75 2.5h6.5a.75.75 0 0 1 0 1.5h-6.5a.75.75 0 0 1 0-1.5ZM19 14.5a4.5 4.5 0 1 1-9 0 4.5 4.5 0 0 1 9 0Zm-4.98-1.97a.45.45 0 0 0-.45-.03.49.49 0 0 0-.15.1.51.51 0 0 0-.14.36v3.08a.5.5 0 0 0 .14.35.45.45 0 0 0 .48.13.52.52 0 0 0 .13-.06l2.3-1.57c.06-.04.12-.1.16-.18a.54.54 0 0 0 0-.49.49.49 0 0 0-.17-.18l-2.3-1.5Z"/></svg>