<svg width="20" height="20" viewBox="0 0 20 20" xmlns="http://www.w3.org/2000/svg"><path d="M10 6.5V2H5.5C4.67 2 4 2.67 4 3.5v7.59c.32.1.59.33.77.6A2.5 2.5 0 0 1 9 13.5c0 .44-.2.84-.5 1.12.32.42.5.95.5 1.5v.38c0 .56-.19 1.08-.5 1.5h6c.83 0 1.5-.67 1.5-1.5V8h-4.5A1.5 1.5 0 0 1 10 6.5Zm1 0V2.25L15.75 7H11.5a.5.5 0 0 1-.5-.5ZM3.5 12a.5.5 0 0 0-.5.5v4a.5.5 0 0 1-1 0V16a.5.5 0 0 0-1 0v.5a1.5 1.5 0 0 0 3 0v-4a.5.5 0 0 0-.5-.5ZM5 13.5a1.5 1.5 0 0 1 3 0 .5.5 0 0 1-1 0 .5.5 0 0 0-1 0v.38c0 .2.1.36.28.45l.9.45c.5.25.82.77.82 1.34v.38a1.5 1.5 0 0 1-3 0 .5.5 0 0 1 1 0 .5.5 0 0 0 1 0v-.38a.5.5 0 0 0-.28-.45l-.9-.45A1.5 1.5 0 0 1 5 13.88v-.38Z"/></svg>