<svg width="16" height="16" viewBox="0 0 16 16" xmlns="http://www.w3.org/2000/svg"><path d="M1 4.75C1 3.78 1.78 3 2.75 3h10.5c.97 0 1.75.78 1.75 1.75v1.79c-.3-.18-.65-.32-1-.41V4.75a.75.75 0 00-.75-.75H2.75a.75.75 0 00-.75.75v6.5c0 .41.34.75.75.75h6.79a4 4 0 00.46.65V13H2.75C1.78 13 1 12.22 1 11.25v-6.5zM12.5 6a.5.5 0 01.13.02c-.87.08-1.66.43-2.28.98H9.5a.5.5 0 010-1h3zM5.26 7.71a1.36 1.36 0 100-2.71 1.36 1.36 0 000 2.71zm-1.4.68a.86.86 0 00-.86.86c0 .77.52 1.43 1.27 1.62l.05.01c.62.16 1.27.16 1.88 0h.06a1.67 1.67 0 001.26-1.63.86.86 0 00-.86-.86h-2.8zM16 10a3 3 0 11-6 0 3 3 0 016 0zm-1 3.46a3.98 3.98 0 01-4 0v2.29c0 .2.21.31.38.22L13 15l1.62.97c.17.1.38-.03.38-.22v-2.29z"/></svg>