<svg width="48" height="48" viewBox="0 0 48 48" xmlns="http://www.w3.org/2000/svg"><path d="M19 20a3 3 0 11-6 0 3 3 0 016 0zm-8 6.5c0-.83.67-1.5 1.5-1.5h7c.83 0 1.5.67 1.5 1.5v.5s0 4-5 4-5-4-5-4v-.5zm14-6.25c0-.69.56-1.25 1.25-1.25h9.5a1.25 1.25 0 01.82 2.2c-.38.08-.76.18-1.12.3h-9.2c-.69 0-1.25-.56-1.25-1.25zm16.5-8v9.23c.9.3 1.74.73 2.5 1.27v-10.5C44 9.9 42.1 8 39.75 8H8.25A4.25 4.25 0 004 12.25v23.5C4 38.1 5.9 40 8.25 40H31v-2.5H8.25c-.97 0-1.75-.78-1.75-1.75v-23.5c0-.97.78-1.75 1.75-1.75h31.5c.97 0 1.75.78 1.75 1.75zM26.25 26h3.88a9.43 9.43 0 00-.92 2.5h-2.96a1.25 1.25 0 110-2.5zm6.25 0a7.47 7.47 0 00-1.5 4.5 7.5 7.5 0 101.5-4.5zm6.06 14A9.47 9.47 0 0044 38.25v6.7c0 .86-.96 1.35-1.65.85L38.5 43l-3.85 2.8c-.69.5-1.65 0-1.65-.84v-6.71A9.48 9.48 0 0038.44 40h.12z"/></svg>