<svg width="28" height="28" viewBox="0 0 28 28" xmlns="http://www.w3.org/2000/svg"><path d="M4.75 4A2.75 2.75 0 0 0 2 6.75v14.5A2.75 2.75 0 0 0 4.75 24H18v-2.34a5.48 5.48 0 0 1-.63-5.16h-1.62a.75.75 0 0 1 0-1.5h2.5a5.49 5.49 0 0 1 7.75-.74V6.75A2.75 2.75 0 0 0 23.25 4H4.75ZM15 11.75c0-.41.34-.75.75-.75h5.5a.75.75 0 0 1 0 1.5h-5.5a.75.75 0 0 1-.75-.75Zm-3.75 0a1.75 1.75 0 1 1-3.5 0 1.75 1.75 0 0 1 3.5 0ZM7 14.5h5a1 1 0 0 1 1 1v.5s-.5 2.5-3.5 2.5S6 16 6 16v-.5a1 1 0 0 1 1-1Zm19 1.17a4.48 4.48 0 0 1 0 5.66 4.5 4.5 0 1 1 0-5.66Zm-1.1 7.78a5.47 5.47 0 0 1-2.35.55h-.1a5.7 5.7 0 0 1-2.45-.6 5.5 5.5 0 0 1-1-.66v3.56a.7.7 0 0 0 1.13.55L22.5 25l2.37 1.85A.7.7 0 0 0 26 26.3v-3.56c-.34.28-.7.52-1.1.71Z"/></svg>