<svg width="48" height="48" viewBox="0 0 48 48" xmlns="http://www.w3.org/2000/svg"><path d="M8.25 8A4.25 4.25 0 004 12.25v23.5C4 38.1 5.9 40 8.25 40H31v-3.67a9.46 9.46 0 01-1.79-7.83h-2.96a1.25 1.25 0 110-2.5h3.88a9.53 9.53 0 015.32-4.5h-9.2a1.25 1.25 0 110-2.5h9.5a1.25 1.25 0 01.82 2.2A9.55 9.55 0 0144 22.75v-10.5C44 9.9 42.1 8 39.75 8H8.25zM19 20a3 3 0 11-6 0 3 3 0 016 0zm-8 6.5c0-.83.67-1.5 1.5-1.5h7c.83 0 1.5.67 1.5 1.5v.5s0 4-5 4-5-4-5-4v-.5zM38.5 38a7.48 7.48 0 007.5-7.5 7.47 7.47 0 00-7.5-7.5 7.49 7.49 0 100 15zm3.59 1.3A9.48 9.48 0 0044 38.25v6.7c0 .86-.96 1.35-1.65.85L38.5 43l-3.85 2.8c-.69.5-1.65 0-1.65-.84v-6.71A9.48 9.48 0 0038.44 40h.12a9.47 9.47 0 003.53-.7z"/></svg>