<svg width="32" height="32" viewBox="0 0 32 32" xmlns="http://www.w3.org/2000/svg"><path d="M5.25 4A3.25 3.25 0 002 7.25v17.5C2 26.55 3.46 28 5.25 28H19.5v-3.9a6.97 6.97 0 01-.84-5.1H18a1 1 0 110-2h1.44c.78-1.35 2-2.41 3.46-3H18a1 1 0 110-2h7a1 1 0 01.86 1.5c1.57.09 3 .69 4.14 1.64V7.25C30 5.45 28.54 4 26.75 4H5.25zM13 13a2 2 0 11-4 0 2 2 0 014 0zm-6 4.5c0-.83.67-1.5 1.5-1.5h5c.83 0 1.5.67 1.5 1.5 0 0 0 3.5-4 3.5s-4-3.5-4-3.5zm22.88 8.14a6.76 6.76 0 01-4.37 1.61h-.02A6.72 6.72 0 0121 25.53v4.52c0 .74.81 1.2 1.44.81L25.5 29l3.06 1.86a.95.95 0 001.44-.81v-4.52l-.12.1zm-.71-1.04a5.53 5.53 0 00.83-7.26 5.5 5.5 0 10-.83 7.26z"/></svg>