<svg width="24" height="24" viewBox="0 0 24 24" xmlns="http://www.w3.org/2000/svg"><path d="M19.75 4C20.99 4 22 5 22 6.25v5.5c-.45-.3-.96-.52-1.5-.64V6.25a.75.75 0 00-.75-.75H4.25a.75.75 0 00-.75.75v11.5c0 .42.34.75.75.75H16V20H4.25C3.01 20 2 19 2 17.75V6.25C2 5.01 3 4 4.25 4h15.5zm-6.5 9h2.51c-.3.45-.52.95-.65 1.5h-1.86a.75.75 0 01-.1-1.5h.1zm-3.5-.5c.41 0 .75.34.75.75v.6c-.17 1.11-1.1 1.65-2.5 1.65s-2.33-.54-2.5-1.65v-.6c0-.41.34-.75.75-.75h3.5zM8 8.5a1.5 1.5 0 110 3 1.5 1.5 0 010-3zm5.25 1h4.5a.75.75 0 01.1 1.5h-4.6a.75.75 0 01-.1-1.5h.1zm9.75 6a3.5 3.5 0 11-7 0 3.5 3.5 0 017 0zm-6 3.74v3.05c0 .63.76.95 1.21.5l1.29-1.29 1.29 1.29a.71.71 0 001.21-.5v-3.05a4.48 4.48 0 01-5 0z"/></svg>