<svg width="32" height="32" viewBox="0 0 32 32" xmlns="http://www.w3.org/2000/svg"><path d="M17 13a1 1 0 0 1 1-1h7a1 1 0 0 1 .86 1.5 7.1 7.1 0 0 0-2.96.5H18a1 1 0 0 1-1-1Zm11-5.75v6.71a7 7 0 0 1 2 1.18V7.25C30 5.45 28.54 4 26.75 4H5.25A3.25 3.25 0 0 0 2 7.25v17.5C2 26.55 3.46 28 5.25 28H19.5v-2H5.25C4.56 26 4 25.44 4 24.75V7.25C4 6.56 4.56 6 5.25 6h21.5c.69 0 1.25.56 1.25 1.25ZM18 17h1.44a6.95 6.95 0 0 0-.78 2H18a1 1 0 1 1 0-2Zm3.26 0a5.49 5.49 0 0 0 4.24 9 5.48 5.48 0 0 0 4.5-8.66A5.53 5.53 0 0 0 25.5 15c-1.7 0-3.23.78-4.24 2Zm1.24 9.55a6.74 6.74 0 0 1-1.5-1.02v4.52c0 .74.81 1.2 1.44.81L25.5 29l3.06 1.86a.95.95 0 0 0 1.44-.81v-4.52a6.62 6.62 0 0 1-1.5 1.02c-.9.45-1.92.7-2.99.7h-.02a6.72 6.72 0 0 1-2.99-.7ZM13 13a2 2 0 1 1-4 0 2 2 0 0 1 4 0Zm-6 4.5c0-.83.67-1.5 1.5-1.5h5c.83 0 1.5.67 1.5 1.5 0 0 0 3.5-4 3.5s-4-3.5-4-3.5Z"/></svg>