<svg width="24" height="24" viewBox="0 0 24 24" xmlns="http://www.w3.org/2000/svg"><path d="M19.75 4C20.99 4 22 5 22 6.25v5.5A4.48 4.48 0 0015.76 13h-2.61a.75.75 0 000 1.49H15.11a4.51 4.51 0 00.89 3.84V20H4.25C3.01 20 2 19 2 17.75V6.25C2 5.01 3 4 4.25 4h15.5zm-13.5 8.5c-.38 0-.7.28-.74.65l-.01.1v.6c.17 1.11 1.1 1.65 2.5 1.65 1.33 0 2.24-.49 2.46-1.5l.03-.15.01-.1v-.5c0-.38-.28-.7-.65-.74l-.1-.01h-3.5zM8 8.5a1.5 1.5 0 100 3 1.5 1.5 0 000-3zm9.75 1h-4.6a.75.75 0 000 1.5H17.85a.75.75 0 000-1.5h-.1zm5.25 6a3.5 3.5 0 11-7 0 3.5 3.5 0 017 0zm-6 3.74v3.05c0 .63.76.95 1.21.5l1.29-1.29 1.29 1.29a.71.71 0 001.21-.5v-3.05a4.48 4.48 0 01-5 0z"/></svg>