<svg width="24" height="24" viewBox="0 0 24 24" xmlns="http://www.w3.org/2000/svg"><path d="M6.25 3a.75.75 0 010 1.5c-.97 0-1.75.78-1.75 1.75a.75.75 0 01-1.5 0C3 4.45 4.46 3 6.25 3zm3.5 0a.75.75 0 000 1.5h4.5a.75.75 0 000-1.5h-4.5zm7.25.75c0 .41.34.75.75.75.97 0 1.75.78 1.75 1.75v1a.75.75 0 001.5 0v-1C21 4.45 19.54 3 17.75 3a.75.75 0 00-.75.75zm-14 14a.75.75 0 011.5 0c0 .97.78 1.75 1.75 1.75h1a.75.75 0 010 1.5h-1A3.25 3.25 0 013 17.75zm0-3.5a.75.75 0 001.5 0v-4.5a.75.75 0 00-1.5 0v4.5zM7 5.5c-.83 0-1.5.67-1.5 1.5v10c0 .83.67 1.5 1.5 1.5h2v-.75c0-1.8 1.46-3.25 3.25-3.25h2.25v-2.25c0-1.8 1.46-3.25 3.25-3.25h.75V7c0-.83-.67-1.5-1.5-1.5H7zm5.25 10h3.25v-3.25c0-1.24 1-2.25 2.25-2.25h3c1.24 0 2.25 1 2.25 2.25v7.5c0 1.8-1.46 3.25-3.25 3.25h-7.5C11.01 23 10 22 10 20.75v-3c0-1.24 1-2.25 2.25-2.25zM17 12.25v3.25h4.5v-3.25a.75.75 0 00-.75-.75h-3a.75.75 0 00-.75.75zm-1.5 9.25V17h-3.25a.75.75 0 00-.75.75v3c0 .41.34.75.75.75h3.25zM17 17v4.5h2.75c.97 0 1.75-.78 1.75-1.75V17H17z"/></svg>