<svg width="16" height="16" viewBox="0 0 16 16" xmlns="http://www.w3.org/2000/svg"><path d="M2.75 2.75h10.5v1.5H2.75v-1.5Z" fill="#E62C46"/><path d="M2.75 4h10.5v1.5H2.75V4Z" fill="#F36D38"/><path d="M2.75 5.25h10.5V7H2.75V5.25Z" fill="#FFD23E"/><path d="M2.75 6.5h10.5v1.75H2.75V6.5Z" fill="#61BC51"/><path d="M2.75 7.75h10.5v1.5H2.75v-1.5Z" fill="#1793E8"/><path d="M2.75 9h10.5v1.25H2.75V9Z" fill="#B73FBB"/><path d="m11 6.5-4-4H4.5v8H7l4-4Z" fill="#5B3B1C"/><path d="m9.5 6.5-4-4H3v8h2.5l4-4Z" fill="#8ED4EA"/><path d="m8.5 6.5-4-4H2v8h2.5l4-4Z" fill="#F3B2C7"/><path d="m7.5 6.5-4-4H3v8h.5l4-4Z" fill="#fff"/><path d="m6.5 6.5-4-4v8l4-4Z" fill="#FFD23E"/><path d="M4.5 6.5a1 1 0 1 1-2 0 1 1 0 0 1 2 0Z" stroke="#5F3383"/><path d="M7.5 11H3v2.5a.5.5 0 0 1-1 0v-11c0-.28.22-.5.5-.5h11c.28 0 .5.22.5.5v8a.5.5 0 0 1-.5.5h-6Zm-.2-8H3v7h4.3l3.5-3.5L7.3 3Zm1.4 0 3.15 3.15c.2.2.2.5 0 .7L8.71 10H13V3H8.7Z"/></svg>