<svg width="20" height="20" viewBox="0 0 20 20" xmlns="http://www.w3.org/2000/svg"><path d="M3.75 3.75h12.5v1.5H3.75v-1.5Z" fill="#E62C46"/><path d="M3.75 5h12.5v1.5H3.75V5Z" fill="#F36D38"/><path d="M3.75 6h12.5v1.75H3.75V6Z" fill="#FFD23E"/><path d="M3.75 7.5h12.5v1.75H3.75V7.5Z" fill="#61BC51"/><path d="M3.75 9h12.5v1.25H3.75V9Z" fill="#1793E8"/><path d="M3.75 10h12.5v1.25H3.75V10Z" fill="#B73FBB"/><path d="m13.5 7.5-4-4H7v8h2.5l4-4Z" fill="#5B3B1C"/><path d="m11.5 7.5-4-4H5v8h2.5l4-4Z" fill="#8ED4EA"/><path d="m10.5 7.5-4-4H4v8h2.5l4-4Z" fill="#F3B2C7"/><path d="m9.5 7.5-4-4H4v8h1.5l4-4Z" fill="#fff"/><path d="m8.5 7.5-4-4h-1v8h1l4-4Z" fill="#FFD23E"/><path d="M5.75 7a.5.5 0 1 0 0 1 .5.5 0 0 0 0-1Zm-1.5.5a1.5 1.5 0 1 1 3 0 1.5 1.5 0 0 1-3 0Z" fill="#5F3383"/><path d="M9.5 12H4v5.5a.5.5 0 0 1-1 0v-14c0-.28.22-.5.5-.5h13c.28 0 .5.22.5.5v8a.5.5 0 0 1-.5.5h-7Zm-.2-8H4v7h5.3l3.5-3.5L9.3 4Zm1.4 0 3.15 3.15c.2.2.2.5 0 .7L10.71 11H16V4h-5.3Z"/></svg>