<svg width="24" height="24" viewBox="0 0 24 24" xmlns="http://www.w3.org/2000/svg"><path d="M4 4h16v2.5H4V4Z" fill="#E62C46"/><path d="M4 6h16v2.5H4V6Z" fill="#F36D38"/><path d="M4 8h16v2.5H4V8Z" fill="#FFD23E"/><path d="M4 10h16v2.5H4V10Z" fill="#61BC51"/><path d="M4 12h16v2H4v-2Z" fill="#1793E8"/><path d="M4 13.5h16v1.75H4V13.5Z" fill="#B73FBB"/><path d="m16 10-6-6H8v11.5h2.5L16 10Z" fill="#5B3B1C"/><path d="M14 10 8 4H6v11.5h2.5L14 10Z" fill="#8ED4EA"/><path d="M13 10 7 4H5v11.5h2.5L13 10Z" fill="#F3B2C7"/><path d="M12 10 6 4H4v11.5h2.5L12 10Z" fill="#fff"/><path d="M10 10 4 4v12l6-6Z" fill="#F3B2C7"/><path d="M11 10 5 4H4v12h1l6-6Z" fill="#FFD23E"/><path d="M9 10a2 2 0 1 0-4 0 2 2 0 0 0 4 0Zm-3 0a1 1 0 1 1 2 0 1 1 0 0 1-2 0Z" fill="#5F3383"/><path d="M10.5 3H3.75a.75.75 0 0 0-.75.75v17.5a.75.75 0 0 0 1.5 0V16.5H11l.03.03.03-.03h9.19c.41 0 .75-.34.75-.75v-12a.75.75 0 0 0-.75-.75h-9.69l-.03-.03-.03.03Zm-.56 1.5 5.5 5.5-5 5H4.5V4.5h5.44Zm2.12 0h7.44V15h-6.94l4.47-4.47c.3-.3.3-.77 0-1.06L12.06 4.5Z"/></svg>