<svg width="28" height="28" viewBox="0 0 28 28" xmlns="http://www.w3.org/2000/svg"><path d="M5 4h18v2.75H5V4Z" fill="#E62C46"/><path d="M5 6.5h18v2.25H5V6.5Z" fill="#F36D38"/><path d="M5 8.5h18v2.25H5V8.5Z" fill="#FFD23E"/><path d="M5 10.5h18v2.25H5V10.5Z" fill="#61BC51"/><path d="M5 12.5h18v2.25H5V12.5Z" fill="#1793E8"/><path fill="#B73FBB" d="M5 14.5h18V17H5z"/><path d="M18 10.5 11.5 4h-3v13h3l6.5-6.5Z" fill="#5B3B1C"/><path d="M16 10.5 9.5 4H7v13h2.5l6.5-6.5Z" fill="#8ED4EA"/><path d="M14.5 10.5 8 4H5.5v13H8l6.5-6.5Z" fill="#F3B2C7"/><path d="M13 10.5 6.5 4H5v13h1.5l6.5-6.5Z" fill="#fff"/><path d="M11.5 10.5 5 4v13l6.5-6.5Z" fill="#FFD23E"/><path d="M4 3.75c0-.41.34-.75.75-.75h18.5c.41 0 .75.34.75.75v13.5c0 .41-.34.75-.75.75H5.5v6.25a.75.75 0 0 1-1.5 0V3.75Zm8 .75H5.5v12H12l-.03-.03 5.97-5.97-5.97-5.97.03-.03Zm2.06 0 5.47 5.47c.3.3.3.77 0 1.06l-5.47 5.47h8.44v-12h-8.44Z"/><path d="M10 10.5a2 2 0 1 0-4 0 2 2 0 0 0 4 0Zm-3 0a1 1 0 1 1 2 0 1 1 0 0 1-2 0Z" fill="#5F3383"/></svg>