<svg width="32" height="32" viewBox="0 0 32 32" xmlns="http://www.w3.org/2000/svg"><path d="M5 16h22v3.5H5V16Z" fill="#B73FBB"/><path d="M5 13h22v4H5v-4Z" fill="#1793E8"/><path d="M5 11h22v3H5v-3Z" fill="#61BC51"/><path d="M5 9h22v3H5V9Z" fill="#FFD23E"/><path d="M5 6h22v4H5V6Z" fill="#F36D38"/><path d="M5 4h22v3H5V4Z" fill="#E62C46"/><path d="m20 12-7.5-7.5h-3v15h3L20 12Z" fill="#5B3B1C"/><path d="M17.5 12 10 4.5H8.5v15H10l7.5-7.5Z" fill="#8ED4EA"/><path d="M16 12 8.5 4.5H7v15h1.5L16 12Z" fill="#F3B2C7"/><path d="m14.5 12-8-8h-1v16h1l8-8Z" fill="#fff"/><path d="M13 12 5.5 4.5v15L13 12Z" fill="#FFD23E"/><path d="M5 3a1 1 0 0 0-1 1v24a1 1 0 1 0 2 0v-7h21a1 1 0 0 0 1-1V4a1 1 0 0 0-1-1H5Zm7.59 16H6V5h6.59l7 7-7 7Zm2.82 0 6.3-6.3a1 1 0 0 0 0-1.4L15.4 5H26v14H15.41Z"/><path d="M8.5 11a1 1 0 1 0 0 2 1 1 0 0 0 0-2Zm-2 1a2 2 0 1 1 4 0 2 2 0 0 1-4 0Z" fill="#5F3383"/></svg>