<svg width="48" height="48" viewBox="0 0 48 48" xmlns="http://www.w3.org/2000/svg"><path fill="#E62C46" d="M9 8h30v4.5H9z"/><path fill="#F36D38" d="M9 12h30v4.5H9z"/><path fill="#FFD23E" d="M9 16h30v3.5H9z"/><path fill="#61BC51" d="M9 19h30v4.5H9z"/><path fill="#1793E8" d="M9 23h30v4.5H9z"/><path fill="#B73FBB" d="M9 27h30v4H9z"/><path d="M32.5 19 21 7.5h-6v24h5L32.5 19Z" fill="#5B3B1C"/><path d="M28.5 19 17 7.5h-4.5v24H16L28.5 19Z" fill="#8ED4EA"/><path d="M25.5 19 14 7.5H9v24h4L25.5 19Z" fill="#F3B2C7"/><path d="M22.5 19 11 7.5H9v24h1L22.5 19Z" fill="#fff"/><path d="M19.5 19 8.5 8v22l11-11Z" fill="#FFD23E"/><path d="M8.25 6C7.56 6 7 6.56 7 7.25v33.5a1.25 1.25 0 1 0 2.5 0V33h30.25c.69 0 1.25-.56 1.25-1.25V7.25C41 6.56 40.44 6 39.75 6H8.25Zm11.98 24.5H9.5v-22h11.73L31.73 19l-11.5 11.5Zm3.54 0 10.61-10.62c.5-.48.5-1.28 0-1.76L24.77 8.5H38.5v22H23.77Z"/><path d="M13.5 17.5a1.5 1.5 0 1 0 0 3 1.5 1.5 0 0 0 0-3ZM11 19a2.5 2.5 0 1 1 5 0 2.5 2.5 0 0 1-5 0Z" fill="#5F3383"/></svg>