<svg width="24" height="24" viewBox="0 0 24 24" xmlns="http://www.w3.org/2000/svg"><path d="M22 4.75c0-1.24-1.01-2.25-2.25-2.25H4.25C3.01 2.5 2 3.5 2 4.75v9.5c0 1.25 1 2.25 2.25 2.25h7v2.94l-.84-.84a.75.75 0 10-1.06 1.06l2.12 2.12c.3.3.77.3 1.06 0l2.12-2.12a.75.75 0 10-1.06-1.06l-.84.84V16.5h7c1.24 0 2.25-1 2.25-2.25v-9.5zM6.75 12h10.6a.75.75 0 010 1.5H6.65a.75.75 0 010-1.5h.1zm8.75-2.5a1 1 0 112 0 1 1 0 01-2 0zm-3 0a1 1 0 112 0 1 1 0 01-2 0zm-3 0a1 1 0 112 0 1 1 0 01-2 0zm-3 0a1 1 0 112 0 1 1 0 01-2 0zM5 6.5a1 1 0 112 0 1 1 0 01-2 0zm3 0a1 1 0 112 0 1 1 0 01-2 0zm3 0a1 1 0 112 0 1 1 0 01-2 0zm3 0a1 1 0 112 0 1 1 0 01-2 0zm3 0a1 1 0 112 0 1 1 0 01-2 0z"/></svg>