<svg width="28" height="28" viewBox="0 0 28 28" xmlns="http://www.w3.org/2000/svg"><path d="M2 7.75A3.75 3.75 0 0 1 5.75 4h16.5A3.75 3.75 0 0 1 26 7.75v12.5A3.75 3.75 0 0 1 22.25 24H5.75A3.75 3.75 0 0 1 2 20.25V7.75ZM7.73 9c-.4 0-.73.33-.73.73v.04c0 .4.33.73.73.73h5.54c.4 0 .73-.33.73-.73v-.04c0-.4-.33-.73-.73-.73H7.73ZM7 13.73v.04c0 .4.33.73.73.73h10.54c.4 0 .73-.33.73-.73v-.04c0-.4-.33-.73-.73-.73H7.73c-.4 0-.73.33-.73.73ZM7.73 17c-.4 0-.73.33-.73.73v.04c0 .4.33.73.73.73h7.54c.4 0 .73-.33.73-.73v-.04c0-.4-.33-.73-.73-.73H7.73Z"/></svg>