<svg width="24" height="24" viewBox="0 0 24 24" xmlns="http://www.w3.org/2000/svg"><path d="M12 18.53a1 1 0 0 1 .99.89v1.57a1 1 0 0 1-1.99.11v-1.57a1 1 0 0 1 1-1Zm6.03-1.93 1.03 1.03a1 1 0 0 1-1.41 1.41l-1.03-1.03a1 1 0 0 1 1.41-1.41Zm-10.66 0a1 1 0 0 1 0 1.41l-1.03 1.03a1 1 0 0 1-1.41-1.41l1.03-1.03a1 1 0 0 1 1.41 0Zm4.64-10.13a5.52 5.52 0 1 1 0 11.05 5.52 5.52 0 0 1 0-11.05ZM11.25 9c-.38 0-.7.28-.74.65l-.01.1v3.1c.05.34.32.6.65.65h2.2c.33-.05.6-.31.64-.64l.01-.1v-.1a.75.75 0 0 0-.65-.65H12V9.64a.75.75 0 0 0-.75-.65Zm9.73 2.02a1 1 0 0 1 .11 2h-1.57a1 1 0 0 1-.11-2h1.57Zm-16.5-.03a1 1 0 0 1 .12 2H3.02a1 1 0 0 1-.11-2h1.57Zm1.77-6.12.1.09 1.02 1.03a1 1 0 0 1-1.32 1.5l-.09-.09-1.03-1.03a1 1 0 0 1 1.32-1.5Zm12.81.09a1 1 0 0 1 .09 1.32l-.09.1-1.03 1.02a1 1 0 0 1-1.5-1.32l.09-.1 1.03-1.02a1 1 0 0 1 1.41 0ZM12 2a1 1 0 0 1 1 .89v1.57a1 1 0 0 1-2 .12V3a1 1 0 0 1 1-1Z"/></svg>