<svg width="20" height="20" viewBox="0 0 20 20" xmlns="http://www.w3.org/2000/svg"><path d="M10.5 2.5a.5.5 0 0 0-1 0v1a.5.5 0 0 0 1 0v-1Zm-5 7.5a4.5 4.5 0 1 1 9 0 4.5 4.5 0 0 1-9 0ZM10 8.5a.5.5 0 0 0-1 0v2c0 .28.22.5.5.5H11a.5.5 0 0 0 0-1h-1V8.5Zm0 7.5c.28 0 .5.22.5.5v1a.5.5 0 0 1-1 0v-1c0-.28.22-.5.5-.5ZM2.5 9.5a.5.5 0 0 0 0 1h1a.5.5 0 0 0 0-1h-1ZM16 10c0-.28.22-.5.5-.5h1a.5.5 0 0 1 0 1h-1a.5.5 0 0 1-.5-.5ZM4.15 15.15a.5.5 0 0 0 .7.7l1-1a.5.5 0 0 0-.7-.7l-1 1Zm10-10 1-1a.5.5 0 0 1 .7.7l-1 1a.5.5 0 0 1-.7-.7Zm-9.3-1a.5.5 0 1 0-.7.7l1 1a.5.5 0 1 0 .7-.7l-1-1Zm10 10 1 1a.5.5 0 0 1-.7.7l-1-1a.5.5 0 0 1 .7-.7Z"/></svg>