<svg width="16" height="16" viewBox="0 0 16 16" xmlns="http://www.w3.org/2000/svg"><path d="M1 4.5A2.5 2.5 0 0 1 3.5 2h2.09c.4 0 .78.16 1.06.44L8 3.79 5.94 5.85a.5.5 0 0 1-.35.15H1V4.5ZM1 7v4.5A2.5 2.5 0 0 0 3.5 14h4.59c.06-.19.16-.36.3-.5a1.5 1.5 0 0 1 0-2A1.5 1.5 0 0 1 9.5 9h4.99c.18 0 .34.03.5.09V6.5A2.5 2.5 0 0 0 12.5 4H9.2L6.66 6.56A1.5 1.5 0 0 1 5.59 7H1Zm8.5 3a.5.5 0 0 0 0 1h5a.5.5 0 0 0 0-1h-5Zm0 2a.5.5 0 0 0 0 1h5a.5.5 0 0 0 0-1h-5ZM9 14.5c0-.28.22-.5.5-.5h5a.5.5 0 0 1 0 1h-5a.5.5 0 0 1-.5-.5Z"/></svg>