<svg width="16" height="16" viewBox="0 0 16 16" xmlns="http://www.w3.org/2000/svg"><path d="M2 4.5V6h3.59a.5.5 0 0 0 .35-.15L7.29 4.5 5.94 3.15A.5.5 0 0 0 5.59 3H3.5C2.67 3 2 3.67 2 4.5Zm-1 0A2.5 2.5 0 0 1 3.5 2h2.09c.4 0 .78.16 1.06.44L8.2 4h4.29A2.5 2.5 0 0 1 15 6.5v2.59a1.5 1.5 0 0 0-.5-.09H14V6.5c0-.83-.67-1.5-1.5-1.5H8.2L6.66 6.56A1.5 1.5 0 0 1 5.59 7H2v4.5c0 .83.67 1.5 1.5 1.5h4.59c.06.19.16.36.3.5a1.5 1.5 0 0 0-.3.5H3.5A2.5 2.5 0 0 1 1 11.5v-7ZM9.5 10a.5.5 0 0 0 0 1h5a.5.5 0 0 0 0-1h-5Zm0 2a.5.5 0 0 0 0 1h5a.5.5 0 0 0 0-1h-5ZM9 14.5c0-.28.22-.5.5-.5h5a.5.5 0 0 1 0 1h-5a.5.5 0 0 1-.5-.5Z"/></svg>