<svg width="20" height="20" viewBox="0 0 20 20" xmlns="http://www.w3.org/2000/svg"><path d="M2 5.5A2.5 2.5 0 0 1 4.5 3h2.48c.47 0 .91.18 1.24.51L9.5 4.8 7.44 6.85a.5.5 0 0 1-.35.15H2V5.5ZM2 8v6.5A2.5 2.5 0 0 0 4.5 17h6.59c.06-.19.16-.36.3-.5a1.5 1.5 0 0 1 0-2A1.5 1.5 0 0 1 12.5 12h5.49V7.5A2.5 2.5 0 0 0 15.5 5h-4.8L8.16 7.56A1.5 1.5 0 0 1 7.09 8H2Zm10.5 5a.5.5 0 0 0 0 1h6a.5.5 0 0 0 0-1h-6Zm0 2a.5.5 0 0 0 0 1h6a.5.5 0 0 0 0-1h-6Zm-.5 2.5c0-.28.22-.5.5-.5h6a.5.5 0 0 1 0 1h-6a.5.5 0 0 1-.5-.5Z"/></svg>