<svg width="20" height="20" viewBox="0 0 20 20" xmlns="http://www.w3.org/2000/svg"><path d="M10.56 4.5h4.94a2.5 2.5 0 0 1 2.48 2.17l.01.17L18 7v5h-5.5a1.5 1.5 0 0 0-1.12 2.5 1.5 1.5 0 0 0 0 2 1.5 1.5 0 0 0-.3.5H4.5A2.5 2.5 0 0 1 2 14.66V7.5H7.22c.3-.04.6-.16.83-.36l.1-.1 2.41-2.54ZM7.16 3c.28 0 .54.07.77.21l.14.09 1.31.99-1.95 2.05-.06.06a.5.5 0 0 1-.22.1H2v-1A2.5 2.5 0 0 1 4.34 3h2.83Zm5.34 10a.5.5 0 0 0 0 1h6a.5.5 0 0 0 0-1h-6Zm0 2a.5.5 0 0 0 0 1h6a.5.5 0 0 0 0-1h-6Zm-.5 2.5c0-.28.22-.5.5-.5h6a.5.5 0 0 1 0 1h-6a.5.5 0 0 1-.5-.5Z"/></svg>