<svg width="20" height="20" viewBox="0 0 20 20" xmlns="http://www.w3.org/2000/svg"><path d="M7.17 3c.27 0 .53.07.76.21l.14.09 1.6 1.2h5.83a2.5 2.5 0 0 1 2.48 2.17l.01.17L18 7v5h-1V7c0-.78-.6-1.42-1.36-1.5H9.62L8.16 7.03a1.5 1.5 0 0 1-.94.46l-.15.01H3v7c0 .78.6 1.42 1.36 1.5H11.09c.06.19.16.36.3.5a1.5 1.5 0 0 0-.3.5H4.5A2.5 2.5 0 0 1 2 14.66V5.5A2.5 2.5 0 0 1 4.34 3h2.83Zm0 1H4.5c-.78 0-1.42.6-1.5 1.36V6.5h4.07a.5.5 0 0 0 .3-.1l.06-.06L8.7 5.02 7.47 4.1a.5.5 0 0 0-.22-.1h-.08Zm5.33 9a.5.5 0 0 0 0 1h6a.5.5 0 0 0 0-1h-6Zm0 2a.5.5 0 0 0 0 1h6a.5.5 0 0 0 0-1h-6Zm-.5 2.5c0-.28.22-.5.5-.5h6a.5.5 0 0 1 0 1h-6a.5.5 0 0 1-.5-.5Z"/></svg>