<svg width="24" height="24" viewBox="0 0 24 24" xmlns="http://www.w3.org/2000/svg"><path d="M4 4.25C4 3.01 5 2 6.25 2h11.5C18.99 2 20 3 20 4.25v15.5c0 1.24-1 2.25-2.25 2.25H6.25C5.01 22 4 21 4 19.75V4.25ZM17 20.5h.75c.41 0 .75-.34.75-.75V4.25a.75.75 0 0 0-.75-.75H17v2.75a.75.75 0 0 1-1.5 0V3.5h-7v2.75a.75.75 0 0 1-1.5 0V3.5h-.75a.75.75 0 0 0-.75.75v15.5c0 .41.34.75.75.75H7v-2.75a.75.75 0 0 1 1.5 0v2.75h7v-2.75a.75.75 0 0 1 1.5 0v2.75Zm-9.25-12c.41 0 .75.34.75.75v5.5a.75.75 0 0 1-1.5 0v-5.5c0-.41.34-.75.75-.75Zm9.25.75a.75.75 0 0 0-1.5 0v5.5a.75.75 0 0 0 1.5 0v-5.5Z"/></svg>