<svg width="24" height="24" viewBox="0 0 24 24" xmlns="http://www.w3.org/2000/svg"><path d="M17.76 4C19 4 20 5 20 6.25v4a.75.75 0 0 1-1.5 0v-4a.75.75 0 0 0-.75-.75H6.26a.75.75 0 0 0-.75.75v4a.75.75 0 0 1-1.5 0v-4C4 5.01 5 4 6.26 4h11.5Zm.52 15.28 2.5-2.5c.3-.3.3-.77 0-1.06l-2.5-2.5a.75.75 0 1 0-1.06 1.06l1.97 1.97-1.97 1.97a.75.75 0 1 0 1.06 1.06ZM3.22 15.72c-.3.3-.3.77 0 1.06l2.5 2.5a.75.75 0 0 0 1.06-1.06l-1.97-1.97 1.97-1.97a.75.75 0 1 0-1.06-1.06l-2.5 2.5Zm9.78.53a.75.75 0 0 0-.75-.75h-.5a.75.75 0 0 0 0 1.5h.5c.41 0 .75-.34.75-.75Zm-3 0c0 .41-.34.75-.75.75h-1.5a.75.75 0 0 1 0-1.5h1.5c.41 0 .75.34.75.75Zm7 0a.75.75 0 0 0-.75-.75h-1.5a.75.75 0 0 0 0 1.5h1.5c.41 0 .75-.34.75-.75Z"/></svg>