<svg width="20" height="20" viewBox="0 0 20 20" xmlns="http://www.w3.org/2000/svg"><path d="M3 5c0-1.1.9-2 2-2h8.38a2 2 0 0 1 1.41.59l1.62 1.62A2 2 0 0 1 17 6.62V15a2 2 0 0 1-2 2H5a2 2 0 0 1-2-2V5Zm2-1a1 1 0 0 0-1 1v10a1 1 0 0 0 1 1v-4.5c0-.83.67-1.5 1.5-1.5h7c.83 0 1.5.67 1.5 1.5V16a1 1 0 0 0 1-1V6.62a1 1 0 0 0-.3-.7L14.1 4.28a1 1 0 0 0-.71-.29H13v2.5c0 .83-.67 1.5-1.5 1.5h-4A1.5 1.5 0 0 1 6 6.5V4H5Zm2 0v2.5c0 .28.22.5.5.5h4a.5.5 0 0 0 .5-.5V4H7Zm7 12v-4.5a.5.5 0 0 0-.5-.5h-7a.5.5 0 0 0-.5.5V16h8Z"/></svg>