<svg width="16" height="16" viewBox="0 0 16 16" xmlns="http://www.w3.org/2000/svg"><path d="M5 1a2 2 0 0 0-2 2v3.5a.5.5 0 0 0 1 0V3a1 1 0 0 1 1-1h3v2.5C8 5.33 8.67 6 9.5 6H12v7a1 1 0 0 1-1 1H5a1 1 0 0 1-1-1v-2H3v2c0 1.1.9 2 2 2h6a2 2 0 0 0 2-2V5.41c0-.4-.16-.78-.44-1.06L9.65 1.44A1.5 1.5 0 0 0 8.59 1H5Zm6.8 4H9.5a.5.5 0 0 1-.5-.5V2.2L11.8 5ZM6.47 6.36a.5.5 0 0 0-.93-.08L4.2 9H2.5a.5.5 0 0 0 0 1h2a.5.5 0 0 0 .45-.28l.93-1.87 1.14 3.8a.5.5 0 0 0 .88.15L9.25 10h1.25a.5.5 0 0 0 0-1H9a.5.5 0 0 0-.4.2l-.9 1.2-1.22-4.04Z"/></svg>