<svg width="24" height="24" viewBox="0 0 24 24" xmlns="http://www.w3.org/2000/svg"><path d="M17.5 6.5a1.25 1.25 0 11-2.5 0 1.25 1.25 0 012.5 0zm-7-3.6c.61-.58 1.42-.9 2.25-.9h5.5A2.75 2.75 0 0121 4.75V9.7c0 .87-.35 1.7-.97 2.32l-6.95 6.83c-.88.87-2.29.86-3.16 0l-6.26-6.23c-.9-.9-.88-2.35.04-3.23l6.8-6.5zm2.25.6c-.45 0-.88.17-1.2.48l-6.82 6.5c-.3.3-.3.78-.01 1.07l6.26 6.23c.29.3.76.3 1.05 0l6.95-6.83c.33-.33.52-.78.52-1.25V4.75c0-.69-.56-1.25-1.25-1.25h-5.5zm7.98 9.23l-1.47 1.45-.14.16-5.33 5.23a3.25 3.25 0 01-4.58-.02l-1.93-1.92-2.4-2.38a1.26 1.26 0 01-.12-.13L3.13 13.5c-.3.96-.08 2.05.69 2.81l4.35 4.31a4.75 4.75 0 006.67.02l5.33-5.23c.77-.76 1-1.86.7-2.81l-.14.13z"/></svg>