<svg width="24" height="24" viewBox="0 0 24 24" xmlns="http://www.w3.org/2000/svg"><path d="M7 10h10c.55 0 1 .34 1 .75 0 .38-.38.7-.86.74l-.14.01H7c-.55 0-1-.34-1-.75 0-.38.38-.7.86-.74L7 10Zm10 3H6.86c-.48.06-.86.37-.86.75 0 .41.45.75 1 .75h10.14c.48-.06.86-.37.86-.75 0-.41-.45-.75-1-.75Zm4-7.25A2.75 2.75 0 0 0 18.25 3H5.75A2.75 2.75 0 0 0 3 5.75v12.5A2.75 2.75 0 0 0 5.75 21h12.5A2.75 2.75 0 0 0 21 18.25V5.75ZM5.75 4.5h12.5c.69 0 1.25.56 1.25 1.25v12.5c0 .69-.56 1.25-1.25 1.25H5.75c-.69 0-1.25-.56-1.25-1.25V5.75c0-.69.56-1.25 1.25-1.25Z"/></svg>