<svg width="20" height="20" viewBox="0 0 20 20" xmlns="http://www.w3.org/2000/svg"><path d="M11 16.67A.67.67 0 1 1 11 18a.67.67 0 0 1 0-1.33ZM8.67 16a.67.67 0 1 1 0 1.33.67.67 0 0 1 0-1.33Zm4.66 0a.67.67 0 1 1 0 1.33.67.67 0 0 1 0-1.33ZM11 6c2.46 0 3.86 1.57 4.07 3.47h.06A2.82 2.82 0 0 1 18 12.24 2.82 2.82 0 0 1 15.13 15H6.87A2.82 2.82 0 0 1 4 12.24a2.82 2.82 0 0 1 2.87-2.77h.06C7.13 7.57 8.53 6 11 6ZM3.8 8.7a.5.5 0 0 1-.22.6l-.09.04-.8.27a.5.5 0 0 1-.4-.9l.08-.04.8-.28a.5.5 0 0 1 .63.31Zm5.12-4.2c.33.16.62.37.87.62a4.57 4.57 0 0 0-3.54 3.16l-.07.22-.04.19-.17.03c-.45.09-.87.26-1.25.5a3.28 3.28 0 0 1 4.2-4.72Zm-6 .17L3 4.7l.76.37a.5.5 0 0 1-.35.93l-.09-.03-.76-.37a.5.5 0 0 1 .36-.93ZM9.99 2.3c.22.1.33.35.26.58l-.03.08-.37.77a.5.5 0 0 1-.93-.36l.03-.08.37-.76a.5.5 0 0 1 .67-.23Zm-3.8-.04.05.09.27.8a.5.5 0 0 1-.9.4l-.04-.08-.28-.8a.5.5 0 0 1 .9-.4Z"/></svg>