<svg width="24" height="24" viewBox="0 0 24 24" xmlns="http://www.w3.org/2000/svg"><path d="M13 20a1 1 0 1 1 0 2 1 1 0 0 1 0-2Zm-3.5-1a1 1 0 1 1 0 2 1 1 0 0 1 0-2Zm7 0a1 1 0 1 1 0 2 1 1 0 0 1 0-2ZM13 6c3.17 0 4.97 2.1 5.23 4.64h.08a3.69 3.69 0 1 1 0 7.36H7.69a3.69 3.69 0 1 1 0-7.36h.08A4.95 4.95 0 0 1 13 6Zm-8.63 4.16c.14.36 0 .75-.32.94l-.09.04-.92.39a.75.75 0 0 1-.67-1.34l.1-.05.92-.38c.38-.16.82.02.98.4Zm6.48-4.83-.17.06c-1.78.63-3.06 2-3.61 3.82L7 9.46l-.06.24-.2.04c-.62.13-1.18.37-1.68.71a3.94 3.94 0 0 1 5.8-5.12Zm-7.9.03.1.04.92.38A.75.75 0 0 1 3.5 7.2l-.1-.03-.93-.39a.75.75 0 0 1 .47-1.42Zm3.8-2.98.05.09.38.92a.75.75 0 0 1-1.34.67l-.04-.1-.38-.92a.75.75 0 0 1 1.34-.66Zm4.36-.32c.35.14.53.52.44.87l-.03.1-.39.93a.75.75 0 0 1-1.42-.47l.04-.1.38-.93c.16-.38.6-.56.98-.4Z"/></svg>