<svg width="20" height="20" viewBox="0 0 20 20" xmlns="http://www.w3.org/2000/svg"><path d="M1 5.5a4.5 4.5 0 1 1 9 0 4.5 4.5 0 0 1-9 0Zm6.4.9-.9.9V5.74A2.75 2.75 0 0 0 3.75 3H3.5a.5.5 0 1 0 0 1h.25c.97 0 1.75.78 1.75 1.75v1.54l-.9-.9a.5.5 0 0 0-.7.71l1.75 1.76a.5.5 0 0 0 .7 0L8.12 7.1a.5.5 0 1 0-.71-.7Zm3.6-.9a5.5 5.5 0 0 1-8 4.9V16c0 1.1.9 2 2 2h8a2 2 0 0 0 2-2V4a2 2 0 0 0-2-2H9.74A5.48 5.48 0 0 1 11 5.5Zm5 .5h.5c.28 0 .5.22.5.5V8a.5.5 0 0 1-.5.5H16V6Zm0 3.5h.5c.28 0 .5.22.5.5v1.5a.5.5 0 0 1-.5.5H16V9.5Zm0 3.5h.5c.28 0 .5.22.5.5V15a.5.5 0 0 1-.5.5H16V13Z"/></svg>