<svg width="16" height="16" viewBox="0 0 16 16" xmlns="http://www.w3.org/2000/svg"><path d="M8 1v3.5C8 5.33 8.67 6 9.5 6H13v3.02a1.5 1.5 0 0 0-.87.49 1.5 1.5 0 0 0-2.38.16 1.5 1.5 0 0 0-2.38-.16 1.5 1.5 0 0 0-2.5.39A1.5 1.5 0 0 0 3 9.09V2.5C3 1.67 3.67 1 4.5 1H8Zm1 .25V4.5c0 .28.22.5.5.5h3.25L9 1.25Zm1.23 13.4a.5.5 0 0 1-.96 0l-1.25-4a.5.5 0 0 1 .96-.3l.77 2.47.77-2.47a.5.5 0 1 1 .96.3l-1.25 4ZM6.25 10a.5.5 0 0 1 .48.35l1.25 4a.5.5 0 0 1-.96.3l-.2-.65H5.68l-.2.65a.5.5 0 0 1-.96-.3l1.25-4a.5.5 0 0 1 .48-.35Zm.26 3-.26-.82-.26.82h.52ZM3.5 10c.28 0 .5.22.5.5v3a1.5 1.5 0 0 1-3 0V13a.5.5 0 1 1 1 0v.5a.5.5 0 0 0 1 0v-3c0-.28.22-.5.5-.5Zm9.75 2.18.26.82h-.52l.26-.82Zm-.77 2.47.2-.65h1.14l.2.65a.5.5 0 0 0 .96-.3l-1.25-4a.5.5 0 0 0-.96 0l-1.25 4a.5.5 0 1 0 .96.3Z"/></svg>