<svg width="16" height="16" viewBox="0 0 16 16" xmlns="http://www.w3.org/2000/svg"><path d="M5 1a2 2 0 0 0-2 2v6.09a1.5 1.5 0 0 1 1 0V3a1 1 0 0 1 1-1h3v2.5C8 5.33 8.67 6 9.5 6H12v3.38l.13.13c.22-.26.53-.43.87-.49v-3.6c0-.4-.16-.79-.44-1.07L9.65 1.44A1.5 1.5 0 0 0 8.59 1H5Zm6.8 4H9.5a.5.5 0 0 1-.5-.5V2.2L11.8 5Zm-1.57 9.65a.5.5 0 0 1-.96 0l-1.25-4a.5.5 0 0 1 .96-.3l.77 2.47.77-2.47a.5.5 0 1 1 .96.3l-1.25 4ZM6.25 10a.5.5 0 0 1 .48.35l1.25 4a.5.5 0 0 1-.96.3l-.2-.65H5.68l-.2.65a.5.5 0 0 1-.96-.3l1.25-4a.5.5 0 0 1 .48-.35Zm.26 3-.26-.82-.26.82h.52ZM3.5 10c.28 0 .5.22.5.5v3a1.5 1.5 0 0 1-3 0V13a.5.5 0 1 1 1 0v.5a.5.5 0 0 0 1 0v-3c0-.28.22-.5.5-.5Zm9.75 2.18.26.82h-.52l.26-.82Zm-.77 2.47.2-.65h1.14l.2.65a.5.5 0 0 0 .96-.3l-1.25-4a.5.5 0 0 0-.96 0l-1.25 4a.5.5 0 1 0 .96.3Z"/></svg>