<svg width="20" height="20" viewBox="0 0 20 20" xmlns="http://www.w3.org/2000/svg"><path d="M10 2v4.5c0 .83.67 1.5 1.5 1.5H16v3.02c-.5.08-.92.41-1.13.88a1.5 1.5 0 0 0-2.79.1l-.33.96-.33-.96a1.5 1.5 0 0 0-2.8-.1 1.5 1.5 0 0 0-2.79.1L5 14.4V12.5c0-.65-.42-1.2-1-1.41V3.5C4 2.67 4.67 2 5.5 2H10Zm1 .25V6.5c0 .28.22.5.5.5h4.25L11 2.25ZM11.75 18a.5.5 0 0 0 .47-.33l1.75-5a.5.5 0 1 0-.94-.33l-1.28 3.65-1.28-3.65a.5.5 0 1 0-.94.33l1.75 5c.07.2.26.33.47.33Zm4.97-5.66a.5.5 0 0 0-.94 0l-1.75 5a.5.5 0 1 0 .94.33l.23-.67h2.1l.23.67a.5.5 0 1 0 .94-.34l-1.75-5Zm.23 3.66h-1.4l.7-1.99.7 1.99ZM3.5 12c.28 0 .5.22.5.5v4a1.5 1.5 0 0 1-3 0V16a.5.5 0 1 1 1 0v.5a.5.5 0 0 0 1 0v-4c0-.28.22-.5.5-.5Zm3.75 0c.21 0 .4.13.47.34l1.75 5a.5.5 0 1 1-.94.33L8.3 17H6.2l-.23.67a.5.5 0 1 1-.94-.33l1.75-5a.5.5 0 0 1 .47-.34Zm0 2.01L6.55 16h1.4l-.7-1.99Z"/></svg>