<svg width="20" height="20" viewBox="0 0 20 20" xmlns="http://www.w3.org/2000/svg"><path d="M6 2a2 2 0 0 0-2 2v7.09c.58.2 1 .76 1 1.41V4a1 1 0 0 1 1-1h4v3.5c0 .83.67 1.5 1.5 1.5H15v3.67a1.5 1.5 0 0 1 1-.65v-3.6c0-.4-.16-.79-.44-1.07l-3.91-3.91A1.5 1.5 0 0 0 10.59 2H6Zm8.8 5h-3.3a.5.5 0 0 1-.5-.5V3.2L14.8 7Zm-3.05 11a.5.5 0 0 0 .47-.33l1.75-5a.5.5 0 1 0-.94-.33l-1.28 3.65-1.28-3.65a.5.5 0 1 0-.94.33l1.75 5c.07.2.26.33.47.33Zm4.97-5.66a.5.5 0 0 0-.94 0l-1.75 5a.5.5 0 1 0 .94.33l.23-.67h2.1l.23.67a.5.5 0 1 0 .94-.34l-1.75-5Zm.23 3.66h-1.4l.7-1.99.7 1.99ZM3.5 12c.28 0 .5.22.5.5v4a1.5 1.5 0 0 1-3 0V16a.5.5 0 1 1 1 0v.5a.5.5 0 0 0 1 0v-4c0-.28.22-.5.5-.5Zm3.75 0c.21 0 .4.13.47.34l1.75 5a.5.5 0 1 1-.94.33L8.3 17H6.2l-.23.67a.5.5 0 1 1-.94-.33l1.75-5a.5.5 0 0 1 .47-.34Zm0 2.01L6.55 16h1.4l-.7-1.99Z"/></svg>