<svg width="20" height="20" viewBox="0 0 20 20" xmlns="http://www.w3.org/2000/svg"><path d="M4.25 3.5a.75.75 0 10-1.5 0 .75.75 0 001.5 0zm1.25 0a2 2 0 11-4 0 2 2 0 014 0zm4-.5a3.5 3.5 0 00-3.43 2.81l-.06.3a.75.75 0 001.48.29l.05-.3A2 2 0 119.5 8.5H2.75a.75.75 0 100 1.5H9.5a3.5 3.5 0 000-7zm6.05 5c-.93 0-1.78.52-2.19 1.35l-.03.06a.75.75 0 101.34.68l.03-.07a.95.95 0 011.8.43v.05a1 1 0 01-1 1H2.75a.75.75 0 000 1.5H12.38a.88.88 0 110 1.75.88.88 0 01-.74-.39l-.02-.02a.75.75 0 00-1.24.83l.01.02A2.38 2.38 0 0014.6 13h.91a2.5 2.5 0 002.5-2.5v-.05C18 9.1 16.9 8 15.55 8zM7.5 17.25a.75.75 0 110-1.5.75.75 0 010 1.5zm0 1.25a2 2 0 100-4 2 2 0 000 4zm9.75-14a.75.75 0 10-1.5 0 .75.75 0 001.5 0zm1.25 0a2 2 0 11-4 0 2 2 0 014 0z"/></svg>