<svg width="48" height="48" viewBox="0 0 48 48" xmlns="http://www.w3.org/2000/svg"><path d="M8 11a1 1 0 1 1 0-2 1 1 0 0 1 0 2Zm0 2.5a3.5 3.5 0 1 0 0-7 3.5 3.5 0 0 0 0 7ZM23 7c-4.3 0-7.83 3.4-8 7.7a1.25 1.25 0 0 0 2.5.1 5.51 5.51 0 1 1 5.5 5.7H5.25a1.25 1.25 0 1 0 0 2.5H23a8 8 0 1 0 0-16Zm14.99 11.5a6.03 6.03 0 0 0-5.86 4.56l-.1.39a1.25 1.25 0 0 0 2.43.6l.1-.38A3.53 3.53 0 0 1 37.99 21a3.5 3.5 0 1 1 .01 7H5.25a1.25 1.25 0 1 0 0 2.5H30c1.64 0 3 1.37 3 3.04a2.92 2.92 0 0 1-5.54 1.35l-.1-.2a1.25 1.25 0 1 0-2.23 1.12l.1.2a5.42 5.42 0 0 0 10.27-2.47c0-1.12-.33-2.16-.9-3.04H38a6 6 0 1 0-.01-12ZM19 39a1 1 0 1 0-2 0 1 1 0 0 0 2 0Zm2.5 0a3.5 3.5 0 1 1-7 0 3.5 3.5 0 0 1 7 0ZM40 12a1 1 0 1 0-2 0 1 1 0 0 0 2 0Zm2.5 0a3.5 3.5 0 1 1-7 0 3.5 3.5 0 0 1 7 0Z"/></svg>