<svg width="24" height="24" viewBox="0 0 24 24" xmlns="http://www.w3.org/2000/svg"><path d="M5.25 4.5a.75.75 0 10-1.5 0 .75.75 0 001.5 0zM7 4.5a2.5 2.5 0 11-5 0 2.5 2.5 0 015 0zm4.55-1a4.11 4.11 0 00-4.03 3.3 1 1 0 001.96.4c.2-.99 1.06-1.7 2.07-1.7h.2a2.25 2.25 0 010 4.5H3a1 1 0 100 2h8.75a4.25 4.25 0 000-8.5h-.2zm7.27 6a3.2 3.2 0 00-3.02 2.18 1 1 0 001.9.64 1.18 1.18 0 012.3.36v.07c0 .69-.56 1.25-1.25 1.25H3a1 1 0 100 2h11.75c.69 0 1.25.56 1.25 1.25v.07a1.18 1.18 0 01-2.3.36 1 1 0 00-1.9.64 3.18 3.18 0 006.2-1v-.07c0-.44-.09-.87-.25-1.25h1c1.8 0 3.25-1.46 3.25-3.25v-.07a3.18 3.18 0 00-3.18-3.18zM7.5 20.25a.75.75 0 110-1.5.75.75 0 010 1.5zm0 1.75a2.5 2.5 0 100-5 2.5 2.5 0 000 5zM20.25 5.5a.75.75 0 10-1.5 0 .75.75 0 001.5 0zm1.75 0a2.5 2.5 0 11-5 0 2.5 2.5 0 015 0z"/></svg>