<svg width="20" height="20" viewBox="0 0 20 20" xmlns="http://www.w3.org/2000/svg"><path d="M17 3.5a.5.5 0 1 0-1 0v2.2A8 8 0 0 0 2.84 7.45a.5.5 0 1 0 .9.44 7 7 0 0 1 12-.89H12.5a.5.5 0 0 0 0 1h4a.5.5 0 0 0 .5-.5v-4Zm-6.5 7.63c.4-.7 1.07-1.13 2-1.13.94 0 1.6.44 2 1.13.37.65.5 1.5.5 2.37 0 .86-.13 1.72-.5 2.37-.4.7-1.06 1.13-2 1.13-.93 0-1.6-.44-2-1.13-.37-.65-.5-1.5-.5-2.37 0-.86.13-1.72.5-2.37Zm.87.5A3.87 3.87 0 0 0 11 13.5c0 .8.12 1.44.37 1.87.23.4.57.63 1.13.63.57 0 .9-.23 1.13-.63.25-.43.37-1.08.37-1.87 0-.8-.12-1.44-.37-1.87-.23-.4-.56-.63-1.13-.63-.56 0-.9.23-1.13.63ZM8 10.5a.5.5 0 0 0-.78-.42l-1.5 1a.5.5 0 1 0 .56.84l.72-.49v5.07a.5.5 0 0 0 1 0v-6Z"/></svg>