<svg width="24" height="24" viewBox="0 0 24 24" xmlns="http://www.w3.org/2000/svg"><path d="M6.25 3A3.25 3.25 0 0 0 3 6.25v11.5C3 19.55 4.46 21 6.25 21h5.77c-.3-.46-.53-.97-.7-1.5H6.24c-.97 0-1.75-.78-1.75-1.75V8.5h15v2.81c.53.18 1.04.42 1.5.71V6.25C21 4.45 19.54 3 17.75 3H6.25ZM19.5 7h-15v-.75c0-.97.78-1.75 1.75-1.75h11.5c.97 0 1.75.78 1.75 1.75V7ZM23 17.5a5.5 5.5 0 1 1-11 0 5.5 5.5 0 0 1 11 0Zm-6 3a.5.5 0 0 0 1 0v-4.8l1.65 1.65a.5.5 0 0 0 .7-.7l-2.5-2.5a.5.5 0 0 0-.7 0l-2.5 2.5a.5.5 0 0 0 .7.7L17 15.71v4.79Z"/></svg>