<svg width="32" height="32" viewBox="0 0 32 32" xmlns="http://www.w3.org/2000/svg"><path d="M14.39 4.2a1.8 1.8 0 013.23 0l3.04 6.17 6.8.99a1.8 1.8 0 011 3.07l-4.92 4.8L24.7 26a1.8 1.8 0 01-2.61 1.9L16 24.7l-6.08 3.2A1.8 1.8 0 017.3 26l1.16-6.78-4.92-4.8a1.8 1.8 0 011-3.06l6.8-1 3.04-6.16z"/><path d="M25.3 9.58a1 1 0 010-1.42l3-3a1 1 0 111.4 1.42l-3 3a1 1 0 01-1.4 0z"/><path d="M2.3 23.16a1 1 0 101.4 1.42l3-3a1 1 0 10-1.4-1.42l-3 3z"/><path d="M2.3 5.16a1 1 0 011.4 0l3 3a1 1 0 01-1.4 1.42l-3-3a1 1 0 010-1.42z"/><path d="M26.7 20.16a1 1 0 00-1.4 1.42l3 3a1 1 0 101.4-1.42l-3-3z"/></svg>