<svg width="20" height="20" viewBox="0 0 20 20" xmlns="http://www.w3.org/2000/svg"><path d="M9.1 2.9a1 1 0 0 1 1.8 0l1.93 3.91 4.31.63a1 1 0 0 1 .56 1.7l-3.12 3.05.73 4.3a1 1 0 0 1-1.45 1.05L10 15.51l-3.86 2.03a1 1 0 0 1-1.45-1.05l.74-4.3L2.3 9.14a1 1 0 0 1 .56-1.7l4.31-.63L9.1 2.9ZM4.4 12.69a.5.5 0 0 1-.08.7l-2.5 2a.5.5 0 1 1-.62-.78l2.5-2a.5.5 0 0 1 .7.08ZM4.31 5.1a.5.5 0 1 1-.62.78l-2.5-2a.5.5 0 1 1 .62-.78l2.5 2Zm11.3 7.58a.5.5 0 0 0 .08.7l2.5 2a.5.5 0 1 0 .62-.78l-2.5-2a.5.5 0 0 0-.7.08Zm.08-7.58a.5.5 0 0 0 .62.78l2.5-2a.5.5 0 1 0-.62-.78l-2.5 2Z"/></svg>