<svg width="32" height="32" viewBox="0 0 32 32" xmlns="http://www.w3.org/2000/svg"><path d="M14.39 4.07a1.8 1.8 0 0 1 3.23 0l3.04 6.17 6.8.99a1.8 1.8 0 0 1 1 3.07l-4.92 4.8 1.16 6.77a1.8 1.8 0 0 1-2.61 1.9L16 24.57l-6.08 3.2a1.8 1.8 0 0 1-2.61-1.9l1.16-6.78-4.92-4.8a1.8 1.8 0 0 1 1-3.06l6.8-1 3.04-6.16ZM16 5.32l-2.9 5.9c-.27.53-.78.9-1.36.98l-6.5.95 4.7 4.59c.42.4.62 1 .52 1.59L9.35 25.8l5.81-3.06a1.8 1.8 0 0 1 1.68 0l5.82 3.06-1.11-6.48c-.1-.58.09-1.18.51-1.6l4.71-4.58-6.5-.95a1.8 1.8 0 0 1-1.36-.98l-2.9-5.9Z"/><path d="M25.3 9.58a1 1 0 0 1 0-1.42l3-3a1 1 0 1 1 1.4 1.42l-3 3a1 1 0 0 1-1.4 0Z"/><path d="M2.3 23.16a1 1 0 1 0 1.4 1.42l3-3a1 1 0 1 0-1.4-1.42l-3 3Z"/><path d="M2.3 5.16a1 1 0 0 1 1.4 0l3 3a1 1 0 0 1-1.4 1.42l-3-3a1 1 0 0 1 0-1.42Z"/><path d="M26.7 20.16a1 1 0 1 0-1.4 1.42l3 3a1 1 0 0 0 1.4-1.42l-3-3Z"/></svg>