<svg width="16" height="16" viewBox="0 0 16 16" xmlns="http://www.w3.org/2000/svg"><path d="M13.95 12a2.5 2.5 0 01-2.45 2h-7a2.5 2.5 0 01-2.45-2h4.33l.56.56a1.5 1.5 0 002.12 0l.56-.56h4.33zm.05-1h-3.38A1.5 1.5 0 009.5 8.5v-1A1.5 1.5 0 0010.62 5H14v6zM2.05 4h4.33l.56-.56a1.5 1.5 0 012.12 0l.56.56h4.33a2.5 2.5 0 00-2.45-2h-7a2.5 2.5 0 00-2.45 2zm3.39 3.06A1.5 1.5 0 015.38 5H2v6h3.38A1.5 1.5 0 016.5 8.5v-1a1.5 1.5 0 01-1.06-.44zm4.41-.7a.5.5 0 01-.7 0L8.5 5.7v4.58l.65-.64a.5.5 0 11.7.7l-1.5 1.5a.5.5 0 01-.7 0l-1.5-1.5a.5.5 0 01.7-.7l.65.64V5.71l-.65.64a.5.5 0 11-.7-.7l1.5-1.5c.2-.2.5-.2.7 0l1.5 1.5c.2.2.2.5 0 .7z"/></svg>