<svg width="16" height="16" viewBox="0 0 16 16" xmlns="http://www.w3.org/2000/svg"><path d="M9.85 6.35a.5.5 0 01-.7 0l-.65-.64v4.58l.65-.64a.5.5 0 11.7.7l-1.5 1.5a.5.5 0 01-.7 0l-1.5-1.5a.5.5 0 01.7-.7l.65.64V5.71l-.65.64a.5.5 0 11-.7-.7l1.5-1.5c.2-.2.5-.2.7 0l1.5 1.5c.2.2.2.5 0 .7zM14 11.5a2.5 2.5 0 01-2.5 2.5h-7A2.5 2.5 0 012 11.5v-7A2.5 2.5 0 014.5 2h7A2.5 2.5 0 0114 4.5v7zm-1.09.5H9.62l.94-.94.06-.06H13V5h-2.38a1.55 1.55 0 00-.06-.06L9.62 4h3.3c-.21-.58-.77-1-1.42-1h-7c-.65 0-1.2.42-1.41 1h3.29l-.94.94-.06.06H3v6h2.38l.06.06.94.94h-3.3c.21.58.77 1 1.42 1h7c.65 0 1.2-.42 1.41-1zm-7.47-.94L5.5 11z"/></svg>