<svg width="28" height="28" viewBox="0 0 28 28" xmlns="http://www.w3.org/2000/svg"><path d="M3 6.75A3.75 3.75 0 016.75 3h14.5A3.75 3.75 0 0125 6.75v.75h-8.65l-1.19-1.06a1.75 1.75 0 00-2.32 0l-1.2 1.06H3v-.75zM3 9h7.17a1.75 1.75 0 002.08 2.43v5.14A1.75 1.75 0 0010.17 19H3V9zm14.56 8.09c.48.54.56 1.3.27 1.91H25V9h-7.17a1.75 1.75 0 01-2.08 2.43v5.14a1.75 1.75 0 011.8.52zm-4.72 4.47l-1.2-1.06H3v.75A3.75 3.75 0 006.75 25h14.5A3.75 3.75 0 0025 21.25v-.75h-8.65l-1.18 1.05a1.75 1.75 0 01-2.3.03h-.01l-.02-.02zm1.91-12.14v9.16l1-.89a.75.75 0 011 1.12l-2.25 2a.75.75 0 01-.99.01l-2.26-2a.75.75 0 111-1.13l1 .89V9.42l-1 .9a.75.75 0 01-1-1.13l2.25-2a.75.75 0 011 0l2.25 2a.75.75 0 01-1 1.12l-1-.89zM14.07 22h-.14z"/></svg>