<svg width="20" height="20" viewBox="0 0 20 20" xmlns="http://www.w3.org/2000/svg"><path d="M19 5.5a4.5 4.5 0 11-9 0 4.5 4.5 0 019 0zm-4.85-2.35l-2 2a.5.5 0 00.7.7L14 4.71V7.5a.5.5 0 001 0V4.7l1.15 1.15a.5.5 0 00.7-.7l-2-2A.5.5 0 0014.5 3a.5.5 0 00-.35.14zM17 16v-5.6c.36-.18.7-.4 1-.66V16a2 2 0 01-2 2H4a2 2 0 01-2-2V8c0-1.1.9-2 2-2h5.02c.03.34.1.68.19 1H4a1 1 0 00-1 1v8a1 1 0 001 1h5.5V7.8c.25.54.6 1.04 1 1.47V17H16a1 1 0 001-1zm-11-.5c0-.28.22-.5.5-.5h1a.5.5 0 010 1h-1a.5.5 0 01-.5-.5zm7.5-.5h-1a.5.5 0 000 1h1a.5.5 0 000-1z"/></svg>