<svg width="20" height="20" viewBox="0 0 20 20" xmlns="http://www.w3.org/2000/svg"><path d="M9.25 6.43c.04.4.23.73.59 1.1.35.35.8.68 1.36 1.06l.1.07c1.12.79 2.57 1.82 2.94 3.7.43 2.25-1.29 4.89-4.66 4.89-2.64 0-3.75-2.04-4.12-2.98a5.16 5.16 0 0 1-.19-.59v-.01a.75.75 0 0 1 1.46-.34v.02a2.26 2.26 0 0 0 .13.38c.3.77 1.04 2.02 2.72 2.02 2.47 0 3.44-1.81 3.18-3.1-.23-1.21-1.15-1.94-2.32-2.76l-.13-.1c-.52-.35-1.09-.75-1.54-1.2a3.28 3.28 0 0 1-1.02-2.02c-.14-1.44.3-2.53 1.2-3.19a4.32 4.32 0 0 1 3-.63c1.19.13 2 .76 2.5 1.33a4.74 4.74 0 0 1 .73 1.1v.02h.01v.01s-.16-.32 0 0a.75.75 0 0 1-1.38.58 1.7 1.7 0 0 0-.1-.2c-.09-.14-.2-.32-.38-.51a2.38 2.38 0 0 0-1.54-.83c-1.55-.17-2.71.49-2.54 2.18Zm-2.52 6.9"/></svg>