<svg width="24" height="24" viewBox="0 0 24 24" xmlns="http://www.w3.org/2000/svg"><path d="M11.63 5.19c-.5.34-.88.95-.88 2.06 0 .55.2.9.57 1.23.42.38 1.01.68 1.8 1.08l.03.02c1.5.77 3.57 1.83 4.08 4.48.53 2.74-1.59 6.19-5.73 6.19-2.9 0-4.43-2.24-4.92-3.12a5.97 5.97 0 0 1-.23-.44l-.02-.04v-.01a1 1 0 0 1 1.84-.78v.01a2.07 2.07 0 0 0 .15.28c.42.74 1.43 2.1 3.18 2.1 2.86 0 4.06-2.28 3.77-3.81-.31-1.6-1.48-2.28-3.04-3.08l-.13-.07c-.7-.36-1.5-.77-2.12-1.32a3.5 3.5 0 0 1-1.23-2.72c0-1.64.61-2.92 1.74-3.7a5.65 5.65 0 0 1 3.87-.8A4.37 4.37 0 0 1 18.22 6v.04a1 1 0 0 1-1.94.45m0 0v-.02l-.04-.1-.17-.38a2.37 2.37 0 0 0-1.93-1.24c-1.1-.12-1.96.07-2.5.45"/></svg>