<svg width="24" height="24" viewBox="0 0 24 24" xmlns="http://www.w3.org/2000/svg"><path d="M11.5 4.98c-.59.4-1 1.1-1 2.27 0 .63.24 1.04.65 1.41.45.4 1.06.72 1.83 1.11l.05.03c1.5.77 3.47 1.79 3.96 4.3.5 2.6-1.51 5.9-5.49 5.9-2.92 0-4.4-2.4-4.8-3.15a5.15 5.15 0 0 1-.13-.28v-.02h-.01v-.01a.75.75 0 0 1 .4-.98c.58-.24.98.4.98.4a1.8 1.8 0 0 0 .1.2c.35.68 1.45 2.34 3.46 2.34 3.02 0 4.34-2.43 4.01-4.1-.33-1.74-1.61-2.47-3.16-3.26l-.13-.07c-.7-.36-1.48-.76-2.07-1.29A3.25 3.25 0 0 1 9 7.25c0-1.57.59-2.77 1.63-3.5a5.4 5.4 0 0 1 3.7-.75 4.14 4.14 0 0 1 3.65 3.06v.02a.75.75 0 0 1-1.46.34l-.02-.07a2.64 2.64 0 0 0-2.33-1.86 3.94 3.94 0 0 0-2.68.5Z"/></svg>