<svg width="24" height="24" viewBox="0 0 24 24" xmlns="http://www.w3.org/2000/svg"><path d="M9.25 3.5c-.97 0-1.75.78-1.75 1.75v1a.75.75 0 0 1-1.5 0v-1C6 3.45 7.46 2 9.25 2h1a.75.75 0 0 1 0 1.5h-1ZM12 2.75c0-.41.34-.75.75-.75h2.5a.75.75 0 0 1 0 1.5h-2.5a.75.75 0 0 1-.75-.75Zm.75 13.75a.75.75 0 0 0 0 1.5h2.5a.75.75 0 0 0 0-1.5h-2.5Zm-6-8.5c.41 0 .75.34.75.75v2.5a.75.75 0 0 1-1.5 0v-2.5c0-.41.34-.75.75-.75ZM22 8.75a.75.75 0 0 0-1.5 0v2.5a.75.75 0 0 0 1.5 0v-2.5Zm-3.25 7.75c.97 0 1.75-.78 1.75-1.75v-1a.75.75 0 0 1 1.5 0v1c0 1.8-1.46 3.25-3.25 3.25h-1a.75.75 0 0 1 0-1.5h1ZM20.5 5.25c0-.97-.78-1.75-1.75-1.75h-1a.75.75 0 0 1 0-1.5h1C20.55 2 22 3.46 22 5.25v1a.75.75 0 0 1-1.5 0v-1ZM9.25 16.5c-.97 0-1.75-.78-1.75-1.75v-1a.75.75 0 0 0-1.5 0v1C6 16.55 7.46 18 9.25 18h1a.75.75 0 0 0 0-1.5h-1ZM2 9.25a3.25 3.25 0 0 1 3-3.24v1.5c-.85.13-1.5.86-1.5 1.74v7c0 2.35 1.9 4.25 4.25 4.25h7c.88 0 1.61-.65 1.73-1.5H18a3.25 3.25 0 0 1-3.24 3h-7A5.75 5.75 0 0 1 2 16.25v-7Z"/></svg>