<svg width="24" height="24" viewBox="0 0 24 24" xmlns="http://www.w3.org/2000/svg"><path d="M17.5 12a5.5 5.5 0 1 1 0 11 5.5 5.5 0 0 1 0-11Zm0 2h-.09a.5.5 0 0 0-.4.4l-.01.1V17h-2.6a.5.5 0 0 0-.4.41v.18c.04.2.2.36.4.4l.1.01H17v2.6c.05.2.2.36.41.4h.18a.5.5 0 0 0 .4-.4l.01-.1V18h2.6a.5.5 0 0 0 .4-.41v-.18a.5.5 0 0 0-.4-.4l-.1-.01H18v-2.6a.5.5 0 0 0-.41-.4h-.09Zm.25-11C19.55 3 21 4.46 21 6.25v5.77a6.5 6.5 0 0 0-9.5 2.96 4.78 4.78 0 0 1-2.32-.84.75.75 0 1 0-.86 1.23 6.3 6.3 0 0 0 2.77 1.08 6.5 6.5 0 0 0 .93 4.55H6.25A3.25 3.25 0 0 1 3 17.75V6.25C3 4.45 4.46 3 6.25 3h11.5ZM9 7.75a1.25 1.25 0 1 0 0 2.5 1.25 1.25 0 0 0 0-2.5Zm6 0a1.25 1.25 0 1 0 0 2.5 1.25 1.25 0 0 0 0-2.5Z"/></svg>