<svg width="24" height="24" viewBox="0 0 24 24" xmlns="http://www.w3.org/2000/svg"><path d="M21.25 19.5a.75.75 0 0 1 .1 1.5H2.75a.75.75 0 0 1-.1-1.5h18.6ZM19.75 3C20.99 3 22 4 22 5.25v9.5C22 16 20.99 17 19.75 17h-6.53a1.25 1.25 0 0 1-2.44 0H4.25C3.01 17 2 16 2 14.75v-9.5C2 4.01 3 3 4.25 3h15.5Zm0 1.5H4.25a.75.75 0 0 0-.75.75v9.5c0 .42.34.75.75.75h15.5c.41 0 .75-.33.75-.75v-9.5a.75.75 0 0 0-.75-.75Zm-2.5 8a.75.75 0 0 1 .1 1.5H6.75a.75.75 0 0 1-.1-1.5h10.6ZM16.5 9a1 1 0 1 1 0 2 1 1 0 0 1 0-2Zm-6 0a1 1 0 1 1 0 2 1 1 0 0 1 0-2Zm-3 0a1 1 0 1 1 0 2 1 1 0 0 1 0-2Zm6 0a1 1 0 1 1 0 2 1 1 0 0 1 0-2ZM6 6a1 1 0 1 1 0 2 1 1 0 0 1 0-2Zm3 0a1 1 0 1 1 0 2 1 1 0 0 1 0-2Zm3 0a1 1 0 1 1 0 2 1 1 0 0 1 0-2Zm3 0a1 1 0 1 1 0 2 1 1 0 0 1 0-2Zm3 0a1 1 0 1 1 0 2 1 1 0 0 1 0-2Z"/></svg>