<svg width="20" height="20" viewBox="0 0 20 20" xmlns="http://www.w3.org/2000/svg"><path d="M2.85 2.15a.5.5 0 1 0-.7.7l1.27 1.27a4.4 4.4 0 0 0-.14 6.34l6.27 6.34c.26.27.69.27.95 0L13.28 14l3.87 3.86a.5.5 0 0 0 .7-.7l-15-15Zm9.73 11.13-2.55 2.58-6.04-6.1a3.4 3.4 0 0 1 .14-4.93l8.45 8.45Zm3.45-3.48-2.05 2.06.71.7 2.05-2.06a4.4 4.4 0 0 0-.02-6.19 4.3 4.3 0 0 0-6.13-.01l-.6.6-.6-.61a4.32 4.32 0 0 0-4.14-1.16l.88.88c.91-.06 1.84.27 2.55.98l.96.97c.2.2.51.2.7 0L11.3 5a3.3 3.3 0 0 1 4.71.02 3.4 3.4 0 0 1 .02 4.78Z"/></svg>