<svg width="24" height="24" viewBox="0 0 24 24" xmlns="http://www.w3.org/2000/svg"><path d="M3.28 2.22a.75.75 0 1 0-1.06 1.06l1.86 1.86a5.38 5.38 0 0 0-.5 8.04l7.89 7.9c.3.29.77.29 1.06 0l3.74-3.75 4.45 4.45a.75.75 0 0 0 1.06-1.06L3.28 2.22Zm11.93 14.05L12 19.48l-7.37-7.36a3.88 3.88 0 0 1 .52-5.91L15.2 16.27Zm4.16-4.15-2.04 2.03 1.07 1.06 2.03-2.03a5.38 5.38 0 1 0-7.61-7.6L12 6.4l-.82-.82A5.36 5.36 0 0 0 7.19 4l1.9 1.89c.36.18.71.43 1.03.74L11.46 8c.3.3.79.29 1.08-.02l1.33-1.34a3.88 3.88 0 0 1 5.49 5.48Z"/></svg>