<svg width="32" height="32" viewBox="0 0 32 32" xmlns="http://www.w3.org/2000/svg"><path d="M16 4A12 12 0 0 0 5.57 21.94a1 1 0 0 1 .1.77l-1.44 5.06 5.06-1.44a1 1 0 0 1 .77.1c1.62.92 3.47 1.48 5.45 1.56.49.73 1.08 1.4 1.76 1.95a14.17 14.17 0 0 1-7.83-1.57l-5.53 1.57a1.5 1.5 0 0 1-1.85-1.85l1.57-5.53a14 14 0 1 1 26.31-5.29A9.05 9.05 0 0 0 28 15.51 12 12 0 0 0 16 4Zm7 26.5a7.5 7.5 0 1 0 0-15 7.5 7.5 0 0 0 0 15Zm1-12.25V22h3.75a.75.75 0 0 1 0 1.5H24v3.75a.75.75 0 0 1-1.5 0V23.5h-3.75a.75.75 0 0 1 0-1.5h3.75v-3.75a.75.75 0 0 1 1.5 0Z"/></svg>