<svg width="28" height="28" viewBox="0 0 28 28" xmlns="http://www.w3.org/2000/svg"><path d="M14 3.5a10.5 10.5 0 0 0-9.14 15.68c.1.17.13.38.07.57L3.61 24.4l4.64-1.32c.2-.06.4-.03.57.07a10.45 10.45 0 0 0 5.33 1.36c.33.52.73 1 1.17 1.43a12.14 12.14 0 0 1-6.96-1.33L3.6 25.95c-.94.27-1.8-.6-1.54-1.54l1.36-4.77a12 12 0 1 1 22.52-4.32c-.43-.44-.9-.84-1.43-1.17V14c0-5.8-4.7-10.5-10.5-10.5Zm13 17a6.5 6.5 0 1 1-13 0 6.5 6.5 0 0 1 13 0Zm-6-4a.5.5 0 0 0-1 0V20h-3.5a.5.5 0 0 0 0 1H20v3.5a.5.5 0 0 0 1 0V21h3.5a.5.5 0 0 0 0-1H21v-3.5Z"/></svg>