<svg width="48" height="48" viewBox="0 0 48 48" xmlns="http://www.w3.org/2000/svg"><path d="M16.54 5.45c14.58-5.83 29 6.3 27.58 20.28a13.06 13.06 0 00-2.43-1.88c0-11.48-11.98-20.98-24.23-16.08C7 11.97 3.94 24.47 8.87 32.63l.3.48-.18.54c-.53 1.7-1.53 5.23-2.18 7.53l8.11-2.31.44.21a20.38 20.38 0 008.27 2.22c.5.9 1.1 1.74 1.8 2.5-3.33.18-6.95-.47-10.75-2.27L6.2 43.96a1.75 1.75 0 01-2.16-2.16c.5-1.8 1.7-6.06 2.4-8.37-5.26-9.39-1.7-23.25 10.1-27.98zM46 35a11 11 0 11-22 0 11 11 0 0122 0zm-10-7a1 1 0 10-2 0v6h-6a1 1 0 100 2h6v6a1 1 0 102 0v-6h6a1 1 0 100-2h-6v-6z"/></svg>