<svg width="24" height="24" viewBox="0 0 24 24" xmlns="http://www.w3.org/2000/svg"><path d="M3 6.25C3 4.45 4.46 3 6.25 3h11.5C19.55 3 21 4.46 21 6.25v5.77A6.5 6.5 0 0012.02 21H6.25A3.25 3.25 0 013 17.75V6.25zm9.5 3c0 .41.34.75.75.75h3.5a.75.75 0 000-1.5h-3.5a.75.75 0 00-.75.75zm-1.72-.47a.75.75 0 10-1.06-1.06L8.25 9.19l-.47-.47a.75.75 0 00-1.06 1.06l1 1c.3.3.77.3 1.06 0l2-2zm0 4.44a.75.75 0 00-1.06 0l-1.47 1.47-.47-.47a.75.75 0 00-1.06 1.06l1 1c.3.3.77.3 1.06 0l2-2c.3-.3.3-.77 0-1.06zM23 17.5a5.5 5.5 0 10-11 0 5.5 5.5 0 0011 0zm-5 .5v2.5a.5.5 0 11-1 0V18h-2.5a.5.5 0 010-1H17v-2.5a.5.5 0 111 0V17h2.5a.5.5 0 010 1H18z"/></svg>