<svg width="28" height="28" viewBox="0 0 28 28" xmlns="http://www.w3.org/2000/svg"><path d="M14 7.5a6.5 6.5 0 11-13 0 6.5 6.5 0 0113 0zm-6-4a.5.5 0 00-1 0V7H3.5a.5.5 0 000 1H7v3.5a.5.5 0 001 0V8h3.5a.5.5 0 000-1H8V3.5zm13.25 1h-6.87A7.49 7.49 0 0013.5 3h7.75A3.75 3.75 0 0125 6.75v8.5c0 1-.4 1.96-1.1 2.66l-6 6c-.7.7-1.65 1.09-2.64 1.09H6.75A3.75 3.75 0 013 21.25V13.5c.46.35.96.64 1.5.88v6.87c0 1.24 1 2.25 2.25 2.25H15v-4.75A3.75 3.75 0 0118.75 15h4.75V6.75c0-1.24-1-2.25-2.25-2.25zM16.5 23.13c.12-.09.24-.18.35-.29l6-6c.1-.1.2-.22.28-.34h-4.38c-1.24 0-2.25 1-2.25 2.25v4.38z"/></svg>