<svg width="48" height="48" viewBox="0 0 48 48" xmlns="http://www.w3.org/2000/svg"><path d="M24 13a11 11 0 11-22 0 11 11 0 0122 0zM14 6a1 1 0 10-2 0v6H6a1 1 0 100 2h6v6a1 1 0 102 0v-6h6a1 1 0 100-2h-6V6zm21.75 2.5H25.2c-.33-.88-.74-1.72-1.24-2.5h11.79C39.2 6 42 8.8 42 12.25v13.68c0 1.66-.66 3.25-1.83 4.42l-9.82 9.82A6.25 6.25 0 0125.93 42H12.25A6.25 6.25 0 016 35.75v-11.8c.78.5 1.62.92 2.5 1.25v10.55a3.75 3.75 0 003.75 3.75H26v-7.25C26 28.8 28.8 26 32.25 26h7.25V12.25a3.75 3.75 0 00-3.75-3.75zM28.5 38.48l.08-.08 9.82-9.82.08-.08h-6.23a3.75 3.75 0 00-3.75 3.75v6.23z"/></svg>