<svg width="28" height="28" viewBox="0 0 28 28" xmlns="http://www.w3.org/2000/svg"><path d="M11.75 3c.42 0 .75.34.75.75V5.1c.54.1 1.05.35 1.47.76l3.69 3.7a2.75 2.75 0 010 3.88l-4.7 4.7a2.75 2.75 0 01-3.89 0l-3.7-3.69a2.75 2.75 0 010-3.89l4.7-4.7c.28-.27.6-.47.93-.6V3.74c0-.41.34-.75.75-.75zM11 8.25V7.06l-4.56 4.56c-.11.12-.2.24-.26.38h10.68c.2-.46.11-1.01-.26-1.38l-3.7-3.7a1.25 1.25 0 00-.4-.27v1.6a.75.75 0 01-1.5 0zm4.48 5.25H6.55l3.58 3.58c.49.5 1.28.5 1.77 0l3.58-3.58zM6.25 17h.26l1.5 1.5H6.25c-.97 0-1.75.78-1.75 1.75v1.5c0 .97.78 1.75 1.75 1.75h15.5c.97 0 1.75-.78 1.75-1.75v-1.5c0-.34-.1-.65-.26-.92a3.49 3.49 0 00.2-1.85c.94.57 1.56 1.6 1.56 2.77v1.5c0 1.8-1.46 3.25-3.25 3.25H6.25A3.25 3.25 0 013 21.75v-1.5C3 18.45 4.46 17 6.25 17zm14.35-2.7a.75.75 0 00-1.2 0l-.02.02a16.1 16.1 0 00-1.54 2.45A3.1 3.1 0 0017.5 18a2.5 2.5 0 005 0c0-.42-.17-.87-.34-1.23-.19-.4-.42-.8-.65-1.16a19.98 19.98 0 00-.9-1.29v-.02h-.01zm-.6 1.74a16.38 16.38 0 01.8 1.36c.16.34.2.54.2.6a1 1 0 11-2 0c0-.06.04-.26.2-.6a9.4 9.4 0 01.8-1.36z"/></svg>