<svg width="16" height="16" viewBox="0 0 16 16" xmlns="http://www.w3.org/2000/svg"><path d="M8 2.5a.5.5 0 00-1 0v1c-.2.07-.4.19-.56.35L3.85 6.44a1.5 1.5 0 000 2.12l2.09 2.09a1.5 1.5 0 002.12 0l2.59-2.59a1.5 1.5 0 000-2.12L8.56 3.85A1.5 1.5 0 008 3.5v-1zM7 4.7v.8a.5.5 0 101 0v-.8l1.94 1.95c.1.1.15.23.15.36A.5.5 0 0010 7H4.7L7 4.7zM4.7 8h4.6L7.34 9.94a.5.5 0 01-.7 0L4.7 8zm4.07 3.35a2.5 2.5 0 01-3.54 0L3.15 9.27a2.54 2.54 0 01-.05-.05A2 2 0 002 11v1c0 1.1.9 2 2 2h8a2 2 0 001.98-1.7A2.5 2.5 0 0110 10.11l-1.24 1.24zM12.5 8a.5.5 0 00-.39.19l-.01.01-.04.05a10.07 10.07 0 00-.85 1.3c-.1.2-.21.48-.21.74a1.5 1.5 0 003 0c0-.26-.1-.53-.2-.73a5.75 5.75 0 00-.74-1.16l-.12-.15-.04-.05V8.2h-.01A.5.5 0 0012.5 8zm0 1.34a8.17 8.17 0 01.4.65l.08.21.02.09a.5.5 0 11-1 0l.02-.09.09-.2a4.82 4.82 0 01.39-.66z"/></svg>