<svg width="48" height="48" viewBox="0 0 48 48" xmlns="http://www.w3.org/2000/svg"><path d="M12.25 6A6.25 6.25 0 006 12.25v5.5a1.25 1.25 0 102.5 0v-5.5a3.75 3.75 0 013.75-3.75h5.5a1.25 1.25 0 100-2.5h-5.5zm18 0a1.25 1.25 0 100 2.5h5.5a3.75 3.75 0 013.75 3.75v5.5a1.25 1.25 0 102.5 0v-5.5C42 8.8 39.2 6 35.75 6h-5.5zM8.5 30.25a1.25 1.25 0 10-2.5 0v5.5C6 39.2 8.8 42 12.25 42h5.5a1.25 1.25 0 100-2.5h-5.5a3.75 3.75 0 01-3.75-3.75v-5.5zm33.5 0a1.25 1.25 0 10-2.5 0v5.5a3.75 3.75 0 01-3.75 3.75h-5.5a1.25 1.25 0 100 2.5h5.5C39.2 42 42 39.2 42 35.75v-5.5zm-28-7.5a1.25 1.25 0 100 2.5h20a1.25 1.25 0 100-2.5H14z"/></svg>