<svg width="32" height="32" viewBox="0 0 32 32" xmlns="http://www.w3.org/2000/svg"><path d="M7.75 3A4.75 4.75 0 0 0 3 7.75v3.35a1.25 1.25 0 0 0 2.5 0V7.75c0-1.24 1-2.25 2.25-2.25h3.35a1.25 1.25 0 0 0 0-2.5H7.75ZM20.9 3a1.25 1.25 0 0 0 0 2.5h3.35c1.24 0 2.25 1 2.25 2.25v3.35a1.25 1.25 0 0 0 2.5 0V7.75A4.75 4.75 0 0 0 24.25 3H20.9ZM5.5 20.9a1.25 1.25 0 0 0-2.5 0v3.35A4.75 4.75 0 0 0 7.75 29h3.35a1.25 1.25 0 0 0 0-2.5H7.75c-1.24 0-2.25-1-2.25-2.25V20.9Zm23.5 0a1.25 1.25 0 0 0-2.5 0v3.35c0 1.24-1 2.25-2.25 2.25H20.9a1.25 1.25 0 0 0 0 2.5h3.35A4.75 4.75 0 0 0 29 24.25V20.9ZM9.5 14.75a1.25 1.25 0 1 0 0 2.5h13a1.25 1.25 0 1 0 0-2.5h-13Z"/></svg>