<svg width="28" height="28" viewBox="0 0 28 28" xmlns="http://www.w3.org/2000/svg"><path d="M6.75 3A3.75 3.75 0 003 6.75v3.5a.75.75 0 001.5 0v-3.5c0-1.24 1-2.25 2.25-2.25h3.5a.75.75 0 000-1.5h-3.5zm11 0a.75.75 0 000 1.5h3.5c1.24 0 2.25 1 2.25 2.25v3.5a.75.75 0 001.5 0v-3.5A3.75 3.75 0 0021.25 3h-3.5zM4.5 17.75a.75.75 0 00-1.5 0v3.5A3.75 3.75 0 006.75 25h3.5a.75.75 0 000-1.5h-3.5c-1.24 0-2.25-1-2.25-2.25v-3.5zm20.5 0a.75.75 0 00-1.5 0v3.5c0 1.24-1 2.25-2.25 2.25h-3.5a.75.75 0 000 1.5h3.5A3.75 3.75 0 0025 21.25v-3.5zm-16.75-4.5a.75.75 0 000 1.5h11.5a.75.75 0 000-1.5H8.25z"/></svg>