<svg width="16" height="16" viewBox="0 0 16 16" xmlns="http://www.w3.org/2000/svg"><path d="M4.75 2A2.75 2.75 0 002 4.75v.86a.75.75 0 001.5 0v-.86c0-.69.56-1.25 1.25-1.25h.86a.75.75 0 000-1.5h-.86zm5.64 0a.75.75 0 100 1.5h.86c.69 0 1.25.56 1.25 1.25v.86a.75.75 0 001.5 0v-.86A2.75 2.75 0 0011.25 2h-.86zM3.5 10.39a.75.75 0 10-1.5 0v.86A2.75 2.75 0 004.75 14h.86a.75.75 0 000-1.5h-.86c-.69 0-1.25-.56-1.25-1.25v-.86zm10.5 0a.75.75 0 10-1.5 0v.86c0 .69-.56 1.25-1.25 1.25h-.86a.75.75 0 100 1.5h.86A2.75 2.75 0 0014 11.25v-.86zM5.25 7.25a.75.75 0 000 1.5h5.5a.75.75 0 000-1.5h-5.5z"/></svg>