<svg width="24" height="24" viewBox="0 0 24 24" xmlns="http://www.w3.org/2000/svg"><path d="M6.25 3A3.25 3.25 0 003 6.25v2a.75.75 0 001.5 0v-2c0-.97.78-1.75 1.75-1.75h2a.75.75 0 000-1.5h-2zm9.5 0a.75.75 0 000 1.5h2c.97 0 1.75.78 1.75 1.75v2a.75.75 0 001.5 0v-2C21 4.45 19.54 3 17.75 3h-2zM4.5 15.75a.75.75 0 00-1.5 0v2C3 19.55 4.46 21 6.25 21h2a.75.75 0 000-1.5h-2c-.97 0-1.75-.78-1.75-1.75v-2zm16.5 0a.75.75 0 00-1.5 0v2c0 .97-.78 1.75-1.75 1.75h-2a.75.75 0 000 1.5h2c1.8 0 3.25-1.46 3.25-3.25v-2zm-13.5-4.5a.75.75 0 000 1.5h9a.75.75 0 000-1.5h-9z"/></svg>