<svg width="48" height="48" viewBox="0 0 48 48" xmlns="http://www.w3.org/2000/svg"><path d="M12.5 6A6.5 6.5 0 006 12.5v5.34a1.5 1.5 0 003 0V12.5A3.5 3.5 0 0112.5 9h5.34a1.5 1.5 0 000-3H12.5zm17.66 0a1.5 1.5 0 000 3h5.34a3.5 3.5 0 013.5 3.5v5.34a1.5 1.5 0 003 0V12.5A6.5 6.5 0 0035.5 6h-5.34zM9 30.16a1.5 1.5 0 00-3 0v5.34a6.5 6.5 0 006.5 6.5h5.34a1.5 1.5 0 000-3H12.5A3.5 3.5 0 019 35.5v-5.34zm33 0a1.5 1.5 0 00-3 0v5.34a3.5 3.5 0 01-3.5 3.5h-5.34a1.5 1.5 0 000 3h5.34a6.5 6.5 0 006.5-6.5v-5.34zM14.5 22.5a1.5 1.5 0 000 3h19a1.5 1.5 0 000-3h-19z"/></svg>