<svg width="16" height="16" viewBox="0 0 16 16" xmlns="http://www.w3.org/2000/svg"><path d="M7.2 2.1a.9.9 0 0 1 1.6 0l1.53 3.08 3.4.5a.9.9 0 0 1 .5 1.53l-2.46 2.4.58 3.39a.9.9 0 0 1-1.3.95L8 12.35l-3.04 1.6a.9.9 0 0 1-1.3-.95l.57-3.39-2.46-2.4a.9.9 0 0 1 .5-1.53l3.4-.5L7.2 2.1Zm-7.1.1a.5.5 0 0 1 .7-.1l2 1.5a.5.5 0 0 1-.6.8l-2-1.5a.5.5 0 0 1-.1-.7Zm15.1-.1a.5.5 0 0 1 .6.8l-2 1.5a.5.5 0 0 1-.6-.8l2-1.5ZM.1 12.3a.5.5 0 0 0 .7.1l2-1.5a.5.5 0 0 0-.6-.8l-2 1.5a.5.5 0 0 0-.1.7Zm15.1.1a.5.5 0 0 0 .6-.8l-2-1.5a.5.5 0 0 0-.6.8l2 1.5Z"/></svg>