<svg width="16" height="16" viewBox="0 0 16 16" xmlns="http://www.w3.org/2000/svg"><path d="M2 2.25c-.13 0-.25.01-.37.04A2 2 0 0 1 3.5 1h5a2 2 0 0 1 2 2v2a5.5 5.5 0 0 0-5.48 5H3.5a2 2 0 0 1-2-2V5.68A1.75 1.75 0 1 0 2 2.25ZM4.5 4a.5.5 0 0 0 0 1h3a.5.5 0 0 0 0-1h-3ZM4 6.5c0 .28.22.5.5.5H6a.5.5 0 0 0 0-1H4.5a.5.5 0 0 0-.5.5ZM2 4.75a.75.75 0 1 0 0-1.5.75.75 0 0 0 0 1.5Zm13 5.75a4.5 4.5 0 1 1-9 0 4.5 4.5 0 0 1 9 0Zm-6.85-.35a.5.5 0 0 0-.15.35.5.5 0 0 0 .15.35l2 2a.5.5 0 0 0 .7-.7L9.71 11h2.79a.5.5 0 0 0 0-1H9.7l1.15-1.15a.5.5 0 0 0-.7-.7l-2 2Z"/></svg>