<svg width="16" height="16" viewBox="0 0 16 16" xmlns="http://www.w3.org/2000/svg"><path d="M2 2.25c-.13 0-.25.01-.37.04A2 2 0 0 1 3.5 1h5a2 2 0 0 1 2 2v2c-.34 0-.68.03-1 .1V3a1 1 0 0 0-1-1h-5a1 1 0 0 0-.8.4c-.21-.1-.45-.15-.7-.15ZM5.2 9H3.5a1 1 0 0 1-1-1V5.68a1.75 1.75 0 0 1-1 0V8c0 1.1.9 2 2 2h1.52c.03-.34.1-.68.19-1Zm-.7-5a.5.5 0 0 0 0 1h3a.5.5 0 0 0 0-1h-3Zm0 2a.5.5 0 0 0 0 1H6a.5.5 0 0 0 0-1H4.5ZM2 4.75a.75.75 0 1 0 0-1.5.75.75 0 0 0 0 1.5Zm13 5.75a4.5 4.5 0 1 1-9 0 4.5 4.5 0 0 1 9 0Zm-6.85-.35a.5.5 0 0 0-.15.35.5.5 0 0 0 .15.35l2 2a.5.5 0 0 0 .7-.7L9.71 11h2.79a.5.5 0 0 0 0-1H9.7l1.15-1.15a.5.5 0 0 0-.7-.7l-2 2Z"/></svg>