<svg width="24" height="24" viewBox="0 0 24 24" xmlns="http://www.w3.org/2000/svg"><path d="M10 4a3 3 0 0 0-3 3v4a3 3 0 1 0 6 0V7a3 3 0 0 0-3-3Zm1.5 7a1.5 1.5 0 0 1-3 0V7a1.5 1.5 0 1 1 3 0v4ZM5 12.5a1.5 1.5 0 1 1-3 0 1.5 1.5 0 0 1 3 0ZM19.5 7v4l-.03.3c.49.16.95.37 1.38.63A3 3 0 0 0 21 11V7a3 3 0 1 0-6 0v4c0 .16.01.33.04.48.46-.19.95-.33 1.46-.4V7a1.5 1.5 0 0 1 3 0ZM23 17.5a5.5 5.5 0 1 1-11 0 5.5 5.5 0 0 1 11 0Zm-8.5-.5a.5.5 0 0 0 0 1h4.8l-1.65 1.65a.5.5 0 0 0 .7.7l2.5-2.5a.5.5 0 0 0 0-.7l-2.5-2.5a.5.5 0 0 0-.7.7L19.29 17H14.5Z"/></svg>