<svg width="24" height="24" viewBox="0 0 24 24" xmlns="http://www.w3.org/2000/svg"><path d="M3.5 17.5a1 1 0 0 0 1 1h1a1 1 0 0 0 1-1v-11a1 1 0 0 0-1-1h-1a1 1 0 0 0-1 1v11Zm1 2.5A2.5 2.5 0 0 1 2 17.5v-11A2.5 2.5 0 0 1 4.5 4h1A2.5 2.5 0 0 1 8 6.5v11A2.5 2.5 0 0 1 5.5 20h-1Zm6-2.5a1 1 0 0 0 1 1h1a1 1 0 0 0 1-1v-11a1 1 0 0 0-1-1h-1a1 1 0 0 0-1 1v11Zm1 2.5A2.5 2.5 0 0 1 9 17.5v-11A2.5 2.5 0 0 1 11.5 4h1A2.5 2.5 0 0 1 15 6.5v11a2.5 2.5 0 0 1-2.5 2.5h-1Zm7-1.5a1 1 0 0 1-1-1v-11a1 1 0 0 1 1-1h1a1 1 0 0 1 1 1v11a1 1 0 0 1-1 1h-1Zm-2.5-1a2.5 2.5 0 0 0 2.5 2.5h1a2.5 2.5 0 0 0 2.5-2.5v-11A2.5 2.5 0 0 0 19.5 4h-1A2.5 2.5 0 0 0 16 6.5v11Z"/></svg>