<svg width="24" height="24" viewBox="0 0 24 24" xmlns="http://www.w3.org/2000/svg"><path d="M4.5 5.25c0-.97.78-1.75 1.75-1.75h2.5c.97 0 1.75.78 1.75 1.75v2.5c0 .97-.78 1.75-1.75 1.75h-2.5c-.97 0-1.75-.78-1.75-1.75v-2.5ZM15.25 3.5c-.97 0-1.75.78-1.75 1.75v2.5c0 .97.78 1.75 1.75 1.75h2.5c.97 0 1.75-.78 1.75-1.75v-2.5c0-.97-.78-1.75-1.75-1.75h-2.5ZM15 5.25c0-.14.11-.25.25-.25h2.5c.14 0 .25.11.25.25v2.5c0 .14-.11.25-.25.25h-2.5a.25.25 0 0 1-.25-.25v-2.5ZM2 16a4.5 4.5 0 0 1 4.5-4.5h11a4.5 4.5 0 1 1 0 9h-11A4.5 4.5 0 0 1 2 16Zm6.5 0a1.5 1.5 0 1 0-3 0 1.5 1.5 0 0 0 3 0Zm5 0a1.5 1.5 0 1 0-3 0 1.5 1.5 0 0 0 3 0Zm3.5 1.5a1.5 1.5 0 1 0 0-3 1.5 1.5 0 0 0 0 3Z"/></svg>