<svg width="24" height="24" viewBox="0 0 24 24" xmlns="http://www.w3.org/2000/svg"><path d="M6.25 3.5c-.97 0-1.75.78-1.75 1.75v2.5c0 .97.78 1.75 1.75 1.75h2.5c.97 0 1.75-.78 1.75-1.75v-2.5c0-.97-.78-1.75-1.75-1.75h-2.5Zm7.25 1.75c0-.97.78-1.75 1.75-1.75h2.5c.97 0 1.75.78 1.75 1.75v2.5c0 .97-.78 1.75-1.75 1.75h-2.5c-.97 0-1.75-.78-1.75-1.75v-2.5ZM15.25 5a.25.25 0 0 0-.25.25v2.5c0 .14.11.25.25.25h2.5c.14 0 .25-.11.25-.25v-2.5a.25.25 0 0 0-.25-.25h-2.5ZM7 17.5a1.5 1.5 0 1 0 0-3 1.5 1.5 0 0 0 0 3Zm6.5-1.5a1.5 1.5 0 1 1-3 0 1.5 1.5 0 0 1 3 0Zm3.5 1.5a1.5 1.5 0 1 0 0-3 1.5 1.5 0 0 0 0 3ZM2 16a4.5 4.5 0 0 1 4.5-4.5h11a4.5 4.5 0 1 1 0 9h-11A4.5 4.5 0 0 1 2 16Zm4.5-3a3 3 0 1 0 0 6h11a3 3 0 1 0 0-6h-11Z"/></svg>