<svg width="24" height="24" viewBox="0 0 24 24" xmlns="http://www.w3.org/2000/svg"><path d="M8 2H5a3 3 0 00-3 3v3h2.7A2.5 2.5 0 017 4.5c.36 0 .7.07 1 .2V2zM2 9.5V14a3 3 0 003 3h3v-6.44l-1.72 1.72a.75.75 0 01-1.06-1.06L6.94 9.5H2zM9.5 17H11v-.5a2.5 2.5 0 012.5-2.5h8c.17 0 .34.02.5.05V9.5H10.56l1.72 1.72a.75.75 0 11-1.06 1.06L9.5 10.56V17zM22 8h-9.2a2.5 2.5 0 00-2.3-3.5c-.36 0-.7.07-1 .2V2H19a3 3 0 013 3v3zM10.5 8h-1V7a1 1 0 111 1zM8 8H7a1 1 0 111-1v1zm4 8.5c0-.83.67-1.5 1.5-1.5h8c.83 0 1.5.67 1.5 1.5v4c0 .83-.67 1.5-1.5 1.5h-8a1.5 1.5 0 01-1.5-1.5v-4zm10 .5a1 1 0 01-1-1h-1c0 1.1.9 2 2 2v-1zm0 2a2 2 0 00-2 2h1a1 1 0 011-1v-1zm-8-3a1 1 0 01-1 1v1a2 2 0 002-2h-1zm1 5a2 2 0 00-2-2v1a1 1 0 011 1h1zm4.25-2.5a1.75 1.75 0 10-3.5 0 1.75 1.75 0 003.5 0z"/></svg>