<svg width="24" height="24" viewBox="0 0 24 24" xmlns="http://www.w3.org/2000/svg"><path d="M8.4 11.23a.75.75 0 00-.3-1.47 2.7 2.7 0 00-1.95 1.66 4.74 4.74 0 00-.13 3.01.75.75 0 101.46-.36A3.27 3.27 0 017.53 12c.2-.46.52-.7.87-.78zM5.47 3.42A5.18 5.18 0 006.9 7.3a5.12 5.12 0 00-3.66 4.22c-.33 2.35.15 4.75 1.37 6.8l.35.58.04.07 1.42 1.9a3.46 3.46 0 005.28.34.44.44 0 01.62 0 3.46 3.46 0 005.28-.34l1.42-1.9a.74.74 0 00.04-.07l.35-.59a10.46 10.46 0 001.37-6.8 5.12 5.12 0 00-6.1-4.3l-1.9.4h-.01a8.7 8.7 0 01.39-2.34c.29-.87.7-1.4 1.14-1.58a.75.75 0 10-.58-1.38c-1.05.44-1.65 1.48-1.98 2.48l-.05.15a5.19 5.19 0 00-4.92-2.8c-.7.04-1.25.59-1.29 1.28zm1.5.2a3.68 3.68 0 013.79 3.8c-.19 0-.37 0-.55-.03l-.61-.12a3.67 3.67 0 01-2.64-3.64zm2.06 5.06l.2.04c.25.07.49.12.73.15l.97.2c.7.15 1.43.15 2.14 0l1.9-.39a3.62 3.62 0 014.32 3.04 8.96 8.96 0 01-1.18 5.83l-.33.55-1.4 1.88a1.96 1.96 0 01-2.98.19c-.77-.8-2.03-.8-2.8 0-.84.87-2.26.78-2.99-.2L6.22 18.1l-.33-.55a8.96 8.96 0 01-1.18-5.83 3.62 3.62 0 014.32-3.04z"/></svg>