<svg width="24" height="24" viewBox="0 0 24 24" xmlns="http://www.w3.org/2000/svg"><path d="M5.47 3.42A5.18 5.18 0 006.9 7.3a5.12 5.12 0 00-3.66 4.22c-.33 2.35.15 4.75 1.37 6.8l.35.58.04.07 1.42 1.9a3.46 3.46 0 005.28.34.44.44 0 01.62 0 3.46 3.46 0 005.28-.34l1.42-1.9a.74.74 0 00.04-.07l.35-.59a10.46 10.46 0 001.37-6.8 5.12 5.12 0 00-6.1-4.3l-1.9.4h-.01a8.7 8.7 0 01.39-2.34c.29-.87.7-1.4 1.14-1.58a.75.75 0 10-.58-1.38c-1.05.44-1.65 1.48-1.98 2.48l-.05.15a5.19 5.19 0 00-4.92-2.8c-.7.04-1.25.59-1.29 1.28zm2.93 7.81c-.35.07-.67.32-.87.78-.2.48-.27 1.18-.05 2.06a.75.75 0 01-1.46.36 4.74 4.74 0 01.13-3A2.7 2.7 0 018.1 9.75a.75.75 0 11.3 1.47z"/></svg>