<svg width="20" height="20" viewBox="0 0 20 20" xmlns="http://www.w3.org/2000/svg"><path d="M13.27 5.56a.5.5 0 0 1 .46 0l3 1.54a.5.5 0 0 1 .27.44v3.92a.5.5 0 0 1-.27.44l-3 1.54a.5.5 0 0 1-.46 0l-3-1.54a.5.5 0 0 1-.27-.44V7.54c0-.18.1-.36.27-.44l3-1.54Zm.92-.9a1.5 1.5 0 0 0-1.38 0l-3 1.55c-.5.26-.81.77-.81 1.33v3.92c0 .56.31 1.07.81 1.33l3 1.54c.43.22.95.22 1.38 0l3-1.54c.5-.25.81-.77.81-1.33V7.54a1.5 1.5 0 0 0-.81-1.33l-3-1.54ZM3 6.5c0-.28.22-.5.5-.5h4a.5.5 0 0 1 0 1h-4a.5.5 0 0 1-.5-.5Zm-1 3c0-.28.22-.5.5-.5h4a.5.5 0 0 1 0 1h-4a.5.5 0 0 1-.5-.5Zm1 3c0-.28.22-.5.5-.5h4a.5.5 0 0 1 0 1h-4a.5.5 0 0 1-.5-.5Zm8.05-4.72a.5.5 0 0 1 .67-.23l1.78.9 1.78-.9a.5.5 0 1 1 .44.9L14 9.3v2.19a.5.5 0 1 1-1 0V9.3l-1.72-.85a.5.5 0 0 1-.23-.67Z"/></svg>