<svg width="28" height="28" viewBox="0 0 28 28" xmlns="http://www.w3.org/2000/svg"><path d="M18.72 8.55a.5.5 0 0 0-.44 0l-4.5 2.23a.5.5 0 0 0-.28.44v5.56c0 .19.1.36.28.45l4.5 2.22c.14.07.3.07.44 0l4.5-2.22a.5.5 0 0 0 .28-.45v-5.56a.5.5 0 0 0-.28-.44l-4.5-2.23Zm-1.1-1.34a2 2 0 0 1 1.77 0l4.5 2.22a2 2 0 0 1 1.11 1.8v5.55a2 2 0 0 1-1.11 1.79l-4.5 2.22a2 2 0 0 1-1.78 0l-4.5-2.22a2 2 0 0 1-1.11-1.8v-5.55a2 2 0 0 1 1.11-1.79l4.5-2.22ZM4 9.25c0-.41.34-.75.75-.75h5a.75.75 0 0 1 0 1.5h-5A.75.75 0 0 1 4 9.25Zm-2 4.5c0-.41.34-.75.75-.75h5a.75.75 0 0 1 0 1.5h-5a.75.75 0 0 1-.75-.75Zm2.75 3.75a.75.75 0 0 0 0 1.5h5a.75.75 0 1 0 0-1.5h-5Zm11.36-5.9a.75.75 0 0 0-.72 1.3l2.36 1.3v3.05a.75.75 0 1 0 1.5 0V14.2l2.36-1.3a.75.75 0 1 0-.72-1.3l-2.39 1.3-2.4-1.3Z"/></svg>