<svg width="16" height="16" viewBox="0 0 16 16" xmlns="http://www.w3.org/2000/svg"><path d="M9.93 4.14c.36-.18.78-.18 1.14 0l2.25 1.15c.42.22.68.65.68 1.12v3.18c0 .47-.26.9-.68 1.12l-2.25 1.15c-.36.19-.78.19-1.14 0l-2.25-1.15A1.25 1.25 0 017 9.59V6.41c0-.47.26-.9.68-1.12l2.25-1.15zM8.55 6.78a.5.5 0 00.23.67l1.22.6V9.5a.5.5 0 001 0V8.06l1.22-.61a.5.5 0 10-.44-.9l-1.28.64-1.28-.64a.5.5 0 00-.67.23zM1.5 7.5a.5.5 0 000 1h3a.5.5 0 000-1h-3zm.5-2c0-.28.22-.5.5-.5h3a.5.5 0 010 1h-3a.5.5 0 01-.5-.5zm.5 4.5a.5.5 0 000 1h3a.5.5 0 000-1h-3z"/></svg>