<svg width="24" height="24" viewBox="0 0 24 24" xmlns="http://www.w3.org/2000/svg"><path d="M16.27 7.55a.5.5 0 01.46 0l3.5 1.77a.5.5 0 01.27.45v4.46a.5.5 0 01-.27.45l-3.5 1.77a.5.5 0 01-.46 0l-3.5-1.77a.5.5 0 01-.27-.45V9.77c0-.19.1-.36.27-.45l3.5-1.77zm1.13-1.33a2 2 0 00-1.8 0l-3.5 1.76A2 2 0 0011 9.77v4.46a2 2 0 001.1 1.79l3.5 1.77a2 2 0 001.8 0l3.5-1.77a2 2 0 001.1-1.79V9.77a2 2 0 00-1.1-1.79l-3.5-1.76zM4 7.75c0-.42.34-.75.75-.75h4.5a.75.75 0 110 1.5h-4.5A.75.75 0 014 7.75zm-2 4c0-.42.34-.75.75-.75h4.5a.75.75 0 010 1.5h-4.5a.75.75 0 01-.75-.75zM4.75 15a.75.75 0 000 1.5h4.5a.75.75 0 000-1.5h-4.5zm8.83-4.6a.75.75 0 011.01-.32l1.91.97 1.91-.97a.75.75 0 01.68 1.33l-1.84.94v1.9a.75.75 0 01-1.5 0v-1.9l-1.84-.94a.75.75 0 01-.33-1z"/></svg>