<svg width="24" height="24" viewBox="0 0 24 24" xmlns="http://www.w3.org/2000/svg"><path d="M15.6 6.22a2 2 0 011.8 0l3.5 1.76A2 2 0 0122 9.77v4.46a2 2 0 01-1.1 1.79l-3.5 1.77a2 2 0 01-1.8 0l-3.5-1.77a2 2 0 01-1.1-1.79V9.77a2 2 0 011.1-1.79l3.5-1.76zm-2.02 4.19a.75.75 0 00.33 1l1.84.94v1.9a.75.75 0 101.5 0v-1.9l1.84-.94a.75.75 0 00-.68-1.33l-1.91.97-1.91-.97a.75.75 0 00-1 .33zM4.75 7a.75.75 0 100 1.5h4.5a.75.75 0 000-1.5h-4.5zm-2 4a.75.75 0 000 1.5h4.5a.75.75 0 000-1.5h-4.5zM4 15.75c0-.42.34-.75.75-.75h4.5a.75.75 0 010 1.5h-4.5a.75.75 0 01-.75-.75z"/></svg>