<svg width="16" height="16" viewBox="0 0 16 16" xmlns="http://www.w3.org/2000/svg"><path d="M11.07 4.14a1.25 1.25 0 00-1.14 0L7.68 5.29c-.42.22-.68.65-.68 1.12v3.18c0 .47.26.9.68 1.12l2.25 1.15c.36.19.78.19 1.14 0l2.25-1.15c.42-.22.68-.65.68-1.12V6.41c0-.47-.26-.9-.68-1.12l-2.25-1.15zm-.68.89a.25.25 0 01.22 0l2.25 1.15c.09.05.14.13.14.23v3.18c0 .1-.05.18-.14.23l-2.25 1.15a.25.25 0 01-.22 0L8.14 9.82A.25.25 0 018 9.59V6.41c0-.1.05-.18.14-.23l2.25-1.15zM9.22 6.55a.5.5 0 10-.44.9l1.22.6V9.5a.5.5 0 001 0V8.06l1.22-.61a.5.5 0 10-.44-.9l-1.28.64-1.28-.64zM1.5 7.5a.5.5 0 000 1h3a.5.5 0 000-1h-3zm.5-2c0-.28.22-.5.5-.5h3a.5.5 0 010 1h-3a.5.5 0 01-.5-.5zm.5 4.5a.5.5 0 000 1h3a.5.5 0 100-1h-3z"/></svg>