<svg width="12" height="12" viewBox="0 0 12 12" xmlns="http://www.w3.org/2000/svg"><path d="M7.99 6.5H4.01a8.4 8.4 0 0 0 .76 3.3c.5.97.99 1.2 1.23 1.2.25 0 .74-.23 1.23-1.2.4-.82.7-1.97.76-3.3Zm-3.98-1a8.4 8.4 0 0 1 .76-3.3C5.27 1.23 5.76 1 6 1c.25 0 .74.23 1.23 1.2.4.82.7 1.97.76 3.3H4.01Zm-1 0H1.03a5 5 0 0 1 3.06-4.12c-.6 1-1.01 2.46-1.08 4.12Zm0 1H1.03a5 5 0 0 0 3.06 4.12c-.6-1-1.01-2.46-1.08-4.12ZM9 6.5h1.99a5 5 0 0 1-3.07 4.12c.6-1 1.01-2.46 1.08-4.12Zm1.99-1H8.99a8.91 8.91 0 0 0-1.08-4.12 5 5 0 0 1 3.07 4.12Z"/></svg>