<svg width="12" height="12" viewBox="0 0 12 12" xmlns="http://www.w3.org/2000/svg"><path d="M11 6A5 5 0 1 0 1 6a5 5 0 0 0 10 0Zm-6.99.5c.05 1.3.3 2.47.68 3.28A4 4 0 0 1 2.03 6.5h1.98Zm1 0H7a8.4 8.4 0 0 1-.5 2.66 2.45 2.45 0 0 1-.49.81 2.45 2.45 0 0 1-.49-.8 8.4 8.4 0 0 1-.5-2.67ZM7 5.5H5c.05-1.08.24-2 .5-2.66A2.45 2.45 0 0 1 6 2.03l.05.05c.13.13.28.37.44.76.26.66.45 1.58.5 2.66Zm1 1h1.98A4 4 0 0 1 7.3 9.78c.37-.81.63-1.97.68-3.28Zm1.98-1H7.99a8.96 8.96 0 0 0-.68-3.28A4 4 0 0 1 9.97 5.5ZM4 5.5H2.03A4 4 0 0 1 4.7 2.22a8.96 8.96 0 0 0-.68 3.28Z"/></svg>