<svg width="16" height="16" viewBox="0 0 16 16" xmlns="http://www.w3.org/2000/svg"><path d="M8 14A6 6 0 1 0 8 2a6 6 0 0 0 0 12ZM8 3c.37 0 .88.36 1.31 1.32.1.2.18.43.26.68H6.43c.08-.25.16-.47.26-.68C7.12 3.36 7.63 3 8 3Zm-2.22.9c-.15.34-.29.7-.4 1.1H4a5.02 5.02 0 0 1 2.04-1.6c-.1.16-.18.33-.26.5ZM5.16 6a12.06 12.06 0 0 0 0 4H3.42a4.98 4.98 0 0 1 0-4h1.74Zm.22 5a7.53 7.53 0 0 0 .66 1.6A5.02 5.02 0 0 1 4 11h1.38Zm1.05 0h3.14a6.2 6.2 0 0 1-.26.68C8.88 12.64 8.37 13 8 13c-.37 0-.88-.36-1.31-1.32a6.2 6.2 0 0 1-.26-.68Zm3.4-1H6.17a10.94 10.94 0 0 1 0-4h3.64a10.94 10.94 0 0 1 0 4Zm.79 1H12a5.02 5.02 0 0 1-2.04 1.6c.1-.16.18-.33.26-.5.15-.34.29-.7.4-1.1Zm1.96-1h-1.74a12.05 12.05 0 0 0 0-4h1.74a4.98 4.98 0 0 1 0 4ZM9.96 3.4c.81.35 1.52.9 2.04 1.6h-1.38a7.53 7.53 0 0 0-.66-1.6Z"/></svg>