<svg width="48" height="48" viewBox="0 0 48 48" xmlns="http://www.w3.org/2000/svg"><path d="M30.72 32.5a29.9 29.9 0 0 1-1.93 6.4 12.7 12.7 0 0 1-2.62 4.02C25.3 43.75 24.57 44 24 44c-.57 0-1.3-.25-2.17-1.08a12.7 12.7 0 0 1-2.62-4.03 29.9 29.9 0 0 1-1.93-6.39h13.44Zm2.54 0c-.82 4.55-2.3 8.35-4.15 10.84a20.05 20.05 0 0 0 13-10.84h-8.85Zm9.82-2.5h-9.44a49.4 49.4 0 0 0 .06-11.5h9.53a20.01 20.01 0 0 1-.15 11.5Zm-11.96 0H16.88a46.71 46.71 0 0 1-.06-11.5h14.36a47 47 0 0 1-.06 11.5Zm-16.76 0a49.4 49.4 0 0 1-.06-11.5H4.77A20.01 20.01 0 0 0 4.92 30h9.44Zm-8.47 2.5a20.05 20.05 0 0 0 13 10.84c-1.86-2.49-3.33-6.3-4.15-10.84H5.89ZM28.8 9.1A30.47 30.47 0 0 1 30.8 16H17.2a30.47 30.47 0 0 1 2.02-6.9 12.7 12.7 0 0 1 2.62-4.02C22.7 4.25 23.43 4 24 4c.57 0 1.3.25 2.17 1.08.88.84 1.8 2.18 2.62 4.03Zm4.56 6.9h8.99A20.05 20.05 0 0 0 29.1 4.66c1.93 2.58 3.43 6.57 4.24 11.34ZM5.66 16h9c.8-4.77 2.3-8.76 4.23-11.34A20.05 20.05 0 0 0 5.66 16Z"/></svg>