<svg width="48" height="48" viewBox="0 0 48 48" xmlns="http://www.w3.org/2000/svg"><path d="M24 4a20 20 0 1 1 0 40 20 20 0 0 1 0-40Zm0 37.5c1.3 0 3.16-1.12 4.84-4.48.64-1.3 1.2-2.82 1.64-4.52H17.52c.44 1.7 1 3.23 1.64 4.52 1.68 3.36 3.54 4.48 4.84 4.48ZM17 30h14a36.06 36.06 0 0 0 .09-11.5H16.91a36.32 36.32 0 0 0 .08 11.5Zm16.05 2.5a22.33 22.33 0 0 1-3.46 8.09 17.55 17.55 0 0 0 9.71-8.09h-6.25Zm7.4-2.5a17.47 17.47 0 0 0 .17-11.5h-7a39.02 39.02 0 0 1-.08 11.5h6.9Zm-26 0a38.8 38.8 0 0 1-.07-11.5h-7A17.48 17.48 0 0 0 7.56 30h6.9ZM8.7 32.5a17.55 17.55 0 0 0 9.71 8.09c-1.49-2.01-2.7-4.8-3.46-8.09H8.7ZM17.4 16h13.2c-.45-1.9-1.05-3.6-1.77-5.02C27.16 7.62 25.3 6.5 24 6.5c-1.3 0-3.16 1.12-4.84 4.48A23.43 23.43 0 0 0 17.4 16Zm15.77 0h6.4a17.55 17.55 0 0 0-9.98-8.59c1.56 2.11 2.81 5.1 3.58 8.59ZM18.4 7.41A17.55 17.55 0 0 0 8.43 16h6.4c.77-3.5 2.02-6.48 3.58-8.59Z"/></svg>