<svg width="16" height="16" viewBox="0 0 16 16" xmlns="http://www.w3.org/2000/svg"><path d="M6 8c0-.7.04-1.38.12-2h3.76a15.73 15.73 0 0 1 0 4H6.12C6.04 9.38 6 8.7 6 8Zm-.88 2a16.83 16.83 0 0 1 0-4H2.34a5.99 5.99 0 0 0 0 4h2.78ZM2.8 11h2.47c.13.66.3 1.25.5 1.78.13.35.28.67.45.95A6.02 6.02 0 0 1 2.8 11Zm3.5 0h3.4c-.1.53-.24 1-.4 1.42-.21.55-.45.97-.7 1.23-.24.27-.44.35-.6.35-.16 0-.36-.08-.6-.35a3.99 3.99 0 0 1-.7-1.23c-.16-.42-.3-.9-.4-1.42Zm4.43 0c-.13.66-.3 1.25-.5 1.78-.13.35-.28.67-.45.95A6.02 6.02 0 0 0 13.2 11h-2.47Zm2.93-1a5.99 5.99 0 0 0 0-4h-2.78a16.82 16.82 0 0 1 0 4h2.78ZM9.3 3.58c.16.42.3.9.4 1.42H6.3c.1-.53.24-1 .4-1.42.21-.55.45-.97.7-1.23.24-.27.44-.35.6-.35.16 0 .36.08.6.35.25.26.49.68.7 1.23ZM10.73 5h2.47a6.02 6.02 0 0 0-3.42-2.73c.17.28.32.6.45.95.2.53.37 1.12.5 1.78ZM2.8 5h2.47c.13-.66.3-1.25.5-1.78.13-.34.28-.67.45-.95A6.02 6.02 0 0 0 2.8 5Z"/></svg>