<svg width="16" height="16" viewBox="0 0 16 16" xmlns="http://www.w3.org/2000/svg"><path d="m3.88.28.35 1.07a2.2 2.2 0 0 0 1.4 1.4l1.07.35h.02a.42.42 0 0 1 0 .8l-1.07.35a2.2 2.2 0 0 0-1.4 1.4L3.9 6.72a.42.42 0 0 1-.8 0l-.35-1.07a2.2 2.2 0 0 0-1.4-1.4L.28 3.9a.42.42 0 0 1 0-.8l1.07-.35a2.2 2.2 0 0 0 1.38-1.4L3.08.28a.42.42 0 0 1 .8 0Zm4.9 7.93-.76-.25a1.58 1.58 0 0 1-1-1l-.25-.76a.3.3 0 0 0-.57 0l-.25.77a1.58 1.58 0 0 1-.98 1l-.77.24a.3.3 0 0 0 0 .57l.77.25a1.58 1.58 0 0 1 1 1l.24.77a.3.3 0 0 0 .58 0l.24-.77a1.58 1.58 0 0 1 1-1l.77-.24a.3.3 0 0 0 0-.57h-.02ZM6.5 12c-.27 0-.53-.08-.74-.23a1.4 1.4 0 0 1-.48-.62l-.26-.8A.96.96 0 0 0 5 10.3l-.66.65c-.18.19-.32.4-.4.65l-.91 2.74a.5.5 0 0 0 .63.63l2.74-.91c.24-.08.46-.22.65-.4L13 7.71l.26.26c.3.3.3.77 0 1.06l-1.11 1.12a.5.5 0 0 0 .7.7l1.12-1.11c.68-.69.68-1.8 0-2.48L13.71 7l.73-.73a1.91 1.91 0 0 0-2.7-2.71L8.27 7.01l.05.02.76.25c.29.1.51.27.67.5a1.3 1.3 0 0 1-.63 1.97l-.8.26a.52.52 0 0 0-.21.14.68.68 0 0 0-.14.23l-.25.76c-.1.28-.26.49-.48.65-.22.16-.48.2-.75.21Z"/></svg>