<svg width="20" height="20" viewBox="0 0 20 20" xmlns="http://www.w3.org/2000/svg"><path d="m4.88.28.35 1.07a2.2 2.2 0 0 0 1.4 1.4l1.07.35h.02a.42.42 0 0 1 0 .8l-1.07.35a2.2 2.2 0 0 0-1.4 1.4L4.9 6.72a.42.42 0 0 1-.8 0l-.35-1.07a2.2 2.2 0 0 0-1.4-1.4L1.28 3.9a.42.42 0 0 1 0-.8l1.07-.35a2.2 2.2 0 0 0 1.38-1.4L4.08.28a.42.42 0 0 1 .8 0Zm4.9 7.93-.76-.25a1.58 1.58 0 0 1-1-1l-.25-.76a.3.3 0 0 0-.57 0l-.25.77a1.58 1.58 0 0 1-.98 1l-.77.24a.3.3 0 0 0 0 .57l.77.25a1.58 1.58 0 0 1 1 1l.24.77a.3.3 0 0 0 .58 0l.24-.77a1.58 1.58 0 0 1 1-1l.77-.24a.3.3 0 0 0 0-.57h-.02ZM7.5 12c-.27 0-.53-.08-.74-.23a1.4 1.4 0 0 1-.48-.62l-.26-.8a.6.6 0 0 0-.26-.31l-2.21 2.2c-.33.34-.56.75-.66 1.2l-.88 3.95a.5.5 0 0 0 .6.6l3.92-.87c.47-.1.9-.34 1.24-.68l7.98-7.98.34.33a1 1 0 0 1 0 1.42l-.94.94a.5.5 0 0 0 .7.7l.94-.94a2 2 0 0 0 0-2.82l-.33-.34.67-.67a2.97 2.97 0 0 0-4.21-4.2l-3.91 3.9c.02.04.05.08.09.11.07.06.14.11.23.14l.76.25c.29.1.51.27.67.5a1.3 1.3 0 0 1-.63 1.97l-.8.26a.52.52 0 0 0-.21.14.68.68 0 0 0-.14.23l-.25.76c-.1.28-.26.49-.48.65-.22.16-.48.2-.75.21Z"/></svg>