<svg width="20" height="20" viewBox="0 0 20 20" xmlns="http://www.w3.org/2000/svg"><path d="m4.88.28.35 1.07a2.2 2.2 0 0 0 1.4 1.4l1.07.35h.02a.42.42 0 0 1 0 .8l-1.07.35a2.2 2.2 0 0 0-1.4 1.4L4.9 6.72a.42.42 0 0 1-.8 0l-.35-1.07a2.2 2.2 0 0 0-1.4-1.4L1.28 3.9a.42.42 0 0 1 0-.8l1.07-.35a2.2 2.2 0 0 0 1.38-1.4L4.08.28a.42.42 0 0 1 .8 0Zm4.9 7.93-.76-.25a1.58 1.58 0 0 1-1-1l-.25-.76a.3.3 0 0 0-.57 0l-.25.77a1.58 1.58 0 0 1-.98 1l-.77.24a.3.3 0 0 0 0 .57l.77.25a1.58 1.58 0 0 1 1 1l.24.77a.3.3 0 0 0 .58 0l.24-.77a1.58 1.58 0 0 1 1-1l.77-.24a.3.3 0 0 0 0-.57h-.02Zm-3.76 2.14.2.63-1.97 1.97c-.2.2-.32.44-.38.7l-.71 3.2 3.16-.71c.28-.06.54-.2.74-.41l9.36-9.36a1.97 1.97 0 0 0-2.8-2.79L9.98 7.24l-.64-.2a.68.68 0 0 1-.23-.15.42.42 0 0 1-.09-.1l3.91-3.92a2.97 2.97 0 0 1 4.2 4.2l-.66.68.33.34a2 2 0 0 1 0 2.82l-.94.94a.5.5 0 0 1-.7-.7l.94-.94a1 1 0 0 0 0-1.42l-.34-.33-7.98 7.98c-.34.34-.77.57-1.24.67L2.61 18a.5.5 0 0 1-.6-.6l.88-3.95c.1-.45.33-.87.66-1.2l2.2-2.2a.6.6 0 0 1 .27.3Z"/></svg>