<svg width="24" height="24" viewBox="0 0 24 24" xmlns="http://www.w3.org/2000/svg"><path d="M4.09 6.41a2.84 2.84 0 0 0-1.35-.95L1.36 5a.54.54 0 0 1 0-1.03l1.38-.44A2.84 2.84 0 0 0 4.5 1.77l.01-.03.45-1.38a.54.54 0 0 1 1.03 0l.44 1.38a2.84 2.84 0 0 0 1.8 1.8l1.38.44.03.01a.54.54 0 0 1 0 1.03l-1.38.44a2.84 2.84 0 0 0-1.8 1.8l-.45 1.38A.55.55 0 0 1 5.5 9a.54.54 0 0 1-.51-.36l-.45-1.38c-.1-.3-.25-.6-.45-.85Zm7.7 3.8-.77-.25a1.58 1.58 0 0 1-1-1l-.25-.76a.3.3 0 0 0-.57 0l-.25.77a1.58 1.58 0 0 1-.98 1l-.77.24a.3.3 0 0 0 0 .57l.77.25a1.58 1.58 0 0 1 1 1l.24.77a.3.3 0 0 0 .58 0l.24-.77a1.58 1.58 0 0 1 1-1l.77-.24a.3.3 0 0 0 0-.57h-.02Zm.34-.94c.25.09.47.26.63.48l-.04.05a1.29 1.29 0 0 1 0 1.5c-.16.23-.39.4-.65.49l-.76.24a.68.68 0 0 0-.23.14.74.74 0 0 0-.14.22l-.25.79a1.31 1.31 0 0 1-2.47-.02l-.24-.76a.6.6 0 0 0-.14-.23.74.74 0 0 0-.22-.14l-.54-.17L3.94 15c-.4.4-.7.92-.82 1.48l-1.1 4.6a.75.75 0 0 0 .9.9l4.6-1.1A3.1 3.1 0 0 0 9 20.06l10-10c.68.68.68 1.79 0 2.47l-1.79 1.78a.75.75 0 0 0 1.06 1.06l1.79-1.78a3.25 3.25 0 0 0 0-4.59l.9-.9a3.58 3.58 0 0 0-5.07-5.05L10.82 8.1l.18.54c.02.08.06.15.11.22.06.06.14.1.22.13l.73.27h.07Z"/></svg>