<svg width="24" height="24" viewBox="0 0 24 24" xmlns="http://www.w3.org/2000/svg"><path d="M4.09 6.41a2.84 2.84 0 0 0-1.35-.95L1.36 5a.54.54 0 0 1 0-1.03l1.38-.44A2.84 2.84 0 0 0 4.5 1.77l.01-.03.45-1.38a.54.54 0 0 1 1.03 0l.44 1.38a2.84 2.84 0 0 0 1.8 1.8l1.38.44.03.01a.54.54 0 0 1 0 1.03l-1.38.44a2.84 2.84 0 0 0-1.8 1.8l-.45 1.38A.55.55 0 0 1 5.5 9a.54.54 0 0 1-.51-.36l-.45-1.38c-.1-.3-.25-.6-.45-.85Zm7.7 3.8-.77-.25a1.58 1.58 0 0 1-1-1l-.25-.76a.3.3 0 0 0-.57 0l-.25.77a1.58 1.58 0 0 1-.98 1l-.77.24a.3.3 0 0 0 0 .57l.77.25a1.58 1.58 0 0 1 1 1l.24.77a.3.3 0 0 0 .58 0l.24-.77a1.58 1.58 0 0 1 1-1l.77-.24a.3.3 0 0 0 0-.57h-.02Zm5.16-6.1L11.86 9.2l-.53-.2a.5.5 0 0 1-.22-.13.55.55 0 0 1-.11-.22l-.18-.54 5.07-5.06a3.58 3.58 0 1 1 5.06 5.06l-.89.89a3.25 3.25 0 0 1 0 4.6l-1.79 1.77a.75.75 0 1 1-1.06-1.06L19 12.53c.69-.68.69-1.79.01-2.47l-10 10c-.4.4-.92.7-1.48.82l-4.6 1.1a.75.75 0 0 1-.9-.9l1.1-4.6A3.1 3.1 0 0 1 3.94 15l3.14-3.14.54.17a.6.6 0 0 1 .36.37l.16.52L5 16.06a1.6 1.6 0 0 0-.42.76l-.82 3.42 3.42-.81c.29-.07.55-.22.76-.43L19.9 7.05a2.08 2.08 0 0 0-2.94-2.94Z"/></svg>