<svg width="28" height="28" viewBox="0 0 28 28" xmlns="http://www.w3.org/2000/svg"><path d="M4.17 7.83a3.15 3.15 0 0 1 .76 1.24l.5 1.53a.6.6 0 0 0 1.14 0l.5-1.53a3.15 3.15 0 0 1 2-2l1.53-.5a.6.6 0 0 0 0-1.14h-.03l-1.54-.5a3.15 3.15 0 0 1-2-2L6.55 1.4a.6.6 0 0 0-1.14 0l-.5 1.53-.01.04a3.15 3.15 0 0 1-1.96 1.96l-1.53.5a.6.6 0 0 0 0 1.14l1.53.5c.47.15.9.41 1.24.76Zm8.65 3.53.92.3h.02a.36.36 0 0 1 0 .68l-.92.3a1.9 1.9 0 0 0-1.2 1.2l-.3.92a.36.36 0 0 1-.68 0l-.3-.92a1.9 1.9 0 0 0-1.2-1.2l-.92-.3a.36.36 0 0 1 0-.68l.92-.3a1.9 1.9 0 0 0 1.18-1.2l.3-.92a.36.36 0 0 1 .68 0l.3.92a1.9 1.9 0 0 0 1.2 1.2Zm1.27-.64c.27.09.5.26.66.49a1.37 1.37 0 0 1-.68 2.09l-.92.29a.87.87 0 0 0-.34.22c-.1.1-.18.21-.22.34l-.31.94a1.37 1.37 0 0 1-2.07.66c-.24-.17-.41-.4-.5-.68l-.3-.92a.87.87 0 0 0-.22-.35.85.85 0 0 0-.34-.21L4.5 17.94c-.44.44-.76.98-.93 1.58l-1.54 5.53a.75.75 0 0 0 .92.92l5.53-1.54c.6-.17 1.14-.5 1.58-.93L22.25 11.3c.63.69.62 1.76-.05 2.43l-1.98 1.98a.75.75 0 1 0 1.06 1.06l1.98-1.98a3.25 3.25 0 0 0 .05-4.55l1.54-1.54a3.93 3.93 0 1 0-5.56-5.56l-6.67 6.67.02.05a.8.8 0 0 0 .22.35c.1.1.21.17.34.22l.89.28Z"/></svg>