<svg width="28" height="28" viewBox="0 0 28 28" xmlns="http://www.w3.org/2000/svg"><path d="M4.17 7.83a3.15 3.15 0 0 1 .76 1.24l.5 1.53a.6.6 0 0 0 1.14 0l.5-1.53a3.15 3.15 0 0 1 2-2l1.53-.5a.6.6 0 0 0 0-1.14h-.03l-1.54-.5a3.15 3.15 0 0 1-2-2L6.55 1.4a.6.6 0 0 0-1.14 0l-.5 1.53-.01.04a3.15 3.15 0 0 1-1.96 1.96l-1.53.5a.6.6 0 0 0 0 1.14l1.53.5c.47.15.9.41 1.24.76Zm8.65 3.53.92.3h.02a.36.36 0 0 1 0 .68l-.92.3a1.9 1.9 0 0 0-1.2 1.2l-.3.92a.36.36 0 0 1-.68 0l-.3-.92a1.9 1.9 0 0 0-1.2-1.2l-.92-.3a.36.36 0 0 1 0-.68l.92-.3a1.9 1.9 0 0 0 1.18-1.2l.3-.92a.36.36 0 0 1 .68 0l.3.92a1.9 1.9 0 0 0 1.2 1.2Zm7.53-7.15-6.45 6.45-.7-.22a1 1 0 0 1-.34-.22.8.8 0 0 1-.22-.35l-.02-.05 6.67-6.67a3.93 3.93 0 1 1 5.56 5.56l-1.54 1.54a3.25 3.25 0 0 1-.05 4.55l-1.98 1.98a.75.75 0 1 1-1.06-1.06l1.98-1.98c.67-.67.68-1.74.05-2.43L10.06 23.5c-.44.44-.98.76-1.58.93l-5.53 1.54a.75.75 0 0 1-.92-.92l1.54-5.53c.17-.6.5-1.14.93-1.58l4.35-4.35c.13.04.24.11.34.21.1.1.17.22.22.35l.25.75-4.1 4.1c-.26.26-.44.58-.54.93l-1.19 4.24 4.24-1.19c.35-.1.67-.28.93-.54L23.8 7.65a2.43 2.43 0 0 0-3.44-3.44Z"/></svg>