<svg width="32" height="32" viewBox="0 0 32 32" xmlns="http://www.w3.org/2000/svg"><path d="M5.49 8.51a3.47 3.47 0 0 1 .84 1.36l.54 1.69a.66.66 0 0 0 1.26 0l.54-1.69a3.47 3.47 0 0 1 2.2-2.2l1.69-.54a.67.67 0 0 0 0-1.25l-.04-.01-1.68-.55a3.47 3.47 0 0 1-2.2-2.2L8.1 1.45a.66.66 0 0 0-1.25 0l-.55 1.69-.01.04a3.47 3.47 0 0 1-2.15 2.15l-1.69.55a.67.67 0 0 0 0 1.25l1.69.55c.51.17.98.46 1.36.84Zm9.33 4.85.92.3h.02a.36.36 0 0 1 0 .68l-.92.3a1.9 1.9 0 0 0-1.2 1.2l-.3.92a.36.36 0 0 1-.68 0l-.3-.92a1.9 1.9 0 0 0-1.2-1.2l-.92-.3a.36.36 0 0 1 0-.68l.92-.3a1.9 1.9 0 0 0 1.18-1.2l.3-.92a.36.36 0 0 1 .68 0l.3.92a1.89 1.89 0 0 0 1.2 1.2Zm1.44-1.11A1.84 1.84 0 0 1 17.5 14c0 .36-.1.72-.3 1.02a2 2 0 0 1-.94.69l-.91.3a.38.38 0 0 0-.24.23l-.31 1a2 2 0 0 1-.68.9 1.89 1.89 0 0 1-2.16 0 2 2 0 0 1-.69-.94l-.3-.91a.29.29 0 0 0-.09-.15.41.41 0 0 0-.14-.1l-1-.31c-.1-.03-.18-.07-.27-.12l-5.11 5.12a3.7 3.7 0 0 0-1 1.84l-1.34 6.22a1 1 0 0 0 1.19 1.19l6.22-1.34a3.7 3.7 0 0 0 1.84-1l14.98-14.98.28.28a1.5 1.5 0 0 1 0 2.12l-2.24 2.23a1 1 0 0 0 1.42 1.42l2.23-2.24a3.5 3.5 0 0 0 0-4.94l-.28-.28.9-.9a4.89 4.89 0 0 0-6.91-6.92l-7.03 7.03a2 2 0 0 1 .17.36l.3.9c.02.07.05.12.09.16.04.04.09.07.14.09l.87.28h.07Z"/></svg>