<svg width="32" height="32" viewBox="0 0 32 32" xmlns="http://www.w3.org/2000/svg"><path d="M5.49 8.51a3.47 3.47 0 0 1 .84 1.36l.54 1.69a.66.66 0 0 0 1.26 0l.54-1.69a3.47 3.47 0 0 1 2.2-2.2l1.69-.54a.67.67 0 0 0 0-1.25l-.04-.01-1.68-.55a3.47 3.47 0 0 1-2.2-2.2L8.1 1.45a.66.66 0 0 0-1.25 0l-.55 1.69-.01.04a3.47 3.47 0 0 1-2.15 2.15l-1.69.55a.67.67 0 0 0 0 1.25l1.69.55c.51.17.98.46 1.36.84Zm9.33 4.85.92.3h.02a.36.36 0 0 1 0 .68l-.92.3a1.9 1.9 0 0 0-1.2 1.2l-.3.92a.36.36 0 0 1-.68 0l-.3-.92a1.9 1.9 0 0 0-1.2-1.2l-.92-.3a.36.36 0 0 1 0-.68l.92-.3a1.9 1.9 0 0 0 1.18-1.2l.3-.92a.36.36 0 0 1 .68 0l.3.92a1.89 1.89 0 0 0 1.2 1.2Zm8.24-8.51-7.27 7.27-.47-.15a.55.55 0 0 1-.14-.1.34.34 0 0 1-.09-.14l-.3-.91a2 2 0 0 0-.17-.36l7.03-7.03a4.89 4.89 0 1 1 6.91 6.92l-.9.9.28.28a3.5 3.5 0 0 1 0 4.94l-2.23 2.24a1 1 0 0 1-1.42-1.42l2.24-2.23a1.5 1.5 0 0 0 0-2.12l-.28-.28-14.98 14.98c-.5.5-1.14.86-1.84 1l-6.22 1.34a1 1 0 0 1-1.19-1.19l1.34-6.22c.14-.7.5-1.34 1-1.84l5.11-5.12.27.12 1 .3.14.11c.04.04.08.1.09.15l.16.5-5.36 5.35c-.23.24-.4.53-.46.85l-1 4.7 4.7-1c.32-.07.61-.23.85-.46l17.29-17.3a2.89 2.89 0 0 0-4.09-4.08Z"/></svg>