<svg width="48" height="48" viewBox="0 0 48 48" xmlns="http://www.w3.org/2000/svg"><path d="M7.83 13.11a5.36 5.36 0 0 0-2.54-1.8l-2.6-.85a1.03 1.03 0 0 1 0-1.94l2.6-.84A5.36 5.36 0 0 0 8.6 4.35l.02-.06.85-2.6a1.03 1.03 0 0 1 1.94 0l.84 2.6a5.36 5.36 0 0 0 3.4 3.39l2.6.84.05.02a1.03 1.03 0 0 1 0 1.94l-2.6.84a5.36 5.36 0 0 0-3.4 3.4l-.84 2.6-.03.06a1.03 1.03 0 0 1-1.9-.07l-.86-2.6a5.35 5.35 0 0 0-.85-1.6Zm14.78 6.87-1.38-.44a2.84 2.84 0 0 1-1.8-1.8L19 16.36a.54.54 0 0 0-1.03 0l-.45 1.38a2.84 2.84 0 0 1-1.77 1.8l-1.38.44a.54.54 0 0 0 0 1.03l1.38.45c.15.05.3.11.44.18v.02a2.84 2.84 0 0 1 1.36 1.61l.45 1.38a.54.54 0 0 0 1 .04v-.01a.5.5 0 0 0 .02-.04l.45-1.38a2.84 2.84 0 0 1 1.8-1.8l1.38-.44a.54.54 0 0 0 0-1.03h-.03Zm1.92-.98c-.3-.43-.73-.75-1.23-.93h-.14l-1.31-.43a.82.82 0 0 1-.32-.19.94.94 0 0 1-.2-.33l-.05-.16L32.2 6.03a6.9 6.9 0 1 1 9.76 9.76l-2.23 2.24.94 1a4.25 4.25 0 0 1-.1 5.9l-3.45 3.45a1.25 1.25 0 1 1-1.76-1.76l3.44-3.45c.67-.67.69-1.75.04-2.43l-.88-.94-20.16 20.16a6 6 0 0 1-2.76 1.58l-9.49 2.42a1.25 1.25 0 0 1-1.52-1.52l2.43-9.48a6 6 0 0 1 1.57-2.76L15 23.23l.15.05.12.06a.86.86 0 0 1 .4.48l.44 1.37c.14.54.45 1 .89 1.35a2.55 2.55 0 0 0 3.8-1.05l.18-.42V25l.35-1.09a1 1 0 0 1 .2-.32c.1-.09.2-.16.33-.2l1.36-.44A2.55 2.55 0 0 0 25 20.5c0-.54-.16-1.06-.47-1.5Z"/></svg>