<svg width="48" height="48" viewBox="0 0 48 48" xmlns="http://www.w3.org/2000/svg"><path d="M7.83 13.11a5.36 5.36 0 0 0-2.54-1.8l-2.6-.85a1.03 1.03 0 0 1 0-1.94l2.6-.84A5.36 5.36 0 0 0 8.6 4.35l.02-.06.85-2.6a1.03 1.03 0 0 1 1.94 0l.84 2.6a5.36 5.36 0 0 0 3.4 3.39l2.6.84.05.02a1.03 1.03 0 0 1 0 1.94l-2.6.84a5.36 5.36 0 0 0-3.4 3.4l-.84 2.6-.03.06a1.03 1.03 0 0 1-1.9-.07l-.86-2.6a5.35 5.35 0 0 0-.85-1.6Zm14.78 6.87-1.38-.44a2.84 2.84 0 0 1-1.8-1.8L19 16.36a.54.54 0 0 0-1.03 0l-.45 1.38a2.84 2.84 0 0 1-1.77 1.8l-1.38.44a.54.54 0 0 0 0 1.03l1.38.45c.15.05.3.11.44.18v.02a2.84 2.84 0 0 1 1.36 1.61l.45 1.38a.54.54 0 0 0 1 .04v-.01a.5.5 0 0 0 .02-.04l.45-1.38a2.84 2.84 0 0 1 1.8-1.8l1.38-.44a.54.54 0 0 0 0-1.03h-.03ZM9.8 31.96l6.42-6.42a2.54 2.54 0 0 1-.12-.35l-.44-1.37a.86.86 0 0 0-.4-.48l-.12-.06-.15-.05-6.96 6.97a6 6 0 0 0-1.57 2.76l-2.43 9.48a1.25 1.25 0 0 0 1.52 1.52l9.49-2.42a6 6 0 0 0 2.76-1.58L37.97 19.8l.88.94c.65.68.63 1.76-.04 2.43l-3.44 3.45a1.25 1.25 0 0 0 1.76 1.76l3.45-3.44a4.25 4.25 0 0 0 .1-5.91l-.94-1 2.23-2.24a6.9 6.9 0 0 0-9.76-9.76L21.28 16.96l.05.16c.04.12.11.24.2.33.09.09.2.15.32.2l1.31.42h.14c.1.03.19.07.28.12l10.4-10.4a4.4 4.4 0 0 1 6.23 6.24L16.04 38.2c-.45.44-1 .76-1.61.91l-7.45 1.9 1.9-7.44c.16-.6.48-1.16.93-1.6Z"/></svg>