<svg width="20" height="20" viewBox="0 0 20 20" xmlns="http://www.w3.org/2000/svg"><path d="M8.5 3.4a3 3 0 0 1 3 0l7.25 4.17a.5.5 0 0 1 0 .86L16 10.01v4.49a.5.5 0 0 1-.15.35v.01l-.03.03a3.61 3.61 0 0 1-.38.32A9.1 9.1 0 0 1 10 17a9.1 9.1 0 0 1-5.74-2.05 3.56 3.56 0 0 1-.08-.07.53.53 0 0 1-.18-.4v-4.48L2 8.86v4.64a.5.5 0 0 1-1 0V8c0-.19.1-.35.26-.44L8.51 3.4Zm3 9.2a3 3 0 0 1-3 0L5 10.59v3.69l.17.14A8.1 8.1 0 0 0 10 16a8.1 8.1 0 0 0 5-1.72v-3.7l-3.5 2.02ZM11 4.27a2 2 0 0 0-2 0L2.5 8 9 11.73a2 2 0 0 0 2 0L17.5 8 11 4.27Z"/></svg>