<svg width="20" height="20" viewBox="0 0 20 20" xmlns="http://www.w3.org/2000/svg"><path d="M2 5.5A2.5 2.5 0 0 1 4.5 3h2.48c.47 0 .91.18 1.24.51L9.71 5h5.79A2.5 2.5 0 0 1 18 7.5v7a2.5 2.5 0 0 1-2.5 2.5h-11A2.5 2.5 0 0 1 2 14.5v-9ZM14 16h1.5c.83 0 1.5-.67 1.5-1.5v-7c0-.83-.67-1.5-1.5-1.5H15v3.5a.5.5 0 0 1-.5.5H14v2h.5a.5.5 0 0 1 0 1H14v3Zm0-10h-1v3h1V6Zm-2 0H9.7L8.16 7.56A1.5 1.5 0 0 1 7.09 8H3v6.5c0 .83.67 1.5 1.5 1.5H13v-2h-.5a.5.5 0 0 1 0-1h.5v-1h-.5a.5.5 0 0 1 0-1h.5v-1h-.5a.5.5 0 0 1-.5-.5V6ZM4.5 4C3.67 4 3 4.67 3 5.5V7h4.09a.5.5 0 0 0 .35-.15L8.79 5.5 7.51 4.22A.75.75 0 0 0 6.98 4H4.5Z"/></svg>