<svg width="24" height="24" viewBox="0 0 24 24" xmlns="http://www.w3.org/2000/svg"><path d="M2 6.25V8h6.13c.2 0 .39-.08.53-.22l2.59-2.6-1.53-1.52c-.42-.42-1-.66-1.6-.66H5.26A3.25 3.25 0 0 0 2 6.25Zm0 11.5V9.5h6.13c.6 0 1.17-.24 1.59-.66l3.34-3.34h.44v3.75c0 .41.34.75.75.75H15v3h-.25a.75.75 0 0 0 0 1.5H15V16h-.25a.75.75 0 0 0 0 1.5H15V21H5.25A3.25 3.25 0 0 1 2 17.75ZM16.5 21h2.25c1.8 0 3.25-1.46 3.25-3.25v-9c0-1.8-1.46-3.25-3.25-3.25H18v3.75c0 .41-.34.75-.75.75h-.75v4.5h.25a.75.75 0 0 1 0 1.5h-.25v5Zm0-15.5H15v3h1.5v-3Z"/></svg>