<svg width="24" height="24" viewBox="0 0 24 24" xmlns="http://www.w3.org/2000/svg"><path d="M3.5 8V6.25c0-.97.78-1.75 1.75-1.75h2.88c.2 0 .39.08.53.22l1.53 1.53-1.53 1.53a.75.75 0 0 1-.53.22H3.5Zm1.75-5A3.25 3.25 0 0 0 2 6.25v11.5C2 19.55 3.46 21 5.25 21h13.5c1.8 0 3.25-1.46 3.25-3.25v-9c0-1.8-1.46-3.25-3.25-3.25h-7.19L9.72 3.66c-.42-.42-1-.66-1.6-.66H5.26Zm8.25 4v3.25c0 .41.34.75.75.75H15v2h-.25a.75.75 0 0 0 0 1.5H15V16h-.25a.75.75 0 0 0 0 1.5H15v2H5.25c-.97 0-1.75-.78-1.75-1.75V9.5h4.63c.6 0 1.17-.24 1.59-.66L11.56 7h1.94Zm3 12.5V16h.25a.75.75 0 0 0 0-1.5h-.25V11h.75c.41 0 .75-.34.75-.75V7h.75c.97 0 1.75.78 1.75 1.75v9c0 .97-.78 1.75-1.75 1.75H16.5Zm0-12.5v2.5H15V7h1.5Z"/></svg>