<svg width="24" height="24" viewBox="0 0 24 24" xmlns="http://www.w3.org/2000/svg"><path d="M7 5v2H5.5C4.67 7 4 7.67 4 8.5V18a4 4 0 004 4h4.81a6.48 6.48 0 01.19-9.19V5a3 3 0 00-.16-.96A1.5 1.5 0 0115.5 5v2h-1v4.73a6.47 6.47 0 015.5-.23v-3c0-.83-.67-1.5-1.5-1.5H17V5a3 3 0 00-5-2.24A3 3 0 007 5zm3-1.5c.83 0 1.5.67 1.5 1.5v2h-3V5c0-.83.67-1.5 1.5-1.5zm13 14a5.5 5.5 0 11-11 0 5.5 5.5 0 0111 0zm-6.09-2.4a.55.55 0 00-.54-.05.6.6 0 00-.2.13.62.62 0 00-.18.44v3.76a.61.61 0 00.19.44c.05.05.12.1.19.13a.55.55 0 00.44 0 .66.66 0 00.11-.05l2.8-1.92a.56.56 0 00.2-.22.65.65 0 000-.6.6.6 0 00-.2-.22l-2.8-1.84z"/></svg>