<svg width="24" height="24" viewBox="0 0 24 24" xmlns="http://www.w3.org/2000/svg"><path d="M7 5v2H5.5C4.67 7 4 7.67 4 8.5V18a4 4 0 004 4h4.81a6.52 6.52 0 01-1.08-1.5H8A2.5 2.5 0 015.5 18V8.5H13v4.31c.44-.43.95-.8 1.5-1.08V8.5h4v2.58c.52.08 1.03.22 1.5.42v-3c0-.83-.67-1.5-1.5-1.5H17V5a3 3 0 00-5-2.24A3 3 0 007 5zm3-1.5c.83 0 1.5.67 1.5 1.5v2h-3V5c0-.83.67-1.5 1.5-1.5zM15.5 7H13V5a3 3 0 00-.16-.96A1.5 1.5 0 0115.5 5v2zM23 17.5a5.5 5.5 0 11-11 0 5.5 5.5 0 0111 0zm-6.09-2.4a.55.55 0 00-.54-.05.6.6 0 00-.2.13.62.62 0 00-.18.44v3.76a.61.61 0 00.19.44c.05.05.12.1.19.13a.55.55 0 00.44 0 .66.66 0 00.11-.05l2.8-1.92a.56.56 0 00.2-.22.65.65 0 000-.6.6.6 0 00-.2-.22l-2.8-1.84z"/></svg>