<svg width="20" height="20" viewBox="0 0 20 20" xmlns="http://www.w3.org/2000/svg"><path d="M6 4.5V6H5a1 1 0 0 0-1 1v8a2.93 2.93 0 0 0 .88 2.13A3 3 0 0 0 7 18h3.26a5.48 5.48 0 0 1 .74-7.74V4.5a2.48 2.48 0 0 0-.33-1.24 1.48 1.48 0 0 1 2.21.66c.08.18.12.37.12.58V6h-1v3.6a5.48 5.48 0 0 1 4-.4V7a1 1 0 0 0-1-1h-1V4.5a2.48 2.48 0 0 0-4-2A2.54 2.54 0 0 0 8.5 2a2.42 2.42 0 0 0-1.77.73A2.43 2.43 0 0 0 6 4.5ZM10 6H7V4.5a1.48 1.48 0 0 1 .91-1.38 1.48 1.48 0 0 1 1.97.8c.08.18.12.37.12.58V6Zm4.5 13a4.5 4.5 0 1 0 0-9 4.5 4.5 0 0 0 0 9Zm-.74-6.55c.1 0 .18.03.26.08l2.3 1.51c.07.05.12.1.16.18a.54.54 0 0 1-.03.54.46.46 0 0 1-.13.13l-2.3 1.57a.54.54 0 0 1-.12.06.45.45 0 0 1-.32-.02.57.57 0 0 1-.16-.1.5.5 0 0 1-.14-.36v-3.08a.51.51 0 0 1 .3-.46.44.44 0 0 1 .18-.05Z"/></svg>