<svg width="24" height="24" viewBox="0 0 24 24" xmlns="http://www.w3.org/2000/svg"><path d="M6.25 2C5.01 2 4 3 4 4.25v15.5C4 20.99 5 22 6.25 22h7.5c1.24 0 2.24-1 2.25-2.23v-1.52a.75.75 0 00-.75-.75c-.45 0-.74-.12-.94-.28-.2-.17-.38-.43-.5-.79a8.39 8.39 0 01-.31-2.68.75.75 0 00-.2-.51l-.17-.18-.17-.17-1.18-1.17a3 3 0 01-.81-1.17.61.61 0 01-.02-.32c.02-.09.07-.2.2-.33a.7.7 0 01.33-.2.61.61 0 01.32.02c.3.08.7.34 1.17.81l1.51 1.5c.76.75 1.37 1.36 1.72 1.73a.75.75 0 001.1-1.02L16 11.42V8.06l2.84 2.84c.42.42.66 1 .66 1.6v8.75a.75.75 0 001.5 0v-8.76c0-1-.4-1.95-1.1-2.65L16 5.94V4.25C16 3.01 15 2 13.75 2h-7.5zm7.12 16.39c.32.26.7.44 1.13.53V19h-.75a.75.75 0 00-.75.75v.75h-1.5v-.75c0-.9.52-1.67 1.28-2.03.16.25.35.47.6.67zM12 14.05c0 .25 0 .52.02.8a3.5 3.5 0 11-1.55-6.32 2.49 2.49 0 00-.97 1.32c-.1.38-.08.76.02 1.1.2.68.67 1.3 1.2 1.83A66.72 66.72 0 0011.96 14l.04.04zM7 3.5h1.5v.75c0 1.24-1 2.25-2.25 2.25H5.5V5h.75c.41 0 .75-.34.75-.75V3.5zm4.5 0H13v.75c0 .41.34.75.75.75h.75v1.5h-.75c-1.24 0-2.25-1-2.25-2.25V3.5zm-3 17H7v-.75a.75.75 0 00-.75-.75H5.5v-1.5h.75c1.24 0 2.25 1 2.25 2.25v.75z"/></svg>