<svg width="24" height="24" viewBox="0 0 24 24" xmlns="http://www.w3.org/2000/svg"><path d="M3.75 5a.75.75 0 00-.75.75V11c0 5 2.96 8.68 8.73 10.95.17.07.37.07.54 0C18.04 19.68 21 16 21 11V5.75a.75.75 0 00-.75-.75c-2.66 0-5.26-.94-7.8-2.85a.75.75 0 00-.9 0C9.01 4.05 6.41 5 3.75 5zm.75 6V6.48a14.36 14.36 0 007.5-2.8 14.36 14.36 0 007.5 2.8V11c0 4.26-2.45 7.38-7.5 9.44-5.05-2.06-7.5-5.18-7.5-9.44zm5.57 4.5a9.63 9.63 0 01-.55-2.75H8.07a4 4 0 002 2.76zm1.53-.23c.17.37.3.56.4.65.1-.1.23-.28.4-.65.28-.62.5-1.49.57-2.52h-1.94c.07 1.03.29 1.9.57 2.52zm0-6.54c-.28.62-.5 1.49-.57 2.52h1.94a7.56 7.56 0 00-.57-2.52 2.34 2.34 0 00-.4-.65c-.1.1-.23.28-.4.65zm2.33 6.78a4 4 0 002-2.76h-1.45a9.63 9.63 0 01-.55 2.76zm.55-4.26h1.45a4 4 0 00-2-2.76c.29.77.48 1.72.55 2.76zm-6.41 0h1.45c.07-1.04.26-1.99.55-2.76a4 4 0 00-2 2.76zM12 6.5a5.5 5.5 0 110 11 5.5 5.5 0 010-11z"/></svg>