<svg width="16" height="16" viewBox="0 0 16 16" xmlns="http://www.w3.org/2000/svg"><path d="M8.35 2.15a.5.5 0 00-.7 0A5.72 5.72 0 013.5 4a.5.5 0 00-.5.5v3c0 3.22 1.64 5.4 4.84 6.47.1.04.22.04.32 0C11.36 12.91 13 10.72 13 7.5v-3a.5.5 0 00-.5-.5c-1.53 0-2.9-.61-4.15-1.85zM4 4.98a6.65 6.65 0 004-1.8 6.64 6.64 0 004 1.8V7.5c0 1.43-.36 2.57-1.02 3.45A6.13 6.13 0 018 12.97a6.13 6.13 0 01-2.98-2.02A5.57 5.57 0 014 7.5V4.98zM9.94 8.5h-.45c-.02.34-.06.67-.12.96a2 2 0 00.57-.96zm0-1a2 2 0 00-.57-.96c.06.29.1.62.12.96h.45zm-1.46 0a6.12 6.12 0 00-.06-.6C8.32 6.34 8.17 6 8 6c-.17 0-.33.35-.42.9-.03.18-.05.38-.06.6h.96zm-.96 1c.01.22.03.42.06.6.1.55.25.9.42.9.17 0 .33-.35.42-.9.03-.18.05-.38.06-.6h-.96zm-1 0h-.46c.1.37.3.7.57.96-.06-.29-.1-.62-.12-.96zm0-1c.01-.34.05-.67.11-.96a2 2 0 00-.57.96h.45zM11 8a3 3 0 11-6 0 3 3 0 016 0z"/></svg>