<svg width="16" height="16" viewBox="0 0 16 16" xmlns="http://www.w3.org/2000/svg"><path d="M2 1.75c0-.41.34-.75.75-.75h3.5a.75.75 0 01.6 1.21L4.27 5.5h1.97a.75.75 0 110 1.5h-3.5a.75.75 0 01-.6-1.21L4.73 2.5H2.75A.75.75 0 012 1.75zm3.2 6.74a.75.75 0 00-1.4 0l-2 5.5a.75.75 0 101.4.52L3.4 14H5.6l.19.5a.75.75 0 101.4-.5l-2-5.5zM3.94 12.5l.57-1.56.57 1.56H3.93zM12.25 1c.41 0 .75.34.75.75v10.69l.72-.72a.75.75 0 111.06 1.06l-2 2c-.3.3-.77.3-1.06 0l-2-2a.75.75 0 111.06-1.06l.72.72V1.75c0-.41.34-.75.75-.75z"/></svg>