<svg width="20" height="20" viewBox="0 0 20 20" xmlns="http://www.w3.org/2000/svg"><path d="M4.84 7.2a.75.75 0 00-1.18-.9l-2.5 3.24c-.21.27-.21.65 0 .92l2.5 3.25a.75.75 0 101.18-.92L2.7 10l2.14-2.8zm13.12 3.84a2.5 2.5 0 00-1.13-1.66l-1.67-2.17a.75.75 0 111.18-.92l2.5 3.25c.21.27.21.65 0 .92l-.52.68a2.49 2.49 0 00-.36-.1zM7 10a1 1 0 11-2 0 1 1 0 012 0zm3 1a1 1 0 100-2 1 1 0 000 2zm2 1v-.5c0-.83.67-1.5 1.5-1.5h2c.83 0 1.5.67 1.5 1.5v.5h.5c.83 0 1.5.67 1.5 1.5V15h-2v-.5a.5.5 0 00-1 0v.5h-3v-.5a.5.5 0 00-1 0v.5h-2v-1.5c0-.83.67-1.5 1.5-1.5h.5zm1-.5v.5h3v-.5a.5.5 0 00-.5-.5h-2a.5.5 0 00-.5.5zm4 4.5h2v1.5c0 .83-.67 1.5-1.5 1.5h-6a1.5 1.5 0 01-1.5-1.5V16h2v.5a.5.5 0 001 0V16h3v.5a.5.5 0 001 0V16z"/></svg>