<svg width="20" height="20" viewBox="0 0 20 20" xmlns="http://www.w3.org/2000/svg"><path d="M8.66 4.53a.5.5 0 0 0-.32.95l1.16.38V7a.5.5 0 0 0 1 0V5.86l1.16-.38a.5.5 0 1 0-.32-.95L10 4.97l-1.34-.44Zm1.77-2.46a1.5 1.5 0 0 0-.86 0l-2.86.85a.99.99 0 0 0-.71.95v4.26c0 .44.3.83.72.96l2.79.83a.5.5 0 0 0-.01.08v1H8a2 2 0 0 0-2 2v.05a2.5 2.5 0 1 0 1 0V13a1 1 0 0 1 1-1h4a1 1 0 0 1 1 1v.05a2.5 2.5 0 1 0 1 0V13a2 2 0 0 0-2-2h-1.5v-1a.5.5 0 0 0 0-.08l2.78-.83a1 1 0 0 0 .72-.96V3.87a1 1 0 0 0-.72-.95l-2.85-.85Zm-.57.95a.5.5 0 0 1 .28 0l2.86.85v4.26l-2.86.85a.5.5 0 0 1-.28 0L7 8.13V3.87l2.86-.85ZM5 15.5a1.5 1.5 0 1 1 3 0 1.5 1.5 0 0 1-3 0Zm8.5-1.5a1.5 1.5 0 1 1 0 3 1.5 1.5 0 0 1 0-3Z"/></svg>