<svg width="20" height="20" viewBox="0 0 20 20" xmlns="http://www.w3.org/2000/svg"><path d="M14.5 3A2.5 2.5 0 0 1 17 5.5v9a2.5 2.5 0 0 1-2.5 2.5h-3v-1h3c.83 0 1.5-.67 1.5-1.5V7H4v7.5c0 .83.67 1.5 1.5 1.5h3v1h-3A2.5 2.5 0 0 1 3 14.5v-9A2.5 2.5 0 0 1 5.5 3h9Zm0 1h-9C4.67 4 4 4.67 4 5.5V6h12v-.5c0-.83-.67-1.5-1.5-1.5ZM11 9a1 1 0 1 1-2 0 1 1 0 0 1 2 0Zm.88 5.07a.5.5 0 0 1-.7.06l-.68-.56v3.93a.5.5 0 1 1-1 0v-3.93l-.68.56a.5.5 0 0 1-.64-.76l1.5-1.25a.5.5 0 0 1 .64 0l1.5 1.25c.21.17.24.49.06.7Z"/></svg>