<svg width="20" height="20" viewBox="0 0 20 20" xmlns="http://www.w3.org/2000/svg"><path d="M10 10a1 1 0 1 0 0-2 1 1 0 0 0 0 2Zm7 4.5V7H3v7.5A2.5 2.5 0 0 0 5.5 17h3v-1.75a1.5 1.5 0 0 1-.98-2.64h.01l1.5-1.25a1.5 1.5 0 0 1 1.94 0l1.5 1.25a1.5 1.5 0 0 1-.97 2.64V17h3a2.5 2.5 0 0 0 2.5-2.5ZM12 9a2 2 0 1 1-4 0 2 2 0 0 1 4 0Zm5-3.5A2.5 2.5 0 0 0 14.5 3h-9A2.5 2.5 0 0 0 3 5.5V6h14v-.5Zm-5.82 8.63a.5.5 0 0 0 .64-.76l-1.5-1.25a.5.5 0 0 0-.64 0l-1.5 1.25a.5.5 0 1 0 .64.76l.68-.56v3.93a.5.5 0 1 0 1 0v-3.93l.68.56Z"/></svg>