<svg width="20" height="20" viewBox="0 0 20 20" xmlns="http://www.w3.org/2000/svg"><path d="M7.5 7.25a.75.75 0 11-1.5 0 .75.75 0 011.5 0zM6.75 11a.75.75 0 100-1.5.75.75 0 000 1.5zm.75 2.25a.75.75 0 11-1.5 0 .75.75 0 011.5 0zM9.5 7a.5.5 0 000 1h4a.5.5 0 000-1h-4zM9 10.5c0-.28.22-.5.5-.5h1.84c-.4.28-.77.62-1.08 1H9.5a.5.5 0 01-.5-.5zM16 5v4.2c.35.1.68.24 1 .4V5a2 2 0 00-2-2H5a2 2 0 00-2 2v10c0 1.1.9 2 2 2h4.6c-.16-.32-.3-.65-.4-1H5a1 1 0 01-1-1V5a1 1 0 011-1h10a1 1 0 011 1zm-3.94 6.44a2 2 0 01-1.43 2.48l-.46.12a4.74 4.74 0 00.01 1.01l.35.09A2 2 0 0112 17.66l-.13.42c.26.2.54.38.84.52l.32-.35a2 2 0 012.91 0l.34.36c.3-.13.57-.3.82-.5l-.16-.55a2 2 0 011.44-2.48l.46-.12a4.7 4.7 0 00-.01-1.01l-.35-.09A2 2 0 0117 11.34l.13-.42c-.26-.2-.54-.38-.84-.52l-.32.35a2 2 0 01-2.91 0l-.34-.36c-.3.13-.57.3-.82.5l.15.55zm2.44 4.06a1 1 0 110-2 1 1 0 010 2z"/></svg>