<svg width="20" height="20" viewBox="0 0 20 20" xmlns="http://www.w3.org/2000/svg"><path d="M10.14 10.5H6.86L8.5 5.82l1.64 4.68Zm.53 1.5.33.94 1.17-1.17-2.87-8.2a.85.85 0 0 0-1.6 0L4.04 14a.75.75 0 0 0 1.42.5l.87-2.5h4.34Zm5.14-2.45-4.83 4.83a2.2 2.2 0 0 0-.58 1.02l-.38 1.5a.92.92 0 0 0-.02.14 4.6 4.6 0 0 1-1.11-.1c-.07 0-.1-.1-.07-.17.18-.35.24-1.07-.4-1.33-.86-.35-1.98.13-2.86.5-.37.15-.7.29-.95.34-.38.09-.84-.06-1.21-.24-.21-.11-.48.08-.36.28.22.37.61.74 1.32.83.82.1 1.4-.16 1.98-.41.4-.18.8-.36 1.3-.43.08-.01.14.09.11.17-.15.35-.13.9.32 1.24.52.4 2.19.51 3.31.19l1.22-.31c.39-.1.74-.3 1.02-.58l4.83-4.83a1.87 1.87 0 1 0-2.64-2.64Z"/></svg>