<svg width="20" height="20" viewBox="0 0 20 20" xmlns="http://www.w3.org/2000/svg"><path d="M12 3a1 1 0 00-1.68-.73l-3.87 3.6A.5.5 0 016.1 6H3.5C2.67 6 2 6.67 2 7.5v5c0 .83.67 1.5 1.5 1.5h2.6a.5.5 0 01.35.13l3.21 2.98A5.48 5.48 0 0112 9.6V3zm.07 8.44l-.16-.55c.25-.2.53-.37.82-.5l.34.36a2 2 0 002.9 0l.33-.35c.3.14.58.32.84.52l-.13.42a2 2 0 001.46 2.52l.35.09a4.7 4.7 0 010 1.01l-.45.12a2 2 0 00-1.43 2.48l.15.55c-.25.2-.53.37-.82.5l-.34-.36a2 2 0 00-2.9 0l-.33.35c-.3-.14-.58-.32-.84-.52l.13-.42a2 2 0 00-1.46-2.52l-.35-.09a4.71 4.71 0 010-1.01l.45-.12a2 2 0 001.44-2.48zm2.43 4.06a1 1 0 100-2 1 1 0 000 2z"/></svg>