<svg width="28" height="28" viewBox="0 0 28 28" xmlns="http://www.w3.org/2000/svg"><path d="M16.5 4.74c0-1.08-1.3-1.65-2.1-.9l-4.94 4.6c-.33.3-.75.47-1.2.47H5.25A3.24 3.24 0 002 12.14v3.46a3.24 3.24 0 003.25 3.23h3.01c.45 0 .87.17 1.2.47l3.97 3.7a7.47 7.47 0 01-.43-2.44l-2.52-2.35c-.6-.56-1.4-.87-2.22-.87H5.25c-.97 0-1.75-.78-1.75-1.74v-3.46c0-.96.78-1.74 1.75-1.74h3.01c.83 0 1.62-.32 2.22-.88L15 5.32v10.07c.44-.47.95-.9 1.5-1.24v-9.4zm.3 11.96a2 2 0 01-1.45 2.5l-1.02.25a6.8 6.8 0 000 2.15l.98.23a2 2 0 011.45 2.52l-.32 1.1c.52.45 1.11.83 1.75 1.1l.85-.9a2 2 0 012.9 0l.85.9a6.2 6.2 0 001.75-1.09l-.34-1.16a2 2 0 011.44-2.5l1.03-.25a6.8 6.8 0 000-2.15l-.99-.23a2 2 0 01-1.45-2.51l.33-1.1a6.2 6.2 0 00-1.75-1.1l-.85.88a2 2 0 01-2.9 0l-.85-.9a6.2 6.2 0 00-1.75 1.1l.34 1.16zm3.7 5.3a1.5 1.5 0 110-3 1.5 1.5 0 010 3z"/></svg>