<svg width="28" height="28" viewBox="0 0 28 28" xmlns="http://www.w3.org/2000/svg"><path d="M14.4 3.84c.8-.75 2.1-.18 2.1.9v9.4A7.49 7.49 0 0013.43 23l-3.97-3.7c-.33-.3-.75-.47-1.2-.47H5.25A3.24 3.24 0 012 15.6v-3.46A3.24 3.24 0 015.25 8.9h3.01c.45 0 .87-.17 1.2-.47l4.93-4.6zm2.4 12.86a2 2 0 01-1.45 2.5l-1.02.25a6.8 6.8 0 000 2.15l.98.23a2 2 0 011.45 2.52l-.32 1.1c.52.45 1.11.83 1.75 1.1l.85-.9a2 2 0 012.9 0l.85.9a6.2 6.2 0 001.75-1.09l-.34-1.16a2 2 0 011.44-2.5l1.03-.25a6.8 6.8 0 000-2.15l-.99-.23a2 2 0 01-1.45-2.51l.33-1.1a6.2 6.2 0 00-1.75-1.1l-.85.88a2 2 0 01-2.9 0l-.85-.9a6.2 6.2 0 00-1.75 1.1l.34 1.16zm3.7 5.3a1.5 1.5 0 110-3 1.5 1.5 0 010 3z"/></svg>