<svg width="20" height="20" viewBox="0 0 20 20" xmlns="http://www.w3.org/2000/svg"><path d="M6 7a2 2 0 0 0-2 2v2c0 1.1.9 2 2 2h.5a.5.5 0 0 0 0-1H6a1 1 0 0 1-1-1V9a1 1 0 0 1 1-1h.5a.5.5 0 0 0 0-1H6Zm3 .5a.5.5 0 0 0-1 0V9h-.5a.5.5 0 0 0 0 1H8v1.75c0 .69.56 1.25 1.25 1.25h.25a.5.5 0 0 0 0-1h-.25a.25.25 0 0 1-.25-.25V10h.5a.5.5 0 0 0 0-1H9V7.5Zm7 0a.5.5 0 0 0-1 0v5a.5.5 0 0 0 1 0v-5Zm-4 3c0-.28.22-.5.5-.5h1a.5.5 0 0 0 0-1h-1c-.83 0-1.5.67-1.5 1.5v2a.5.5 0 0 0 1 0v-2ZM4.75 4A2.75 2.75 0 0 0 2 6.75v6.5A2.75 2.75 0 0 0 4.75 16h10.5A2.75 2.75 0 0 0 18 13.25v-6.5A2.75 2.75 0 0 0 15.25 4H4.75ZM3 6.75C3 5.78 3.78 5 4.75 5h10.5c.97 0 1.75.78 1.75 1.75v6.5c0 .97-.78 1.75-1.75 1.75H4.75C3.78 15 3 14.22 3 13.25v-6.5Z"/></svg>