<svg width="48" height="48" viewBox="0 0 48 48" xmlns="http://www.w3.org/2000/svg"><path d="M12.25 6A6.25 6.25 0 006 12.25v23.5C6 39.2 8.8 42 12.25 42h23.5C39.2 42 42 39.2 42 35.75v-23.5C42 8.8 39.2 6 35.75 6h-23.5zM8.5 12.25a3.75 3.75 0 013.75-3.75h10.5v14.25H8.5v-10.5zm16.75 10.5V8.5h10.5a3.75 3.75 0 013.75 3.75v10.5H25.25zM8.5 25.25h14.25V39.5h-10.5a3.75 3.75 0 01-3.75-3.75v-10.5zm28.88 3.62c.49.48.49 1.28 0 1.76l-5.5 5.5c-.49.5-1.28.5-1.77 0l-2.74-2.74a1.25 1.25 0 011.76-1.77L31 33.48l4.61-4.61a1.25 1.25 0 011.77 0z"/></svg>