<svg width="32" height="32" viewBox="0 0 32 32" xmlns="http://www.w3.org/2000/svg"><path d="M14 3a1 1 0 100 2h4a1 1 0 100-2h-4zm0 24a1 1 0 100 2h4a1 1 0 100-2h-4zM4 19a1 1 0 01-1-1v-4a1 1 0 112 0v4a1 1 0 01-1 1zm23-1a1 1 0 102 0v-4a1 1 0 10-2 0v4zM9 4a1 1 0 00-1-1h-.25A4.75 4.75 0 003 7.75V8a1 1 0 002 0v-.25A2.75 2.75 0 017.75 5H8a1 1 0 001-1zM8 29a1 1 0 100-2h-.25A2.75 2.75 0 015 24.25V24a1 1 0 10-2 0v.25A4.75 4.75 0 007.75 29H8zM23 4a1 1 0 011-1h.25A4.75 4.75 0 0129 7.75V8a1 1 0 11-2 0v-.25A2.75 2.75 0 0024.25 5H24a1 1 0 01-1-1zm1 25a1 1 0 110-2h.25A2.75 2.75 0 0027 24.25V24a1 1 0 112 0v.25A4.75 4.75 0 0124.25 29H24z"/></svg>