<svg width="28" height="28" viewBox="0 0 28 28" xmlns="http://www.w3.org/2000/svg"><path d="M12.5 3a1 1 0 100 2h3a1 1 0 100-2h-3zm0 20a1 1 0 100 2h3a1 1 0 100-2h-3zM4 16.5a1 1 0 01-1-1v-3a1 1 0 112 0v3a1 1 0 01-1 1zm19-1a1 1 0 102 0v-3a1 1 0 10-2 0v3zM8 4a1 1 0 00-1-1h-.25A3.75 3.75 0 003 6.75V7a1 1 0 002 0v-.25C5 5.78 5.78 5 6.75 5H7a1 1 0 001-1zM7 25a1 1 0 100-2h-.25C5.78 23 5 22.22 5 21.25V21a1 1 0 10-2 0v.25A3.75 3.75 0 006.75 25H7zM20 4a1 1 0 011-1h.25A3.75 3.75 0 0125 6.75V7a1 1 0 11-2 0v-.25C23 5.78 22.22 5 21.25 5H21a1 1 0 01-1-1zm1 21a1 1 0 110-2h.25c.97 0 1.75-.78 1.75-1.75V21a1 1 0 112 0v.25A3.75 3.75 0 0121.25 25H21z"/></svg>