<svg width="24" height="24" viewBox="0 0 24 24" xmlns="http://www.w3.org/2000/svg"><path d="M10 4a1 1 0 011-1h2a1 1 0 110 2h-2a1 1 0 01-1-1zm7.5 1a1 1 0 110-2A3.5 3.5 0 0121 6.5a1 1 0 11-2 0c0-.83-.67-1.5-1.5-1.5zm-11-2a1 1 0 010 2C5.67 5 5 5.67 5 6.5a1 1 0 01-2 0A3.5 3.5 0 016.5 3zM4 16.5a1 1 0 00-1 1A3.5 3.5 0 006.5 21a1 1 0 100-2A1.5 1.5 0 015 17.5a1 1 0 00-1-1zm7 2.5a1 1 0 100 2h2a1 1 0 100-2h-2zm6.5 0a1 1 0 100 2 3.5 3.5 0 003.5-3.5 1 1 0 10-2 0c0 .83-.67 1.5-1.5 1.5zm2.5-9a1 1 0 011 1v2a1 1 0 11-2 0v-2a1 1 0 011-1zM3 13a1 1 0 102 0v-2a1 1 0 10-2 0v2z"/></svg>