<svg width="16" height="16" viewBox="0 0 16 16" xmlns="http://www.w3.org/2000/svg"><path d="M9.5 2.75A.75.75 0 008.75 2h-1.5a.75.75 0 000 1.5h1.5c.41 0 .75-.34.75-.75zm1 0c0 .41.34.75.75.75.69 0 1.25.56 1.25 1.25a.75.75 0 001.5 0A2.75 2.75 0 0011.25 2a.75.75 0 00-.75.75zm3.5 4.5a.75.75 0 00-1.5 0v1.5a.75.75 0 001.5 0v-1.5zm0 4a.75.75 0 00-1.5 0c0 .69-.56 1.25-1.25 1.25a.75.75 0 000 1.5A2.75 2.75 0 0014 11.25zm-7.5 2c0-.41.34-.75.75-.75h1.5a.75.75 0 010 1.5h-1.5a.75.75 0 01-.75-.75zm-1-10.5A.75.75 0 004.75 2 2.75 2.75 0 002 4.75a.75.75 0 001.5 0c0-.69.56-1.25 1.25-1.25.41 0 .75-.34.75-.75zm-.75 9.75a.75.75 0 010 1.5A2.75 2.75 0 012 11.25a.75.75 0 011.5 0c0 .69.56 1.25 1.25 1.25zM3.5 8.75a.75.75 0 01-1.5 0v-1.5a.75.75 0 011.5 0v1.5z"/></svg>