<svg width="28" height="28" viewBox="0 0 28 28" xmlns="http://www.w3.org/2000/svg"><path d="M12.25 3a.75.75 0 000 1.5h3.5a.75.75 0 000-1.5h-3.5zm0 20.5a.75.75 0 000 1.5h3.5a.75.75 0 000-1.5h-3.5zm-8.5-7a.75.75 0 01-.75-.75v-3.5a.75.75 0 011.5 0v3.5c0 .41-.34.75-.75.75zm19.75-.75a.75.75 0 001.5 0v-3.5a.75.75 0 00-1.5 0v3.5zm-3.5-12c0-.41.34-.75.75-.75h.5A3.75 3.75 0 0125 6.75v.5a.75.75 0 01-1.5 0v-.5c0-1.24-1-2.25-2.25-2.25h-.5a.75.75 0 01-.75-.75zM20.75 25a.75.75 0 010-1.5h.5c1.24 0 2.25-1 2.25-2.25v-.5a.75.75 0 011.5 0v.5A3.75 3.75 0 0121.25 25h-.5zM8 3.75A.75.75 0 007.25 3h-.5A3.75 3.75 0 003 6.75v.5a.75.75 0 001.5 0v-.5c0-1.24 1-2.25 2.25-2.25h.5c.41 0 .75-.34.75-.75zM7.25 25a.75.75 0 000-1.5h-.5c-1.24 0-2.25-1-2.25-2.25v-.5a.75.75 0 00-1.5 0v.5A3.75 3.75 0 006.75 25h.5z"/></svg>