<svg width="28" height="28" viewBox="0 0 28 28" xmlns="http://www.w3.org/2000/svg"><path d="M12.5 3a1 1 0 1 0 0 2h3a1 1 0 1 0 0-2h-3Zm0 20a1 1 0 1 0 0 2h3a1 1 0 1 0 0-2h-3ZM4 16.5a1 1 0 0 1-1-1v-3a1 1 0 1 1 2 0v3a1 1 0 0 1-1 1Zm19-1a1 1 0 1 0 2 0v-3a1 1 0 1 0-2 0v3ZM8 4a1 1 0 0 0-1-1h-.25A3.75 3.75 0 0 0 3 6.75V7a1 1 0 0 0 2 0v-.25C5 5.78 5.78 5 6.75 5H7a1 1 0 0 0 1-1ZM7 25a1 1 0 1 0 0-2h-.25C5.78 23 5 22.22 5 21.25V21a1 1 0 1 0-2 0v.25A3.75 3.75 0 0 0 6.75 25H7ZM20 4a1 1 0 0 1 1-1h.25A3.75 3.75 0 0 1 25 6.75V7a1 1 0 1 1-2 0v-.25C23 5.78 22.22 5 21.25 5H21a1 1 0 0 1-1-1Zm1 21a1 1 0 1 1 0-2h.25c.97 0 1.75-.78 1.75-1.75V21a1 1 0 1 1 2 0v.25A3.75 3.75 0 0 1 21.25 25H21Z"/></svg>