<svg width="48" height="48" viewBox="0 0 48 48" xmlns="http://www.w3.org/2000/svg"><path d="M21.5 6a1.5 1.5 0 000 3h5a1.5 1.5 0 000-3h-5zM42 21.5a1.5 1.5 0 00-3 0v5a1.5 1.5 0 003 0v-5zm-22 19c0-.83.67-1.5 1.5-1.5h5a1.5 1.5 0 010 3h-5a1.5 1.5 0 01-1.5-1.5zm-11-19a1.5 1.5 0 00-3 0v5a1.5 1.5 0 003 0v-5zm5-14c0-.83-.67-1.5-1.5-1.5A6.5 6.5 0 006 12.5a1.5 1.5 0 003 0A3.5 3.5 0 0112.5 9c.83 0 1.5-.67 1.5-1.5zM12.5 42a1.5 1.5 0 000-3A3.5 3.5 0 019 35.5a1.5 1.5 0 00-3 0 6.5 6.5 0 006.5 6.5zM34 7.5c0-.83.67-1.5 1.5-1.5a6.5 6.5 0 016.5 6.5 1.5 1.5 0 01-3 0A3.5 3.5 0 0035.5 9 1.5 1.5 0 0134 7.5zM35.5 42a1.5 1.5 0 010-3 3.5 3.5 0 003.5-3.5 1.5 1.5 0 013 0 6.5 6.5 0 01-6.5 6.5z"/></svg>