<svg width="32" height="32" viewBox="0 0 32 32" xmlns="http://www.w3.org/2000/svg"><path d="M14.25 3a1.25 1.25 0 100 2.5h3.5a1.25 1.25 0 100-2.5h-3.5zm0 23.5a1.25 1.25 0 100 2.5h3.5a1.25 1.25 0 100-2.5h-3.5zm13.5-7.5c-.69 0-1.25-.56-1.25-1.25v-3.5a1.25 1.25 0 112.5 0v3.5c0 .69-.56 1.25-1.25 1.25zM3 17.75a1.25 1.25 0 102.5 0v-3.5a1.25 1.25 0 10-2.5 0v3.5zm6-13.5C9 3.56 8.44 3 7.75 3A4.75 4.75 0 003 7.75a1.25 1.25 0 102.5 0c0-1.24 1-2.25 2.25-2.25C8.44 5.5 9 4.94 9 4.25zM7.75 29a1.25 1.25 0 100-2.5c-1.24 0-2.25-1-2.25-2.25a1.25 1.25 0 10-2.5 0A4.75 4.75 0 007.75 29zM23 4.25c0-.69.56-1.25 1.25-1.25A4.75 4.75 0 0129 7.75a1.25 1.25 0 11-2.5 0c0-1.24-1-2.25-2.25-2.25-.69 0-1.25-.56-1.25-1.25zM24.25 29a1.25 1.25 0 110-2.5c1.24 0 2.25-1 2.25-2.25a1.25 1.25 0 112.5 0A4.75 4.75 0 0124.25 29z"/></svg>