<svg width="48" height="48" viewBox="0 0 48 48" xmlns="http://www.w3.org/2000/svg"><path d="M21.25 6a1.25 1.25 0 100 2.5h5.5a1.25 1.25 0 100-2.5h-5.5zm0 36a1.25 1.25 0 110-2.5h5.5a1.25 1.25 0 110 2.5h-5.5zm-14-14C6.56 28 6 27.44 6 26.75v-5.5a1.25 1.25 0 112.5 0v5.5c0 .69-.56 1.25-1.25 1.25zm32.25-1.25a1.25 1.25 0 102.5 0v-5.5a1.25 1.25 0 10-2.5 0v5.5zM14 7.25C14 6.56 13.44 6 12.75 6h-.5A6.25 6.25 0 006 12.25v.5a1.25 1.25 0 102.5 0v-.5a3.75 3.75 0 013.75-3.75h.5c.69 0 1.25-.56 1.25-1.25zM12.75 42a1.25 1.25 0 100-2.5h-.5a3.75 3.75 0 01-3.75-3.75v-.5a1.25 1.25 0 10-2.5 0v.5C6 39.2 8.8 42 12.25 42h.5zM34 7.25c0-.69.56-1.25 1.25-1.25h.5C39.2 6 42 8.8 42 12.25v.5a1.25 1.25 0 11-2.5 0v-.5a3.75 3.75 0 00-3.75-3.75h-.5c-.69 0-1.25-.56-1.25-1.25zM35.25 42a1.25 1.25 0 110-2.5h.5a3.75 3.75 0 003.75-3.75v-.5a1.25 1.25 0 112.5 0v.5C42 39.2 39.2 42 35.75 42h-.5z"/></svg>