<svg width="20" height="20" viewBox="0 0 20 20" xmlns="http://www.w3.org/2000/svg"><path d="M9.25 3a.75.75 0 0 0 0 1.5h1.5a.75.75 0 0 0 0-1.5h-1.5ZM3 10.75a.75.75 0 0 0 1.5 0v-1.5a.75.75 0 0 0-1.5 0v1.5Zm5.5 5.5c0-.41.34-.75.75-.75h1.5a.75.75 0 0 1 0 1.5h-1.5a.75.75 0 0 1-.75-.75Zm7-5.5a.75.75 0 0 0 1.5 0v-1.5a.75.75 0 0 0-1.5 0v1.5Zm-9.5-7A.75.75 0 0 0 5.25 3C4.01 3 3 4 3 5.25a.75.75 0 0 0 1.5 0c0-.41.34-.75.75-.75S6 4.16 6 3.75ZM5.25 17a.75.75 0 0 0 0-1.5.75.75 0 0 1-.75-.75.75.75 0 0 0-1.5 0C3 15.99 4 17 5.25 17ZM14 3.75c0-.41.34-.75.75-.75C15.99 3 17 4 17 5.25a.75.75 0 0 1-1.5 0 .75.75 0 0 0-.75-.75.75.75 0 0 1-.75-.75ZM14.75 17a.75.75 0 0 1 0-1.5c.41 0 .75-.34.75-.75a.75.75 0 0 1 1.5 0c0 1.24-1 2.25-2.25 2.25Z"/></svg>