<svg width="24" height="24" viewBox="0 0 24 24" xmlns="http://www.w3.org/2000/svg"><path d="M10 3.75c0-.41.34-.75.75-.75h2.5a.75.75 0 010 1.5h-2.5a.75.75 0 01-.75-.75zm7.75.75a.75.75 0 010-1.5C19.55 3 21 4.46 21 6.25a.75.75 0 01-1.5 0c0-.97-.78-1.75-1.75-1.75zM6.25 3a.75.75 0 010 1.5c-.97 0-1.75.78-1.75 1.75a.75.75 0 01-1.5 0C3 4.45 4.46 3 6.25 3zm-2.5 14a.75.75 0 00-.75.75C3 19.55 4.46 21 6.25 21a.75.75 0 000-1.5c-.97 0-1.75-.78-1.75-1.75a.75.75 0 00-.75-.75zm7 2.5a.75.75 0 000 1.5h2.5a.75.75 0 000-1.5h-2.5zm7 0a.75.75 0 000 1.5c1.8 0 3.25-1.46 3.25-3.25a.75.75 0 00-1.5 0c0 .97-.78 1.75-1.75 1.75zm2.5-9.5c.41 0 .75.34.75.75v2.5a.75.75 0 01-1.5 0v-2.5c0-.41.34-.75.75-.75zM3 13.25a.75.75 0 001.5 0v-2.5a.75.75 0 00-1.5 0v2.5z"/></svg>