<svg width="16" height="16" viewBox="0 0 16 16" xmlns="http://www.w3.org/2000/svg"><path d="M9.5 2.5A.5.5 0 0 0 9 2H7a.5.5 0 0 0 0 1h2a.5.5 0 0 0 .5-.5Zm1.5 0c0 .28.22.5.5.5.83 0 1.5.67 1.5 1.5a.5.5 0 0 0 1 0A2.5 2.5 0 0 0 11.5 2a.5.5 0 0 0-.5.5ZM14 7a.5.5 0 0 0-1 0v2a.5.5 0 0 0 1 0V7Zm0 4.5a.5.5 0 0 0-1 0c0 .83-.67 1.5-1.5 1.5a.5.5 0 0 0 0 1 2.5 2.5 0 0 0 2.5-2.5Zm-7.5 2c0-.28.22-.5.5-.5h2a.5.5 0 0 1 0 1H7a.5.5 0 0 1-.5-.5ZM5 2.5a.5.5 0 0 0-.5-.5A2.5 2.5 0 0 0 2 4.5a.5.5 0 0 0 1 0C3 3.67 3.67 3 4.5 3a.5.5 0 0 0 .5-.5ZM4.5 13a.5.5 0 0 1 0 1A2.5 2.5 0 0 1 2 11.5a.5.5 0 0 1 1 0c0 .83.67 1.5 1.5 1.5ZM3 9a.5.5 0 0 1-1 0V7a.5.5 0 0 1 1 0v2Z"/></svg>