<svg width="20" height="20" viewBox="0 0 20 20" xmlns="http://www.w3.org/2000/svg"><path d="M6 10V8h8v2H6Zm11-4.09A1.5 1.5 0 0 0 16.5 3h-13A1.5 1.5 0 0 0 3 5.91V16.5c0 .28.22.5.5.5H5v-4.5c0-.28.22-.5.5-.5h4c.2 0 .38.12.46.3.3-.2.66-.3 1.04-.3h6V5.91ZM3.5 4h13a.5.5 0 0 1 0 1h-13a.5.5 0 0 1 0-1ZM5 7.5c0-.28.22-.5.5-.5h9c.28 0 .5.22.5.5v3a.5.5 0 0 1-.5.5h-9a.5.5 0 0 1-.5-.5v-3ZM9 13v4H6v-4h3Zm8.5 0c.83 0 1.5.67 1.5 1.5v3c0 .83-.67 1.5-1.5 1.5h-6a1.5 1.5 0 0 1-1.5-1.5v-3c0-.83.67-1.5 1.5-1.5h6Zm0 5c0-.28.22-.5.5-.5v-1c-.83 0-1.5.67-1.5 1.5h1Zm.5-3.5a.5.5 0 0 1-.5-.5h-1c0 .83.67 1.5 1.5 1.5v-1Zm-6.5-.5a.5.5 0 0 1-.5.5v1c.83 0 1.5-.67 1.5-1.5h-1Zm-.5 3.5c.28 0 .5.22.5.5h1c0-.83-.67-1.5-1.5-1.5v1Zm3.5-3a1.5 1.5 0 1 0 0 3 1.5 1.5 0 0 0 0-3Z"/></svg>