<svg width="20" height="20" viewBox="0 0 20 20" xmlns="http://www.w3.org/2000/svg"><path d="M2 7a6 6 0 1 1 3 5.2l-2.34.77a.5.5 0 0 1-.64-.6l.71-2.5A5.98 5.98 0 0 1 2 7Zm4.5-1.5a.5.5 0 0 0 0 1h3a.5.5 0 0 0 0-1h-3Zm2 2h-2a.5.5 0 0 0 0 1h2a.5.5 0 0 0 0-1Z"/><path d="m12.28 14.95-2.4-1.2c.43-.13.86-.29 1.26-.5l1.36.7 4.5-2.26V11a1 1 0 0 0-1-1h-1.67c.15-.32.28-.65.38-1H16a2 2 0 0 1 2 2v5a2 2 0 0 1-2 2H9a2 2 0 0 1-2-2v-2.07c.33.05.66.07 1 .07v2a1 1 0 0 0 1 1h7a1 1 0 0 0 1-1v-3.2l-4.28 2.15a.5.5 0 0 1-.44 0Z"/></svg>