<svg width="16" height="16" viewBox="0 0 16 16" xmlns="http://www.w3.org/2000/svg"><path d="m10.88.28.35 1.07a2.2 2.2 0 0 0 1.4 1.4l1.07.35h.02a.42.42 0 0 1 0 .8l-1.07.35a2.2 2.2 0 0 0-1.4 1.4l-.35 1.07a.42.42 0 0 1-.8 0l-.35-1.07a2.2 2.2 0 0 0-1.4-1.4L7.28 3.9a.42.42 0 0 1 0-.8l1.07-.35a2.2 2.2 0 0 0 1.38-1.4l.35-1.07a.42.42 0 0 1 .8 0Zm4.9 7.93-.76-.25a1.58 1.58 0 0 1-1-1l-.25-.76a.3.3 0 0 0-.57 0l-.25.77a1.58 1.58 0 0 1-.98 1l-.77.24a.3.3 0 0 0 0 .57l.77.25a1.58 1.58 0 0 1 1 1l.24.77a.3.3 0 0 0 .58 0l.24-.77a1.58 1.58 0 0 1 1-1l.77-.24a.3.3 0 0 0 0-.57h-.02Zm-3.02 3.56a1.4 1.4 0 0 1-.48-.62l-.26-.8a.52.52 0 0 0-.14-.22.64.64 0 0 0-.22-.14l-.77-.25c-.27-.1-.49-.26-.65-.48A1.27 1.27 0 0 1 10 8.5H7a.5.5 0 0 1 0-1h2.42c-.13-.14-.21-.3-.27-.45L8.8 5.96a1.27 1.27 0 0 0-.29-.47 1.3 1.3 0 0 0-.47-.3l-1.06-.34A1.41 1.41 0 0 1 6 3.5a1.4 1.4 0 0 1 .95-1.35L7.43 2H4.5A2.5 2.5 0 0 0 2 4.5v7A2.5 2.5 0 0 0 4.5 14h7a2.5 2.5 0 0 0 2.46-2.07c-.14.05-.3.07-.46.07-.27 0-.53-.08-.74-.23ZM4.75 4.25a.75.75 0 1 1 0 1.5.75.75 0 0 1 0-1.5Zm0 3a.75.75 0 1 1 0 1.5.75.75 0 0 1 0-1.5ZM5.5 11A.75.75 0 1 1 4 11a.75.75 0 0 1 1.5 0Zm1.5.5a.5.5 0 0 1 0-1h4.5a.5.5 0 0 1 0 1H7Z"/></svg>