<svg width="20" height="20" viewBox="0 0 20 20" xmlns="http://www.w3.org/2000/svg"><path d="m13.88.28.35 1.07a2.2 2.2 0 0 0 1.4 1.4l1.07.35h.02a.42.42 0 0 1 0 .8l-1.07.35a2.2 2.2 0 0 0-1.4 1.4l-.35 1.07a.42.42 0 0 1-.8 0l-.35-1.07a2.23 2.23 0 0 0-1.4-1.4l-1.07-.35a.42.42 0 0 1 0-.8l1.07-.35a2.2 2.2 0 0 0 1.38-1.4l.35-1.07a.42.42 0 0 1 .8 0Zm4.9 7.93-.76-.25a1.58 1.58 0 0 1-1-1l-.25-.76a.3.3 0 0 0-.57 0l-.25.77a1.58 1.58 0 0 1-.98 1l-.77.24a.3.3 0 0 0 0 .57l.77.25a1.58 1.58 0 0 1 1 1l.24.77a.3.3 0 0 0 .58 0l.24-.77a1.58 1.58 0 0 1 1-1l.77-.24a.3.3 0 0 0 0-.57h-.02Zm-3.02 3.56a1.4 1.4 0 0 1-.48-.62l-.26-.8a.52.52 0 0 0-.14-.22.64.64 0 0 0-.22-.14l-.77-.25c-.27-.1-.49-.26-.65-.48A1.31 1.31 0 0 1 13.1 8H9.5a.5.5 0 0 1 0-1h2.64l-.35-1.04a1.27 1.27 0 0 0-.29-.47 1.3 1.3 0 0 0-.47-.3l-1.06-.34A1.41 1.41 0 0 1 9 3.5c0-.18.03-.34.09-.5H5.75A2.75 2.75 0 0 0 3 5.75v8.5A2.75 2.75 0 0 0 5.75 17h8.5A2.75 2.75 0 0 0 17 14.25v-2.33c-.16.06-.33.08-.5.08-.27 0-.53-.08-.74-.23ZM7.5 7.25a.75.75 0 1 1-1.5 0 .75.75 0 0 1 1.5 0ZM6.75 9.5a.75.75 0 1 1 0 1.5.75.75 0 0 1 0-1.5Zm.75 3.75a.75.75 0 1 1-1.5 0 .75.75 0 0 1 1.5 0ZM9 10.5c0-.28.22-.5.5-.5h4a.5.5 0 0 1 0 1h-4a.5.5 0 0 1-.5-.5Zm.5 3.5a.5.5 0 0 1 0-1h4a.5.5 0 0 1 0 1h-4Z"/></svg>