<svg width="24" height="24" viewBox="0 0 24 24" xmlns="http://www.w3.org/2000/svg"><path d="M15.09 6.41a2.84 2.84 0 0 0-1.35-.95L12.36 5a.54.54 0 0 1 0-1.03l1.38-.44a2.84 2.84 0 0 0 1.76-1.77l.01-.03.45-1.38a.54.54 0 0 1 1.03 0l.44 1.38a2.84 2.84 0 0 0 1.8 1.8l1.38.44.03.01a.54.54 0 0 1 0 1.03l-1.38.44a2.84 2.84 0 0 0-1.8 1.8l-.45 1.38a.54.54 0 0 1-1.03 0l-.44-1.38c-.1-.3-.25-.6-.45-.85Zm7.7 3.8-.77-.25a1.58 1.58 0 0 1-1-1l-.25-.76a.3.3 0 0 0-.57 0l-.25.77a1.58 1.58 0 0 1-.98 1l-.77.24a.3.3 0 0 0 0 .57l.77.25a1.58 1.58 0 0 1 1 1l.24.77a.3.3 0 0 0 .58 0l.24-.77a1.58 1.58 0 0 1 1-1l.77-.24a.3.3 0 0 0 0-.57h-.02ZM12.04 3h-5.8A3.25 3.25 0 0 0 3 6.25v11.5C3 19.55 4.46 21 6.25 21h11.5c1.8 0 3.25-1.46 3.25-3.25v-3.82a1.3 1.3 0 0 1-1.5-.3v4.12c0 .97-.78 1.75-1.75 1.75H6.25c-.97 0-1.75-.78-1.75-1.75V6.25c0-.97.78-1.75 1.75-1.75H11a1.6 1.6 0 0 1 .28-.93c.2-.26.46-.46.77-.57Zm2.52 4.5h-3.32a.75.75 0 0 0 0 1.5H15l-.41-1.45-.02-.05ZM7.75 9.25a1 1 0 1 0 0-2 1 1 0 0 0 0 2ZM10.5 12c0-.41.34-.75.75-.75h5.5a.75.75 0 1 1 0 1.5h-5.5a.75.75 0 0 1-.75-.75Zm0 3.75c0-.41.34-.75.75-.75h5.5a.75.75 0 1 1 0 1.5h-5.5a.75.75 0 0 1-.75-.75ZM7.75 13a1 1 0 1 0 0-2 1 1 0 0 0 0 2Zm0 3.75a1 1 0 1 0 0-2 1 1 0 0 0 0 2Z"/></svg>