<svg width="20" height="20" viewBox="0 0 20 20" xmlns="http://www.w3.org/2000/svg"><path d="M3.5 2C2.67 2 2 2.67 2 3.5v10c0 .83.67 1.5 1.5 1.5H7v2H5.5a.5.5 0 0 0 0 1h6.38l-1-1H8v-2h1v-1.5c0-.83.67-1.5 1.5-1.5h.38l1.56-1.56a1.5 1.5 0 0 1 2.5.67c.3-.12.6-.14.88-.07A1.5 1.5 0 0 1 18 10.2V3.5c0-.83-.67-1.5-1.5-1.5h-13Zm10.2 9.04c.18.08.3.26.3.46v6a.5.5 0 0 1-.85.35L11.29 16h-.79a.5.5 0 0 1-.5-.5v-2c0-.28.22-.5.5-.5h.8l1.85-1.85a.5.5 0 0 1 .54-.11Zm3.95.16c.12.16.29.45.44.87.26.68.41 1.5.41 2.43 0 .94-.15 1.75-.4 2.43-.16.42-.33.7-.45.87a.5.5 0 0 1-.85-.52l.12-.19a5.9 5.9 0 0 0 .58-2.6 5.9 5.9 0 0 0-.58-2.58l-.07-.11a.5.5 0 0 1 .8-.6Zm-1.43 1.77c-.1-.3-.2-.55-.27-.7a.5.5 0 1 0-.9.45 4.6 4.6 0 0 1 .45 1.78 3.94 3.94 0 0 1-.37 1.6l-.08.18a.5.5 0 1 0 .9.44 5.5 5.5 0 0 0 .55-2.22c0-.5-.1-1.02-.28-1.53Z"/></svg>