<svg width="24" height="24" viewBox="0 0 24 24" xmlns="http://www.w3.org/2000/svg"><path d="M8.84 4.42a7 7 0 0 1 3.66-.92 5.45 5.45 0 0 1 4.83 2.8v.02h.01s-.15-.26 0 0a1.5 1.5 0 0 1-2.67 1.37l-.01-.01a2.6 2.6 0 0 0-.47-.55c-.35-.32-.88-.63-1.69-.63-1.02 0-1.68.23-2.12.49a2.6 2.6 0 0 0-.94.99A3.64 3.64 0 0 0 9 9.5v4.99a3 3 0 1 0 6 0V14h-1.5a1.5 1.5 0 0 1 0-3h3c.83 0 1.5.67 1.5 1.5v2a6 6 0 0 1-12 0v-5c0 1.5 0 0 0 0v-.04a3.45 3.45 0 0 1 .01-.27 6.5 6.5 0 0 1 .8-2.67 5.6 5.6 0 0 1 2.03-2.1Z"/></svg>