<svg width="16" height="16" viewBox="0 0 16 16" xmlns="http://www.w3.org/2000/svg"><path d="M8 1c.28 0 .5.22.5.5v1a.5.5 0 0 1-1 0v-1c0-.28.22-.5.5-.5Zm0 10a3 3 0 1 0 0-6 3 3 0 0 0 0 6Zm0-1a2 2 0 1 1 0-4 2 2 0 0 1 0 4Zm6.5-1.5a.5.5 0 0 0 0-1h-1a.5.5 0 0 0 0 1h1ZM8 13c.28 0 .5.22.5.5v1a.5.5 0 0 1-1 0v-1c0-.28.22-.5.5-.5ZM2.5 8.5a.5.5 0 0 0 0-1h-1a.5.5 0 0 0 0 1h1Zm.65-5.35c.2-.2.5-.2.7 0l1 1a.5.5 0 1 1-.7.7l-1-1a.5.5 0 0 1 0-.7Zm.7 9.7a.5.5 0 1 1-.7-.7l1-1a.5.5 0 0 1 .7.7l-1 1Zm9-9.7a.5.5 0 0 0-.7 0l-1 1a.5.5 0 0 0 .7.7l1-1a.5.5 0 0 0 0-.7Zm-.7 9.7a.5.5 0 0 0 .7-.7l-1-1a.5.5 0 0 0-.7.7l1 1Z"/></svg>