<svg width="32" height="32" viewBox="0 0 32 32" xmlns="http://www.w3.org/2000/svg"><path d="M16 2a1 1 0 0 1 1 1v2a1 1 0 0 1-2 0V3a1 1 0 0 1 1-1Zm7 14a7 7 0 1 1-14 0 7 7 0 0 1 14 0Zm6 1a1 1 0 0 0 0-2h-2a1 1 0 1 0 0 2h2Zm-13 9a1 1 0 0 1 1 1v2a1 1 0 0 1-2 0v-2a1 1 0 0 1 1-1ZM5 17a1 1 0 1 0 0-2H3a1 1 0 1 0 0 2h2Zm.3-11.7a1 1 0 0 1 1.4 0l2 2a1 1 0 1 1-1.4 1.4l-2-2a1 1 0 0 1 0-1.4Zm1.4 21.4a1 1 0 0 1-1.4-1.4l2-2a1 1 0 1 1 1.4 1.4l-2 2Zm20-21.4a1 1 0 0 0-1.4 0l-2 2a1 1 0 0 0 1.4 1.4l2-2a1 1 0 0 0 0-1.4Zm-1.4 21.4a1 1 0 0 0 1.4-1.4l-2-2a1 1 0 1 0-1.4 1.4l2 2Z"/></svg>