<svg width="20" height="20" viewBox="0 0 20 20" xmlns="http://www.w3.org/2000/svg"><path d="M10 2c.28 0 .5.22.5.5v1a.5.5 0 01-1 0v-1c0-.28.22-.5.5-.5zm4 8a4 4 0 11-8 0 4 4 0 018 0zm3.5.5a.5.5 0 000-1h-1a.5.5 0 000 1h1zM10 16c.28 0 .5.22.5.5v1a.5.5 0 01-1 0v-1c0-.28.22-.5.5-.5zm-6.5-5.5a.5.5 0 000-1H2.46a.5.5 0 000 1H3.5zm.65-6.35c.2-.2.5-.2.7 0l1 1a.5.5 0 11-.7.7l-1-1a.5.5 0 010-.7zm.7 11.7a.5.5 0 01-.7-.7l1-1a.5.5 0 01.7.7l-1 1zm11-11.7a.5.5 0 00-.7 0l-1 1a.5.5 0 00.7.7l1-1a.5.5 0 000-.7zm-.7 11.7a.5.5 0 00.7-.7l-1-1a.5.5 0 00-.7.7l1 1z"/></svg>