<svg width="24" height="24" viewBox="0 0 24 24" xmlns="http://www.w3.org/2000/svg"><path d="M9.7 2.27a10.03 10.03 0 0 1 4.6 0 1 1 0 0 1-.46 1.94 8.03 8.03 0 0 0-3.68 0 1 1 0 1 1-.46-1.94Zm6.18 1.55a1 1 0 0 1 1.38-.33c1.32.82 2.43 1.93 3.25 3.25a1 1 0 1 1-1.7 1.05 8.05 8.05 0 0 0-2.6-2.6 1 1 0 0 1-.33-1.37Zm-7.76 0a1 1 0 0 1-.33 1.37 8.05 8.05 0 0 0-2.6 2.6 1 1 0 1 1-1.7-1.05A10.05 10.05 0 0 1 6.74 3.5a1 1 0 0 1 1.38.33ZM3.47 8.96a1 1 0 0 1 .74 1.2 8.03 8.03 0 0 0 0 3.68 1 1 0 0 1-1.94.46 10.03 10.03 0 0 1 0-4.6 1 1 0 0 1 1.2-.74Zm17.06 0a1 1 0 0 1 1.2.74 10.02 10.02 0 0 1 0 4.6 1 1 0 0 1-1.94-.46 8.03 8.03 0 0 0 0-3.68 1 1 0 0 1 .74-1.2ZM3.82 15.88a1 1 0 0 1 1.37.33 8.05 8.05 0 0 0 2.6 2.6 1 1 0 0 1-1.05 1.7 10.05 10.05 0 0 1-3.25-3.25 1 1 0 0 1 .33-1.38Zm16.8 1.61a1 1 0 0 0-1.74-.98l-.01.02a3.82 3.82 0 0 1-.34.5c-.18.24-.43.54-.74.85A7.35 7.35 0 0 0 13 16c-2.27 0-4 1.2-4 3s1.73 3 4 3c1.91 0 3.46-.63 4.64-1.41a10.98 10.98 0 0 1 1.19 1.8l.01.03a1 1 0 0 0 1.81-.85c-.11-.23 0 0 0 0v-.02l-.02-.03-.01-.02a8.04 8.04 0 0 0-.46-.8c-.23-.4-.56-.88-.98-1.38a10.41 10.41 0 0 0 1.4-1.76l.03-.05v-.01h.01v-.01ZM13 18c1.23 0 2.29.48 3.17 1.14-.86.5-1.92.86-3.17.86-1.73 0-2-.8-2-1 0-.2.27-1 2-1Z"/></svg>