<svg width="24" height="24" viewBox="0 0 24 24" xmlns="http://www.w3.org/2000/svg"><path d="M9.7 2.27a10.03 10.03 0 0 1 4.6 0 .75.75 0 1 1-.35 1.46 8.53 8.53 0 0 0-3.9 0 .75.75 0 1 1-.35-1.46ZM7.77 3.74c.22.35.11.81-.24 1.03a8.55 8.55 0 0 0-2.76 2.76.75.75 0 1 1-1.28-.79A10.05 10.05 0 0 1 6.74 3.5a.75.75 0 0 1 1.03.25Zm8.46 0a.75.75 0 0 1 1.03-.25c1.32.82 2.43 1.93 3.25 3.25a.75.75 0 1 1-1.28.8 8.55 8.55 0 0 0-2.76-2.77.75.75 0 0 1-.24-1.03ZM3.17 9.14c.4.1.65.5.56.9a8.53 8.53 0 0 0 0 3.91.75.75 0 1 1-1.46.35 10.03 10.03 0 0 1 0-4.6c.09-.4.5-.65.9-.56Zm17.66 0c.4-.09.81.16.9.56a10.03 10.03 0 0 1 0 4.6.75.75 0 1 1-1.46-.35 8.52 8.52 0 0 0 0-3.9c-.09-.4.16-.81.56-.9Zm-17.1 7.09a.75.75 0 0 1 1.04.24 8.55 8.55 0 0 0 2.76 2.76.75.75 0 0 1-.79 1.28 10.05 10.05 0 0 1-3.25-3.25.75.75 0 0 1 .25-1.03Zm16.7.86a.75.75 0 1 0-1.35-.68l-.02.04a4.63 4.63 0 0 1-.36.59c-.22.33-.54.77-.96 1.22A7 7 0 0 0 13 16.25c-2.35 0-3.99 1.2-3.99 2.88C9.01 20.8 10.65 22 13 22c1.94 0 3.5-.75 4.66-1.65a11.73 11.73 0 0 1 1.39 2.16l.01.04a.75.75 0 0 0 1.37-.6c-.08-.19 0 0 0 0v-.03a3.63 3.63 0 0 0-.12-.24 11.87 11.87 0 0 0-1.54-2.33 11.06 11.06 0 0 0 1.62-2.2l.02-.04v-.02h.01Zm-7.43.66c1.43 0 2.64.65 3.62 1.51A6.02 6.02 0 0 1 13 20.5c-1.97 0-2.49-.92-2.49-1.38 0-.45.52-1.37 2.49-1.37Z"/></svg>