<svg width="24" height="24" viewBox="0 0 24 24" xmlns="http://www.w3.org/2000/svg"><path d="M17.5 12a5.5 5.5 0 1 1 0 11 5.5 5.5 0 0 1 0-11Zm-2.48 3.02a.5.5 0 0 0 0 .71l1.77 1.77-1.76 1.77a.5.5 0 1 0 .7.7l1.77-1.76 1.77 1.77a.5.5 0 1 0 .7-.71l-1.76-1.77 1.77-1.77a.5.5 0 0 0-.7-.7l-1.78 1.76-1.77-1.77a.5.5 0 0 0-.7 0Zm-4 1.98H2.65a.75.75 0 0 0 .1 1.5h8.33a6.55 6.55 0 0 1-.06-1.5Zm.71-2.5H2.75a.75.75 0 0 1-.1-1.5H12.8c-.43.44-.8.95-1.08 1.5ZM21.25 9H2.65a.75.75 0 0 0 .1 1.5h18.6a.75.75 0 0 0-.1-1.5Zm0-4H2.65a.75.75 0 0 0 .1 1.5h18.6a.75.75 0 0 0-.1-1.5Z"/></svg>