<svg width="20" height="20" viewBox="0 0 20 20" xmlns="http://www.w3.org/2000/svg"><path d="M18 5.75a.75.75 0 0 0-.75-.75H2.75a.75.75 0 1 0 0 1.5h14.5c.41 0 .75-.34.75-.75Zm0 3a.75.75 0 0 0-.75-.75H2.75a.75.75 0 1 0 0 1.5h9.46a5.48 5.48 0 0 1 4.58 0h.46c.41 0 .75-.34.75-.75ZM9.1 15.5H2.74a.75.75 0 0 1 0-1.5h6.27a5.57 5.57 0 0 0 .07 1.5Zm.27-3H2.75a.75.75 0 0 1 0-1.5h7.5a5.5 5.5 0 0 0-.88 1.5Zm9.63 2a4.5 4.5 0 1 1-9 0 4.5 4.5 0 0 1 9 0Zm-4.5.7 1.15 1.15a.5.5 0 0 0 .7-.7l-1.14-1.15 1.14-1.15a.5.5 0 0 0-.7-.7l-1.15 1.14-1.15-1.14a.5.5 0 0 0-.7.7l1.14 1.15-1.14 1.15a.5.5 0 0 0 .7.7l1.15-1.14Z"/></svg>