<svg width="24" height="24" viewBox="0 0 24 24" xmlns="http://www.w3.org/2000/svg"><path d="M17.5 12a5.5 5.5 0 1 1 0 11 5.5 5.5 0 0 1 0-11Zm-2.48 3.02a.5.5 0 0 0 0 .71l1.77 1.77-1.76 1.77a.5.5 0 1 0 .7.7l1.77-1.76 1.77 1.77a.5.5 0 1 0 .7-.71l-1.76-1.77 1.77-1.77a.5.5 0 0 0-.7-.7l-1.78 1.76-1.77-1.77a.5.5 0 0 0-.7 0Zm-4 1.98H2.88A1 1 0 0 0 3 19h8.17a6.52 6.52 0 0 1-.15-2Zm.48-2H3a1 1 0 0 1-.12-2h9.93a6.5 6.5 0 0 0-1.31 2ZM3 11a1 1 0 0 1-.12-2H21a1 1 0 0 1 .12 2H3Zm18-6H2.88A1 1 0 0 0 3 7h18.12A1 1 0 0 0 21 5Z"/></svg>