<svg width="24" height="24" viewBox="0 0 24 24" xmlns="http://www.w3.org/2000/svg"><path d="M18.63 2.32a.75.75 0 011.05-.19 6.9 6.9 0 012.31 6.25.75.75 0 11-1.48-.26 5.4 5.4 0 00-.33-2.82c-.35-.9-.87-1.6-1.36-1.93a.75.75 0 01-.19-1.05zm-9.04.55A2.05 2.05 0 005.87 4a2.02 2.02 0 00-1.93 2.65l1.96 5.92a4.8 4.8 0 00-1.79.2 3.9 3.9 0 00-1.76 1.16 1.4 1.4 0 00-.28 1.42c.16.43.5.78.92.97a25.2 25.2 0 016.75 4.48 4.08 4.08 0 003.96 1.05l2.59-.78a2.66 2.66 0 001.89-2.18c.14-1.05.32-2.64.32-4.14 0-1.76-.46-3.7-1-5.41a37.43 37.43 0 00-1.63-4.15 2.05 2.05 0 00-2.27-1.14 2.1 2.1 0 00-.78.32l-.16-.48A2 2 0 009.6 2.87zm-1.16 1l.4 1.18.04.1 1.67 4.84a.75.75 0 001.17.35h.01c.24-.2.34-.53.24-.83l-1.69-4.9a.5.5 0 01.97-.27l.72 2.27.04.15.87 2.7.17.52a.75.75 0 101.42-.46l-.16-.51-.89-2.79a.61.61 0 01.48-.7c.27-.06.52.08.62.3.41.89 1.04 2.34 1.56 3.98.53 1.64.93 3.41.93 4.95 0 1.4-.17 2.9-.3 3.93-.07.45-.39.82-.84.95l-2.59.78c-.84.25-1.8-.02-2.5-.69a26.69 26.69 0 00-7.25-4.83l-.01-.01a2.4 2.4 0 011.06-.68 4 4 0 012.24.04.75.75 0 00.9-.96l-2.35-7.1a.52.52 0 01.98-.32l1.44 4.34.26.79a.75.75 0 101.42-.48l-.26-.78-1.8-5.5a.55.55 0 011.03-.36zm9.87.37a.75.75 0 00-1.1 1.02c.42.45.8 1 .8 1.99a.75.75 0 001.5 0c0-1.5-.62-2.39-1.2-3.01z"/></svg>