<svg width="16" height="16" viewBox="0 0 16 16" xmlns="http://www.w3.org/2000/svg"><path d="M9.68 2.75c-.2.04-.4.13-.56.25a1.53 1.53 0 00-1.43-1c-.33 0-.66.11-.92.32l-.08-.24A1.49 1.49 0 005.25 1 1.51 1.51 0 004 1.63c-.1.14-.16.29-.21.45a1.6 1.6 0 00-2 2l1.45 4.66a2.29 2.29 0 00-1.92.65 1 1 0 00-.31.89 1.33 1.33 0 00.78 1 10.8 10.8 0 013 2.44A4 4 0 007.69 15c.34 0 .67-.05 1-.14l1.78-.53a2.45 2.45 0 001.73-2c.2-1.28.3-2.57.31-3.87-.13-1.6-.47-3.19-1-4.71a1.54 1.54 0 00-1.83-1zm1.52 9.46a1.43 1.43 0 01-1 1.16l-1.79.53a2.89 2.89 0 01-2.9-.9 11.38 11.38 0 00-3.3-2.66c-.14-.07-.21-.19-.2-.24a1.43 1.43 0 011.77-.1.51.51 0 00.7-.6L2.76 3.81a.62.62 0 01.31-.74.61.61 0 01.51 0 .63.63 0 01.36.37L5 6.66c.03.09.09.16.16.22.1.07.21.11.33.12h.16a.47.47 0 00.12-.07.4.4 0 00.23-.21v-.17a.63.63 0 000-.19L4.76 2.67a.54.54 0 01.07-.46.54.54 0 01.91.15L7 6.64c.03.1.09.18.17.24.08.08.2.12.31.12h.14A.5.5 0 008 6.36l-.8-2.67a.52.52 0 01.08-.47.55.55 0 011 .19l.32 1.25.48 2c.03.11.1.21.2.28.04.03.1.05.14.06h.2a.51.51 0 00.38-.62l-.49-2a.58.58 0 01.82-.65c.13.06.22.18.26.31.48 1.43.8 2.92.92 4.43 0 1.25-.11 2.5-.31 3.74zM13.8 1.1a.5.5 0 10-.6.8 4.19 4.19 0 011.32 4.46.5.5 0 00.34.62L15 7a.49.49 0 00.48-.36A5.19 5.19 0 0013.8 1.1zm-1.19 1.41a.5.5 0 01.18.08 3.37 3.37 0 011.17 2.95.5.5 0 01-.5.46.5.5 0 01-.46-.54 2.37 2.37 0 00-.8-2.06.49.49 0 01-.1-.69.5.5 0 01.51-.2z"/></svg>