<svg width="16" height="16" viewBox="0 0 16 16" xmlns="http://www.w3.org/2000/svg"><path d="M2.75 3C1.78 3 1 3.78 1 4.75v6.5c0 .97.78 1.75 1.75 1.75h10.5c.97 0 1.75-.78 1.75-1.75v-6.5C15 3.78 14.22 3 13.25 3H2.75ZM3 10.5c0-.28.22-.5.5-.5h9a.5.5 0 0 1 0 1h-9a.5.5 0 0 1-.5-.5ZM3.25 7a.75.75 0 1 1 0-1.5.75.75 0 0 1 0 1.5ZM10 6.25a.75.75 0 1 1-1.5 0 .75.75 0 0 1 1.5 0ZM6.25 7a.75.75 0 1 1 0-1.5.75.75 0 0 1 0 1.5ZM13 6.25a.75.75 0 1 1-1.5 0 .75.75 0 0 1 1.5 0ZM5.25 9a.75.75 0 1 1 0-1.5.75.75 0 0 1 0 1.5ZM9 8.25a.75.75 0 1 1-1.5 0 .75.75 0 0 1 1.5 0Zm2.25.75a.75.75 0 1 1 0-1.5.75.75 0 0 1 0 1.5Z"/></svg>