<svg width="20" height="20" viewBox="0 0 20 20" xmlns="http://www.w3.org/2000/svg"><path d="M5 12.5c0-.28.22-.5.5-.5h9a.5.5 0 010 1h-9a.5.5 0 01-.5-.5zM11.5 8a.75.75 0 100-1.5.75.75 0 000 1.5zm3.75-.75a.75.75 0 11-1.5 0 .75.75 0 011.5 0zM5.5 8a.75.75 0 100-1.5.75.75 0 000 1.5zm2.25 1.75a.75.75 0 11-1.5 0 .75.75 0 011.5 0zm2.25.75A.75.75 0 1010 9a.75.75 0 000 1.5zm3.76-.75a.75.75 0 11-1.5 0 .75.75 0 011.5 0zM8.5 8a.75.75 0 100-1.5.75.75 0 000 1.5zM2 5.5C2 4.67 2.67 4 3.5 4h13c.83 0 1.5.67 1.5 1.5v8c0 .83-.67 1.5-1.5 1.5h-13A1.5 1.5 0 012 13.5v-8zM3.5 5a.5.5 0 00-.5.5v8c0 .28.22.5.5.5h13a.5.5 0 00.5-.5v-8a.5.5 0 00-.5-.5h-13z"/></svg>