<svg width="20" height="20" viewBox="0 0 20 20" xmlns="http://www.w3.org/2000/svg"><path d="M3 5.5c0-.28.22-.5.5-.5h3a.5.5 0 010 1h-3a.5.5 0 01-.5-.5zm6 0c0-.28.22-.5.5-.5h7a.5.5 0 010 1h-7a.5.5 0 01-.5-.5zm-6 3c0-.28.22-.5.5-.5h3a.5.5 0 010 1h-3a.5.5 0 01-.5-.5zm6 0c0-.28.22-.5.5-.5h7a.5.5 0 010 1h-7a.5.5 0 01-.5-.5zm-6 3c0-.28.22-.5.5-.5h3a.5.5 0 010 1h-3a.5.5 0 01-.5-.5zm6 0c0-.28.22-.5.5-.5h7a.5.5 0 010 1h-7a.5.5 0 01-.5-.5zm-6 3c0-.28.22-.5.5-.5h3a.5.5 0 010 1h-3a.5.5 0 01-.5-.5zm6 0c0-.28.22-.5.5-.5h7a.5.5 0 010 1h-7a.5.5 0 01-.5-.5z"/></svg>