<svg width="24" height="24" viewBox="0 0 24 24" xmlns="http://www.w3.org/2000/svg"><path d="M15 4.25v15.5a1.25 1.25 0 0 1-2.08.93l-4.5-4a.75.75 0 0 0-.49-.18H4.25C3.01 16.5 2 15.49 2 14.25v-4.5C2 8.5 3 7.5 4.25 7.5h3.68c.18 0 .36-.07.5-.19l4.49-4c.8-.71 2.08-.14 2.08.94Zm4 1.65a.75.75 0 0 1 1.04.15 9.96 9.96 0 0 1 0 11.9.75.75 0 0 1-1.2-.9 8.46 8.46 0 0 0 0-10.1.75.75 0 0 1 .15-1.05Zm-1.86 2.47a.75.75 0 0 1 1.02.3 6.97 6.97 0 0 1 0 6.66.75.75 0 0 1-1.32-.72 5.47 5.47 0 0 0 0-5.22.75.75 0 0 1 .3-1.02Z"/></svg>