<svg width="32" height="32" viewBox="0 0 32 32" xmlns="http://www.w3.org/2000/svg"><path d="M18 5.43a1.5 1.5 0 0 0-2.65-.97L11.27 9.3a2 2 0 0 1-1.53.71H6a4 4 0 0 0-4 4v4a4 4 0 0 0 4 4h3.74a2 2 0 0 1 1.53.7l4.08 4.84a1.5 1.5 0 0 0 2.65-.97V5.43Zm3.43 3.75a1 1 0 0 1 1.4.25A11.53 11.53 0 0 1 25.05 16c0 2.24-.77 4.44-2.24 6.57a1 1 0 1 1-1.64-1.14A9.54 9.54 0 0 0 23.06 16c0-1.76-.6-3.56-1.88-5.43a1 1 0 0 1 .25-1.4Zm4.26-3.9a1 1 0 0 0-1.38 1.44C26.7 9 27.94 12.46 27.94 16c0 3.54-1.24 7-3.63 9.28a1 1 0 0 0 1.38 1.44C28.55 24 29.94 19.96 29.94 16c0-3.96-1.39-8-4.25-10.72Z"/></svg>