<svg width="48" height="48" viewBox="0 0 48 48" xmlns="http://www.w3.org/2000/svg"><path d="M25.08 6.42A1.75 1.75 0 0 1 28 7.72v32.56c0 1.51-1.8 2.31-2.92 1.3l-8.2-7.36c-.88-.79-2-1.22-3.18-1.22H9a5.25 5.25 0 0 1-5.25-5.25v-7.5C3.75 17.35 6.1 15 9 15h4.7c1.17 0 2.3-.43 3.18-1.21l8.2-7.37Zm.42 2.98-6.95 6.25a7.25 7.25 0 0 1-4.85 1.85H9a2.75 2.75 0 0 0-2.75 2.75v7.5A2.75 2.75 0 0 0 9 30.5h4.7c1.79 0 3.51.66 4.85 1.86l6.95 6.24V9.4Zm10.84-1c.47-.5 1.26-.53 1.76-.06 0 0-.33-.34.02 0l.01.03a6.1 6.1 0 0 1 .27.26 20.4 20.4 0 0 1 2.7 3.79A23.76 23.76 0 0 1 44 24c0 5.05-1.45 8.94-2.9 11.58a20.41 20.41 0 0 1-2.9 4l-.07.06-.01.01h-.01v.01l.22-.22-.23.22a1.25 1.25 0 0 1-1.7-1.82 5.03 5.03 0 0 0 .18-.19 17.91 17.91 0 0 0 2.33-3.28C40.2 32.03 41.5 28.55 41.5 24c0-4.55-1.3-8.03-2.6-10.37a17.91 17.91 0 0 0-2.5-3.46 1.25 1.25 0 0 1-.06-1.77Zm-4 6a1.25 1.25 0 0 1 1.76-.06l.02.02a3.13 3.13 0 0 1 .18.17c.12.12.27.3.45.51a13.98 13.98 0 0 1-.59 18.56l-.01.02-.03.03h-.01v.01a1.25 1.25 0 0 1-1.71-1.82l.01-.02a4.2 4.2 0 0 0 .43-.47 11.48 11.48 0 0 0-.43-15.17l-.01-.02a1.25 1.25 0 0 1-.07-1.76Zm5.78-6.05-.01-.01Zm-4.02 5.98.06.07a.45.45 0 0 1-.06-.07Z"/></svg>