<svg width="16" height="16" viewBox="0 0 16 16" xmlns="http://www.w3.org/2000/svg"><path d="M4 3.75C4 2.78 4.78 2 5.75 2h.75a.5.5 0 0 1 0 1h-.75a.75.75 0 0 0-.75.75v.75a.5.5 0 0 1-1 0v-.75ZM8 2.5c0-.28.22-.5.5-.5h2a.5.5 0 0 1 0 1h-2a.5.5 0 0 1-.5-.5Zm5.25-.5c.97 0 1.75.78 1.75 1.75v.75a.5.5 0 0 1-1 0v-.75a.75.75 0 0 0-.75-.75h-.75a.5.5 0 0 1 0-1h.75ZM8 11.5c0 .28.22.5.5.5h2a.5.5 0 0 0 0-1h-2a.5.5 0 0 0-.5.5Zm-2.25.5C4.78 12 4 11.22 4 10.25V9.5a.5.5 0 0 1 1 0v.75c0 .41.34.75.75.75h.75a.5.5 0 0 1 0 1h-.75ZM15 10.25c0 .97-.78 1.75-1.75 1.75h-.75a.5.5 0 0 1 0-1h.75c.41 0 .75-.34.75-.75V9.5a.5.5 0 0 1 1 0v.75ZM4.5 6a.5.5 0 0 0-.5.5v1a.5.5 0 0 0 1 0v-1a.5.5 0 0 0-.5-.5Zm9.5.5a.5.5 0 0 1 1 0v1a.5.5 0 0 1-1 0v-1ZM1 7.41c0-.94.38-1.8 1-2.4v5.24A3.73 3.73 0 0 0 5.75 14H12c-.62.62-1.47 1-2.41 1H5.75A4.75 4.75 0 0 1 1 10.25V7.41Z"/></svg>