<svg width="20" height="20" viewBox="0 0 20 20" xmlns="http://www.w3.org/2000/svg"><path d="M5 5c0-1.1.9-2 2-2h1.5a.5.5 0 0 1 0 1H7a1 1 0 0 0-1 1v.5a.5.5 0 0 1-1 0V5Zm5-1.5c0-.28.22-.5.5-.5h2a.5.5 0 0 1 0 1h-2a.5.5 0 0 1-.5-.5Zm6-.5a2 2 0 0 1 2 2v.5a.5.5 0 0 1-1 0V5a1 1 0 0 0-1-1h-1.5a.5.5 0 0 1 0-1H16Zm-6 10.5c0 .28.22.5.5.5h2a.5.5 0 0 0 0-1h-2a.5.5 0 0 0-.5.5ZM7 14a2 2 0 0 1-2-2v-.5a.5.5 0 0 1 1 0v.5a1 1 0 0 0 1 1h1.5a.5.5 0 0 1 0 1H7Zm11-2a2 2 0 0 1-2 2h-1.5a.5.5 0 0 1 0-1H16a1 1 0 0 0 1-1v-.5a.5.5 0 0 1 1 0v.5ZM5.5 7a.5.5 0 0 0-.5.5v2a.5.5 0 0 0 1 0v-2a.5.5 0 0 0-.5-.5Zm11.5.5a.5.5 0 0 1 1 0v2a.5.5 0 0 1-1 0v-2ZM2 7.41c0-.94.38-1.8 1-2.41v7.5A3.5 3.5 0 0 0 6.5 16H16a3.4 3.4 0 0 1-2.41 1H6.5A4.5 4.5 0 0 1 2 12.5V7.41Z"/></svg>