<svg width="24" height="24" viewBox="0 0 24 24" xmlns="http://www.w3.org/2000/svg"><path d="M7.51 6.25c0-.96.79-1.75 1.75-1.75h1a.75.75 0 0 0 0-1.5h-1a3.25 3.25 0 0 0-3.25 3.25v.5a.75.75 0 1 0 1.5 0v-.5ZM12.76 3a.75.75 0 0 0 0 1.5h2.5a.75.75 0 0 0 0-1.5h-2.5Zm-.75 13.25c0-.41.34-.75.75-.75h2.5a.75.75 0 0 1 0 1.5h-2.5a.75.75 0 0 1-.75-.75Zm8.5-2.5c0 .97-.78 1.75-1.75 1.75h-1a.75.75 0 0 0 0 1.5h1c1.8 0 3.25-1.45 3.25-3.25v-.48a.75.75 0 0 0-1.5 0v.48ZM18.76 4.5c.97 0 1.75.79 1.75 1.75v.5a.75.75 0 0 0 1.5 0v-.5c0-1.8-1.45-3.25-3.25-3.25h-1a.75.75 0 0 0 0 1.5h1ZM7.51 13.75c0 .97.79 1.75 1.75 1.75h1a.75.75 0 0 1 0 1.5h-1a3.25 3.25 0 0 1-3.25-3.25v-.48a.75.75 0 0 1 1.5 0v.48ZM2 9.6a5.1 5.1 0 0 1 3-4.65v8.8C5 16.1 6.9 18 9.25 18h11.8a5.1 5.1 0 0 1-4.65 3H9.25C5.25 21 2 17.75 2 13.75V9.6Zm5.5-.34a.75.75 0 0 0-1.5 0l.01 1.5a.75.75 0 0 0 1.5 0l-.01-1.5Zm13.75-.75c.41 0 .75.34.75.75l.01 1.5a.75.75 0 0 1-1.5 0l-.01-1.5c0-.41.34-.75.75-.75Z"/></svg>