<svg width="24" height="24" viewBox="0 0 24 24" xmlns="http://www.w3.org/2000/svg"><path d="M7.5 6.25c0-.97.78-1.75 1.75-1.75h1a.75.75 0 0 0 0-1.5h-1A3.25 3.25 0 0 0 6 6.25v.49a.75.75 0 0 0 1.5 0v-.49Zm-1.5 3a.75.75 0 0 1 1.5 0v1.5a.75.75 0 0 1-1.5 0v-1.5Zm14.5 0a.75.75 0 1 1 1.5 0v1.5a.75.75 0 0 1-1.5 0v-1.5ZM18.75 4.5c.97 0 1.75.78 1.75 1.75v.49a.75.75 0 1 0 1.5 0v-.49C22 4.45 20.55 3 18.75 3h-1a.75.75 0 1 0 0 1.5h1Zm-6-1.5a.75.75 0 1 0 0 1.5h2.5a.75.75 0 0 0 0-1.5h-2.5Zm-3.5 12.5c-.97 0-1.75-.78-1.75-1.75v-.5a.75.75 0 0 0-1.5 0v.5C6 15.55 7.46 17 9.25 17h1a.75.75 0 0 0 0-1.5h-1Zm11.25-1.75c0 .97-.78 1.75-1.75 1.75h-1a.75.75 0 1 0 0 1.5h1c1.8 0 3.25-1.46 3.25-3.25v-.5a.75.75 0 0 0-1.5 0v.5Zm-8.5 2.5c0 .41.34.75.75.75h2.5a.75.75 0 0 0 0-1.5h-2.5a.75.75 0 0 0-.75.75ZM2 9.6c0-1.41.57-2.69 1.5-3.61v7.76a5.75 5.75 0 0 0 5.75 5.75h10.76c-.92.93-2.2 1.5-3.61 1.5H9.25C5.25 21 2 17.75 2 13.75V9.6Z"/></svg>