<svg width="20" height="20" viewBox="0 0 20 20" xmlns="http://www.w3.org/2000/svg"><path d="M6.53 4a4 4 0 1 1-.14 3.72A1.5 1.5 0 0 1 5.5 8H5v.26c0 .19.07.36.2.5A.75.75 0 1 1 5.67 10 1.74 1.74 0 0 1 4 8.26V4.5c0-.28.23-.5.5-.5h2.03ZM7 6.13a3 3 0 1 0 0-.24v.24Zm-1-.26v-.85H5v2h.5a.5.5 0 0 0 .5-.5v-.37a4.08 4.08 0 0 1 0-.28ZM3 13a2 2 0 0 1 2-2h10a2 2 0 0 1 2 2c0 1.7-.83 2.97-2.13 3.8A9.14 9.14 0 0 1 10 18a9.14 9.14 0 0 1-4.87-1.2A4.35 4.35 0 0 1 3 13Zm2-1a1 1 0 0 0-1 1c0 1.3.62 2.28 1.67 2.95A8.16 8.16 0 0 0 10 17c1.74 0 3.26-.36 4.33-1.05A3.36 3.36 0 0 0 16 13a1 1 0 0 0-1-1H5Z"/></svg>