<svg width="24" height="24" viewBox="0 0 24 24" xmlns="http://www.w3.org/2000/svg"><path d="M23 6.5a5.5 5.5 0 1 0-11 0 5.5 5.5 0 0 0 11 0ZM18 7v2.5a.5.5 0 1 1-1 0V7h-2.5a.5.5 0 0 1 0-1H17V3.5a.5.5 0 0 1 1 0V6h2.5a.5.5 0 0 1 0 1H18Zm-.5 6c.52 0 1.02-.06 1.5-.17V15a2 2 0 0 1-1.85 2H15a1 1 0 0 1-1-.88v-4.14c.46.3.97.53 1.5.7v2.82H17a.5.5 0 0 0 .5-.41V13ZM12.02 3c-.3.48-.55 1-.72 1.54A5.5 5.5 0 0 0 6.5 10v1H9a1 1 0 0 1 1 1v4a1 1 0 0 1-1 1H6.5v.25c0 1.2.93 2.17 2.1 2.24l.15.01h1.13a2.25 2.25 0 1 1 0 1.5H8.75c-2 0-3.64-1.57-3.74-3.55l-.01-.2V10a7 7 0 0 1 7-7h.02ZM12 19.5a.75.75 0 1 0 0 1.5.75.75 0 0 0 0-1.5Zm-3.5-7h-2v3h2v-3Z"/></svg>