<svg width="20" height="20" viewBox="0 0 20 20" xmlns="http://www.w3.org/2000/svg"><path d="M16.5 9c.17 0 .34.01.5.04V8h-4v1h3.5ZM9 16.5V13H8v4h1.04a3.53 3.53 0 0 1-.04-.5Zm.04-4.5A3.5 3.5 0 0 1 12 9.04V8H8v4h1.04ZM7 12V8H3v4h4Zm-4 1h4v4H5.5A2.5 2.5 0 0 1 3 14.5V13Zm10-6h4V5.5A2.5 2.5 0 0 0 14.5 3H13v4Zm-1-4v4H8V3h4ZM7 3v4H3V5.5A2.5 2.5 0 0 1 5.5 3H7Zm3 9.5a2.5 2.5 0 0 1 2.5-2.5h4a2.5 2.5 0 0 1 2.5 2.5v4c0 .5-.15.98-.41 1.38l-3.03-3.03a1.5 1.5 0 0 0-2.12 0l-3.03 3.03c-.26-.4-.41-.87-.41-1.38v-4Zm7 .25a.75.75 0 1 0-1.5 0 .75.75 0 0 0 1.5 0Zm-5.88 5.84c.4.26.87.41 1.38.41h4c.5 0 .98-.15 1.38-.41l-3.03-3.03a.5.5 0 0 0-.7 0l-3.03 3.03Z"/></svg>