<svg width="20" height="20" viewBox="0 0 20 20" xmlns="http://www.w3.org/2000/svg"><path d="M4.5 3A2.5 2.5 0 0 0 2 5.5v9A2.5 2.5 0 0 0 4.5 17h5.1c-.16-.32-.3-.65-.4-1H4.5A1.5 1.5 0 0 1 3 14.5V8h4.09c.4 0 .78-.16 1.06-.44L9.7 6h5.79c.83 0 1.5.67 1.5 1.5v2.1c.36.18.7.4 1 .66V7.5A2.5 2.5 0 0 0 15.5 5H9.7L8.23 3.51A1.75 1.75 0 0 0 6.98 3H4.5ZM3 5.5C3 4.67 3.67 4 4.5 4h2.48c.2 0 .4.08.53.22L8.8 5.5 7.44 6.85a.5.5 0 0 1-.35.15H3V5.5Zm7 9a4.5 4.5 0 1 0 9 0 4.5 4.5 0 0 0-9 0Zm6.5-3c.28 0 .5.22.5.5v1.5a.5.5 0 0 1-.5.5H15a.5.5 0 0 1 0-1h.47a1.97 1.97 0 0 0-.94-.25 2 2 0 0 0-1.44.59.5.5 0 0 1-.71-.71 3 3 0 0 1 3.62-.48V12c0-.28.22-.5.5-.5Zm-.88 5.53a3 3 0 0 1-2.62-.18V17a.5.5 0 0 1-1 0v-1.5c0-.28.22-.5.5-.5H14a.5.5 0 0 1 0 1h-.47a1.97 1.97 0 0 0 .94.25 2 2 0 0 0 1.44-.59.5.5 0 0 1 .71.71 3 3 0 0 1-1 .66Z"/></svg>