<svg width="24" height="24" viewBox="0 0 24 24" xmlns="http://www.w3.org/2000/svg"><path d="M2 8V6.25C2 4.45 3.46 3 5.25 3h2.88c.6 0 1.17.24 1.59.66l1.53 1.53-2.6 2.59a.75.75 0 0 1-.52.22H2Zm0 1.5v8.25C2 19.55 3.46 21 5.25 21h6.77A6.5 6.5 0 0 1 22 12.81V8.75c0-1.8-1.46-3.25-3.25-3.25h-5.69L9.72 8.84c-.42.42-1 .66-1.6.66H2Zm10 8a5.5 5.5 0 1 0 11 0 5.5 5.5 0 0 0-11 0Zm8.5-3.5c.28 0 .5.22.5.5v2a.5.5 0 0 1-.5.5h-2a.5.5 0 0 1 0-1h1a2.5 2.5 0 0 0-4.03.04.5.5 0 0 1-.8-.59 3.5 3.5 0 0 1 5.33-.4v-.55c0-.28.22-.5.5-.5ZM15 19.95v.55a.5.5 0 0 1-1 0v-2c0-.28.22-.5.5-.5h2a.5.5 0 0 1 0 1h-1a2.5 2.5 0 0 0 3.91.11.5.5 0 0 1 .77.65 3.5 3.5 0 0 1-5.18.19Z"/></svg>