<svg width="20" height="20" viewBox="0 0 20 20" xmlns="http://www.w3.org/2000/svg"><path d="M7 3.75V5H5.5A2.5 2.5 0 0 0 3 7.5v.76A4.5 4.5 0 0 1 8.24 10H9v-.5c0-.28.22-.5.5-.5h1c.28 0 .5.22.5.5v.5h4.5c.83 0 1.5-.67 1.5-1.5v-1A2.5 2.5 0 0 0 14.5 5H13V3.75C13 2.78 12.22 2 11.25 2h-2.5C7.78 2 7 2.78 7 3.75ZM14.5 16h-4.38l-1.56-1.56A4.48 4.48 0 0 0 8.97 12h1.53a.5.5 0 0 0 .5-.5V11h4.5c.56 0 1.08-.19 1.5-.5v3a2.5 2.5 0 0 1-2.5 2.5ZM12 5H8V3.75c0-.41.34-.75.75-.75h2.5c.41 0 .75.34.75.75V5ZM4.5 16c.79 0 1.51-.26 2.1-.7l2.55 2.55a.5.5 0 1 0 .7-.7L7.3 14.6A3.5 3.5 0 1 0 4.5 16Zm0-1a2.5 2.5 0 1 1 0-5 2.5 2.5 0 0 1 0 5Z"/></svg>