<svg width="24" height="24" viewBox="0 0 24 24" xmlns="http://www.w3.org/2000/svg"><path d="M10.25 3.5h3.5c.41 0 .75.34.75.75V6h-5V4.25c0-.41.34-.75.75-.75ZM8 4.25V6H6.25A3.25 3.25 0 0 0 3 9.25v1.35a5.48 5.48 0 0 1 7 1.74V12a1 1 0 0 1 1-1h2a1 1 0 0 1 1 1v.5h5.25c.97 0 1.75-.78 1.75-1.75v-1.5C21 7.45 19.54 6 17.75 6H16V4.25C16 3.01 15 2 13.75 2h-3.5C9.01 2 8 3 8 4.25ZM17.75 20h-5.28l-2.04-2.05a5.48 5.48 0 0 0 .55-2.95H13a1 1 0 0 0 1-1h5.25c.64 0 1.24-.19 1.75-.51v3.26c0 1.8-1.46 3.25-3.25 3.25ZM5.5 20c.97 0 1.87-.3 2.6-.83l2.62 2.61a.75.75 0 1 0 1.06-1.06l-2.61-2.61A4.5 4.5 0 1 0 5.5 20Zm0-1.5a3 3 0 1 1 0-6 3 3 0 0 1 0 6Z"/></svg>