<svg width="16" height="16" viewBox="0 0 16 16" xmlns="http://www.w3.org/2000/svg"><path d="M6.5 1.75a.75.75 0 011.5 0V6.5c0 .23.15.42.36.48a5.5 5.5 0 00-1.87 6.8l-.35 1.15c-.7-.17-1.3-.64-1.66-1.27a35.67 35.67 0 00-3.34-4.82l-.02-.01v-.01a.5.5 0 01.03-.67c.35-.35.76-.5 1.18-.49.4.01.78.16 1.1.34.2.11.4.24.57.38V2.75a.75.75 0 011.5 0V6.5a.5.5 0 001 0V1.75zm4 4.34c-.53.1-1.04.27-1.51.52A.5.5 0 009 6.5V2.75a.75.75 0 011.5 0v3.34zm2.5.12A5.5 5.5 0 0011.5 6V4.75a.75.75 0 011.5 0V6.2zm3 5.29a4.5 4.5 0 01-6.68 3.94l-1.8.54a.4.4 0 01-.5-.5l.54-1.8A4.5 4.5 0 1116 11.5zM9.5 10a.5.5 0 000 1h4a.5.5 0 000-1h-4zM9 12.5c0 .28.22.5.5.5h2a.5.5 0 000-1h-2a.5.5 0 00-.5.5z"/></svg>