<svg width="24" height="24" viewBox="0 0 24 24" xmlns="http://www.w3.org/2000/svg"><path d="M14 4.25a1 1 0 012 0V11c0 .06.01.11.03.17a6.5 6.5 0 00-4.42 9.1l-.46 1.52a3.25 3.25 0 01-1.76-1.59l-.14-.26c-.42-.85-.94-1.63-1.56-2.34l-2.2-2.55-2.2-1.7a.75.75 0 01-.29-.6c0-.48.26-.84.6-1.06.29-.19.64-.27.95-.3a7.2 7.2 0 012.1.12c.5.1.97.3 1.35.5V4.26a1 1 0 012 0v6.25a.5.5 0 001 0V3a1 1 0 012 0v7.5a.5.5 0 001 0V4.25zM17.5 11a6.6 6.6 0 00-.5 0V6a1 1 0 012 0v5.17a6.5 6.5 0 00-1.5-.17zm.47 1.02A5.48 5.48 0 0123 17.5a5.5 5.5 0 01-8.17 4.81l-2.18.67a.5.5 0 01-.63-.62l.67-2.2a5.5 5.5 0 015.28-8.15zM15 16.5c0 .28.22.5.5.5h4a.5.5 0 100-1h-4a.5.5 0 00-.5.5zm.5 2.5h2a.5.5 0 100-1h-2a.5.5 0 100 1z"/></svg>