<svg width="24" height="24" viewBox="0 0 24 24" xmlns="http://www.w3.org/2000/svg"><path d="M12 4v6.25a.75.75 0 01-1.5 0V5.23a.5.5 0 00-.5-.48c-.26 0-.5.24-.5.5v7.5a.75.75 0 01-1.3.52 1.46 1.46 0 00-.12-.13c-.1-.08-.23-.2-.4-.32-.36-.25-.81-.5-1.3-.58a2.28 2.28 0 00-1.4.14c-.2.1-.36.26-.44.53l1.66 1.24.08.07 2.18 2.18c.93.93 1.7 2 2.3 3.19.18.35.47.63.82.78l-.44 1.44a3.15 3.15 0 01-1.72-1.55 10.76 10.76 0 00-2.02-2.8l-2.14-2.14-1.96-1.47a.75.75 0 01-.3-.6c0-1.06.53-1.8 1.3-2.2a3.76 3.76 0 012.33-.29c.52.1.99.29 1.37.5v-6a2.03 2.03 0 012.61-1.92c.27-.76.97-1.34 1.9-1.34.9 0 1.61.59 1.88 1.34a2 2 0 012.6 1.73A2 2 0 0119.5 7v4.3a6.48 6.48 0 00-1.5-.3v-4a.5.5 0 00-.5-.5.5.5 0 00-.5.5v3.5c0 .2-.1.4-.23.53a6.5 6.5 0 00-.83.15.75.75 0 01-.44-.69V5.25a.5.5 0 00-.5-.5.5.5 0 00-.5.5v5a.75.75 0 01-1.5 0V4a.5.5 0 00-.5-.5c-.29 0-.5.22-.5.5zm5.97 8.02A5.48 5.48 0 0123 17.5a5.5 5.5 0 01-8.17 4.81l-2.18.67a.5.5 0 01-.63-.62l.67-2.2a5.5 5.5 0 015.28-8.15zM15 16.5c0 .28.22.5.5.5h4a.5.5 0 100-1h-4a.5.5 0 00-.5.5zm.5 2.5h2a.5.5 0 100-1h-2a.5.5 0 100 1z"/></svg>