<svg width="28" height="28" viewBox="0 0 28 28" xmlns="http://www.w3.org/2000/svg"><path d="M15 3v9.25a.75.75 0 001.5 0V4.5a1 1 0 112 0v8.25c0 .18.06.35.17.48a7.5 7.5 0 00-4.93 10.52l-.63 2.15a3.25 3.25 0 01-2.12-1.71l-.7-1.4c-.29-.6-.63-1.16-1.02-1.7l-2.8-3.78-2.62-1.68A.75.75 0 013.5 15c0-.49.21-.89.55-1.17.3-.26.7-.4 1.06-.46a5.58 5.58 0 012.42.16 8.1 8.1 0 011.97.83V4.5a1 1 0 112 0v7.75a.75.75 0 001.5 0V3a1 1 0 112 0zm5.5 10c-.18 0-.37 0-.55.02a.75.75 0 00.05-.27V7a1 1 0 112 0v6.15c-.48-.1-.99-.15-1.5-.15zm0 14a6.5 6.5 0 10-5.69-3.35l-.8 2.7a.5.5 0 00.63.63l2.71-.8c.94.53 2 .82 3.15.82zm-3-7.5c0-.28.22-.5.5-.5h5a.5.5 0 110 1h-5a.5.5 0 01-.5-.5zM18 22a.5.5 0 010-1h2.5a.5.5 0 110 1H18z"/></svg>