<svg width="28" height="28" viewBox="0 0 28 28" xmlns="http://www.w3.org/2000/svg"><path d="M14 4.26v8a.75.75 0 01-1.5 0v-6.5c0-.4-.32-.76-.75-.76-.38 0-.75.36-.75.8v8.95a.75.75 0 01-1.25.56l-.18-.16a3.6 3.6 0 00-.63-.5c-.27-.15-.66-.3-1.38-.4a3.01 3.01 0 00-1.83.24c-.35.2-.6.47-.7.9l2.15 1.5.12.1 2.53 2.7c.86.92 1.57 1.95 2.13 3.07l.38.77c.24.48.68.82 1.2.93l-.43 1.44a3.25 3.25 0 01-2.12-1.71l-.37-.76c-.5-1-1.13-1.9-1.88-2.71l-2.48-2.65-2.44-1.7a.75.75 0 01-.32-.62c0-1.24.64-2.1 1.52-2.58a4.5 4.5 0 012.77-.41c.74.11 1.27.28 1.71.5V5.8c0-1.18.95-2.3 2.26-2.3.3 0 .57.06.82.16A2.21 2.21 0 0114.75 2c1.1 0 1.91.74 2.17 1.66A2.27 2.27 0 0120 5.8v.32a2.25 2.25 0 013 2.15v5.16c-.48-.17-.98-.3-1.5-.36v-4.8a.75.75 0 10-1.5 0v4.48c0 .1-.02.19-.05.27-.44.03-.87.1-1.28.2a.75.75 0 01-.17-.47V5.8c0-.45-.33-.8-.75-.8s-.75.35-.75.8v6.45a.75.75 0 11-1.5 0V4.27a.75.75 0 00-.75-.77.73.73 0 00-.75.76zM20.5 27a6.5 6.5 0 10-5.69-3.35l-.8 2.7a.5.5 0 00.63.63l2.71-.8c.94.53 2 .82 3.15.82zm-3-7.5c0-.28.22-.5.5-.5h5a.5.5 0 110 1h-5a.5.5 0 01-.5-.5zM18 22a.5.5 0 010-1h2.5a.5.5 0 110 1H18z"/></svg>