<svg width="16" height="16" viewBox="0 0 16 16" xmlns="http://www.w3.org/2000/svg"><path d="M7.5 2c.28 0 .5.22.5.5v4c0 .23.15.42.36.48.2-.14.41-.26.63-.37A.5.5 0 009 6.5v-3a.5.5 0 011 0v2.7c.32-.08.66-.15 1-.18V5.5a.5.5 0 011 0v.52c.34.03.68.1 1 .19V5.5a1.5 1.5 0 00-2-1.41V3.5a1.5 1.5 0 00-2.05-1.4 1.5 1.5 0 00-2.9 0A1.5 1.5 0 004 3.5v3.95c-.28-.17-.58-.3-.9-.35a1.7 1.7 0 00-1.08.2c-.35.2-.66.5-.94.92a.5.5 0 00.13.69l.02.01a5.33 5.33 0 01.35.28c.23.2.56.48.91.84a9.95 9.95 0 012.08 2.99c.3.72.87 1.4 1.62 1.74l.3-.97a2.36 2.36 0 01-1-1.16 10.95 10.95 0 00-2.28-3.3c-.39-.4-.74-.7-1-.91v-.01c.1-.12.2-.2.3-.24a.7.7 0 01.45-.09c.34.05.74.32 1.19.76A.5.5 0 005 8.5v-5a.5.5 0 011 0v3a.5.5 0 001 0v-4c0-.28.22-.5.5-.5zm8.5 9.5a4.5 4.5 0 01-6.68 3.94l-1.8.54a.4.4 0 01-.5-.5l.54-1.8A4.5 4.5 0 1116 11.5zM9.5 10a.5.5 0 000 1h4a.5.5 0 000-1h-4zM9 12.5c0 .28.22.5.5.5h2a.5.5 0 000-1h-2a.5.5 0 00-.5.5z"/></svg>