<svg width="16" height="16" viewBox="0 0 16 16" xmlns="http://www.w3.org/2000/svg"><path d="M4.5 13.5a.5.5 0 0 1-.5.5 2 2 0 0 1-2-2V9a.5.5 0 0 0-.5-.5.5.5 0 0 1 0-1A.5.5 0 0 0 2 7V4c0-1.1.9-2 2-2a.5.5 0 0 1 0 1 1 1 0 0 0-1 1v3c0 .38-.14.74-.38 1 .24.27.38.62.38 1v3a1 1 0 0 0 1 1c.28 0 .5.22.5.5Zm10-6A.5.5 0 0 1 14 7V4a2 2 0 0 0-2-2 .5.5 0 0 0 0 1 1 1 0 0 1 1 1v3c0 .38.14.74.38 1A1.5 1.5 0 0 0 13 9v3a1 1 0 0 1-1 1 .5.5 0 0 0 0 1 2 2 0 0 0 2-2V9c0-.28.22-.5.5-.5a.5.5 0 0 0 0-1ZM12 8a4 4 0 1 1-8 0 4 4 0 0 1 8 0Zm-1 0a3 3 0 1 0-6 0 3 3 0 0 0 6 0ZM9.15 6.65 7.5 8.29l-.65-.64a.5.5 0 0 0-.7.7l1 1a.5.5 0 0 0 .7 0l2-2a.5.5 0 0 0-.7-.7Z"/></svg>