<svg width="20" height="20" viewBox="0 0 20 20" xmlns="http://www.w3.org/2000/svg"><path d="M17 5.5A2.5 2.5 0 0 0 14.5 3h-9A2.5 2.5 0 0 0 3 5.5v9A2.5 2.5 0 0 0 5.5 17H11v-1H8v-3h3v-1H8V8h4v.5c.3-.22.63-.38 1-.45V8h4V5.5Zm-13 9V13h3v3H5.36A1.5 1.5 0 0 1 4 14.5ZM12 7H8V4h4v3Zm1-3H14.64A1.5 1.5 0 0 1 16 5.5V7h-3V4ZM4 7V5.36A1.5 1.5 0 0 1 5.5 4H7v3H4Zm3 1v4H4V8h3Zm5 2.5c0-.83.67-1.5 1.5-1.5h4c.83 0 1.5.67 1.5 1.5v7c0 .83-.67 1.5-1.5 1.5h-4a1.5 1.5 0 0 1-1.5-1.5v-7Zm2.5 2.5h-1a.5.5 0 0 0 0 1h1a.5.5 0 0 0 0-1Zm3.5.5a.5.5 0 0 0-.5-.5h-1a.5.5 0 0 0 0 1h1a.5.5 0 0 0 .5-.5ZM14.5 15h-1a.5.5 0 0 0 0 1h1a.5.5 0 0 0 0-1Zm3.5.5a.5.5 0 0 0-.5-.5h-1a.5.5 0 0 0 0 1h1a.5.5 0 0 0 .5-.5ZM14.5 17h-1a.5.5 0 0 0 0 1h1a.5.5 0 0 0 0-1Zm3.5.5a.5.5 0 0 0-.5-.5h-1a.5.5 0 0 0 0 1h1a.5.5 0 0 0 .5-.5ZM13.5 10a.5.5 0 0 0-.5.5v1c0 .28.22.5.5.5h4a.5.5 0 0 0 .5-.5v-1a.5.5 0 0 0-.5-.5h-4Z"/></svg>