<svg width="24" height="24" viewBox="0 0 24 24" xmlns="http://www.w3.org/2000/svg"><path d="M21 18.25A2.75 2.75 0 0 1 18.25 21H5.75A2.75 2.75 0 0 1 3 18.25V5.75A2.75 2.75 0 0 1 5.75 3h12.5A2.75 2.75 0 0 1 21 5.75v12.5Zm-1.5 0V5.75c0-.69-.56-1.25-1.25-1.25H5.75c-.69 0-1.25.56-1.25 1.25v12.5c0 .69.56 1.25 1.25 1.25h12.5c.69 0 1.25-.56 1.25-1.25Zm-7-4v-7.6a.75.75 0 0 0-1.5.1v7.6a.75.75 0 0 0 1.5-.1Zm-4-7.5v10.5a.75.75 0 0 1-1.5.1V6.75a.75.75 0 0 1 1.5-.1v.1Zm8 10.5V6.65a.75.75 0 0 0-1.5.1v10.6a.75.75 0 0 0 1.5-.1Z"/></svg>