<svg width="20" height="20" viewBox="0 0 20 20" xmlns="http://www.w3.org/2000/svg"><path d="M10 5.5a4.5 4.5 0 1 0 9 0 4.5 4.5 0 0 0-9 0Zm6.5-3c.28 0 .5.22.5.5v1.5a.5.5 0 0 1-.5.5H15a.5.5 0 0 1 0-1h.47a1.98 1.98 0 0 0-1.72-.1 2 2 0 0 0-.66.44.5.5 0 1 1-.71-.71A3 3 0 0 1 16 3.15V3c0-.28.22-.5.5-.5Zm-.88 5.53A3 3 0 0 1 13 7.85V8a.5.5 0 0 1-1 0V6.5c0-.28.22-.5.5-.5H14a.5.5 0 0 1 0 1h-.47a1.98 1.98 0 0 0 1.72.1 2 2 0 0 0 .66-.44.5.5 0 1 1 .71.71 3 3 0 0 1-1 .66ZM2.5 7h6.7c.1.35.24.68.4 1H2.5a.5.5 0 0 1-.09-1h.09Zm9 8a.5.5 0 0 1 .09 1H6.5a.5.5 0 0 1-.09-1h5.09Zm-7-4h9a.5.5 0 0 1 .09 1H4.5a.5.5 0 0 1-.09-1h.09Z"/></svg>