<svg width="20" height="20" viewBox="0 0 20 20" xmlns="http://www.w3.org/2000/svg"><path d="M10 3a7 7 0 0 0-6.1 10.42.5.5 0 0 1 .04.37l-.75 3.02 3.02-.75a.5.5 0 0 1 .37.05c.9.5 1.92.82 3.01.88.19.36.4.7.66 1a7.93 7.93 0 0 1-3.99-.92L2.62 18a.5.5 0 0 1-.6-.61l.9-3.64A8 8 0 1 1 18 10.26c-.3-.26-.64-.48-1-.67A7 7 0 0 0 10 3Zm2.07 8.44a2 2 0 0 1-1.44 2.48l-.46.12a4.74 4.74 0 0 0 .01 1.01l.35.09A2 2 0 0 1 12 17.66l-.13.42c.26.2.54.38.84.52l.32-.35a2 2 0 0 1 2.91 0l.34.36c.3-.13.57-.3.82-.5l-.15-.55a2 2 0 0 1 1.43-2.48l.46-.12a4.73 4.73 0 0 0-.01-1.01l-.35-.09A2 2 0 0 1 17 11.34l.13-.42c-.26-.2-.54-.38-.84-.52l-.32.35a2 2 0 0 1-2.91 0l-.34-.36c-.3.13-.57.3-.82.5l.16.55Zm2.43 4.06a1 1 0 1 1 0-2 1 1 0 0 1 0 2Z"/></svg>