<svg width="48" height="48" viewBox="0 0 48 48" xmlns="http://www.w3.org/2000/svg"><path d="M20 8c1.6 0 3.04.72 4 1.85A5.24 5.24 0 0 1 28 8h13.25A2.75 2.75 0 0 1 44 10.75v26.5A2.75 2.75 0 0 1 41.25 40H28c-1.6 0-3.04-.72-4-1.85A5.24 5.24 0 0 1 20 40H6.75A2.75 2.75 0 0 1 4 37.25v-26.5A2.75 2.75 0 0 1 6.75 8H20Zm2.75 26.75v-21.5A2.75 2.75 0 0 0 20 10.5H6.75a.25.25 0 0 0-.25.25v26.5c0 .14.11.25.25.25H20a2.75 2.75 0 0 0 2.75-2.75Zm2.5-21.5v21.5A2.75 2.75 0 0 0 28 37.5h13.25c.14 0 .25-.11.25-.25v-26.5a.25.25 0 0 0-.25-.25H28a2.75 2.75 0 0 0-2.75 2.75Z"/></svg>