<svg width="24" height="24" viewBox="0 0 24 24" xmlns="http://www.w3.org/2000/svg"><path d="M23 6.5a5.5 5.5 0 10-11 0 5.5 5.5 0 0011 0zM18 7v2.5a.5.5 0 11-1 0V7h-2.5a.5.5 0 010-1H17V3.5a.5.5 0 011 0V6h2.5a.5.5 0 010 1H18zm2.5 7.75v-2.48a6.52 6.52 0 001.5-1.08v3.56c0 1.8-1.46 3.25-3.25 3.25h-5.74L8 21.75a1.25 1.25 0 01-2-1V18h-.75A3.25 3.25 0 012 14.75v-8.5C2 4.45 3.46 3 5.25 3h6.77c-.3.46-.53.97-.7 1.5H5.24c-.97 0-1.75.78-1.75 1.75v8.5c0 .97.78 1.75 1.75 1.75H7.5v3.75l5.01-3.75h6.24c.97 0 1.75-.78 1.75-1.75z"/></svg>