<svg width="24" height="24" viewBox="0 0 24 24" xmlns="http://www.w3.org/2000/svg"><path d="M9.5 13.75c0-.14.11-.25.25-.25h4.5c.14 0 .25.11.25.25v2.5c0 .14-.11.25-.25.25h-4.5a.25.25 0 01-.25-.25v-2.5zM10.25 2h3.5c1.16 0 2.11.87 2.24 2h1.76C18.99 4 20 5 20 6.25v13.5c0 1.24-1 2.25-2.25 2.25H6.25C5.01 22 4 21 4 19.75V6.25C4 5.01 5 4 6.25 4h1.76c.13-1.13 1.08-2 2.24-2zm3.5 1.5h-3.5a.75.75 0 000 1.5h3.5a.75.75 0 000-1.5zM8 9.75c0 .41.34.75.75.75h6.5a.75.75 0 000-1.5h-6.5a.75.75 0 00-.75.75zM9.75 12C8.78 12 8 12.78 8 13.75v2.5c0 .97.78 1.75 1.75 1.75h4.5c.97 0 1.75-.78 1.75-1.75v-2.5c0-.97-.78-1.75-1.75-1.75h-4.5z"/></svg>