<svg width="24" height="24" viewBox="0 0 24 24" xmlns="http://www.w3.org/2000/svg"><path d="M8 9.75c0-.41.34-.75.75-.75h6.5a.75.75 0 010 1.5h-6.5A.75.75 0 018 9.75zM9.75 12C8.78 12 8 12.78 8 13.75v2.5c0 .97.78 1.75 1.75 1.75h4.5c.97 0 1.75-.78 1.75-1.75v-2.5c0-.97-.78-1.75-1.75-1.75h-4.5zm-.25 1.75c0-.14.11-.25.25-.25h4.5c.14 0 .25.11.25.25v2.5c0 .14-.11.25-.25.25h-4.5a.25.25 0 01-.25-.25v-2.5zM13.75 2c1.16 0 2.11.88 2.24 2h1.76C18.99 4 20 5 20 6.25v13.5c0 1.24-1 2.25-2.25 2.25H6.25C5.01 22 4 21 4 19.75V6.25C4 5.01 5 4 6.25 4h1.76c.13-1.13 1.08-2 2.24-2h3.5zm2.24 2.1l.01.15V4.1zm-2.24 2.4h-3.5c-.78 0-1.47-.4-1.87-1H6.25a.75.75 0 00-.75.75v13.5c0 .41.34.75.75.75h11.5c.41 0 .75-.34.75-.75V6.25a.75.75 0 00-.75-.75h-2.13c-.4.6-1.09 1-1.87 1zm0-3h-3.5a.75.75 0 000 1.5h3.5a.75.75 0 000-1.5z"/></svg>