<svg width="16" height="16" viewBox="0 0 16 16" xmlns="http://www.w3.org/2000/svg"><path d="M6.77 1.5a1.5 1.5 0 0 1 2.32.25l.18.28-4.24 4.24-.28-.18a1.5 1.5 0 0 1-.25-2.32L6.77 1.5Zm-.88 5.32L9.82 2.9l1.23 1.9a.5.5 0 0 0 .15.16l1.91 1.23-.04.05A5.5 5.5 0 0 0 7.42 7.8L5.9 6.82ZM6 11.5c0-1.06.3-2.05.82-2.89l-.94-.6-4.44 4.43a1.5 1.5 0 1 0 2.12 2.12l2.47-2.47c-.02-.2-.03-.39-.03-.59Zm1 0a4.5 4.5 0 1 0 9 0 4.5 4.5 0 0 0-9 0Zm1 0a3.5 3.5 0 0 1 5.6-2.8l-4.9 4.9a3.48 3.48 0 0 1-.7-2.1Zm3.5 3.5c-.79 0-1.51-.26-2.1-.7l4.9-4.9a3.5 3.5 0 0 1-2.8 5.6Z"/></svg>