<svg width="16" height="16" viewBox="0 0 16 16" xmlns="http://www.w3.org/2000/svg"><path d="m8.24 2.23.3.46-2.79 2.79-.46-.3a.5.5 0 0 1-.08-.77l2.26-2.26a.5.5 0 0 1 .77.08Zm-.02 4.85L6.61 6.04 9.1 3.55l1.12 1.73c.12.18.27.33.45.45l.44.28a5.58 5.58 0 0 1 2.39.36L11.2 4.9a.54.54 0 0 1-.15-.15L9.08 1.69h.01a1.5 1.5 0 0 0-2.32-.25L4.5 3.7a1.5 1.5 0 0 0 .25 2.32l1.42.92-4.58 4.59a2 2 0 0 0 2.83 2.83l1.7-1.7A5.52 5.52 0 0 1 6 11.35l-2.3 2.3a1 1 0 1 1-1.41-1.41l4.74-4.73.42.27.77-.7ZM7 11.5a4.5 4.5 0 1 0 9 0 4.5 4.5 0 0 0-9 0Zm1 0a3.5 3.5 0 0 1 5.6-2.8l-4.9 4.9a3.48 3.48 0 0 1-.7-2.1Zm3.5 3.5c-.79 0-1.51-.26-2.1-.7l4.9-4.9a3.5 3.5 0 0 1-2.8 5.6Z"/></svg>