<svg width="20" height="20" viewBox="0 0 20 20" xmlns="http://www.w3.org/2000/svg"><path d="M6.67 7.59a1.5 1.5 0 0 1-.23-2.3l2.84-2.85a1.5 1.5 0 0 1 2.28.19l.47.65L7.3 8.01l-.63-.42Zm1.48 1 4.47-4.49 1.33 1.84a.5.5 0 0 0 .1.11l1.85 1.33L14.27 9a5.48 5.48 0 0 0-3.67 1.63l-.44-.65a.5.5 0 0 0-.14-.14L8.15 8.58Zm7.43.52c.87.17 1.66.54 2.32 1.07a1.5 1.5 0 0 0-.53-1.74l-.65-.47-1.14 1.14ZM9.3 12.69c.16-.45.37-.87.63-1.26l-.55-.81-1.2-.8-5.77 5.77a1.41 1.41 0 1 0 2 2l4.9-4.9Zm.7 1.81a4.5 4.5 0 1 0 9 0 4.5 4.5 0 0 0-9 0Zm1 0a3.5 3.5 0 0 1 5.6-2.8l-4.9 4.9a3.48 3.48 0 0 1-.7-2.1Zm3.5 3.5c-.79 0-1.51-.26-2.1-.7l4.9-4.9a3.5 3.5 0 0 1-2.8 5.6Z"/></svg>