<svg width="20" height="20" viewBox="0 0 20 20" xmlns="http://www.w3.org/2000/svg"><path d="M14.33 3.13a1.98 1.98 0 0 0-3 .22A2.4 2.4 0 0 0 9.2 7.43l1.02 1-1.07 1.08 1.36 1.36 1.07-1.07 1.01 1.02a2.4 2.4 0 0 0 4.08-2.13 1.98 1.98 0 0 0 .23-3l-.6-.6.52-.52a.97.97 0 0 0-1.37-1.37l-.52.52-.6-.6Zm.27 3.54a.5.5 0 1 1-.7.71l-1.28-1.27a.5.5 0 0 1 .7-.71l1.28 1.27ZM4.02 9.2a2.4 2.4 0 0 1 3.4 0l3.4 3.4a2.4 2.4 0 0 1-2.13 4.07 1.98 1.98 0 0 1-3 .23l-.6-.6-.54.53a.97.97 0 1 1-1.36-1.36l.54-.54-.6-.6a1.98 1.98 0 0 1 .22-3 2.4 2.4 0 0 1 .67-2.13Zm2.94 5.82a.5.5 0 0 0 0-.71L5.7 13.04a.5.5 0 0 0-.7.7l1.27 1.28c.2.2.5.2.7 0Z"/></svg>