<svg width="28" height="28" viewBox="0 0 28 28" xmlns="http://www.w3.org/2000/svg"><path d="M3 6.75A3.75 3.75 0 016.75 3H9.5v6.5H3V6.75zM3 11v6h6.5v-6H3zm0 7.5v2.75A3.75 3.75 0 006.75 25H9.5v-6.5H3zm8 6.5h2.17l.35-1.42c.16-.65.5-1.24.97-1.72l2.51-2.5v-.86h-6V25zm14-14v2.01c-.93-.08-1.9.24-2.6.95L19.35 17h-.86v-6H25zm0-1.5V6.75A3.75 3.75 0 0021.25 3H18.5v6.5H25zM17 3h-6v6.5h6V3zm0 8v6h-6v-6h6zm6.1 3.67l-7.9 7.9c-.35.35-.6.78-.7 1.25l-.47 1.83c-.2.8.53 1.52 1.32 1.32l1.83-.46c.47-.12.9-.36 1.25-.7l7.9-7.9a2.29 2.29 0 00-3.23-3.24z"/></svg>