<svg width="20" height="20" viewBox="0 0 20 20" xmlns="http://www.w3.org/2000/svg"><path d="M17 5.5A2.5 2.5 0 0 0 14.5 3h-9A2.5 2.5 0 0 0 3 5.5v9A2.5 2.5 0 0 0 5.5 17h3.72l.21-.85.05-.15H8v-3h3.94L13 11.94V8h3v1.23c.32-.14.66-.21 1-.23V5.5Zm-13 9V13h3v3H5.36A1.5 1.5 0 0 1 4 14.5ZM12 8v4H8V8h4Zm0-1H8V4h4v3Zm1-3H14.64A1.5 1.5 0 0 1 16 5.5V7h-3V4ZM4 7V5.36A1.5 1.5 0 0 1 5.5 4H7v3H4Zm3 1v4H4V8h3Zm8.8 2.55-4.82 4.83a2.2 2.2 0 0 0-.58 1.02l-.37 1.5a.89.89 0 0 0 1.08 1.07l1.5-.37c.38-.1.73-.3 1.01-.58l4.83-4.83a1.87 1.87 0 0 0-2.64-2.64ZM14.66 17 17 14.65Z"/></svg>