<svg width="28" height="28" viewBox="0 0 28 28" xmlns="http://www.w3.org/2000/svg"><path d="M3 6.75A3.75 3.75 0 016.75 3h14.5A3.75 3.75 0 0125 6.75v6.26a3.3 3.3 0 00-1.5.22V11h-5v6h.86L17 19.36v-.86h-6v5h2.54l-.02.08-.35 1.42H6.75A3.75 3.75 0 013 21.25V6.75zM4.5 18.5v2.75c0 1.24 1 2.25 2.25 2.25H9.5v-5h-5zm5-1.5v-6h-5v6h5zm7.5 0v-6h-6v6h6zm6.5-10.25c0-1.24-1-2.25-2.25-2.25H18.5v5h5V6.75zM17 4.5h-6v5h6v-5zm-7.5 0H6.75c-1.24 0-2.25 1-2.25 2.25V9.5h5v-5zm13.6 10.17l-7.9 7.9c-.35.35-.6.78-.7 1.25l-.47 1.83c-.2.8.53 1.52 1.32 1.32l1.83-.46c.47-.12.9-.36 1.25-.7l7.9-7.9a2.29 2.29 0 00-3.23-3.24z"/></svg>