<svg width="28" height="28" viewBox="0 0 28 28" xmlns="http://www.w3.org/2000/svg"><path d="M3 6.75A3.75 3.75 0 0 1 6.75 3H9.5v6.5H3V6.75ZM3 11v6h6.5v-6H3Zm0 7.5v2.75A3.75 3.75 0 0 0 6.75 25H9.5v-6.5H3Zm8 6.5h2.17l.35-1.42c.16-.65.5-1.24.97-1.72l2.51-2.5v-.86h-6V25Zm14-14v2.01c-.93-.08-1.9.24-2.6.95L19.35 17h-.86v-6H25Zm0-1.5V6.75A3.75 3.75 0 0 0 21.25 3H18.5v6.5H25ZM17 3h-6v6.5h6V3Zm0 8v6h-6v-6h6Zm6.1 3.67-7.9 7.9c-.35.35-.6.78-.7 1.25l-.47 1.83c-.2.8.53 1.52 1.32 1.32l1.83-.46c.47-.12.9-.36 1.25-.7l7.9-7.9a2.29 2.29 0 0 0-3.23-3.24Z"/></svg>