<svg width="48" height="48" viewBox="0 0 48 48" xmlns="http://www.w3.org/2000/svg"><path d="M41.97 6.02a6.9 6.9 0 0 0-9.76 0L8.04 30.2a6 6 0 0 0-1.57 2.75l-2.43 9.49a1.25 1.25 0 0 0 1.52 1.52l9.49-2.42a6 6 0 0 0 2.76-1.58l2.44-2.44a13.07 13.07 0 0 1-.23-3.31l-3.98 3.99c-.45.44-1 .76-1.61.91l-7.45 1.9 1.9-7.44c.16-.6.48-1.16.93-1.6L30 11.76 36.23 18l-4.02 4.02a13.2 13.2 0 0 1 3.31.22l6.45-6.45a6.9 6.9 0 0 0 0-9.77Zm-8 1.77a4.4 4.4 0 0 1 6.24 6.23L38 16.23 31.77 10l2.2-2.2ZM33 46a11 11 0 1 0 0-22 11 11 0 0 0 0 22Zm0-2.5c-1.9 0-3.65-.62-5.06-1.67l11.89-11.9A8.5 8.5 0 0 1 33 43.5Zm5.06-15.33-11.89 11.9a8.5 8.5 0 0 1 11.9-11.9Z"/></svg>