<svg width="20" height="20" viewBox="0 0 20 20" xmlns="http://www.w3.org/2000/svg"><path d="M5.77 3.17a7.82 7.82 0 0 1 7.93-.18c3.97 2.04 5.5 6.16 4.18 10.44a7.46 7.46 0 0 1-2.37 3.59 4.32 4.32 0 0 1-4.2.8 3.84 3.84 0 0 1-2.2-1.68c-.41-.7-.53-1.47-.58-2.14l-.04-.58-.02-.37c-.02-.3-.05-.55-.1-.76a1.16 1.16 0 0 0-.2-.47.75.75 0 0 0-.4-.24 1.86 1.86 0 0 0-1.15-.04c-.25.08-.45.2-.69.35l-.2.12c-.31.18-.72.4-1.23.37a2.91 2.91 0 0 1-1.66-.77 2.63 2.63 0 0 1-.94-2.12c0-.79.25-1.63.62-2.43a9.6 9.6 0 0 1 3.25-3.9Zm3.98 3.58a1 1 0 1 0 0-2 1 1 0 0 0 0 2Zm3 1a1 1 0 1 0 0-2 1 1 0 0 0 0 2ZM15.5 9a1 1 0 1 0-2 0 1 1 0 0 0 2 0Zm-1 4a1 1 0 1 0 0-2 1 1 0 0 0 0 2Zm-1 1a1 1 0 1 0-2 0 1 1 0 0 0 2 0Z"/></svg>