<svg width="20" height="20" viewBox="0 0 20 20" xmlns="http://www.w3.org/2000/svg"><path d="M5.5 5a.5.5 0 0 0 0 1h9a.5.5 0 0 0 0-1h-9Zm1 6a1.5 1.5 0 1 0 0-3 1.5 1.5 0 0 0 0 3Zm0-1a.5.5 0 1 1 0-1 .5.5 0 0 1 0 1ZM8 13.5a1.5 1.5 0 1 1-3 0 1.5 1.5 0 0 1 3 0Zm-1 0a.5.5 0 1 0-1 0 .5.5 0 0 0 1 0Zm2-4c0-.28.22-.5.5-.5h5a.5.5 0 0 1 0 1h-5a.5.5 0 0 1-.5-.5Zm.5 3.5a.5.5 0 0 0 0 1h5a.5.5 0 0 0 0-1h-5ZM6 3a3 3 0 0 0-3 3v8a3 3 0 0 0 3 3h8a3 3 0 0 0 3-3V6a3 3 0 0 0-3-3H6ZM4 6c0-1.1.9-2 2-2h8a2 2 0 0 1 2 2v8a2 2 0 0 1-2 2H6a2 2 0 0 1-2-2V6Z"/></svg>