<svg width="48" height="48" viewBox="0 0 48 48" xmlns="http://www.w3.org/2000/svg"><path d="M21 21.5a4.5 4.5 0 11-9 0 4.5 4.5 0 019 0zm-2.5 0a2 2 0 10-4 0 2 2 0 004 0zm-2 15.5a4.5 4.5 0 100-9 4.5 4.5 0 000 9zm0-2.5a2 2 0 110-4 2 2 0 010 4zM13.25 12a1.25 1.25 0 100 2.5h21.5a1.25 1.25 0 100-2.5h-21.5zM23 21.75c0-.69.56-1.25 1.25-1.25h10.5a1.25 1.25 0 110 2.5h-10.5c-.69 0-1.25-.56-1.25-1.25zM24.25 31a1.25 1.25 0 100 2.5h10.5a1.25 1.25 0 100-2.5h-10.5zm-12-25A6.25 6.25 0 006 12.25v23.5C6 39.2 8.8 42 12.25 42h23.5C39.2 42 42 39.2 42 35.75v-23.5C42 8.8 39.2 6 35.75 6h-23.5zM8.5 12.25a3.75 3.75 0 013.75-3.75h23.5a3.75 3.75 0 013.75 3.75v23.5a3.75 3.75 0 01-3.75 3.75h-23.5a3.75 3.75 0 01-3.75-3.75v-23.5z"/></svg>