<svg width="28" height="28" viewBox="0 0 28 28" xmlns="http://www.w3.org/2000/svg"><path d="M8.5 11.5a1 1 0 1 0 0 2 1 1 0 0 0 0-2Zm-1 8a1 1 0 1 1 2 0 1 1 0 0 1-2 0ZM3 6.75A3.75 3.75 0 0 1 6.75 3h14.5A3.75 3.75 0 0 1 25 6.75v14.5A3.75 3.75 0 0 1 21.25 25H6.75A3.75 3.75 0 0 1 3 21.25V6.75Zm3 5.75a2.5 2.5 0 1 0 5 0 2.5 2.5 0 0 0-5 0ZM8.5 17a2.5 2.5 0 1 0 0 5 2.5 2.5 0 0 0 0-5Zm4.5-4.75c0 .41.34.75.75.75h7.5a.75.75 0 0 0 0-1.5h-7.5a.75.75 0 0 0-.75.75Zm.75 6.25a.75.75 0 0 0 0 1.5h7.5a.75.75 0 0 0 0-1.5h-7.5ZM6 6.75c0 .41.34.75.75.75h14.5a.75.75 0 0 0 0-1.5H6.75a.75.75 0 0 0-.75.75Z"/></svg>