<svg width="28" height="28" viewBox="0 0 28 28" xmlns="http://www.w3.org/2000/svg"><path d="M8.5 11.5a1 1 0 100 2 1 1 0 000-2zm-1 8a1 1 0 112 0 1 1 0 01-2 0zM3 6.75A3.75 3.75 0 016.75 3h14.5A3.75 3.75 0 0125 6.75v14.5A3.75 3.75 0 0121.25 25H6.75A3.75 3.75 0 013 21.25V6.75zm3 5.75a2.5 2.5 0 105 0 2.5 2.5 0 00-5 0zM8.5 17a2.5 2.5 0 100 5 2.5 2.5 0 000-5zm4.5-4.75c0 .41.34.75.75.75h7.5a.75.75 0 000-1.5h-7.5a.75.75 0 00-.75.75zm.75 6.25a.75.75 0 000 1.5h7.5a.75.75 0 000-1.5h-7.5zM6 6.75c0 .41.34.75.75.75h14.5a.75.75 0 000-1.5H6.75a.75.75 0 00-.75.75z"/></svg>