<svg width="24" height="24" viewBox="0 0 24 24" xmlns="http://www.w3.org/2000/svg"><path d="M6 10.75a2.25 2.25 0 114.5 0 2.25 2.25 0 01-4.5 0zM8.25 10a.75.75 0 100 1.5.75.75 0 000-1.5zm0 4a2.25 2.25 0 100 4.5 2.25 2.25 0 000-4.5zm-.75 2.25a.75.75 0 111.5 0 .75.75 0 01-1.5 0zm4.5-5.5c0-.41.34-.75.75-.75h4.5a.75.75 0 010 1.5h-4.5a.75.75 0 01-.75-.75zm.75 4.75a.75.75 0 000 1.5h4.5a.75.75 0 000-1.5h-4.5zM6 6.75c0-.41.34-.75.75-.75h10.5a.75.75 0 010 1.5H6.75A.75.75 0 016 6.75zM6.25 3A3.25 3.25 0 003 6.25v11.5C3 19.55 4.46 21 6.25 21h11.5c1.8 0 3.25-1.46 3.25-3.25V6.25C21 4.45 19.54 3 17.75 3H6.25zM4.5 6.25c0-.97.78-1.75 1.75-1.75h11.5c.97 0 1.75.78 1.75 1.75v11.5c0 .97-.78 1.75-1.75 1.75H6.25c-.97 0-1.75-.78-1.75-1.75V6.25z"/></svg>