<svg width="20" height="20" viewBox="0 0 20 20" xmlns="http://www.w3.org/2000/svg"><path d="M5.5 3A2.5 2.5 0 003 5.5v9A2.5 2.5 0 005.5 17h9a2.5 2.5 0 002.5-2.5v-9A2.5 2.5 0 0014.5 3h-9zM4 5.5C4 4.67 4.67 4 5.5 4h9c.83 0 1.5.67 1.5 1.5v9c0 .83-.67 1.5-1.5 1.5h-9A1.5 1.5 0 014 14.5v-9zm2 4a.5.5 0 111 0 .5.5 0 01-1 0zM6.5 8a1.5 1.5 0 100 3 1.5 1.5 0 000-3zM9 9.5c0-.28.22-.5.5-.5h5a.5.5 0 010 1h-5a.5.5 0 01-.5-.5zm-3 4a.5.5 0 111 0 .5.5 0 01-1 0zm.5-1.5a1.5 1.5 0 100 3 1.5 1.5 0 000-3zM5 5.5c0-.28.22-.5.5-.5h9a.5.5 0 010 1h-9a.5.5 0 01-.5-.5zM9.5 13a.5.5 0 000 1h5a.5.5 0 000-1h-5z"/></svg>