<svg width="24" height="24" viewBox="0 0 24 24" xmlns="http://www.w3.org/2000/svg"><path d="M5.75 3A2.75 2.75 0 003 5.75v12.5A2.75 2.75 0 005.75 21h12.5A2.75 2.75 0 0021 18.25V5.75A2.75 2.75 0 0018.25 3H5.75zm1.75 7.75a.75.75 0 111.5 0 .75.75 0 01-1.5 0zm.75-2.25a2.25 2.25 0 110 4.5 2.25 2.25 0 010-4.5zm0 7a.75.75 0 100 1.5.75.75 0 000-1.5zM6 16.25a2.25 2.25 0 114.5 0 2.25 2.25 0 01-4.5 0zM12.25 10h5a.75.75 0 010 1.5h-5a.75.75 0 010-1.5zm-.75 6.25c0-.41.34-.75.75-.75h5a.75.75 0 010 1.5h-5a.75.75 0 01-.75-.75zM6.75 6h10.5a.75.75 0 010 1.5H6.75a.75.75 0 010-1.5z"/></svg>