<svg width="28" height="28" viewBox="0 0 28 28" xmlns="http://www.w3.org/2000/svg"><path d="M6 12.5a2.5 2.5 0 115 0 2.5 2.5 0 01-5 0zm2.5-1a1 1 0 100 2 1 1 0 000-2zm0 5.5a2.5 2.5 0 100 5 2.5 2.5 0 000-5zm-1 2.5a1 1 0 112 0 1 1 0 01-2 0zm5.5-7.25c0-.41.34-.75.75-.75h7.5a.75.75 0 010 1.5h-7.5a.75.75 0 01-.75-.75zm.75 6.25a.75.75 0 000 1.5h7.5a.75.75 0 000-1.5h-7.5zM6 7.25c0-.41.34-.75.75-.75h14.5a.75.75 0 010 1.5H6.75A.75.75 0 016 7.25zM6.75 3A3.75 3.75 0 003 6.75v14.5A3.75 3.75 0 006.75 25h14.5A3.75 3.75 0 0025 21.25V6.75A3.75 3.75 0 0021.25 3H6.75zM4.5 6.75c0-1.24 1-2.25 2.25-2.25h14.5c1.24 0 2.25 1 2.25 2.25v14.5c0 1.24-1 2.25-2.25 2.25H6.75c-1.24 0-2.25-1-2.25-2.25V6.75z"/></svg>