<svg width="20" height="20" viewBox="0 0 20 20" xmlns="http://www.w3.org/2000/svg"><path d="M5.5 5a.5.5 0 000 1h9a.5.5 0 000-1h-9zm1 6a1.5 1.5 0 100-3 1.5 1.5 0 000 3zm0-1a.5.5 0 110-1 .5.5 0 010 1zM8 13.5a1.5 1.5 0 11-3 0 1.5 1.5 0 013 0zm-1 0a.5.5 0 10-1 0 .5.5 0 001 0zm2-4c0-.28.22-.5.5-.5h5a.5.5 0 010 1h-5a.5.5 0 01-.5-.5zm.5 3.5a.5.5 0 000 1h5a.5.5 0 000-1h-5zM6 3a3 3 0 00-3 3v8a3 3 0 003 3h8a3 3 0 003-3V6a3 3 0 00-3-3H6zM4 6c0-1.1.9-2 2-2h8a2 2 0 012 2v8a2 2 0 01-2 2H6a2 2 0 01-2-2V6z"/></svg>