<svg width="48" height="48" viewBox="0 0 48 48" xmlns="http://www.w3.org/2000/svg"><path d="M11.25 6A5.25 5.25 0 006 11.25v25.5C6 39.65 8.35 42 11.25 42h25.5c2.9 0 5.25-2.35 5.25-5.25v-25.5C42 8.35 39.65 6 36.75 6h-25.5zm1.25 15.5a2 2 0 114 0 2 2 0 01-4 0zm2-4.5a4.5 4.5 0 110 9 4.5 4.5 0 010-9zm0 14.5a2 2 0 100 4 2 2 0 000-4zm-4.5 2a4.5 4.5 0 119 0 4.5 4.5 0 01-9 0zM22.25 20h14.5a1.25 1.25 0 110 2.5h-14.5a1.25 1.25 0 110-2.5zM21 33.25c0-.69.56-1.25 1.25-1.25h14.5a1.25 1.25 0 110 2.5h-14.5c-.69 0-1.25-.56-1.25-1.25zM11.25 11h25.5a1.25 1.25 0 110 2.5h-25.5a1.25 1.25 0 110-2.5z"/></svg>