<svg width="24" height="24" viewBox="0 0 24 24" xmlns="http://www.w3.org/2000/svg"><path d="M5.75 3A2.75 2.75 0 003 5.75v12.5A2.75 2.75 0 005.75 21h12.5A2.75 2.75 0 0021 18.25V5.75A2.75 2.75 0 0018.25 3H5.75zM4.5 5.75c0-.69.56-1.25 1.25-1.25h12.5c.69 0 1.25.56 1.25 1.25v12.5c0 .69-.56 1.25-1.25 1.25H5.75c-.69 0-1.25-.56-1.25-1.25V5.75zm3 5a.75.75 0 111.5 0 .75.75 0 01-1.5 0zm.75-2.25a2.25 2.25 0 100 4.5 2.25 2.25 0 000-4.5zm0 7a.75.75 0 100 1.5.75.75 0 000-1.5zM6 16.25a2.25 2.25 0 114.5 0 2.25 2.25 0 01-4.5 0zM12.25 10a.75.75 0 000 1.5h5a.75.75 0 000-1.5h-5zm-.75 6.25c0-.41.34-.75.75-.75h5a.75.75 0 010 1.5h-5a.75.75 0 01-.75-.75zM6.75 6a.75.75 0 000 1.5h10.5a.75.75 0 000-1.5H6.75z"/></svg>