<svg width="28" height="28" viewBox="0 0 28 28" xmlns="http://www.w3.org/2000/svg"><path d="M6.25 3A3.25 3.25 0 003 6.25v15.5C3 23.55 4.46 25 6.25 25h15.5c1.8 0 3.25-1.46 3.25-3.25V6.25C25 4.45 23.54 3 21.75 3H6.25zM4.5 6.25c0-.97.78-1.75 1.75-1.75h15.5c.97 0 1.75.78 1.75 1.75v15.5c0 .97-.78 1.75-1.75 1.75H6.25c-.97 0-1.75-.78-1.75-1.75V6.25zm3 6.25a1 1 0 112 0 1 1 0 01-2 0zm1-2.5a2.5 2.5 0 100 5 2.5 2.5 0 000-5zm0 8.5a1 1 0 100 2 1 1 0 000-2zm-2.5 1a2.5 2.5 0 115 0 2.5 2.5 0 01-5 0zm6.75-8a.75.75 0 000 1.5h8.5a.75.75 0 000-1.5h-8.5zM12 19.25c0-.41.34-.75.75-.75h8.5a.75.75 0 010 1.5h-8.5a.75.75 0 01-.75-.75zM6.75 6a.75.75 0 000 1.5h14.5a.75.75 0 000-1.5H6.75z"/></svg>