<svg width="24" height="24" viewBox="0 0 24 24" xmlns="http://www.w3.org/2000/svg"><path d="M11.97 4a4.07 4.07 0 00-3.9 2.88l-.04.15a.75.75 0 101.44.44l.04-.15a2.57 2.57 0 012.46-1.82 2.5 2.5 0 11.03 5H2.75a.75.75 0 000 1.5H12a4 4 0 10-.03-8zm7.1 6c-1.26 0-2.38.82-2.78 2.01a.75.75 0 001.42.48 1.43 1.43 0 012.79.44V13c0 .83-.67 1.5-1.5 1.5H2.75a.75.75 0 000 1.5h12.5a1.25 1.25 0 110 2.5h-.13c-.4 0-.77-.23-.95-.58a.75.75 0 00-1.34.67A2.56 2.56 0 0015.12 20h.13a2.75 2.75 0 002.45-4H19a3 3 0 003-3v-.07A2.93 2.93 0 0019.07 10zM5 5a1 1 0 11-2 0 1 1 0 012 0zm4 16a1 1 0 100-2 1 1 0 000 2zM20 6a1 1 0 11-2 0 1 1 0 012 0z"/></svg>