<svg width="48" height="48" viewBox="0 0 48 48" xmlns="http://www.w3.org/2000/svg"><path d="M22.5 6a8.5 8.5 0 00-8.5 8.5 1.5 1.5 0 003 0 5.5 5.5 0 115.5 5.5h-17a1.5 1.5 0 000 3h17a8.5 8.5 0 000-17zm14.9 12a6.5 6.5 0 00-6.3 4.92l-.06.22a1.5 1.5 0 102.92.72l.05-.2A3.5 3.5 0 0137.4 21h.09a3.5 3.5 0 110 7h-32a1.5 1.5 0 000 3H30a3 3 0 11-2.77 4.15l-.1-.23a1.5 1.5 0 10-2.76 1.16l.1.23A6 6 0 1035.2 31h2.3a6.5 6.5 0 100-13h-.1zM17.5 42a2.5 2.5 0 100-5 2.5 2.5 0 000 5zM10 9.5a2.5 2.5 0 11-5 0 2.5 2.5 0 015 0zM38.5 14a2.5 2.5 0 100-5 2.5 2.5 0 000 5z"/></svg>