<svg width="48" height="48" viewBox="0 0 48 48" xmlns="http://www.w3.org/2000/svg"><path d="M23 7c-4.3 0-7.83 3.4-8 7.7a1.25 1.25 0 002.5.1 5.51 5.51 0 115.5 5.7H5.25a1.25 1.25 0 100 2.5H23a8 8 0 100-16zm14.99 11.5a6.03 6.03 0 00-5.86 4.56l-.1.39a1.25 1.25 0 002.43.6l.1-.38A3.53 3.53 0 0137.99 21a3.5 3.5 0 11.01 7H5.25a1.25 1.25 0 100 2.5H30c1.64 0 3 1.37 3 3.04a2.92 2.92 0 01-5.54 1.35l-.1-.2a1.25 1.25 0 10-2.23 1.12l.1.2a5.42 5.42 0 0010.27-2.47c0-1.12-.33-2.16-.9-3.04H38a6 6 0 10-.01-12zM18 41a2 2 0 100-4 2 2 0 000 4zm-8-31a2 2 0 11-4 0 2 2 0 014 0zm28 4a2 2 0 100-4 2 2 0 000 4z"/></svg>