<svg width="20" height="20" viewBox="0 0 20 20" xmlns="http://www.w3.org/2000/svg"><path d="M4 5c0-1 .88-1.76 1.9-2.22 1.3-.54 2.7-.8 4.1-.78 1.4-.03 2.8.24 4.1.78C15.13 3.24 16 3.99 16 5v3.06a2.05 2.05 0 00-1 0V6.7c-.28.2-.58.38-.9.52-1.3.54-2.7.8-4.1.78-1.4.03-2.8-.24-4.1-.78A4.92 4.92 0 015 6.7V15c0 .37.36.87 1.32 1.31A9.2 9.2 0 0010 17c0 .36.1.7.28 1H10c-1.4.03-2.8-.24-4.1-.78C4.87 16.75 4 16.01 4 15V5zm1 0c0 .37.36.87 1.32 1.31A9.2 9.2 0 0010 7a9.2 9.2 0 003.68-.69C14.64 5.87 15 5.37 15 5c0-.37-.36-.88-1.32-1.31A9.2 9.2 0 0010 3a9.2 9.2 0 00-3.68.69C5.36 4.12 5 4.63 5 5zm9.6 4.55l-3.5 7A1 1 0 0012 18h7a1 1 0 00.9-1.45l-3.5-7a1 1 0 00-1.8 0zM16 11.5v3a.5.5 0 11-1 0v-3a.5.5 0 111 0zm-.5 5.5a.5.5 0 110-1 .5.5 0 010 1z"/></svg>