<svg width="24" height="24" viewBox="0 0 24 24" xmlns="http://www.w3.org/2000/svg"><path d="M15.5 11.75a.75.75 0 0 0-1.5 0v2a.75.75 0 0 0 1.5 0v-2ZM11.75 11c.41 0 .75.34.75.75v2a.75.75 0 0 1-1.5 0v-2c0-.41.34-.75.75-.75Zm-2.25.75a.75.75 0 0 0-1.5 0v2a.75.75 0 0 0 1.5 0v-2ZM5.75 15.5c.41 0 .75.34.75.75v2.5a.75.75 0 0 1-1.5 0v-2.5c0-.41.34-.75.75-.75Zm13.25.75a.75.75 0 0 0-1.5 0v2.5a.75.75 0 0 0 1.5 0v-2.5ZM11.75 2h3.75c.28 0 .5.22.5.5v2a.5.5 0 0 1-.5.5h-3v1.02A7 7 0 0 1 19 13h.75c1.24 0 2.25 1 2.25 2.25v6c0 .41-.34.75-.75.75H2.75a.75.75 0 0 1-.75-.75v-6C2 14.01 3 13 4.25 13H5a7 7 0 0 1 6-6.93V2.75c0-.41.34-.75.75-.75ZM12 7.5A5.5 5.5 0 0 0 6.5 13v.75c0 .41-.34.75-.75.75h-1.5a.75.75 0 0 0-.75.75v5.25h6v-2.75c0-.41.34-.75.75-.75h3.5c.41 0 .75.34.75.75v2.75h6v-5.25a.75.75 0 0 0-.75-.75h-1.5a.75.75 0 0 1-.75-.75V13A5.5 5.5 0 0 0 12 7.5Zm1 11h-2v2h2v-2Z"/></svg>