<svg width="32" height="32" viewBox="0 0 32 32" xmlns="http://www.w3.org/2000/svg"><path d="M21 14a1 1 0 1 0-2 0v3a1 1 0 1 0 2 0v-3Zm-5-1a1 1 0 0 1 1 1v3a1 1 0 1 1-2 0v-3a1 1 0 0 1 1-1Zm-3 1a1 1 0 1 0-2 0v3a1 1 0 1 0 2 0v-3Zm-5 6a1 1 0 0 1 1 1v3a1 1 0 0 1-2 0v-3a1 1 0 0 1 1-1Zm17 1a1 1 0 1 0-2 0v3a1 1 0 0 0 2 0v-3ZM16 2h4.67c.37 0 .66.3.66.67v2.66c0 .37-.3.67-.66.67H17v1.05A9 9 0 0 1 25 16h2a3 3 0 0 1 3 3v9a1 1 0 0 1-1 1H3a1 1 0 0 1-1-1v-9a3 3 0 0 1 3-3h2a9 9 0 0 1 8-8.95V3a1 1 0 0 1 1-1Zm0 7a7 7 0 0 0-7 7v1a1 1 0 0 1-1 1H5a1 1 0 0 0-1 1v8h8.5v-3a1 1 0 0 1 1-1h5a1 1 0 0 1 1 1v3H28v-8a1 1 0 0 0-1-1h-3a1 1 0 0 1-1-1v-1a7 7 0 0 0-7-7Zm1.5 16h-3v2h3v-2Z"/></svg>