<svg width="24" height="24" viewBox="0 0 24 24" xmlns="http://www.w3.org/2000/svg"><path d="M23 6.5a5.5 5.5 0 11-11 0 5.5 5.5 0 0111 0zM17.5 3a.5.5 0 00-.5.5v4a.5.5 0 001 0v-4a.5.5 0 00-.5-.5zm0 7.13a.62.62 0 100-1.25.62.62 0 000 1.24zm3 4.62v-2.48a6.52 6.52 0 001.5-1.08v3.56c0 1.8-1.46 3.25-3.25 3.25h-5.74L8 21.75a1.25 1.25 0 01-2-1V18h-.75A3.25 3.25 0 012 14.75v-8.5C2 4.45 3.46 3 5.25 3h6.77c-.3.46-.53.97-.7 1.5H5.24c-.97 0-1.75.78-1.75 1.75v8.5c0 .97.78 1.75 1.75 1.75H7.5v3.75l5.01-3.75h6.24c.97 0 1.75-.78 1.75-1.75z"/></svg>