<svg width="16" height="16" viewBox="0 0 16 16" xmlns="http://www.w3.org/2000/svg"><path d="M9 2.5c0-.28.22-.5.5-.5h5a.5.5 0 0 1 0 1h-5a.5.5 0 0 1-.5-.5Zm0 2c0-.28.22-.5.5-.5h5a.5.5 0 0 1 0 1h-5a.5.5 0 0 1-.5-.5Zm0 2c0-.28.22-.5.5-.5h5a.5.5 0 0 1 0 1h-5a.5.5 0 0 1-.5-.5ZM4 3h4.09c.06.19.16.36.3.5a1.5 1.5 0 0 0-.3.5H4a1 1 0 0 0-1 1v.74l5 2.7.98-.53c.16.06.34.09.52.09h1.41L8.24 9.44a.5.5 0 0 1-.48 0L3 6.88V11a1 1 0 0 0 1 1h8a1 1 0 0 0 1-1V8h1v3a2 2 0 0 1-2 2H4a2 2 0 0 1-2-2V5c0-1.1.9-2 2-2Z"/></svg>