<svg width="24" height="24" viewBox="0 0 24 24" xmlns="http://www.w3.org/2000/svg"><path d="M7 5v2H5.5C4.67 7 4 7.67 4 8.5V18a4 4 0 0 0 4 4h4.17c-.31-.65-.2-1.45.34-1.99l.71-.7A4 4 0 0 1 13 18v-.34a3.5 3.5 0 0 1 0-6.32V5a3 3 0 0 0-.16-.96A1.5 1.5 0 0 1 15.5 5v2h-1v4a3.5 3.5 0 0 1 3.5 3.5v.03l2-2V8.5c0-.83-.67-1.5-1.5-1.5H17V5a3 3 0 0 0-5-2.24A3 3 0 0 0 7 5Zm1.5 2V5a1.5 1.5 0 1 1 3 0v2h-3Zm6 10a2.5 2.5 0 1 0 0-5 2.5 2.5 0 0 0 0 5Zm0-3.5a1 1 0 1 1 0 2 1 1 0 0 1 0-2Zm6 9.5a2.5 2.5 0 1 0 0-5 2.5 2.5 0 0 0 0 5Zm0-3.5a1 1 0 1 1 0 2 1 1 0 0 1 0-2Zm1.28-5.22a.75.75 0 1 0-1.06-1.06l-7.5 7.5a.75.75 0 1 0 1.06 1.06l7.5-7.5Z"/></svg>