<svg width="24" height="24" viewBox="0 0 24 24" xmlns="http://www.w3.org/2000/svg"><path d="m8.04 4.58 2.95 2.55c.17.15.26.35.26.57v7.8h-2.5a.75.75 0 0 0-.75.75v3.25H4.75a.25.25 0 0 1-.25-.25V7.7c0-.22.1-.42.26-.57L7.7 4.58c.1-.08.23-.08.33 0ZM11.25 17v2.5H9.5V17h1.75Zm1.5 0h1.75v2.5h-1.75V17ZM16 19.5v-3.25a.75.75 0 0 0-.75-.75h-2.5V7.7c0-.22.1-.42.26-.57l2.95-2.55c.1-.08.23-.08.33 0l2.95 2.55c.17.15.26.35.26.57v11.55c0 .14-.11.25-.25.25H16ZM4.75 21h14.5c.97 0 1.75-.78 1.75-1.75V7.7c0-.65-.28-1.27-.78-1.7l-2.95-2.56a1.75 1.75 0 0 0-2.3 0L12.04 6l-.03.02-.03-.02-2.95-2.56a1.75 1.75 0 0 0-2.3 0L3.79 6C3.28 6.43 3 7.05 3 7.7v11.55c0 .97.78 1.75 1.75 1.75ZM8.88 9a1 1 0 1 1-2 0 1 1 0 0 1 2 0Zm-1 5a1 1 0 1 0 0-2 1 1 0 0 0 0 2Zm8.24-4a1 1 0 1 1 0-2 1 1 0 0 1 0 2Zm-1 3a1 1 0 1 0 2 0 1 1 0 0 0-2 0Z"/></svg>