<svg width="32" height="32" viewBox="0 0 32 32" xmlns="http://www.w3.org/2000/svg"><path d="M8.7 3.47a2 2 0 0 1 2.6 0l4.64 3.93a3 3 0 0 1 .06.05 3 3 0 0 1 .06-.05l4.65-3.93a2 2 0 0 1 2.58 0l4.65 3.93A3 3 0 0 1 29 9.69V26a3 3 0 0 1-3 3H6a3 3 0 0 1-3-3V9.69a3 3 0 0 1 1.06-2.3l4.65-3.92ZM15 27v-4h-3v4h3Zm0-6V9.69a1 1 0 0 0-.35-.76L10 5 5.35 8.93a1 1 0 0 0-.35.76V26a1 1 0 0 0 1 1h4v-5a1 1 0 0 1 1-1h4Zm2 6h3v-4h-3v4Zm0-6h4a1 1 0 0 1 1 1v5h4a1 1 0 0 0 1-1V9.69a1 1 0 0 0-.35-.76L22 5l-4.65 3.93a1 1 0 0 0-.35.76V21Zm-5.75-9a1.25 1.25 0 1 1-2.5 0 1.25 1.25 0 0 1 2.5 0ZM22 13.25a1.25 1.25 0 1 1 0-2.5 1.25 1.25 0 0 1 0 2.5ZM11.25 17a1.25 1.25 0 1 1-2.5 0 1.25 1.25 0 0 1 2.5 0ZM22 18.25a1.25 1.25 0 1 1 0-2.5 1.25 1.25 0 0 1 0 2.5Z"/></svg>