<svg width="20" height="20" viewBox="0 0 20 20" xmlns="http://www.w3.org/2000/svg"><path d="M7 2.5c0-.28.22-.5.5-.5h4a.5.5 0 010 1h-4a.5.5 0 01-.5-.5zm7.45 1.43c.2-.2.51-.2.7 0l1.42 1.41a.5.5 0 11-.7.71l-1.42-1.41a.5.5 0 010-.71zM16.5 11l-.01.4A3 3 0 0012 14c0 .5.24.93.6 1.2-.38.5-.6 1.12-.6 1.8v.54A6.98 6.98 0 012.5 11a7 7 0 0114 0zM9 6.5v5a.5.5 0 001 0v-5a.5.5 0 00-1 0zm6 5.5a2 2 0 00-2 2 .5.5 0 001 0 1 1 0 111 1 2 2 0 00-2 2v.5c0 .28.22.5.5.5h3a.5.5 0 000-1H14a1 1 0 011-1 2 2 0 100-4z"/></svg>