<svg width="24" height="24" viewBox="0 0 24 24" xmlns="http://www.w3.org/2000/svg"><path d="M20.4 12.16a8.5 8.5 0 10-5.4 9.3v-.21c0-1.31.6-2.48 1.53-3.26A1.75 1.75 0 0115 16.25a4.25 4.25 0 015.4-4.1zm-9.14-3.51a.75.75 0 011.48 0l.01.1v4.6a.75.75 0 01-1.5 0V8.65zm8-3.47l-.09-.06a.75.75 0 00-.9 1.2l1.15 1 .08.06a.75.75 0 00.9-1.2l-1.15-1zM15 3.25a.75.75 0 00-.75-.75h-4.6a.75.75 0 00.1 1.5h4.6a.75.75 0 00.65-.75zM19.25 13A3.25 3.25 0 0016 16.25a.75.75 0 001.5 0A1.75 1.75 0 1119.25 18 3.25 3.25 0 0016 21.25v1c0 .41.34.75.75.75h5a.75.75 0 000-1.5H17.5v-.25c0-.97.78-1.75 1.75-1.75a3.25 3.25 0 000-6.5z"/></svg>