<svg width="24" height="24" viewBox="0 0 24 24" xmlns="http://www.w3.org/2000/svg"><path d="M5.25 5A3.25 3.25 0 002 8.25v7.5C2 17.55 3.46 19 5.25 19H11v-1.5H5.25c-.97 0-1.75-.78-1.75-1.75V11H22V8.25C22 6.45 20.54 5 18.75 5H5.25zM20.5 8.25V9.5h-17V8.25c0-.97.78-1.75 1.75-1.75h13.5c.97 0 1.75.78 1.75 1.75zm-7 6.5h.5v-1c0-.97.78-1.75 1.75-1.75h3.5c.97 0 1.75.78 1.75 1.75v1h.5c.83 0 1.5.67 1.5 1.5V18h-3v-.5a.5.5 0 00-1 0v.5h-3v-.5a.5.5 0 00-1 0v.5h-3v-1.75c0-.83.67-1.5 1.5-1.5zm2.25-1.25a.25.25 0 00-.25.25v1h4v-1a.25.25 0 00-.25-.25h-3.5zm3.25 6V19h-3v.5a.5.5 0 01-1 0V19h-3v2.5c0 .83.67 1.5 1.5 1.5h8c.83 0 1.5-.67 1.5-1.5V19h-3v.5a.5.5 0 01-1 0z"/></svg>