<svg width="24" height="24" viewBox="0 0 24 24" xmlns="http://www.w3.org/2000/svg"><path d="M11.75 2a2.75 2.75 0 0 1 2.75 2.75v14.5a2.75 2.75 0 1 1-5.5 0V4.75A2.75 2.75 0 0 1 11.75 2Zm7 5a2.75 2.75 0 0 1 2.75 2.75v9.5a2.75 2.75 0 1 1-5.5 0v-9.5A2.75 2.75 0 0 1 18.75 7Zm-14 5a2.75 2.75 0 0 1 2.75 2.75v4.5a2.75 2.75 0 0 1-5.5 0v-4.5A2.75 2.75 0 0 1 4.75 12Zm7-8.5c-.69 0-1.25.56-1.25 1.25v14.5a1.25 1.25 0 0 0 2.5 0V4.75c0-.69-.56-1.25-1.25-1.25Zm7 5c-.69 0-1.25.56-1.25 1.25v9.5a1.25 1.25 0 0 0 2.5 0v-9.5c0-.69-.56-1.25-1.25-1.25Zm-14 5c-.69 0-1.25.56-1.25 1.25v4.5a1.25 1.25 0 1 0 2.5 0v-4.5c0-.69-.56-1.25-1.25-1.25Z"/></svg>