<svg width="20" height="20" viewBox="0 0 20 20" xmlns="http://www.w3.org/2000/svg"><path d="M4 4c0-1.1.9-2 2-2h4.59c.4 0 .78.16 1.06.44l3.91 3.91c.28.28.44.67.44 1.06V16a2 2 0 0 1-2 2h-3.17a3 3 0 0 0 .17-1h3a1 1 0 0 0 1-1V8h-3.5A1.5 1.5 0 0 1 10 6.5V3H6a1 1 0 0 0-1 1v5.76a3 3 0 0 0-1-.59V4Zm7.5 3h3.3L11 3.2v3.3c0 .28.22.5.5.5ZM5 12a2 2 0 1 1-4 0 2 2 0 0 1 4 0Zm-1 0a1 1 0 1 0-2 0 1 1 0 0 0 2 0Zm6 5a2 2 0 1 1-4 0 2 2 0 0 1 4 0Zm-1 0a1 1 0 1 0-2 0 1 1 0 0 0 2 0Zm-.15-5.85c.2.2.2.5 0 .7l-6 6a.5.5 0 0 1-.7-.7l6-6c.2-.2.5-.2.7 0Z"/></svg>