<svg width="20" height="20" viewBox="0 0 20 20" xmlns="http://www.w3.org/2000/svg"><path d="M10 6.5V2H5.5C4.67 2 4 2.67 4 3.5v5.67a3 3 0 0 1 2 2.71l1.44-1.44a1.5 1.5 0 0 1 2.12 2.12L8.12 14a3 3 0 0 1 2.7 4h3.68c.83 0 1.5-.67 1.5-1.5V8h-4.5A1.5 1.5 0 0 1 10 6.5ZM5 12a2 2 0 1 1-4 0 2 2 0 0 1 4 0Zm-1 0a1 1 0 1 0-2 0 1 1 0 0 0 2 0Zm-1.15 5.85a.5.5 0 0 1-.7-.7l6-6a.5.5 0 0 1 .7.7l-6 6ZM6 17a2 2 0 0 0 2 2 2 2 0 1 0-2-2Zm2 1a1 1 0 1 1 0-2 1 1 0 0 1 0 2Zm3-11.5V2.25L15.75 7H11.5a.5.5 0 0 1-.5-.5Z"/></svg>