<svg width="48" height="48" viewBox="0 0 48 48" xmlns="http://www.w3.org/2000/svg"><path d="M16 17.77 4.62 6.38a1.25 1.25 0 1 1 1.76-1.76l37 37a1.25 1.25 0 0 1-1.76 1.76l-8.78-8.77A13.94 13.94 0 0 1 25 37.7v5.04a1.25 1.25 0 1 1-2.5 0v-5.08A14 14 0 0 1 10 23.75a1.25 1.25 0 1 1 2.5 0 11.5 11.5 0 0 0 18.56 9.08l-2.36-2.36A8 8 0 0 1 16 24v-6.23Zm10.9 10.9-8.4-8.4V24a5.5 5.5 0 0 0 8.4 4.67ZM29.5 24v.2l2.15 2.15A8 8 0 0 0 32 24V12a8 8 0 0 0-15.9-1.21l2.4 2.4V12a5.5 5.5 0 1 1 11 0v12Zm4.76 4.95 1.84 1.85c1.2-2.07 1.9-4.48 1.9-7.05a1.25 1.25 0 1 0-2.5 0c0 1.87-.45 3.64-1.24 5.2Z"/></svg>