<svg width="20" height="20" viewBox="0 0 20 20" xmlns="http://www.w3.org/2000/svg"><path d="M18 8a4 4 0 0 0-4-4h-2.1a.75.75 0 0 0 .1 1.5h2.16A2.5 2.5 0 0 1 16.5 8v.02c.52.07 1.02.28 1.45.63.03-.21.05-.43.05-.65ZM8.75 4.75A.75.75 0 0 0 8 4H5.8a4 4 0 0 0 .2 8h2.1a.75.75 0 0 0-.1-1.5H5.84a2.5 2.5 0 0 1 .16-5h2.1a.75.75 0 0 0 .65-.75Zm5 2.5h-7.6a.75.75 0 0 0 .1 1.5h7.6a.75.75 0 0 0-.1-1.5Zm-3.77 7.13 4.83-4.83a1.87 1.87 0 0 1 2.64 2.64l-4.83 4.83a2.2 2.2 0 0 1-1.02.58l-1.5.37a.89.89 0 0 1-1.07-1.08l.37-1.5c.1-.38.3-.73.58-1.01Z"/></svg>