<svg width="48" height="48" viewBox="0 0 48 48" xmlns="http://www.w3.org/2000/svg"><path d="M22 4a8 8 0 0 0-8 8v12a8 8 0 0 0 8.35 8c.22-.93.54-1.82.94-2.65A5.51 5.51 0 0 1 16.5 24V12a5.5 5.5 0 1 1 11 0v12l-.01.39c.78-.55 1.62-1.02 2.51-1.4V12a8 8 0 0 0-8-8Zm0 31.25c.03 1.68.39 3.29 1 4.76v2.74a1.25 1.25 0 1 1-2.5 0v-5.08A14 14 0 0 1 8 23.75a1.25 1.25 0 1 1 2.5 0A11.5 11.5 0 0 0 22 35.25ZM35 46a11 11 0 1 1 0-22 11 11 0 0 1 0 22Zm0-2a9 9 0 0 0 7.03-14.62L29.38 42.03A8.96 8.96 0 0 0 35 44Zm-7.03-3.38 12.65-12.65a9 9 0 0 0-12.65 12.65Z"/></svg>