<svg width="16" height="16" viewBox="0 0 16 16" xmlns="http://www.w3.org/2000/svg"><path d="M1 3.5A2.5 2.5 0 0 1 3.5 1h5A2.5 2.5 0 0 1 11 3.5V6h-1V4H2v4.5c0 .83.67 1.5 1.5 1.5H4v1h-.5A2.5 2.5 0 0 1 1 8.5v-5ZM3.5 2c-.65 0-1.2.42-1.41 1H9.9c-.2-.58-.76-1-1.41-1h-5ZM5 8.5C5 7.67 5.67 7 6.5 7h7c.83 0 1.5.67 1.5 1.5v5c0 .83-.67 1.5-1.5 1.5h-7A1.5 1.5 0 0 1 5 13.5v-5ZM6.5 8a.5.5 0 0 0-.5.5v.44l4 2 4-2V8.5a.5.5 0 0 0-.5-.5h-7ZM6 13.5c0 .28.22.5.5.5h7a.5.5 0 0 0 .5-.5v-3.44l-3.78 1.89a.5.5 0 0 1-.44 0L6 10.05v3.45Z"/></svg>