<svg width="16" height="16" viewBox="0 0 16 16" xmlns="http://www.w3.org/2000/svg"><path d="M7 6a2 2 0 0 0-2 2 1 1 0 0 0 1 1h4a1 1 0 0 0 1-1 2 2 0 0 0-2-2H7ZM6 8a1 1 0 0 1 1-1h2a1 1 0 0 1 1 1H6Zm2-7a2 2 0 0 0-2 2v.42A5 5 0 0 0 3 8v4.5A2.5 2.5 0 0 0 5.5 15h5a2.5 2.5 0 0 0 2.5-2.5V8a5 5 0 0 0-3-4.58V3a2 2 0 0 0-2-2Zm4 9H4V8a4 4 0 1 1 8 0v2Zm-6 2.5a.5.5 0 0 0 1 0V11h5v1.5c0 .83-.67 1.5-1.5 1.5h-5A1.5 1.5 0 0 1 4 12.5V11h2v1.5ZM8 3c-.34 0-.68.03-1 .1V3a1 1 0 0 1 2 0v.1c-.32-.07-.66-.1-1-.1Z"/></svg>