<svg width="24" height="24" viewBox="0 0 24 24" xmlns="http://www.w3.org/2000/svg"><path d="M17.75 2c1.2 0 2.17.93 2.24 2.1l.01.15v10.13c-.12.08-.23.17-.34.28l-3.41 3.4-.9-.9a2.24 2.24 0 0 0-1.5-.66h2.4a.75.75 0 1 0 0-1.5h-5a.75.75 0 0 0 0 1.5h2.4a2.25 2.25 0 0 0-1.5 3.84L13.83 22H6.25c-1.2 0-2.17-.93-2.24-2.1L4 19.75V4.25c0-1.19.93-2.16 2.1-2.24h11.65ZM9 7.75a1 1 0 1 0-2 0 1 1 0 0 0 2 0ZM11.25 7a.75.75 0 0 0 0 1.5h5a.75.75 0 1 0 0-1.5h-5Zm-.75 4.75c0 .41.33.75.75.75h5a.75.75 0 1 0 0-1.5h-5a.75.75 0 0 0-.75.75Zm-1.5 0a1 1 0 1 0-2 0 1 1 0 0 0 2 0Zm0 4a1 1 0 1 0-2 0 1 1 0 0 0 2 0Zm7.25 4.44 4.47-4.47a.75.75 0 1 1 1.06 1.06l-5 5a.73.73 0 0 1-.5.22.7.7 0 0 1-.07 0 .75.75 0 0 1-.5-.22l-2.49-2.5a.75.75 0 0 1 1.06-1.06l1.97 1.97Z"/></svg>