<svg width="28" height="28" viewBox="0 0 28 28" xmlns="http://www.w3.org/2000/svg"><path d="M7.25 2A3.25 3.25 0 0 0 4 5.25v17.5C4 24.55 5.46 26 7.25 26h9.57l-2.16-2.16a2.25 2.25 0 1 1 3.18-3.18l1.41 1.4 4.4-4.4c.12-.1.23-.2.35-.28V5.25C24 3.45 22.54 2 20.75 2H7.25Zm3.25 6.75a1.25 1.25 0 1 1-2.5 0 1.25 1.25 0 0 1 2.5 0Zm-1.25 6.5a1.25 1.25 0 1 1 0-2.5 1.25 1.25 0 0 1 0 2.5Zm0 5.25a1.25 1.25 0 1 1 0-2.5 1.25 1.25 0 0 1 0 2.5ZM12.75 8h6.5a.75.75 0 0 1 0 1.5h-6.5a.75.75 0 0 1 0-1.5ZM12 14c0-.41.34-.75.75-.75h6.5a.75.75 0 0 1 0 1.5h-6.5A.75.75 0 0 1 12 14Zm.75 4.5h6.5a.75.75 0 0 1 0 1.5h-6.5a.75.75 0 0 1 0-1.5Zm7.03 7.28 6-6a.75.75 0 1 0-1.06-1.06l-5.47 5.47-2.47-2.47a.75.75 0 0 0-1.06 1.06l3 3a.75.75 0 0 0 1.06 0Z"/></svg>