<svg width="24" height="24" viewBox="0 0 24 24" xmlns="http://www.w3.org/2000/svg"><path d="M5 4.25C5 3.01 6 2 7.25 2h8.5C16.99 2 18 3 18 4.25V12h3.5v3.25c0 1.8-1.46 3.25-3.25 3.25h-5.33a6.55 6.55 0 0 0 .06-1.5h3.52V4.25a.75.75 0 0 0-.75-.75h-8.5a.75.75 0 0 0-.75.75V11c-.52 0-1.02.06-1.5.17V4.25ZM18 17h.25c.97 0 1.75-.78 1.75-1.75V13.5h-2V17Zm-3.75-2.5h-1.98a6.52 6.52 0 0 0-1.08-1.5h3.06a.75.75 0 0 1 0 1.5ZM8 6.75c0-.41.34-.75.75-.75h5.5a.75.75 0 0 1 0 1.5h-5.5A.75.75 0 0 1 8 6.75Zm0 3.5c0-.41.34-.75.75-.75h5.5a.75.75 0 0 1 0 1.5h-5.5a.75.75 0 0 1-.75-.75ZM6.5 12a5.5 5.5 0 1 1 0 11 5.5 5.5 0 0 1 0-11ZM5 14.96v5.08c0 .4.46.64.79.4l3.62-2.53a.5.5 0 0 0 0-.82L5.8 14.55a.5.5 0 0 0-.79.41Z"/></svg>