<svg width="24" height="24" viewBox="0 0 24 24" xmlns="http://www.w3.org/2000/svg"><path d="M5.5 8a2.5 2.5 0 1 1 5 0 2.5 2.5 0 0 1-5 0ZM8 4a4 4 0 1 0 0 8 4 4 0 0 0 0-8Zm7.5 5a1.5 1.5 0 1 1 3 0 1.5 1.5 0 0 1-3 0ZM17 6a3 3 0 1 0 0 6 3 3 0 0 0 0-6ZM4.25 14C3.01 14 2 15 2 16.25v.28a2.07 2.07 0 0 0 .01.2c.02.14.04.32.1.53.09.42.29.98.68 1.55C3.61 19.97 5.17 21 8 21c1.82 0 3.11-.42 4.02-1.04.07-.37.25-.7.5-.96a1.74 1.74 0 0 1-.51-1.1l-.03.04c-.5.71-1.56 1.56-3.98 1.56s-3.49-.85-3.98-1.56a2.99 2.99 0 0 1-.52-1.43v-.26c0-.41.34-.75.75-.75h7.5c.1 0 .2.02.28.05a1.76 1.76 0 0 1 .4-1.45c-.22-.06-.44-.1-.68-.1h-7.5Zm8.28 2.5-.03.03v-.06l.03.03Zm1.22-2a.75.75 0 0 0 0 1.5h7.5a.75.75 0 0 0 0-1.5h-7.5Zm0 2.5a.75.75 0 0 0 0 1.5h7.5a.75.75 0 0 0 0-1.5h-7.5Zm0 2.5a.75.75 0 0 0 0 1.5h7.5a.75.75 0 0 0 0-1.5h-7.5Z"/></svg>