<svg width="20" height="20" viewBox="0 0 20 20" xmlns="http://www.w3.org/2000/svg"><path d="m16.74 10.5-6.24 6.3a.66.66 0 0 1-.95 0l-6.27-6.34a4.4 4.4 0 0 1-.02-6.19 4.3 4.3 0 0 1 6.13.02l.6.61.06-.06.54-.54.1-.1a4.3 4.3 0 0 1 6.03.11 4.4 4.4 0 0 1 .02 6.19Zm-5.76-5.18-.03.03-.2.2-.4.41a.5.5 0 0 1-.05.04l-1 1 2.32 2.31c.2.2.2.52 0 .71l-2 2a.5.5 0 0 1-.7-.7l1.64-1.65-2.31-2.32a.5.5 0 0 1 0-.7L9.29 5.6l-.61-.62a3.3 3.3 0 0 0-4.7-.01 3.4 3.4 0 0 0 0 4.78l6.05 6.1 6-6.06A3.4 3.4 0 0 0 16 5.02 3.3 3.3 0 0 0 11.3 5l-.32.32Z"/></svg>