<svg width="20" height="20" viewBox="0 0 20 20" xmlns="http://www.w3.org/2000/svg"><path d="M14.09 2H4a2 2 0 0 0-2 2v9c0 1.1.9 2 2 2h3v2H5.5a.5.5 0 0 0 0 1h9a.5.5 0 0 0 0-1H13v-2h3a2 2 0 0 0 2-2V7h-1v6a1 1 0 0 1-1 1H4a1 1 0 0 1-1-1V4a1 1 0 0 1 1-1h10v-.5c0-.18.03-.34.09-.5ZM12 17H8v-2h4v2Zm3-14.5c0-.28.22-.5.5-.5h3c.28 0 .5.22.5.5v3a.5.5 0 0 1-.5.5h-3a.5.5 0 0 1-.5-.5V5h-.78a.5.5 0 0 0-.47.34l-.55 1.63A1.5 1.5 0 0 1 11.78 8H11v1.5a.5.5 0 0 1-.5.5h-3a.5.5 0 0 1-.5-.5v-3c0-.28.22-.5.5-.5h3c.28 0 .5.22.5.5V7h.78a.5.5 0 0 0 .47-.34l.55-1.63A1.5 1.5 0 0 1 14.22 4H15V2.5ZM10 7H8v2h2V7Zm6-2h2V3h-2v2Z"/></svg>