<svg width="24" height="24" viewBox="0 0 24 24" xmlns="http://www.w3.org/2000/svg"><path d="M6.75 22a.75.75 0 01-.1-1.5H8.5V18H4.25c-1.2 0-2.17-.92-2.24-2.1L2 15.76V5.25c0-1.2.93-2.17 2.1-2.24L4.25 3h15.5c1.19 0 2.16.93 2.24 2.1v8.82a2.75 2.75 0 00-1.5-2.37v-6.3c0-.38-.27-.7-.64-.74l-.1-.01H4.25c-.38 0-.7.28-.74.65l-.01.1v10.5c0 .38.28.7.65.75H11V18h-1v2.5h1v1c0 .17.02.34.05.5h-4.3zM14 15h-.5c-.83 0-1.5.67-1.5 1.5V18h2.5v-.25a.75.75 0 011.5 0V18h3v-.25a.75.75 0 011.5 0V18H23v-1.5c0-.83-.67-1.5-1.5-1.5H21v-1c0-.97-.78-1.75-1.75-1.75h-3.5c-.97 0-1.75.78-1.75 1.75v1zm1.5-1c0-.14.11-.25.25-.25h3.5c.14 0 .25.11.25.25v1h-4v-1zM12 21.5v-2h2.5v.75a.75.75 0 001.5 0v-.75h3v.75a.75.75 0 001.5 0v-.75H23v2c0 .83-.67 1.5-1.5 1.5h-8a1.5 1.5 0 01-1.5-1.5z"/></svg>