<svg width="20" height="20" viewBox="0 0 20 20" xmlns="http://www.w3.org/2000/svg"><path d="M4 2a2 2 0 00-2 2v9c0 1.1.9 2 2 2h3v2H5.5a.5.5 0 000 1h3.55a2.51 2.51 0 01-.05-.5V17H8v-2h1v-1H4a1 1 0 01-1-1V4a1 1 0 011-1h12a1 1 0 011 1v5.5c.5.37.84.91.96 1.54l.04.01V4a2 2 0 00-2-2H4zm8 10v-.5c0-.83.67-1.5 1.5-1.5h2c.83 0 1.5.67 1.5 1.5v.5h.5c.83 0 1.5.67 1.5 1.5V15h-2v-.5a.5.5 0 00-1 0v.5h-3v-.5a.5.5 0 00-1 0v.5h-2v-1.5c0-.83.67-1.5 1.5-1.5h.5zm1-.5v.5h3v-.5a.5.5 0 00-.5-.5h-2a.5.5 0 00-.5.5zm4 5V16h2v1.5c0 .83-.67 1.5-1.5 1.5h-6a1.5 1.5 0 01-1.5-1.5V16h2v.5a.5.5 0 001 0V16h3v.5a.5.5 0 001 0z"/></svg>