<svg width="20" height="20" viewBox="0 0 20 20" xmlns="http://www.w3.org/2000/svg"><path d="M6 2a2 2 0 0 0-2 2v5c.34.02.67.07 1 .17V4a1 1 0 0 1 1-1h4v3.5c0 .83.67 1.5 1.5 1.5H15v8a1 1 0 0 1-1 1H9.45l-1 1H14a2 2 0 0 0 2-2V7.41c0-.4-.16-.78-.44-1.06l-3.91-3.91A1.5 1.5 0 0 0 10.59 2H6Zm8.8 5h-3.3a.5.5 0 0 1-.5-.5V3.2L14.8 7Zm-9.64 4.54A1.85 1.85 0 0 0 2 13H1a2.84 2.84 0 0 1 4.86-2.17l.13.14.14-.14A2.85 2.85 0 0 1 11 13h-1a1.85 1.85 0 0 0-3.15-1.46l-.5.5a.5.5 0 0 1-.7 0l-.5-.5ZM2.96 16h1.42L6 17.62 7.62 16h1.42l-2.68 2.68a.5.5 0 0 1-.71 0L2.97 16Zm1.54-4c.2 0 .36.1.45.28l1.14 2.27L7.1 13.2a.5.5 0 0 1 .76-.05l.85.85H10a.5.5 0 0 1 0 1H8.5a.5.5 0 0 1-.35-.15l-.6-.59L6.4 15.8a.5.5 0 0 1-.84-.08l-1.06-2.1-.55 1.1a.5.5 0 0 1-.45.28H2a.5.5 0 0 1 0-1h1.2l.86-1.72A.5.5 0 0 1 4.5 12Z"/></svg>