<svg width="48" height="48" viewBox="0 0 48 48" xmlns="http://www.w3.org/2000/svg"><path d="M6.5 24a17.5 17.5 0 1 1 35 0c0 5.65-2.73 7.6-4.72 7.56C34.73 31.52 32 29.38 32 24v-8.75a1.25 1.25 0 1 0-2.5 0v1.83A8.52 8.52 0 0 0 23 14c-5.1 0-9 4.62-9 10s3.9 10 9 10a8.76 8.76 0 0 0 7.55-4.56c1.28 2.88 3.58 4.57 6.17 4.62C40.73 34.15 44 30.35 44 24a20 20 0 1 0-12.8 18.66 1.25 1.25 0 1 0-.9-2.33A17.5 17.5 0 0 1 6.5 24Zm23 0c0 4.29-3.05 7.5-6.5 7.5s-6.5-3.21-6.5-7.5 3.05-7.5 6.5-7.5 6.5 3.21 6.5 7.5Z"/></svg>