<svg width="32" height="32" viewBox="0 0 32 32" xmlns="http://www.w3.org/2000/svg"><path d="M26.5 16a10.5 10.5 0 1 0-7.1 9.94c.95-.33 2.1.31 2.1 1.43 0 .58-.35 1.13-.93 1.34A13.5 13.5 0 1 1 29.5 16v.28c.08 3.23-2.02 6.21-5.5 6.21-1.69 0-3.2-.76-4.2-1.96a5.77 5.77 0 0 1-4.3 1.96c-3.35 0-6-2.95-6-6.5s2.65-6.5 6-6.5c1.14 0 2.2.34 3.1.94a1.5 1.5 0 0 1 2.9.56v6a2.5 2.5 0 0 0 2.5 2.5c1.16 0 2.11-.8 2.38-1.88.08-.54.12-1.08.12-1.62Zm-11 3.5c1.46 0 3-1.36 3-3.5 0-2.14-1.54-3.5-3-3.5s-3 1.36-3 3.5c0 2.14 1.54 3.5 3 3.5Z"/></svg>