<svg width="20" height="20" viewBox="0 0 20 20" xmlns="http://www.w3.org/2000/svg"><path d="M6 3.5a.5.5 0 10-1 0v7a.5.5 0 001 0V6h.25a.5.5 0 100-1H6V3.5zM1.5 4a.5.5 0 000 1h1.98a4.62 4.62 0 01-.43 1.66 2.42 2.42 0 01-1.67 1.35.5.5 0 00.24.98A3.42 3.42 0 003.94 7.1c.43-.85.56-1.81.56-2.61A.5.5 0 004 4H1.5zm10-1c.28 0 .5.22.5.5V5h.25a.5.5 0 110 1H12v4.5a.5.5 0 11-1 0v-7c0-.28.22-.5.5-.5zm6.5.5a.5.5 0 10-1 0v7a.5.5 0 001 0V6h.25a.5.5 0 100-1H18V3.5zM9.23 4.65a.5.5 0 00-.96-.3l-1.25 4A.5.5 0 007.6 9l2.5-.5a.5.5 0 10-.2-.98l-1.67.33 1-3.2zm4.27-.15c0-.28.22-.5.5-.5h1.5a.5.5 0 110 1h-1v2.86l1.38-.35a.5.5 0 01.24.98l-2 .5a.5.5 0 01-.62-.49v-4zm.39 8.31a.5.5 0 10-.78-.62l-3.65 4.56L7.6 14.9a.5.5 0 00-.7.7l2.25 2.25a.5.5 0 00.74-.04l4-5z"/></svg>