<svg width="20" height="20" viewBox="0 0 20 20" xmlns="http://www.w3.org/2000/svg"><path d="M6 3.5a.5.5 0 1 0-1 0v7a.5.5 0 0 0 1 0V6h.25a.5.5 0 1 0 0-1H6V3.5ZM1.5 4a.5.5 0 0 0 0 1h1.98a4.62 4.62 0 0 1-.43 1.66 2.42 2.42 0 0 1-1.67 1.35.5.5 0 0 0 .24.98A3.42 3.42 0 0 0 3.94 7.1c.43-.85.56-1.81.56-2.61A.5.5 0 0 0 4 4H1.5Zm10-1c.28 0 .5.22.5.5V5h.25a.5.5 0 1 1 0 1H12v4.5a.5.5 0 1 1-1 0v-7c0-.28.22-.5.5-.5Zm6.5.5a.5.5 0 1 0-1 0v7a.5.5 0 0 0 1 0V6h.25a.5.5 0 1 0 0-1H18V3.5ZM9.23 4.65a.5.5 0 0 0-.96-.3l-1.25 4A.5.5 0 0 0 7.6 9l2.5-.5a.5.5 0 1 0-.2-.98l-1.67.33 1-3.2Zm4.27-.15c0-.28.22-.5.5-.5h1.5a.5.5 0 1 1 0 1h-1v2.86l1.38-.35a.5.5 0 0 1 .24.98l-2 .5a.5.5 0 0 1-.62-.49v-4Zm.39 8.31a.5.5 0 1 0-.78-.62l-3.65 4.56L7.6 14.9a.5.5 0 0 0-.7.7l2.25 2.25a.5.5 0 0 0 .74-.04l4-5Z"/></svg>