<svg width="20" height="20" viewBox="0 0 20 20" xmlns="http://www.w3.org/2000/svg"><path d="M5.25 3c.41 0 .75.34.75.75V5h.25a.75.75 0 010 1.5H6v3.75a.75.75 0 01-1.5 0v-6.5c0-.41.34-.75.75-.75zM0 4.75C0 4.34.34 4 .75 4h2.5c.41 0 .75.34.75.75 0 .74-.14 1.65-.6 2.46A3.61 3.61 0 01.9 8.98a.75.75 0 01-.3-1.46 2.12 2.12 0 001.5-1.05c.16-.3.27-.63.33-.97H.75A.75.75 0 010 4.75zm12.5-1a.75.75 0 10-1.5 0v6.5a.75.75 0 001.5 0V6.5h.25a.75.75 0 100-1.5h-.25V3.75zM18.25 3c.41 0 .75.34.75.75V5h.25a.75.75 0 010 1.5H19v3.75a.75.75 0 01-1.5 0v-6.5c0-.41.34-.75.75-.75zM9.47 4.96a.75.75 0 10-1.44-.42l-1 3.5a.75.75 0 00.9.94l2-.5a.75.75 0 10-.36-1.46l-.74.19.64-2.25zM14 4.75c0-.41.34-.75.75-.75h1a.75.75 0 110 1.5h-.25v1.7l.51-.16a.75.75 0 01.48 1.42l-1.5.5a.75.75 0 01-.99-.71v-3.5zm.09 7.97a.75.75 0 10-1.18-.94l-3.47 4.35-1.66-1.66a.75.75 0 00-1.06 1.06l2.25 2.25a.75.75 0 001.12-.06l4-5z"/></svg>