<svg width="24" height="24" viewBox="0 0 24 24" xmlns="http://www.w3.org/2000/svg"><path d="M21.25 4c.38 0 .7.28.74.65l.01.1v14.5c0 .38-.28.7-.65.75H2.75a.75.75 0 0 1-.74-.65l-.01-.1V4.75c0-.38.28-.7.65-.74h18.6ZM6 12.5H3.5v6h17v-6H18v3.75a.75.75 0 0 1-1.5.1V12.5h-2v3.75a.75.75 0 0 1-1.5.1V12.5h-2v3.75a.75.75 0 0 1-1.5.1V12.5h-2v3.75a.75.75 0 0 1-1.5.1V12.5Zm14.5-7h-17V11h17V5.5Zm-11.25 2a.75.75 0 1 1 0 1.5.75.75 0 0 1 0-1.5Zm8 0a.75.75 0 0 1 .1 1.5h-2.6a.75.75 0 0 1-.1-1.5h2.6Zm-11 0a.75.75 0 1 1 0 1.5.75.75 0 0 1 0-1.5Z"/></svg>