<svg width="32" height="32" viewBox="0 0 32 32" xmlns="http://www.w3.org/2000/svg"><path d="M30 16a1 1 0 0 1-1 1h-2v3.5a3.5 3.5 0 0 1-3.5 3.5h-3a3.5 3.5 0 0 1-3.5-3.5V17h-2v6.5a3.5 3.5 0 0 1-3.5 3.5h-3A3.5 3.5 0 0 1 5 23.5V17H3a1 1 0 1 1 0-2h2V8.5A3.5 3.5 0 0 1 8.5 5h3A3.5 3.5 0 0 1 15 8.5V15h2v-3.5A3.5 3.5 0 0 1 20.5 8h3a3.5 3.5 0 0 1 3.5 3.5V15h2a1 1 0 0 1 1 1Zm-5-4.5c0-.83-.67-1.5-1.5-1.5h-3c-.83 0-1.5.67-1.5 1.5v9c0 .83.67 1.5 1.5 1.5h3c.83 0 1.5-.67 1.5-1.5v-9ZM11.5 7h-3C7.67 7 7 7.67 7 8.5v15c0 .83.67 1.5 1.5 1.5h3c.83 0 1.5-.67 1.5-1.5v-15c0-.83-.67-1.5-1.5-1.5Z"/></svg>