<svg width="20" height="20" viewBox="0 0 20 20" xmlns="http://www.w3.org/2000/svg"><path d="M14.25 3.5a.75.75 0 1 1-1.5 0 .75.75 0 0 1 1.5 0ZM9.5 5a3 3 0 0 0-3 3A2.5 2.5 0 0 0 9 10.5a2 2 0 0 0 2-2c0-.83-.67-1.5-1.5-1.5a1 1 0 0 0-1 1 .5.5 0 0 0 1 0c.28 0 .5.22.5.5a1 1 0 0 1-1 1A1.5 1.5 0 0 1 7.5 8c0-1.1.9-2 2-2A2.5 2.5 0 0 1 12 8.5a3 3 0 0 1-3 3 .5.5 0 0 0 0 1 4 4 0 0 0 4-4A3.5 3.5 0 0 0 9.5 5Zm-4.45 5h1.08c.39.56.93 1 1.57 1.25A1.5 1.5 0 0 0 9 13.5a5 5 0 0 0 4.77-3.5h1.18c.45 0 .9.12 1.28.36l2.03 1.21a.5.5 0 1 1-.52.86L16 11.38v4.12a2.5 2.5 0 0 1-2.5 2.5h-7A2.5 2.5 0 0 1 4 15.5v-4.12l-1.74 1.05a.5.5 0 1 1-.52-.86l2.03-1.21A2.5 2.5 0 0 1 5.05 10ZM17 5.5a.5.5 0 0 0-1 0V6h-.5a.5.5 0 0 0 0 1h.5v.5a.5.5 0 0 0 1 0V7h.5a.5.5 0 0 0 0-1H17v-.5Z"/></svg>