<svg width="20" height="20" viewBox="0 0 20 20" xmlns="http://www.w3.org/2000/svg"><path d="M13.5 4.25a.75.75 0 1 0 0-1.5.75.75 0 0 0 0 1.5ZM5 10.5a.5.5 0 0 0-.76-.43l-2.5 1.5a.5.5 0 1 0 .52.86L4 11.38v4.12A2.5 2.5 0 0 0 6.5 18h7a2.5 2.5 0 0 0 2.5-2.5v-4.12l1.74 1.05a.5.5 0 0 0 .52-.86l-2.5-1.5a.5.5 0 0 0-.76.43v5c0 .83-.67 1.5-1.5 1.5h-7A1.5 1.5 0 0 1 5 15.5v-5ZM16.5 5c.28 0 .5.22.5.5V6h.5a.5.5 0 0 1 0 1H17v.5a.5.5 0 0 1-1 0V7h-.5a.5.5 0 1 1 0-1h.5v-.5c0-.28.22-.5.5-.5Zm-7 0a3 3 0 0 0-3 3A2.5 2.5 0 0 0 9 10.5a2 2 0 0 0 2-2c0-.83-.67-1.5-1.5-1.5a1 1 0 0 0-1 1 .5.5 0 0 0 1 0c.28 0 .5.22.5.5a1 1 0 0 1-1 1A1.5 1.5 0 0 1 7.5 8c0-1.1.9-2 2-2A2.5 2.5 0 0 1 12 8.5a3 3 0 0 1-3 3 .5.5 0 0 0 0 1 4 4 0 0 0 4-4A3.5 3.5 0 0 0 9.5 5Z"/></svg>