<svg width="24" height="24" viewBox="0 0 24 24" xmlns="http://www.w3.org/2000/svg"><path d="M17 3a1 1 0 1 1-2 0 1 1 0 0 1 2 0ZM8 9.5a3 3 0 0 1 3-3 3.75 3.75 0 0 1 3.75 3.75 4.5 4.5 0 0 1-4.5 4.5.75.75 0 0 0 0 1.5 6 6 0 0 0 6-6C16.25 7.35 13.9 5 11 5a4.5 4.5 0 0 0-4.5 4.5 3.75 3.75 0 0 0 3.75 3.75 3 3 0 0 0 3-3c0-1.24-1-2.25-2.25-2.25-.83 0-1.5.67-1.5 1.5a.75.75 0 0 0 1.5 0c.41 0 .75.34.75.75 0 .83-.67 1.5-1.5 1.5-1.24 0-2.25-1-2.25-2.25Zm1.17 4.63a1.75 1.75 0 0 0 1.08 3.12A7 7 0 0 0 17.03 12h1.46c.64 0 1.27.19 1.8.55l2.38 1.58a.75.75 0 1 1-.84 1.24L20 14.15v4.6c0 1.8-1.46 3.25-3.25 3.25h-9.5A3.25 3.25 0 0 1 4 18.75v-4.6l-1.83 1.22a.75.75 0 1 1-.84-1.24l2.37-1.58A3.25 3.25 0 0 1 5.5 12h.71a4.76 4.76 0 0 0 2.96 2.13ZM20.25 5a.75.75 0 0 0-1.5 0v.75H18a.75.75 0 0 0 0 1.5h.75V8a.75.75 0 0 0 1.5 0v-.75H21a.75.75 0 0 0 0-1.5h-.75V5Z"/></svg>