<svg width="24" height="24" viewBox="0 0 24 24" xmlns="http://www.w3.org/2000/svg"><path d="M16 4a1 1 0 1 0 0-2 1 1 0 0 0 0 2ZM8 9.5a3 3 0 0 1 3-3 3.75 3.75 0 0 1 3.75 3.75 4.5 4.5 0 0 1-4.5 4.5.75.75 0 1 0 0 1.5 6 6 0 0 0 6-6C16.25 7.35 13.9 5 11 5a4.5 4.5 0 0 0-4.5 4.5 3.75 3.75 0 0 0 3.75 3.75 3 3 0 0 0 3-3c0-1.24-1-2.25-2.25-2.25-.83 0-1.5.67-1.5 1.5a.75.75 0 0 0 1.5 0c.41 0 .75.34.75.75 0 .83-.67 1.5-1.5 1.5-1.24 0-2.25-1-2.25-2.25Zm11.5-5.25c.41 0 .75.34.75.75v.75H21a.75.75 0 0 1 0 1.5h-.75V8a.75.75 0 0 1-1.5 0v-.75H18a.75.75 0 0 1 0-1.5h.75V5c0-.41.34-.75.75-.75Zm-14 8.5a.75.75 0 0 0-1.17-.62l-3 2a.75.75 0 1 0 .84 1.24L4 14.15v4.6C4 20.55 5.46 22 7.25 22h9.5c1.8 0 3.25-1.46 3.25-3.25v-4.6l1.83 1.22a.75.75 0 1 0 .84-1.24l-3-2a.75.75 0 0 0-1.17.62v6c0 .97-.78 1.75-1.75 1.75h-9.5c-.97 0-1.75-.78-1.75-1.75v-6Z"/></svg>