<svg width="16" height="16" viewBox="0 0 16 16" xmlns="http://www.w3.org/2000/svg"><path d="M3.5 2a.5.5 0 0 0-.45.28l-2 4a.5.5 0 0 0 .06.54l4.9 6.03a2.5 2.5 0 0 1 .19-1.35L2.56 7h2.58l1.29 4.11c.2-.3.48-.57.8-.76L6.19 7h1.5a3 3 0 0 1 .58-1H6.14l.75-3h2.22l.53 2.12a3 3 0 0 1 1-.12l-.5-2h2.05l1.5 3h-.95a3 3 0 0 1 .59 1h.12l-.09.1a3 3 0 0 1 .08 1.5l1.45-1.78a.5.5 0 0 0 .06-.54l-2-4A.5.5 0 0 0 12.5 2h-9ZM2.3 6l1.5-3h2.06l-.75 3h-2.8Zm10.2 2a2 2 0 1 1-4 0 2 2 0 0 1 4 0Zm1.5 4.5c0 1.25-1 2.5-3.5 2.5S7 13.75 7 12.5c0-.83.67-1.5 1.5-1.5h4c.83 0 1.5.67 1.5 1.5Z"/></svg>