<svg width="28" height="28" viewBox="0 0 28 28" xmlns="http://www.w3.org/2000/svg"><path d="M3.28 2.22a.75.75 0 10-1.06 1.06l5.4 5.4-3.57.95A2.75 2.75 0 002 12.29v3.42c0 1.25.84 2.34 2.05 2.66l2.95.79v.34a4.5 4.5 0 008.56 1.94l6.57 1.75 2.59 2.59a.75.75 0 001.06-1.06L3.28 2.22zm16.74 18.86L4.43 16.92a1.25 1.25 0 01-.93-1.2v-3.43c0-.57.39-1.07.93-1.21L8.84 9.9l11.18 11.18zm-5.95-.04a3 3 0 01-5.57-1.48l5.57 1.48zm-3.1-13.26l1.22 1.23 10.74-2.86c.8-.22 1.57.38 1.57 1.2v13.3c0 .2-.04.38-.12.54l1.08 1.1c.34-.46.54-1.02.54-1.64V7.35c0-1.8-1.71-3.12-3.46-2.65L10.97 7.78z"/></svg>