<svg width="24" height="24" viewBox="0 0 24 24" xmlns="http://www.w3.org/2000/svg"><path d="M12 14a2 2 0 1 0 0-4 2 2 0 0 0 0 4Zm-6-2a6 6 0 1 1 11.99.37l-2.66 2.66A4.48 4.48 0 0 0 12 7.5a4.5 4.5 0 1 0 3.03 7.83l-2.54 2.53-.12.13H12A6 6 0 0 1 6 12Zm6-8.5a8.5 8.5 0 0 1 8.44 7.51 3.3 3.3 0 0 1 1.53.24A10 10 0 1 0 11 21.95c0-.18.02-.36.06-.54l.24-.94A8.5 8.5 0 0 1 12 3.5Zm7.1 9.17-5.9 5.9c-.35.34-.59.78-.7 1.25l-.47 1.83c-.2.8.53 1.52 1.32 1.32l1.83-.46c.47-.12.9-.36 1.25-.7l5.9-5.9a2.29 2.29 0 0 0-3.23-3.24Z"/></svg>