<svg width="20" height="20" viewBox="0 0 20 20" xmlns="http://www.w3.org/2000/svg"><path d="M12.44 3.25c-.98.32-1.83.94-2.44 1.75a5.01 5.01 0 0 0-2.44-1.75 3 3 0 0 1 4.88 0Zm-8.81 7.97a6.5 6.5 0 0 1 5.85-5.2 4 4 0 1 0-5.85 5.2Zm12.74 0a4 4 0 1 0-5.85-5.2 6.5 6.5 0 0 1 5.85 5.2Zm-.87 1.28a5.5 5.5 0 1 1-11 0 5.5 5.5 0 0 1 11 0Zm-7.5-2c0 .28.22.5.5.5h2.24l-.32.48a7.65 7.65 0 0 0-1.17 2.96.5.5 0 1 0 1 .12c.1-.9.56-1.82 1.02-2.54a11.1 11.1 0 0 1 .84-1.17l.01-.02a.5.5 0 0 0-.37-.83H8.5a.5.5 0 0 0-.5.5Z"/></svg>