<svg width="20" height="20" viewBox="0 0 20 20" xmlns="http://www.w3.org/2000/svg"><path d="M8.5 3.67a2 2 0 0 1 3 0c.3-.17.6-.31.94-.42a3 3 0 0 0-4.88 0c.33.1.65.25.95.42ZM3 8a3 3 0 0 1 5.4-1.8c.35-.09.7-.15 1.08-.18a4 4 0 1 0-5.85 5.2c.07-.36.17-.71.3-1.05A3 3 0 0 1 3 8Zm11-4a4 4 0 0 0-3.48 2.02c.37.03.73.09 1.08.18a3 3 0 1 1 4.47 3.97c.13.34.23.69.3 1.05A4 4 0 0 0 14 4Zm-8.5 8.5a4.5 4.5 0 1 1 9 0 4.5 4.5 0 0 1-9 0ZM10 7a5.5 5.5 0 1 0 0 11 5.5 5.5 0 0 0 0-11Zm-1.5 3a.5.5 0 0 0 0 1h2.24l-.32.48a7.65 7.65 0 0 0-1.17 2.96.5.5 0 1 0 1 .12c.1-.9.56-1.82 1.02-2.54a11.1 11.1 0 0 1 .84-1.17l.01-.02a.5.5 0 0 0-.37-.83H8.5Z"/></svg>