<svg width="24" height="24" viewBox="0 0 24 24" xmlns="http://www.w3.org/2000/svg"><path d="M19.49 5.57a5.97 5.97 0 01-1.9 8.96c-.64.35-1.42.14-1.94-.38l-5.8-5.8c-.52-.52-.73-1.3-.38-1.95a6 6 0 018.96-1.89l2.29-2.29a.75.75 0 111.06 1.06l-2.29 2.3zm-2.02 7.26a4.5 4.5 0 10-6.3-6.3c-.27.35-.19.83.12 1.14l5.04 5.04c.31.3.8.39 1.14.12zM3.28 21.78l2.3-2.29a5.97 5.97 0 008.95-1.9c.35-.64.14-1.42-.38-1.94l-5.8-5.8c-.52-.52-1.3-.73-1.95-.38a6 6 0 00-1.89 8.96l-2.29 2.29a.75.75 0 101.06 1.06zm4.39-10.49l5.04 5.04c.3.31.39.8.12 1.14a4.5 4.5 0 11-6.3-6.3c.35-.27.83-.19 1.14.12z"/></svg>