<svg width="24" height="24" viewBox="0 0 24 24" xmlns="http://www.w3.org/2000/svg"><path d="M10.08 4.09c.53.36 1.04.6 1.46.66-.23.45-.4.94-.47 1.44a5.39 5.39 0 0 1-1.84-.87 10 10 0 0 1-.73-.55V7c0 .3-.19.58-.47.7a2.52 2.52 0 0 0-.17.07 6.99 6.99 0 0 0-1.83 1.26 4 4 0 0 0-.9 1.54c-.2.6-.7 1.16-1.44 1.28a.22.22 0 0 0-.19.22v1.76c0 .16.12.3.28.33.63.1 1.12.51 1.4 1 .25.46.7 1.15 1.35 1.8a4.96 4.96 0 0 0 2.36 1.3c.36.07.61.38.61.74v1.25c0 .14.11.25.25.25H11c0-.83.67-1.5 1.5-1.5h2c.83 0 1.5.67 1.5 1.5h1.25c.14 0 .25-.11.25-.25V18c0-.28.16-.54.41-.67h.02l.07-.05.28-.19a5.6 5.6 0 0 0 2.22-4.6c0-1-.19-1.81-.5-2.48.35-.47.62-1 .79-1.57A6.89 6.89 0 0 1 22 12.5a7.1 7.1 0 0 1-3 5.92v1.83c0 .97-.78 1.75-1.75 1.75H16a1.5 1.5 0 0 1-1.5-1.5h-2c0 .83-.67 1.5-1.5 1.5H9.75C8.78 22 8 21.22 8 20.25v-.68a7 7 0 0 1-2.53-1.54 9.86 9.86 0 0 1-1.6-2.13.49.49 0 0 0-.33-.26A1.84 1.84 0 0 1 2 13.83v-1.76c0-.84.6-1.56 1.44-1.7.09-.01.22-.1.28-.28.19-.58.56-1.43 1.25-2.12A7.94 7.94 0 0 1 7 6.52V3.67c0-.94 1.13-1.32 1.74-.72.33.33.81.77 1.34 1.14Zm2.99 4.76c-.49-.2-.9-.6-1-1.11a4 4 0 1 1 6.19 2.56c-.44.3-1 .28-1.5.08l-3.69-1.53Zm4.4.18a2.5 2.5 0 1 0-3.94-1.63l.02.01.1.05L17.33 9a.54.54 0 0 0 .12.04ZM9 10a1 1 0 1 1-2 0 1 1 0 0 1 2 0Z"/></svg>