<svg width="16" height="16" viewBox="0 0 16 16" xmlns="http://www.w3.org/2000/svg"><path d="m13.54 14.25.6.6a.5.5 0 0 0 .71-.7l-13-13a.5.5 0 1 0-.7.7l1.12 1.13a.75.75 0 0 0 .85 1.23c.07-.04.17-.08.27-.11l.47.46c-.31.04-.64.12-.94.27-.6.3-1.05.7-1.29 1.24a2.6 2.6 0 0 0-.11 1.58c.12.6.56 1.4 1.5 1.72.68.24 1.52.2 2.5-.19A.75.75 0 0 0 7 9V7.7L8.68 9.4c-.88.64-1.48 1.66-1.1 2.84a2 2 0 0 0 1.3 1.3 3.1 3.1 0 0 0 1.6.07.75.75 0 0 0 1.27-.49c.14-.08.27-.16.4-.26l.26.26a.75.75 0 0 0 .6 1.37c.19-.07.37-.14.53-.23ZM5.4 6.1l.11.11v1.34c-1.07.54-1.68.51-1.98.4a.8.8 0 0 1-.53-.6c-.07-.34-.04-.54.02-.67.05-.13.19-.31.58-.5.13-.07.33-.12.61-.14a5.14 5.14 0 0 1 1.2.06Zm3.2.37 4.72 4.72.2-.71c.35.27.53.61.55.92 0 .14-.01.3-.08.46l1.11 1.1c.35-.5.5-1.07.46-1.67a2.9 2.9 0 0 0-1.79-2.39v-.02a2.32 2.32 0 0 0 0-.18v-.03a.75.75 0 0 0-1.47-.14 6 6 0 0 0-1.14-.01c0-.18.02-.36.04-.54a8.41 8.41 0 0 0 2.08-.52.75.75 0 1 0-.54-1.4 7 7 0 0 1-1.3.37l.06-.28a.75.75 0 1 0-1.47-.3c-.05.23-.1.46-.13.69l-1.05-.08c-.09-.01-.17 0-.25.01ZM4.64 2.52 7 4.88A2.35 2.35 0 0 0 5.06 2.6a3.6 3.6 0 0 0-.42-.07ZM9 11.77c-.12-.38.03-.86.7-1.27.06.54.16 1.08.29 1.65-.26.03-.47.01-.63-.04-.2-.06-.3-.17-.36-.34Z"/></svg>