<svg width="16" height="16" viewBox="0 0 16 16" xmlns="http://www.w3.org/2000/svg"><path d="m13.08 13.79 1.07 1.06a.5.5 0 0 0 .7-.7l-13-13a.5.5 0 1 0-.7.7l1.4 1.41a.5.5 0 0 0 .68.68L4.3 5c-.46.04-.93.14-1.32.38-1.46.9-1.25 3.18.46 3.7.76.24 1.5.06 2.07-.19.17-.07.34-.15.5-.24V9a.5.5 0 1 0 1 0V7.7l1.99 2c-.33.3-.58.63-.75.97-.4.8-.36 1.73.2 2.3.38.39.92.43 1.4.32.2-.05.43-.13.65-.24l.04.12a.5.5 0 0 0 .94-.34l-.13-.38c.07-.06.14-.12.2-.2l.78.78a.5.5 0 0 0 .36.94l.4-.18ZM9.7 10.4l.36.36c.03.49.1.91.16 1.29-.22.13-.42.22-.6.26-.3.06-.43 0-.47-.05-.17-.18-.29-.6-.02-1.16.12-.23.3-.47.57-.7ZM5.32 6.03 6 6.7v.77a5.9 5.9 0 0 1-.9.48c-.46.2-.94.3-1.38.16-.84-.26-.98-1.43-.23-1.9.4-.24 1.07-.28 1.74-.2h.09Zm3.64.8 1.02 1.03h.2l-.03.17 1.5 1.5.25-.03-.06.22.8.8c.11-.3.2-.63.27-.98.1.03.2.06.28.1.44.19.7.52.81.91.1.35.06.77-.14 1.19l.73.73c.43-.68.57-1.46.38-2.18a2.36 2.36 0 0 0-1.38-1.57 2.92 2.92 0 0 0-.6-.19V8.5a.5.5 0 0 0-1-.02c-.28.02-.58.07-.9.15l.1-.83c.66-.07 1.32-.17 1.92-.31a.5.5 0 0 0-.23-.98c-.48.12-1 .2-1.53.26l.14-.67a.5.5 0 0 0-.98-.2l-.19.95a12.22 12.22 0 0 1-1.36-.02ZM4.79 2.66l2.2 2.2a3.16 3.16 0 0 0-.16-.83A1.9 1.9 0 0 0 5.49 2.8a3.6 3.6 0 0 0-.7-.14Z"/></svg>