<svg width="20" height="20" viewBox="0 0 20 20" xmlns="http://www.w3.org/2000/svg"><path d="M2.85 2.15a.5.5 0 1 0-.7.7L4.3 5.01a4.96 4.96 0 0 0-2.25.7l-.02.01h-.01a.75.75 0 0 0 .85 1.24l.03-.02.14-.07a3.42 3.42 0 0 1 2.52-.22c.57.16.8.46.92.75.08.2.11.41.13.63-.44-.1-.94-.2-1.47-.22a4.5 4.5 0 0 0-3.18 1.01 2.8 2.8 0 0 0-.84 2.96c.3 1 1.1 1.9 2.3 2.15a4.4 4.4 0 0 0 2.64-.4l.56-.29v.01a.75.75 0 1 0 1.5 0V8.83l1.3 1.3-.08.18c-.51 1.12-.48 2.45.32 3.26.54.55 1.32.6 2 .46.39-.08.8-.24 1.2-.47l4.29 4.3a.5.5 0 0 0 .7-.71l-15-15Zm8.89 10.3c-.14.05-.28.1-.4.12-.42.09-.58-.02-.61-.05-.18-.18-.33-.63-.15-1.24l1.16 1.16ZM5.07 9.3c.56.03 1.09.14 1.55.27v1.9c-.3.21-.71.47-1.17.67-.64.29-1.24.41-1.72.31a1.55 1.55 0 0 1-1.17-1.1c-.15-.53-.02-1.06.37-1.39.63-.54 1.38-.69 2.14-.66Zm6.76.29v.11l2.57 2.57A7.1 7.1 0 0 0 16.01 9c.66.3 1.11.76 1.33 1.25.22.5.23 1.09-.06 1.65-.26.52-.8 1.08-1.73 1.53l1.11 1.1a4.8 4.8 0 0 0 1.96-1.96 3.4 3.4 0 0 0 .09-2.93 4.04 4.04 0 0 0-2.54-2.18v-.03a.75.75 0 0 0-1.48-.2c-.36-.02-.74 0-1.14.06l.25-1.18c.75-.09 1.49-.22 2.2-.38a.75.75 0 1 0-.31-1.46c-.48.1-.97.2-1.45.27l.18-.52a.75.75 0 1 0-1.4-.54c-.14.37-.29.83-.4 1.24-.61.04-1.22.04-1.82 0a.75.75 0 0 0-.1 1.5c.51.03 1.03.04 1.53.02-.12.56-.21 1.08-.27 1.55-.48.23-.9.5-1.26.79l1.07 1.07.06-.05Zm2.7-.88a5.64 5.64 0 0 1-1 2.27 6.7 6.7 0 0 1-.17-2.13c.42-.1.81-.14 1.18-.14Z"/></svg>