<svg width="20" height="20" viewBox="0 0 20 20" xmlns="http://www.w3.org/2000/svg"><path d="M2.85 2.15a.5.5 0 1 0-.7.7l1.5 1.51a4.7 4.7 0 0 0-.7.35l-.03.02a.5.5 0 0 0 .56.83 1.47 1.47 0 0 1 .21-.12 3.9 3.9 0 0 1 .75-.29l1.87 1.87-.23-.01a4.57 4.57 0 0 0-3.2 1 2.66 2.66 0 0 0-.81 2.84 2.97 2.97 0 0 0 2.25 2.09c.9.18 1.86-.08 2.64-.42.38-.17.74-.36 1.05-.55v.53a.5.5 0 1 0 1 0V9.7l2 2a4.2 4.2 0 0 0-.73 1.13c-.44 1.02-.4 2.17.25 2.85.43.46 1.06.53 1.64.4.42-.1.86-.31 1.28-.61l.08.2a.5.5 0 1 0 .93-.36 5.93 5.93 0 0 0-.1-.26l.96.97-.02.01a.5.5 0 1 0 .4.92l.37-.18 1.08 1.07a.5.5 0 0 0 .7-.7l-15-15Zm9.78 11.18v.02c.1.48.24.87.38 1.2-.38.3-.75.49-1.06.56-.39.09-.6 0-.69-.1-.27-.3-.4-.97-.06-1.77.12-.27.29-.55.52-.81l.9.9Zm-5.1-5.09.48.47v2.05c-.35.26-.87.59-1.45.85-.7.3-1.43.47-2.04.35a1.97 1.97 0 0 1-1.5-1.39c-.19-.66-.03-1.35.5-1.79.76-.63 1.65-.8 2.52-.77.53.02 1.04.12 1.5.23Zm9.88 4.33c.24.66.16 1.5-.45 2.27l.7.7a3.29 3.29 0 0 0 .68-3.31A3.37 3.37 0 0 0 16 10.17V10a.5.5 0 1 0-1 0v.02c-.43-.01-.88.03-1.36.13l.23-1.25a21.3 21.3 0 0 0 2.24-.41.5.5 0 0 0-.22-.98c-.62.15-1.2.27-1.77.35.1-.38.23-.85.35-1.2a.5.5 0 0 0-.94-.33c-.18.5-.37 1.22-.47 1.65-.5.03-1 .03-1.53 0a.5.5 0 1 0-.06 1c.47.02.92.03 1.36 0-.1.55-.18 1.04-.24 1.5l.92.91.01-.17.13-.04c.46-.12.89-.17 1.28-.16-.08.51-.21.98-.38 1.4l.76.77c.28-.59.5-1.26.6-2 .77.26 1.28.8 1.5 1.38ZM6.18 4.06l2.8 2.8a3.57 3.57 0 0 0-.23-1.08 2.66 2.66 0 0 0-1.83-1.56c-.25-.08-.5-.13-.74-.16Z"/></svg>