<svg width="24" height="24" viewBox="0 0 24 24" xmlns="http://www.w3.org/2000/svg"><path d="M3.28 2.22a.75.75 0 1 0-1.06 1.06l1.95 1.95c-.45.12-.82.26-1.09.4a1 1 0 1 0 .85 1.8c.4-.18 1.12-.44 2.05-.4l1.59 1.6a6.41 6.41 0 0 0-4.37.62 3.56 3.56 0 0 0-1.68 3.44 3.5 3.5 0 0 0 2.57 3.14 5.6 5.6 0 0 0 3.95-.55A1 1 0 0 0 10 15v-3.94l2.7 2.71a5.86 5.86 0 0 0-1.23 1.67c-.63 1.29-.7 2.86.24 3.89.67.73 1.7.75 2.5.58.32-.06.65-.17.98-.32a1 1 0 0 0 1.75-.93 14.5 14.5 0 0 0-.04-.11l.32-.27 1.04 1.04a1 1 0 0 0 1.19 1.57l.25-.13 1.02 1.02a.75.75 0 0 0 1.06-1.06L3.28 2.22Zm14.48 11.54a6.3 6.3 0 0 1-.2.62l1.5 1.5c.23-.43.42-.9.58-1.4.28.26.5.56.65.87.28.58.33 1.25.12 1.87l1.5 1.5a4.44 4.44 0 0 0 .2-4.23 4.75 4.75 0 0 0-2.12-2.16L20 12a1 1 0 0 0-1.97-.23c-.57-.04-1.17 0-1.8.14.05-.3.1-.63.17-.97.97-.09 1.94-.25 2.84-.47a1 1 0 0 0-.48-1.94c-.62.15-1.28.27-1.96.36l.15-.59a1 1 0 1 0-1.9-.6c-.13.39-.24.9-.33 1.34-.56.01-1.12 0-1.65-.04a1 1 0 0 0-.68.2l1.84 1.84h.11l-.01.1 2.72 2.73.71-.11ZM7.12 10.58c.34.06.64.14.88.22V13c-.22.15-.53.34-.9.52-.8.38-1.68.6-2.47.38a1.5 1.5 0 0 1-1.12-1.38c-.06-.7.24-1.29.66-1.53a4.42 4.42 0 0 1 2.95-.41Zm6.9 4.7a10.84 10.84 0 0 0 .44 2.45c-.24.11-.47.18-.67.23-.43.09-.59.02-.61 0-.17-.2-.34-.77.09-1.64.16-.34.41-.7.75-1.04Z"/></svg>