<svg width="24" height="24" viewBox="0 0 24 24" xmlns="http://www.w3.org/2000/svg"><path d="M3.28 2.22a.75.75 0 1 0-1.06 1.06l2.26 2.26c-.5.15-.88.34-1.1.46a.75.75 0 1 0 .73 1.31c.25-.14.83-.41 1.64-.5l2 2a6.65 6.65 0 0 0-3.8.47 3.39 3.39 0 0 0-1.9 3.7 3.52 3.52 0 0 0 2.8 2.95A5.95 5.95 0 0 0 9 14.95v.3a.75.75 0 0 0 1.5 0v-3.7l2.3 2.3a5.1 5.1 0 0 0-.85 1.16c-.61 1.17-.66 2.56.2 3.44.58.59 1.42.64 2.14.49.4-.09.82-.25 1.24-.47l.02.04a.75.75 0 0 0 1.41-.48l.88.87a.75.75 0 0 0 .93 1.05l.09-.03 1.86 1.86a.75.75 0 0 0 1.06-1.06L3.28 2.22ZM14.54 15.6a8.37 8.37 0 0 0 .41 1.5c-.3.17-.63.3-.98.37-.48.1-.68 0-.74-.06-.24-.25-.4-.86.05-1.7.14-.26.33-.53.58-.8l.68.7Zm5.7 1.27a2.7 2.7 0 0 1-.06.13l1.09 1.09a3.98 3.98 0 0 0 .48-3.7 4.04 4.04 0 0 0-2.5-2.42v-.22a.75.75 0 0 0-1.5-.03c-.53 0-1.09.07-1.67.24.06-.45.15-.95.25-1.5 1.19-.09 2.37-.25 3.34-.48a.75.75 0 1 0-.34-1.46c-.77.18-1.7.32-2.64.4.09-.32.18-.66.27-.93a.75.75 0 0 0-1.42-.48c-.15.45-.3 1.04-.42 1.52-.74.02-1.45.01-2.07-.03a.75.75 0 0 0-.61.25l1.28 1.28h1.07l-.15.92 1.92 1.93c.37-.1.72-.15 1.04-.16-.07.3-.16.61-.28.92l1.15 1.14c.25-.53.46-1.12.6-1.76.63.3 1.07.83 1.27 1.4.23.61.22 1.3-.1 1.95ZM7.82 10.33c.48.09.9.21 1.19.3v2.51a7.38 7.38 0 0 1-1.1.7c-.84.45-1.85.79-2.79.62a2.02 2.02 0 0 1-1.58-1.72 1.89 1.89 0 0 1 1.07-2.1 5.34 5.34 0 0 1 3.2-.3Z"/></svg>