<svg width="24" height="24" viewBox="0 0 24 24" xmlns="http://www.w3.org/2000/svg"><path d="M3.28 2.22a.75.75 0 1 0-1.06 1.06L5.3 6.36c-.92.14-1.6.46-1.91.64A.75.75 0 1 0 4.1 8.3a4.54 4.54 0 0 1 2.64-.5l2.24 2.24v.02a9.84 9.84 0 0 0-.92-.21 6.83 6.83 0 0 0-4.12.42 3.39 3.39 0 0 0-1.9 3.7 3.52 3.52 0 0 0 2.8 2.95A5.95 5.95 0 0 0 9 15.95v.3a.75.75 0 0 0 1.5 0v-4.7l1.45 1.46c-.6 1.17-.66 2.56.21 3.44.57.59 1.4.64 2.13.49a4.6 4.6 0 0 0 1.16-.43l.25.25.04.04 4.98 4.98a.75.75 0 0 0 1.06-1.06L3.28 2.22Zm11.04 13.16-.35.1c-.48.1-.68-.02-.74-.07-.2-.2-.33-.64-.14-1.26l1.23 1.23ZM7.8 11.33c.48.09.9.21 1.19.3v2.51a7.38 7.38 0 0 1-1.1.7c-.84.45-1.85.79-2.79.62a2.02 2.02 0 0 1-1.58-1.72 1.89 1.89 0 0 1 1.07-2.1 5.34 5.34 0 0 1 3.2-.3Zm12.44 3.54c-.2.4-.53.82-1.03 1.17l1.07 1.07c.59-.45 1.02-1 1.3-1.59.5-1.02.53-2.14.16-3.12a4.04 4.04 0 0 0-2.5-2.43v-.22a.75.75 0 0 0-1.5-.03c-.52 0-1.08.07-1.67.24.06-.45.15-.95.26-1.5 1.18-.09 2.36-.25 3.33-.48a.75.75 0 0 0-.34-1.46c-.77.18-1.7.32-2.64.4.09-.32.18-.66.27-.93a.75.75 0 0 0-1.42-.48c-.15.45-.3 1.04-.42 1.52-.74.02-1.45.01-2.07-.03a.75.75 0 1 0-.1 1.5c.56.04 1.19.05 1.84.04-.14.76-.24 1.44-.3 2.06l-.45.26 1.91 1.9a9.92 9.92 0 0 1-.02-1.17l.34-.12c.48-.16.92-.23 1.33-.25a6.71 6.71 0 0 1-.96 2.24l1.07 1.07a7.74 7.74 0 0 0 1.36-3.01c.63.3 1.07.83 1.27 1.4.23.61.22 1.3-.1 1.95Z"/></svg>