<svg width="24" height="24" viewBox="0 0 24 24" xmlns="http://www.w3.org/2000/svg"><path d="M3.28 2.22a.75.75 0 1 0-1.06 1.06l2.8 2.8c-.85.1-1.52.34-1.94.54a1 1 0 1 0 .85 1.81 4.34 4.34 0 0 1 3.32-.12l.65.65.02.07c.07.23.1.45.1.7a6.41 6.41 0 0 0-4.82.52 3.56 3.56 0 0 0-1.68 3.44 3.5 3.5 0 0 0 2.57 3.14 5.6 5.6 0 0 0 3.95-.55A1 1 0 0 0 10 16v-4.94l1.44 1.44c-.6 1.27-.66 2.81.27 3.83.67.73 1.7.75 2.5.58.32-.06.65-.17.98-.32a1 1 0 0 0 .75.4l4.78 4.8a.75.75 0 0 0 1.06-1.07L3.28 2.22Zm10.6 12.72-.09.02c-.43.09-.59.02-.61 0-.12-.13-.23-.43-.16-.88l.86.86Zm-6.76-3.36c.34.06.64.14.88.22V14c-.22.15-.53.34-.9.52-.8.38-1.68.6-2.47.38a1.5 1.5 0 0 1-1.12-1.38c-.06-.7.24-1.29.66-1.53a4.42 4.42 0 0 1 2.95-.41Zm13.27 2.68c-.2.53-.61 1.1-1.37 1.58l1.44 1.44a5.08 5.08 0 0 0 1.8-2.33 4.44 4.44 0 0 0-.16-3.46A4.75 4.75 0 0 0 20 9.33V9a1 1 0 0 0-1.97-.23c-.57-.04-1.17 0-1.8.14.05-.3.1-.63.17-.97.97-.09 1.94-.25 2.84-.47a1 1 0 1 0-.48-1.94c-.62.15-1.28.27-1.96.36l.15-.59a1 1 0 0 0-1.9-.6c-.13.39-.24.9-.33 1.34-.56.01-1.12 0-1.65-.04a1 1 0 1 0-.14 2c.46.03.93.05 1.42.04-.11.62-.19 1.18-.24 1.7-.26.15-.5.3-.72.47l2.7 2.7c-.07-.5-.1-1.1-.08-1.85l.1-.04 1.66-.26a6.35 6.35 0 0 1-1.35 2.48l1.42 1.42a8.37 8.37 0 0 0 1.8-3.17c.28.25.5.55.65.86.29.6.34 1.27.1 1.91Z"/></svg>