<svg width="24" height="24" viewBox="0 0 24 24" xmlns="http://www.w3.org/2000/svg"><path d="M21 6.25C21 4.45 19.54 3 17.75 3H6.25A3.25 3.25 0 0 0 3 6.25v11.5C3 19.55 4.46 21 6.25 21h6.92a3.74 3.74 0 0 1-.17-1.13v-.1l.01-.27H6.25c-.97 0-1.75-.78-1.75-1.75V8.5h15v2.64a3.5 3.5 0 0 1 1.5.91v-5.8ZM6.25 4.5h11.5c.97 0 1.75.78 1.75 1.75V7h-15v-.75c0-.97.78-1.75 1.75-1.75ZM21 14.5a2.5 2.5 0 1 1-5 0 2.5 2.5 0 0 1 5 0Zm2 5.38c0 1.55-1.29 3.12-4.5 3.12S14 21.44 14 19.87v-.1c0-.98.8-1.77 1.77-1.77h5.46c.98 0 1.77.8 1.77 1.77v.1Z"/></svg>