<svg width="20" height="20" viewBox="0 0 20 20" xmlns="http://www.w3.org/2000/svg"><path d="M6 2a3 3 0 0 0-.5 5.96v3.79a.5.5 0 0 0 1 0V11H12a2.5 2.5 0 0 0 2.5-2.5v-.54a3 3 0 1 0-1 0v.54c0 .83-.67 1.5-1.5 1.5H6.5V7.96A3 3 0 0 0 6 2Zm8 5a2 2 0 1 1 0-4 2 2 0 0 1 0 4ZM6 7a2 2 0 1 1 0-4 2 2 0 0 1 0 4Zm-1.13 6.4a.5.5 0 1 0-.58-.8 3.02 3.02 0 0 0-1.12 1.54.5.5 0 1 0 .96.3 1.99 1.99 0 0 1 .74-1.03Zm2.9-.8a.5.5 0 1 0-.57.8 2.02 2.02 0 0 1 .75 1.04.5.5 0 1 0 .95-.3 2.99 2.99 0 0 0-1.12-1.55ZM4.3 16a.5.5 0 0 0-.88.5 3 3 0 0 0 1.38 1.27.5.5 0 1 0 .42-.91 2 2 0 0 1-.92-.85Zm4.37.5a.5.5 0 0 0-.87-.5 2 2 0 0 1-.98.88.5.5 0 1 0 .38.92 3 3 0 0 0 1.47-1.3Z"/></svg>