<svg width="20" height="20" viewBox="0 0 20 20" xmlns="http://www.w3.org/2000/svg"><path d="M6 2c.2 0 .4.13.47.32l3.5 8.95a.5.5 0 0 1-.94.37L8.01 9H4l-1.04 2.68a.5.5 0 1 1-.94-.36l3.5-9A.5.5 0 0 1 6 2Zm0 1.88L4.4 8H7.6l-1.6-4.12ZM11.5 2c.28 0 .5.22.5.5v3.52a2.48 2.48 0 0 1 2.26-1.3c.89 0 1.6.34 2.15 1 .55.66.82 1.54.82 2.64l-.01.42-.05-.05a2.49 2.49 0 0 0-1.15-.65 2.86 2.86 0 0 0-.53-1.62c-.36-.47-.86-.7-1.48-.7-.6 0-1.09.24-1.47.72-.3.37-.47.83-.54 1.37v1.03c.05.43.18.8.37 1.12L11 11.37V2.5c0-.28.22-.5.5-.5Zm4.97 7.44 2.1 2.1a1.5 1.5 0 0 1-.01 2.12l-3.6 3.6-4.21-4.22 3.6-3.6a1.5 1.5 0 0 1 2.12 0Zm-2.22 8.52-4.21-4.21-.6.6a1.5 1.5 0 0 0 0 2.12l2.1 2.1c.3.3.71.45 1.12.43h4.09a.5.5 0 1 0 0-1h-2.53l.03-.04Z"/></svg>