<svg width="16" height="16" viewBox="0 0 16 16" xmlns="http://www.w3.org/2000/svg"><path d="M4.68 1C3.8 1 2.98 1.68 3 2.65c.03 1.01.24 1.79.57 2.4.32.62.75 1.04 1.14 1.38a15.82 15.82 0 0 0 .55.45c.17.14.3.26.42.38a1 1 0 0 1 0 1.48 4.36 4.36 0 0 1-.57.5l-.4.33c-.4.34-.81.76-1.14 1.38a5.32 5.32 0 0 0-.57 2.4c-.02.97.8 1.65 1.68 1.65h6.64c.88 0 1.7-.68 1.68-1.65a5.32 5.32 0 0 0-.57-2.4 4.74 4.74 0 0 0-1.14-1.38l-.4-.33-.15-.12c-.17-.14-.3-.26-.42-.38a1 1 0 0 1 0-1.48c.11-.12.25-.24.42-.38l.15-.11.4-.34c.4-.34.81-.76 1.14-1.38.33-.61.54-1.39.57-2.4.02-.97-.8-1.65-1.68-1.65H4.68ZM4 2.62c0-.32.28-.62.68-.62h6.64c.4 0 .69.3.68.62-.02.88-.2 1.5-.45 1.96-.25.46-.57.8-.91 1.1a13.92 13.92 0 0 1-.53.43c-.18.14-.36.3-.52.47a2 2 0 0 0 0 2.84c.16.17.34.33.51.47l.17.13.36.3c.35.3.67.63.91 1.1.25.46.43 1.08.46 1.96 0 .32-.28.62-.68.62H4.68c-.4 0-.69-.3-.68-.62.02-.88.2-1.5.45-1.96.25-.47.57-.8.91-1.1l.37-.3.16-.13c.18-.14.36-.3.52-.47a2 2 0 0 0 0-2.84 5.33 5.33 0 0 0-.68-.6l-.37-.3c-.34-.3-.66-.63-.9-1.1A4.32 4.32 0 0 1 4 2.62Zm2.02 8.46.1-.08h3.77l.09.08c.3.26.52.5.68.8.13.25.26.6.31 1.12H5.03c.05-.52.17-.87.3-1.11.17-.31.4-.55.69-.8Z"/></svg>