<svg width="28" height="28" viewBox="0 0 28 28" xmlns="http://www.w3.org/2000/svg"><path d="M9.5 4.75c-.83 0-1.5.67-1.5 1.5v2.09a3.5 3.5 0 1 1-2 3.16V6.25a3.5 3.5 0 1 1 7 0v.25a1 1 0 1 1-2 0v-.25c0-.83-.67-1.5-1.5-1.5Zm0 8.25a1.5 1.5 0 1 0 0-3 1.5 1.5 0 0 0 0 3ZM14 6.5a3.5 3.5 0 1 1 7 0v5a3.5 3.5 0 1 1-7 0v-5Zm5 0a1.5 1.5 0 0 0-3 0v5a1.5 1.5 0 0 0 3 0v-5Zm1.35 11A2.35 2.35 0 0 0 18 19.85V20a2.5 2.5 0 0 0 2.5 2.5h.5a1 1 0 0 1 1 1v.15c0 .47-.38.85-.85.85h-.65a1 1 0 0 1-1-1 .75.75 0 0 0-1.5 0 2.5 2.5 0 0 0 2.5 2.5h.65c1.3 0 2.35-1.05 2.35-2.35v-.15A2.5 2.5 0 0 0 21 21h-.5a1 1 0 0 1-1-1v-.15c0-.47.38-.85.85-.85h1.15c.28 0 .5.22.5.5a.75.75 0 0 0 1.5 0 2 2 0 0 0-2-2h-1.15ZM5 18.25c0-.41.34-.75.75-.75h3.5a.75.75 0 0 1 0 1.5H6.5v2h1.75a.75.75 0 0 1 0 1.5H6.5v2.75a.75.75 0 0 1-1.5 0v-7Zm7.25-.75a.75.75 0 0 0-.75.75v7a.75.75 0 0 0 1.5 0V22.5h1.5a2.5 2.5 0 0 0 0-5h-2.25ZM14.5 21H13v-2h1.5a1 1 0 1 1 0 2Z"/></svg>