<svg width="32" height="32" viewBox="0 0 32 32" xmlns="http://www.w3.org/2000/svg"><path d="M13.5 2a2.5 2.5 0 00-.96 4.81c-.21 1.14-1.02 2.04-2.23 3.22A9.04 9.04 0 007 17.2V26a4 4 0 006.5 3.12 3.98 3.98 0 005 0A4 4 0 0025 26v-8.8-.08V17c0-3-1.47-5.65-3.72-7.29-1.03-1.01-1.7-1.85-1.9-2.87A2.5 2.5 0 0018.5 2h-5zM13 4.5c0-.28.22-.5.5-.5h5a.5.5 0 010 1h-5a.5.5 0 01-.5-.5zm6.74 6.5h-7.57c1.03-1.02 2.03-2.2 2.33-3.8h2.9c.31 1.6 1.32 2.78 2.34 3.8zm-9.49 2h11.5A6.97 6.97 0 0123 17.2V22H9v-4.8a2.28 2.28 0 010-.2c0-1.49.46-2.87 1.25-4zM9 24h14v2a2 2 0 01-3.67 1.1 1 1 0 00-1.66 0 2 2 0 01-3.34 0 1 1 0 00-1.66 0A2 2 0 019 26v-2z"/></svg>