<svg width="32" height="32" viewBox="0 0 32 32" xmlns="http://www.w3.org/2000/svg"><path d="M11 4.5A2.5 2.5 0 0113.5 2h5a2.5 2.5 0 01.88 4.84c.2 1.02.87 1.86 1.9 2.87a8.99 8.99 0 013.72 7.4V26a4 4 0 01-6.5 3.12 3.98 3.98 0 01-5 0A4 4 0 017 26v-8.8a4.2 4.2 0 010-.2 8.97 8.97 0 013.3-6.97c1.22-1.18 2.03-2.08 2.24-3.22A2.5 2.5 0 0111 4.5zm2.5-.5a.5.5 0 000 1h5a.5.5 0 000-1h-5zm-1.33 7h7.57c-1.02-1.02-2.03-2.2-2.33-3.8h-2.9c-.31 1.6-1.31 2.78-2.34 3.8zM9 26a2 2 0 003.67 1.1 1 1 0 011.66 0 2 2 0 003.34 0 1 1 0 011.66 0A2 2 0 0023 26v-2H9v2z"/></svg>