<svg width="24" height="24" viewBox="0 0 24 24" xmlns="http://www.w3.org/2000/svg"><path d="M8.5 8.75a.75.75 0 0 0-1.17-.62l-1.5 1a.75.75 0 1 0 .84 1.24l.33-.22v5.1a.75.75 0 0 0 1.5 0v-6.5Zm9 0a.75.75 0 0 0-1.17-.62l-1.5 1a.75.75 0 1 0 .84 1.24l.33-.22v5.1a.75.75 0 1 0 1.5 0v-6.5ZM13 14a1 1 0 1 1-2 0 1 1 0 0 1 2 0Zm-1-3a1 1 0 1 0 0-2 1 1 0 0 0 0 2ZM5.25 4A3.25 3.25 0 0 0 2 7.25v9.5C2 18.55 3.46 20 5.25 20h13.5c1.8 0 3.25-1.46 3.25-3.25v-9.5C22 5.45 20.54 4 18.75 4H5.25ZM3.5 7.25c0-.97.78-1.75 1.75-1.75h13.5c.97 0 1.75.78 1.75 1.75v9.5c0 .97-.78 1.75-1.75 1.75H5.25c-.97 0-1.75-.78-1.75-1.75v-9.5Z"/></svg>