<svg width="20" height="20" viewBox="0 0 20 20" xmlns="http://www.w3.org/2000/svg"><path d="M5.75 3a.75.75 0 00-.75.75v10.69l-.72-.72a.75.75 0 00-1.06 1.06l2 2c.3.3.77.3 1.06 0l2-2a.75.75 0 10-1.06-1.06l-.72.72V3.75A.75.75 0 005.75 3zm8 10a.75.75 0 00-.75.75v.69l-.72-.72a.75.75 0 10-1.06 1.06l2 2a.75.75 0 001.06 0l2-2a.75.75 0 10-1.06-1.06l-.72.72v-.69a.75.75 0 00-.75-.75zm3.5-2.5a.75.75 0 000-1.5h-7.5a.75.75 0 000 1.5H13v.75a.75.75 0 001.5 0v-.75h2.75zm-1-7.5c.41 0 .75.34.75.75v3.5c0 .39-.3.72-.69.75-1.17.1-2.7.04-3.96-.53a3.96 3.96 0 01-1.68-1.35A4.1 4.1 0 0110 3.75a.75.75 0 011.5 0c0 .68.17 1.17.41 1.52.25.36.6.63 1.05.84.74.32 1.66.44 2.54.43V3.75c0-.41.34-.75.75-.75z"/></svg>