<svg width="20" height="20" viewBox="0 0 20 20" xmlns="http://www.w3.org/2000/svg"><path d="M7 7.5c0-.27.22-.5.5-.5h1.29l.22-1.1a.5.5 0 0 1 .98.2l-.18.9h.98l.22-1.1a.5.5 0 0 1 .98.2l-.18.9h.94a.5.5 0 0 1 0 1h-1.14l-.2 1h1.1a.5.5 0 1 1 0 1h-1.3L11 11.1a.5.5 0 0 1-.98-.2l.18-.9h-.98l-.22 1.1a.5.5 0 1 1-.98-.2l.18-.9h-.94a.5.5 0 0 1 0-1H8.4l.2-1H7.5a.5.5 0 0 1-.5-.5ZM10.4 9l.2-1H9.6l-.2 1h.98ZM6 2h8a2 2 0 0 1 2 2v11.5a.5.5 0 0 1-.5.5H5a1 1 0 0 0 1 1h9.5a.5.5 0 0 1 0 1H6a2 2 0 0 1-2-2V4c0-1.1.9-2 2-2ZM5 15h10V4a1 1 0 0 0-1-1H6a1 1 0 0 0-1 1v11Z"/></svg>