<svg width="28" height="28" viewBox="0 0 28 28" xmlns="http://www.w3.org/2000/svg"><path d="M8.04 5.5C9.66 4.6 11.64 4 14 4c4.25 0 7.26 1.95 9.18 4.08a13.45 13.45 0 012.11 3.11c.23.47.4.91.52 1.3.11.36.19.72.19 1.01 0 .52-.23 1.37-.64 2.29A12 12 0 0114 23c-2.48 0-4.51-.6-6.15-1.5H14v-1H6.33c-.6-.47-1.14-.98-1.6-1.5H14v-1a4.5 4.5 0 000-9V8H4.89c.48-.52 1.02-1.03 1.63-1.5H14v-1H8.04zM14 9H4.05c-.38.51-.7 1.02-.98 1.5h7.58A4.49 4.49 0 0114 9zm-4.03 2.5h-7.4a8.81 8.81 0 00-.51 1.5h7.47c.06-.53.2-1.04.44-1.5zM9.53 14H2.05c.08.42.23.94.46 1.5h7.46a4.47 4.47 0 01-.44-1.5zm1.12 2.5H2.98c.26.48.57.99.94 1.5H14a4.49 4.49 0 01-3.35-1.5z"/></svg>