<svg width="28" height="28" viewBox="0 0 28 28" xmlns="http://www.w3.org/2000/svg"><path d="M14 4c-2.36 0-4.34.6-5.96 1.5H14c3.75 0 6.37 1.7 8.07 3.58.85.95 1.47 1.93 1.87 2.76.2.42.35.79.44 1.09.1.3.12.5.12.57 0 .2-.13.82-.5 1.68a10.51 10.51 0 01-10 6.32H7.85c1.64.9 3.67 1.5 6.15 1.5a12 12 0 0011.36-7.21c.41-.92.64-1.77.64-2.29 0-.3-.08-.65-.19-1.02a9.37 9.37 0 00-.52-1.29 13.45 13.45 0 00-2.1-3.11A12.08 12.08 0 0014 4zm0 2.5H6.52c-.61.47-1.15.98-1.63 1.5H14V6.5zM14 9H4.05c-.38.51-.7 1.02-.98 1.5h9.13a3.5 3.5 0 110 6H2.98c.26.48.57.99.94 1.5H14v.5a5 5 0 000-10V9zM2.56 11.5h8.57c-.3.44-.52.95-.6 1.5H2.07a8.81 8.81 0 01.5-1.5zm-.5 2.5h8.48c.07.55.28 1.06.59 1.5H2.5a7.62 7.62 0 01-.46-1.5zM14 19H4.72c.47.52 1 1.03 1.6 1.5H14V19z"/></svg>