<svg width="20" height="20" viewBox="0 0 20 20" xmlns="http://www.w3.org/2000/svg"><path d="M10 6H3.92c.27-.34.57-.68.92-1H10V4H6.18C7.21 3.4 8.47 3 10 3a7.5 7.5 0 016.08 3 9.73 9.73 0 011.56 2.96c.06.2.11.4.11.54s-.05.35-.1.54A9.74 9.74 0 0116.08 13 7.5 7.5 0 0110 16c-1.53 0-2.8-.4-3.82-1H10v-1H4.84a8.59 8.59 0 01-.92-1H10v-.5a3 3 0 100-6V6zM8.34 7h-5.1c-.21.35-.38.7-.52 1H7.4c.23-.4.56-.74.94-1zm-1.3 2h-4.7c-.05.18-.09.37-.09.5s.04.32.1.5h4.7a3.02 3.02 0 010-1zm.36 2H2.72c.14.3.3.65.52 1h5.1c-.38-.26-.7-.6-.94-1z"/></svg>