<svg width="48" height="48" viewBox="0 0 48 48" xmlns="http://www.w3.org/2000/svg"><path d="M4.98 20.5h13.54c-.47.74-.8 1.6-.94 2.5H4.15l.1-.42c.17-.57.4-1.28.73-2.08zM4.15 25h13.43c.14.9.47 1.76.94 2.5H4.98a19.31 19.31 0 01-.83-2.5zM24 7c-3.92 0-7.14 1-9.77 2.5H24c6.73 0 11.08 3.32 13.8 6.85a22.26 22.26 0 013.53 6.9 5.68 5.68 0 01.17.75 16.89 16.89 0 01-.8 2.59 22.26 22.26 0 01-2.9 5.06A16.75 16.75 0 0124 38.5h-9.77A19.16 19.16 0 0024 41c7.7 0 12.72-3.84 15.77-7.83a24.76 24.76 0 003.97-7.75c.15-.53.26-1.06.26-1.42 0-.36-.11-.89-.26-1.42a24.76 24.76 0 00-3.97-7.75A19.25 19.25 0 0024 7zm-12.62 4.5H24V14H8.89a21.1 21.1 0 012.49-2.5zm-4 4.5H24v-1a9 9 0 110 18v-1H7.38c-.58-.85-1.07-1.7-1.48-2.5h14.63a6.5 6.5 0 103.47-12c-1.28 0-2.46.37-3.47 1H5.9c.41-.8.9-1.65 1.48-2.5zm1.5 18H24v2.5H11.38a21.1 21.1 0 01-2.5-2.5zM24 11.5V14z"/></svg>