<svg width="32" height="32" viewBox="0 0 32 32" xmlns="http://www.w3.org/2000/svg"><path d="M8.63 6c1.93-1.19 4.36-2 7.37-2 5.37 0 8.89 2.58 11.03 5.27a16.53 16.53 0 012.78 5.23c.1.35.2.73.2 1s-.1.65-.2 1a16.53 16.53 0 01-2.78 5.23A13.64 13.64 0 0116 27c-3.01 0-5.44-.81-7.37-2H16c4.63 0 7.62-2.2 9.47-4.52a14.53 14.53 0 002.42-4.53c.07-.25.1-.39.1-.44l.01-.01v-.01l-.1-.44a14.53 14.53 0 00-2.42-4.54A11.64 11.64 0 0015.99 6H8.63zm-2 1.5H16v2H4.79a15.68 15.68 0 011.84-2zm9.37 14a6 6 0 000-12V11H3.76c-.43.71-.77 1.4-1.03 2h10.15a4 4 0 110 5H2.73c.26.6.6 1.29 1.03 2H16v1.5zm0 0v2H6.63a14.9 14.9 0 01-1.84-2H16zm-3.87-7H2.19c-.1.35-.19.73-.19 1s.09.65.19 1h9.94a4.01 4.01 0 010-2z"/></svg>