<svg width="48" height="48" viewBox="0 0 48 48" xmlns="http://www.w3.org/2000/svg"><path d="M14.23 9.5C16.86 8 20.08 7 24 7c7.7 0 12.72 3.84 15.78 7.83a24.76 24.76 0 013.96 7.75c.15.53.26 1.06.26 1.42 0 .36-.11.89-.26 1.42-.16.58-.4 1.3-.73 2.12a24.76 24.76 0 01-3.23 5.63A19.25 19.25 0 0124 41c-3.92 0-7.14-1-9.77-2.5H24v-2H11.38A21.1 21.1 0 018.9 34H24v-2a8 8 0 100-16v-2H8.9a21.1 21.1 0 012.48-2.5H24v-2h-9.77zm3.96 9H5.9c.41-.8.9-1.65 1.48-2.5H24c-2.29 0-4.35.96-5.81 2.5zm-1.39 2H4.98a19.31 19.31 0 00-.83 2.5h11.91c.11-.89.37-1.73.74-2.5zm-.74 4.5H4.15l.1.42c.17.57.4 1.28.73 2.08H16.8a7.95 7.95 0 01-.74-2.5zm2.13 4.5a7.98 7.98 0 005.8 2.5H7.4c-.59-.85-1.08-1.7-1.49-2.5H18.2z"/></svg>