<svg width="24" height="24" viewBox="0 0 24 24" xmlns="http://www.w3.org/2000/svg"><path d="M4.39 7.06c.3-.37.63-.72 1-1.06h6.6V5H6.69A9.65 9.65 0 0112 3.5c3.64 0 6.1 1.7 7.61 3.56.76.92 1.28 1.88 1.63 2.7.33.8.51 1.53.51 1.99 0 .46-.18 1.2-.51 1.99-.35.82-.87 1.78-1.63 2.7A9.51 9.51 0 0112 20a9.65 9.65 0 01-5.32-1.5H12v-1H5.38A10.2 10.2 0 014.04 16H12v-.75a3.5 3.5 0 000-7V7.5H4.04l.35-.44zm6.3 1.44H3.4a10.8 10.8 0 00-.72 1.5h6.3c.39-.67 1-1.2 1.73-1.5zM8.6 11H2.34c-.06.3-.1.55-.1.75 0 .2.04.46.1.75h6.23a3.51 3.51 0 010-1.5zm.38 2.5h-6.3a9.7 9.7 0 00.72 1.5h7.3a3.51 3.51 0 01-1.72-1.5z"/></svg>