<svg width="20" height="20" viewBox="0 0 20 20" xmlns="http://www.w3.org/2000/svg"><path d="M3 3.5C3 2.67 3.67 2 4.5 2h11c.83 0 1.5.67 1.5 1.5v1c0 .83-.67 1.5-1.5 1.5h-11A1.5 1.5 0 0 1 3 4.5v-1ZM4.5 3a.5.5 0 0 0-.5.5v1c0 .28.22.5.5.5h11a.5.5 0 0 0 .5-.5v-1a.5.5 0 0 0-.5-.5h-11ZM3 9.5C3 8.67 3.67 8 4.5 8h11c.83 0 1.5.67 1.5 1.5v1c0 .83-.67 1.5-1.5 1.5h-11A1.5 1.5 0 0 1 3 10.5v-1ZM4.5 9a.5.5 0 0 0-.5.5v1c0 .28.22.5.5.5h11a.5.5 0 0 0 .5-.5v-1a.5.5 0 0 0-.5-.5h-11Zm0 5c-.83 0-1.5.67-1.5 1.5v1c0 .83.67 1.5 1.5 1.5h11c.83 0 1.5-.67 1.5-1.5v-1c0-.83-.67-1.5-1.5-1.5h-11ZM4 15.5c0-.28.22-.5.5-.5h11c.28 0 .5.22.5.5v1a.5.5 0 0 1-.5.5h-11a.5.5 0 0 1-.5-.5v-1Z"/></svg>