<svg width="16" height="16" viewBox="0 0 16 16" xmlns="http://www.w3.org/2000/svg"><path d="M11.33 2.06l.08.16.58 1.53c.04.12.14.22.26.26l1.48.56c.65.24 1 .93.82 1.6l-.04.12-.69 1.52a.45.45 0 000 .37l.66 1.44c.28.63.04 1.37-.55 1.71l-.15.08-1.53.58a.45.45 0 00-.26.26l-.56 1.48c-.24.65-.94 1-1.6.82l-.12-.04-1.53-.69a.45.45 0 00-.37 0l-1.43.66c-.64.28-1.37.04-1.72-.55l-.07-.15L4 12.25a.45.45 0 00-.26-.26l-1.48-.56c-.65-.24-1-.94-.83-1.6l.05-.12.68-1.53a.45.45 0 000-.37l-.65-1.43a1.34 1.34 0 01.54-1.72l.16-.07L3.75 4a.45.45 0 00.26-.26l.56-1.48c.24-.65.93-1 1.6-.83l.12.05 1.52.68c.12.06.26.06.37 0l1.44-.65a1.34 1.34 0 011.71.54zm-5.93.52l-.55 1.48c-.14.37-.42.65-.79.79l-1.48.55-.1.05a.45.45 0 00-.15.56L3 7.44c.16.36.16.76 0 1.11l-.66 1.46-.03.09c-.04.2.08.42.28.5l1.48.55c.37.14.65.42.79.78l.55 1.48.05.1c.12.18.36.25.56.15l1.43-.65c.36-.16.76-.16 1.11 0l1.46.66.09.03c.2.04.42-.08.5-.29l.55-1.48c.14-.36.42-.64.78-.78l1.48-.55.1-.06a.45.45 0 00.15-.55l-.65-1.44a1.34 1.34 0 010-1.1l.66-1.46.03-.09a.45.45 0 00-.29-.5l-1.48-.55a1.34 1.34 0 01-.78-.79l-.55-1.48-.06-.1a.45.45 0 00-.55-.15L8.55 3c-.35.16-.75.16-1.1 0L6 2.33h-.03a.45.45 0 00-.58.25zm1.58 6.77l3.18-3.64a.45.45 0 01.73.51l-.05.07-3.5 4c-.15.17-.4.2-.58.08l-.08-.05-1.5-1.5a.45.45 0 01.56-.7l.07.06 1.17 1.17 3.18-3.64-3.18 3.64z"/></svg>