<svg width="16" height="16" viewBox="0 0 16 16" xmlns="http://www.w3.org/2000/svg"><path d="M11.33 2.06l.08.16.58 1.53c.04.12.14.22.26.26l1.48.56c.65.24 1 .93.82 1.6l-.04.12-.69 1.52a.45.45 0 000 .37l.66 1.44c.28.63.04 1.37-.55 1.71l-.15.08-1.53.58a.45.45 0 00-.26.26l-.56 1.48c-.24.65-.94 1-1.6.82l-.12-.04-1.53-.69a.45.45 0 00-.37 0l-1.43.66c-.64.28-1.37.04-1.72-.55l-.07-.15L4 12.25a.45.45 0 00-.26-.26l-1.48-.56c-.65-.24-1-.94-.83-1.6l.05-.12.68-1.53a.45.45 0 000-.37l-.65-1.43a1.34 1.34 0 01.54-1.72l.16-.07L3.75 4a.45.45 0 00.26-.26l.56-1.48c.24-.65.93-1 1.6-.83l.12.05 1.52.68c.12.06.26.06.37 0l1.44-.65a1.34 1.34 0 011.71.54zm-1.17 3.65L6.98 9.35 5.8 8.18a.45.45 0 00-.63.63l1.5 1.5c.19.19.49.18.66-.02l3.5-4a.45.45 0 00-.68-.58z"/></svg>