<svg width="48" height="48" viewBox="0 0 48 48" xmlns="http://www.w3.org/2000/svg"><path d="M18.5 21.5a2 2 0 1 1-4 0 2 2 0 0 1 4 0Zm-2 13a2 2 0 1 0 0-4 2 2 0 0 0 0 4ZM6 12.25C6 8.8 8.8 6 12.25 6h23.5C39.2 6 42 8.8 42 12.25v23.5C42 39.2 39.2 42 35.75 42h-23.5A6.25 6.25 0 0 1 6 35.75v-23.5Zm15 9.25a4.5 4.5 0 1 0-9 0 4.5 4.5 0 0 0 9 0ZM16.5 37a4.5 4.5 0 1 0 0-9 4.5 4.5 0 0 0 0 9Zm-3.25-26a1.25 1.25 0 1 0 0 2.5h21.5a1.25 1.25 0 1 0 0-2.5h-21.5ZM23 21.75c0 .69.56 1.25 1.25 1.25h10.5a1.25 1.25 0 1 0 0-2.5h-10.5c-.69 0-1.25.56-1.25 1.25ZM24.25 31a1.25 1.25 0 1 0 0 2.5h10.5a1.25 1.25 0 1 0 0-2.5h-10.5Z"/></svg>