<svg width="20" height="20" viewBox="0 0 20 20" xmlns="http://www.w3.org/2000/svg"><path d="M19 5.5a4.5 4.5 0 1 1-9 0 4.5 4.5 0 0 1 9 0Zm-2.15-1.85a.5.5 0 0 0-.7 0L13.5 6.29l-.65-.64a.5.5 0 1 0-.7.7l1 1c.2.2.5.2.7 0l3-3a.5.5 0 0 0 0-.7ZM14.5 11c.17 0 .34 0 .5-.02a8.2 8.2 0 0 1-1.2 1.41.6.6 0 0 0-.15.22l-.03.08-.3 1.31H6.68l-.31-1.31a.6.6 0 0 0-.18-.3A6.32 6.32 0 0 1 4 8.04V7.6A5.91 5.91 0 0 1 10.25 2a5.5 5.5 0 0 0 4.25 9Zm-1.43 4-.38 1.6a1.84 1.84 0 0 1-1.67 1.4h-1.9c-.81 0-1.53-.52-1.77-1.26l-.04-.14-.38-1.6h6.14Z"/></svg>