<svg width="20" height="20" viewBox="0 0 20 20" xmlns="http://www.w3.org/2000/svg"><path d="M19 5.5a4.5 4.5 0 1 1-9 0 4.5 4.5 0 0 1 9 0Zm-2.15-1.85a.5.5 0 0 0-.7 0L13.5 6.29l-.65-.64a.5.5 0 0 0-.7.7l1 1c.2.2.5.2.7 0l3-3a.5.5 0 0 0 0-.7Zm-1.84 7.33a8.2 8.2 0 0 1-1.21 1.41.6.6 0 0 0-.15.22l-.02.08-.94 3.92a1.84 1.84 0 0 1-1.67 1.38l-1.9.01c-.81 0-1.53-.52-1.77-1.26l-.04-.14-.93-3.91a.6.6 0 0 0-.17-.3A6.32 6.32 0 0 1 4 8.04L4 7.8v-.2A5.91 5.91 0 0 1 10.25 2a5.5 5.5 0 0 0-.66 1.02 4.9 4.9 0 0 0-4.57 4.4l-.02.2V8c.06 1.3.68 2.52 1.9 3.67.18.17.32.4.4.64l.05.15.37 1.54h4.57l.38-1.61.05-.16c.09-.21.22-.4.39-.56.25-.24.47-.48.67-.72.4.06.82.06 1.23.03ZM7.96 15l.31 1.33.03.1c.1.3.38.52.71.56l.12.01h1.81a.86.86 0 0 0 .75-.53l.03-.1.32-1.37H7.96Z"/></svg>