<svg width="20" height="20" viewBox="0 0 20 20" xmlns="http://www.w3.org/2000/svg"><path d="M9 5.5a4.5 4.5 0 014-4.47v3.76l-.65-.64a.5.5 0 00-.7.7l1.5 1.5c.2.2.5.2.7 0l1.5-1.5a.5.5 0 00-.7-.7l-.65.64V1.03A4.5 4.5 0 119 5.5zm2 2c0 .28.22.5.5.5h4a.5.5 0 000-1h-4a.5.5 0 00-.5.5zm6 2.24c-.3.26-.64.48-1 .66v.6h-3.5a.5.5 0 00-.5.5 2 2 0 11-4 0 .5.5 0 00-.5-.5H4V8h4.6c-.16-.32-.3-.65-.4-1H4c0-1.1.9-2 2-2h2.02c.03-.34.1-.68.19-1H6a3 3 0 00-3 3v8a3 3 0 003 3h8a3 3 0 003-3V9.74zM16 15a2 2 0 01-2 2H6a2 2 0 01-2-2v-3h3.04a3 3 0 005.92 0H16v3z"/></svg>