<svg width="24" height="24" viewBox="0 0 24 24" xmlns="http://www.w3.org/2000/svg"><path d="M11 6.5a5.5 5.5 0 015-5.48V6.8l-1.65-1.64a.5.5 0 00-.7.7l2.5 2.5c.2.2.5.2.7 0l2.5-2.5a.5.5 0 00-.7-.7L17 6.79V1.02a5.5 5.5 0 11-6 5.48zm8.5 3A.5.5 0 0019 9h-5a.5.5 0 000 1h5a.5.5 0 00.5-.5zM6.25 4h4.25c-.2.48-.34.98-.42 1.5H6.25c-.97 0-1.75.78-1.75 1.75V8h5.67c.13.53.32 1.03.56 1.5H4.5V14h4.56c.38 0 .69.31.69.7v.05a2.25 2.25 0 004.5 0v-.06c0-.38.31-.69.7-.69h4.55v-1.73a6.52 6.52 0 001.5-1.08v7.56c0 1.8-1.46 3.25-3.25 3.25H6.25A3.25 3.25 0 013 18.75V7.25C3 5.45 4.46 4 6.25 4z"/></svg>