<svg width="24" height="24" viewBox="0 0 24 24" xmlns="http://www.w3.org/2000/svg"><path d="M11 6.5a5.5 5.5 0 015-5.48V6.8l-1.65-1.64a.5.5 0 00-.7.7l2.5 2.5c.2.2.5.2.7 0l2.5-2.5a.5.5 0 00-.7-.7L17 6.79V1.02a5.5 5.5 0 11-6 5.48zm8.5 3A.5.5 0 0019 9h-5a.5.5 0 000 1h5a.5.5 0 00.5-.5zm1.5 1.7c-.44.42-.95.78-1.5 1.07V14h-4.56a.7.7 0 00-.69.7v.05a2.25 2.25 0 01-4.5 0v-.06a.7.7 0 00-.7-.69H4.5V9.5h6.23a6.46 6.46 0 01-.56-1.5H4.5v-.75c0-.97.78-1.75 1.75-1.75h3.83c.08-.52.22-1.02.42-1.5H6.25A3.25 3.25 0 003 7.25v11.5C3 20.55 4.46 22 6.25 22h11.5c1.8 0 3.25-1.45 3.25-3.25V11.2zm-1.5 4.3v3.25c0 .97-.78 1.75-1.75 1.75H6.25c-.97 0-1.75-.78-1.75-1.75V15.5h3.83a3.75 3.75 0 007.35 0h3.82z"/></svg>