<svg width="24" height="24" viewBox="0 0 24 24" xmlns="http://www.w3.org/2000/svg"><path d="M5.25 4A3.25 3.25 0 0 0 2 7.25v9.5C2 18.55 3.46 20 5.25 20h13.5c1.8 0 3.25-1.46 3.25-3.25v-9.5C22 5.45 20.54 4 18.75 4H5.25Zm14 3c.41 0 .75.34.75.75v.5a.75.75 0 0 1-1.5 0v-.5c0-.41.34-.75.75-.75Zm-.75 8.75a.75.75 0 0 1 1.5 0v.5a.75.75 0 0 1-1.5 0v-.5Zm.75-4.75c.41 0 .75.34.75.75v.5a.75.75 0 0 1-1.5 0v-.5c0-.41.34-.75.75-.75ZM4 7.75a.75.75 0 0 1 1.5 0v.5a.75.75 0 0 1-1.5 0v-.5ZM4.75 15c.41 0 .75.34.75.75v.5a.75.75 0 0 1-1.5 0v-.5c0-.41.34-.75.75-.75ZM4 11.75a.75.75 0 0 1 1.5 0v.5a.75.75 0 0 1-1.5 0v-.5Zm6-2c0-.58.58-.94 1.03-.65l3.68 2.35c.39.24.39.86 0 1.1l-3.68 2.35c-.45.29-1.03-.07-1.03-.65v-4.5Z"/></svg>