<svg width="48" height="48" viewBox="0 0 48 48" xmlns="http://www.w3.org/2000/svg"><path d="M21.8 6.09a2.45 2.45 0 014.4 0l4.85 9.83 10.85 1.57a2.45 2.45 0 011.36 4.18l-7.85 7.66 1.85 10.8c.34 2-1.76 3.53-3.56 2.59l-9.7-5.1-9.7 5.1c-1.8.94-3.9-.59-3.56-2.59l1.85-10.8-7.85-7.66A2.45 2.45 0 016.1 17.5l10.85-1.57 4.85-9.83zm2.2 1.2l-4.82 9.76a2.45 2.45 0 01-1.84 1.34L6.56 19.95l7.8 7.6c.58.57.84 1.38.7 2.17l-1.84 10.74 9.64-5.07a2.45 2.45 0 012.28 0l9.64 5.07-1.84-10.74c-.14-.8.12-1.6.7-2.17l7.8-7.6-10.78-1.56a2.45 2.45 0 01-1.84-1.34L24 7.28z"/></svg>