<svg width="24" height="24" viewBox="0 0 24 24" xmlns="http://www.w3.org/2000/svg"><path d="M14.75 16.5c1.3 0 1.82.58 2.2 1.87l.07.24c.19.66.3.86.52.95.26.1.43.09.7-.05l.15-.08.17-.11.67-.46c.61-.4 1.17-.67 1.84-.84a.75.75 0 1 1 .36 1.46c-.4.1-.76.25-1.14.49l-.3.19-.48.33c-.23.15-.4.26-.58.35a2.2 2.2 0 0 1-1.96.1c-.75-.3-1.05-.78-1.33-1.72l-.16-.54c-.18-.59-.3-.68-.73-.68-.3 0-.63.16-1.07.52l-.18.16-.92.88c-1.41 1.32-2.61 1.97-4.33 1.97-1.69 0-3.15-.26-4.37-.77l2.95-.8c.45.04.92.07 1.42.07 1.18 0 2.03-.42 3.09-1.37l.25-.24.54-.5a12 12 0 0 1 .59-.55c.68-.57 1.3-.87 2.03-.87Zm4.28-13.53a3.58 3.58 0 0 1 0 5.06l-.29.29c1.15 1.4 1.11 2.89.04 3.96l-2 2a.75.75 0 0 1-1.06-1.06l2-2c.48-.49.54-1.09-.04-1.84L9.06 18c-.27.28-.62.48-1 .58l-5.11 1.4a.75.75 0 0 1-.92-.93l1.4-5.11c.1-.38.3-.72.57-1l9.97-9.97a3.58 3.58 0 0 1 5.06 0Z"/></svg>