<svg width="32" height="32" viewBox="0 0 32 32" xmlns="http://www.w3.org/2000/svg"><path d="M17.47 3.46a5 5 0 1 1 7.07 7.08l-.8.79.2.2a3.5 3.5 0 0 1 0 4.95L20.7 19.7a1 1 0 1 1-1.42-1.42l3.23-3.23a1.5 1.5 0 0 0 0-2.12l-.2-.2-10.86 10.88a3 3 0 0 1-1.45.8l-6.79 1.55a1 1 0 0 1-1.2-1.2L3.59 18a3 3 0 0 1 .8-1.45L17.48 3.46Zm5.65 1.42a3 3 0 0 0-4.24 0L5.8 17.96a1 1 0 0 0-.27.48l-1.2 5.23 5.23-1.2a1 1 0 0 0 .48-.27L23.12 9.12a3 3 0 0 0 0-4.24ZM8.56 29.9a8.76 8.76 0 0 1-4.71-2.53l2.42-.55c.7.5 1.61.93 2.62 1.1 1.54.27 3.43-.07 5.4-2.03a33.28 33.28 0 0 1 2.85-2.57c.78-.6 1.5-1.05 2.19-1.23.76-.2 1.5-.08 2.09.44.5.45.8 1.12 1.03 1.78l.03.1c.41 1.22.62 1.84.83 2.22.1.17.16.24.2.28.05.03.13.08.3.14 0 0 .12.04.45-.13.32-.17.7-.45 1.18-.83l.27-.22c.38-.3.8-.65 1.23-.94a5.65 5.65 0 0 1 1.82-.9 1 1 0 0 1 .48 1.94c-.32.08-.7.28-1.16.6-.36.25-.7.53-1.08.83l-.31.25c-.47.37-1 .78-1.52 1.05a2.55 2.55 0 0 1-2.92-.25c-.3-.24-.51-.53-.69-.85-.3-.55-.56-1.34-.92-2.38l-.09-.27c-.2-.59-.36-.83-.46-.92-.02-.02-.05-.06-.24 0-.3.07-.76.31-1.48.87-.7.55-1.58 1.34-2.67 2.41-2.42 2.4-4.94 2.96-7.14 2.59Z"/></svg>