<svg width="20" height="20" viewBox="0 0 20 20" xmlns="http://www.w3.org/2000/svg"><path d="M15.85 1.14a.5.5 0 0 0-.7 0 .5.5 0 0 0 0 .72 6.57 6.57 0 0 1 1.86 5.56.5.5 0 0 0 .42.58.5.5 0 0 0 .56-.42 7.6 7.6 0 0 0-2.14-6.44ZM4.63 3.04a1.6 1.6 0 0 1 3.04-.63 1.6 1.6 0 0 1 2.59.7l.08.27a1.6 1.6 0 0 1 2.55.73l1.07 3.23.58 1.7a8.5 8.5 0 0 1 .38 3.9l-.27 2a2.5 2.5 0 0 1-1.51 1.96l-2.16.9c-.97.4-2.07.15-2.8-.55-3.12-2.99-5.88-3.97-6.65-4.2-.35-.11-.66-.52-.47-.98.15-.35.51-.97 1.28-1.32.6-.26 1.36-.33 2.35-.06L2.77 5.1a1.61 1.61 0 0 1 1.02-2.03c.28-.09.57-.1.84-.04Zm2.15 3.64.55 1.68a.5.5 0 1 1-.95.31l-.57-1.72-.95-2.52a.6.6 0 0 0-.76-.4.61.61 0 0 0-.38.76l2.25 6.55a.5.5 0 0 1-.67.62c-1.33-.57-2.11-.49-2.55-.3-.3.14-.5.34-.62.53a18.9 18.9 0 0 1 6.74 4.33c.47.46 1.15.6 1.72.36l2.16-.9c.5-.2.84-.66.9-1.18l.28-1.99a7.5 7.5 0 0 0-.34-3.44l-.58-1.7v-.01l-1.07-3.24a.6.6 0 0 0-1.16.3l.85 2.62a.5.5 0 0 1-.95.31L9.85 5.1a1.63 1.63 0 0 1-.04-.13l-.5-1.56a.6.6 0 0 0-1.15.38l.6 1.85a.5.5 0 0 1 .03.11l.53 1.6a.5.5 0 1 1-.95.3L6.79 2.92a.6.6 0 0 0-1.13.38l1.1 3.33.02.06Zm7.46-3.61a.5.5 0 0 1 .69.17l.3.5c.5.83.76 1.78.77 2.75a.5.5 0 1 1-1 .01c0-.79-.22-1.57-.63-2.25l-.3-.5a.5.5 0 0 1 .17-.68Z"/></svg>