<svg width="16" height="16" viewBox="0 0 16 16" xmlns="http://www.w3.org/2000/svg"><path d="M2.07 2.02c.4-.1.8.15.9.55l.97 3.86a.58.58 0 1 0 1.14-.29l-1.06-4.2a.75.75 0 1 1 1.46-.37L6.6 6.1a.59.59 0 0 0 1.14-.28l-.72-2.91a.75.75 0 1 1 1.45-.36l.8 3.22a.6.6 0 1 0 1.14-.3L10 3.92a.75.75 0 0 1 1.45-.37l.75 2.75v.01a12.36 12.36 0 0 1 .3 2.18c.03 1.22-.16 2.8-.3 3.87-.15.95-.83 1.7-1.74 1.97l-1.78.53a3.86 3.86 0 0 1-3.9-1.17 10.92 10.92 0 0 0-3-2.43 1.4 1.4 0 0 1-.7-.76 1 1 0 0 1 .24-1.11 2.38 2.38 0 0 1 1.65-.67L1.52 2.93c-.1-.4.15-.8.55-.9Zm11.36-1.01a.5.5 0 0 1 .37.09 5.19 5.19 0 0 1 1.68 5.54A.49.49 0 0 1 15 7l-.14-.02a.5.5 0 0 1-.34-.62A4.19 4.19 0 0 0 13.2 1.9a.5.5 0 0 1 .23-.9Zm-.64 1.58a.5.5 0 0 0-.69.12.5.5 0 0 0 .1.69 2.37 2.37 0 0 1 .8 2.06.5.5 0 0 0 .46.54.5.5 0 0 0 .5-.46 3.37 3.37 0 0 0-1.17-2.95Z"/></svg>