<svg width="32" height="32" viewBox="0 0 32 32" xmlns="http://www.w3.org/2000/svg"><path d="M4 9a5 5 0 0 1 5-5h14a5 5 0 0 1 5 5v14a5 5 0 0 1-5 5H9a5 5 0 0 1-5-5v-4a1 1 0 1 1 2 0v4a3 3 0 0 0 3 3h14a3 3 0 0 0 3-3V12H10.3a2.5 2.5 0 0 0 0-2H26V9a3 3 0 0 0-3-3H9a3 3 0 0 0-3 3v2.59l1.3-1.3a1 1 0 1 1 1.4 1.42l-3 3a1 1 0 0 1-1.4 0l-3-3a1 1 0 1 1 1.4-1.42L4 11.6V9Zm6.5 9a1.5 1.5 0 1 0 0-3 1.5 1.5 0 0 0 0 3Zm1.5 3.5a1.5 1.5 0 1 1-3 0 1.5 1.5 0 0 1 3 0Zm4 1.5a1.5 1.5 0 1 0 0-3 1.5 1.5 0 0 0 0 3Zm1.5-6.5a1.5 1.5 0 1 1-3 0 1.5 1.5 0 0 1 3 0Zm4 1.5a1.5 1.5 0 1 0 0-3 1.5 1.5 0 0 0 0 3Z"/></svg>