<svg width="20" height="20" viewBox="0 0 20 20" xmlns="http://www.w3.org/2000/svg"><path d="M3 5.5A2.5 2.5 0 0 1 5.5 3h9A2.5 2.5 0 0 1 17 5.5V6H6.11A1.5 1.5 0 0 0 4 5.87V7.3l.65-.64a.5.5 0 1 1 .7.7l-1.5 1.5a.5.5 0 0 1-.7 0l-1.5-1.5a.5.5 0 1 1 .7-.7l.65.64V5.5ZM17 7v7.5a2.5 2.5 0 0 1-2.5 2.5h-9A2.5 2.5 0 0 1 3 14.5V9.92a1.5 1.5 0 0 0 1.55-.36l1.5-1.5c.3-.3.44-.68.44-1.06H17ZM7 11a1 1 0 1 0 0-2 1 1 0 0 0 0 2Zm-1 2a1 1 0 1 0 2 0 1 1 0 0 0-2 0Zm4-2a1 1 0 1 0 0-2 1 1 0 0 0 0 2Zm-1 2a1 1 0 1 0 2 0 1 1 0 0 0-2 0Zm4-2a1 1 0 1 0 0-2 1 1 0 0 0 0 2Z"/></svg>