<svg width="28" height="28" viewBox="0 0 28 28" xmlns="http://www.w3.org/2000/svg"><path d="M6.25 3A3.25 3.25 0 0 0 3 6.25v3.69l-.72-.72a.75.75 0 0 0-1.06 1.06l2 2c.3.3.77.3 1.06 0l2-2a.75.75 0 1 0-1.06-1.06l-.72.72V6.25c0-.97.78-1.75 1.75-1.75h15.5c.97 0 1.75.78 1.75 1.75V8H5.9a1.74 1.74 0 0 1 1.58 1.5H23.5v12.25c0 .97-.78 1.75-1.75 1.75H6.25c-.97 0-1.75-.78-1.75-1.75v-7a.75.75 0 0 0-1.5 0v7C3 23.55 4.46 25 6.25 25h15.5c1.8 0 3.25-1.46 3.25-3.25V6.25C25 4.45 23.54 3 21.75 3H6.25ZM10 18.75a1.25 1.25 0 1 0-2.5 0 1.25 1.25 0 0 0 2.5 0Zm5.25 0a1.25 1.25 0 1 0-2.5 0 1.25 1.25 0 0 0 2.5 0Zm-5.25-5a1.25 1.25 0 1 0-2.5 0 1.25 1.25 0 0 0 2.5 0Zm5.25 0a1.25 1.25 0 1 0-2.5 0 1.25 1.25 0 0 0 2.5 0Zm5.26 0a1.25 1.25 0 1 0-2.5 0 1.25 1.25 0 0 0 2.5 0Z"/></svg>