<svg width="28" height="28" viewBox="0 0 28 28" xmlns="http://www.w3.org/2000/svg"><path d="M25 21.75V9.5H7.48c.08.53-.09 1.08-.5 1.49l-2 2c-.53.54-1.33.65-1.98.34v8.42C3 23.55 4.46 25 6.25 25h15.5c1.8 0 3.25-1.46 3.25-3.25Zm-17.5-3a1.25 1.25 0 1 1 2.5 0 1.25 1.25 0 0 1-2.5 0Zm5.25 0a1.25 1.25 0 1 1 2.5 0 1.25 1.25 0 0 1-2.5 0Zm-5.26-5a1.25 1.25 0 1 1 2.5 0 1.25 1.25 0 0 1-2.5 0Zm5.26 0a1.25 1.25 0 1 1 2.5 0 1.25 1.25 0 0 1-2.5 0Zm5.25 0a1.25 1.25 0 1 1 2.5 0 1.25 1.25 0 0 1-2.5 0Zm7-7.5C25 4.45 23.54 3 21.75 3H6.25A3.25 3.25 0 0 0 3 6.25v3.69l-.72-.72a.75.75 0 0 0-1.06 1.06l2 2c.3.3.77.3 1.06 0l2-2a.75.75 0 1 0-1.06-1.06l-.72.72V8H25V6.25Z"/></svg>