<svg width="16" height="16" viewBox="0 0 16 16" xmlns="http://www.w3.org/2000/svg"><path d="M4.5 2A2.5 2.5 0 0 0 2 4.5v1.8l-.65-.65a.5.5 0 1 0-.7.7l1.5 1.5c.2.2.5.2.7 0l1.5-1.5a.5.5 0 1 0-.7-.7L3 6.29V4.5C3 3.67 3.67 3 4.5 3h7c.83 0 1.5.67 1.5 1.5V5H5.12c.25.28.38.64.38 1H13v5.5c0 .83-.67 1.5-1.5 1.5h-7A1.5 1.5 0 0 1 3 11.5v-2a.5.5 0 0 0-1 0v2A2.5 2.5 0 0 0 4.5 14h7a2.5 2.5 0 0 0 2.5-2.5v-7A2.5 2.5 0 0 0 11.5 2h-7Zm.75 7a.75.75 0 1 0 0-1.5.75.75 0 0 0 0 1.5ZM6 10.75a.75.75 0 1 1-1.5 0 .75.75 0 0 1 1.5 0ZM8 9a.75.75 0 1 0 0-1.5A.75.75 0 0 0 8 9Zm.75 1.75a.75.75 0 1 1-1.5 0 .75.75 0 0 1 1.5 0Zm2-1.75a.75.75 0 1 0 0-1.5.75.75 0 0 0 0 1.5Z"/></svg>