<svg width="20" height="20" viewBox="0 0 20 20" xmlns="http://www.w3.org/2000/svg"><path d="M2.75 5a.75.75 0 0 0 0 1.5h14.5a.75.75 0 0 0 0-1.5H2.75Zm0 3a.75.75 0 0 0 0 1.5h9.46a5.48 5.48 0 0 1 4.58 0h.46a.75.75 0 0 0 0-1.5H2.75Zm0 3h7.5a5.5 5.5 0 0 0-.88 1.5H2.75a.75.75 0 0 1 0-1.5Zm0 3h6.27a5.57 5.57 0 0 0 .07 1.5H2.75a.75.75 0 0 1 0-1.5Zm16.25.5a4.5 4.5 0 1 1-9 0 4.5 4.5 0 0 1 9 0ZM14.5 12a.5.5 0 0 0-.5.5v2a.5.5 0 0 0 1 0v-2a.5.5 0 0 0-.5-.5Zm0 5.13a.62.62 0 1 0 0-1.25.62.62 0 0 0 0 1.24Z"/></svg>