<svg width="48" height="48" viewBox="0 0 48 48" xmlns="http://www.w3.org/2000/svg"><path d="M6 12.5A6.5 6.5 0 0112.5 6h5.34a1.5 1.5 0 010 3H12.5A3.5 3.5 0 009 12.5v5.34a1.5 1.5 0 01-3 0V12.5zm22.66-5c0-.83.67-1.5 1.5-1.5h5.34a6.5 6.5 0 016.5 6.5v5.34a1.5 1.5 0 01-3 0V12.5A3.5 3.5 0 0035.5 9h-5.34a1.5 1.5 0 01-1.5-1.5zM7.5 28.66c.83 0 1.5.67 1.5 1.5v5.34a3.5 3.5 0 003.5 3.5h5.34a1.5 1.5 0 010 3H12.5A6.5 6.5 0 016 35.5v-5.34c0-.83.67-1.5 1.5-1.5zm33 0c.83 0 1.5.67 1.5 1.5v5.34a6.5 6.5 0 01-6.5 6.5h-5.34a1.5 1.5 0 010-3h5.34a3.5 3.5 0 003.5-3.5v-5.34c0-.83.67-1.5 1.5-1.5zM27 24.5a3 3 0 10-6 0 3 3 0 006 0zm.86-8.89a2.25 2.25 0 00-1.94-1.1h-3.8c-.78 0-1.5.4-1.92 1.07L19.33 17h-2.08A3.25 3.25 0 0014 20.25v9.5c0 1.8 1.46 3.25 3.25 3.25h13.5c1.8 0 3.25-1.46 3.25-3.25v-9.5c0-1.8-1.46-3.25-3.25-3.25h-2.07l-.82-1.39zM19.5 24.5a4.5 4.5 0 119 0 4.5 4.5 0 01-9 0z"/></svg>