<svg width="48" height="48" viewBox="0 0 48 48" xmlns="http://www.w3.org/2000/svg"><path d="M6 12.25C6 8.8 8.8 6 12.25 6h5.5a1.25 1.25 0 110 2.5h-5.5a3.75 3.75 0 00-3.75 3.75v5.5a1.25 1.25 0 11-2.5 0v-5.5zm23-5c0-.69.56-1.25 1.25-1.25h5.5C39.2 6 42 8.8 42 12.25v5.5a1.25 1.25 0 11-2.5 0v-5.5a3.75 3.75 0 00-3.75-3.75h-5.5c-.69 0-1.25-.56-1.25-1.25zM7.25 29c.69 0 1.25.56 1.25 1.25v5.5a3.75 3.75 0 003.75 3.75h5.5a1.25 1.25 0 110 2.5h-5.5A6.25 6.25 0 016 35.75v-5.5c0-.69.56-1.25 1.25-1.25zm33.5 0c.69 0 1.25.56 1.25 1.25v5.5C42 39.2 39.2 42 35.75 42h-5.5a1.25 1.25 0 110-2.5h5.5a3.75 3.75 0 003.75-3.75v-5.5c0-.69.56-1.25 1.25-1.25zM27 24.5a3 3 0 10-6 0 3 3 0 006 0zm.86-8.89a2.25 2.25 0 00-1.94-1.1h-3.8c-.78 0-1.5.4-1.92 1.07L19.33 17h-2.08A3.25 3.25 0 0014 20.25v9.5c0 1.8 1.46 3.25 3.25 3.25h13.5c1.8 0 3.25-1.46 3.25-3.25v-9.5c0-1.8-1.46-3.25-3.25-3.25h-2.07l-.82-1.39zM19.5 24.5a4.5 4.5 0 119 0 4.5 4.5 0 01-9 0z"/></svg>