<svg width="28" height="28" viewBox="0 0 28 28" xmlns="http://www.w3.org/2000/svg"><path d="M3 7a4 4 0 0 1 4-4h3.34a1 1 0 0 1 0 2H7a2 2 0 0 0-2 2v3.34a1 1 0 0 1-2 0V7Zm13.66-3a1 1 0 0 1 1-1H21a4 4 0 0 1 4 4v3.34a1 1 0 0 1-2 0V7a2 2 0 0 0-2-2h-3.34a1 1 0 0 1-1-1ZM4 16.66a1 1 0 0 1 1 1V21c0 1.1.9 2 2 2h3.34a1 1 0 0 1 0 2H7a4 4 0 0 1-4-4v-3.34a1 1 0 0 1 1-1Zm20 0a1 1 0 0 1 1 1V21a4 4 0 0 1-4 4h-3.34a1 1 0 0 1 0-2H21a2 2 0 0 0 2-2v-3.34a1 1 0 0 1 1-1ZM14 16a2 2 0 1 0 0-4 2 2 0 0 0 0 4Zm-1.38-8a1.5 1.5 0 0 0-1.34.83L10.69 10H10a2 2 0 0 0-2 2v5c0 1.1.9 2 2 2h8a2 2 0 0 0 2-2v-5a2 2 0 0 0-2-2h-.7l-.58-1.17A1.5 1.5 0 0 0 15.38 8h-2.76ZM14 11a3 3 0 1 1 0 6 3 3 0 0 1 0-6Z"/></svg>