<svg width="28" height="28" viewBox="0 0 28 28" xmlns="http://www.w3.org/2000/svg"><path d="M3 7a4 4 0 014-4h3.34a1 1 0 010 2H7a2 2 0 00-2 2v3.34a1 1 0 01-2 0V7zm13.66-3a1 1 0 011-1H21a4 4 0 014 4v3.34a1 1 0 01-2 0V7a2 2 0 00-2-2h-3.34a1 1 0 01-1-1zM4 16.66a1 1 0 011 1V21c0 1.1.9 2 2 2h3.34a1 1 0 010 2H7a4 4 0 01-4-4v-3.34a1 1 0 011-1zm20 0a1 1 0 011 1V21a4 4 0 01-4 4h-3.34a1 1 0 010-2H21a2 2 0 002-2v-3.34a1 1 0 011-1zM14 16a2 2 0 100-4 2 2 0 000 4zm-1.38-8a1.5 1.5 0 00-1.34.83L10.69 10H10a2 2 0 00-2 2v5c0 1.1.9 2 2 2h8a2 2 0 002-2v-5a2 2 0 00-2-2h-.7l-.58-1.17A1.5 1.5 0 0015.38 8h-2.76zM14 11a3 3 0 110 6 3 3 0 010-6z"/></svg>