<svg width="16" height="16" viewBox="0 0 16 16" xmlns="http://www.w3.org/2000/svg"><path d="M4.5 2A2.5 2.5 0 002 4.5v1a.5.5 0 001 0v-1C3 3.67 3.67 3 4.5 3h1a.5.5 0 000-1h-1zm6 0a.5.5 0 000 1h1c.83 0 1.5.67 1.5 1.5v1a.5.5 0 001 0v-1A2.5 2.5 0 0011.5 2h-1zM3 10.5a.5.5 0 00-1 0v1A2.5 2.5 0 004.5 14h1a.5.5 0 000-1h-1A1.5 1.5 0 013 11.5v-1zm11 0a.5.5 0 00-1 0v1c0 .83-.67 1.5-1.5 1.5h-1a.5.5 0 000 1h1a2.5 2.5 0 002.5-2.5v-1zM4.5 10V7.38a1 1 0 011-1h.75l.58-.91A1 1 0 017.68 5h.64a1 1 0 01.85.47l.58.91h.75a1 1 0 011 1V10a1 1 0 01-1 1h-5a1 1 0 01-1-1zM8 9.5a1 1 0 100-2 1 1 0 000 2z"/></svg>