<svg width="24" height="24" viewBox="0 0 24 24" xmlns="http://www.w3.org/2000/svg"><path d="M3 6.5A3.5 3.5 0 016.5 3h1.86a1 1 0 010 2H6.5C5.67 5 5 5.67 5 6.5v1.86a1 1 0 01-2 0V6.5zM14.64 4a1 1 0 011-1h1.86A3.5 3.5 0 0121 6.5v1.86a1 1 0 11-2 0V6.5c0-.83-.67-1.5-1.5-1.5h-1.86a1 1 0 01-1-1zM4 14.64a1 1 0 011 1v1.86c0 .83.67 1.5 1.5 1.5h1.86a1 1 0 110 2H6.5A3.5 3.5 0 013 17.5v-1.86a1 1 0 011-1zm16 0a1 1 0 011 1v1.86a3.5 3.5 0 01-3.5 3.5h-1.86a1 1 0 110-2h1.86c.83 0 1.5-.67 1.5-1.5v-1.86a1 1 0 011-1zM12 13a1 1 0 100-2 1 1 0 000 2zm-1.15-6c-.48 0-.9.26-1.12.68L9.24 9h-.57C7.75 9 7 9.6 7 10.5v3.86c0 .9.75 1.64 1.67 1.64h6.66c.92 0 1.67-.73 1.67-1.64V10.5c0-.9-.75-1.5-1.67-1.5h-.57l-.49-1.32A1.25 1.25 0 0013.15 7h-2.3zM12 14a2 2 0 110-4 2 2 0 010 4z"/></svg>