<svg width="28" height="28" viewBox="0 0 28 28" xmlns="http://www.w3.org/2000/svg"><path d="M3 6.75A3.75 3.75 0 016.75 3h3.5a.75.75 0 010 1.5h-3.5c-1.24 0-2.25 1-2.25 2.25v3.5a.75.75 0 01-1.5 0v-3.5zm14-3c0-.41.34-.75.75-.75h3.5A3.75 3.75 0 0125 6.75v3.5a.75.75 0 01-1.5 0v-3.5c0-1.24-1-2.25-2.25-2.25h-3.5a.75.75 0 01-.75-.75zM3.75 17c.41 0 .75.34.75.75v3.5c0 1.24 1 2.25 2.25 2.25h3.5a.75.75 0 010 1.5h-3.5A3.75 3.75 0 013 21.25v-3.5c0-.41.34-.75.75-.75zm20.5 0c.41 0 .75.34.75.75v3.5A3.75 3.75 0 0121.25 25h-3.5a.75.75 0 010-1.5h3.5c1.24 0 2.25-1 2.25-2.25v-3.5c0-.41.34-.75.75-.75zM14 16a2 2 0 100-4 2 2 0 000 4zm-1.38-8a1.5 1.5 0 00-1.34.83L10.69 10H10a2 2 0 00-2 2v5c0 1.1.9 2 2 2h8a2 2 0 002-2v-5a2 2 0 00-2-2h-.7l-.58-1.17A1.5 1.5 0 0015.38 8h-2.76zM14 11a3 3 0 110 6 3 3 0 010-6z"/></svg>