<svg width="20" height="20" viewBox="0 0 20 20" xmlns="http://www.w3.org/2000/svg"><path d="M17.78 3.28a.75.75 0 0 0-1.06-1.06l-2.45 2.45a4.04 4.04 0 0 0-5.12.48l-.3.3a1.49 1.49 0 0 0 0 2.1l2.46 2.47a5.48 5.48 0 0 1 4.55-.85 4.04 4.04 0 0 0-.53-3.44l2.45-2.45ZM7.55 8.85l2.47 2.46a5.48 5.48 0 0 0-.85 4.55 4.04 4.04 0 0 1-3.44-.53l-2.45 2.45a.75.75 0 0 1-1.06-1.06l2.45-2.45a4.04 4.04 0 0 1 .48-5.12l.3-.3a1.49 1.49 0 0 1 2.1 0ZM19 14.5a4.5 4.5 0 1 1-9 0 4.5 4.5 0 0 1 9 0Zm-2.15-1.85a.5.5 0 0 0-.7 0l-2.65 2.64-.65-.64a.5.5 0 0 0-.7.7l1 1c.2.2.5.2.7 0l3-3a.5.5 0 0 0 0-.7Z"/></svg>