<svg width="20" height="20" viewBox="0 0 20 20" xmlns="http://www.w3.org/2000/svg"><path d="M17.78 3.28a.75.75 0 00-1.06-1.06l-2.45 2.45a4.04 4.04 0 00-5.12.48l-.3.3a1.49 1.49 0 000 2.1l2.46 2.47a5.48 5.48 0 014.55-.85 4.04 4.04 0 00-.53-3.44l2.45-2.45zM7.55 8.85l2.47 2.46a5.48 5.48 0 00-.85 4.55 4.04 4.04 0 01-3.44-.53l-2.45 2.45a.75.75 0 01-1.06-1.06l2.45-2.45a4.04 4.04 0 01.48-5.12l.3-.3a1.49 1.49 0 012.1 0zM19 14.5a4.5 4.5 0 11-9 0 4.5 4.5 0 019 0zm-2.15-1.85a.5.5 0 00-.7 0l-2.65 2.64-.65-.64a.5.5 0 00-.7.7l1 1c.2.2.5.2.7 0l3-3a.5.5 0 000-.7z"/></svg>