<svg width="20" height="20" viewBox="0 0 20 20" xmlns="http://www.w3.org/2000/svg"><path d="M4.5 3A2.5 2.5 0 0 0 2 5.5v9A2.5 2.5 0 0 0 4.5 17h5.1c-.16-.32-.3-.65-.4-1H4.5A1.5 1.5 0 0 1 3 14.5v-7h4.07c.41 0 .8-.17 1.09-.47L9.62 5.5h5.88c.83 0 1.5.67 1.5 1.5v2.6c.36.18.7.4 1 .66V7a2.5 2.5 0 0 0-2.5-2.5H9.67l-1.6-1.2a1.5 1.5 0 0 0-.9-.3H4.5ZM3 5.5C3 4.67 3.67 4 4.5 4h2.67c.1 0 .21.04.3.1l1.22.92-1.26 1.32a.5.5 0 0 1-.36.16H3v-1Zm16 9a4.5 4.5 0 1 1-9 0 4.5 4.5 0 0 1 9 0Zm-4-2a.5.5 0 0 0-1 0V14h-1.5a.5.5 0 0 0 0 1H14v1.5a.5.5 0 0 0 1 0V15h1.5a.5.5 0 0 0 0-1H15v-1.5Z"/></svg>