<svg width="28" height="28" viewBox="0 0 28 28" xmlns="http://www.w3.org/2000/svg"><path d="M3.5 6.68V9h5.92c.33 0 .65-.13.89-.37l1.88-1.88-1.88-1.88a1.25 1.25 0 0 0-.89-.37H5.75c-1.22 0-2.21.97-2.25 2.18ZM2 9.83V6.75A3.75 3.75 0 0 1 5.75 3h3.67c.73 0 1.43.29 1.95.8l2.2 2.2h8.68A3.75 3.75 0 0 1 26 9.75v4.65c-.44-.48-.95-.9-1.5-1.25v-3.4c0-1.24-1-2.25-2.25-2.25h-8.69l-2.2 2.2c-.51.51-1.2.8-1.94.8H3.5v9.75c0 1.24 1.01 2.25 2.25 2.25h7.87c.24.54.53 1.04.88 1.5H5.75A3.75 3.75 0 0 1 2 20.25V9.83Zm25 9.67a6.5 6.5 0 1 1-13 0 6.5 6.5 0 0 1 13 0Zm-6-4a.5.5 0 0 0-1 0V19h-3.5a.5.5 0 0 0 0 1H20v3.5a.5.5 0 0 0 1 0V20h3.5a.5.5 0 0 0 0-1H21v-3.5Z"/></svg>