<svg width="28" height="28" viewBox="0 0 28 28" xmlns="http://www.w3.org/2000/svg"><path d="M9.5 16.25a1.25 1.25 0 1 1-2.5 0 1.25 1.25 0 0 1 2.5 0Zm10.25 1.25a1.25 1.25 0 1 0 0-2.5 1.25 1.25 0 0 0 0 2.5Zm-8.75.75c0-.41.34-.75.75-.75h4.5a.75.75 0 0 1 0 1.5h-4.5a.75.75 0 0 1-.75-.75Zm-1-14.5V2a1 1 0 0 1 1-1h6a1 1 0 0 1 1 1v1.75h.16a3.75 3.75 0 0 1 3.64 2.84L22.4 9h1.35a.75.75 0 0 1 0 1.5h-.98l.28 1.12A2.75 2.75 0 0 1 25 14.25v9A2.75 2.75 0 0 1 22.25 26h-1a2.75 2.75 0 0 1-2.75-2.75v-1h-9v1A2.75 2.75 0 0 1 6.75 26h-1A2.75 2.75 0 0 1 3 23.25v-9c0-1.24.82-2.29 1.95-2.63l.28-1.12h-.98a.75.75 0 0 1 0-1.5H5.6l.6-2.41a3.75 3.75 0 0 1 3.64-2.84H10Zm1.5 0h5V2.5h-5v1.25Zm-1.66 1.5c-1.03 0-1.93.7-2.18 1.7L6.52 11.5h14.96l-1.14-4.55c-.25-1-1.15-1.7-2.18-1.7H9.84Zm10.16 17v1c0 .69.56 1.25 1.25 1.25h1c.69 0 1.25-.56 1.25-1.25v-1H20Zm-12 1v-1H4.5v1c0 .69.56 1.25 1.25 1.25h1c.69 0 1.25-.56 1.25-1.25ZM22.25 13H5.75c-.69 0-1.25.56-1.25 1.25v6.5h19v-6.5c0-.69-.56-1.25-1.25-1.25Z"/></svg>