<svg width="24" height="24" viewBox="0 0 24 24" xmlns="http://www.w3.org/2000/svg"><path d="M10 5.71L7.23 13.5h5.53L10 5.71zm3.57 10.07L13.3 15H6.7l-1.24 3.5a.75.75 0 01-1.42-.5L9.16 3.6a.89.89 0 011.68 0l3.9 11-1.17 1.18zM5 20.38c-.53.11-1.17-.13-1.63-.39-.21-.1-.5.08-.4.3.25.52.74 1.12 1.72 1.25.98.12 1.76-.35 2.55-.82.58-.35 1.16-.7 1.82-.8.09-.01.15.1.1.17-.23.48-.35 1.37.23 1.82.84.66 3.23.29 3.82.09l.15-.03 1.83-.46c.47-.12.9-.36 1.25-.7l5.9-5.9a2.29 2.29 0 00-3.23-3.24l-5.9 5.9c-.35.35-.59.78-.7 1.25l-.44 1.71c-.35.17-.7.2-1.13.1-.13-.02-.18-.17-.13-.29.43-.96-.19-1.77-1.03-2.11-.95-.38-2.22.51-3.29 1.27-.59.42-1.12.8-1.5.87z"/></svg>