<svg width="20" height="20" viewBox="0 0 20 20" xmlns="http://www.w3.org/2000/svg"><path d="M10.72 11H6.28L8.5 4.79 10.72 11zm.36 1l.22.64.79-.78-3.03-8.47a.6.6 0 00-1.13 0l-3.9 10.95a.5.5 0 10.94.33L5.92 12h5.16zm4.73-2.45l-4.83 4.83a2.2 2.2 0 00-.58 1.02l-.37 1.5a.92.92 0 00-.03.14 4.6 4.6 0 01-1.1-.1c-.08 0-.1-.1-.07-.17.18-.35.23-1.07-.4-1.33-.87-.35-1.99.13-2.87.5-.37.15-.7.29-.94.34-.4.09-.85-.06-1.22-.24-.21-.11-.48.08-.36.28.22.37.61.74 1.33.83.82.1 1.39-.16 1.97-.41.4-.18.8-.36 1.3-.43.09-.01.15.09.11.17-.15.35-.13.9.32 1.24.52.4 2.19.51 3.31.19l1.22-.31c.39-.1.74-.3 1.02-.58l4.83-4.83a1.87 1.87 0 00-2.64-2.64z"/></svg>