<svg width="24" height="24" viewBox="0 0 24 24" xmlns="http://www.w3.org/2000/svg"><path d="M18.78 17.72c.3.3.3.77 0 1.06l-2 2c-.3.3-.77.3-1.06 0l-2-2a.75.75 0 111.06-1.06l.72.72v-3.19a.75.75 0 011.5 0v3.19l.72-.72c.3-.3.77-.3 1.06 0zm-9.5 1.06a.75.75 0 10-1.06-1.06l-.72.72V3.75a.75.75 0 00-1.5 0v14.69l-.72-.72a.75.75 0 00-1.06 1.06l2 2c.3.3.77.3 1.06 0l2-2zM20 10.75c0 .41-.34.75-.75.75h-3v1.25a.75.75 0 01-1.5 0V11.5h-4.5a.75.75 0 010-1.5h9c.41 0 .75.34.75.75zM18.5 3c.41 0 .75.34.75.75v4c0 .41-.34.75-.75.75h-1.25a6.66 6.66 0 01-3.53-.92 4.3 4.3 0 01-1.97-3.83.75.75 0 011.5 0c0 1.34.55 2.1 1.28 2.57.77.5 1.8.68 2.72.68h.5V3.75c0-.41.34-.75.75-.75z"/></svg>