<svg width="24" height="24" viewBox="0 0 24 24" xmlns="http://www.w3.org/2000/svg"><path d="M22 9.97v10.28c0 .97-.79 1.75-1.75 1.75H13c-.09 0-.17 0-.26-.02V11.8A6.47 6.47 0 0 0 22 9.97ZM10.02 6a6.63 6.63 0 0 0 1.22 4.32v11.66L11 22H3.75C2.78 22 2 21.2 2 20.25V7.75C2 6.78 2.78 6 3.75 6h6.27Zm-.78 11.5h-1.6a.75.75 0 0 0 0 1.5H9.34a.75.75 0 0 0 0-1.5h-.1Zm7 0h-1.6a.75.75 0 0 0 0 1.5H16.34a.75.75 0 0 0 0-1.5h-.1ZM16.5 1a5.5 5.5 0 1 1 0 11 5.5 5.5 0 0 1 0-11Zm0 2h-.09a.5.5 0 0 0-.4.4l-.01.1V6h-2.6a.5.5 0 0 0-.4.41v.18c.04.2.2.36.4.4l.1.01H16v2.6c.05.2.2.36.41.4h.18a.5.5 0 0 0 .4-.4l.01-.1V7h2.6a.5.5 0 0 0 .4-.41v-.18a.5.5 0 0 0-.4-.4L19.5 6H17V3.4a.5.5 0 0 0-.5-.4Z"/></svg>