<svg width="24" height="24" viewBox="0 0 24 24" xmlns="http://www.w3.org/2000/svg"><path d="M7.5 9a3 3 0 1 0 0-6 3 3 0 0 0 0 6Zm0-1.5a1.5 1.5 0 1 1 0-3 1.5 1.5 0 0 1 0 3ZM3 11.75c0-.97.78-1.75 1.75-1.75h5.5c.97 0 1.75.78 1.75 1.75v4.75a4.5 4.5 0 1 1-9 0v-4.75Zm1.75-.25a.25.25 0 0 0-.25.25v4.75a3 3 0 1 0 6 0v-4.75a.25.25 0 0 0-.25-.25h-5.5Zm5.78-2.89a3 3 0 1 0 0-5.23 4 4 0 0 1 .75 1.3 1.5 1.5 0 1 1 0 2.63 4 4 0 0 1-.75 1.3Zm.33 12.24a4.5 4.5 0 0 0 5.64-4.35v-4.75c0-.97-.78-1.75-1.75-1.75h-2.38c.34.42.57.93.62 1.5h1.76c.14 0 .25.11.25.25v4.75a3 3 0 0 1-2.89 3c-.34.52-.76.98-1.25 1.35Zm4.17-12.24a3 3 0 1 0 0-5.23 4 4 0 0 1 .75 1.3 1.5 1.5 0 1 1 0 2.63 4 4 0 0 1-.75 1.3Zm.33 12.24A4.5 4.5 0 0 0 21 16.5v-4.75c0-.97-.78-1.75-1.75-1.75h-2.38c.34.42.57.93.62 1.5h1.76c.14 0 .25.11.25.25v4.75a3 3 0 0 1-2.89 3c-.34.52-.76.98-1.25 1.35Z"/></svg>