<svg width="20" height="20" viewBox="0 0 20 20" xmlns="http://www.w3.org/2000/svg"><path d="M11 15.98a6.5 6.5 0 1 0-6.98-6.93c-.38.07-.73.23-1.02.45a7.5 7.5 0 1 1 8 7.48v-1Zm0-10.57a.5.5 0 0 0-1 .09v4.09a.5.5 0 0 0 .5.41h3.09a.5.5 0 0 0-.09-1H11V5.41ZM3 12v-.5c0-.83.67-1.5 1.5-1.5h2c.83 0 1.5.67 1.5 1.5v.5h.5c.83 0 1.5.67 1.5 1.5V15H8v-.5a.5.5 0 0 0-1 0v.5H4v-.5a.5.5 0 0 0-1 0v.5H1v-1.5c0-.83.67-1.5 1.5-1.5H3Zm1-.5v.5h3v-.5a.5.5 0 0 0-.5-.5h-2a.5.5 0 0 0-.5.5ZM8 16h2v1.5c0 .83-.67 1.5-1.5 1.5h-6A1.5 1.5 0 0 1 1 17.5V16h2v.5a.5.5 0 0 0 1 0V16h3v.5a.5.5 0 0 0 1 0V16Z"/></svg>