<svg width="24" height="24" viewBox="0 0 24 24" xmlns="http://www.w3.org/2000/svg"><path d="M4.5 11a8.5 8.5 0 1 1 8.5 8.5V21a10 10 0 1 0-9.98-9.39c.41-.33.92-.55 1.48-.6V11ZM13 5.65a.75.75 0 0 0-1.5.1v6.1c.06.37.37.65.75.65h4.1a.75.75 0 0 0-.1-1.5H13V5.65ZM8.24 13.5h-3.5a.25.25 0 0 0-.25.25V15h4v-1.25a.25.25 0 0 0-.25-.25ZM3 15v-1.25c0-.97.78-1.75 1.75-1.75h3.5c.97 0 1.75.78 1.75 1.75V15h.5c.83 0 1.5.67 1.5 1.5V18h-2v-.5a.5.5 0 0 0-1 0v.5H4v-.5a.5.5 0 0 0-1 0v.5H1v-1.5c0-.83.67-1.5 1.5-1.5H3Zm6 4.5V19H4v.5a.5.5 0 0 1-1 0V19H1v2.5c0 .83.67 1.5 1.5 1.5h8c.83 0 1.5-.67 1.5-1.5V19h-2v.5a.5.5 0 0 1-1 0Z"/></svg>