<svg width="24" height="24" viewBox="0 0 24 24" xmlns="http://www.w3.org/2000/svg"><path d="M22 12a10 10 0 10-19.91 1.32c.21-.84.81-1.53 1.6-1.86a8.34 8.34 0 0116.64.54c0 4.26-3.2 7.78-7.33 8.27v1.23c0 .16-.01.3-.04.45A10 10 0 0022 12zm-9.5-5.35a.75.75 0 00-1.5.1v6.1c.06.37.37.65.75.65h4.1a.75.75 0 00-.1-1.5H12.5V6.65zM3 15h-.5c-.83 0-1.5.67-1.5 1.5V18h2.5v-.25a.75.75 0 011.5 0V18h3v-.25a.75.75 0 011.5 0V18H12v-1.5c0-.83-.67-1.5-1.5-1.5H10v-1c0-.97-.78-1.75-1.75-1.75h-3.5C3.78 12.25 3 13.03 3 14v1zm1.5-1c0-.14.11-.25.25-.25h3.5c.14 0 .25.11.25.25v1h-4v-1zM1 21.5v-2h2.5v.75a.75.75 0 001.5 0v-.75h3v.75a.75.75 0 001.5 0v-.75H12v2c0 .83-.67 1.5-1.5 1.5h-8A1.5 1.5 0 011 21.5z"/></svg>