<svg width="24" height="24" viewBox="0 0 24 24" xmlns="http://www.w3.org/2000/svg"><path d="M12 2a10 10 0 00-9.91 11.32 2.75 2.75 0 012.66-2.07h3.5A2.75 2.75 0 0111 14v.05a2.5 2.5 0 012 2.45v5c0 .16-.01.3-.04.45A10 10 0 0012 2zm3.75 11.5h-4a.75.75 0 01-.75-.75v-6a.75.75 0 011.5 0V12h3.25a.75.75 0 010 1.5zM3 15h-.5c-.83 0-1.5.67-1.5 1.5V18h2.5v-.25a.75.75 0 011.5 0V18h3v-.25a.75.75 0 011.5 0V18H12v-1.5c0-.83-.67-1.5-1.5-1.5H10v-1c0-.97-.78-1.75-1.75-1.75h-3.5C3.78 12.25 3 13.03 3 14v1zm1.5-1c0-.14.11-.25.25-.25h3.5c.14 0 .25.11.25.25v1h-4v-1zM1 21.5v-2h2.5v.75a.75.75 0 001.5 0v-.75h3v.75a.75.75 0 001.5 0v-.75H12v2c0 .83-.67 1.5-1.5 1.5h-8A1.5 1.5 0 011 21.5z"/></svg>