<svg width="20" height="20" viewBox="0 0 20 20" xmlns="http://www.w3.org/2000/svg"><path d="M10 6a2 2 0 100-4 2 2 0 000 4zM5.47 4.15c-.88-.4-1.92 0-2.32.88-.4.88 0 1.92.88 2.31L6.7 8.53c.18.08.3.26.3.46v1.86a.5.5 0 01-.04.19l-1.84 4.55a1.75 1.75 0 003.25 1.32l1.4-3.46c.08-.21.38-.21.46 0l1.4 3.46a1.75 1.75 0 003.24-1.32l-1.83-4.54a.5.5 0 01-.04-.19V9c0-.2.12-.38.3-.46l2.67-1.19c.88-.4 1.28-1.43.88-2.31a1.76 1.76 0 00-2.32-.88l-1.28.57c-.24.1-.42.3-.52.52a3 3 0 01-5.46 0c-.1-.21-.28-.41-.52-.52l-1.28-.57z"/></svg>