<svg width="28" height="28" viewBox="0 0 28 28" xmlns="http://www.w3.org/2000/svg"><path d="M14 7.5A2.75 2.75 0 1014 2a2.75 2.75 0 000 5.5zM6.24 5.12a2.48 2.48 0 10-1.53 4.71l4.6 1.5a1 1 0 01.69.95v3.1a1 1 0 01-.07.37L7.18 22.6c-.51 1.27.1 2.7 1.36 3.22 1.26.51 2.7-.1 3.21-1.36l1.77-4.41a.5.5 0 01.93 0l1.78 4.4a2.48 2.48 0 104.59-1.86l-2.75-6.8a1 1 0 01-.07-.37v-3.14a1 1 0 01.7-.95l4.59-1.5a2.48 2.48 0 00-1.53-4.7l-3.11 1c-.46.15-.8.47-1.01.82a4.25 4.25 0 01-7.28 0 1.87 1.87 0 00-1-.82l-3.12-1z"/></svg>