<svg width="24" height="24" viewBox="0 0 24 24" xmlns="http://www.w3.org/2000/svg"><path d="M10.5 5c0 .64.4 1.19.97 1.4.35.09.71.09 1.06 0A1.5 1.5 0 1010.5 5zm-1.47.4a3 3 0 115.95 0l2.87-1.22a2.27 2.27 0 012.96 1.18 2.24 2.24 0 01-1.18 2.96L16 9.86v3.71l1.88 5.45a2.25 2.25 0 11-4.26 1.46L12 15.78l-1.62 4.7a2.25 2.25 0 11-4.26-1.46L8 13.56v-3.7L4.37 8.32a2.24 2.24 0 01-1.18-2.96 2.27 2.27 0 012.96-1.18L9.03 5.4zm2 2.44c-.17-.05-.34-.1-.5-.17L5.56 5.56a.77.77 0 00-1 .4c-.16.38.02.81.4.98l3.78 1.6c.46.2.76.65.76 1.15v3.91c0 .14-.02.28-.07.4l-1.89 5.5a.75.75 0 101.42.5l2.1-6.13a.99.99 0 011.87 0l2.11 6.12a.75.75 0 101.42-.48l-1.89-5.49a1.25 1.25 0 01-.07-.4V9.69c0-.5.3-.95.76-1.15l3.78-1.6c.39-.17.56-.6.4-.98a.77.77 0 00-1-.4l-4.97 2.1c-.16.08-.33.13-.5.18a3 3 0 01-1.95 0z"/></svg>