<svg width="28" height="28" viewBox="0 0 28 28" xmlns="http://www.w3.org/2000/svg"><path d="M12 5.5a2 2 0 001.5 1.93c.33.06.67.06 1 0A2 2 0 1012 5.5zm-1.34 1.06a3.5 3.5 0 116.68 0l4.42-1.44a2.48 2.48 0 111.53 4.71L18 11.55v3.82c0 .16.03.32.1.47l2.72 6.75a2.48 2.48 0 01-4.6 1.86l-2.24-5.55-2.23 5.56a2.46 2.46 0 01-3.2 1.36 2.48 2.48 0 01-1.37-3.22l2.73-6.8c.06-.16.09-.31.09-.47v-3.78L4.71 9.83a2.48 2.48 0 011.53-4.7l4.42 1.43zm2.52 2.34c-.22-.03-.43-.09-.65-.16l-6.75-2.2a.98.98 0 00-.6 1.87l5.46 1.77c.51.17.86.65.86 1.19v3.96c0 .35-.07.7-.2 1.02l-2.73 6.81c-.2.5.04 1.07.54 1.27a.96.96 0 001.25-.53l2.46-6.14a1.25 1.25 0 012.32 0l2.48 6.13a.98.98 0 101.8-.73L16.7 16.4c-.13-.32-.2-.67-.2-1.03v-4c0-.54.35-1.02.86-1.19l5.46-1.77a.98.98 0 10-.6-1.86l-6.75 2.2c-.22.06-.43.12-.65.15a3.5 3.5 0 01-1.64 0z"/></svg>