<svg width="48" height="48" viewBox="0 0 48 48" xmlns="http://www.w3.org/2000/svg"><path d="M24 14.5A5.25 5.25 0 1024 4a5.25 5.25 0 000 10.5zm-12.3-4.24a4.25 4.25 0 00-2.9 7.98l7.87 2.87c.2.07.33.26.33.47v4.44c0 .35-.07.7-.2 1.03l-4.49 11.11a4.25 4.25 0 107.88 3.18l3.35-8.27a.5.5 0 01.92 0l3.35 8.27a4.25 4.25 0 007.88-3.18l-4.49-11.1c-.13-.33-.2-.68-.2-1.03v-4.45c0-.21.14-.4.33-.47l7.87-2.87a4.25 4.25 0 10-2.9-7.98l-3.81 1.38c-.82.3-1.43.9-1.81 1.55a7.75 7.75 0 01-13.35 0 3.52 3.52 0 00-1.81-1.55l-3.81-1.38z"/></svg>