<svg width="32" height="32" viewBox="0 0 32 32" xmlns="http://www.w3.org/2000/svg"><path d="M13.5 6.5a2.5 2.5 0 115 0 2.5 2.5 0 01-5 0zM16 2a4.5 4.5 0 00-4.32 5.75l-4.6-1.58a3.07 3.07 0 00-2 5.8L11 14.03v3.76a1 1 0 01-.1.44l-3.6 7.36a3.07 3.07 0 005.53 2.7l3.17-6.5 3.16 6.5a3.07 3.07 0 105.53-2.7l-3.59-7.35a1 1 0 01-.1-.44v-3.77l5.93-2.04a3.07 3.07 0 00-2-5.81l-4.6 1.58A4.5 4.5 0 0016 2zM5.06 8.72c.2-.56.8-.85 1.36-.66l7.63 2.62a6 6 0 003.9 0l7.63-2.62a1.07 1.07 0 01.7 2.03L20 12.24c-.6.21-1.01.78-1.01 1.42v4.13c0 .45.1.9.3 1.31l3.6 7.36a1.07 1.07 0 11-1.94.94l-3.16-6.5a2 2 0 00-3.6 0l-3.17 6.5a1.07 1.07 0 11-1.93-.94l3.6-7.37a3 3 0 00.3-1.31v-4.12c0-.64-.4-1.2-1.01-1.42L5.72 10.1c-.56-.2-.85-.8-.66-1.37z"/></svg>