<svg width="48" height="48" viewBox="0 0 48 48" xmlns="http://www.w3.org/2000/svg"><path d="M20 10.5a4 4 0 002.23 3.59l.49.17c.83.3 1.74.3 2.57 0l.49-.17A4 4 0 1020 10.5zm-2.2 1.98a6.5 6.5 0 1112.4 0l6.1-2.22a4.25 4.25 0 012.9 7.99L31 21.23v4.8c0 .35.07.7.2 1.03l4.5 11.1a4.25 4.25 0 11-7.9 3.18L24 31.92l-3.8 9.42a4.25 4.25 0 01-7.89-3.18l4.5-11.11c.12-.33.2-.68.2-1.03v-4.79l-8.2-2.98a4.25 4.25 0 112.9-8l6.1 2.23zm3.45 3.91l-10.4-3.78a1.75 1.75 0 00-1.2 3.29l8.37 3.04a2.25 2.25 0 011.48 2.11v4.97c0 .67-.13 1.34-.38 1.96L14.63 39.1a1.75 1.75 0 103.25 1.3l4.03-9.99a2.25 2.25 0 014.18 0l4.04 10a1.75 1.75 0 003.24-1.31L28.9 28a5.25 5.25 0 01-.39-1.97v-4.98c0-.94.6-1.79 1.48-2.11l8.37-3.04a1.75 1.75 0 10-1.2-3.3l-10.4 3.8a6.48 6.48 0 01-5.5 0z"/></svg>