<svg width="16" height="16" viewBox="0 0 16 16" xmlns="http://www.w3.org/2000/svg"><path d="M8 4.5A1.75 1.75 0 108 1a1.75 1.75 0 000 3.5zM4.2 3.12a1.6 1.6 0 00-2.08.87c-.33.81.06 1.74.87 2.07l1.7.68a.5.5 0 01.31.47v1.92a.5.5 0 01-.06.23l-1.75 3.3a1.6 1.6 0 102.8 1.5l1.79-3.35c.1-.18.35-.18.44 0L10 14.16a1.6 1.6 0 102.81-1.5l-1.75-3.3a.5.5 0 01-.06-.23V7.2c0-.2.12-.4.31-.47l1.7-.68c.81-.33 1.2-1.26.87-2.07a1.6 1.6 0 00-2.08-.87l-.78.31c-.26.1-.44.3-.54.52a2.75 2.75 0 01-4.96 0c-.1-.22-.28-.42-.54-.52l-.78-.31z"/></svg>