<svg width="20" height="20" viewBox="0 0 20 20" xmlns="http://www.w3.org/2000/svg"><path d="M6.25 3.2c.31.27.33.74.06 1.05l-2.25 2.5a.75.75 0 0 1-1.09.03L1.72 5.53a.75.75 0 0 1 1.06-1.06l.7.7 1.71-1.92a.75.75 0 0 1 1.06-.06ZM8 5.24c0-.41.34-.75.75-.75h8.5a.75.75 0 0 1 0 1.5h-8.5A.75.75 0 0 1 8 5.25Zm0 5c0-.41.34-.75.75-.75h8.5a.75.75 0 0 1 0 1.5h-8.5a.75.75 0 0 1-.75-.75Zm.75 4.25a.75.75 0 0 0 0 1.5h8.5a.75.75 0 0 0 0-1.5h-8.5Zm-2.44-.25a.75.75 0 1 0-1.12-1l-1.72 1.91-.69-.69a.75.75 0 0 0-1.06 1.06l1.25 1.25a.75.75 0 0 0 1.09-.03l2.25-2.5Z"/></svg>