<svg width="20" height="20" viewBox="0 0 20 20" xmlns="http://www.w3.org/2000/svg"><path d="M3.02 13.84A1.75 1.75 0 0 1 2 12.25v-1.21a2.5 2.5 0 0 1 1.86-2.42l2.09-.56L7.49 5.3A2.5 2.5 0 0 1 9.68 4h3.38a2.5 2.5 0 0 1 2.37 1.7l.82 2.48A2.5 2.5 0 0 1 18 10.56v1.69c0 .7-.42 1.32-1.02 1.6a2.5 2.5 0 0 1-4.93.15h-4.1a2.5 2.5 0 0 1-4.93-.16ZM13.06 5H12v3h3.14l-.66-1.97A1.5 1.5 0 0 0 13.06 5Zm-4.7.77L7.14 8H11V5H9.68c-.55 0-1.05.3-1.31.77ZM16 13.5a1.5 1.5 0 1 0-3 0 1.5 1.5 0 0 0 3 0Zm-9 0a1.5 1.5 0 1 0-3 0 1.5 1.5 0 0 0 3 0Z"/></svg>