<svg width="20" height="20" viewBox="0 0 20 20" xmlns="http://www.w3.org/2000/svg"><path d="M3.07 8.1a3 3 0 0 1 2.28-3.58l6.55-1.45a3 3 0 0 1 3.58 2.28l.7 3.15h-1.03l-.65-2.93a2 2 0 0 0-2.38-1.52L5.57 5.5a2 2 0 0 0-1.52 2.38l.13.62H3.16l-.09-.4Zm12.75 3.4h1.02l.09.4a3 3 0 0 1-2.28 3.58L8.1 16.93a3 3 0 0 1-3.58-2.28l-.7-3.15h1.03l.65 2.93a2 2 0 0 0 2.39 1.52l6.54-1.45a2 2 0 0 0 1.52-2.38l-.13-.62ZM1 10c0-.28.22-.5.5-.5h2a.5.5 0 0 1 0 1h-2A.5.5 0 0 1 1 10Zm5 0c0-.28.22-.5.5-.5h2a.5.5 0 0 1 0 1h-2A.5.5 0 0 1 6 10Zm5.5-.5a.5.5 0 0 0 0 1h2a.5.5 0 0 0 0-1h-2Zm4.5.5c0-.28.22-.5.5-.5h2a.5.5 0 0 1 0 1h-2a.5.5 0 0 1-.5-.5Z"/></svg>