<svg width="24" height="24" viewBox="0 0 24 24" xmlns="http://www.w3.org/2000/svg"><path d="M5.55 5.16a3.25 3.25 0 0 0-2.47 3.88l.27 1.21h16.53l-1.04-4.7a3.25 3.25 0 0 0-3.88-2.47L5.55 5.16Zm-.38 13.3-1.05-4.71h16.54l.27 1.21a3.25 3.25 0 0 1-2.47 3.88l-9.42 2.08a3.25 3.25 0 0 1-3.87-2.47ZM1 12c0-.41.34-.75.75-.75h2.5a.75.75 0 0 1 0 1.5h-2.5A.75.75 0 0 1 1 12Zm6 0c0-.41.34-.75.75-.75h2.5a.75.75 0 0 1 0 1.5h-2.5A.75.75 0 0 1 7 12Zm6.75-.75a.75.75 0 0 0 0 1.5h2.5a.75.75 0 0 0 0-1.5h-2.5ZM19 12c0-.41.34-.75.75-.75h2.5a.75.75 0 0 1 0 1.5h-2.5A.75.75 0 0 1 19 12Z"/></svg>