<svg width="24" height="24" viewBox="0 0 24 24" xmlns="http://www.w3.org/2000/svg"><path d="M3.08 9.04a3.25 3.25 0 0 1 2.47-3.88l9.41-2.08a3.25 3.25 0 0 1 3.88 2.47l1.04 4.7h-1.54l-.97-4.38a1.75 1.75 0 0 0-2.08-1.33L5.87 6.63a1.75 1.75 0 0 0-1.33 2.09l.34 1.53H3.35l-.27-1.21Zm16.04 4.71h1.54l.26 1.21a3.25 3.25 0 0 1-2.47 3.88l-9.4 2.08a3.25 3.25 0 0 1-3.89-2.47l-1.04-4.7h1.54l.97 4.38c.2.94 1.14 1.54 2.09 1.33l9.41-2.09a1.75 1.75 0 0 0 1.33-2.09l-.34-1.53ZM1 12c0-.41.34-.75.75-.75h2.5a.75.75 0 0 1 0 1.5h-2.5A.75.75 0 0 1 1 12Zm6 0c0-.41.34-.75.75-.75h2.5a.75.75 0 0 1 0 1.5h-2.5A.75.75 0 0 1 7 12Zm6.75-.75a.75.75 0 0 0 0 1.5h2.5a.75.75 0 0 0 0-1.5h-2.5ZM19 12c0-.41.34-.75.75-.75h2.5a.75.75 0 0 1 0 1.5h-2.5A.75.75 0 0 1 19 12Z"/></svg>