<svg width="28" height="28" viewBox="0 0 28 28" xmlns="http://www.w3.org/2000/svg"><path d="M18 3a3 3 0 0 0-3 3v4a3 3 0 0 0 3 3h4a3 3 0 0 0 3-3V6a3 3 0 0 0-3-3h-4ZM6.19 4.12a2.02 2.02 0 0 1 3.62 0l2.97 5.9A2.05 2.05 0 0 1 10.96 13H5.04a2.05 2.05 0 0 1-1.82-2.98l2.97-5.9ZM3.96 17.06c.4-.56.93-1.03 1.53-1.38l6.5 7.32c-.4.54-.9 1-1.49 1.33l-6.54-7.27ZM3 20a5 5 0 0 1 .23-1.51L9 24.9A5.02 5.02 0 0 1 3 20Zm10 0a5 5 0 0 1-.26 1.58L6.98 15.1a5.02 5.02 0 0 1 6 4.5v.02c.02.12.02.25.02.38Zm7.95-4.76a2.05 2.05 0 0 0-1.9 0l-3 1.57c-.65.34-1.05 1-1.05 1.73v2.92c0 .72.4 1.39 1.05 1.73l3 1.57c.6.32 1.3.32 1.9 0l3-1.57c.65-.34 1.05-1 1.05-1.73v-2.92c0-.72-.4-1.39-1.05-1.73l-3-1.57Z"/></svg>