<svg width="16" height="16" viewBox="0 0 16 16" xmlns="http://www.w3.org/2000/svg"><path d="m10.88.28.35 1.07a2.2 2.2 0 0 0 1.4 1.4l1.07.35h.02a.42.42 0 0 1 0 .8l-1.07.35a2.2 2.2 0 0 0-1.4 1.4l-.35 1.07a.42.42 0 0 1-.8 0l-.35-1.07a2.2 2.2 0 0 0-1.4-1.4L7.28 3.9a.42.42 0 0 1 0-.8l1.07-.35a2.2 2.2 0 0 0 1.38-1.4l.35-1.07a.42.42 0 0 1 .8 0Zm4.9 7.93-.76-.25a1.58 1.58 0 0 1-1-1l-.25-.76a.3.3 0 0 0-.57 0l-.25.77a1.58 1.58 0 0 1-.98 1l-.77.24a.3.3 0 0 0 0 .57l.77.25a1.58 1.58 0 0 1 1 1l.24.77a.3.3 0 0 0 .58 0l.24-.77a1.58 1.58 0 0 1 1-1l.77-.24a.3.3 0 0 0 0-.57h-.02Zm-5.14 1.4c-.16-.09-.29-.2-.4-.35a1.3 1.3 0 0 1-.12-1.3 1.32 1.32 0 0 1-.45-.22 1.51 1.51 0 0 1-.52-.69L8.8 5.96a1.27 1.27 0 0 0-.29-.47 1.3 1.3 0 0 0-.47-.3l-1.06-.34A1.41 1.41 0 0 1 6 3.5c0-.3.08-.56.24-.8L1.23 5.98a.5.5 0 0 0-.23.47.5.5 0 0 0 0 .05v4a.5.5 0 1 0 1 0V7.34l4.6 3.12a2.5 2.5 0 0 0 2.8 0l1.24-.84Zm2.12 2.16.1.07v.02a3.56 3.56 0 0 1-.33.32A6.57 6.57 0 0 1 8 14a6.57 6.57 0 0 1-4.53-1.82 5.47 5.47 0 0 1-.32-.32l-.02-.03h-.01A.5.5 0 0 1 3 11.5V9.23l3.04 2.05c1.18.8 2.74.8 3.92 0l1.82-1.23a.59.59 0 0 1 .24.3l.26.8c.1.25.26.46.48.62Z"/></svg>