<svg width="16" height="16" viewBox="0 0 16 16" xmlns="http://www.w3.org/2000/svg"><path d="m10.88.28.35 1.07a2.2 2.2 0 0 0 1.4 1.4l1.07.35h.02a.42.42 0 0 1 0 .8l-1.07.35a2.2 2.2 0 0 0-1.4 1.4l-.35 1.07a.42.42 0 0 1-.8 0l-.35-1.07a2.2 2.2 0 0 0-1.4-1.4L7.28 3.9a.42.42 0 0 1 0-.8l1.07-.35a2.2 2.2 0 0 0 1.38-1.4l.35-1.07a.42.42 0 0 1 .8 0Zm4.9 7.93-.76-.25a1.58 1.58 0 0 1-1-1l-.25-.76a.3.3 0 0 0-.57 0l-.25.77a1.58 1.58 0 0 1-.98 1l-.77.24a.3.3 0 0 0 0 .57l.77.25a1.58 1.58 0 0 1 1 1l.24.77a.3.3 0 0 0 .58 0l.24-.77a1.58 1.58 0 0 1 1-1l.77-.24a.3.3 0 0 0 0-.57h-.02Zm-2.82 3.68a1.31 1.31 0 0 1-.2-.12 1.4 1.4 0 0 1-.48-.62l-.26-.8a.95.95 0 0 0-.02-.04v1.2l-.15.13A5.57 5.57 0 0 1 8 13.2a5.58 5.58 0 0 1-4-1.69V8.7l2.6 1.76a2.5 2.5 0 0 0 2.8 0l1.24-.84a1.32 1.32 0 0 1-.6-.8l-1.2.8a1.5 1.5 0 0 1-1.68 0L2.4 6.42 6.1 4a1.42 1.42 0 0 1 .15-1.3L1.23 5.98a.5.5 0 0 0-.23.47.5.5 0 0 0 0 .05v4a.5.5 0 1 0 1 0V7.34l1 .68v3.68c0 .12.04.23.12.32v.01l.03.03a3.5 3.5 0 0 0 .32.32A6.57 6.57 0 0 0 8 14.2a6.57 6.57 0 0 0 4.53-1.82 5.46 5.46 0 0 0 .32-.32l.02-.03h.01a.5.5 0 0 0 .08-.14Z"/></svg>