<svg width="24" height="24" viewBox="0 0 24 24" xmlns="http://www.w3.org/2000/svg"><path d="M16.09 6.41a2.84 2.84 0 0 0-1.35-.95L13.36 5a.54.54 0 0 1 0-1.03l1.38-.44a2.84 2.84 0 0 0 1.76-1.77l.01-.03.45-1.38a.54.54 0 0 1 1.03 0l.44 1.38a2.84 2.84 0 0 0 1.8 1.8l1.38.44.03.01a.54.54 0 0 1 0 1.03l-1.38.44a2.84 2.84 0 0 0-1.8 1.8l-.45 1.38a.54.54 0 0 1-1.03 0l-.44-1.38c-.1-.3-.25-.6-.45-.85Zm7.7 3.8-.77-.25a1.58 1.58 0 0 1-1-1l-.25-.76a.3.3 0 0 0-.57 0l-.25.77a1.58 1.58 0 0 1-.98 1l-.77.24a.3.3 0 0 0 0 .57l.77.25a1.58 1.58 0 0 1 1 1l.24.77a.3.3 0 0 0 .58 0l.24-.77a1.58 1.58 0 0 1 1-1l.77-.24a.3.3 0 0 0 0-.57h-.02ZM9.9 3.7a3.87 3.87 0 0 1 2.82-.54c-.18.1-.33.24-.45.4a1.57 1.57 0 0 0 0 1.79c.17.3.42.52.72.65l1.4.46c.27.09.52.24.72.44l.18.1c.13.17.22.35.29.55L16 9c.1.3.3.58.57.77a1.57 1.57 0 0 0 1.57.12 1.28 1.28 0 0 0 .06 1.4c.16.23.38.4.63.49l.54.17-5.25 3.43a3.87 3.87 0 0 1-4.24 0L3 10.88v5.37a.75.75 0 0 1-1.5 0V10c0-.09.02-.17.04-.25a.75.75 0 0 1 .3-.88L9.92 3.7ZM5 17.75v-3.77l4.06 2.66a5.37 5.37 0 0 0 5.88 0L19 13.98v3.77c0 .16-.05.32-.15.45l-.01.02-.02.01v.02a3.4 3.4 0 0 1-.41.43c-.28.27-.7.61-1.25.96A9.7 9.7 0 0 1 12 21a9.7 9.7 0 0 1-5.16-1.36 7.43 7.43 0 0 1-1.68-1.42v-.01a.76.76 0 0 1-.16-.46Z"/></svg>