<svg width="24" height="24" viewBox="0 0 24 24" xmlns="http://www.w3.org/2000/svg"><path d="M16.09 6.41a2.84 2.84 0 0 0-1.35-.95L13.36 5a.54.54 0 0 1 0-1.03l1.38-.44a2.84 2.84 0 0 0 1.76-1.77l.01-.03.45-1.38a.54.54 0 0 1 1.03 0l.44 1.38a2.84 2.84 0 0 0 1.8 1.8l1.38.44.03.01a.54.54 0 0 1 0 1.03l-1.38.44a2.84 2.84 0 0 0-1.8 1.8l-.45 1.38a.54.54 0 0 1-1.03 0l-.44-1.38c-.1-.3-.25-.6-.45-.85Zm7.7 3.8-.77-.25a1.58 1.58 0 0 1-1-1l-.25-.76a.3.3 0 0 0-.57 0l-.25.77a1.58 1.58 0 0 1-.98 1l-.77.24a.3.3 0 0 0 0 .57l.77.25a1.58 1.58 0 0 1 1 1l.24.77a.3.3 0 0 0 .58 0l.24-.77a1.58 1.58 0 0 1 1-1l.77-.24a.3.3 0 0 0 0-.57h-.02ZM9.9 3.7a3.87 3.87 0 0 1 2.82-.54c-.18.1-.33.24-.45.4A1.6 1.6 0 0 0 12 4.6c-.44 0-.89.12-1.28.37L3.63 9.51l7.07 4.62c.79.51 1.81.51 2.6 0l4.75-3.1.15.27c.16.22.38.39.63.48l.54.17-.37.24v5.56c0 .16-.05.32-.15.45l-.01.02-.02.02v.01a3.38 3.38 0 0 1-.41.43c-.28.27-.7.61-1.25.96A9.7 9.7 0 0 1 12 21a9.7 9.7 0 0 1-5.16-1.36 7.43 7.43 0 0 1-1.69-1.44.75.75 0 0 1-.15-.45v-5.56l-2-1.3v5.36a.75.75 0 0 1-1.5 0V9.5c0-.27.14-.5.36-.64L9.9 3.7Zm4.2 11.68a3.87 3.87 0 0 1-4.23 0l-3.38-2.2v4.29l.13.13c.21.2.54.48 1 .76A8.2 8.2 0 0 0 12 19.5a8.2 8.2 0 0 0 4.37-1.14 5.94 5.94 0 0 0 1.13-.9v-4.29l-3.38 2.21Z"/></svg>