<svg width="28" height="28" viewBox="0 0 28 28" xmlns="http://www.w3.org/2000/svg"><path d="M18.17 6.83a3.16 3.16 0 0 1 .76 1.24l.5 1.53a.6.6 0 0 0 1.14 0l.5-1.53a3.15 3.15 0 0 1 2-2l1.53-.5a.6.6 0 0 0 0-1.14h-.03l-1.54-.5a3.15 3.15 0 0 1-2-2L20.55.4a.6.6 0 0 0-1.14 0l-.5 1.53-.01.04a3.15 3.15 0 0 1-1.96 1.96l-1.53.5a.6.6 0 0 0 0 1.14l1.53.5c.47.15.9.41 1.24.76Zm8.65 3.53.92.3h.02a.36.36 0 0 1 0 .68l-.92.3a1.9 1.9 0 0 0-1.2 1.2l-.3.92a.36.36 0 0 1-.68 0l-.3-.92a1.9 1.9 0 0 0-1.2-1.2l-.92-.3a.36.36 0 0 1 0-.68l.92-.3a1.9 1.9 0 0 0 1.18-1.2l.3-.92a.36.36 0 0 1 .68 0l.3.92a1.89 1.89 0 0 0 1.2 1.2ZM11.77 3.5a4.25 4.25 0 0 1 4.03-.24l-.71.24c-.32.1-.6.31-.8.59a1.58 1.58 0 0 0 0 1.85c.2.27.47.48.78.59l1.56.5a2.25 2.25 0 0 1 1 .73c.16.19.28.4.35.64l.5 1.53c.11.32.32.6.59.8a1.64 1.64 0 0 0 1.86 0l.13-.11a1.34 1.34 0 0 0 .85 1.66l.94.3c.13.05.24.12.34.22l.01.01-6.87 4.5a4.25 4.25 0 0 1-4.66 0L3 11.64v6.11a.75.75 0 0 1-1.5 0V10.5l.01-.13a.75.75 0 0 1 .35-.76l9.9-6.11ZM6 15.4l4.85 3.16a5.75 5.75 0 0 0 6.3 0L22 15.4v4.86c0 .3-.16.48-.35.67l-.41.37A11.36 11.36 0 0 1 14 24a11.06 11.06 0 0 1-7.65-3.08c-.19-.2-.35-.37-.35-.67v-4.86Z"/></svg>