<svg width="28" height="28" viewBox="0 0 28 28" xmlns="http://www.w3.org/2000/svg"><path d="M18.17 6.83a3.16 3.16 0 0 1 .76 1.24l.5 1.53a.6.6 0 0 0 1.14 0l.5-1.53a3.15 3.15 0 0 1 2-2l1.53-.5a.6.6 0 0 0 0-1.14h-.03l-1.54-.5a3.15 3.15 0 0 1-2-2L20.55.4a.6.6 0 0 0-1.14 0l-.5 1.53-.01.04a3.15 3.15 0 0 1-1.96 1.96l-1.53.5a.6.6 0 0 0 0 1.14l1.53.5c.47.15.9.41 1.24.76Zm8.65 3.53.92.3h.02a.36.36 0 0 1 0 .68l-.92.3a1.9 1.9 0 0 0-1.2 1.2l-.3.92a.36.36 0 0 1-.68 0l-.3-.92a1.9 1.9 0 0 0-1.2-1.2l-.92-.3a.36.36 0 0 1 0-.68l.92-.3a1.9 1.9 0 0 0 1.18-1.2l.3-.92a.36.36 0 0 1 .68 0l.3.92a1.89 1.89 0 0 0 1.2 1.2ZM11.77 3.5a4.25 4.25 0 0 1 4.03-.24l-.71.24a1.57 1.57 0 0 0-.95.87c-.55-.03-1.1.1-1.58.4l-8.91 5.5 8.84 5.78c.92.6 2.1.6 3.02 0l6.04-3.95c.11.08.23.14.36.18l.94.3c.13.05.24.12.34.22l.01.01-1.2.79v6.65c0 .3-.16.48-.35.67l-.41.37A11.36 11.36 0 0 1 14 24a11.06 11.06 0 0 1-7.65-3.08c-.19-.2-.35-.37-.35-.67V13.6l-3-1.96v6.11a.75.75 0 0 1-1.5 0V10.5l.01-.13a.75.75 0 0 1 .35-.76l9.9-6.11ZM7.5 14.58v5.36A9.86 9.86 0 0 0 14 22.5a9.56 9.56 0 0 0 6.5-2.56v-5.36l-4.17 2.73a4.25 4.25 0 0 1-4.66 0L7.5 14.58Z"/></svg>