<svg width="24" height="24" viewBox="0 0 24 24" xmlns="http://www.w3.org/2000/svg"><path d="M13 14.05V14H4.25C3.01 14 2 15 2 16.25v.92c0 .57.18 1.13.51 1.6C4.06 20.92 6.58 22 10 22c.36 0 .7-.01 1.04-.03-.03-.15-.04-.31-.04-.47v-5a2.5 2.5 0 012-2.45zM10 2a5 5 0 110 10 5 5 0 010-10zm4 13h-.5c-.83 0-1.5.67-1.5 1.5v5c0 .83.67 1.5 1.5 1.5h8c.83 0 1.5-.67 1.5-1.5v-5c0-.83-.67-1.5-1.5-1.5H21v-1.25c0-.97-.78-1.75-1.75-1.75h-3.5c-.97 0-1.75.78-1.75 1.75V15zm1.5-1.25c0-.14.11-.25.25-.25h3.5c.14 0 .25.11.25.25V15h-4v-1.25z"/></svg>