<svg width="20" height="20" viewBox="0 0 20 20" xmlns="http://www.w3.org/2000/svg"><path d="M9 2a4 4 0 100 8 4 4 0 000-8zM6 6a3 3 0 116 0 3 3 0 01-6 0zm-2 5a2 2 0 00-2 2c0 1.7.83 2.97 2.13 3.8A9.14 9.14 0 009 18h.05a2.51 2.51 0 01-.05-.5V17a8.16 8.16 0 01-4.33-1.05A3.36 3.36 0 013 13a1 1 0 011-1h5.5c.37-.5.91-.84 1.54-.96l.01-.04H4.01zm8 .5v.5h-.5c-.83 0-1.5.67-1.5 1.5v4c0 .83.67 1.5 1.5 1.5h6c.83 0 1.5-.67 1.5-1.5v-4c0-.83-.67-1.5-1.5-1.5H17v-.5c0-.83-.67-1.5-1.5-1.5h-2c-.83 0-1.5.67-1.5 1.5zm1.5-.5h2c.28 0 .5.22.5.5v.5h-3v-.5c0-.28.22-.5.5-.5z"/></svg>