<svg width="24" height="24" viewBox="0 0 24 24" xmlns="http://www.w3.org/2000/svg"><path d="M13 14.05V14H4.25C3.01 14 2 15 2 16.25v.58c0 .89.32 1.75.9 2.43C4.47 21.1 6.85 22 10 22c.36 0 .7-.01 1.04-.03-.03-.15-.04-.31-.04-.47v-1.03c-.32.02-.65.03-1 .03-2.74 0-4.7-.74-5.96-2.21-.34-.41-.54-.93-.54-1.46v-.58c0-.41.34-.75.75-.75h6.96A2.5 2.5 0 0113 14.05zM10 2a5 5 0 110 10 5 5 0 010-10zm0 1.5a3.5 3.5 0 100 7 3.5 3.5 0 000-7zM14 15h-.5c-.83 0-1.5.67-1.5 1.5v5c0 .83.67 1.5 1.5 1.5h8c.83 0 1.5-.67 1.5-1.5v-5c0-.83-.67-1.5-1.5-1.5H21v-1.25c0-.97-.78-1.75-1.75-1.75h-3.5c-.97 0-1.75.78-1.75 1.75V15zm1.5-1.25c0-.14.11-.25.25-.25h3.5c.14 0 .25.11.25.25V15h-4v-1.25z"/></svg>