<svg width="20" height="20" viewBox="0 0 20 20" xmlns="http://www.w3.org/2000/svg"><path d="M10 3a1.5 1.5 0 1 0 0 3 1.5 1.5 0 0 0 0-3ZM7.5 4.5a2.5 2.5 0 1 1 5 0 2.5 2.5 0 0 1-5 0Zm8-.5a1 1 0 1 0 0 2 1 1 0 0 0 0-2Zm-2 1a2 2 0 1 1 4 0 2 2 0 0 1-4 0Zm-10 0a1 1 0 1 1 2 0 1 1 0 0 1-2 0Zm1-2a2 2 0 1 0 0 4 2 2 0 0 0 0-4Zm.6 12H5a2 2 0 0 1-2-2V9.25c0-.14.11-.25.25-.25h1.76c.04-.37.17-.7.37-1H3.25C2.56 8 2 8.56 2 9.25V13a3 3 0 0 0 3.4 2.97 4.96 4.96 0 0 1-.3-.97Zm9.5.97A3 3 0 0 0 18 13V9.25C18 8.56 17.44 8 16.75 8h-2.13c.2.3.33.63.37 1h1.76c.14 0 .25.11.25.25V13a2 2 0 0 1-2.1 2c-.07.34-.17.66-.3.97ZM7.25 8C6.56 8 6 8.56 6 9.25V14a4 4 0 0 0 8 0V9.25C14 8.56 13.44 8 12.75 8h-5.5ZM7 9.25c0-.14.11-.25.25-.25h5.5c.14 0 .25.11.25.25V14a3 3 0 1 1-6 0V9.25Z"/></svg>