<svg width="32" height="32" viewBox="0 0 32 32" xmlns="http://www.w3.org/2000/svg"><path d="M16 5a2 2 0 1 0 0 4 2 2 0 0 0 0-4Zm-4 2a4 4 0 1 1 8 0 4 4 0 0 1-8 0Zm13.5-1a1.5 1.5 0 1 0 0 3 1.5 1.5 0 0 0 0-3ZM22 7.5a3.5 3.5 0 1 1 7 0 3.5 3.5 0 0 1-7 0Zm-17 0a1.5 1.5 0 1 1 3 0 1.5 1.5 0 0 1-3 0ZM6.5 4a3.5 3.5 0 1 0 0 7 3.5 3.5 0 0 0 0-7Zm2.15 20.5A3 3 0 0 1 4 22v-6.5c0-.28.22-.5.5-.5h4.03c.1-.75.4-1.44.85-2H4.5A2.5 2.5 0 0 0 2 15.5V22a5 5 0 0 0 7.33 4.43c-.31-.6-.54-1.25-.68-1.92Zm14.02 1.93A5 5 0 0 0 30 22v-6.5a2.5 2.5 0 0 0-2.5-2.5h-4.88c.45.56.76 1.25.85 2h4.03c.28 0 .5.22.5.5V22a3 3 0 0 1-4.65 2.5 7.45 7.45 0 0 1-.68 1.93ZM12.5 13a2.5 2.5 0 0 0-2.5 2.5V23a6 6 0 0 0 12 0v-7.5a2.5 2.5 0 0 0-2.5-2.5h-7Zm-.5 2.5c0-.28.22-.5.5-.5h7c.28 0 .5.22.5.5V23a4 4 0 0 1-8 0v-7.5Z"/></svg>