<svg width="48" height="48" viewBox="0 0 48 48" xmlns="http://www.w3.org/2000/svg"><path d="M18 11a6 6 0 1 1 12 0 6 6 0 0 1-12 0Zm19-4a5 5 0 1 0 0 10 5 5 0 0 0 0-10ZM11 7a5 5 0 1 0 0 10 5 5 0 0 0 0-10Zm8.25 12A4.25 4.25 0 0 0 15 23.25V34a9 9 0 1 0 18 0V23.25C33 20.9 31.1 19 28.75 19h-9.5ZM13 23.25c0-1.6.6-3.06 1.6-4.17a4.27 4.27 0 0 0-.85-.08h-5.5A4.25 4.25 0 0 0 4 23.25V33a7 7 0 0 0 10.3 6.18c-.83-1.54-1.3-3.3-1.3-5.18V23.25ZM35 34c0 1.87-.47 3.64-1.3 5.18A7 7 0 0 0 44 33v-9.75C44 20.9 42.1 19 39.75 19h-5.5c-.29 0-.57.03-.84.08A6.23 6.23 0 0 1 35 23.25V34Z"/></svg>