<svg width="28" height="28" viewBox="0 0 28 28" xmlns="http://www.w3.org/2000/svg"><path d="M18.64 6.05a2.67 2.67 0 00-1.7.21l-.67.35a3 3 0 01-1.43.39h-1.68a3 3 0 01-1.44-.39l-.65-.34a2.72 2.72 0 00-1.73-.21l-1.62.3c-.92.18-1.7.78-2.12 1.61-1.68 3.3-2.93 5.97-3.4 8.23-.48 2.33-.14 4.3 1.4 6.1.89 1.01 2.36.82 3.14-.07.6-.68 1.28-1.47 1.95-2.26.53-.62 1.3-.97 2.1-.97h6.41c.81 0 1.58.35 2.1.97l1.99 2.3c.76.86 2.2 1.05 3.07.06 1.57-1.8 1.92-3.78 1.44-6.12-.47-2.28-1.74-4.97-3.42-8.28a2.93 2.93 0 00-2.06-1.55l-1.68-.33zM14 12.25a1.25 1.25 0 110-2.5 1.25 1.25 0 010 2.5z"/></svg>