<svg width="32" height="32" viewBox="0 0 32 32" xmlns="http://www.w3.org/2000/svg"><path d="M12.93 6.36a3.6 3.6 0 00-2.3-.29l-1.65.32a4 4 0 00-2.8 2.1c-1.92 3.76-3.37 6.83-3.93 9.45-.57 2.7-.22 5.02 1.51 7.13 1.15 1.4 3.13 1.11 4.15-.05.8-.9 1.7-1.94 2.58-2.97A3.01 3.01 0 0112.77 21h6.45c.88 0 1.71.39 2.29 1.05a336.1 336.1 0 002.57 2.97c1.03 1.16 3 1.44 4.15.05 1.74-2.11 2.09-4.43 1.51-7.13-.56-2.62-2-5.7-3.92-9.45a4 4 0 00-2.8-2.1l-1.66-.32a3.6 3.6 0 00-2.3.3l-.44.22c-.5.27-1.03.41-1.55.41h-2.15c-.52 0-1.05-.14-1.55-.4l-.44-.24zM16 14a1.5 1.5 0 110-3 1.5 1.5 0 010 3z"/></svg>