<svg width="24" height="24" viewBox="0 0 24 24" xmlns="http://www.w3.org/2000/svg"><path d="M9.8 5.5a2.58 2.58 0 00-1.63-.2l-1.18.23c-.87.16-1.6.71-2 1.5-1.38 2.67-2.4 4.86-2.8 6.73-.42 1.92-.17 3.57 1.07 5.07.82 1 2.23.8 2.97-.03l1.81-2.09c.41-.47 1-.75 1.63-.75h4.66c.62 0 1.22.28 1.63.75l1.82 2.09c.73.83 2.14 1.03 2.96.03 1.24-1.5 1.49-3.15 1.08-5.07-.4-1.87-1.43-4.06-2.8-6.73a2.85 2.85 0 00-2-1.5l-1.19-.23a2.58 2.58 0 00-1.64.2l-.44.24c-.35.19-.73.3-1.1.3h-1.3c-.37 0-.75-.11-1.1-.3L9.8 5.5zM12 11a1 1 0 110-2 1 1 0 010 2z"/></svg>