<svg width="16" height="16" viewBox="0 0 16 16" xmlns="http://www.w3.org/2000/svg"><path d="M9.98 4.58a.8.8 0 01.51-.06l.83.16a1 1 0 01.7.52c.96 1.9 1.62 3.32 1.87 4.48.24 1.12.09 1.95-.55 2.72a.28.28 0 01-.24.1.45.45 0 01-.31-.15 167 167 0 01-1.28-1.48 2.5 2.5 0 00-1.9-.87H6.38a2.5 2.5 0 00-1.9.87L3.2 12.35c-.08.1-.2.15-.3.15a.28.28 0 01-.25-.1c-.63-.77-.79-1.6-.55-2.72.25-1.16.9-2.58 1.87-4.48a1 1 0 01.7-.52l.83-.16a.8.8 0 01.51.06l.2.1c.38.2.8.32 1.25.32h1.07c.45 0 .88-.12 1.25-.32l.2-.1zm.7-1.04a1.8 1.8 0 00-1.15.14l-.22.12c-.25.13-.51.2-.78.2H7.46c-.26 0-.53-.07-.78-.2a9.98 9.98 0 00-.22-.12 1.8 1.8 0 00-1.15-.14l-.82.15a2 2 0 00-1.4 1.06C2.12 6.62 1.4 8.16 1.11 9.47a3.93 3.93 0 00.76 3.56c.57.7 1.56.56 2.07-.02l1.3-1.48c.28-.34.7-.53 1.13-.53h3.23c.44 0 .85.2 1.14.53L12.04 13c.51.58 1.5.72 2.08.02a3.93 3.93 0 00.75-3.56c-.28-1.31-1-2.85-1.96-4.72a2 2 0 00-1.4-1.06l-.83-.15zM8 7.5A.75.75 0 108 6a.75.75 0 000 1.5z"/></svg>