<svg width="48" height="48" viewBox="0 0 48 48" xmlns="http://www.w3.org/2000/svg"><path d="M19.54 11.02a5.14 5.14 0 00-3.3-.42l-2.24.43a5.74 5.74 0 00-4.03 3.03c-2.74 5.39-4.8 9.78-5.6 13.51-.82 3.84-.34 7.1 2.05 10.09 1.6 1.99 4.4 1.6 5.86-.07l3.4-3.92A4.77 4.77 0 0119.3 32h9.4c1.4 0 2.72.61 3.63 1.67 1.16 1.36 2.34 2.72 3.4 3.92 1.45 1.66 4.25 2.06 5.85.07 2.4-2.98 2.87-6.25 2.05-10.09-.8-3.73-2.86-8.12-5.6-13.5a5.74 5.74 0 00-4.02-3.04l-2.25-.43a5.14 5.14 0 00-3.3.42l-.63.33c-.78.42-1.62.65-2.46.65h-2.74c-.83 0-1.68-.23-2.46-.65l-.63-.33zm-2.83 2.04a2.65 2.65 0 011.7.19l.58.3c1.1.59 2.34.95 3.64.95h2.74c1.3 0 2.55-.36 3.65-.95l.57-.3a2.65 2.65 0 011.7-.2l2.24.44c.99.19 1.83.82 2.28 1.7 2.75 5.43 4.65 9.54 5.37 12.9.7 3.28.28 5.73-1.55 8-.41.52-1.36.61-2.03-.15a474.37 474.37 0 01-3.37-3.9 7.27 7.27 0 00-5.52-2.54H19.3c-2.13 0-4.14.93-5.52 2.54a474.37 474.37 0 01-3.38 3.9c-.67.76-1.61.67-2.03.15-1.82-2.27-2.25-4.72-1.55-8 .72-3.36 2.62-7.47 5.37-12.9a3.24 3.24 0 012.28-1.7l2.24-.43zM24 21a2 2 0 100-4 2 2 0 000 4z"/></svg>