<svg width="28" height="28" viewBox="0 0 28 28" xmlns="http://www.w3.org/2000/svg"><path d="M18.64 6.05a2.67 2.67 0 00-1.7.21l-.67.35a3 3 0 01-1.43.39h-1.68a3 3 0 01-1.44-.39l-.65-.34a2.72 2.72 0 00-1.73-.21l-1.62.3c-.92.18-1.7.78-2.12 1.61-1.68 3.3-2.93 5.97-3.4 8.23-.48 2.33-.14 4.3 1.4 6.1.89 1.01 2.36.82 3.14-.07.6-.68 1.28-1.47 1.95-2.26.53-.62 1.3-.97 2.1-.97h6.41c.81 0 1.58.35 2.1.97l1.99 2.3c.76.86 2.2 1.05 3.07.06 1.57-1.8 1.92-3.78 1.44-6.12-.47-2.28-1.74-4.97-3.42-8.28a2.93 2.93 0 00-2.06-1.55l-1.68-.33zM17.6 7.61c.2-.1.46-.14.74-.08l1.68.32c.44.08.8.36 1 .75 1.71 3.36 2.88 5.86 3.3 7.9.4 1.99.1 3.46-1.1 4.84-.17.2-.54.24-.81-.07-.6-.68-1.29-1.47-1.98-2.28a4.26 4.26 0 00-3.24-1.49h-6.4c-1.25 0-2.44.55-3.24 1.5L5.6 21.23c-.3.33-.69.28-.87.07-1.18-1.37-1.47-2.84-1.07-4.8.42-2.04 1.57-4.53 3.26-7.86.22-.42.62-.72 1.07-.8l1.63-.32c.29-.06.56-.02.77.08.2.1.4.2.6.32a4.5 4.5 0 002.16.57h1.68A4.5 4.5 0 0017 7.93c.2-.12.41-.23.6-.32zM14 12.25a1.25 1.25 0 100-2.5 1.25 1.25 0 000 2.5z"/></svg>