<svg width="24" height="24" viewBox="0 0 24 24" xmlns="http://www.w3.org/2000/svg"><path d="M9.8 5.5a2.58 2.58 0 00-1.63-.2l-1.18.23c-.86.16-1.6.71-2 1.5-1.37 2.67-2.4 4.86-2.8 6.73-.42 1.92-.17 3.57 1.07 5.07.82 1 2.23.8 2.97-.03.56-.64 1.2-1.37 1.81-2.09.41-.47 1-.75 1.63-.75h4.66c.62 0 1.22.28 1.63.75l1.82 2.09c.73.83 2.14 1.03 2.96.03 1.24-1.5 1.49-3.15 1.08-5.07-.4-1.87-1.43-4.06-2.8-6.73a2.85 2.85 0 00-2-1.5l-1.19-.23a2.58 2.58 0 00-1.64.2l-.43.24c-.36.19-.74.3-1.12.3h-1.28c-.38 0-.76-.11-1.11-.3L9.8 5.5zM8.45 6.7c.27-.05.53-.02.73.08l.4.21c.54.3 1.15.47 1.79.47h1.28c.64 0 1.26-.17 1.8-.47l.4-.2c.2-.1.45-.14.73-.08l1.18.22c.43.08.8.36 1 .75 1.38 2.7 2.32 4.72 2.67 6.37.34 1.6.12 2.78-.78 3.87a.4.4 0 01-.35.15.64.64 0 01-.44-.22 236.7 236.7 0 01-1.8-2.07 3.58 3.58 0 00-2.72-1.25H9.67c-1.04 0-2.03.46-2.7 1.25l-1.81 2.07a.64.64 0 01-.45.22.4.4 0 01-.35-.15c-.9-1.1-1.12-2.27-.78-3.87.35-1.65 1.3-3.67 2.67-6.37.2-.4.57-.67 1-.75l1.19-.22zM12 11a1 1 0 100-2 1 1 0 000 2z"/></svg>