<svg width="20" height="20" viewBox="0 0 20 20" xmlns="http://www.w3.org/2000/svg"><path d="M13.74 3c.41 0 .75.34.75.75V8h1.75a.75.75 0 0 1 0 1.5h-1.75v5.82c-.4-.35-.92-.57-1.5-.57v-11c0-.41.33-.75.75-.75Zm-.75 12.75ZM4.24 4a.75.75 0 0 0 0 1.5h5.2c-.1 1.05-.42 2.49-1.08 3.74C7.53 10.81 6.24 12 4.24 12a.75.75 0 0 0 0 1.5c2.75 0 4.46-1.69 5.44-3.56.98-1.84 1.3-3.97 1.3-5.19a.75.75 0 0 0-.74-.75h-6Zm14 13a1.25 1.25 0 1 1-2.5 0 1.25 1.25 0 0 1 2.5 0Zm-8 0a1.25 1.25 0 1 1-2.5 0 1.25 1.25 0 0 1 2.5 0Z"/></svg>