<svg width="20" height="20" viewBox="0 0 20 20" xmlns="http://www.w3.org/2000/svg"><path d="M13.5 3c.27 0 .5.22.5.5V8h1.5a.5.5 0 010 1H14v5.98c-.3-.15-.65-.23-1-.23V3.5c0-.28.22-.5.5-.5zM13 15.75a1.25 1.25 0 110 2.5 1.25 1.25 0 010-2.5zM4.5 4a.5.5 0 000 1h5.44a14.36 14.36 0 01-.85 3.31C8.31 10.25 6.93 12 4.5 12a.5.5 0 000 1c3.06 0 4.69-2.25 5.53-4.31a14.35 14.35 0 00.97-4.15c0-.03 0 0 0 0a.5.5 0 00-.5-.54h-6zM17 18.25a1.25 1.25 0 100-2.5 1.25 1.25 0 000 2.5zm-8 0a1.25 1.25 0 100-2.5 1.25 1.25 0 000 2.5z"/></svg>