<svg width="24" height="25" viewBox="0 0 24 25" xmlns="http://www.w3.org/2000/svg"><path d="M5.75 3.5H7v3.25C7 7.99 8 9 9.25 9h2.5C12.99 9 14 8 14 6.75V3.77c.37.16.72.39 1.01.68l2.04 2.04c.6.6.95 1.43.95 2.3v6.96a2.75 2.75 0 01-2.75 2.75H15v-4.75c0-1.24-1-2.25-2.25-2.25h-4.5c-1.24 0-2.25 1-2.25 2.25v4.75h-.25A2.75 2.75 0 013 15.75v-9.5A2.75 2.75 0 015.75 3.5zm1.75 15h6v-4.75a.75.75 0 00-.75-.75h-4.5a.75.75 0 00-.75.75v4.75zm1-15h4v3.25c0 .41-.34.75-.75.75h-2.5a.75.75 0 01-.75-.75V3.5zm2.25 18c-1.37 0-2.6-.58-3.46-1.5h8.96c1.8 0 3.25-1.45 3.25-3.25V8.94l.55.55c.6.6.95 1.43.95 2.3v4.96a4.75 4.75 0 01-4.75 4.75h-5.5z"/></svg>