<svg width="24" height="24" viewBox="0 0 24 24" xmlns="http://www.w3.org/2000/svg"><path d="M5.75 18A2.75 2.75 0 0 1 3 15.25v-9.5A2.75 2.75 0 0 1 5.75 3h6.96c.87 0 1.7.34 2.3.95L17.05 6c.6.6.95 1.43.95 2.3v6.96A2.75 2.75 0 0 1 15.25 18h-9.5ZM4.5 5.75v9.5c0 .69.56 1.25 1.25 1.25H6v-3.25C6 12.01 7 11 8.25 11h4.5c1.24 0 2.25 1 2.25 2.25v3.25h.25c.69 0 1.25-.56 1.25-1.25V8.29c0-.47-.18-.91-.51-1.24L14 5.06v1.19c0 1.24-1 2.25-2.25 2.25h-2.5C8.01 8.5 7 7.5 7 6.25V4.5H5.75c-.69 0-1.25.56-1.25 1.25Zm9 10.75v-3.25a.75.75 0 0 0-.75-.75h-4.5a.75.75 0 0 0-.75.75v3.25h6Zm-5-10.25c0 .41.34.75.75.75h2.5c.41 0 .75-.34.75-.75V4.5h-4v1.75ZM10.75 21c-1.37 0-2.6-.58-3.46-1.5h8.96c1.8 0 3.25-1.45 3.25-3.25V8.44l.55.55c.6.6.95 1.43.95 2.3v4.96A4.75 4.75 0 0 1 16.25 21h-5.5Z"/></svg>