<svg width="24" height="25" viewBox="0 0 24 25" xmlns="http://www.w3.org/2000/svg"><path d="M5.75 18.5A2.75 2.75 0 013 15.75v-9.5A2.75 2.75 0 015.75 3.5h6.96c.87 0 1.7.34 2.3.95l2.04 2.04c.6.6.95 1.43.95 2.3v6.96a2.75 2.75 0 01-2.75 2.75h-9.5zM4.5 6.25v9.5c0 .69.56 1.25 1.25 1.25H6v-3.25c0-1.24 1-2.25 2.25-2.25h4.5c1.24 0 2.25 1 2.25 2.25V17h.25c.69 0 1.25-.56 1.25-1.25V8.79c0-.47-.18-.91-.51-1.24L14 5.56v1.19C14 7.99 13 9 11.75 9h-2.5C8.01 9 7 8 7 6.75V5H5.75c-.69 0-1.25.56-1.25 1.25zm9 10.75v-3.25a.75.75 0 00-.75-.75h-4.5a.75.75 0 00-.75.75V17h6zm-5-10.25c0 .41.34.75.75.75h2.5c.41 0 .75-.34.75-.75V5h-4v1.75zm2.25 14.75c-1.37 0-2.6-.58-3.46-1.5h8.96c1.8 0 3.25-1.45 3.25-3.25V8.94l.55.55c.6.6.95 1.43.95 2.3v4.96a4.75 4.75 0 01-4.75 4.75h-5.5z"/></svg>