<svg width="24" height="24" viewBox="0 0 24 24" xmlns="http://www.w3.org/2000/svg"><path d="M14 13.5a1.5 1.5 0 1 0 0-3 1.5 1.5 0 0 0 0 3ZM2 7.75A3.75 3.75 0 0 1 5.75 4h12.5A3.75 3.75 0 0 1 22 7.75v8.5A3.75 3.75 0 0 1 18.25 20H5.75A3.75 3.75 0 0 1 2 16.25v-8.5ZM5.75 7a.75.75 0 0 0-.75.75v8.5a.75.75 0 0 0 1.5 0v-8.5A.75.75 0 0 0 5.75 7Zm5.53 1.22a.75.75 0 1 0-1.06 1.06l1.2 1.2a2.99 2.99 0 0 0 0 3.04l-1.2 1.2a.75.75 0 1 0 1.06 1.06l1.2-1.2a2.99 2.99 0 0 0 3.04 0l1.2 1.2a.75.75 0 1 0 1.06-1.06l-1.2-1.2a2.99 2.99 0 0 0 0-3.04l1.2-1.2a.75.75 0 0 0-1.06-1.06l-1.2 1.2a2.99 2.99 0 0 0-3.04 0l-1.2-1.2Z"/></svg>