<svg width="24" height="24" viewBox="0 0 24 24" xmlns="http://www.w3.org/2000/svg"><path d="M13.4 2.51a3.75 3.75 0 0 0-2.8 0L3.1 5.55c-.67.27-1.1.91-1.1 1.62v9.66c0 .71.43 1.35 1.1 1.62l7.5 3.04c.62.25 1.3.33 1.96.23a6.47 6.47 0 0 1-1.31-6.01v-4.95l-4.77-1.8a.75.75 0 0 1 .54-1.41L12 9.45l4.98-1.9a.75.75 0 1 1 .54 1.4l-4.77 1.81v2.3a6.48 6.48 0 0 1 9.25-.25V7.17c0-.7-.43-1.35-1.1-1.62l-7.5-3.04Zm-1.4 15a5.5 5.5 0 1 0 11 0 5.5 5.5 0 0 0-11 0Zm8.5-3.5c.28 0 .5.21.5.5v2a.5.5 0 0 1-.5.5h-2a.5.5 0 0 1 0-1h1a2.5 2.5 0 0 0-4.03.03.5.5 0 0 1-.8-.59 3.5 3.5 0 0 1 5.33-.4v-.55c0-.28.22-.5.5-.5ZM15 19.94v.55a.5.5 0 0 1-1 0v-2c0-.28.22-.5.5-.5h2a.5.5 0 1 1 0 1h-1a2.5 2.5 0 0 0 3.91.11.5.5 0 0 1 .77.65 3.5 3.5 0 0 1-5.18.19Z"/></svg>