<svg width="20" height="20" viewBox="0 0 20 20" xmlns="http://www.w3.org/2000/svg"><path d="M6 3a4 4 0 0 0-4 4v5c0 1.1.9 2 2 2V8a3 3 0 0 1 3-3h8a2 2 0 0 0-2-2H6Zm0 5a1 1 0 0 1 1-1h.5a.5.5 0 0 0 0-1H7a2 2 0 0 0-2 2v.5a.5.5 0 0 0 1 0V8Zm3.5-2a.5.5 0 0 0 0 1h1a.5.5 0 0 0 0-1h-1Zm3 0a.5.5 0 0 0 0 1h1a.5.5 0 0 0 0-1h-1Zm3 0a.5.5 0 0 0 0 1h.5a1 1 0 0 1 1 1v.5a.5.5 0 0 0 1 0V8a2 2 0 0 0-2-2h-.5ZM6 10.5a.5.5 0 0 0-1 0v2a.5.5 0 0 0 1 0v-2Zm12 0a.5.5 0 0 0-1 0v2a.5.5 0 0 0 1 0v-2Zm-12 4a.5.5 0 0 0-1 0v.5c0 1.1.9 2 2 2h.5a.5.5 0 0 0 0-1H7a1 1 0 0 1-1-1v-.5Zm12 0a.5.5 0 0 0-1 0v.5a1 1 0 0 1-1 1h-.5a.5.5 0 0 0 0 1h.5a2 2 0 0 0 2-2v-.5ZM9.5 16a.5.5 0 0 0 0 1h1a.5.5 0 0 0 0-1h-1Zm3 0a.5.5 0 0 0 0 1h1a.5.5 0 0 0 0-1h-1Z"/></svg>