<svg width="24" height="24" viewBox="0 0 24 24" xmlns="http://www.w3.org/2000/svg"><path d="M6.75 3A4.75 4.75 0 002 7.75v7C2 15.99 3 17 4.25 17h.25v-1.5h-.25a.75.75 0 01-.75-.75v-7c0-1.8 1.46-3.25 3.25-3.25h10c.41 0 .75.34.75.75v.25H19v-.25C19 4.01 18 3 16.75 3h-10zm12.5 3.5h.5c1.2 0 2.17.93 2.24 2.1l.01.15v1a.75.75 0 01-1.5.1v-1.1c0-.38-.28-.7-.65-.74l-.1-.01h-.5a.75.75 0 01-.1-1.5h.1zm-13 5c.38 0 .7.28.74.65l.01.1v2.5a.75.75 0 01-1.5.1v-2.6c0-.41.34-.75.75-.75zm.74 5.64a.75.75 0 00-1.49.1v1.16a2.25 2.25 0 002.25 2.1h.6a.75.75 0 00-.1-1.5h-.6a.75.75 0 01-.65-.75v-1.1zm15.01.1a.75.75 0 10-1.5 0v1.01c0 .41-.34.75-.75.75h-1a.75.75 0 000 1.5h1c1.24 0 2.25-1 2.25-2.25v-1zM14.75 19h1.5a.75.75 0 01.1 1.5h-1.6a.75.75 0 01-.1-1.5h.1zm-2.5 0h-1.6a.75.75 0 00.1 1.5h1.6a.75.75 0 00-.1-1.5zm9.74-6.85a.75.75 0 00-1.49.1v2.6a.75.75 0 001.5-.1v-2.6zM9.5 7.25a.75.75 0 00-.75-.75h-1c-1.24 0-2.25 1-2.25 2.25v1a.75.75 0 001.5 0v-1c0-.41.34-.75.75-.75h1c.42 0 .75-.34.75-.75zm5.75-.75h1.5a.75.75 0 01.1 1.5h-1.6a.75.75 0 01-.1-1.5h.1zm-2.5 0h-1.6a.75.75 0 00.1 1.5h1.6a.75.75 0 00-.1-1.5z"/></svg>