<svg width="24" height="24" viewBox="0 0 24 24" xmlns="http://www.w3.org/2000/svg"><path d="M4.75 4.5c-.69 0-1.25.56-1.25 1.25v9c0 .41.34.75.75.75h.25V17h-.25C3.01 17 2 16 2 14.75v-9A2.75 2.75 0 014.75 3h12C17.99 3 19 4 19 5.25v.25h-1.5v-.25a.75.75 0 00-.75-.75h-12zm15 2h-.6a.75.75 0 00.1 1.5h.6c.37.06.65.37.65.75v1.1a.75.75 0 001.5-.1V8.6a2.25 2.25 0 00-2.25-2.1zM6.99 12.15a.75.75 0 00-1.49.1v2.6a.75.75 0 001.5-.1v-2.6zm-.74 4.35c.38 0 .7.28.74.64l.01.1v1.01c0 .38.28.7.65.74l.1.01h.5a.75.75 0 01.1 1.5h-.6c-1.2 0-2.17-.93-2.24-2.1l-.01-.15v-1c0-.42.34-.75.75-.75zm15 0c.41 0 .75.33.75.75v1c0 1.24-1 2.25-2.25 2.25h-1a.75.75 0 010-1.5h1c.41 0 .75-.34.75-.75v-1c0-.42.34-.75.75-.75zm-5 2.5h-1.6a.75.75 0 00.1 1.5h1.6a.75.75 0 00-.1-1.5zm-5.5 0h1.5a.75.75 0 01.1 1.5h-1.6a.75.75 0 01-.1-1.5h.1zm10.5-7.5c.38 0 .7.28.74.65l.01.1v2.5a.75.75 0 01-1.5.1v-2.6c0-.41.34-.75.75-.75zm-12.5-5a.75.75 0 010 1.5h-1a.75.75 0 00-.75.75v1a.75.75 0 01-1.5 0v-1c0-1.24 1-2.25 2.25-2.25h1zm8 0h-1.6a.75.75 0 00.1 1.5h1.6a.75.75 0 00-.1-1.5zm-5.5 0h1.5a.75.75 0 01.1 1.5h-1.6a.75.75 0 01-.1-1.5h.1z"/></svg>