<svg width="16" height="16" viewBox="0 0 16 16" xmlns="http://www.w3.org/2000/svg"><path d="M4 .5a.5.5 0 11-1 0 .5.5 0 011 0zm-3 4C1 2.45 2.91 1 5 1s4 1.45 4 3.5S7.09 8 5 8 1 6.55 1 4.5zm4-2c-1.5 0-2.5 1-2.5 2s1 2 2.5 2 2.5-1 2.5-2-1-2-2.5-2zM6.5 1a.5.5 0 100-1 .5.5 0 000 1zm6.5.75a.75.75 0 00-1.5 0v10.69l-.72-.72a.75.75 0 10-1.06 1.06l2 2c.3.3.77.3 1.06 0l2-2a.75.75 0 10-1.06-1.06l-.72.72V1.75zM5 9c.3 0 .58.19.7.47l2 5a.75.75 0 01-1.4.56l-.2-.53H3.9l-.2.53a.75.75 0 01-1.4-.56l2-5A.75.75 0 015 9zm0 2.77L4.5 13h1L5 11.77z"/></svg>