<svg width="20" height="20" viewBox="0 0 20 20" xmlns="http://www.w3.org/2000/svg"><path d="M4.5 2C3.67 2 3 2.67 3 3.5v3C3 7.33 3.67 8 4.5 8h11c.83 0 1.5-.67 1.5-1.5v-3c0-.83-.67-1.5-1.5-1.5h-11ZM6 11a2 2 0 0 1-2-2h12a2 2 0 0 1-2 2H6Zm0 1h6.5a3.5 3.5 0 0 0-3.29 4.7l-2.49 1.25A.5.5 0 0 1 6 17.5V12Zm6.5 1a2.5 2.5 0 0 0 0 5h.5a.5.5 0 0 0 0-1h-.5a1.5 1.5 0 0 1 0-3h.5a.5.5 0 0 0 0-1h-.5Zm3.5 0a.5.5 0 0 0 0 1h.5a1.5 1.5 0 0 1 0 3H16a.5.5 0 0 0 0 1h.5a2.5 2.5 0 0 0 0-5H16Zm-4 2.5c0-.28.22-.5.5-.5h4a.5.5 0 0 1 0 1h-4a.5.5 0 0 1-.5-.5Z"/></svg>