<svg width="32" height="32" viewBox="0 0 32 32" xmlns="http://www.w3.org/2000/svg"><path d="M2 13.5a10.5 10.5 0 1 1 5.8 9.4L3.9 23.93a1.5 1.5 0 0 1-1.84-1.83l1.05-3.92A10.43 10.43 0 0 1 2 13.5Zm2 0c0 1.48.38 2.88 1.05 4.09a1 1 0 0 1 .09.74l-.93 3.46 3.45-.93a1 1 0 0 1 .75.1A8.5 8.5 0 1 0 4 13.5Zm8.5 12c.67 0 1.32-.05 1.95-.16a8.46 8.46 0 0 0 9.14.61 1 1 0 0 1 .75-.09l3.45.93-.93-3.46a1 1 0 0 1 .1-.74 8.5 8.5 0 0 0-2.62-11.08c-.16-.94-.43-1.85-.8-2.7a10.5 10.5 0 0 1 5.36 14.38l1.05 3.92a1.5 1.5 0 0 1-1.84 1.83L24.2 27.9a10.46 10.46 0 0 1-12.55-2.42c.28.02.56.03.85.03Z"/></svg>