<svg width="24" height="24" viewBox="0 0 24 24" xmlns="http://www.w3.org/2000/svg"><path d="M9.56 3a7.5 7.5 0 0 0-6.8 10.67l-.72 2.84c-.23.92.59 1.75 1.5 1.53l2.93-.7A7.5 7.5 0 1 0 9.56 3Zm-6 7.5a6 6 0 1 1 3.33 5.37l-.24-.12-.27.07-2.78.66.69-2.7.07-.28-.13-.25a5.97 5.97 0 0 1-.67-2.75Zm11 10.5a7.47 7.47 0 0 1-5.1-2 8.28 8.28 0 0 0 2.18-.26 5.97 5.97 0 0 0 5.6.13l.24-.12.26.07c.92.22 1.96.44 2.74.6-.18-.74-.41-1.75-.64-2.64l-.07-.28.13-.25a5.97 5.97 0 0 0-2.09-7.8 8.44 8.44 0 0 0-.8-2.04 7.5 7.5 0 0 1 4.35 10.26l.67 2.8c.2.9-.57 1.7-1.47 1.5-.72-.15-1.87-.39-2.91-.63-.94.42-1.99.66-3.09.66Z"/></svg>