<svg width="16" height="16" viewBox="0 0 16 16" xmlns="http://www.w3.org/2000/svg"><path d="M8.5 1.5a.5.5 0 0 0-1 0v13a.5.5 0 0 0 1 0v-13ZM1 5.5A2.5 2.5 0 0 1 3.5 3h3v1h-3C2.67 4 2 4.67 2 5.5v5c0 .83.67 1.5 1.5 1.5h3v1h-3A2.5 2.5 0 0 1 1 10.5v-5ZM9.5 4V3h3A2.5 2.5 0 0 1 15 5.5v5a2.5 2.5 0 0 1-2.5 2.5h-3v-1h3c.83 0 1.5-.67 1.5-1.5v-5c0-.83-.67-1.5-1.5-1.5h-3ZM12 5.5a.5.5 0 0 1 1 0v1a.5.5 0 0 1-1 0v-1Zm.5 3.5a.5.5 0 0 0-.5.5v1a.5.5 0 0 0 1 0v-1a.5.5 0 0 0-.5-.5ZM3 5.5a.5.5 0 0 1 1 0v1a.5.5 0 0 1-1 0v-1ZM3.5 9a.5.5 0 0 0-.5.5v1a.5.5 0 0 0 1 0v-1a.5.5 0 0 0-.5-.5Z"/></svg>