<svg width="20" height="20" viewBox="0 0 20 20" xmlns="http://www.w3.org/2000/svg"><path d="M4.91 5.19a6.98 6.98 0 0 1 5.65-2.17L7.4 8.5c-.1.18-.19.36-.25.56L4.91 5.2Zm-.67.83 3.12 5.4a3 3 0 0 0 .4.58H3.3a7 7 0 0 1 .95-5.98ZM8.27 11l-.04-.06A2 2 0 0 1 11.73 9l.04.06A2 2 0 0 1 8.27 11Zm1.12-3.94 2.23-3.87c2.08.5 3.8 1.92 4.7 3.81H10c-.21 0-.42.02-.61.06Zm2.85.94h4.47a7 7 0 0 1-.95 5.98l-3.12-5.4c-.1-.2-.25-.4-.4-.58Zm.61 2.94 2.24 3.87a6.98 6.98 0 0 1-5.65 2.17l3.16-5.48c.1-.18.19-.36.25-.56Zm-2.24 2L8.38 16.8A7.01 7.01 0 0 1 3.68 13H10c.21 0 .42-.02.61-.06ZM10 2a8 8 0 1 0 0 16 8 8 0 0 0 0-16Z"/></svg>