<svg width="24" height="24" viewBox="0 0 24 24" xmlns="http://www.w3.org/2000/svg"><path d="M12 2a10 10 0 1 1 0 20 10 10 0 0 1 0-20Zm3.25 12.33-.04.07-.06.1-4.76 5.85a8.54 8.54 0 0 0 7.26-2l-2.08-4.54c-.1.18-.2.36-.32.52ZM4.49 16a8.53 8.53 0 0 0 4.34 3.9L11.99 16h-.19l-.13-.01H4.49ZM20.13 9.5h-5a4.02 4.02 0 0 1 .3.41l.05.1.04.07c.08.16.16.33.22.5l3.02 6.57a8.46 8.46 0 0 0 1.37-7.65ZM3.5 12c0 .86.13 1.7.37 2.49h5a4 4 0 0 1-.23-.32l-.14-.23-3.61-6.6A8.46 8.46 0 0 0 3.5 12Zm6.52-1.53-.04.08A2.48 2.48 0 0 0 9.5 12c0 1.3.98 2.36 2.24 2.49h.52a2.5 2.5 0 0 0-.03-4.98h-.43a2.5 2.5 0 0 0-1.78.96ZM12 3.5c-2.4 0-4.55.99-6.1 2.58l2.4 4.38a4 4 0 0 1 .49-.85l3.9-6.08A8.62 8.62 0 0 0 12 3.5Zm-.4 4.52a4.05 4.05 0 0 1 .7 0h7.2A8.52 8.52 0 0 0 14.6 3.9l-.3-.09-2.7 4.21Z"/></svg>