<svg width="20" height="20" viewBox="0 0 20 20" xmlns="http://www.w3.org/2000/svg"><path d="m13.07 15-.38 1.6a1.84 1.84 0 0 1-1.67 1.4H9.13c-.82 0-1.54-.52-1.78-1.26l-.04-.14-.38-1.6h6.14ZM10 2c3.31 0 6 2.6 6 5.8 0 1.68-.75 3.22-2.2 4.6a.6.6 0 0 0-.15.2l-.02.09L13.3 14H10.5V9.5a.5.5 0 1 0-1 0V14H6.69l-.31-1.31a.6.6 0 0 0-.17-.3A6.32 6.32 0 0 1 4 8.04L4 7.8v-.2A5.91 5.91 0 0 1 10 2Zm-.5 4.5v1a.5.5 0 0 0 1 0v-1a.5.5 0 0 0-1 0Zm3.35.94a.5.5 0 0 0-.7 0l-.71.71a.5.5 0 0 0 .7.7l.71-.7a.5.5 0 0 0 0-.7Zm-5 0a.5.5 0 1 0-.7.71l.7.7a.5.5 0 1 0 .71-.7l-.7-.7Z"/></svg>