<svg width="28" height="28" viewBox="0 0 28 28" xmlns="http://www.w3.org/2000/svg"><path d="M3 6.75A3.75 3.75 0 0 1 6.75 3H9.5v6.5H3V6.75ZM3 11v6h6.5v-6H3Zm0 7.5v2.75A3.75 3.75 0 0 0 6.75 25H9.5v-6.5H3Zm8 6.5h2.57a4.73 4.73 0 0 1 2.06-6.5H11V25Zm14-8v-6h-6.5v6H25Zm0-7.5V6.75A3.75 3.75 0 0 0 21.25 3H18.5v6.5H25ZM17 3h-6v6.5h6V3Zm0 8v6h-6v-6h6Zm.75 9.5a2.25 2.25 0 0 0 0 4.5h.5a.75.75 0 0 1 0 1.5h-.5a3.75 3.75 0 1 1 0-7.5h.5a.75.75 0 0 1 0 1.5h-.5ZM17 22.75c0-.41.34-.75.75-.75h5.5a.75.75 0 0 1 0 1.5h-5.5a.75.75 0 0 1-.75-.75ZM23.25 25a2.25 2.25 0 0 0 0-4.5h-.5a.75.75 0 0 1 0-1.5h.5a3.75 3.75 0 1 1 0 7.5h-.5a.75.75 0 0 1 0-1.5h.5Z"/></svg>