<svg width="32" height="32" viewBox="0 0 32 32" xmlns="http://www.w3.org/2000/svg"><path d="M8.66 5.78a1.25 1.25 0 0 0-2.32 0l-3.25 8a1.25 1.25 0 0 0 2.32.94l.5-1.22H9.1l.5 1.22a1.25 1.25 0 0 0 2.3-.94l-3.24-8ZM7.5 9.58 8.08 11H6.92l.58-1.43ZM2.75 20.24c0-.69.56-1.25 1.25-1.25h24a1.25 1.25 0 1 1 0 2.5H4c-.69 0-1.25-.56-1.25-1.25Zm0 6c0-.69.56-1.25 1.25-1.25h24a1.25 1.25 0 1 1 0 2.5H4c-.69 0-1.25-.56-1.25-1.25ZM14.25 5C13.56 5 13 5.56 13 6.25v8c0 .69.56 1.25 1.25 1.25H17a3.25 3.25 0 0 0 2.28-5.57A3.25 3.25 0 0 0 16.5 5h-2.25Zm1.25 8v-1.5H17a.75.75 0 0 1 0 1.5h-1.5Zm1-4h-1V7.5h1a.75.75 0 0 1 0 1.5Zm7 1.25c0-1.13.29-1.82.6-2.2.3-.37.71-.55 1.2-.55.56 0 1.02.24 1.35.85a1.25 1.25 0 1 0 2.2-1.2A3.93 3.93 0 0 0 25.3 5c-1.2 0-2.32.48-3.12 1.45a5.85 5.85 0 0 0-1.18 3.8c0 1.54.4 2.85 1.18 3.8.8.97 1.93 1.45 3.12 1.45 1.5 0 2.8-.76 3.55-2.16a1.25 1.25 0 0 0-2.2-1.2c-.33.62-.79.86-1.35.86-.49 0-.9-.18-1.2-.55-.31-.38-.6-1.07-.6-2.2Z"/></svg>