<svg width="24" height="24" viewBox="0 0 24 24" xmlns="http://www.w3.org/2000/svg"><path d="M3 3.75c0-.41.34-.75.75-.75h16.5a.75.75 0 0 1 0 1.5h-1.04l2.73 6.72c.04.09.06.18.06.28a3.5 3.5 0 1 1-7 0c0-.1.02-.2.06-.28l2.73-6.72h-5.04v12h4a2.25 2.25 0 0 1 0 4.5h-9.5a2.25 2.25 0 0 1 0-4.5h4v-12H6.21l2.73 6.72c.04.09.06.18.06.28a3.5 3.5 0 1 1-7 0c0-.1.02-.2.06-.28L4.79 4.5H3.75A.75.75 0 0 1 3 3.75Zm3.5 15c0 .41.34.75.75.75h9.5a.75.75 0 0 0 0-1.5h-9.5a.75.75 0 0 0-.75.75Zm.85-6.5h-3.7a2 2 0 0 0 3.7 0Zm-.22-1.5L5.5 6.74l-1.63 4.01h3.26ZM18.5 13.5a2 2 0 0 0 1.85-1.25h-3.7a2 2 0 0 0 1.85 1.25Zm-1.63-2.75h3.26L18.5 6.74l-1.63 4.01Z"/></svg>