<svg width="24" height="24" viewBox="0 0 24 24" xmlns="http://www.w3.org/2000/svg"><path d="M13.06 7.43a2.5 2.5 0 1 1 3.53 3.54 2.5 2.5 0 0 1-3.53-3.54Zm2.47 1.06a1 1 0 1 0-1.41 1.42 1 1 0 0 0 1.41-1.42Zm5.98-4.17a2.75 2.75 0 0 0-1.81-1.8l-.66-.21c-2.4-.75-5-.1-6.78 1.67l-1 1a3.5 3.5 0 0 0-4.56.32L5.45 6.55c-.29.29-.29.76 0 1.06l1.6 1.59-.18.18c-.69.68-.69 1.79 0 2.47l.5.5-1.4.8a.75.75 0 0 0-.16 1.17l3.89 3.9a.75.75 0 0 0 1.18-.16l.8-1.4.5.5c.68.68 1.78.68 2.47 0l.17-.18 1.6 1.6c.29.28.76.28 1.05 0l1.25-1.25a3.5 3.5 0 0 0 .32-4.57l1-1A6.75 6.75 0 0 0 21.72 5l-.21-.67Zm-2.26-.38c.4.13.7.43.83.83l.2.66c.58 1.86.08 3.9-1.3 5.27l-5.4 5.4c-.1.1-.25.1-.35 0l-5.3-5.3a.25.25 0 0 1 0-.36l5.4-5.4a5.25 5.25 0 0 1 5.26-1.3l.66.2Zm-1.29 9.9a2 2 0 0 1-.3 2.43l-.72.71-1.06-1.06 2.08-2.08ZM7.76 6.36a2 2 0 0 1 2.43-.3L8.1 8.14 7.05 7.08l.7-.72Zm2.82 9.2-.52.9-2.5-2.5.9-.51 2.12 2.11ZM6.69 18.4a.75.75 0 0 0-1.06-1.06l-2.48 2.48a.75.75 0 0 0 1.06 1.06l2.48-2.48Zm-1.94-3c.29.3.29.77 0 1.06l-1.07 1.06a.75.75 0 0 1-1.06-1.06l1.06-1.06c.3-.3.77-.3 1.07 0Zm3.88 4.95a.75.75 0 1 0-1.06-1.06l-1.06 1.06a.75.75 0 0 0 1.06 1.06l1.06-1.06Z"/></svg>