<svg width="32" height="32" viewBox="0 0 32 32" xmlns="http://www.w3.org/2000/svg"><path d="M2 9.87c.06.65.61 1.13 1.25 1.13v-.01h.1c.12-.01 2.2-.22 3.71-2.16a5.69 5.69 0 004.43 2.16c1.75 0 3.36-.83 4.5-2.25a5.82 5.82 0 004.5 2.25c1.73 0 3.3-.79 4.44-2.16a5.64 5.64 0 003.71 2.16 1.25 1.25 0 00.24-2.49c-.2-.02-1.97-.3-2.68-2.62A1.24 1.24 0 0025.05 5c-.57-.04-1.02.3-1.21.8-.65 1.68-1.9 2.69-3.33 2.69-1.44 0-2.68-1-3.33-2.69a1.26 1.26 0 00-2.34 0c-.65 1.68-1.9 2.69-3.34 2.69-1.43 0-2.68-1-3.33-2.69-.19-.5-.69-.81-1.2-.8-.55.02-1 .38-1.17.89-.72 2.32-2.49 2.6-2.67 2.62-.69.06-1.19.67-1.13 1.36zM3.25 19a1.25 1.25 0 01-.12-2.49c.18-.02 1.95-.3 2.67-2.62.16-.51.62-.87 1.16-.89.52-.01 1.02.3 1.21.8.65 1.69 1.9 2.69 3.33 2.69 1.43 0 2.69-1.01 3.34-2.69a1.26 1.26 0 012.34 0c.65 1.69 1.89 2.69 3.33 2.69 1.44 0 2.68-1.01 3.33-2.69.19-.5.64-.84 1.2-.8.54.02 1.01.37 1.16.88.71 2.32 2.48 2.6 2.68 2.62a1.25 1.25 0 01-.24 2.49c-.11 0-2.2-.22-3.71-2.16a5.73 5.73 0 01-4.43 2.16 5.82 5.82 0 01-4.5-2.25 5.77 5.77 0 01-4.5 2.25c-1.76 0-3.3-.79-4.44-2.16a5.67 5.67 0 01-3.7 2.16h-.12l.01.01zm0 8a1.25 1.25 0 01-.12-2.49c.18-.02 1.95-.3 2.67-2.62.16-.51.62-.87 1.16-.89.52-.01 1.02.3 1.21.8.65 1.69 1.9 2.69 3.33 2.69 1.43 0 2.69-1.01 3.34-2.69a1.26 1.26 0 012.34 0c.65 1.69 1.89 2.69 3.33 2.69 1.44 0 2.68-1.01 3.33-2.69.19-.5.64-.84 1.2-.8.54.02 1.01.37 1.16.88.71 2.32 2.48 2.6 2.68 2.62a1.25 1.25 0 01-.24 2.49c-.11 0-2.2-.22-3.71-2.16a5.73 5.73 0 01-4.43 2.16 5.82 5.82 0 01-4.5-2.25 5.77 5.77 0 01-4.5 2.25c-1.76 0-3.3-.79-4.44-2.16a5.67 5.67 0 01-3.7 2.16h-.12l.01.01z"/></svg>