<svg width="20" height="20" viewBox="0 0 20 20" xmlns="http://www.w3.org/2000/svg"><path d="M15 4c.2 0 .4.13.47.32C15.9 5.5 16.74 6 17.5 6a.5.5 0 010 1c-.96 0-1.88-.5-2.5-1.41A3.03 3.03 0 0112.5 7c-.96 0-1.88-.5-2.5-1.41A3.03 3.03 0 017.5 7C6.54 7 5.62 6.5 5 5.59A3.03 3.03 0 012.5 7a.5.5 0 110-1c.76 0 1.6-.5 2.03-1.67a.5.5 0 01.94 0C5.9 5.5 6.74 6 7.5 6c.76 0 1.6-.5 2.03-1.68a.5.5 0 01.94 0C10.9 5.5 11.74 6 12.5 6c.76 0 1.6-.5 2.03-1.68A.5.5 0 0115 4zm0 5c.2 0 .4.13.47.32C15.9 10.5 16.74 11 17.5 11a.5.5 0 010 1c-.96 0-1.88-.5-2.5-1.41A3.03 3.03 0 0112.5 12c-.96 0-1.88-.5-2.5-1.41A3.03 3.03 0 017.5 12c-.96 0-1.88-.5-2.5-1.41A3.03 3.03 0 012.5 12a.5.5 0 010-1c.76 0 1.6-.5 2.03-1.67a.5.5 0 01.94 0C5.9 10.5 6.74 11 7.5 11c.76 0 1.6-.5 2.03-1.68a.5.5 0 01.94 0C10.9 10.5 11.74 11 12.5 11c.76 0 1.6-.5 2.03-1.68A.5.5 0 0115 9zm.47 5.32a.5.5 0 00-.94 0C14.1 15.5 13.26 16 12.5 16c-.76 0-1.6-.5-2.03-1.68a.5.5 0 00-.94 0C9.1 15.5 8.26 16 7.5 16c-.76 0-1.6-.5-2.03-1.68a.5.5 0 00-.94 0C4.1 15.5 3.26 16 2.5 16a.5.5 0 100 1c.96 0 1.88-.5 2.5-1.41A3.03 3.03 0 007.5 17c.96 0 1.88-.5 2.5-1.41A3.03 3.03 0 0012.5 17c.96 0 1.88-.5 2.5-1.41A3.03 3.03 0 0017.5 17a.5.5 0 000-1c-.76 0-1.6-.5-2.03-1.68z"/></svg>