<svg width="16" height="16" viewBox="0 0 16 16" xmlns="http://www.w3.org/2000/svg"><path d="M12 2c.3 0 .58.19.7.47.14.37.37.64.6.8.24.2.42.23.45.23a.75.75 0 010 1.5c-.47 0-.96-.22-1.37-.53-.13-.1-.26-.22-.38-.35-.54.57-1.25.88-2 .88s-1.46-.3-2-.88C7.46 4.7 6.75 5 6 5s-1.46-.3-2-.87c-.12.12-.25.24-.38.34-.4.31-.9.53-1.37.53a.75.75 0 010-1.5c.03 0 .21-.03.46-.22.22-.17.45-.44.6-.8a.75.75 0 011.39 0C5 3.2 5.54 3.5 6 3.5c.46 0 1-.29 1.3-1.03a.75.75 0 011.4 0c.3.74.84 1.03 1.3 1.03.46 0 1-.29 1.3-1.03A.75.75 0 0112 2zm0 4c.3 0 .58.19.7.47.14.37.37.64.6.8.24.2.42.23.45.23a.75.75 0 010 1.5c-.47 0-.96-.22-1.37-.53-.13-.1-.26-.22-.38-.35-.54.57-1.25.88-2 .88s-1.46-.3-2-.88C7.46 8.7 6.75 9 6 9s-1.46-.3-2-.87c-.12.12-.25.24-.38.34-.4.31-.9.53-1.37.53a.75.75 0 010-1.5c.03 0 .21-.03.46-.22.22-.17.45-.44.6-.8a.75.75 0 011.39 0C5 7.2 5.54 7.5 6 7.5c.46 0 1-.29 1.3-1.03a.75.75 0 011.4 0c.3.74.84 1.03 1.3 1.03.46 0 1-.29 1.3-1.03A.75.75 0 0112 6zm.7 4.47a.75.75 0 00-1.4 0c-.3.74-.84 1.03-1.3 1.03-.46 0-1-.29-1.3-1.03a.75.75 0 00-1.4 0c-.3.74-.84 1.03-1.3 1.03-.46 0-1-.29-1.3-1.03a.75.75 0 00-1.4 0c-.14.37-.37.64-.6.81a.95.95 0 01-.45.22.75.75 0 100 1.5c.47 0 .96-.22 1.37-.53.13-.1.26-.22.38-.34.54.56 1.25.87 2 .87s1.46-.3 2-.88c.54.57 1.25.88 2 .88s1.46-.3 2-.88c.12.13.25.25.38.35.4.31.9.53 1.37.53a.75.75 0 000-1.5.95.95 0 01-.46-.22 1.91 1.91 0 01-.6-.8z"/></svg>