<svg width="48" height="48" viewBox="0 0 48 48" xmlns="http://www.w3.org/2000/svg"><path d="M37 8c.62 0 1.17.38 1.4.96a7.53 7.53 0 002.22 3.12c.87.72 1.6.92 1.88.92a1.5 1.5 0 010 3c-1.22 0-2.6-.63-3.77-1.59A10 10 0 0137 12.6a8.1 8.1 0 01-6.5 3.4 8.1 8.1 0 01-6.5-3.4 8.1 8.1 0 01-6.5 3.4 8.1 8.1 0 01-6.5-3.4 9.97 9.97 0 01-1.73 1.82A6.37 6.37 0 015.5 16a1.5 1.5 0 010-3c.28 0 1-.2 1.88-.91A7.52 7.52 0 009.6 8.96a1.5 1.5 0 012.8 0c1.1 2.82 3.19 4.03 5.1 4.03 1.91 0 4-1.2 5.1-4.03a1.5 1.5 0 012.8 0c1.1 2.82 3.19 4.03 5.1 4.03 1.91 0 4-1.2 5.1-4.03A1.5 1.5 0 0137 8zm0 12c.62 0 1.17.38 1.4.96a7.53 7.53 0 002.22 3.12c.87.72 1.6.92 1.88.92a1.5 1.5 0 010 3c-1.22 0-2.6-.63-3.77-1.59A10 10 0 0137 24.6a8.1 8.1 0 01-6.5 3.4 8.1 8.1 0 01-6.5-3.4 8.1 8.1 0 01-6.5 3.4 8.1 8.1 0 01-6.5-3.4 9.97 9.97 0 01-1.73 1.82A6.37 6.37 0 015.5 28a1.5 1.5 0 010-3c.28 0 1-.2 1.88-.91a7.52 7.52 0 002.22-3.13 1.5 1.5 0 012.8 0c1.1 2.82 3.19 4.03 5.1 4.03 1.91 0 4-1.2 5.1-4.03a1.5 1.5 0 012.8 0c1.1 2.82 3.19 4.03 5.1 4.03 1.91 0 4-1.2 5.1-4.03A1.5 1.5 0 0137 20zm1.4 12.96a7.53 7.53 0 002.22 3.12c.87.72 1.6.92 1.88.92a1.5 1.5 0 010 3c-1.22 0-2.6-.63-3.77-1.59A10 10 0 0137 36.6a8.1 8.1 0 01-6.5 3.4 8.1 8.1 0 01-6.5-3.4 8.1 8.1 0 01-6.5 3.4 8.1 8.1 0 01-6.5-3.4 9.97 9.97 0 01-1.73 1.82A6.37 6.37 0 015.5 40a1.5 1.5 0 010-3c.28 0 1-.2 1.88-.91a7.52 7.52 0 002.22-3.13 1.5 1.5 0 012.8 0c1.1 2.82 3.19 4.03 5.1 4.03 1.91 0 4-1.2 5.1-4.03a1.5 1.5 0 012.8 0c1.1 2.82 3.19 4.03 5.1 4.03 1.91 0 4-1.2 5.1-4.03a1.5 1.5 0 012.8 0z"/></svg>