<svg width="48" height="48" viewBox="0 0 48 48" xmlns="http://www.w3.org/2000/svg"><path d="M38.17 9.3a1.25 1.25 0 00-2.34 0c-1.13 2.9-3.3 4.2-5.33 4.2-2.03 0-4.2-1.3-5.33-4.2a1.25 1.25 0 00-2.34 0c-1.12 2.9-3.3 4.2-5.33 4.2-2.03 0-4.2-1.3-5.33-4.2a1.25 1.25 0 00-2.34 0c-1.16 3-3.3 4.2-4.58 4.2a1.25 1.25 0 000 2.5c2.02 0 4.21-1.29 5.76-3.57a7.9 7.9 0 006.49 3.56 7.91 7.91 0 006.5-3.58A7.91 7.91 0 0030.5 16a7.9 7.9 0 006.5-3.57c1.54 2.29 3.73 3.58 5.75 3.58a1.25 1.25 0 100-2.5c-1.27 0-3.42-1.2-4.58-4.2zM37 20.5c.52 0 .98.32 1.17.8 1.16 3 3.3 4.2 4.58 4.2a1.25 1.25 0 110 2.5c-2.02 0-4.21-1.3-5.76-3.58A7.9 7.9 0 0130.5 28a7.91 7.91 0 01-6.5-3.58A7.91 7.91 0 0117.5 28a7.9 7.9 0 01-6.5-3.56C9.47 26.7 7.28 28 5.26 28a1.25 1.25 0 010-2.5c1.28 0 3.42-1.2 4.58-4.2a1.25 1.25 0 012.34 0c1.12 2.9 3.3 4.2 5.33 4.2 2.03 0 4.2-1.3 5.33-4.2a1.25 1.25 0 012.34 0c1.12 2.9 3.3 4.2 5.33 4.2 2.03 0 4.2-1.3 5.33-4.2.2-.48.65-.8 1.17-.8zm0 12c.52 0 .98.32 1.17.8 1.16 3 3.3 4.2 4.58 4.2a1.25 1.25 0 110 2.5c-2.02 0-4.21-1.3-5.76-3.58A7.9 7.9 0 0130.5 40a7.91 7.91 0 01-6.5-3.58A7.91 7.91 0 0117.5 40a7.9 7.9 0 01-6.5-3.56C9.47 38.7 7.28 40 5.26 40a1.25 1.25 0 010-2.5c1.28 0 3.42-1.2 4.58-4.2a1.25 1.25 0 012.34 0c1.12 2.9 3.3 4.2 5.33 4.2 2.03 0 4.2-1.3 5.33-4.2a1.25 1.25 0 012.34 0c1.12 2.9 3.3 4.2 5.33 4.2 2.03 0 4.2-1.3 5.33-4.2.2-.48.65-.8 1.17-.8z"/></svg>