<svg width="24" height="24" viewBox="0 0 24 24" xmlns="http://www.w3.org/2000/svg"><path d="M18.46 3.5a1 1 0 01.93.55A4.57 4.57 0 0021.2 6l.12.06h.02a1 1 0 01-.64 1.9h-.01l-.01-.01-.03-.01a2.55 2.55 0 01-.34-.15 6.1 6.1 0 01-1.75-1.4A4.27 4.27 0 0115.25 8c-1.23 0-2.39-.55-3.25-1.56A4.26 4.26 0 018.75 8a4.27 4.27 0 01-3.3-1.62 6.12 6.12 0 01-2 1.52l-.09.03-.02.01h-.02a1 1 0 01-.65-1.88l.02-.01L2.8 6c.11-.06.28-.15.48-.3.39-.3.9-.8 1.33-1.65a1 1 0 011.82.08C6.96 5.47 7.92 6 8.75 6c.83 0 1.8-.53 2.32-1.87a1 1 0 011.86 0C13.46 5.47 14.42 6 15.25 6c.83 0 1.8-.53 2.32-1.87a1 1 0 01.89-.63zm0 6a1 1 0 01.93.55A4.57 4.57 0 0021.2 12l.12.06h.02a1 1 0 01-.64 1.9h-.01l-.01-.01-.03-.01a2.68 2.68 0 01-.34-.15 6.1 6.1 0 01-1.75-1.4 4.27 4.27 0 01-3.3 1.62c-1.23 0-2.39-.55-3.25-1.56A4.26 4.26 0 018.75 14a4.27 4.27 0 01-3.3-1.62 6.12 6.12 0 01-2 1.52 2.7 2.7 0 01-.09.03l-.02.01h-.02a1 1 0 01-.65-1.88l.02-.01.11-.05c.11-.06.28-.15.48-.3.39-.3.9-.8 1.33-1.65a1 1 0 011.82.08C6.96 11.47 7.92 12 8.75 12c.83 0 1.8-.53 2.32-1.87a1 1 0 011.86 0c.53 1.34 1.49 1.87 2.32 1.87.83 0 1.8-.53 2.32-1.87a1 1 0 01.89-.63zm.93 6.55a1 1 0 00-1.82.08c-.53 1.34-1.49 1.87-2.32 1.87-.83 0-1.8-.53-2.32-1.87a1 1 0 00-1.86 0C10.54 17.47 9.58 18 8.75 18c-.83 0-1.8-.53-2.32-1.87a1 1 0 00-1.82-.08A4.58 4.58 0 012.8 18l-.12.05h-.02a1 1 0 00.65 1.9h.02l.02-.02a2.7 2.7 0 00.34-.14 6.12 6.12 0 001.75-1.4 4.27 4.27 0 003.3 1.6c1.23 0 2.4-.54 3.25-1.55.86 1 2.02 1.56 3.25 1.56 1.25 0 2.44-.58 3.3-1.62a6.1 6.1 0 002 1.52l.09.03h.03v.01h.01a1 1 0 00.65-1.89h-.02a3.12 3.12 0 01-.59-.35c-.39-.3-.9-.8-1.33-1.65z"/></svg>