<svg width="32" height="32" viewBox="0 0 32 32" xmlns="http://www.w3.org/2000/svg"><path d="M25.93 6.14a1 1 0 00-1.86 0C23.3 8.14 21.83 9 20.5 9c-1.33 0-2.8-.86-3.57-2.86a1 1 0 00-1.86 0C14.3 8.14 12.83 9 11.5 9c-1.33 0-2.8-.86-3.57-2.86a1 1 0 00-1.86 0C5.27 8.21 3.8 9 3 9a1 1 0 100 2c1.4 0 2.92-.87 4-2.4a5.56 5.56 0 004.5 2.4c1.72 0 3.36-.85 4.5-2.41a5.57 5.57 0 004.5 2.4c1.71 0 3.35-.83 4.5-2.4 1.08 1.54 2.6 2.4 4 2.4a1 1 0 000-2c-.81 0-2.27-.78-3.07-2.85zM25 13.5a1 1 0 01.93.64C26.73 16.21 28.2 17 29 17a1 1 0 110 2c-1.4 0-2.92-.87-4-2.4a5.56 5.56 0 01-4.5 2.4 5.57 5.57 0 01-4.5-2.41 5.57 5.57 0 01-4.5 2.4A5.56 5.56 0 017 16.6C5.93 18.13 4.4 19 3 19a1 1 0 010-2c.81 0 2.27-.79 3.07-2.86a1 1 0 011.86 0c.77 2 2.24 2.86 3.57 2.86 1.33 0 2.8-.86 3.57-2.86a1 1 0 011.86 0c.77 2 2.24 2.86 3.57 2.86 1.33 0 2.8-.86 3.57-2.86a1 1 0 01.93-.64zm0 8a1 1 0 01.93.64C26.73 24.21 28.2 25 29 25a1 1 0 110 2c-1.4 0-2.92-.87-4-2.4a5.56 5.56 0 01-4.5 2.4 5.57 5.57 0 01-4.5-2.41 5.57 5.57 0 01-4.5 2.4A5.56 5.56 0 017 24.6C5.93 26.13 4.4 27 3 27a1 1 0 010-2c.81 0 2.27-.79 3.07-2.86a1 1 0 011.86 0c.77 2 2.24 2.86 3.57 2.86 1.33 0 2.8-.86 3.57-2.86a1 1 0 011.86 0c.77 2 2.24 2.86 3.57 2.86 1.33 0 2.8-.86 3.57-2.86a1 1 0 01.93-.64z"/></svg>