<svg width="16" height="16" viewBox="0 0 16 16" xmlns="http://www.w3.org/2000/svg"><path d="M12 2.5c.2 0 .39.12.46.31C12.8 3.64 13.42 4 14 4a.5.5 0 010 1c-.76 0-1.48-.35-2-1-.52.65-1.24 1-2 1s-1.48-.35-2-1c-.52.65-1.24 1-2 1s-1.48-.35-2-1c-.52.65-1.24 1-2 1a.5.5 0 010-1c.58 0 1.2-.36 1.54-1.19a.5.5 0 01.92 0C4.8 3.64 5.42 4 6 4c.58 0 1.2-.36 1.54-1.19a.5.5 0 01.92 0C8.8 3.64 9.42 4 10 4c.58 0 1.2-.36 1.54-1.19A.5.5 0 0112 2.5zm0 8c.2 0 .39.12.46.31.34.83.96 1.19 1.54 1.19a.5.5 0 010 1c-.76 0-1.48-.35-2-1-.52.65-1.24 1-2 1s-1.48-.35-2-1c-.52.65-1.24 1-2 1s-1.48-.35-2-1c-.52.65-1.24 1-2 1a.5.5 0 110-1c.58 0 1.2-.36 1.54-1.19a.5.5 0 01.92 0C4.8 11.64 5.42 12 6 12c.58 0 1.2-.36 1.54-1.19a.5.5 0 01.92 0C8.8 11.64 9.42 12 10 12c.58 0 1.2-.36 1.54-1.19a.5.5 0 01.46-.31zm.46-3.69a.5.5 0 00-.92 0C11.2 7.64 10.58 8 10 8c-.58 0-1.2-.36-1.54-1.19a.5.5 0 00-.92 0C7.2 7.64 6.58 8 6 8c-.58 0-1.2-.36-1.54-1.19a.5.5 0 00-.92 0C3.2 7.64 2.58 8 2 8a.5.5 0 000 1c.76 0 1.48-.35 2-1 .52.65 1.24 1 2 1s1.48-.35 2-1c.52.65 1.24 1 2 1s1.48-.35 2-1c.52.65 1.24 1 2 1a.5.5 0 000-1c-.58 0-1.2-.36-1.54-1.19z"/></svg>