<svg width="24" height="24" viewBox="0 0 24 24" xmlns="http://www.w3.org/2000/svg"><path d="M21 5H3a1 1 0 0 0-.12 2H21a1 1 0 0 0 .12-2H21Zm0 6a1 1 0 0 0 .12-2H3a1 1 0 0 0-.12 2H21Zm0 4h-8.5a6.5 6.5 0 0 0-1.31-2h9.93a1 1 0 0 1-.12 2Zm0 2h-8.02a6.62 6.62 0 0 1-.15 2H21a1 1 0 0 0 .12-2H21Zm-9 .5a5.5 5.5 0 1 1-11 0 5.5 5.5 0 0 1 11 0Zm-6.35 2.85.07.06c.2.14.46.12.64-.06l.05-.07a.5.5 0 0 0-.05-.63L4.7 18H9.6a.5.5 0 0 0 .41-.5v-.09a.5.5 0 0 0-.5-.41H4.71l1.65-1.65.05-.07a.5.5 0 0 0-.76-.63l-2.52 2.51-.05.07-.03.06-.03.08-.01.09v.1l.02.1.02.05.04.08.04.05 2.52 2.51Z"/></svg>