<svg width="24" height="24" viewBox="0 0 24 24" xmlns="http://www.w3.org/2000/svg"><path d="M21.25 5H2.75a.75.75 0 0 0-.1 1.5h18.6a.75.75 0 0 0 .1-1.5h-.1ZM2.75 9h18.6a.75.75 0 0 1-.1 1.5H2.65a.75.75 0 0 1 .1-1.5Zm18.5 5.5h-8.98a6.52 6.52 0 0 0-1.08-1.5h10.16a.75.75 0 0 1-.1 1.5Zm0 2.5h-8.27a6.62 6.62 0 0 1-.06 1.5h8.33a.75.75 0 0 0 .1-1.5h-.1Zm-9.25.5a5.5 5.5 0 1 1-11 0 5.5 5.5 0 0 1 11 0Zm-6.35 2.85.07.06c.2.14.46.12.64-.06l.05-.07a.5.5 0 0 0-.05-.63L4.7 18H9.6a.5.5 0 0 0 .41-.5v-.09a.5.5 0 0 0-.5-.41H4.71l1.65-1.65.05-.07a.5.5 0 0 0-.76-.63l-2.52 2.51-.05.07-.03.06-.03.08-.01.09v.1l.02.1.02.05.04.08.04.05 2.52 2.51Z"/></svg>