<svg width="24" height="24" viewBox="0 0 24 24" xmlns="http://www.w3.org/2000/svg"><path d="M7 5a2 2 0 1 1-4 0 2 2 0 0 1 4 0Zm14 0a2 2 0 1 1-4 0 2 2 0 0 1 4 0ZM7 19a2 2 0 1 1-4 0 2 2 0 0 1 4 0ZM8 5c0 .17-.01.34-.04.5h4.54a1 1 0 0 1 1 1V9h-2A2.5 2.5 0 0 0 9 11.5v2H6.5a1 1 0 0 1-1-1V7.96A3.02 3.02 0 0 1 4 7.83v4.67A2.5 2.5 0 0 0 6.5 15H9v2.5a2.5 2.5 0 0 0 2.5 2.5 6.45 6.45 0 0 1-.44-1.6 1 1 0 0 1-.56-.9v-6a1 1 0 0 1 1-1h6a1 1 0 0 1 .9.56c.56.08 1.1.23 1.6.44A2.5 2.5 0 0 0 17.5 9H15V6.5A2.5 2.5 0 0 0 12.5 4H7.83A3 3 0 0 1 8 5Zm15 12.5a5.5 5.5 0 1 1-11 0 5.5 5.5 0 0 1 11 0Zm-5.5-.7-1.65-1.65a.5.5 0 0 0-.7.7l1.64 1.65-1.64 1.65a.5.5 0 0 0 .7.7l1.65-1.64 1.65 1.64a.5.5 0 0 0 .7-.7l-1.64-1.65 1.64-1.65a.5.5 0 0 0-.7-.7l-1.65 1.64Z"/></svg>