<svg width="32" height="32" viewBox="0 0 32 32" xmlns="http://www.w3.org/2000/svg"><path d="M8 12a8 8 0 1113.3 5.99c-.32.29-.63.64-.86 1.05a9.96 9.96 0 00-8.88 0 4.3 4.3 0 00-.87-1.05A7.98 7.98 0 018 12zm4.17 8.97a7.96 7.96 0 017.66 0L19.36 23h-6.72l-.47-2.03zm1.36 5.87L13.1 25h5.8l-.43 1.84A1.5 1.5 0 0117.01 28H15c-.7 0-1.3-.48-1.46-1.16zM16 2a10 10 0 00-6.64 17.48c.35.3.57.65.64.99l1.58 6.82a3.5 3.5 0 003.4 2.71h2.03a3.5 3.5 0 003.41-2.71L22 20.47c.07-.34.3-.68.64-.99A10 10 0 0016 2zm-2.5 10a2.5 2.5 0 115 0 2.5 2.5 0 01-5 0zM16 7.5a4.5 4.5 0 100 9 4.5 4.5 0 000-9z"/></svg>