<svg width="32" height="32" viewBox="0 0 32 32" xmlns="http://www.w3.org/2000/svg"><path d="M8 12a8 8 0 1 1 13.3 5.99c-.32.29-.63.64-.86 1.05a9.96 9.96 0 0 0-8.88 0 4.3 4.3 0 0 0-.87-1.05A7.98 7.98 0 0 1 8 12Zm4.17 8.97a7.96 7.96 0 0 1 7.66 0L19.36 23h-6.72l-.47-2.03Zm1.36 5.87L13.1 25h5.8l-.43 1.84A1.5 1.5 0 0 1 17.01 28H15c-.7 0-1.3-.48-1.46-1.16ZM16 2a10 10 0 0 0-6.64 17.48c.35.3.57.65.64.99l1.58 6.82a3.5 3.5 0 0 0 3.4 2.71h2.03a3.5 3.5 0 0 0 3.41-2.71L22 20.47c.07-.34.3-.68.64-.99A10 10 0 0 0 16 2Zm-2.5 10a2.5 2.5 0 1 1 5 0 2.5 2.5 0 0 1-5 0ZM16 7.5a4.5 4.5 0 1 0 0 9 4.5 4.5 0 0 0 0-9Z"/></svg>