<svg width="20" height="20" viewBox="0 0 20 20" xmlns="http://www.w3.org/2000/svg"><path d="m12.83 16-.14.6a1.84 1.84 0 0 1-1.67 1.4H9.13c-.82 0-1.54-.52-1.78-1.26l-.04-.14-.14-.6h5.66Zm.24-1 .2-.79a4.98 4.98 0 0 0-6.53 0l.19.79h6.14ZM10 12c-1.31 0-2.53.42-3.52 1.14l-.1-.45a.6.6 0 0 0-.17-.3A6.32 6.32 0 0 1 4 8.04L4 7.8v-.2A5.91 5.91 0 0 1 10 2c3.31 0 6 2.6 6 5.8 0 1.68-.75 3.22-2.2 4.6a.6.6 0 0 0-.15.2l-.02.09-.11.45A5.97 5.97 0 0 0 10 12ZM8.5 8a1.5 1.5 0 1 1 3 0 1.5 1.5 0 0 1-3 0ZM10 5.5a2.5 2.5 0 1 0 0 5 2.5 2.5 0 0 0 0-5Z"/></svg>