<svg width="20" height="20" viewBox="0 0 20 20" xmlns="http://www.w3.org/2000/svg"><path d="M10 2c3.31 0 6 2.6 6 5.8 0 1.68-.75 3.22-2.2 4.6a.6.6 0 0 0-.15.2l-.02.09-.94 3.92a1.84 1.84 0 0 1-1.67 1.38l-.15.01H9.13c-.82 0-1.54-.52-1.78-1.26l-.04-.14-.93-3.91a.6.6 0 0 0-.17-.3A6.32 6.32 0 0 1 4 8.04L4 7.8v-.2A5.91 5.91 0 0 1 10 2ZM7.96 15l.31 1.33.03.1c.1.3.38.52.71.56l.12.01h1.81a.86.86 0 0 0 .75-.53l.03-.1.32-1.37H7.96Zm4.53-1.84a4.98 4.98 0 0 0-4.97 0l.2.84h4.57l.2-.84Zm.26-1c.09-.18.2-.35.36-.5C14.38 10.47 15 9.19 15 7.8A4.9 4.9 0 0 0 10 3a4.92 4.92 0 0 0-4.98 4.41L5 7.63V8c.06 1.3.68 2.52 1.9 3.67.14.14.26.3.35.5a5.97 5.97 0 0 1 5.5 0ZM8.5 8a1.5 1.5 0 1 1 3 0 1.5 1.5 0 0 1-3 0ZM10 5.5a2.5 2.5 0 1 0 0 5 2.5 2.5 0 0 0 0-5Z"/></svg>