<svg width="48" height="48" viewBox="0 0 48 48" xmlns="http://www.w3.org/2000/svg"><path d="M12 18.5a12 12 0 1120.1 8.85c-.43.4-.83.88-1.14 1.43a14.43 14.43 0 00-13.92 0c-.3-.55-.7-1.03-1.14-1.43C13.5 25.15 12 22 12 18.5zm5.83 12.7a11.94 11.94 0 0112.34 0l-.85 3.3H18.68l-.85-3.3zm2.2 8.6l-.71-2.8h9.36l-.72 2.8c-.25 1-1.15 1.7-2.18 1.7h-3.56c-1.03 0-1.93-.7-2.18-1.7zM24 4a14.5 14.5 0 00-9.79 25.2c.45.4.75.87.87 1.34l2.53 9.89a4.75 4.75 0 004.6 3.57h3.57a4.75 4.75 0 004.6-3.57l2.54-9.89c.12-.47.42-.93.87-1.34A14.5 14.5 0 0024 4zm-4.5 14.5a4.5 4.5 0 119 0 4.5 4.5 0 01-9 0zm4.5-7a7 7 0 100 14 7 7 0 000-14z"/></svg>