<svg width="16" height="16" viewBox="0 0 16 16" xmlns="http://www.w3.org/2000/svg"><path d="M8 3a3.5 3.5 0 00-2.45 6c.14.14.27.31.36.51a4.48 4.48 0 014.18 0c.09-.2.22-.37.36-.51A3.49 3.49 0 008 3zm-1.66 8h3.32l.14-.5a3.48 3.48 0 00-3.6 0l.14.5zm.27 1l.17.63a.5.5 0 00.48.37h1.48a.5.5 0 00.48-.37l.17-.63H6.61zM3.5 6.5a4.5 4.5 0 117.66 3.2c-.1.1-.16.2-.19.3l-.79 2.9A1.5 1.5 0 018.74 14H7.26a1.5 1.5 0 01-1.44-1.1l-.8-2.9a.65.65 0 00-.18-.3A4.49 4.49 0 013.5 6.5zm3.5 0a1 1 0 112 0 1 1 0 01-2 0zm1-2a2 2 0 100 4 2 2 0 000-4z"/></svg>