<svg width="24" height="24" viewBox="0 0 24 24" xmlns="http://www.w3.org/2000/svg"><path d="M15.42 19.5l-.17.76a2.25 2.25 0 01-2.02 1.73l-.17.01h-2.12c-.99 0-1.85-.65-2.14-1.58l-.05-.16-.17-.76h6.84zm.35-1.5l.2-.9a5.73 5.73 0 00-7.95 0l.21.9h7.54zM12 14c-1.64 0-3.14.54-4.36 1.45l-.05-.23a.25.25 0 00-.07-.13c-1.83-1.75-2.77-3.7-2.77-5.84a7.25 7.25 0 1114.5 0c0 2.14-.94 4.1-2.77 5.84a.25.25 0 00-.07.13l-.05.24A7.22 7.22 0 0012 14zm-1.75-4.75a1.75 1.75 0 113.5 0 1.75 1.75 0 01-3.5 0zM12 6a3.25 3.25 0 100 6.5A3.25 3.25 0 0012 6z"/></svg>