<svg width="28" height="28" viewBox="0 0 28 28" xmlns="http://www.w3.org/2000/svg"><path d="M6.5 11a7.5 7.5 0 1112.32 5.74l-.42.4a8.96 8.96 0 00-8.8 0 4.51 4.51 0 00-.43-.4A7.48 7.48 0 016.5 11zm3.87 7.43a7.47 7.47 0 017.26 0l-.08.27-.31 1.3h-6.48l-.31-1.3a3.15 3.15 0 00-.08-.27zm6.5 3.07l-.39 1.66c-.19.78-.9 1.34-1.7 1.34h-1.56c-.8 0-1.51-.56-1.7-1.34l-.4-1.66h5.76zM14 2a9 9 0 00-5.8 15.89c.41.34.69.74.79 1.16l1.07 4.46A3.25 3.25 0 0013.22 26h1.56c1.5 0 2.8-1.03 3.16-2.5L19 19.06c.1-.42.38-.82.78-1.16A9 9 0 0014 2zm0 6.5a2.5 2.5 0 100 5 2.5 2.5 0 000-5zM10 11a4 4 0 118 0 4 4 0 01-8 0z"/></svg>