<svg width="24" height="24" viewBox="0 0 24 24" xmlns="http://www.w3.org/2000/svg"><path d="M18 20.5h-7.03a2.94 2.94 0 0 1-.7 1.5H18a2 2 0 0 0 2-2V9.83a2 2 0 0 0-.59-1.42L13.6 2.6a.5.5 0 0 0-.05-.04 2.07 2.07 0 0 0-.34-.25l-.05-.03-.05-.03-.16-.09c-.2-.08-.41-.12-.63-.14h-.06a.6.6 0 0 0-.08-.01H6a2 2 0 0 0-2 2v10.02a1.76 1.76 0 0 1 1.5.5V4c0-.27.22-.5.5-.5h6V8c0 1.1.9 2 2 2h4.5v10a.5.5 0 0 1-.5.5Zm-.62-12H14a.5.5 0 0 1-.5-.5V4.62l3.88 3.88ZM4.25 15c.41 0 .75.34.75.75V20a2 2 0 1 1-4 0v-.25a.75.75 0 0 1 1.5 0V20a.5.5 0 0 0 1 0v-4.25c0-.41.34-.75.75-.75Zm3.7 0C6.87 15 6 15.87 6 16.95v.23c0 .62.32 1.19.85 1.5l1.53.92c.07.05.12.13.12.22v.23c0 .25-.2.45-.45.45h-.1a.45.45 0 0 1-.45-.45V20A.75.75 0 0 0 6 20v.05C6 21.13 6.87 22 7.95 22h.1c1.08 0 1.95-.87 1.95-1.95v-.23c0-.62-.32-1.19-.85-1.5l-1.53-.92a.25.25 0 0 1-.12-.22v-.23c0-.25.2-.45.45-.45h.1c.25 0 .45.2.45.45V17a.75.75 0 0 0 1.5 0v-.05C10 15.87 9.13 15 8.05 15h-.1Z"/></svg>