<svg width="32" height="32" viewBox="0 0 32 32" xmlns="http://www.w3.org/2000/svg"><path d="M10 22a2 2 0 100-4 2 2 0 000 4zm8-2a2 2 0 11-4 0 2 2 0 014 0zm4 2a2 2 0 100-4 2 2 0 000 4zM6.13 4.09A3 3 0 018.44 3h15.12a3 3 0 012.31 1.09l4.67 5.63A2 2 0 0128.99 13H28v12.75c0 1.8-1.46 3.25-3.25 3.25H7.25A3.25 3.25 0 014 25.75V13H3a2 2 0 01-1.54-3.28L6.13 4.1zM6 13v12.75c0 .69.56 1.25 1.25 1.25h17.5c.69 0 1.25-.56 1.25-1.25V13H6zm2.44-8a1 1 0 00-.77.36L3.01 11h25.98l-4.66-5.64a1 1 0 00-.77-.36H8.44z"/></svg>