<svg width="24" height="24" viewBox="0 0 24 24" xmlns="http://www.w3.org/2000/svg"><path d="M7.75 16a1.25 1.25 0 100-2.5 1.25 1.25 0 000 2.5zm5.5-1.25a1.25 1.25 0 11-2.5 0 1.25 1.25 0 012.5 0zm3 1.25a1.25 1.25 0 100-2.5 1.25 1.25 0 000 2.5zM4.87 3.63c.34-.4.83-.63 1.35-.63h11.56c.52 0 1.02.23 1.35.63l3.58 4.32c.67.82.1 2.05-.96 2.05H21v8.75a2.5 2.5 0 01-2.5 2.5h-13a2.5 2.5 0 01-2.5-2.5V10h-.75a1.25 1.25 0 01-.96-2.05l3.58-4.32zm1.35.87a.25.25 0 00-.2.09L2.8 8.5H21.2l-3.24-3.91a.25.25 0 00-.19-.09H6.22zM4.5 10v8.75a1 1 0 001 1h13a1 1 0 001-1V10h-15z"/></svg>