<svg width="24" height="24" viewBox="0 0 24 24" xmlns="http://www.w3.org/2000/svg"><path d="M4 18a2 2 0 1 1 0 4 2 2 0 0 1 0-4Zm0 1.5a.5.5 0 1 0 0 1 .5.5 0 0 0 0-1ZM9.5 15a2.5 2.5 0 1 1 0 5 2.5 2.5 0 0 1 0-5Zm0 1.5a1 1 0 1 0 0 2 1 1 0 0 0 0-2ZM11.82 2a5.41 5.41 0 0 1 5.33 4.47h.09a3.76 3.76 0 1 1 0 7.53H6.4a3.76 3.76 0 1 1 0-7.53h.08A5.41 5.41 0 0 1 11.82 2Zm0 1.5a3.93 3.93 0 0 0-3.91 3.73.7.7 0 0 1-.7.65h-.7a2.31 2.31 0 1 0 0 4.62h10.63a2.31 2.31 0 1 0 0-4.62h-.7a.7.7 0 0 1-.69-.65 3.93 3.93 0 0 0-3.92-3.73Z"/></svg>