<svg width="16" height="16" viewBox="0 0 16 16" xmlns="http://www.w3.org/2000/svg"><path d="M3.12 4.21c.32-.18 1-.3 1.58-.16.28.06.47.18.6.3.05.07.1.14.14.24a9.07 9.07 0 0 0-1.35-.05c-.37.03-.8.1-1.17.29-.6.3-1.05.7-1.29 1.24a2.6 2.6 0 0 0-.11 1.58c.12.6.56 1.4 1.5 1.72.68.24 1.52.2 2.5-.19A.75.75 0 0 0 7 9V5c0-.67-.21-1.23-.6-1.65a2.64 2.64 0 0 0-1.34-.76 3.97 3.97 0 0 0-2.67.3.75.75 0 0 0 .73 1.32Zm2.38 1.9v1.44c-1.07.54-1.68.51-1.98.4a.8.8 0 0 1-.53-.6c-.07-.34-.04-.54.02-.67.05-.13.19-.31.58-.5.13-.07.33-.12.61-.14a5.14 5.14 0 0 1 1.3.08Zm5.99.04a.75.75 0 0 0-1.47-.3c-.05.23-.1.46-.13.69l-1.05-.08a.75.75 0 1 0-.16 1.49l1 .08-.05.84c-.23.09-.44.2-.64.31-1.04.62-1.83 1.74-1.4 3.05a2 2 0 0 0 1.3 1.3 3.1 3.1 0 0 0 1.59.07.75.75 0 0 0 1.27-.49c.69-.4 1.29-1 1.53-1.8.09-.3.16-.58.22-.83.36.27.54.61.56.92.03.45-.25 1.18-1.58 1.68a.75.75 0 1 0 .53 1.4c1.71-.64 2.64-1.85 2.54-3.19a2.9 2.9 0 0 0-1.79-2.39v-.02a2.32 2.32 0 0 0 0-.18v-.03a.75.75 0 0 0-1.47-.14 6 6 0 0 0-1.14-.01c0-.18.02-.36.04-.54a8.41 8.41 0 0 0 2.08-.52.75.75 0 1 0-.54-1.4 7 7 0 0 1-1.3.37l.06-.28ZM9 11.77c-.12-.38.03-.86.7-1.27.06.54.16 1.08.29 1.65-.26.03-.47.01-.63-.04-.2-.06-.3-.17-.36-.34Zm2.83-.88c-.07.22-.22.44-.44.64-.11-.52-.19-1.02-.23-1.5.28-.04.59-.04.9-.01l-.23.87Z"/></svg>