<svg width="16" height="16" viewBox="0 0 16 16" xmlns="http://www.w3.org/2000/svg"><path d="M11.49 4.1a.5.5 0 1 0-.98-.2l-.19.95c-.44.02-.87.01-1.29-.02a.5.5 0 0 0-.07 1c.4.03.8.04 1.21.03-.05.4-.08.78-.1 1.14a3.73 3.73 0 0 0-1.83 1.67c-.4.8-.36 1.73.2 2.3.38.39.92.43 1.4.32.21-.04.43-.13.65-.24l.04.13a.5.5 0 1 0 .94-.35l-.12-.38a5.13 5.13 0 0 0 1.56-2.91c.1.03.2.06.28.1.44.19.7.52.81.91.2.77-.22 1.92-1.68 2.48a.5.5 0 1 0 .36.94c1.83-.7 2.65-2.31 2.29-3.68a2.36 2.36 0 0 0-1.38-1.57 2.91 2.91 0 0 0-.6-.18V6.5a.5.5 0 0 0-1-.02c-.28.02-.58.07-.9.15l.1-.83c.66-.07 1.32-.17 1.92-.31a.5.5 0 0 0-.23-.98c-.48.12-1 .2-1.53.26l.14-.66ZM9.13 9.12c.16-.31.45-.66.91-.96.01.75.08 1.38.18 1.9-.22.14-.42.23-.6.27-.3.06-.43 0-.47-.05-.17-.18-.29-.6-.02-1.16ZM11.9 7.5c-.15.7-.44 1.29-.79 1.74a11.6 11.6 0 0 1-.07-1.55 5.26 5.26 0 0 1 .86-.2ZM5.5 4.8a3.7 3.7 0 0 0-2.73.25l-.01.01h-.01a.5.5 0 0 0 .5.88.93.93 0 0 1 .13-.07 2.77 2.77 0 0 1 1.83-.11c.4.12.58.34.67.6.08.23.1.48.11.76-.19-.04-.41-.07-.65-.1a3.9 3.9 0 0 0-2.37.35c-1.46.9-1.25 3.18.46 3.7.76.24 1.5.06 2.07-.18l.5-.25V11a.5.5 0 1 0 1 0V7.44c0-.38 0-.92-.17-1.4A1.9 1.9 0 0 0 5.49 4.8ZM6 8.14v1.34a5.9 5.9 0 0 1-.9.48c-.46.2-.94.3-1.38.16-.84-.26-.98-1.43-.23-1.9.4-.24 1.07-.28 1.74-.2.3.03.57.08.77.12Z"/></svg>