<svg width="20" height="20" viewBox="0 0 20 20" xmlns="http://www.w3.org/2000/svg"><path d="M4.08 4.22c.7-.21 1.7-.34 2.84 0 1.01.3 1.56.9 1.83 1.56.26.63.26 1.27.26 1.67v5.05a.5.5 0 0 1-1 0v-.53c-.31.19-.67.38-1.05.55-.78.34-1.74.6-2.64.42a2.97 2.97 0 0 1-2.25-2.09c-.29-.97-.08-2.1.8-2.84a4.57 4.57 0 0 1 3.21-1c.71.03 1.38.17 1.93.32 0-.37-.03-.79-.18-1.17-.16-.4-.48-.77-1.19-.98a4.04 4.04 0 0 0-3.15.37h-.01a.5.5 0 0 1-.57-.82h.01l.02-.02a2.45 2.45 0 0 1 .3-.17c.2-.1.48-.22.84-.32ZM6.04 8a3.58 3.58 0 0 0-2.52.77 1.66 1.66 0 0 0-.5 1.79c.2.66.73 1.23 1.5 1.39.6.12 1.33-.04 2.04-.35.58-.26 1.1-.6 1.45-.85V8.37a8.27 8.27 0 0 0-1.97-.36Zm8.43-1.34a.5.5 0 0 0-.94-.34c-.18.5-.37 1.22-.47 1.65-.5.03-1 .03-1.53 0a.5.5 0 1 0-.06 1c.47.02.92.03 1.36 0-.11.58-.2 1.1-.25 1.56a4.71 4.71 0 0 0-2.3 2.3c-.44 1.02-.4 2.17.25 2.85.43.46 1.06.53 1.64.4.42-.1.86-.31 1.28-.61l.08.2a.5.5 0 0 0 .93-.36 8.18 8.18 0 0 0-.23-.53 6.7 6.7 0 0 0 1.68-3.6c.77.26 1.28.8 1.5 1.38.38 1.04-.04 2.55-2.11 3.47a.5.5 0 1 0 .4.92c2.43-1.08 3.26-3.07 2.64-4.73A3.37 3.37 0 0 0 16 10.17V10a.5.5 0 1 0-1 0v.02c-.43-.01-.88.03-1.36.13l.23-1.25a21.3 21.3 0 0 0 2.24-.41.5.5 0 0 0-.22-.98c-.62.15-1.2.27-1.77.35.1-.38.23-.85.35-1.2Zm-3.27 6.57c.23-.52.64-1.06 1.3-1.5-.01.63.04 1.16.13 1.61.1.48.24.87.38 1.2-.38.3-.75.49-1.06.56-.39.09-.6 0-.69-.1-.27-.3-.4-.97-.06-1.77Zm3.73-2.22a5.83 5.83 0 0 1-1.15 2.76l-.17-.62a7.2 7.2 0 0 1-.09-1.94l.13-.04c.46-.12.89-.17 1.28-.16Z"/></svg>