<svg width="24" height="24" viewBox="0 0 24 24" xmlns="http://www.w3.org/2000/svg"><path d="M3.08 5.62a6.34 6.34 0 0 1 4.46-.33c.64.19 1.15.48 1.55.88.39.4.62.85.75 1.3A5.93 5.93 0 0 1 10 9.5V15a1 1 0 0 1-1.96.28l-.08.04a5.6 5.6 0 0 1-3.87.51 3.5 3.5 0 0 1-2.57-3.14A3.56 3.56 0 0 1 3.2 9.25 6.41 6.41 0 0 1 8 8.72c0-.24-.02-.46-.09-.69a1.05 1.05 0 0 0-.25-.45 1.56 1.56 0 0 0-.7-.37 4.34 4.34 0 0 0-3.04.22 1 1 0 1 1-.85-1.8Zm4.04 4.96a4.42 4.42 0 0 0-2.95.41c-.42.24-.72.83-.66 1.53.06.64.42 1.19 1.12 1.38.79.23 1.68 0 2.47-.38.37-.18.68-.37.9-.52v-2.2a6.32 6.32 0 0 0-.88-.22Zm9.18-3.53a1 1 0 0 1 .65 1.25l-.15.59c.68-.09 1.34-.2 1.96-.36a1 1 0 1 1 .48 1.94c-.9.22-1.87.38-2.84.47-.07.34-.12.66-.17.97a5.99 5.99 0 0 1 1.8-.14A1 1 0 0 1 20 12v.33a4.75 4.75 0 0 1 2.1 2.16c.5 1.05.6 2.29.17 3.46a5.47 5.47 0 0 1-2.82 2.94 1 1 0 1 1-.9-1.78 3.49 3.49 0 0 0 1.84-1.85c.24-.64.19-1.31-.1-1.9a2.72 2.72 0 0 0-.65-.87 8.4 8.4 0 0 1-2.74 4.06l.04.11a1 1 0 0 1-1.75.93c-.33.15-.66.26-.98.32-.8.17-1.83.15-2.5-.58-.94-1.03-.87-2.6-.24-3.89a6.37 6.37 0 0 1 2.64-2.7c.05-.52.13-1.08.23-1.7-.48 0-.95-.01-1.41-.04a1 1 0 0 1 .14-2c.53.04 1.09.05 1.65.04.1-.44.2-.95.33-1.34a1 1 0 0 1 1.25-.65Zm-2.28 8.23c-.34.34-.59.7-.75 1.04-.43.87-.26 1.45-.1 1.64.03.02.2.09.62 0 .2-.05.43-.12.67-.23a9.57 9.57 0 0 1-.44-2.45Zm2.18 1.2a6.36 6.36 0 0 0 1.56-2.72l-1.65.26-.1.04a10.3 10.3 0 0 0 .19 2.43Z"/></svg>