<svg width="16" height="16" viewBox="0 0 16 16" xmlns="http://www.w3.org/2000/svg"><path d="M10.9 3.27c.41.08.67.48.59.88l-.06.28c.41-.08.84-.2 1.3-.37a.75.75 0 0 1 .54 1.4c-.74.29-1.43.44-2.08.52l-.04.54a6 6 0 0 1 1.14.01.75.75 0 0 1 1.46.13v.04a1.62 1.62 0 0 1 .01.18v.02a2.9 2.9 0 0 1 1.8 2.4c.09 1.33-.84 2.54-2.55 3.18a.75.75 0 0 1-.53-1.4c1.33-.5 1.61-1.23 1.58-1.68-.03-.3-.2-.65-.56-.92-.06.25-.13.52-.23.83a3.2 3.2 0 0 1-1.52 1.8.75.75 0 0 1-1.27.49c-.52.1-1.09.1-1.6-.07a2 2 0 0 1-1.3-1.3c-.42-1.31.37-2.43 1.4-3.05.2-.12.42-.22.65-.31 0-.28.03-.55.05-.84a15.8 15.8 0 0 1-1-.08.75.75 0 0 1 .16-1.5c.34.04.69.07 1.04.09l.14-.7c.08-.4.48-.66.89-.57ZM9.7 8.5c-.66.41-.8.9-.69 1.27.06.17.16.28.35.34.16.05.38.07.64.05-.13-.58-.23-1.12-.3-1.66Zm1.7 1.03c.21-.2.37-.42.44-.64l.23-.87a4.46 4.46 0 0 0-.9 0c.04.5.12.99.23 1.5ZM4.7 6.05a2.5 2.5 0 0 0-1.58.16.75.75 0 0 1-.73-1.31 3.97 3.97 0 0 1 2.67-.31A2.38 2.38 0 0 1 7 7v4a.75.75 0 0 1-1.48.18 3.6 3.6 0 0 1-2.51.19 2.3 2.3 0 0 1-1.5-1.72 2.6 2.6 0 0 1 .11-1.58c.24-.54.69-.94 1.29-1.24.37-.19.8-.26 1.17-.29a6.63 6.63 0 0 1 1.35.05.72.72 0 0 0-.14-.23 1.15 1.15 0 0 0-.6-.31Zm.8 2.07a7.98 7.98 0 0 0-1.3-.08c-.28.02-.48.07-.6.13-.4.2-.54.38-.6.5-.05.14-.08.34 0 .68.04.22.2.5.52.6.3.11.91.14 1.98-.4V8.12Z"/></svg>