<svg width="24" height="24" viewBox="0 0 24 24" xmlns="http://www.w3.org/2000/svg"><path d="M2 7.25C2 5.45 3.46 4 5.25 4h13.5C20.55 4 22 5.46 22 7.25v9.5c0 1.8-1.46 3.25-3.25 3.25H5.25A3.25 3.25 0 0 1 2 16.75v-9.5Zm8 11.25h8.75c.97 0 1.75-.78 1.75-1.75v-9.5c0-.97-.78-1.75-1.75-1.75H10v13Zm-5.25-10c0 .41.34.75.75.75h1.25a.75.75 0 0 0 0-1.5H5.5a.75.75 0 0 0-.75.75Zm0 3.5c0 .41.34.75.75.75h1.25a.75.75 0 0 0 0-1.5H5.5a.75.75 0 0 0-.75.75Zm.75 2.75a.75.75 0 0 0 0 1.5h1.25a.75.75 0 0 0 0-1.5H5.5Z"/></svg>