<svg width="24" height="24" viewBox="0 0 24 24" xmlns="http://www.w3.org/2000/svg"><path d="M4.75 8.5c0-.41.34-.75.75-.75h1.25a.75.75 0 0 1 0 1.5H5.5a.75.75 0 0 1-.75-.75Zm0 3.5c0-.41.34-.75.75-.75h1.25a.75.75 0 0 1 0 1.5H5.5a.75.75 0 0 1-.75-.75Zm0 3.5c0-.41.34-.75.75-.75h1.25a.75.75 0 0 1 0 1.5H5.5a.75.75 0 0 1-.75-.75ZM5.25 4A3.25 3.25 0 0 0 2 7.25v9.5C2 18.55 3.46 20 5.25 20h13.5c1.8 0 3.25-1.46 3.25-3.25v-9.5C22 5.45 20.54 4 18.75 4H5.25Zm13.5 14.5H10v-13h8.75c.97 0 1.75.78 1.75 1.75v9.5c0 .97-.78 1.75-1.75 1.75Zm-13.5-13H8.5v13H5.25c-.97 0-1.75-.78-1.75-1.75v-9.5c0-.97.78-1.75 1.75-1.75Z"/></svg>