<svg width="28" height="28" viewBox="0 0 28 28" xmlns="http://www.w3.org/2000/svg"><path d="M5.75 4A3.75 3.75 0 0 0 2 7.75v11.5A3.75 3.75 0 0 0 5.75 23h16.5A3.75 3.75 0 0 0 26 19.25V7.75A3.75 3.75 0 0 0 22.25 4H5.75ZM11 21.5v-16h11.25c1.24 0 2.25 1 2.25 2.25v11.5c0 1.24-1 2.25-2.25 2.25H11Zm-6-13c0-.41.34-.75.75-.75h1.5a.75.75 0 0 1 0 1.5h-1.5A.75.75 0 0 1 5 8.5Zm0 5c0-.41.34-.75.75-.75h1.5a.75.75 0 0 1 0 1.5h-1.5A.75.75 0 0 1 5 13.5Zm.75 4.25h1.5a.75.75 0 0 1 0 1.5h-1.5a.75.75 0 0 1 0-1.5Z"/></svg>