<svg width="48" height="48" viewBox="0 0 48 48" xmlns="http://www.w3.org/2000/svg"><path d="M10.25 7A6.25 6.25 0 0 0 4 13.25v21.5C4 38.2 6.8 41 10.25 41h27.5C41.2 41 44 38.2 44 34.75v-21.5C44 9.8 41.2 7 37.75 7h-27.5ZM19 9.5h18.75a3.75 3.75 0 0 1 3.75 3.75v21.5a3.75 3.75 0 0 1-3.75 3.75H19v-29ZM8.5 15c0-.69.56-1.25 1.25-1.25h3.5a1.25 1.25 0 1 1 0 2.5h-3.5c-.69 0-1.25-.56-1.25-1.25Zm0 9c0-.69.56-1.25 1.25-1.25h3.5a1.25 1.25 0 1 1 0 2.5h-3.5c-.69 0-1.25-.56-1.25-1.25Zm1.25 7.75h3.5a1.25 1.25 0 1 1 0 2.5h-3.5a1.25 1.25 0 1 1 0-2.5Z"/></svg>