<svg width="48" height="48" viewBox="0 0 48 48" xmlns="http://www.w3.org/2000/svg"><path d="M8.5 15c0-.69.56-1.25 1.25-1.25h3.5a1.25 1.25 0 1 1 0 2.5h-3.5c-.69 0-1.25-.56-1.25-1.25Zm0 9c0-.69.56-1.25 1.25-1.25h3.5a1.25 1.25 0 1 1 0 2.5h-3.5c-.69 0-1.25-.56-1.25-1.25Zm0 9c0-.69.56-1.25 1.25-1.25h3.5a1.25 1.25 0 1 1 0 2.5h-3.5c-.69 0-1.25-.56-1.25-1.25ZM4 13.25C4 9.8 6.8 7 10.25 7h27.5C41.2 7 44 9.8 44 13.25v21.5C44 38.2 41.2 41 37.75 41h-27.5A6.25 6.25 0 0 1 4 34.75v-21.5Zm6.25-3.75a3.75 3.75 0 0 0-3.75 3.75v21.5a3.75 3.75 0 0 0 3.75 3.75h6.25v-29h-6.25Zm27.5 0H19v29h18.75a3.75 3.75 0 0 0 3.75-3.75v-21.5a3.75 3.75 0 0 0-3.75-3.75Z"/></svg>