<svg width="20" height="20" viewBox="0 0 20 20" xmlns="http://www.w3.org/2000/svg"><path d="m8.07 3.3 1.32.99-1.96 2.05a.5.5 0 0 1-.36.16H2v-1A2.5 2.5 0 0 1 4.5 3h2.67c.32 0 .64.1.9.3Zm.09 3.73c-.29.3-.68.47-1.09.47H2v7A2.5 2.5 0 0 0 4.5 17h5.1a5.5 5.5 0 0 1 8.4-6.74V6.84a2.5 2.5 0 0 0-2.5-2.34h-4.94l-2.4 2.53ZM14.5 19a4.5 4.5 0 1 1 0-9 4.5 4.5 0 0 1 0 9Zm-2.35-4.85a.5.5 0 0 0-.15.35.5.5 0 0 0 .15.35l2 2a.5.5 0 0 0 .7-.7L13.71 15h2.79a.5.5 0 0 0 0-1h-2.8l1.15-1.15a.5.5 0 0 0-.7-.7l-2 2Z"/></svg>