<svg width="24" height="24" viewBox="0 0 24 24" xmlns="http://www.w3.org/2000/svg"><path d="M9.5 4.4c-.38-.26-.83-.4-1.3-.4H4.1A2.25 2.25 0 002 6.26V17.9A2.25 2.25 0 004.26 20h7.77c-.3-.46-.53-.97-.7-1.5H4.14a.75.75 0 01-.65-.75V10.5h4.9c.46-.05.9-.23 1.25-.52L12.02 8h7.83c.37.06.65.37.65.75v1.98c.55.29 1.06.65 1.5 1.08V8.6l-.02-.16a2.25 2.25 0 00-2.23-1.94h-7.73L9.65 4.52l-.16-.12zM4.24 5.5h4.06c.14.03.27.08.38.17l1.89 1.58-1.9 1.58-.08.06a.75.75 0 01-.4.11H3.5V6.15a.75.75 0 01.75-.65zM17.5 22a5.5 5.5 0 110-11 5.5 5.5 0 010 11zm3-5a.5.5 0 000-1h-4.8l1.65-1.65a.5.5 0 00-.7-.7l-2.5 2.5a.5.5 0 000 .7l2.5 2.5a.5.5 0 00.7-.7L15.71 17h4.79z"/></svg>