<svg width="24" height="24" viewBox="0 0 24 24" xmlns="http://www.w3.org/2000/svg"><path d="M21.98 8.44a2.25 2.25 0 00-2.23-1.94h-5.93L9.65 9.98l-.16.12c-.32.22-.7.36-1.09.4H2v7.4A2.25 2.25 0 004.26 20h7.77A6.5 6.5 0 0122 11.8V8.61l-.02-.16zM9.49 4.4c-.37-.26-.82-.4-1.28-.4H4.1A2.25 2.25 0 002 6.26V9H8.31c.1-.02.2-.06.3-.11l.08-.06 3.06-2.56-2.1-1.75-.16-.12zM17.5 22a5.5 5.5 0 110-11 5.5 5.5 0 010 11zm3-5a.5.5 0 000-1h-4.8l1.65-1.65a.5.5 0 00-.7-.7l-2.5 2.5a.5.5 0 000 .7l2.5 2.5a.5.5 0 00.7-.7L15.71 17h4.79z"/></svg>