<svg width="32" height="32" viewBox="0 0 32 32" xmlns="http://www.w3.org/2000/svg"><path d="M3 7.5A4.5 4.5 0 017.5 3h17A4.5 4.5 0 0129 7.5V16a5 5 0 00-7-1h-7a1 1 0 100 2h5.42a4.98 4.98 0 00-.2 3.5H15a1 1 0 100 2h6.42a3.93 3.93 0 00-3.92 3.94c0 .88.23 1.77.71 2.56H7.5A4.5 4.5 0 013 24.5v-17zm7.5 4.5a1.5 1.5 0 100-3 1.5 1.5 0 000 3zM15 9.5a1 1 0 100 2h7a1 1 0 100-2h-7zM12 16a1.5 1.5 0 10-3 0 1.5 1.5 0 003 0zm-1.5 7a1.5 1.5 0 100-3 1.5 1.5 0 000 3zm18-4a3.5 3.5 0 11-7 0 3.5 3.5 0 017 0zm2.5 7.44c0 2.02-1.71 4.06-6 4.06s-6-2.03-6-4.06A2.43 2.43 0 0121.42 24h7.16c1.34 0 2.42 1.1 2.42 2.44z"/></svg>