<svg width="32" height="32" viewBox="0 0 32 32" xmlns="http://www.w3.org/2000/svg"><path d="M3 7.5A4.5 4.5 0 017.5 3h17A4.5 4.5 0 0129 7.5V16a5.02 5.02 0 00-2-1.58V7.5A2.5 2.5 0 0024.5 5h-17A2.5 2.5 0 005 7.5v17A2.5 2.5 0 007.5 27h10.03c.08.7.3 1.38.68 2H7.5A4.5 4.5 0 013 24.5v-17zm18.43 15a5 5 0 01-1.2-2H15a1 1 0 100 2h6.43zM22 15a5.02 5.02 0 00-1.58 2H15a1 1 0 110-2h7zm-10-4.5a1.5 1.5 0 11-3 0 1.5 1.5 0 013 0zm0 11a1.5 1.5 0 11-3 0 1.5 1.5 0 013 0zm-1.5-4a1.5 1.5 0 100-3 1.5 1.5 0 000 3zm3.5-7a1 1 0 011-1h7a1 1 0 110 2h-7a1 1 0 01-1-1zM28.5 19a3.5 3.5 0 11-7 0 3.5 3.5 0 017 0zm2.5 7.44c0 2.02-1.71 4.06-6 4.06s-6-2.03-6-4.06A2.43 2.43 0 0121.42 24h7.16c1.34 0 2.42 1.1 2.42 2.44z"/></svg>