<svg width="16" height="16" viewBox="0 0 16 16" xmlns="http://www.w3.org/2000/svg"><path d="M4.5 2c.28 0 .5.22.5.5V4h1.5a.5.5 0 0 1 0 1H5v1.5a.5.5 0 0 1-1 0V5H2.5a.5.5 0 0 1 0-1H4V2.5c0-.28.22-.5.5-.5Zm5 2a.5.5 0 0 0 0 1h4a.5.5 0 0 0 0-1h-4Zm-4.3 7.5 1.65-1.65a.5.5 0 1 0-.7-.7L4.5 10.79 2.85 9.15a.5.5 0 1 0-.7.7l1.64 1.65-1.64 1.65a.5.5 0 0 0 .7.7l1.65-1.64 1.65 1.64a.5.5 0 0 0 .7-.7L5.21 11.5Zm6.3-1.5a1 1 0 1 0 0-2 1 1 0 0 0 0 2Zm-2 .5a.5.5 0 0 0 0 1h4a.5.5 0 0 0 0-1h-4Zm3 2.5a1 1 0 1 1-2 0 1 1 0 0 1 2 0Z"/></svg>