<svg width="24" height="24" viewBox="0 0 24 24" xmlns="http://www.w3.org/2000/svg"><path d="M6.5 1.5a1 1 0 0 1 1 1V5H10a1 1 0 0 1 0 2H7.5v2.5a1 1 0 1 1-2 0V7H3a1 1 0 0 1 0-2h2.5V2.5a1 1 0 0 1 1-1ZM14 5a1 1 0 0 0 0 2h7a1 1 0 1 0 0-2h-7Zm-1 12.5a1 1 0 0 1 1-1h7a1 1 0 1 1 0 2h-7a1 1 0 0 1-1-1Zm4.5-2a1.25 1.25 0 1 0 0-2.5 1.25 1.25 0 0 0 0 2.5Zm1.25 5.25a1.25 1.25 0 1 1-2.5 0 1.25 1.25 0 0 1 2.5 0ZM2.29 13.29a1 1 0 0 1 1.42 0l2.79 2.8 2.8-2.8a1 1 0 0 1 1.4 1.42L7.92 17.5l2.8 2.8a1 1 0 0 1-1.42 1.4L6.5 18.92l-2.8 2.8a1 1 0 0 1-1.4-1.42l2.79-2.79-2.8-2.8a1 1 0 0 1 0-1.4Z"/></svg>