<svg width="32" height="32" viewBox="0 0 32 32" xmlns="http://www.w3.org/2000/svg"><path d="M8 1.75c.69 0 1.25.56 1.25 1.25v3.5h3.5a1.25 1.25 0 1 1 0 2.5h-3.5v4a1.25 1.25 0 1 1-2.5 0V9h-3.5a1.25 1.25 0 1 1 0-2.5h3.5V3c0-.69.56-1.25 1.25-1.25Zm5.63 25.12L9.77 23l3.86-3.87a1.25 1.25 0 0 0-1.76-1.76L8 21.23l-3.87-3.86a1.25 1.25 0 0 0-1.76 1.76L6.23 23l-3.86 3.87a1.25 1.25 0 0 0 1.76 1.76L8 24.77l3.87 3.86a1.25 1.25 0 0 0 1.76-1.76ZM19.25 6.5a1.25 1.25 0 1 0 0 2.5h9.5a1.25 1.25 0 1 0 0-2.5h-9.5Zm0 15a1.25 1.25 0 1 0 0 2.5h9.5a1.25 1.25 0 1 0 0-2.5h-9.5Zm6.75-3a2 2 0 1 1-4 0 2 2 0 0 1 4 0ZM24 29a2 2 0 1 0 0-4 2 2 0 0 0 0 4Z"/></svg>