<svg width="28" height="28" viewBox="0 0 28 28" xmlns="http://www.w3.org/2000/svg"><path d="M8.5 2.5a1 1 0 1 0-2 0V6H3a1 1 0 0 0 0 2h3.5v3.5a1 1 0 1 0 2 0V8H12a1 1 0 1 0 0-2H8.5V2.5ZM16 6a1 1 0 1 0 0 2h9a1 1 0 1 0 0-2h-9Zm0 13a1 1 0 1 0 0 2h9a1 1 0 1 0 0-2h-9Zm4.75-1a1.5 1.5 0 1 0 0-3 1.5 1.5 0 0 0 0 3Zm1.5 5.5a1.5 1.5 0 1 1-3 0 1.5 1.5 0 0 1 3 0ZM2.29 15.3a1 1 0 0 1 1.42 0l3.79 3.79 3.8-3.8a1 1 0 1 1 1.4 1.42L8.92 20.5l3.8 3.8a1 1 0 0 1-1.42 1.4L7.5 21.92l-3.8 3.8a1 1 0 0 1-1.4-1.42l3.79-3.79-3.8-3.8a1 1 0 0 1 0-1.4Z"/></svg>