<svg width="24" height="24" viewBox="0 0 24 24" xmlns="http://www.w3.org/2000/svg"><path d="M17.35 6.16a.5.5 0 0 1 .07.08L19 7.82V6.5a2 2 0 0 0-.59-1.42L16.7 3.4A4.75 4.75 0 0 0 13.35 2H7a2 2 0 0 0-2 2v.13c.57-.4 1.26-.63 2-.63h6.35c.86 0 1.68.34 2.29.95l1.71 1.7ZM2.75 15c.41 0 .75.34.75.75v1.75a3 3 0 0 0 3 3h11a3 3 0 0 0 3-3v-1.75a.75.75 0 0 1 1.5 0v1.75a4.5 4.5 0 0 1-4.5 4.5h-11A4.5 4.5 0 0 1 2 17.5v-1.75c0-.41.34-.75.75-.75Zm6-7a.75.75 0 0 0 0 1.5h1.5a.75.75 0 0 0 0-1.5h-1.5ZM8 11.75c0-.41.34-.75.75-.75h1.5a.75.75 0 0 1 0 1.5h-1.5a.75.75 0 0 1-.75-.75ZM8.75 14a.75.75 0 0 0 0 1.5h1.5a.75.75 0 0 0 0-1.5h-1.5ZM7 5a2 2 0 0 0-2 2v10c0 1.1.9 2 2 2h10a2 2 0 0 0 2-2v-6.23a2 2 0 0 0-.59-1.42L14.65 5.6A2 2 0 0 0 13.23 5H7Zm-.5 2c0-.28.22-.5.5-.5h5.5v3.25c0 .97.78 1.75 1.75 1.75h3.25V17a.5.5 0 0 1-.5.5H7a.5.5 0 0 1-.5-.5V7ZM14 9.75V7.06L16.94 10h-2.69a.25.25 0 0 1-.25-.25Z"/></svg>