<svg width="24" height="24" viewBox="0 0 24 24" xmlns="http://www.w3.org/2000/svg"><path d="M17.35 6.16a.5.5 0 0 1 .07.08L19 7.82V6.5a2 2 0 0 0-.59-1.42L16.7 3.4A4.75 4.75 0 0 0 13.35 2H7a2 2 0 0 0-2 2v.13c.57-.4 1.26-.63 2-.63h6.35c.86 0 1.68.34 2.29.95l1.71 1.7ZM2.75 15c.41 0 .75.34.75.75v1.75a3 3 0 0 0 3 3h11a3 3 0 0 0 3-3v-1.75a.75.75 0 0 1 1.5 0v1.75a4.5 4.5 0 0 1-4.5 4.5h-11A4.5 4.5 0 0 1 2 17.5v-1.75c0-.41.34-.75.75-.75ZM12.5 5v4.75c0 .97.78 1.75 1.75 1.75H19V17a2 2 0 0 1-2 2H7a2 2 0 0 1-2-2V7c0-1.1.9-2 2-2h5.5ZM8 8.75c0 .41.34.75.75.75h1.5a.75.75 0 0 0 0-1.5h-1.5a.75.75 0 0 0-.75.75ZM8.75 11a.75.75 0 0 0 0 1.5h1.5a.75.75 0 0 0 0-1.5h-1.5ZM8 14.75c0 .41.34.75.75.75h1.5a.75.75 0 0 0 0-1.5h-1.5a.75.75 0 0 0-.75.75ZM14 5v4.75c0 .14.11.25.25.25H19l-5-5Z"/></svg>