<svg width="24" height="24" viewBox="0 0 24 24" xmlns="http://www.w3.org/2000/svg"><path d="M3 6.25C3 4.45 4.46 3 6.25 3h11.5C19.55 3 21 4.46 21 6.25v11.5c0 1.8-1.46 3.25-3.25 3.25H6.25A3.25 3.25 0 013 17.75V6.25zM6.25 4.5c-.97 0-1.75.78-1.75 1.75v11.5c0 .97.78 1.75 1.75 1.75h11.5c.97 0 1.75-.78 1.75-1.75V6.25c0-.97-.78-1.75-1.75-1.75H6.25zM6 8.25c0-.97.78-1.75 1.75-1.75h8.5c.97 0 1.75.78 1.75 1.75v1.5c0 .97-.78 1.75-1.75 1.75h-8.5C6.78 11.5 6 10.72 6 9.75v-1.5zM7.75 8a.25.25 0 00-.25.25v1.5c0 .14.11.25.25.25h8.5c.14 0 .25-.11.25-.25v-1.5a.25.25 0 00-.25-.25h-8.5zm-1 5a.75.75 0 000 1.5h4.5a.75.75 0 000-1.5h-4.5zM6 16.75c0-.41.34-.75.75-.75h4.5a.75.75 0 010 1.5h-4.5a.75.75 0 01-.75-.75zM15.25 13c-.97 0-1.75.78-1.75 1.75v1c0 .97.78 1.75 1.75 1.75h1c.97 0 1.75-.78 1.75-1.75v-1c0-.97-.78-1.75-1.75-1.75h-1zM15 14.75c0-.14.11-.25.25-.25h1c.14 0 .25.11.25.25v1c0 .14-.11.25-.25.25h-1a.25.25 0 01-.25-.25v-1z"/></svg>