<svg width="28" height="28" viewBox="0 0 28 28" xmlns="http://www.w3.org/2000/svg"><path d="M6.75 3A3.75 3.75 0 003 6.75v14.5A3.75 3.75 0 006.75 25h14.5A3.75 3.75 0 0025 21.25V6.75A3.75 3.75 0 0021.25 3H6.75zM4.5 6.75c0-1.24 1-2.25 2.25-2.25h14.5c1.24 0 2.25 1 2.25 2.25v14.5c0 1.24-1 2.25-2.25 2.25H6.75c-1.24 0-2.25-1-2.25-2.25V6.75zM6 9c0-1.1.9-2 2-2h12a2 2 0 012 2v2a2 2 0 01-2 2H8a2 2 0 01-2-2V9zm2-.5a.5.5 0 00-.5.5v2c0 .28.22.5.5.5h12a.5.5 0 00.5-.5V9a.5.5 0 00-.5-.5H8zm-2 7.25c0-.41.34-.75.75-.75h5.5a.75.75 0 010 1.5h-5.5a.75.75 0 01-.75-.75zm.75 3a.75.75 0 000 1.5h5.5a.75.75 0 000-1.5h-5.5zm8.75-2.5c0-.97.78-1.75 1.75-1.75h3c.97 0 1.75.78 1.75 1.75v3c0 .97-.78 1.75-1.75 1.75h-3c-.97 0-1.75-.78-1.75-1.75v-3zm1.75-.25a.25.25 0 00-.25.25v3c0 .14.11.25.25.25h3c.14 0 .25-.11.25-.25v-3a.25.25 0 00-.25-.25h-3z"/></svg>