<svg width="16" height="16" viewBox="0 0 16 16" xmlns="http://www.w3.org/2000/svg"><path d="M3.5 3A2.5 2.5 0 0 0 1 5.5v5A2.5 2.5 0 0 0 3.5 13h9a2.5 2.5 0 0 0 2.5-2.5v-5A2.5 2.5 0 0 0 12.5 3h-9Zm5.68 2.7a1.8 1.8 0 0 1 2.07.35.5.5 0 0 1-.7.7.8.8 0 0 0-.93-.15C9.34 6.74 9 7.14 9 8c0 .86.34 1.26.62 1.4.3.15.68.1.93-.15a.5.5 0 0 1 .7.7 1.8 1.8 0 0 1-2.07.35C8.46 9.94 8 9.14 8 8s.46-1.94 1.18-2.3Zm-1.93.35a.5.5 0 0 1-.7.7.8.8 0 0 0-.93-.15C5.34 6.74 5 7.14 5 8c0 .86.34 1.26.62 1.4.3.15.68.1.93-.15a.5.5 0 1 1 .7.7 1.8 1.8 0 0 1-2.07.35C4.46 9.94 4 9.14 4 8s.46-1.94 1.18-2.3a1.8 1.8 0 0 1 2.07.35Z"/></svg>