<svg width="24" height="24" viewBox="0 0 24 24" xmlns="http://www.w3.org/2000/svg"><path d="M11 2.75a.75.75 0 00-.75-.75h-5A3.25 3.25 0 002 5.25v5a.75.75 0 001.5 0v-5c0-.97.78-1.75 1.75-1.75h5c.41 0 .75-.34.75-.75zM13.75 2a.75.75 0 000 1.5h5c.97 0 1.75.78 1.75 1.75v5a.75.75 0 001.5 0v-5C22 3.45 20.54 2 18.75 2h-5zm0 20a.75.75 0 010-1.5h5c.97 0 1.75-.78 1.75-1.75v-5a.75.75 0 011.5 0v5c0 1.8-1.46 3.25-3.25 3.25h-5zM4 12a3 3 0 00-3 3v5c0 .56.15 1.08.42 1.52l3.49-3.49c.88-.88 2.3-.88 3.18 0l3.5 3.5c.26-.45.41-.97.41-1.53v-5a3 3 0 00-3-3H4zm0 11c-.56 0-1.08-.15-1.52-.42l3.49-3.49c.3-.3.77-.3 1.06 0l3.5 3.5c-.45.26-.97.41-1.53.41H4zm5-7a1 1 0 110-2 1 1 0 010 2z"/></svg>