<svg width="24" height="24" viewBox="0 0 24 24" xmlns="http://www.w3.org/2000/svg"><path d="M11 3a1 1 0 00-1-1H5.25A3.25 3.25 0 002 5.25V10a1 1 0 102 0V5.25C4 4.56 4.56 4 5.25 4H10a1 1 0 001-1zm3-1a1 1 0 100 2h4.75c.69 0 1.25.56 1.25 1.25V10a1 1 0 102 0V5.25C22 3.45 20.54 2 18.75 2H14zm0 20a1 1 0 110-2h4.75c.69 0 1.25-.56 1.25-1.25V14a1 1 0 112 0v4.75c0 1.8-1.46 3.25-3.25 3.25H14zM4 12a3 3 0 00-3 3v5c0 .56.15 1.08.42 1.52l3.49-3.49c.88-.88 2.3-.88 3.18 0l3.5 3.5c.26-.45.41-.97.41-1.53v-5a3 3 0 00-3-3H4zm0 11c-.56 0-1.08-.15-1.52-.42l3.49-3.49c.3-.3.77-.3 1.06 0l3.5 3.5c-.45.26-.97.41-1.53.41H4zm5-7a1 1 0 110-2 1 1 0 010 2z"/></svg>