<svg width="20" height="20" viewBox="0 0 20 20" xmlns="http://www.w3.org/2000/svg"><path d="M5 2a3 3 0 0 0-3 3v3.5a.5.5 0 0 0 1 0V5c0-1.1.9-2 2-2h3.5a.5.5 0 0 0 0-1H5Zm6.5 0a.5.5 0 0 0 0 1H15a2 2 0 0 1 2 2v3.5a.5.5 0 0 0 1 0V5a3 3 0 0 0-3-3h-3.5Zm6.5 9.5a.5.5 0 0 0-1 0V15a2 2 0 0 1-2 2h-3.5a.5.5 0 0 0 0 1H15a3 3 0 0 0 3-3v-3.5Zm-17 1A2.5 2.5 0 0 1 3.5 10h4a2.5 2.5 0 0 1 2.5 2.5v4c0 .5-.15.98-.41 1.38l-3.03-3.03a1.5 1.5 0 0 0-2.12 0L1.4 17.88C1.15 17.48 1 17 1 16.5v-4Zm7 .25a.75.75 0 1 0-1.5 0 .75.75 0 0 0 1.5 0Zm-5.88 5.84c.4.26.87.41 1.38.41h4c.51 0 .98-.15 1.38-.41l-3.03-3.03a.5.5 0 0 0-.7 0L2.12 18.6Z"/></svg>