<svg width="16" height="16" viewBox="0 0 16 16" xmlns="http://www.w3.org/2000/svg"><path d="M8.8 2.1a.9.9 0 0 0-1.6 0L5.66 5.18l-3.4.5a.9.9 0 0 0-.5 1.53l2.46 2.4L3.65 13a.9.9 0 0 0 1.3.95l.92-.48a5.49 5.49 0 0 1-.46-.89l-.74.39.35-2.02a5.58 5.58 0 0 1 .14-1.76.9.9 0 0 0-.19-.26l-2.35-2.3 3.25-.46a.9.9 0 0 0 .68-.5L8 2.73l1.2 2.43A5.5 5.5 0 0 1 10.24 5L8.81 2.1Zm6.2 8.4a4.5 4.5 0 1 1-9 0 4.5 4.5 0 0 1 9 0Zm-2.15-1.85a.5.5 0 0 0-.7 0L9.5 11.29l-.65-.64a.5.5 0 0 0-.7.7l1 1c.2.2.5.2.7 0l3-3a.5.5 0 0 0 0-.7Z"/></svg>