<svg width="24" height="24" viewBox="0 0 24 24" xmlns="http://www.w3.org/2000/svg"><path d="M13.2 3.1c-.49-1-1.92-1-2.41 0L8.43 7.88l-5.27.77a1.35 1.35 0 0 0-.75 2.3l3.81 3.72-.9 5.25a1.35 1.35 0 0 0 1.96 1.42l3.96-2.08A6.5 6.5 0 0 1 11 17.7l-4.15 2.18.87-5.03c.07-.43-.07-.88-.4-1.2L3.68 10.1l5.05-.74c.44-.06.82-.34 1.02-.73L12 4.04l2.26 4.58c.2.4.57.67 1.01.73l5.05.74-1.15 1.13c.53.14 1.04.35 1.51.61l.9-.88c.8-.78.37-2.14-.74-2.3l-5.27-.77L13.2 3.1ZM23 17.5a5.5 5.5 0 1 1-11 0 5.5 5.5 0 0 1 11 0Zm-2.15-2.35a.5.5 0 0 0-.7 0l-3.65 3.64-1.65-1.64a.5.5 0 0 0-.7.7l2 2c.2.2.5.2.7 0l4-4a.5.5 0 0 0 0-.7Z"/></svg>