<svg width="28" height="28" viewBox="0 0 28 28" xmlns="http://www.w3.org/2000/svg"><path d="M15.3 3.9a1.45 1.45 0 0 0-2.6 0l-2.69 5.46-6.02.87a1.45 1.45 0 0 0-.8 2.48l4.35 4.24-1.02 6a1.45 1.45 0 0 0 2.1 1.52l4.55-2.39A7.53 7.53 0 0 1 13 20.5v-.02L8.01 23.1l1.02-5.92c.08-.47-.08-.95-.42-1.28l-4.3-4.2 5.94-.86c.47-.07.88-.36 1.1-.8L14 4.67l2.66 5.39c.21.43.62.72 1.1.8l5.93.85-1.52 1.49c.56.12 1.09.31 1.58.55l1.06-1.03c.86-.84.39-2.3-.8-2.48l-6.02-.87-2.69-5.45ZM27 20.5a6.5 6.5 0 1 1-13 0 6.5 6.5 0 0 1 13 0Zm-2.65-2.85a.5.5 0 0 0-.7 0L19 22.29l-1.65-1.64a.5.5 0 0 0-.7.7l2 2c.2.2.5.2.7 0l5-5a.5.5 0 0 0 0-.7Z"/></svg>