<svg width="28" height="28" viewBox="0 0 28 28" xmlns="http://www.w3.org/2000/svg"><path d="M18.17 6.83a3.16 3.16 0 01.76 1.24l.5 1.53a.6.6 0 001.14 0l.5-1.53a3.15 3.15 0 012-2l1.53-.5a.6.6 0 000-1.14h-.03l-1.54-.5a3.15 3.15 0 01-2-2L20.55.4a.6.6 0 00-1.14 0l-.5 1.53-.01.04a3.15 3.15 0 01-1.96 1.96l-1.53.5a.6.6 0 000 1.14l1.53.5c.47.15.9.41 1.24.76zm8.65 3.53l.92.3h.02a.36.36 0 010 .68l-.92.3a1.9 1.9 0 00-1.2 1.2l-.3.92a.36.36 0 01-.68 0l-.3-.92a1.9 1.9 0 00-1.2-1.2l-.92-.3a.36.36 0 010-.68l.92-.3a1.9 1.9 0 001.18-1.2l.3-.92a.36.36 0 01.68 0l.3.92a1.89 1.89 0 001.2 1.2zM15.1 3.5l1.1-.36a.75.75 0 00-.44-.14h-3.5a.75.75 0 000 1.5h1.84a1.57 1.57 0 011-1zM11.5 24.25c0-.41.34-.75.75-.75h3.5a.75.75 0 010 1.5h-3.5a.75.75 0 01-.75-.75zM3 15.75a.75.75 0 001.5 0v-3.5a.75.75 0 00-1.5 0v3.5zm17 8.5c0 .41.34.75.75.75h.5A3.75 3.75 0 0025 21.25v-.5a.75.75 0 00-1.5 0v.5c0 1.24-1 2.25-2.25 2.25h-.5a.75.75 0 00-.75.75zM7.25 3a.75.75 0 010 1.5h-.5c-1.24 0-2.25 1-2.25 2.25v.5a.75.75 0 01-1.5 0v-.5A3.75 3.75 0 016.75 3h.5zM8 24.25c0 .41-.34.75-.75.75h-.5A3.75 3.75 0 013 21.25v-.5a.75.75 0 011.5 0v.5c0 1.24 1 2.25 2.25 2.25h.5c.41 0 .75.34.75.75z"/></svg>