<svg width="32" height="32" viewBox="0 0 32 32" xmlns="http://www.w3.org/2000/svg"><path d="M21.77 7.84a3.49 3.49 0 00-1.64-1.17l-1.69-.55a.67.67 0 010-1.25l1.69-.55a3.47 3.47 0 002.15-2.15l.01-.04.55-1.69a.66.66 0 011.25 0l.55 1.69a3.47 3.47 0 002.2 2.2l1.68.54h.04a.67.67 0 010 1.26l-1.69.55a3.47 3.47 0 00-2.2 2.2l-.54 1.68-.02.04a.66.66 0 01-1.24-.04l-.54-1.69a3.46 3.46 0 00-.56-1.03zm-3.25-4.58l-.52.18a2.17 2.17 0 00-1.5 2.06h-2.25a1.25 1.25 0 110-2.5h3.5c.29 0 .56.1.77.26zM14.25 26.5a1.25 1.25 0 100 2.5h3.5a1.25 1.25 0 100-2.5h-3.5zM3 17.75a1.25 1.25 0 102.5 0v-3.5a1.25 1.25 0 10-2.5 0v3.5zm6-13.5C9 3.56 8.44 3 7.75 3A4.75 4.75 0 003 7.75a1.25 1.25 0 102.5 0c0-1.24 1-2.25 2.25-2.25C8.44 5.5 9 4.94 9 4.25zM7.75 29a1.25 1.25 0 100-2.5c-1.24 0-2.25-1-2.25-2.25a1.25 1.25 0 10-2.5 0A4.75 4.75 0 007.75 29zm16.5 0a1.25 1.25 0 110-2.5c1.24 0 2.25-1 2.25-2.25a1.25 1.25 0 112.5 0A4.75 4.75 0 0124.25 29zm6.57-16.64l.92.3h.02a.36.36 0 010 .68l-.92.3a1.9 1.9 0 00-1.2 1.2l-.3.92a.36.36 0 01-.68 0l-.3-.92a1.9 1.9 0 00-1.2-1.2l-.92-.3a.36.36 0 010-.68l.92-.3a1.9 1.9 0 001.18-1.2l.3-.92a.36.36 0 01.68 0l.3.92a1.89 1.89 0 001.2 1.2z"/></svg>