<svg width="48" height="48" viewBox="0 0 48 48" xmlns="http://www.w3.org/2000/svg"><path d="M32.83 12.11a5.36 5.36 0 00-2.54-1.8l-2.6-.85a1.03 1.03 0 010-1.94l2.6-.84a5.36 5.36 0 003.32-3.33l.02-.06.85-2.6a1.03 1.03 0 011.94 0l.84 2.6a5.36 5.36 0 003.4 3.39l2.6.84.05.02a1.03 1.03 0 010 1.94l-2.6.84a5.36 5.36 0 00-3.4 3.4l-.84 2.6-.03.06a1.03 1.03 0 01-1.9-.07l-.86-2.6a5.35 5.35 0 00-.85-1.6zm14.78 6.87l-1.38-.44a2.84 2.84 0 01-1.8-1.8L44 15.36a.54.54 0 00-1.03 0l-.45 1.38a2.84 2.84 0 01-1.77 1.8l-1.38.44a.54.54 0 000 1.03l1.38.45c.15.05.3.11.44.18v.02a2.84 2.84 0 011.36 1.61l.45 1.38a.54.54 0 001 .04v-.01a.5.5 0 00.02-.04l.45-1.38a2.84 2.84 0 011.8-1.8l1.38-.44a.54.54 0 000-1.03h-.03zM25.56 6.77c.22-.3.49-.56.8-.77H21.5a1.5 1.5 0 000 3h3.53a3 3 0 01.53-2.23zM21.5 39a1.5 1.5 0 000 3h5a1.5 1.5 0 000-3h-5zm-14-19c.83 0 1.5.67 1.5 1.5v5a1.5 1.5 0 01-3 0v-5c0-.83.67-1.5 1.5-1.5zm5-14a1.5 1.5 0 010 3A3.5 3.5 0 009 12.5a1.5 1.5 0 01-3 0A6.5 6.5 0 0112.5 6zM14 40.5c0 .83-.67 1.5-1.5 1.5A6.5 6.5 0 016 35.5a1.5 1.5 0 013 0 3.5 3.5 0 003.5 3.5c.83 0 1.5.67 1.5 1.5zm20 0c0 .83.67 1.5 1.5 1.5a6.5 6.5 0 006.5-6.5 1.5 1.5 0 00-3 0 3.5 3.5 0 01-3.5 3.5c-.83 0-1.5.67-1.5 1.5z"/></svg>