<svg width="32" height="32" viewBox="0 0 32 32" xmlns="http://www.w3.org/2000/svg"><path d="M21.77 7.84a3.49 3.49 0 00-1.64-1.17l-1.69-.55a.67.67 0 010-1.25l1.69-.55a3.47 3.47 0 002.15-2.15l.01-.04.55-1.69a.66.66 0 011.25 0l.55 1.69a3.47 3.47 0 002.2 2.2l1.68.54h.04a.67.67 0 010 1.26l-1.69.55a3.47 3.47 0 00-2.2 2.2l-.54 1.68-.02.04a.66.66 0 01-1.24-.04l-.54-1.69a3.46 3.46 0 00-.56-1.03zm-3.14-4.62l-.63.22A2.17 2.17 0 0016.56 5H14a1 1 0 110-2h4a1 1 0 01.63.22zM14 27a1 1 0 100 2h4a1 1 0 100-2h-4zM4 19a1 1 0 01-1-1v-4a1 1 0 112 0v4a1 1 0 01-1 1zM9 4a1 1 0 00-1-1h-.25A4.75 4.75 0 003 7.75V8a1 1 0 002 0v-.25A2.75 2.75 0 017.75 5H8a1 1 0 001-1zM8 29a1 1 0 100-2h-.25A2.75 2.75 0 015 24.25V24a1 1 0 10-2 0v.25A4.75 4.75 0 007.75 29H8zm16 0a1 1 0 110-2h.25A2.75 2.75 0 0027 24.25V24a1 1 0 112 0v.25A4.75 4.75 0 0124.25 29H24zm6.82-16.64l.92.3h.02a.36.36 0 010 .68l-.92.3a1.9 1.9 0 00-1.2 1.2l-.3.92a.36.36 0 01-.68 0l-.3-.92a1.9 1.9 0 00-1.2-1.2l-.92-.3a.36.36 0 010-.68l.92-.3a1.9 1.9 0 001.18-1.2l.3-.92a.36.36 0 01.68 0l.3.92a1.89 1.89 0 001.2 1.2z"/></svg>