<svg width="24" height="24" viewBox="0 0 24 24" xmlns="http://www.w3.org/2000/svg"><path d="M16.09 6.41a2.84 2.84 0 0 0-1.35-.95L13.36 5a.54.54 0 0 1 0-1.03l1.38-.44a2.84 2.84 0 0 0 1.76-1.77l.01-.03.45-1.38a.54.54 0 0 1 1.03 0l.44 1.38a2.84 2.84 0 0 0 1.8 1.8l1.38.44.03.01a.54.54 0 0 1 0 1.03l-1.38.44a2.84 2.84 0 0 0-1.8 1.8l-.45 1.38a.54.54 0 0 1-1.03 0l-.44-1.38c-.1-.3-.25-.6-.45-.85Zm7.7 3.8-.77-.25a1.58 1.58 0 0 1-1-1l-.25-.76a.3.3 0 0 0-.57 0l-.25.77a1.58 1.58 0 0 1-.98 1l-.77.24a.3.3 0 0 0 0 .57l.77.25a1.58 1.58 0 0 1 1 1l.24.77a.3.3 0 0 0 .58 0l.24-.77a1.58 1.58 0 0 1 1-1l.77-.24a.3.3 0 0 0 0-.57h-.02ZM12.27 3.57c.2-.26.46-.46.76-.57H11a1 1 0 1 0 0 2h1.1a1.57 1.57 0 0 1 .18-1.43ZM4 10a1 1 0 0 1 1 1v2a1 1 0 1 1-2 0v-2a1 1 0 0 1 1-1Zm10 10a1 1 0 0 1-1 1h-2a1 1 0 1 1 0-2h2a1 1 0 0 1 1 1ZM6 3a1 1 0 0 1 0 2 1 1 0 0 0-1 1 1 1 0 0 1-2 0 3 3 0 0 1 3-3Zm0 18a1 1 0 1 0 0-2 1 1 0 0 1-1-1 1 1 0 1 0-2 0 3 3 0 0 0 3 3Zm11-1a1 1 0 0 0 1 1 3 3 0 0 0 3-3 1 1 0 1 0-2 0 1 1 0 0 1-1 1 1 1 0 0 0-1 1Z"/></svg>