<svg width="16" height="16" viewBox="0 0 16 16" xmlns="http://www.w3.org/2000/svg"><path d="M13.8 2.22h-.02l-.76-.26a1.58 1.58 0 0 1-1-1L11.77.2a.3.3 0 0 0-.57 0l-.25.77a1.58 1.58 0 0 1-.98 1l-.77.24a.3.3 0 0 0 0 .57l.77.25a1.58 1.58 0 0 1 1 1l.24.77a.3.3 0 0 0 .29.2.3.3 0 0 0 .29-.2l.24-.77a1.58 1.58 0 0 1 1-1l.77-.24a.3.3 0 0 0 0-.57Zm1.41 3.35.62.2a.24.24 0 0 1 0 .46l-.6.2a1.26 1.26 0 0 0-.8.8l-.2.6a.24.24 0 0 1-.46 0l-.2-.6a1.26 1.26 0 0 0-.8-.8l-.6-.2a.24.24 0 0 1 0-.46l.6-.2a1.26 1.26 0 0 0 .8-.8l.19-.6a.24.24 0 0 1 .46 0l.2.6a1.26 1.26 0 0 0 .8.8ZM8 2.5c0-.17.03-.34.1-.5H7a.5.5 0 0 0 0 1h1.1c-.07-.16-.1-.33-.1-.5ZM4.5 2a.5.5 0 0 1 0 1C3.67 3 3 3.67 3 4.5a.5.5 0 0 1-1 0A2.5 2.5 0 0 1 4.5 2Zm9 9c.28 0 .5.22.5.5a2.5 2.5 0 0 1-2.5 2.5.5.5 0 0 1 0-1c.83 0 1.5-.67 1.5-1.5 0-.28.22-.5.5-.5Zm-7 2.5c0-.28.22-.5.5-.5h2a.5.5 0 0 1 0 1H7a.5.5 0 0 1-.5-.5Zm-2-.5a.5.5 0 0 1 0 1A2.5 2.5 0 0 1 2 11.5a.5.5 0 0 1 1 0c0 .83.67 1.5 1.5 1.5Zm-2-3.5A.5.5 0 0 0 3 9V7a.5.5 0 0 0-1 0v2c0 .28.22.5.5.5Z"/></svg>