<svg width="28" height="28" viewBox="0 0 28 28" xmlns="http://www.w3.org/2000/svg"><path d="M18.17 6.83a3.16 3.16 0 01.76 1.24l.5 1.53a.6.6 0 001.14 0l.5-1.53a3.15 3.15 0 012-2l1.53-.5a.6.6 0 000-1.14h-.03l-1.54-.5a3.15 3.15 0 01-2-2L20.55.4a.6.6 0 00-1.14 0l-.5 1.53-.01.04a3.15 3.15 0 01-1.96 1.96l-1.53.5a.6.6 0 000 1.14l1.53.5c.47.15.9.41 1.24.76zm8.65 3.53l.92.3h.02a.36.36 0 010 .68l-.92.3a1.9 1.9 0 00-1.2 1.2l-.3.92a.36.36 0 01-.68 0l-.3-.92a1.9 1.9 0 00-1.2-1.2l-.92-.3a.36.36 0 010-.68l.92-.3a1.9 1.9 0 001.18-1.2l.3-.92a.36.36 0 01.68 0l.3.92a1.89 1.89 0 001.2 1.2zM15.1 3.5l.98-.32A1 1 0 0015.5 3h-3a1 1 0 100 2H14c0-.33.1-.65.3-.91.2-.28.47-.48.79-.6zM11.5 24a1 1 0 011-1h3a1 1 0 110 2h-3a1 1 0 01-1-1zM3 15.5a1 1 0 102 0v-3a1 1 0 10-2 0v3zM7 3a1 1 0 010 2h-.25C5.78 5 5 5.78 5 6.75V7a1 1 0 01-2 0v-.25A3.75 3.75 0 016.75 3H7zm1 21a1 1 0 01-1 1h-.25A3.75 3.75 0 013 21.25V21a1 1 0 112 0v.25c0 .97.78 1.75 1.75 1.75H7a1 1 0 011 1zm12 0a1 1 0 001 1h.25A3.75 3.75 0 0025 21.25V21a1 1 0 10-2 0v.25c0 .97-.78 1.75-1.75 1.75H21a1 1 0 00-1 1z"/></svg>