<svg width="16" height="16" viewBox="0 0 16 16" xmlns="http://www.w3.org/2000/svg"><path d="M13.8 2.22h-.02l-.76-.26a1.58 1.58 0 01-1-1L11.77.2a.3.3 0 00-.57 0l-.25.77a1.58 1.58 0 01-.98 1l-.77.24a.3.3 0 000 .57l.77.25a1.58 1.58 0 011 1l.24.77a.3.3 0 00.29.2.3.3 0 00.29-.2l.24-.77a1.58 1.58 0 011-1l.77-.24a.3.3 0 000-.57zm1.41 3.35l.62.2a.24.24 0 010 .46l-.6.2a1.26 1.26 0 00-.8.8l-.2.6a.24.24 0 01-.46 0l-.2-.6a1.26 1.26 0 00-.8-.8l-.6-.2a.24.24 0 010-.46l.6-.2a1.26 1.26 0 00.8-.8l.19-.6a.24.24 0 01.46 0l.2.6a1.26 1.26 0 00.8.8zM8 2.5c0-.17.03-.34.1-.5h-.85a.75.75 0 000 1.5h1.22a1.31 1.31 0 01-.47-1zM4.75 2a.75.75 0 010 1.5c-.69 0-1.25.56-1.25 1.25a.75.75 0 01-1.5 0A2.75 2.75 0 014.75 2zm8.5 8.5c.41 0 .75.34.75.75A2.75 2.75 0 0111.25 14a.75.75 0 010-1.5c.69 0 1.25-.56 1.25-1.25 0-.41.34-.75.75-.75zM6.5 13.25c0-.41.34-.75.75-.75h1.5a.75.75 0 010 1.5h-1.5a.75.75 0 01-.75-.75zm-1.75-.75a.75.75 0 010 1.5A2.75 2.75 0 012 11.25a.75.75 0 011.5 0c0 .69.56 1.25 1.25 1.25zm-2-3c.41 0 .75-.34.75-.75v-1.5a.75.75 0 00-1.5 0v1.5c0 .41.34.75.75.75z"/></svg>