<svg width="24" height="24" viewBox="0 0 24 24" xmlns="http://www.w3.org/2000/svg"><path d="M16.09 6.41a2.84 2.84 0 00-1.35-.95L13.36 5a.54.54 0 010-1.03l1.38-.44a2.84 2.84 0 001.76-1.77l.01-.03.45-1.38a.54.54 0 011.03 0l.44 1.38a2.84 2.84 0 001.8 1.8l1.38.44.03.01a.54.54 0 010 1.03l-1.38.44a2.84 2.84 0 00-1.8 1.8l-.45 1.38a.54.54 0 01-1.03 0l-.44-1.38c-.1-.3-.25-.6-.45-.85zm7.7 3.8l-.77-.25a1.58 1.58 0 01-1-1l-.25-.76a.3.3 0 00-.57 0l-.25.77a1.58 1.58 0 01-.98 1l-.77.24a.3.3 0 000 .57l.77.25a1.58 1.58 0 011 1l.24.77a.3.3 0 00.58 0l.24-.77a1.58 1.58 0 011-1l.77-.24a.3.3 0 000-.57h-.02zM12.27 3.57c.2-.26.46-.46.77-.57h-2.3a.75.75 0 000 1.5H12a1.6 1.6 0 01.28-.93zM3.75 10c.41 0 .75.34.75.75v2.5a.75.75 0 01-1.5 0v-2.5c0-.41.34-.75.75-.75zM14 20.25c0 .41-.34.75-.75.75h-2.5a.75.75 0 010-1.5h2.5c.41 0 .75.34.75.75zM6.25 3a.75.75 0 010 1.5h-.5c-.69 0-1.25.56-1.25 1.25v.5a.75.75 0 01-1.5 0v-.5A2.75 2.75 0 015.75 3h.5zm0 18a.75.75 0 000-1.5h-.5c-.69 0-1.25-.56-1.25-1.25v-.5a.75.75 0 00-1.5 0v.5A2.75 2.75 0 005.75 21h.5zM17 20.25c0 .41.34.75.75.75h.5A2.75 2.75 0 0021 18.25v-.5a.75.75 0 00-1.5 0v.5c0 .69-.56 1.25-1.25 1.25h-.5a.75.75 0 00-.75.75z"/></svg>