<svg width="16" height="16" viewBox="0 0 16 16" xmlns="http://www.w3.org/2000/svg"><path d="m13.02 13.72 1.13 1.13a.5.5 0 0 0 .7-.7l-13-13a.5.5 0 1 0-.7.7l1.13 1.13A2 2 0 0 0 2 4v1.5a.5.5 0 0 0 1 0V4a1 1 0 0 1 .03-.26L4.7 5.41A4.95 4.95 0 0 0 3.04 7.3v.01a.5.5 0 0 0 .92.38v-.01L4 7.62c.02-.06.07-.14.13-.24a3.73 3.73 0 0 1 1.3-1.24l.95.95a2.5 2.5 0 1 0 3.53 3.53l2.35 2.35A1 1 0 0 1 12 13h-1.5a.5.5 0 0 0 0 1H12a2 2 0 0 0 1.02-.28Zm-6.29-9.1.9.89L8 5.5a4.6 4.6 0 0 1 3.23 1.12 3.73 3.73 0 0 1 .8 1.06s.25.45.66.28a.5.5 0 0 0 .27-.65c-.1-.22 0 0 0 0V7.3a1.8 1.8 0 0 0-.06-.13c-.04-.08-.1-.2-.19-.33a4.73 4.73 0 0 0-.81-.96A5.6 5.6 0 0 0 8 4.5c-.46 0-.88.04-1.27.11ZM13 10.87l1 1V10.5a.5.5 0 0 0-1 0v.38ZM4.12 2l1 1h.38a.5.5 0 0 0 0-1H4.12ZM2 12c0 1.1.9 2 2 2h1.5a.5.5 0 0 0 0-1H4a1 1 0 0 1-1-1v-1.5a.5.5 0 0 0-1 0V12ZM12 2a2 2 0 0 1 2 2v1.5a.5.5 0 0 1-1 0V4a1 1 0 0 0-1-1h-1.5a.5.5 0 0 1 0-1H12Z"/></svg>