<svg width="16" height="16" viewBox="0 0 16 16" xmlns="http://www.w3.org/2000/svg"><path d="M4.5 2A2.5 2.5 0 002 4.5v6A2.5 2.5 0 004.5 13H5v-1h-.5A1.5 1.5 0 013 10.5v-6C3 3.67 3.67 3 4.5 3h6c.83 0 1.5.67 1.5 1.5V7h1V4.5A2.5 2.5 0 0010.5 2h-6zm3 6C6.67 8 6 8.67 6 9.5v4c0 .83.67 1.5 1.5 1.5h6c.83 0 1.5-.67 1.5-1.5v-4c0-.83-.67-1.5-1.5-1.5h-6zM7 9.5c0-.28.22-.5.5-.5h6c.28 0 .5.22.5.5v.48l-3.5 1.95L7 9.98V9.5zm0 1.63l3.26 1.8a.5.5 0 00.48 0l3.26-1.8v2.37a.5.5 0 01-.5.5h-6a.5.5 0 01-.5-.5v-2.37zM5 5a.5.5 0 000 1h5a.5.5 0 000-1H5z"/></svg>