<svg width="20" height="20" viewBox="0 0 20 20" xmlns="http://www.w3.org/2000/svg"><path d="M15.85 14.15c.2.2.2.5 0 .7l-2 2a.5.5 0 0 1-.7 0l-2-2a.5.5 0 0 1 .7-.7L13 15.29V13.5a.5.5 0 0 1 1 0v1.8l1.15-1.15c.2-.2.5-.2.7 0Zm-8 0c.2.2.2.5 0 .7l-2 2a.5.5 0 0 1-.7 0l-2-2a.5.5 0 0 1 .7-.7L5 15.29V3.5a.5.5 0 0 1 1 0v11.8l1.15-1.15c.2-.2.5-.2.7 0ZM18 9.5a.5.5 0 0 1-.5.5H14v1.5a.5.5 0 0 1-1 0V10H9.5a.5.5 0 0 1 0-1h8c.28 0 .5.22.5.5ZM16.5 3c.28 0 .5.22.5.5v4a.5.5 0 0 1-.5.5h-1.25c-1.05 0-2.35-.2-3.4-.88A4.04 4.04 0 0 1 10 3.5a.5.5 0 0 1 1 0c0 1.43.6 2.27 1.4 2.78.82.53 1.9.72 2.85.72H16V3.5c0-.28.22-.5.5-.5Z"/></svg>