<svg width="24" height="24" viewBox="0 0 24 24" xmlns="http://www.w3.org/2000/svg"><path d="M4.3 17.3a1 1 0 0 0 0 1.4l2 2a1 1 0 0 0 1.4 0l2-2a1 1 0 0 0-1.4-1.4l-.3.29V4a1 1 0 0 0-2 0v13.59l-.3-.3a1 1 0 0 0-1.4 0Zm9 1.4a1 1 0 0 1 1.4-1.4l.3.29V16a1 1 0 1 1 2 0v1.59l.3-.3a1 1 0 0 1 1.4 1.42l-2 2a1 1 0 0 1-1.4 0l-2-2ZM20 12a1 1 0 1 0 0-2h-9.25a1 1 0 1 0 0 2H15v1a1 1 0 1 0 2 0v-1h3Zm0-8a1 1 0 1 0-2 0v3h-.25c-.9 0-1.87-.18-2.59-.64C14.51 5.94 14 5.26 14 4a1 1 0 1 0-2 0c0 1.94.86 3.26 2.09 4.04 1.15.74 2.56.96 3.66.96H19a1 1 0 0 0 1-1V4Z"/></svg>