<svg width="20" height="20" viewBox="0 0 20 20" xmlns="http://www.w3.org/2000/svg"><path d="M6 2a2 2 0 00-2 2v12c0 1.1.9 2 2 2h5.7a4.5 4.5 0 01-1.43-2.02 1.5 1.5 0 010-2.96 4.49 4.49 0 012.75-2.75 1.5 1.5 0 012.96 0H16V4a2 2 0 00-2-2H6zm9.06 13.33a1 1 0 11-1.12-1.66 1 1 0 011.12 1.66zM17.95 14h.55a.5.5 0 010 1h-.55A3.49 3.49 0 0115 17.95v.55a.5.5 0 01-1 0v-.55A3.49 3.49 0 0111.05 15h-.55a.5.5 0 010-1h.55A3.49 3.49 0 0114 11.05v-.55a.5.5 0 011 0v.55A3.49 3.49 0 0117.95 14zm-3.2 2.99a2.5 2.5 0 10-.5-4.98 2.5 2.5 0 00.5 4.98z"/></svg>