<svg width="20" height="20" viewBox="0 0 20 20" xmlns="http://www.w3.org/2000/svg"><path d="M10 6.5V2H5.5C4.67 2 4 2.67 4 3.5v13c0 .83.67 1.5 1.5 1.5h4.76a5.47 5.47 0 0 1-1.24-3H8.5a.5.5 0 0 1 0-1h.52c.03-.34.1-.68.19-1H8.5a.5.5 0 0 1 0-1h1.1c.18-.36.4-.7.66-1H8.5a.5.5 0 0 1 0-1h2.84A5.47 5.47 0 0 1 16 9.2V8h-4.5A1.5 1.5 0 0 1 10 6.5Zm-4 4a.5.5 0 1 1 1 0 .5.5 0 0 1-1 0Zm0 2a.5.5 0 1 1 1 0 .5.5 0 0 1-1 0Zm.5 1.5a.5.5 0 1 1 0 1 .5.5 0 0 1 0-1Z"/><path d="M11 6.5V2.25L15.75 7H11.5a.5.5 0 0 1-.5-.5Z"/><path d="M19 14.5a4.5 4.5 0 1 1-9 0 4.5 4.5 0 0 1 9 0Zm-4-3a.5.5 0 0 0-1 0v3c0 .28.22.5.5.5h2a.5.5 0 0 0 0-1H15v-2.5Z"/></svg>