<svg width="16" height="16" viewBox="0 0 16 16" xmlns="http://www.w3.org/2000/svg"><path d="M2 4a1 1 0 0 1 1-1h3a1 1 0 0 1 1 1v1a1 1 0 0 1-1 1H3a1 1 0 0 1-1-1V4Zm4 0H3v1h3V4Zm3 0a1 1 0 0 1 1-1h3a1 1 0 0 1 1 1v1a1 1 0 0 1-1 1h-3a1 1 0 0 1-1-1V4Zm4 0h-3v1h3V4ZM3 7a1 1 0 0 0-1 1v1a1 1 0 0 0 1 1h3a1 1 0 0 0 1-1V8a1 1 0 0 0-1-1H3Zm0 1h3v1H3V8Zm6 0a1 1 0 0 1 1-1h3a1 1 0 0 1 1 1v1a1 1 0 0 1-1 1h-3a1 1 0 0 1-1-1V8Zm4 0h-3v1h3V8ZM3 11a1 1 0 0 0-1 1v1a1 1 0 0 0 1 1h3a1 1 0 0 0 1-1v-1a1 1 0 0 0-1-1H3Zm0 1h3v1H3v-1Z"/></svg>