<svg width="20" height="20" viewBox="0 0 20 20" xmlns="http://www.w3.org/2000/svg"><path d="M2 3a1 1 0 0 1 1-1h5a1 1 0 0 1 1 1v2a1 1 0 0 1-1 1H3a1 1 0 0 1-1-1V3Zm6 0H3v2h5V3ZM2 9a1 1 0 0 1 1-1h5a1 1 0 0 1 1 1v2a1 1 0 0 1-1 1H3a1 1 0 0 1-1-1V9Zm6 0H3v2h5V9Zm-5 5a1 1 0 0 0-1 1v2a1 1 0 0 0 1 1h5a1 1 0 0 0 1-1v-2a1 1 0 0 0-1-1H3Zm0 1h5v2H3v-2Zm8-12a1 1 0 0 1 1-1h5a1 1 0 0 1 1 1v2a1 1 0 0 1-1 1h-5a1 1 0 0 1-1-1V3Zm6 0h-5v2h5V3Zm-5 5a1 1 0 0 0-1 1v2a1 1 0 0 0 1 1h5a1 1 0 0 0 1-1V9a1 1 0 0 0-1-1h-5Zm0 1h5v2h-5V9Z"/></svg>