<svg width="20" height="20" viewBox="0 0 20 20" xmlns="http://www.w3.org/2000/svg"><path d="M3.86 7.85a.5.5 0 00-.72-.7L1.4 8.95a1.5 1.5 0 000 2.1l1.74 1.8a.5.5 0 10.72-.7l-1.74-1.8a.5.5 0 010-.7l1.74-1.8zm3.3-4.7a.5.5 0 00.69.71l1.8-1.74a.5.5 0 01.7 0l1.8 1.74a.5.5 0 00.7-.72L11.04 1.4a1.5 1.5 0 00-2.08 0l-1.8 1.74zm9.7 4a.5.5 0 10-.72.7l1.75 1.8c.18.2.18.51 0 .7l-1.75 1.8a.5.5 0 00.72.7l1.74-1.8a1.5 1.5 0 000-2.09l-1.74-1.8zm-9.01 9a.5.5 0 10-.7.71l1.81 1.75c.59.56 1.5.56 2.09 0l1.8-1.75a.5.5 0 00-.7-.72l-1.8 1.75a.5.5 0 01-.7 0l-1.8-1.75zM8 6a2 2 0 00-2 2v4c0 1.1.9 2 2 2h4a2 2 0 002-2V8a2 2 0 00-2-2H8zM7 8a1 1 0 011-1h4a1 1 0 011 1v4a1 1 0 01-1 1H8a1 1 0 01-1-1V8z"/></svg>