<svg width="24" height="24" viewBox="0 0 24 24" xmlns="http://www.w3.org/2000/svg"><path d="M11.49 2.7a.75.75 0 011.03 0l2.2 2.1a.75.75 0 001.04-1.09l-2.2-2.09a2.25 2.25 0 00-3.1 0L8.24 3.7a.75.75 0 001.03 1.1l2.22-2.1zM4.8 9.27a.75.75 0 00-1.09-1.02l-2.1 2.22a2.25 2.25 0 00.01 3.09l2.1 2.2a.75.75 0 101.08-1.03l-2.09-2.2a.75.75 0 010-1.03l2.1-2.23zM20.3 8.24a.75.75 0 00-1.09 1.04l2.1 2.2c.27.3.27.75 0 1.04l-2.1 2.21a.75.75 0 101.09 1.04l2.1-2.22c.82-.87.82-2.23 0-3.1l-2.1-2.2zM15.77 20.3a.75.75 0 10-1.04-1.09l-2.2 2.1a.75.75 0 01-1.04 0l-2.22-2.1a.75.75 0 10-1.03 1.09l2.22 2.1c.87.82 2.23.82 3.1 0l2.2-2.1zM9.75 7A2.75 2.75 0 007 9.75v4.5A2.75 2.75 0 009.75 17h4.5A2.75 2.75 0 0017 14.25v-4.5A2.75 2.75 0 0014.25 7h-4.5zM8.5 9.75c0-.69.56-1.25 1.25-1.25h4.5c.69 0 1.25.56 1.25 1.25v4.5c0 .69-.56 1.25-1.25 1.25h-4.5c-.69 0-1.25-.56-1.25-1.25v-4.5z"/></svg>