<svg width="16" height="16" viewBox="0 0 16 16" xmlns="http://www.w3.org/2000/svg"><path d="M5.66 2.64a.5.5 0 10.69.72l1.3-1.25a.5.5 0 01.7 0l1.3 1.25a.5.5 0 10.7-.72l-1.3-1.25a1.5 1.5 0 00-2.08 0L5.66 2.63zm-2.3 3.7a.5.5 0 10-.72-.69L1.39 6.96a1.5 1.5 0 000 2.08l1.25 1.3a.5.5 0 10.72-.69l-1.25-1.3a.5.5 0 010-.7l1.25-1.3zm2.99 6.3a.5.5 0 00-.7.72l1.32 1.26c.58.55 1.5.55 2.08 0l1.3-1.26a.5.5 0 10-.7-.72l-1.3 1.25a.5.5 0 01-.69 0l-1.31-1.25zm7.01-6.99a.5.5 0 00-.72.7l1.26 1.3c.18.2.18.5 0 .7l-1.26 1.3a.5.5 0 10.72.7l1.26-1.3a1.5 1.5 0 000-2.09l-1.26-1.3zM6.5 5C5.67 5 5 5.67 5 6.5v3c0 .83.67 1.5 1.5 1.5h3c.83 0 1.5-.67 1.5-1.5v-3c0-.83-.67-1.5-1.5-1.5h-3zM6 6.5c0-.28.22-.5.5-.5h3c.28 0 .5.22.5.5v3a.5.5 0 01-.5.5h-3a.5.5 0 01-.5-.5v-3z"/></svg>