<svg width="16" height="16" viewBox="0 0 16 16" xmlns="http://www.w3.org/2000/svg"><path d="M5.66 2.64a.5.5 0 0 0 .69.72l1.3-1.25a.5.5 0 0 1 .7 0l1.3 1.25a.5.5 0 1 0 .7-.72l-1.3-1.25a1.5 1.5 0 0 0-2.08 0L5.66 2.63Zm-2.3 3.7a.5.5 0 0 0-.72-.69L1.39 6.96a1.5 1.5 0 0 0 0 2.08l1.25 1.3a.5.5 0 0 0 .72-.69l-1.25-1.3a.5.5 0 0 1 0-.7l1.25-1.3Zm2.99 6.3a.5.5 0 1 0-.7.72l1.32 1.26c.58.55 1.5.55 2.08 0l1.3-1.26a.5.5 0 1 0-.7-.72l-1.3 1.25a.5.5 0 0 1-.69 0l-1.31-1.25Zm7.01-6.99a.5.5 0 1 0-.72.7l1.26 1.3c.18.2.18.5 0 .7l-1.26 1.3a.5.5 0 1 0 .72.7l1.26-1.3a1.5 1.5 0 0 0 0-2.09l-1.26-1.3ZM6.5 5C5.67 5 5 5.67 5 6.5v3c0 .83.67 1.5 1.5 1.5h3c.83 0 1.5-.67 1.5-1.5v-3c0-.83-.67-1.5-1.5-1.5h-3ZM6 6.5c0-.28.22-.5.5-.5h3c.28 0 .5.22.5.5v3a.5.5 0 0 1-.5.5h-3a.5.5 0 0 1-.5-.5v-3Z"/></svg>