<svg width="24" height="24" viewBox="0 0 24 24" xmlns="http://www.w3.org/2000/svg"><path d="M12.52 2.7a.75.75 0 0 0-1.03 0L9.27 4.8a.75.75 0 0 1-1.03-1.09l2.22-2.1a2.25 2.25 0 0 1 3.1.01l2.2 2.1a.75.75 0 1 1-1.03 1.08l-2.21-2.1ZM4.77 8.2c.3.29.32.76.03 1.06L2.7 11.5a.75.75 0 0 0 .01 1.03l2.1 2.2a.75.75 0 0 1-1.1 1.04l-2.09-2.21a2.25 2.25 0 0 1 0-3.1l2.1-2.21a.75.75 0 0 1 1.05-.04Zm14.46.01a.75.75 0 0 1 1.06.03l2.1 2.22c.82.86.82 2.22 0 3.1l-2.1 2.2a.75.75 0 0 1-1.09-1.03l2.1-2.21a.75.75 0 0 0 0-1.03l-2.1-2.21a.75.75 0 0 1 .03-1.07Zm-3.44 11.02c.29.3.28.77-.02 1.06l-2.22 2.1c-.86.82-2.22.82-3.1 0l-2.2-2.1a.75.75 0 0 1 1.02-1.1l2.22 2.1c.29.28.74.28 1.03 0l2.21-2.09a.75.75 0 0 1 1.06.03ZM9.75 7A2.75 2.75 0 0 0 7 9.75v4.5A2.75 2.75 0 0 0 9.75 17h4.5A2.75 2.75 0 0 0 17 14.25v-4.5A2.75 2.75 0 0 0 14.25 7h-4.5Z"/></svg>