<svg width="20" height="20" viewBox="0 0 20 20" xmlns="http://www.w3.org/2000/svg"><path d="M3.86 7.85a.5.5 0 0 0-.72-.7L1.4 8.95a1.5 1.5 0 0 0 0 2.09l1.74 1.8a.5.5 0 1 0 .72-.69l-1.74-1.8a.5.5 0 0 1 0-.7l1.74-1.8Zm3.3-4.71a.5.5 0 0 0 .69.72l1.8-1.74a.5.5 0 0 1 .7 0l1.8 1.74a.5.5 0 0 0 .7-.72l-1.8-1.74a1.5 1.5 0 0 0-2.1 0l-1.8 1.74Zm9.7 4.01a.5.5 0 1 0-.72.7l1.75 1.8c.18.2.18.5 0 .7l-1.75 1.8a.5.5 0 0 0 .72.7l1.74-1.8a1.5 1.5 0 0 0 0-2.09l-1.74-1.8Zm-9.01 8.99a.5.5 0 1 0-.7.72l1.81 1.75c.59.56 1.5.55 2.09 0l1.8-1.75a.5.5 0 0 0-.7-.72l-1.8 1.74a.5.5 0 0 1-.7 0l-1.8-1.74ZM6 8c0-1.1.9-2 2-2h4a2 2 0 0 1 2 2v4a2 2 0 0 1-2 2H8a2 2 0 0 1-2-2V8Z"/></svg>