<svg width="16" height="16" viewBox="0 0 16 16" xmlns="http://www.w3.org/2000/svg"><path d="M12.56 4.35 9.65 1.44A1.52 1.52 0 0 0 8.59 1H5a2 2 0 0 0-2 2v6h1V3a1 1 0 0 1 1-1h3v2.5A1.5 1.5 0 0 0 9.5 6H12v7a1 1 0 0 1-1 1H8.96c-.06.36-.2.7-.42 1H11a2 2 0 0 0 2-2V5.41c0-.4-.16-.78-.44-1.06ZM9.5 5a.5.5 0 0 1-.5-.5V2.21L11.79 5H9.5ZM6.57 15h-.14A1.43 1.43 0 0 1 5 13.57a.53.53 0 0 1 .5-.53.47.47 0 0 1 .5.46.45.45 0 0 0 .43.5h.14a.43.43 0 0 0 .2-.8l-.98-.5a1.43 1.43 0 0 1 .64-2.7h.14A1.43 1.43 0 0 1 8 11.43a.53.53 0 0 1-.5.53.47.47 0 0 1-.5-.46v-.07a.43.43 0 0 0-.43-.43h-.14a.43.43 0 0 0-.2.8l.98.5a1.43 1.43 0 0 1-.64 2.7Zm-2.22-4.15A.5.5 0 0 0 4 10H1a.5.5 0 0 0 0 1h1v3.5a.5.5 0 0 0 1 0V11h1a.5.5 0 0 0 .35-.15Z"/></svg>