<svg width="16" height="16" viewBox="0 0 16 16" xmlns="http://www.w3.org/2000/svg"><path d="M5.5 7H5v1h.5a.5.5 0 0 0 .5-.5.5.5 0 0 0-.5-.5Zm4.25 2H9v1h.75a.5.5 0 1 0 0-1Zm.1-1.15A.5.5 0 0 0 9.5 7H9v1h.5a.5.5 0 0 0 .35-.15ZM12.25 3h-9.5C1.78 3 1 3.79 1 4.75v7.5c0 .96.78 1.75 1.75 1.75h9.5c.96 0 1.75-.79 1.75-1.75v-7.5C14 3.79 13.21 3 12.25 3Zm-5.03 7.69a.5.5 0 0 1-.47.31c-.47 0-.59-.46-.7-.9C5.96 9.74 5.78 9 5.5 9H5v1.5a.5.5 0 1 1-1 0v-4a.5.5 0 0 1 .5-.5h1a1.5 1.5 0 0 1 1.02 2.59c.24.4.4.82.5 1.27l.07.28a.5.5 0 0 1 .12.54Zm3.94-.67a1.5 1.5 0 0 1-1.41.98H8.5a.5.5 0 0 1-.5-.5v-4a.5.5 0 0 1 .5-.5h1a1.5 1.5 0 0 1 1.23 2.36 1.5 1.5 0 0 1 .43 1.66Z"/></svg>