<svg width="28" height="28" viewBox="0 0 28 28" xmlns="http://www.w3.org/2000/svg"><path d="M3.28 2.22a.75.75 0 1 0-1.06 1.06l10.4 10.4c-.9 1.34-2.23 2.4-3.73 3.24a22.06 22.06 0 0 1-5.32 2 .75.75 0 0 0-.47 1.1 12 12 0 0 0 18.6 2.73l3.02 3.03a.75.75 0 0 0 1.06-1.06L3.28 2.22Zm17.35 19.47a10.49 10.49 0 0 1-15.69-1.58 22.45 22.45 0 0 0 4.68-1.88 12.18 12.18 0 0 0 4.08-3.47l6.93 6.93Zm-6.76-11 1.22 1.22c.95-2.95.73-5.97.27-8.24a10.5 10.5 0 0 1 7.16 15.67l1.1 1.1a12 12 0 0 0-9.16-18.4.75.75 0 0 0-.8.93c.52 2.05.91 4.92.21 7.72Z"/></svg>