<svg width="24" height="24" viewBox="0 0 24 24" xmlns="http://www.w3.org/2000/svg"><path d="M18.5 20a.5.5 0 0 1-.5.5h-4.23A4.99 4.99 0 0 1 13 22h5a2 2 0 0 0 2-2V9.83a2 2 0 0 0-.59-1.42L13.6 2.6a.5.5 0 0 0-.05-.04 2.07 2.07 0 0 0-.34-.25l-.05-.03-.05-.03-.16-.09c-.2-.08-.41-.12-.63-.14h-.06a.6.6 0 0 0-.08-.01H6a2 2 0 0 0-2 2v10h1.5V4c0-.27.22-.5.5-.5h6V8c0 1.1.9 2 2 2h4.5v10Zm-5-15.38 3.88 3.88H14a.5.5 0 0 1-.5-.5V4.62ZM5.75 15.75A.75.75 0 0 0 5 15h-.2a4 4 0 0 0 .2 8h.1a.75.75 0 0 0-.1-1.5h-.16a2.5 2.5 0 0 1 .16-5h.1a.75.75 0 0 0 .65-.75ZM13 19a4 4 0 0 0-4-4h-.1a.75.75 0 0 0 .1 1.5h.16a2.5 2.5 0 0 1-.16 5h-.1A.75.75 0 0 0 9 23h.2a4 4 0 0 0 3.8-4Zm-4.25-.75h-3.6a.75.75 0 0 0 .1 1.5h3.6a.75.75 0 0 0-.1-1.5Z"/></svg>