<svg width="20" height="20" viewBox="0 0 20 20" xmlns="http://www.w3.org/2000/svg"><path d="M4.61 5.53a6.99 6.99 0 0 1 10.78 0c-.64.38-1.33.7-2.05.94a.5.5 0 0 0 .32.95c.81-.27 1.59-.64 2.31-1.08a6.97 6.97 0 0 1 0 7.33c-.73-.44-1.5-.8-2.31-1.08a.5.5 0 0 0-.32.95c.72.24 1.4.56 2.04.94a6.99 6.99 0 0 1-10.76 0c.64-.38 1.32-.7 2.04-.94a.5.5 0 1 0-.32-.95c-.81.28-1.58.64-2.3 1.08a6.97 6.97 0 0 1-.01-7.33c.72.44 1.5.8 2.31 1.08a.5.5 0 0 0 .32-.95c-.72-.24-1.4-.56-2.05-.94ZM10 2a8 8 0 1 0 0 16 8 8 0 0 0 0-16ZM8.57 6.92a10.6 10.6 0 0 0 2.86 0 .5.5 0 0 1 .14.99 11.6 11.6 0 0 1-3.14 0 .5.5 0 0 1 .14-1Zm0 6.18a10.6 10.6 0 0 1 2.86 0 .5.5 0 0 0 .14-1 11.6 11.6 0 0 0-3.14 0 .5.5 0 1 0 .14 1Z"/></svg>