<svg width="24" height="24" viewBox="0 0 24 24" xmlns="http://www.w3.org/2000/svg"><path d="M9.93 16.7s-.75.1-.9-.55c-.1-.4.14-.8.54-.9h.01l.02-.01a3.92 3.92 0 0 1 .37-.08 12.54 12.54 0 0 1 4.42.07.75.75 0 0 1-.29 1.48 11.04 11.04 0 0 0-4.17-.01Zm-.9-8.8c.15-.65.9-.55.9-.55a6.35 6.35 0 0 0 1.19.17c.76.05 1.82.05 2.98-.18a.75.75 0 0 1 .3 1.47 12.54 12.54 0 0 1-4.8 0h-.03a.76.76 0 0 1-.55-.92ZM12 22a9.97 9.97 0 0 0 10-10 10 10 0 1 0-10 10ZM5.07 7.07c.54.37 1.19.72 1.94.97A.75.75 0 1 0 7.5 6.6a6.36 6.36 0 0 1-1.43-.69 8.47 8.47 0 0 1 11.88 0c-.4.27-.89.51-1.43.7A.75.75 0 1 0 17 8.03c.75-.25 1.4-.6 1.94-.97a8.46 8.46 0 0 1-.03 9.9A7.9 7.9 0 0 0 17 16a.75.75 0 1 0-.48 1.42c.53.18 1 .42 1.4.68a8.47 8.47 0 0 1-11.82 0c.4-.26.87-.5 1.4-.68A.75.75 0 1 0 7 16.01c-.74.25-1.38.6-1.91.95a8.46 8.46 0 0 1-.03-9.89Z"/></svg>