<svg width="48" height="48" viewBox="0 0 48 48" xmlns="http://www.w3.org/2000/svg"><path d="M14.25 15.6a1.25 1.25 0 0 0-1 2.3l9.5 4.17v9.18a1.25 1.25 0 0 0 2.5 0v-9.18l9.5-4.18a1.25 1.25 0 1 0-1-2.28L24 19.88l-9.75-4.27ZM26.32 5.34a6.25 6.25 0 0 0-4.64 0l-15 6A4.25 4.25 0 0 0 4 15.29v17.44c0 1.74 1.06 3.3 2.67 3.95l15 6c1.5.6 3.16.6 4.65 0l15-6A4.25 4.25 0 0 0 44 32.72V15.28c0-1.74-1.06-3.3-2.67-3.94l-15-6Zm-3.71 2.32c.9-.35 1.89-.35 2.78 0l15.01 6c.66.27 1.1.92 1.1 1.63v17.44c0 .71-.44 1.36-1.1 1.62l-15 6c-.9.36-1.9.36-2.8 0l-15-6c-.66-.26-1.1-.9-1.1-1.62V15.28c0-.71.44-1.36 1.1-1.62l15-6Z"/></svg>