<svg width="16" height="16" viewBox="0 0 16 16" xmlns="http://www.w3.org/2000/svg"><path d="M9 9.7l5.15 5.15a.5.5 0 00.7-.7l-13-13a.5.5 0 10-.7.7L6.29 7 3.34 9.95c-.18.19-.32.4-.4.65l-.91 2.74a.5.5 0 00.63.63l2.74-.91c.24-.08.46-.22.65-.4L9 9.71zM8.3 9l-2.96 2.95a.65.65 0 01-.26.16l-1.79.6.6-1.8c.03-.09.08-.18.16-.25L7 7.71 8.3 9zm3.33-3.34L9.71 7.6l.7.7L12 6.71l.26.26c.3.3.3.77 0 1.06l-1.05 1.06.7.7 1.06-1.05c.68-.69.68-1.8 0-2.48L12.71 6l.73-.73a1.91 1.91 0 00-2.7-2.71L7.7 5.59l.7.7 3.03-3.02a.91.91 0 111.3 1.3l-1.08 1.06a.46.46 0 00-.03.03z"/></svg>