<svg width="24" height="24" viewBox="0 0 24 24" xmlns="http://www.w3.org/2000/svg"><path d="M8.94 10L2.22 3.28a.75.75 0 111.06-1.06l18.5 18.5a.75.75 0 01-1.06 1.06L14 15.06l-5 5c-.4.4-.92.7-1.48.82l-4.6 1.1a.75.75 0 01-.9-.9l1.1-4.6A3.1 3.1 0 013.94 15l5-5zm4 4L10 11.06l-5 5a1.6 1.6 0 00-.42.76l-.82 3.42 3.42-.81c.29-.07.55-.22.76-.43l5-5zm6.95-6.95l-4.83 4.83 1.06 1.06L19 10.06c.68.68.68 1.79 0 2.47l-1.65 1.64 1.06 1.06 1.64-1.64A3.25 3.25 0 0020.07 9l.9-.9a3.58 3.58 0 00-5.07-5.05l-4.83 4.83 1.06 1.06 4.83-4.83a2.08 2.08 0 112.94 2.94z"/></svg>