<svg width="48" height="48" viewBox="0 0 48 48" xmlns="http://www.w3.org/2000/svg"><path d="M28 29.77l13.87 13.86a1.25 1.25 0 001.76-1.76L6.13 4.37a1.25 1.25 0 10-1.76 1.76L18.23 20 8.03 30.2a6 6 0 00-1.56 2.76l-2.43 9.48a1.25 1.25 0 001.52 1.52l9.49-2.42a6 6 0 002.76-1.58L28 29.76zM26.23 28l-10.2 10.2c-.44.44-1 .76-1.6.91l-7.45 1.9 1.9-7.44c.16-.6.48-1.16.93-1.6L20 21.76 26.22 28zm13.98-13.97L29.77 24.47l1.77 1.76 6.43-6.43.88.94c.65.68.63 1.76-.04 2.43l-3.44 3.45a1.25 1.25 0 001.76 1.76l3.45-3.44a4.25 4.25 0 00.1-5.91l-.94-1 2.23-2.24a6.9 6.9 0 00-9.76-9.76L21.77 16.47l1.77 1.76L33.97 7.8a4.4 4.4 0 016.24 6.24z"/></svg>