<svg width="24" height="24" viewBox="0 0 24 24" xmlns="http://www.w3.org/2000/svg"><path d="M7 2a2 2 0 0 0-2 2v13c0 1.1.9 2 2 2h4.17a6.52 6.52 0 0 1-.17-1.5H7a.5.5 0 0 1-.5-.5V4c0-.28.22-.5.5-.5h5.5v3.25c0 .97.78 1.75 1.75 1.75h3.25V11c.52 0 1.02.06 1.5.17v-3.4a2 2 0 0 0-.59-1.42L14.65 2.6A2 2 0 0 0 13.23 2H7Zm7 4.75V4.06L16.94 7h-2.69a.25.25 0 0 1-.25-.25ZM6.5 20.5h5.23c.29.55.65 1.06 1.08 1.5H6.5A4.5 4.5 0 0 1 2 17.5v-1.75a.75.75 0 0 1 1.5 0v1.75a3 3 0 0 0 3 3ZM8 5.75c0-.41.34-.75.75-.75h1.5a.75.75 0 0 1 0 1.5h-1.5A.75.75 0 0 1 8 5.75ZM8.75 8a.75.75 0 0 0 0 1.5h1.5a.75.75 0 0 0 0-1.5h-1.5Zm0 3a.75.75 0 0 0 0 1.5h1.5a.75.75 0 0 0 0-1.5h-1.5ZM23 17.5a5.5 5.5 0 1 0-11 0 5.5 5.5 0 0 0 11 0Zm-5 .5v2.5a.5.5 0 1 1-1 0V18h-2.5a.5.5 0 0 1 0-1H17v-2.5a.5.5 0 1 1 1 0V17h2.5a.5.5 0 0 1 0 1H18Z"/></svg>