<svg width="24" height="24" viewBox="0 0 24 24" xmlns="http://www.w3.org/2000/svg"><path d="M9.5 3a7.5 7.5 0 0 0-6.8 10.67 68.1 68.1 0 0 0-.68 3.15 1 1 0 0 0 1.15 1.17c.63-.11 1.98-.36 3.24-.65A7.5 7.5 0 1 0 9.5 3ZM7.1 7.4c.25-.49.6-.86 1.04-1.1a2.83 2.83 0 0 1 3 .28c.5.42.86 1.07.86 1.92 0 .97-.69 1.5-1.08 1.8a8.4 8.4 0 0 0-.08.07c-.43.33-.59.51-.59.88a.75.75 0 0 1-1.5 0c0-1.13.71-1.7 1.16-2.06.51-.4.59-.5.59-.69 0-.4-.15-.62-.32-.76-.2-.16-.46-.24-.68-.24-.3 0-.5.05-.65.13-.14.08-.3.21-.44.48a.75.75 0 1 1-1.32-.71ZM9.5 13a1 1 0 1 1 0 2 1 1 0 0 1 0-2Zm-.1 6a7.47 7.47 0 0 0 8.19 1.34c1.04.24 2.18.48 2.91.64.9.18 1.67-.62 1.47-1.5-.16-.7-.42-1.8-.67-2.8a7.5 7.5 0 0 0-4.34-10.26c.34.63.61 1.31.8 2.04a6 6 0 0 1 2.08 7.79l-.13.25.07.28.64 2.65-2.74-.61-.27-.07-.24.12a5.97 5.97 0 0 1-5.59-.13A8.52 8.52 0 0 1 9.4 19Z"/></svg>