<svg width="28" height="28" viewBox="0 0 28 28" xmlns="http://www.w3.org/2000/svg"><path d="M11 3a9 9 0 00-8.05 13.03l-.9 3.4c-.26.92.6 1.77 1.52 1.52l3.4-.9A9 9 0 1011 3zm0 14.5a1 1 0 110-2 1 1 0 010 2zM9.5 9.26A.75.75 0 018 9.25v-.02a1.61 1.61 0 010-.13 2.94 2.94 0 01.38-1.22C8.78 7.15 9.6 6.5 11 6.5c1.4 0 2.21.65 2.62 1.38A3.02 3.02 0 0114 9.2v.05c0 1.12-.7 1.88-1.2 2.43l-.12.13c-.54.61-.93 1.11-.93 1.94a.75.75 0 01-1.5 0c0-1.42.74-2.3 1.32-2.94l.02-.02c.6-.68.9-1.01.91-1.53a1.53 1.53 0 00-.18-.64C12.16 8.35 11.85 8 11 8c-.85 0-1.16.35-1.32.62a1.52 1.52 0 00-.18.64zM17 25a8.98 8.98 0 01-6.73-3.03 10 10 0 009.66-14.49 9 9 0 015.12 12.55l.9 3.4c.26.92-.6 1.77-1.52 1.52l-3.39-.9A8.97 8.97 0 0117 25zM12.5 9.26"/></svg>