<svg width="32" height="32" viewBox="0 0 32 32" xmlns="http://www.w3.org/2000/svg"><path d="M4 13.5a8.5 8.5 0 114.58 7.54 1 1 0 00-.72-.08L4 22l1.03-3.85a1 1 0 00-.08-.73A8.46 8.46 0 014 13.5zM12.5 3A10.5 10.5 0 003 18l-.93 3.48a2 2 0 002.45 2.45l3.49-.94A10.5 10.5 0 1012.5 3zm7 26c-3.12 0-5.93-1.36-7.85-3.53a12.11 12.11 0 002.8-.13 8.46 8.46 0 008.97.7 1 1 0 01.72-.08L28 27l-1.03-3.85a1 1 0 01.08-.73 8.49 8.49 0 00-2.7-10.92c-.16-.93-.43-1.84-.8-2.7A10.5 10.5 0 0129 23l.94 3.48a2 2 0 01-2.45 2.45l-3.49-.94C22.63 28.64 21.1 29 19.5 29zm-5.75-10.25a1.25 1.25 0 11-2.5 0 1.25 1.25 0 012.5 0zM11 10.01zm0 0zm0 0a1.12 1.12 0 01.16-.47c.12-.2.41-.54 1.34-.54.93 0 1.22.34 1.34.53A1.12 1.12 0 0114 10v.01c0 .48-.3.83-1 1.63A4.91 4.91 0 0011.5 15a1 1 0 102 0c0-.81.39-1.34 1-2.04l.14-.16C15.2 12.19 16 11.28 16 10v-.03a1.76 1.76 0 000-.14 3 3 0 00-.46-1.36C15.03 7.66 14.07 7 12.5 7s-2.53.66-3.04 1.47A3.12 3.12 0 009 9.97V10a1 1 0 002 .02zm0 0zm3 0"/></svg>