<svg width="28" height="28" viewBox="0 0 28 28" xmlns="http://www.w3.org/2000/svg"><path d="M3.5 12a7.5 7.5 0 113.9 6.59.75.75 0 00-.54-.07l-3.26.87.88-3.25a.75.75 0 00-.07-.55A7.46 7.46 0 013.5 12zM11 3a9 9 0 00-8.05 13.03l-.9 3.4c-.26.92.6 1.77 1.52 1.52l3.4-.9A9 9 0 1011 3zm6 22a8.98 8.98 0 01-6.73-3.03 10.08 10.08 0 002.1-.06 7.47 7.47 0 008.22.68c.17-.1.37-.12.55-.07l3.25.87-.87-3.25a.75.75 0 01.07-.55 7.5 7.5 0 00-2.91-10.12 9.93 9.93 0 00-.75-1.98 9 9 0 015.12 12.54l.9 3.4c.25.92-.6 1.77-1.52 1.52l-3.4-.9A8.97 8.97 0 0117 25zm-5-8.5a1 1 0 11-2 0 1 1 0 012 0zM9.5 9.26v-.04l.02-.14c.03-.14.08-.3.16-.46.16-.27.47-.62 1.32-.62.85 0 1.16.35 1.32.62a1.52 1.52 0 01.18.63c0 .53-.3.86-.91 1.54l-.02.02a4.19 4.19 0 00-1.32 2.94.75.75 0 001.5 0c0-.83.39-1.33.93-1.94l.13-.13c.5-.55 1.19-1.3 1.19-2.43V9.2a2.22 2.22 0 00-.05-.4 3.02 3.02 0 00-.33-.92C13.22 7.15 12.4 6.5 11 6.5c-1.4 0-2.21.65-2.62 1.38A3.02 3.02 0 008 9.23v.02a.75.75 0 001.5 0z"/></svg>