<svg width="32" height="32" viewBox="0 0 32 32" xmlns="http://www.w3.org/2000/svg"><path d="M12.5 3A10.5 10.5 0 003 18l-.93 3.48a2 2 0 002.45 2.45l3.49-.94A10.5 10.5 0 1012.5 3zm0 17a1.25 1.25 0 110-2.5 1.25 1.25 0 010 2.5zM11 10.01zm0 0A1 1 0 019 10v-.03a1.76 1.76 0 010-.14 2.98 2.98 0 01.46-1.36C9.97 7.66 10.93 7 12.5 7s2.53.66 3.04 1.47a3.12 3.12 0 01.46 1.5V10c0 1.28-.8 2.19-1.36 2.8l-.14.16c-.61.7-1 1.23-1 2.04a1 1 0 11-2 0c0-1.61.86-2.64 1.5-3.36.7-.8 1-1.15 1-1.63a1.12 1.12 0 00-.16-.47c-.12-.2-.41-.54-1.34-.54-.93 0-1.22.34-1.34.53A1.12 1.12 0 0011 10v.02zM19.5 29c-3.12 0-5.93-1.36-7.85-3.53a12 12 0 0011.9-16.66 10.5 10.5 0 015.44 14.18l.94 3.49a2 2 0 01-2.45 2.45l-3.49-.94C22.63 28.64 21.1 29 19.5 29zM14 10v.01"/></svg>