<svg width="16" height="16" viewBox="0 0 16 16" xmlns="http://www.w3.org/2000/svg"><path d="M4.77 2.46C3.4 2.87 2.52 4 2.7 5.26a12.73 12.73 0 004.58 7.91c1 .8 2.42.6 3.46-.37a.98.98 0 00.09-1.34l-.8-.96a1 1 0 00-1.07-.32l-1.67.53a.5.5 0 01-.48-.1l-.04-.04a4.8 4.8 0 01-.42-.44 7.26 7.26 0 01-1.6-3l-.04-.12-.01-.06a.5.5 0 01.15-.47l1.3-1.18a1 1 0 00.25-1.09l-.43-1.16a.99.99 0 00-1.21-.6zm2.06 3.58l-1.07.98a6.6 6.6 0 00.59 1.42 6.26 6.26 0 00.93 1.22l1.4-.43a2 2 0 012.14.63l.79.96c.66.81.58 2-.18 2.71-1.3 1.2-3.28 1.61-4.76.42A13.73 13.73 0 011.72 5.4C1.44 3.52 2.8 2 4.47 1.5c1-.3 2.08.22 2.45 1.2l.43 1.16a2 2 0 01-.52 2.18zM12.29 3H9.5a.5.5 0 010-1h4c.28 0 .5.22.5.5v4a.5.5 0 01-1 0V3.7l-2.15 2.15a.5.5 0 01-.7-.7L12.29 3zM10 6.5a.5.5 0 11-1 0 .5.5 0 011 0zM8.5 8a.5.5 0 100-1 .5.5 0 000 1z"/></svg>