<svg width="48" height="48" viewBox="0 0 48 48" xmlns="http://www.w3.org/2000/svg"><path d="M16 8.5a2.5 2.5 0 1 1-5 0 2.5 2.5 0 0 1 5 0Zm0 10a2.5 2.5 0 1 1-5 0 2.5 2.5 0 0 1 5 0Zm0 10a2.5 2.5 0 1 1-5 0 2.5 2.5 0 0 1 5 0Zm10.5-20a2.5 2.5 0 1 1-5 0 2.5 2.5 0 0 1 5 0Zm0 10a2.5 2.5 0 1 1-5 0 2.5 2.5 0 0 1 5 0Zm0 10a2.5 2.5 0 1 1-5 0 2.5 2.5 0 0 1 5 0Zm0 10a2.5 2.5 0 1 1-5 0 2.5 2.5 0 0 1 5 0ZM37 8.5a2.5 2.5 0 1 1-5 0 2.5 2.5 0 0 1 5 0Zm0 10a2.5 2.5 0 1 1-5 0 2.5 2.5 0 0 1 5 0Zm0 10a2.5 2.5 0 1 1-5 0 2.5 2.5 0 0 1 5 0Z"/></svg>