<svg width="24" height="24" viewBox="0 0 24 24" xmlns="http://www.w3.org/2000/svg"><path d="M3.75 4c.41 0 .75.3.75.69V6h6.75V4.69c0-.38.34-.69.75-.69s.75.3.75.69V6h6.75V4.69c0-.38.34-.69.75-.69s.75.3.75.69V8.8c0 .38-.34.69-.75.69s-.75-.3-.75-.69V7.5h-6.75v1.31c0 .38-.34.69-.75.69s-.75-.3-.75-.69V7.5H4.5v1.31c0 .38-.34.69-.75.69S3 9.2 3 8.81V4.7c0-.38.34-.69.75-.69zm2 7A2.75 2.75 0 003 13.75v4a2.75 2.75 0 002.75 2.75h5.5V11h-5.5zm12.5 9.5h-5.5V11h5.5A2.75 2.75 0 0121 13.75v4a2.75 2.75 0 01-2.75 2.75z"/></svg>