<svg width="24" height="24" viewBox="0 0 24 24" xmlns="http://www.w3.org/2000/svg"><path d="M18.83 3.44A1 1 0 0018 3H5.88a1 1 0 00-.77.55l-3 6-.06.13a1 1 0 00.2.99l8.99 9.98c.14.17.33.28.53.32l.11.02a1 1 0 00.89-.35l.26-.29a3.79 3.79 0 01-.03-.48v-.1A2.77 2.77 0 0115.77 17h.28a3.49 3.49 0 012.45-6c.85 0 1.62.3 2.23.8l1.01-1.13.09-.1a1 1 0 00.06-1.02l-3-6-.06-.1zM9.43 11h5.15L12 17.34 9.42 11zm-4.18 0h2.01l1.66 4.09L5.25 11zm1.37-6h2l-1.3 4h-2.7l2-4zm4.1 0h2.55l1.3 4H9.43l1.3-4zm4.66 0h2l2 4h-2.7l-1.3-4zM21 14.5a2.5 2.5 0 11-5 0 2.5 2.5 0 015 0zm2 5.38c0 1.55-1.29 3.12-4.5 3.12S14 21.44 14 19.87v-.1c0-.98.8-1.77 1.77-1.77h5.46c.98 0 1.77.8 1.77 1.77v.1z"/></svg>