<svg width="24" height="24" viewBox="0 0 24 24" xmlns="http://www.w3.org/2000/svg"><path d="M18 3c.24 0 .46.12.6.3l.06.1 3.26 6.02.04.1.01.03.02.1v.1c0 .07 0 .14-.02.2l-.05.13-.03.06a.8.8 0 01-.04.06.75.75 0 01-.04.05l.02-.03-1.27 1.45c-.43-.31-.92-.53-1.46-.62l.49-.55H16.6L12.7 20.52c-.12.3-.4.48-.7.48h-.1a.74.74 0 01-.1-.03h-.02a.72.72 0 01-.17-.08h-.01a.67.67 0 01-.13-.1l-9.3-10.55-.02-.04-.04-.06a.74.74 0 01-.1-.3L2 9.75v-.07l.02-.08.02-.1.02-.05.03-.06 3.25-6a.75.75 0 01.56-.38L6 3h12zm-3 7.5H9l3 7.69 3-7.69zm-7.61 0H4.4l5.35 6.07-2.37-6.07zm1.58-6H6.44L4.01 9h3.52l1.44-4.5zm4.48 0h-2.9L9.1 9h5.79l-1.44-4.5zm4.1 0h-2.52L16.47 9h3.52l-2.44-4.5zm3.45 10a2.5 2.5 0 11-5 0 2.5 2.5 0 015 0zm2 5.38c0 1.55-1.29 3.12-4.5 3.12S14 21.44 14 19.87v-.1c0-.98.8-1.77 1.77-1.77h5.46c.98 0 1.77.8 1.77 1.77v.1z"/></svg>