<svg width="16" height="16" viewBox="0 0 16 16" xmlns="http://www.w3.org/2000/svg"><path d="M3.75 2a.75.75 0 00-.66.4l-2 3.75a.75.75 0 00.07.81l4.93 6.32c-.06-.26-.09-.52-.09-.78 0-1 .6-1.87 1.45-2.27L6.6 7.5h.94c.1-.57.35-1.09.72-1.5H6.4l.62-2.5h1.96l.42 1.7a3 3 0 011.5-.17l-.38-1.53h1.28L13.13 6h-.4a2.99 2.99 0 01.65 2.83l1.46-1.87a.75.75 0 00.07-.81l-2-3.75a.75.75 0 00-.66-.4h-8.5zm-.88 4L4.2 3.5h1.28L4.85 6H2.87zm.61 1.5h1.55l1.03 3.3-2.58-3.3zm9.02.5a2 2 0 11-4 0 2 2 0 014 0zm1.5 4.5c0 1.25-1 2.5-3.5 2.5S7 13.75 7 12.5c0-.83.67-1.5 1.5-1.5h4c.83 0 1.5.67 1.5 1.5z"/></svg>