<svg width="16" height="16" viewBox="0 0 16 16" xmlns="http://www.w3.org/2000/svg"><path d="M7.57 11.98a2.2 2.2 0 0 0-.52 1.96C4.5 13.57 3 11.76 3 10v-.5C3 8.67 3.67 8 4.5 8h6.02c.02.48.22.95.59 1.3l.51.51c-.1.44-.33.81-.7 1.12l-.8-.18c-.72-.18-1.5.06-2 .62l-.55.61ZM8 1.5A2.75 2.75 0 1 1 8 7a2.75 2.75 0 0 1 0-5.5Zm3.58 6.08.29-.75a1.32 1.32 0 0 1 1.74-.73l.39.17c.47.2.86.57.94 1.06.46 2.73-1.9 6.6-4.63 7.59a1.6 1.6 0 0 1-1.44-.25l-.35-.23c-.6-.41-.7-1.24-.2-1.79l.54-.6c.26-.3.66-.42 1.04-.33l1.22.29c.97-.6 1.5-1.46 1.56-2.56l-.88-.86a.94.94 0 0 1-.22-1Z"/></svg>