<svg width="16" height="16" viewBox="0 0 16 16" xmlns="http://www.w3.org/2000/svg"><path d="M7.07 12.93a2.2 2.2 0 0 0-.02 1C4.5 13.58 3 11.77 3 10v-.5C3 8.67 3.67 8 4.5 8h6.02c.02.35.13.7.33 1H4.5a.5.5 0 0 0-.5.5v.5c0 1.25 1.09 2.6 3.07 2.93ZM8 1.5A2.75 2.75 0 1 1 8 7a2.75 2.75 0 0 1 0-5.5Zm0 1A1.75 1.75 0 1 0 8 6a1.75 1.75 0 0 0 0-3.5Zm3.58 5.08.29-.75a1.32 1.32 0 0 1 1.74-.73l.39.17c.47.2.86.57.94 1.06.46 2.73-1.9 6.6-4.63 7.59a1.6 1.6 0 0 1-1.44-.25l-.35-.23c-.6-.41-.7-1.24-.2-1.79l.54-.6c.26-.3.66-.42 1.04-.33l1.22.29c.97-.6 1.5-1.46 1.56-2.56l-.88-.86a.94.94 0 0 1-.22-1Z"/></svg>