<svg width="20" height="20" viewBox="0 0 20 20" xmlns="http://www.w3.org/2000/svg"><path d="M10 2a4 4 0 1 0 0 8 4 4 0 0 0 0-8Zm-5 9a2 2 0 0 0-2 2c0 1.7.83 2.97 2.13 3.8A9.14 9.14 0 0 0 10 18c.36 0 .71-.01 1.06-.04a2.2 2.2 0 0 1 .51-1.98l.55-.6c.5-.57 1.28-.8 2-.63l.8.18c.37-.31.6-.68.7-1.12l-.51-.5a1.94 1.94 0 0 1-.46-2.08l.08-.23H5.01Zm10.58.58.29-.75a1.32 1.32 0 0 1 1.74-.73l.39.17c.47.2.86.57.94 1.06.46 2.73-1.9 6.6-4.63 7.59a1.6 1.6 0 0 1-1.44-.25l-.35-.23c-.6-.41-.7-1.24-.2-1.79l.54-.6c.26-.3.66-.42 1.04-.33l1.22.29c.97-.6 1.5-1.46 1.56-2.56l-.88-.86a.94.94 0 0 1-.22-1Z"/></svg>