<svg width="24" height="24" viewBox="0 0 24 24" xmlns="http://www.w3.org/2000/svg"><path d="M17.38 15.5a2.2 2.2 0 0 1-.23-1.5H6.25C5.01 14 4 15 4 16.25v.58c0 .89.32 1.75.9 2.43C6.47 21.1 8.85 22 12 22a15 15 0 0 0 1.13-.04 2.26 2.26 0 0 1 0-1.5c-.36.03-.74.04-1.13.04-2.74 0-4.7-.74-5.96-2.21-.34-.41-.54-.93-.54-1.46v-.58c0-.41.34-.75.75-.75h11.13ZM12 2a5 5 0 1 1 0 10 5 5 0 0 1 0-10Zm0 1.5a3.5 3.5 0 1 0 0 7 3.5 3.5 0 0 0 0-7ZM18.2 14l.47-1.21c.24-.61.92-.93 1.55-.73l.43.14c.72.24 1.32.8 1.35 1.57.1 3.11-2.48 7.58-5.22 9.06-.67.36-1.46.12-2.03-.4l-.34-.3a1.25 1.25 0 0 1-.14-1.7l.8-1.02a1.2 1.2 0 0 1 1.22-.42l1.3.32a3.78 3.78 0 0 0 1.77-3.08l-.92-.96a1.2 1.2 0 0 1-.25-1.28Z"/></svg>