<svg width="24" height="24" viewBox="0 0 24 24" xmlns="http://www.w3.org/2000/svg"><path d="M3.75 5a.75.75 0 0 0 0 1.5h16.5a.75.75 0 0 0 0-1.5H3.75Zm0 4a.75.75 0 0 0 0 1.5h16.5a.75.75 0 0 0 0-1.5H3.75ZM3 13.75c0-.41.34-.75.75-.75h9.06c-.43.44-.8.95-1.08 1.5H3.75a.75.75 0 0 1-.75-.75Zm8 3.75c0-.17 0-.34.02-.5H3.75a.75.75 0 0 0 0 1.5h7.33a6.55 6.55 0 0 1-.08-1Zm12 0a5.5 5.5 0 1 1-11 0 5.5 5.5 0 0 1 11 0ZM18.53 14H17.1a.5.5 0 0 0-.47.32l-1.13 3a.5.5 0 0 0 .47.68h.78l-.77 2.32a.52.52 0 0 0 .92.44l2.63-4.03a.47.47 0 0 0-.4-.73h-.63l.5-1.32a.5.5 0 0 0-.47-.68Z"/></svg>