<svg width="20" height="20" viewBox="0 0 20 20" xmlns="http://www.w3.org/2000/svg"><path d="M9.5 3h-.25C8.56 3 8 3.56 8 4.25v1.5a1.25 1.25 0 0 0 2.5 0h-1a.5.5 0 0 1 0-1H11c.28 0 .5.22.5.5v.5a2.25 2.25 0 0 1-4.5 0v-1.5C7 3.01 8 2 9.25 2h.25c.03 0 1.12 0 1.65 1.02a.5.5 0 1 1-.89.46.86.86 0 0 0-.48-.42C9.63 3.01 9.51 3 9.5 3Zm7 2a.5.5 0 0 1 .5.41v11.1a.5.5 0 0 1-.99.08V5.5c0-.28.22-.5.5-.5Zm-9 6a.5.5 0 0 1 .5.41v5.09a.5.5 0 0 1-.99.09V11.5c0-.28.22-.5.5-.5Zm-3 2a.5.5 0 0 1 .5.41v3.09a.5.5 0 0 1-1 .09V13.5c0-.28.22-.5.5-.5Zm6-4a.5.5 0 0 1 .5.4v7.1a.5.5 0 0 1-1 .09V9.5c0-.28.22-.5.5-.5Zm3-2a.5.5 0 0 1 .5.41v9.09a.5.5 0 0 1-1 .09V7.5c0-.27.22-.5.5-.5ZM2.75 2a.5.5 0 0 0-.5.44l-.25 2a.5.5 0 0 0 .54.56l.18-.02 1.37-.11c.49-.04.91.35.91.84v.22C5 6.52 4.52 7 3.93 7a.98.98 0 0 1-.75-.32 1.23 1.23 0 0 1-.2-.3l-.01-.02a.5.5 0 0 0-.94.36l.01.02a1.44 1.44 0 0 0 .1.2A1.98 1.98 0 0 0 3.93 8C5.07 8 6 7.07 6 5.93V5.7c0-1.08-.92-1.93-2-1.84l-.93.08L3.2 3H5.5a.5.5 0 0 0 0-1H2.75Z"/></svg>