<svg width="24" height="24" viewBox="0 0 24 24" xmlns="http://www.w3.org/2000/svg"><path d="m12.9 3.62-.01-.02a1.03 1.03 0 0 0-.06-.08l-.13-.16a2.13 2.13 0 0 0-.52-.4 3.03 3.03 0 0 0-2.07-.25c-1.09.2-1.63.97-1.87 1.6A3.6 3.6 0 0 0 8 5.45v1.29a2.5 2.5 0 0 0 2.5 2.5h.25a2.5 2.5 0 0 0 2.5-2.5v-.5a.75.75 0 0 0-.75-.75h-1.25a.75.75 0 0 0 0 1.5h.47a1 1 0 0 1-.97.75h-.25a1 1 0 0 1-1-1V5.5a1.09 1.09 0 0 1 .02-.18c.01-.13.05-.3.12-.47.13-.34.34-.6.75-.67.6-.1.91.01 1.06.1a.64.64 0 0 1 .17.13.75.75 0 0 0 1.28-.79Z"/><path d="M4 2.75c-.38 0-.7.29-.75.67L3 5.67a.75.75 0 0 0 .88.82L4.9 6.3a.73.73 0 1 1 .13 1.45H4.8a.75.75 0 0 1-.62-.33l-.06-.09a.75.75 0 0 0-1.24.84l.05.08c.42.62 1.12 1 1.87 1h.22a2.23 2.23 0 1 0-.4-4.42h-.01l.06-.58H6.5a.75.75 0 0 0 0-1.5H4Z"/><path d="M21 7a1 1 0 0 0-2 0v13a1 1 0 0 0 2 0V7Z"/><path d="M17 10a1 1 0 0 0-2 0v10a1 1 0 0 0 2 0V10Z"/><path d="M13 13a1 1 0 1 0-2 0v7a1 1 0 1 0 2 0v-7Z"/><path d="M9 16a1 1 0 0 0-1-1 1 1 0 0 0-1 1v4a1 1 0 0 0 1 1 1 1 0 0 0 1-1v-4Z"/><path d="M5 18.98A1 1 0 0 0 4 18a1 1 0 0 0-1 .98v1.04A1 1 0 0 0 4 21a1 1 0 0 0 1-.98v-1.04Z"/></svg>