<svg width="16" height="16" viewBox="0 0 16 16" xmlns="http://www.w3.org/2000/svg"><path d="M11.5 2A2.5 2.5 0 0 1 14 4.5v1.76A5.48 5.48 0 0 0 10.5 5H13v-.5c0-.83-.67-1.5-1.5-1.5h-7C3.67 3 3 3.67 3 4.5V5h7.5c-1.18 0-2.27.37-3.16 1H3v5.5c0 .83.67 1.5 1.5 1.5h1.1c.18.36.4.7.66 1H4.5A2.5 2.5 0 0 1 2 11.5v-7A2.5 2.5 0 0 1 4.5 2h7Zm-1 13a4.5 4.5 0 1 0 0-9 4.5 4.5 0 0 0 0 9Zm-.9-6.4-.9.9h1.55A2.75 2.75 0 0 1 13 12.25v.25a.5.5 0 0 1-1 0v-.25c0-.97-.78-1.75-1.75-1.75H8.71l.9.9a.5.5 0 0 1-.71.7l-1.76-1.75a.5.5 0 0 1 0-.7L8.9 7.9a.5.5 0 1 1 .7.7Z"/></svg>