<svg width="20" height="20" viewBox="0 0 20 20" xmlns="http://www.w3.org/2000/svg"><path d="m15.8 10.55-4.82 4.83a2.2 2.2 0 0 0-.58 1.02l-.37 1.5a.89.89 0 0 0 1.08 1.07l1.5-.37c.38-.1.73-.3 1.01-.58l4.83-4.83a1.87 1.87 0 0 0-2.64-2.64ZM7 2.5a.5.5 0 0 0-1 0V3h-.5C4.67 3 4 3.67 4 4.5v12c0 .83.67 1.5 1.5 1.5H9l.06-.35.37-1.5a3.2 3.2 0 0 1 .84-1.48l4.83-4.83c.27-.27.57-.47.9-.6V4.5c0-.83-.67-1.5-1.5-1.5H14v-.5a.5.5 0 0 0-1 0V3h-2.5v-.5a.5.5 0 0 0-1 0V3H7v-.5ZM7.5 7h5a.5.5 0 0 1 0 1h-5a.5.5 0 0 1 0-1Zm5.5 3.5a.5.5 0 0 1-.5.5h-5a.5.5 0 0 1 0-1h5c.28 0 .5.22.5.5ZM7.5 13h2a.5.5 0 0 1 0 1h-2a.5.5 0 0 1 0-1Z"/></svg>