<svg width="20" height="20" viewBox="0 0 20 20" xmlns="http://www.w3.org/2000/svg"><path d="M2.18 1.61a.5.5 0 0 1 .54-.06L17.5 10h-.01a.5.5 0 0 1-.21-.05l-14.01-7L4.88 9h6.62a.5.5 0 1 1 0 1H4.88l-1.61 6.06L12 11.69c.04.35.2.66.45.89l-9.74 4.87a.5.5 0 0 1-.7-.58L3.98 9.5 2.02 2.13a.5.5 0 0 1 .16-.52Zm.54-.06L17.51 10a.5.5 0 0 0 .21-.95l-15-7.5ZM17 14.4a2 2 0 0 0 .22.92l.35.68h-4.14l.35-.67a2 2 0 0 0 .22-.92V12h-.5a.5.5 0 1 1 0-1h4a.5.5 0 0 1 0 1H17v2.4ZM12.9 17l-.8 1.54a1 1 0 0 0 .9 1.46H18a1 1 0 0 0 .89-1.46l-.8-1.54H12.9Z"/></svg>