<svg width="24" height="24" viewBox="0 0 24 24" xmlns="http://www.w3.org/2000/svg"><path d="m12.81 11.95-7.53 1.26a.5.5 0 0 0-.38.31l-2.6 6.96a.75.75 0 0 0 1.03.94l11.97-5.98a1.75 1.75 0 0 1 .45-3.44h5.5c.15 0 .3.02.44.05a.75.75 0 0 0-.36-.97l-18-9a.75.75 0 0 0-1.03.94l2.6 6.96a.5.5 0 0 0 .38.32l7.53 1.26a.2.2 0 0 1 0 .39Zm2.94 2.55h.75v2.7a2 2 0 0 1-.26.99l-.47.81h5.46l-.47-.81a2 2 0 0 1-.26-1V14.5h.75a.75.75 0 0 0 0-1.5h-5.5a.75.75 0 0 0 0 1.5ZM15.2 20l-1 1.76A1.5 1.5 0 0 0 15.5 24h6a1.5 1.5 0 0 0 1.3-2.24l-1-1.76h-6.6Z"/></svg>