<svg width="24" height="24" viewBox="0 0 24 24" xmlns="http://www.w3.org/2000/svg"><path d="M18 11.09 4.4 4.3 7.01 11h6.63c.38 0 .7.28.74.65v.1c0 .38-.27.7-.64.75H7.01l-2.6 6.71 9.7-4.85c.2.53.64.93 1.19 1.08L3.33 21.42a.75.75 0 0 1-1.06-.84l.03-.1 3.4-8.73-3.4-8.73a.73.73 0 0 1 .1-.73.75.75 0 0 1 .94-.21l18 9c.36.18.5.61.35.97a1.75 1.75 0 0 0-.44-.05h-1.43L18 11.09Zm-2.25 3.41h.75v2.7a2 2 0 0 1-.26.99l-.47.81h5.46l-.47-.81a2 2 0 0 1-.26-1V14.5h.75a.75.75 0 0 0 0-1.5h-5.5a.75.75 0 0 0 0 1.5ZM15.2 20l-1 1.76A1.5 1.5 0 0 0 15.5 24h6a1.5 1.5 0 0 0 1.3-2.24l-1-1.76h-6.6Z"/></svg>