<svg width="28" height="28" viewBox="0 0 28 28" xmlns="http://www.w3.org/2000/svg"><path d="M3.79 1.87a1.25 1.25 0 0 0-1.75 1.46l2.02 7.53a1 1 0 0 0 .82.73L14.77 13c.28.04.28.46 0 .5l-9.88 1.4a1 1 0 0 0-.83.74l-2.02 7.54a1.25 1.25 0 0 0 1.75 1.45L18 17.85v-.35h-.25a1.75 1.75 0 1 1 0-3.5h7.5c.16 0 .31.02.46.06.5-.59.36-1.56-.42-1.94L3.79 1.87Zm13.2 13.88c0-.41.34-.75.76-.75h7.5a.75.75 0 1 1 0 1.5H24v3.8a2 2 0 0 0 .26 1l.69 1.2h-6.9l.69-1.2a2 2 0 0 0 .26-.99V16.5h-1.25a.75.75 0 0 1-.75-.75Zm.2 8.25-1 1.76A1.5 1.5 0 0 0 17.5 28h8a1.5 1.5 0 0 0 1.3-2.24l-1-1.76h-8.6Z"/></svg>