<svg width="28" height="28" viewBox="0 0 28 28" xmlns="http://www.w3.org/2000/svg"><path d="M2.04 3.33A1.25 1.25 0 0 1 3.8 1.87l21.5 10.25c.78.38.92 1.35.42 1.94-.15-.04-.3-.06-.46-.06H22.6l1.57-.75L3.63 3.46l2.42 9.04h11.2a.75.75 0 0 1 0 1.5H6.05l-2.42 9.04 12.83-6.11c.32.35.78.57 1.29.57H18v.35L3.79 24.63a1.25 1.25 0 0 1-1.75-1.45l2.66-9.93-2.66-9.92ZM17 15.75c0-.41.33-.75.75-.75h7.5a.75.75 0 1 1 0 1.5H24v3.8a2 2 0 0 0 .26 1l.69 1.2h-6.9l.69-1.2a2 2 0 0 0 .26-.99V16.5h-1.25a.75.75 0 0 1-.75-.75Zm.2 8.25-1 1.76A1.5 1.5 0 0 0 17.5 28h8a1.5 1.5 0 0 0 1.3-2.24l-1-1.76h-8.6Z"/></svg>