<svg width="32" height="32" viewBox="0 0 32 32" xmlns="http://www.w3.org/2000/svg"><path d="M2.08 2.97 5.95 15 2.08 27.04a1.5 1.5 0 0 0 2.1 1.8l16.32-8.16v-.23a2.5 2.5 0 0 1-1.66-1.18l-14.5 7.25L7.73 16H19a1 1 0 1 0 0-2H7.73L4.34 3.48l.15.08.06.03 24 12a1 1 0 0 0 .9-1.79L25 11.58 4.17 1.16a1.5 1.5 0 0 0-2.1 1.8ZM21 17a1 1 0 1 0 0 2h1v4.66a3 3 0 0 1-.44 1.56l-.47.78h7.82l-.47-.78a3 3 0 0 1-.44-1.56V19h1a1 1 0 1 0 0-2h-8Zm-1.7 11.96.88-1.46h9.64l.88 1.46A2 2 0 0 1 29 32h-8a2 2 0 0 1-1.7-3.04Z"/></svg>