<svg width="48" height="48" viewBox="0 0 48 48" xmlns="http://www.w3.org/2000/svg"><path d="M7.26 3.24a2.25 2.25 0 0 0-3.14 2.72l4 12.3A2 2 0 0 0 9.7 19.6l15.86 2.65c.84.13.84 1.34 0 1.47L9.7 26.38a2 2 0 0 0-1.57 1.35L4.12 40.04a2.25 2.25 0 0 0 3.14 2.71L32 30.4v-.9a3.25 3.25 0 0 1 .25-6.49H44c0-.8-.41-1.6-1.24-2.01L7.26 3.24ZM31 26.25c0-.69.56-1.25 1.25-1.25h11.5a1.25 1.25 0 0 1 0 2.5H42v6.27a5 5 0 0 0 .77 2.67l.98 1.56h-11.5l.98-1.56a5 5 0 0 0 .77-2.67V27.5h-1.75c-.7 0-1.25-.56-1.25-1.25ZM30.98 40l-1.51 2.4A3 3 0 0 0 32 47h12a3 3 0 0 0 2.53-4.6L45.02 40H30.98Z"/></svg>