<svg width="48" height="48" viewBox="0 0 48 48" xmlns="http://www.w3.org/2000/svg"><path d="M4.13 5.96a2.25 2.25 0 0 1 3.14-2.7l35.49 17.73A2.22 2.22 0 0 1 44 23.01l-.25-.01H41.2L6.69 5.76l5.22 16h16.84a1.25 1.25 0 0 1 0 2.5H11.91L6.69 40.24 30 28.6c.53.5 1.23.83 2 .9v.9L7.27 42.74a2.25 2.25 0 0 1-3.14-2.7L9.69 23 4.13 5.96ZM31 26.25c0-.69.56-1.25 1.25-1.25h11.5a1.25 1.25 0 0 1 0 2.5H42v6.27a5 5 0 0 0 .77 2.67l.98 1.56h-11.5l.98-1.56a5 5 0 0 0 .77-2.67V27.5h-1.75c-.7 0-1.25-.56-1.25-1.25ZM30.98 40l-1.51 2.4A3 3 0 0 0 32 47h12a3 3 0 0 0 2.53-4.6L45.02 40H30.98Z"/></svg>