<svg width="20" height="20" viewBox="0 0 20 20" xmlns="http://www.w3.org/2000/svg"><path d="M3.5 4C2.67 4 2 4.67 2 5.5v8c0 .83.67 1.5 1.5 1.5h13c.83 0 1.5-.67 1.5-1.5v-8c0-.83-.67-1.5-1.5-1.5h-13Zm2.75 3.25a.75.75 0 1 1-1.5 0 .75.75 0 0 1 1.5 0Zm6 0a.75.75 0 1 1-1.5 0 .75.75 0 0 1 1.5 0ZM5 12.5c0-.28.22-.5.5-.5h9a.5.5 0 0 1 0 1h-9a.5.5 0 0 1-.5-.5ZM14.5 8a.75.75 0 1 1 0-1.5.75.75 0 0 1 0 1.5ZM7 10.5A.75.75 0 1 1 7 9a.75.75 0 0 1 0 1.5Zm3.75-.75a.75.75 0 1 1-1.5 0 .75.75 0 0 1 1.5 0Zm2.26.75A.75.75 0 1 1 13 9a.75.75 0 0 1 0 1.5ZM9.25 7.25a.75.75 0 1 1-1.5 0 .75.75 0 0 1 1.5 0Z"/></svg>