<svg width="16" height="16" viewBox="0 0 16 16" xmlns="http://www.w3.org/2000/svg"><path d="M3 10.5c0-.28.22-.5.5-.5h9a.5.5 0 0 1 0 1h-9a.5.5 0 0 1-.5-.5ZM3.25 7a.75.75 0 1 0 0-1.5.75.75 0 0 0 0 1.5ZM10 6.25a.75.75 0 1 1-1.5 0 .75.75 0 0 1 1.5 0ZM6.25 7a.75.75 0 1 0 0-1.5.75.75 0 0 0 0 1.5ZM13 6.25a.75.75 0 1 1-1.5 0 .75.75 0 0 1 1.5 0ZM5.25 9a.75.75 0 1 0 0-1.5.75.75 0 0 0 0 1.5ZM9 8.25a.75.75 0 1 1-1.5 0 .75.75 0 0 1 1.5 0Zm2.25.75a.75.75 0 1 0 0-1.5.75.75 0 0 0 0 1.5ZM1 4.75C1 3.78 1.78 3 2.75 3h10.5c.97 0 1.75.78 1.75 1.75v6.5c0 .97-.78 1.75-1.75 1.75H2.75C1.78 13 1 12.22 1 11.25v-6.5ZM2.75 4a.75.75 0 0 0-.75.75v6.5c0 .41.34.75.75.75h10.5c.41 0 .75-.34.75-.75v-6.5a.75.75 0 0 0-.75-.75H2.75Z"/></svg>