<svg width="20" height="20" viewBox="0 0 20 20" xmlns="http://www.w3.org/2000/svg"><path d="M7.09 3c.2-.58.76-1 1.41-1h3c.65 0 1.2.42 1.41 1h1.59c.83 0 1.5.67 1.5 1.5V9h-3.5A3.5 3.5 0 009 12.5v4c0 .54.12 1.05.34 1.5H5.5A1.5 1.5 0 014 16.5v-12C4 3.67 4.67 3 5.5 3h1.59zM8.5 3a.5.5 0 000 1h3a.5.5 0 000-1h-3zm1.5 9.5a2.5 2.5 0 012.5-2.5h4a2.5 2.5 0 012.5 2.5v4c0 .5-.15.98-.41 1.38l-3.03-3.03a1.5 1.5 0 00-2.12 0l-3.03 3.03c-.26-.4-.41-.87-.41-1.38v-4zm7 .25a.75.75 0 10-1.5 0 .75.75 0 001.5 0zm-5.88 5.84c.4.26.87.41 1.38.41h4c.5 0 .98-.15 1.38-.41l-3.03-3.03a.5.5 0 00-.7 0l-3.03 3.03z"/></svg>