<svg width="24" height="24" viewBox="0 0 24 24" xmlns="http://www.w3.org/2000/svg"><path d="M13.75 2c1.16 0 2.11.88 2.24 2h1.76C18.99 4 20 5 20 6.25V11h-1.5V6.25a.75.75 0 00-.75-.75h-2.13c-.4.6-1.09 1-1.87 1h-3.5c-.78 0-1.47-.4-1.87-1H6.25a.75.75 0 00-.75.75v13.5c0 .41.34.75.75.75h4.78c.07.54.24 1.05.5 1.5H6.26C5.01 22 4 21 4 19.75V6.25C4 5.01 5 4 6.25 4h1.76c.13-1.13 1.08-2 2.24-2h3.5zm2.24 2.1l.01.15V4.1zm-2.24-.6h-3.5a.75.75 0 000 1.5h3.5a.75.75 0 000-1.5zM15 12a3 3 0 00-3 3v5c0 .56.15 1.08.42 1.52l3.49-3.49c.88-.88 2.3-.88 3.18 0l3.5 3.5c.26-.45.41-.97.41-1.53v-5a3 3 0 00-3-3h-5zm0 11c-.56 0-1.08-.15-1.52-.42l3.49-3.49c.3-.3.77-.3 1.06 0l3.5 3.5c-.45.26-.97.41-1.53.41h-5zm5-7a1 1 0 110-2 1 1 0 010 2z"/></svg>