<svg width="24" height="24" viewBox="0 0 24 24" xmlns="http://www.w3.org/2000/svg"><path d="M12 2v6c0 1.1.9 2 2 2h6v10.5c0 .83-.67 1.5-1.5 1.5H13v-8a2 2 0 00-2-2H4V3.5C4 2.67 4.67 2 5.5 2H12zm1.5.5V8c0 .28.22.5.5.5h5.5l-6-6zm-6.25 15a.75.75 0 00-1.5 0V21a.75.75 0 001.5 0v-3.5zm0-2.25a.75.75 0 11-1.5 0 .75.75 0 011.5 0zm-2.75-1.5c0 .41-.34.75-.75.75H2.5v7h1.25a.75.75 0 010 1.5H2.5A1.5 1.5 0 011 21.5v-7c0-.83.67-1.5 1.5-1.5h1.25c.41 0 .75.34.75.75zm4.75.75a.75.75 0 010-1.5h1.25c.83 0 1.5.67 1.5 1.5v7c0 .83-.67 1.5-1.5 1.5H9.25a.75.75 0 010-1.5h1.25v-7H9.25z"/></svg>