<svg width="48" height="48" viewBox="0 0 48 48" xmlns="http://www.w3.org/2000/svg"><path d="M25 5.25a1.25 1.25 0 10-2.5 0V6H9.25A5.25 5.25 0 004 11.25v20.5C4 34.65 6.35 37 9.25 37h6.6l-4.52 4.9a1.25 1.25 0 101.84 1.7l6-6.5.08-.1h7.17a5.02 5.02 0 012.4-2.5H9.25a2.75 2.75 0 01-2.75-2.75v-20.5A2.75 2.75 0 019.25 8.5h29.5a2.75 2.75 0 012.75 2.75v12.39A6.98 6.98 0 0144 29V11.25C44 8.35 41.65 6 38.75 6H25v-.75zM12.25 13.5a1.25 1.25 0 100 2.5h9.5a1.25 1.25 0 100-2.5h-9.5zM11 21.75c0-.69.56-1.25 1.25-1.25h14.5a1.25 1.25 0 110 2.5h-14.5c-.69 0-1.25-.56-1.25-1.25zm0 7c0-.69.56-1.25 1.25-1.25h11.5a1.25 1.25 0 110 2.5h-11.5c-.69 0-1.25-.56-1.25-1.25zM42 29a5 5 0 11-10 0 5 5 0 0110 0zm4 10.5c0 3.5-3.15 6.5-9 6.5s-9-3-9-6.5V39a3 3 0 013-3h12a3 3 0 013 3v.5z"/></svg>