<svg width="24" height="24" viewBox="0 0 24 24" xmlns="http://www.w3.org/2000/svg"><path d="M12.5 2.75a.75.75 0 00-1.5 0V3H5.25A3.25 3.25 0 002 6.25v9.5C2 17.55 3.46 19 5.25 19h2.4l-1.48 1.77a.75.75 0 001.16.96L9.6 19h3.5c.19-.61.57-1.14 1.08-1.5H5.25c-.97 0-1.75-.78-1.75-1.75v-9.5c0-.97.78-1.75 1.75-1.75h13.5c.97 0 1.75.78 1.75 1.75v5.38A3.5 3.5 0 0122 14.5V6.25C22 4.45 20.54 3 18.75 3H12.5v-.25zm-6.5 5c0-.41.34-.75.75-.75h4a.75.75 0 010 1.5h-4A.75.75 0 016 7.75zM6.75 10a.75.75 0 000 1.5h6.5a.75.75 0 000-1.5h-6.5zM6 13.75c0-.41.34-.75.75-.75h5.5a.75.75 0 010 1.5h-5.5a.75.75 0 01-.75-.75zm15 .75a2.5 2.5 0 11-5 0 2.5 2.5 0 015 0zm2 5.38c0 1.55-1.29 3.12-4.5 3.12S14 21.44 14 19.87v-.1c0-.98.8-1.77 1.77-1.77h5.46c.98 0 1.77.8 1.77 1.77v.1z"/></svg>