<svg width="28" height="28" viewBox="0 0 28 28" xmlns="http://www.w3.org/2000/svg"><path d="M14.25 2c.41 0 .75.34.75.75V3h7.75a3.29 3.29 0 0 1 1.2.23A3.25 3.25 0 0 1 26 6.25v10.5c0 .14-.11.25-.25.25a.26.26 0 0 1-.26-.25A4 4 0 1 0 18.85 20h-.8c-1.32 0-2.44.83-2.87 2h-4.6l-3.27 3.74a.75.75 0 0 1-1.13-.98L8.6 22H5.25l-.45-.03A3.25 3.25 0 0 1 2 18.75V6.25C2 4.45 3.46 3 5.25 3h8.25v-.25c0-.41.33-.75.75-.75Zm-7.5 5.5a.75.75 0 1 0 0 1.5h5.5a.75.75 0 1 0 0-1.5h-5.5ZM6 12.25c0 .41.33.75.75.75h10.5a.75.75 0 0 0 0-1.5H6.75a.75.75 0 0 0-.75.75Zm0 4c0 .41.33.75.75.75h8.5a.75.75 0 1 0 0-1.5h-8.5a.75.75 0 0 0-.75.75Zm18.5.75a3 3 0 1 1-6 0 3 3 0 0 1 6 0Zm2.5 6.25c0 1.87-1.57 3.75-5.5 3.75-3.93 0-5.5-1.88-5.5-3.75v-.2c0-1.13.92-2.05 2.05-2.05h6.9c1.13 0 2.05.92 2.05 2.04v.21Z"/></svg>