<svg width="28" height="28" viewBox="0 0 28 28" xmlns="http://www.w3.org/2000/svg"><path d="M14.25 2c.41 0 .75.34.75.75V3h7.75C24.55 3 26 4.46 26 6.25v10.5c0 .14-.11.25-.25.25a.26.26 0 01-.26-.25 3.98 3.98 0 00-.99-2.4v-8.1c0-.97-.78-1.75-1.75-1.75H5.25c-.97 0-1.75.78-1.75 1.75v12.5c0 .97.78 1.75 1.75 1.75h11.12c-.54.36-.96.88-1.19 1.5h-4.6l-3.27 3.74a.75.75 0 01-1.13-.99L8.59 22H5.25A3.25 3.25 0 012 18.75V6.25C2 4.45 3.46 3 5.25 3h8.25v-.25c0-.41.34-.75.75-.75zm-7.5 5.5a.75.75 0 100 1.5h5.5a.75.75 0 100-1.5h-5.5zm0 4a.75.75 0 100 1.5h10.5a.75.75 0 000-1.5H6.75zm0 4a.75.75 0 100 1.5h8.5a.75.75 0 100-1.5h-8.5zM24.5 17a3 3 0 11-6 0 3 3 0 016 0zm2.5 6.25c0 1.87-1.57 3.75-5.5 3.75-3.93 0-5.5-1.88-5.5-3.75v-.2c0-1.13.92-2.05 2.05-2.05h6.9c1.13 0 2.05.92 2.05 2.04v.21z"/></svg>