<svg width="48" height="48" viewBox="0 0 48 48" xmlns="http://www.w3.org/2000/svg"><path d="M23.75 4c.69 0 1.25.56 1.25 1.25V6h13.75C41.65 6 44 8.35 44 11.25V29a7 7 0 10-11.9 5H31a5 5 0 00-4.58 3h-7.17l-.08.1-6 6.5a1.25 1.25 0 11-1.84-1.7l4.53-4.9H9.25A5.25 5.25 0 014 31.75v-20.5C4 8.35 6.35 6 9.25 6H22.5v-.75c0-.69.56-1.25 1.25-1.25zm-11.5 9.5a1.25 1.25 0 100 2.5h9.5a1.25 1.25 0 100-2.5h-9.5zM11 21.75c0 .69.56 1.25 1.25 1.25h14.5a1.25 1.25 0 100-2.5h-14.5c-.69 0-1.25.56-1.25 1.25zm0 7c0 .69.56 1.25 1.25 1.25h11.5a1.25 1.25 0 100-2.5h-11.5c-.69 0-1.25.56-1.25 1.25zM42 29a5 5 0 11-10 0 5 5 0 0110 0zm4 10.5c0 3.5-3.15 6.5-9 6.5s-9-3-9-6.5V39a3 3 0 013-3h12a3 3 0 013 3v.5z"/></svg>