<svg width="20" height="20" viewBox="0 0 20 20" xmlns="http://www.w3.org/2000/svg"><path d="M2 4.75A2.75 2.75 0 0 1 4.75 2h10.5A2.75 2.75 0 0 1 18 4.75v5.5a5.5 5.5 0 0 0-1-.65V8H8.7l1.65 1.65a.5.5 0 0 1-.7.7L8 8.71V13h1.2c-.08.32-.15.66-.18 1H4.75A2.75 2.75 0 0 1 2 11.25v-6.5ZM4.75 3C3.78 3 3 3.78 3 4.75V7h1.27A2 2 0 0 1 7 4.27V3H4.75ZM8 3v1.27A2 2 0 0 1 10.73 7H17V4.75C17 3.78 16.22 3 15.25 3H8Zm0 4h1a1 1 0 1 0-1-1v1ZM6 5a1 1 0 0 0 0 2h1V6a1 1 0 0 0-1-1Zm-3 6.25c0 .97.78 1.75 1.75 1.75H7V8.7l-1.65 1.65a.5.5 0 0 1-.7-.7L6.29 8H3v3.25Zm16 3.25a4.5 4.5 0 1 1-9 0 4.5 4.5 0 0 1 9 0Zm-4-2a.5.5 0 0 0-1 0V14h-1.5a.5.5 0 0 0 0 1H14v1.5a.5.5 0 0 0 1 0V15h1.5a.5.5 0 0 0 0-1H15v-1.5Z"/></svg>