<svg width="28" height="28" viewBox="0 0 28 28" xmlns="http://www.w3.org/2000/svg"><path d="M3 6.75A3.75 3.75 0 0 1 6.75 3h14.5A3.75 3.75 0 0 1 25 6.75v14.5A3.75 3.75 0 0 1 21.25 25H6.75A3.75 3.75 0 0 1 3 21.25V6.75ZM6.75 4.5c-1.24 0-2.25 1-2.25 2.25v14.5c0 1.24 1 2.25 2.25 2.25H16v-19H6.75Zm14.5 19c1.24 0 2.25-1 2.25-2.25V18.5h-6v5h3.75ZM23.5 17v-6h-6v6h6Zm0-7.5V6.75c0-1.24-1-2.25-2.25-2.25H17.5v5h6Zm-15.75-2c-.69 0-1.25.56-1.25 1.25v3.5c0 .69.56 1.25 1.25 1.25h5c.69 0 1.25-.56 1.25-1.25v-3.5c0-.69-.56-1.25-1.25-1.25h-5ZM8 12V9h4.5v3H8Zm-1.5 4.25c0-.41.34-.75.75-.75h6a.75.75 0 0 1 0 1.5h-6a.75.75 0 0 1-.75-.75ZM7.25 19a.75.75 0 0 0 0 1.5h6a.75.75 0 0 0 0-1.5h-6Z"/></svg>