<svg width="16" height="16" viewBox="0 0 16 16" xmlns="http://www.w3.org/2000/svg"><path d="M3.59 4.41 1.4 6.6a2 2 0 0 0 0 2.82L3.6 11.6a2 2 0 0 0 2.82 0L8.6 9.4a2 2 0 0 0 0-2.82L6.4 4.4a2 2 0 0 0-2.82 0ZM2.12 7.3 4.3 5.12a1 1 0 0 1 1.42 0L7.88 7.3a1 1 0 0 1 0 1.42L5.7 10.88a1 1 0 0 1-1.42 0L2.12 8.7a1 1 0 0 1 0-1.42Zm7.47 4.3-.88-.88.58-.59.12-.12.88.88a1 1 0 0 0 1.42 0l2.17-2.17a1 1 0 0 0 0-1.42L11.7 5.12a1 1 0 0 0-1.42 0L9.41 6a3.05 3.05 0 0 0-.12-.12l-.58-.59.88-.88a2 2 0 0 1 2.82 0L14.6 6.6a2 2 0 0 1 0 2.82L12.4 11.6a2 2 0 0 1-2.82 0Z"/></svg>