<svg width="24" height="24" viewBox="0 0 24 24" xmlns="http://www.w3.org/2000/svg"><path d="M12.75 4h7.5C21.2 4 22 4.8 22 5.75v12.5c0 .97-.79 1.75-1.75 1.75H3.75C2.78 20 2 19.2 2 18.25V5.75C2 4.8 2.78 4 3.75 4h9zm7.5 1.5h-7.5v13h7.5c.13 0 .25-.11.25-.25V5.75a.25.25 0 00-.25-.25zm-9 0h-7.5a.25.25 0 00-.25.25v12.5c0 .14.11.25.25.25h7.5v-13zM16.5 7c.38 0 .7.28.75.65v6.8l.97-.96a.75.75 0 01.98-.08l.08.08c.27.26.3.68.07.97l-.07.09-2.25 2.23-.04.04-.06.05-.07.04-.06.03-.1.03-.06.02-.1.01h-.09l-.09-.01-.1-.03-.1-.04-.08-.05-.11-.09-2.25-2.23a.75.75 0 010-1.06.75.75 0 01.98-.08l.08.08.97.96v-6.7c0-.35.23-.64.55-.72l.1-.02h.1z"/></svg>