<svg width="24" height="24" viewBox="0 0 24 24" xmlns="http://www.w3.org/2000/svg"><path d="M14 3H6.25A3.25 3.25 0 0 0 3 6.25V8.5h11V3Zm1.5 5.5H21V6.25C21 4.45 19.54 3 17.75 3H15.5v5.5ZM10 10v4h2.02A6.5 6.5 0 0 1 21 12.02V10H10Zm-7 5.5h8.31a6.5 6.5 0 0 0 .71 5.5H6.25A3.25 3.25 0 0 1 3 17.75V15.5ZM8.5 10H3v4h5.5v-4Zm9 13a5.5 5.5 0 1 0 0-11 5.5 5.5 0 0 0 0 11Zm-2-3h4a.5.5 0 0 1 0 1h-4a.5.5 0 0 1 0-1Zm3.39-5.81a.5.5 0 0 1-.08.7L16.8 16.5l2.01 1.61a.5.5 0 1 1-.62.78l-2.5-2a.5.5 0 0 1 0-.78l2.5-2a.5.5 0 0 1 .7.08Z"/></svg>