<svg width="24" height="24" viewBox="0 0 24 24" xmlns="http://www.w3.org/2000/svg"><path d="M6.25 3A3.25 3.25 0 0 0 3 6.25v11.5C3 19.55 4.46 21 6.25 21h5.77c-.3-.46-.53-.97-.7-1.5H6.24c-.97 0-1.75-.78-1.75-1.75V15.5h6.81c.18-.53.42-1.04.71-1.5H10v-4h9.5v1.31c.53.18 1.04.42 1.5.71V6.25C21 4.45 19.54 3 17.75 3H6.25ZM4.5 6.25c0-.97.78-1.75 1.75-1.75H14v4H4.5V6.25Zm0 3.75h4v4h-4v-4Zm15-1.5h-4v-4h2.25c.97 0 1.75.78 1.75 1.75V8.5Zm-2 14.5a5.5 5.5 0 1 0 0-11 5.5 5.5 0 0 0 0 11Zm-2-3h4a.5.5 0 0 1 0 1h-4a.5.5 0 0 1 0-1Zm3.39-5.81a.5.5 0 0 1-.08.7L16.8 16.5l2.01 1.61a.5.5 0 1 1-.62.78l-2.5-2a.5.5 0 0 1 0-.78l2.5-2a.5.5 0 0 1 .7.08Z"/></svg>