<svg width="16" height="16" viewBox="0 0 16 16" xmlns="http://www.w3.org/2000/svg"><path d="M10 7h.5a.5.5 0 1 1 0 1H10V7Zm.85-3.85a.5.5 0 0 1-.35.85H9.5c-.14-.18-.3-.35-.49-.48V3.5a.5.5 0 0 1 .5-.5h1a.5.5 0 0 1 .35.15Zm3.13 5.2 1 3a.5.5 0 0 1-.48.65h-3.26l-.32-.98-.01-.02h2.9l-.67-2h-.23a1.5 1.5 0 0 1-1.4 1H10V9h1.5a.5.5 0 0 0 .5-.5v-6a.5.5 0 0 0-.5-.5H8.5a.5.5 0 0 0-.5.5v.55A2.5 2.5 0 0 0 7.5 3H7v-.5A1.5 1.5 0 0 1 8.5 1h3A1.5 1.5 0 0 1 13 2.5V8h.5a.5.5 0 0 1 .48.34Zm-8.83-2.2A.5.5 0 0 0 5.5 7h1a.5.5 0 1 0 0-1h-1a.5.5 0 0 0-.35.15ZM6.5 11h-1a.5.5 0 0 1 0-1h1a.5.5 0 0 1 0 1Zm4.23 3.94a.5.5 0 0 0 .25-.6l-1-3A.5.5 0 0 0 9.5 11H9V5.5A1.5 1.5 0 0 0 7.5 4h-3A1.5 1.5 0 0 0 3 5.5V11h-.5a.5.5 0 0 0-.47.34l-1 3a.5.5 0 0 0 .47.66h9a.5.5 0 0 0 .23-.06Zm-6.58-3.09A.5.5 0 0 1 4 11.5v-6a.5.5 0 0 1 .5-.5h3a.5.5 0 0 1 .5.5v6a.5.5 0 0 1-.5.5h-3a.5.5 0 0 1-.35-.15ZM8.9 12h.23l.67 2H2.19l.67-2h.23a1.5 1.5 0 0 0 1.41 1h3a1.5 1.5 0 0 0 1.4-1Z"/></svg>