<svg width="16" height="16" viewBox="0 0 16 16" xmlns="http://www.w3.org/2000/svg"><path d="M10 8h.5a.5.5 0 1 0 0-1H10V5.5A2.47 2.47 0 0 0 9.5 4h1a.5.5 0 1 0 0-1h-1a.5.5 0 0 0-.5.5v.01A2.47 2.47 0 0 0 7.5 3H7v-.5A1.5 1.5 0 0 1 8.5 1h3A1.5 1.5 0 0 1 13 2.5v6c0 .83-.67 1.5-1.5 1.5H10V8Zm4 .41.97 2.93a.5.5 0 0 1-.07.45.5.5 0 0 1-.4.21h-3.25l-.33-.97V11h.58A2.5 2.5 0 0 0 14 8.5v-.09Zm-4 3 .98 2.93a.5.5 0 0 1-.07.45.5.5 0 0 1-.4.21h-9a.5.5 0 0 1-.5-.42.5.5 0 0 1 .02-.24L2 11.42v.08A2.5 2.5 0 0 0 4.5 14h3a2.5 2.5 0 0 0 2.5-2.5v-.09ZM7.5 13h-3A1.5 1.5 0 0 1 3 11.5v-6A1.5 1.5 0 0 1 4.5 4h3A1.5 1.5 0 0 1 9 5.5v6c0 .83-.67 1.5-1.5 1.5Zm-2-7a.5.5 0 1 0 0 1h1a.5.5 0 1 0 0-1h-1Zm0 4a.5.5 0 1 0 0 1h1a.5.5 0 1 0 0-1h-1Z"/></svg>