<svg width="20" height="20" viewBox="0 0 20 20" xmlns="http://www.w3.org/2000/svg"><path d="M11 2a5 5 0 0 0-4 2 6 6 0 0 1 5.23 3.05c.25-.03.5-.05.77-.05h3V3.34C16 2.6 15.4 2 14.66 2H11ZM7.34 14.99 7 15a5 5 0 0 1-5-5V6.34C2 5.6 2.6 5 3.34 5H7a5 5 0 0 1 4.2 2.28 6.02 6.02 0 0 0-3.43 2.78L6.35 8.65a.5.5 0 1 0-.7.7l1.68 1.69a6 6 0 0 0 0 3.95ZM8 13a5 5 0 0 1 5-5h3.66C17.4 8 18 8.6 18 9.34V13a5 5 0 0 1-8.16 3.87l-.99.98a.5.5 0 0 1-.7-.7l.98-.99A4.98 4.98 0 0 1 8 13Zm2.55 3.16 3.3-3.3a.5.5 0 0 0-.7-.71l-3.31 3.3c.2.27.44.5.7.71Z"/></svg>