<svg width="24" height="24" viewBox="0 0 24 24" xmlns="http://www.w3.org/2000/svg"><path d="M5.45 6.51L2.22 3.28a.75.75 0 111.06-1.06l18.5 18.5a.75.75 0 01-1.06 1.06L17 18.06v3.19c0 .57-.6.92-1.1.67l-.08-.06L12 19.18l-3.82 2.68a.75.75 0 01-1.17-.5v-.11L7 13.9A6.98 6.98 0 015.45 6.5zM15.5 16.56l-1.01-1.01a6.98 6.98 0 01-5.99-.49v4.74l3.07-2.15a.75.75 0 01.76-.06l.1.06 3.07 2.16v-3.25zm-2.21-2.21L6.65 7.7a5.51 5.51 0 006.64 6.64zM17.5 9c0 1.47-.58 2.81-1.52 3.8l1.06 1.06a7 7 0 00-9.9-9.9L8.2 5.02A5.5 5.5 0 0117.5 9z"/></svg>