<svg width="24" height="24" viewBox="0 0 24 24" xmlns="http://www.w3.org/2000/svg"><path d="M2.75 4.5a.75.75 0 0 0-.75.75v.87a.75.75 0 0 0 1.5 0v-.87a.75.75 0 0 0-.75-.75Zm0 3.47a.75.75 0 0 0-.75.75v1.73a.75.75 0 0 0 1.5 0V8.72a.75.75 0 0 0-.75-.75Zm0 4.33a.75.75 0 0 0-.75.75v1.73a.75.75 0 0 0 1.5 0v-1.73a.75.75 0 0 0-.75-.75Zm0 4.33a.75.75 0 0 0-.75.75v.87a.75.75 0 0 0 1.5 0v-.87a.75.75 0 0 0-.75-.75ZM21.25 4.5a.75.75 0 0 0-.75.75v13a.75.75 0 0 0 1.5 0v-13a.75.75 0 0 0-.75-.75ZM5.22 12.28a.75.75 0 0 1 0-1.06l5-5a.75.75 0 1 1 1.06 1.06L7.56 11h10.69a.75.75 0 0 1 0 1.5H7.56l3.72 3.72a.75.75 0 1 1-1.06 1.06l-5-5Z"/></svg>