<svg width="32" height="32" viewBox="0 0 32 32" xmlns="http://www.w3.org/2000/svg"><path d="M21.65 3.43a4.89 4.89 0 1 1 6.91 6.92l-4.01 4.02a9 9 0 0 0-2.47-.37l5.07-5.07a2.89 2.89 0 0 0-4.09-4.08L5.77 22.15c-.23.22-.4.52-.46.84l-1 4.7 4.7-1c.32-.07.61-.23.85-.46L13 23.08a9 9 0 0 0 .37 2.47l-2.1 2.1c-.5.5-1.14.85-1.84 1l-6.22 1.33a1 1 0 0 1-1.19-1.19l1.34-6.22c.14-.7.5-1.34 1-1.84l17.29-17.3ZM22 30.5a7.5 7.5 0 1 0 0-15 7.5 7.5 0 0 0 0 15Zm0-2a5.47 5.47 0 0 1-3.12-.97l7.65-7.65A5.5 5.5 0 0 1 22 28.5Zm3.12-10.03-7.65 7.65a5.5 5.5 0 0 1 7.65-7.65Z"/></svg>