<svg width="24" height="24" viewBox="0 0 24 24" xmlns="http://www.w3.org/2000/svg"><path d="M15.9 3.05a3.58 3.58 0 115.05 5.06l-3.04 3.04a6.52 6.52 0 00-2-.12l3.98-3.98a2.08 2.08 0 00-2.94-2.94L5 16.06a1.6 1.6 0 00-.42.76l-.82 3.42 3.42-.81c.29-.07.55-.22.76-.43l2.09-2.09a6.57 6.57 0 00.12 2L9 20.06c-.4.4-.92.7-1.48.82l-4.6 1.1a.75.75 0 01-.9-.9l1.1-4.6A3.1 3.1 0 013.94 15L15.9 3.05zM22 17.5a5.5 5.5 0 10-11 0 5.5 5.5 0 0011 0zm-9.5 0a4 4 0 016.25-3.3l-5.56 5.55a3.98 3.98 0 01-.69-2.25zm4 4c-.83 0-1.6-.25-2.25-.7l5.56-5.55a4 4 0 01-3.3 6.25z"/></svg>