<svg width="32" height="32" viewBox="0 0 32 32" xmlns="http://www.w3.org/2000/svg"><path d="M21.65 3.43a4.89 4.89 0 116.91 6.92l-4.01 4.02a9 9 0 00-2.47-.37l5.07-5.07a2.89 2.89 0 00-4.09-4.08L5.77 22.15c-.23.23-.4.52-.46.84l-1 4.7 4.7-1c.32-.07.61-.23.85-.46L13 23.09a9 9 0 00.37 2.46l-2.1 2.1c-.5.5-1.14.85-1.84 1l-6.22 1.33a1 1 0 01-1.19-1.19l1.34-6.22c.14-.7.5-1.34 1-1.84l17.29-17.3zM22 30.5a7.5 7.5 0 100-15 7.5 7.5 0 000 15zm0-2a5.48 5.48 0 01-3.12-.97l7.65-7.65A5.5 5.5 0 0122 28.5zm3.12-10.03l-7.65 7.65a5.5 5.5 0 017.65-7.65z"/></svg>