<svg width="16" height="16" viewBox="0 0 16 16" xmlns="http://www.w3.org/2000/svg"><path d="M9.73 1.56a1.91 1.91 0 0 1 2.71 2.7l-.84.85a5.53 5.53 0 0 0-1.31-.1l1.44-1.45a.91.91 0 1 0-1.29-1.3l-7.4 7.4a.65.65 0 0 0-.15.26l-.6 1.79 1.8-.6c.09-.03.18-.08.25-.16L5 10.3a5.6 5.6 0 0 0 .11 1.3l-.06.07c-.19.18-.4.32-.65.4l-2.74.91a.5.5 0 0 1-.63-.63l.91-2.74c.08-.24.22-.46.4-.65l7.4-7.39ZM6 10.5a4.5 4.5 0 1 1 9 0 4.5 4.5 0 0 1-9 0Zm1 0c0 .79.26 1.51.7 2.1l4.9-4.9A3.5 3.5 0 0 0 7 10.5Zm3.5 3.5a3.5 3.5 0 0 0 2.8-5.6l-4.9 4.9c.59.44 1.31.7 2.1.7Z"/></svg>