<svg width="48" height="48" viewBox="0 0 48 48" xmlns="http://www.w3.org/2000/svg"><path d="M32.2 6.03a6.9 6.9 0 119.77 9.76l-6.45 6.45a13.07 13.07 0 00-3.31-.22l8-8a4.4 4.4 0 10-6.24-6.23L9.81 31.96c-.45.45-.77 1-.92 1.61l-1.9 7.45 7.44-1.9a3.5 3.5 0 001.6-.92l4-3.99a13.15 13.15 0 00.21 3.31l-2.43 2.44a6 6 0 01-2.76 1.58l-9.49 2.42a1.25 1.25 0 01-1.52-1.52l2.43-9.48a6 6 0 011.57-2.76L32.2 6.03zM33 46a11 11 0 100-22 11 11 0 000 22zm0-2.5c-1.9 0-3.65-.62-5.06-1.67l11.89-11.9A8.5 8.5 0 0133 43.5zm5.06-15.33l-11.89 11.9a8.5 8.5 0 0111.9-11.9z"/></svg>