<svg width="48" height="48" viewBox="0 0 48 48" xmlns="http://www.w3.org/2000/svg"><path d="M32.2 6.03a6.9 6.9 0 1 1 9.77 9.76l-6.45 6.45a13.07 13.07 0 0 0-3.31-.22l8-8a4.4 4.4 0 1 0-6.24-6.23L9.81 31.96c-.45.45-.77 1-.92 1.61l-1.9 7.45 7.44-1.9a3.5 3.5 0 0 0 1.6-.92l4-3.99a13.15 13.15 0 0 0 .21 3.31l-2.43 2.44a6 6 0 0 1-2.76 1.58l-9.49 2.42a1.25 1.25 0 0 1-1.52-1.52l2.43-9.49a6 6 0 0 1 1.57-2.75L32.2 6.03ZM33 46a11 11 0 1 0 0-22 11 11 0 0 0 0 22Zm0-2.5c-1.9 0-3.65-.62-5.06-1.67l11.89-11.9A8.5 8.5 0 0 1 33 43.5Zm5.06-15.33-11.89 11.9a8.5 8.5 0 0 1 11.9-11.9Z"/></svg>