<svg width="24" height="24" viewBox="0 0 24 24" xmlns="http://www.w3.org/2000/svg"><path d="M14 4a1 1 0 01-1 1h-2a1 1 0 110-2h2a1 1 0 011 1zm-9 7a1 1 0 10-2 0v2a1 1 0 102 0v-2zm14 0a1 1 0 112 0v2a1 1 0 11-2 0v-2zM6 3a1 1 0 010 2 1 1 0 00-1 1 1 1 0 01-2 0 3 3 0 013-3zm11 1a1 1 0 011-1 3 3 0 013 3 1 1 0 11-2 0 1 1 0 00-1-1 1 1 0 01-1-1zM5.5 17.25v.5c0 .41.34.75.75.75h11.5c.41 0 .75-.34.75-.75v-.5a1.25 1.25 0 112.5 0V18a3.25 3.25 0 01-3.25 3H6.25a3.25 3.25 0 01-3.24-3H3v-.75a1.25 1.25 0 112.5 0z"/></svg>