<svg width="24" height="24" viewBox="0 0 24 24" xmlns="http://www.w3.org/2000/svg"><path d="M5 4c0-1.1.9-2 2-2h5.5v4.75c0 .97.78 1.75 1.75 1.75H19v2.67A6.52 6.52 0 0011.17 19H7a2 2 0 01-2-2V4zm3 1.75c0 .41.34.75.75.75h1.5a.75.75 0 000-1.5h-1.5a.75.75 0 00-.75.75zM8.75 8a.75.75 0 000 1.5h1.5a.75.75 0 000-1.5h-1.5zM8 11.75c0 .41.34.75.75.75h1.5a.75.75 0 000-1.5h-1.5a.75.75 0 00-.75.75zM12.81 22a6.52 6.52 0 01-1.08-1.5H6.5a3 3 0 01-3-3v-1.75a.75.75 0 00-1.5 0v1.75A4.5 4.5 0 006.5 22h6.31zM19 7l-5-5v4.75c0 .14.11.25.25.25H19zm4 10.5a5.5 5.5 0 10-11 0 5.5 5.5 0 0011 0zm-5 .5v2.5a.5.5 0 11-1 0V18h-2.5a.5.5 0 010-1H17v-2.5a.5.5 0 111 0V17h2.5a.5.5 0 010 1H18zM12.5 2H14z"/></svg>