<svg width="24" height="24" viewBox="0 0 24 24" xmlns="http://www.w3.org/2000/svg"><path d="M7 2a2 2 0 00-2 2v13c0 1.1.9 2 2 2h4.17a6.52 6.52 0 01-.17-1.5H7a.5.5 0 01-.5-.5V4c0-.28.22-.5.5-.5h5.5v3.25c0 .97.78 1.75 1.75 1.75h3.25V11c.52 0 1.02.06 1.5.17v-3.4a2 2 0 00-.59-1.42L14.65 2.6A2 2 0 0013.23 2H7zm7 4.75V4.06L16.94 7h-2.69a.25.25 0 01-.25-.25zM6.5 20.5h5.23c.29.55.65 1.06 1.08 1.5H6.5A4.5 4.5 0 012 17.5v-1.75a.75.75 0 011.5 0v1.75a3 3 0 003 3zM8 5.75c0-.41.34-.75.75-.75h1.5a.75.75 0 010 1.5h-1.5A.75.75 0 018 5.75zM8.75 8a.75.75 0 000 1.5h1.5a.75.75 0 000-1.5h-1.5zm0 3a.75.75 0 000 1.5h1.5a.75.75 0 000-1.5h-1.5zM23 17.5a5.5 5.5 0 10-11 0 5.5 5.5 0 0011 0zm-5 .5v2.5a.5.5 0 11-1 0V18h-2.5a.5.5 0 010-1H17v-2.5a.5.5 0 111 0V17h2.5a.5.5 0 010 1H18z"/></svg>