<svg width="20" height="20" viewBox="0 0 20 20" xmlns="http://www.w3.org/2000/svg"><path d="M10.5 2H5.74C4.78 2 4 2.78 4 3.75v10.5c0 .97.78 1.75 1.75 1.75h3.46c-.1-.32-.16-.66-.19-1H5.75a.75.75 0 0 1-.75-.75V3.75c0-.41.34-.75.75-.75H10v3.5c0 .83.67 1.5 1.5 1.5H15v1.02c.34.03.68.1 1 .19V7.48c-.01-.45-.2-.88-.51-1.2l-3.77-3.77A1.75 1.75 0 0 0 10.5 2Zm.5 1.2.01.02 3.77 3.77.01.01H11.5a.5.5 0 0 1-.5-.5V3.2ZM5.5 17h4.1c.18.36.4.7.66 1H5.5A3.5 3.5 0 0 1 2 14.5v-1a.5.5 0 0 1 1 0v1A2.5 2.5 0 0 0 5.5 17ZM6 5.5c0-.28.22-.5.5-.5h2a.5.5 0 0 1 0 1h-2a.5.5 0 0 1-.5-.5ZM6.5 7a.5.5 0 0 0 0 1h2a.5.5 0 0 0 0-1h-2Zm0 2a.5.5 0 0 0 0 1h2a.5.5 0 0 0 0-1h-2ZM19 14.5a4.5 4.5 0 1 1-9 0 4.5 4.5 0 0 1 9 0Zm-4-2a.5.5 0 0 0-1 0V14h-1.5a.5.5 0 0 0 0 1H14v1.5a.5.5 0 0 0 1 0V15h1.5a.5.5 0 0 0 0-1H15v-1.5Z"/></svg>