<svg width="24" height="24" viewBox="0 0 24 24" xmlns="http://www.w3.org/2000/svg"><path d="M7 7V5a3 3 0 015-2.24A3 3 0 0117 5v2h1.5c.83 0 1.5.67 1.5 1.5v3a6.48 6.48 0 00-5.5.23V7h1V5a1.5 1.5 0 00-2.66-.96c.1.3.16.63.16.96v7.81a6.48 6.48 0 00-.19 9.19H8a4 4 0 01-4-4V8.5C4 7.67 4.67 7 5.5 7H7zm1.5-2v2h3V5a1.5 1.5 0 00-3 0zM23 17.5a5.5 5.5 0 11-11 0 5.5 5.5 0 0111 0zm-7.15-2.35a.5.5 0 00-.7.7l1.64 1.65-1.64 1.65a.5.5 0 00.7.7l1.65-1.64 1.65 1.64a.5.5 0 00.7-.7l-1.64-1.65 1.64-1.65a.5.5 0 00-.7-.7l-1.65 1.64-1.65-1.64z"/></svg>