<svg width="24" height="24" viewBox="0 0 24 24" xmlns="http://www.w3.org/2000/svg"><path d="M7 7V5a3 3 0 015-2.24A3 3 0 0117 5v2h1.5c.83 0 1.5.67 1.5 1.5v3c-.47-.2-.98-.34-1.5-.42V8.5h-3.99v3.23c-.55.28-1.06.65-1.5 1.07V8.5H5.5V18A2.5 2.5 0 008 20.5h3.73c.29.55.65 1.06 1.08 1.5H8a4 4 0 01-4-4V8.5C4 7.67 4.67 7 5.5 7H7zm4.5 0V5a1.5 1.5 0 00-3 0v2h3zM13 7h2.5V5a1.5 1.5 0 00-2.66-.96c.1.3.16.63.16.96v2zm10 10.5a5.5 5.5 0 11-11 0 5.5 5.5 0 0111 0zm-7.15-2.35a.5.5 0 00-.7.7l1.64 1.65-1.64 1.65a.5.5 0 00.7.7l1.65-1.64 1.65 1.64a.5.5 0 00.7-.7l-1.64-1.65 1.64-1.65a.5.5 0 00-.7-.7l-1.65 1.64-1.65-1.64z"/></svg>