<svg width="20" height="20" viewBox="0 0 20 20" xmlns="http://www.w3.org/2000/svg"><path d="M11 2.38a1.5 1.5 0 00-2 0L3.5 7.33c-.32.29-.5.69-.5 1.12v7.05c0 .83.67 1.5 1.5 1.5h11c.83 0 1.5-.67 1.5-1.5V8.45c0-.43-.18-.83-.5-1.12L11 2.38zm-1.33.74a.5.5 0 01.66 0l5.5 4.95c.11.1.17.23.17.38v7.05a.5.5 0 01-.5.5h-11a.5.5 0 01-.5-.5V8.45a.5.5 0 01.17-.38l5.5-4.95zm.83 10.38a.5.5 0 00-1 0v1a.5.5 0 001 0v-1zM10 9c.28 0 .5.22.5.5v1a.5.5 0 01-1 0v-1c0-.28.22-.5.5-.5zm.5-3.5a.5.5 0 00-1 0v1a.5.5 0 101 0v-1z"/></svg>