<svg width="48" height="48" viewBox="0 0 48 48" xmlns="http://www.w3.org/2000/svg"><path d="M23.2 7.78a1.25 1.25 0 011.6 0l13.24 10.83c.3.23.46.59.46.96v19.68c0 .69-.56 1.25-1.25 1.25h-26.5c-.69 0-1.25-.56-1.25-1.25V19.57c0-.37.17-.73.46-.96L23.2 7.78zm3.17-1.93a3.75 3.75 0 00-4.74 0L8.38 16.67A3.75 3.75 0 007 19.57v19.68A3.75 3.75 0 0010.75 43h26.5A3.75 3.75 0 0041 39.25V19.57c0-1.12-.5-2.19-1.38-2.9L26.37 5.85zm-1.12 7.4a1.25 1.25 0 10-2.5 0v2.5a1.25 1.25 0 002.5 0v-2.5zm0 10a1.25 1.25 0 10-2.5 0v2.5a1.25 1.25 0 002.5 0v-2.5zM24 32c.69 0 1.25.56 1.25 1.25v2.5a1.25 1.25 0 01-2.5 0v-2.5c0-.69.56-1.25 1.25-1.25z"/></svg>