<svg width="24" height="24" viewBox="0 0 24 24" xmlns="http://www.w3.org/2000/svg"><path d="M11.52 3.68a.75.75 0 01.96 0l6.75 5.67c.17.14.27.36.27.58v9.82c0 .14-.11.25-.25.25H4.75a.25.25 0 01-.25-.25V9.93c0-.22.1-.44.27-.58l6.75-5.67zm1.93-1.15c-.84-.7-2.06-.7-2.9 0L3.8 8.2c-.5.43-.8 1.06-.8 1.73v9.82c0 .97.78 1.75 1.75 1.75h14.5c.97 0 1.75-.78 1.75-1.75V9.93c0-.67-.3-1.3-.8-1.73l-6.75-5.67zm-.7 4.22a.75.75 0 00-1.5 0v1.5a.75.75 0 001.5 0v-1.5zM12 11c.41 0 .75.34.75.75v1.5a.75.75 0 01-1.5 0v-1.5c0-.41.34-.75.75-.75zm.75 5.75a.75.75 0 00-1.5 0v1.5a.75.75 0 001.5 0v-1.5z"/></svg>