<svg width="20" height="20" viewBox="0 0 20 20" xmlns="http://www.w3.org/2000/svg"><path d="M9 6.5V2H5.5C4.67 2 4 2.67 4 3.5v5.67a3 3 0 0 1 2 2.71l1.44-1.44a1.5 1.5 0 0 1 2.12 2.12L8.12 14a3 3 0 0 1 2.7 2h2.68c.83 0 1.5-.67 1.5-1.5V8h-4.5A1.5 1.5 0 0 1 9 6.5ZM5 12a2 2 0 1 1-4 0 2 2 0 0 1 4 0Zm-1 0a1 1 0 1 0-2 0 1 1 0 0 0 2 0Zm-1.15 5.85a.5.5 0 0 1-.7-.7l6-6a.5.5 0 0 1 .7.7l-6 6Zm10.21.15h-2.23a3 3 0 0 0 .17-1h2a3 3 0 0 0 3-3V8a1 1 0 0 1 1 1v5.06A3.94 3.94 0 0 1 13.06 18ZM8 15a2 2 0 1 1 0 4 2 2 0 0 1 0-4Zm-1 2a1 1 0 1 0 2 0 1 1 0 0 0-2 0Zm3-10.5V2.25L14.75 7H10.5a.5.5 0 0 1-.5-.5Z"/></svg>