<svg width="20" height="20" viewBox="0 0 20 20" xmlns="http://www.w3.org/2000/svg"><path d="M4 4c0-1.1.9-2 2-2h3.59c.4 0 .78.16 1.06.44l3.91 3.91c.28.28.44.67.44 1.06V14a2 2 0 0 1-2 2h-2.17a3 3 0 0 0-.6-1H13a1 1 0 0 0 1-1V8h-3.5A1.5 1.5 0 0 1 9 6.5V3H6a1 1 0 0 0-1 1v5.76a3 3 0 0 0-1-.59V4Zm6-.8v3.3c0 .28.22.5.5.5h3.3L10 3.2ZM8 15a2 2 0 1 1 0 4 2 2 0 0 1 0-4Zm-1 2a1 1 0 0 0 1 1 1 1 0 1 0-1-1Zm4 0a3 3 0 0 1-.17 1h2.23A3.94 3.94 0 0 0 17 14.06V9a1 1 0 0 0-1-1v6a3 3 0 0 1-3 3h-2Zm-8.15.85a.5.5 0 0 1-.7-.7l6-6a.5.5 0 0 1 .7.7l-6 6ZM5 12a2 2 0 1 1-4 0 2 2 0 0 1 4 0Zm-1 0a1 1 0 1 0-2 0 1 1 0 0 0 2 0Z"/></svg>