<svg width="24" height="24" viewBox="0 0 24 24" xmlns="http://www.w3.org/2000/svg"><path d="M3.75 5a.75.75 0 0 0-.75.75V11c0 5 2.96 8.68 8.73 10.95.17.07.37.07.54 0l.43-.17a6.54 6.54 0 0 1-1.67-1.76C6.64 17.96 4.5 14.97 4.5 11V6.48a14.36 14.36 0 0 0 7.5-2.8 14.36 14.36 0 0 0 7.5 2.8v4.25c.54.28 1.04.64 1.48 1.06L21 11V5.75a.75.75 0 0 0-.75-.75c-2.66 0-5.26-.94-7.8-2.85a.75.75 0 0 0-.9 0C9.01 4.05 6.41 5 3.75 5ZM16.5 22a5.5 5.5 0 1 0 0-11 5.5 5.5 0 0 0 0 11Zm-3.3-3.25a4 4 0 0 1 5.56-5.56l-5.57 5.56Zm1.05 1.06 5.56-5.56a4 4 0 0 1-5.56 5.56Z"/></svg>