<svg width="16" height="16" viewBox="0 0 16 16" xmlns="http://www.w3.org/2000/svg"><path d="M12.5 4a.5.5 0 0 0 .5-.5v-2a.5.5 0 0 0-1 0v.75c-1-.69-2.18-1.13-3.46-1.23a.5.5 0 0 0-.08 1c1.05.08 2.03.43 2.86.98h-.82a.5.5 0 0 0 0 1h2Zm-7-1.2a3.7 3.7 0 0 0-2.73.25l-.01.01h-.01a.5.5 0 0 0 .5.88.93.93 0 0 1 .13-.07 2.77 2.77 0 0 1 1.83-.11c.4.11.58.34.67.6.08.23.1.48.11.76-.19-.04-.41-.07-.65-.1a3.9 3.9 0 0 0-2.37.35c-1.46.9-1.25 3.18.46 3.7.76.24 1.5.06 2.07-.19.17-.07.34-.15.5-.24V9a.5.5 0 1 0 1 0V5.44c0-.38 0-.92-.17-1.4A1.9 1.9 0 0 0 5.49 2.8ZM6 7.48a5.9 5.9 0 0 1-.9.48c-.46.2-.94.3-1.38.16-.84-.26-.98-1.43-.23-1.9.4-.24 1.07-.28 1.74-.2.3.03.57.08.77.12v1.34Zm5.49-1.38a.5.5 0 0 0-.98-.2l-.19.95c-.44.02-.87.01-1.29-.02a.5.5 0 1 0-.07 1c.4.03.8.04 1.21.03-.05.4-.08.78-.1 1.14a3.73 3.73 0 0 0-1.83 1.67c-.4.8-.36 1.73.2 2.3.38.39.92.43 1.4.32.2-.05.43-.13.65-.24l.04.12a.5.5 0 0 0 .94-.35l-.13-.37a5.13 5.13 0 0 0 1.57-2.91c.1.03.2.06.28.1.44.19.7.52.81.91.2.77-.22 1.92-1.68 2.48a.5.5 0 0 0 .36.94c1.83-.7 2.65-2.31 2.29-3.68a2.36 2.36 0 0 0-1.38-1.57 2.92 2.92 0 0 0-.6-.19V8.5a.5.5 0 0 0-1-.02c-.28.02-.58.07-.9.15l.1-.83c.66-.07 1.32-.17 1.92-.31a.5.5 0 0 0-.23-.98c-.48.12-1 .2-1.53.26l.14-.67Zm-2.36 5.01c.16-.32.45-.66.9-.96.02.75.1 1.38.2 1.9-.23.14-.43.23-.61.27-.3.06-.43 0-.47-.05-.17-.18-.29-.6-.02-1.16ZM11.9 9.5c-.15.7-.44 1.29-.8 1.74a11.6 11.6 0 0 1-.06-1.55 5.31 5.31 0 0 1 .86-.2ZM4.68 13h.82a.5.5 0 0 0 0-1h-2a.5.5 0 0 0-.5.5v2a.5.5 0 0 0 1 0v-.75c1 .69 2.18 1.13 3.46 1.23a.5.5 0 1 0 .08-1A5.96 5.96 0 0 1 4.68 13Z"/></svg>