<svg width="20" height="20" viewBox="0 0 20 20" xmlns="http://www.w3.org/2000/svg"><path d="M10.82 1.04a.75.75 0 1 0-.13 1.5c1.42.12 2.73.65 3.81 1.46h-.25a.75.75 0 0 0 0 1.5h2c.41 0 .75-.34.75-.75v-2a.75.75 0 0 0-1.5 0v.13a8.96 8.96 0 0 0-4.68-1.84ZM5.75 16H5.5a7.46 7.46 0 0 0 3.82 1.47.75.75 0 1 1-.14 1.5 8.96 8.96 0 0 1-4.68-1.85v.13a.75.75 0 0 1-1.5 0v-2c0-.41.34-.75.75-.75h2a.75.75 0 0 1 0 1.5ZM6.98 3.2a4.92 4.92 0 0 0-3.93.5l-.02.02h-.01a.75.75 0 0 0 .85 1.24l.03-.02.14-.07a3.42 3.42 0 0 1 2.52-.22c.57.16.8.46.92.75.08.2.11.41.13.63-.44-.1-.94-.2-1.47-.22a4.5 4.5 0 0 0-3.18 1.01 2.8 2.8 0 0 0-.84 2.96c.3 1 1.1 1.9 2.3 2.15a4.4 4.4 0 0 0 2.64-.4l.56-.29v.01a.75.75 0 1 0 1.5 0V6.5c0-.37 0-1.02-.25-1.66A2.76 2.76 0 0 0 6.99 3.2Zm.64 4.38v1.9c-.3.21-.71.47-1.17.67-.64.29-1.24.41-1.72.31a1.55 1.55 0 0 1-1.17-1.1c-.15-.53-.02-1.06.37-1.39.63-.54 1.38-.69 2.14-.66.56.03 1.09.14 1.55.27Zm6.8-.56a.75.75 0 0 0-1.4-.54c-.14.37-.29.83-.4 1.24-.61.04-1.22.04-1.82 0a.75.75 0 1 0-.1 1.5c.51.03 1.02.04 1.53.02-.12.56-.21 1.08-.27 1.55a5.27 5.27 0 0 0-2.62 2.52c-.51 1.12-.48 2.45.32 3.26.54.55 1.32.6 2 .46.43-.09.9-.28 1.34-.55l.03.06a.75.75 0 0 0 1.38-.58l-.22-.45a7.06 7.06 0 0 0 1.82-3.5c.66.28 1.1.75 1.33 1.24.22.5.22 1.08-.06 1.65-.28.57-.9 1.19-2.01 1.66a.75.75 0 0 0 .58 1.38 5.26 5.26 0 0 0 2.77-2.37 3.4 3.4 0 0 0 .09-2.93 4.04 4.04 0 0 0-2.54-2.18v-.04a.75.75 0 0 0-1.48-.2c-.36 0-.74.01-1.14.07l.25-1.18c.75-.09 1.49-.22 2.2-.38a.75.75 0 0 0-.31-1.46c-.48.1-.97.2-1.45.27l.18-.52Zm-3.71 6.9c.2-.44.56-.9 1.12-1.32.01.55.07 1.02.16 1.44a6 6 0 0 0 .34 1.08c-.36.24-.7.39-1 .45-.41.09-.57-.02-.6-.05-.21-.22-.38-.8-.02-1.6Zm3.83-2.2a5.65 5.65 0 0 1-1.02 2.27 6.7 6.7 0 0 1-.17-2.13c.43-.1.82-.14 1.19-.14Z"/></svg>