<svg width="20" height="20" viewBox="0 0 20 20" xmlns="http://www.w3.org/2000/svg"><path d="M10.53 1.02a.5.5 0 0 0-.06 1c1.84.1 3.52.83 4.82 1.98h-.79a.5.5 0 0 0 0 1h2a.5.5 0 0 0 .5-.5v-2a.5.5 0 0 0-1 0v.8a8.97 8.97 0 0 0-5.47-2.28ZM5.5 16h-.8a7.96 7.96 0 0 0 4.83 1.99.5.5 0 0 1-.06 1c-2.1-.13-4-.97-5.47-2.28v.79a.5.5 0 1 1-1 0v-2c0-.28.22-.5.5-.5h2a.5.5 0 0 1 0 1ZM6.92 4.22a5.04 5.04 0 0 0-3.98.5h-.02v.01a.5.5 0 0 0 .56.83 1.44 1.44 0 0 1 .21-.12 4.04 4.04 0 0 1 2.95-.26c.71.2 1.03.59 1.19.98.15.38.17.8.18 1.17a8.73 8.73 0 0 0-1.93-.32 4.57 4.57 0 0 0-3.2 1 2.66 2.66 0 0 0-.81 2.84 2.97 2.97 0 0 0 2.25 2.09c.9.18 1.86-.08 2.64-.42.38-.17.74-.36 1.05-.55v.53a.5.5 0 1 0 1 0V7.45c0-.4 0-1.04-.26-1.67a2.66 2.66 0 0 0-1.83-1.56Zm1.09 4.15v2.39c-.35.26-.87.59-1.45.85-.7.3-1.43.47-2.04.35a1.97 1.97 0 0 1-1.5-1.39c-.19-.66-.03-1.35.5-1.79.76-.63 1.65-.8 2.52-.77.72.03 1.4.2 1.97.36Zm6.16-2.34c.26.1.4.38.3.64-.12.34-.25.8-.35 1.2.57-.1 1.15-.21 1.77-.36a.5.5 0 0 1 .22.98c-.77.18-1.5.32-2.24.41-.1.46-.17.87-.23 1.25.48-.1.93-.14 1.36-.13V10a.5.5 0 0 1 1 0v.17a3.37 3.37 0 0 1 2.34 2.06c.62 1.66-.21 3.65-2.64 4.73a.5.5 0 1 1-.4-.92c2.07-.92 2.5-2.43 2.1-3.47a2.37 2.37 0 0 0-1.49-1.38 6.7 6.7 0 0 1-1.68 3.6c.08.18.17.35.23.53a.5.5 0 1 1-.93.37 5.15 5.15 0 0 0-.08-.21c-.42.3-.86.5-1.28.6-.58.14-1.2.07-1.64-.39-.64-.68-.69-1.83-.25-2.85a4.71 4.71 0 0 1 2.3-2.3c.06-.47.14-.98.25-1.55-.44.02-.89.01-1.36-.02a.5.5 0 1 1 .06-1c.53.04 1.03.04 1.53 0 .1-.42.3-1.14.47-1.64a.5.5 0 0 1 .64-.3Zm-1.67 5.71c-.66.44-1.07.98-1.3 1.5-.35.8-.21 1.48.06 1.77.1.1.3.19.69.1.3-.07.68-.25 1.06-.55a5.85 5.85 0 0 1-.38-1.2c-.09-.46-.14-.99-.13-1.62Zm1.28 2.04c.54-.68.98-1.61 1.15-2.76a4.59 4.59 0 0 0-1.4.2 7.2 7.2 0 0 0 .08 1.94c.05.23.1.43.17.62Z"/></svg>