<svg width="24" height="24" viewBox="0 0 24 24" xmlns="http://www.w3.org/2000/svg"><path d="M12 1.95a1 1 0 0 1 1.1-.9c1.8.18 3.46.8 4.9 1.73V2.5a1 1 0 1 1 2 0V5a1 1 0 0 1-1 1h-2.5a1 1 0 0 1-.3-1.96c-1-.53-2.11-.88-3.3-1a1 1 0 0 1-.9-1.09ZM6 21.5v-.28c1.44.94 3.1 1.55 4.9 1.73a1 1 0 1 0 .2-2 8.94 8.94 0 0 1-3.31-1A1 1 0 0 0 7.5 18H5a1 1 0 0 0-1 1v2.5a1 1 0 1 0 2 0ZM16.95 8.3a1 1 0 1 0-1.9-.6c-.13.39-.24.9-.33 1.34-.56.01-1.12 0-1.65-.04a1 1 0 0 0-.14 2c.46.03.93.05 1.41.04-.1.62-.18 1.18-.23 1.7a6.37 6.37 0 0 0-2.64 2.7c-.63 1.29-.7 2.86.24 3.89.67.73 1.7.75 2.5.58.32-.06.65-.17.98-.32a1 1 0 0 0 1.75-.93l-.04-.11a8.4 8.4 0 0 0 2.74-4.06c.28.25.5.55.65.86.29.6.34 1.27.1 1.91a3.49 3.49 0 0 1-1.84 1.85 1 1 0 1 0 .9 1.78 5.47 5.47 0 0 0 2.82-2.94 4.44 4.44 0 0 0-.17-3.46 4.75 4.75 0 0 0-2.1-2.16V12a1 1 0 0 0-1.97-.23c-.57-.04-1.17 0-1.8.14.05-.3.1-.63.17-.97.97-.09 1.94-.25 2.84-.47a1 1 0 1 0-.48-1.94c-.62.15-1.28.27-1.96.36l.15-.59Zm-3.68 8.02c.16-.34.41-.7.75-1.04a10.85 10.85 0 0 0 .44 2.45c-.24.11-.47.18-.67.23-.43.09-.59.02-.61 0-.17-.2-.34-.77.09-1.64Zm4.5-2.56a6.36 6.36 0 0 1-1.57 2.73 10.3 10.3 0 0 1-.18-2.43l.1-.04 1.64-.26ZM3.07 5.62a6.34 6.34 0 0 1 4.46-.33c.64.19 1.15.48 1.55.88.39.4.62.85.75 1.3A5.93 5.93 0 0 1 10 9.5V15a1 1 0 0 1-1.96.28l-.08.04a5.6 5.6 0 0 1-3.87.51 3.5 3.5 0 0 1-2.57-3.14A3.56 3.56 0 0 1 3.2 9.25 6.41 6.41 0 0 1 8 8.72c0-.24-.02-.46-.09-.69a1.05 1.05 0 0 0-.25-.45 1.56 1.56 0 0 0-.7-.37 4.34 4.34 0 0 0-3.04.22 1 1 0 0 1-.85-1.8Zm4.04 4.96a4.42 4.42 0 0 0-2.95.41c-.42.24-.72.83-.66 1.53.06.64.42 1.19 1.12 1.38.79.23 1.68 0 2.47-.38.37-.18.68-.37.9-.52v-2.2a6.32 6.32 0 0 0-.88-.22Z"/></svg>