<svg width="20" height="20" viewBox="0 0 20 20" xmlns="http://www.w3.org/2000/svg"><path d="m14.88.28.35 1.07a2.2 2.2 0 0 0 1.4 1.4l1.07.35h.02a.42.42 0 0 1 0 .8l-1.07.35a2.2 2.2 0 0 0-1.4 1.4l-.35 1.07a.42.42 0 0 1-.8 0l-.35-1.07a2.23 2.23 0 0 0-1.4-1.4l-1.07-.35a.42.42 0 0 1 0-.8l1.07-.35a2.2 2.2 0 0 0 1.38-1.4l.35-1.07a.42.42 0 0 1 .8 0Zm4.9 7.93-.76-.25a1.58 1.58 0 0 1-1-1l-.25-.76a.3.3 0 0 0-.57 0l-.25.77a1.58 1.58 0 0 1-.98 1l-.77.24a.3.3 0 0 0 0 .57l.77.25a1.58 1.58 0 0 1 1 1l.24.77a.3.3 0 0 0 .58 0l.24-.77a1.58 1.58 0 0 1 1-1l.77-.24a.3.3 0 0 0 0-.57h-.02ZM6 2h5.43l-.48.15A1.43 1.43 0 0 0 10 3.5a1.41 1.41 0 0 0 .97 1.35l1.06.35c.15.05.3.13.47.29.11.11.2.24.3.47l.05.19A.5.5 0 0 0 12.5 6h-5a.5.5 0 0 0 0 1h5a.5.5 0 0 0 .5-.43l.15.48c.1.25.25.48.52.7.14.1.3.16.45.2a1.3 1.3 0 0 0 .77 1.79l.77.25c.08.03.16.08.22.14.05.05.1.11.12.18V16a2 2 0 0 1-2 2H6a2 2 0 0 1-2-2V4c0-1.1.9-2 2-2Zm1 11.5c0 .28.22.5.5.5h5a.5.5 0 0 0 0-1h-5a.5.5 0 0 0-.5.5Zm5.5-4h-5a.5.5 0 0 0 0 1h5a.5.5 0 0 0 0-1Z"/></svg>