<svg width="20" height="20" viewBox="0 0 20 20" xmlns="http://www.w3.org/2000/svg"><path d="m14.88.28.35 1.07a2.2 2.2 0 0 0 1.4 1.4l1.07.35h.02a.42.42 0 0 1 0 .8l-1.07.35a2.2 2.2 0 0 0-1.4 1.4l-.35 1.07a.42.42 0 0 1-.8 0l-.35-1.07a2.23 2.23 0 0 0-1.4-1.4l-1.07-.35a.42.42 0 0 1 0-.8l1.07-.35a2.2 2.2 0 0 0 1.38-1.4l.35-1.07a.42.42 0 0 1 .8 0Zm4.9 7.93-.76-.25a1.58 1.58 0 0 1-1-1l-.25-.76a.3.3 0 0 0-.57 0l-.25.77a1.58 1.58 0 0 1-.98 1l-.77.24a.3.3 0 0 0 0 .57l.77.25a1.58 1.58 0 0 1 1 1l.24.77a.3.3 0 0 0 .58 0l.24-.77a1.58 1.58 0 0 1 1-1l.77-.24a.3.3 0 0 0 0-.57h-.02ZM11.43 2H6a2 2 0 0 0-2 2v12c0 1.1.9 2 2 2h8a2 2 0 0 0 2-2v-5.7a.48.48 0 0 0-.12-.17.64.64 0 0 0-.22-.14L15 9.77V16a1 1 0 0 1-1 1H6a1 1 0 0 1-1-1V4a1 1 0 0 1 1-1h4.09a1.42 1.42 0 0 1 .86-.85l.48-.15Zm1.42 4.15A.5.5 0 0 0 12.5 6H7.41a.5.5 0 0 0 .09 1h5.09a.5.5 0 0 0 .26-.85Zm-.26 4.34a.5.5 0 0 0-.09-.99H7.41a.5.5 0 0 0 .09 1h5.09Zm0 3.5a.5.5 0 0 0-.09-.99H7.41a.5.5 0 0 0 .09 1h5.09Z"/></svg>