<svg width="24" height="24" viewBox="0 0 24 24" xmlns="http://www.w3.org/2000/svg"><path d="M16.08 6.63c-.07-.1-.15-.19-.23-.27h-.01a2.85 2.85 0 0 0-1.11-.69l-1.38-.45a.57.57 0 0 1-.26-.2.5.5 0 0 1-.1-.31.5.5 0 0 1 .1-.31.52.52 0 0 1 .26-.2l1.38-.45a2.81 2.81 0 0 0 1.77-1.76v-.03l.45-1.38c.04-.1.11-.2.2-.26a.5.5 0 0 1 .31-.1c.11 0 .22.04.31.1.09.06.16.15.2.26l.45 1.38a2.85 2.85 0 0 0 1.8 1.8l1.38.45h.03c.1.04.19.11.26.2.07.09.1.2.1.31a.5.5 0 0 1-.1.31.52.52 0 0 1-.26.2l-1.38.45a2.85 2.85 0 0 0-1.8 1.8l-.46 1.38v.03a.6.6 0 0 1-.19.23.5.5 0 0 1-.31.1.5.5 0 0 1-.31-.1.52.52 0 0 1-.2-.26l-.45-1.38c-.1-.31-.25-.6-.45-.85Zm7.7 3.8-.77-.24a1.58 1.58 0 0 1-1-1l-.25-.76a.33.33 0 0 0-.11-.15.27.27 0 0 0-.34 0 .33.33 0 0 0-.11.15l-.25.76c-.07.23-.2.44-.37.61-.17.17-.38.3-.61.38l-.77.25a.33.33 0 0 0-.15.11.27.27 0 0 0 0 .34c.04.05.09.09.15.11l.77.25a1.53 1.53 0 0 1 1 1l.25.76c.02.06.06.11.11.15a.27.27 0 0 0 .34 0 .33.33 0 0 0 .11-.15l.25-.76a1.58 1.58 0 0 1 1-1l.77-.25a.33.33 0 0 0 .15-.11.26.26 0 0 0 .05-.17.26.26 0 0 0-.05-.17c-.04-.05-.1-.08-.17-.11Zm-4.24 2.28.26.8c.05.14.12.25.2.37v6.08a2.25 2.25 0 0 1-2.25 2.25H6.25A2.25 2.25 0 0 1 4 19.96V4.46a2.25 2.25 0 0 1 2.25-2.25h8.26l-.22.11-1.42.46a2.06 2.06 0 0 0-1 3.11c.08.11.18.2.27.29l.05.04H7.75a.76.76 0 0 0-.75.75c0 .41.34.75.75.75h7.24l.03.06c.04.05.07.1.09.16l.46 1.41a2.04 2.04 0 0 0 1.93 1.36 1.78 1.78 0 0 0 1.24 1.71l.8.29Zm-11.79 5h8.5c.41 0 .75-.34.75-.75a.76.76 0 0 0-.75-.75h-8.5a.76.76 0 0 0-.75.75c0 .41.34.75.75.75Zm0-5h8.5c.41 0 .75-.34.75-.75a.76.76 0 0 0-.75-.75h-8.5a.76.76 0 0 0-.75.75c0 .41.34.75.75.75Z"/></svg>