<svg width="24" height="24" viewBox="0 0 24 24" xmlns="http://www.w3.org/2000/svg"><path d="M16.25 11h-8.5a.76.76 0 0 0-.75.75c0 .41.34.75.75.75h8.5c.41 0 .75-.34.75-.75a.76.76 0 0 0-.75-.75Zm0 4.5h-8.5a.76.76 0 0 0-.75.75c0 .41.34.75.75.75h8.5c.41 0 .75-.34.75-.75a.76.76 0 0 0-.75-.75ZM7 7.25c0 .41.34.75.75.75h7.45l-.09-.28a1.47 1.47 0 0 0-.21-.39l-.11-.13a1.3 1.3 0 0 0-.52-.32L13.1 6.5H7.75a.76.76 0 0 0-.75.75Zm12.8 6.04-.26-.79-.8-.29c-.09-.03-.16-.08-.24-.12v7.66c0 .41-.34.75-.75.75H6.25a.76.76 0 0 1-.75-.75V4.25c0-.41.34-.75.75-.75h5.53c.03-.06.05-.13.09-.19a2 2 0 0 1 .99-.74l1.41-.46.22-.11H6.25A2.25 2.25 0 0 0 4 4.25v15.5A2.25 2.25 0 0 0 6.25 22h11.5A2.25 2.25 0 0 0 20 19.75v-6.08a1.72 1.72 0 0 1-.2-.38Zm-3.95-7.14a2.67 2.67 0 0 1 .68 1.12l.45 1.38c.04.11.11.2.2.26.09.07.2.1.31.1a.5.5 0 0 0 .31-.1.6.6 0 0 0 .19-.23v-.03l.46-1.38a2.85 2.85 0 0 1 1.8-1.8l1.38-.45c.11-.04.2-.11.26-.2a.5.5 0 0 0 .1-.31.5.5 0 0 0-.1-.31.63.63 0 0 0-.26-.2h-.03l-1.38-.45a2.85 2.85 0 0 1-1.8-1.8L17.97.37a.52.52 0 0 0-.2-.26.57.57 0 0 0-.31-.1.5.5 0 0 0-.31.1.57.57 0 0 0-.2.26l-.45 1.38v.03a2.81 2.81 0 0 1-1.77 1.76l-1.38.45a.52.52 0 0 0-.26.2.5.5 0 0 0-.1.31c0 .11.03.22.1.31.06.09.16.16.26.2l1.38.45c.42.14.8.38 1.11.69h.01Zm7.93 4.07c.06 0 .13.06.17.11.04.05.05.11.05.17 0 .06-.01.12-.05.17a.33.33 0 0 1-.15.11l-.77.25a1.58 1.58 0 0 0-1 1l-.25.76a.33.33 0 0 1-.11.15.27.27 0 0 1-.34 0 .33.33 0 0 1-.11-.15l-.25-.76a1.53 1.53 0 0 0-1-1l-.77-.25a.33.33 0 0 1-.15-.11.27.27 0 0 1 0-.34.33.33 0 0 1 .15-.11l.77-.25c.23-.08.44-.21.61-.38.17-.17.3-.38.37-.61l.25-.76a.33.33 0 0 1 .11-.15.27.27 0 0 1 .34 0c.05.04.09.09.11.15l.25.76a1.58 1.58 0 0 0 1 1l.77.24Z"/></svg>