<svg width="20" height="20" viewBox="0 0 20 20" xmlns="http://www.w3.org/2000/svg"><path d="M12.5 3a2.5 2.5 0 0 0 0 5h.5a.5.5 0 0 0 0-1h-.5a1.5 1.5 0 0 1 0-3h.5a.5.5 0 0 0 0-1h-.5ZM16 3a.5.5 0 0 0 0 1h.5a1.5 1.5 0 0 1 0 3H16a.5.5 0 0 0 0 1h.5a2.5 2.5 0 0 0 0-5H16Zm-4 2.5c0-.28.22-.5.5-.5h4a.5.5 0 0 1 0 1h-4a.5.5 0 0 1-.5-.5Zm-3 0c0-.54.12-1.05.34-1.5H4.5a2.5 2.5 0 0 0-2.48 2.22l7.98 4.7L13.26 9h-.76A3.5 3.5 0 0 1 9 5.5ZM16.5 9h-1.27l-4.98 2.93a.5.5 0 0 1-.5 0L2 7.37v7.13A2.5 2.5 0 0 0 4.5 17h11a2.5 2.5 0 0 0 2.5-2.5V8.66c-.45.22-.96.34-1.5.34Z"/></svg>