<svg width="24" height="24" viewBox="0 0 24 24" xmlns="http://www.w3.org/2000/svg"><path d="M16.27 6.12a.75.75 0 011.03-1.08 8.74 8.74 0 01-4.58 15.68l.75.75.07.08a.75.75 0 01-1.13.98l-2-2-.07-.08a.75.75 0 01.07-.98l.31-.31a7.27 7.27 0 005.55-13.04zm-3-1.28A7.27 7.27 0 007.5 17.7a.75.75 0 01-1.06 1.05 8.75 8.75 0 014.85-15.47l-.75-.75a.75.75 0 111.06-1.06l2 2c.3.3.3.77 0 1.06l-.31.31zm-3.8 4.63c.3-.3.77-.3 1.06 0L12 10.94l1.47-1.47a.75.75 0 111.06 1.06L13.06 12l1.47 1.47a.75.75 0 11-1.06 1.06L12 13.06l-1.47 1.47a.75.75 0 11-1.06-1.06L10.94 12l-1.47-1.47a.75.75 0 010-1.06zM12 18a6 6 0 100-12 6 6 0 000 12zm0-1.5a4.5 4.5 0 110-9 4.5 4.5 0 010 9z"/></svg>