<svg width="20" height="20" viewBox="0 0 20 20" xmlns="http://www.w3.org/2000/svg"><path d="M11.41 2.93c.2.2.2.51 0 .7l-.01.02a6.48 6.48 0 0 0-6 1.75 6.5 6.5 0 0 0 .7 9.8.5.5 0 1 1-.6.8A7.5 7.5 0 0 1 9.59 2.5l-1-.99a.5.5 0 0 1 .71-.7l2.12 2.12Zm-2.8 13.42-.02.01a.5.5 0 0 0 0 .71l2.12 2.12a.5.5 0 0 0 .7-.7l-1-1a7.5 7.5 0 0 0 4.07-13.5.5.5 0 1 0-.59.8 6.5 6.5 0 0 1-5.3 11.55Zm3.24-8.2c.2.2.2.5 0 .7L10.71 10l1.14 1.15a.5.5 0 0 1-.7.7L10 10.71l-1.15 1.14a.5.5 0 0 1-.7-.7L9.29 10 8.15 8.85a.5.5 0 1 1 .7-.7L10 9.29l1.15-1.14c.2-.2.5-.2.7 0ZM5 10a5 5 0 1 1 10 0 5 5 0 0 1-10 0Zm5-4a4 4 0 1 0 0 8 4 4 0 0 0 0-8Z"/></svg>