<svg width="24" height="24" viewBox="0 0 24 24" xmlns="http://www.w3.org/2000/svg"><path d="M16.25 5.18c-.25.33-.19.8.14 1.05a7.24 7.24 0 01-3.6 12.98l.01-.01a7.33 7.33 0 01-2.05-.07l-.34.34a.75.75 0 00-.07.98l.07.08 2 2a.75.75 0 001.13-.98l-.07-.08-.75-.75A8.75 8.75 0 0017.3 5.04a.75.75 0 00-1.05.14zm-5.72-3.71c-.3.3-.3.77 0 1.06l.75.75a8.75 8.75 0 00-4.85 15.47.75.75 0 10.96-1.16A7.23 7.23 0 0111.2 4.8l-.01.01a7.32 7.32 0 012.05.07l.34-.34c.3-.3.3-.77 0-1.06l-2-2a.75.75 0 00-1.06 0zM18 12a6 6 0 11-12 0 6 6 0 0112 0zm-7.47-2.53a.75.75 0 10-1.06 1.06L10.94 12l-1.47 1.47a.75.75 0 101.06 1.06L12 13.06l1.47 1.47a.75.75 0 101.06-1.06L13.06 12l1.47-1.47a.75.75 0 10-1.06-1.06L12 10.94l-1.47-1.47z"/></svg>