<svg width="28" height="28" viewBox="0 0 28 28" xmlns="http://www.w3.org/2000/svg"><path d="M5 5a3 3 0 0 1 3-3h12a3 3 0 0 1 3 3v8.43c-.48-.17-.98-.3-1.5-.36V5c0-.83-.67-1.5-1.5-1.5H8c-.83 0-1.5.67-1.5 1.5v18c0 .83.67 1.5 1.5 1.5h6.15c.35.55.77 1.06 1.25 1.5H8a3 3 0 0 1-3-3V5Zm4.5 10a1.5 1.5 0 1 0 0-3 1.5 1.5 0 0 0 0 3ZM27 20.5a6.5 6.5 0 1 1-13 0 6.5 6.5 0 0 1 13 0ZM16.5 20a.5.5 0 0 0 0 1h6.8l-2.15 2.15a.5.5 0 0 0 .7.7l3-3a.5.5 0 0 0 .15-.35.5.5 0 0 0-.15-.35l-3-3a.5.5 0 0 0-.7.7L23.29 20H16.5Z"/></svg>