<svg width="16" height="16" viewBox="0 0 16 16" xmlns="http://www.w3.org/2000/svg"><path d="M12 1.5a.5.5 0 0 0-1 0v11.8l-1.15-1.15a.5.5 0 0 0-.7.7l2 2c.2.2.5.2.7 0l2-2a.5.5 0 0 0-.7-.7L12 13.29V1.5ZM2.5 11.63A2.56 2.56 0 0 1 5 9c1.36 0 2.5 1.16 2.5 2.63 0 .94-.47 1.76-1.17 2.22a.69.69 0 0 0-.33.56c0 .33.26.59.6.59h1.9a.5.5 0 0 0 0-1h-.86a3.7 3.7 0 0 0 .86-2.38A3.56 3.56 0 0 0 5 8a3.56 3.56 0 0 0-3.5 3.63c0 .9.32 1.73.86 2.37H1.5a.5.5 0 0 0 0 1h1.9a.6.6 0 0 0 .6-.6.69.69 0 0 0-.33-.55 2.65 2.65 0 0 1-1.17-2.22ZM5 1c.2 0 .39.12.46.31l2 5a.5.5 0 1 1-.92.38L6.26 6H3.74l-.28.69a.5.5 0 0 1-.92-.38l2-5A.5.5 0 0 1 5 1Zm0 1.85L4.14 5h1.72L5 2.85Z"/></svg>