<svg width="24" height="24" viewBox="0 0 24 24" xmlns="http://www.w3.org/2000/svg"><path d="M7.92 2.6a1 1 0 0 0-1.84 0l-3 7a1 1 0 1 0 1.84.8l.6-1.4h2.96l.6 1.4a1 1 0 0 0 1.84-.8l-3-7ZM7.62 7H6.38L7 5.54 7.63 7ZM7 14c-1.63 0-3 1.36-3 3.1 0 1.1.55 2.06 1.38 2.6.35.24.62.6.62 1.02V21a1 1 0 0 1-1 1H3a1 1 0 0 1-.1-2 5.16 5.16 0 0 1-.9-2.9C2 14.3 4.22 12 7 12s5 2.3 5 5.1c0 1.08-.33 2.08-.9 2.9a1 1 0 0 1-.1 2H9a1 1 0 0 1-1-1v-.28c0-.42.27-.78.62-1.01A3.11 3.11 0 0 0 10 17.1c0-1.74-1.37-3.1-3-3.1ZM17.25 2c.41 0 .75.34.75.75v16.69l2.22-2.22a.75.75 0 1 1 1.06 1.06l-3.5 3.5c-.3.3-.77.3-1.06 0l-3.5-3.5a.75.75 0 1 1 1.06-1.06l2.22 2.22V2.75c0-.41.34-.75.75-.75Z"/></svg>