<svg width="20" height="20" viewBox="0 0 20 20" xmlns="http://www.w3.org/2000/svg"><path d="M18 10c0 1.55-.44 3-1.2 4.22-.95-.7-2-1.24-3.14-1.63a.5.5 0 1 0-.32.95c1.04.35 2 .86 2.88 1.5a7.98 7.98 0 0 1-12.44 0c.87-.64 1.84-1.15 2.88-1.5a.5.5 0 0 0-.32-.95c-1.13.39-2.2.94-3.14 1.63a7.96 7.96 0 0 1 0-8.43c.94.7 2 1.25 3.14 1.63a.5.5 0 1 0 .32-.95 10.47 10.47 0 0 1-2.88-1.5 7.98 7.98 0 0 1 12.44 0c-.87.64-1.84 1.15-2.88 1.5a.5.5 0 1 0 .32.95c1.14-.38 2.2-.94 3.14-1.63A7.96 7.96 0 0 1 18 10Zm-8 3c.49 0 .96.03 1.43.1a.5.5 0 1 0 .14-1 11.6 11.6 0 0 0-3.14 0 .5.5 0 0 0 .14 1c.47-.07.94-.1 1.43-.1ZM8.57 6.92a.5.5 0 0 0-.14.99 11.6 11.6 0 0 0 3.14 0 .5.5 0 1 0-.14-1 10.6 10.6 0 0 1-2.86 0Z"/></svg>