<svg width="24" height="24" viewBox="0 0 24 24" xmlns="http://www.w3.org/2000/svg"><path d="M8.94 10 2.22 3.28a.75.75 0 1 1 1.06-1.06l18.5 18.5a.75.75 0 0 1-1.06 1.06L14 15.06l-5 5c-.4.4-.92.7-1.48.83l-4.6 1.1a.75.75 0 0 1-.9-.91l1.1-4.6A3.1 3.1 0 0 1 3.94 15l5-5Zm4 4L10 11.06l-5 5a1.6 1.6 0 0 0-.42.76l-.82 3.42 3.42-.81c.29-.07.55-.22.76-.43l5-5Zm5-5-2.88 2.88 1.06 1.06 4.83-4.83a3.58 3.58 0 0 0-5.06-5.06l-4.83 4.83 1.06 1.06L15 6.06 17.94 9Zm-.99-4.9a2.08 2.08 0 1 1 2.94 2.95l-.89.89L16.06 5l.9-.9Z"/></svg>