<svg width="28" height="28" viewBox="0 0 28 28" xmlns="http://www.w3.org/2000/svg"><path d="M14.44 2.14a.75.75 0 00-.88 0 20.3 20.3 0 01-3.9 2.04A16.4 16.4 0 013.75 5.5a.75.75 0 00-.75.75V14c0 3.03 1.7 5.84 3.84 7.95 2.13 2.1 4.82 3.64 7.03 4.03L14 26l.13-.02c2.2-.39 4.9-1.92 7.03-4.03C23.3 19.85 25 17.03 25 14V6.25a.75.75 0 00-.75-.75c-2 0-4.1-.59-5.91-1.32a20.3 20.3 0 01-3.9-2.04zM4.5 14V6.98c2.01-.13 4.03-.72 5.72-1.4A23.45 23.45 0 0014 3.65c.84.54 2.19 1.27 3.77 1.91a18.8 18.8 0 005.73 1.4V14c0 2.47-1.41 4.93-3.4 6.88-1.93 1.92-4.3 3.24-6.1 3.6-1.8-.36-4.17-1.68-6.1-3.6-2-1.95-3.4-4.4-3.4-6.88zm15.27-3.71a.75.75 0 00-1.04-1.08l-7.25 7.01-2.23-2.02a.75.75 0 00-1 1.1L11 17.8c.29.27.74.26 1.02-.01l7.75-7.5z"/></svg>