<svg width="24" height="24" viewBox="0 0 24 24" xmlns="http://www.w3.org/2000/svg"><path d="M4.38 14A2.5 2.5 0 0 0 2 16.5v3A2.5 2.5 0 0 0 4.5 22h15a2.5 2.5 0 0 0 2.5-2.5v-3a2.5 2.5 0 0 0-2.5-2.5h-5.95l-1.32 1.31-.2.19h7.47a1 1 0 0 1 1 1v3a1 1 0 0 1-1 1h-15a1 1 0 0 1-1-1v-3c0-.37.2-.7.5-.87a2 2 0 0 1 .1-.74l.28-.89ZM18.65 2.94a3.22 3.22 0 0 1 0 4.56l-7.13 7.1c-.26.27-.58.46-.94.57l-4.3 1.29a1 1 0 0 1-1.23-1.27l1.36-4.22c.1-.35.3-.65.55-.9l7.13-7.13a3.22 3.22 0 0 1 4.56 0ZM15.15 4l-7.13 7.12a.75.75 0 0 0-.18.3l-1.07 3.33 3.38-1.02c.12-.03.23-.1.31-.19l7.13-7.1A1.72 1.72 0 1 0 15.15 4Z"/></svg>