<svg width="20" height="20" viewBox="0 0 20 20" xmlns="http://www.w3.org/2000/svg"><path d="M6 5.5c0-.28.22-.5.5-.5h7a.5.5 0 0 1 0 1h-7a.5.5 0 0 1-.5-.5Zm0 2c0-.28.22-.5.5-.5h7a.5.5 0 0 1 0 1h-7a.5.5 0 0 1-.5-.5ZM3 6a3 3 0 0 1 3-3h8a3 3 0 0 1 3 3v8a3 3 0 0 1-3 3H6a3 3 0 0 1-3-3V6Zm1 4h3.5c.28 0 .5.22.5.5v.01a1.64 1.64 0 0 0 .03.3c.04.2.1.46.23.72.13.25.3.49.57.66.26.18.63.31 1.17.31.54 0 .9-.13 1.17-.3.26-.18.44-.42.57-.67A2.57 2.57 0 0 0 12 10.5v-.01c0-.28.22-.5.5-.5H16V6a2 2 0 0 0-2-2H6a2 2 0 0 0-2 2v4Zm4 .5Z"/></svg>