<svg width="20" height="20" viewBox="0 0 20 20" xmlns="http://www.w3.org/2000/svg"><path d="M6 5.5c0-.28.22-.5.5-.5h7a.5.5 0 0 1 0 1h-7a.5.5 0 0 1-.5-.5ZM6.5 7a.5.5 0 0 0 0 1h7a.5.5 0 0 0 0-1h-7ZM6 3a3 3 0 0 0-3 3v8a3 3 0 0 0 3 3h8a3 3 0 0 0 3-3V6a3 3 0 0 0-3-3H6Zm10 7h-3.5a.5.5 0 0 0-.5.5v.01a1.75 1.75 0 0 1-.03.3c-.04.2-.1.46-.23.72-.13.25-.3.49-.57.66-.26.18-.63.31-1.17.31-.54 0-.9-.13-1.17-.3a1.7 1.7 0 0 1-.57-.67A2.57 2.57 0 0 1 8 10.5v-.01a.5.5 0 0 0-.5-.5H4V6c0-1.1.9-2 2-2h8a2 2 0 0 1 2 2v4ZM4 11h3.05c.05.26.14.62.32.97.18.38.47.76.9 1.06.45.29 1.02.47 1.73.47s1.28-.18 1.72-.47c.44-.3.73-.68.91-1.06.18-.35.27-.7.32-.97H16v3a2 2 0 0 1-2 2H6a2 2 0 0 1-2-2v-3Z"/></svg>