<svg width="20" height="20" viewBox="0 0 20 20" xmlns="http://www.w3.org/2000/svg"><path d="M17.85 2.85a.5.5 0 0 0-.7-.7L14.48 4.8a4.04 4.04 0 0 0-5.33.34l-.3.3a1.49 1.49 0 0 0 0 2.1l3.6 3.6c.58.59 1.52.59 2.1 0l.3-.3a4.04 4.04 0 0 0 .34-5.33l2.66-2.67Zm-4 7.6c-.2.19-.5.19-.7 0l-3.6-3.6c-.19-.2-.19-.5 0-.7l.3-.3a3.04 3.04 0 0 1 4.3 4.3l-.3.3Zm-6.3-1.6a1.49 1.49 0 0 0-2.1 0l-.3.3a4.04 4.04 0 0 0-.34 5.33l-2.66 2.67a.5.5 0 0 0 .7.7l2.67-2.66a4.04 4.04 0 0 0 5.33-.34l.3-.3c.59-.58.59-1.52 0-2.1l-3.6-3.6Zm-1.4.7c.2-.19.5-.19.7 0l3.6 3.6c.19.2.19.5 0 .7l-.3.3a3.04 3.04 0 1 1-4.3-4.3l.3-.3Z"/></svg>