<svg width="20" height="20" viewBox="0 0 20 20" xmlns="http://www.w3.org/2000/svg"><path d="M10.5 12c.83 0 1.5.67 1.5 1.5v.5c0 1.97-1.86 4-5 4-3.14 0-5-2.03-5-4v-.5c0-.83.67-1.5 1.5-1.5h7Zm0 1h-7a.5.5 0 0 0-.5.5v.5c0 1.44 1.43 3 4 3 2.57 0 4-1.56 4-3v-.5a.5.5 0 0 0-.5-.5ZM7 5.5A2.75 2.75 0 1 1 7 11a2.75 2.75 0 0 1 0-5.5ZM16 2a2 2 0 0 1 2 1.85V6a2 2 0 0 1-1.85 2H14.5l-1.2 1.6a1 1 0 0 1-1.78-.38l-.01-.1V9l-.01-1.07-.08-.01a2 2 0 0 1-1.4-1.6l-.01-.17L10 6V4a2 2 0 0 1 1.85-2H16ZM7 6.5A1.75 1.75 0 1 0 7 10a1.75 1.75 0 0 0 0-3.5ZM16 3h-4a1 1 0 0 0-1 .88V6a1 1 0 0 0 .88 1h.62v2L14 7h2a1 1 0 0 0 1-.88V4a1 1 0 0 0-.88-1H16Z"/></svg>