<svg width="24" height="24" viewBox="0 0 24 24" xmlns="http://www.w3.org/2000/svg"><path d="M14.77 12.4c.15.07.32.1.48.1.33 0 .64-.13.88-.36L18.31 10h.94A2.75 2.75 0 0 0 22 7.25v-2.5A2.75 2.75 0 0 0 19.25 2h-4.5A2.75 2.75 0 0 0 12 4.75v2.5c0 1.26.85 2.32 2 2.65v1.35c0 .5.31.95.77 1.15ZM13.5 4.75c0-.69.56-1.25 1.25-1.25h4.5c.69 0 1.25.56 1.25 1.25v2.5c0 .69-.56 1.25-1.25 1.25h-1.56l-2.19 2.15V8.5h-.75c-.69 0-1.25-.56-1.25-1.25v-2.5ZM8 13.5a3.5 3.5 0 1 1 0-7 3.5 3.5 0 0 1 0 7ZM8 8a2 2 0 0 0-2 2c0 1.1.9 2 2 2a2 2 0 0 0 2-2 2 2 0 0 0-2-2Zm0 14c-2.06 0-3.64-.56-4.7-1.67-1.34-1.4-1.3-3.17-1.3-3.36v-.01A2 2 0 0 1 4 15h8a2 2 0 0 1 2 2c0 .13.05 1.92-1.3 3.33C11.64 21.44 10.06 22 8 22Zm-4-5.5a.5.5 0 0 0-.5.5c0 .1-.02 1.35.9 2.31.76.79 1.97 1.19 3.6 1.19 1.63 0 2.85-.41 3.61-1.21.91-.95.9-2.2.9-2.26 0-.31-.24-.54-.5-.54H4v.01Z"/></svg>