<svg width="28" height="28" viewBox="0 0 28 28" xmlns="http://www.w3.org/2000/svg"><path d="M17.75 14a1.25 1.25 0 0 1-1.25-1.25v-1.76A2.76 2.76 0 0 1 14 8.25v-3.5A2.75 2.75 0 0 1 16.75 2h6.5A2.75 2.75 0 0 1 26 4.75v3.5A2.75 2.75 0 0 1 23.25 11h-2.62l-1.88 2.5c-.24.32-.61.5-1 .5ZM9.5 16.5a4.26 4.26 0 0 1 0-8.5 4.26 4.26 0 0 1 0 8.5Zm-6.03 7.42C4.78 25.3 6.81 26 9.5 26c2.7 0 4.72-.7 6.03-2.08A5.44 5.44 0 0 0 17 20.24v-.01C17 19 16 18 14.77 18H4.23A2.22 2.22 0 0 0 2 20.2c0 .2-.04 2.12 1.47 3.72Z"/></svg>