<svg width="32" height="32" viewBox="0 0 32 32" xmlns="http://www.w3.org/2000/svg"><path d="M19.95 15.89a1.5 1.5 0 0 0 1.65-.37L23.94 13H27a3 3 0 0 0 3-3V5a3 3 0 0 0-3-3h-8a3 3 0 0 0-3 3v4.99a3 3 0 0 0 3 3v1.5c0 .63.37 1.17.95 1.4ZM18 5a1 1 0 0 1 1-1h8a1 1 0 0 1 1 1v5a1 1 0 0 1-1 1h-3.94L21 13.22V11h-2a1 1 0 0 1-1-1V5Zm-7.5 13a5 5 0 1 1 0-10 5 5 0 0 1 0 10Zm0-8a3 3 0 0 0-3 3 3 3 0 0 0 3 3 3 3 0 0 0 3-3 3 3 0 0 0-3-3Zm0 19.99c-2.9 0-5.12-.8-6.62-2.37A7.1 7.1 0 0 1 2 22.78v-.01A2.8 2.8 0 0 1 4.82 20h11.36A2.82 2.82 0 0 1 19 22.82c0 .19.06 2.78-1.88 4.81C15.62 29.2 13.4 30 10.5 30v-.01Zm-5.68-8a.82.82 0 0 0-.82.83c0 .15-.03 2.03 1.34 3.44C6.44 27.41 8.18 28 10.5 28c2.32 0 4.05-.58 5.16-1.73a5.05 5.05 0 0 0 1.34-3.4.83.83 0 0 0-.82-.86H4.82Z"/></svg>