<svg width="48" height="48" viewBox="0 0 48 48" xmlns="http://www.w3.org/2000/svg"><path d="M30.27 25c-.24 0-.49-.04-.73-.12A2.21 2.21 0 0 1 28 22.75v-2.81a4.76 4.76 0 0 1-4-4.69v-6.5A4.75 4.75 0 0 1 28.75 4h11.5A4.75 4.75 0 0 1 45 8.75v6.5A4.75 4.75 0 0 1 40.25 20h-5.12l-3.08 4.1c-.44.58-1.09.9-1.78.9ZM28.75 6.5a2.25 2.25 0 0 0-2.25 2.25v6.5a2.25 2.25 0 0 0 2.25 2.25h1.75V22l3.38-4.5h6.38a2.25 2.25 0 0 0 2.25-2.25v-6.5a2.25 2.25 0 0 0-2.25-2.25H28.75ZM16 27.5a7.5 7.5 0 1 1 0-15 7.5 7.5 0 0 1 0 15ZM16 15a5 5 0 1 0 0 10 5 5 0 0 0 0-10ZM3 34.79c0 .09.15 9.21 13 9.21s13-9.12 13-9.21v-1.04A3.75 3.75 0 0 0 25.25 30H6.75A3.75 3.75 0 0 0 3 33.75v1.04Zm2.5-1.04c0-.69.56-1.25 1.25-1.25h18.5c.69 0 1.25.56 1.25 1.25v1.03c0 .27-.22 6.72-10.5 6.72S5.5 35.05 5.5 34.79v-1.04Z"/></svg>