<svg width="20" height="20" viewBox="0 0 20 20" xmlns="http://www.w3.org/2000/svg"><path d="M3.25 6a1.25 1.25 0 100-2.5 1.25 1.25 0 000 2.5zM7 4.75c0-.41.34-.75.75-.75h9.5a.75.75 0 010 1.5h-9.5A.75.75 0 017 4.75zM7.75 9a.75.75 0 000 1.5h5.46a5.48 5.48 0 014.39-.09.75.75 0 00-.35-1.41h-9.5zm0 5h2.46c-.14.48-.21.98-.21 1.5H7.75a.75.75 0 010-1.5zM4.5 9.75a1.25 1.25 0 11-2.5 0 1.25 1.25 0 012.5 0zM3.25 16a1.25 1.25 0 100-2.5 1.25 1.25 0 000 2.5zM20 15.5a4.5 4.5 0 11-9 0 4.5 4.5 0 019 0zm-3.8 0l1.15-1.15a.5.5 0 00-.7-.7l-1.15 1.14-1.15-1.14a.5.5 0 00-.7.7l1.14 1.15-1.14 1.15a.5.5 0 00.7.7l1.15-1.14 1.15 1.14a.5.5 0 00.7-.7l-1.14-1.15z"/></svg>