<svg width="24" height="24" viewBox="0 0 24 24" xmlns="http://www.w3.org/2000/svg"><path d="M16.3 2.33a3.75 3.75 0 0 0-2.6 0l-4.3 1.6c-.7.25-1.15.9-1.15 1.63v2.8c.8-.13 1.63-.05 2.4.23l4.3 1.6c.52.18.95.52 1.26.94a6.53 6.53 0 0 1 5.54 1.45V5.56c0-.73-.46-1.38-1.14-1.64L16.3 2.33Zm-4.53 4.88a.75.75 0 1 1 .49-1.42l2.66.92c.05.02.1.02.16 0l2.65-.92a.75.75 0 1 1 .5 1.42l-2.66.92c-.37.13-.77.13-1.14 0l-2.66-.92Zm2.84 3.91c.2.08.38.18.53.32a6.52 6.52 0 0 0-2.68 1.95.75.75 0 0 0-.73-.14L9 14.2l-2.74-.95a.75.75 0 1 0-.5 1.42l2.49.85v2.7a.75.75 0 0 0 1.5 0v-2.7l1.79-.62a6.48 6.48 0 0 0 .5 6.12l-1.74.65c-.84.3-1.76.3-2.6 0l-4.3-1.6a1.75 1.75 0 0 1-1.15-1.64v-5.67c0-.73.46-1.39 1.14-1.64l4.31-1.6a3.75 3.75 0 0 1 2.6 0l4.3 1.6ZM23 17.5a5.5 5.5 0 1 1-11 0 5.5 5.5 0 0 1 11 0Zm-2.5.5a.5.5 0 1 0 0-1h-4.8l1.65-1.65a.5.5 0 0 0-.7-.7l-2.5 2.5a.5.5 0 0 0 0 .7l2.5 2.5a.5.5 0 0 0 .7-.7L15.71 18h4.79Z"/></svg>