<svg width="32" height="32" viewBox="0 0 32 32" xmlns="http://www.w3.org/2000/svg"><path d="M26.33 27.74l1.96 1.97a1 1 0 001.42-1.42l-26-26a1 1 0 00-1.42 1.42l9.7 9.7v.03a4 4 0 01-.7 2.28l-5.71 8.24A3.21 3.21 0 008.22 29h15.56c1.08 0 1.98-.5 2.55-1.26zm-1.45-1.45c-.19.4-.59.71-1.1.71H8.22c-.98 0-1.55-1.1-1-1.9l3.55-5.13A1 1 0 0011 20h7.59l6.29 6.3zM16.58 18h-4.44l.8-1.15a6 6 0 00.8-1.69L16.6 18zM18 13.44a6 6 0 00.1 1.13L24 20.45l-3.28-4.73a4 4 0 01-.71-2.28V5h1a1 1 0 000-2H11a1 1 0 100 2h1v3.46l2 2V5h4v8.44z"/></svg>