<svg width="24" height="24" viewBox="0 0 24 24" xmlns="http://www.w3.org/2000/svg"><path d="M3 6a3 3 0 0 1 3-3 1 1 0 0 1 0 2 1 1 0 0 0-1 1v3.94A3 3 0 0 1 4.18 12 3 3 0 0 1 5 14.06V18a1 1 0 0 0 1 1 1 1 0 1 1 0 2 3 3 0 0 1-3-3v-3.94a1 1 0 0 0-.76-.97l-.48-.12a1 1 0 0 1 0-1.94l.48-.12A1 1 0 0 0 3 9.94V6Zm18 0a3 3 0 0 0-3-3 1 1 0 1 0 0 2 1 1 0 0 1 1 1v3.94a3 3 0 0 0 .82 2.06 3 3 0 0 0-.82 2.06V18a1 1 0 0 1-1 1 1 1 0 1 0 0 2 3 3 0 0 0 3-3v-3.94a1 1 0 0 1 .76-.97l.48-.12a1 1 0 0 0 0-1.94l-.48-.12a1 1 0 0 1-.76-.97V6Zm-11.71.89A1 1 0 1 0 7.7 8.1L10.73 12l-3.02 3.89A1 1 0 1 0 9.3 17.1L12 13.63l2.71 3.48a1 1 0 0 0 1.58-1.22L13.27 12l3.02-3.89A1 1 0 0 0 14.7 6.9L12 10.37 9.29 6.9Z"/></svg>