<svg width="48" height="48" viewBox="0 0 48 48" xmlns="http://www.w3.org/2000/svg"><path d="M13.5 6A6.5 6.5 0 0 0 7 12.5v6.86c0 1.48-.98 2.79-2.41 3.2a1.5 1.5 0 0 0 .02 2.89A3.33 3.33 0 0 1 7 28.64v6.86a6.5 6.5 0 0 0 6.5 6.5 1.5 1.5 0 0 0 0-3 3.5 3.5 0 0 1-3.5-3.5v-6.86c0-1.8-.76-3.47-2.03-4.64A6.32 6.32 0 0 0 10 19.36V12.5A3.5 3.5 0 0 1 13.5 9a1.5 1.5 0 0 0 0-3Zm4.18 7.57a1.5 1.5 0 1 0-2.36 1.86L22.1 24l-6.77 8.57a1.5 1.5 0 1 0 2.36 1.86l6.32-8 6.32 8a1.5 1.5 0 1 0 2.36-1.86L25.9 24l6.77-8.57a1.5 1.5 0 0 0-2.36-1.86l-6.32 8-6.32-8ZM34.5 6a6.5 6.5 0 0 1 6.5 6.5v6.86c0 1.48.98 2.79 2.41 3.2a1.5 1.5 0 0 1-.02 2.89A3.33 3.33 0 0 0 41 28.64v6.86a6.5 6.5 0 0 1-6.5 6.5 1.5 1.5 0 0 1 0-3 3.5 3.5 0 0 0 3.5-3.5v-6.86c0-1.8.77-3.47 2.03-4.64A6.32 6.32 0 0 1 38 19.36V12.5A3.5 3.5 0 0 0 34.5 9a1.5 1.5 0 0 1 0-3Z"/></svg>