<svg width="48" height="48" viewBox="0 0 48 48" xmlns="http://www.w3.org/2000/svg"><path d="M13.25 6A6.25 6.25 0 0 0 7 12.25v7.66c0 1.37-.95 2.56-2.28 2.87a1.25 1.25 0 0 0 .02 2.44A2.94 2.94 0 0 1 7 28.1v7.66C7 39.2 9.8 42 13.25 42a1.25 1.25 0 0 0 0-2.5 3.75 3.75 0 0 1-3.75-3.75v-7.66c0-1.61-.7-3.08-1.85-4.09a5.44 5.44 0 0 0 1.85-4.09v-7.66a3.75 3.75 0 0 1 3.75-3.75 1.25 1.25 0 0 0 0-2.5Zm4.48 7.98a1.25 1.25 0 1 0-1.96 1.54L22.4 24l-6.64 8.48a1.25 1.25 0 1 0 1.96 1.54l6.27-8 6.27 8a1.25 1.25 0 1 0 1.96-1.54L25.6 24l6.64-8.48a1.25 1.25 0 0 0-1.96-1.54l-6.27 8-6.27-8ZM34.75 6C38.2 6 41 8.8 41 12.25v7.66c0 1.37.95 2.56 2.28 2.87a1.25 1.25 0 0 1-.02 2.44A2.94 2.94 0 0 0 41 28.1v7.66C41 39.2 38.2 42 34.75 42a1.25 1.25 0 0 1 0-2.5 3.75 3.75 0 0 0 3.75-3.75v-7.66c0-1.61.7-3.08 1.85-4.09a5.44 5.44 0 0 1-1.85-4.09v-7.66a3.75 3.75 0 0 0-3.75-3.75 1.25 1.25 0 1 1 0-2.5Z"/></svg>