<svg width="20" height="20" viewBox="0 0 20 20" xmlns="http://www.w3.org/2000/svg"><path d="M11.3 2.48a3.5 3.5 0 0 0-2.6 0l-5.76 2.3A1.5 1.5 0 0 0 2 6.18v7.64c0 .62.37 1.17.94 1.4l5.76 2.3a3.5 3.5 0 0 0 2.6 0l5.76-2.3c.57-.23.94-.78.94-1.4V6.18a1.5 1.5 0 0 0-.94-1.4l-5.76-2.3Zm-2.23.93a2.5 2.5 0 0 1 1.86 0l5.22 2.09-2.27.91-6.16-2.46 1.35-.54Zm-2.7 1.08 6.16 2.46L10 7.96 3.85 5.5l2.53-1.01Zm4.13 4.35 6.5-2.6v7.58a.5.5 0 0 1-.31.47l-5.76 2.3c-.14.06-.28.1-.43.13V8.84Zm-1 0v7.88a2.5 2.5 0 0 1-.43-.13l-5.76-2.3a.5.5 0 0 1-.31-.47V6.24l6.5 2.6Z"/></svg>