<svg width="24" height="24" viewBox="0 0 24 24" xmlns="http://www.w3.org/2000/svg"><path d="M21.15 3a.75.75 0 1 1 .2 1.5l-6.85.92v1.83c0 .64-.19 1.24-.51 1.75h2.76c1.8 0 3.25 1.46 3.25 3.25v6.5c0 1.24-1 2.25-2.25 2.25H6.25C5.01 21 4 20 4 18.75v-6.5C4 10.45 5.46 9 7.25 9h4C12.22 9 13 8.22 13 7.25V5.62L2.85 7a.75.75 0 1 1-.2-1.48L13 4.1v-.36a.75.75 0 0 1 1.5 0v.16l6.65-.9Zm-13.9 7.5c-.97 0-1.75.78-1.75 1.75v3.25h13v-3.25c0-.97-.78-1.75-1.75-1.75h-9.5ZM18.5 17h-13v1.75c0 .41.34.75.75.75h11.5c.41 0 .75-.34.75-.75V17Z"/></svg>