<svg width="28" height="28" viewBox="0 0 28 28" xmlns="http://www.w3.org/2000/svg"><path d="M25.15 3a.75.75 0 1 1 .2 1.5L17.5 5.53v3.71c0 .64-.19 1.24-.51 1.75h2.26A3.75 3.75 0 0 1 23 14.75v7.5A2.75 2.75 0 0 1 20.25 25H7.75A2.75 2.75 0 0 1 5 22.25v-7.5A3.75 3.75 0 0 1 8.75 11h5.5c.97 0 1.75-.78 1.75-1.75V5.74L2.85 7.49a.75.75 0 0 1-.2-1.48L16 4.23v-.48a.75.75 0 0 1 1.5 0v.28L25.15 3ZM21.5 14.76c0-1.24-1-2.25-2.25-2.25H8.75c-1.24 0-2.25 1-2.25 2.25v3.75h15v-3.75ZM6.5 20v2.25c0 .69.56 1.25 1.25 1.25h12.5c.69 0 1.25-.56 1.25-1.25V20h-15Z"/></svg>