<svg width="16" height="16" viewBox="0 0 16 16" xmlns="http://www.w3.org/2000/svg"><path d="M14 1.5a.5.5 0 1 1 1 0 .5.5 0 0 1-1 0Zm-2 1a.5.5 0 1 1 1 0 .5.5 0 0 1-1 0ZM10.5 4a.5.5 0 1 0 0-1 .5.5 0 0 0 0 1Zm2 0a.5.5 0 1 0 0 1 .5.5 0 0 0 0-1Zm2-1a.5.5 0 1 0 0 1 .5.5 0 0 0 0-1ZM14 5.5a.5.5 0 1 1 1 0 .5.5 0 0 1-1 0Zm-3.01.94c0-.03 0-.05-.02-.07a.5.5 0 0 0-.12-.22L9 4.29V2.5a.5.5 0 0 0-.5-.5h-2a.5.5 0 0 0-.5.5v1.8L4.15 6.14a.5.5 0 0 0-.14.29v.02L4 6.5v6.75c0 .97.78 1.75 1.75 1.75h3.5c.97 0 1.75-.78 1.75-1.75V6.47l-.01-.03ZM7 3h1v1H7V3Zm-.3 2h1.6l1 1H5.7l1-1Z"/></svg>