<svg width="24" height="24" viewBox="0 0 24 24" xmlns="http://www.w3.org/2000/svg"><path d="M5.75 3h12.5A2.75 2.75 0 0121 5.75v12.5A2.75 2.75 0 0118.25 21H5.75A2.75 2.75 0 013 18.25V5.75A2.75 2.75 0 015.75 3zM4.5 5.75v1.04L6.8 4.5H5.74c-.69 0-1.25.56-1.25 1.25zm0 2.46v2.58l6.3-6.29H8.2L4.5 8.2zm7.7-3.71l-7.7 7.7v2.6L14.8 4.5h-2.6zm4 0L4.5 16.2v2.05c0 .16.03.32.09.46L18.7 4.59c-.14-.06-.3-.09-.46-.09h-2.04zm3.21.8L5.3 19.4c.14.06.3.09.46.09h2.04L19.5 7.8V5.74c0-.16-.03-.32-.09-.46zm.09 3.9L9.2 19.5h2.6l7.7-7.7V9.2zm0 4l-6.3 6.3h2.6l3.7-3.7v-2.6zm0 4l-2.3 2.3h1.05c.69 0 1.25-.56 1.25-1.25v-1.04z"/></svg>