<svg width="28" height="28" viewBox="0 0 28 28" xmlns="http://www.w3.org/2000/svg"><path d="M6.25 3h15.5C23.55 3 25 4.46 25 6.25v15.5c0 1.8-1.46 3.25-3.25 3.25H6.25A3.25 3.25 0 013 21.75V6.25C3 4.45 4.46 3 6.25 3zM4.5 6.25v1.19L7.44 4.5H6.25c-.97 0-1.75.78-1.75 1.75zm0 3.31v2.88l7.94-7.94H9.56L4.5 9.56zM14.56 4.5L4.5 14.56v2.88L17.44 4.5h-2.88zm5 0L4.5 19.56v2.19c0 .2.04.4.1.59L22.34 4.6c-.19-.06-.38-.1-.59-.1h-2.19zm3.84 1.16L5.66 23.4c.19.06.38.1.59.1h2.19L23.5 8.44V6.25c0-.2-.04-.4-.1-.59zm.1 4.9L10.56 23.5h2.88L23.5 13.44v-2.88zm0 5l-7.94 7.94h2.88l5.06-5.06v-2.88zm0 5l-2.94 2.94h1.19c.97 0 1.75-.78 1.75-1.75v-1.19z"/></svg>