<svg width="28" height="28" viewBox="0 0 28 28" xmlns="http://www.w3.org/2000/svg"><path d="M6.25 4.5c-.97 0-1.75.78-1.75 1.75v15.5c0 .88.65 1.61 1.5 1.73v-7.23C6 15.01 7 14 8.25 14h11.5c1.24 0 2.25 1 2.25 2.25v7.23c.85-.12 1.5-.85 1.5-1.73V8.79c0-.47-.18-.91-.51-1.24L20.45 5a1.75 1.75 0 00-1.24-.51H19v4.25C19 9.99 18 11 16.75 11h-6.5C9.01 11 8 10 8 8.75V4.5H6.25zm3.25 0v4.25c0 .41.34.75.75.75h6.5c.41 0 .75-.34.75-.75V4.5h-8zm11 19v-7.25a.75.75 0 00-.75-.75H8.25a.75.75 0 00-.75.75v7.25h13zM3 6.25C3 4.45 4.46 3 6.25 3h12.96c.87 0 1.7.34 2.3.95l2.54 2.54c.6.6.95 1.43.95 2.3v12.96c0 1.8-1.46 3.25-3.25 3.25H6.25A3.25 3.25 0 013 21.75V6.25z"/></svg>