<svg width="16" height="16" viewBox="0 0 16 16" xmlns="http://www.w3.org/2000/svg"><path d="M6.26 14H4.5A2.5 2.5 0 0 1 2 11.5V6h5.34a5.5 5.5 0 0 0-1.08 8ZM14 5v-.5A2.5 2.5 0 0 0 11.5 2h-7A2.5 2.5 0 0 0 2 4.5V5h12Zm-8 5.5a4.5 4.5 0 1 0 9 0 4.5 4.5 0 0 0-9 0Zm6.5-3c.28 0 .5.22.5.5v1.5a.5.5 0 0 1-.5.5H11a.5.5 0 0 1 0-1h.47a1.98 1.98 0 0 0-1.72-.1 2 2 0 0 0-.66.44.5.5 0 0 1-.71-.71A3 3 0 0 1 12 8.15V8c0-.28.22-.5.5-.5Zm-.88 5.53A3 3 0 0 1 9 12.85V13a.5.5 0 0 1-1 0v-1.5c0-.28.22-.5.5-.5H10a.5.5 0 0 1 0 1h-.47a1.99 1.99 0 0 0 2.38-.34.5.5 0 0 1 .71.71 3 3 0 0 1-1 .66Z"/></svg>