<svg width="20" height="20" viewBox="0 0 20 20" xmlns="http://www.w3.org/2000/svg"><path d="M14.5 3A2.5 2.5 0 0 1 17 5.5v4.1c-.32-.16-.65-.3-1-.4V7H4v7.5c0 .83.67 1.5 1.5 1.5h3.7c.1.35.24.68.4 1H5.5A2.5 2.5 0 0 1 3 14.5v-9A2.5 2.5 0 0 1 5.5 3h9Zm0 1h-9C4.67 4 4 4.67 4 5.5V6h12v-.5c0-.83-.67-1.5-1.5-1.5ZM10 14.5a4.5 4.5 0 1 0 9 0 4.5 4.5 0 0 0-9 0Zm6.5-3c.28 0 .5.22.5.5v1.5a.5.5 0 0 1-.5.5H15a.5.5 0 0 1 0-1h.47a1.97 1.97 0 0 0-.94-.25 2 2 0 0 0-1.44.59.5.5 0 0 1-.71-.71 3 3 0 0 1 3.62-.48V12c0-.28.22-.5.5-.5Zm-.88 5.53a3 3 0 0 1-2.62-.18V17a.5.5 0 0 1-1 0v-1.5c0-.28.22-.5.5-.5H14a.5.5 0 0 1 0 1h-.47a1.97 1.97 0 0 0 .94.25 2 2 0 0 0 1.44-.59.5.5 0 0 1 .71.71 3 3 0 0 1-1 .66Z"/></svg>