<svg width="32" height="32" viewBox="0 0 32 32" xmlns="http://www.w3.org/2000/svg"><path d="M19 2a3 3 0 012.83 2h1.67A3.5 3.5 0 0127 7.5v6.54c-.7.1-1.4.38-2 .83V7.5c0-.83-.67-1.5-1.5-1.5h-1.67A3 3 0 0119 8h-6a3 3 0 01-2.83-2H8.5C7.67 6 7 6.67 7 7.5v19c0 .83.67 1.5 1.5 1.5h5.8l-.22.87c-.1.4-.1.77-.03 1.13H8.5A3.5 3.5 0 015 26.5v-19A3.5 3.5 0 018.5 4h1.67A3 3 0 0113 2h6zm-6 2a1 1 0 100 2h6a1 1 0 100-2h-6zm4.86 18l-1.92 1.93a4 4 0 00-.06.07H11a1 1 0 110-2h6.86zM10 13a1 1 0 011-1h10a1 1 0 110 2H11a1 1 0 01-1-1zm1 4a1 1 0 100 2h5a1 1 0 100-2h-5zm18.65 3.42l-8.61 8.55c-.35.35-.8.6-1.27.72l-3.02.78a1 1 0 01-1.22-1.22l.8-3.05c.11-.46.35-.88.68-1.21l8.57-8.64a2.88 2.88 0 114.07 4.07z"/></svg>