<svg width="20" height="20" viewBox="0 0 20 20" xmlns="http://www.w3.org/2000/svg"><path d="M6 8.5c0-.28.22-.5.5-.5h7a.5.5 0 010 1h-7a.5.5 0 01-.5-.5zm.5 2.5a.5.5 0 000 1h3a.5.5 0 000-1h-3zM6 14.5c0-.28.22-.5.5-.5h4.44l-.67.67c-.1.1-.2.21-.28.33H6.5a.5.5 0 01-.5-.5zM9.22 17H5.5a.5.5 0 01-.5-.5v-12c0-.28.22-.5.5-.5h1.59c.2.58.76 1 1.41 1h3c.65 0 1.2-.42 1.41-1h1.59c.28 0 .5.22.5.5v5.44l.1-.1c.27-.27.57-.47.9-.6V4.5c0-.83-.67-1.5-1.5-1.5h-1.59c-.2-.58-.76-1-1.41-1h-3c-.65 0-1.2.42-1.41 1H5.5C4.67 3 4 3.67 4 4.5v12c0 .83.67 1.5 1.5 1.5H9l.06-.35.16-.65zM12 3.5a.5.5 0 01-.5.5h-3a.5.5 0 010-1h3c.28 0 .5.22.5.5zm-1.02 11.88l4.83-4.83a1.87 1.87 0 112.64 2.64l-4.83 4.83a2.2 2.2 0 01-1.02.58l-1.5.37a.89.89 0 01-1.07-1.07l.37-1.5c.1-.39.3-.74.58-1.02z"/></svg>