<svg width="24" height="24" viewBox="0 0 24 24" xmlns="http://www.w3.org/2000/svg"><path d="M15.98 3.94A2.25 2.25 0 0013.75 2h-3.5c-1.14 0-2.08.85-2.23 1.94l-.01.14V4H6.25C5.01 4 4 5 4 6.25v13.5C4 20.99 5 22 6.25 22H11c0-.2.01-.4.06-.6l.46-1.82c.1-.39.25-.75.46-1.08H8A.75.75 0 018 17h5.36l5.03-5.04a3.27 3.27 0 011.61-.88V6.25C20 5.01 19 4 17.75 4h-1.76v.08l-.01-.14zm-5.73-.44h3.5a.75.75 0 010 1.5h-3.5a.75.75 0 010-1.5zM8 13h4a.75.75 0 010 1.5H8A.75.75 0 018 13zm0-4h8a.75.75 0 010 1.5H8A.75.75 0 018 9zm11.1 3.67l-5.9 5.9c-.35.35-.6.78-.7 1.25l-.47 1.83c-.2.8.53 1.52 1.32 1.32l1.83-.46c.47-.12.9-.36 1.25-.7l5.9-5.9a2.29 2.29 0 00-3.23-3.24z"/></svg>