<svg width="32" height="32" viewBox="0 0 32 32" xmlns="http://www.w3.org/2000/svg"><path d="M19 2a3 3 0 0 1 2.83 2h1.67A3.5 3.5 0 0 1 27 7.5v6.54c-.7.1-1.4.38-2 .83V7.5c0-.83-.67-1.5-1.5-1.5h-1.67A3 3 0 0 1 19 8h-6a3 3 0 0 1-2.83-2H8.5C7.67 6 7 6.67 7 7.5v19c0 .83.67 1.5 1.5 1.5h5.8l-.22.87c-.1.4-.1.77-.03 1.13H8.5A3.5 3.5 0 0 1 5 26.5v-19A3.5 3.5 0 0 1 8.5 4h1.67A3 3 0 0 1 13 2h6Zm-6 2a1 1 0 1 0 0 2h6a1 1 0 1 0 0-2h-6Zm4.86 18-1.92 1.93a4 4 0 0 0-.06.07H11a1 1 0 1 1 0-2h6.86ZM10 13a1 1 0 0 1 1-1h10a1 1 0 1 1 0 2H11a1 1 0 0 1-1-1Zm1 4a1 1 0 1 0 0 2h5a1 1 0 1 0 0-2h-5Zm18.65 3.42-8.61 8.55c-.35.35-.8.6-1.27.72l-3.02.78a1 1 0 0 1-1.22-1.22l.8-3.05c.11-.46.35-.88.68-1.21l8.57-8.64a2.88 2.88 0 1 1 4.07 4.07Z"/></svg>