<svg width="32" height="32" viewBox="0 0 32 32" xmlns="http://www.w3.org/2000/svg"><path d="M23.5 4h-1.67A3 3 0 0019 2h-6a3 3 0 00-2.83 2H8.5A3.5 3.5 0 005 7.5v19A3.5 3.5 0 008.5 30h5.55a2.5 2.5 0 01.03-1.13l.79-3.05c.18-.68.52-1.3 1-1.82H11a1 1 0 110-2h6.86l6.65-6.7c.7-.71 1.58-1.13 2.49-1.26V7.5A3.5 3.5 0 0023.5 4zM13 4h6a1 1 0 110 2h-6a1 1 0 110-2zm-3 9a1 1 0 011-1h10a1 1 0 110 2H11a1 1 0 01-1-1zm1 4h5a1 1 0 110 2h-5a1 1 0 110-2zm18.65 3.42l-8.61 8.55c-.35.35-.8.6-1.27.72l-3.02.78a1 1 0 01-1.22-1.22l.8-3.05c.11-.46.35-.88.68-1.21l8.57-8.64a2.88 2.88 0 114.07 4.07z"/></svg>