<svg width="24" height="24" viewBox="0 0 24 24" xmlns="http://www.w3.org/2000/svg"><path d="M15.99 4a2.25 2.25 0 00-2.24-2h-3.5c-1.16 0-2.11.87-2.24 2H6.25C5.01 4 4 5 4 6.25v13.5C4 20.99 5 22 6.25 22H11c0-.2.01-.4.06-.6l.23-.9H6.25a.75.75 0 01-.75-.75V6.25c0-.41.34-.75.75-.75h2.13c.4.6 1.09 1 1.87 1h3.5c.78 0 1.47-.4 1.87-1h2.13c.41 0 .75.34.75.75v5.61c.44-.4.96-.66 1.5-.78V6.25C20 5.01 19 4 17.75 4h-1.76zm0 .1l.01.15V4.1zm-5.74-.6h3.5a.75.75 0 010 1.5h-3.5a.75.75 0 010-1.5zm3.1 13.5H8a.75.75 0 000 1.5h3.98c.15-.23.32-.44.51-.64l.87-.86zM12 14.5H8A.75.75 0 018 13h4a.75.75 0 010 1.5zm4-4H8A.75.75 0 018 9h8a.75.75 0 010 1.5zm3.1 2.17l-5.9 5.9c-.35.35-.6.78-.7 1.25l-.47 1.83c-.2.8.53 1.52 1.32 1.32l1.83-.46c.47-.12.9-.36 1.25-.7l5.9-5.9a2.29 2.29 0 00-3.23-3.24z"/></svg>