<svg width="16" height="16" viewBox="0 0 16 16" xmlns="http://www.w3.org/2000/svg"><path d="M13.43 2.57A1.94 1.94 0 0 1 14 3.94a1.98 1.98 0 0 1-.57 1.46l-.7.7.25.26a1.14 1.14 0 0 1 0 1.6l-.59.58a1.14 1.14 0 0 1-1.6 0l-.25-.25-4.94 4.93a.5.5 0 0 1-.35.15h-.53l-1.29.55a1.03 1.03 0 0 1-1.35-1.35l.55-1.29v-.53a.5.5 0 0 1 .15-.35l4.94-4.95-.26-.25a1.14 1.14 0 0 1 0-1.6l.6-.59a1.14 1.14 0 0 1 1.6 0l.25.26.7-.7A1.95 1.95 0 0 1 11.98 2a1.98 1.98 0 0 1 1.45.57Zm-5 3.6-4.8 4.78v.43a.5.5 0 0 1-.03.2L3 12.96l1.41-.56a.5.5 0 0 1 .2-.04h.43l4.79-4.79-1.4-1.4Zm4.3-1.49a.96.96 0 0 0 .28-.67 1.02 1.02 0 0 0-.29-.73.95.95 0 0 0-.67-.28 1 1 0 0 0-.73.28l-1.05 1.05a.5.5 0 0 1-.71 0l-.61-.6a.14.14 0 0 0-.05-.03.13.13 0 0 0-.05-.01h-.06a.14.14 0 0 0-.04.04l-.58.58a.13.13 0 0 0-.04.1.13.13 0 0 0 .04.09l3.33 3.33.04.03.05.01a.13.13 0 0 0 .1-.04l.58-.58a.13.13 0 0 0 .04-.1.13.13 0 0 0-.04-.1l-.6-.6a.5.5 0 0 1 0-.7l1.05-1.07Z"/></svg>