<svg width="24" height="24" viewBox="0 0 24 24" xmlns="http://www.w3.org/2000/svg"><path d="M16.75 2C17.99 2 19 3 19 4.25v15.5c0 1.24-1 2.25-2.25 2.25h-5.56c.43-.44.8-.95 1.08-1.5h4.48c.41 0 .75-.34.75-.75V4.25a.75.75 0 0 0-.75-.75H6.25a.75.75 0 0 0-.75.75v6.83c-.52.08-1.03.22-1.5.42V4.25C4 3.01 5 2 6.25 2h10.5Z"/><path d="M20 15h.75c.38 0 .7.28.74.65l.01.1v1.5c0 .38-.28.7-.65.74l-.1.01H20v-3Z"/><path d="M20 11h.75c.38 0 .7.28.74.65l.01.1v1.5c0 .38-.28.7-.65.74l-.1.01H20v-3Z"/><path d="M20 7h.75c.38 0 .7.28.74.65l.01.1v1.5c0 .38-.28.7-.65.74l-.1.01H20V7Z"/><path d="M15.25 5c.41 0 .75.34.75.75v2.5c0 .41-.34.75-.75.75h-7.5A.75.75 0 0 1 7 8.25v-2.5c0-.41.34-.75.75-.75h7.5Zm-.75 1.5h-6v1h6v-1Z"/><path d="M12 17.5a5.5 5.5 0 1 0-11 0 5.5 5.5 0 0 0 11 0ZM7 18v2.5a.5.5 0 1 1-1 0V18H3.5a.5.5 0 0 1 0-1H6v-2.5a.5.5 0 1 1 1 0V17h2.5a.5.5 0 0 1 0 1H7Z"/></svg>