<svg width="20" height="20" viewBox="0 0 20 20" xmlns="http://www.w3.org/2000/svg"><path d="M10 2c2.82 0 4.41 1.92 4.65 4.25h.07A3.33 3.33 0 0 1 18 9.76a3 3 0 0 0-1.04-.6 2.3 2.3 0 0 0-2.24-1.91h-.07a1 1 0 0 1-1-.9C13.45 4.32 12.11 3 10 3S6.55 4.32 6.35 6.35a1 1 0 0 1-1 .9h-.07A2.33 2.33 0 0 0 3 9.62 2.33 2.33 0 0 0 5.28 12h5.94a2.5 2.5 0 0 0-.37.7l-.1.3H5.28A3.33 3.33 0 0 1 2 9.62c0-1.8 1.37-3.27 3.1-3.37h.25C5.6 3.9 7.18 2 10 2Zm6.93 8.23A2.01 2.01 0 0 1 18 12a2 2 0 0 1-3.73 1h-1.05a.5.5 0 0 0-.47.34l-.55 1.63A1.5 1.5 0 0 1 10.78 16H10a2 2 0 1 1-.27-1h1.05a.5.5 0 0 0 .47-.34l.55-1.63a1.94 1.94 0 0 1 .1-.22c.25-.5.76-.81 1.32-.81H14a2 2 0 0 1 2.93-1.77Zm-.44.9a1 1 0 0 0-1.49.86V12a1 1 0 0 0 2 .01V12a1 1 0 0 0-.51-.87ZM9 16a1 1 0 1 0-2 0 1 1 0 0 0 2 0Z"/></svg>