<svg width="24" height="24" viewBox="0 0 24 24" xmlns="http://www.w3.org/2000/svg"><path d="M17.5 1a4 4 0 00-4 4v3l-.95.8c-.3.26-.46.39-.5.5a.5.5 0 00.24.65c.1.05.3.05.7.05h9.02c.4 0 .6 0 .7-.05a.5.5 0 00.25-.66c-.05-.1-.2-.23-.5-.49L21.5 8V5a4 4 0 00-4-4zM19 11c-.22.58-.8 1-1.5 1-.69 0-1.28-.42-1.5-1h3zm3 5.75V11h-1.5v5.89c-.08.9-.83 1.61-1.75 1.61H5.11c-.9-.08-1.61-.83-1.61-1.75V9.37l8.15 4.3.1.04c.2.07.41.05.6-.05l3.1-1.63c-.16-.2-.3-.43-.39-.68l-.13-.35h-.74L12 12.15 3.5 7.68V7.1c.08-.9.83-1.61 1.75-1.61h7.25V5c0-.34.03-.68.1-1H5.07A3.25 3.25 0 002 7.26v9.68A3.25 3.25 0 005.26 20h13.68A3.25 3.25 0 0022 16.74z"/></svg>