<svg width="28" height="28" viewBox="0 0 28 28" xmlns="http://www.w3.org/2000/svg"><path d="M20.5 1A4.5 4.5 0 0016 5.5V8l-1.62 1.88c-.22.25-.33.37-.36.47a.5.5 0 00.28.6c.1.05.26.05.6.05h11.2c.33 0 .5 0 .6-.04a.5.5 0 00.27-.6c-.03-.1-.14-.23-.35-.48L25 8V5.5A4.5 4.5 0 0020.5 1zm0 13a2 2 0 002-2h-4c0 1.1.9 2 2 2zm-7.43-3.95c.07-.23.2-.4.27-.5l.27-.31 1.4-1.61V5.5l.01-.5H6.07A3.25 3.25 0 003 8.26v.18l11 5.72 3.52-1.83-.02-.32h-3.04c-.12-.01-.33-.03-.56-.12a1.5 1.5 0 01-.83-1.83zM20.5 15a3 3 0 01-2.44-1.26l-3.71 1.93a.75.75 0 01-.7 0L3 10.12v9.81A3.25 3.25 0 006.26 23h15.68A3.25 3.25 0 0025 19.74V12h-1.5a3 3 0 01-3 3z"/></svg>