<svg width="24" height="24" viewBox="0 0 24 24" xmlns="http://www.w3.org/2000/svg"><path d="M2 6.75A2.75 2.75 0 014.75 4h14.5A2.75 2.75 0 0122 6.75v6.06a6.48 6.48 0 00-6.21-1.58.75.75 0 00-.54-.23h-8.5a.75.75 0 000 1.5h6.6c-.52.43-.97.93-1.33 1.5H6.75a.75.75 0 000 1.5h4.56a6.5 6.5 0 00.19 4.5H4.75A2.75 2.75 0 012 17.25V6.75zM6.75 8a.75.75 0 000 1.5h4.5a.75.75 0 000-1.5h-4.5zM23 17.5a5.5 5.5 0 11-11 0 5.5 5.5 0 0111 0zm-8.5-.5a.5.5 0 000 1h4.8l-1.65 1.65a.5.5 0 00.7.7l2.5-2.5a.5.5 0 000-.7l-2.5-2.5a.5.5 0 00-.7.7L19.29 17H14.5z"/></svg>