<svg width="24" height="24" viewBox="0 0 24 24" xmlns="http://www.w3.org/2000/svg"><path d="M6.75 8a.75.75 0 000 1.5h4.5a.75.75 0 000-1.5h-4.5zM6 11.75c0-.41.34-.75.75-.75h8.5c.21 0 .4.09.54.23-.91.25-1.74.68-2.44 1.27h-6.6a.75.75 0 01-.75-.75zm14.5-5v4.98c.55.29 1.06.65 1.5 1.08V6.75A2.75 2.75 0 0019.25 4H4.75A2.75 2.75 0 002 6.75v10.5A2.75 2.75 0 004.75 20h6.75c-.2-.47-.34-.98-.42-1.5H4.75c-.69 0-1.25-.56-1.25-1.25V6.75c0-.69.56-1.25 1.25-1.25h14.5c.69 0 1.25.56 1.25 1.25zm-9.19 8.75c.18-.53.42-1.04.71-1.5H6.75a.75.75 0 000 1.5h4.56zm11.69 2a5.5 5.5 0 11-11 0 5.5 5.5 0 0111 0zm-8.5-.5a.5.5 0 000 1h4.8l-1.65 1.65a.5.5 0 00.7.7l2.5-2.5a.5.5 0 000-.7l-2.5-2.5a.5.5 0 00-.7.7L19.29 17H14.5z"/></svg>