<svg width="20" height="20" viewBox="0 0 20 20" xmlns="http://www.w3.org/2000/svg"><path d="M5.5 7a.5.5 0 0 0 0 1h4a.5.5 0 0 0 0-1h-4Zm0 2.5a.5.5 0 0 0 0 1h5.23c.43-.4.93-.75 1.48-1H5.5Zm0 2.5h4.1c-.16.32-.3.65-.4 1H5.5a.5.5 0 0 1 0-1Zm-1 3h4.52c.03.34.1.68.19 1H4.5A2.5 2.5 0 0 1 2 13.5v-7A2.5 2.5 0 0 1 4.5 4h11A2.5 2.5 0 0 1 18 6.5v3.76a5.5 5.5 0 0 0-1-.66V6.5c0-.83-.67-1.5-1.5-1.5h-11C3.67 5 3 5.67 3 6.5v7c0 .83.67 1.5 1.5 1.5Zm14.5-.5a4.5 4.5 0 1 1-9 0 4.5 4.5 0 0 1 9 0Zm-2.15.35a.5.5 0 0 0 .15-.35.5.5 0 0 0-.15-.35l-2-2a.5.5 0 0 0-.7.7L15.29 14H12.5a.5.5 0 0 0 0 1h2.8l-1.15 1.15a.5.5 0 0 0 .7.7l2-2Z"/></svg>