<svg width="20" height="20" viewBox="0 0 20 20" xmlns="http://www.w3.org/2000/svg"><path d="M10 9.5a2 2 0 100-4 2 2 0 000 4zm0 5c2.5 0 3.5-1.26 3.5-2.5 0-.83-.67-1.5-1.5-1.5H8c-.83 0-1.5.67-1.5 1.5 0 1.25 1 2.5 3.5 2.5zm.28-12.42a.5.5 0 00-.56 0 15.05 15.05 0 01-6.3 2.43A.5.5 0 003 5v4.5c0 3.9 2.3 6.73 6.82 8.47a.5.5 0 00.36 0C14.69 16.23 17 13.39 17 9.5V5a.5.5 0 00-.43-.5 15.05 15.05 0 01-6.3-2.42zM4 5.43a15.97 15.97 0 005.6-2.08l.4-.25.4.25A15.97 15.97 0 0016 5.43V9.5c0 3.4-1.97 5.86-6 7.46-4.03-1.6-6-4.07-6-7.46V5.43z"/></svg>