<svg width="20" height="20" viewBox="0 0 20 20" xmlns="http://www.w3.org/2000/svg"><path d="M5 4c0-1.1.9-2 2-2h6a2 2 0 0 1 2 2v3.09a1.5 1.5 0 0 0-1 0V4a1 1 0 0 0-1-1H7a1 1 0 0 0-1 1v3.09a1.5 1.5 0 0 0-1 0V4Zm0 9.91V16c0 1.1.9 2 2 2h6a2 2 0 0 0 2-2v-2.09a1.5 1.5 0 0 1-1 0V16a1 1 0 0 1-1 1H7a1 1 0 0 1-1-1v-2.09a1.5 1.5 0 0 1-1 0Zm2.85-3.06-2 2a.5.5 0 0 1-.7-.7L6.29 11H3.5a.5.5 0 0 1 0-1h2.8L5.14 8.85a.5.5 0 1 1 .7-.7l2 2a.5.5 0 0 1 .15.35.5.5 0 0 1-.14.35Zm6.3-2.7-2 2a.5.5 0 0 0-.15.35.5.5 0 0 0 .15.35l2 2a.5.5 0 0 0 .7-.7L13.71 11h2.79a.5.5 0 0 0 0-1h-2.8l1.15-1.15a.5.5 0 0 0-.7-.7Z"/></svg>