<svg width="20" height="20" viewBox="0 0 20 20" xmlns="http://www.w3.org/2000/svg"><path d="M9.5 2c.28 0 .5.22.5.5V6h1.5a.5.5 0 010 1H10v3.5a.5.5 0 01-1 0v-8c0-.28.22-.5.5-.5zM3 3.5c0-.28.22-.5.5-.5h4c.28 0 .5.22.5.5v1.25c0 1.05-.2 2.35-.88 3.4A4.04 4.04 0 013.5 10a.5.5 0 010-1c1.43 0 2.27-.6 2.78-1.4.53-.82.72-1.9.72-2.85V4H3.5a.5.5 0 01-.5-.5zm11.15.65c.2-.2.5-.2.7 0l2 2c.2.2.2.5 0 .7l-2 2a.5.5 0 01-.7-.7L15.29 7H13.5a.5.5 0 010-1h1.8l-1.15-1.15a.5.5 0 010-.7zm0 8c.2-.2.5-.2.7 0l2 2c.2.2.2.5 0 .7l-2 2a.5.5 0 01-.7-.7L15.29 15H3.5a.5.5 0 010-1h11.8l-1.15-1.15a.5.5 0 010-.7z"/></svg>