<svg width="24" height="24" viewBox="0 0 24 24" xmlns="http://www.w3.org/2000/svg"><path d="M12 5a1 1 0 10-2 0v8a1 1 0 102 0v-3h1a1 1 0 100-2h-1V5zM4 5a1 1 0 100 2h3v.25c0 .9-.18 1.87-.64 2.59C5.94 10.49 5.26 11 4 11a1 1 0 100 2c1.94 0 3.26-.86 4.04-2.09.74-1.15.96-2.56.96-3.66V6a1 1 0 00-1-1H4zm14.3 9.3a1 1 0 011.4 0l2 2a1 1 0 010 1.4l-2 2a1 1 0 01-1.4-1.4l.29-.3H5a1 1 0 110-2h13.59l-.3-.3a1 1 0 010-1.4zm1.4-8a1 1 0 10-1.4 1.4l.29.3H16a1 1 0 100 2h2.59l-.3.3a1 1 0 001.42 1.4l2-2a1 1 0 000-1.4l-2-2z"/></svg>