<svg width="28" height="28" viewBox="0 0 28 28" xmlns="http://www.w3.org/2000/svg"><path d="M10.78 1.22a.75.75 0 10-1.06 1.06l.72.72H6.25A3.25 3.25 0 003 6.25v4.19l-.72-.72a.75.75 0 00-1.06 1.06l2 2c.3.3.77.3 1.06 0l2-2a.75.75 0 10-1.06-1.06l-.72.72V6.25c0-.97.78-1.75 1.75-1.75h4.19l-.72.72a.75.75 0 001.06 1.06l2-2c.3-.3.3-.77 0-1.06l-2-2zM3 21.25v-7.42c.47.23 1.03.23 1.5 0V17h5v-6H7.33c.23-.47.23-1.03 0-1.5H9.5V7.33c.47.23 1.03.23 1.5 0V9.5h6v-5h-3.17c.23-.47.23-1.03 0-1.5h7.42A3.75 3.75 0 0125 6.75v14.5A3.75 3.75 0 0121.25 25H6.75A3.75 3.75 0 013 21.25zm1.5-2.75v2.75c0 1.24 1 2.25 2.25 2.25H9.5v-5h-5zm6.5 0v5h6v-5h-6zm6-1.5v-6h-6v6h6zm1.5 1.5v5h2.75c1.24 0 2.25-1 2.25-2.25V18.5h-5zm5-1.5v-6h-5v6h5zm0-10.25c0-1.24-1-2.25-2.25-2.25H18.5v5h5V6.75z"/></svg>