<svg width="16" height="16" viewBox="0 0 16 16" xmlns="http://www.w3.org/2000/svg"><path d="M6.85.15a.5.5 0 1 0-.7.7L7.29 2H5a3 3 0 0 0-3 3v2.3L.85 6.14a.5.5 0 1 0-.7.7l2 2c.2.2.5.2.7 0l2-2a.5.5 0 1 0-.7-.7L3 7.29V5c0-1.1.9-2 2-2h2.3L6.14 4.15a.5.5 0 1 0 .7.7l2-2a.5.5 0 0 0 0-.7l-2-2ZM5 10H2.5c.38 0 .77-.15 1.06-.44L5 8.12V10Zm1 0V6h4v4H6Zm4-5H8.12l1.44-1.44c.3-.3.44-.68.44-1.06V5Zm-5 6H2v.5A2.5 2.5 0 0 0 4.5 14H5v-3Zm1 3h4v-3H6v3Zm5 0v-3h3v.5a2.5 2.5 0 0 1-2.5 2.5H11Zm3-8v4h-3V6h3Zm0-1v-.5A2.5 2.5 0 0 0 11.5 2H11v3h3Z"/></svg>