<svg width="28" height="28" viewBox="0 0 28 28" xmlns="http://www.w3.org/2000/svg"><path d="M10.78 1.22a.75.75 0 1 0-1.06 1.06l.72.72H6.25A3.25 3.25 0 0 0 3 6.25v4.19l-.72-.72a.75.75 0 0 0-1.06 1.06l2 2c.3.3.77.3 1.06 0l2-2a.75.75 0 1 0-1.06-1.06l-.72.72V6.25c0-.97.78-1.75 1.75-1.75h4.19l-.72.72a.75.75 0 0 0 1.06 1.06l2-2c.3-.3.3-.77 0-1.06l-2-2ZM3 17v-3.17c.65.31 1.45.2 1.99-.34l2-2c.14-.15.26-.31.34-.49H9.5v6H3Zm6.5-7.5H7.33a1.75 1.75 0 0 0-1.83-.98V6.25c0-.41.34-.75.75-.75h2.27a1.75 1.75 0 0 0 .98 1.83V9.5Zm1.5 0V7.33c.18-.08.34-.2.49-.34l2-2c.54-.54.65-1.34.34-1.99H17v6.5h-6Zm-8 9v2.75A3.75 3.75 0 0 0 6.75 25H9.5v-6.5H3ZM17 25v-6.5h-6V25h6Zm1.5 0h2.75A3.75 3.75 0 0 0 25 21.25V18.5h-6.5V25Zm6.5-8v-6h-6.5v6H25Zm0-7.5V6.75A3.75 3.75 0 0 0 21.25 3H18.5v6.5H25ZM17 11v6h-6v-6h6Z"/></svg>