<svg width="28" height="28" viewBox="0 0 28 28" xmlns="http://www.w3.org/2000/svg"><path d="M17.5 3A3.5 3.5 0 0 0 14 6.5v5a3.5 3.5 0 1 0 7 0v-5A3.5 3.5 0 0 0 17.5 3Zm0 10a1.5 1.5 0 0 1-1.5-1.5v-5a1.5 1.5 0 0 1 3 0v5c0 .83-.67 1.5-1.5 1.5Zm.5 6.85c0-1.3 1.05-2.35 2.35-2.35h1.15a2 2 0 0 1 2 2 .75.75 0 0 1-1.5 0 .5.5 0 0 0-.5-.5h-1.15a.85.85 0 0 0-.85.85V20a1 1 0 0 0 1 1h.5a2.5 2.5 0 0 1 2.5 2.5v.15c0 1.3-1.05 2.35-2.35 2.35h-.65a2.5 2.5 0 0 1-2.5-2.5.75.75 0 0 1 1.5 0 1 1 0 0 0 1 1h.65c.47 0 .85-.38.85-.85v-.15a1 1 0 0 0-1-1h-.5A2.5 2.5 0 0 1 18 20v-.15ZM5.75 17.5a.75.75 0 0 0-.75.75v7a.75.75 0 0 0 1.5 0V22.5h1.75a.75.75 0 0 0 0-1.5H6.5v-2h2.75a.75.75 0 0 0 0-1.5h-3.5Zm5.75.75c0-.41.34-.75.75-.75h2.25a2.5 2.5 0 0 1 0 5H13v2.75a.75.75 0 0 1-1.5 0v-7ZM13 21h1.5a1 1 0 1 0 0-2H13v2ZM9.5 10a1.5 1.5 0 1 1-1.08 2.54c-.27-.27-.6-.54-.98-.54-.74 0-1.32.68-.93 1.31A3.5 3.5 0 1 0 11.95 9 3.49 3.49 0 0 0 9.5 3a3.5 3.5 0 0 0-3 1.69c-.38.63.2 1.31.94 1.31.39 0 .71-.27.98-.54A1.5 1.5 0 0 1 11 6.5c0 .83-.67 1.5-1.5 1.5a1 1 0 0 0 0 2Z"/></svg>