<svg width="28" height="28" viewBox="0 0 28 28" xmlns="http://www.w3.org/2000/svg"><path d="M17.5 3A3.5 3.5 0 0 0 14 6.5v5a3.5 3.5 0 1 0 7 0v-5A3.5 3.5 0 0 0 17.5 3Zm0 10.5a2 2 0 0 1-2-2v-5a2 2 0 1 1 4 0v5a2 2 0 0 1-2 2Zm.5 6.35c0-1.3 1.05-2.35 2.35-2.35h1.15a2 2 0 0 1 2 2 .75.75 0 0 1-1.5 0 .5.5 0 0 0-.5-.5h-1.15a.85.85 0 0 0-.85.85V20a1 1 0 0 0 1 1h.5a2.5 2.5 0 0 1 2.5 2.5v.15c0 1.3-1.05 2.35-2.35 2.35h-.65a2.5 2.5 0 0 1-2.5-2.5.75.75 0 0 1 1.5 0 1 1 0 0 0 1 1h.65c.47 0 .85-.38.85-.85v-.15a1 1 0 0 0-1-1h-.5A2.5 2.5 0 0 1 18 20v-.15ZM5.75 17.5a.75.75 0 0 0-.75.75v7a.75.75 0 0 0 1.5 0V22.5h1.75a.75.75 0 0 0 0-1.5H6.5v-2h2.75a.75.75 0 0 0 0-1.5h-3.5Zm5.75.75c0-.41.34-.75.75-.75h2.25a2.5 2.5 0 0 1 0 5H13v2.75a.75.75 0 0 1-1.5 0v-7ZM13 21h1.5a1 1 0 1 0 0-2H13v2ZM9.62 4.5h-.25c-.73 0-1.36.42-1.67 1.03-.13.26-.37.47-.66.47-.54 0-.98-.48-.76-.98A3.38 3.38 0 0 1 9.38 3h.24a3.37 3.37 0 0 1 2.13 6 3.37 3.37 0 0 1-2.13 6h-.25a3.38 3.38 0 0 1-3.09-2.02c-.22-.5.22-.98.76-.98.29 0 .53.21.66.47.3.61.94 1.03 1.67 1.03h.25a1.87 1.87 0 0 0 0-3.75H9.5a.75.75 0 0 1 0-1.5h.12a1.87 1.87 0 1 0 0-3.75Z"/></svg>