<svg width="16" height="16" viewBox="0 0 16 16" xmlns="http://www.w3.org/2000/svg"><path d="M8 3a2 2 0 1 1 4 0v3a2 2 0 1 1-4 0V3Zm2.5 3V3a.5.5 0 0 0-1 0v3a.5.5 0 0 0 1 0ZM1 10.5c0-.28.22-.5.5-.5h3a.5.5 0 0 1 0 1H2v1h1.5a.5.5 0 0 1 0 1H2v1.5a.5.5 0 0 1-1 0v-4Zm5 0c0-.28.22-.5.5-.5h1.75a1.75 1.75 0 1 1 0 3.5H7v1a.5.5 0 0 1-1 0v-4Zm1 2h1.25a.75.75 0 0 0 0-1.5H7v1.5Zm5.5-2.5a1.5 1.5 0 0 0 0 3h1a.5.5 0 0 1 0 1h-2a.5.5 0 0 0 0 1h2a1.5 1.5 0 0 0 0-3h-1a.5.5 0 0 1 0-1h2a.5.5 0 0 0 0-1h-2Zm-7-6.75V3a.5.5 0 0 0-.77-.42c-.07.04-.14.1-.2.15C4.36 2.86 4.2 3 4 3c-.55 0-1.02-.47-.76-.96A2 2 0 0 1 7 3v.25a2 2 0 0 1-.44 1.25A2 2 0 0 1 7 5.75V6a2 2 0 0 1-3.76.96C2.98 6.47 3.44 6 4 6c.2 0 .36.14.53.27l.2.15A.5.5 0 0 0 5.5 6v-.25a.5.5 0 0 0-.5-.5.75.75 0 0 1 0-1.5.5.5 0 0 0 .5-.5Z"/></svg>