<svg width="20" height="20" viewBox="0 0 20 20" xmlns="http://www.w3.org/2000/svg"><path d="M7.14 3.78C7.91 3.28 8.86 3 10 3c1.57 0 2.7.48 3.46 1.05a4.3 4.3 0 0 1 1.11 1.25l.01.01v.01h.01s-.2-.38 0 0a1.5 1.5 0 0 1-2.68 1.37 1.31 1.31 0 0 0-.25-.24A2.68 2.68 0 0 0 10 6c-.63 0-1 .15-1.23.3-.22.14-.39.34-.51.59A2.55 2.55 0 0 0 8 7.9V12a2 2 0 1 0 4 0h-.54a1.5 1.5 0 0 1 0-3h2.04c.83 0 1.5.67 1.5 1.5V12a5 5 0 0 1-10 0V7.9a3.17 3.17 0 0 1 0-.22 5.53 5.53 0 0 1 .58-2.15c.31-.61.8-1.26 1.56-1.75Z"/></svg>