<svg width="24" height="25" viewBox="0 0 24 25" xmlns="http://www.w3.org/2000/svg"><path d="M1.75 5a.75.75 0 00-.75.75v6C1 12.99 2 14 3.25 14h5c1.24 0 2.25-1 2.25-2.25v-6A.75.75 0 009.75 5H9.5V4a2.5 2.5 0 00-3.75-2.17A2.5 2.5 0 002 4v1h-.25zM7 5V4c0-.35-.07-.68-.2-.98A1 1 0 018 4v1H7zM5.5 4v1h-2V4a1 1 0 012 0zM2 17.75v-3c.38.16.8.25 1.25.25h.25v2.75c0 .39.3.7.67.75a3 3 0 015.66 0h2.34a3 3 0 012.83-2V5.75a.75.75 0 00-.75-.75h-2.92a1.76 1.76 0 00-.83-.83V4c0-.17-.01-.34-.04-.5h3.79c1.24 0 2.25 1 2.25 2.25v.75h1.55c.87 0 1.66.5 2.03 1.29l1.7 3.58c.15.3.22.63.22.97v5.41c0 1.24-1 2.25-2.25 2.25h-1.8a3 3 0 01-5.9 0h-2.1a3 3 0 01-5.91-.01A2.25 2.25 0 012 17.75zm15.83.75h1.92c.41 0 .75-.34.75-.75v-.25h-1.25a.75.75 0 010-1.5h1.25v-3h-4v3.9c.61.36 1.09.92 1.33 1.6zM16.5 8v3.5h3.68l-1.45-3.07a.75.75 0 00-.68-.43H16.5zM7 21a1.5 1.5 0 100-3 1.5 1.5 0 000 3zm9.5-1.5a1.5 1.5 0 10-3 0 1.5 1.5 0 003 0zM3.5 4a1 1 0 01.08-.4L3.5 4z"/></svg>