<svg width="20" height="20" viewBox="0 0 20 20" xmlns="http://www.w3.org/2000/svg"><path d="M4 1a2 2 0 011 .27A2 2 0 018 3v1h.5c.28 0 .5.22.5.5V9a2 2 0 01-2 2H3a2 2 0 01-2-2V4.5c0-.28.22-.5.5-.5H2V3c0-1.1.9-2 2-2zM3 4h2V3a1 1 0 00-2 0v1zm3-1v1h1V3a1 1 0 00-1.25-.97A2 2 0 016 3zm3 .09V3h3.25c.97 0 1.75.78 1.75 1.75V6h.88c.57 0 1.09.32 1.34.83l1.62 3.24c.1.2.16.43.16.67v3.76c0 .83-.67 1.5-1.5 1.5h-1.55a2.5 2.5 0 01-4.9 0h-1.1a2.5 2.5 0 01-4.9 0H3.8c-.96 0-1.75-.78-1.75-1.75v-2.4c.3.1.63.15.96.15h.04v2.25c0 .41.34.75.75.75h.26a2.5 2.5 0 014.9 0h1.1A2.5 2.5 0 0113 13.05v-8.3a.75.75 0 00-.75-.75H9.91A1.5 1.5 0 009 3.09zm5 10.41c.48.36.83.89.95 1.5h1.55a.5.5 0 00.5-.5V11h-3v2.5zm0-3.5h2.7l-1.37-2.72a.5.5 0 00-.45-.28H14v3zm-7.5 4a1.5 1.5 0 100 3 1.5 1.5 0 000-3zm4.5 1.5a1.5 1.5 0 103 0 1.5 1.5 0 00-3 0z"/></svg>