<svg width="24" height="25" viewBox="0 0 24 25" xmlns="http://www.w3.org/2000/svg"><path d="M1.75 5a.75.75 0 00-.75.75v6C1 12.99 2 14 3.25 14h5c1.24 0 2.25-1 2.25-2.25v-6A.75.75 0 009.75 5H9.5V4a2.5 2.5 0 00-3.75-2.17A2.5 2.5 0 002 4v1h-.25zM7 5V4c0-.35-.07-.68-.2-.98A1 1 0 018 4v1H7zM5.5 4v1h-2V4a1 1 0 012 0zM2 17.75v-3c.38.16.8.25 1.25.25h5c1.8 0 3.25-1.46 3.25-3.25v-6c0-.7-.4-1.3-1-1.58V4c0-.17-.01-.34-.04-.5h3.79c1.24 0 2.25 1 2.25 2.25v.75h1.55c.87 0 1.66.5 2.03 1.29l1.7 3.58c.15.3.22.63.22.97v5.41c0 1.24-1 2.25-2.25 2.25h-1.8a3 3 0 01-5.9 0h-2.1a3 3 0 01-5.91-.01A2.25 2.25 0 012 17.75zM20.5 16h-1.25a.75.75 0 100 1.5h1.25V16zm-.32-4.5l-1.45-3.07a.75.75 0 00-.68-.43H16.5v3.5h3.68zM7 21a1.5 1.5 0 100-3 1.5 1.5 0 000 3zm9.5-1.5a1.5 1.5 0 10-3 0 1.5 1.5 0 003 0zM3.5 4a1 1 0 01.08-.4L3.5 4z"/></svg>