<svg width="20" height="20" viewBox="0 0 20 20" xmlns="http://www.w3.org/2000/svg"><path d="M10 2c.28 0 .5.22.5.5v1a.5.5 0 0 1-1 0v-1c0-.28.22-.5.5-.5Zm0 12a4 4 0 1 0 0-8 4 4 0 0 0 0 8Zm0-1a3 3 0 1 1 0-6 3 3 0 0 1 0 6Zm7.5-2.5a.5.5 0 0 0 0-1h-1a.5.5 0 0 0 0 1h1ZM10 16c.28 0 .5.22.5.5v1a.5.5 0 0 1-1 0v-1c0-.28.22-.5.5-.5Zm-6.5-5.5a.5.5 0 0 0 0-1H2.46a.5.5 0 0 0 0 1H3.5Zm.65-6.35c.2-.2.5-.2.7 0l1 1a.5.5 0 1 1-.7.7l-1-1a.5.5 0 0 1 0-.7Zm.7 11.7a.5.5 0 0 1-.7-.7l1-1a.5.5 0 0 1 .7.7l-1 1Zm11-11.7a.5.5 0 0 0-.7 0l-1 1a.5.5 0 0 0 .7.7l1-1a.5.5 0 0 0 0-.7Zm-.7 11.7a.5.5 0 0 0 .7-.7l-1-1a.5.5 0 0 0-.7.7l1 1Z"/></svg>