<svg width="24" height="24" viewBox="0 0 24 24" xmlns="http://www.w3.org/2000/svg"><path d="M12 2c.41 0 .75.34.75.75v1.5a.75.75 0 0 1-1.5 0v-1.5c0-.41.34-.75.75-.75Zm5 10a5 5 0 1 1-10 0 5 5 0 0 1 10 0Zm4.25.75a.75.75 0 0 0 0-1.5h-1.5a.75.75 0 0 0 0 1.5h1.5ZM12 19c.41 0 .75.34.75.75v1.5a.75.75 0 0 1-1.5 0v-1.5c0-.41.34-.75.75-.75Zm-7.75-6.25a.75.75 0 0 0 0-1.5h-1.5a.75.75 0 0 0 0 1.5h1.5Zm-.03-8.53c.3-.3.77-.3 1.06 0l1.5 1.5a.75.75 0 0 1-1.06 1.06l-1.5-1.5a.75.75 0 0 1 0-1.06Zm1.06 15.56a.75.75 0 1 1-1.06-1.06l1.5-1.5a.75.75 0 1 1 1.06 1.06l-1.5 1.5Zm14.5-15.56a.75.75 0 0 0-1.06 0l-1.5 1.5a.75.75 0 0 0 1.06 1.06l1.5-1.5c.3-.3.3-.77 0-1.06Zm-1.06 15.56a.75.75 0 1 0 1.06-1.06l-1.5-1.5a.75.75 0 1 0-1.06 1.06l1.5 1.5Z"/></svg>