<svg width="28" height="28" viewBox="0 0 28 28" xmlns="http://www.w3.org/2000/svg"><path d="M14 2c.41 0 .75.34.75.75v1.5a.75.75 0 0 1-1.5 0v-1.5c0-.41.34-.75.75-.75Zm0 18a6 6 0 1 0 0-12 6 6 0 0 0 0 12Zm0-1.5a4.5 4.5 0 1 1 0-9 4.5 4.5 0 0 1 0 9Zm11.25-3.75a.75.75 0 0 0 0-1.5h-1.5a.75.75 0 0 0 0 1.5h1.5ZM14 23c.41 0 .75.34.75.75v1.5a.75.75 0 0 1-1.5 0v-1.5c0-.41.34-.75.75-.75Zm-9.75-8.25a.75.75 0 0 0 0-1.5h-1.5a.75.75 0 0 0 0 1.5h1.5Zm.97-9.53c.3-.3.77-.3 1.06 0l1.5 1.5a.75.75 0 0 1-1.06 1.06l-1.5-1.5a.75.75 0 0 1 0-1.06Zm1.06 17.56a.75.75 0 0 1-1.06-1.06l1.5-1.5a.75.75 0 0 1 1.06 1.06l-1.5 1.5Zm16.5-17.56a.75.75 0 0 0-1.06 0l-1.5 1.5a.75.75 0 1 0 1.06 1.06l1.5-1.5c.3-.3.3-.77 0-1.06Zm-1.06 17.56a.75.75 0 0 0 1.06-1.06l-1.5-1.5a.75.75 0 0 0-1.06 1.06l1.5 1.5Z"/></svg>