<svg width="20" height="20" viewBox="0 0 20 20" xmlns="http://www.w3.org/2000/svg"><path d="M4 5c0-1.1.9-2 2-2h7a2 2 0 0 1 2 2v7h3v2a3 3 0 0 1-3 3h-5v-4.5c0-.65-.42-1.2-1-1.41V11a3 3 0 0 0-.17-1h2.67a.5.5 0 0 0 0-1H8.24A3 3 0 0 0 5 8.17 3 3 0 0 0 4 8V5Zm11 11a2 2 0 0 0 2-2v-1h-2v3ZM7.5 6a.5.5 0 0 0 0 1h4a.5.5 0 0 0 0-1h-4ZM4 9a2 2 0 0 1 1 .27A2 2 0 0 1 8 11v1h.5c.28 0 .5.22.5.5V17a2 2 0 0 1-2 2H3a2 2 0 0 1-2-2v-4.5c0-.28.22-.5.5-.5H2v-1c0-1.1.9-2 2-2Zm1 3v-1a1 1 0 1 0-2 0v1h2Zm.75-1.97A2 2 0 0 1 6 11v1h1v-1a1 1 0 0 0-1.25-.97Z"/></svg>