<svg width="20" height="20" viewBox="0 0 20 20" xmlns="http://www.w3.org/2000/svg"><path d="M6 2a2 2 0 0 0-2 2v4a3 3 0 0 1 1 .17A3 3 0 0 1 9 11v.09c.58.2 1 .76 1 1.41V16h5a3 3 0 0 0 3-3v-2h-3V4a2 2 0 0 0-2-2H6Zm11 11a2 2 0 0 1-2 2v-3h2v1ZM7 5.5c0-.28.22-.5.5-.5h4a.5.5 0 0 1 0 1h-4a.5.5 0 0 1-.5-.5Zm0 2c0-.28.22-.5.5-.5h4a.5.5 0 0 1 0 1h-4a.5.5 0 0 1-.5-.5ZM5 9.27A2 2 0 0 0 2 11v1h-.5a.5.5 0 0 0-.5.5V17c0 1.1.9 2 2 2h4a2 2 0 0 0 2-2v-4.5a.5.5 0 0 0-.5-.5H8v-1a2 2 0 0 0-3-1.73ZM5 11v1H3v-1a1 1 0 1 1 2 0Zm1 0a2 2 0 0 0-.25-.97A1 1 0 0 1 7 11v1H6v-1Z"/></svg>