<svg width="24" height="24" viewBox="0 0 24 24" xmlns="http://www.w3.org/2000/svg"><path d="M4 5.25C4 4.01 5 3 6.25 3h9.5C16.99 3 18 4 18 5.25V14h4v3.75c0 1.8-1.46 3.25-3.25 3.25h-7.26l.01-.25v-6c0-.7-.4-1.3-1-1.58V13c0-.17-.01-.34-.04-.5h3.29a.75.75 0 0 0 0-1.5H9.87a3.5 3.5 0 0 0-4.12-1.27A3.5 3.5 0 0 0 4 9.53V5.26ZM18 19.5h.75c.97 0 1.75-.78 1.75-1.75V15.5H18v4ZM7.5 7.75c0 .41.34.75.75.75h5.5a.75.75 0 0 0 0-1.5h-5.5a.75.75 0 0 0-.75.75Zm-6.5 7c0-.41.34-.75.75-.75H2v-1a2.5 2.5 0 0 1 3.75-2.17A2.5 2.5 0 0 1 9.5 13v1h.25c.41 0 .75.34.75.75v6c0 1.24-1 2.25-2.25 2.25h-5C2.01 23 1 22 1 20.75v-6ZM7 13v1h1v-1a1 1 0 0 0-1.2-.98c.13.3.2.63.2.98Zm-1.5 1v-1a1 1 0 0 0-2 0v1h2Z"/></svg>