<svg width="24" height="24" viewBox="0 0 24 24" xmlns="http://www.w3.org/2000/svg"><path d="M5 6.25C5 5.01 6 4 7.25 4h8.5C16.99 4 18 5 18 6.25V14h3.5v3.25c0 1.8-1.46 3.25-3.25 3.25H11.5v-5.75c0-.7-.4-1.3-1-1.58V13h3.75a.75.75 0 0 0 0-1.5h-4.09a3.5 3.5 0 0 0-4.41-1.77c-.24-.1-.49-.16-.75-.2V6.26ZM18 19h.25c.97 0 1.75-.78 1.75-1.75V15.5h-2V19ZM8.75 8a.75.75 0 0 0 0 1.5h5.5a.75.75 0 0 0 0-1.5h-5.5Zm-7 6a.75.75 0 0 0-.75.75v6C1 21.99 2 23 3.25 23h5c1.24 0 2.25-1 2.25-2.25v-6a.75.75 0 0 0-.75-.75H9.5v-1a2.5 2.5 0 0 0-3.75-2.17A2.5 2.5 0 0 0 2 13v1h-.25ZM7 14v-1c0-.35-.07-.68-.2-.98A1 1 0 0 1 8 13v1H7Zm-1.5-1v1h-2v-1a1 1 0 0 1 2 0Z"/></svg>