<svg width="24" height="24" viewBox="0 0 24 24" xmlns="http://www.w3.org/2000/svg"><path d="M6.25 3C5.01 3 4 4 4 5.25v4.29a3.53 3.53 0 0 1 1.5.1V5.26c0-.41.34-.75.75-.75h9.5c.41 0 .75.34.75.75V19.5h-5V21h7.25c1.8 0 3.25-1.46 3.25-3.25V14h-4V5.25C18 4.01 17 3 15.75 3h-9.5Zm4.21 9.5h3.29a.75.75 0 0 0 0-1.5H9.87c.3.44.52.95.6 1.5Zm8.29 7H18v-4h2.5v2.25c0 .97-.78 1.75-1.75 1.75ZM7.5 7.75c0-.41.34-.75.75-.75h5.5a.75.75 0 0 1 0 1.5h-5.5a.75.75 0 0 1-.75-.75Zm-6.5 7c0-.41.34-.75.75-.75H2v-1a2.5 2.5 0 0 1 3.75-2.17A2.5 2.5 0 0 1 9.5 13v1h.25c.41 0 .75.34.75.75v6c0 1.24-1 2.25-2.25 2.25h-5C2.01 23 1 22 1 20.75v-6ZM7 13v1h1v-1a1 1 0 0 0-1.2-.98c.13.3.2.63.2.98Zm-1.5 1v-1a1 1 0 0 0-2 0v1h2Z"/></svg>