<svg width="24" height="24" viewBox="0 0 24 24" xmlns="http://www.w3.org/2000/svg"><path d="M7.25 4C6.01 4 5 5 5 6.25v3.29c.26.03.51.1.75.19.24-.1.49-.16.75-.2V6.26c0-.41.34-.75.75-.75h8.5c.41 0 .75.34.75.75V19h-5v1.5h6.75c1.8 0 3.25-1.46 3.25-3.25V14H18V6.25C18 5.01 17 4 15.75 4h-8.5Zm3.25 9h3.75a.75.75 0 0 0 0-1.5h-4.09c.22.45.34.96.34 1.5Zm7.75 6H18v-3.5h2v1.75c0 .97-.78 1.75-1.75 1.75ZM8.75 8a.75.75 0 0 0 0 1.5h5.5a.75.75 0 0 0 0-1.5h-5.5Zm-7 6a.75.75 0 0 0-.75.75v6C1 21.99 2 23 3.25 23h5c1.24 0 2.25-1 2.25-2.25v-6a.75.75 0 0 0-.75-.75H9.5v-1a2.5 2.5 0 0 0-3.75-2.17A2.5 2.5 0 0 0 2 13v1h-.25ZM7 14v-1c0-.35-.07-.68-.2-.98A1 1 0 0 1 8 13v1H7Zm-1.5-1v1h-2v-1a1 1 0 0 1 2 0Z"/></svg>