<svg width="24" height="24" viewBox="0 0 24 24" xmlns="http://www.w3.org/2000/svg"><path d="M17.74 10.75c.6.6 1.1 1.3 1.5 2.07a.75.75 0 1 1-1.34.68 6.56 6.56 0 0 0-8.85-2.9 3.5 3.5 0 0 0-1.4-.9 8.07 8.07 0 0 1 10.1 1.05Zm-2.1 3.07c.45.45.82 1 1.07 1.58a.75.75 0 1 1-1.37.6 3.59 3.59 0 0 0-3.93-2.12 2.5 2.5 0 0 0-1.41-.83v-.29a5.1 5.1 0 0 1 5.64 1.06Zm4.8-5.54c.52.5 1 1.09 1.42 1.7a.75.75 0 1 1-1.24.85 10.45 10.45 0 0 0-17.23 0 .75.75 0 0 1-1.23-.86 11.95 11.95 0 0 1 18.29-1.69Zm-7.38 8.16A1.5 1.5 0 0 1 12 19v-3c.38 0 .77.15 1.06.44ZM4 14v-1a2.5 2.5 0 0 1 5 0v1h.5c.83 0 1.5.67 1.5 1.5v5c0 .83-.67 1.5-1.5 1.5h-6A1.5 1.5 0 0 1 2 20.5v-5c0-.83.67-1.5 1.5-1.5H4Zm1.5-1v1h2v-1a1 1 0 1 0-2 0Zm2 5a1 1 0 1 0-2 0 1 1 0 0 0 2 0Z"/></svg>