<svg width="24" height="24" viewBox="0 0 24 24" xmlns="http://www.w3.org/2000/svg"><path d="M10.6 2.51c.9-.36 1.9-.36 2.8 0l7.5 3.04c.67.27 1.1.91 1.1 1.62v9.33c0-1.46-.57-2.79-1.5-3.77V7.77l-7.75 3v1.7a5.5 5.5 0 00-1.5 2.39v-4.1L3.5 7.75v9.08c0 .1.06.2.16.23l7.5 3.04.07.03.2.08c.34.14.7.15 1.04.04.4.42.86.78 1.37 1.07l-.43.17c-.9.37-1.92.37-2.82 0l-7.5-3.04C2.43 18.18 2 17.54 2 16.83V7.17c0-.7.43-1.35 1.1-1.62l7.5-3.04zm2.25 1.4a2.25 2.25 0 00-1.7 0l-1.9.77 7.52 2.93 2.67-1.03-6.6-2.68zm1.84 4.5L7.21 5.5 4.6 6.56 12 9.45l2.7-1.04zM22 16.56v-.06.06zm-1.83 2.55a4.5 4.5 0 10-1.06 1.06l2.61 2.61a.75.75 0 101.06-1.06l-2.61-2.61zm-.67-2.6a3 3 0 11-6 0 3 3 0 016 0z"/></svg>