<svg width="24" height="24" viewBox="0 0 24 24" xmlns="http://www.w3.org/2000/svg"><path d="M13.4 2.51a3.75 3.75 0 00-2.8 0l-2.2.9L18 7.12l3.37-1.3c-.14-.12-.3-.2-.46-.28l-7.5-3.04zM22 7.2l-9.25 3.58v1.7A5.5 5.5 0 0122 16.45V7.2zm-10.75 7.67a5.5 5.5 0 000 3.28v3.55a3.75 3.75 0 01-.66-.2l-7.5-3.04C2.43 18.18 2 17.54 2 16.83V7.19l9.25 3.58v4.09zM2.63 5.83L12 9.45l3.92-1.52-9.55-3.7L3.1 5.54c-.17.07-.32.16-.46.28zM20.17 19.1a4.5 4.5 0 10-1.06 1.06l2.61 2.61a.75.75 0 101.06-1.06l-2.61-2.61zm-.67-2.6a3 3 0 11-6 0 3 3 0 016 0z"/></svg>