<svg width="16" height="16" viewBox="0 0 16 16" xmlns="http://www.w3.org/2000/svg"><path d="M7.31 1.04a.5.5 0 0 1 .39 0l4.9 2.1a.5.5 0 0 1 .08.88h-.02a2.69 2.69 0 0 0-.22.17c-.15.11-.35.28-.55.48-.4.38-.75.85-.87 1.3a26.17 26.17 0 0 0 1.36 3.18l1.6.96A2.1 2.1 0 0 1 15 11.9v1.59a.5.5 0 0 1-.48.5l-.02-.5.02.5h-.04a7.94 7.94 0 0 1-.42 0 21.2 21.2 0 0 1-5-.72c-2.9-.79-6.32-2.47-8.01-6.07a.5.5 0 0 1 0-.43 12.84 12.84 0 0 1 2.72-3.32 13 13 0 0 1 3.54-2.42ZM14 13v-.54C7.67 11.9 4.16 9.28 2.44 6.42c-.15.2-.27.4-.38.59 1.55 3.06 4.55 4.57 7.27 5.3A20.2 20.2 0 0 0 14 13Zm-.53-2.04-1.4-.83-.88.89c.83.19 1.73.33 2.71.43a1.1 1.1 0 0 0-.43-.49Zm-3.32-.31 1.24-1.25v-.02a43.7 43.7 0 0 1-1.27-2.94l-1.56-.26 1.36 2.04a.5.5 0 0 1-.02.58l-1.12 1.49c.41.16.84.3 1.3.44a.5.5 0 0 1 .07-.08Zm0-5.22a4.45 4.45 0 0 1 1.28-1.7L7.5 2.04c-.82.37-1.84 1.09-2.81 1.94l1.16 1.17c.1.09.15.22.15.35v3.3c.54.39 1.15.75 1.84 1.08l1.05-1.4-1.8-2.7a.5.5 0 0 1 .5-.77l2.55.42Zm-6.2-.77c-.3.3-.59.61-.85.92A9.45 9.45 0 0 0 5 7.98V5.71L3.96 4.66Z"/></svg>