<svg width="24" height="24" viewBox="0 0 24 24" xmlns="http://www.w3.org/2000/svg"><path d="M6 8.96a3.5 3.5 0 10-1.5-.1v6.28a3.5 3.5 0 101.5-.1V13h6.25A3.75 3.75 0 0016 9.25v-.29a3.5 3.5 0 10-1.5-.1v.39c0 1.24-1 2.25-2.25 2.25H6V8.96zM7.5 5.5a2 2 0 11-4 0 2 2 0 014 0zm10 0a2 2 0 11-4 0 2 2 0 014 0zm-12 11a2 2 0 110 4 2 2 0 010-4zM23 18.75A3.75 3.75 0 0019.25 15h-.1a.75.75 0 00.1 1.5h.15a2.25 2.25 0 01-.15 4.5l-.1.01a.75.75 0 00.1 1.5v-.01h.2A3.75 3.75 0 0023 18.74zm-6.5-3a.75.75 0 00-.75-.75h-.2a3.75 3.75 0 00.2 7.5h.1a.75.75 0 00-.1-1.5h-.15a2.25 2.25 0 01.15-4.5h.1a.75.75 0 00.65-.75zm3.5 3a.75.75 0 00-.75-.75h-3.6a.75.75 0 00.1 1.5h3.6a.75.75 0 00.65-.75z"/></svg>