<svg width="20" height="20" viewBox="0 0 20 20" xmlns="http://www.w3.org/2000/svg"><path d="M5 2a3 3 0 0 1 .5 5.96V10H11c.83 0 1.5-.67 1.5-1.5v-.54a3 3 0 1 1 1 0v.54A2.5 2.5 0 0 1 11 11H5.5v1.04a3 3 0 1 1-1 0V7.96A3 3 0 0 1 5 2ZM3 5a2 2 0 1 0 4 0 2 2 0 0 0-4 0Zm0 10a2 2 0 1 0 4 0 2 2 0 0 0-4 0Zm10-8a2 2 0 1 0 0-4 2 2 0 0 0 0 4Zm-.5 6a2.5 2.5 0 0 0 0 5h.5a.5.5 0 0 0 0-1h-.5a1.5 1.5 0 0 1 0-3h.5a.5.5 0 0 0 0-1h-.5Zm3.5 0a.5.5 0 0 0 0 1h.5a1.5 1.5 0 0 1 0 3H16a.5.5 0 0 0 0 1h.5a2.5 2.5 0 0 0 0-5H16Zm-4 2.5c0-.28.22-.5.5-.5h4a.5.5 0 0 1 0 1h-4a.5.5 0 0 1-.5-.5Z"/></svg>