<svg width="16" height="16" viewBox="0 0 16 16" xmlns="http://www.w3.org/2000/svg"><path d="M4.94 4.7a4.48 4.48 0 0 1 2.77-1.2l-1.73 3-1.04-1.8ZM3.96 6 5.7 9H3.61a4.51 4.51 0 0 1 .35-3Zm3.17 2.5v-.01a1 1 0 0 1 0-.99l.01-.01a1 1 0 0 1 1.73.01v.01a1 1 0 0 1 0 .99l-.01.01a1 1 0 0 1-1.73-.01Zm1.16-3 1.04-1.8c1 .3 1.84.95 2.41 1.8H8.3ZM10.3 7h2.08a4.51 4.51 0 0 1-.35 3L10.3 7Zm-.29 2.5 1.04 1.8a4.48 4.48 0 0 1-2.77 1.2l1.73-3Zm-2.3 1-1.05 1.8c-1-.3-1.84-.95-2.41-1.8H7.7ZM8 2a6 6 0 1 0 0 12A6 6 0 0 0 8 2Z"/></svg>