<svg width="16" height="16" viewBox="0 0 16 16" xmlns="http://www.w3.org/2000/svg"><path d="M4.68 4.26a4.98 4.98 0 0 1 3.88-1.23L6.29 6.96 6.27 7 4.68 4.26Zm-.7.77L6.27 9H3.1a5.02 5.02 0 0 1 .88-3.97ZM6.27 9ZM8 6l1.58-2.74a5.02 5.02 0 0 1 3 2.74H8Zm-.87 1.5.02-.02A1 1 0 0 1 8.87 8.5l-.02.02A1 1 0 0 1 7.13 7.5Zm2.6-.5h3.17a5.02 5.02 0 0 1-.88 3.97L9.73 7Zm0 2 1.59 2.74a4.98 4.98 0 0 1-3.88 1.23l2.27-3.93.02-.04ZM8 10l-1.58 2.74a5.01 5.01 0 0 1-3-2.74H8Zm0-8a6 6 0 1 0 0 12A6 6 0 0 0 8 2Zm1.73 5Z"/></svg>