<svg width="20" height="20" viewBox="0 0 20 20" xmlns="http://www.w3.org/2000/svg"><path d="M7 9a2 2 0 1 1 4 0 2 2 0 0 1-4 0Zm2-1a1 1 0 1 0 0 2 1 1 0 0 0 0-2ZM3.5 4C2.67 4 2 4.67 2 5.5v7c0 .83.67 1.5 1.5 1.5h5.52c.03-.34.1-.68.19-1H6v-1a2 2 0 0 0-2-2H3V8h1a2 2 0 0 0 2-2V5h6v1c0 1.1.9 2 2 2h1v1.02c.34.03.68.1 1 .19V5.5c0-.83-.67-1.5-1.5-1.5h-11ZM3 5.5c0-.28.22-.5.5-.5H5v1a1 1 0 0 1-1 1H3V5.5ZM13 5h1.5c.28 0 .5.22.5.5V7h-1a1 1 0 0 1-1-1V5Zm-8 8H3.5a.5.5 0 0 1-.5-.5V11h1a1 1 0 0 1 1 1v1Zm-.91 2h4.93c.03.34.1.68.19 1H5.5a1.5 1.5 0 0 1-1.41-1ZM18 7.5v2.76a5.5 5.5 0 0 0-1-.66V6.09c.58.2 1 .76 1 1.41Zm1 7a4.5 4.5 0 1 1-9 0 4.5 4.5 0 0 1 9 0Zm-3.8 0 1.15-1.15a.5.5 0 0 0-.7-.7l-1.15 1.14-1.15-1.14a.5.5 0 0 0-.7.7l1.14 1.15-1.14 1.15a.5.5 0 0 0 .7.7l1.15-1.14 1.15 1.14a.5.5 0 0 0 .7-.7l-1.14-1.15Z"/></svg>