<svg width="16" height="16" viewBox="0 0 16 16" xmlns="http://www.w3.org/2000/svg"><path d="M4 4.5a1.5 1.5 0 113 0 1.5 1.5 0 01-3 0zM5.5 2a2.5 2.5 0 100 5 2.5 2.5 0 000-5zm5 3a1 1 0 112 0 1 1 0 01-2 0zm0 1h2c.23 0 .46.03.68.1a2 2 0 10-3.35 0c.2-.07.44-.1.67-.1zM8 8h.05v.04A2.5 2.5 0 006.5 9H3a.5.5 0 00-.5.5v.15l.04.2c.04.18.13.42.3.65.33.45 1.04 1 2.66 1 .18 0 .34 0 .5-.02v1l-.5.02c-1.88 0-2.92-.65-3.47-1.4A2.85 2.85 0 011.5 9.6V9.5C1.5 8.67 2.17 8 3 8h5zm1 1v-.5c0-.83.67-1.5 1.5-1.5h2c.83 0 1.5.67 1.5 1.5V9h.5c.83 0 1.5.67 1.5 1.5V12h-2v-.5a.5.5 0 00-1 0v.5h-3v-.5a.5.5 0 00-1 0v.5H7v-1.5C7 9.67 7.67 9 8.5 9H9zm1-.5V9h3v-.5a.5.5 0 00-.5-.5h-2a.5.5 0 00-.5.5zm4 4.5h2v1.5c0 .83-.67 1.5-1.5 1.5h-6A1.5 1.5 0 017 14.5V13h2v.5a.5.5 0 001 0V13h3v.5a.5.5 0 001 0V13z"/></svg>