<svg width="20" height="20" viewBox="0 0 20 20" xmlns="http://www.w3.org/2000/svg"><path d="M10 5.75a3.25 3.25 0 11-6.5 0 3.25 3.25 0 016.5 0zM14.5 9a2.5 2.5 0 100-5 2.5 2.5 0 000 5zm-3.26 1.43c-.1.2-.16.4-.2.61A2.5 2.5 0 009 13.5v2.2c-.62.18-1.36.3-2.25.3-5.25 0-5.25-4-5.25-4 0-1.1.9-2 2-2H10a2 2 0 011.24.43zM12 12v-.5c0-.83.67-1.5 1.5-1.5h2c.83 0 1.5.67 1.5 1.5v.5h.5c.83 0 1.5.67 1.5 1.5V15h-2v-.5a.5.5 0 00-1 0v.5h-3v-.5a.5.5 0 00-1 0v.5h-2v-1.5c0-.83.67-1.5 1.5-1.5h.5zm1-.5v.5h3v-.5a.5.5 0 00-.5-.5h-2a.5.5 0 00-.5.5zm4 4.5h2v1.5c0 .83-.67 1.5-1.5 1.5h-6a1.5 1.5 0 01-1.5-1.5V16h2v.5a.5.5 0 001 0V16h3v.5a.5.5 0 001 0V16z"/></svg>