<svg width="16" height="16" viewBox="0 0 16 16" xmlns="http://www.w3.org/2000/svg"><path d="M8 4.5a2.5 2.5 0 11-5 0 2.5 2.5 0 015 0zM10.5 6c-.23 0-.46.03-.68.1a2 2 0 113.35 0 2.5 2.5 0 00-.67-.1h-2zM8 8h.05v.04A2.5 2.5 0 006 10.5v1.98l-.5.02c-4 0-4-2.93-4-2.93V9.5C1.5 8.67 2.17 8 3 8h5zm1 1v-.5c0-.83.67-1.5 1.5-1.5h2c.83 0 1.5.67 1.5 1.5V9h.5c.83 0 1.5.67 1.5 1.5V12h-2v-.5a.5.5 0 00-1 0v.5h-3v-.5a.5.5 0 00-1 0v.5H7v-1.5C7 9.67 7.67 9 8.5 9H9zm1-.5V9h3v-.5a.5.5 0 00-.5-.5h-2a.5.5 0 00-.5.5zm4 4.5h2v1.5c0 .83-.67 1.5-1.5 1.5h-6A1.5 1.5 0 017 14.5V13h2v.5a.5.5 0 001 0V13h3v.5a.5.5 0 001 0V13z"/></svg>