<svg width="20" height="20" viewBox="0 0 20 20" xmlns="http://www.w3.org/2000/svg"><path d="M4 5c0-1.1.9-2 2-2h7a2 2 0 0 1 2 2v7h3v2a3 3 0 0 1-3 3h-4.6c.16-.32.3-.65.4-1H14V5a1 1 0 0 0-1-1H6a1 1 0 0 0-1 1v4.02c-.34.03-.68.1-1 .19V5Zm7.5 5H8.66a5.48 5.48 0 0 0-1.58-.77A.5.5 0 0 1 7.5 9h4a.5.5 0 0 1 0 1Zm3.5 6a2 2 0 0 0 2-2v-1h-2v3ZM7 6.5c0-.28.22-.5.5-.5h4a.5.5 0 0 1 0 1h-4a.5.5 0 0 1-.5-.5Zm3 8a4.5 4.5 0 1 1-9 0 4.5 4.5 0 0 1 9 0Zm-4-2a.5.5 0 0 0-1 0V14H3.5a.5.5 0 0 0 0 1H5v1.5a.5.5 0 0 0 1 0V15h1.5a.5.5 0 0 0 0-1H6v-1.5Z"/></svg>