<svg width="24" height="24" viewBox="0 0 24 24" xmlns="http://www.w3.org/2000/svg"><path d="M5 6.25C5 5.01 6 4 7.25 4h8.5C16.99 4 18 5 18 6.25V14h3.5v3.25c0 1.8-1.46 3.25-3.25 3.25h-5.98a6.47 6.47 0 0 0-1.08-7.5h3.06a.75.75 0 0 0 0-1.5H9a6.48 6.48 0 0 0-4-.33V6.25ZM18 19h.25c.97 0 1.75-.78 1.75-1.75V15.5h-2V19ZM8.75 8a.75.75 0 0 0 0 1.5h5.5a.75.75 0 0 0 0-1.5h-5.5ZM12 17.5a5.5 5.5 0 1 0-11 0 5.5 5.5 0 0 0 11 0ZM7 18v2.5a.5.5 0 1 1-1 0V18H3.5a.5.5 0 0 1 0-1H6v-2.5a.5.5 0 1 1 1 0V17h2.5a.5.5 0 0 1 0 1H7Z"/></svg>