<svg width="24" height="24" viewBox="0 0 24 24" xmlns="http://www.w3.org/2000/svg"><path d="M4 5.25C4 4.01 5 3 6.25 3h9.5C16.99 3 18 4 18 5.25V14h4v3.75c0 1.8-1.46 3.25-3.25 3.25h-6.77c.3-.46.53-.97.7-1.5h3.82V5.25a.75.75 0 0 0-.75-.75h-9.5a.75.75 0 0 0-.75.75v5.83c-.52.08-1.03.22-1.5.42V5.25Zm9.75 7.25h-3.1a6.48 6.48 0 0 0-2.83-1.37.75.75 0 0 1 .43-.13h5.5a.75.75 0 0 1 0 1.5Zm4.25 7h.75c.97 0 1.75-.78 1.75-1.75V15.5H18v4ZM8.25 7a.75.75 0 0 0 0 1.5h5.5a.75.75 0 0 0 0-1.5h-5.5ZM12 17.5a5.5 5.5 0 1 0-11 0 5.5 5.5 0 0 0 11 0ZM7 18v2.5a.5.5 0 1 1-1 0V18H3.5a.5.5 0 0 1 0-1H6v-2.5a.5.5 0 1 1 1 0V17h2.5a.5.5 0 0 1 0 1H7Z"/></svg>