<svg width="20" height="20" viewBox="0 0 20 20" xmlns="http://www.w3.org/2000/svg"><path d="M10.5 4A2.5 2.5 0 0 1 13 6.5v7a2.5 2.5 0 0 1-2 2.45V12.5A3.5 3.5 0 0 0 7.5 9h-4c-.54 0-1.05.12-1.5.34V6.5A2.5 2.5 0 0 1 4.5 4h6Zm3.5 8.08V7.93l2.77-2.31a.75.75 0 0 1 1.23.57v7.67c0 .64-.75.99-1.24.57L14 12.08ZM1 12.5A2.5 2.5 0 0 1 3.5 10h4a2.5 2.5 0 0 1 2.5 2.5v4A2.5 2.5 0 0 1 7.5 19h-4A2.5 2.5 0 0 1 1 16.5v-4Zm4.02.03a.45.45 0 0 0-.45-.03.5.5 0 0 0-.15.1.5.5 0 0 0-.14.36v3.08a.5.5 0 0 0 .14.35.45.45 0 0 0 .48.13.52.52 0 0 0 .13-.06l2.3-1.57c.06-.04.12-.1.16-.18a.54.54 0 0 0 0-.49.49.49 0 0 0-.17-.18l-2.3-1.5Z"/></svg>