<svg width="20" height="20" viewBox="0 0 20 20" xmlns="http://www.w3.org/2000/svg"><path d="M8.08 16H6a2 2 0 0 1-2-2V6a2 2 0 0 1 2-2h8a2 2 0 0 1 2 2v2.08c.37.09.71.26 1 .5V6a3 3 0 0 0-3-3H6a3 3 0 0 0-3 3v8a3 3 0 0 0 3 3h2.6a2.47 2.47 0 0 1-.52-1Zm1.36.47a1.5 1.5 0 0 1 0-2.13l4.9-4.9a1.5 1.5 0 0 1 2.12 0l2.1 2.1a1.5 1.5 0 0 1 0 2.13L14.22 18h2.53a.5.5 0 0 1 0 1h-4.1a1.5 1.5 0 0 1-1.12-.44l-2.1-2.1Zm5.61-6.32-3.6 3.6 2.8 2.8 3.6-3.6a.5.5 0 0 0 0-.71l-2.1-2.1a.5.5 0 0 0-.7 0Zm-1.5 7.1-2.8-2.8-.6.6a.5.5 0 0 0 0 .71l2.1 2.1a.5.5 0 0 0 .7 0l.6-.6Z"/></svg>