<svg width="20" height="20" viewBox="0 0 20 20" xmlns="http://www.w3.org/2000/svg"><path d="M2 3.75c0-.41.34-.75.75-.75h14.5a.75.75 0 0 1 0 1.5H2.75A.75.75 0 0 1 2 3.75Zm0 4c0-.41.34-.75.75-.75h14.5a.75.75 0 0 1 0 1.5H2.75A.75.75 0 0 1 2 7.75Zm15.25 8.75H9.62l-1.06-1.06c.07-.14.13-.29.18-.44h8.51a.75.75 0 0 1 0 1.5Zm0-4H8.89a4.48 4.48 0 0 0-.65-1.5h9.01a.75.75 0 0 1 0 1.5ZM4.5 17c.79 0 1.51-.26 2.1-.7l2.55 2.55a.5.5 0 1 0 .7-.7L7.3 15.6A3.5 3.5 0 1 0 4.5 17Zm0-1a2.5 2.5 0 1 1 0-5 2.5 2.5 0 0 1 0 5Z"/></svg>