<svg width="16" height="16" viewBox="0 0 16 16" xmlns="http://www.w3.org/2000/svg"><path d="M2.5 3a.5.5 0 0 1 0-1H5V.5a.5.5 0 0 1 1 0V2h2.5a.5.5 0 0 1 0 1h-6ZM13 1.5a.5.5 0 0 0-1 0v11.8l-1.15-1.15a.5.5 0 0 0-.7.7l2 2c.2.2.5.2.7 0l2-2a.5.5 0 0 0-.7-.7L13 13.29V1.5Zm-11 9c0-.28.22-.5.5-.5h5c.28 0 .5.22.5.5v5a.5.5 0 0 1-1 0V11H2.5a.5.5 0 0 1-.5-.5Zm7-4C9 7.88 7.43 9 5.5 9S2 7.88 2 6.5 3.57 4 5.5 4 9 5.12 9 6.5Zm-1 0c0-.28-.16-.63-.6-.95A3.3 3.3 0 0 0 5.5 5a3.3 3.3 0 0 0-1.9.55c-.44.32-.6.67-.6.95 0 .28.16.63.6.95A3.3 3.3 0 0 0 5.5 8a3.3 3.3 0 0 0 1.9-.55c.44-.32.6-.67.6-.95Z"/></svg>