<svg width="20" height="20" viewBox="0 0 20 20" xmlns="http://www.w3.org/2000/svg"><path d="M6.5 1.75a.75.75 0 0 0-1.5 0v.75H2.75a.75.75 0 0 0 0 1.5h6a.75.75 0 0 0 0-1.5H6.5v-.75ZM5.75 11C7.82 11 9.5 9.66 9.5 8S7.82 5 5.75 5C3.68 5 2 6.34 2 8s1.68 3 3.75 3Zm0-1.5C4.18 9.5 3.5 8.53 3.5 8s.68-1.5 2.25-1.5C7.32 6.5 8 7.47 8 8s-.68 1.5-2.25 1.5ZM2 12.75c0-.41.34-.75.75-.75h6c.41 0 .75.34.75.75v5.5a.75.75 0 0 1-1.5 0V13.5H2.75a.75.75 0 0 1-.75-.75ZM14.25 2c.41 0 .75.34.75.75v12.57l1.45-1.58a.75.75 0 0 1 1.1 1.02l-2.75 3a.75.75 0 0 1-1.1 0l-2.75-3a.75.75 0 0 1 1.1-1.02l1.45 1.58V2.75c0-.41.34-.75.75-.75Z"/></svg>