<svg width="16" height="16" viewBox="0 0 16 16" xmlns="http://www.w3.org/2000/svg"><path d="M2.75 3h5.5a.75.75 0 0 0 0-1.5H6.5V.75a.75.75 0 0 0-1.5 0v.75H2.75a.75.75 0 0 0 0 1.5ZM5.5 9C7.43 9 9 7.88 9 6.5S7.43 4 5.5 4 2 5.12 2 6.5 3.57 9 5.5 9Zm1.6-1.95a2.8 2.8 0 0 1-1.6.45 2.8 2.8 0 0 1-1.6-.45c-.36-.26-.4-.47-.4-.55 0-.08.04-.3.4-.55a2.8 2.8 0 0 1 1.6-.45c.69 0 1.25.2 1.6.45.36.26.4.47.4.55 0 .08-.04.3-.4.55ZM2 10.75c0-.41.34-.75.75-.75h5c.41 0 .75.34.75.75v4.5a.75.75 0 0 1-1.5 0V11.5H2.75a.75.75 0 0 1-.75-.75ZM12.25 1c.41 0 .75.34.75.75v10.69l.72-.72a.75.75 0 1 1 1.06 1.06l-2 2c-.3.3-.77.3-1.06 0l-2-2a.75.75 0 1 1 1.06-1.06l.72.72V1.75c0-.41.34-.75.75-.75Z"/></svg>