<svg width="24" height="24" viewBox="0 0 24 24" xmlns="http://www.w3.org/2000/svg"><path d="M6.25 1.75V3h-3.5a.75.75 0 000 1.5h8.5a.75.75 0 000-1.5h-3.5V1.75a.75.75 0 00-1.5 0zM2 14.75c0-.41.34-.75.75-.75h7.5c.41 0 .75.34.75.75v7.5a.75.75 0 01-1.5 0V15.5H2.75a.75.75 0 01-.75-.75zM12 9c0 2.2-2.24 4-5 4s-5-1.8-5-4 2.24-4 5-4 5 1.8 5 4zm-1.5 0c0-1.09-1.24-2.5-3.5-2.5S3.5 7.91 3.5 9s1.24 2.5 3.5 2.5 3.5-1.41 3.5-2.5zm6.75-7c.41 0 .75.34.75.75v16.69l2.22-2.22a.75.75 0 111.06 1.06l-3.5 3.5c-.3.3-.77.3-1.06 0l-3.5-3.5a.75.75 0 111.06-1.06l2.22 2.22V2.75c0-.41.34-.75.75-.75z"/></svg>