<svg width="20" height="20" viewBox="0 0 20 20" xmlns="http://www.w3.org/2000/svg"><path d="M6 1c.28 0 .5.22.5.5V3h3a.5.5 0 0 1 0 1h-7a.5.5 0 0 1 0-1h3V1.5c0-.28.22-.5.5-.5Zm9 1.5a.5.5 0 0 0-1 0v13.8l-2.15-2.15a.5.5 0 0 0-.7.7l3 3c.2.2.5.2.7 0l3-3a.5.5 0 0 0-.7-.7L15 16.29V2.5ZM6 11c2.2 0 4-1.34 4-3S8.2 5 6 5 2 6.34 2 8s1.8 3 4 3Zm2.23-1.68C7.69 9.72 6.9 10 6 10c-.9 0-1.7-.28-2.23-.68S3 8.44 3 8c0-.44.24-.92.77-1.32C4.31 6.28 5.1 6 6 6c.9 0 1.7.28 2.23.68S9 7.56 9 8c0 .44-.24.92-.77 1.32ZM2.5 12a.5.5 0 0 0 0 1H8v5.5a.5.5 0 0 0 1 0v-6a.5.5 0 0 0-.5-.5h-6Z"/></svg>