<svg width="24" height="24" viewBox="0 0 24 24" xmlns="http://www.w3.org/2000/svg"><path d="M12.01 2.25c.74 0 1.47.1 2.18.25.32.07.55.33.59.65l.17 1.53a1.38 1.38 0 0 0 1.92 1.11l1.4-.61c.3-.13.64-.06.85.17a9.8 9.8 0 0 1 2.2 3.8c.1.3 0 .63-.26.82l-1.24.92c-.16.1-.28.25-.37.4-.49-.15-1-.24-1.52-.28.19-.52.53-1 1-1.33l.8-.59a8.3 8.3 0 0 0-1.35-2.32l-.9.4a2.88 2.88 0 0 1-4.02-2.32l-.11-.98A9 9 0 0 0 12 3.75c-.45 0-.9.04-1.35.12l-.11.97a2.89 2.89 0 0 1-4.02 2.33l-.9-.4A8.3 8.3 0 0 0 4.28 9.1l.8.59a2.88 2.88 0 0 1 0 4.64l-.8.59a8.3 8.3 0 0 0 1.35 2.32l.9-.4a2.88 2.88 0 0 1 4.02 2.32l.1.99c.32.05.64.08.95.1l.02.02-.45 1.45a9.53 9.53 0 0 1-1.37-.22.75.75 0 0 1-.57-.65l-.17-1.52a1.38 1.38 0 0 0-1.93-1.11l-1.4.62a.75.75 0 0 1-.85-.18 9.8 9.8 0 0 1-2.2-3.8c-.1-.3 0-.63.27-.82l1.24-.92a1.38 1.38 0 0 0 0-2.22l-1.24-.92a.75.75 0 0 1-.28-.82 9.8 9.8 0 0 1 2.2-3.8c.23-.23.57-.3.86-.17l1.4.62c.4.17.86.15 1.25-.08.38-.22.63-.6.68-1.04l.17-1.53a.75.75 0 0 1 .58-.65c.72-.16 1.45-.24 2.2-.25Zm5.74 9.76a5.5 5.5 0 1 1-2.92 10.3l-2.18.67a.5.5 0 0 1-.63-.62l.67-2.2A5.5 5.5 0 0 1 17.75 12Zm-.25 6h-2a.5.5 0 0 0-.4.8c.1.12.24.2.4.2h2a.5.5 0 1 0 0-1Zm-2-1h4a.5.5 0 1 0 0-1h-4a.5.5 0 0 0-.36.83c.09.1.22.16.36.16ZM12 8.24c1.82 0 3.33 1.3 3.68 3-.5.16-.99.36-1.43.62a2.25 2.25 0 1 0-2.38 2.38c-.26.44-.46.92-.61 1.43A3.75 3.75 0 0 1 12 8.25Z"/></svg>