<svg width="20" height="20" viewBox="0 0 20 20" xmlns="http://www.w3.org/2000/svg"><path d="M12.39 12a.53.53 0 01-.54-.52c0-.29.24-.52.54-.52h.35c1.77 0 3.2-1.08 3.2-2.42 0-1.3-1.35-2.36-3.04-2.42H7.82L9.04 7.3c.2.2.2.53 0 .73a.54.54 0 01-.7.05l-.06-.05-2.12-2.08a.51.51 0 010-.73l2.12-2.08.06-.05c.21-.15.5-.13.7.05.2.2.2.53 0 .74L7.82 5.08h4.92C15.1 5.08 17 6.63 17 8.54S15.1 12 12.74 12h-.35zM4 10.41V16h10.18L4 10.41zM3.8 17a.77.77 0 01-.8-.75V9.38c0-.21.18-.38.4-.38.07 0 .14.02.2.05l13.2 7.25c.2.1.26.33.15.51a.4.4 0 01-.35.19H3.8z"/></svg>