<svg width="24" height="24" viewBox="0 0 24 24" xmlns="http://www.w3.org/2000/svg"><path d="M5.94 7L2.22 3.28a.75.75 0 111.06-1.06l18.5 18.5a.75.75 0 01-1.06 1.06l-6.28-6.28-5.85 6.04c-1.06 1.08-2.88.1-2.55-1.38l1.27-5.66-1.57-.01c-1.2 0-2.04-1.2-1.64-2.34L5.94 7zm7.44 7.44L7.1 8.17l-1.6 4.49c-.05.16.07.33.24.33l2.5.01a.75.75 0 01.73.91L7.51 20.5l5.87-6.05zm4.78-4.94l-2.7 2.78 1.06 1.06 3.13-3.22c.76-.8.2-2.12-.9-2.12h-3.96l1.45-4.35c.27-.81-.33-1.65-1.18-1.65H8.6c-.53 0-1 .33-1.18.83l-.37 1.04 1.18 1.18.55-1.55h5.93l-1.67 5.01a.75.75 0 00.7.99h4.42z"/></svg>