<svg width="16" height="16" viewBox="0 0 16 16" xmlns="http://www.w3.org/2000/svg"><path d="M4.67 2a2 2 0 0 0-1.93 1.46L2.31 5 2.5 5h2A2.5 2.5 0 0 1 7 7.5V12h5.9a2.08 2.08 0 0 0 2.01-2.64l-1.66-5.9A2 2 0 0 0 11.34 2H4.67Zm2.28 12c.04-.16.05-.33.05-.5V13h4.5a.5.5 0 1 1 0 1H6.95ZM3.5 9.5a.75.75 0 1 0 0-1.5.75.75 0 0 0 0 1.5ZM1 7.5C1 6.67 1.67 6 2.5 6h2C5.33 6 6 6.67 6 7.5v6c0 .83-.67 1.5-1.5 1.5h-2A1.5 1.5 0 0 1 1 13.5v-6ZM2.5 7a.5.5 0 0 0-.5.5v6c0 .28.22.5.5.5h2a.5.5 0 0 0 .5-.5v-6a.5.5 0 0 0-.5-.5h-2Z"/></svg>