<svg width="32" height="32" viewBox="0 0 32 32" xmlns="http://www.w3.org/2000/svg"><path d="M5.38 7.11A4.25 4.25 0 0 1 9.48 4h13.05c1.91 0 3.58 1.27 4.1 3.11l3.22 11.6A4.18 4.18 0 0 1 25.82 24H14.5v-9.5a4 4 0 0 0-4-4H4.43l.95-3.39ZM14.47 28H24a1 1 0 1 0 0-2h-9.5v1.5c0 .17 0 .34-.03.5ZM4.5 14a.5.5 0 0 0-.5.5v13c0 .28.22.5.5.5h6a.5.5 0 0 0 .5-.5v-13a.5.5 0 0 0-.5-.5h-6Zm-2.5.5A2.5 2.5 0 0 1 4.5 12h6a2.5 2.5 0 0 1 2.5 2.5v13a2.5 2.5 0 0 1-2.5 2.5h-6A2.5 2.5 0 0 1 2 27.5v-13ZM7.5 20a2 2 0 1 0 0-4 2 2 0 0 0 0 4Z"/></svg>