<svg width="32" height="32" viewBox="0 0 32 32" xmlns="http://www.w3.org/2000/svg"><path d="M9.47 4a4.25 4.25 0 0 0-4.1 3.11l-.93 3.4.06-.01h2.01l.8-2.85A2.25 2.25 0 0 1 9.46 6h13.06c1.01 0 1.9.67 2.17 1.65l3.22 11.59a2.18 2.18 0 0 1-2.1 2.76H14.5v2h11.32a4.18 4.18 0 0 0 4.03-5.3L26.63 7.11A4.25 4.25 0 0 0 22.53 4H9.47Zm5.03 22H24a1 1 0 1 1 0 2h-9.53c.02-.16.03-.33.03-.5V26Zm-10-12a.5.5 0 0 0-.5.5v13c0 .28.22.5.5.5h6a.5.5 0 0 0 .5-.5v-13a.5.5 0 0 0-.5-.5h-6Zm-2.5.5A2.5 2.5 0 0 1 4.5 12h6a2.5 2.5 0 0 1 2.5 2.5v13a2.5 2.5 0 0 1-2.5 2.5h-6A2.5 2.5 0 0 1 2 27.5v-13ZM7.5 20a2 2 0 1 0 0-4 2 2 0 0 0 0 4Z"/></svg>