<svg width="16" height="16" viewBox="0 0 16 16" xmlns="http://www.w3.org/2000/svg"><path d="M1 5.5A2.5 2.5 0 0 1 3.5 3h9A2.5 2.5 0 0 1 15 5.5v4a2.5 2.5 0 0 1-2.5 2.5h-9A2.5 2.5 0 0 1 1 9.5v-4Zm4.15.65-.65.64-.65-.64a.5.5 0 1 0-.7.7l.64.65-.64.65a.5.5 0 1 0 .7.7l.65-.64.65.64a.5.5 0 1 0 .7-.7l-.64-.65.64-.65a.5.5 0 1 0-.7-.7Zm4 0-.65.64-.65-.64a.5.5 0 1 0-.7.7l.64.65-.64.65a.5.5 0 1 0 .7.7l.65-.64.65.64a.5.5 0 1 0 .7-.7l-.64-.65.64-.65a.5.5 0 0 0-.7-.7ZM11 8.5c0 .28.22.5.5.5h1a.5.5 0 0 0 0-1h-1a.5.5 0 0 0-.5.5Z"/></svg>