<svg width="24" height="24" viewBox="0 0 24 24" xmlns="http://www.w3.org/2000/svg"><path d="M11.78 10.22a.75.75 0 0 0-1.06 1.06l.72.72-.72.72a.75.75 0 1 0 1.06 1.06l.72-.72.72.72a.75.75 0 0 0 1.06-1.06l-.72-.72.72-.72a.75.75 0 1 0-1.06-1.06l-.72.72-.72-.72Zm-6.56 0c.3-.3.77-.3 1.06 0l.72.72.72-.72a.75.75 0 1 1 1.06 1.06l-.72.72.72.72a.75.75 0 1 1-1.06 1.06L7 13.06l-.72.72a.75.75 0 0 1-1.06-1.06l.72-.72-.72-.72a.75.75 0 0 1 0-1.06ZM16.5 13.5a.75.75 0 0 0 0 1.5h1.75a.75.75 0 0 0 0-1.5H16.5ZM5.25 5A3.25 3.25 0 0 0 2 8.25v7.5C2 17.55 3.46 19 5.25 19h13.5c1.8 0 3.25-1.46 3.25-3.25v-7.5C22 6.45 20.55 5 18.75 5H5.25ZM3.5 8.25c0-.97.78-1.75 1.75-1.75h13.5c.97 0 1.75.78 1.75 1.75v7.5c0 .97-.78 1.75-1.75 1.75H5.25c-.97 0-1.75-.78-1.75-1.75v-7.5Z"/></svg>