<svg width="20" height="20" viewBox="0 0 20 20" xmlns="http://www.w3.org/2000/svg"><path d="M7.85 8.15a.5.5 0 0 0-.7 0l-.65.64-.65-.64a.5.5 0 1 0-.7.7l.64.65-.64.65a.5.5 0 0 0 .7.7l.65-.64.65.64a.5.5 0 0 0 .7-.7l-.64-.65.64-.65a.5.5 0 0 0 0-.7Zm3.3 0a.5.5 0 0 1 .7.7l-.64.65.64.65a.5.5 0 0 1-.7.7l-.65-.64-.65.64a.5.5 0 0 1-.7-.7l.64-.65-.64-.65a.5.5 0 1 1 .7-.7l.65.64.65-.64ZM13.5 10a.5.5 0 0 0 0 1h2a.5.5 0 0 0 0-1h-2ZM4.75 4A2.75 2.75 0 0 0 2 6.75v5.5A2.75 2.75 0 0 0 4.75 15h10.5A2.75 2.75 0 0 0 18 12.25v-5.5A2.75 2.75 0 0 0 15.25 4H4.75ZM3 6.75C3 5.78 3.78 5 4.75 5h10.5c.97 0 1.75.78 1.75 1.75v5.5c0 .97-.78 1.75-1.75 1.75H4.75C3.78 14 3 13.22 3 12.25v-5.5Z"/></svg>