<svg width="16" height="16" viewBox="0 0 16 16" xmlns="http://www.w3.org/2000/svg"><path d="M3 4.5c0-.28.22-.5.5-.5h9c.28 0 .5.22.5.5v2a.5.5 0 0 1-.5.5h-9a.5.5 0 0 1-.5-.5v-2ZM4 5v1h8V5H4Zm5.5 3a.5.5 0 0 0-.5.5v3c0 .28.22.5.5.5h3a.5.5 0 0 0 .5-.5v-3a.5.5 0 0 0-.5-.5h-3Zm.5 3V9h2v2h-2ZM3 9c0-.28.22-.5.5-.5h4a.5.5 0 0 1 0 1h-4A.5.5 0 0 1 3 9Zm.5 1.5a.5.5 0 0 0 0 1h4a.5.5 0 1 0 0-1h-4ZM1 4.5A2.5 2.5 0 0 1 3.5 2h9A2.5 2.5 0 0 1 15 4.5v7a2.5 2.5 0 0 1-2.5 2.5h-9A2.5 2.5 0 0 1 1 11.5v-7ZM3.5 3C2.67 3 2 3.67 2 4.5v7c0 .83.67 1.5 1.5 1.5h9c.83 0 1.5-.67 1.5-1.5v-7c0-.83-.67-1.5-1.5-1.5h-9Z"/></svg>