<svg width="20" height="20" viewBox="0 0 20 20" xmlns="http://www.w3.org/2000/svg"><path d="M5 6v2h10V6H5Zm7 5v3h3v-3h-3ZM2 5.75A2.75 2.75 0 0 1 4.75 3h10.5A2.75 2.75 0 0 1 18 5.75v8.5A2.75 2.75 0 0 1 15.25 17H4.75A2.75 2.75 0 0 1 2 14.25v-8.5Zm2-.25v3c0 .27.22.5.5.5h11a.5.5 0 0 0 .5-.5v-3a.5.5 0 0 0-.5-.5h-11a.5.5 0 0 0-.5.5Zm7 5v4c0 .28.22.5.5.5h4a.5.5 0 0 0 .5-.5v-4a.5.5 0 0 0-.5-.5h-4a.5.5 0 0 0-.5.5Zm-6.5 0a.5.5 0 0 0 0 1h5a.5.5 0 0 0 0-1h-5ZM4 14c0 .28.22.5.5.5h5a.5.5 0 0 0 0-1h-5a.5.5 0 0 0-.5.5Z"/></svg>