<svg width="24" height="24" viewBox="0 0 24 24" xmlns="http://www.w3.org/2000/svg"><path d="M8.5 2a6.5 6.5 0 0 1 6.31 4.94c-.51.01-1.02.07-1.5.17a5 5 0 1 0-6.2 6.2c-.1.48-.16.99-.17 1.5A6.5 6.5 0 0 1 8.5 2Zm.16 8c.36-.45.76-.86 1.2-1.22a3.5 3.5 0 0 0-4.02.95.75.75 0 1 0 1.14.97 2 2 0 0 1 1.68-.7ZM7.5 6.5a1 1 0 1 1-2 0 1 1 0 0 1 2 0Zm4 0a1 1 0 1 1-2 0 1 1 0 0 1 2 0Zm1 8a1 1 0 1 0 0-2 1 1 0 0 0 0 2Zm5.46 2.04c.31.27.35.74.08 1.06a4 4 0 0 1-6.08 0 .75.75 0 0 1 1.14-.97 2.5 2.5 0 0 0 3.8 0 .75.75 0 0 1 1.06-.09Zm-.46-2.04a1 1 0 1 0 0-2 1 1 0 0 0 0 2ZM15 22a7 7 0 1 0 0-14 7 7 0 0 0 0 14Zm0-1.5a5.5 5.5 0 1 1 0-11 5.5 5.5 0 0 1 0 11Z"/></svg>