<svg width="20" height="20" viewBox="0 0 20 20" xmlns="http://www.w3.org/2000/svg"><path d="M5 3.5a.5.5 0 011 0v11.8l1.15-1.15a.5.5 0 01.7.7l-2 2a.5.5 0 01-.35.15.5.5 0 01-.35-.15l-2-2a.5.5 0 01.7-.7L5 15.29V3.5zm8 9a.5.5 0 011 0v2.8l1.15-1.15a.5.5 0 01.7.7l-2 2a.5.5 0 01-.7 0l-2-2a.5.5 0 01.7-.7L13 15.29V12.5zM15.5 3c.28 0 .5.22.5.5V7h1.5a.5.5 0 010 1H16v3.5a.5.5 0 01-1 0v-8c0-.28.22-.5.5-.5zM9 4.45A.5.5 0 019.5 4h4c.28 0 .5.22.5.5v1.25a6.82 6.82 0 01-.74 3.2 3.56 3.56 0 01-1.41 1.5c-.63.37-1.41.55-2.35.55a.5.5 0 010-1c1.43 0 2.27-.6 2.78-1.4.08-.12.15-.24.21-.37.36-.85.48-1.96.5-3.23H9.5a.5.5 0 01-.5-.55z"/></svg>