<svg width="24" height="24" viewBox="0 0 24 24" xmlns="http://www.w3.org/2000/svg"><path d="M6 3.75a.75.75 0 011.5 0v14.69l.72-.72a.75.75 0 011.06 1.06l-2 2c-.3.3-.77.3-1.06 0l-2-2a.75.75 0 111.06-1.06l.72.72V3.75zM16.25 14a.75.75 0 00-.75.75v3.69l-.72-.72a.75.75 0 10-1.06 1.06l2 2c.3.3.77.3 1.06 0l2-2a.75.75 0 10-1.06-1.06l-.72.72v-3.69a.75.75 0 00-.75-.75zm2.5-11c.41 0 .75.34.75.75V7h1.25a.75.75 0 010 1.5H19.5v3.75a.75.75 0 01-1.5 0v-8.5c0-.41.34-.75.75-.75zm-7 1a.75.75 0 000 1.5H15V6c0 .92-.19 1.95-.68 2.72-.47.73-1.23 1.28-2.57 1.28a.75.75 0 000 1.5 4.3 4.3 0 003.83-1.97c.7-1.1.92-2.45.92-3.53V4.75a.75.75 0 00-.75-.75h-4z"/></svg>