<svg width="24" height="24" viewBox="0 0 24 24" xmlns="http://www.w3.org/2000/svg"><path d="M7 3a1 1 0 011 1v13.59l.3-.3a1 1 0 011.4 1.42l-2 2a1 1 0 01-1.4 0l-2-2a1 1 0 111.4-1.42l.3.3V4a1 1 0 011-1zm8 12a1 1 0 112 0v2.59l.3-.3a1 1 0 011.4 1.42l-2 2a1 1 0 01-1.4 0l-2-2a1 1 0 011.4-1.42l.3.3V15zm5-11a1 1 0 10-2 0v8a1 1 0 102 0V9h1a1 1 0 100-2h-1V4zm-8 0a1 1 0 100 2h3v.25c0 .9-.18 1.87-.64 2.59-.42.65-1.1 1.16-2.36 1.16a1 1 0 100 2c1.94 0 3.26-.86 4.04-2.09.74-1.15.96-2.56.96-3.66V5a1 1 0 00-1-1h-4z"/></svg>