<svg width="20" height="20" viewBox="0 0 20 20" xmlns="http://www.w3.org/2000/svg"><path d="M5 3.75a.75.75 0 011.5 0v10.69l.72-.72a.75.75 0 011.06 1.06l-2 2c-.3.3-.77.3-1.06 0l-2-2a.75.75 0 111.06-1.06l.72.72V3.75zm8 9a.75.75 0 011.5 0v1.69l.72-.72a.75.75 0 111.06 1.06l-2 2a.75.75 0 01-1.06 0l-2-2a.75.75 0 111.06-1.06l.72.72v-1.69zM15.75 3c.41 0 .75.34.75.75V6.5h.75a.75.75 0 010 1.5h-.75v3.25a.75.75 0 01-1.5 0v-7.5c0-.41.34-.75.75-.75zm-6 1a.75.75 0 000 1.5h2.79c0 .88-.1 1.8-.43 2.54-.2.45-.48.8-.84 1.05a2.6 2.6 0 01-1.52.41.75.75 0 000 1.5 4.1 4.1 0 002.37-.67 3.96 3.96 0 001.35-1.68c.57-1.26.63-2.79.53-3.96a.75.75 0 00-.75-.69h-3.5z"/></svg>