<svg width="20" height="20" viewBox="0 0 20 20" xmlns="http://www.w3.org/2000/svg"><path d="M5.5 2C4.67 2 4 2.67 4 3.5v14c0 .28.22.5.5.5h4.74A2.98 2.98 0 019 16.81c0-1.05.7-1.97 1.7-2.23a2.75 2.75 0 114.55-3c.2-.2.47-.35.75-.45V9.5c0-.83-.67-1.5-1.5-1.5H13V3.5c0-.83-.67-1.5-1.5-1.5h-6zm2 3.75a.75.75 0 11-1.5 0 .75.75 0 011.5 0zM6.75 8a.75.75 0 110 1.5.75.75 0 010-1.5zm.75 3.75a.75.75 0 11-1.5 0 .75.75 0 011.5 0zM9.75 5a.75.75 0 110 1.5.75.75 0 010-1.5zm.75 3.75a.75.75 0 11-1.5 0 .75.75 0 011.5 0zm4 4a1.75 1.75 0 11-3.5 0 1.75 1.75 0 013.5 0zm1.5 4.06c0 1.1-.86 2.19-3 2.19s-3-1.1-3-2.19c0-.72.58-1.31 1.29-1.31h3.42c.71 0 1.29.59 1.29 1.31zm.48 1.69h.02c1.79 0 2.5-.94 2.5-1.88a1.1 1.1 0 00-1.07-1.12H16.6c.25.38.4.83.4 1.31 0 .58-.17 1.18-.52 1.69zM18 13.25a1.25 1.25 0 11-2.5 0 1.25 1.25 0 012.5 0z"/></svg>