<svg width="16" height="16" viewBox="0 0 16 16" xmlns="http://www.w3.org/2000/svg"><path d="M3 3.5C3 2.67 3.67 2 4.5 2h4c.83 0 1.5.67 1.5 1.5v3.51L9.75 7a2.75 2.75 0 00-2.05 4.58A2.31 2.31 0 006 14H3.5a.5.5 0 01-.5-.5v-10zM5.5 5a.5.5 0 100-1 .5.5 0 000 1zm0 2.5a.5.5 0 100-1 .5.5 0 000 1zm0 2.5a.5.5 0 100-1 .5.5 0 000 1zm2-5a.5.5 0 100-1 .5.5 0 000 1zm0 2.5a.5.5 0 100-1 .5.5 0 000 1zm4 2.25a1.75 1.75 0 11-3.5 0 1.75 1.75 0 013.5 0zm1.5 4.06c0 1.1-.86 2.19-3 2.19s-3-1.1-3-2.19c0-.72.58-1.31 1.29-1.31h3.42c.71 0 1.29.59 1.29 1.31zm.48 1.69h.02c1.79 0 2.5-.94 2.5-1.88a1.1 1.1 0 00-1.07-1.12H13.6c.25.38.4.83.4 1.31 0 .58-.17 1.18-.52 1.69zM15 10.25a1.25 1.25 0 11-2.5 0 1.25 1.25 0 012.5 0z"/></svg>