<svg width="20" height="20" viewBox="0 0 20 20" xmlns="http://www.w3.org/2000/svg"><path d="M6.75 6.5a.75.75 0 100-1.5.75.75 0 000 1.5zm.75 2.25a.75.75 0 11-1.5 0 .75.75 0 011.5 0zm-.75 3.75a.75.75 0 100-1.5.75.75 0 000 1.5zm3.75-6.75a.75.75 0 11-1.5 0 .75.75 0 011.5 0zM9.75 9.5a.75.75 0 100-1.5.75.75 0 000 1.5zM9.01 17H5V3.5c0-.28.22-.5.5-.5h6c.28 0 .5.22.5.5v5c0 .28.22.5.5.5h2c.28 0 .5.22.5.5v1.67c.1.13.17.27.24.41.22-.2.48-.35.76-.45V9.5c0-.83-.67-1.5-1.5-1.5H13V3.5c0-.83-.67-1.5-1.5-1.5h-6C4.67 2 4 2.67 4 3.5v14c0 .28.22.5.5.5h4.74a2.97 2.97 0 01-.23-1zm5.49-4.25a1.75 1.75 0 11-3.5 0 1.75 1.75 0 013.5 0zm1.5 4.06c0 1.1-.86 2.19-3 2.19s-3-1.1-3-2.19c0-.72.58-1.31 1.29-1.31h3.42c.71 0 1.29.59 1.29 1.31zm.48 1.69h.02c1.79 0 2.5-.94 2.5-1.88a1.1 1.1 0 00-1.07-1.12H16.6c.25.38.4.83.4 1.31 0 .58-.17 1.18-.52 1.69zM18 13.25a1.25 1.25 0 11-2.5 0 1.25 1.25 0 012.5 0z"/></svg>