<svg width="16" height="16" viewBox="0 0 16 16" xmlns="http://www.w3.org/2000/svg"><path d="M4.11 6.19l-.02.03a3.08 3.08 0 00-.22.33 5.33 5.33 0 00-.74 4.06c.26 1.19.77 2.3 1.65 3.1A5.3 5.3 0 008.5 15c1.62 0 2.89-.54 3.75-1.47A5.12 5.12 0 0013.5 10c0-.86-.28-1.69-.67-2.46-.36-.74-.83-1.47-1.28-2.15l-.07-.1c-.47-.73-.9-1.4-1.19-2.03A2.77 2.77 0 0110 1.6.5.5 0 009.5 1c-.42 0-1.12.15-1.79.5a3.3 3.3 0 00-1.68 1.84c-.4 1.17.06 2.5.44 3.32.17.38.02.79-.26.93a.54.54 0 01-.73-.24l-.53-1.07a.5.5 0 00-.84-.1z"/></svg>