<svg width="24" height="24" viewBox="0 0 24 24" xmlns="http://www.w3.org/2000/svg"><path d="M12.54 4.3c.32-.25.64-.44.93-.57.09 2.13 1.13 3.73 2.13 5.14l.27.38c1.08 1.52 2.01 2.82 2.11 4.54a6.86 6.86 0 01-1.33 4.83 5.43 5.43 0 01-4.4 1.88c-2.06 0-3.61-.53-4.7-1.42a5.83 5.83 0 01-1.98-3.87 5.56 5.56 0 01.86-4l.32.6a2.2 2.2 0 002.9.96c1.3-.62 1.58-2.21 1.17-3.33a3.94 3.94 0 01-.11-2.7 5.32 5.32 0 011.83-2.45zM6.16 9.31h-.01l-.01.02a1.94 1.94 0 00-.13.1c-.07.07-.18.16-.3.3-.24.24-.55.62-.83 1.12a7.06 7.06 0 00-.8 4.55c.27 2 1.1 3.67 2.53 4.83C8.02 21.4 9.94 22 12.25 22c2.39 0 4.3-.9 5.55-2.43a8.35 8.35 0 001.68-5.86c-.13-2.18-1.31-3.83-2.36-5.29l-.3-.42C15.68 6.4 14.78 4.9 15 2.83a.75.75 0 00-.75-.83c-.38 0-.82.12-1.24.3a6.82 6.82 0 00-3.72 3.96c-.49 1.4-.24 2.73.12 3.7.24.64-.02 1.27-.4 1.46a.7.7 0 01-.93-.31l-.81-1.54a.75.75 0 00-1.11-.25z"/></svg>