<svg width="20" height="20" viewBox="0 0 20 20" xmlns="http://www.w3.org/2000/svg"><path d="M7 4.5c0 .17-.02.34-.05.5H10a1 1 0 011 1v2h-1a2 2 0 00-2 2v1H6a1 1 0 01-1-1V6.95a2.51 2.51 0 01-1 0V10c0 1.1.9 2 2 2h2v2a2 2 0 001.16 1.81A5.51 5.51 0 019 14v-4a1 1 0 011-1h4a5.58 5.58 0 011.81.16A2 2 0 0014 8h-2V6a2 2 0 00-2-2H6.95c.03.16.05.33.05.5zm-1 0a1.5 1.5 0 11-3 0 1.5 1.5 0 013 0zm11 0a1.5 1.5 0 11-3 0 1.5 1.5 0 013 0zm-11 11a1.5 1.5 0 11-3 0 1.5 1.5 0 013 0zm13-1a4.5 4.5 0 11-9 0 4.5 4.5 0 019 0zm-2.65-1.15a.5.5 0 00-.7-.7l-1.15 1.14-1.15-1.14a.5.5 0 00-.7.7l1.14 1.15-1.14 1.15a.5.5 0 00.7.7l1.15-1.14 1.15 1.14a.5.5 0 00.7-.7l-1.14-1.15 1.14-1.15z"/></svg>