<svg width="16" height="16" viewBox="0 0 16 16" xmlns="http://www.w3.org/2000/svg"><path d="M12 2.05a2.5 2.5 0 012 2.45v7a2.5 2.5 0 01-2 2.45V9.62l.56-.56a1.5 1.5 0 000-2.12L12 6.38V2.05zM11 2v3.38A1.5 1.5 0 008.5 6.5h-1A1.5 1.5 0 005 5.38V2h6zM4 13.95V9.62l-.56-.56a1.5 1.5 0 010-2.12L4 6.38V2.05A2.5 2.5 0 002 4.5v7a2.5 2.5 0 002 2.45zm3.06-3.39a1.5 1.5 0 01-2.06.06V14h6v-3.38A1.5 1.5 0 018.5 9.5h-1c0 .38-.15.77-.44 1.06zm-.7-4.41c.19.2.19.5 0 .7l-.65.65h4.58l-.64-.65a.5.5 0 11.7-.7l1.5 1.5c.2.2.2.5 0 .7l-1.5 1.5a.5.5 0 01-.7-.7l.64-.65H5.71l.64.65a.5.5 0 11-.7.7l-1.5-1.5a.5.5 0 010-.7l1.5-1.5c.2-.2.5-.2.7 0z"/></svg>