<svg width="28" height="28" viewBox="0 0 28 28" xmlns="http://www.w3.org/2000/svg"><path d="M6.75 25A3.75 3.75 0 013 21.25V6.75A3.75 3.75 0 016.75 3h.75v8.65l-1.06 1.19a1.75 1.75 0 000 2.32l1.06 1.2V25h-.75zM9 25v-7.17a1.75 1.75 0 002.43-2.08h5.14A1.75 1.75 0 0019 17.83V25H9zm8.09-14.56c.54-.48 1.3-.56 1.91-.27V3H9v7.17a1.75 1.75 0 012.43 2.08h5.14a1.75 1.75 0 01.52-1.8zm4.47 4.72l-1.06 1.2V25h.75A3.75 3.75 0 0025 21.25V6.75A3.75 3.75 0 0021.25 3h-.75v8.65l1.05 1.18a1.75 1.75 0 01.03 2.3v.01l-.02.02zM9.42 13.25h9.16l-.89-1a.75.75 0 011.12-1l2 2.25a.75.75 0 01.01.99l-2 2.26a.75.75 0 11-1.13-1l.89-1H9.42l.9 1a.75.75 0 01-1.13 1l-2-2.25a.75.75 0 010-1l2-2.25a.75.75 0 011.12 1l-.89 1zm12.58.68v.14z"/></svg>