<svg width="28" height="28" viewBox="0 0 28 28" xmlns="http://www.w3.org/2000/svg"><path d="M9.42 13.25h9.16l-.89-1a.75.75 0 011.12-1l2 2.25a.75.75 0 01.01.99l-2 2.26a.75.75 0 11-1.13-1l.89-1H9.42l.9 1a.75.75 0 01-1.13 1l-2-2.25a.75.75 0 010-1l2-2.25a.75.75 0 011.12 1l-.89 1zm-6.42 8A3.75 3.75 0 006.75 25h14.5A3.75 3.75 0 0025 21.25V6.75A3.75 3.75 0 0021.25 3H6.75A3.75 3.75 0 003 6.75v14.5zm1.5-14.5c0-1.24 1-2.25 2.25-2.25h.75v7.15l.94-1.06c.16-.18.35-.32.56-.42V4.5h10v5.67c.2.1.4.24.56.42l.94 1.06V4.5h.75c1.24 0 2.25 1 2.25 2.25v14.5c0 1.24-1 2.25-2.25 2.25h-.75v-7.15l-.94 1.06c-.16.18-.35.32-.56.42v5.67H9v-5.67c-.2-.1-.4-.24-.56-.42l-.94-1.06v7.15h-.75c-1.24 0-2.25-1-2.25-2.25V6.75z"/></svg>