<svg width="16" height="16" viewBox="0 0 16 16" xmlns="http://www.w3.org/2000/svg"><path d="M6.35 6.15c.2.2.2.5 0 .7l-.64.65h4.58l-.64-.65a.5.5 0 11.7-.7l1.5 1.5c.2.2.2.5 0 .7l-1.5 1.5a.5.5 0 01-.7-.7l.64-.65H5.71l.64.65a.5.5 0 11-.7.7l-1.5-1.5a.5.5 0 010-.7l1.5-1.5c.2-.2.5-.2.7 0zM11.5 2A2.5 2.5 0 0114 4.5v7a2.5 2.5 0 01-2.5 2.5h-7A2.5 2.5 0 012 11.5v-7A2.5 2.5 0 014.5 2h7zm.5 1.09v3.29l-.94-.94a1.6 1.6 0 00-.06-.06V3H5v2.38l-.06.06-.94.94v-3.3c-.58.21-1 .77-1 1.42v7c0 .65.42 1.2 1 1.41V9.62l.94.94.06.06V13h6v-2.38l.06-.06.94-.94v3.3c.58-.21 1-.77 1-1.42v-7c0-.65-.42-1.2-1-1.41zm-.94 7.47L11 10.5z"/></svg>