<svg width="20" height="20" viewBox="0 0 20 20" xmlns="http://www.w3.org/2000/svg"><path d="M3 4c0-1.1.9-2 2-2h8a2 2 0 0 1 2 2v12a2 2 0 0 1-2 2H9.74A5.5 5.5 0 0 0 3 9.6V4Zm2.5 1a.5.5 0 0 0-.5.5v1c0 .28.22.5.5.5h7a.5.5 0 0 0 .5-.5v-1a.5.5 0 0 0-.5-.5h-7Zm11 1H16v2.5h.5A.5.5 0 0 0 17 8V6.5a.5.5 0 0 0-.5-.5ZM16 9.5h.5c.28 0 .5.22.5.5v1.5a.5.5 0 0 1-.5.5H16V9.5Zm.5 3.5H16v2.5h.5a.5.5 0 0 0 .5-.5v-1.5a.5.5 0 0 0-.5-.5Zm-11 6a4.5 4.5 0 1 0 0-9 4.5 4.5 0 0 0 0 9Zm-1.13-3.66h-.6c-.2 0-.32-.2-.25-.39l1.1-2.78c.04-.1.13-.17.24-.17h1.83c.18 0 .3.19.25.37l-.31.97c-.05.17.07.33.24.33h.23c.36 0 .54.46.27.72l-2.56 2.53c-.2.2-.5 0-.44-.27l.24-1a.25.25 0 0 0-.24-.31Z"/></svg>