<svg width="24" height="24" viewBox="0 0 24 24" xmlns="http://www.w3.org/2000/svg"><path d="M6 4a1.5 1.5 0 1 1 3 0 1.5 1.5 0 0 1-3 0Zm1.5-3a3 3 0 1 0 0 6 3 3 0 0 0 0-6ZM2 9.77C2 8.79 2.8 8 3.77 8h4.77c-.27.45-.44.96-.5 1.5H3.76a.27.27 0 0 0-.27.27v.36c0 .14 0 1 .49 1.8.39.65 1.14 1.36 2.75 1.53-.48.32-.86.79-1.06 1.34a4.6 4.6 0 0 1-2.98-2.1 5.15 5.15 0 0 1-.7-2.57v-.36Zm13.97-.27a3.97 3.97 0 0 0-.5-1.5h4.76c.98 0 1.77.8 1.77 1.77v.36c0 .19 0 1.18-.52 2.23a6.5 6.5 0 0 0-1.29-.78c.3-.69.31-1.33.31-1.46v-.35a.27.27 0 0 0-.27-.27h-4.26Zm-1.55 2.28a3 3 0 1 0-4.84-3.55 3 3 0 0 0 4.84 3.55ZM12.02 14H8.27c-.98 0-1.77.8-1.77 1.77v.36c0 .2 0 1.4.7 2.57C7.94 19.94 9.4 21 12 21h.02c-.3-.47-.54-.99-.72-1.53-1.65-.16-2.42-.88-2.81-1.54a3.65 3.65 0 0 1-.49-1.8v-.36c0-.15.12-.27.27-.27h3.04c.18-.53.42-1.04.71-1.5ZM16.5 2.5a1.5 1.5 0 1 0 0 3 1.5 1.5 0 0 0 0-3Zm-3 1.5a3 3 0 1 1 6 0 3 3 0 0 1-6 0Zm-3 6a1.5 1.5 0 1 1 3 0 1.5 1.5 0 0 1-3 0Zm7 2a5.5 5.5 0 1 1 0 11 5.5 5.5 0 0 1 0-11Zm.5 8.5V18h2.5a.5.5 0 0 0 0-1H18v-2.5a.5.5 0 1 0-1 0V17h-2.5a.5.5 0 0 0 0 1H17v2.5a.5.5 0 1 0 1 0Z"/></svg>