<svg width="28" height="28" viewBox="0 0 28 28" xmlns="http://www.w3.org/2000/svg"><path d="M8.5 2.5a2.25 2.25 0 1 0 0 4.5 2.25 2.25 0 0 0 0-4.5ZM4.75 4.75a3.75 3.75 0 1 1 7.5 0 3.75 3.75 0 0 1-7.5 0ZM2 11.98c0-1.1.89-1.98 1.98-1.98h5.6c-.18.47-.3.97-.32 1.5H3.98a.48.48 0 0 0-.48.48v.4c0 .17 0 1.2.6 2.2.53.84 1.56 1.75 3.76 1.9a3 3 0 0 0-1.14 1.37 5.5 5.5 0 0 1-3.89-2.5A5.85 5.85 0 0 1 2 12.39v-.4ZM18.42 10c.18.47.3.97.32 1.5h5.28c.26 0 .48.22.48.48v.4c0 .13 0 .82-.3 1.59.44.25.86.55 1.24.89.56-1.18.56-2.27.56-2.48v-.4c0-1.1-.89-1.98-1.98-1.98h-5.6Zm-.67 1.75c0 .75-.22 1.45-.6 2.04-.8.4-1.5.93-2.1 1.56a3.75 3.75 0 1 1 2.7-3.6ZM9.48 17h4.38c-.24.47-.45.97-.59 1.5H9.48a.48.48 0 0 0-.48.48v.4c0 .17 0 1.2.6 2.2.55.87 1.64 1.82 4.02 1.91.23.54.53 1.04.87 1.5L14 25c-3.1 0-4.8-1.23-5.67-2.64a5.85 5.85 0 0 1-.83-2.98v-.4c0-1.1.89-1.98 1.98-1.98ZM19.5 2.5a2.25 2.25 0 1 0 0 4.5 2.25 2.25 0 0 0 0-4.5Zm-3.75 2.25a3.75 3.75 0 1 1 7.5 0 3.75 3.75 0 0 1-7.5 0Zm-4 7a2.25 2.25 0 1 0 4.5 0 2.25 2.25 0 0 0-4.5 0ZM27 20.5a6.5 6.5 0 1 1-13 0 6.5 6.5 0 0 1 13 0Zm-6-4a.5.5 0 0 0-1 0V20h-3.5a.5.5 0 0 0 0 1H20v3.5a.5.5 0 0 0 1 0V21h3.5a.5.5 0 0 0 0-1H21v-3.5Z"/></svg>