<svg width="24" height="24" viewBox="0 0 24 24" xmlns="http://www.w3.org/2000/svg"><path d="M10.5 4a3 3 0 1 1-6 0 3 3 0 0 1 6 0ZM3.77 8C2.79 8 2 8.8 2 9.77v.36c0 .2 0 1.4.7 2.57a4.6 4.6 0 0 0 2.98 2.1c.39-1.05 1.4-1.8 2.59-1.8h1.08a3.99 3.99 0 0 1-.81-5H3.77Zm11.7 0a3.98 3.98 0 0 1 .34 3.22 6.51 6.51 0 0 1 5.67 1.14c.52-1.05.52-2.04.52-2.23v-.36C22 8.79 21.2 8 20.23 8h-4.77Zm-3.45 6a6.47 6.47 0 0 0 0 7H12c-2.61 0-4.06-1.06-4.8-2.3a5.15 5.15 0 0 1-.7-2.57v-.36c0-.98.8-1.77 1.77-1.77h3.75Zm4.48-7a3 3 0 1 0 0-6 3 3 0 0 0 0 6Zm1 5a5.5 5.5 0 1 1 0 11 5.5 5.5 0 0 1 0-11Zm.5 8.5V18h2.5a.5.5 0 0 0 0-1H18v-2.5a.5.5 0 1 0-1 0V17h-2.5a.5.5 0 0 0 0 1H17v2.5a.5.5 0 1 0 1 0ZM9 10.15A3 3 0 1 0 12.02 7H12a3 3 0 0 0-3 3v.15ZM12.02 7H12Z"/></svg>