<svg width="28" height="28" viewBox="0 0 28 28" xmlns="http://www.w3.org/2000/svg"><path d="M8.5 8.5a3.75 3.75 0 1 0 0-7.5 3.75 3.75 0 0 0 0 7.5ZM2 11.98c0-1.1.89-1.98 1.98-1.98h5.6a4.74 4.74 0 0 0 2.3 6h-2.4c-1.24 0-2.31.76-2.76 1.85a5.5 5.5 0 0 1-3.89-2.5A5.85 5.85 0 0 1 2 12.39v-.4Zm15.75-.23c0 .75-.22 1.45-.6 2.04-.8.4-1.5.93-2.1 1.56a3.75 3.75 0 1 1 2.7-3.6ZM9.48 17h4.38a7.47 7.47 0 0 0 .63 7.99L14 25c-3.1 0-4.8-1.23-5.67-2.64a5.85 5.85 0 0 1-.83-2.98v-.4c0-1.1.89-1.98 1.98-1.98ZM26 12.38c0 .2 0 1.3-.56 2.48a7.47 7.47 0 0 0-6.94-1.6 4.74 4.74 0 0 0-.08-3.26h5.6c1.1 0 1.98.89 1.98 1.98v.4Zm-2.75-7.63a3.75 3.75 0 1 1-7.5 0 3.75 3.75 0 0 1 7.5 0ZM27 20.5a6.5 6.5 0 1 1-13 0 6.5 6.5 0 0 1 13 0Zm-6-4a.5.5 0 0 0-1 0V20h-3.5a.5.5 0 0 0 0 1H20v3.5a.5.5 0 0 0 1 0V21h3.5a.5.5 0 0 0 0-1H21v-3.5Z"/></svg>