<svg width="20" height="20" viewBox="0 0 20 20" xmlns="http://www.w3.org/2000/svg"><path d="M5.5 8.5a.5.5 0 0 0 0 1h6.7c.24-.11.5-.2.75-.28a.5.5 0 0 0-.45-.72h-7Zm10.5.7V9a7 7 0 1 0-6.8 7c.1.34.23.67.39.98L9 17a8 8 0 1 1 7.98-7.41A5.46 5.46 0 0 0 16 9.2Zm3 5.3a4.5 4.5 0 1 1-9 0 4.5 4.5 0 0 1 9 0Zm-5.4-2.6a.5.5 0 0 0-.7 0l-1.75 1.75a.5.5 0 0 0 0 .7l1.75 1.75a.5.5 0 0 0 .7-.7l-.9-.9h1.55c.97 0 1.75.78 1.75 1.75v.25a.5.5 0 0 0 1 0v-.25a2.75 2.75 0 0 0-2.75-2.75h-1.54l.9-.9a.5.5 0 0 0 0-.7Z"/></svg>