<svg width="16" height="16" viewBox="0 0 16 16" xmlns="http://www.w3.org/2000/svg"><path d="M7.3 1.71c.41-.32 1-.32 1.4 0l4.97 3.8c.63.48.3 1.49-.5 1.49H2.83a.83.83 0 0 1-.5-1.5l4.96-3.79ZM8 5.25a.75.75 0 1 0 0-1.5.75.75 0 0 0 0 1.5ZM3.5 8v3H5V8H3.5ZM6 8v2.05a3.5 3.5 0 0 1 1.5-.9V8H6Zm-2.75 4h1.79a3.53 3.53 0 0 0 .3 2H2.5a.5.5 0 0 1-.5-.5v-.25c0-.69.56-1.25 1.25-1.25Zm9.25-4v1H11V8h1.5ZM10 8v1H8.5V8H10Zm-1.5 2a2.5 2.5 0 0 0 0 5H9a.5.5 0 1 0 0-1h-.5a1.5 1.5 0 1 1 0-3H9a.5.5 0 1 0 0-1h-.5Zm3.5 0a.5.5 0 0 0 0 1h.5a1.5 1.5 0 0 1 0 3H12a.5.5 0 0 0 0 1h.5a2.5 2.5 0 1 0 0-5H12Zm-4 2.5c0-.28.22-.5.5-.5h4a.5.5 0 0 1 0 1h-4a.5.5 0 0 1-.5-.5Z"/></svg>