<svg width="16" height="16" viewBox="0 0 16 16" xmlns="http://www.w3.org/2000/svg"><path d="M8 5a.75.75 0 1 0 0-1.5A.75.75 0 0 0 8 5Zm.74-3.55a1.17 1.17 0 0 0-1.48 0l-5 4.07A.83.83 0 0 0 2.8 7H3v4.2c-.6.3-1 .92-1 1.63v.67c0 .28.22.5.5.5h2.84a3.48 3.48 0 0 1-.3-1H3v-.17c0-.46.37-.83.83-.83h1.2c.11-.75.46-1.43.97-1.95V7h1.5v2.15c.32-.1.65-.15 1-.15V7H10v2h1V7h1v2h.5c.17 0 .34.01.5.04V7h.21a.83.83 0 0 0 .53-1.48l-5-4.07Zm-.84.78a.17.17 0 0 1 .2 0L12.75 6H3.26L7.9 2.23ZM5 11H4V7h1v4Zm3.5-1a2.5 2.5 0 1 0 0 5H9a.5.5 0 0 0 0-1h-.5a1.5 1.5 0 0 1 0-3H9a.5.5 0 0 0 0-1h-.5Zm3.5 0a.5.5 0 1 0 0 1h.5a1.5 1.5 0 1 1 0 3H12a.5.5 0 1 0 0 1h.5a2.5 2.5 0 0 0 0-5H12Zm-4 2.5c0-.28.22-.5.5-.5h4a.5.5 0 1 1 0 1h-4a.5.5 0 0 1-.5-.5Z"/></svg>