<svg width="28" height="28" viewBox="0 0 28 28" xmlns="http://www.w3.org/2000/svg"><path d="M13.11 2.3a1.5 1.5 0 0 1 1.78 0l9.5 7a1.5 1.5 0 0 1-.74 2.7H4.35a1.5 1.5 0 0 1-.74-2.7l9.5-7Zm.9 6.7a1.5 1.5 0 1 0 0-3 1.5 1.5 0 0 0 0 3Zm5.5 4H22v5h-2.5v-5ZM13 22.75c0-1.03.32-1.97.87-2.75H6.25A3.25 3.25 0 0 0 3 23.25v.5c0 .41.34.75.75.75h9.58a4.74 4.74 0 0 1-.33-1.75Zm2-3.87c.7-.51 1.56-.83 2.5-.87V13H15v5.88ZM13 19v-6h-2.5v6H13Zm-4.5-6v6H6v-6h2.5Zm9.24 7.5a2.25 2.25 0 0 0 0 4.5h.5a.75.75 0 0 1 0 1.5h-.5a3.75 3.75 0 0 1 0-7.5h.5a.75.75 0 0 1 0 1.5h-.5ZM17 22.75c0-.41.34-.75.75-.75h5.5a.75.75 0 0 1 0 1.5h-5.5a.75.75 0 0 1-.75-.75ZM23.25 25a2.25 2.25 0 0 0 0-4.5h-.5a.75.75 0 0 1 0-1.5h.5a3.75 3.75 0 0 1 0 7.5h-.5a.75.75 0 0 1 0-1.5h.5Z"/></svg>