<svg width="32" height="32" viewBox="0 0 32 32" xmlns="http://www.w3.org/2000/svg"><path d="M7.5 3A4.5 4.5 0 003 7.5v17A4.5 4.5 0 007.5 29h8.8c-.55-.6-1-1.27-1.36-2H7.5A2.5 2.5 0 015 24.5V11h22v3.94c.73.36 1.4.81 2 1.35V7.5A4.5 4.5 0 0024.5 3h-17zM5 7.5A2.5 2.5 0 017.5 5h17A2.5 2.5 0 0127 7.5V9H5V7.5zm13.34 11.54c.26.84-.25 1.73-1.11 1.92l-1.54.35a7.52 7.52 0 00-.04 3.2l1.7.42c.83.2 1.33 1.06 1.1 1.89l-.5 1.72a7.5 7.5 0 002.75 1.6l1.26-1.3c.6-.62 1.6-.62 2.2 0l1.23 1.27a7.5 7.5 0 002.73-1.63l-.46-1.52a1.52 1.52 0 011.11-1.92l1.54-.36a7.52 7.52 0 00.04-3.18l-1.7-.43a1.52 1.52 0 01-1.1-1.89l.5-1.72a7.5 7.5 0 00-2.75-1.6l-1.26 1.3c-.6.62-1.6.62-2.2 0l-1.23-1.27a7.5 7.5 0 00-2.73 1.63l.46 1.52zM25 23a2 2 0 11-4 0 2 2 0 014 0z"/></svg>