<svg width="28" height="28" viewBox="0 0 28 28" xmlns="http://www.w3.org/2000/svg"><path d="M25 9.5v5A7.5 7.5 0 0 0 14.5 25H6.25A3.25 3.25 0 0 1 3 21.75V9.5h22ZM21.75 3C23.55 3 25 4.46 25 6.25V8H3V6.25C3 4.45 4.46 3 6.25 3h15.5ZM16.8 16.7a2 2 0 0 1-1.45 2.5l-1.02.25a6.8 6.8 0 0 0 0 2.15l.98.23a2 2 0 0 1 1.45 2.52l-.32 1.1c.52.45 1.11.83 1.75 1.1l.85-.9a2 2 0 0 1 2.9 0l.85.9a6.2 6.2 0 0 0 1.75-1.09l-.34-1.16a2 2 0 0 1 1.44-2.5l1.03-.25a6.8 6.8 0 0 0 0-2.15l-.99-.23a2 2 0 0 1-1.45-2.51l.33-1.1a6.2 6.2 0 0 0-1.75-1.1l-.85.88a2 2 0 0 1-2.9 0l-.85-.9a6.2 6.2 0 0 0-1.75 1.1l.34 1.16Zm3.7 5.3a1.5 1.5 0 1 1 0-3 1.5 1.5 0 0 1 0 3Z"/></svg>