<svg width="20" height="20" viewBox="0 0 20 20" xmlns="http://www.w3.org/2000/svg"><path d="M17 7v2.6A5.5 5.5 0 0 0 9.6 17H5.5A2.5 2.5 0 0 1 3 14.5V7h14Zm-2.5-4A2.5 2.5 0 0 1 17 5.5V6H3v-.5A2.5 2.5 0 0 1 5.5 3h9Zm-2.43 8.44a2 2 0 0 1-1.43 2.48l-.47.12a4.7 4.7 0 0 0 .01 1.01l.35.09A2 2 0 0 1 12 17.66l-.13.42c.26.2.54.38.84.52l.32-.35a2 2 0 0 1 2.91 0l.34.36c.3-.13.57-.3.82-.5l-.15-.55a2 2 0 0 1 1.43-2.48l.46-.12a4.73 4.73 0 0 0-.01-1.01l-.35-.09A2 2 0 0 1 17 11.34l.13-.42c-.26-.2-.54-.38-.84-.52l-.32.35a2 2 0 0 1-2.91 0l-.34-.36c-.3.13-.57.3-.82.5l.16.55Zm2.43 4.06a1 1 0 1 1 0-2 1 1 0 0 1 0 2Z"/></svg>