<svg width="24" height="24" viewBox="0 0 24 24" xmlns="http://www.w3.org/2000/svg"><path d="M17.75 3C19.55 3 21 4.46 21 6.25v5.77c-.46-.3-.97-.53-1.5-.7V8.5h-15v9.25c0 .97.78 1.75 1.75 1.75h5.06c.18.53.42 1.04.71 1.5H6.25A3.25 3.25 0 013 17.75V6.25C3 4.45 4.46 3 6.25 3h11.5zm0 1.5H6.25c-.97 0-1.75.78-1.75 1.75V7h15v-.75c0-.97-.78-1.75-1.75-1.75zm-3.47 9.48a2 2 0 01-1.44 2.5l-.58.14a5.73 5.73 0 000 1.8l.54.13a2 2 0 011.45 2.51l-.18.64c.43.38.93.7 1.48.92l.5-.52a2 2 0 012.9 0l.5.52a5.28 5.28 0 001.47-.9l-.2-.7a2 2 0 011.45-2.5l.58-.14a5.73 5.73 0 000-1.8l-.55-.13a2 2 0 01-1.45-2.51l.2-.63c-.45-.39-.95-.7-1.5-.93l-.49.52a2 2 0 01-2.9 0l-.5-.52c-.54.22-1.04.53-1.48.91l.2.69zM17.5 19c-.8 0-1.45-.67-1.45-1.5S16.7 16 17.5 16c.8 0 1.45.67 1.45 1.5S18.3 19 17.5 19z"/></svg>