<svg width="20" height="20" viewBox="0 0 20 20" xmlns="http://www.w3.org/2000/svg"><path d="M5.5 3a2.5 2.5 0 0 0-2.3 1.52l.3-.02A2 2 0 1 1 3 8.44v6.06A2.5 2.5 0 0 0 5.5 17h4.1a5.48 5.48 0 0 1 0-5H7.5a.5.5 0 0 1 0-1h2.76A5.49 5.49 0 0 1 17 9.6V5.5A2.5 2.5 0 0 0 14.5 3h-9ZM7 8.5c0-.28.22-.5.5-.5h5a.5.5 0 0 1 0 1h-5a.5.5 0 0 1-.5-.5Zm-3.5-3a1 1 0 0 0-1 1 1 1 0 1 0 1-1Zm15.5 9a4.5 4.5 0 1 1-9 0 4.5 4.5 0 0 1 9 0ZM16.5 13a2 2 0 1 0-4 0v1.8l-.35.35a.5.5 0 0 0 .35.85h4a.5.5 0 0 0 .35-.85l-.35-.36V13Zm-3.41 4a1.5 1.5 0 0 0 2.82 0H13.1Z"/></svg>