<svg width="28" height="28" viewBox="0 0 28 28" xmlns="http://www.w3.org/2000/svg"><path d="M3 11.4v9.35C3 23.1 4.9 25 7.25 25h7.25a7.49 7.49 0 0 1-.88-1.5H7.25a2.75 2.75 0 0 1-2.75-2.75V11.4a2.75 2.75 0 0 1-1.5 0Zm22-4.15v7.25a7.49 7.49 0 0 0-1.5-.88V7.25a2.75 2.75 0 0 0-2.75-2.75H7.25c-1.14 0-2.11.7-2.53 1.68a2.74 2.74 0 0 0-1.55-.12A4.25 4.25 0 0 1 7.25 3h13.5C23.1 3 25 4.9 25 7.25ZM9.75 15h5.65c-.48.44-.9.95-1.25 1.5h-4.4a.75.75 0 0 1 0-1.5ZM2 8.75a1.75 1.75 0 1 0 3.5 0 1.75 1.75 0 0 0-3.5 0ZM9.75 11a.75.75 0 0 0 0 1.5h8.5a.75.75 0 0 0 0-1.5h-8.5ZM27 20.5a6.5 6.5 0 1 1-13 0 6.5 6.5 0 0 1 13 0ZM20.5 16a2.5 2.5 0 0 0-2.5 2.5v2.8l-.85.85a.5.5 0 0 0 .35.85h6a.5.5 0 0 0 .35-.85l-.85-.86V18.5a2.5 2.5 0 0 0-2.5-2.5Zm-1.41 8a1.5 1.5 0 0 0 2.82 0H19.1Z"/></svg>