<svg width="48" height="48" viewBox="0 0 48 48" xmlns="http://www.w3.org/2000/svg"><path d="M7.5 10.5a4 4 0 00-1.31.22A6.25 6.25 0 0112.25 6h23.5C39.2 6 42 8.8 42 12.25v11.8c-.78-.5-1.62-.92-2.5-1.25V12.25a3.75 3.75 0 00-3.75-3.75h-23.5c-1.53 0-2.84.91-3.43 2.22a4 4 0 00-1.32-.22zm15.3 29c.33.88.74 1.72 1.24 2.5H12.25A6.25 6.25 0 016 35.75V18.21a3.99 3.99 0 002.5.16v17.38a3.75 3.75 0 003.75 3.75H22.8zm.94-11c.52-.9 1.16-1.75 1.88-2.5h-8.37a1.25 1.25 0 100 2.5h6.49zM7.5 12A2.49 2.49 0 005 14.5 2.5 2.5 0 107.5 12zm9.75 7a1.25 1.25 0 100 2.5h13.5a1.25 1.25 0 100-2.5h-13.5zM46 35a11 11 0 11-22 0 11 11 0 0122 0zm-11-7a5 5 0 00-5 5v3.38l-.95 1.9a.5.5 0 00.45.72h11a.5.5 0 00.45-.72l-.95-1.9V33a5 5 0 00-5-5zm-2 12a2 2 0 104 0h-4z"/></svg>