<svg width="24" height="24" viewBox="0 0 24 24" xmlns="http://www.w3.org/2000/svg"><path d="M3.49 15.65a.75.75 0 00-1.49 0V19.43A2.75 2.75 0 004.58 22h3.77a.75.75 0 000-1.5H4.62a1.25 1.25 0 01-1.12-1.12v-3.63l-.01-.1zm18.5 0a.75.75 0 00-1.5.1v3.63c-.06.63-.6 1.12-1.24 1.12h-3.6a.75.75 0 00.1 1.5h3.66A2.75 2.75 0 0022 19.25v-3.5l-.01-.1zm-13-12.9A.75.75 0 008.26 2H4.58A2.75 2.75 0 002 4.76v3.6a.75.75 0 001.5-.1V4.62C3.57 4 4.1 3.5 4.75 3.5h3.6A.75.75 0 009 2.74zm10.42-.74L19.25 2h-3.6a.75.75 0 000 1.5h3.72c.6.07 1.06.53 1.12 1.12v3.63l.01.1a.75.75 0 001.49 0V4.58A2.75 2.75 0 0019.41 2zM8.5 13.5a3.5 3.5 0 117 0 3.5 3.5 0 01-7 0zm-2.29-1.76v.02a.75.75 0 01-.97.44c-.6-.22-.44-.97-.44-.97v-.02a2.5 2.5 0 01.1-.2A7.57 7.57 0 0112 6.75a7.73 7.73 0 016.84 3.75 6.3 6.3 0 01.35.71v.02h.01a.75.75 0 01-1.4.53l-.01-.02-.04-.1-.21-.39a6.07 6.07 0 00-5.54-3 6.24 6.24 0 00-5.54 3 4.78 4.78 0 00-.25.5z"/></svg>