<svg width="16" height="16" viewBox="0 0 16 16" xmlns="http://www.w3.org/2000/svg"><path d="M4 2a2 2 0 0 0-2 2v1.5a.5.5 0 0 0 1 0V4a1 1 0 0 1 1-1h1.5a.5.5 0 0 0 0-1H4Zm0 12a2 2 0 0 1-2-2v-1.5a.5.5 0 0 1 1 0V12a1 1 0 0 0 1 1h1.5a.5.5 0 0 1 0 1H4ZM14 4a2 2 0 0 0-2-2h-1.5a.5.5 0 0 0 0 1H12a1 1 0 0 1 1 1v1.5a.5.5 0 0 0 1 0V4Zm-2 10a2 2 0 0 0 2-2v-1.5a.5.5 0 0 0-1 0V12a1 1 0 0 1-1 1h-1.5a.5.5 0 0 0 0 1H12ZM5.5 9a2.5 2.5 0 1 1 5 0 2.5 2.5 0 0 1-5 0ZM8 7.5a1.5 1.5 0 1 0 0 3 1.5 1.5 0 0 0 0-3Zm-4.69.46a.5.5 0 0 0 .65-.27v-.01L4 7.62c.02-.06.07-.14.13-.24.13-.2.34-.48.64-.76A4.6 4.6 0 0 1 8 5.5a4.6 4.6 0 0 1 3.23 1.12 3.73 3.73 0 0 1 .8 1.06s.25.45.66.28a.5.5 0 0 0 .27-.65c-.1-.22 0 0 0 0V7.3a1.8 1.8 0 0 0-.06-.13c-.04-.08-.1-.2-.19-.33a4.73 4.73 0 0 0-.81-.96A5.6 5.6 0 0 0 8 4.5a5.6 5.6 0 0 0-3.9 1.38A4.73 4.73 0 0 0 3.04 7.3v.01a.5.5 0 0 0 .27.65Z"/></svg>