<svg width="20" height="20" viewBox="0 0 20 20" xmlns="http://www.w3.org/2000/svg"><path d="M3 5.5a1 1 0 1 0 0-2 1 1 0 0 0 0 2Zm3-1c0-.28.22-.5.5-.5h11a.5.5 0 0 1 0 1h-11a.5.5 0 0 1-.5-.5Zm0 5c0-.28.22-.5.5-.5h11a.5.5 0 0 1 0 1h-11a.5.5 0 0 1-.5-.5Zm4.02 5.5c.03-.34.1-.68.19-1H6.5a.5.5 0 0 0 0 1h3.52ZM4 14.5a1 1 0 1 1-2 0 1 1 0 0 1 2 0Zm-1-4a1 1 0 1 0 0-2 1 1 0 0 0 0 2Zm17 5a4.5 4.5 0 1 1-9 0 4.5 4.5 0 0 1 9 0Zm-3.8 0 1.15-1.15a.5.5 0 0 0-.7-.7l-1.15 1.14-1.15-1.14a.5.5 0 0 0-.7.7l1.14 1.15-1.14 1.15a.5.5 0 0 0 .7.7l1.15-1.14 1.15 1.14a.5.5 0 0 0 .7-.7l-1.14-1.15Z"/></svg>