<svg width="20" height="20" viewBox="0 0 20 20" xmlns="http://www.w3.org/2000/svg"><path d="M2 6.5A2.5 2.5 0 0 1 4.5 4h11A2.5 2.5 0 0 1 18 6.5v7a2.5 2.5 0 0 1-2.5 2.5h-11A2.5 2.5 0 0 1 2 13.5v-7ZM4.5 5C3.67 5 3 5.67 3 6.5v7c0 .83.67 1.5 1.5 1.5h11c.83 0 1.5-.67 1.5-1.5v-7c0-.83-.67-1.5-1.5-1.5h-11ZM15 6.5a.5.5 0 0 1 1 0v1a.5.5 0 0 1-1 0v-1Zm.5 5.5a.5.5 0 0 0-.5.5v1a.5.5 0 0 0 1 0v-1a.5.5 0 0 0-.5-.5ZM15 9.5a.5.5 0 0 1 1 0v1a.5.5 0 0 1-1 0v-1ZM4.5 6a.5.5 0 0 0-.5.5v1a.5.5 0 0 0 1 0v-1a.5.5 0 0 0-.5-.5ZM4 12.5a.5.5 0 0 1 1 0v1a.5.5 0 0 1-1 0v-1ZM4.5 9a.5.5 0 0 0-.5.5v1a.5.5 0 0 0 1 0v-1a.5.5 0 0 0-.5-.5Z"/></svg>