<svg width="48" height="48" viewBox="0 0 48 48" xmlns="http://www.w3.org/2000/svg"><path d="M10.25 8A6.25 6.25 0 0 0 4 14.25v19.5C4 37.2 6.8 40 10.25 40h27.5C41.2 40 44 37.2 44 33.75v-19.5C44 10.8 41.2 8 37.75 8h-27.5ZM10 15.5a1.5 1.5 0 0 1 3 0v1a1.5 1.5 0 0 1-3 0v-1ZM36.5 14c.83 0 1.5.67 1.5 1.5v1a1.5 1.5 0 0 1-3 0v-1c0-.83.67-1.5 1.5-1.5ZM10 23.5a1.5 1.5 0 0 1 3 0v1a1.5 1.5 0 0 1-3 0v-1ZM36.5 22c.83 0 1.5.67 1.5 1.5v1a1.5 1.5 0 0 1-3 0v-1c0-.83.67-1.5 1.5-1.5ZM10 31.5a1.5 1.5 0 0 1 3 0v1a1.5 1.5 0 0 1-3 0v-1ZM36.5 30c.83 0 1.5.67 1.5 1.5v1a1.5 1.5 0 0 1-3 0v-1c0-.83.67-1.5 1.5-1.5Z"/></svg>