<svg width="48" height="48" viewBox="0 0 48 48" xmlns="http://www.w3.org/2000/svg"><path d="M10 15.5a1.5 1.5 0 0 1 3 0v1a1.5 1.5 0 0 1-3 0v-1ZM36.5 14c-.83 0-1.5.67-1.5 1.5v1a1.5 1.5 0 0 0 3 0v-1c0-.83-.67-1.5-1.5-1.5ZM10 23.5a1.5 1.5 0 0 1 3 0v1a1.5 1.5 0 0 1-3 0v-1ZM36.5 22c-.83 0-1.5.67-1.5 1.5v1a1.5 1.5 0 0 0 3 0v-1c0-.83-.67-1.5-1.5-1.5ZM10 31.5a1.5 1.5 0 0 1 3 0v1a1.5 1.5 0 0 1-3 0v-1ZM36.5 30c-.83 0-1.5.67-1.5 1.5v1a1.5 1.5 0 0 0 3 0v-1c0-.83-.67-1.5-1.5-1.5ZM4 14.25C4 10.8 6.8 8 10.25 8h27.5C41.2 8 44 10.8 44 14.25v19.5C44 37.2 41.2 40 37.75 40h-27.5A6.25 6.25 0 0 1 4 33.75v-19.5Zm6.25-3.75a3.75 3.75 0 0 0-3.75 3.75v19.5a3.75 3.75 0 0 0 3.75 3.75h27.5a3.75 3.75 0 0 0 3.75-3.75v-19.5a3.75 3.75 0 0 0-3.75-3.75h-27.5Z"/></svg>