<svg width="24" height="24" viewBox="0 0 24 24" xmlns="http://www.w3.org/2000/svg"><path d="M12 2c.41 0 .75.34.75.75v.5a.75.75 0 0 1-1.5 0v-.5c0-.41.34-.75.75-.75ZM8 9a4 4 0 1 1 8 0 4 4 0 0 1-8 0Zm4.75 5.75a.75.75 0 0 0-1.5 0v.5a.75.75 0 0 0 1.5 0v-.5ZM5.75 8a.75.75 0 0 0 0 1.5h.5a.75.75 0 0 0 0-1.5h-.5ZM17 8.75c0-.41.34-.75.75-.75h.5a.75.75 0 0 1 0 1.5h-.5a.75.75 0 0 1-.75-.75ZM6.72 5.78a.75.75 0 0 0 1.06-1.06l-.5-.5a.75.75 0 0 0-1.06 1.06l.5.5Zm1.06 6.44a.75.75 0 0 0-1.06 0l-.5.5a.75.75 0 1 0 1.06 1.06l.5-.5c.3-.3.3-.77 0-1.06Zm9.5-6.44a.75.75 0 1 1-1.06-1.06l.5-.5a.75.75 0 1 1 1.06 1.06l-.5.5Zm-1.06 6.44c.3-.3.77-.3 1.06 0l.5.5a.75.75 0 1 1-1.06 1.06l-.5-.5a.75.75 0 0 1 0-1.06Zm-13 9.62c-.33.25-.8.2-1.06-.12-.4-.51.12-1.06.12-1.06h.02a3.49 3.49 0 0 1 .18-.15l.54-.36A16.78 16.78 0 0 1 12 17.5a16.78 16.78 0 0 1 9.7 3.15l.01.01a.75.75 0 0 1-.93 1.18l-.03-.03a5.63 5.63 0 0 0-.58-.4A15.28 15.28 0 0 0 12 19a15.28 15.28 0 0 0-8.75 2.81l-.03.02Z"/></svg>