<svg width="48" height="48" viewBox="0 0 48 48" xmlns="http://www.w3.org/2000/svg"><path d="M24 4c.7 0 1.25.56 1.25 1.25v1.5a1.25 1.25 0 1 1-2.5 0v-1.5c0-.69.56-1.25 1.25-1.25Zm0 6a8 8 0 1 0 0 16 8 8 0 0 0 0-16Zm-5.5 8a5.5 5.5 0 1 1 11 0 5.5 5.5 0 0 1-11 0Zm6.75 11.25a1.25 1.25 0 1 0-2.5 0v1.5a1.25 1.25 0 0 0 2.5 0v-1.5ZM11.25 16a1.25 1.25 0 0 0 0 2.5h1.5a1.25 1.25 0 1 0 0-2.5h-1.5ZM34 17.25c0-.69.56-1.25 1.25-1.25h1.5a1.25 1.25 0 1 1 0 2.5h-1.5c-.69 0-1.25-.56-1.25-1.25Zm-20.13-5.62a1.25 1.25 0 0 0 1.76-1.76l-1.5-1.5a1.25 1.25 0 1 0-1.76 1.76l1.5 1.5Zm1.76 12.74a1.25 1.25 0 0 0-1.76 0l-1.5 1.5a1.25 1.25 0 1 0 1.76 1.76l1.5-1.5c.5-.48.5-1.28 0-1.76Zm18.5-12.74a1.25 1.25 0 0 1-1.76-1.76l1.5-1.5a1.25 1.25 0 1 1 1.76 1.76l-1.5 1.5Zm-1.76 12.74a1.25 1.25 0 0 1 1.76 0l1.5 1.5a1.25 1.25 0 1 1-1.76 1.76l-1.5-1.5a1.25 1.25 0 0 1 0-1.76ZM6.05 43.7c-.53.44-1.32.37-1.76-.16-.34-.41-.27-1.4.16-1.76h.01l.02-.03a7.9 7.9 0 0 1 .35-.27 30.2 30.2 0 0 1 4.93-2.88A33.9 33.9 0 0 1 24 35.5c6 0 10.87 1.56 14.23 3.12a30.19 30.19 0 0 1 5.21 3.08l.08.06.03.03s.84.88.16 1.76c-.44.53-1.23.6-1.76.16h-.01a4.17 4.17 0 0 0-.27-.22 27.69 27.69 0 0 0-4.48-2.6A31.4 31.4 0 0 0 24 38a31.4 31.4 0 0 0-13.18 2.88 27.7 27.7 0 0 0-4.76 2.82l-.01.01Z"/></svg>