<svg width="20" height="20" viewBox="0 0 20 20" xmlns="http://www.w3.org/2000/svg"><path d="M9.5 3.5v-1a.5.5 0 0 1 1 0v1a.5.5 0 0 1-1 0ZM7 8a3 3 0 1 1 6 0 3 3 0 0 1-6 0Zm2.5 4.5v1a.5.5 0 0 0 1 0v-1a.5.5 0 0 0-1 0ZM4.5 8a.5.5 0 0 0 0 1h1a.5.5 0 0 0 0-1h-1Zm11 1h-1a.5.5 0 0 1 0-1h1a.5.5 0 0 1 0 1ZM6.15 5.85a.5.5 0 1 0 .7-.7l-1-1a.5.5 0 1 0-.7.7l1 1Zm.7 5.3a.5.5 0 0 0-.7 0l-1 1a.5.5 0 1 0 .7.7l1-1a.5.5 0 0 0 0-.7Zm7-5.3a.5.5 0 0 1-.7-.7l1-1a.5.5 0 0 1 .7.7l-1 1Zm-.7 5.3c.2-.2.5-.2.7 0l1 1a.5.5 0 0 1-.7.7l-1-1a.5.5 0 0 1 0-.7Zm-7.02 5.3C7.18 16.2 8.46 16 10 16c1.67 0 3.05.23 4.13.53a11.17 11.17 0 0 1 3.02 1.33l.03.03a.5.5 0 0 0 .63-.78l-.02-.02-.04-.03a4.8 4.8 0 0 0-.82-.5c-.57-.31-1.42-.7-2.53-1A16.57 16.57 0 0 0 10 15c-1.62 0-3 .2-4.11.49a12.46 12.46 0 0 0-3.45 1.44 4.84 4.84 0 0 0-.23.16l-.01.01h-.01v.01a.5.5 0 0 0 .62.78 1.6 1.6 0 0 1 .19-.13 11.45 11.45 0 0 1 3.14-1.3Z"/></svg>