<svg width="20" height="20" viewBox="0 0 20 20" xmlns="http://www.w3.org/2000/svg"><path d="M10.5 9.5a.5.5 0 0 0-1 0V11c0 .28.22.5.5.5h1.5a.5.5 0 0 0 0-1h-1v-1ZM10 15a4 4 0 1 0 0-8 4 4 0 0 0 0 8Zm0-1a3 3 0 1 1 0-6 3 3 0 0 1 0 6ZM7.09 3c.2-.58.76-1 1.41-1h3c.65 0 1.2.42 1.41 1h1.59c.83 0 1.5.67 1.5 1.5v12c0 .83-.67 1.5-1.5 1.5h-9A1.5 1.5 0 0 1 4 16.5v-12C4 3.67 4.67 3 5.5 3h1.59ZM8.5 3a.5.5 0 0 0 0 1h3a.5.5 0 0 0 0-1h-3ZM7.09 4H5.5a.5.5 0 0 0-.5.5v12c0 .28.22.5.5.5h9a.5.5 0 0 0 .5-.5v-12a.5.5 0 0 0-.5-.5h-1.59c-.2.58-.76 1-1.41 1h-3a1.5 1.5 0 0 1-1.41-1Z"/></svg>