<svg width="20" height="20" viewBox="0 0 20 20" xmlns="http://www.w3.org/2000/svg"><path d="M19 6.5a5.5 5.5 0 1 1-11 0 5.5 5.5 0 0 1 11 0ZM10.5 6a.5.5 0 0 0 0 1h4.8l-1.65 1.65a.5.5 0 0 0 .7.7l2.5-2.5a.5.5 0 0 0 0-.7l-2.5-2.5a.5.5 0 0 0-.7.7L15.29 6H10.5Zm6.5 6.28v-.3c.36-.23.7-.5 1-.79v1.09a2.58 2.58 0 0 1-2.6 2.56h-4.59L6.8 17.8a1 1 0 0 1-1.4-.2.98.98 0 0 1-.2-.59v-2.17h-.6A2.58 2.58 0 0 1 2 12.28V5.57A2.58 2.58 0 0 1 4.6 3h3.42c-.2.32-.38.65-.52 1H4.6C3.7 4 3 4.71 3 5.57v6.7c0 .86.7 1.57 1.6 1.57h1.6V17l4.28-3.16h4.92c.9 0 1.6-.71 1.6-1.56Z"/></svg>