<svg width="20" height="20" viewBox="0 0 20 20" xmlns="http://www.w3.org/2000/svg"><path d="M10 2a8 8 0 0 1 8 8.33A3 3 0 0 0 12.5 12v.06A2 2 0 0 0 11 14v3.94A8 8 0 1 1 10 2Zm3.36 5.65a.5.5 0 0 0-.64-.06l-.07.06L9 11.3 7.35 9.65l-.07-.06a.5.5 0 0 0-.7.7l.07.07 2 2 .07.06c.17.11.4.11.56 0l.07-.06 4-4 .07-.08a.5.5 0 0 0-.06-.63ZM15.5 10a2 2 0 0 1 2 2v1h.5a1 1 0 0 1 1 1v4a1 1 0 0 1-1 1h-5a1 1 0 0 1-1-1v-4a1 1 0 0 1 1-1h.5v-1c0-1.1.9-2 2-2Zm-.65 6.37a.75.75 0 1 0 1.3-.74.75.75 0 0 0-1.3.74ZM15.5 11a1 1 0 0 0-1 1v1h2v-1a1 1 0 0 0-1-1Z"/></svg>