<svg width="20" height="20" viewBox="0 0 20 20" xmlns="http://www.w3.org/2000/svg"><path d="M10 2a8 8 0 0 1 8 8.33 3.02 3.02 0 0 0-1.03-.94A7 7 0 1 0 11 16.93v1A8 8 0 1 1 10 2Zm6.97 8.64A2 2 0 0 1 17.5 12v1h.5a1 1 0 0 1 1 1v4a1 1 0 0 1-1 1h-5a1 1 0 0 1-1-1v-4a1 1 0 0 1 1-1h.5v-1a2 2 0 0 1 3.47-1.36ZM14.5 13h2v-1a1 1 0 1 0-2 0v1Zm.35 3.37a.75.75 0 1 0 1.3-.74.75.75 0 0 0-1.3.74Zm-1.5-8.72c.18.17.2.44.07.63l-.06.07-4 4a.5.5 0 0 1-.64.07l-.07-.06-2-2a.5.5 0 0 1 .63-.77l.07.06L9 11.3l3.65-3.65c.2-.2.51-.2.7 0Z"/></svg>