<svg width="24" height="24" viewBox="0 0 24 24" xmlns="http://www.w3.org/2000/svg"><path d="M16.67 9.1a6.5 6.5 0 1 1-5.17 11.52v.63c0 .38-.29.7-.65.74l-.1.01a.75.75 0 0 1-.75-.65v-2.6c0-.38.28-.7.64-.74h2.61a.75.75 0 0 1 .1 1.48l-.1.01h-.74a4.98 4.98 0 0 0 8-4 5 5 0 0 0-3.6-4.8l-.24-1.6ZM14.5 3a2.5 2.5 0 0 1 .97 4.8l.82 5.32A2.5 2.5 0 1 1 13.5 17H6.5a2.5 2.5 0 1 1-2.78-3.88l.82-5.3A2.5 2.5 0 1 1 7.5 4h4.99c.46-.6 1.18-1 2-1ZM4.5 14.5h-.12a1 1 0 0 0 0 2h.12a1 1 0 0 0 1-.88v-.24a1 1 0 0 0-.52-.76l-.11-.05-.13-.04-.08-.02-.16-.01Zm10.7.05-.06.02-.06.03-.1.05a1 1 0 0 0 .4 1.84l.12.01a1 1 0 0 0 .12-2h-.12l-.16.01-.15.04ZM11.98 5.5H8c0 1.2-.84 2.2-1.96 2.45l-.8 5.16A2.5 2.5 0 0 1 7 15.31l.01.19h6a2.5 2.5 0 0 1 1.76-2.39l-.8-5.16A2.5 2.5 0 0 1 12 5.67V5.5Zm1.77.7.03.02.12.1.08.05.1.05.1.04.1.02.07.02h.25l.17-.04.12-.05.09-.04.1-.06.1-.1.08-.08a1 1 0 0 0-.3-1.5l-.1-.05-.15-.05-.08-.01a.99.99 0 0 0-.15-.02l-.12.01a1 1 0 0 0-.6 1.69ZM4.5 5.5a1 1 0 0 0 .22.63l.07.07a1 1 0 0 0 .19.16l.1.05.1.04.09.03.1.02h.13a1 1 0 0 0 .17-.01l.07-.02.11-.03.06-.02.15-.09.08-.06.06-.05.08-.1.06-.08a1 1 0 0 0 .15-.42l.01-.12v-.12l-.03-.1-.01-.07a1 1 0 0 0-.84-.7H5.5a1 1 0 0 0-.17 0l-.08.02-.09.03-.05.02-.1.05a1 1 0 0 0-.51.87Z"/></svg>