<svg width="20" height="20" viewBox="0 0 20 20" xmlns="http://www.w3.org/2000/svg"><path d="M5.5 2C4.67 2 4 2.67 4 3.5v13c0 .83.67 1.5 1.5 1.5h4.76a5.5 5.5 0 01-.66-1H5.5a.5.5 0 01-.5-.5v-13c0-.28.22-.5.5-.5h7c.28 0 .5.22.5.5v5.7c.32-.08.66-.15 1-.18V3.5c0-.83-.67-1.5-1.5-1.5h-7zM9 14.5c0-.17 0-.34.02-.5H7.5a.5.5 0 000 1h1.52a5.57 5.57 0 01-.02-.5zm10 0a4.5 4.5 0 11-9 0 4.5 4.5 0 019 0zm-2.65-1.15a.5.5 0 00-.7-.7l-1.15 1.14-1.15-1.14a.5.5 0 00-.7.7l1.14 1.15-1.14 1.15a.5.5 0 00.7.7l1.15-1.14 1.15 1.14a.5.5 0 00.7-.7l-1.14-1.15 1.14-1.15z"/></svg>