<svg width="24" height="24" viewBox="0 0 24 24" xmlns="http://www.w3.org/2000/svg"><path d="M2 6a3 3 0 0 1 3-3h1.5a1 1 0 0 1 0 2H5a1 1 0 0 0-1 1v1.5a1 1 0 0 1-2 0V6Zm14.5-2a1 1 0 0 1 1-1H19a3 3 0 0 1 3 3v1.5a1 1 0 1 1-2 0V6a1 1 0 0 0-1-1h-1.5a1 1 0 0 1-1-1ZM3 15.5a1 1 0 0 1 1 1V18a1 1 0 0 0 1 1h1.5a1 1 0 1 1 0 2H5a3 3 0 0 1-3-3v-1.5a1 1 0 0 1 1-1Zm18 0a1 1 0 0 1 1 1V18a3 3 0 0 1-3 3h-1.5a1 1 0 1 1 0-2H19a1 1 0 0 0 1-1v-1.5a1 1 0 0 1 1-1ZM6 6.75a1 1 0 0 1 1 1v8.5a1 1 0 1 1-2 0v-8.5a1 1 0 0 1 1-1Zm5 1a1 1 0 1 0-2 0v8.5a1 1 0 1 0 2 0v-8.5Zm3-1a1 1 0 0 1 1 1v8.5a1 1 0 1 1-2 0v-8.5a1 1 0 0 1 1-1Zm5 1a1 1 0 1 0-2 0v8.5a1 1 0 1 0 2 0v-8.5Z"/></svg>