<svg width="20" height="20" viewBox="0 0 20 20" xmlns="http://www.w3.org/2000/svg"><path d="M3 4.25C3 3.01 4 2 5.25 2h3c.41 0 .75.34.75.75v5.5a.75.75 0 01-1.5 0V6.5H5.75a1 1 0 00-.68.22 1.4 1.4 0 00-.37.56 2.9 2.9 0 00-.2.96v.01a.75.75 0 01-1.5 0V8.2a3.34 3.34 0 01.04-.44c.03-.27.1-.65.26-1.04.1-.26.25-.53.46-.79A2.24 2.24 0 013 4.25zM7.5 5V3.5H5.25a.75.75 0 000 1.5H7.5zm-.8 5.5a.75.75 0 00-1.4 0L3.03 17a.75.75 0 101.42.5l.34-1h2.4l.34 1a.75.75 0 101.42-.5L6.7 10.5zM6 13.04L6.68 15H5.32L6 13.04zM14.25 2c.41 0 .75.34.75.75v12.57l1.45-1.58a.75.75 0 011.1 1.02l-2.75 3a.75.75 0 01-1.1 0l-2.75-3a.75.75 0 011.1-1.02l1.45 1.58V2.75c0-.41.34-.75.75-.75z"/></svg>