<svg width="20" height="20" viewBox="0 0 20 20" xmlns="http://www.w3.org/2000/svg"><path d="M11.59 2.61a.5.5 0 0 0-.59.55c.4 3.58-.5 6.1-1.85 7.75a6.94 6.94 0 0 1-4.69 2.6.5.5 0 0 0-.37.78 7.96 7.96 0 0 0 6.4 3.21A7.5 7.5 0 0 0 18 10c0-3.72-2.9-6.78-6.4-7.39Zm-1.66 8.93c1.43-1.77 2.36-4.34 2.13-7.8A6.65 6.65 0 0 1 17 10a6.5 6.5 0 0 1-6.5 6.5 7.1 7.1 0 0 1-5.06-2.14 8.1 8.1 0 0 0 4.49-2.82ZM3.5 10C4.33 10 5 9.33 5 8.5V4.89l3-.75v1.94A1.5 1.5 0 1 0 9 7.5v-4a.5.5 0 0 0-.62-.49l-4 1A.5.5 0 0 0 4 4.5v2.58A1.5 1.5 0 1 0 3.5 10Z"/></svg>