<svg width="20" height="20" viewBox="0 0 20 20" xmlns="http://www.w3.org/2000/svg"><path d="M3 10a7 7 0 1114 0 7 7 0 01-14 0zm7-8a8 8 0 100 16 8 8 0 000-16zM7.43 7.38a.5.5 0 00.7-.06.98.98 0 01.11-.11c.09-.08.21-.18.38-.29.33-.21.8-.42 1.38-.42 1.02 0 1.75.73 1.75 1.5S11.02 9.5 10 9.5h-.5a.5.5 0 000 1h.5c1.02 0 1.75.73 1.75 1.5s-.73 1.5-1.75 1.5a2.53 2.53 0 01-1.87-.82.5.5 0 00-.76.64v.01l.02.01a1.85 1.85 0 00.17.18 3.53 3.53 0 002.44.98c1.46 0 2.75-1.07 2.75-2.5a2.4 2.4 0 00-1.1-2 2.4 2.4 0 001.1-2c0-1.43-1.29-2.5-2.75-2.5a3.53 3.53 0 00-2.61 1.16l-.02.01a.5.5 0 00.06.71z"/></svg>