<svg width="20" height="20" viewBox="0 0 20 20" xmlns="http://www.w3.org/2000/svg"><path d="M10 2a8 8 0 100 16 8 8 0 000-16zm-1 8c0-.28.22-.5.5-.5h.5c1.02 0 1.75-.73 1.75-1.5S11.02 6.5 10 6.5a2.53 2.53 0 00-1.87.82.5.5 0 01-.76-.64v-.01l.02-.01a2 2 0 01.17-.18A3.53 3.53 0 0110 5.5c1.46 0 2.75 1.07 2.75 2.5a2.4 2.4 0 01-1.1 2 2.4 2.4 0 011.1 2c0 1.43-1.29 2.5-2.75 2.5a3.53 3.53 0 01-2.61-1.16l-.02-.01a.5.5 0 01.76-.65l.02.02.1.09a2.53 2.53 0 001.76.71c1.01 0 1.74-.73 1.74-1.5s-.73-1.5-1.75-1.5h-.5A.5.5 0 019 10z"/></svg>