<svg width="32" height="32" viewBox="0 0 32 32" xmlns="http://www.w3.org/2000/svg"><path d="M16 2a14 14 0 100 28 14 14 0 000-28zm-1.69 14a1 1 0 011-1h.94c1.58 0 2.75-1.18 2.75-2.5S17.83 10 16.25 10c-.92 0-1.66.34-2.2.7a4.48 4.48 0 00-.77.68 1 1 0 01-1.56-1.26l.01-.01.02-.03a3.44 3.44 0 01.3-.32c.21-.2.5-.45.88-.71A5.89 5.89 0 0116.25 8C18.8 8 21 9.95 21 12.5c0 1.44-.7 2.69-1.77 3.5A4.38 4.38 0 0121 19.5c0 2.55-2.2 4.5-4.75 4.5a5.89 5.89 0 01-4.2-1.76 5.18 5.18 0 01-.3-.32l-.02-.03v-.01c-.01 0 0 0 0 0a1 1 0 011.55-1.26l.03.04.14.15c.14.13.34.3.6.49.54.36 1.28.7 2.2.7 1.58 0 2.75-1.18 2.75-2.5S17.83 17 16.25 17h-.94a1 1 0 01-1-1z"/></svg>