<svg width="16" height="16" viewBox="0 0 16 16" xmlns="http://www.w3.org/2000/svg"><path d="M2 8a6 6 0 1112 0A6 6 0 012 8zm3.92-1.87c.2.18.52.16.7-.05a.65.65 0 01.08-.07A2.03 2.03 0 018 5.5c.77 0 1.25.52 1.25 1s-.48 1-1.25 1h-.5a.5.5 0 100 1H8c.77 0 1.25.52 1.25 1s-.48 1-1.25 1a1.92 1.92 0 01-1.37-.57v-.01a.5.5 0 00-.76.66h.01l.01.02a1.5 1.5 0 00.15.14A3.03 3.03 0 008 11.5c1.17 0 2.25-.83 2.25-2 0-.62-.3-1.14-.76-1.5.46-.36.76-.88.76-1.5 0-1.17-1.08-2-2.25-2a2.92 2.92 0 00-2.11.9l-.01.01v.01a.5.5 0 00.04.7zm.7-.05zm0 3.84z"/></svg>