<svg width="48" height="48" viewBox="0 0 48 48" xmlns="http://www.w3.org/2000/svg"><path d="M24 44a20 20 0 100-40 20 20 0 000 40zm-2-20c0-.69.56-1.25 1.25-1.25h1.25c2.3 0 4-1.7 4-3.63 0-1.91-1.7-3.62-4-3.62-1.32 0-2.4.49-3.16 1a6.43 6.43 0 00-1.12.98 1.25 1.25 0 01-1.94-1.58l.01-.02.02-.01.01-.02a4.86 4.86 0 01.42-.44A8.12 8.12 0 0124.5 13c3.5-.01 6.5 2.65 6.5 6.12A5.97 5.97 0 0128.43 24 5.97 5.97 0 0131 28.88c0 3.46-3 6.12-6.5 6.12a8.12 8.12 0 01-4.56-1.43 8.92 8.92 0 01-1.65-1.45v-.01l-.01-.01a1.25 1.25 0 011.94-1.58l.05.06.2.22c.2.18.5.44.87.7.77.51 1.84 1 3.16 1 2.3 0 4-1.7 4-3.63 0-1.91-1.7-3.62-4-3.62h-1.25c-.69 0-1.25-.56-1.25-1.25zm-3.7-8.12v-.01l.02-.02"/></svg>