<svg width="28" height="28" viewBox="0 0 28 28" xmlns="http://www.w3.org/2000/svg"><path d="M3.5 14a10.5 10.5 0 1121 0 10.5 10.5 0 01-21 0zM14 2a12 12 0 100 24 12 12 0 000-24zm-3.47 7.9c.32.26.79.2 1.05-.11a1.56 1.56 0 01.17-.18c.13-.12.32-.29.57-.46.5-.33 1.2-.65 2.05-.65 1.51 0 2.63 1.12 2.63 2.38 0 1.25-1.12 2.37-2.63 2.37h-1.12a.75.75 0 000 1.5h1.12c1.51 0 2.63 1.12 2.63 2.38 0 1.25-1.12 2.37-2.63 2.37-.86 0-1.56-.32-2.05-.65a4.17 4.17 0 01-.74-.63.75.75 0 00-1.16.94v.01l.02.02a3.36 3.36 0 00.27.28A5.17 5.17 0 0014.37 21c2.23 0 4.13-1.68 4.13-3.88 0-1.3-.67-2.42-1.69-3.12a3.78 3.78 0 001.69-3.13C18.5 8.69 16.6 7 14.37 7a5.17 5.17 0 00-3.87 1.74l-.06.07-.01.02h-.01v.01c-.26.32-.21.8.1 1.06z"/></svg>