<svg width="48" height="48" viewBox="0 0 48 48" xmlns="http://www.w3.org/2000/svg"><path d="M24 6.5a17.5 17.5 0 100 35 17.5 17.5 0 000-35zM4 24a20 20 0 1140 0 20 20 0 01-40 0zm19.25-1.25a1.25 1.25 0 100 2.5h1.25c2.3 0 4 1.7 4 3.63 0 1.91-1.7 3.62-4 3.62-1.32 0-2.4-.49-3.16-1a6.43 6.43 0 01-1.12-.97 1.25 1.25 0 00-1.94 1.57l.01.02a2.12 2.12 0 00.12.14l.33.33A8.12 8.12 0 0024.5 35c3.5.01 6.5-2.65 6.5-6.12A5.97 5.97 0 0028.43 24 5.97 5.97 0 0031 19.12c0-3.46-3-6.12-6.5-6.12-1.96 0-3.51.73-4.56 1.43a8.92 8.92 0 00-1.62 1.42l-.01.02-.02.01v.01l-.01.01a1.25 1.25 0 001.94 1.58l.26-.28c.2-.18.48-.44.86-.7.77-.51 1.84-1 3.16-1 2.3 0 4 1.7 4 3.63 0 1.91-1.7 3.62-4 3.62h-1.25zm-4.96-6.87l.02-.01.01-.02"/></svg>