<svg width="24" height="24" viewBox="0 0 24 24" xmlns="http://www.w3.org/2000/svg"><path d="M8.48 3.53c-.69-.7-1.82-.7-2.5 0l-2.34 2.4C3.23 6.35 3 6.91 3 7.5v11.75c0 .97.78 1.75 1.75 1.75H8v-4.25c0-.41.34-.75.75-.75h2.5V7.29c0-.59-.23-1.15-.64-1.57L8.48 3.53zm4.27 3.76V16h2.5c.41 0 .75.34.75.75V21h3.25c.97 0 1.75-.78 1.75-1.75V7.5c0-.59-.23-1.15-.64-1.57l-2.33-2.4c-.69-.7-1.82-.7-2.51 0l-2.13 2.19c-.41.42-.64.98-.64 1.57zm0 10.21V21h1.75v-3.5h-1.75zm-1.5 3.5v-3.5H9.5V21h1.75zM8.12 9a1 1 0 11-2 0 1 1 0 012 0zm8.76 1a1 1 0 110-2 1 1 0 010 2zm-8.75 3a1 1 0 11-2 0 1 1 0 012 0zm8.74 1a1 1 0 110-2 1 1 0 010 2z"/></svg>