<svg width="20" height="20" viewBox="0 0 20 20" xmlns="http://www.w3.org/2000/svg"><path d="M6.1 3.24a1 1 0 011.3 0L9.97 5.4l.03.03.03-.03 2.57-2.17a1 1 0 011.3 0l2.57 2.17c.34.29.53.7.53 1.15v8.94c0 .83-.67 1.5-1.5 1.5h-11A1.5 1.5 0 013 15.5V6.56c0-.45.2-.86.53-1.15L6.1 3.24zM10.5 13h2c.28 0 .5.22.5.5V16h2.5a.5.5 0 00.5-.5V6.56a.5.5 0 00-.18-.39L13.25 4l-2.57 2.17a.5.5 0 00-.18.39V13zm-1 0V6.56a.5.5 0 00-.18-.39L6.75 4 4.18 6.17a.5.5 0 00-.18.39v8.94c0 .28.22.5.5.5H7v-2.5c0-.28.22-.5.5-.5h2zM8 16h1.5v-2H8v2zm2.5-2v2H12v-2h-1.5zM6.75 8.5a.75.75 0 100-1.5.75.75 0 000 1.5zm.75 2.25a.75.75 0 11-1.5 0 .75.75 0 011.5 0zm5.75-2.25a.75.75 0 100-1.5.75.75 0 000 1.5zm.75 2.25a.75.75 0 11-1.5 0 .75.75 0 011.5 0z"/></svg>