<svg width="20" height="20" viewBox="0 0 20 20" xmlns="http://www.w3.org/2000/svg"><path d="M6.96 3.3a1 1 0 0 0-1.42 0l-2.1 2.1A1.5 1.5 0 0 0 3 6.44v9.05c0 .83.67 1.5 1.5 1.5H7v-3.5c0-.28.22-.5.5-.5h2V6.45c0-.4-.16-.78-.44-1.06l-2.1-2.1Zm3.54 3.15V13h2c.28 0 .5.22.5.5V17h2.5c.83 0 1.5-.67 1.5-1.5V6.45c0-.4-.16-.78-.44-1.06l-2.1-2.1a1 1 0 0 0-1.42 0l-2.1 2.1a1.5 1.5 0 0 0-.44 1.06Zm0 7.55v3H12v-3h-1.5Zm-1 3v-3H8v3h1.5ZM7 7.75a.75.75 0 1 1-1.5 0 .75.75 0 0 1 1.5 0Zm-.75 3.75a.75.75 0 1 1 0-1.5.75.75 0 0 1 0 1.5Zm8.25-3.75a.75.75 0 1 1-1.5 0 .75.75 0 0 1 1.5 0Zm-.75 3.75a.75.75 0 1 1 0-1.5.75.75 0 0 1 0 1.5Z"/></svg>