<svg width="20" height="20" viewBox="0 0 20 20" xmlns="http://www.w3.org/2000/svg"><path d="M6.96 3.3a1 1 0 00-1.42 0l-2.1 2.1A1.5 1.5 0 003 6.44v9.05c0 .83.67 1.5 1.5 1.5H7v-3.5c0-.28.22-.5.5-.5h2V6.45c0-.4-.16-.78-.44-1.06l-2.1-2.1zm3.54 3.15V13h2c.28 0 .5.22.5.5V17h2.5c.83 0 1.5-.67 1.5-1.5V6.45c0-.4-.16-.78-.44-1.06l-2.1-2.1a1 1 0 00-1.42 0l-2.1 2.1a1.5 1.5 0 00-.44 1.06zm0 7.55v3H12v-3h-1.5zm-1 3v-3H8v3h1.5zM7 7.75a.75.75 0 11-1.5 0 .75.75 0 011.5 0zm-.75 3.75a.75.75 0 110-1.5.75.75 0 010 1.5zm8.25-3.75a.75.75 0 11-1.5 0 .75.75 0 011.5 0zm-.75 3.75a.75.75 0 110-1.5.75.75 0 010 1.5z"/></svg>