<svg width="20" height="20" viewBox="0 0 20 20" xmlns="http://www.w3.org/2000/svg"><path d="M6 6a4 4 0 118 0 4 4 0 01-8 0zm4-3a3 3 0 100 6 3 3 0 000-6zM3 13a2 2 0 012-2h6.43c-.16.31-.28.65-.36 1H5.01A1 1 0 004 13c0 1.3.62 2.28 1.67 2.95A8.16 8.16 0 0010 17c.41 0 .8-.02 1.2-.06.1.34.27.66.47.95-.54.07-1.1.11-1.67.11a9.14 9.14 0 01-4.87-1.2A4.35 4.35 0 013 13zm10-.25a1.75 1.75 0 013.11-1.1.5.5 0 00.78-.63A2.75 2.75 0 0012 12.75v3a2.75 2.75 0 101-2.12v-.88zm1.75 4.75a1.75 1.75 0 110-3.5 1.75 1.75 0 010 3.5z"/></svg>