<svg width="24" height="24" viewBox="0 0 24 24" xmlns="http://www.w3.org/2000/svg"><path d="M16.25 2c.38 0 .7.28.74.65l.01.1v.75h.75c1.24 0 2.25 1 2.25 2.25V16h-3.91A2.25 2.25 0 0 0 14 18.1V22H5.75c-1.24 0-2.25-1-2.25-2.25v-14c0-1.24 1-2.25 2.25-2.25h.75v-.75a.75.75 0 0 1 1.5-.1v.85h3v-.75a.75.75 0 0 1 1.5-.1v.85h3v-.75c0-.41.34-.75.75-.75Zm3.3 15.5-4.06 4.07v-3.32l.01-.1c.05-.33.31-.6.64-.64l.1-.01h3.32Zm-8.3-1.5h-4.1a.75.75 0 0 0 0 1.5H11.35a.75.75 0 0 0 0-1.5h-.1Zm5-4h-9.1a.75.75 0 0 0 0 1.5h9.2a.75.75 0 0 0 0-1.5h-.1Zm0-4h-9.1a.75.75 0 0 0 0 1.5h9.2a.75.75 0 0 0 0-1.5h-.1Z"/></svg>