<svg width="32" height="32" viewBox="0 0 32 32" xmlns="http://www.w3.org/2000/svg"><path d="M11 12a1 1 0 0 1 1-1h8a1 1 0 1 1 0 2h-8a1 1 0 0 1-1-1Zm1 4a1 1 0 1 0 0 2h8a1 1 0 1 0 0-2h-8Zm-1 6a1 1 0 0 1 1-1h3a1 1 0 1 1 0 2h-3a1 1 0 0 1-1-1Zm1-18a1 1 0 1 0-2 0v1H9a3 3 0 0 0-3 3v18a3 3 0 0 0 3 3h9.22a3 3 0 0 0 2.03-.79l4.78-4.38a3 3 0 0 0 .97-2.21V8a3 3 0 0 0-3-3h-1V4a1 1 0 1 0-2 0v1h-3V4a1 1 0 1 0-2 0v1h-3V4ZM9 7h14a1 1 0 0 1 1 1v13h-4a2.5 2.5 0 0 0-2.5 2.5V27H9a1 1 0 0 1-1-1V8a1 1 0 0 1 1-1Zm10.5 19.19V23.5c0-.28.22-.5.5-.5h2.97l-3.47 3.19Z"/></svg>