<svg width="20" height="20" viewBox="0 0 20 20" xmlns="http://www.w3.org/2000/svg"><path d="M17.84 8.12a9.47 9.47 0 0 0-15.6 0 .75.75 0 1 0 1.23.85 7.97 7.97 0 0 1 13.14 0 .75.75 0 1 0 1.23-.85ZM7.11 11.05a4.13 4.13 0 0 1 4.18-1.02c-.5.36-.94.8-1.3 1.31a2.62 2.62 0 0 0-2.36 1.58.75.75 0 1 1-1.38-.6c.21-.47.5-.9.86-1.27Zm7.48-2.39.33.36a5.58 5.58 0 0 0-1.97.2 4.94 4.94 0 0 0-7.32 1.76.75.75 0 1 1-1.34-.68 6.44 6.44 0 0 1 10.3-1.64Zm-2.52 2.78a2 2 0 0 1-1.43 2.48l-.46.12a4.7 4.7 0 0 0 0 1.01l.35.09A2 2 0 0 1 12 17.66l-.13.42c.26.2.54.38.84.52l.32-.35a2 2 0 0 1 2.91 0l.34.36c.3-.13.57-.3.82-.5l-.15-.55a2 2 0 0 1 1.43-2.48l.46-.12a4.7 4.7 0 0 0-.01-1.01l-.35-.09A2 2 0 0 1 17 11.34l.13-.42c-.26-.2-.54-.38-.84-.52l-.32.35a2 2 0 0 1-2.91 0l-.34-.36c-.29.13-.57.3-.82.5l.16.55Zm2.43 4.06a1 1 0 1 1 0-2 1 1 0 0 1 0 2Z"/></svg>