<svg width="16" height="16" viewBox="0 0 16 16" xmlns="http://www.w3.org/2000/svg"><path d="M12.25 2.5a.25.25 0 1 1 .5 0c0 .1-.02.17-.03.2a.36.36 0 0 1-.09.12 7.96 7.96 0 0 1-.35.26h-.01l-.2.13a2.76 2.76 0 0 0-1.32 2.29c0 .41.34.75.75.75h2a.75.75 0 0 0 0-1.5h-.93a1.98 1.98 0 0 1 .45-.37c.18-.1.46-.29.67-.5.33-.32.56-.77.56-1.38a1.75 1.75 0 1 0-3.5 0 .75.75 0 0 0 1.5 0Zm-2.01 1.21a3.5 3.5 0 0 0-.49 1.76L7.5 8l3.56 4a.75.75 0 0 1-1.12 1L6.5 9.13 3.06 13a.75.75 0 1 1-1.12-1L5.5 8 1.94 4a.75.75 0 1 1 1.12-1L6.5 6.87 9.85 3.1c.09.23.22.44.39.61Z"/></svg>