<svg width="20" height="20" viewBox="0 0 20 20" xmlns="http://www.w3.org/2000/svg"><path d="M10 2c2.82 0 4.41 1.92 4.65 4.25h.07a3.33 3.33 0 0 1 3.27 3.66A5.74 5.74 0 0 0 7.77 13H5.28A3.33 3.33 0 0 1 2 9.62a3.33 3.33 0 0 1 3.28-3.37h.07C5.6 3.9 7.18 2 10 2ZM9 13.5a4.5 4.5 0 1 0 9 0 4.5 4.5 0 0 0-9 0Zm6.5-3c.28 0 .5.22.5.5v1.5a.5.5 0 0 1-.5.5H14a.5.5 0 0 1 0-1h.47a1.97 1.97 0 0 0-.94-.25 2 2 0 0 0-1.44.59.5.5 0 0 1-.71-.71 3 3 0 0 1 3.62-.48V11c0-.28.22-.5.5-.5Zm-.88 5.53a3 3 0 0 1-2.62-.18V16a.5.5 0 0 1-1 0v-1.5c0-.28.22-.5.5-.5H13a.5.5 0 0 1 0 1h-.47a1.97 1.97 0 0 0 .94.25 2 2 0 0 0 1.44-.59.5.5 0 0 1 .71.71 3 3 0 0 1-1 .66Z"/></svg>