<svg width="24" height="24" viewBox="0 0 24 24" xmlns="http://www.w3.org/2000/svg"><path d="M6.08 8.02a6 6 0 0 1 11.84 0 4.5 4.5 0 0 1 4.05 4.97A6.5 6.5 0 0 0 10.02 17H6.5a4.5 4.5 0 0 1-.42-8.98ZM16.5 22a5.5 5.5 0 1 0 0-11 5.5 5.5 0 0 0 0 11Zm2-7a2.5 2.5 0 0 0-3.86-.17.5.5 0 0 1-.75-.66 3.5 3.5 0 0 1 5.11-.12v-.55a.5.5 0 0 1 1 0v2a.5.5 0 0 1-.5.5h-2a.5.5 0 0 1 0-1h1ZM13 17.5c0-.28.22-.5.5-.5h2a.5.5 0 0 1 0 1h-1a2.5 2.5 0 0 0 3.86.17.5.5 0 0 1 .75.66 3.5 3.5 0 0 1-5.11.12v.55a.5.5 0 0 1-1 0v-2Z"/></svg>