<svg width="28" height="28" viewBox="0 0 28 28" xmlns="http://www.w3.org/2000/svg"><path d="M14 4a6.5 6.5 0 0 0-6.48 6h-.27a4.75 4.75 0 1 0 0 9.5H13a7.5 7.5 0 0 1 12.41-5.67A4.75 4.75 0 0 0 20.75 10h-.27A6.5 6.5 0 0 0 14 4Zm0 15.5a6.5 6.5 0 1 0 13 0 6.5 6.5 0 0 0-13 0Zm5.35-4.08a4 4 0 0 1 4.65 1.9v-.82a.5.5 0 0 1 1 0v2a.5.5 0 0 1-.5.5h-2a.5.5 0 0 1 0-1h.73a3 3 0 0 0-4.85-.87.5.5 0 0 1-.7-.7 4 4 0 0 1 1.67-1.01Zm2.3 8.16a4 4 0 0 1-4.65-1.9v.82a.5.5 0 0 1-1 0v-2c0-.28.22-.5.5-.5h2a.5.5 0 0 1 0 1h-.73a3 3 0 0 0 4.85.87.5.5 0 0 1 .7.7 4 4 0 0 1-1.67 1.01Z"/></svg>