<svg width="48" height="48" viewBox="0 0 48 48" xmlns="http://www.w3.org/2000/svg"><path d="M24 6a11 11 0 0 0-10.96 10h-.29a7.75 7.75 0 0 0 0 15.5h7.34a13 13 0 0 1 22.86-6.87 7.75 7.75 0 0 0-7.7-8.63h-.3A11 11 0 0 0 24 6Zm-2 27a11 11 0 1 0 22 0 11 11 0 0 0-22 0Zm8.65-7.1A7 7 0 0 1 38 27.6V27a1 1 0 1 1 2 0v3a1 1 0 0 1-1 1h-3a1 1 0 1 1 0-2h.57a5 5 0 0 0-7.1-.04 1 1 0 0 1-1.42-1.41 7 7 0 0 1 2.6-1.64Zm4.7 14.2A7 7 0 0 1 28 38.4v.6a1 1 0 1 1-2 0v-3a1 1 0 0 1 1-1h3a1 1 0 1 1 0 2h-.57a5 5 0 0 0 7.1.04 1 1 0 0 1 1.42 1.41 7 7 0 0 1-2.6 1.64Z"/></svg>