<svg width="20" height="20" viewBox="0 0 20 20" xmlns="http://www.w3.org/2000/svg"><path d="M2 4a2 2 0 0 1 .28-1.02l-.13-.13a.5.5 0 1 1 .7-.7l15 15a.5.5 0 0 1-.7.7L14 14.71v2.79a.5.5 0 0 1-.85.35L11.29 16h-.79a.5.5 0 0 1-.5-.5v-2c0-.28.22-.5.5-.5h.8l.5-.5-8.77-8.76A1 1 0 0 0 3 4v9a1 1 0 0 0 1 1h5v1H8v2h2.88l1 1H5.5a.5.5 0 0 1 0-1H7v-2H4a2 2 0 0 1-2-2V4Zm16.5 10.5a7.4 7.4 0 0 1-.19 1.7l-.86-.87a6.95 6.95 0 0 0-.3-2.9c-.08-.24-.17-.41-.23-.52l-.07-.11a.5.5 0 0 1 .8-.6c.12.16.29.45.44.87.26.68.41 1.5.41 2.43Zm-2.28-1.53c.16.47.26.95.28 1.4l-1.3-1.29a3.95 3.95 0 0 0-.15-.36.5.5 0 1 1 .9-.44c.07.14.17.38.27.69ZM16 3H5.12l-1-1H16a2 2 0 0 1 2 2v6.2a1.5 1.5 0 0 0-1-.18V4a1 1 0 0 0-1-1Z"/></svg>