<svg width="24" height="24" viewBox="0 0 24 24" xmlns="http://www.w3.org/2000/svg"><path d="M19.1 1.67l-5.9 5.9c-.35.35-.6.78-.7 1.25l-.47 1.83c-.2.8.53 1.52 1.32 1.32l1.83-.46c.47-.12.9-.36 1.25-.7l5.9-5.9a2.29 2.29 0 00-3.23-3.24zM4.25 3h12.1l-1.5 1.5H4.26c-.38 0-.7.28-.74.65l-.01.1v10.5c0 .38.28.7.65.74l.1.01h15.5c.38 0 .7-.28.74-.65V8.15l1.5-1.5v9.1c0 1.2-.92 2.17-2.09 2.25h-4.4v2.5h1.75a.75.75 0 01.1 1.5H6.75a.75.75 0 01-.1-1.5H8.5V18H4.25c-1.2 0-2.17-.92-2.24-2.1L2 15.76V5.25c0-1.2.93-2.17 2.1-2.25h.15zM14 18h-4v2.5h4V18z"/></svg>