<svg width="20" height="20" viewBox="0 0 20 20" xmlns="http://www.w3.org/2000/svg"><path d="M14 7.5a1.5 1.5 0 11-3 0 1.5 1.5 0 013 0zm-1 0a.5.5 0 10-1 0 .5.5 0 001 0zM3 6a3 3 0 013-3h8a3 3 0 013 3v3c-.34.02-.68.1-1 .23V6a2 2 0 00-2-2H6a2 2 0 00-2 2v8.83c0 .17.21.26.34.14l.8-.8 1.05-1.03.2-.2 2.56-2.5a1.5 1.5 0 012.1 0l1.75 1.7-.71.71-1.74-1.7a.5.5 0 00-.7 0l-2.76 2.7-1.85 1.83A1.2 1.2 0 013 14.83V6zm.4 11.04c.37.18.83.33 1.22.24.25-.05.57-.19.94-.34.88-.37 2-.85 2.86-.5.64.26.59.98.4 1.33-.03.07 0 .16.07.18.27.06.65.1 1.11.09 0-.05.02-.1.03-.14l.37-1.5c.1-.39.3-.74.58-1.02l4.83-4.83a1.87 1.87 0 112.64 2.64l-4.83 4.83a2.2 2.2 0 01-1.02.58l-1.22.3c-1.12.33-2.8.23-3.31-.18a1.05 1.05 0 01-.32-1.24c.04-.08-.02-.18-.1-.17-.5.07-.9.25-1.3.43-.6.25-1.16.5-1.98.4a1.7 1.7 0 01-1.33-.82c-.12-.2.15-.4.36-.28z"/></svg>