<svg width="28" height="28" viewBox="0 0 28 28" xmlns="http://www.w3.org/2000/svg"><path d="M3 3.75c0-.41.34-.75.75-.75h20.5a.75.75 0 010 1.5H3.75A.75.75 0 013 3.75zm7.44 6.16c.16.18.35.32.56.42V17h6v-6.67a1.75 1.75 0 00.83-.83H24a1 1 0 011 1v10.75A3.75 3.75 0 0121.25 25H6.75A3.75 3.75 0 013 21.25V10.5a1 1 0 011-1h6.17c.07.15.16.29.27.41zM9.5 11h-5v6h5v-6zm0 7.5h-5v2.75c0 1.24 1 2.25 2.25 2.25H9.5v-5zm1.5 5h6v-5h-6v5zm10.25 0c1.24 0 2.25-1 2.25-2.25V18.5h-5v5h2.75zM23.5 17v-6h-5v6h5zm-7.75-7.69l-1-.89V12a.75.75 0 11-1.5 0V8.42l-1 .89a.75.75 0 01-1-1.12l2.25-2a.75.75 0 011 0l2.25 2a.75.75 0 01-1 1.12z"/></svg>