<svg width="24" height="24" viewBox="0 0 24 24" xmlns="http://www.w3.org/2000/svg"><path d="M20.25 4.5a.75.75 0 0 0 0-1.5H3.75a.75.75 0 0 0 0 1.5h16.5Zm.53 5.22c.14.14.22.33.22.53v4.25h-5v-5h4.25c.2 0 .39.08.53.22ZM14.5 14.5v-4.02c-.25.04-.5.02-.75-.05v.82a1.75 1.75 0 1 1-3.5 0v-.82c-.24.07-.5.09-.75.05v4.02h5Zm-5 1.5h5v5h-5v-5ZM8 14.5v-5H3.75a.75.75 0 0 0-.75.75v4.25h5ZM3 16h5v5H6.25A3.25 3.25 0 0 1 3 17.75V16Zm13 0h5v1.75c0 1.8-1.46 3.25-3.25 3.25H16v-5Zm-1.19-6.75a.75.75 0 0 1-1.06.06l-1-.89v2.83a.75.75 0 0 1-1.5 0V8.42l-1 .9a.75.75 0 0 1-1-1.13l2.25-2a.75.75 0 0 1 1 0l2.25 2c.3.27.34.75.06 1.06Z"/></svg>