<svg width="28" height="28" viewBox="0 0 28 28" xmlns="http://www.w3.org/2000/svg"><path d="M24.25 4.5a.75.75 0 0 0 0-1.5H3.75a.75.75 0 0 0 0 1.5h20.5ZM3 17v-5a1 1 0 0 1 1-1h5.5v6H3Zm0 4.25V18.5h6.5V25H6.75A3.75 3.75 0 0 1 3 21.25ZM17 25h-6v-6.5h6V25Zm4.25 0H18.5v-6.5H25v2.75A3.75 3.75 0 0 1 21.25 25ZM24 11a1 1 0 0 1 1 1v5h-6.5v-6H24Zm-13 6h6v-6h-1.25v1a1.75 1.75 0 1 1-3.5 0v-1H11v6Zm4.75-7.69-1-.89V12a.75.75 0 0 1-1.5 0V8.42l-1 .9a.75.75 0 0 1-1-1.13l2.25-2a.75.75 0 0 1 1 0l2.25 2a.75.75 0 0 1-1 1.12Z"/></svg>