<svg width="20" height="20" viewBox="0 0 20 20" xmlns="http://www.w3.org/2000/svg"><path d="M10.76 6.43a2 2 0 1 1 2.82 2.82 2 2 0 0 1-2.82-2.82Zm2.11.7a1 1 0 1 0-1.4 1.41 1 1 0 0 0 1.4-1.4ZM9.44 13.6l.6.6a1.5 1.5 0 0 0 1.71.3l1.12 1.12c.2.2.51.2.7 0L15 14.2c.86-.86.96-2.17.31-3.14l.85-.85a6.3 6.3 0 0 0 1.56-6.33 2.43 2.43 0 0 0-1.6-1.6A6.3 6.3 0 0 0 9.8 3.86l-.85.85A2.5 2.5 0 0 0 5.8 5L4.38 6.43a.5.5 0 0 0 0 .7L5.5 8.27a1.5 1.5 0 0 0 .3 1.7l.6.61-1.21.73a.5.5 0 0 0-.1.78l2.83 2.83a.5.5 0 0 0 .79-.1l.73-1.21Zm7.32-9.42a5.3 5.3 0 0 1-1.3 5.33l-4 4a.5.5 0 0 1-.7 0l-1.07-1.07-2.12-2.12L6.5 9.24a.5.5 0 0 1 0-.7l3.99-4a5.3 5.3 0 0 1 5.33-1.3c.44.13.8.48.93.93ZM5.8 14.91a.5.5 0 0 0-.7-.7l-1.77 1.76a.5.5 0 1 0 .7.7l1.77-1.76ZM4.4 12.79c.2.2.2.5 0 .7l-.7.71a.5.5 0 1 1-.72-.7l.71-.71c.2-.2.51-.2.71 0Zm2.83 3.53a.5.5 0 1 0-.7-.7l-.72.7a.5.5 0 1 0 .71.71l.71-.7Z"/></svg>