<svg width="20" height="20" viewBox="0 0 20 20" xmlns="http://www.w3.org/2000/svg"><path d="M10.76 6.43a2 2 0 1 1 2.82 2.82 2 2 0 0 1-2.82-2.82Zm2.11.7a1 1 0 1 0-1.4 1.42 1 1 0 0 0 1.4-1.42Zm-1.12 7.37a1.5 1.5 0 0 1-1.7-.3l-.61-.6-.74 1.22a.5.5 0 0 1-.78.1L5.1 12.09a.5.5 0 0 1 .1-.79l1.22-.73-.61-.6a1.5 1.5 0 0 1-.3-1.71L4.38 7.14a.5.5 0 0 1 0-.7l1.06-1.07a3 3 0 0 1 3.42-.59l.93-.93a6.3 6.3 0 0 1 6.33-1.56c.76.24 1.36.83 1.6 1.6a6.3 6.3 0 0 1-1.56 6.32l-.94.94a3 3 0 0 1-.58 3.41l-1.06 1.06a.5.5 0 0 1-.71 0l-1.12-1.12Zm4.08-11.26a5.3 5.3 0 0 0-5.33 1.31l-.81.82-.7.7h-.01L6.86 8.2l-.4.4a.5.5 0 0 0 .05.66l4.24 4.24c.18.18.46.2.66.05l.4-.4 2.12-2.12.7-.71.82-.81a5.3 5.3 0 0 0 1.31-5.33c-.14-.45-.49-.8-.93-.94Zm-3.31 10.62.7.7.7-.7a2 2 0 0 0 .53-1.93l-1.93 1.93Zm-4.44-8.3a2 2 0 0 0-1.93.52l-.7.7.7.71 1.93-1.93Zm.63 7.31L7.14 11.3l-.89.53 1.93 1.93.53-.89Zm-2.9 2.04a.5.5 0 1 0-.71-.7l-1.77 1.76a.5.5 0 1 0 .7.71l1.77-1.77ZM4.38 12.8c.2.2.2.51 0 .7l-.71.72a.5.5 0 0 1-.7-.71l.7-.71c.2-.2.51-.2.7 0Zm2.83 3.54a.5.5 0 0 0-.7-.71l-.72.7a.5.5 0 1 0 .7.72l.72-.71Z"/></svg>