<svg width="32" height="32" viewBox="0 0 32 32" xmlns="http://www.w3.org/2000/svg"><path d="M7 8.5a3.5 3.5 0 1 1 7 0 3.5 3.5 0 0 1-7 0ZM10.5 3a5.5 5.5 0 1 0 0 11 5.5 5.5 0 0 0 0-11ZM21 10a2 2 0 1 1 4 0 2 2 0 0 1-4 0Zm2-4a4 4 0 1 0 0 8 4 4 0 0 0 0-8Zm-7 10a3 3 0 0 1 1.1.2 9.05 9.05 0 0 0-1.58 1.8H5a1 1 0 0 0-1 1V19.29l.09.4c.09.35.27.82.64 1.29.7.9 2.25 2.02 5.77 2.02 1.5 0 2.64-.2 3.51-.5a9.12 9.12 0 0 0 .12 2.05c-1 .28-2.2.45-3.63.45-3.98 0-6.18-1.29-7.35-2.8A5.56 5.56 0 0 1 2 19.24V19a3 3 0 0 1 3-3h11Zm14.5 7a7.5 7.5 0 1 1-15 0 7.5 7.5 0 0 1 15 0Zm-8.21-4.86-.94 2.83h-3a.75.75 0 0 0-.43 1.36l2.4 1.7-.92 2.8a.75.75 0 0 0 1.14.84L23 25.93l2.46 1.74a.75.75 0 0 0 1.14-.84l-.93-2.8 2.41-1.7a.75.75 0 0 0-.43-1.36h-3l-.94-2.83a.75.75 0 0 0-1.42 0Z"/></svg>