<svg width="28" height="28" viewBox="0 0 28 28" xmlns="http://www.w3.org/2000/svg"><path d="M9.5 4a4.5 4.5 0 1 0 0 9 4.5 4.5 0 0 0 0-9Zm-3 4.5a3 3 0 1 1 6 0 3 3 0 0 1-6 0ZM20 6a3.5 3.5 0 1 0 0 7 3.5 3.5 0 0 0 0-7Zm-2 3.5a2 2 0 1 1 4 0 2 2 0 0 1-4 0ZM2 17.25C2 16.01 3 15 4.25 15h10.5c.2 0 .39.03.57.07-.44.43-.84.9-1.17 1.43h-9.9a.75.75 0 0 0-.75.75v.61l.08.41c.09.35.26.81.61 1.28.68.9 2.12 1.95 5.31 1.95 1.54 0 2.67-.25 3.51-.6.03.52.1 1.03.24 1.52-.99.36-2.22.58-3.75.58C5.94 23 4 21.8 3 20.45a5.09 5.09 0 0 1-1-2.67v-.53Zm25 3.25a6.5 6.5 0 1 1-13 0 6.5 6.5 0 0 1 13 0Zm-5.79-3.96a.74.74 0 0 0-1.42 0l-.72 2.3h-2.32c-.73 0-1.03.97-.44 1.41l1.88 1.42-.72 2.3c-.23.72.57 1.32 1.16.88l1.87-1.42 1.88 1.42c.58.44 1.38-.16 1.15-.88l-.72-2.3 1.88-1.42c.59-.44.29-1.41-.44-1.41h-2.32l-.72-2.3Z"/></svg>