<svg width="20" height="20" viewBox="0 0 20 20" xmlns="http://www.w3.org/2000/svg"><path d="M3.88 7.42a.5.5 0 0 1-.05.7l-1 .88H5.5a.5.5 0 0 1 0 1H2.83l1 .88a.5.5 0 1 1-.66.75l-2-1.75a.5.5 0 0 1 0-.75l2-1.75a.5.5 0 0 1 .7.04ZM17.17 10l-1 .88a.5.5 0 0 0 .66.75l2-1.75a.5.5 0 0 0 0-.75l-2-1.75a.5.5 0 0 0-.66.75l1 .87H14.5a.5.5 0 0 0 0 1h2.67ZM5 4a1 1 0 0 1 1-1h8a1 1 0 0 1 1 1v3.5h.02A1.5 1.5 0 0 1 16 6.34V4a2 2 0 0 0-2-2H6a2 2 0 0 0-2 2v2.34a1.5 1.5 0 0 1 .98 1.16H5V4Zm-.37 8.24c.19-.22.3-.48.35-.74H5V16a1 1 0 0 0 1 1h8a1 1 0 0 0 1-1v-4.5h.02a1.5 1.5 0 0 0 .98 1.16V16a2 2 0 0 1-2 2H6a2 2 0 0 1-2-2v-3.34c.24-.08.45-.22.63-.42Z"/></svg>