<svg width="16" height="16" viewBox="0 0 16 16" xmlns="http://www.w3.org/2000/svg"><path d="M14 4.5A2.5 2.5 0 0 0 11.5 2h-7A2.5 2.5 0 0 0 2 4.5v7A2.5 2.5 0 0 0 4.5 14h1.76a5.5 5.5 0 0 1-.66-1H4.5A1.5 1.5 0 0 1 3 11.5V6h4.34a5.47 5.47 0 0 1 6.66.26V4.5Zm-3.5.5H3v-.5C3 3.67 3.67 3 4.5 3h7c.83 0 1.5.67 1.5 1.5V5h-2.5Zm-.63 3.5a.62.62 0 1 1 1.25 0 .62.62 0 0 1-1.24 0Zm1.13 4a.5.5 0 0 1-1 0v-2a.5.5 0 0 1 1 0v2Zm-5-2a4.5 4.5 0 1 1 9 0 4.5 4.5 0 0 1-9 0Zm1 0a3.5 3.5 0 1 0 7 0 3.5 3.5 0 0 0-7 0Z"/></svg>