<svg width="20" height="20" viewBox="0 0 20 20" xmlns="http://www.w3.org/2000/svg"><path d="M15.23 1.35L14.88.28a.42.42 0 00-.8 0l-.35 1.07a2.2 2.2 0 01-1.38 1.4l-1.07.35a.42.42 0 000 .8l1.07.34a2.2 2.2 0 011.4 1.4l.35 1.08a.42.42 0 00.8 0l.35-1.07a2.2 2.2 0 011.4-1.4l1.07-.35a.42.42 0 000-.8h-.02l-1.08-.35a2.2 2.2 0 01-1.4-1.4zm3.79 6.61l.76.25h.02a.3.3 0 010 .58l-.77.25a1.58 1.58 0 00-1 1l-.24.76a.3.3 0 01-.58 0l-.24-.77a1.58 1.58 0 00-1-1l-.77-.25a.3.3 0 010-.57l.77-.25a1.58 1.58 0 00.98-1l.25-.76a.3.3 0 01.57 0l.25.77a1.57 1.57 0 001 1zM14 8.5V12h2.5c.28 0 .5.22.5.5V14a3 3 0 01-3 3H6a3 3 0 01-3-3V5c0-1.1.9-2 2-2h5.1c-.06.16-.1.33-.1.5a1.42 1.42 0 001 1.34l1.1.36a1 1 0 01.4.23l.06.06c.11.1.2.24.26.38L13.15 7c.09.26.25.49.46.66.12.09.25.15.39.2v.21a1.3 1.3 0 000 .43zm0 7.5a2 2 0 002-2v-1h-2v3zM6.5 6a.5.5 0 000 1h4a.5.5 0 000-1h-4zm0 3a.5.5 0 000 1h4a.5.5 0 000-1h-4zm0 3a.5.5 0 000 1h2a.5.5 0 000-1h-2z"/></svg>