<svg width="24" height="24" viewBox="0 0 24 24" xmlns="http://www.w3.org/2000/svg"><path d="M15.85 6.15a2.84 2.84 0 01.69 1.11l.45 1.38a.54.54 0 001.02 0l.45-1.38a2.84 2.84 0 011.8-1.8l1.38-.44a.54.54 0 000-1.03h-.03l-1.38-.45a2.84 2.84 0 01-1.8-1.8L18 .36a.54.54 0 00-1.03 0l-.45 1.38-.01.03a2.84 2.84 0 01-1.76 1.77l-1.38.44a.57.57 0 00-.26.2.51.51 0 00-.1.34.5.5 0 00.1.3.54.54 0 00.26.19l1.38.45a2.83 2.83 0 01.49.21 2.8 2.8 0 01.62.48zm7.17 3.81l.76.25h.02a.3.3 0 01.14.47.3.3 0 01-.14.1l-.77.26a1.58 1.58 0 00-1 1l-.24.76a.3.3 0 01-.58 0l-.24-.77a1.57 1.57 0 00-1-1l-.77-.25a.3.3 0 01-.14-.46.3.3 0 01.14-.1l.77-.26a1.58 1.58 0 00.98-1l.25-.76a.3.3 0 01.57 0l.25.77a1.57 1.57 0 001 1zM17 14V9.94c-.15-.05-.3-.12-.43-.21-.26-.2-.46-.46-.57-.77l-.44-1.38-.06-.16V19H7.25c-.97 0-1.75-.78-1.75-1.75v-11c0-.41.34-.75.75-.75h6.1a1.57 1.57 0 01-.28-1.5H6.24C5.01 4 4 5 4 6.25v11c0 1.8 1.46 3.25 3.25 3.25h10c1.8 0 3.25-1.46 3.25-3.25V14.5a.5.5 0 00-.5-.5h-3zm.25 5H17v-3.5h2v1.75c0 .97-.78 1.75-1.75 1.75zM7.75 8a.75.75 0 000 1.5h5.5a.75.75 0 000-1.5h-5.5zm0 3.5a.75.75 0 000 1.5h5.5a.75.75 0 000-1.5h-5.5zm0 3.5a.75.75 0 000 1.5h2.5a.75.75 0 000-1.5h-2.5z"/></svg>