<svg width="16" height="16" viewBox="0 0 16 16" xmlns="http://www.w3.org/2000/svg"><path d="M10.88.28l.35 1.07a2.2 2.2 0 001.4 1.4l1.07.35h.02a.42.42 0 010 .8l-1.07.35a2.2 2.2 0 00-1.4 1.4l-.35 1.07a.42.42 0 01-.8 0l-.35-1.07a2.2 2.2 0 00-1.4-1.4L7.28 3.9a.42.42 0 010-.8l1.07-.35a2.2 2.2 0 001.38-1.4l.35-1.07a.42.42 0 01.8 0zm4.9 7.93l-.76-.25a1.58 1.58 0 01-1-1l-.25-.76a.3.3 0 00-.57 0l-.25.77a1.58 1.58 0 01-.98 1l-.77.24a.3.3 0 000 .57l.77.25a1.58 1.58 0 011 1l.24.77a.3.3 0 00.58 0l.24-.77a1.58 1.58 0 011-1l.77-.24a.3.3 0 000-.57h-.02zM13.5 12c-.17 0-.34-.03-.5-.1v.35c0 .41-.34.75-.75.75H11v-2h1.23l-.21-.65a.52.52 0 00-.14-.22.63.63 0 00-.2-.13H11v-.23l-.1-.03c-.28-.1-.5-.26-.66-.48A1.27 1.27 0 0110 8.5V13H3.75a.75.75 0 01-.75-.75v-8.5c0-.41.34-.75.75-.75h2.34a1.42 1.42 0 01.86-.85L7.43 2H3.75C2.78 2 2 2.78 2 3.75v8.5c0 .97.78 1.75 1.75 1.75h8.5c.97 0 1.75-.78 1.75-1.75v-.33c-.16.06-.33.08-.5.08zM8.03 5.2l-.6-.2H5a.5.5 0 000 1h3a.5.5 0 00.5-.5v-.01a1.3 1.3 0 00-.47-.3zM5 7.5a.5.5 0 000 1h3a.5.5 0 000-1H5zm-.5 3c0-.28.22-.5.5-.5h1.5a.5.5 0 010 1H5a.5.5 0 01-.5-.5z"/></svg>