<svg width="20" height="20" viewBox="0 0 20 20" xmlns="http://www.w3.org/2000/svg"><path d="M3 6a1 1 0 0 1 1-1h.5a.5.5 0 0 0 0-1H4a2 2 0 0 0-2 2v.5a.5.5 0 0 0 1 0V6Zm1 9a1 1 0 0 1-1-1v-.5a.5.5 0 0 0-1 0v.5c0 1.1.9 2 2 2h.5a.5.5 0 0 0 0-1H4ZM2.5 8c.28 0 .5.22.5.5v3a.5.5 0 0 1-1 0v-3c0-.28.22-.5.5-.5Zm4-4a.5.5 0 0 0 0 1h2a.5.5 0 0 0 0-1h-2ZM6 15.5c0-.28.22-.5.5-.5h2a.5.5 0 0 1 0 1h-2a.5.5 0 0 1-.5-.5Zm6-7V4h-1.5a.5.5 0 0 0-.5.5v11c0 .28.22.5.5.5H16a2 2 0 0 0 2-2v-4h-4.5A1.5 1.5 0 0 1 12 8.5Zm1 0V4.06c.24.07.47.2.65.38l3.91 3.91c.18.18.31.4.38.65H13.5a.5.5 0 0 1-.5-.5Z"/></svg>