<svg width="48" height="48" viewBox="0 0 48 48" xmlns="http://www.w3.org/2000/svg"><path d="M14 15.77V24a8 8 0 008.35 8 12.96 12.96 0 012.62-5.27l1.42 1.43a11 11 0 0015.46 15.46l.02.01a1.25 1.25 0 001.76-1.76L6.13 4.37a1.25 1.25 0 10-1.76 1.76L14 15.77zm23.02 23.02l-.58 1.56a1 1 0 01-1.88-.02l-2.16-6.16 4.62 4.62zm-5.3-5.3l-.74 1.9a1 1 0 01-.94.64H28a1 1 0 110-2h1.36l.81-2.09 1.55 1.55zm-1.38-8.46l7.06 7.06.16-.44a1 1 0 011.83-.1l1.23 2.46 1.4.02a1 1 0 01-.04 2h-.65l3.64 3.63a11 11 0 00-14.63-14.63zM14.5 9.2l14.35 14.35c.37-.2.76-.39 1.15-.55V12a8 8 0 00-15.5-2.8zM22 35.25c.03 1.68.39 3.29 1 4.76v2.74a1.25 1.25 0 11-2.5 0v-5.08A14 14 0 018 23.75a1.25 1.25 0 112.5 0A11.5 11.5 0 0022 35.25z"/></svg>