<svg width="24" height="24" viewBox="0 0 24 24" xmlns="http://www.w3.org/2000/svg"><path d="M7 8.06V12a4 4 0 004.17 4c.23-.94.65-1.8 1.23-2.54l.72.72a5.5 5.5 0 007.72 7.7.75.75 0 00.94-1.16L3.28 2.22a.75.75 0 10-1.06 1.06L7 8.06zm11.14 11.15l-.17.47a.5.5 0 01-.94-.02l-.79-2.36 1.9 1.9zm-2.34-2.35l-.34.83A.5.5 0 0115 18h-1a.5.5 0 010-1h.66l.37-.91.77.77zm-.26-4.5l7.1 7.1A5.49 5.49 0 0017.5 12c-.69 0-1.35.13-1.96.36zM7.41 4.23l7.37 7.37.22-.1V6a4 4 0 00-7.59-1.77zM11 17.5c0 1.1.27 2.13.75 3.03v.72a.75.75 0 01-1.5.1v-2.37A6.75 6.75 0 014 12.48v-.73a.75.75 0 011.5-.1v.6a5.25 5.25 0 005.03 5.25H11z"/></svg>