<svg width="28" height="28" viewBox="0 0 28 28" xmlns="http://www.w3.org/2000/svg"><path d="M8.5 9.56v4.94a4.5 4.5 0 004.65 4.5 7.47 7.47 0 011.54-3.25l.71.71a6.5 6.5 0 009.13 9.13l.19.2a.75.75 0 001.06-1.07L3.28 2.22a.75.75 0 10-1.06 1.06L8.5 9.56zm12.78 12.78l-.31.84a.5.5 0 01-.95-.04l-.88-2.94 2.14 2.14zm-2.4-2.4l-.43 1.24a.5.5 0 01-.47.34H16.5a.5.5 0 010-1h1.12l.47-1.37.78.79zM8.62 5.43l8.4 8.4.47-.22V6.5a4.5 4.5 0 00-8.87-1.06zm9.15 9.16l3.97 3.97a.5.5 0 01.7.2l.48.97.77.78h.8a.5.5 0 01.17.97l1.73 1.73a6.5 6.5 0 00-8.63-8.63zM13 21h.02c.06.99.32 1.93.73 2.77v1.48a.75.75 0 01-1.5 0v-2.78A8 8 0 015 14.5v-.75a.75.75 0 011.5 0v.75A6.5 6.5 0 0013 21z"/></svg>