<svg width="48" height="48" viewBox="0 0 48 48" xmlns="http://www.w3.org/2000/svg"><path d="M14 15.77V24a8 8 0 008.35 8c.22-.93.54-1.82.94-2.65A5.51 5.51 0 0116.5 24v-5.73l9.89 9.89a11 11 0 0015.46 15.46l.02.01a1.25 1.25 0 001.76-1.76L6.13 4.37a1.25 1.25 0 10-1.76 1.76L14 15.77zm23.02 23.02l-.58 1.56a1 1 0 01-1.88-.02l-2.16-6.16 4.62 4.62zm-5.3-5.3l-.74 1.9a1 1 0 01-.94.64H28a1 1 0 110-2h1.36l.81-2.09 1.55 1.55zM27.5 12v10.2l1.35 1.35c.37-.2.76-.39 1.15-.55V12a8 8 0 00-15.5-2.8l2.05 2.05A5.5 5.5 0 0127.5 12zm2.84 13.03l7.06 7.06.16-.44a1 1 0 011.83-.1l1.23 2.46 1.4.02a1 1 0 01-.04 2h-.65l3.64 3.63a11 11 0 00-14.63-14.63zM23 40.01a12.95 12.95 0 01-1-4.76 11.5 11.5 0 01-11.5-11.5 1.25 1.25 0 10-2.5 0 14 14 0 0012.5 13.92v5.08a1.25 1.25 0 102.5 0v-2.74z"/></svg>