<svg width="20" height="20" viewBox="0 0 20 20" xmlns="http://www.w3.org/2000/svg"><path d="M6 6.7V10a3 3 0 0 0 3.2 3c.22-.76.59-1.44 1.07-2.02l.71.71a4.5 4.5 0 0 0 6.37 6.29.5.5 0 0 0 .5-.83l-15-15a.5.5 0 1 0-.7.7L6 6.71Zm9.11 9.12-.15.37a.5.5 0 0 1-.93-.02l-.64-1.8-.22.5a.5.5 0 0 1-.46.3H12a.5.5 0 0 1 0-1h.38l.33-.76 2.4 2.4Zm3.45.62a4.5 4.5 0 0 0-6-6l6 6ZM6.16 4.04l5.66 5.66.18-.1V5a3 3 0 0 0-5.84-.96ZM4.5 10a.5.5 0 0 0-1 0 5.5 5.5 0 0 0 5 5.48v2.02a.5.5 0 0 0 1 0v-.7c-.32-.7-.5-1.48-.5-2.3A4.5 4.5 0 0 1 4.5 10Z"/></svg>