<svg width="32" height="32" viewBox="0 0 32 32" xmlns="http://www.w3.org/2000/svg"><path d="M9 10.41V16a6 6 0 005.06 5.93c.2-1.71.89-3.27 1.9-4.55l1.08 1.07a7.5 7.5 0 0010.51 10.51l.74.75a1 1 0 001.42-1.42l-26-26a1 1 0 00-1.42 1.42L9 10.4zm15.37 15.37l-.16.47a.75.75 0 01-1.42 0l-1.1-3.14 2.68 2.67zm-3.18-3.17l-.26.68a.75.75 0 01-.7.48h-1.48a.75.75 0 010-1.5h.96l.32-.82 1.16 1.16zm-1.42-6.38l4.7 4.7.07-.18a.75.75 0 011.41-.01l.57 1.53h.73a.75.75 0 01.06 1.5l2.46 2.46a7.5 7.5 0 00-10-10zM9.39 5.86l9.26 9.26c.73-.4 1.52-.7 2.35-.9V8A6 6 0 009.4 5.86zM7 16a8 8 0 007.05 7.94c.18 1.78.89 3.4 1.95 4.72V29a1 1 0 11-2 0v-3-.05A10 10 0 015 16a1 1 0 112 0z"/></svg>