<svg width="16" height="16" viewBox="0 0 16 16" xmlns="http://www.w3.org/2000/svg"><path d="m13.3 14.02.85.83a.5.5 0 0 0 .7-.7l-13-13a.5.5 0 1 0-.7.7L4 4.71V8c0 .83.4 1.56 1.02 2.02.1-1.15.56-2.2 1.25-3.04l.71.71a4.5 4.5 0 0 0 6.32 6.32Zm-2.19-2.2-.15.37a.5.5 0 0 1-.93-.02l-.64-1.8-.22.5a.5.5 0 0 1-.46.3H8a.5.5 0 0 1 0-1h.38l.33-.76 2.4 2.4ZM8.56 6.44l6 6a4.5 4.5 0 0 0-6-6ZM4.79 2.67 7.82 5.7c.37-.21.76-.38 1.18-.5v-.7a2.5 2.5 0 0 0-4.2-1.83ZM3 8a3.5 3.5 0 0 0 2.04 3.18c.05.4.14.8.28 1.16A4.5 4.5 0 0 1 2 8a.5.5 0 0 1 1 0Z"/></svg>