<svg width="24" height="24" viewBox="0 0 24 24" xmlns="http://www.w3.org/2000/svg"><path d="M14.3 2.99l6.72 6.71a3.25 3.25 0 010 4.6l-6.72 6.72a3.25 3.25 0 01-4.6 0L2.98 14.3a3.25 3.25 0 010-4.6L9.7 3a3.25 3.25 0 014.6 0zm-3.54 1.06l-6.71 6.71c-.69.69-.69 1.8 0 2.48l6.71 6.72c.69.68 1.8.68 2.48 0l6.72-6.72c.68-.69.68-1.8 0-2.48l-6.72-6.71a1.75 1.75 0 00-2.48 0zm1.7 3.26l.07-.09a.75.75 0 01.98-.07l.08.07 2 2c.27.27.3.68.07.98l-.07.08-2 2a.75.75 0 01-1.13-.97l.07-.09.72-.72h-1.5c-.65 0-1.18.5-1.24 1.12l-.01.13V15a.75.75 0 01-1.5.1v-3.35a2.75 2.75 0 012.58-2.74h.17l1.5-.01-.72-.72a.75.75 0 01-.07-.97l.07-.09-.07.09z"/></svg>