<svg width="24" height="24" viewBox="0 0 24 24" xmlns="http://www.w3.org/2000/svg"><path d="M12.61 2.29a.93.93 0 00-1.22 0A7.2 7.2 0 008.9 7.57c0 .19.11.36.28.45a9.06 9.06 0 012.4 1.83c.22.24.62.24.84 0a9.04 9.04 0 012.4-1.83.5.5 0 00.28-.45 7.2 7.2 0 00-2.49-5.28zM12 18.04a8.16 8.16 0 018.17-4.06c.49.07.85.5.81 1A7.6 7.6 0 0113.41 22H10.6a7.6 7.6 0 01-7.57-7.01.94.94 0 01.81-1A8.16 8.16 0 0112 18.03zm7.65-5.11a9.9 9.9 0 00-5.13 1.16 8.61 8.61 0 00-2.32 1.78c-.1.11-.3.11-.4 0a8.6 8.6 0 00-2.32-1.78 9.9 9.9 0 00-5.11-1.16 8.66 8.66 0 01-1.35-3.8.96.96 0 01.87-1.04c2.46-.2 4.5.28 6.34 1.84.83.7 1.4 1.54 1.77 2.26.38-.72.94-1.56 1.77-2.26 1.83-1.56 3.9-2.04 6.35-1.84.53.04.92.5.88 1.04a8.66 8.66 0 01-1.35 3.8z"/></svg>