<svg width="24" height="24" viewBox="0 0 24 24" xmlns="http://www.w3.org/2000/svg"><path d="M11.39 2.29a7.23 7.23 0 00-2.37 6.78 8.5 8.5 0 00-5.13-.98.96.96 0 00-.87 1.04 8.97 8.97 0 002.06 4.78c-.41 0-.83.02-1.25.07-.5.07-.85.5-.81 1A7.6 7.6 0 0010.59 22h2.82a7.6 7.6 0 007.57-7.01.94.94 0 00-.81-1 8.8 8.8 0 00-1.23-.08A8.97 8.97 0 0021 9.13a.96.96 0 00-.88-1.04 8.55 8.55 0 00-5.14.98A7.23 7.23 0 0012.6 2.3a.93.93 0 00-1.22 0zm.61 9.44a5.74 5.74 0 010-7.96 5.74 5.74 0 010 7.96zm0 5.6a9.02 9.02 0 00-4.23-2.97 7.75 7.75 0 01-3.18-4.8 6.43 6.43 0 014.68 1.51c1.02.87 1.48 1.93 1.81 2.72l.25.55a.75.75 0 001.34 0l.25-.55c.34-.79.79-1.85 1.81-2.72a6.46 6.46 0 014.7-1.52 7.75 7.75 0 01-3.17 4.8A9.02 9.02 0 0012 17.33zm.64 1.71c1.4-2.33 4-3.78 6.78-3.62a6.1 6.1 0 01-6 5.08h-2.83a6.1 6.1 0 01-6.01-5.08 7.45 7.45 0 016.78 3.62.75.75 0 001.28 0z"/></svg>