<svg width="24" height="24" viewBox="0 0 24 24" xmlns="http://www.w3.org/2000/svg"><path d="M15.1 16.5l-.13.62A2.77 2.77 0 0013 19.77v.1c0 .47.08.93.26 1.38-.4.48-.83.75-1.26.75-1.2 0-2.4-2.1-3.04-5.2l-.06-.3h6.2zm-.1-2c0-.65.18-1.27.5-1.79a26 26 0 00-.08-2.71H8.58l-.04.49A25.98 25.98 0 008.67 15h6.37a3.52 3.52 0 01-.04-.5zm3.5-3.5a3.5 3.5 0 013.38 2.58A10.08 10.08 0 0021.8 10h-4.87l.04.66.02.68c.46-.22.97-.34 1.51-.34zM3.07 16.5h4.3c.37 2.08.98 3.85 1.8 5.1a10.03 10.03 0 01-5.96-4.82l-.14-.28zM2.2 10h4.87a28.2 28.2 0 00.03 4.42l.06.58h-4.7a10 10 0 01-.26-5zm12.74-7.42l-.1-.17c3.01.89 5.44 3.16 6.53 6.09h-4.59c-.31-2.42-.96-4.5-1.84-5.92zm-5.9-.14l.12-.03a14.57 14.57 0 00-1.88 5.65l-.06.44h-4.6a10.03 10.03 0 016.42-6.06zM12 2c1.32 0 2.65 2.54 3.21 6.19l.05.31H8.74C9.28 4.7 10.64 2 12 2zm9 12.5a2.5 2.5 0 11-5 0 2.5 2.5 0 015 0zm2 5.38c0 1.55-1.29 3.12-4.5 3.12S14 21.44 14 19.87v-.1c0-.98.8-1.77 1.77-1.77h5.46c.98 0 1.77.8 1.77 1.77v.1z"/></svg>