<svg width="24" height="24" viewBox="0 0 24 24" xmlns="http://www.w3.org/2000/svg"><path d="M22 12a10 10 0 10-8.42 9.88 3.68 3.68 0 01-.57-1.78c-.33.26-.67.4-1.01.4-1.15 0-2.29-1.59-2.94-4h6.57c-.3-.44-.52-.95-.6-1.5h-6.3a18.5 18.5 0 01-.13-5h6.8a18.97 18.97 0 01.09 2.72c.35-.6.87-1.08 1.5-1.38-.01-.45-.04-.9-.08-1.34h3.35c.13.52.2 1.07.23 1.62a3.5 3.5 0 011.39 1.96c.08-.52.12-1.04.12-1.58zM4.8 16.5H7.5l.1.4c.32 1.17.75 2.2 1.27 3.01a8.53 8.53 0 01-4.1-3.4zM3.74 10h3.35a20.85 20.85 0 00.13 5H4.04a8.48 8.48 0 01-.3-4.98V10zm5.12-5.9l.02-.01A12.36 12.36 0 007.3 8.5H4.25c.9-2 2.56-3.59 4.6-4.4zm3.02-.6h.25c1.26.13 2.47 2.13 3.04 5H8.83c.57-2.88 1.79-4.88 3.05-5zm3.35.76l-.11-.17.3.12a8.53 8.53 0 014.33 4.29H16.7c-.3-1.66-.8-3.12-1.47-4.24zM21 14.5a2.5 2.5 0 11-5 0 2.5 2.5 0 015 0zm2 5.38c0 1.55-1.29 3.12-4.5 3.12S14 21.44 14 19.87v-.1c0-.98.8-1.77 1.77-1.77h5.46c.98 0 1.77.8 1.77 1.77v.1z"/></svg>