<svg width="48" height="48" viewBox="0 0 48 48" xmlns="http://www.w3.org/2000/svg"><path d="M4 24a20 20 0 0139.93-1.69 5.98 5.98 0 00-6.17 1.48L32.62 29a1.24 1.24 0 00-.93.6A9.21 9.21 0 0124 33.5a9.22 9.22 0 01-7.69-3.9 1.25 1.25 0 10-2.13 1.3A11.72 11.72 0 0024 36c.62 0 1.24-.03 1.85-.12l-1.6 1.63a5 5 0 00-1.28 2.25L22.13 43c-.08.3-.12.6-.13.9A20 20 0 014 24zm13.5-2a2.5 2.5 0 100-5 2.5 2.5 0 000 5zM33 19.5a2.5 2.5 0 10-5 0 2.5 2.5 0 005 0zm11.83 5.67a3.98 3.98 0 00-5.65.02l-13.5 13.72a3 3 0 00-.78 1.35l-.83 3.24a2 2 0 002.43 2.44l3.24-.84a3 3 0 001.35-.77L44.8 30.82a3.98 3.98 0 00.02-5.65z"/></svg>