<svg width="48" height="48" viewBox="0 0 48 48" xmlns="http://www.w3.org/2000/svg"><path d="M17.5 22a2.5 2.5 0 100-5 2.5 2.5 0 000 5zM33 19.5a2.5 2.5 0 11-5 0 2.5 2.5 0 015 0zM18.45 34.68c1.71.9 3.62 1.34 5.55 1.32.62 0 1.24-.03 1.85-.12L32.62 29a1.24 1.24 0 00-.93.6A9.21 9.21 0 0124 33.5a9.22 9.22 0 01-7.69-3.9 1.25 1.25 0 10-2.13 1.3c1.1 1.6 2.56 2.9 4.27 3.78zM6.5 24a17.5 17.5 0 0016.03 17.44l-.4 1.56c-.08.3-.12.6-.13.9a20 20 0 1121.93-21.59 6 6 0 00-2.54-.28A17.5 17.5 0 006.5 24zm38.33 1.17a3.98 3.98 0 00-5.65.02l-13.5 13.72a3 3 0 00-.78 1.35l-.83 3.24a2 2 0 002.43 2.44l3.24-.84a3 3 0 001.35-.77L44.8 30.82a3.98 3.98 0 00.02-5.65z"/></svg>