<svg width="16" height="16" viewBox="0 0 16 16" xmlns="http://www.w3.org/2000/svg"><path d="M6.25 7.75a.75.75 0 100-1.5.75.75 0 000 1.5zm-.11 1.92a.5.5 0 10-.75.66c.2.22.42.42.67.58l.21-.24.5-.5c-.24-.13-.45-.3-.63-.5zM3 8a5 5 0 002.4 4.27l-.25 1.01A6 6 0 1113.2 5c-.36 0-.73.05-1.07.18A5 5 0 003 8zm6.75-1.75c.26 0 .48.13.62.32L9.32 7.62a.75.75 0 01.43-1.37zm-2.77 5.13l4.83-4.83a1.87 1.87 0 112.64 2.64l-4.83 4.83a2.2 2.2 0 01-1.02.58l-1.5.37a.89.89 0 01-1.07-1.07l.37-1.5c.1-.39.3-.74.58-1.02z"/></svg>