<svg width="24" height="24" viewBox="0 0 24 24" xmlns="http://www.w3.org/2000/svg"><path d="M12 2a10 10 0 019.97 9.25 3.29 3.29 0 00-3.58.71l-2.63 2.64a.75.75 0 00-.23.19l-.16.2-.39.38a4.49 4.49 0 01-6.52-.59.75.75 0 00-1.18.93A6 6 0 0012.37 18c-.4.45-.7 1-.85 1.59l-.46 1.83c-.04.18-.06.36-.06.54A10 10 0 0112 2zM9 8.75a1.25 1.25 0 100 2.5 1.25 1.25 0 000-2.5zm6 0a1.25 1.25 0 100 2.5 1.25 1.25 0 000-2.5zm4.1 3.92l-5.9 5.9c-.35.35-.6.78-.7 1.25l-.47 1.83c-.2.8.53 1.52 1.32 1.32l1.83-.46c.47-.12.9-.36 1.25-.7l5.9-5.9a2.29 2.29 0 00-3.23-3.24z"/></svg>