<svg width="28" height="28" viewBox="0 0 28 28" xmlns="http://www.w3.org/2000/svg"><path d="M17.5 13a1.5 1.5 0 100-3 1.5 1.5 0 000 3zM12 11.5a1.5 1.5 0 11-3 0 1.5 1.5 0 013 0zm-3.67 5.63a.75.75 0 011.04.2 2.25 2.25 0 00.25.3A5.92 5.92 0 0014 19.5a5.92 5.92 0 004.62-2.16l.01-.01a.75.75 0 01.72-.32l-3.85 3.85c-.47.09-.96.14-1.5.14a7.42 7.42 0 01-5.86-2.81v-.01h-.01a.75.75 0 01.2-1.05zM14 3.5a10.5 10.5 0 0110.45 9.51 3.3 3.3 0 011.53.24A12 12 0 1013 25.95c0-.17.02-.36.06-.54l.24-.93A10.5 10.5 0 0114 3.5zm9.1 11.17l-7.9 7.9c-.35.35-.6.78-.7 1.25l-.47 1.83c-.2.8.53 1.52 1.32 1.32l1.83-.46c.47-.12.9-.36 1.25-.7l7.9-7.9a2.29 2.29 0 00-3.23-3.24z"/></svg>