<svg width="24" height="24" viewBox="0 0 24 24" xmlns="http://www.w3.org/2000/svg"><path d="M12 2a10 10 0 019.97 9.25 3.3 3.3 0 00-1.53-.24 8.5 8.5 0 10-9.14 9.46l-.24.94c-.04.18-.06.36-.06.54A10 10 0 0112 2zm0 14.5c1.12 0 2.17-.41 2.98-1.13l-2.49 2.5-.12.12L12 18a6 6 0 01-4.72-2.29.75.75 0 011.18-.93A4.5 4.5 0 0012 16.5zM9 8.75a1.25 1.25 0 110 2.5 1.25 1.25 0 010-2.5zm6 0a1.25 1.25 0 110 2.5 1.25 1.25 0 010-2.5zm4.1 3.92l-5.9 5.9c-.35.35-.6.78-.7 1.25l-.47 1.83c-.2.8.53 1.52 1.32 1.32l1.83-.46c.47-.12.9-.36 1.25-.7l5.9-5.9a2.29 2.29 0 00-3.23-3.24z"/></svg>