<svg width="28" height="28" viewBox="0 0 28 28" xmlns="http://www.w3.org/2000/svg"><path d="M2 14a12 12 0 0123.98-.75 3.29 3.29 0 00-3.59.71l-3.04 3.05a.75.75 0 00-.72.32 2.22 2.22 0 01-.25.3A5.92 5.92 0 0114 19.5a5.92 5.92 0 01-4.62-2.16l-.01-.01a.75.75 0 00-1.24.84l.01.02a3.06 3.06 0 00.1.13l.28.33a7.42 7.42 0 006.98 2.21l-1.01 1c-.47.48-.8 1.07-.97 1.72l-.46 1.83c-.04.18-.06.37-.06.55A12 12 0 012 14zm15.5-1a1.5 1.5 0 100-3 1.5 1.5 0 000 3zM12 11.5a1.5 1.5 0 10-3 0 1.5 1.5 0 003 0zm11.1 3.17l-7.9 7.9c-.35.35-.6.78-.7 1.25l-.47 1.83c-.2.8.53 1.52 1.32 1.32l1.83-.46c.47-.12.9-.36 1.25-.7l7.9-7.9a2.29 2.29 0 00-3.23-3.24z"/></svg>