<svg width="20" height="20" viewBox="0 0 20 20" xmlns="http://www.w3.org/2000/svg"><path d="M6 2a2 2 0 0 0-2 2v5.2c.32-.08.66-.15 1-.18V4a1 1 0 0 1 1-1h4v3.5c0 .83.67 1.5 1.5 1.5H15v8a1 1 0 0 1-1 1h-3.6c-.18.36-.4.7-.66 1H14a2 2 0 0 0 2-2V7.41c0-.4-.16-.78-.44-1.06l-3.91-3.91A1.5 1.5 0 0 0 10.59 2H6Zm8.8 5h-3.3a.5.5 0 0 1-.5-.5V3.2L14.8 7ZM1 14.5a4.5 4.5 0 1 0 9 0 4.5 4.5 0 0 0-9 0Zm6.5-3c.28 0 .5.22.5.5v1.5a.5.5 0 0 1-.5.5H6a.5.5 0 0 1 0-1h.47a1.99 1.99 0 0 0-2.38.34.5.5 0 0 1-.71-.71A3 3 0 0 1 7 12.15V12c0-.28.22-.5.5-.5Zm-.88 5.53A3 3 0 0 1 4 16.85V17a.5.5 0 0 1-1 0v-1.5c0-.28.22-.5.5-.5H5a.5.5 0 0 1 0 1h-.47a1.99 1.99 0 0 0 2.38-.34.5.5 0 0 1 .71.71 3 3 0 0 1-1 .66Z"/></svg>