<svg width="24" height="24" viewBox="0 0 24 24" xmlns="http://www.w3.org/2000/svg"><path d="M18.5 20a.5.5 0 0 1-.5.5h-5.73a6.52 6.52 0 0 1-1.08 1.5H18a2 2 0 0 0 2-2V9.83a2 2 0 0 0-.59-1.42L13.6 2.6a.5.5 0 0 0-.05-.04 2.07 2.07 0 0 0-.34-.25l-.05-.03-.05-.03-.16-.09c-.2-.08-.41-.12-.63-.14h-.06a.6.6 0 0 0-.08-.01H6a2 2 0 0 0-2 2v7.5c.47-.2.98-.34 1.5-.42V4c0-.27.22-.5.5-.5h6V8c0 1.1.9 2 2 2h4.5v10Zm-5-15.38 3.88 3.88H14a.5.5 0 0 1-.5-.5V4.62ZM1 17.5a5.5 5.5 0 1 0 11 0 5.5 5.5 0 0 0-11 0ZM9.5 14c.28 0 .5.22.5.5v2a.5.5 0 0 1-.5.5h-2a.5.5 0 0 1 0-1h1a2.5 2.5 0 0 0-4.03.04.5.5 0 1 1-.8-.59 3.5 3.5 0 0 1 5.33-.4v-.55c0-.28.22-.5.5-.5ZM4 19.95v.55a.5.5 0 0 1-1 0v-2c0-.28.22-.5.5-.5h2a.5.5 0 0 1 0 1h-1a2.5 2.5 0 0 0 3.91.11.5.5 0 0 1 .77.65 3.5 3.5 0 0 1-5.18.19Z"/></svg>