<svg width="16" height="16" viewBox="0 0 16 16" xmlns="http://www.w3.org/2000/svg"><path d="M6 1a2 2 0 0 0-2 2v2.2c.32-.08.66-.15 1-.18V3a1 1 0 0 1 1-1h3v2.5c0 .83.67 1.5 1.5 1.5H13v7a1 1 0 0 1-1 1H9.74c-.31.38-.67.72-1.08 1H12a2 2 0 0 0 2-2V5.41c0-.4-.16-.78-.44-1.06l-2.91-2.91A1.5 1.5 0 0 0 9.59 1H6Zm6.8 4h-2.3a.5.5 0 0 1-.5-.5V2.2L12.8 5ZM5.5 15a4.5 4.5 0 1 1 0-9 4.5 4.5 0 0 1 0 9ZM7 8v.15a3 3 0 0 0-3.62.48.5.5 0 0 0 .7.7A2 2 0 0 1 6.48 9H6a.5.5 0 0 0 0 1h1.5a.5.5 0 0 0 .5-.5V8a.5.5 0 0 0-1 0Zm-1.55 5.25a3 3 0 0 0 2.17-.88.5.5 0 1 0-.7-.7 2 2 0 0 1-2.39.33H5a.5.5 0 0 0 0-1H3.5a.5.5 0 0 0-.5.5V13a.5.5 0 0 0 1 0v-.15a3.02 3.02 0 0 0 1.45.4Z"/></svg>