<svg width="16" height="16" viewBox="0 0 16 16" xmlns="http://www.w3.org/2000/svg"><path d="M9 1v3.5c0 .83.67 1.5 1.5 1.5H14v7.5c0 .83-.67 1.5-1.5 1.5H8.66A5.5 5.5 0 0 0 4 5.2V2.5C4 1.67 4.67 1 5.5 1H9Zm1 .25V4.5c0 .28.22.5.5.5h3.25L10 1.25ZM5.5 15a4.5 4.5 0 1 1 0-9 4.5 4.5 0 0 1 0 9ZM7 8v.15a3 3 0 0 0-3.62.48.5.5 0 0 0 .7.7A2 2 0 0 1 6.48 9H6a.5.5 0 0 0 0 1h1.5a.5.5 0 0 0 .5-.5V8a.5.5 0 0 0-1 0Zm-1.55 5.25a3 3 0 0 0 2.17-.88.5.5 0 1 0-.7-.7 2 2 0 0 1-2.39.33H5a.5.5 0 0 0 0-1H3.5a.5.5 0 0 0-.5.5V13a.5.5 0 0 0 1 0v-.15a3.02 3.02 0 0 0 1.45.4Z"/></svg>