<svg width="20" height="20" viewBox="0 0 20 20" xmlns="http://www.w3.org/2000/svg"><path d="m14.88.28.35 1.07a2.2 2.2 0 0 0 1.4 1.4l1.07.35h.02a.42.42 0 0 1 0 .8l-1.07.35a2.2 2.2 0 0 0-1.4 1.4l-.35 1.07a.42.42 0 0 1-.8 0l-.35-1.07a2.23 2.23 0 0 0-1.4-1.4l-1.07-.35a.42.42 0 0 1 0-.8l1.07-.35a2.2 2.2 0 0 0 1.38-1.4l.35-1.07a.42.42 0 0 1 .8 0Zm4.9 7.93-.76-.25a1.58 1.58 0 0 1-1-1l-.25-.76a.3.3 0 0 0-.57 0l-.25.77a1.58 1.58 0 0 1-.98 1l-.77.24a.3.3 0 0 0 0 .57l.77.25a1.58 1.58 0 0 1 1 1l.24.77a.3.3 0 0 0 .58 0l.24-.77a1.58 1.58 0 0 1 1-1l.77-.24a.3.3 0 0 0 0-.57h-.02ZM10 3.5c0-.17.04-.34.1-.5h-.85a.75.75 0 0 0 0 1.5h1.18a1.43 1.43 0 0 1-.43-1Zm-6.25 8a.75.75 0 0 1-.75-.75v-1.5a.75.75 0 0 1 1.5 0v1.5c0 .41-.34.75-.75.75Zm5.5 4a.75.75 0 0 0 0 1.5h1.5a.75.75 0 0 0 0-1.5h-1.5ZM5.25 3a.75.75 0 0 1 0 1.5.75.75 0 0 0-.75.75.75.75 0 0 1-1.5 0C3 4.01 4 3 5.25 3ZM6 16.25c0 .41-.34.75-.75.75C4.01 17 3 16 3 14.75a.75.75 0 0 1 1.5 0c0 .41.34.75.75.75s.75.34.75.75Zm8 0c0 .41.34.75.75.75 1.24 0 2.25-1 2.25-2.25a.75.75 0 0 0-1.5 0c0 .41-.34.75-.75.75a.75.75 0 0 0-.75.75Z"/></svg>