<svg width="32" height="32" viewBox="0 0 32 32" xmlns="http://www.w3.org/2000/svg"><path d="M21.77 7.84a3.49 3.49 0 0 0-1.64-1.17l-1.69-.55a.67.67 0 0 1 0-1.25l1.69-.55a3.47 3.47 0 0 0 2.15-2.15l.01-.04.55-1.69a.66.66 0 0 1 1.25 0l.55 1.69a3.47 3.47 0 0 0 2.2 2.2l1.68.54h.04a.67.67 0 0 1 0 1.26l-1.69.55a3.47 3.47 0 0 0-2.2 2.2l-.54 1.68-.02.04a.66.66 0 0 1-1.24-.04l-.54-1.69a3.46 3.46 0 0 0-.56-1.03Zm-3.14-4.62-.63.22A2.17 2.17 0 0 0 16.56 5H14a1 1 0 1 1 0-2h4a1 1 0 0 1 .63.22ZM14 27a1 1 0 1 0 0 2h4a1 1 0 1 0 0-2h-4ZM4 19a1 1 0 0 1-1-1v-4a1 1 0 1 1 2 0v4a1 1 0 0 1-1 1ZM9 4a1 1 0 0 0-1-1h-.25A4.75 4.75 0 0 0 3 7.75V8a1 1 0 0 0 2 0v-.25A2.75 2.75 0 0 1 7.75 5H8a1 1 0 0 0 1-1ZM8 29a1 1 0 1 0 0-2h-.25A2.75 2.75 0 0 1 5 24.25V24a1 1 0 1 0-2 0v.25A4.75 4.75 0 0 0 7.75 29H8Zm16 0a1 1 0 1 1 0-2h.25A2.75 2.75 0 0 0 27 24.25V24a1 1 0 1 1 2 0v.25A4.75 4.75 0 0 1 24.25 29H24Zm6.82-16.64.92.3h.02a.36.36 0 0 1 0 .68l-.92.3a1.9 1.9 0 0 0-1.2 1.2l-.3.92a.36.36 0 0 1-.68 0l-.3-.92a1.9 1.9 0 0 0-1.2-1.2l-.92-.3a.36.36 0 0 1 0-.68l.92-.3a1.9 1.9 0 0 0 1.18-1.2l.3-.92a.36.36 0 0 1 .68 0l.3.92a1.89 1.89 0 0 0 1.2 1.2Z"/></svg>