<svg width="48" height="48" viewBox="0 0 48 48" xmlns="http://www.w3.org/2000/svg"><path d="M32.83 12.11a5.36 5.36 0 0 0-2.54-1.8l-2.6-.85a1.03 1.03 0 0 1 0-1.94l2.6-.84a5.36 5.36 0 0 0 3.32-3.33l.02-.06.85-2.6a1.03 1.03 0 0 1 1.94 0l.84 2.6a5.36 5.36 0 0 0 3.4 3.39l2.6.84.05.02a1.03 1.03 0 0 1 0 1.94l-2.6.84a5.36 5.36 0 0 0-3.4 3.4l-.84 2.6-.03.06a1.03 1.03 0 0 1-1.9-.07l-.86-2.6a5.35 5.35 0 0 0-.85-1.6Zm14.78 6.87-1.38-.44a2.84 2.84 0 0 1-1.8-1.8L44 15.36a.54.54 0 0 0-1.03 0l-.45 1.38a2.84 2.84 0 0 1-1.77 1.8l-1.38.44a.54.54 0 0 0 0 1.03l1.38.45c.15.05.3.11.44.18v.02a2.84 2.84 0 0 1 1.36 1.61l.45 1.38a.54.54 0 0 0 1 .04v-.01a.5.5 0 0 0 .02-.04l.45-1.38a2.84 2.84 0 0 1 1.8-1.8l1.38-.44a.54.54 0 0 0 0-1.03h-.03ZM25.56 6.77c.22-.3.49-.56.8-.77h-5.11a1.25 1.25 0 1 0 0 2.5H25a3 3 0 0 1 .56-1.73ZM20 40.75c0 .69.56 1.25 1.25 1.25h5.5a1.25 1.25 0 1 0 0-2.5h-5.5c-.69 0-1.25.56-1.25 1.25Zm-14-14a1.25 1.25 0 1 0 2.5 0v-5.5a1.25 1.25 0 1 0-2.5 0v5.5ZM12.75 6a1.25 1.25 0 1 1 0 2.5h-.5a3.75 3.75 0 0 0-3.75 3.75v.5a1.25 1.25 0 1 1-2.5 0v-.5C6 8.8 8.8 6 12.25 6h.5ZM14 40.75c0 .69-.56 1.25-1.25 1.25h-.5A6.25 6.25 0 0 1 6 35.75v-.5a1.25 1.25 0 1 1 2.5 0v.5a3.75 3.75 0 0 0 3.75 3.75h.5c.69 0 1.25.56 1.25 1.25Zm20 0c0 .69.56 1.25 1.25 1.25h.5C39.2 42 42 39.2 42 35.75v-.5a1.25 1.25 0 1 0-2.5 0v.5a3.75 3.75 0 0 1-3.75 3.75h-.5c-.69 0-1.25.56-1.25 1.25Z"/></svg>