<svg width="24" height="24" viewBox="0 0 24 24" xmlns="http://www.w3.org/2000/svg"><path d="M16.09 6.41a2.84 2.84 0 0 0-1.35-.95L13.36 5a.54.54 0 0 1 0-1.03l1.38-.44a2.84 2.84 0 0 0 1.76-1.77l.01-.03.45-1.38a.54.54 0 0 1 1.03 0l.44 1.38a2.84 2.84 0 0 0 1.8 1.8l1.38.44.03.01a.54.54 0 0 1 0 1.03l-1.38.44a2.84 2.84 0 0 0-1.8 1.8l-.45 1.38a.54.54 0 0 1-1.03 0l-.44-1.38c-.1-.3-.25-.6-.45-.85Zm7.7 3.8-.77-.25a1.58 1.58 0 0 1-1-1l-.25-.76a.3.3 0 0 0-.57 0l-.25.77a1.58 1.58 0 0 1-.98 1l-.77.24a.3.3 0 0 0 0 .57l.77.25a1.58 1.58 0 0 1 1 1l.24.77a.3.3 0 0 0 .58 0l.24-.77a1.58 1.58 0 0 1 1-1l.77-.24a.3.3 0 0 0 0-.57h-.02ZM12.27 3.57c.2-.26.46-.46.77-.57h-2.3a.75.75 0 0 0 0 1.5H12a1.6 1.6 0 0 1 .28-.93ZM3.75 10c.41 0 .75.34.75.75v2.5a.75.75 0 0 1-1.5 0v-2.5c0-.41.34-.75.75-.75ZM14 20.25c0 .41-.34.75-.75.75h-2.5a.75.75 0 0 1 0-1.5h2.5c.41 0 .75.34.75.75ZM6.25 3a.75.75 0 0 1 0 1.5h-.5c-.69 0-1.25.56-1.25 1.25v.5a.75.75 0 0 1-1.5 0v-.5A2.75 2.75 0 0 1 5.75 3h.5Zm0 18a.75.75 0 0 0 0-1.5h-.5c-.69 0-1.25-.56-1.25-1.25v-.5a.75.75 0 0 0-1.5 0v.5A2.75 2.75 0 0 0 5.75 21h.5ZM17 20.25c0 .41.34.75.75.75h.5A2.75 2.75 0 0 0 21 18.25v-.5a.75.75 0 0 0-1.5 0v.5c0 .69-.56 1.25-1.25 1.25h-.5a.75.75 0 0 0-.75.75Z"/></svg>