<svg width="48" height="48" viewBox="0 0 48 48" xmlns="http://www.w3.org/2000/svg"><path d="M25.08 6.42A1.75 1.75 0 0 1 28 7.72v32.56c0 1.51-1.8 2.31-2.92 1.3l-8.2-7.36c-.88-.79-2-1.22-3.18-1.22H9a5.25 5.25 0 0 1-5.25-5.25v-7.5C3.75 17.35 6.1 15 9 15h4.7c1.17 0 2.3-.43 3.18-1.21l8.2-7.37Zm.42 2.98-6.95 6.25a7.25 7.25 0 0 1-4.85 1.85H9a2.75 2.75 0 0 0-2.75 2.75v7.5A2.75 2.75 0 0 0 9 30.5h4.7c1.79 0 3.51.66 4.85 1.86l6.95 6.24V9.4Zm6.83 5c.47-.5 1.26-.54 1.77-.07v.01l.02.02a3.13 3.13 0 0 1 .18.17c.12.12.27.3.45.51a13.98 13.98 0 0 1-.59 18.56l-.01.02-.03.03h-.01v.01a1.25 1.25 0 0 1-1.71-1.82l.01-.02a4.2 4.2 0 0 0 .43-.47 11.48 11.48 0 0 0-.43-15.17l-.01-.02a1.25 1.25 0 0 1-.07-1.76Zm1.77-.07.06.07a.45.45 0 0 1-.06-.07Z"/></svg>