<svg width="32" height="32" viewBox="0 0 32 32" xmlns="http://www.w3.org/2000/svg"><path d="M18.1 2.78a3.25 3.25 0 00-4.2 0l-9.75 8.28A3.25 3.25 0 003 13.54v12.21C3 27.55 4.45 29 6.25 29h19.5c1.8 0 3.25-1.45 3.25-3.25V13.54c0-.95-.42-1.86-1.15-2.48L18.1 2.78zM12 16.5a1.5 1.5 0 11-3 0 1.5 1.5 0 013 0zM10.5 23a1.5 1.5 0 110-3 1.5 1.5 0 010 3zm5.5 0a1.5 1.5 0 110-3 1.5 1.5 0 010 3zm0-5a1.5 1.5 0 110-3 1.5 1.5 0 010 3zm5.5 0a1.5 1.5 0 110-3 1.5 1.5 0 010 3zm0 5a1.5 1.5 0 110-3 1.5 1.5 0 010 3z"/></svg>