<svg width="32" height="32" viewBox="0 0 32 32" xmlns="http://www.w3.org/2000/svg"><path d="M15.19 4.3c.47-.4 1.15-.4 1.62 0l9.75 8.29c.28.24.44.58.44.95v12.21c0 .7-.56 1.25-1.25 1.25H6.25C5.55 27 5 26.44 5 25.75V13.54c0-.37.16-.71.44-.95l9.75-8.29zm2.91-1.52a3.25 3.25 0 00-4.2 0l-9.75 8.28A3.25 3.25 0 003 13.54v12.21C3 27.55 4.45 29 6.25 29h19.5c1.8 0 3.25-1.45 3.25-3.25V13.54c0-.95-.42-1.86-1.15-2.48L18.1 2.78zM12 16.5a1.5 1.5 0 11-3 0 1.5 1.5 0 013 0zM10.5 23a1.5 1.5 0 100-3 1.5 1.5 0 000 3zm5.5 0a1.5 1.5 0 100-3 1.5 1.5 0 000 3zm0-5a1.5 1.5 0 100-3 1.5 1.5 0 000 3zm5.5 0a1.5 1.5 0 100-3 1.5 1.5 0 000 3zm0 5a1.5 1.5 0 100-3 1.5 1.5 0 000 3z"/></svg>