<svg width="24" height="24" viewBox="0 0 24 24" xmlns="http://www.w3.org/2000/svg"><path d="M13.44 2.53c-.84-.7-2.07-.7-2.9 0L3.8 8.23C3.3 8.66 3 9.3 3 9.95v9.3c0 .97.78 1.75 1.75 1.75h14.5c.97 0 1.75-.78 1.75-1.75v-9.3c0-.66-.3-1.3-.8-1.72l-6.76-5.7zM9 11.75a1.25 1.25 0 11-2.5 0 1.25 1.25 0 012.5 0zm4.25 0a1.25 1.25 0 11-2.5 0 1.25 1.25 0 012.5 0zm4.25 0a1.25 1.25 0 11-2.5 0 1.25 1.25 0 012.5 0zm-8.5 4a1.25 1.25 0 11-2.5 0 1.25 1.25 0 012.5 0zM12 17a1.25 1.25 0 110-2.5 1.25 1.25 0 010 2.5zm4.25 0a1.25 1.25 0 110-2.5 1.25 1.25 0 010 2.5z"/></svg>