<svg width="28" height="28" viewBox="0 0 28 28" xmlns="http://www.w3.org/2000/svg"><path d="M27 7.5a6.5 6.5 0 11-13 0 6.5 6.5 0 0113 0zm-9.15-3.35a.5.5 0 00-.7.7l2.64 2.65-2.64 2.65a.5.5 0 00.7.7l2.65-2.64 2.65 2.64a.5.5 0 00.7-.7L21.21 7.5l2.64-2.65a.5.5 0 00-.7-.7L20.5 6.79l-2.65-2.64zm5.65 15.6v-5.37a7.49 7.49 0 001.5-.88v6.25a3.25 3.25 0 01-3.07 3.24l-.18.01H6.25a3.25 3.25 0 01-3.24-3.07L3 19.75V8.25a3.25 3.25 0 013.07-3.24L6.25 5h7.18c-.17.48-.3.98-.36 1.5H6.25c-.92 0-1.67.7-1.74 1.6l-.01.15v.96l9.5 4.94 1.7-.88c.45.36.93.68 1.45.94l-2.8 1.46a.75.75 0 01-.58.04l-.12-.04L4.5 10.9v8.85c0 .92.7 1.67 1.6 1.74l.15.01h15.5c.92 0 1.67-.7 1.74-1.6l.01-.15z"/></svg>