<svg width="24" height="24" viewBox="0 0 24 24" xmlns="http://www.w3.org/2000/svg"><path d="M6.25 3a.75.75 0 0 1 0 1.5h-.5c-.69 0-1.25.56-1.25 1.25v.5a.75.75 0 0 1-1.5 0v-.5A2.75 2.75 0 0 1 5.75 3h.5Zm11.5 0a.75.75 0 0 0 0 1.5h.5c.69 0 1.25.56 1.25 1.25v.5a.75.75 0 0 0 1.5 0v-.5A2.75 2.75 0 0 0 18.25 3h-.5Zm-14 7c.41 0 .75.34.75.75v2.5a.75.75 0 0 1-1.5 0v-2.5c0-.41.34-.75.75-.75Zm15.75.75a.75.75 0 0 1 1.5 0v2.5a.75.75 0 0 1-1.5 0v-2.5Zm-5.5-7c0 .41-.34.75-.75.75h-2.5a.75.75 0 0 1 0-1.5h2.5c.41 0 .75.34.75.75Zm-11 14a.75.75 0 0 1 1.5 0v.5c0 .69.56 1.25 1.25 1.25h12.5c.69 0 1.25-.56 1.25-1.25v-.5a.75.75 0 0 1 1.5 0v.5A2.75 2.75 0 0 1 18.25 21H5.75A2.75 2.75 0 0 1 3 18.25v-.5Z"/></svg>