<svg width="16" height="16" viewBox="0 0 16 16" xmlns="http://www.w3.org/2000/svg"><path d="M11.5 2A2.5 2.5 0 0 1 14 4.5v2.1c-.32-.16-.65-.3-1-.4V6H3v5.5c0 .83.67 1.5 1.5 1.5h1.7c.1.35.24.68.4 1H4.5A2.5 2.5 0 0 1 2 11.5v-7A2.5 2.5 0 0 1 4.5 2h7Zm0 1h-7C3.67 3 3 3.67 3 4.5V5h10v-.5c0-.83-.67-1.5-1.5-1.5Zm4.5 8.5a4.5 4.5 0 1 1-9 0 4.5 4.5 0 0 1 9 0Zm-5.12-3a.5.5 0 0 0-.47.33l-.88 2.5A.5.5 0 0 0 10 12h.78l-.51 1.87a.5.5 0 0 0 .9.4l2.25-3.5A.5.5 0 0 0 13 10h-.75l.28-.84a.5.5 0 0 0-.47-.66h-1.18Z"/></svg>