<svg width="16" height="16" viewBox="0 0 16 16" xmlns="http://www.w3.org/2000/svg"><path d="M1 4.5A2.5 2.5 0 0 1 3.5 2h2.09c.4 0 .78.16 1.06.44L8 3.79 5.94 5.85a.5.5 0 0 1-.35.15H1V4.5ZM1 7v4.5A2.5 2.5 0 0 0 3.5 14h3.1A5.5 5.5 0 0 1 15 7.26V6.5A2.5 2.5 0 0 0 12.5 4H9.2L6.66 6.56A1.5 1.5 0 0 1 5.59 7H1Zm9.55 1.15a8.9 8.9 0 0 0-.54 2.85h2.98a8.9 8.9 0 0 0-.54-2.85 2.93 2.93 0 0 0-.53-.91c-.19-.2-.33-.24-.42-.24-.1 0-.23.05-.42.24-.18.19-.36.5-.53.91Zm-.72-.83A9.92 9.92 0 0 0 9 11H7.03a4.5 4.5 0 0 1 2.8-3.68Zm3.34 0a9.92 9.92 0 0 1 .82 3.68h1.98a4.5 4.5 0 0 0-2.8-3.68Zm2.8 4.68H14a9.92 9.92 0 0 1-.82 3.68 4.5 4.5 0 0 0 2.8-3.68Zm-4.47 4c.1 0 .23-.05.42-.24.18-.19.36-.5.53-.91.3-.73.5-1.72.54-2.85h-2.98a8.9 8.9 0 0 0 .54 2.85c.17.42.35.72.53.91.19.2.33.24.42.24Zm-1.67-.32A4.5 4.5 0 0 1 7.03 12H9a9.92 9.92 0 0 0 .82 3.68Z"/></svg>