<svg width="20" height="20" viewBox="0 0 20 20" xmlns="http://www.w3.org/2000/svg"><path d="M2 5.5A2.5 2.5 0 0 1 4.5 3h2.48c.47 0 .91.18 1.24.51L9.5 4.8 7.44 6.85a.5.5 0 0 1-.35.15H2V5.5ZM2 8v6.5A2.5 2.5 0 0 0 4.5 17h5.1a5.5 5.5 0 0 1 8.4-6.74V7.5A2.5 2.5 0 0 0 15.5 5h-4.8L8.16 7.56A1.5 1.5 0 0 1 7.09 8H2Zm11.55 3.15a8.9 8.9 0 0 0-.54 2.85h2.98a8.9 8.9 0 0 0-.54-2.85 2.93 2.93 0 0 0-.53-.91c-.19-.2-.33-.24-.42-.24-.1 0-.23.05-.42.24-.18.19-.36.5-.53.91Zm-.72-.83A9.92 9.92 0 0 0 12 14h-1.98a4.5 4.5 0 0 1 2.8-3.68Zm3.34 0a9.92 9.92 0 0 1 .82 3.68h1.98a4.5 4.5 0 0 0-2.8-3.68Zm2.8 4.68H17a9.92 9.92 0 0 1-.82 3.68 4.5 4.5 0 0 0 2.8-3.68Zm-4.47 4c.1 0 .23-.05.42-.24.18-.19.36-.5.53-.91.3-.73.5-1.72.54-2.85h-2.98a8.9 8.9 0 0 0 .54 2.85c.17.42.35.72.53.91.19.2.33.24.42.24Zm-1.67-.32a4.5 4.5 0 0 1-2.8-3.68H12a9.92 9.92 0 0 0 .82 3.68Z"/></svg>