<svg width="20" height="20" viewBox="0 0 20 20" xmlns="http://www.w3.org/2000/svg"><path d="M11 13.5a.5.5 0 1 1 1 0 .5.5 0 0 1-1 0ZM7.5 13a.5.5 0 1 0 0 1 .5.5 0 0 0 0-1ZM3 4.5A2.5 2.5 0 0 1 5.5 2h8A2.5 2.5 0 0 1 16 4.5v11a2.5 2.5 0 0 1-2.5 2.5h-8A2.5 2.5 0 0 1 3 15.5v-11Zm7 1a.5.5 0 0 0-1 0V6H7.5a.5.5 0 0 0 0 1H9v1H6.5a.5.5 0 0 0 0 1H9v1H6.5a.5.5 0 0 0 0 1H9v1H7.5a1.5 1.5 0 1 0 1.41 1h1.18a1.5 1.5 0 1 0 1.41-1H10v-1h2.5a.5.5 0 0 0 0-1H10V9h2.5a.5.5 0 0 0 0-1H10V7h1.5a.5.5 0 0 0 0-1H10v-.5Z"/></svg>