<svg width="16" height="16" viewBox="0 0 16 16" xmlns="http://www.w3.org/2000/svg"><path d="M3.75 2C2.78 2 2 2.78 2 3.75v7.75A2.5 2.5 0 0 0 4.5 14h7a2.5 2.5 0 0 0 2.5-2.5V10h-3V3.75C11 2.78 10.22 2 9.25 2h-5.5ZM11 11h2v.5c0 .83-.67 1.5-1.5 1.5H11v-2ZM3 3.75c0-.41.34-.75.75-.75h5.5c.41 0 .75.34.75.75V13H4.5A1.5 1.5 0 0 1 3 11.5V3.75ZM4.5 5.5c0-.28.22-.5.5-.5h3a.5.5 0 0 1 0 1H5a.5.5 0 0 1-.5-.5Zm0 2.5c0-.28.22-.5.5-.5h3a.5.5 0 0 1 0 1H5a.5.5 0 0 1-.5-.5Zm.5 2a.5.5 0 0 0 0 1h1.5a.5.5 0 0 0 0-1H5Z"/></svg>