<svg width="24" height="24" viewBox="0 0 24 24" xmlns="http://www.w3.org/2000/svg"><path d="M3 5.25C3 4.01 4 3 5.25 3h9.5C15.99 3 17 4 17 5.25V14h4v3.75c0 1.8-1.46 3.25-3.25 3.25H6.25A3.25 3.25 0 0 1 3 17.75V5.25ZM17 19.5h.75c.97 0 1.75-.78 1.75-1.75V15.5H17v4ZM5.25 4.5a.75.75 0 0 0-.75.75v12.5c0 .97.78 1.75 1.75 1.75h9.25V5.25a.75.75 0 0 0-.75-.75h-9.5Zm2 2.5a.75.75 0 0 0 0 1.5h5.5a.75.75 0 0 0 0-1.5h-5.5Zm-.75 4.75c0-.41.34-.75.75-.75h5.5a.75.75 0 0 1 0 1.5h-5.5a.75.75 0 0 1-.75-.75ZM7.25 15a.75.75 0 0 0 0 1.5h3a.75.75 0 0 0 0-1.5h-3Z"/></svg>