<svg width="28" height="28" viewBox="0 0 28 28" xmlns="http://www.w3.org/2000/svg"><path d="M3 5.75A2.75 2.75 0 0 1 5.75 3h11.5A2.75 2.75 0 0 1 20 5.75V17h5v4.25A3.75 3.75 0 0 1 21.25 25H6.75A3.75 3.75 0 0 1 3 21.25V5.75ZM20 23.5h1.25c1.24 0 2.25-1 2.25-2.25V18.5H20v5ZM5.75 4.5c-.69 0-1.25.56-1.25 1.25v15.5c0 1.24 1 2.25 2.25 2.25H18.5V5.75c0-.69-.56-1.25-1.25-1.25H5.75Zm2 3.5a.75.75 0 0 0 0 1.5h7.5a.75.75 0 0 0 0-1.5h-7.5ZM7 13.75c0-.41.34-.75.75-.75h7.5a.75.75 0 0 1 0 1.5h-7.5a.75.75 0 0 1-.75-.75ZM7.75 18a.75.75 0 0 0 0 1.5h3.5a.75.75 0 0 0 0-1.5h-3.5Z"/></svg>