<svg width="20" height="20" viewBox="0 0 20 20" xmlns="http://www.w3.org/2000/svg"><path d="M11 16.67A.67.67 0 1 1 11 18a.67.67 0 0 1 0-1.33ZM8.67 16a.67.67 0 1 1 0 1.33.67.67 0 0 1 0-1.33Zm4.66 0a.67.67 0 1 1 0 1.33.67.67 0 0 1 0-1.33ZM11 6c2.46 0 3.86 1.57 4.07 3.47h.06A2.82 2.82 0 0 1 18 12.24 2.82 2.82 0 0 1 15.13 15H6.87A2.82 2.82 0 0 1 4 12.24c0-1.47 1.2-2.67 2.7-2.76h.23C7.13 7.55 8.53 6 11 6ZM5.84 2a4.24 4.24 0 0 1 3.88 3.14 4.56 4.56 0 0 0-3.47 3.14l-.07.22-.04.19-.17.03c-.89.18-1.66.67-2.2 1.36l-.28-.15A4.24 4.24 0 0 1 2.1 8.66a.63.63 0 0 1 .3-.95c1.38-.49 2.12-1.04 2.55-1.85.46-.89.55-1.82.24-3.08-.1-.41.22-.8.64-.78Z"/></svg>