<svg width="24" height="24" viewBox="0 0 24 24" xmlns="http://www.w3.org/2000/svg"><path d="M13 20a1 1 0 1 1 0 2 1 1 0 0 1 0-2Zm-3.5-1a1 1 0 1 1 0 2 1 1 0 0 1 0-2Zm7 0a1 1 0 1 1 0 2 1 1 0 0 1 0-2ZM13 6c3.17 0 4.97 2.1 5.23 4.64h.08a3.69 3.69 0 1 1 0 7.36H7.69a3.69 3.69 0 1 1 0-7.36h.08A4.95 4.95 0 0 1 13 6Zm0 1.5a3.86 3.86 0 0 0-3.88 3.9c0 .35-.31.63-.68.63h-.69c-1.26 0-2.28 1-2.28 2.24a2.26 2.26 0 0 0 2.28 2.24h10.5c1.26 0 2.29-1 2.29-2.24a2.26 2.26 0 0 0-2.29-2.24h-.69c-.36 0-.68-.28-.68-.63 0-2.29-1.8-3.9-3.88-3.9ZM6.6 2a5.06 5.06 0 0 1 4.47 3.27c-.5.14-.96.34-1.39.58A3.55 3.55 0 0 0 7.48 3.7a5.97 5.97 0 0 1-.62 3.61l-.12.22a5.75 5.75 0 0 1-2.71 2.3 3.6 3.6 0 0 0 1.06.61c-.45.3-.84.69-1.16 1.12l-.16-.08a5.06 5.06 0 0 1-1.64-1.52.75.75 0 0 1 .37-1.13c1.64-.59 2.53-1.25 3.03-2.21.55-1.06.66-2.18.29-3.68A.75.75 0 0 1 6.59 2Z"/></svg>