<svg width="48" height="48" viewBox="0 0 48 48" xmlns="http://www.w3.org/2000/svg"><path d="M26 40.03a2 2 0 1 1 0 4 2 2 0 0 1 0-4Zm-7-2a2 2 0 1 1 0 4 2 2 0 0 1 0-4Zm14 0a2 2 0 1 1 0 4 2 2 0 0 1 0-4Zm-7-26.02c6.34 0 9.93 4.2 10.45 9.26h.16a7.37 7.37 0 1 1 0 14.73H15.38a7.37 7.37 0 1 1 0-14.73h.16c.53-5.1 4.12-9.26 10.46-9.26Zm0 2.5a8.04 8.04 0 0 0-7.98 8.2c0 .76-.65 1.35-1.4 1.35H15.2a4.7 4.7 0 0 0-4.7 4.72 4.7 4.7 0 0 0 4.7 4.72h21.6a4.7 4.7 0 0 0 4.7-4.72 4.7 4.7 0 0 0-4.7-4.72h-1.42c-.75 0-1.4-.59-1.4-1.34A8 8 0 0 0 26 14.5ZM13.18 4a10.12 10.12 0 0 1 8.94 6.53c-.77.22-1.5.51-2.19.86-.64-1.74-2.06-3.16-3.99-4.26a6.38 6.38 0 0 0-1.42-.6c.36 3.05.24 5.11-1.06 7.58l-.27.48c-1.3 2.2-3.2 3.5-6.12 4.84a10.45 10.45 0 0 0 2.61 1.8c-.69.53-1.3 1.16-1.82 1.87l-.31-.17a10.12 10.12 0 0 1-3.28-3.03A1.5 1.5 0 0 1 5 17.64c3.28-1.17 5.05-2.5 6.06-4.43 1.1-2.1 1.31-4.35.58-7.35A1.5 1.5 0 0 1 13.18 4Z"/></svg>