<svg width="16" height="16" viewBox="0 0 16 16" xmlns="http://www.w3.org/2000/svg"><path d="M13.2 1.46c.38.17.8.49.8 1.04 0 .54-.39.86-.76 1.03-.38.18-.87.28-1.4.34A35 35 0 018.03 4H8c-1.39 0-2.73 0-3.72.12-.5.06-.87.15-1.1.25a.53.53 0 00-.17.12c0 .03.07.14.37.26.36.15.91.25 1.62.25v1c-.8 0-1.49-.11-2-.33-.47-.2-1-.56-1-1.17 0-.54.39-.86.76-1.03.38-.18.87-.28 1.4-.34A35 35 0 017.97 3H8c1.39 0 2.73 0 3.72-.12.5-.06.87-.15 1.1-.25.1-.06.16-.1.17-.12a.59.59 0 00-.2-.13c-.24-.11-.63-.2-1.17-.26A40.16 40.16 0 007.58 2a.5.5 0 010-1h.02c1.5 0 3 0 4.13.13.57.06 1.08.16 1.47.33zM7.5 6a.5.5 0 00-.5.5v4a.5.5 0 01-.74.44l-1.08-.58a.82.82 0 00-1.15.42l2.34 1.58c.73.4 1.28.96 1.62 1.37.17.2.4.3.6.26l1.9-.28a.5.5 0 00.41-.38l.55-2.22a1.5 1.5 0 00-1.23-1.84l-1.8-.28A.5.5 0 018 8.5v-2a.5.5 0 00-.5-.5zM6 6.5a1.5 1.5 0 113 0v1.57l1.37.2a2.5 2.5 0 012.05 3.09l-.55 2.21a1.5 1.5 0 01-1.23 1.12l-1.9.3c-.6.09-1.17-.2-1.52-.62a4.7 4.7 0 00-1.4-1.17l-2.45-1.66a.83.83 0 01-.35-.87 1.82 1.82 0 012.64-1.2l.34.2V6.5z"/></svg>