<svg width="16" height="16" viewBox="0 0 16 16" xmlns="http://www.w3.org/2000/svg"><path d="M3.42 4.13a5.98 5.98 0 0 0 .8 8.53.5.5 0 0 0 .63-.78 4.99 4.99 0 0 1-.72-7.04l7.03 7.03A4.98 4.98 0 0 1 8.21 13l.64-.65a.5.5 0 0 0-.7-.7l-1.5 1.5a.5.5 0 0 0 0 .7l1.5 1.5a.5.5 0 0 0 .7-.7L8.2 14a5.97 5.97 0 0 0 3.67-1.42l2.28 2.27a.5.5 0 0 0 .7-.7l-13-13a.5.5 0 1 0-.7.7l2.27 2.28Zm9.01 6.18.74.74a5.97 5.97 0 0 0-1.4-7.71.5.5 0 1 0-.62.78 4.99 4.99 0 0 1 1.28 6.2ZM4.95 2.83l.74.74A4.97 4.97 0 0 1 7.79 3l-.64.65a.5.5 0 1 0 .7.7l1.5-1.5a.5.5 0 0 0 0-.7L7.85.65a.5.5 0 1 0-.7.7L7.8 2c-1.04.04-2 .34-2.85.83Z"/></svg>