<svg width="24" height="24" viewBox="0 0 24 24" xmlns="http://www.w3.org/2000/svg"><path d="M23 6.5a5.5 5.5 0 1 1-11 0 5.5 5.5 0 0 1 11 0Zm-9.5 0c0 .83.26 1.6.7 2.25l5.55-5.56a4 4 0 0 0-6.25 3.3Zm4 4a4 4 0 0 0 3.3-6.25l-5.55 5.56c.64.43 1.42.69 2.25.69Zm0 2.5c1.75 0 3.33-.69 4.5-1.81v5.56a3.25 3.25 0 0 1-3.07 3.24l-.18.01H5.25a3.25 3.25 0 0 1-3.24-3.07L2 16.75V8.61l9.65 5.05c.22.12.48.12.7 0l2.41-1.26c.84.38 1.76.6 2.74.6ZM5.25 4h6.25a6.48 6.48 0 0 0 1.8 7.47l-1.3.68-9.98-5.23a3.25 3.25 0 0 1 3.04-2.91L5.25 4Z"/></svg>