<svg width="28" height="28" viewBox="0 0 28 28" xmlns="http://www.w3.org/2000/svg"><path d="M20.5 14a6.5 6.5 0 100-13 6.5 6.5 0 000 13zm0-1.5a4.98 4.98 0 01-2.97-.97l7-7a5 5 0 01-4.03 7.97zm2.97-9.03l-7 7a5 5 0 017-7zm.03 10.9v5.52c-.08.9-.83 1.61-1.75 1.61H6.11c-.9-.08-1.61-.83-1.61-1.75V10.9l9.15 4.77.12.04c.19.07.4.05.58-.04l2.8-1.46c-.52-.26-1-.58-1.44-.94l-1.71.88-9.5-4.94v-1.1c.08-.9.83-1.61 1.75-1.61h6.82c.07-.52.19-1.02.36-1.5H6.07A3.25 3.25 0 003 8.26v11.68A3.25 3.25 0 006.26 23h15.68A3.25 3.25 0 0025 19.74V13.5c-.46.35-.96.64-1.5.88z"/></svg>