<svg width="20" height="20" viewBox="0 0 20 20" xmlns="http://www.w3.org/2000/svg"><path d="M5.5 3A2.5 2.5 0 003 5.5v9A2.5 2.5 0 005.5 17h4.1A5.5 5.5 0 0117 9.6V5.5A2.5 2.5 0 0014.5 3h-9zm9 6H10a.5.5 0 010-1h4.5a.5.5 0 010 1zm-9-4h9a.5.5 0 010 1h-9a.5.5 0 010-1zm1.25 3a.75.75 0 100 1.5.75.75 0 000-1.5zM5 8.75a1.75 1.75 0 113.5 0 1.75 1.75 0 01-3.5 0zm1 4.5a.75.75 0 111.5 0 .75.75 0 01-1.5 0zm.75-1.75a1.75 1.75 0 110 3.5 1.75 1.75 0 010-3.5zm12.25 3a4.5 4.5 0 11-9 0 4.5 4.5 0 019 0zm-4-2a.5.5 0 00-1 0V14h-1.5a.5.5 0 000 1H14v1.5a.5.5 0 001 0V15h1.5a.5.5 0 000-1H15v-1.5z"/></svg>