<svg width="24" height="24" viewBox="0 0 24 24" xmlns="http://www.w3.org/2000/svg"><path d="M7.5 10.75a.75.75 0 1 1 1.5 0 .75.75 0 0 1-1.5 0Zm.75 4.75a.75.75 0 1 0 0 1.5.75.75 0 0 0 0-1.5ZM3 6.25C3 4.45 4.46 3 6.25 3h11.5C19.55 3 21 4.46 21 6.25v5.77a6.46 6.46 0 0 0-3.05-1 .75.75 0 0 0-.7-1.02h-4.5a.75.75 0 0 0 0 1.5H15a6.5 6.5 0 0 0-2.98 9.5H6.25A3.25 3.25 0 0 1 3 17.75V6.25Zm3 4.5a2.25 2.25 0 1 0 4.5 0 2.25 2.25 0 0 0-4.5 0ZM8.25 14a2.25 2.25 0 1 0 0 4.5 2.25 2.25 0 0 0 0-4.5ZM6 6.25c0 .41.34.75.75.75h10.5a.75.75 0 0 0 0-1.5H6.75a.75.75 0 0 0-.75.75ZM23 17.5a5.5 5.5 0 1 0-11 0 5.5 5.5 0 0 0 11 0Zm-5 .5v2.5a.5.5 0 1 1-1 0V18h-2.5a.5.5 0 0 1 0-1H17v-2.5a.5.5 0 1 1 1 0V17h2.5a.5.5 0 0 1 0 1H18Z"/></svg>