<svg width="48" height="48" viewBox="0 0 48 48" xmlns="http://www.w3.org/2000/svg"><path d="M12.5 21.5a2 2 0 114 0 2 2 0 01-4 0zm2 10a2 2 0 100 4 2 2 0 000-4zM6 11.25C6 8.35 8.35 6 11.25 6h25.5C39.65 6 42 8.35 42 11.25v12.8A13 13 0 0024.04 42H11.25A5.25 5.25 0 016 36.74v-25.5zM14.5 17a4.5 4.5 0 100 9 4.5 4.5 0 000-9zM19 33.5a4.5 4.5 0 10-9 0 4.5 4.5 0 009 0zm3.25-15a1.25 1.25 0 100 2.5h14.5a1.25 1.25 0 000-2.5h-14.5zM35 46a11 11 0 100-22 11 11 0 000 22zm0-19a1 1 0 011 1v6h6a1 1 0 110 2h-6v6a1 1 0 11-2 0v-6h-6a1 1 0 110-2h6v-6a1 1 0 011-1zM11.25 11a1.25 1.25 0 100 2.5h25.5a1.25 1.25 0 100-2.5h-25.5z"/></svg>