<svg width="48" height="48" viewBox="0 0 48 48" xmlns="http://www.w3.org/2000/svg"><path d="M16.5 23.5a2 2 0 100-4 2 2 0 000 4zm2 9a2 2 0 11-4 0 2 2 0 014 0zM6 12.25C6 8.8 8.8 6 12.25 6h23.5C39.2 6 42 8.8 42 12.25v11.8a12.92 12.92 0 00-6.03-2.01 1.25 1.25 0 00-1.22-1.54h-10.5a1.25 1.25 0 100 2.5h5.74a13 13 0 00-5.95 19H12.25A6.25 6.25 0 016 35.75v-23.5zm15 9.25a4.5 4.5 0 10-9 0 4.5 4.5 0 009 0zM16.5 37a4.5 4.5 0 100-9 4.5 4.5 0 000 9zm-3.25-26a1.25 1.25 0 100 2.5h21.5a1.25 1.25 0 100-2.5h-21.5zM46 35a11 11 0 11-22 0 11 11 0 0122 0zm-10-7a1 1 0 10-2 0v6h-6a1 1 0 100 2h6v6a1 1 0 102 0v-6h6a1 1 0 100-2h-6v-6z"/></svg>