<svg width="24" height="24" viewBox="0 0 24 24" xmlns="http://www.w3.org/2000/svg"><path d="M6.25 3A3.25 3.25 0 003 6.25v11.5C3 19.55 4.46 21 6.25 21h5.77c-.3-.46-.53-.97-.7-1.5H6.24c-.97 0-1.75-.78-1.75-1.75V6.25c0-.97.78-1.75 1.75-1.75h11.5c.97 0 1.75.78 1.75 1.75v5.06c.53.18 1.04.42 1.5.71V6.25C21 4.45 19.54 3 17.75 3H6.25zm11.25 8c.15 0 .3 0 .45.02a.75.75 0 00-.7-1.02h-4.5a.75.75 0 000 1.5H15c.77-.32 1.61-.5 2.5-.5zM6.75 6a.75.75 0 000 1.5h10.5a.75.75 0 000-1.5H6.75zM6 10.75a2.25 2.25 0 114.5 0 2.25 2.25 0 01-4.5 0zM8.25 10a.75.75 0 100 1.5.75.75 0 000-1.5zm0 4a2.25 2.25 0 100 4.5 2.25 2.25 0 000-4.5zm-.75 2.25a.75.75 0 111.5 0 .75.75 0 01-1.5 0zM23 17.5a5.5 5.5 0 10-11 0 5.5 5.5 0 0011 0zm-5 .5v2.5a.5.5 0 11-1 0V18h-2.5a.5.5 0 010-1H17v-2.5a.5.5 0 111 0V17h2.5a.5.5 0 010 1H18z"/></svg>