<svg width="28" height="28" viewBox="0 0 28 28" xmlns="http://www.w3.org/2000/svg"><path d="M7.5 12.5a1 1 0 112 0 1 1 0 01-2 0zm1 6a1 1 0 100 2 1 1 0 000-2zM3 6.75A3.75 3.75 0 016.75 3h14.5A3.75 3.75 0 0125 6.75v7.75a7.47 7.47 0 00-4.5-1.5h.75a.75.75 0 000-1.5h-7.5a.75.75 0 000 1.5h6.75a7.5 7.5 0 00-6 12H6.75A3.75 3.75 0 013 21.25V6.75zm3 5.75a2.5 2.5 0 105 0 2.5 2.5 0 00-5 0zM8.5 17a2.5 2.5 0 100 5 2.5 2.5 0 000-5zM6 6.75c0 .41.34.75.75.75h14.5a.75.75 0 000-1.5H6.75a.75.75 0 00-.75.75zM27 20.5a6.5 6.5 0 11-13 0 6.5 6.5 0 0113 0zm-6-4a.5.5 0 00-1 0V20h-3.5a.5.5 0 000 1H20v3.5a.5.5 0 001 0V21h3.5a.5.5 0 000-1H21v-3.5z"/></svg>