<svg width="28" height="28" viewBox="0 0 28 28" xmlns="http://www.w3.org/2000/svg"><path d="M7.5 12.5a1 1 0 1 1 2 0 1 1 0 0 1-2 0Zm1 6a1 1 0 1 0 0 2 1 1 0 0 0 0-2ZM3 6.75A3.75 3.75 0 0 1 6.75 3h14.5A3.75 3.75 0 0 1 25 6.75v7.75a7.47 7.47 0 0 0-4.5-1.5h.75a.75.75 0 0 0 0-1.5h-7.5a.75.75 0 0 0 0 1.5h6.75a7.5 7.5 0 0 0-6 12H6.75A3.75 3.75 0 0 1 3 21.25V6.75Zm3 5.75a2.5 2.5 0 1 0 5 0 2.5 2.5 0 0 0-5 0ZM8.5 17a2.5 2.5 0 1 0 0 5 2.5 2.5 0 0 0 0-5ZM6 6.75c0 .41.34.75.75.75h14.5a.75.75 0 0 0 0-1.5H6.75a.75.75 0 0 0-.75.75ZM27 20.5a6.5 6.5 0 1 1-13 0 6.5 6.5 0 0 1 13 0Zm-6-4a.5.5 0 0 0-1 0V20h-3.5a.5.5 0 0 0 0 1H20v3.5a.5.5 0 0 0 1 0V21h3.5a.5.5 0 0 0 0-1H21v-3.5Z"/></svg>