<svg width="28" height="28" viewBox="0 0 28 28" xmlns="http://www.w3.org/2000/svg"><path d="M6.25 3A3.25 3.25 0 003 6.25v15.5C3 23.55 4.46 25 6.25 25h8.25a7.49 7.49 0 01-.88-1.5H6.25c-.97 0-1.75-.78-1.75-1.75V6.25c0-.97.78-1.75 1.75-1.75h15.5c.97 0 1.75.78 1.75 1.75v7.37c.54.24 1.04.53 1.5.88V6.25C25 4.45 23.54 3 21.75 3H6.25zm2.25 7a2.5 2.5 0 100 5 2.5 2.5 0 000-5zm-1 2.5a1 1 0 112 0 1 1 0 01-2 0zm-1.5 7a2.5 2.5 0 115 0 2.5 2.5 0 01-5 0zm2.5-1a1 1 0 100 2 1 1 0 000-2zm4.25-7.5a.75.75 0 000 1.5h8.5a.75.75 0 000-1.5h-8.5zm7.75 16a6.5 6.5 0 100-13 6.5 6.5 0 000 13zm0-11c.28 0 .5.22.5.5V20h3.5a.5.5 0 010 1H21v3.5a.5.5 0 01-1 0V21h-3.5a.5.5 0 010-1H20v-3.5c0-.28.22-.5.5-.5zM6.75 6a.75.75 0 000 1.5h14.5a.75.75 0 000-1.5H6.75z"/></svg>