<svg width="48" height="48" viewBox="0 0 48 48" xmlns="http://www.w3.org/2000/svg"><path d="M12.25 6A6.25 6.25 0 006 12.25v23.5C6 39.2 8.8 42 12.25 42h11.8c-.5-.78-.92-1.62-1.25-2.5H12.25a3.75 3.75 0 01-3.75-3.75v-23.5a3.75 3.75 0 013.75-3.75h23.5a3.75 3.75 0 013.75 3.75V22.8c.88.33 1.72.74 2.5 1.24V12.25C42 8.8 39.2 6 35.75 6h-23.5zM35 22c.33 0 .65.01.97.04a1.25 1.25 0 00-1.22-1.54h-10.5a1.25 1.25 0 100 2.5h5.74c1.54-.64 3.23-1 5.01-1zm-23-8.75c0-.69.56-1.25 1.25-1.25h21.5a1.25 1.25 0 110 2.5h-21.5c-.69 0-1.25-.56-1.25-1.25zm9 8.25a4.5 4.5 0 11-9 0 4.5 4.5 0 019 0zm-2.5 0a2 2 0 10-4 0 2 2 0 004 0zm-2 15.5a4.5 4.5 0 100-9 4.5 4.5 0 000 9zm0-2.5a2 2 0 110-4 2 2 0 010 4zM46 35a11 11 0 11-22 0 11 11 0 0122 0zm-10-7a1 1 0 10-2 0v6h-6a1 1 0 100 2h6v6a1 1 0 102 0v-6h6a1 1 0 100-2h-6v-6z"/></svg>