<svg width="48" height="48" viewBox="0 0 48 48" xmlns="http://www.w3.org/2000/svg"><path d="M11.25 6A5.25 5.25 0 006 11.25v25.5C6 39.65 8.35 42 11.25 42h12.8c-.5-.78-.92-1.62-1.25-2.5H11.25a2.75 2.75 0 01-2.75-2.75v-25.5a2.75 2.75 0 012.75-2.75h25.5a2.75 2.75 0 012.75 2.75V22.8c.88.33 1.72.74 2.5 1.24V11.25C42 8.35 39.65 6 36.75 6h-25.5zm3.25 11a4.5 4.5 0 100 9 4.5 4.5 0 000-9zm-2 4.5a2 2 0 114 0 2 2 0 01-4 0zm-2.5 12a4.5 4.5 0 119 0 4.5 4.5 0 01-9 0zm4.5-2a2 2 0 100 4 2 2 0 000-4zM22.25 19a1.25 1.25 0 000 2.5h14.5a1.25 1.25 0 100-2.5h-14.5zM35 46a11 11 0 100-22 11 11 0 000 22zm0-19a1 1 0 011 1v6h6a1 1 0 110 2h-6v6a1 1 0 11-2 0v-6h-6a1 1 0 110-2h6v-6a1 1 0 011-1zM11.25 11a1.25 1.25 0 100 2.5h25.5a1.25 1.25 0 100-2.5h-25.5z"/></svg>