<svg width="28" height="28" viewBox="0 0 28 28" xmlns="http://www.w3.org/2000/svg"><path d="M8.5 11.5a1 1 0 100 2 1 1 0 000-2zm-1 8a1 1 0 112 0 1 1 0 01-2 0zM6.25 3A3.25 3.25 0 003 6.25v15.5C3 23.55 4.46 25 6.25 25h8.25A7.5 7.5 0 0125 14.5V6.25C25 4.45 23.54 3 21.75 3H6.25zM6 12.5a2.5 2.5 0 115 0 2.5 2.5 0 01-5 0zM8.5 22a2.5 2.5 0 110-5 2.5 2.5 0 010 5zM12 11.25c0-.41.34-.75.75-.75h8.5a.75.75 0 010 1.5h-8.5a.75.75 0 01-.75-.75zM20.5 27a6.5 6.5 0 100-13 6.5 6.5 0 000 13zM20 16.5a.5.5 0 011 0V20h3.5a.5.5 0 010 1H21v3.5a.5.5 0 01-1 0V21h-3.5a.5.5 0 010-1H20v-3.5zM6.75 6h14.5a.75.75 0 010 1.5H6.75a.75.75 0 010-1.5z"/></svg>