<svg width="12" height="12" viewBox="0 0 12 12" xmlns="http://www.w3.org/2000/svg"><path d="M2.71 2a1 1 0 0 1 .87-.5h1.16a1 1 0 0 1 .87.5l.58 1a1 1 0 0 1 0 1L5.6 5a1 1 0 0 1-.87.5H3.58a1 1 0 0 1-.87-.5l-.58-1a1 1 0 0 1 0-1l.58-1Zm4.34 2.5A1 1 0 0 1 7.9 4h1.16a1 1 0 0 1 .87.5l.58 1a1 1 0 0 1 0 1l-.58 1a1 1 0 0 1-.87.5H7.91a1 1 0 0 1-.86-.5l-.58-1a1 1 0 0 1 0-1l.58-1Zm-3.47 2a1 1 0 0 0-.87.5l-.58 1a1 1 0 0 0 0 1l.58 1c.18.31.51.5.87.5h1.16a1 1 0 0 0 .87-.5l.58-1a1 1 0 0 0 0-1L5.6 7a1 1 0 0 0-.87-.5H3.58Z"/></svg>