<svg width="12" height="12" viewBox="0 0 12 12" xmlns="http://www.w3.org/2000/svg"><path d="M3.58 1.5a1 1 0 0 0-.87.5l-.58 1a1 1 0 0 0 0 1l.58 1c.18.31.51.5.87.5h1.16a1 1 0 0 0 .87-.5l.58-1a1 1 0 0 0 0-1L5.6 2a1 1 0 0 0-.87-.5H3.58Zm0 1h1.16l.58 1-.58 1H3.58L3 3.5l.58-1Zm3.47 2A1 1 0 0 1 7.9 4h1.16a1 1 0 0 1 .87.5l.58 1a1 1 0 0 1 0 1l-.58 1a1 1 0 0 1-.87.5H7.91a1 1 0 0 1-.86-.5l-.58-1a1 1 0 0 1 0-1l.58-1Zm2.02.5H7.91l-.58 1 .58 1h1.16l.58-1-.58-1ZM2.71 7a1 1 0 0 1 .87-.5h1.16a1 1 0 0 1 .87.5l.58 1a1 1 0 0 1 0 1l-.58 1a1 1 0 0 1-.87.5H3.58a1 1 0 0 1-.87-.5l-.58-1a1 1 0 0 1 0-1l.58-1Zm2.03.5H3.58L3 8.5l.58 1h1.16l.58-1-.58-1Z"/></svg>