<svg width="16" height="16" viewBox="0 0 16 16" xmlns="http://www.w3.org/2000/svg"><path d="M3.47 2a1 1 0 0 1 .87-.5h2.32a1 1 0 0 1 .87.5l1.16 2a1 1 0 0 1 0 1L7.53 7a1 1 0 0 1-.87.5H4.34a1 1 0 0 1-.87-.5L2.31 5a1 1 0 0 1 0-1l1.16-2Zm.87 6.5a1 1 0 0 0-.87.5l-1.16 2a1 1 0 0 0 0 1l1.16 2c.18.31.51.5.87.5h2.32a1 1 0 0 0 .87-.5l1.16-2a1 1 0 0 0 0-1L7.53 9a1 1 0 0 0-.87-.5H4.34Zm5.13-3a1 1 0 0 1 .87-.5h2.32a1 1 0 0 1 .87.5l1.16 2a1 1 0 0 1 0 1l-1.16 2a1 1 0 0 1-.87.5h-2.32a1 1 0 0 1-.87-.5l-1.16-2a1 1 0 0 1 0-1l1.16-2Z"/></svg>