<svg width="16" height="16" viewBox="0 0 16 16" xmlns="http://www.w3.org/2000/svg"><path d="M3.47 2a1 1 0 0 1 .87-.5h2.32a1 1 0 0 1 .87.5l1.16 2a1 1 0 0 1 0 1L7.53 7a1 1 0 0 1-.87.5H4.34a1 1 0 0 1-.87-.5L2.31 5a1 1 0 0 1 0-1l1.16-2Zm3.2.5H4.33l-1.16 2 1.16 2h2.32l1.16-2-1.16-2ZM3.46 9a1 1 0 0 1 .87-.5h2.32a1 1 0 0 1 .87.5l1.16 2a1 1 0 0 1 0 1l-1.16 2a1 1 0 0 1-.87.5H4.34a1 1 0 0 1-.87-.5l-1.16-2a1 1 0 0 1 0-1l1.16-2Zm3.2.5H4.33l-1.16 2 1.16 2h2.32l1.16-2-1.16-2ZM10.33 5a1 1 0 0 0-.87.5l-1.16 2a1 1 0 0 0 0 1l1.16 2c.18.31.51.5.87.5h2.32a1 1 0 0 0 .87-.5l1.16-2a1 1 0 0 0 0-1l-1.16-2a1 1 0 0 0-.87-.5h-2.32Zm0 1h2.32l1.16 2-1.16 2h-2.32L9.18 8l1.16-2Z"/></svg>