<svg width="20" height="20" viewBox="0 0 20 20" xmlns="http://www.w3.org/2000/svg"><path d="M4.62 2.63a.25.25 0 0 1 .22-.13H8c.09 0 .17.05.21.13l1.59 2.75c.04.07.04.17 0 .24L8.22 8.37a.25.25 0 0 1-.21.13H4.84a.25.25 0 0 1-.22-.13L3.03 5.62a.25.25 0 0 1 0-.24l1.59-2.75Zm.22-1.13c-.45 0-.86.24-1.09.63L2.17 4.88c-.23.38-.23.86 0 1.24l1.58 2.75c.23.4.64.63 1.09.63H8c.44 0 .86-.24 1.08-.63l1.58-2.75c.23-.38.23-.86 0-1.24L9.1 2.13A1.25 1.25 0 0 0 8 1.5H4.84ZM12.6 7a.25.25 0 0 0-.22.13l-1.59 2.75a.25.25 0 0 0 0 .24l1.59 2.75c.04.08.13.13.22.13h3.17c.09 0 .17-.05.21-.13l1.59-2.75a.25.25 0 0 0 0-.24l-1.59-2.75a.25.25 0 0 0-.21-.13H12.6Zm-1.09-.37c.23-.4.64-.63 1.09-.63h3.17c.44 0 .86.24 1.08.63l1.58 2.75c.23.38.23.86 0 1.24l-1.58 2.75c-.22.4-.64.63-1.08.63H12.6c-.45 0-.86-.24-1.09-.63l-1.58-2.75a1.25 1.25 0 0 1 0-1.24l1.58-2.75ZM4.84 11.5a.25.25 0 0 0-.22.13l-1.59 2.75a.25.25 0 0 0 0 .24l1.59 2.75c.04.08.13.13.22.13H8c.09 0 .17-.05.21-.13l1.59-2.75a.25.25 0 0 0 0-.24l-1.59-2.75a.25.25 0 0 0-.21-.13H4.84Zm-1.09-.37c.23-.4.64-.63 1.09-.63H8c.44 0 .86.24 1.08.63l1.58 2.75c.23.38.23.86 0 1.24L9.1 17.87c-.22.4-.64.63-1.08.63H4.84c-.45 0-.86-.24-1.09-.63l-1.58-2.75a1.25 1.25 0 0 1 0-1.24l1.58-2.75Z"/></svg>