<svg width="24" height="24" viewBox="0 0 24 24" xmlns="http://www.w3.org/2000/svg"><path d="M6.34 2c-.62 0-1.2.33-1.51.88l-1.6 2.75c-.3.54-.3 1.2 0 1.75l1.6 2.75c.31.54.89.87 1.51.87h3.18c.62 0 1.2-.33 1.51-.88l1.6-2.74c.3-.55.3-1.21 0-1.75l-1.6-2.75A1.75 1.75 0 0 0 9.52 2H6.34ZM4.83 13.88c.31-.55.89-.88 1.51-.88h3.18c.62 0 1.2.33 1.51.88l1.6 2.74c.3.55.3 1.21 0 1.75l-1.6 2.75c-.3.55-.89.88-1.51.88H6.34c-.62 0-1.2-.33-1.51-.88l-1.6-2.75a1.75 1.75 0 0 1 0-1.75l1.6-2.75Zm9.5-5.5c.31-.55.89-.88 1.51-.88h3.18c.62 0 1.2.33 1.51.88l1.6 2.74c.3.55.3 1.21 0 1.76l-1.6 2.74c-.3.55-.89.88-1.51.88h-3.18c-.62 0-1.2-.33-1.51-.88l-1.6-2.74a1.75 1.75 0 0 1 0-1.76l1.6-2.74Z"/></svg>