<svg width="12" height="12" viewBox="0 0 12 12" xmlns="http://www.w3.org/2000/svg"><path d="M5.56 2.55a.84.84 0 0 0-1.03-.51c-.97.3-1.65 1.13-1.5 2.1a8.66 8.66 0 0 0 3.14 5.48c.76.61 1.82.45 2.56-.25.33-.3.36-.82.08-1.16l-.54-.65a.84.84 0 0 0-.9-.28l-1.24.4-.21-.23a4.98 4.98 0 0 1-1.1-1.81 5.02 5.02 0 0 1-.05-.2l-.09-.3.95-.87c.26-.23.35-.6.22-.93l-.29-.79ZM4.23 1.08c.94-.29 1.93.2 2.27 1.12l.3.79c.26.7.07 1.5-.49 2.02l-.49.45a3.64 3.64 0 0 0 .61 1.07l.63-.2c.72-.23 1.51 0 1.99.6l.53.65c.62.75.55 1.85-.16 2.52-1 .93-2.62 1.32-3.87.3A9.8 9.8 0 0 1 2.03 4.3c-.24-1.6.9-2.8 2.2-3.2Z"/></svg>