<svg width="20" height="20" viewBox="0 0 20 20" xmlns="http://www.w3.org/2000/svg"><path d="M4.5 3a.5.5 0 0 0-.5.5v2.8L2.15 8.14A.5.5 0 0 0 2 8.5v5c0 .28.22.5.5.5H4v2.5a.5.5 0 0 0 1 0V14h1v2.5a.5.5 0 0 0 1 0V14h1.5a.5.5 0 0 0 .5-.5v-5a.5.5 0 0 0-.15-.35L7 6.29V3.5a.5.5 0 0 0-.5-.5h-2Zm11 14a.5.5 0 0 0 .5-.5v-2.8l1.85-1.85a.5.5 0 0 0 .15-.35v-5a.5.5 0 0 0-.5-.5H17V3.5a.5.5 0 0 0-.5-.5h-4a.5.5 0 0 0-.5.5V6h-.5a.5.5 0 0 0-.5.5v5c0 .13.05.26.15.35L13 13.71v2.79c0 .28.22.5.5.5h2ZM13 6V4h3v2h-3Z"/></svg>