<svg width="24" height="24" viewBox="0 0 24 24" xmlns="http://www.w3.org/2000/svg"><path d="M12.01 2.25c.74 0 1.47.1 2.18.25.32.07.55.33.59.65l.17 1.53a1.38 1.38 0 0 0 1.92 1.11l1.4-.61c.3-.13.64-.06.85.17a9.8 9.8 0 0 1 2.2 3.8c.1.3 0 .63-.26.82l-1.25.92a1.38 1.38 0 0 0 0 2.22l1.25.92c.25.19.36.52.27.82a9.8 9.8 0 0 1-2.2 3.8.75.75 0 0 1-.85.17l-1.4-.62a1.38 1.38 0 0 0-1.94 1.12l-.16 1.52a.75.75 0 0 1-.58.65 9.52 9.52 0 0 1-4.4 0 .75.75 0 0 1-.57-.65l-.17-1.52a1.38 1.38 0 0 0-1.93-1.11l-1.4.62a.75.75 0 0 1-.85-.18 9.8 9.8 0 0 1-2.2-3.8c-.1-.3 0-.63.26-.82l1.25-.92a1.38 1.38 0 0 0 0-2.22l-1.25-.92a.75.75 0 0 1-.27-.82 9.8 9.8 0 0 1 2.2-3.8c.23-.23.57-.3.86-.17l1.4.62c.4.17.86.15 1.25-.08.38-.22.63-.6.68-1.04l.17-1.53a.75.75 0 0 1 .58-.65c.72-.16 1.45-.24 2.2-.25Zm0 1.5c-.45 0-.9.04-1.35.12l-.11.97a2.89 2.89 0 0 1-4.03 2.33l-.9-.4A8.3 8.3 0 0 0 4.29 9.1l.8.59a2.88 2.88 0 0 1 0 4.64l-.8.59a8.3 8.3 0 0 0 1.35 2.32l.9-.4a2.88 2.88 0 0 1 4.02 2.32l.1.99c.9.15 1.8.15 2.7 0l.1-.99a2.88 2.88 0 0 1 4.02-2.32l.9.4a8.3 8.3 0 0 0 1.35-2.32l-.8-.59a2.88 2.88 0 0 1 0-4.64l.8-.59a8.3 8.3 0 0 0-1.35-2.32l-.9.4a2.88 2.88 0 0 1-4.02-2.32l-.1-.98A9 9 0 0 0 12 3.75ZM13.58 8a.3.3 0 0 1 .18.07l.05.05 2.78 3.57a.5.5 0 0 1 .05.54l-.05.08-2.78 3.57a.3.3 0 0 1-.17.11l-.06.01h-2.7a.3.3 0 0 1-.28-.43l.04-.06L13.4 12l-3.1-4h3.27Zm-3.9.8 1.69 2.2-.79 1 .64.81a.3.3 0 0 1 0 .38L9.9 14.87a.3.3 0 0 1-.43.04l-.04-.05-2-2.55a.5.5 0 0 1 0-.62L9.67 8.8Z"/></svg>