<svg width="16" height="16" viewBox="0 0 16 16" xmlns="http://www.w3.org/2000/svg"><path d="M4.03 5.5a4 4 0 0 1 7.89-.32A5.5 5.5 0 0 0 5.2 12h-.96a3.25 3.25 0 0 1-.22-6.5ZM10.5 15a4.5 4.5 0 1 0 0-9 4.5 4.5 0 0 0 0 9ZM13 8v1.5a.5.5 0 0 1-.5.5H11a.5.5 0 0 1 0-1h.47a2 2 0 0 0-2.57.55.5.5 0 0 1-.8-.6 3 3 0 0 1 3.9-.8V8a.5.5 0 0 1 1 0Zm-4.5 5.5A.5.5 0 0 1 8 13v-1.24a.47.47 0 0 1 0-.02v-.24c0-.28.22-.5.5-.5H10a.5.5 0 0 1 0 1h-.47a2 2 0 0 0 2.57-.55.5.5 0 1 1 .8.6 3 3 0 0 1-3.9.8V13a.5.5 0 0 1-.5.5Z"/></svg>