<svg width="16" height="16" viewBox="0 0 16 16" xmlns="http://www.w3.org/2000/svg"><path d="M8 3a3 3 0 0 0-3 3 .5.5 0 0 1-.5.5h-.25a2.25 2.25 0 0 0 0 4.5h.77c.03.34.1.68.19 1h-.96a3.25 3.25 0 0 1-.22-6.5 4 4 0 0 1 7.89-.32c-.35-.09-.71-.15-1.09-.17A3 3 0 0 0 8 3Zm2.5 12a4.5 4.5 0 1 0 0-9 4.5 4.5 0 0 0 0 9ZM13 8v1.5a.5.5 0 0 1-.5.5H11a.5.5 0 0 1 0-1h.47a2 2 0 0 0-2.57.55.5.5 0 0 1-.8-.6 3 3 0 0 1 3.9-.8V8a.5.5 0 0 1 1 0Zm-4.5 5.5A.5.5 0 0 1 8 13v-1.24a.47.47 0 0 1 0-.02v-.24c0-.28.22-.5.5-.5H10a.5.5 0 0 1 0 1h-.47a2 2 0 0 0 2.57-.55.5.5 0 1 1 .8.6 3 3 0 0 1-3.9.8V13a.5.5 0 0 1-.5.5Z"/></svg>