<svg width="20" height="20" viewBox="0 0 20 20" xmlns="http://www.w3.org/2000/svg"><path d="M10 2c2.82 0 4.41 1.92 4.65 4.25h.07A3.33 3.33 0 0 1 18 9.62 3.33 3.33 0 0 1 14.72 13H11v-2.09a1.5 1.5 0 0 0 1.56-2.47l-2-2a1.5 1.5 0 0 0-2.12 0l-2 2A1.5 1.5 0 0 0 8 10.9V13H5.28A3.33 3.33 0 0 1 2 9.62c0-1.8 1.37-3.27 3.1-3.37h.25C5.6 3.9 7.18 2 10 2Zm1.85 7.85a.5.5 0 0 1-.7 0L10 8.71v7.58l1.15-1.14a.5.5 0 0 1 .7.7l-2 2a.5.5 0 0 1-.7 0l-2-2a.5.5 0 0 1 .7-.7L9 16.29V8.71L7.85 9.85a.5.5 0 0 1-.7-.7l2-2c.2-.2.5-.2.7 0l2 2c.2.2.2.5 0 .7Z"/></svg>