<svg width="24" height="24" viewBox="0 0 24 24" xmlns="http://www.w3.org/2000/svg"><path d="M12 3.5a4.5 4.5 0 0 0-4.5 4.29.75.75 0 0 1-.74.71H6.5a3 3 0 0 0 0 6H10V16H6.5a4.5 4.5 0 0 1-.42-8.98 6 6 0 0 1 11.84 0A4.5 4.5 0 0 1 17.5 16h-4v-1.5h4a3 3 0 1 0 0-6h-.26a.75.75 0 0 1-.74-.71A4.5 4.5 0 0 0 12 3.5Zm2.78 8.28c-.3.3-.77.3-1.06 0l-1.22-1.22v8.88l1.22-1.22a.75.75 0 1 1 1.06 1.06l-2.5 2.5c-.3.3-.77.3-1.06 0l-2.5-2.5a.75.75 0 1 1 1.06-1.06L11 19.44v-8.88l-1.22 1.22a.75.75 0 0 1-1.06-1.06l2.5-2.5c.3-.3.77-.3 1.06 0l2.5 2.5c.3.3.3.77 0 1.06Z"/></svg>