<svg width="20" height="20" viewBox="0 0 20 20" xmlns="http://www.w3.org/2000/svg"><path d="M6 2a2 2 0 0 0-2 2v12c0 1.1.9 2 2 2h9.5a.5.5 0 0 0 0-1H6a1 1 0 0 1-1-1h10a1 1 0 0 0 1-1V4a2 2 0 0 0-2-2H6Zm2.76 4.4a.9.9 0 0 0-.26.6.5.5 0 0 1-1 0c0-.37.14-.87.54-1.28C8.45 5.29 9.09 5 10 5c.91 0 1.55.29 1.96.72.4.41.54.91.54 1.28 0 1.05-.73 1.55-1.28 1.82a8 8 0 0 1-.39.18h-.01a5.75 5.75 0 0 0-.32.15V10a.5.5 0 0 1-1 0V9c0-.25.13-.43.24-.53.11-.1.24-.18.35-.23l.32-.15.02-.01a7 7 0 0 0 .35-.16c.45-.22.72-.47.72-.92a.9.9 0 0 0-.26-.6c-.19-.19-.55-.4-1.24-.4s-1.05.21-1.24.4ZM10 13a.75.75 0 1 1 0-1.5.75.75 0 0 1 0 1.5Z"/></svg>