<svg width="16" height="16" viewBox="0 0 16 16" xmlns="http://www.w3.org/2000/svg"><path d="M14 1.5a.5.5 0 0 0-1 0V2h-.5a.5.5 0 0 0 0 1h.5v.5a.5.5 0 0 0 1 0V3h.5a.5.5 0 0 0 0-1H14v-.5Zm-10 2a.5.5 0 0 0-1 0V4h-.5a.5.5 0 0 0 0 1H3v.5a.5.5 0 0 0 1 0V5h.5a.5.5 0 0 0 0-1H4v-.5Zm9 8a.5.5 0 0 1-.5.5H12v.5a.5.5 0 0 1-1 0V12h-.5a.5.5 0 0 1 0-1h.5v-.5a.5.5 0 0 1 1 0v.5h.5c.28 0 .5.22.5.5ZM8.73 4.56a1.91 1.91 0 0 1 2.7 2.71l-.47.48-2.71-2.7.48-.49ZM7.54 5.75l2.71 2.7-5.98 5.99a1.91 1.91 0 0 1-2.71-2.7l5.98-5.99Z"/></svg>