<svg width="20" height="20" viewBox="0 0 20 20" xmlns="http://www.w3.org/2000/svg"><path d="M17 2.5a.5.5 0 0 0-1 0V3h-.5a.5.5 0 0 0 0 1h.5v.5a.5.5 0 0 0 1 0V4h.5a.5.5 0 0 0 0-1H17v-.5Zm-10 3a.5.5 0 0 1-.5.5H6v.5a.5.5 0 0 1-1 0V6h-.5a.5.5 0 0 1 0-1H5v-.5a.5.5 0 0 1 1 0V5h.5c.28 0 .5.22.5.5Zm9 9a.5.5 0 0 1-.5.5H15v.5a.5.5 0 0 1-1 0V15h-.5a.5.5 0 0 1 0-1h.5v-.5a.5.5 0 0 1 1 0v.5h.5c.28 0 .5.22.5.5Zm-2.57-7.93a1.91 1.91 0 0 0-2.7 0l-.48.47 2.7 2.71.48-.48c.75-.74.75-1.96 0-2.7Zm-1.18 3.89-2.7-2.71-6.99 6.98a1.91 1.91 0 1 0 2.7 2.7l6.99-6.97Z"/></svg>