<svg width="20" height="20" viewBox="0 0 20 20" xmlns="http://www.w3.org/2000/svg"><path d="M16.5 2c.28 0 .5.22.5.5V3h.5a.5.5 0 0 1 0 1H17v.5a.5.5 0 0 1-1 0V4h-.5a.5.5 0 1 1 0-1h.5v-.5c0-.28.22-.5.5-.5Zm-10 4a.5.5 0 0 0 0-1H6v-.5a.5.5 0 0 0-1 0V5h-.5a.5.5 0 0 0 0 1H5v.5a.5.5 0 0 0 1 0V6h.5Zm9 9a.5.5 0 0 0 0-1H15v-.5a.5.5 0 0 0-1 0v.5h-.5a.5.5 0 1 0 0 1h.5v.5a.5.5 0 1 0 1 0V15h.5Zm-2.07-8.43a1.91 1.91 0 0 0-2.7 0l-8.17 8.16a1.91 1.91 0 1 0 2.7 2.7l8.17-8.16c.75-.74.75-1.96 0-2.7Zm-2 .7a.91.91 0 0 1 1.3 1.3l-.48.47-1.3-1.29.48-.48Zm-1.18 1.19 1.3 1.29-6.99 6.98a.91.91 0 0 1-1.3-1.29l6.99-6.98Z"/></svg>