<svg width="24" height="24" viewBox="0 0 24 24" xmlns="http://www.w3.org/2000/svg"><path d="M2 6.75A2.75 2.75 0 0 1 4.75 4h14.5A2.75 2.75 0 0 1 22 6.75v7.75a3.5 3.5 0 0 0-7 0v1.59a1.5 1.5 0 0 0-2 1.41c0 .92.28 1.77.75 2.5h-9A2.75 2.75 0 0 1 2 17.25V6.75ZM6.75 8a.75.75 0 0 0 0 1.5h4.5a.75.75 0 0 0 0-1.5h-4.5Zm0 3a.75.75 0 0 0 0 1.5h6.5a.75.75 0 0 0 0-1.5h-6.5ZM6 14.75c0 .41.34.75.75.75h5.5a.75.75 0 0 0 0-1.5h-5.5a.75.75 0 0 0-.75.75Zm9 2.75c0 1.09.6 1.98 1.52 2.5a4 4 0 0 0 1.98.5c1.93 0 3.5-1.25 3.5-3a.5.5 0 0 1 1 0c0 2-1.75 3.72-4 3.97v1.03a.5.5 0 0 1-1 0v-1.03A4.77 4.77 0 0 1 15.02 20 3.7 3.7 0 0 1 14 17.5a.5.5 0 0 1 1 0Zm1-3a2.5 2.5 0 0 1 5 0V17a2.5 2.5 0 0 1-5 0v-2.5Z"/></svg>