<svg width="32" height="32" viewBox="0 0 32 32" xmlns="http://www.w3.org/2000/svg"><path d="M7.89 4.16c2.08-2.08 4.73-2.31 6.71-2.1 2.64.3 3.77 2.95 3.3 5.16l-.41 1.93a4 4 0 0 1-3.13 3.08l-2.68.54A7.31 7.31 0 0 0 11 16c0 1.37.25 2.28.47 2.8l.2.43 2.69.54a4 4 0 0 1 3.13 3.08l.4 1.93c.48 2.21-.65 4.86-3.29 5.15-1.98.22-4.63 0-6.71-2.09a12.9 12.9 0 0 1-2.8-5.02 22.24 22.24 0 0 1 0-13.64 12.9 12.9 0 0 1 2.8-5.02ZM23.25 9.8a1 1 0 0 0-1.42 1.4L25.6 15H16a1 1 0 1 0 0 2h9.6l-3.77 3.8a1 1 0 0 0 1.42 1.4l5.46-5.5a1 1 0 0 0 0-1.4l-5.46-5.5Z"/></svg>