<svg width="32" height="32" viewBox="0 0 32 32" xmlns="http://www.w3.org/2000/svg"><path d="M14.6 2.07c-1.98-.22-4.63 0-6.71 2.09a12.9 12.9 0 0 0-2.8 5.02 22.24 22.24 0 0 0 0 13.64 12.9 12.9 0 0 0 2.8 5.02c2.08 2.08 4.73 2.31 6.71 2.1 2.64-.3 3.77-2.95 3.3-5.16l-.41-1.93a4 4 0 0 0-3.13-3.08l-2.68-.54A7.31 7.31 0 0 1 11 16c0-1.38.25-2.28.47-2.8l.2-.43 2.69-.54a4 4 0 0 0 3.13-3.08l.4-1.93c.48-2.21-.65-4.86-3.29-5.15Zm-4.23 18.76a1 1 0 0 0 .53.29l3.07.6a2 2 0 0 1 1.56 1.55l.41 1.93c.32 1.46-.47 2.62-1.56 2.74-1.68.2-3.6-.04-5.08-1.51-.86-.87-1.7-2.35-2.32-4.23a20.24 20.24 0 0 1 0-12.4A10.98 10.98 0 0 1 9.3 5.57c1.48-1.47 3.4-1.7 5.08-1.52 1.09.13 1.88 1.29 1.56 2.75l-.41 1.93a2 2 0 0 1-1.56 1.54l-3.07.61a1 1 0 0 0-.53.29l-.01.02a1.52 1.52 0 0 0-.09.1 5.16 5.16 0 0 0-.65 1.13A9.28 9.28 0 0 0 9 16c0 1.62.3 2.79.62 3.58a5.16 5.16 0 0 0 .74 1.23v.01h.01ZM23.25 9.8a1 1 0 0 0-1.42 1.4L25.6 15H16a1 1 0 1 0 0 2h9.6l-3.77 3.8a1 1 0 0 0 1.42 1.4l5.46-5.5a1 1 0 0 0 0-1.4l-5.46-5.5Z"/></svg>