<svg width="16" height="16" viewBox="0 0 16 16" xmlns="http://www.w3.org/2000/svg"><path d="M2 4.5A2.5 2.5 0 014.5 2h7A2.5 2.5 0 0114 4.5v7a2.5 2.5 0 01-2.5 2.5h-7A2.5 2.5 0 012 11.5v-7zM4.5 3C3.67 3 3 3.67 3 4.5v7c0 .83.67 1.5 1.5 1.5h7c.83 0 1.5-.67 1.5-1.5v-7c0-.83-.67-1.5-1.5-1.5h-7zm4 7.5c0-.28.22-.5.5-.5h2.25a.5.5 0 010 1H9a.5.5 0 01-.5-.5zM9 6a.5.5 0 000 1h2.25a.5.5 0 000-1H9zM7.35 9.15c.2.2.2.5 0 .7l-1.5 1.5a.5.5 0 01-.7 0l-.75-.74a.5.5 0 11.7-.71l.4.4 1.15-1.15c.2-.2.5-.2.7 0zm0-3.3a.5.5 0 10-.7-.7L5.5 6.29l-.4-.4a.5.5 0 00-.7.72l.75.74c.2.2.5.2.7 0l1.5-1.5z"/></svg>