<svg width="20" height="20" viewBox="0 0 20 20" xmlns="http://www.w3.org/2000/svg"><path d="M9.35 7.1a.5.5 0 00-.7-.7L7.23 7.8l-.4-.35a.5.5 0 00-.67.73l.75.69c.2.18.5.17.7-.02L9.34 7.1zm0 4.3c.2.2.2.5 0 .7L7.6 13.85a.5.5 0 01-.69.02l-.75-.69a.5.5 0 01.68-.73l.4.36 1.4-1.41c.2-.2.52-.2.71 0zM11 12a.5.5 0 000 1h2.5a.5.5 0 000-1H11zm-.5-4.5c0-.28.22-.5.5-.5h2.5a.5.5 0 010 1H11a.5.5 0 01-.5-.5zM6 3a3 3 0 00-3 3v8a3 3 0 003 3h8a3 3 0 003-3V6a3 3 0 00-3-3H6zM4 6c0-1.1.9-2 2-2h8a2 2 0 012 2v8a2 2 0 01-2 2H6a2 2 0 01-2-2V6z"/></svg>