<svg width="16" height="16" viewBox="0 0 16 16" xmlns="http://www.w3.org/2000/svg"><path d="M6.5 1c-.65 0-1.2.42-1.41 1H4.5C3.67 2 3 2.67 3 3.5v10c0 .83.67 1.5 1.5 1.5h7c.83 0 1.5-.67 1.5-1.5v-10c0-.83-.67-1.5-1.5-1.5h-.59c-.2-.58-.76-1-1.41-1h-3ZM6 2.5c0-.28.22-.5.5-.5h3a.5.5 0 0 1 0 1h-3a.5.5 0 0 1-.5-.5ZM4.5 3h.59c.2.58.76 1 1.41 1h3c.65 0 1.2-.42 1.41-1h.59c.28 0 .5.22.5.5v10a.5.5 0 0 1-.5.5h-7a.5.5 0 0 1-.5-.5v-10c0-.28.22-.5.5-.5Zm1 3a.5.5 0 0 0 0 1h5a.5.5 0 0 0 0-1h-5ZM5 9c0-.28.22-.5.5-.5h2a.5.5 0 0 1 0 1h-2A.5.5 0 0 1 5 9Zm.5 2a.5.5 0 0 0 0 1h4a.5.5 0 0 0 0-1h-4Z"/></svg>