<svg width="20" height="20" viewBox="0 0 20 20" xmlns="http://www.w3.org/2000/svg"><path d="M7 9a6 6 0 0 1 6-6h.5a.5.5 0 0 0 0-1H13a7 7 0 0 0-7 7v1a1 1 0 0 1-1 1h-.9l1 1A2 2 0 0 0 7 10V9ZM.5 14a.5.5 0 0 0 0 1h3.68l-2.14 2.15a.5.5 0 0 0 .7.7l3-2.99a.5.5 0 0 0 0-.72l-3-3a.5.5 0 0 0-.7.71L4.18 14H.5Zm9.5-3.5a4.5 4.5 0 0 1-3.15 4.3c.06-.35.01-.7-.12-1.02A3.5 3.5 0 0 0 9 10.5v-1A4.5 4.5 0 0 1 13.5 5h4a.5.5 0 0 1 0 1h-4A3.5 3.5 0 0 0 10 9.5v1ZM14 9a1 1 0 0 0-1 1v1a7 7 0 0 1-7 7h-.5a.5.5 0 0 1 0-1H6a6 6 0 0 0 6-6v-1c0-1.1.9-2 2-2h3.5a.5.5 0 0 1 0 1H14Z"/></svg>