<svg width="20" height="20" viewBox="0 0 20 20" xmlns="http://www.w3.org/2000/svg"><path d="M7 9a6 6 0 016-6h.5a.5.5 0 000-1H13a7 7 0 00-7 7v1a1 1 0 01-1 1h-.9l1 1A2 2 0 007 10V9zM.5 14a.5.5 0 000 1h3.68l-2.14 2.15a.5.5 0 00.7.7l3-2.99a.5.5 0 000-.72l-3-3a.5.5 0 00-.7.71L4.18 14H.5zm9.5-3.5a4.5 4.5 0 01-3.15 4.3c.06-.35.01-.7-.12-1.02A3.5 3.5 0 009 10.5v-1A4.5 4.5 0 0113.5 5h4a.5.5 0 010 1h-4A3.5 3.5 0 0010 9.5v1zM14 9a1 1 0 00-1 1v1a7 7 0 01-7 7h-.5a.5.5 0 010-1H6a6 6 0 006-6v-1c0-1.1.9-2 2-2h3.5a.5.5 0 010 1H14z"/></svg>