<svg width="24" height="24" viewBox="0 0 24 24" xmlns="http://www.w3.org/2000/svg"><path d="M3 5.75c0-.41.34-.75.75-.75 2.66 0 5.26-.94 7.8-2.85.27-.2.63-.2.9 0C14.99 4.05 17.59 5 20.25 5c.41 0 .75.34.75.75V11c0 .34-.01.67-.04 1a6.47 6.47 0 00-1.46-.69V6.48a14.36 14.36 0 01-7.5-2.8 14.36 14.36 0 01-7.5 2.8V11c0 4.15 2.33 7.22 7.13 9.28.26.56.6 1.07 1 1.52l-.36.15a.75.75 0 01-.54 0C5.96 19.68 3 16 3 11V5.75zM23 17.5a5.5 5.5 0 10-11 0 5.5 5.5 0 0011 0zm-5 .5v2.5a.5.5 0 11-1 0V18h-2.5a.5.5 0 010-1H17v-2.5a.5.5 0 111 0V17h2.5a.5.5 0 010 1H18z"/></svg>