<svg width="20" height="20" viewBox="0 0 20 20" xmlns="http://www.w3.org/2000/svg"><path d="M9.72 2.08a.5.5 0 01.56 0c1.94 1.3 4.03 2.1 6.3 2.43A.5.5 0 0117 5v4.6c-.32-.16-.65-.3-1-.4V5.44a15.97 15.97 0 01-5.6-2.08L10 3.1l-.4.25A15.97 15.97 0 014 5.43V9.5c0 3.24 1.8 5.64 5.48 7.25.2.43.44.84.74 1.2l-.04.02a.5.5 0 01-.36 0C5.31 16.23 3 13.39 3 9.5V5a.5.5 0 01.43-.5 15.05 15.05 0 006.3-2.42zM19 14.5a4.5 4.5 0 11-9 0 4.5 4.5 0 019 0zm-4-2a.5.5 0 00-1 0V14h-1.5a.5.5 0 000 1H14v1.5a.5.5 0 001 0V15h1.5a.5.5 0 000-1H15v-1.5z"/></svg>