<svg width="24" height="24" viewBox="0 0 24 24" xmlns="http://www.w3.org/2000/svg"><path d="M3.28 2.22a.75.75 0 1 0-1.06 1.06l2.2 2.2a10 10 0 0 0 .5 13.6A.75.75 0 1 0 6 18a8.5 8.5 0 0 1-.5-11.47l1.77 1.78a6 6 0 0 0 .5 7.92.75.75 0 0 0 1.06-1.06 4.5 4.5 0 0 1-.49-5.79l2.22 2.22a1.5 1.5 0 0 0 1.84 1.84l8.33 8.33a.75.75 0 0 0 1.06-1.06L3.28 2.22Zm16.1 13.99 1.1 1.1a10 10 0 0 0-1.4-12.38A.75.75 0 0 0 18 5.99a8.5 8.5 0 0 1 1.38 10.22Zm-3.03-3.04 1.18 1.17a6 6 0 0 0-1.29-6.58.75.75 0 1 0-1.06 1.06 4.5 4.5 0 0 1 1.17 4.35Z"/></svg>