<svg width="20" height="20" viewBox="0 0 20 20" xmlns="http://www.w3.org/2000/svg"><path d="M8.96 2.67c.4-.9 1.68-.9 2.08 0 .3.66 1.13.89 1.72.46.8-.57 1.9.07 1.8 1.05-.06.72.54 1.32 1.26 1.25.98-.1 1.62 1.01 1.05 1.81-.43.59-.2 1.42.46 1.72.9.4.9 1.68 0 2.08-.66.3-.89 1.13-.46 1.72.57.8-.07 1.9-1.05 1.8a1.15 1.15 0 00-1.25 1.26c.1.98-1.01 1.62-1.81 1.05a1.15 1.15 0 00-1.72.46c-.4.9-1.68.9-2.08 0a1.15 1.15 0 00-1.72-.46c-.8.57-1.9-.07-1.8-1.05a1.15 1.15 0 00-1.26-1.25c-.98.1-1.62-1.01-1.05-1.81.43-.59.2-1.42-.46-1.72-.9-.4-.9-1.68 0-2.08.66-.3.89-1.13.46-1.72-.57-.8.07-1.9 1.05-1.8.72.06 1.32-.54 1.25-1.26-.1-.98 1.01-1.62 1.81-1.05.59.43 1.42.2 1.72-.46zM10 5a2 2 0 100 4 2 2 0 000-4zm2.5 5h-5c-.83 0-1.5.67-1.5 1.5 0 1.11.45 2 1.2 2.61.75.6 1.74.89 2.8.89 1.05 0 2.04-.3 2.78-.89.76-.6 1.22-1.5 1.22-2.61 0-.83-.68-1.5-1.5-1.5z"/></svg>