<svg width="24" height="24" viewBox="0 0 24 24" xmlns="http://www.w3.org/2000/svg"><path d="M13.49 3.05a1.43 1.43 0 0 0-2.61 0c-.38.82-1.4 1.1-2.14.57-1-.72-2.39.08-2.27 1.3.1.9-.66 1.66-1.56 1.57A1.43 1.43 0 0 0 3.6 8.76c.53.73.25 1.76-.57 2.14a1.43 1.43 0 0 0 0 2.6c.82.38 1.1 1.42.57 2.15-.72 1 .08 2.38 1.3 2.26.9-.09 1.66.67 1.57 1.57a1.43 1.43 0 0 0 2.27 1.3 1.43 1.43 0 0 1 2.14.58 1.43 1.43 0 0 0 2.6 0c.38-.82 1.42-1.1 2.15-.57 1 .72 2.39-.08 2.26-1.3-.09-.91.67-1.67 1.57-1.58a1.43 1.43 0 0 0 1.3-2.26 1.43 1.43 0 0 1 .58-2.14 1.43 1.43 0 0 0 0-2.61 1.43 1.43 0 0 1-.57-2.14c.72-1-.08-2.39-1.3-2.27-.9.1-1.67-.66-1.58-1.56a1.43 1.43 0 0 0-2.26-1.31c-.73.53-1.77.25-2.14-.57ZM9.77 8.58a2.41 2.41 0 1 1 4.83 0 2.41 2.41 0 0 1-4.83 0Zm-.6 3.62h6.03c1 0 1.81.81 1.81 1.81 0 1.35-.55 2.43-1.46 3.16-.9.72-2.1 1.07-3.37 1.07a5.35 5.35 0 0 1-3.36-1.07 3.92 3.92 0 0 1-1.46-3.16c0-1 .8-1.8 1.8-1.8Z"/></svg>