<svg width="24" height="24" viewBox="0 0 24 24" xmlns="http://www.w3.org/2000/svg"><path d="M10.1 3.22a2.08 2.08 0 013.8 0c.14.33.56.44.85.23a2.08 2.08 0 013.28 1.9c-.04.35.27.66.63.62a2.08 2.08 0 011.89 3.28c-.21.3-.1.7.23.86a2.08 2.08 0 010 3.78.58.58 0 00-.23.86 2.08 2.08 0 01-1.9 3.28.58.58 0 00-.62.63 2.08 2.08 0 01-3.28 1.89.58.58 0 00-.86.23 2.08 2.08 0 01-3.78 0 .58.58 0 00-.86-.23 2.08 2.08 0 01-3.28-1.9.58.58 0 00-.63-.62 2.08 2.08 0 01-1.89-3.28c.21-.3.1-.7-.23-.86a2.08 2.08 0 010-3.78.58.58 0 00.23-.86 2.08 2.08 0 011.9-3.28c.35.04.66-.27.62-.63a2.08 2.08 0 013.28-1.89c.3.21.7.1.86-.23zm2.42.62a.58.58 0 00-1.04 0 2.08 2.08 0 01-3.1.83.58.58 0 00-.92.52C7.6 6.5 6.5 7.6 5.2 7.46a.58.58 0 00-.52.91 2.08 2.08 0 01-.83 3.1.58.58 0 000 1.05c1.2.54 1.6 2.04.83 3.1-.29.4.03.96.52.92 1.3-.13 2.4.96 2.27 2.27-.04.49.51.8.91.52a2.08 2.08 0 013.1.83c.21.45.85.45 1.05 0a2.08 2.08 0 013.1-.83c.4.29.96-.03.92-.52-.13-1.3.96-2.4 2.27-2.27.49.04.8-.51.52-.91a2.08 2.08 0 01.83-3.1.58.58 0 000-1.05 2.08 2.08 0 01-.83-3.1.58.58 0 00-.52-.92c-1.3.13-2.4-.96-2.27-2.27a.58.58 0 00-.91-.52 2.08 2.08 0 01-3.1-.83zM12 5.97a2.41 2.41 0 100 4.82 2.41 2.41 0 000-4.82zM15.02 12H8.98c-1 0-1.8.81-1.8 1.81 0 1.35.55 2.43 1.46 3.16.89.71 2.09 1.07 3.36 1.07s2.47-.36 3.36-1.07c.91-.73 1.47-1.81 1.47-3.16 0-1-.81-1.81-1.81-1.81z"/></svg>