<svg width="20" height="20" viewBox="0 0 20 20" xmlns="http://www.w3.org/2000/svg"><path d="M14.48 8c.18 0 .35.03.52.1V4.5c0-.83-.67-1.5-1.5-1.5h-3v-.5c0-.3-.22-.5-.5-.5a.5.5 0 0 0-.5.5V3h-3C5.67 3 5 3.67 5 4.5v4c0 .83.67 1.5 1.5 1.5h6.3l.33-1.04v-.01A1.42 1.42 0 0 1 14.49 8ZM7 6.5a1 1 0 1 1 2 0 1 1 0 0 1-2 0Zm4 0a1 1 0 1 1 2 0 1 1 0 0 1-2 0ZM10 18c1.74 0 3.04-.23 4-.61.02-.15.06-.3.12-.44a1.42 1.42 0 0 1-.96-.9v-.01l-.36-1.08-.03-.1a1.2 1.2 0 0 0-.26-.37l-.06-.06a1.2 1.2 0 0 0-.4-.24l-1.09-.35h-.01a1.42 1.42 0 0 1-.54-2.34H5.3c-1 0-1.81.81-1.81 1.81v.7c.04.77.25 1.75 1.13 2.55.95.87 2.6 1.44 5.37 1.44Zm5.23-7.65-.35-1.07a.42.42 0 0 0-.8 0l-.35 1.07a2.2 2.2 0 0 1-1.38 1.4l-1.07.35a.42.42 0 0 0 0 .8l1.07.34a2.2 2.2 0 0 1 1.4 1.4l.35 1.08a.42.42 0 0 0 .8 0l.35-1.07a2.2 2.2 0 0 1 1.4-1.4l1.07-.35a.42.42 0 0 0 0-.8h-.02l-1.08-.35a2.2 2.2 0 0 1-1.4-1.4Zm3.79 6.61.76.25h.02a.3.3 0 0 1 .14.47.3.3 0 0 1-.14.1l-.77.26a1.58 1.58 0 0 0-1 1l-.24.76a.3.3 0 0 1-.58 0l-.24-.77a1.57 1.57 0 0 0-1-1l-.77-.25a.3.3 0 0 1-.14-.46.3.3 0 0 1 .14-.1l.77-.26a1.58 1.58 0 0 0 .98-1l.25-.76a.3.3 0 0 1 .57 0l.25.77a1.58 1.58 0 0 0 1 1Z"/></svg>