<svg width="20" height="20" viewBox="0 0 20 20" xmlns="http://www.w3.org/2000/svg"><path d="M12 5.5a1 1 0 1 0 0 2 1 1 0 0 0 0-2Zm-5 1a1 1 0 1 1 2 0 1 1 0 0 1-2 0Zm3.5-4a.5.5 0 0 0-1 0V3h-3C5.67 3 5 3.67 5 4.5v4c0 .83.67 1.5 1.5 1.5h6.3l.32-1H6.5a.5.5 0 0 1-.5-.5v-4c0-.28.22-.5.5-.5h7c.28 0 .5.22.5.5v3.58a1.42 1.42 0 0 1 1 .02V4.5c0-.83-.67-1.5-1.5-1.5h-3v-.5Zm-2 9h1.9a1.41 1.41 0 0 0-.4 1H5.3a.8.8 0 0 0-.8.81v.44c0 .69.13 1.46.8 2.07C6 16.45 7.34 17 10 17c1.55 0 2.66-.19 3.44-.47a1.42 1.42 0 0 0 .68.42c-.06.14-.1.29-.12.44-.91.36-2.13.59-3.75.6V18h-.5c-2.62-.04-4.2-.6-5.12-1.44A3.52 3.52 0 0 1 3.5 14H3.5v-.69c0-1 .81-1.8 1.8-1.8h3.2v-.01Zm6.38-2.22.35 1.07a2.2 2.2 0 0 0 1.4 1.4l1.07.35h.02a.42.42 0 0 1 0 .8l-1.07.35a2.2 2.2 0 0 0-1.4 1.4l-.35 1.07a.42.42 0 0 1-.8 0l-.35-1.07a2.22 2.22 0 0 0-1.4-1.4l-1.07-.35a.42.42 0 0 1 0-.8l1.07-.35a2.2 2.2 0 0 0 1.38-1.4l.35-1.07a.42.42 0 0 1 .8 0Zm4.9 7.93-.76-.25a1.58 1.58 0 0 1-1-1l-.25-.76a.3.3 0 0 0-.57 0l-.25.77a1.58 1.58 0 0 1-.98 1l-.77.24a.3.3 0 0 0-.14.46.3.3 0 0 0 .14.11l.77.25a1.58 1.58 0 0 1 1 1l.24.77a.3.3 0 0 0 .58 0l.24-.77a1.58 1.58 0 0 1 1-1l.77-.24a.3.3 0 0 0 0-.57h-.02Zm-6.17-.52.07.05Z"/></svg>