<svg width="24" height="24" viewBox="0 0 24 24" xmlns="http://www.w3.org/2000/svg"><path d="m18.36 10.28.14.1V5.76c0-1.24-1-2.25-2.25-2.25h-3.5v-.85A.75.75 0 0 0 12 2h-.1a.75.75 0 0 0-.65.75v.75h-3.5c-1.24 0-2.25 1-2.25 2.25v4.5c0 1.25 1 2.25 2.25 2.25h7.78l.02-.05.01-.02.45-1.39v-.01a1.54 1.54 0 0 1 2.35-.75ZM9.75 6.5a1.25 1.25 0 1 1 0 2.5 1.25 1.25 0 0 1 0-2.5Zm4.5 0a1.25 1.25 0 1 1 0 2.5 1.25 1.25 0 0 1 0-2.5Zm-1.2 7.54.1-.04h-6.9C5.01 14 4 15 4 16.25v.9c0 1.1.48 2.14 1.3 2.85 1.57 1.34 3.81 2 6.7 2 2.08 0 3.82-.34 5.21-1.03a1.55 1.55 0 0 1-1.17-1v-.01l-.45-1.39a1.84 1.84 0 0 0-.44-.72l-.36-.26-.36-.18-1.39-.45a1.55 1.55 0 0 1 0-2.92Zm2.8 3.1a2.83 2.83 0 0 1 .69 1.12l.45 1.38a.54.54 0 0 0 1.02 0l.45-1.38a2.83 2.83 0 0 1 1.8-1.8l1.38-.44a.55.55 0 0 0 0-1.03h-.03l-1.38-.45a2.84 2.84 0 0 1-1.8-1.8L18 11.36a.54.54 0 0 0-1.03 0l-.45 1.38-.01.03a2.84 2.84 0 0 1-1.76 1.77l-1.38.44a.55.55 0 0 0 0 1.03l1.38.45c.42.14.8.37 1.11.69Zm7.17 3.82.76.25h.02a.3.3 0 0 1 0 .58l-.77.25a1.58 1.58 0 0 0-1 1l-.24.76a.3.3 0 0 1-.57 0l-.25-.77a1.57 1.57 0 0 0-1-1l-.77-.25a.3.3 0 0 1 0-.57l.77-.25a1.58 1.58 0 0 0 .98-1l.25-.76a.3.3 0 0 1 .57 0l.25.77a1.58 1.58 0 0 0 1 1Z"/></svg>