<svg width="24" height="24" viewBox="0 0 24 24" xmlns="http://www.w3.org/2000/svg"><path d="M18.5 10.25v.14a1.54 1.54 0 0 0-1.5-.32V5.75a.75.75 0 0 0-.75-.75h-8.5a.75.75 0 0 0-.75.75v4.5c0 .42.34.75.75.75h8.28l-.01.03v.01l-.46 1.39v.02l-.03.05H7.75c-1.24 0-2.25-1-2.25-2.25v-4.5c0-1.24 1-2.25 2.25-2.25h3.5v-.75c0-.38.28-.7.65-.74L12 2c.38 0 .7.28.74.65l.01.1v.75h3.5c1.24 0 2.25 1 2.25 2.25v4.5Zm-5.46 3.79.12-.04h-6.9C5 14 4 15 4 16.25v.9c0 1.1.48 2.14 1.3 2.85 1.57 1.34 3.81 2 6.7 2 2.08 0 3.82-.34 5.21-1.03a1.55 1.55 0 0 1-1.17-1v-.01l-.03-.1a11.1 11.1 0 0 1-4.01.64c-2.56 0-4.45-.55-5.71-1.64a2.25 2.25 0 0 1-.79-1.7v-.91c0-.41.34-.75.75-.75H12a1.54 1.54 0 0 1 1.03-1.46h.01ZM11 7.74a1.25 1.25 0 1 0-2.5 0 1.25 1.25 0 0 0 2.5 0Zm3.24-1.24a1.25 1.25 0 1 1 0 2.5 1.25 1.25 0 0 1 0-2.5Zm1.85 10.91a2.83 2.83 0 0 0-1.35-.95L13.36 16a.54.54 0 0 1 0-1.03l1.38-.44a2.84 2.84 0 0 0 1.76-1.77l.01-.03.45-1.38a.54.54 0 0 1 1.03 0l.44 1.38a2.84 2.84 0 0 0 1.8 1.8l1.38.44.03.01a.54.54 0 0 1 0 1.03l-1.38.44a2.84 2.84 0 0 0-1.8 1.8l-.45 1.38a.55.55 0 0 1-.2.26.54.54 0 0 1-.82-.26l-.45-1.38c-.1-.3-.25-.6-.45-.85Zm7.7 3.8-.77-.25a1.58 1.58 0 0 1-1-1l-.25-.76a.3.3 0 0 0-.57 0l-.25.77a1.58 1.58 0 0 1-.98 1l-.77.24a.3.3 0 0 0 0 .57l.77.25a1.58 1.58 0 0 1 1 1l.25.77a.3.3 0 0 0 .57 0l.24-.77a1.58 1.58 0 0 1 1-1l.77-.24a.3.3 0 0 0 0-.57h-.02Z"/></svg>