<svg width="16" height="16" viewBox="0 0 16 16" xmlns="http://www.w3.org/2000/svg"><path d="M6.75 3.25a1.25 1.25 0 1 1 2.5 0 1.25 1.25 0 0 1-2.5 0ZM8 1a2.25 2.25 0 0 0-2.19 2.77L4.2 3.12a1.6 1.6 0 0 0-2.08.87c-.33.81.06 1.74.87 2.07l2.01.8v2.4l-1.81 3.4a1.6 1.6 0 1 0 2.8 1.5L8 10.39l2 3.77a1.6 1.6 0 0 0 2.81-1.5L11 9.26v-2.4l2-.8c.82-.33 1.21-1.26.88-2.07a1.6 1.6 0 0 0-2.08-.87l-1.61.65A2.26 2.26 0 0 0 8 1ZM3.05 4.37a.6.6 0 0 1 .77-.33l3.43 1.39a2 2 0 0 0 1.5 0l3.43-1.39a.6.6 0 0 1 .77.33c.13.3-.02.64-.32.76l-2 .81a1 1 0 0 0-.63.93v2.38a1 1 0 0 0 .12.47l1.81 3.41a.6.6 0 0 1-1.04.56l-2-3.77a1 1 0 0 0-1.77 0l-2 3.77a.6.6 0 1 1-1.05-.56l1.81-3.4A1 1 0 0 0 6 9.24V6.87a1 1 0 0 0-.63-.93l-2-.8a.58.58 0 0 1-.32-.77Z"/></svg>