<svg width="48" height="48" viewBox="0 0 48 48" xmlns="http://www.w3.org/2000/svg"><path d="M35.29 7.44a4.82 4.82 0 0 1 6.9 6.74l-8.02 8.4c-.5.52-1.15.9-1.87 1.06l-5.77 1.33a1.25 1.25 0 0 1-1.52-1.41l.88-5.7c.12-.78.5-1.5 1.05-2.07l8.35-8.35Zm5.34 2.13a2.32 2.32 0 0 0-3.57-.36l-8.35 8.35c-.19.18-.3.43-.35.69l-.6 3.87 3.98-.92c.24-.05.45-.18.62-.35l8.01-8.4c.75-.78.86-1.98.26-2.88Zm-11.93.93H10.25a3.75 3.75 0 0 0-3.75 3.75v4.93a38.1 38.1 0 0 1 3.2-2.16 12.3 12.3 0 0 1 4.2-1.69 4.24 4.24 0 0 1 4.05 1.36c.52.6.83 1.28.92 2 .1.7-.02 1.38-.22 1.98-.36 1.09-1.08 2.17-1.68 3.08l-.12.18a10 10 0 0 0-1.39 2.6c-.09.35-.1.6-.04.83.05.2.17.46.46.76.4.4.76.54 1.06.58.32.04.7-.02 1.15-.21.95-.4 1.91-1.26 2.78-2.12a1.25 1.25 0 1 1 1.76 1.76c-.86.87-2.12 2.04-3.55 2.66-.73.31-1.57.5-2.46.39a4.3 4.3 0 0 1-2.5-1.3 4.07 4.07 0 0 1-1.14-1.95c-.16-.71-.1-1.4.07-2.04.32-1.2 1.08-2.37 1.71-3.33l.04-.05a12.52 12.52 0 0 0 1.47-2.62c.12-.37.15-.65.12-.87-.03-.21-.11-.44-.34-.7-.39-.46-.92-.65-1.78-.52-.91.14-2.04.63-3.3 1.37a40.13 40.13 0 0 0-4.47 3.15v11.43a3.75 3.75 0 0 0 3.75 3.75h27.5a3.75 3.75 0 0 0 3.75-3.75V18.51L44 15.9v17.85C44 37.2 41.2 40 37.75 40h-27.5A6.25 6.25 0 0 1 4 33.75v-19.5C4 10.8 6.8 8 10.25 8H31.2l-2.5 2.5Z"/></svg>