<svg width="24" height="24" viewBox="0 0 24 24" xmlns="http://www.w3.org/2000/svg"><path d="M19.41 8.41 13.6 2.6a.5.5 0 0 0-.05-.04 2.07 2.07 0 0 0-.34-.25l-.05-.03-.05-.03-.16-.09c-.2-.08-.41-.12-.63-.14h-.06a.6.6 0 0 0-.08-.01H6a2 2 0 0 0-2 2v16c0 1.1.9 2 2 2h6.81a6.52 6.52 0 0 1-1.08-1.5H6a.5.5 0 0 1-.5-.5V4c0-.27.22-.5.5-.5h6V8c0 1.1.9 2 2 2h4.5v1.08c.52.08 1.03.22 1.5.42V9.83a2 2 0 0 0-.59-1.42ZM13.5 4.62l3.88 3.88H14a.5.5 0 0 1-.5-.5V4.62ZM10.75 17.5H11c0 .52.06 1.02.17 1.5h-.42a.75.75 0 0 1 0-1.5Zm.42-1.5c.13-.53.32-1.03.56-1.5h-.98a.75.75 0 0 0 0 1.5h.42Zm1.64-3A6.51 6.51 0 0 1 15 11.5h-4.25a.75.75 0 0 0 0 1.5h2.06Zm-5.06-1.5a.75.75 0 1 0 0 1.5.75.75 0 0 0 0-1.5ZM7 15.25a.75.75 0 1 1 1.5 0 .75.75 0 0 1-1.5 0Zm0 3a.75.75 0 1 1 1.5 0 .75.75 0 0 1-1.5 0Zm16-.75a5.5 5.5 0 1 0-11 0 5.5 5.5 0 0 0 11 0Zm-5.78.42a.5.5 0 0 1-.22-.5V13.5a.5.5 0 1 1 1 0V17h2.5a.5.5 0 0 1 0 1h-2.94a.5.5 0 0 1-.34-.08Z"/></svg>