<svg width="24" height="24" viewBox="0 0 24 24" xmlns="http://www.w3.org/2000/svg"><path d="M12 8V2H6a2 2 0 0 0-2 2v16c0 1.1.9 2 2 2h6.81a6.49 6.49 0 0 1-1.64-3h-.42a.75.75 0 0 1 0-1.5H11c0-.52.06-1.02.17-1.5h-.42a.75.75 0 0 1 0-1.5h.98c.29-.55.65-1.06 1.08-1.5h-2.06a.75.75 0 0 1 0-1.5H15a6.48 6.48 0 0 1 5 0V10h-6a2 2 0 0 1-2-2Zm-5 4.25a.75.75 0 1 1 1.5 0 .75.75 0 0 1-1.5 0Zm0 3a.75.75 0 1 1 1.5 0 .75.75 0 0 1-1.5 0Zm0 3a.75.75 0 1 1 1.5 0 .75.75 0 0 1-1.5 0ZM13.5 8V2.5l6 6H14a.5.5 0 0 1-.5-.5Zm9.5 9.5a5.5 5.5 0 1 0-11 0 5.5 5.5 0 0 0 11 0Zm-5.78.42a.5.5 0 0 1-.22-.5V13.5a.5.5 0 1 1 1 0V17h2.5a.5.5 0 0 1 0 1h-2.94a.5.5 0 0 1-.34-.08Z"/></svg>