<svg width="24" height="24" viewBox="0 0 24 24" xmlns="http://www.w3.org/2000/svg"><path d="M10.55 2.53c.84-.7 2.06-.7 2.9 0l6.75 5.7c.5.42.8 1.05.8 1.71v2.08c-.46-.3-.97-.53-1.5-.7V9.93c0-.22-.1-.43-.27-.57l-6.75-5.7a.75.75 0 00-.96 0l-6.75 5.7a.75.75 0 00-.27.57v9.8c0 .14.11.26.25.26h6.75c.22.54.52 1.04.87 1.5H4.75C3.78 21.5 3 20.7 3 19.75v-9.8c0-.67.3-1.3.8-1.73l6.75-5.69zM23 17.5a5.5 5.5 0 10-11 0 5.5 5.5 0 0011 0zm-5 .5v2.5a.5.5 0 11-1 0V18h-2.5a.5.5 0 010-1H17v-2.5a.5.5 0 111 0V17h2.5a.5.5 0 010 1H18z"/></svg>