<svg width="24" height="24" viewBox="0 0 24 24" xmlns="http://www.w3.org/2000/svg"><path d="M14 16a1 1 0 0 1 1-1h5a1 1 0 0 1 1 1v4a1 1 0 0 1-1 1h-5a1 1 0 0 1-1-1v-4Zm9 1.5a.5.5 0 0 0-1 0v3c0 .83-.67 1.5-1.5 1.5h-4a.5.5 0 0 0 0 1h4a2.5 2.5 0 0 0 2.5-2.5v-3ZM17.53 3.22a.75.75 0 1 0-1.06 1.06l2.97 2.97H14.5a3.25 3.25 0 0 0-3.25 3.25v3c0 .82-.57 1.51-1.33 1.7a4 4 0 1 0 .02 1.52 3.25 3.25 0 0 0 2.81-3.22v-3c0-.97.78-1.75 1.75-1.75h4.94l-2.97 2.97a.75.75 0 1 0 1.06 1.06l4.25-4.25c.3-.3.3-.77 0-1.06l-4.25-4.25Z"/></svg>