<svg width="24" height="24" viewBox="0 0 24 24" xmlns="http://www.w3.org/2000/svg"><path d="M2.75 18a.75.75 0 00-.3 1.43 2.3 2.3 0 01.13.07c.1.05.23.13.38.24.32.22.66.52.9.9a.75.75 0 001.28-.79 3.97 3.97 0 00-.25-.35h2.36a.75.75 0 000-1.5h-4.5zm16-14.5a.75.75 0 00-.75.75v9a.75.75 0 001.5 0v-9a.75.75 0 00-.75-.75zm-6.5 0a.75.75 0 00-.76.75v9a.75.75 0 001.5 0v-9a.75.75 0 00-.75-.75zm-6.5 0a.75.75 0 00-.75.75v9a.75.75 0 001.5 0v-9a.75.75 0 00-.75-.75zm4.77 15.35c-.05.3.07.68.26.87a.75.75 0 01-1.06 1.06 2.57 2.57 0 01-.68-2.2c.07-.39.26-.8.6-1.1A2 2 0 0111 17c.62 0 1.08.27 1.42.6.28.28.51.64.69.91l.05.08c.13.2.24.36.34.48v-1.32a.75.75 0 011.5 0v2.5c0 .41-.34.75-.75.75-1.31 0-1.95-.98-2.34-1.58l-.04-.06a4.2 4.2 0 00-.5-.68c-.14-.14-.24-.18-.37-.18-.22 0-.32.06-.36.1a.42.42 0 00-.12.25zm10.76 2.18s.08-.1 0 0l.01-.01.01-.01a1.42 1.42 0 00.13-.15A3.24 3.24 0 0022 19c0-.64-.18-1.2-.54-1.6-.36-.4-.86-.61-1.36-.6-.42.02-.8.17-1.1.43a1.73 1.73 0 00-2.46.17c-.36.4-.54.96-.54 1.6a3.24 3.24 0 00.57 1.86 1.95 1.95 0 00.13.15l.01.01.01.01a.75.75 0 101.05-1.07 1.75 1.75 0 01-.27-.96c0-.36.1-.54.16-.6a.23.23 0 01.2-.1c.06 0 .14.04.22.13.08.09.17.26.17.57a.75.75 0 001.5 0c0-.31.1-.48.17-.57.08-.1.16-.12.23-.13.06 0 .13.02.19.1.06.06.16.24.16.6a1.75 1.75 0 01-.27.96.75.75 0 101.05 1.07zm-4.56 0s-.17-.2 0 0z"/></svg>