<svg width="24" height="24" viewBox="0 0 24 24" xmlns="http://www.w3.org/2000/svg"><path d="M8.25 12.5a1.25 1.25 0 100-2.5 1.25 1.25 0 000 2.5zm0 4a1.25 1.25 0 100-2.5 1.25 1.25 0 000 2.5zm9.25-5.25a1.25 1.25 0 11-2.5 0 1.25 1.25 0 012.5 0zm-5.25 1.25a1.25 1.25 0 100-2.5 1.25 1.25 0 000 2.5zm1.25 2.75a1.25 1.25 0 11-2.5 0 1.25 1.25 0 012.5 0zM16 4.08A2.25 2.25 0 0013.74 2h-3.5c-1.16 0-2.11.87-2.24 2H6.25C5.01 4 4 5 4 6.25v13.5C4 20.99 5 22 6.25 22h11.5c1.24 0 2.25-1 2.25-2.25V6.25C20 5.01 19 4 17.75 4h-1.76v.08zm0 .02v0zm-5.75 2.4h3.5c.78 0 1.47-.4 1.87-1h2.13c.41 0 .75.34.75.75v13.5c0 .41-.34.75-.75.75H6.25a.75.75 0 01-.75-.75V6.25c0-.41.34-.75.75-.75h2.13c.4.6 1.09 1 1.87 1zm0-3h3.5a.75.75 0 010 1.5h-3.5a.75.75 0 010-1.5z"/></svg>