<svg width="24" height="24" viewBox="0 0 24 24" xmlns="http://www.w3.org/2000/svg"><path d="M13.75 2h-3.5c-1.16 0-2.11.87-2.24 2H6.25C5.01 4 4 5 4 6.25v13.5C4 20.99 5 22 6.25 22h11.5c1.24 0 2.25-1 2.25-2.25V6.25C20 5.01 19 4 17.75 4h-1.76a2.25 2.25 0 00-2.24-2zm-3.5 1.5h3.5a.75.75 0 010 1.5h-3.5a.75.75 0 010-1.5zm-2 9a1.25 1.25 0 110-2.5 1.25 1.25 0 010 2.5zm0 4a1.25 1.25 0 110-2.5 1.25 1.25 0 010 2.5zm9.25-5.25a1.25 1.25 0 11-2.5 0 1.25 1.25 0 012.5 0zm-5.25 1.25a1.25 1.25 0 110-2.5 1.25 1.25 0 010 2.5zm1.25 2.75a1.25 1.25 0 11-2.5 0 1.25 1.25 0 012.5 0z"/></svg>