<svg width="16" height="16" viewBox="0 0 16 16" xmlns="http://www.w3.org/2000/svg"><path d="M5.75 8a.75.75 0 100-1.5.75.75 0 000 1.5zm.75 1.75a.75.75 0 11-1.5 0 .75.75 0 011.5 0zM10.25 8a.75.75 0 100-1.5.75.75 0 000 1.5zm-1.5-.75a.75.75 0 11-1.5 0 .75.75 0 011.5 0zM8 10.5A.75.75 0 108 9a.75.75 0 000 1.5zM6.5 1c-.65 0-1.2.42-1.41 1H4.5C3.67 2 3 2.67 3 3.5v10c0 .83.67 1.5 1.5 1.5h7c.83 0 1.5-.67 1.5-1.5v-10c0-.83-.67-1.5-1.5-1.5h-.59c-.2-.58-.76-1-1.41-1h-3zM6 2.5c0-.28.22-.5.5-.5h3a.5.5 0 010 1h-3a.5.5 0 01-.5-.5zM4.5 3h.59c.2.58.76 1 1.41 1h3c.65 0 1.2-.42 1.41-1h.59c.28 0 .5.22.5.5v10a.5.5 0 01-.5.5h-7a.5.5 0 01-.5-.5v-10c0-.28.22-.5.5-.5z"/></svg>