<svg width="20" height="20" viewBox="0 0 20 20" xmlns="http://www.w3.org/2000/svg"><path d="M12.92 2.87a2.97 2.97 0 014.2 4.21l-.66.67-4.2-4.2.66-.68zm-1.38 1.38l-8 8c-.32.33-.55.74-.65 1.2l-.88 3.94a.5.5 0 00.6.6l3.92-.87c.47-.1.9-.34 1.24-.68L8.2 16A5.5 5.5 0 0115 9.2l.75-.74-4.2-4.21zM13.5 19a4.5 4.5 0 100-9 4.5 4.5 0 000 9zm-.9-6.4l-.9.9h1.55A2.75 2.75 0 0116 16.25v.25a.5.5 0 01-1 0v-.25c0-.97-.78-1.75-1.75-1.75h-1.54l.9.9a.5.5 0 01-.71.7l-1.76-1.75a.5.5 0 010-.7l1.76-1.75a.5.5 0 01.7.7z"/></svg>