<svg width="16" height="16" viewBox="0 0 16 16" xmlns="http://www.w3.org/2000/svg"><path d="M12.44 1.56a1.91 1.91 0 00-2.7 0l-7.4 7.4c-.18.18-.32.4-.4.64l-.91 2.74a.5.5 0 00.63.63l2.74-.91c.24-.08.46-.22.65-.4l.06-.06a5.53 5.53 0 01-.1-1.31l-.67.66a.65.65 0 01-.26.16l-1.79.6.6-1.8c.03-.09.08-.18.16-.25L9 3.71 10.3 5h-.01a5.58 5.58 0 011.3.11l.85-.84c.75-.75.75-1.96 0-2.7zm-2 .7a.91.91 0 111.3 1.3L11 4.3 9.7 3l.74-.73zM10.5 15a4.5 4.5 0 100-9 4.5 4.5 0 000 9zm-.9-6.4l-.9.9h1.55A2.75 2.75 0 0113 12.25v.25a.5.5 0 01-1 0v-.25c0-.97-.78-1.75-1.75-1.75H8.71l.9.9a.5.5 0 01-.71.7l-1.76-1.75a.5.5 0 010-.7L8.9 7.9a.5.5 0 11.7.7z"/></svg>