<svg width="16" height="16" viewBox="0 0 16 16" xmlns="http://www.w3.org/2000/svg"><path d="M12.44 1.56a1.91 1.91 0 0 0-2.7 0l-7.4 7.4c-.18.18-.32.4-.4.64l-.91 2.74a.5.5 0 0 0 .63.63l2.74-.91c.24-.08.46-.22.65-.4l.06-.06a5.53 5.53 0 0 1-.1-1.31l-.67.66a.65.65 0 0 1-.26.16l-1.79.6.6-1.8c.03-.09.08-.18.16-.25L9 3.71 10.3 5h-.01a5.58 5.58 0 0 1 1.3.11l.85-.84c.75-.75.75-1.96 0-2.7Zm-2 .7a.91.91 0 1 1 1.3 1.3L11 4.3 9.7 3l.74-.73ZM10.5 15a4.5 4.5 0 1 0 0-9 4.5 4.5 0 0 0 0 9Zm-.9-6.4-.9.9h1.55A2.75 2.75 0 0 1 13 12.25v.25a.5.5 0 0 1-1 0v-.25c0-.97-.78-1.75-1.75-1.75H8.71l.9.9a.5.5 0 0 1-.71.7l-1.76-1.75a.5.5 0 0 1 0-.7L8.9 7.9a.5.5 0 1 1 .7.7Z"/></svg>