<svg width="12" height="12" viewBox="0 0 12 12" xmlns="http://www.w3.org/2000/svg"><g clip-path="url(#a)"><path d="M6 7.75a1.75 1.75 0 1 0 0-3.5 1.75 1.75 0 0 0 0 3.5Zm.75-5.68a4 4 0 0 1 3.18 3.18h1.32a.75.75 0 0 1 0 1.5H9.93a4 4 0 0 1-3.18 3.18v1.32a.75.75 0 0 1-1.5 0V9.93a4 4 0 0 1-3.18-3.18H.75a.75.75 0 0 1 0-1.5h1.32a4 4 0 0 1 3.18-3.18V.75a.75.75 0 0 1 1.5 0v1.32ZM8.5 6a2.5 2.5 0 1 0-5 0 2.5 2.5 0 0 0 5 0Z"/></g><defs><clipPath id="a"><path fill="#fff" d="M0 0h12v12H0z"/></clipPath></defs></svg>