<svg width="28" height="28" viewBox="0 0 28 28" xmlns="http://www.w3.org/2000/svg"><path d="M14.44 2.14a.75.75 0 0 0-.88 0 20.3 20.3 0 0 1-3.9 2.04A16.4 16.4 0 0 1 3.75 5.5a.75.75 0 0 0-.75.75V14c0 3.03 1.7 5.84 3.84 7.95 2.13 2.1 4.82 3.64 7.03 4.03L14 26l.13-.02c2.2-.39 4.9-1.92 7.03-4.03C23.3 19.85 25 17.03 25 14V6.25a.75.75 0 0 0-.75-.75c-2 0-4.1-.59-5.91-1.32a20.3 20.3 0 0 1-3.9-2.04Zm5.33 8.15-7.75 7.5a.75.75 0 0 1-1.02.02l-2.75-2.5a.75.75 0 0 1 1-1.12l2.23 2.03 7.25-7a.75.75 0 0 1 1.04 1.07Z"/></svg>