<svg width="28" height="28" viewBox="0 0 28 28" xmlns="http://www.w3.org/2000/svg"><path d="M5.75 4A3.75 3.75 0 0 0 2 7.75v12.5A3.75 3.75 0 0 0 5.75 24h9.32c-.05-.25-.07-.5-.07-.75v-.2A3.04 3.04 0 0 1 18.05 20h.8a3.99 3.99 0 0 1-.47-5.5H7.73a.73.73 0 0 1-.73-.73v-.04c0-.4.33-.73.73-.73h10.54c.4 0 .73.33.73.73v.15A4 4 0 0 1 25.5 17h.5V7.75A3.75 3.75 0 0 0 22.25 4H5.75ZM7 9.73c0-.4.33-.73.73-.73h5.54c.4 0 .73.33.73.73v.04c0 .4-.33.73-.73.73H7.73A.73.73 0 0 1 7 9.77v-.04Zm0 8c0-.4.33-.73.73-.73h7.54c.4 0 .73.33.73.73v.04c0 .4-.33.73-.73.73H7.73a.73.73 0 0 1-.73-.73v-.04ZM24.5 17a3 3 0 1 1-6 0 3 3 0 0 1 6 0Zm2.5 6.25c0 1.87-1.57 3.75-5.5 3.75-3.93 0-5.5-1.88-5.5-3.75v-.2c0-1.13.92-2.05 2.05-2.05h6.9c1.13 0 2.05.92 2.05 2.04v.21Z"/></svg>