<svg width="48" height="48" viewBox="0 0 48 48" xmlns="http://www.w3.org/2000/svg"><path d="M13.25 16a1.25 1.25 0 1 0 0 2.5h9.5a1.25 1.25 0 1 0 0-2.5h-9.5ZM12 23.75c0-.69.56-1.25 1.25-1.25h17.5a1.25 1.25 0 0 1 1.17 1.68c-.2.2-.38.42-.55.65-.18.1-.4.17-.62.17h-17.5c-.69 0-1.25-.56-1.25-1.25ZM26.23 37.5H8.75c-1.24 0-2.25-1-2.25-2.25v-22.5c0-1.24 1-2.25 2.25-2.25h30.5c1.24 0 2.25 1 2.25 2.25v10.89A6.98 6.98 0 0 1 44 29V12.75A4.75 4.75 0 0 0 39.25 8H8.75A4.75 4.75 0 0 0 4 12.75v22.5A4.75 4.75 0 0 0 8.75 40h17.27a7.83 7.83 0 0 1-.02-.5V39a5 5 0 0 1 .23-1.5ZM12 30.25c0-.69.56-1.25 1.25-1.25h13.5a1.25 1.25 0 1 1 0 2.5h-13.5c-.69 0-1.25-.56-1.25-1.25ZM42 29a5 5 0 1 1-10 0 5 5 0 0 1 10 0Zm4 10.5c0 3.5-3.15 6.5-9 6.5s-9-3-9-6.5V39a3 3 0 0 1 3-3h12a3 3 0 0 1 3 3v.5Z"/></svg>