<svg width="16" height="16" viewBox="0 0 16 16" xmlns="http://www.w3.org/2000/svg"><path d="M1 5.5A2.5 2.5 0 0 1 3.5 3h9A2.5 2.5 0 0 1 15 5.5v.84c-.26-.39-.6-.7-1-.94A1.5 1.5 0 0 0 12.5 4h-9C2.67 4 2 4.67 2 5.5v5c0 .83.67 1.5 1.5 1.5h4.55a2.51 2.51 0 0 0-.01 1H3.5A2.5 2.5 0 0 1 1 10.5v-5ZM9.67 7a3 3 0 0 0-.17 1h-5a.5.5 0 0 1 0-1h5.17ZM4.5 5a.5.5 0 0 0 0 1h3a.5.5 0 0 0 0-1h-3Zm0 4a.5.5 0 0 0 0 1h4a.5.5 0 0 0 0-1h-4Zm10-1a2 2 0 1 1-4 0 2 2 0 0 1 4 0Zm1.5 4.5c0 1.25-1 2.5-3.5 2.5S9 13.75 9 12.5c0-.83.67-1.5 1.5-1.5h4c.83 0 1.5.67 1.5 1.5Z"/></svg>