<svg width="24" height="24" viewBox="0 0 24 24" xmlns="http://www.w3.org/2000/svg"><path d="M6 8.75c0-.41.34-.75.75-.75h4.5a.75.75 0 0 1 0 1.5h-4.5A.75.75 0 0 1 6 8.75ZM6.75 11a.75.75 0 0 0 0 1.5h8.5a.75.75 0 0 0 0-1.5h-8.5ZM6 14.75c0-.41.34-.75.75-.75h6.5a.75.75 0 0 1 0 1.5h-6.5a.75.75 0 0 1-.75-.75Zm-4-8A2.75 2.75 0 0 1 4.75 4h14.5A2.75 2.75 0 0 1 22 6.75V14h-.04a3.5 3.5 0 0 0-1.46-2.37V6.75c0-.69-.56-1.25-1.25-1.25H4.75c-.69 0-1.25.56-1.25 1.25v10.5c0 .69.56 1.25 1.25 1.25h8.56c-.2.38-.31.81-.31 1.27v.1a4 4 0 0 0 0 .13H4.75A2.75 2.75 0 0 1 2 17.25V6.75Zm19 7.75a2.5 2.5 0 1 1-5 0 2.5 2.5 0 0 1 5 0Zm2 5.38c0 1.55-1.29 3.12-4.5 3.12S14 21.44 14 19.87v-.1c0-.98.8-1.77 1.77-1.77h5.46c.98 0 1.77.8 1.77 1.77v.1Z"/></svg>