<svg width="32" height="32" viewBox="0 0 32 32" xmlns="http://www.w3.org/2000/svg"><path d="M2 8.5A4.5 4.5 0 0 1 6.5 4h19A4.5 4.5 0 0 1 30 8.5V18h-.02A5 5 0 0 0 28 14.5v-6A2.5 2.5 0 0 0 25.5 6h-19A2.5 2.5 0 0 0 4 8.5v15A2.5 2.5 0 0 0 6.5 26h11c0 .68.15 1.36.45 2H6.5A4.5 4.5 0 0 1 2 23.5v-15ZM21 15a1 1 0 0 1 .36.07A5 5 0 0 0 20.23 17H9a1 1 0 1 1 0-2h12ZM8 11a1 1 0 0 1 1-1h7a1 1 0 1 1 0 2H9a1 1 0 0 1-1-1Zm1 9a1 1 0 1 0 0 2h9a1 1 0 1 0 0-2H9Zm19.5-1.5a3.5 3.5 0 1 1-7 0 3.5 3.5 0 0 1 7 0Zm2.5 7.44c0 2.02-1.71 4.06-6 4.06s-6-2.03-6-4.06a2.43 2.43 0 0 1 2.42-2.44h7.16c1.34 0 2.42 1.1 2.42 2.44Z"/></svg>