<svg width="24" height="24" viewBox="0 0 24 24" xmlns="http://www.w3.org/2000/svg"><path d="M10 6a1 1 0 0 0-1-1H6.78A5 5 0 0 0 7 15h2.12A1 1 0 0 0 9 13H6.82A3 3 0 0 1 7 7h2.12A1 1 0 0 0 10 6Zm12 4a5 5 0 0 0-5-5h-2.12A1 1 0 0 0 15 7h2.18a3 3 0 0 1 2.49 4.37c.64.23 1.23.55 1.76.95.36-.7.57-1.48.57-2.32Zm-5-1H6.88A1 1 0 0 0 7 11h10.12A1 1 0 0 0 17 9Zm-4.16 7.47a2 2 0 0 0 1.44-2.5l-.2-.68c.44-.38.94-.7 1.48-.91l.5.52a2 2 0 0 0 2.9 0l.5-.52c.54.23 1.04.54 1.48.93l-.19.63a2 2 0 0 0 1.45 2.5l.54.14a5.73 5.73 0 0 1 0 1.8l-.58.15a2 2 0 0 0-1.44 2.5l.2.68c-.44.38-.94.7-1.48.91l-.5-.52a2 2 0 0 0-2.9 0l-.5.52a5.28 5.28 0 0 1-1.48-.92l.19-.64a2 2 0 0 0-1.45-2.5l-.54-.14a5.72 5.72 0 0 1 0-1.8l.58-.15Zm6.11 1.03c0-.83-.65-1.5-1.45-1.5-.8 0-1.45.67-1.45 1.5S16.7 19 17.5 19c.8 0 1.45-.67 1.45-1.5Z"/></svg>