<svg width="24" height="24" viewBox="0 0 24 24" xmlns="http://www.w3.org/2000/svg"><path d="M9.25 5a.75.75 0 0 1 .11 1.5H7a3.5 3.5 0 0 0-.2 7h2.45a.75.75 0 0 1 .11 1.5H7a5 5 0 0 1-.25-10h2.5ZM17 5a5 5 0 0 1 4.43 7.32 6.5 6.5 0 0 0-1.3-.76A3.5 3.5 0 0 0 17.2 6.5L17 6.5h-2.25a.75.75 0 0 1-.11-1.5H17ZM7 9.25h10a.75.75 0 0 1 .1 1.5H7a.75.75 0 0 1-.1-1.5H7Zm7.28 4.73a2 2 0 0 1-1.44 2.5l-.59.14a5.73 5.73 0 0 0 0 1.8l.55.13a2 2 0 0 1 1.45 2.51l-.19.64c.44.38.94.7 1.49.92l.49-.52a2 2 0 0 1 2.9 0l.5.52a5.28 5.28 0 0 0 1.48-.91l-.2-.69a2 2 0 0 1 1.44-2.5l.59-.14a5.72 5.72 0 0 0 0-1.8l-.55-.13a2 2 0 0 1-1.45-2.51l.19-.63c-.44-.39-.94-.7-1.49-.93l-.49.52a2 2 0 0 1-2.9 0l-.5-.52c-.54.22-1.04.53-1.48.9l.2.7ZM17.5 19c-.8 0-1.45-.67-1.45-1.5S16.7 16 17.5 16c.8 0 1.45.67 1.45 1.5S18.3 19 17.5 19Z"/></svg>