<svg width="24" height="24" viewBox="0 0 24 24" xmlns="http://www.w3.org/2000/svg"><path d="M6 8.96a3.5 3.5 0 1 0-1.5-.1v6.28a3.5 3.5 0 1 0 1.5-.1V13h6.25A3.75 3.75 0 0 0 16 9.25v-.29a3.5 3.5 0 1 0-1.5-.1v.39c0 1.24-1 2.25-2.25 2.25H6V8.96Zm17 9.79A3.75 3.75 0 0 0 19.25 15h-.1a.75.75 0 0 0 .1 1.5h.15a2.25 2.25 0 0 1-.15 4.5l-.1.01a.75.75 0 0 0 .1 1.5v-.01h.2A3.75 3.75 0 0 0 23 18.74Zm-6.5-3a.75.75 0 0 0-.75-.75h-.2a3.75 3.75 0 0 0 .2 7.5h.1a.75.75 0 0 0-.1-1.5h-.15a2.25 2.25 0 0 1 .15-4.5h.1a.75.75 0 0 0 .65-.75Zm3.5 3a.75.75 0 0 0-.75-.75h-3.6a.75.75 0 0 0 .1 1.5h3.6a.75.75 0 0 0 .65-.75Z"/></svg>