<svg width="24" height="24" viewBox="0 0 24 24" xmlns="http://www.w3.org/2000/svg"><path d="M7.5 8.74A2.3 2.3 0 0 1 9.25 8c1.15 0 1.9.8 2.15 1.66.26.85.1 1.9-.62 2.62a8.1 8.1 0 0 1-.79.67l-.04.03c-.28.22-.53.41-.75.63a2.3 2.3 0 0 0-.58.89h2.13a.75.75 0 0 1 0 1.5h-3a.75.75 0 0 1-.75-.75c0-1.25.52-2.08 1.14-2.7.3-.3.62-.55.9-.76.28-.22.5-.4.68-.57.27-.27.37-.72.25-1.13-.12-.38-.37-.59-.72-.59s-.53.14-.64.25a.84.84 0 0 0-.15.23.75.75 0 0 1-1.43-.46l.04-.1.08-.17c.07-.14.18-.32.35-.5ZM13.25 8c.41 0 .75.34.75.75v2.75h1.5V8.75a.75.75 0 0 1 1.5 0v6.47a.75.75 0 0 1-1.5 0V13h-2.25a.75.75 0 0 1-.75-.75v-3.5c0-.41.34-.75.75-.75ZM22 12a10 10 0 1 0-20 0 10 10 0 0 0 20 0ZM3.5 12a8.5 8.5 0 1 1 17 0 8.5 8.5 0 0 1-17 0Z"/></svg>