<svg width="24" height="24" viewBox="0 0 24 24" xmlns="http://www.w3.org/2000/svg"><path d="M6 4.19c.3.27.34.74.06 1.05L5.4 6h2.86a.75.75 0 0 1 0 1.5H5.4l.66.76a.75.75 0 0 1-1.12.98l-1.75-2a.75.75 0 0 1 0-.98l1.75-2a.75.75 0 0 1 1.05-.07Zm11.95 1.05a.75.75 0 0 1 1.13-.98l1.75 2c.25.28.25.7 0 .98l-1.75 2a.75.75 0 0 1-1.13-.98l.66-.76h-2.86a.75.75 0 0 1 0-1.5h2.86l-.66-.76ZM6 15.75c0-.41.34-.75.75-.75h10.5a.75.75 0 0 1 0 1.5H6.75a.75.75 0 0 1-.75-.75ZM5.75 11A2.75 2.75 0 0 0 3 13.75v4a2.75 2.75 0 0 0 2.75 2.75h12.5A2.75 2.75 0 0 0 21 17.75v-4A2.75 2.75 0 0 0 18.25 11H5.75ZM4.5 13.75c0-.69.56-1.25 1.25-1.25h12.5c.69 0 1.25.56 1.25 1.25v4c0 .69-.56 1.25-1.25 1.25H5.75c-.69 0-1.25-.56-1.25-1.25v-4Z"/></svg>