<svg width="24" height="24" viewBox="0 0 24 24" xmlns="http://www.w3.org/2000/svg"><path d="M6.06 5.24a.75.75 0 1 0-1.12-.98l-1.75 2a.75.75 0 0 0 0 .98l1.75 2a.75.75 0 0 0 1.12-.98L5.4 7.5h2.86a.75.75 0 0 0 0-1.5H5.4l.66-.76ZM18.02 4.2a.75.75 0 0 0-.07 1.05l.66.76h-2.86a.75.75 0 0 0 0 1.5h2.86l-.66.76a.75.75 0 0 0 1.13.98l1.75-2a.75.75 0 0 0 0-.98l-1.75-2a.75.75 0 0 0-1.06-.07ZM5.75 11A2.75 2.75 0 0 0 3 13.75v4a2.75 2.75 0 0 0 2.75 2.75h12.5A2.75 2.75 0 0 0 21 17.75v-4A2.75 2.75 0 0 0 18.25 11H5.75ZM6 15.75c0-.41.34-.75.75-.75h10.5a.75.75 0 0 1 0 1.5H6.75a.75.75 0 0 1-.75-.75Z"/></svg>