<svg width="24" height="24" viewBox="0 0 24 24" xmlns="http://www.w3.org/2000/svg"><path d="M8.5 3.75a.75.75 0 0 0-1.5 0v2.5c0 .41-.34.75-.75.75h-2.5a.75.75 0 0 0 0 1.5h2.5c1.24 0 2.25-1 2.25-2.25v-2.5Zm0 16.5a.75.75 0 0 1-1.5 0v-2.5a.75.75 0 0 0-.75-.75h-2.5a.75.75 0 0 1 0-1.5h2.5c1.24 0 2.25 1 2.25 2.25v2.5ZM16.25 3a.75.75 0 0 0-.75.75v2.5c0 1.24 1 2.25 2.25 2.25h2.5a.75.75 0 0 0 0-1.5h-2.5a.75.75 0 0 1-.75-.75v-2.5a.75.75 0 0 0-.75-.75Zm-.75 17.25a.75.75 0 0 0 1.5 0v-2.5c0-.41.34-.75.75-.75h2.5a.75.75 0 0 0 0-1.5h-2.5c-1.24 0-2.25 1-2.25 2.25v2.5Z"/></svg>