<svg width="24" height="24" viewBox="0 0 24 24" xmlns="http://www.w3.org/2000/svg"><path d="M8.5 3.75a.75.75 0 00-1.5 0v2.5c0 .41-.34.75-.75.75h-2.5a.75.75 0 000 1.5h2.5c1.24 0 2.25-1 2.25-2.25v-2.5zm0 16.5a.75.75 0 01-1.5 0v-2.5a.75.75 0 00-.75-.75h-2.5a.75.75 0 010-1.5h2.5c1.24 0 2.25 1 2.25 2.25v2.5zM16.25 3a.75.75 0 00-.75.75v2.5c0 1.24 1 2.25 2.25 2.25h2.5a.75.75 0 000-1.5h-2.5a.75.75 0 01-.75-.75v-2.5a.75.75 0 00-.75-.75zm-.75 17.25a.75.75 0 001.5 0v-2.5c0-.41.34-.75.75-.75h2.5a.75.75 0 000-1.5h-2.5c-1.24 0-2.25 1-2.25 2.25v2.5z"/></svg>