<svg width="16" height="16" viewBox="0 0 16 16" xmlns="http://www.w3.org/2000/svg"><path d="M1 3.25C1 2.56 1.56 2 2.25 2h9.5c.69 0 1.25.56 1.25 1.25v2.96a5.5 5.5 0 0 0-4.11.45 2 2 0 1 0-1.62 1.32A5.49 5.49 0 0 0 6.21 10H2.25C1.56 10 1 9.44 1 8.75v-5.5ZM3.5 11h2.52a5.57 5.57 0 0 0 0 1H4.5a1.5 1.5 0 0 1-1.43-1.04c.14.03.28.04.43.04ZM14 6.6c.36.18.7.4 1 .66V5.5c0-.65-.42-1.2-1-1.41V6.6ZM4 3H3v.5a.5.5 0 0 1-.5.5H2v1h.5C3.33 5 4 4.33 4 3.5V3Zm7 0h-1v.5c0 .83.67 1.5 1.5 1.5h.5V4h-.5a.5.5 0 0 1-.5-.5V3ZM4 8.5C4 7.67 3.33 7 2.5 7H2v1h.5c.28 0 .5.22.5.5V9h1v-.5Zm5.06-.06a2 2 0 0 1-1.43 2.48l-.46.12a4.71 4.71 0 0 0 .01 1.01l.35.09A2 2 0 0 1 9 14.66l-.13.42c.26.2.54.38.84.52l.32-.35a2 2 0 0 1 2.91 0l.34.36c.3-.13.57-.3.82-.5l-.16-.55a2 2 0 0 1 1.44-2.48l.46-.12a4.7 4.7 0 0 0-.01-1.01l-.35-.09A2 2 0 0 1 14 8.34l.13-.42c-.26-.2-.54-.38-.84-.52l-.32.35a2 2 0 0 1-2.91 0l-.34-.36c-.3.13-.57.3-.82.5l.15.55Zm2.44 4.06a1 1 0 1 1 0-2 1 1 0 0 1 0 2Z"/></svg>