<svg width="16" height="16" viewBox="0 0 16 16" xmlns="http://www.w3.org/2000/svg"><path d="M9 6a2 2 0 0 1-.11.66c-.62.33-1.17.78-1.62 1.32L7 8a2 2 0 1 1 2-2Zm3-1v1.02c.34.03.68.1 1 .19V3.25C13 2.56 12.44 2 11.75 2h-9.5C1.56 2 1 2.56 1 3.25v5.5C1 9.44 1.56 10 2.25 10h3.96c.1-.35.23-.68.39-1H4v-.5C4 7.67 3.33 7 2.5 7H2V5h.5C3.33 5 4 4.33 4 3.5V3h6v.5c0 .83.67 1.5 1.5 1.5h.5Zm-8.5 6h2.52a5.57 5.57 0 0 0 0 1H4.5a1.5 1.5 0 0 1-1.43-1.04c.14.03.28.04.43.04ZM14 6.6c.36.18.7.4 1 .66V5.5c0-.65-.42-1.2-1-1.41V6.6ZM8 6a1 1 0 1 0-2 0 1 1 0 0 0 2 0ZM2.25 3H3v.5a.5.5 0 0 1-.5.5H2v-.75c0-.14.11-.25.25-.25ZM2 8.75V8h.5c.28 0 .5.22.5.5V9h-.75A.25.25 0 0 1 2 8.75ZM12 4h-.5a.5.5 0 0 1-.5-.5V3h.75c.14 0 .25.11.25.25V4ZM9.06 8.44a2 2 0 0 1-1.43 2.48l-.46.12a4.71 4.71 0 0 0 .01 1.01l.35.09A2 2 0 0 1 9 14.66l-.13.42c.26.2.54.38.84.52l.32-.35a2 2 0 0 1 2.91 0l.34.36c.3-.13.57-.3.82-.5l-.16-.55a2 2 0 0 1 1.44-2.48l.46-.12a4.7 4.7 0 0 0-.01-1.01l-.35-.09A2 2 0 0 1 14 8.34l.13-.42c-.26-.2-.54-.38-.84-.52l-.32.35a2 2 0 0 1-2.91 0l-.34-.36c-.3.13-.57.3-.82.5l.15.55Zm2.44 4.06a1 1 0 1 1 0-2 1 1 0 0 1 0 2Z"/></svg>