<svg width="24" height="24" viewBox="0 0 24 24" xmlns="http://www.w3.org/2000/svg"><path d="M2 6.75C2 5.78 2.78 5 3.75 5h13.5c.97 0 1.75.78 1.75 1.75v4.42A6.52 6.52 0 0 0 11.02 17H3.75C2.78 17 2 16.22 2 15.25v-8.5ZM4.4 18.5h6.68c.08.52.22 1.03.42 1.5H7a3 3 0 0 1-2.6-1.5Zm16.1-6.77c.55.29 1.06.65 1.5 1.08V10a3 3 0 0 0-1.5-2.6v4.33ZM5 7.25c0 .41-.34.75-.75.75h-1v1.5h1c1.24 0 2.25-1 2.25-2.25v-1H5v1Zm5.5 6.25a2.25 2.25 0 1 0 0-4.5 2.25 2.25 0 0 0 0 4.5Zm-6.25.5c.41 0 .75.34.75.75v1h1.5v-1c0-1.24-1-2.25-2.25-2.25h-1V14h1Zm12.5-6a.75.75 0 0 1-.75-.75v-1h-1.5v1c0 1.24 1 2.25 2.25 2.25h1V8h-1Zm-2.47 5.98a2 2 0 0 1-1.44 2.5l-.59.14a5.73 5.73 0 0 0 0 1.8l.55.13a2 2 0 0 1 1.45 2.51l-.19.64c.44.38.94.7 1.49.92l.49-.52a2 2 0 0 1 2.9 0l.5.52a5.28 5.28 0 0 0 1.48-.91l-.2-.69a2 2 0 0 1 1.44-2.5l.59-.14a5.72 5.72 0 0 0 0-1.8l-.55-.13a2 2 0 0 1-1.45-2.51l.19-.63c-.44-.39-.94-.7-1.49-.93l-.49.52a2 2 0 0 1-2.9 0l-.5-.52c-.54.22-1.04.53-1.48.9l.2.7ZM17.5 19c-.8 0-1.45-.67-1.45-1.5S16.7 16 17.5 16c.8 0 1.45.67 1.45 1.5S18.3 19 17.5 19Z"/></svg>