<svg width="20" height="20" viewBox="0 0 20 20" xmlns="http://www.w3.org/2000/svg"><path d="M4 5c0-1 .88-1.76 1.9-2.22C6.98 2.28 8.43 2 10 2c1.57 0 3.02.29 4.1.78C15.12 3.24 16 3.99 16 5v4h-1V6.7c-.27.2-.58.38-.9.52-1.08.5-2.53.78-4.1.78-1.57 0-3.02-.29-4.1-.78A4.92 4.92 0 015 6.7V15c0 .37.36.88 1.32 1.31.7.32 1.63.55 2.68.65v.54c0 .16.01.31.04.46a9.47 9.47 0 01-3.14-.74C4.88 16.76 4 16.01 4 15V5zm1 0c0 .37.36.88 1.32 1.31.91.42 2.22.69 3.68.69s2.77-.27 3.68-.69C14.64 5.88 15 5.37 15 5c0-.37-.36-.88-1.32-1.31A9.19 9.19 0 0010 3c-1.46 0-2.77.27-3.68.69C5.36 4.12 5 4.63 5 5zm5 6.5c0-.83.67-1.5 1.5-1.5h6c.83 0 1.5.67 1.5 1.5v.5h-9v-.5zm0 1.5h9v4.5c0 .83-.67 1.5-1.5 1.5h-6a1.5 1.5 0 01-1.5-1.5V13z"/></svg>