<svg width="20" height="20" viewBox="0 0 20 20" xmlns="http://www.w3.org/2000/svg"><path d="M6 4.5a1.5 1.5 0 0 0-1.43 1.04.75.75 0 0 1-1.38-.58A3 3 0 0 1 6 3h8a3 3 0 0 1 2.81 1.96.75.75 0 0 1-1.38.58A1.5 1.5 0 0 0 14 4.5H6ZM3.75 12a.75.75 0 0 1-.75-.75v-2.5a.75.75 0 0 1 1.5 0v2.5c0 .41-.34.75-.75.75ZM14 15.5H6a1.5 1.5 0 0 1-1.43-1.04.75.75 0 0 0-1.38.58A3 3 0 0 0 6 17h8a3 3 0 0 0 2.81-1.96.75.75 0 0 0-1.38-.58l-.03.08a1.5 1.5 0 0 1-1.4.96Zm1.5-4.25a.75.75 0 0 0 1.5 0v-2.5a.75.75 0 0 0-1.5 0v2.5Z"/></svg>