<svg width="16" height="16" viewBox="0 0 16 16" xmlns="http://www.w3.org/2000/svg"><path d="M3 2.75V3h.5a.5.5 0 0 0 .5-.5V2h-.25a.75.75 0 0 0-.75.75ZM3.75 1h4.5C9.22 1 10 1.78 10 2.75v.54l2.97 2.98A3.5 3.5 0 0 1 14 8.74v5.76a.5.5 0 0 1-1 0V8.74c0-.66-.26-1.3-.73-1.77L10 4.71v2.58l.85.86a.5.5 0 0 1-.7.7l-.99-.98a.5.5 0 0 1-.03-.03L7.91 6.6a.74.74 0 1 0-1.05 1.05l1.5 1.49c.09.09.14.22.14.35v1a1 1 0 0 0 1 1c.28 0 .5.22.5.5v1.25c0 .97-.78 1.75-1.75 1.75h-4.5C2.78 15 2 14.22 2 13.25V2.75C2 1.78 2.78 1 3.75 1ZM8 14h.25c.41 0 .75-.34.75-.75V13h-.5a.5.5 0 0 0-.5.5v.5Zm.21-1.97a2 2 0 0 1-.7-1.53v-.8l-.2-.19A2 2 0 1 1 6.07 6a1.75 1.75 0 0 1 2.54-.1l.39.4V4h-.5A1.5 1.5 0 0 1 7 2.5V2H5v.5C5 3.33 4.33 4 3.5 4H3v8h.5c.83 0 1.5.67 1.5 1.5v.5h2v-.5c0-.73.52-1.34 1.21-1.47ZM8.5 3H9v-.25A.75.75 0 0 0 8.25 2H8v.5c0 .28.22.5.5.5ZM3 13v.25c0 .41.34.75.75.75H4v-.5a.5.5 0 0 0-.5-.5H3Zm3.6-4.2-.44-.44a1.73 1.73 0 0 1-.51-1.3A1 1 0 1 0 6.6 8.8Z"/></svg>