<svg width="24" height="24" viewBox="0 0 24 24" xmlns="http://www.w3.org/2000/svg"><path d="M5.5 7a2.5 2.5 0 1 1 5 0 2.5 2.5 0 0 1-5 0ZM8 3a4 4 0 1 0 0 8 4 4 0 0 0 0-8Zm7.5 5a1.5 1.5 0 1 1 3 0 1.5 1.5 0 0 1-3 0ZM17 5a3 3 0 1 0 0 6 3 3 0 0 0 0-6Zm-5.25 8c.3 0 .59.06.85.17a2.5 2.5 0 0 0-1.4 1.33H4.26a.75.75 0 0 0-.75.75v.34l.06.33c.07.28.2.65.46 1.02.5.71 1.56 1.56 3.98 1.56 1.4 0 2.36-.29 3-.67v1.67c-.8.3-1.78.5-3 .5-2.83 0-4.39-1.03-5.2-2.2a4.49 4.49 0 0 1-.8-2.27v-.28C2 14.01 3 13 4.25 13h7.5Zm.25 2.5c0-.83.67-1.5 1.5-1.5h8c.83 0 1.5.67 1.5 1.5v4c0 .83-.67 1.5-1.5 1.5h-8a1.5 1.5 0 0 1-1.5-1.5v-4Zm1 .5v1a2 2 0 0 0 2-2h-1a1 1 0 0 1-1 1Zm9 1v-1a1 1 0 0 1-1-1h-1c0 1.1.9 2 2 2Zm-2 3h1a1 1 0 0 1 1-1v-1a2 2 0 0 0-2 2Zm-7-2v1a1 1 0 0 1 1 1h1a2 2 0 0 0-2-2Zm4.5 1.25a1.75 1.75 0 1 0 0-3.5 1.75 1.75 0 0 0 0 3.5Z"/></svg>