<svg width="20" height="20" viewBox="0 0 20 20" xmlns="http://www.w3.org/2000/svg"><path d="M6.75 9a3.25 3.25 0 1 0 0-6.5 3.25 3.25 0 0 0 0 6.5ZM9 12.5c0-1.1.71-2.04 1.7-2.37A2 2 0 0 0 10 10H3.5a2 2 0 0 0-2 2s0 4 5.25 4c.9 0 1.64-.12 2.26-.31L9 15.5v-3Zm8-6a2.5 2.5 0 1 1-5 0 2.5 2.5 0 0 1 5 0Zm-7 6c0-.83.67-1.5 1.5-1.5h6c.83 0 1.5.67 1.5 1.5v3c0 .83-.67 1.5-1.5 1.5h-6a1.5 1.5 0 0 1-1.5-1.5v-3Zm1 0v1c.83 0 1.5-.67 1.5-1.5h-1a.5.5 0 0 1-.5.5Zm7 1v-1a.5.5 0 0 1-.5-.5h-1c0 .83.67 1.5 1.5 1.5ZM16.5 16h1c0-.28.22-.5.5-.5v-1c-.83 0-1.5.67-1.5 1.5ZM11 14.5v1c.28 0 .5.22.5.5h1c0-.83-.67-1.5-1.5-1.5Zm3.5 1a1.5 1.5 0 1 0 0-3 1.5 1.5 0 0 0 0 3Z"/></svg>