<svg width="24" height="24" viewBox="0 0 24 24" xmlns="http://www.w3.org/2000/svg"><path d="M8.32 3.26A.75.75 0 0 0 7 3.75v6.56a9.32 9.32 0 0 0-1.14-1.82 5.37 5.37 0 0 0-1.7-1.38 2.07 2.07 0 0 0-.18-.07l-.02-.01h-.01a.75.75 0 0 0-.95.72v10C3 19.55 4.46 21 6.25 21h11.5c1.8 0 3.25-1.46 3.25-3.25v-10a.75.75 0 0 0-.95-.72h-.03a1.43 1.43 0 0 0-.19.08 5.37 5.37 0 0 0-1.7 1.39A9.32 9.32 0 0 0 17 10.3V3.76a.75.75 0 0 0-1.32-.5v.01l-.01.01-.03.04a11.56 11.56 0 0 0-.51.65A23.83 23.83 0 0 0 12 9.6a22.31 22.31 0 0 0-3.64-6.29l-.03-.04h-.01v-.01Z"/></svg>