<svg width="24" height="24" viewBox="0 0 24 24" xmlns="http://www.w3.org/2000/svg"><path d="m8.32 3.26.01.01.03.04a10.7 10.7 0 0 1 .51.65A23.83 23.83 0 0 1 12 9.6a22.31 22.31 0 0 1 3.64-6.29l.03-.04h.01v-.01a.75.75 0 0 1 1.32.49v6.56c.37-.77.76-1.36 1.14-1.82a5.37 5.37 0 0 1 1.7-1.38 2.07 2.07 0 0 1 .18-.07l.02-.01h.01a.75.75 0 0 1 .95.72v10c0 1.8-1.46 3.25-3.25 3.25H6.25A3.25 3.25 0 0 1 3 17.75v-10a.75.75 0 0 1 .95-.72h.03a1.44 1.44 0 0 1 .19.08 5.37 5.37 0 0 1 1.7 1.39c.37.45.76 1.04 1.13 1.8V3.76a.75.75 0 0 1 1.32-.5ZM4.5 9.2v8.54c0 .97.78 1.75 1.75 1.75h11.5c.97 0 1.75-.78 1.75-1.75V9.21l-.2.23c-.74.91-1.7 2.66-2.31 5.95a.75.75 0 0 1-1.49-.14v-9.2l-.36.56a18.84 18.84 0 0 0-2.4 5.8.75.75 0 0 1-1.47 0A18.84 18.84 0 0 0 8.5 6.03v9.21a.75.75 0 0 1-1.49.14c-.6-3.29-1.57-5.04-2.3-5.95a5.3 5.3 0 0 0-.21-.23Z"/></svg>