<svg width="28" height="28" viewBox="0 0 28 28" xmlns="http://www.w3.org/2000/svg"><path d="M9.3 3.25a.75.75 0 0 0-1.3.5v9.36a14.89 14.89 0 0 0-1.62-2.78A10.78 10.78 0 0 0 4.2 8.15a2.59 2.59 0 0 0-.04-.03h-.01l-.01-.01A.75.75 0 0 0 3 8.75v12.5A3.75 3.75 0 0 0 6.75 25h14.5A3.75 3.75 0 0 0 25 21.25V8.75a.75.75 0 0 0-1.14-.64l-.02.01a3 3 0 0 0-.2.13l-.49.4c-.4.36-.95.9-1.53 1.68-.54.72-1.1 1.64-1.62 2.78V3.75a.75.75 0 0 0-1.3-.5h-.01l-.02.02a5.34 5.34 0 0 0-.18.22l-.52.66A25.59 25.59 0 0 0 14 11.9a25.52 25.52 0 0 0-4.67-8.63l-.02-.01v-.01Z"/></svg>