<svg width="28" height="28" viewBox="0 0 28 28" xmlns="http://www.w3.org/2000/svg"><path d="M9.3 3.25h.01l.02.02a6.23 6.23 0 0 1 .18.22l.52.66A25.59 25.59 0 0 1 14 11.9a25.52 25.52 0 0 1 4.67-8.63l.02-.01v-.01a.75.75 0 0 1 1.31.5v9.36a14.89 14.89 0 0 1 1.62-2.78 10.78 10.78 0 0 1 2.18-2.18 3 3 0 0 1 .04-.03h.02V8.1a.75.75 0 0 1 1.14.64v12.5A3.75 3.75 0 0 1 21.25 25H6.75A3.75 3.75 0 0 1 3 21.25V8.75a.75.75 0 0 1 1.14-.64l.02.01a2.59 2.59 0 0 1 .2.13l.49.4c.4.36.95.9 1.53 1.68.54.72 1.1 1.64 1.62 2.78V3.75a.75.75 0 0 1 1.3-.5Zm-4.8 7.16v10.84c0 1.24 1 2.25 2.25 2.25h14.5c1.24 0 2.25-1 2.25-2.25V10.41c-.21.23-.44.5-.68.82a16.47 16.47 0 0 0-2.83 7.15.75.75 0 0 1-1.49-.13V5.99a22.7 22.7 0 0 0-3.76 9.37.75.75 0 0 1-1.48 0A22.7 22.7 0 0 0 9.5 5.99v12.26a.75.75 0 0 1-1.49.13c-.6-3.51-1.8-5.78-2.83-7.15-.24-.32-.47-.6-.68-.82Z"/></svg>