<svg width="20" height="20" viewBox="0 0 20 20" xmlns="http://www.w3.org/2000/svg"><path d="M5 4c0-1.1.9-2 2-2h6a2 2 0 0 1 2 2v12a2 2 0 0 1-2 2H7a2 2 0 0 1-2-2V4Zm3.5 10.5a.5.5 0 0 0 0 1h3a.5.5 0 0 0 0-1h-3ZM2.92 7.22a.5.5 0 0 0-.84.56l.38.57c.29.42.32.97.1 1.43-.4.78-.34 1.7.14 2.43l.38.57a.5.5 0 1 0 .84-.56l-.38-.57a1.43 1.43 0 0 1-.1-1.43c.4-.78.34-1.7-.14-2.43l-.38-.57Zm13.3-.14a.5.5 0 0 1 .7.14l.38.57c.48.73.54 1.65.15 2.43-.23.46-.2 1 .09 1.43l.38.57a.5.5 0 1 1-.84.56l-.38-.57a2.43 2.43 0 0 1-.15-2.43c.23-.46.2-1-.09-1.43l-.38-.57a.5.5 0 0 1 .14-.7Z"/></svg>