<svg width="20" height="20" viewBox="0 0 20 20" xmlns="http://www.w3.org/2000/svg"><path d="M4 5a3 3 0 0 1 3-3h8a3 3 0 0 1 3 3v6a3 3 0 0 1-3 3h-4v1a3 3 0 0 1-3 3H5a3 3 0 0 1-3-3v-3a3 3 0 0 1 2-2.83V5Zm6 7.5a.5.5 0 0 1 1 0v.5h4a2 2 0 0 0 2-2V5a2 2 0 0 0-2-2H7a2 2 0 0 0-2 2v4h1a.5.5 0 0 1 0 1H5a2 2 0 0 0-2 2v3c0 1.1.9 2 2 2h3a2 2 0 0 0 2-2v-2.5Zm-.5-2.25a.75.75 0 1 1-1.5 0 .75.75 0 0 1 1.5 0ZM8 7.5c0-.28.22-.5.5-.5a3.5 3.5 0 0 1 3.5 3.5.5.5 0 1 1-1 0A2.5 2.5 0 0 0 8.5 8a.5.5 0 0 1-.5-.5ZM8 5c0-.28.22-.5.5-.5a6 6 0 0 1 6 6 .5.5 0 0 1-1 0 5 5 0 0 0-5-5A.5.5 0 0 1 8 5Z"/></svg>