<svg width="24" height="24" viewBox="0 0 24 24" xmlns="http://www.w3.org/2000/svg"><path d="M8.25 3A3.25 3.25 0 0 0 5 6.25V8.5h2.25a.75.75 0 0 1 0 1.5H5c-1.68.14-3 1.54-3 3.25v4.5C2 19.55 3.46 21 5.25 21h5a3.25 3.25 0 0 0 3.24-3h.01v-1.75a.75.75 0 0 1 1.5 0V18h3.75c1.8 0 3.25-1.46 3.25-3.25v-8.5C22 4.45 20.54 3 18.75 3H8.25Zm2.25 11a1 1 0 1 1 0-2 1 1 0 0 1 0 2Zm-.25-5c2.35 0 4.25 1.9 4.25 4.25a.75.75 0 0 1-1.5 0 2.75 2.75 0 0 0-2.75-2.74.75.75 0 0 1 0-1.5Zm0-3c4 0 7.25 3.25 7.25 7.25a.75.75 0 0 1-1.5 0 5.75 5.75 0 0 0-5.75-5.75.75.75 0 0 1 0-1.5Z"/></svg>