<svg width="24" height="24" viewBox="0 0 24 24" xmlns="http://www.w3.org/2000/svg"><path d="M8.25 3A3.25 3.25 0 0 0 5 6.25v3.76c-1.68.13-3 1.53-3 3.24v4.5C2 19.55 3.46 21 5.25 21h5a3.25 3.25 0 0 0 3.24-3h5.26c1.8 0 3.25-1.46 3.25-3.25v-8.5C22 4.45 20.54 3 18.75 3H8.25Zm-3 8.5h2a.75.75 0 0 0 0-1.5H6.5V6.25c0-.97.78-1.75 1.75-1.75h10.5c.97 0 1.75.78 1.75 1.75v8.5c0 .97-.78 1.75-1.75 1.75H13.5v-.75a.75.75 0 0 0-1.5 0v2c0 .97-.78 1.75-1.75 1.75h-5c-.97 0-1.75-.78-1.75-1.75v-4.5c0-.97.78-1.75 1.75-1.75ZM10.5 14a1 1 0 1 0 0-2 1 1 0 0 0 0 2Zm-.25-5a.75.75 0 0 0 0 1.5A2.75 2.75 0 0 1 13 13.26a.75.75 0 0 0 1.5 0c0-2.34-1.9-4.24-4.25-4.24Zm0-3a.75.75 0 0 0 0 1.5A5.75 5.75 0 0 1 16 13.25a.75.75 0 0 0 1.5 0c0-4-3.24-7.25-7.25-7.25Z"/></svg>