<svg width="28" height="28" viewBox="0 0 28 28" xmlns="http://www.w3.org/2000/svg"><path d="M7 6.75A3.75 3.75 0 0 1 10.75 3h11.5A3.75 3.75 0 0 1 26 6.75v9.5A3.75 3.75 0 0 1 22.25 20H17v-1.75a.75.75 0 0 0-1.5 0v3A3.75 3.75 0 0 1 11.75 25h-6A3.75 3.75 0 0 1 2 21.25v-5.5A3.75 3.75 0 0 1 5.75 12h3.5a.75.75 0 0 0 0-1.5H7V6.75Zm4.5 4c0 .41.34.75.75.75A3.75 3.75 0 0 1 16 15.25a.75.75 0 0 0 1.5 0c0-2.9-2.35-5.25-5.25-5.25a.75.75 0 0 0-.75.75Zm.75-4.25a.75.75 0 0 0 0 1.5c4 0 7.25 3.24 7.25 7.25a.75.75 0 0 0 1.5 0 8.75 8.75 0 0 0-8.75-8.75ZM14 14.75a1.25 1.25 0 1 0-2.5 0 1.25 1.25 0 0 0 2.5 0Z"/></svg>