<svg width="20" height="20" viewBox="0 0 20 20" xmlns="http://www.w3.org/2000/svg"><path d="M6 4.5c-.83 0-1.5.67-1.5 1.5v1.75a.75.75 0 0 1-1.5 0V6a3 3 0 0 1 3-3h1.75a.75.75 0 0 1 0 1.5H6ZM6 8c0-1.1.9-2 2-2h4a2 2 0 0 1 2 2H6Zm0 1v3c0 1.1.9 2 2 2h4a2 2 0 0 0 2-2V9H6Zm6.25-6a.75.75 0 0 0 0 1.5H14c.83 0 1.5.67 1.5 1.5v1.75a.75.75 0 0 0 1.5 0V6a3 3 0 0 0-3-3h-1.75Zm-8.5 8.5c.41 0 .75.34.75.75V14c0 .83.67 1.5 1.5 1.5h1.75a.75.75 0 0 1 0 1.5H6a3 3 0 0 1-3-3v-1.75c0-.41.34-.75.75-.75Zm13.25.75a.75.75 0 0 0-1.5 0V14c0 .83-.67 1.5-1.5 1.5h-1.75a.75.75 0 0 0 0 1.5H14a3 3 0 0 0 3-3v-1.75Z"/></svg>