<svg width="20" height="20" viewBox="0 0 20 20" xmlns="http://www.w3.org/2000/svg"><path d="M4.5 4A2.5 2.5 0 0 0 2 6.5v7A2.5 2.5 0 0 0 4.5 16h11a2.5 2.5 0 0 0 2.5-2.5v-7A2.5 2.5 0 0 0 15.5 4h-11ZM3 6.5C3 5.67 3.67 5 4.5 5h11c.83 0 1.5.67 1.5 1.5v7c0 .83-.67 1.5-1.5 1.5h-11A1.5 1.5 0 0 1 3 13.5v-7ZM6 10c-.83 0-1.5.67-1.5 1.5v1a1.5 1.5 0 0 0 3 0v-1c0-.83-.67-1.5-1.5-1.5Zm-.5 1.5a.5.5 0 0 1 1 0v1a.5.5 0 0 1-1 0v-1Zm3-4a1.5 1.5 0 1 1 3 0v5a1.5 1.5 0 0 1-3 0v-5ZM10 7a.5.5 0 0 0-.5.5v5a.5.5 0 0 0 1 0v-5A.5.5 0 0 0 10 7Zm4 1c-.83 0-1.5.67-1.5 1.5v3a1.5 1.5 0 0 0 3 0v-3c0-.83-.67-1.5-1.5-1.5Zm-.5 1.5a.5.5 0 0 1 1 0v3a.5.5 0 0 1-1 0v-3Z"/></svg>