<svg width="16" height="16" viewBox="0 0 16 16" xmlns="http://www.w3.org/2000/svg"><path d="M5.5 4.5a2.5 2.5 0 0 1 5 0V5h-.02a1.3 1.3 0 0 0-1.22.87v.01L9 6.66a.58.58 0 0 1-.35.36l-.77.25h-.01a1.3 1.3 0 0 0 0 2.46h.01l.77.25a.58.58 0 0 1 .35.31A2.5 2.5 0 0 1 5.5 8V4.5Zm3.82 6.74A3.49 3.49 0 0 1 4.5 8a.5.5 0 0 0-1 0 4.5 4.5 0 0 0 4 4.47v1.03a.5.5 0 0 0 1 0v-1.03a4.47 4.47 0 0 0 1.5-.44 1.25 1.25 0 0 1 0-.13 1.3 1.3 0 0 1-.68-.66Zm1.47-.44a.3.3 0 0 1-.12.14.3.3 0 0 1-.17.06.3.3 0 0 1-.29-.2l-.24-.77a1.58 1.58 0 0 0-1-1l-.77-.25a.3.3 0 0 1 0-.57l.77-.25a1.58 1.58 0 0 0 .98-1l.25-.76a.3.3 0 0 1 .57 0l.25.77a1.57 1.57 0 0 0 1 1l.76.24h.02a.3.3 0 0 1 0 .58l-.77.25a1.58 1.58 0 0 0-1 1l-.24.76Zm4.04.97-.62-.2a1.26 1.26 0 0 1-.8-.8l-.2-.6a.24.24 0 0 0-.45 0l-.2.6a1.26 1.26 0 0 1-.79.8l-.6.2a.24.24 0 0 0 0 .46l.6.2a1.26 1.26 0 0 1 .8.8l.2.6a.24.24 0 0 0 .37.13.24.24 0 0 0 .09-.12l.2-.61a1.26 1.26 0 0 1 .8-.8l.6-.2a.24.24 0 0 0 0-.46Z"/></svg>