<svg width="20" height="20" viewBox="0 0 20 20" xmlns="http://www.w3.org/2000/svg"><path d="M4.35 4.33a.48.48 0 0 1 .68.01c.2.2.19.54-.02.75a6.98 6.98 0 0 0 .15 9.97c.22.2.23.55.03.75a.48.48 0 0 1-.67.02 7.98 7.98 0 0 1-.17-11.5ZM15 5.1a.53.53 0 0 1-.02-.75c.19-.18.5-.2.68 0a7.98 7.98 0 0 1-.17 11.5.48.48 0 0 1-.67-.03.53.53 0 0 1 .03-.75 6.98 6.98 0 0 0 .15-9.97Zm-8.86 1a.46.46 0 0 1 .66.02c.2.2.19.55-.02.76a4.49 4.49 0 0 0 .14 6.4c.22.21.25.57.04.78a.46.46 0 0 1-.64.03 5.49 5.49 0 0 1-.18-7.99Zm7.1.78c-.2-.21-.23-.56-.02-.76.18-.19.48-.2.66-.02a5.48 5.48 0 0 1-.18 7.99.46.46 0 0 1-.64-.03c-.21-.21-.18-.57.04-.78a4.49 4.49 0 0 0 .14-6.4ZM10 8.75a1.25 1.25 0 1 0 0 2.5 1.25 1.25 0 0 0 0-2.5Z"/></svg>