<svg width="24" height="24" viewBox="0 0 24 24" xmlns="http://www.w3.org/2000/svg"><path d="M8.25 2a3.25 3.25 0 0 0-3.24 3h9.74C17.1 5 19 6.9 19 9.25V13h.25c.95 0 1.84.28 2.59.77.1-.32.16-.67.16-1.02v-6A4.75 4.75 0 0 0 17.25 2h-9ZM18 9.25V13h-2.25a4.75 4.75 0 0 0-4.58 6h-.5L7 21.75c-.82.62-2 .03-2-1v-1.76a3.25 3.25 0 0 1-3-3.24v-6.5A3.25 3.25 0 0 1 5.25 6h9.5C16.55 6 18 7.46 18 9.25Zm5 8.5A3.75 3.75 0 0 0 19.25 14h-.1a.75.75 0 0 0 .1 1.5h.15a2.25 2.25 0 0 1-.15 4.5l-.1.01a.75.75 0 0 0 .1 1.5v-.01h.2A3.75 3.75 0 0 0 23 17.74Zm-6.5-3a.75.75 0 0 0-.75-.75h-.2a3.75 3.75 0 0 0 .2 7.5h.1a.75.75 0 0 0-.1-1.5h-.15a2.25 2.25 0 0 1 .15-4.5h.1a.75.75 0 0 0 .65-.75Zm3.5 3a.75.75 0 0 0-.75-.75h-3.6a.75.75 0 0 0 .1 1.5h3.6a.75.75 0 0 0 .65-.75Z"/></svg>