<svg width="28" height="28" viewBox="0 0 28 28" xmlns="http://www.w3.org/2000/svg"><path d="M9.75 2.01a3.75 3.75 0 0 0-3.67 3h12.17A4.75 4.75 0 0 1 23 9.76V16h.25c.82 0 1.6.21 2.27.58.3-.54.48-1.17.48-1.83V7.76a5.75 5.75 0 0 0-5.75-5.75H9.75ZM22 9.76V16h-4.25a4.75 4.75 0 0 0-4.42 6.5h-1.08l-4.24 3.23c-.83.63-2.01.04-2.01-.99V22.5h-.25A3.75 3.75 0 0 1 2 18.75V9.76a3.75 3.75 0 0 1 3.75-3.75h12.5A3.75 3.75 0 0 1 22 9.76Zm-4.25 8.74a2.25 2.25 0 0 0 0 4.5h.5a.75.75 0 0 1 0 1.5h-.5a3.75 3.75 0 1 1 0-7.5h.5a.75.75 0 0 1 0 1.5h-.5ZM17 20.75c0-.41.34-.75.75-.75h5.5a.75.75 0 0 1 0 1.5h-5.5a.75.75 0 0 1-.75-.75ZM23.25 23a2.25 2.25 0 0 0 0-4.5h-.5a.75.75 0 0 1 0-1.5h.5a3.75 3.75 0 1 1 0 7.5h-.5a.75.75 0 0 1 0-1.5h.5Z"/></svg>