<svg width="32" height="32" viewBox="0 0 32 32" xmlns="http://www.w3.org/2000/svg"><path d="M6.5 7.11V7a4 4 0 0 1 4-4h12A6.5 6.5 0 0 1 29 9.5V17c0 .58-.12 1.12-.34 1.62-.6-.3-1.26-.5-1.95-.58A2 2 0 0 0 27 17V9.5A4.5 4.5 0 0 0 22.5 5h-12a2 2 0 0 0-2 2h12a4.5 4.5 0 0 1 4.5 4.5V18h-2v-6.5A2.5 2.5 0 0 0 20.5 9h-13A2.5 2.5 0 0 0 5 11.5V22c0 1.1.9 2 2 2h2a1 1 0 0 1 1 1v2.43l3.86-3.2a1 1 0 0 1 .14-.1c.02.78.18 1.52.47 2.2l-4.01 3.32A1.5 1.5 0 0 1 8 28.5V26H7a4 4 0 0 1-4-4V11.5a4.5 4.5 0 0 1 3.5-4.39Zm15 13.39a1 1 0 0 0-1-1H20a4.5 4.5 0 1 0 0 9h.5a1 1 0 1 0 0-2H20a2.5 2.5 0 0 1 0-5h.5a1 1 0 0 0 1-1Zm4-1a1 1 0 1 0 0 2h.5a2.5 2.5 0 0 1 0 5h-.5a1 1 0 1 0 0 2h.5a4.5 4.5 0 1 0 0-9h-.5Zm-5 3.5a1 1 0 1 0 0 2h5a1 1 0 1 0 0-2h-5Z"/></svg>