<svg width="20" height="20" viewBox="0 0 20 20" xmlns="http://www.w3.org/2000/svg"><path d="M7.5 2A2.5 2.5 0 0 0 5 4.5v8A2.5 2.5 0 0 0 7.5 15h8a2.5 2.5 0 0 0 2.5-2.5v-8A2.5 2.5 0 0 0 15.5 2h-8ZM17 4.5V5h-6.5a.5.5 0 0 1-.5-.5V3h5.5c.83 0 1.5.67 1.5 1.5Zm-8 0c0 .83.67 1.5 1.5 1.5H17v6.5c0 .83-.67 1.5-1.5 1.5h-8A1.5 1.5 0 0 1 6 12.5v-8C6 3.67 6.67 3 7.5 3H9v1.5ZM12.5 18a2.5 2.5 0 0 0 2.45-2h-1.04c-.2.58-.76 1-1.41 1H6a3 3 0 0 1-3-3V7.5c0-.65.42-1.2 1-1.41V5.05A2.5 2.5 0 0 0 2 7.5V14a4 4 0 0 0 4 4h6.5Z"/></svg>