<svg width="24" height="24" viewBox="0 0 24 24" xmlns="http://www.w3.org/2000/svg"><path d="M4 6a3 3 0 0 1 3-3 1 1 0 0 1 0 2 1 1 0 0 0-1 1v3.94A3 3 0 0 1 5.18 12 3 3 0 0 1 6 14.06V18a1 1 0 0 0 1 1 1 1 0 1 1 0 2 3 3 0 0 1-3-3v-3.94a1 1 0 0 0-.76-.97l-.48-.12a1 1 0 0 1 0-1.94l.48-.12A1 1 0 0 0 4 9.94V6Zm16 0a3 3 0 0 0-3-3 1 1 0 1 0 0 2 1 1 0 0 1 1 1v3.94a3 3 0 0 0 .82 2.06 3 3 0 0 0-.82 2.06V18a1 1 0 0 1-1 1 1 1 0 1 0 0 2 3 3 0 0 0 3-3v-3.94a1 1 0 0 1 .76-.97l.48-.12a1 1 0 0 0 0-1.94l-.48-.12a1 1 0 0 1-.76-.97V6Z"/></svg>