<svg width="16" height="16" viewBox="0 0 16 16" xmlns="http://www.w3.org/2000/svg"><path d="M12 10.8V13a1 1 0 0 1-1 1H3a1 1 0 0 1-1-1V8.88l4.76 2.56a.5.5 0 0 0 .48 0l1.4-.76a5.48 5.48 0 0 1-1.1-.54l-.54.3-5-2.7V7a1 1 0 0 1 1-1h2.02a5.57 5.57 0 0 1 0-1H3a2 2 0 0 0-2 2v6c0 1.1.9 2 2 2h8a2 2 0 0 0 2-2v-2.6c-.32.16-.65.3-1 .4Zm-1.5-.8a4.5 4.5 0 1 0 0-9 4.5 4.5 0 0 0 0 9ZM9.35 3.65c.2.2.2.5 0 .7L8.21 5.5l1.14 1.15a.5.5 0 0 1-.7.7l-1.5-1.5a.5.5 0 0 1 0-.7l1.5-1.5c.2-.2.5-.2.7 0Zm2.5.7-.64.65H13a1 1 0 0 1 1 1v.5a.5.5 0 0 1-1 0V6h-1.8l.65.65a.5.5 0 0 1-.7.7l-1.5-1.5a.5.5 0 0 1 0-.7l1.5-1.5a.5.5 0 0 1 .7.7Z"/></svg>