<svg width="24" height="24" viewBox="0 0 24 24" xmlns="http://www.w3.org/2000/svg"><path d="M17.5 12a5.5 5.5 0 1 0 0-11 5.5 5.5 0 0 0 0 11Zm-1.65-7.15L14.21 6.5l1.64 1.65a.5.5 0 0 1-.7.7l-2-2a.5.5 0 0 1 0-.7l2-2a.5.5 0 0 1 .7.7Zm3-.7c.2.2.2.5 0 .7L17.71 6H20c.83 0 1.5.67 1.5 1.5V8a.5.5 0 0 1-1 0v-.5A.5.5 0 0 0 20 7h-2.3l1.15 1.15a.5.5 0 0 1-.7.7l-2-2a.5.5 0 0 1 0-.7l2-2c.2-.2.5-.2.7 0ZM17.5 13c1.75 0 3.33-.69 4.5-1.81v5.56a3.25 3.25 0 0 1-3.07 3.24l-.18.01H5.25a3.25 3.25 0 0 1-3.24-3.07L2 16.75V8.61l9.65 5.05c.22.12.48.12.7 0l2.41-1.26c.84.38 1.76.6 2.74.6ZM5.25 4h6.25a6.48 6.48 0 0 0 1.8 7.47l-1.3.68-9.98-5.23a3.25 3.25 0 0 1 3.04-2.91L5.25 4Z"/></svg>