<svg width="24" height="24" viewBox="0 0 24 24" xmlns="http://www.w3.org/2000/svg"><path d="M17.5 12a5.5 5.5 0 1 0 0-11 5.5 5.5 0 0 0 0 11Zm-1.65-7.15L14.21 6.5l1.64 1.65a.5.5 0 0 1-.7.7l-2-2a.5.5 0 0 1 0-.7l2-2a.5.5 0 0 1 .7.7Zm3-.7c.2.2.2.5 0 .7L17.71 6H20c.83 0 1.5.67 1.5 1.5V8a.5.5 0 0 1-1 0v-.5A.5.5 0 0 0 20 7h-2.3l1.15 1.15a.5.5 0 0 1-.7.7l-2-2a.5.5 0 0 1 0-.7l2-2c.2-.2.5-.2.7 0Zm1.65 12.6v-4.48a6.52 6.52 0 0 0 1.5-1.08v5.56a3.25 3.25 0 0 1-3.07 3.24l-.18.01H5.25a3.25 3.25 0 0 1-3.24-3.07L2 16.75v-9.5a3.25 3.25 0 0 1 3.07-3.24L5.25 4h6.25c-.2.47-.34.98-.42 1.5H5.25c-.92 0-1.67.7-1.74 1.6l-.01.15v.43l8.5 4.47 1.3-.68c.44.37.93.68 1.46.93l-2.41 1.26c-.19.1-.4.12-.6.05l-.1-.05L3.5 9.37v7.38c0 .92.7 1.67 1.6 1.74l.15.01h13.5c.92 0 1.67-.7 1.74-1.6l.01-.15Z"/></svg>