<svg width="24" height="24" viewBox="0 0 24 24" xmlns="http://www.w3.org/2000/svg"><path d="M14 4a1 1 0 0 1-1 1h-2a1 1 0 1 1 0-2h2a1 1 0 0 1 1 1Zm-9 7a1 1 0 1 0-2 0v2a1 1 0 1 0 2 0v-2Zm14 0a1 1 0 1 1 2 0v2a1 1 0 1 1-2 0v-2Zm-6 10a1 1 0 1 0 0-2h-2a1 1 0 1 0 0 2h2ZM7 4a1 1 0 0 0-1-1 3 3 0 0 0-3 3 1 1 0 0 0 2 0 1 1 0 0 1 1-1 1 1 0 0 0 1-1Zm11-1a1 1 0 1 0 0 2 1 1 0 0 1 1 1 1 1 0 1 0 2 0 3 3 0 0 0-3-3ZM7 20a1 1 0 0 1-1 1 3 3 0 0 1-3-3 1 1 0 1 1 2 0 1 1 0 0 0 1 1 1 1 0 0 1 1 1Zm11 1a1 1 0 1 1 0-2 1 1 0 0 0 1-1 1 1 0 1 1 2 0 3 3 0 0 1-3 3Z"/></svg>