<svg width="24" height="24" viewBox="0 0 24 24" xmlns="http://www.w3.org/2000/svg"><path d="M14 3.75c0 .41-.34.75-.75.75h-2.5a.75.75 0 0 1 0-1.5h2.5c.41 0 .75.34.75.75Zm-9.5 7a.75.75 0 0 0-1.5 0v2.5a.75.75 0 0 0 1.5 0v-2.5Zm15 0a.75.75 0 0 1 1.5 0v2.5a.75.75 0 0 1-1.5 0v-2.5ZM13.25 21a.75.75 0 0 0 0-1.5h-2.5a.75.75 0 0 0 0 1.5h2.5ZM7 3.75A.75.75 0 0 0 6.25 3h-.5A2.75 2.75 0 0 0 3 5.75v.5a.75.75 0 0 0 1.5 0v-.5c0-.69.56-1.25 1.25-1.25h.5c.41 0 .75-.34.75-.75ZM17.75 3a.75.75 0 0 0 0 1.5h.5c.69 0 1.25.56 1.25 1.25v.5a.75.75 0 0 0 1.5 0v-.5A2.75 2.75 0 0 0 18.25 3h-.5ZM7 20.25c0 .41-.34.75-.75.75h-.5A2.75 2.75 0 0 1 3 18.25v-.5a.75.75 0 0 1 1.5 0v.5c0 .69.56 1.25 1.25 1.25h.5c.41 0 .75.34.75.75Zm10.75.75a.75.75 0 0 1 0-1.5h.5c.69 0 1.25-.56 1.25-1.25v-.5a.75.75 0 0 1 1.5 0v.5A2.75 2.75 0 0 1 18.25 21h-.5Z"/></svg>