<svg width="20" height="20" viewBox="0 0 20 20" xmlns="http://www.w3.org/2000/svg"><path d="M8.75 3a.75.75 0 0 0 0 1.5h2.5a.75.75 0 0 0 0-1.5h-2.5Zm0 12.5a.75.75 0 0 0 0 1.5h2.5a.75.75 0 0 0 0-1.5h-2.5ZM5.45 4.6a1.5 1.5 0 0 0-.88.94.75.75 0 0 1-1.38-.58 3 3 0 0 1 1.77-1.77.75.75 0 1 1 .5 1.41Zm9.95.85a1.5 1.5 0 0 0-.94-.88.75.75 0 0 1 .58-1.38 3 3 0 0 1 1.78 1.77h-.01a.75.75 0 1 1-1.41.49ZM3.75 12a.75.75 0 0 1-.75-.75v-2.5a.75.75 0 0 1 1.5 0v2.5c0 .41-.34.75-.75.75Zm11.75-.75a.75.75 0 0 0 1.5 0v-2.5a.75.75 0 0 0-1.5 0v2.5ZM5.45 15.4a1.5 1.5 0 0 1-.88-.94.75.75 0 0 0-1.38.58 3 3 0 0 0 1.77 1.77.75.75 0 1 0 .5-1.41Zm9.95-.85a1.5 1.5 0 0 1-.94.88.75.75 0 0 0 .58 1.38 3 3 0 0 0 1.78-1.77h-.01a.75.75 0 1 0-1.41-.49Z"/></svg>