<svg width="20" height="20" viewBox="0 0 20 20" xmlns="http://www.w3.org/2000/svg"><path d="M8 4a.5.5 0 01.09 1H6a3 3 0 00-.2 6H8a.5.5 0 01.09 1H6a4 4 0 01-.22-8H8zm6 0a4 4 0 013.48 5.97c-.21-.27-.48-.5-.78-.66A3 3 0 0014.2 5L14 5h-2a.5.5 0 01-.09-1H14zM6 7.5h8a.5.5 0 01.09 1H6a.5.5 0 01-.09-1H6zm6 4.5v-.5c0-.83.67-1.5 1.5-1.5h2c.83 0 1.5.67 1.5 1.5v.5h.5c.83 0 1.5.67 1.5 1.5V15h-2v-.5a.5.5 0 00-1 0v.5h-3v-.5a.5.5 0 00-1 0v.5h-2v-1.5c0-.83.67-1.5 1.5-1.5h.5zm1-.5v.5h3v-.5a.5.5 0 00-.5-.5h-2a.5.5 0 00-.5.5zm4 5V16h2v1.5c0 .83-.67 1.5-1.5 1.5h-6a1.5 1.5 0 01-1.5-1.5V16h2v.5a.5.5 0 001 0V16h3v.5a.5.5 0 001 0z"/></svg>