<svg width="28" height="28" viewBox="0 0 28 28" xmlns="http://www.w3.org/2000/svg"><path d="m3.28 2.22 22.5 22.5a.75.75 0 0 1-1.06 1.06l-1.4-1.4c-.6.4-1.3.62-2.07.62h-3.5a.75.75 0 0 1 0-1.5h3.5c.35 0 .68-.08.97-.22l-3.23-3.23a3.29 3.29 0 0 1-3.86 1.55l-5.41-1.68a2.76 2.76 0 0 1-1.77-1.66l-.52-1.38a2.74 2.74 0 0 1 1.19-3.35l1.86-1.08.04-.04a3.34 3.34 0 0 0 .41-.42L4.72 5.78c-.14.3-.22.62-.22.97v3.5a.75.75 0 0 1-1.5 0v-3.5c0-.76.23-1.48.62-2.07l-1.4-1.4a.75.75 0 1 1 1.06-1.06ZM17.84 18.9 12 13.06a5.13 5.13 0 0 1-.65.61h-.01l-.02.02-.02.01a.76.76 0 0 1-.07.04l-1.86 1.09c-.53.31-.75.95-.54 1.51l.53 1.39c.13.36.43.64.8.75l5.42 1.69c.95.3 1.96-.24 2.24-1.18l.02-.09ZM6.22 3.04 7.68 4.5h2.57a.75.75 0 0 0 0-1.5h-3.5c-.18 0-.36.01-.53.04Zm6.27 6.27 1.12 1.12.32-.65c.26-.5.48-.95.74-1.58a.84.84 0 0 1 .3-.37c.11-.07.23-.1.37-.06.38.1.6.31.72.59.14.3.19.69.2 1.16 0 .44-.09 1-.22 1.55-.05.25-.12.49-.18.7a.75.75 0 0 0 .72.97h1.4c.86 0 1.45.8 1.22 1.6l-.39 1.3 1.21 1.2.62-2.08a2.76 2.76 0 0 0-2.66-3.52h-.43c.12-.55.22-1.18.2-1.75a4.4 4.4 0 0 0-.33-1.76 2.54 2.54 0 0 0-1.68-1.4c-1.28-.36-2.18.6-2.46 1.3-.23.57-.43.97-.69 1.47l-.1.2Zm11.01 11 1.46 1.47c.03-.17.04-.35.04-.53v-3.5a.75.75 0 0 0-1.5 0v2.57ZM25 6.76A3.75 3.75 0 0 0 21.25 3h-3.5a.75.75 0 0 0 0 1.5h3.5c1.24 0 2.25 1 2.25 2.25v3.5a.75.75 0 0 0 1.5 0v-3.5ZM6.75 25A3.75 3.75 0 0 1 3 21.25v-3.5a.75.75 0 0 1 1.5 0v3.5c0 1.24 1 2.25 2.25 2.25h3.5a.75.75 0 0 1 0 1.5h-3.5Z"/></svg>