<svg width="16" height="16" viewBox="0 0 16 16" xmlns="http://www.w3.org/2000/svg"><path d="M6.25 7.75a.75.75 0 1 0 0-1.5.75.75 0 0 0 0 1.5Zm-.11 1.92a.5.5 0 1 0-.75.66c.2.22.42.42.67.58l.21-.24.5-.5c-.24-.13-.45-.3-.63-.5ZM3 8a5 5 0 0 0 2.4 4.27l-.25 1.01A6 6 0 1 1 13.2 5c-.36 0-.73.05-1.07.18A5 5 0 0 0 3 8Zm6.75-1.75c.26 0 .48.13.62.32L9.32 7.62a.75.75 0 0 1 .43-1.37Zm-2.77 5.13 4.83-4.83a1.87 1.87 0 1 1 2.64 2.64l-4.83 4.83a2.2 2.2 0 0 1-1.02.58l-1.5.37a.89.89 0 0 1-1.07-1.07l.37-1.5c.1-.39.3-.74.58-1.02Z"/></svg>