<svg width="32" height="32" viewBox="0 0 32 32" xmlns="http://www.w3.org/2000/svg"><path d="M12 15a2 2 0 100-4 2 2 0 000 4zm10-2a2 2 0 11-4 0 2 2 0 014 0zM9.55 19.1a1 1 0 011.34.45l.04.06.17.26c.17.22.44.53.84.85A6.3 6.3 0 0016 22c2 0 3.29-.66 4.06-1.28a4.76 4.76 0 001.05-1.17 1 1 0 011.78.9v.02a2.61 2.61 0 01-.1.18l-.3.42c-.25.34-.63.78-1.18 1.21A8.28 8.28 0 0116 24c-2.5 0-4.21-.84-5.31-1.72a6.76 6.76 0 01-1.57-1.8v-.02H9.1v-.01a1 1 0 01.44-1.34zM16 2a14 14 0 100 28 14 14 0 000-28zM4 16a12 12 0 1124 0 12 12 0 01-24 0z"/></svg>