<svg width="32" height="32" viewBox="0 0 32 32" xmlns="http://www.w3.org/2000/svg"><path d="M2 16a14 14 0 1128 0 14 14 0 01-28 0zm10-1a2 2 0 100-4 2 2 0 000 4zm10-2a2 2 0 10-4 0 2 2 0 004 0zM9.55 19.1a1 1 0 00-.44 1.35v.02a2.45 2.45 0 00.1.18l.3.42c.25.34.63.78 1.18 1.21A8.28 8.28 0 0016 24c2.5 0 4.21-.84 5.31-1.72a6.76 6.76 0 001.57-1.8v-.02h.01v-.01a1 1 0 00-1.78-.9l-.04.06-.17.26c-.17.22-.44.53-.84.85A6.3 6.3 0 0116 22c-2 0-3.29-.66-4.06-1.28a4.76 4.76 0 01-1.05-1.17 1 1 0 00-1.34-.44z"/></svg>