<svg width="28" height="28" viewBox="0 0 28 28" xmlns="http://www.w3.org/2000/svg"><path d="M17.5 13a1.5 1.5 0 100-3 1.5 1.5 0 000 3zM12 11.5a1.5 1.5 0 11-3 0 1.5 1.5 0 013 0zm-3.67 5.63a.75.75 0 011.04.2 2.25 2.25 0 00.25.3A5.92 5.92 0 0014 19.5a5.92 5.92 0 004.62-2.16l.01-.01a.75.75 0 011.24.84l-.01.02-.02.03a3.85 3.85 0 01-.36.43A7.42 7.42 0 0114 21a7.42 7.42 0 01-5.86-2.81v-.01h-.01a.75.75 0 01.2-1.05zM14 2a12 12 0 100 24 12 12 0 000-24zM3.5 14a10.5 10.5 0 1121 0 10.5 10.5 0 01-21 0z"/></svg>