<svg width="32" height="32" viewBox="0 0 32 32" xmlns="http://www.w3.org/2000/svg"><path d="M9.01 8.52c.29-.33.7-.52 1.14-.52H12a1 1 0 1 0 0-2h-1.85c-1.02 0-2 .45-2.66 1.22l-4.65 5.43A3.5 3.5 0 0 0 2 14.92v4.58A4.5 4.5 0 0 0 6.5 24h4a4.5 4.5 0 0 0 4.5-4.5V17h2v2.5a4.5 4.5 0 0 0 4.5 4.5h4a4.5 4.5 0 0 0 4.5-4.5v-4.58c0-.83-.3-1.64-.84-2.27L24.5 7.22A3.5 3.5 0 0 0 21.85 6H20a1 1 0 1 0 0 2h1.85c.44 0 .85.2 1.14.52L25.97 12H20.5a3.5 3.5 0 0 0-3.46 3h-2.08a3.5 3.5 0 0 0-3.46-3H6.03l2.98-3.48Z"/></svg>