<svg width="28" height="28" viewBox="0 0 28 28" xmlns="http://www.w3.org/2000/svg"><path d="M11.5 4c.98 0 1.86.4 2.5 1.05A3.49 3.49 0 0116.5 4H24a2 2 0 012 2v9.52a1.75 1.75 0 00-2-.35V6h-7.5c-.83 0-1.5.67-1.5 1.5V17h-.25c-.97 0-1.75.78-1.75 1.75V7.5c0-.83-.67-1.5-1.5-1.5H4v16h7.5c.83 0 1.5-.67 1.5-1.5v1.75c0 .45.17.85.44 1.16-.55.37-1.22.59-1.94.59H4a2 2 0 01-2-2V6c0-1.1.9-2 2-2h7.5zM21 23.98l.02.02H21v-.02zm-1.49-7.93c.3.1.49.39.49.7v7.5a.75.75 0 01-1.31.5L17.16 23h-2.41a.75.75 0 01-.75-.75v-3.5c0-.41.34-.75.75-.75h2.41l1.53-1.74c.2-.24.53-.32.82-.21zm6.63 1.25a4.53 4.53 0 00-.91-1.13.75.75 0 10-.96 1.16c.13.1.35.35.59.74.4.67.64 1.48.64 2.43 0 .95-.24 1.76-.64 2.43-.24.39-.46.64-.59.74a.75.75 0 10.96 1.16c.25-.21.59-.58.91-1.13.54-.9.86-1.96.86-3.2 0-1.24-.32-2.3-.86-3.2zm-2.77 1.1c-.23-.36-.48-.6-.67-.75a.75.75 0 00-.9 1.2 2.24 2.24 0 01.7 1.65 2.24 2.24 0 01-.7 1.65l-.08.07a.75.75 0 00.98 1.13A3.73 3.73 0 0024 20.5c0-.81-.23-1.52-.63-2.1z"/></svg>