<svg width="28" height="28" viewBox="0 0 28 28" xmlns="http://www.w3.org/2000/svg"><path d="M11.5 4c1 0 1.9.46 2.5 1.17.6-.71 1.5-1.17 2.5-1.17h7.75c.97 0 1.75.78 1.75 1.75v9.77a1.75 1.75 0 00-1.5-.5V5.75a.25.25 0 00-.25-.25H16.5c-.97 0-1.75.78-1.75 1.75V17c-.64 0-1.2.34-1.5.85V7.25c0-.97-.78-1.75-1.75-1.75H3.75a.25.25 0 00-.25.25v16.5c0 .14.11.25.25.25h7.75c.64 0 1.2-.34 1.5-.85v.6c0 .43.15.82.41 1.13-.53.39-1.2.62-1.91.62H3.75C2.78 24 2 23.22 2 22.25V5.75C2 4.78 2.78 4 3.75 4h7.75zM21 23.98l.02.02H21v-.02zm-1.49-7.93c.3.1.49.39.49.7v7.5a.75.75 0 01-1.31.5L17.16 23h-2.41a.75.75 0 01-.75-.75v-3.5c0-.41.34-.75.75-.75h2.41l1.53-1.74c.2-.24.53-.32.82-.21zm6.63 1.25a4.53 4.53 0 00-.91-1.13.75.75 0 10-.96 1.16c.13.1.35.35.59.74.4.67.64 1.48.64 2.43 0 .95-.24 1.76-.64 2.43-.24.39-.46.64-.59.74a.75.75 0 10.96 1.16c.25-.21.59-.58.91-1.13.54-.9.86-1.96.86-3.2 0-1.24-.32-2.3-.86-3.2zm-2.77 1.1c-.23-.36-.48-.6-.67-.75a.75.75 0 00-.9 1.2 2.24 2.24 0 01.7 1.65 2.24 2.24 0 01-.7 1.65l-.08.07a.75.75 0 00.98 1.13A3.73 3.73 0 0024 20.5c0-.81-.23-1.52-.63-2.1z"/></svg>