<svg width="20" height="20" viewBox="0 0 20 20" xmlns="http://www.w3.org/2000/svg"><path d="M3 4.5C3 3.67 3.67 3 4.5 3h2a.5.5 0 0 0 0-1h-2A2.5 2.5 0 0 0 2 4.5v2a.5.5 0 0 0 1 0v-2Zm14 11c0 .83-.67 1.5-1.5 1.5h-2a.5.5 0 0 0 0 1h2a2.5 2.5 0 0 0 2.5-2.5v-2a.5.5 0 0 0-1 0v2ZM15.5 3c.83 0 1.5.67 1.5 1.5v2a.5.5 0 0 0 1 0v-2A2.5 2.5 0 0 0 15.5 2h-2a.5.5 0 0 0 0 1h2ZM3 15.5c0 .83.67 1.5 1.5 1.5h2a.5.5 0 0 1 0 1h-2A2.5 2.5 0 0 1 2 15.5v-2a.5.5 0 0 1 1 0v2Zm8.23-8.6a1.5 1.5 0 0 0-2.46 0l-2.6 3.75A1.5 1.5 0 0 0 7.42 13h5.18a1.5 1.5 0 0 0 1.23-2.35L11.23 6.9Z"/></svg>