<svg width="24" height="24" viewBox="0 0 24 24" xmlns="http://www.w3.org/2000/svg"><path d="M5.25 4A3.25 3.25 0 002 7.25v9.5C2 18.55 3.46 20 5.25 20h5.95c.08-.16.19-.3.31-.43l1.08-1.07H9.5v-13h9.25c.97 0 1.75.78 1.75 1.75v3.86c.54.13 1.05.35 1.5.65V7.25C22 5.45 20.54 4 18.75 4H5.25zM23 15.5a3.5 3.5 0 01-3.5 3.5H18v1a.5.5 0 01-.5.5h-1v1a.5.5 0 01-.5.5h-1v.5a.5.5 0 01-.5.5h-1.75a.75.75 0 01-.75-.75v-1.44c0-.2.08-.39.22-.53l3.75-3.75.15-.12A3.5 3.5 0 1123 15.5zm-3 .5a1 1 0 100-2 1 1 0 000 2z"/></svg>