<svg width="16" height="16" viewBox="0 0 16 16" xmlns="http://www.w3.org/2000/svg"><path d="M6 3h4.5c.83 0 1.5.67 1.5 1.5v1.63c.32-.08.64-.12.97-.13H13V4.5A2.5 2.5 0 0010.5 2h-7A2.5 2.5 0 001 4.5v5A2.5 2.5 0 003.5 12h3.88l1-1H6V3zM5 3v8H3.5A1.5 1.5 0 012 9.5v-5C2 3.67 2.67 3 3.5 3H5zm2.15 12.85c.1.1.21.15.35.15h2c.11 0 .2-.03.27-.07.07-.04.12-.1.15-.17a.86.86 0 00.06-.24l.02-.25V15l.56-.02a.47.47 0 00.3-.12c.07-.07.11-.17.12-.3L11 14h.5c.1 0 .2-.02.27-.07a.5.5 0 00.15-.17.65.65 0 00.07-.24 2.34 2.34 0 00.01-.5v-.2c.17.07.35.11.52.14a2.87 2.87 0 002.62-.86A3.11 3.11 0 0016 10a2.94 2.94 0 00-.88-2.13 3 3 0 00-5.03 2.84l-2.94 2.94c-.1.1-.15.21-.15.35v1.5c0 .14.05.25.15.35zm7.13-7.13c.15.14.22.32.22.53 0 .2-.07.39-.22.53a.72.72 0 01-.53.22.72.72 0 01-.53-.22.72.72 0 01-.22-.53c0-.2.07-.39.22-.53a.72.72 0 01.53-.22c.2 0 .39.07.53.22z"/></svg>