<svg width="24" height="24" viewBox="0 0 24 24" xmlns="http://www.w3.org/2000/svg"><path d="M2 7.25C2 5.45 3.46 4 5.25 4h13.5C20.55 4 22 5.46 22 7.25v4.5c-.45-.3-.96-.52-1.5-.64V7.25c0-.97-.78-1.75-1.75-1.75H9.5v13h3.09l-1.08 1.07c-.12.13-.23.27-.31.43H5.25A3.25 3.25 0 012 16.75v-9.5zM8 5.5H5.25c-.97 0-1.75.78-1.75 1.75v9.5c0 .97.78 1.75 1.75 1.75H8v-13zm15 10a3.5 3.5 0 01-3.5 3.5H18v1a.5.5 0 01-.5.5h-1v1a.5.5 0 01-.5.5h-1v.5a.5.5 0 01-.5.5h-1.75a.75.75 0 01-.75-.75v-1.44c0-.2.08-.39.22-.53l3.75-3.75.15-.12A3.5 3.5 0 1123 15.5zm-3 .5a1 1 0 100-2 1 1 0 000 2z"/></svg>