<svg width="16" height="16" viewBox="0 0 16 16" xmlns="http://www.w3.org/2000/svg"><path d="M8 2c-.4 0-.8.04-1.17.11a.5.5 0 0 0 .2.99 5.03 5.03 0 0 1 1.95 0 .5.5 0 0 0 .19-.99A6.03 6.03 0 0 0 8 2Zm3.33 1.01a.5.5 0 1 0-.55.83c.54.37 1.01.84 1.38 1.38a.5.5 0 0 0 .83-.55c-.44-.66-1-1.22-1.66-1.66Zm-6.1.83a.5.5 0 1 0-.56-.83C4 3.45 3.45 4.01 3 4.67a.5.5 0 1 0 .83.55c.37-.54.84-1.01 1.38-1.38Zm8.66 2.99a.5.5 0 1 0-.99.2 5.03 5.03 0 0 1 0 1.95.5.5 0 0 0 .99.19 6.02 6.02 0 0 0 0-2.34Zm-10.8.2a.5.5 0 0 0-.98-.2 6.03 6.03 0 0 0 0 2.34.5.5 0 0 0 .99-.2 5.03 5.03 0 0 1 0-1.95Zm9.9 4.3a.5.5 0 0 0-.83-.55 5.03 5.03 0 0 1-1.38 1.38.5.5 0 0 0 .55.83c.66-.44 1.22-1 1.66-1.66Zm-9.15-.55a.5.5 0 0 0-.83.55c.44.66 1 1.22 1.66 1.66a.5.5 0 0 0 .55-.83 5.03 5.03 0 0 1-1.38-1.38Zm3.18 2.12a.5.5 0 0 0-.19.99 6.02 6.02 0 0 0 2.34 0 .5.5 0 1 0-.2-.99 5.03 5.03 0 0 1-1.95 0ZM12 8a4 4 0 1 1-8 0 4 4 0 0 1 8 0Zm-1.5 0a.5.5 0 0 0-.25-.43l-2.63-1.5a.75.75 0 0 0-1.12.66v2.54c0 .58.62.94 1.12.65l2.63-1.48A.5.5 0 0 0 10.5 8Z"/></svg>