<svg width="16" height="16" viewBox="0 0 16 16" xmlns="http://www.w3.org/2000/svg"><path d="M3 4.5C3 3.67 3.67 3 4.5 3h7c.83 0 1.5.67 1.5 1.5v1.4c-.17-.13-.35-.29-.52-.47-.26-.28-.61-.43-.97-.43h-.01c-.37 0-.72.15-.98.43C9.81 6.2 9.1 6.5 8.35 6.5 7.55 6.5 7 7.18 7 7.87V10H4.5A1.5 1.5 0 0 1 3 8.5v-4ZM7.24 12a6.64 6.64 0 0 1-.2-1H2.5a.5.5 0 0 0 0 1h4.74Zm4.26 3c-.04 0-.07 0-.1-.02A5.67 5.67 0 0 1 9.62 14c-.35-.3-.64-.63-.88-1a5.15 5.15 0 0 1-.74-2.64V7.87c0-.2.15-.37.34-.37 1.07 0 2.03-.46 2.9-1.39.07-.07.16-.11.25-.11s.18.04.25.11a3.89 3.89 0 0 0 2.9 1.39c.2 0 .35.17.35.38v2.48a5.15 5.15 0 0 1-.75 2.64c-.24.37-.53.7-.88 1a5.67 5.67 0 0 1-1.87 1Z"/></svg>