<svg width="16" height="16" viewBox="0 0 16 16" xmlns="http://www.w3.org/2000/svg"><path d="M4.5 3C3.67 3 3 3.67 3 4.5v4c0 .83.67 1.5 1.5 1.5H7V9H4.5a.5.5 0 0 1-.5-.5v-4c0-.28.22-.5.5-.5h7c.28 0 .5.22.5.5v.6c.18.07.34.18.48.33.17.18.35.34.52.48V4.5c0-.83-.67-1.5-1.5-1.5h-7Zm-2 8h4.55c.04.34.1.68.19 1H2.5a.5.5 0 0 1 0-1Zm9 4c-.04 0-.07 0-.1-.02A5.67 5.67 0 0 1 9.62 14c-.35-.3-.64-.63-.88-1a5.15 5.15 0 0 1-.74-2.64V7.87c0-.2.15-.37.34-.37 1.07 0 2.03-.46 2.9-1.39.07-.07.16-.11.25-.11s.18.04.25.11a3.89 3.89 0 0 0 2.9 1.39c.2 0 .35.17.35.38v2.48a5.15 5.15 0 0 1-.75 2.64c-.24.37-.53.7-.88 1a5.67 5.67 0 0 1-1.87 1Z"/></svg>