<svg width="20" height="20" viewBox="0 0 20 20" xmlns="http://www.w3.org/2000/svg"><path d="M3 7c0-1.1.9-2 2-2h10a2 2 0 0 1 2 2v1.9c-.17-.13-.35-.29-.52-.47-.14-.15-.3-.26-.48-.33V7a1 1 0 0 0-1-1H5a1 1 0 0 0-1 1v5a1 1 0 0 0 1 1h6v.39l.05.61H5a2 2 0 0 1-2-2V7Zm8.6 9a5.73 5.73 0 0 1-.36-1H2.5a.5.5 0 0 0 0 1h9.1Zm3.9 2c-.04 0-.07 0-.1-.02a5.67 5.67 0 0 1-1.77-.98c-.35-.3-.64-.63-.88-1a5.15 5.15 0 0 1-.74-2.64V10.87c0-.2.15-.37.34-.37 1.07 0 2.03-.46 2.9-1.39.07-.07.16-.11.25-.11s.18.04.25.11a3.89 3.89 0 0 0 2.9 1.39c.2 0 .35.17.35.38v2.48a5.15 5.15 0 0 1-.75 2.64c-.24.37-.53.7-.88 1a5.67 5.67 0 0 1-1.87 1Z"/></svg>