<svg width="20" height="20" viewBox="0 0 20 20" xmlns="http://www.w3.org/2000/svg"><path d="M5.5 10a4.5 4.5 0 1 1 0-9 4.5 4.5 0 0 1 0 9Zm.9-6.4.9.9H5.74A2.75 2.75 0 0 0 3 7.25v.25a.5.5 0 0 0 1 0v-.25c0-.97.78-1.75 1.75-1.75h1.54l-.9.9a.5.5 0 1 0 .71.7l1.76-1.75a.5.5 0 0 0 0-.7L7.1 2.9a.5.5 0 1 0-.7.7ZM11 5.5a5.5 5.5 0 0 1-8 4.9V14c0 .65.2 1.25.56 1.74l5.39-5.3a1.5 1.5 0 0 1 2.1 0l5.4 5.3c.34-.49.55-1.1.55-1.74V6a3 3 0 0 0-3-3h-3.6c.38.75.6 1.6.6 2.5ZM12.5 8a.5.5 0 1 0 0-1 .5.5 0 0 0 0 1Zm0 1a1.5 1.5 0 1 1 0-3 1.5 1.5 0 0 1 0 3Zm-8.23 7.45c.49.35 1.08.55 1.73.55h8c.65 0 1.24-.2 1.73-.55l-5.38-5.3a.5.5 0 0 0-.7 0l-5.38 5.3Z"/></svg>