<svg width="16" height="16" viewBox="0 0 16 16" xmlns="http://www.w3.org/2000/svg"><path d="M2 2.25C2 1.56 2.56 1 3.25 1h4.5c.7 0 1.26.56 1.25 1.25v2c0 .14.11.25.25.25h.5A1.25 1.25 0 0 1 11 5.75V6H7.75A2.75 2.75 0 0 0 5 8.75v2.5c0 .26.04.51.1.75H3.25C2.56 12 2 11.44 2 10.75v-8.5ZM4 3.5a.5.5 0 1 0 1 0 .5.5 0 0 0-1 0ZM4.5 6a.5.5 0 1 0 0-1 .5.5 0 0 0 0 1ZM4 7.5a.5.5 0 1 0 1 0 .5.5 0 0 0-1 0ZM6.5 4a.5.5 0 1 0 0-1 .5.5 0 0 0 0 1ZM6 5.5a.5.5 0 1 0 1 0 .5.5 0 0 0-1 0Zm0 3.25C6 7.78 6.78 7 7.75 7h5.5c.97 0 1.75.78 1.75 1.75v2.5c0 .97-.78 1.75-1.75 1.75H12v1h.5a.5.5 0 0 1 0 1h-4a.5.5 0 0 1 0-1H9v-1H7.75C6.78 13 6 12.22 6 11.25v-2.5ZM7.75 12h5.5c.41 0 .75-.34.75-.75v-2.5a.75.75 0 0 0-.75-.75h-5.5a.75.75 0 0 0-.75.75v2.5c0 .41.34.75.75.75ZM11 14v-1h-1v1h1Z"/></svg>