<svg width="24" height="24" viewBox="0 0 24 24" xmlns="http://www.w3.org/2000/svg"><path d="M8.5 12.75v4c0 .43.08.85.22 1.25H3.5A1.5 1.5 0 0 1 2 16.5v-13A1.5 1.5 0 0 1 3.5 2h6A1.5 1.5 0 0 1 11 3.5V7h1.5A1.5 1.5 0 0 1 14 8.5V9h-1.75a3.75 3.75 0 0 0-3.75 3.75Zm-.33-7.62A.75.75 0 0 0 7.75 5a.76.76 0 0 0-.75.75.75.75 0 1 0 1.17-.62Zm0 3A.75.75 0 0 0 7.75 8a.76.76 0 0 0-.75.75.75.75 0 1 0 1.17-.62Zm-3.34 4.24c.13.09.27.13.42.13a.76.76 0 0 0 .75-.75.75.75 0 1 0-1.17.62Zm0-3c.13.09.27.13.42.13A.76.76 0 0 0 6 8.75a.75.75 0 1 0-1.17.62Zm0-3c.13.09.27.13.42.13A.76.76 0 0 0 6 5.75a.75.75 0 1 0-1.17.62Zm2.5 6c.13.09.27.13.42.13a.76.76 0 0 0 .75-.75.75.75 0 1 0-1.17.62Zm2.17.38A2.75 2.75 0 0 1 12.25 10h7A2.75 2.75 0 0 1 22 12.75v4a2.75 2.75 0 0 1-2.75 2.75H18v1h1.25a.75.75 0 0 1 0 1.5h-7a.75.75 0 0 1 0-1.5h1.25v-1h-1.25a2.75 2.75 0 0 1-2.75-2.75v-4ZM15 19.5v1h1.5v-1H15Zm-2.75-8c-.69 0-1.25.56-1.25 1.25v4c0 .69.56 1.25 1.25 1.25h7c.69 0 1.25-.56 1.25-1.25v-4c0-.69-.56-1.25-1.25-1.25h-7Z"/></svg>