<svg width="16" height="16" viewBox="0 0 16 16" xmlns="http://www.w3.org/2000/svg"><path d="m12.3 13 1.85 1.85a.5.5 0 0 0 .7-.7l-13-13a.5.5 0 1 0-.7.7L2.5 3.21A2.5 2.5 0 0 0 1 5.5v5A2.5 2.5 0 0 0 3.5 13h8.8ZM5.81 6.53a.79.79 0 0 0-.2.07C5.34 6.74 5 7.14 5 8c0 .86.34 1.26.62 1.4.3.15.68.1.93-.15a.5.5 0 1 1 .7.7 1.8 1.8 0 0 1-2.07.35C4.46 9.94 4 9.14 4 8c0-1.07.41-1.85 1.06-2.23l.76.76Zm3.8.07a1 1 0 0 0-.43.46l5.14 5.15A2.5 2.5 0 0 0 15 10.5v-5A2.5 2.5 0 0 0 12.5 3H5.12l3.34 3.34a1.8 1.8 0 0 1 2.8-.29.5.5 0 0 1-.71.7.8.8 0 0 0-.93-.15Z"/></svg>