<svg width="24" height="24" viewBox="0 0 24 24" xmlns="http://www.w3.org/2000/svg"><path d="M18.5 20a.5.5 0 01-.5.5H6a.5.5 0 01-.5-.5v-3H4v3c0 1.1.9 2 2 2h12a2 2 0 002-2V9.83a2 2 0 00-.59-1.42L13.6 2.6a.5.5 0 00-.05-.04 2.07 2.07 0 00-.34-.25l-.05-.03-.05-.03-.16-.09c-.2-.08-.41-.12-.63-.14h-.06a.6.6 0 00-.08-.01H6a2 2 0 00-2 2v9h1.5V4c0-.27.22-.5.5-.5h6V8c0 1.1.9 2 2 2h4.5v10zm-5-15.38l3.88 3.88H14a.5.5 0 01-.5-.5V4.62zM8.75 11.5a.75.75 0 000 1.5h6.5a.75.75 0 000-1.5h-6.5zm-6 2.75a.75.75 0 000 1.5h6.5a.75.75 0 000-1.5h-6.5zm6 2.75a.75.75 0 000 1.5h6.5a.75.75 0 000-1.5h-6.5z"/></svg>