<svg width="20" height="20" viewBox="0 0 20 20" xmlns="http://www.w3.org/2000/svg"><path d="M5.5 2c.28 0 .5.22.5.5V4h.25a.5.5 0 110 1H6v4.5a.5.5 0 11-1 0v-7c0-.28.22-.5.5-.5zm-4 1a.5.5 0 000 1h1.98a4.62 4.62 0 01-.43 1.66 2.42 2.42 0 01-1.67 1.35.5.5 0 00.24.98A3.42 3.42 0 003.94 6.1c.43-.85.56-1.81.56-2.61A.5.5 0 004 3H1.5zm12.48 10.55c.03-.1.1-.24.22-.35.11-.1.3-.2.65-.2.62 0 .84.42.84.64 0 .2-.04.4-.16.55-.1.13-.33.31-.9.31a.5.5 0 000 1c.2 0 .51.03.74.14.11.05.19.11.24.18.04.06.08.16.08.32 0 .39-.12.58-.24.68a.93.93 0 01-.6.18c-.2 0-.33-.02-.44-.06a.63.63 0 01-.21-.12l-.02-.01-.01-.02a.66.66 0 01-.04-.04l-.01-.02c-.05-.07-.1-.16-.14-.3a.5.5 0 00-.95.32c.13.42.36.76.7.97.34.22.73.28 1.12.28.4 0 .87-.1 1.24-.42.39-.32.6-.81.6-1.44a1.52 1.52 0 00-.52-1.17l.14-.15c.32-.4.38-.88.38-1.18 0-.79-.68-1.64-1.84-1.64-.57 0-1 .18-1.31.45-.3.27-.45.59-.52.82a.5.5 0 00.96.28zM9.84 13c-.47 0-.84.42-.84.86a.5.5 0 11-1 0 1.87 1.87 0 013.43-1.04c.35.55.37 1.27-.05 1.98-.21.36-.5.63-.79.86l-.42.3-.06.05-.02.01-.32.23c-.32.24-.55.47-.67.75h2.1a.5.5 0 010 1H8.5a.5.5 0 01-.5-.5c0-1.04.6-1.62 1.17-2.05l.37-.26.05-.04a9 9 0 00.38-.28c.24-.19.43-.37.55-.58.25-.43.19-.73.07-.92a.89.89 0 00-.75-.37zM5 14.26c-.18.17-.38.34-.58.47a.5.5 0 01-.56-.83 2.8 2.8 0 001.16-1.5.5.5 0 01.98.1v5a.5.5 0 11-1 0v-3.24zM12 2.5a.5.5 0 10-1 0v7a.5.5 0 001 0V5h.25a.5.5 0 100-1H12V2.5zm5.5-.5c.28 0 .5.22.5.5V4h.25a.5.5 0 110 1H18v4.5a.5.5 0 11-1 0v-7c0-.28.22-.5.5-.5zM8.9 3.02a.5.5 0 01.33.63l-1 3.2L9.9 6.5a.5.5 0 01.2.98l-2.5.5a.5.5 0 01-.58-.64l1.25-4a.5.5 0 01.63-.33zM14 3a.5.5 0 00-.5.5v4a.5.5 0 00.62.49l2-.5a.5.5 0 10-.24-.98l-1.38.35V4h1a.5.5 0 100-1H14z"/></svg>