<svg width="25" height="24" viewBox="0 0 25 24" xmlns="http://www.w3.org/2000/svg"><path d="M8.75 3.75a1 1 0 0 0-2 0v7.5a1 1 0 1 0 2 0v-4.5a1 1 0 0 0 0-2v-1ZM24 4a1 1 0 1 0-2 0v7a1 1 0 0 0 2 0V6.75a1 1 0 1 0 0-2V4Zm-9-1a1 1 0 0 1 1 1v.75h.25a1 1 0 1 1 0 2H16V11a1 1 0 1 1-2 0V8.52a1 1 0 0 1-.8.96l-2.5.5a1 1 0 0 1-1.15-1.3l1.5-4.5a1 1 0 0 1 1.9.64l-.96 2.86.81-.16a1 1 0 0 1 1.2.96V4a1 1 0 0 1 1-1ZM1 4.75a1 1 0 0 1 1-1h3a1 1 0 0 1 1 1c0 1.75-.87 4.45-3.6 5.66a1 1 0 0 1-.8-1.82 4.07 4.07 0 0 0 2.28-2.84H2a1 1 0 0 1-1-1ZM17.5 5a1 1 0 0 1 1-1H20a1 1 0 1 1 0 2h-.5v2.22l.76-.19a1 1 0 1 1 .48 1.94l-2 .5a1 1 0 0 1-1.24-.97V5Zm1.21 10.2a.6.6 0 0 1 .18-.27c.08-.07.24-.18.6-.18.64 0 .76.4.76.48 0 .22-.05.4-.14.5-.05.07-.24.27-.9.27a1 1 0 1 0 0 2c.26 0 .6.04.83.15.1.04.14.09.16.12.01.01.05.06.05.2 0 .44-.13.58-.2.63-.09.08-.26.15-.55.15-.34 0-.49-.06-.56-.1-.05-.04-.15-.12-.24-.4a1 1 0 0 0-1.9.63c.2.6.54 1.12 1.07 1.46a3 3 0 0 0 1.63.41c.59 0 1.28-.15 1.85-.62.6-.5.9-1.25.9-2.15a2.32 2.32 0 0 0-.54-1.53c.46-.61.54-1.3.54-1.72 0-1.22-1.04-2.48-2.75-2.48-.82 0-1.47.27-1.94.68-.44.4-.67.87-.77 1.23a1 1 0 1 0 1.92.55Zm-6.23-.45c-.38 0-.73.36-.73.77a1 1 0 1 1-2 0 2.78 2.78 0 0 1 5.1-1.54c.54.84.54 1.92-.06 2.94-.3.52-.72.9-1.1 1.2-.2.16-.4.3-.57.42l-.08.06a17.13 17.13 0 0 0-.83.65h1.99a1 1 0 1 1 0 2H10.75a1 1 0 0 1-1-1c0-1.52.9-2.37 1.66-2.94l.48-.35.08-.05.48-.35c.3-.24.5-.44.62-.66.27-.46.18-.71.1-.83a.81.81 0 0 0-.69-.32Zm-6.68 2.2.22-.16v3.46a1 1 0 0 0 2 0v-6.5a1 1 0 0 0-1.98-.21c-.1.5-.62 1.26-1.35 1.74a1 1 0 0 0 1.11 1.67Z"/></svg>