<svg width="20" height="20" viewBox="0 0 20 20" xmlns="http://www.w3.org/2000/svg"><path d="M5.25 2c.41 0 .75.34.75.75V4h.25a.75.75 0 010 1.5H6v3.75a.75.75 0 01-1.5 0v-6.5c0-.41.34-.75.75-.75zM0 3.75C0 3.34.34 3 .75 3h2.5c.41 0 .75.34.75.75 0 .74-.14 1.65-.6 2.46A3.61 3.61 0 01.9 7.98a.75.75 0 01-.3-1.46 2.12 2.12 0 001.5-1.05c.16-.3.27-.63.33-.97H.75A.75.75 0 010 3.75zm12.5-1a.75.75 0 10-1.5 0v6.5a.75.75 0 001.5 0V5.5h.25a.75.75 0 100-1.5h-.25V2.75zM18.25 2c.41 0 .75.34.75.75V4h.25a.75.75 0 010 1.5H19v3.75a.75.75 0 01-1.5 0v-6.5c0-.41.34-.75.75-.75zM9.47 3.96a.75.75 0 10-1.44-.42l-1 3.5a.75.75 0 00.9.94l2-.5a.75.75 0 10-.36-1.46l-.74.19.64-2.25zM14 3.75c0-.41.34-.75.75-.75h1a.75.75 0 110 1.5h-.25v1.7l.51-.16a.75.75 0 01.48 1.42l-1.5.5a.75.75 0 01-.99-.71v-3.5zm-8 8.5a.75.75 0 00-1.49-.16c-.09.4-.49.98-1.05 1.35a.75.75 0 00.84 1.25l.2-.14v2.7a.75.75 0 001.5 0v-5zm3.25 1.36c0-.32.28-.61.58-.61.27 0 .46.12.55.26.06.1.13.3-.08.66-.1.17-.25.32-.48.5l-.37.28-.06.04-.37.26c-.58.44-1.27 1.1-1.27 2.25 0 .41.33.75.75.75h2.69a.75.75 0 100-1.5H9.57c.1-.1.21-.2.35-.3l.33-.23.06-.05.44-.32c.3-.23.6-.53.84-.92.46-.78.46-1.6.04-2.24a2.12 2.12 0 00-3.88 1.18.75.75 0 001.5 0zm5.61-.47a.49.49 0 00-.14.23.75.75 0 01-1.44-.42c.08-.27.25-.63.59-.93.36-.32.85-.52 1.48-.52 1.3 0 2.1.96 2.1 1.89 0 .32-.07.85-.43 1.32a1.69 1.69 0 01.42 1.18c0 .68-.23 1.25-.69 1.64-.42.36-.95.47-1.4.47-.42 0-.86-.07-1.25-.31a2 2 0 01-.81-1.11.75.75 0 111.42-.47c.07.21.15.28.2.3.05.04.17.09.44.09.22 0 .36-.06.44-.12.05-.05.15-.16.15-.5 0-.1-.03-.15-.04-.17a.34.34 0 00-.13-.1 1.65 1.65 0 00-.65-.11.75.75 0 110-1.5c.52 0 .67-.15.71-.21.07-.09.11-.23.11-.4 0-.08-.1-.39-.6-.39-.28 0-.41.08-.48.14z"/></svg>