<svg width="28" height="28" viewBox="0 0 28 28" xmlns="http://www.w3.org/2000/svg"><path d="M7.5 3A3.5 3.5 0 004 6.5V11c0 .52-.01.8-.14 1.05-.12.24-.42.61-1.3 1.06a1 1 0 000 1.78c.88.45 1.15.8 1.28 1.08.15.34.16.76.16 1.6v3.93A3.5 3.5 0 007.5 25a1 1 0 100-2A1.5 1.5 0 016 21.5v-4.02c0-.71 0-1.54-.33-2.31A3.4 3.4 0 004.8 14c.37-.32.64-.67.84-1.05.35-.72.35-1.42.35-1.9V6.5C6 5.67 6.67 5 7.5 5a1 1 0 000-2zm13 0A3.5 3.5 0 0124 6.5V11c0 .52.01.8.14 1.05.12.24.42.61 1.3 1.06a1 1 0 010 1.78c-.88.45-1.15.8-1.28 1.08-.15.34-.16.76-.16 1.6v3.93a3.5 3.5 0 01-3.5 3.5 1 1 0 110-2c.83 0 1.5-.67 1.5-1.5v-4.02c0-.71 0-1.54.33-2.31.2-.44.48-.82.86-1.17a3.5 3.5 0 01-.84-1.05 4.04 4.04 0 01-.35-1.9V6.5c0-.83-.67-1.5-1.5-1.5a1 1 0 110-2z"/></svg>