<svg width="24" height="24" viewBox="0 0 24 24" xmlns="http://www.w3.org/2000/svg"><path d="M4.5 5.75A2.75 2.75 0 017.25 3a.75.75 0 010 1.5C6.56 4.5 6 5.06 6 5.75v4.3c0 .75-.3 1.45-.8 1.95.5.5.8 1.2.8 1.94v4.31c0 .69.56 1.25 1.25 1.25a.75.75 0 010 1.5 2.75 2.75 0 01-2.75-2.75v-4.3c0-.55-.34-1.02-.85-1.2l-.14-.04a.75.75 0 010-1.42l.14-.05c.5-.17.85-.64.85-1.18V5.75zm15 0A2.75 2.75 0 0016.75 3a.75.75 0 000 1.5c.69 0 1.25.56 1.25 1.25v4.3c0 .75.3 1.45.8 1.95-.5.5-.8 1.2-.8 1.94v4.31c0 .69-.56 1.25-1.25 1.25a.75.75 0 000 1.5 2.75 2.75 0 002.75-2.75v-4.3c0-.55.34-1.02.85-1.2l.14-.04a.75.75 0 000-1.42l-.14-.05a1.25 1.25 0 01-.85-1.18V5.75z"/></svg>