<svg width="28" height="28" viewBox="0 0 28 28" xmlns="http://www.w3.org/2000/svg"><path d="M7.75 3A3.25 3.25 0 004.5 6.25V11c0 .52 0 .84-.17 1.16-.15.3-.5.71-1.42 1.17a.75.75 0 000 1.34c.92.46 1.25.85 1.4 1.2.18.4.2.87.2 1.7v4.18c0 1.8 1.45 3.25 3.24 3.25a.75.75 0 000-1.5c-.97 0-1.75-.78-1.75-1.75V17.5c0-.72 0-1.5-.31-2.22-.21-.48-.54-.9-1.02-1.27.47-.36.79-.74 1-1.16.33-.67.33-1.32.33-1.8v-4.8c0-.96.78-1.74 1.75-1.74a.75.75 0 000-1.5zm12.5 0c1.8 0 3.25 1.45 3.25 3.25V11c0 .52 0 .84.17 1.16.15.3.5.71 1.42 1.17a.75.75 0 010 1.34c-.92.46-1.25.85-1.4 1.2-.18.4-.2.87-.2 1.7v4.18c0 1.8-1.45 3.25-3.24 3.25a.75.75 0 010-1.5c.97 0 1.75-.78 1.75-1.75V17.5c0-.72 0-1.5.31-2.22.21-.48.54-.9 1.02-1.27a3.41 3.41 0 01-1-1.16 3.8 3.8 0 01-.33-1.8v-4.8c0-.96-.78-1.74-1.75-1.74a.75.75 0 010-1.5z"/></svg>