<svg width="32" height="32" viewBox="0 0 32 32" xmlns="http://www.w3.org/2000/svg"><path d="M9.5 4A3.5 3.5 0 006 7.5v5.2c0 .58-.02.92-.19 1.24-.16.29-.54.71-1.65 1.12a1 1 0 000 1.88c1.1.4 1.47.82 1.63 1.15.2.4.21.91.21 1.83v4.58A3.5 3.5 0 009.5 28h.5a1 1 0 100-2h-.5A1.5 1.5 0 018 24.5v-4.67c0-.79 0-1.74-.41-2.6A3.5 3.5 0 006.6 16c.42-.33.73-.7.96-1.11.43-.8.43-1.62.43-2.15V7.5C8 6.67 8.67 6 9.5 6h.5a1 1 0 100-2h-.5zm13 0A3.5 3.5 0 0126 7.5v5.2c0 .58.02.92.19 1.24.16.29.54.71 1.65 1.12a1 1 0 010 1.88c-1.1.4-1.47.82-1.63 1.15-.2.4-.21.91-.21 1.83v4.58a3.5 3.5 0 01-3.5 3.5H22a1 1 0 110-2h.5c.83 0 1.5-.67 1.5-1.5v-4.67c0-.79 0-1.74.41-2.6.23-.47.55-.88.98-1.22-.42-.33-.73-.7-.96-1.11a4.28 4.28 0 01-.43-2.15V7.5c0-.83-.67-1.5-1.5-1.5H22a1 1 0 110-2h.5z"/></svg>