<svg width="48" height="48" viewBox="0 0 48 48" xmlns="http://www.w3.org/2000/svg"><path d="M14.25 6a4.75 4.75 0 00-4.75 4.75v8.23c0 .87-.02 1.53-.3 2.12-.27.52-.84 1.18-2.37 1.73a1.25 1.25 0 000 2.35c1.52.54 2.07 1.18 2.34 1.8.31.72.33 1.62.33 3v7.27A4.75 4.75 0 0014.25 42h.5a1.25 1.25 0 000-2.5h-.5c-1.24 0-2.25-1-2.25-2.25v-7.4c0-1.21 0-2.62-.54-3.87A4.96 4.96 0 009.92 24a5.07 5.07 0 001.51-1.8 6.9 6.9 0 00.57-3.16v-8.3c0-1.24 1-2.25 2.25-2.25h.5a1.25 1.25 0 100-2.5h-.5zm19.5 0a4.75 4.75 0 014.75 4.75v8.23c0 .87.02 1.53.3 2.12.27.52.84 1.18 2.37 1.73a1.25 1.25 0 010 2.35c-1.52.54-2.07 1.18-2.34 1.8-.31.72-.33 1.62-.33 3v7.27A4.75 4.75 0 0133.75 42h-.5a1.25 1.25 0 010-2.5h.5c1.24 0 2.25-1 2.25-2.25v-7.4c0-1.21 0-2.62.54-3.87.33-.77.84-1.42 1.54-1.97a5.07 5.07 0 01-1.51-1.8 6.9 6.9 0 01-.57-3.16v-8.3c0-1.24-1-2.25-2.25-2.25h-.5a1.25 1.25 0 110-2.5h.5z"/></svg>