<svg width="16" height="16" viewBox="0 0 16 16" xmlns="http://www.w3.org/2000/svg"><path d="M4.75 2C3.51 2 2.5 3 2.5 4.25V6c0 .55-.01.76-.07.9-.03.09-.1.22-.52.43a.75.75 0 000 1.34c.41.2.49.34.52.42.06.15.07.36.07.91v1.75c0 1.24 1 2.25 2.25 2.25a.75.75 0 000-1.5.75.75 0 01-.75-.75V9.93c0-.44 0-.95-.18-1.4A1.9 1.9 0 003.5 8c.13-.16.24-.33.32-.53C4 7.02 4 6.5 4 6.07V4.26c0-.41.34-.75.75-.75a.75.75 0 000-1.5zm6.5 0c1.24 0 2.25 1 2.25 2.25V6c0 .55.01.76.07.9.03.09.1.22.52.43a.75.75 0 010 1.34c-.41.2-.49.34-.52.42-.06.15-.07.36-.07.91v1.75c0 1.24-1 2.25-2.25 2.25a.75.75 0 010-1.5c.41 0 .75-.34.75-.75V9.93c0-.44 0-.95.18-1.4.08-.2.19-.37.32-.53a1.9 1.9 0 01-.32-.53 3.73 3.73 0 01-.18-1.4V4.26a.75.75 0 00-.75-.75.75.75 0 010-1.5z"/></svg>