<svg width="16" height="16" viewBox="0 0 16 16" xmlns="http://www.w3.org/2000/svg"><path d="M5 2a2 2 0 00-2 2v2c0 .53 0 .8-.09 1-.06.16-.2.33-.63.55a.5.5 0 000 .9c.44.22.57.4.63.55.08.2.09.47.09 1v2c0 1.1.9 2 2 2a.5.5 0 000-1 1 1 0 01-1-1V9.94c0-.45 0-.91-.16-1.31-.1-.25-.24-.45-.44-.63.2-.18.34-.38.44-.63.16-.4.16-.86.16-1.3V4a1 1 0 011-1 .5.5 0 000-1zm6 0a2 2 0 012 2v2c0 .53 0 .8.09 1 .06.16.2.33.63.55a.5.5 0 010 .9c-.44.22-.57.4-.63.55-.08.2-.09.47-.09 1v2a2 2 0 01-2 2 .5.5 0 010-1 1 1 0 001-1V9.94c0-.45 0-.91.16-1.31.1-.25.24-.45.44-.63-.2-.18-.34-.38-.44-.63-.16-.4-.16-.86-.16-1.3V4a1 1 0 00-1-1 .5.5 0 010-1z"/></svg>