<svg width="32" height="32" viewBox="0 0 32 32" xmlns="http://www.w3.org/2000/svg"><path d="M9.25 4A3.75 3.75 0 005.5 7.75v5.03c0 .57-.02.83-.15 1.07-.12.2-.44.59-1.52.98a1.25 1.25 0 000 2.35c1.08.39 1.37.76 1.49 1 .16.32.18.74.18 1.66v4.41A3.75 3.75 0 009.25 28h.5a1.25 1.25 0 000-2.5h-.5c-.69 0-1.25-.55-1.25-1.25v-4.52c0-.76 0-1.75-.44-2.66-.2-.4-.46-.75-.8-1.06.32-.28.58-.6.77-.94.47-.85.47-1.72.47-2.23V7.75c0-.69.56-1.25 1.25-1.25h.5a1.25 1.25 0 100-2.5h-.5zm13.5 0a3.75 3.75 0 013.75 3.75v5.03c0 .57.02.83.15 1.07.12.2.44.59 1.52.98a1.25 1.25 0 010 2.35c-1.08.39-1.37.76-1.49 1-.16.32-.18.74-.18 1.66v4.41A3.75 3.75 0 0122.75 28h-.5a1.25 1.25 0 010-2.5h.5c.69 0 1.25-.55 1.25-1.25v-4.52c0-.76 0-1.75.44-2.66.2-.4.46-.75.8-1.06-.32-.28-.58-.6-.77-.94-.47-.85-.47-1.72-.47-2.23V7.75c0-.69-.56-1.25-1.25-1.25h-.5a1.25 1.25 0 110-2.5h.5z"/></svg>