<svg width="16" height="16" viewBox="0 0 16 16" xmlns="http://www.w3.org/2000/svg"><path d="M9.44 1.94a.6.6 0 0 0-.83.02L1.99 8.58a.6.6 0 0 0 0 .84l.93.93h.02a.2.2 0 0 0 .1-.03A1.9 1.9 0 0 1 6 11.9c0 .39-.12.75-.32 1.05a.2.2 0 0 0-.03.11v.02l.9.9a.6.6 0 0 0 .87 0l6.6-7.02a.6.6 0 0 0-.04-.85l-.88-.81h-.05c-.05 0-.1.04-.14.08a1.9 1.9 0 1 1-2.8-2.57c.03-.04.06-.1.06-.15a.11.11 0 0 0 0-.05l-.73-.67Zm-1.4-.55a1.4 1.4 0 0 1 1.94-.04l.73.67c.22.2.28.48.26.71-.02.23-.12.46-.28.63a1.1 1.1 0 1 0 1.62 1.49c.16-.18.37-.3.6-.34.23-.04.5 0 .73.2l.88.81c.58.53.61 1.42.08 2l-6.6 7a1.4 1.4 0 0 1-2.01.03l-.9-.9c-.35-.35-.27-.85-.07-1.14a1.1 1.1 0 0 0-1.53-1.53c-.3.2-.8.28-1.14-.06l-.92-.93a1.4 1.4 0 0 1 0-1.98L8.04 1.4Z"/></svg>