<svg width="20" height="20" viewBox="0 0 20 20" xmlns="http://www.w3.org/2000/svg"><path d="M10.28 2.08a.5.5 0 00-.56 0 15.05 15.05 0 01-6.3 2.43A.5.5 0 003 5v4.5c0 3.9 2.3 6.73 6.82 8.47a.5.5 0 00.36 0l.04-.02A5.48 5.48 0 019 14.42c-1.77-.29-2.5-1.35-2.5-2.42 0-.83.67-1.5 1.5-1.5h2.73A5.48 5.48 0 0117 9.6V5a.5.5 0 00-.43-.5 15.05 15.05 0 01-6.3-2.42zM10 9.5a2 2 0 110-4 2 2 0 010 4zm9 5a4.5 4.5 0 11-9 0 4.5 4.5 0 019 0zm-4-2a.5.5 0 00-1 0V14h-1.5a.5.5 0 000 1H14v1.5a.5.5 0 001 0V15h1.5a.5.5 0 000-1H15v-1.5z"/></svg>