<svg width="28" height="28" viewBox="0 0 28 28" xmlns="http://www.w3.org/2000/svg"><path d="m18.27 3.21 7.5 7.25a.75.75 0 0 1 0 1.08l-7.5 7.25a.73.73 0 0 1-.81.15.75.75 0 0 1-.46-.69v-3.74c-6.7.27-9.52 4.02-9.64 4.18a.77.77 0 0 1-.84.27.75.75 0 0 1-.52-.71c0-8.02 6.59-10.48 11-10.73V3.75a.75.75 0 0 1 1.27-.54ZM7.75 4A4.75 4.75 0 0 0 3 8.75v11.5A4.75 4.75 0 0 0 7.75 25h11.5A4.75 4.75 0 0 0 24 20.25v-.5a.75.75 0 0 0-1.5 0v.5c0 1.8-1.46 3.25-3.25 3.25H7.75a3.25 3.25 0 0 1-3.25-3.25V8.75c0-1.8 1.46-3.25 3.25-3.25h4.5a.75.75 0 0 0 0-1.5h-4.5Z"/></svg>