<svg width="24" height="24" viewBox="0 0 24 24" xmlns="http://www.w3.org/2000/svg"><path d="M10.52 9 10 7.73 9.48 9h1.04ZM5.75 3A2.75 2.75 0 0 0 3 5.75v12.5A2.75 2.75 0 0 0 5.75 21h6.27a6.47 6.47 0 0 1-.52-6H5.75a.75.75 0 0 1 0-1.5h6.63A6.49 6.49 0 0 1 21 12.02V5.75A2.75 2.75 0 0 0 18.25 3H5.75Zm3.5 15.5h-3.5a.75.75 0 0 1 0-1.5h3.5a.75.75 0 0 1 0 1.5Zm1.44-13.04 2.25 5.5a.75.75 0 0 1-1.39.57l-.42-1.03H8.87l-.43 1.03a.75.75 0 0 1-1.38-.56l2.25-5.5a.75.75 0 0 1 1.38 0Zm5.81.29V7h1.25a.75.75 0 0 1 0 1.5H16.5v1.25a.75.75 0 0 1-1.5 0V8.5h-1.25a.75.75 0 0 1 0-1.5H15V5.75a.75.75 0 0 1 1.5 0ZM23 17.5a5.5 5.5 0 1 0-11 0 5.5 5.5 0 0 0 11 0Zm-5 .5v2.5a.5.5 0 1 1-1 0V18h-2.5a.5.5 0 1 1 0-1H17v-2.5a.5.5 0 1 1 1 0V17h2.5a.5.5 0 1 1 0 1H18Z"/></svg>