<svg width="16" height="16" viewBox="0 0 16 16" xmlns="http://www.w3.org/2000/svg"><path d="M5.5 7a2.5 2.5 0 100-5 2.5 2.5 0 000 5zm6.92-.22a2 2 0 11.26-.16c-.1.04-.18.1-.26.16zM8 8c.83 0 1.5.67 1.5 1.5V9.59c0 .25-.19 2.91-4 2.91-4 0-4-2.93-4-2.93V9.5C1.5 8.67 2.17 8 3 8h5zm3.2 4.24l.86.3a3.29 3.29 0 001.25-2.02l.02-.17-.72-.68a.88.88 0 01-.22-.9l.03-.08.32-.76a.78.78 0 01.88-.49l.08.02.4.13c.4.13.72.48.82.91.24 1.04-.05 2.3-.86 3.78-.8 1.48-1.69 2.37-2.65 2.67-.37.12-.77.03-1.07-.22l-.08-.08-.31-.3a.88.88 0 01-.15-1.04l.05-.07.47-.69a.79.79 0 01.8-.33l.08.02z"/></svg>