<svg width="24" height="24" viewBox="0 0 24 24" xmlns="http://www.w3.org/2000/svg"><path d="M2.13 5.5C2.43 4.63 3.27 4 4.25 4h15.5c.98 0 1.81.63 2.12 1.5H2.13ZM22 11.25h-6.2a4 4 0 0 1-.9 1.5H22v-1.5ZM22 9h-6.13a3.99 3.99 0 0 0-.75-1.5H22V9Zm-7.17 0a3 3 0 0 0-5.66 0 3 3 0 1 0 5.66 0ZM2 7.5h6.88c-.35.43-.61.94-.75 1.5H2V7.5Zm0 3.75h6.2a4 4 0 0 0 .9 1.5H2v-1.5ZM2 15h4.1c-.06.24-.1.49-.1.75v.75H2V15Zm.13 3.5H6V20H4.25c-.98 0-1.81-.63-2.12-1.5ZM7 15.75A1.74 1.74 0 0 1 8.75 14h6.5A1.75 1.75 0 0 1 17 15.75V20H7v-4.25Zm11 2.75V20h1.75c.98 0 1.81-.63 2.12-1.5H18Zm4-2h-4v-.75c0-.26-.04-.51-.1-.75H22v1.5Z"/></svg>