<svg width="28" height="28" viewBox="0 0 28 28" xmlns="http://www.w3.org/2000/svg"><path d="M4.75 4h18.5c1.07 0 2 .61 2.45 1.5H2.3A2.75 2.75 0 0 1 4.75 4Zm5 6H2V8.5h8.65c-.4.43-.7.94-.9 1.5Zm.1 3.25H2v1.5h8.89c-.44-.42-.8-.93-1.04-1.5Zm7.26 1.5c.44-.42.8-.93 1.04-1.5H26v1.5h-8.89ZM7.04 18H2v1.5h5v-1c0-.17.01-.34.04-.5ZM7 22.5H2.3c.46.89 1.37 1.5 2.44 1.5H7v-1.5ZM21 24h2.27c1.06 0 1.98-.61 2.43-1.5H21V24Zm0-4.5h5V18h-5.04c.03.16.04.33.04.5v1ZM18.24 10a4.5 4.5 0 0 0-.89-1.5H26V10h-7.76ZM9.5 18.5c0-.28.22-.5.5-.5h8c.28 0 .5.22.5.5V24H20v-5.5a2 2 0 0 0-2-2h-8a2 2 0 0 0-2 2V24h1.5v-5.5Zm1-7a3.5 3.5 0 1 1 7 0 3.5 3.5 0 0 1-7 0Zm3.5-2a2 2 0 1 0 0 4 2 2 0 0 0 0-4Z"/></svg>