<svg width="32" height="32" viewBox="0 0 32 32" xmlns="http://www.w3.org/2000/svg"><path d="M5.25 4c-1.35 0-2.51.83-3 2h27.5a3.25 3.25 0 0 0-3-2H5.25Zm16.23 5.5H30v2h-7.67a6.46 6.46 0 0 0-.85-2Zm-10.96 0H2v2h7.67c.17-.72.46-1.4.85-2Zm-.7 5.5H2v2h8.88a6.48 6.48 0 0 1-1.07-2Zm-2.78 5.5H2v2h4.5c0-.73.2-1.41.54-2Zm18.46 2c0-.73-.2-1.41-.54-2H30v2h-4.5ZM6.5 26H2.25c.49 1.17 1.65 2 3 2H6.5v-2Zm19 2v-2h4.25a3.25 3.25 0 0 1-3 2H25.5Zm-4.38-11c.47-.6.83-1.27 1.07-2H30v2h-8.88ZM10 22.5c0-.28.22-.5.5-.5h11c.28 0 .5.22.5.5V28h2v-5.5a2.5 2.5 0 0 0-2.5-2.5h-11A2.5 2.5 0 0 0 8 22.5V28h2v-5.5Zm1-9.5a5 5 0 1 1 10 0 5 5 0 0 1-10 0Zm5-3a3 3 0 1 0 0 6 3 3 0 0 0 0-6Z"/></svg>