<svg width="48" height="48" viewBox="0 0 48 48" xmlns="http://www.w3.org/2000/svg"><path d="M4.37 10.5A4.25 4.25 0 0 1 8.25 8h31.5c1.72 0 3.2 1.03 3.87 2.5H4.37Zm39.63 5H30.62c.5.75.9 1.6 1.13 2.5H44v-2.5Zm-40 0h13.38c-.5.75-.9 1.6-1.13 2.5H4v-2.5Zm0 7.25h12.49a8 8 0 0 0 1.47 2.5H4v-2.5ZM4 30h8.15c-.1.4-.15.82-.15 1.25v1.25H4V30Zm32 1.25v1.25h8V30h-8.15c.1.4.15.82.15 1.25ZM4.37 37.5H12V40H8.25a4.25 4.25 0 0 1-3.88-2.5Zm31.63 0V40h3.75c1.72 0 3.2-1.03 3.87-2.5H36Zm-4.49-14.75a8 8 0 0 1-1.47 2.5H44v-2.5H31.5ZM14 40v-8.75c0-1.8 1.46-3.25 3.25-3.25h13.5c1.8 0 3.25 1.46 3.25 3.25V40H14Zm16-20a6 6 0 1 1-12 0 6 6 0 0 1 12 0Z"/></svg>