<svg width="48" height="48" viewBox="0 0 48 48" xmlns="http://www.w3.org/2000/svg"><path d="M8.25 8a4.25 4.25 0 0 0-3.88 2.5h39.25A4.25 4.25 0 0 0 39.75 8H8.25Zm22.37 7.5H44V18H31.75a7.96 7.96 0 0 0-1.13-2.5Zm-13.24 0H4V18h12.25c.23-.9.62-1.75 1.13-2.5Zm-.9 7.25H4v2.5h13.96a8 8 0 0 1-1.47-2.5ZM12.16 30H4v2.5h8v-1.25c0-.43.05-.85.15-1.25ZM36 32.5v-1.25c0-.43-.05-.85-.15-1.25H44v2.5h-8Zm-24 5H4.37A4.25 4.25 0 0 0 8.25 40H12v-2.5ZM36 40v-2.5h7.62a4.25 4.25 0 0 1-3.87 2.5H36Zm-5.96-14.75a8 8 0 0 0 1.47-2.5H44v2.5H30.04Zm-13.54 6c0-.41.34-.75.75-.75h13.5c.41 0 .75.34.75.75V40H34v-8.75c0-1.8-1.46-3.25-3.25-3.25h-13.5A3.25 3.25 0 0 0 14 31.25V40h2.5v-8.75ZM24 26a6 6 0 1 0 0-12 6 6 0 0 0 0 12Zm0-9.5a3.5 3.5 0 1 1 0 7 3.5 3.5 0 0 1 0-7Z"/></svg>