<svg width="20" height="20" viewBox="0 0 20 20" xmlns="http://www.w3.org/2000/svg"><path d="M10.28 2.22A.75.75 0 0 0 9 2.75v5.67L6.22 6.17a.75.75 0 1 0-.94 1.16L8.56 10l-3.28 2.67a.75.75 0 0 0 .94 1.16L9 11.58v5.67a.75.75 0 0 0 1.28.53l4-4a.75.75 0 0 0-.06-1.11L10.94 10l3.28-2.67a.75.75 0 0 0 .06-1.11l-4-4Zm.22 13.22v-3.86l2.13 1.73-2.13 2.13Zm2.13-8.75L10.5 8.42V4.56l2.13 2.13Zm5.62-.01a.75.75 0 0 0-1.35.64 6.22 6.22 0 0 1 0 5.36.75.75 0 0 0 1.35.64 7.72 7.72 0 0 0 0-6.64Zm-3 1.13c.4-.14.82.07.96.46a5.24 5.24 0 0 1 0 3.46.75.75 0 0 1-1.42-.5 3.74 3.74 0 0 0 0-2.47.75.75 0 0 1 .46-.95Z"/></svg>