<svg width="20" height="20" viewBox="0 0 20 20" xmlns="http://www.w3.org/2000/svg"><path d="M9.85 2.15A.5.5 0 0 0 9 2.5v6.4L5.83 6.12a.5.5 0 1 0-.66.76L8.74 10l-3.57 3.12a.5.5 0 0 0 .66.76L9 11.1v6.4a.5.5 0 0 0 .85.35l4-4a.5.5 0 0 0-.02-.73L10.26 10l3.57-3.12a.5.5 0 0 0 .02-.73l-4-4ZM10 16.29V11.1l2.77 2.42L10 16.3Zm2.77-9.81L10 8.9V3.7l2.77 2.78Zm4.26.25a.5.5 0 1 0-.84.55 5 5 0 0 1 0 5.45.5.5 0 0 0 .84.54 6 6 0 0 0 0-6.54Zm-2.29 1.03a.5.5 0 0 1 .69.17 4 4 0 0 1 0 4.13.5.5 0 1 1-.86-.51 3 3 0 0 0 0-3.1.5.5 0 0 1 .17-.69Z"/></svg>