<svg width="20" height="20" viewBox="0 0 20 20" xmlns="http://www.w3.org/2000/svg"><path d="M9.32 2.03A.5.5 0 0 0 9 2.5v6.33L6.8 7.1a.5.5 0 0 0-.6.78L8.86 10 6.2 12.1a.5.5 0 1 0 .62.8L9 11.16v6.33a.5.5 0 0 0 .87.33l4-4.5a.5.5 0 0 0-.06-.72L10.49 10l3.32-2.6a.5.5 0 0 0 .06-.73l-4-4.5a.5.5 0 0 0-.55-.14ZM10 10.9l2.77 2.17L10 16.18v-5.3Zm0-1.78v-5.3l2.77 3.13L10 9.1Zm6.34-2.53a.5.5 0 0 1 .7.15 6 6 0 0 1-.01 6.54.5.5 0 0 1-.84-.54 5 5 0 0 0 0-5.45.5.5 0 0 1 .15-.7Zm-.91 1.35a.5.5 0 0 0-.86.52 3 3 0 0 1 0 3.1.5.5 0 1 0 .86.51 4 4 0 0 0 0-4.13Z"/></svg>