<svg width="24" height="24" viewBox="0 0 24 24" xmlns="http://www.w3.org/2000/svg"><path d="M11.62 2.08a1 1 0 0 1 1.09.21l5 5a1 1 0 0 1-.09 1.5L13.6 12l4.02 3.22a1 1 0 0 1 .09 1.49l-5 5A1 1 0 0 1 11 21v-6.92l-3.38 2.7a1 1 0 0 1-1.24-1.56L10.4 12 6.38 8.78a1 1 0 0 1 1.24-1.56L11 9.92V3a1 1 0 0 1 .62-.92Zm1.38 12v4.5l2.5-2.5-2.5-2Zm0-4.16 2.5-2-2.5-2.5v4.5Zm5.5-.79a1 1 0 0 1 1.37.37c.44.76.63 1.63.63 2.5 0 .87-.2 1.74-.63 2.5a1 1 0 1 1-1.74-1c.24-.41.37-.92.37-1.5s-.13-1.09-.37-1.5a1 1 0 0 1 .37-1.37Zm3.29-2.08a1 1 0 0 0-1.58 1.24 5.97 5.97 0 0 1 0 7.42 1 1 0 0 0 1.58 1.24 7.97 7.97 0 0 0 0-9.9Z"/></svg>