<svg width="16" height="16" viewBox="0 0 16 16" xmlns="http://www.w3.org/2000/svg"><path d="M2 4.5A2.5 2.5 0 014.5 2h7A2.5 2.5 0 0114 4.5V5h-3.5c-.82 0-1.54.4-2 1H6v4h2v1H6v2h2v1H4.5A2.5 2.5 0 012 11.5v-7zM5 11H3v.5c0 .83.67 1.5 1.5 1.5H5v-2zm0-5H3v4h2V6zm1-1h4V3H6v2zM5 3h-.5C3.67 3 3 3.67 3 4.5V5h2V3zm8 2v-.5c0-.83-.67-1.5-1.5-1.5H11v2h2zm-2.5 1C9.67 6 9 6.67 9 7.5v7c0 .83.67 1.5 1.5 1.5h4c.83 0 1.5-.67 1.5-1.5v-7c0-.83-.67-1.5-1.5-1.5h-4zm-.5 4.5c0-.28.22-.5.5-.5h1a.5.5 0 010 1h-1a.5.5 0 01-.5-.5zm4.5-.5a.5.5 0 010 1h-1a.5.5 0 010-1h1zM10 12.5c0-.28.22-.5.5-.5h1a.5.5 0 010 1h-1a.5.5 0 01-.5-.5zm4.5-.5a.5.5 0 010 1h-1a.5.5 0 010-1h1zM10 14.5c0-.28.22-.5.5-.5h1a.5.5 0 010 1h-1a.5.5 0 01-.5-.5zm4.5-.5a.5.5 0 010 1h-1a.5.5 0 010-1h1zM10 7.5c0-.28.22-.5.5-.5h4c.28 0 .5.22.5.5v1a.5.5 0 01-.5.5h-4a.5.5 0 01-.5-.5v-1z"/></svg>