<svg width="16" height="16" viewBox="0 0 16 16" xmlns="http://www.w3.org/2000/svg"><path d="M5 2a1 1 0 0 0-1 1v1.27A2 2 0 1 1 3 6V3a2 2 0 1 1 4 0 .5.5 0 0 1-1 0 1 1 0 0 0-1-1Zm0 5a1 1 0 1 0 0-2 1 1 0 0 0 0 2Zm-3.5 3a.5.5 0 0 0-.5.5v4a.5.5 0 0 0 1 0V13h1.5a.5.5 0 0 0 0-1H2v-1h2.5a.5.5 0 0 0 0-1h-3Zm5 0a.5.5 0 0 0-.5.5v4a.5.5 0 0 0 1 0v-1h1.25a1.75 1.75 0 1 0 0-3.5H6.5Zm1.75 2.5H7V11h1.25a.75.75 0 0 1 0 1.5Zm2.75-1c0-.83.67-1.5 1.5-1.5h2a.5.5 0 0 1 0 1h-2a.5.5 0 0 0 0 1h1a1.5 1.5 0 0 1 0 3h-2a.5.5 0 0 1 0-1h2a.5.5 0 0 0 0-1h-1a1.5 1.5 0 0 1-1.5-1.5ZM8 3a2 2 0 1 1 4 0v3a2 2 0 1 1-4 0V3Zm3 0a1 1 0 1 0-2 0v3a1 1 0 0 0 2 0V3Z"/></svg>