<svg width="48" height="48" viewBox="0 0 48 48" xmlns="http://www.w3.org/2000/svg"><path d="M24 12a6 6 0 0 1 12 0v8a6 6 0 0 1-12 0v-8Zm9.5 0a3.5 3.5 0 1 0-7 0v8a3.5 3.5 0 1 0 7 0v-8Zm-23.48 8.46a6 6 0 1 0 2.48-5.33V12a3.5 3.5 0 1 1 7 0 1.25 1.25 0 1 0 2.5 0 6 6 0 0 0-12 0v8.25c0 .07 0 .14.02.2ZM16 23.5a3.5 3.5 0 1 1 0-7 3.5 3.5 0 0 1 0 7ZM9.25 30C8.56 30 8 30.56 8 31.25v11.54a1.25 1.25 0 1 0 2.5 0V38.5h4.25a1.25 1.25 0 1 0 0-2.5H10.5v-3.5h5.26a1.25 1.25 0 1 0 0-2.5H9.25Zm11.5 0c-.69 0-1.25.56-1.25 1.25v11.54a1.25 1.25 0 1 0 2.5 0V38.5h2.25a4.25 4.25 0 0 0 0-8.5h-3.5Zm3.5 6H22v-3.5h2.25a1.75 1.75 0 1 1 0 3.5ZM33 34.16c0-.92.74-1.66 1.66-1.66h1.59c.69 0 1.25.56 1.25 1.25a1.25 1.25 0 1 0 2.5 0A3.75 3.75 0 0 0 36.25 30h-1.6a4.16 4.16 0 1 0 0 8.31h1.26a1.6 1.6 0 0 1 0 3.19h-1.66c-.69 0-1.25-.56-1.25-1.25a1.25 1.25 0 1 0-2.5 0A3.75 3.75 0 0 0 34.25 44h1.66a4.1 4.1 0 1 0 0-8.19h-1.25c-.92 0-1.66-.74-1.66-1.65Z"/></svg>