<svg width="16" height="16" viewBox="0 0 16 16" xmlns="http://www.w3.org/2000/svg"><path d="M3 1.5a.5.5 0 0 0-1 0v13a.5.5 0 0 0 1 0v-13Zm11 0a.5.5 0 0 0-1 0v13a.5.5 0 0 0 1 0v-13Zm-10 3C4 3.67 4.67 3 5.5 3h5c.83 0 1.5.67 1.5 1.5v1c0 .83-.67 1.5-1.5 1.5h-5A1.5 1.5 0 0 1 4 5.5v-1ZM5.5 4a.5.5 0 0 0-.5.5v1c0 .28.22.5.5.5h5a.5.5 0 0 0 .5-.5v-1a.5.5 0 0 0-.5-.5h-5Zm0 5C4.67 9 4 9.67 4 10.5v1c0 .83.67 1.5 1.5 1.5h5c.83 0 1.5-.67 1.5-1.5v-1c0-.83-.67-1.5-1.5-1.5h-5ZM5 10.5c0-.28.22-.5.5-.5h5c.28 0 .5.22.5.5v1a.5.5 0 0 1-.5.5h-5a.5.5 0 0 1-.5-.5v-1Z"/></svg>