<svg width="16" height="16" viewBox="0 0 16 16" xmlns="http://www.w3.org/2000/svg"><path d="M5.7 1.47a.75.75 0 0 0-1.4 0l-2 5a.75.75 0 1 0 1.4.56l.2-.53h2.2l.2.53a.75.75 0 0 0 1.4-.56l-2-5ZM5.5 5h-1L5 3.77 5.5 5ZM13 1.75a.75.75 0 0 0-1.5 0v10.69l-.72-.72a.75.75 0 1 0-1.06 1.06l2 2c.3.3.77.3 1.06 0l2-2a.75.75 0 1 0-1.06-1.06l-.72.72V1.75Zm-8 7.5c-1.04 0-2 .94-2 2.25 0 .64.23 1.2.59 1.6.23.25.41.55.41.9a1 1 0 0 1-1 1H1.75a.75.75 0 0 1 0-1.5h.29a3.95 3.95 0 0 1-.54-2c0-2 1.5-3.75 3.5-3.75s3.5 1.74 3.5 3.75c0 .72-.2 1.41-.54 2h.29a.75.75 0 0 1 0 1.5H7a1 1 0 0 1-1-1c0-.35.18-.65.41-.9.36-.4.59-.96.59-1.6 0-1.3-.96-2.25-2-2.25Z"/></svg>