<svg width="24" height="24" viewBox="0 0 24 24" xmlns="http://www.w3.org/2000/svg"><path d="M7.69 2.45a.75.75 0 0 0-1.38 0l-3.25 7.5a.75.75 0 1 0 1.38.6L5.1 9h3.78l.67 1.55a.75.75 0 1 0 1.38-.6l-3.25-7.5Zm.55 5.05H5.76L7 4.64 8.24 7.5ZM7 13.5c-1.9 0-3.5 1.64-3.5 3.75 0 1.08.42 2.03 1.08 2.7.25.26.42.58.42.94C5 21.5 4.5 22 3.89 22H2.75a.75.75 0 0 1 0-1.5h.32A5.41 5.41 0 0 1 2 17.25C2 14.39 4.2 12 7 12s5 2.4 5 5.25c0 1.22-.4 2.35-1.07 3.25h.32a.75.75 0 0 1 0 1.5h-1.14C9.5 22 9 21.5 9 20.89c0-.36.17-.68.42-.93a3.85 3.85 0 0 0 1.08-2.71c0-2.11-1.6-3.75-3.5-3.75ZM17.25 2c.41 0 .75.34.75.75v16.69l2.22-2.22a.75.75 0 1 1 1.06 1.06l-3.5 3.5c-.3.3-.77.3-1.06 0l-3.5-3.5a.75.75 0 1 1 1.06-1.06l2.22 2.22V2.75c0-.41.34-.75.75-.75Z"/></svg>