<svg width="20" height="20" viewBox="0 0 20 20" xmlns="http://www.w3.org/2000/svg"><path d="M6.7 2.46a.75.75 0 0 0-1.4 0l-2.5 6a.75.75 0 0 0 1.4.58L4.62 8h2.75l.43 1.04a.75.75 0 0 0 1.38-.58l-2.5-6Zm.05 4.04h-1.5L6 4.7l.75 1.8ZM15 2.75a.75.75 0 0 0-1.5 0v12.57l-1.45-1.58a.75.75 0 0 0-1.1 1.02l2.75 3a.75.75 0 0 0 1.1 0l2.75-3a.75.75 0 0 0-1.1-1.02L15 15.32V2.75ZM3.25 13.88A2.81 2.81 0 0 1 6 11c1.5 0 2.75 1.26 2.75 2.88 0 1.01-.5 1.89-1.24 2.4-.29.2-.51.5-.51.85 0 .48.39.87.87.87H9.5a.75.75 0 0 0 0-1.5h-.1c.53-.73.85-1.65.85-2.63 0-2.39-1.88-4.37-4.25-4.37a4.31 4.31 0 0 0-4.25 4.38c0 .97.32 1.89.85 2.62h-.1a.75.75 0 0 0 0 1.5h1.63c.48 0 .87-.39.87-.87 0-.35-.22-.65-.51-.85a2.9 2.9 0 0 1-1.24-2.4Z"/></svg>