<svg width="16" height="16" viewBox="0 0 16 16" xmlns="http://www.w3.org/2000/svg"><path d="M4.75 2a.75.75 0 0 1 0 1.5c-.69 0-1.25.56-1.25 1.25a.75.75 0 0 1-1.5 0A2.75 2.75 0 0 1 4.75 2Zm4.75.75A.75.75 0 0 0 8.75 2h-1.5a.75.75 0 0 0 0 1.5h1.5c.41 0 .75-.34.75-.75Zm1 0c0 .41.34.75.75.75.69 0 1.25.56 1.25 1.25a.75.75 0 0 0 1.5 0A2.75 2.75 0 0 0 11.25 2a.75.75 0 0 0-.75.75ZM4.75 12.5a.75.75 0 0 1 0 1.5A2.75 2.75 0 0 1 2 11.25a.75.75 0 0 1 1.5 0c0 .69.56 1.25 1.25 1.25Zm-2-3c.41 0 .75-.34.75-.75v-1.5a.75.75 0 0 0-1.5 0v1.5c0 .41.34.75.75.75ZM10.5 15a4.5 4.5 0 1 0 0-9 4.5 4.5 0 0 0 0 9ZM8.9 7.9a.5.5 0 1 1 .7.7l-.9.9h1.55A2.75 2.75 0 0 1 13 12.25v.25a.5.5 0 0 1-1 0v-.25c0-.97-.78-1.75-1.75-1.75H8.71l.9.9a.5.5 0 0 1-.71.7l-1.76-1.75a.5.5 0 0 1 0-.7L8.9 7.9Z"/></svg>