<svg width="48" height="48" viewBox="0 0 48 48" xmlns="http://www.w3.org/2000/svg"><path d="M40 12c0-2.65-2.3-4.65-5.05-5.91C32.08 4.78 28.21 4 24 4c-4.21 0-8.08.78-10.95 2.09C10.29 7.35 8 9.35 8 12v24.25c.15 2.53 2.38 4.44 5.05 5.66C15.92 43.22 19.79 44 24 44c4.21 0 8.08-.78 10.95-2.09 2.67-1.22 4.9-3.13 5.04-5.66H40V12Zm-29.5 0c0-1.08 1-2.45 3.59-3.64C16.56 7.23 20.06 6.5 24 6.5c3.94 0 7.44.73 9.91 1.86 2.58 1.19 3.59 2.56 3.59 3.64s-1 2.46-3.59 3.64c-2.47 1.13-5.97 1.86-9.91 1.86-3.94 0-7.44-.73-9.91-1.86-2.58-1.19-3.59-2.56-3.59-3.64Zm27 24c0 1.08-1 2.45-3.59 3.64-2.47 1.13-5.97 1.86-9.91 1.86-3.94 0-7.44-.73-9.91-1.86-2.58-1.19-3.59-2.56-3.59-3.64V16.4c.75.58 1.62 1.09 2.55 1.51C15.92 19.22 19.79 20 24 20c4.21 0 8.08-.78 10.95-2.09.93-.42 1.8-.93 2.55-1.52V36Z"/></svg>