<svg width="48" height="48" viewBox="0 0 48 48" xmlns="http://www.w3.org/2000/svg"><path d="M13.05 6.09C15.92 4.78 19.79 4 24 4c4.21 0 8.08.78 10.95 2.09C37.71 7.35 40 9.35 40 12c0 2.65-2.3 4.65-5.05 5.91C32.08 19.22 28.21 20 24 20c-4.21 0-8.08-.78-10.95-2.09C10.29 16.65 8 14.65 8 12c0-2.65 2.3-4.65 5.05-5.91ZM8 17.52a14.39 14.39 0 0 0 4.01 2.66c3.26 1.5 7.5 2.32 11.99 2.32s8.73-.82 11.99-2.32c1.33-.6 2.8-1.48 4.01-2.66v18.73c-.15 2.53-2.38 4.44-5.05 5.66C32.08 43.22 28.21 44 24 44c-4.21 0-8.08-.78-10.95-2.09-2.67-1.22-4.9-3.13-5.04-5.66H8V17.52Z"/></svg>