<svg width="32" height="32" viewBox="0 0 32 32" xmlns="http://www.w3.org/2000/svg"><path d="M27 7c0-2.76-4.92-5-11-5S5 4.24 5 7v18c0 2.76 4.92 5 11 5s11-2.24 11-5V7zm-2 0c0 .11-.2.87-2.05 1.71A17.4 17.4 0 0116 10a17.4 17.4 0 01-6.95-1.29C7.19 7.87 7 7.11 7 7c0-.11.2-.87 2.05-1.71A17.4 17.4 0 0116 4c2.82 0 5.27.52 6.95 1.29C24.81 6.13 25 6.89 25 7zm0 2.88V25c0 .11-.2.87-2.05 1.71A17.4 17.4 0 0116 28a17.4 17.4 0 01-6.95-1.29C7.19 25.87 7 25.11 7 25V9.88C9 11.16 12.28 12 16 12c3.72 0 7-.84 9-2.12z"/></svg>