<svg width="16" height="16" viewBox="0 0 16 16" xmlns="http://www.w3.org/2000/svg"><path d="M9.59 5a.5.5 0 0 0-.09-1H6.41a.5.5 0 0 0 .09 1h3.09ZM10 8a.5.5 0 0 1-.41.5H6.5a.5.5 0 0 1-.09-1H9.5c.28 0 .5.22.5.5Zm-.41 3.98A.5.5 0 0 0 9.5 11h-3l-.09.01a.5.5 0 0 0 .09 1h3l.09-.02ZM3 3c0-1.1.9-2 2-2h6a2 2 0 0 1 2 2v10a2 2 0 0 1-2 2H5a2 2 0 0 1-2-2V3Zm8-1H5a1 1 0 0 0-1 1v10a1 1 0 0 0 1 1h6a1 1 0 0 0 1-1V3a1 1 0 0 0-1-1ZM9.59 5a.5.5 0 0 0-.09-1H6.41a.5.5 0 0 0 .09 1h3.09ZM10 8a.5.5 0 0 1-.41.5H6.5a.5.5 0 0 1-.09-1H9.5c.28 0 .5.22.5.5Zm-.41 3.98A.5.5 0 0 0 9.5 11h-3l-.09.01a.5.5 0 0 0 .09 1h3l.09-.02Z"/></svg>