<svg width="24" height="24" viewBox="0 0 24 24" xmlns="http://www.w3.org/2000/svg"><path d="M6.25 2C5.01 2 4 3 4 4.25v15.5C4 20.99 5 22 6.25 22h11.5c1.24 0 2.25-1 2.25-2.25V4.25C20 3.01 19 2 17.75 2H6.25ZM5.5 4.25c0-.41.34-.75.75-.75h11.5c.41 0 .75.34.75.75v15.5c0 .41-.34.75-.75.75H6.25a.75.75 0 0 1-.75-.75V4.25ZM7.75 6.5a.75.75 0 0 0 0 1.5h8.5a.75.75 0 0 0 0-1.5h-8.5ZM7 16.25c0-.41.34-.75.75-.75h8.5a.75.75 0 0 1 0 1.5h-8.5a.75.75 0 0 1-.75-.75ZM7.75 11a.75.75 0 0 0 0 1.5h8.5a.75.75 0 0 0 0-1.5h-8.5Z"/></svg>