<svg width="20" height="20" viewBox="0 0 20 20" xmlns="http://www.w3.org/2000/svg"><path d="M10.9 2.9a1 1 0 00-1.8 0L7.17 6.8l-4.31.63a1 1 0 00-.56 1.7l3.13 3.05-.74 4.3a1 1 0 001.45 1.05l3.05-1.6a5.49 5.49 0 01-.18-1.04l-3.34 1.76.74-4.3a1 1 0 00-.29-.89L3 8.43l4.32-.63a1 1 0 00.75-.55L10 3.35l1.93 3.9c.15.3.43.5.75.55l4.32.63-.85.82c.35.11.69.26 1 .43l.55-.54a1 1 0 00-.56-1.7l-4.31-.63L10.9 2.9zm-.27 11.02a2 2 0 001.44-2.48l-.16-.55c.25-.2.53-.37.82-.5l.34.36a2 2 0 002.9 0l.33-.35c.3.14.58.32.84.52l-.13.42a2 2 0 001.46 2.52l.35.09a4.7 4.7 0 010 1.01l-.45.12a2 2 0 00-1.43 2.48l.15.55c-.25.2-.53.37-.82.5l-.34-.36a2 2 0 00-2.9 0l-.33.35c-.3-.14-.58-.32-.84-.52l.13-.42a2 2 0 00-1.46-2.52l-.35-.09a4.71 4.71 0 010-1.01l.45-.12zm4.87.58a1 1 0 10-2 0 1 1 0 002 0z"/></svg>