<svg width="20" height="20" viewBox="0 0 20 20" xmlns="http://www.w3.org/2000/svg"><path d="M14.5 3A2.5 2.5 0 0 1 17 5.5v9a2.5 2.5 0 0 1-2.5 2.5h-9A2.5 2.5 0 0 1 3 14.5v-9A2.5 2.5 0 0 1 5.5 3h9Zm0 1h-9C4.67 4 4 4.67 4 5.5v9c0 .83.67 1.5 1.5 1.5h9c.83 0 1.5-.67 1.5-1.5v-9c0-.83-.67-1.5-1.5-1.5Zm-8 2a.5.5 0 0 1 .5.41v7.09a.5.5 0 0 1-1 .09V6.5c0-.28.22-.5.5-.5ZM10 6a.5.5 0 0 1 .5.41v7.09a.5.5 0 0 1-1 .09V6.5c0-.28.22-.5.5-.5Zm3.5 0a.5.5 0 0 1 .5.41v7.09a.5.5 0 0 1-1 .09V6.5c0-.28.22-.5.5-.5Z"/></svg>