<svg width="20" height="20" viewBox="0 0 20 20" xmlns="http://www.w3.org/2000/svg"><path d="M11.3 7.75c-.58-1-2.02-1-2.6 0l-.45.78a.5.5 0 1 0 .87.5l.45-.78a.5.5 0 0 1 .86 0l.45.78a.5.5 0 0 0 .87-.5l-.45-.78Zm.86 3.5-.1-.19a.5.5 0 0 1 .86-.5l.11.19a1.5 1.5 0 0 1-1.3 2.25H11a.5.5 0 0 1 0-1h.73a.5.5 0 0 0 .43-.75ZM9 12a.5.5 0 0 1 0 1h-.73a1.5 1.5 0 0 1-1.3-2.25l.1-.19a.5.5 0 0 1 .87.5l-.1.19a.5.5 0 0 0 .43.75H9Zm6.91-9.41A2 2 0 0 1 16.5 4v.56l-1.33 11.67a2 2 0 0 1-2 1.77H6.85a2 2 0 0 1-2-1.77L3.5 4.56V4a2 2 0 0 1 2-2h9a2 2 0 0 1 1.41.59ZM14.5 3h-9a1 1 0 0 0-1 1h11a1 1 0 0 0-1-1Zm-.67 13.75a1 1 0 0 0 .33-.64L15.44 5H4.56l1.28 11.11a1 1 0 0 0 1 .89h6.32a1 1 0 0 0 .67-.25Z"/></svg>