<svg width="24" height="24" viewBox="0 0 24 24" xmlns="http://www.w3.org/2000/svg"><path d="M3.8 5.6A3.25 3.25 0 0 1 7.03 2h9.93a3.25 3.25 0 0 1 3.24 3.6L18.64 20a2.25 2.25 0 0 1-2.24 2H7.6a2.25 2.25 0 0 1-2.24-2L3.8 5.6ZM5.3 5h13.4a1.75 1.75 0 0 0-1.74-1.5H7.03c-.89 0-1.6.66-1.73 1.5Zm6.5 5.4c.1-.14.3-.14.4 0l.68 1a.75.75 0 1 0 1.24-.82l-.66-1a1.75 1.75 0 0 0-2.91 0l-.67 1a.75.75 0 0 0 1.24.83l.67-1Zm-1.9 3.23a.75.75 0 1 0-1.3-.77l-.36.6a2 2 0 0 0 1.72 3.03h.79a.75.75 0 0 0 0-1.5h-.8a.5.5 0 0 1-.42-.76l.36-.6Zm4.47-1.03a.75.75 0 0 0-.26 1.03l.36.6a.5.5 0 0 1-.43.76h-.79a.75.75 0 0 0 0 1.5h.8a2 2 0 0 0 1.71-3.03l-.36-.6a.75.75 0 0 0-1.03-.26Z"/></svg>