<svg width="24" height="24" viewBox="0 0 24 24" xmlns="http://www.w3.org/2000/svg"><path d="M7.03 3.5c-.9 0-1.62.68-1.73 1.53A.75.75 0 0 1 5.5 5h13c.07 0 .14.01.2.03a1.75 1.75 0 0 0-1.74-1.53H7.03Zm-.18 16.33c.04.38.36.67.75.67h8.8c.39 0 .7-.29.75-.67L18.59 6.5l-.09.01H5.4l1.45 13.33ZM3.8 5.6A3.25 3.25 0 0 1 7.03 2h9.93a3.25 3.25 0 0 1 3.24 3.6L18.64 20a2.25 2.25 0 0 1-2.24 2H7.6a2.25 2.25 0 0 1-2.24-2L3.8 5.6Zm8 4.8c.1-.14.3-.14.4 0l.68 1a.75.75 0 0 0 1.24-.82l-.67-1a1.75 1.75 0 0 0-2.9 0l-.67 1a.75.75 0 1 0 1.24.83l.67-1Zm-2.16 2.2c.35.21.47.67.25 1.03l-.36.6a.5.5 0 0 0 .43.76h.79a.75.75 0 0 1 0 1.5h-.8a2 2 0 0 1-1.7-3.03l.36-.6a.75.75 0 0 1 1.03-.26Zm4.47 1.03a.75.75 0 1 1 1.29-.77l.36.6a2 2 0 0 1-1.72 3.03h-.79a.75.75 0 0 1 0-1.5h.8a.5.5 0 0 0 .42-.75l-.36-.61Z"/></svg>