<svg width="20" height="20" viewBox="0 0 20 20" xmlns="http://www.w3.org/2000/svg"><path d="M3.5 2.75a.75.75 0 0 0 0 1.5h13a.75.75 0 0 0 0-1.5h-13ZM7.75 8.5a2.25 2.25 0 0 1 4.5 0v5a.75.75 0 0 0 1.5 0v-5a3.75 3.75 0 1 0-7.5 0v5a.75.75 0 0 0 1.5 0v-5Zm-5 7c0-.41.34-.75.75-.75h13a.75.75 0 0 1 0 1.5h-13a.75.75 0 0 1-.75-.75Zm13.75-3.75h-1.75v1.5h1.75a.75.75 0 0 0 0-1.5Zm-13 0h1.75v1.5H3.5a.75.75 0 0 1 0-1.5Zm5.25-3h2.5v1.5h-2.5v-1.5Zm0 3h2.5v1.5h-2.5v-1.5Zm-3.5-3v1.5H3.5a.75.75 0 0 1 0-1.5h1.75Zm11.25 0h-1.75v1.5h1.75a.75.75 0 0 0 0-1.5Zm-2.63-3c.32.45.57.95.71 1.5h1.92a.75.75 0 0 0 0-1.5h-2.63Zm-7.74 0c-.32.45-.57.95-.71 1.5H3.5a.75.75 0 0 1 0-1.5h2.63Z"/></svg>