<svg width="24" height="24" viewBox="0 0 24 24" xmlns="http://www.w3.org/2000/svg"><path d="M6.5 1.25a.75.75 0 11-1.5 0 .75.75 0 011.5 0zM2 7.5C2 4.93 4.33 3 7 3s5 1.93 5 4.5c0 2.57-2.33 4.5-5 4.5s-5-1.93-5-4.5zm5-3c-2.02 0-3.5 1.43-3.5 3s1.48 3 3.5 3 3.5-1.43 3.5-3-1.48-3-3.5-3zM8.25 2a.75.75 0 100-1.5.75.75 0 000 1.5zm-.56 11.45a.75.75 0 00-1.38 0l-3.25 7.5a.75.75 0 101.38.6L5.1 20h3.78l.67 1.55a.75.75 0 101.38-.6l-3.25-7.5zm.55 5.05H5.76L7 15.64l1.24 2.86zM17.25 2c.41 0 .75.34.75.75v16.69l2.22-2.22a.75.75 0 111.06 1.06l-3.5 3.5c-.3.3-.77.3-1.06 0l-3.5-3.5a.75.75 0 111.06-1.06l2.22 2.22V2.75c0-.41.34-.75.75-.75z"/></svg>