<svg width="28" height="28" viewBox="0 0 28 28" xmlns="http://www.w3.org/2000/svg"><path d="M14.25 26a.75.75 0 0 1-.75-.75V23H10a2.75 2.75 0 0 1-2.75-2.75v-2.5A2.75 2.75 0 0 1 10 15h3.5v-2H7.25a2.75 2.75 0 0 1-2.75-2.75v-2.5A2.75 2.75 0 0 1 7.25 5h6.25V2.75a.75.75 0 0 1 1.5 0V5h5.75a2.75 2.75 0 0 1 2.75 2.75v2.5A2.75 2.75 0 0 1 20.75 13H15v2h3a2.75 2.75 0 0 1 2.75 2.75v2.5A2.75 2.75 0 0 1 18 23h-3v2.25c0 .41-.34.75-.75.75ZM18 21.5c.69 0 1.25-.56 1.25-1.25v-2.5c0-.69-.56-1.25-1.25-1.25h-8c-.69 0-1.25.56-1.25 1.25v2.5c0 .69.56 1.25 1.25 1.25h8Zm4-11.25v-2.5c0-.69-.56-1.25-1.25-1.25H7.25C6.56 6.5 6 7.06 6 7.75v2.5c0 .69.56 1.25 1.25 1.25h13.5c.69 0 1.25-.56 1.25-1.25Z"/></svg>