<svg width="32" height="32" viewBox="0 0 32 32" xmlns="http://www.w3.org/2000/svg"><path d="M16 30a1 1 0 0 1-1-1v-2h-3.5A3.5 3.5 0 0 1 8 23.5v-3a3.5 3.5 0 0 1 3.5-3.5H15v-2H8.5A3.5 3.5 0 0 1 5 11.5v-3A3.5 3.5 0 0 1 8.5 5H15V3a1 1 0 1 1 2 0v2h6.5A3.5 3.5 0 0 1 27 8.5v3a3.5 3.5 0 0 1-3.5 3.5H17v2h3.5a3.5 3.5 0 0 1 3.5 3.5v3a3.5 3.5 0 0 1-3.5 3.5H17v2a1 1 0 0 1-1 1Zm4.5-5c.83 0 1.5-.67 1.5-1.5v-3c0-.83-.67-1.5-1.5-1.5h-9c-.83 0-1.5.67-1.5 1.5v3c0 .83.67 1.5 1.5 1.5h9ZM25 11.5v-3c0-.83-.67-1.5-1.5-1.5h-15C7.67 7 7 7.67 7 8.5v3c0 .83.67 1.5 1.5 1.5h15c.83 0 1.5-.67 1.5-1.5Z"/></svg>