<svg width="16" height="16" viewBox="0 0 16 16" xmlns="http://www.w3.org/2000/svg"><path d="M5 8a.5.5 0 1 0 0-1 .5.5 0 0 0 0 1Zm1.5 1.5a.5.5 0 1 1-1 0 .5.5 0 0 1 1 0ZM8 10a.5.5 0 1 0 0-1 .5.5 0 0 0 0 1Zm2.5-.5a.5.5 0 1 1-1 0 .5.5 0 0 1 1 0ZM7 8a.5.5 0 1 0 0-1 .5.5 0 0 0 0 1Zm2.5-.5a.5.5 0 1 1-1 0 .5.5 0 0 1 1 0ZM11 8a.5.5 0 1 0 0-1 .5.5 0 0 0 0 1ZM3.02 5a2 2 0 0 0-1.94 2.47l.72 3A2 2 0 0 0 3.75 12h8.52a2 2 0 0 0 1.94-1.53l.73-3A2 2 0 0 0 12.99 5H3.02Zm-.97 2.23A1 1 0 0 1 3.02 6H13a1 1 0 0 1 .97 1.24l-.72 3a1 1 0 0 1-.97.76H3.75a1 1 0 0 1-.98-.77l-.72-3Z"/></svg>