<svg width="20" height="20" viewBox="0 0 20 20" xmlns="http://www.w3.org/2000/svg"><path d="M2.33 9.07A2.5 2.5 0 0 1 4.77 6h10.46a2.5 2.5 0 0 1 2.43 3.07l-.7 3A2.5 2.5 0 0 1 14.53 14H5.47a2.5 2.5 0 0 1-2.44-1.93l-.7-3ZM6 9.5a.5.5 0 1 0 0-1 .5.5 0 0 0 0 1ZM8.5 9a.5.5 0 1 0-1 0 .5.5 0 0 0 1 0ZM7 11.5a.5.5 0 1 0 0-1 .5.5 0 0 0 0 1Zm2.5-.5a.5.5 0 1 0-1 0 .5.5 0 0 0 1 0Zm1.5.5a.5.5 0 1 0 0-1 .5.5 0 0 0 0 1Zm2.5-.5a.5.5 0 1 0-1 0 .5.5 0 0 0 1 0ZM10 9.5a.5.5 0 1 0 0-1 .5.5 0 0 0 0 1Zm2.5-.5a.5.5 0 1 0-1 0 .5.5 0 0 0 1 0Zm1.5.5a.5.5 0 1 0 0-1 .5.5 0 0 0 0 1Z"/></svg>