<svg width="28" height="28" viewBox="0 0 28 28" xmlns="http://www.w3.org/2000/svg"><path d="M6.75 3A3.75 3.75 0 0 0 3 6.75v3.5a.75.75 0 0 0 1.5 0v-3.5c0-1.24 1-2.25 2.25-2.25h3.5a.75.75 0 0 0 0-1.5h-3.5Zm14.5 0A3.75 3.75 0 0 1 25 6.75v3.5a.75.75 0 0 1-1.5 0v-3.5c0-1.24-1-2.25-2.25-2.25h-3.5a.75.75 0 0 1 0-1.5h3.5ZM3 21.25A3.75 3.75 0 0 0 6.75 25h3.5a.75.75 0 0 0 0-1.5h-3.5c-1.24 0-2.25-1-2.25-2.25v-3.5a.75.75 0 0 0-1.5 0v3.5ZM21.25 25A3.75 3.75 0 0 0 25 21.25v-3.5a.75.75 0 0 0-1.5 0v3.5c0 1.24-1 2.25-2.25 2.25h-3.5a.75.75 0 0 0 0 1.5h3.5Zm-9.2-14.79a7.8 7.8 0 0 1-1.53 2.2l-.04.04-1.86 1.08a2.74 2.74 0 0 0-1.2 3.35l.53 1.38c.3.8.96 1.4 1.77 1.66l5.41 1.68c1.75.54 3.6-.43 4.13-2.18l1.38-4.66a2.76 2.76 0 0 0-2.66-3.52h-.43c.12-.55.22-1.18.2-1.75a4.4 4.4 0 0 0-.33-1.76 2.54 2.54 0 0 0-1.68-1.4c-1.28-.36-2.18.6-2.46 1.3-.23.57-.43.97-.69 1.47l-.55 1.11Z"/></svg>