<svg width="20" height="20" viewBox="0 0 20 20" xmlns="http://www.w3.org/2000/svg"><path d="M15 1.75a.75.75 0 0 0-1.5 0v.75h-3.25a.75.75 0 0 0-.75.75v1a.75.75 0 0 0 1.5 0V4h6.5v.25a.75.75 0 0 0 1.5 0v-1a.75.75 0 0 0-.75-.75H15v-.75ZM7.2 5.46a.75.75 0 0 0-1.4 0l-3.29 7.98a.7.7 0 0 0-.01.03l-1.44 3.5a.75.75 0 1 0 1.38.57l1.26-3.05h5.6l1.26 3.04a.75.75 0 0 0 1.38-.57L7.2 5.46ZM8.67 13H4.32L6.5 7.71 8.68 13ZM12.25 5a.75.75 0 0 0 0 1.5h2.44l-1.03 1.28a.75.75 0 0 0-.12.22h-3.29a.75.75 0 0 0 0 1.5h3.25v1.83a.17.17 0 0 1-.28.13l-.04-.04a.75.75 0 0 0-.96 1.16l.04.03A1.67 1.67 0 0 0 15 11.33V9.5h3.25a.75.75 0 0 0 0-1.5h-2.84l1.43-1.78A.75.75 0 0 0 16.25 5h-4Z"/></svg>