<svg width="20" height="21" viewBox="0 0 20 21" xmlns="http://www.w3.org/2000/svg"><path d="M15 2.65a.75.75 0 00-1.5 0v.75h-3.25a.75.75 0 00-.75.75v1a.75.75 0 101.5 0V4.9h6.5v.25a.75.75 0 001.5 0v-1a.75.75 0 00-.75-.75H15v-.75zM7.2 6.36a.75.75 0 00-1.4 0l-3.29 7.98-.01.03-1.44 3.49a.75.75 0 001.38.57L3.7 15.4h5.6l1.26 3.04a.75.75 0 001.38-.58L7.2 6.36zm1.48 7.53H4.32L6.5 8.6l2.18 5.28zm3.57-8a.75.75 0 000 1.5h2.44l-1.03 1.29a.75.75 0 00-.12.22h-3.29a.75.75 0 000 1.5h3.25v1.83a.17.17 0 01-.28.13l-.04-.04a.75.75 0 10-.96 1.15l.04.04A1.67 1.67 0 0015 12.23V10.4h3.25a.75.75 0 000-1.5h-2.84l1.43-1.79a.75.75 0 00-.59-1.21h-4z"/></svg>