<svg width="20" height="21" viewBox="0 0 20 21" xmlns="http://www.w3.org/2000/svg"><path d="M15 3.4a.5.5 0 00-1 0v.5h-3.5a.5.5 0 00-.5.5v1a.5.5 0 001 0v-.5h7v.5a.5.5 0 001 0v-1a.5.5 0 00-.5-.5H15v-.5zM6.96 6.2a.5.5 0 00-.92 0l-5 12a.5.5 0 10.92.39l1.54-3.7h6l1.54 3.7a.5.5 0 10.92-.38l-1.66-4v-.01l-3.34-8zm2.12 7.7H3.92L6.5 7.7l2.58 6.2zm2.42-7.5c0-.28.22-.5.5-.5h5a.5.5 0 01.31.89L15 8.64v.26h3.5a.5.5 0 010 1H15v2.61a1.38 1.38 0 01-2.27 1.07l-.05-.05a.5.5 0 01.64-.77l.05.05a.38.38 0 00.63-.3V9.9h-3.5a.5.5 0 010-1H14v-.5c0-.16.07-.3.19-.4l1.38-1.1H12a.5.5 0 01-.5-.5z"/></svg>