<svg width="24" height="24" viewBox="0 0 24 24" xmlns="http://www.w3.org/2000/svg"><path d="M9.5 21H13v-4.5c0-.17.02-.34.05-.5H9.5v5ZM21 9.5v2.05a3.49 3.49 0 0 0-5 0V9.5h5Zm-6.5 0v4.7a2.5 2.5 0 0 0-.5.3H9.5v-5h5ZM21 8V6.25C21 4.45 19.54 3 17.75 3H16v5h5Zm-6.5-5h-5v5h5V3ZM8 3H6.25A3.25 3.25 0 0 0 3 6.25V8h5V3ZM3 9.5v5h5v-5H3ZM3 16v1.75C3 19.55 4.46 21 6.25 21H8v-5H3Zm12.5-1c-.83 0-1.5.67-1.5 1.5v5c0 .83.67 1.5 1.5 1.5h6c.83 0 1.5-.67 1.5-1.5v-5c0-.83-.67-1.5-1.5-1.5H21v-1a2.5 2.5 0 0 0-5 0v1h-.5Zm2-1a1 1 0 1 1 2 0v1h-2v-1Zm2 5a1 1 0 1 1-2 0 1 1 0 0 1 2 0Z"/></svg>