<svg width="28" height="28" viewBox="0 0 28 28" xmlns="http://www.w3.org/2000/svg"><path d="M3 6.75A3.75 3.75 0 0 1 6.75 3H9.5v6.5H3V6.75ZM3 11v6h6.5v-6H3Zm0 7.5v2.75A3.75 3.75 0 0 0 6.75 25H9.5v-6.5H3Zm8 6.5h4v-5c0-.55.15-1.06.4-1.5H11V25Zm14-14v4.06a4 4 0 0 0-6.5-.7V11H25Zm0-1.5V6.75A3.75 3.75 0 0 0 21.25 3H18.5v6.5H25ZM17 3h-6v6.5h6V3Zm0 8v6h-6v-6h6Zm1.5 7H18a2 2 0 0 0-2 2v5c0 1.1.9 2 2 2h7a2 2 0 0 0 2-2v-5a2 2 0 0 0-2-2h-.5v-1a3 3 0 1 0-6 0v1Zm1.5-1a1.5 1.5 0 0 1 3 0v1h-3v-1Zm3 5.5a1.5 1.5 0 1 1-3 0 1.5 1.5 0 0 1 3 0Z"/></svg>