<svg width="28" height="28" viewBox="0 0 28 28" xmlns="http://www.w3.org/2000/svg"><path d="M3 6.75A3.75 3.75 0 0 1 6.75 3h14.5A3.75 3.75 0 0 1 25 6.75v8.31a4.02 4.02 0 0 0-1.5-1.52V11h-5v3.35c-.62.7-1 1.64-1 2.65v.04a3 3 0 0 0-2.1 1.46H11v5h4V25H6.75A3.75 3.75 0 0 1 3 21.25V6.75ZM4.5 18.5v2.75c0 1.24 1 2.25 2.25 2.25H9.5v-5h-5Zm5-1.5v-6h-5v6h5Zm7.5 0v-6h-6v6h6Zm6.5-10.25c0-1.24-1-2.25-2.25-2.25H18.5v5h5V6.75ZM17 4.5h-6v5h6v-5Zm-7.5 0H6.75c-1.24 0-2.25 1-2.25 2.25V9.5h5v-5Zm9 13.5H18a2 2 0 0 0-2 2v5c0 1.1.9 2 2 2h7a2 2 0 0 0 2-2v-5a2 2 0 0 0-2-2h-.5v-1a3 3 0 1 0-6 0v1Zm1.5-1a1.5 1.5 0 0 1 3 0v1h-3v-1Zm3 5.5a1.5 1.5 0 1 1-3 0 1.5 1.5 0 0 1 3 0Z"/></svg>