<svg width="32" height="32" viewBox="0 0 32 32" xmlns="http://www.w3.org/2000/svg"><path d="M9 4h1v6H4V9a5 5 0 0 1 5-5Zm3 0h8v6h-8V4Zm0 8h8v4c-.46.6-.78 1.33-.92 2.1a4 4 0 0 0-2.54 1.9H12v-8Zm12 2a5 5 0 0 1 4 2v-4h-6v2.42a4.98 4.98 0 0 1 2-.42Zm-12 8h4v6h-4v-6ZM22 4v6h6V9a5 5 0 0 0-5-5h-1Zm-12 8H4v8h6v-8ZM4 22h6v6H9a5 5 0 0 1-5-5v-1Zm16.5-2.5H20a2.5 2.5 0 0 0-2.5 2.5v6a2.5 2.5 0 0 0 2.5 2.5h8a2.5 2.5 0 0 0 2.5-2.5v-6a2.5 2.5 0 0 0-2.5-2.5h-.5V19a3.5 3.5 0 1 0-7 0v.5Zm2-.5a1.5 1.5 0 0 1 3 0v.5h-3V19Zm3.5 6a2 2 0 1 1-4 0 2 2 0 0 1 4 0Z"/></svg>