<svg width="32" height="32" viewBox="0 0 32 32" xmlns="http://www.w3.org/2000/svg"><path d="M4 9a5 5 0 0 1 5-5h14a5 5 0 0 1 5 5v7a5.02 5.02 0 0 0-2-1.58V13h-5v2a5 5 0 0 0-1.92 3.1l-.08.03V13h-6v6h4.35a4 4 0 0 0-1.22 2H13v5h3v2H9a5 5 0 0 1-5-5V9Zm5-3a3 3 0 0 0-3 3v2h5V6H9Zm4 0v5h6V6h-6Zm-2 13v-6H6v6h5Zm-5 2v2a3 3 0 0 0 3 3h2v-5H6ZM21 6v5h5V9a3 3 0 0 0-3-3h-2Zm-.5 13.5H20a2.5 2.5 0 0 0-2.5 2.5v6a2.5 2.5 0 0 0 2.5 2.5h8a2.5 2.5 0 0 0 2.5-2.5v-6a2.5 2.5 0 0 0-2.5-2.5h-.5V19a3.5 3.5 0 1 0-7 0v.5Zm2-.5a1.5 1.5 0 0 1 3 0v.5h-3V19Zm3.5 6a2 2 0 1 1-4 0 2 2 0 0 1 4 0Z"/></svg>