<svg width="48" height="48" viewBox="0 0 48 48" xmlns="http://www.w3.org/2000/svg"><path d="M35.75 6C39.2 6 42 8.8 42 12.25V24.1a7 7 0 0 0-2.5-1.64V19.5H31v5.9c-.49.8-.81 1.71-.94 2.69A5 5 0 0 0 26.42 31H19.5v8.5H26V42H12.25A6.25 6.25 0 0 1 6 35.75v-23.5C6 8.8 8.8 6 12.25 6h23.5ZM8.5 19.5v9H17v-9H8.5Zm0 11.5v4.75a3.75 3.75 0 0 0 3.75 3.75H17V31H8.5Zm31-14v-4.75a3.75 3.75 0 0 0-3.75-3.75H31V17h8.5Zm-11-8.5h-9V17h9V8.5ZM17 8.5h-4.75a3.75 3.75 0 0 0-3.75 3.75V17H17V8.5Zm11.5 20v-9h-9v9h9ZM32 30h-1a3 3 0 0 0-3 3v10a3 3 0 0 0 3 3h12a3 3 0 0 0 3-3V33a3 3 0 0 0-3-3h-1v-1a5 5 0 0 0-10 0v1Zm2.5-1a2.5 2.5 0 0 1 5 0v1h-5v-1Zm5.5 9a3 3 0 1 1-6 0 3 3 0 0 1 6 0Z"/></svg>