<svg width="20" height="20" viewBox="0 0 20 20" xmlns="http://www.w3.org/2000/svg"><path d="M10.28 2.08a.5.5 0 0 0-.56 0 15.05 15.05 0 0 1-6.3 2.43A.5.5 0 0 0 3 5v4.5c0 3.9 2.3 6.73 6.82 8.47a.5.5 0 0 0 .36 0c.34-.14.68-.27 1-.42a5.82 5.82 0 0 1-.66-1.16 7.05 7.05 0 0 1-.52-2.5V11.05l-1.97 1.97a.75.75 0 0 1-1.06-1.06L8.94 10 6.97 8.03a.75.75 0 0 1 1.06-1.06L10 8.94l1.97-1.97a.75.75 0 1 1 1.06 1.06l-1.64 1.64h.01c.9 0 1.76-.37 2.6-1.24a1.39 1.39 0 0 1 2 0 5.06 5.06 0 0 0 1 .8V5a.5.5 0 0 0-.43-.5 15.05 15.05 0 0 1-6.3-2.42ZM17 10.35a4.63 4.63 0 0 1-1-.59c-.24-.18-.48-.4-.72-.64a.39.39 0 0 0-.56 0 4.5 4.5 0 0 1-3.32 1.55.4.4 0 0 0-.4.41v2.77c.03.8.18 1.51.44 2.15A4.81 4.81 0 0 0 13 18c.52.4 1.15.73 1.87.98.09.03.17.03.26 0 2.56-.89 3.87-2.71 3.87-5.4V11a.4.4 0 0 0-.4-.33 4.24 4.24 0 0 1-1.6-.32Z"/></svg>