<svg width="28" height="28" viewBox="0 0 28 28" xmlns="http://www.w3.org/2000/svg"><path d="M10.69 11.75 2.22 3.28a.75.75 0 1 1 1.06-1.06l22.5 22.5a.75.75 0 0 1-1.06 1.06l-8.47-8.47-6.19 6.19c-.44.44-.98.76-1.58.93l-5.53 1.54a.75.75 0 0 1-.92-.92l1.54-5.53c.17-.6.5-1.14.93-1.58l6.19-6.19Zm4.5 4.5-3.44-3.44L5.56 19c-.26.26-.44.58-.54.93l-1.19 4.24 4.24-1.19c.35-.1.67-.28.93-.54l6.19-6.19ZM12.8 9.63l6.48-6.48a3.93 3.93 0 1 1 5.56 5.56l-6.48 6.48-1.06-1.06 3.88-3.88-3.44-3.44-3.88 3.88-1.06-1.06Zm7.54-5.42-1.54 1.54 3.44 3.44 1.54-1.54a2.43 2.43 0 0 0-3.44-3.44Z"/></svg>