<svg width="32" height="32" viewBox="0 0 32 32" xmlns="http://www.w3.org/2000/svg"><path d="M18.75 20.16l9.54 9.55a1 1 0 001.42-1.42l-26-26a1 1 0 00-1.42 1.42l9.55 9.54-7.48 7.48a3.7 3.7 0 00-1 1.84l-1.34 6.22a1 1 0 001.19 1.19l6.22-1.34a3.7 3.7 0 001.84-1l7.48-7.48zm-1.41-1.41l-7.48 7.48c-.23.23-.53.4-.85.46l-4.7 1 1-4.7c.07-.32.23-.61.46-.85l7.48-7.48 4.09 4.09zm7.5-7.5l-5.03 5.02 1.42 1.42 7.34-7.34a4.89 4.89 0 00-6.92-6.92l-7.34 7.34 1.42 1.42 5.02-5.03 4.09 4.09zm-1.78-6.4a2.89 2.89 0 114.1 4.08l-.91.9-4.09-4.08.9-.9z"/></svg>