<svg width="16" height="16" viewBox="0 0 16 16" xmlns="http://www.w3.org/2000/svg"><path d="m9.65 1.44 2.91 2.91c.28.28.44.66.44 1.06V13a2 2 0 0 1-2 2H8.54c.22-.3.36-.64.42-1H11a1 1 0 0 0 1-1V6H9.5A1.5 1.5 0 0 1 8 4.5V2H5a1 1 0 0 0-1 1v6.09a1.43 1.43 0 0 0-1 0V3a2 2 0 0 1 2-2h3.59c.4 0 .78.16 1.06.44Zm-.5 3.41c.09.1.22.15.35.15h2.29L9 2.21V4.5c0 .13.05.26.15.35ZM2.5 15A1.5 1.5 0 0 1 1 13.5V13a.5.5 0 0 1 1 0v.5a.5.5 0 0 0 1 0v-3a.5.5 0 0 1 1 0v3A1.5 1.5 0 0 1 2.5 15Zm4.07 0h-.14A1.43 1.43 0 0 1 5 13.57a.53.53 0 0 1 .5-.53.47.47 0 0 1 .5.46.45.45 0 0 0 .43.5h.14a.43.43 0 0 0 .2-.8l-.98-.5a1.43 1.43 0 0 1 .64-2.7h.14A1.43 1.43 0 0 1 8 11.43a.53.53 0 0 1-.5.53.47.47 0 0 1-.5-.46v-.07a.43.43 0 0 0-.43-.43h-.14a.43.43 0 0 0-.2.8l.98.5a1.43 1.43 0 0 1-.64 2.7Z"/></svg>