<svg width="20" height="20" viewBox="0 0 20 20" xmlns="http://www.w3.org/2000/svg"><path d="M13.5 3c-.3 0-.58.19-.7.47l-3 7.5a.75.75 0 0 0 1.4.56L12 9.5h3l.8 2.03a.75.75 0 0 0 1.4-.56l-3-7.5a.75.75 0 0 0-.7-.47Zm0 2.77L14.4 8h-1.8l.9-2.23ZM5.22 4.22a.75.75 0 0 1 1.06 1.06L5.56 6h3.69a.75.75 0 0 1 0 1.5H5.56l.72.72a.75.75 0 0 1-1.06 1.06l-2-2a.75.75 0 0 1 0-1.06l2-2Zm0 7.5a.75.75 0 0 1 1.06 1.06l-.72.72h10.69a.75.75 0 0 1 0 1.5H5.56l.72.72a.75.75 0 1 1-1.06 1.06l-2-2a.75.75 0 0 1 0-1.06l2-2Z"/></svg>