<svg width="16" height="16" viewBox="0 0 16 16" xmlns="http://www.w3.org/2000/svg"><path d="M9.5 2.75A.75.75 0 0 0 8.75 2h-1.5a.75.75 0 0 0 0 1.5h1.5c.41 0 .75-.34.75-.75Zm1 0c0 .41.34.75.75.75.69 0 1.25.56 1.25 1.25a.75.75 0 0 0 1.5 0A2.75 2.75 0 0 0 11.25 2a.75.75 0 0 0-.75.75Zm3.5 4.5a.75.75 0 0 0-1.5 0v1.5a.75.75 0 0 0 1.5 0v-1.5Zm0 4a.75.75 0 0 0-1.5 0c0 .69-.56 1.25-1.25 1.25a.75.75 0 0 0 0 1.5A2.75 2.75 0 0 0 14 11.25Zm-7.5 2c0-.41.34-.75.75-.75h1.5a.75.75 0 0 1 0 1.5h-1.5a.75.75 0 0 1-.75-.75Zm-1-10.5A.75.75 0 0 0 4.75 2 2.75 2.75 0 0 0 2 4.75a.75.75 0 0 0 1.5 0c0-.69.56-1.25 1.25-1.25.41 0 .75-.34.75-.75Zm-.75 9.75a.75.75 0 0 1 0 1.5A2.75 2.75 0 0 1 2 11.25a.75.75 0 0 1 1.5 0c0 .69.56 1.25 1.25 1.25ZM3.5 8.75a.75.75 0 0 1-1.5 0v-1.5a.75.75 0 0 1 1.5 0v1.5Z"/></svg>