<svg width="24" height="24" viewBox="0 0 24 24" xmlns="http://www.w3.org/2000/svg"><path d="M10 4a1 1 0 0 1 1-1h2a1 1 0 1 1 0 2h-2a1 1 0 0 1-1-1Zm7.5 1a1 1 0 1 1 0-2A3.5 3.5 0 0 1 21 6.5a1 1 0 1 1-2 0c0-.83-.67-1.5-1.5-1.5Zm-11-2a1 1 0 0 1 0 2C5.67 5 5 5.67 5 6.5a1 1 0 0 1-2 0A3.5 3.5 0 0 1 6.5 3ZM4 16.5a1 1 0 0 0-1 1A3.5 3.5 0 0 0 6.5 21a1 1 0 1 0 0-2A1.5 1.5 0 0 1 5 17.5a1 1 0 0 0-1-1Zm7 2.5a1 1 0 1 0 0 2h2a1 1 0 1 0 0-2h-2Zm6.5 0a1 1 0 1 0 0 2 3.5 3.5 0 0 0 3.5-3.5 1 1 0 1 0-2 0c0 .83-.67 1.5-1.5 1.5Zm2.5-9a1 1 0 0 1 1 1v2a1 1 0 1 1-2 0v-2a1 1 0 0 1 1-1ZM3 13a1 1 0 1 0 2 0v-2a1 1 0 1 0-2 0v2Z"/></svg>