<svg width="48" height="48" viewBox="0 0 48 48" xmlns="http://www.w3.org/2000/svg"><path d="M21.25 6a1.25 1.25 0 1 0 0 2.5h5.5a1.25 1.25 0 1 0 0-2.5h-5.5Zm0 36a1.25 1.25 0 1 1 0-2.5h5.5a1.25 1.25 0 1 1 0 2.5h-5.5Zm-14-14C6.56 28 6 27.44 6 26.75v-5.5a1.25 1.25 0 1 1 2.5 0v5.5c0 .69-.56 1.25-1.25 1.25Zm32.25-1.25a1.25 1.25 0 1 0 2.5 0v-5.5a1.25 1.25 0 1 0-2.5 0v5.5ZM14 7.25C14 6.56 13.44 6 12.75 6h-.5A6.25 6.25 0 0 0 6 12.25v.5a1.25 1.25 0 1 0 2.5 0v-.5a3.75 3.75 0 0 1 3.75-3.75h.5c.69 0 1.25-.56 1.25-1.25ZM12.75 42a1.25 1.25 0 1 0 0-2.5h-.5a3.75 3.75 0 0 1-3.75-3.75v-.5a1.25 1.25 0 1 0-2.5 0v.5C6 39.2 8.8 42 12.25 42h.5ZM34 7.25c0-.69.56-1.25 1.25-1.25h.5C39.2 6 42 8.8 42 12.25v.5a1.25 1.25 0 1 1-2.5 0v-.5a3.75 3.75 0 0 0-3.75-3.75h-.5c-.69 0-1.25-.56-1.25-1.25ZM35.25 42a1.25 1.25 0 1 1 0-2.5h.5a3.75 3.75 0 0 0 3.75-3.75v-.5a1.25 1.25 0 1 1 2.5 0v.5C42 39.2 39.2 42 35.75 42h-.5Z"/></svg>