<svg width="20" height="20" viewBox="0 0 20 20" xmlns="http://www.w3.org/2000/svg"><path d="M6 10a1 1 0 112 0 1 1 0 01-2 0zm7-2a2 2 0 011.74 1c1.23.06 2.37.52 3.26 1.26V6a2 2 0 00-2-2H4a2 2 0 00-2 2v8c0 1.1.9 2 2 2h5.2a5.5 5.5 0 011.81-5.76A2.02 2.02 0 0111.27 9H8.73A2 2 0 117 8h6zm-3 6.5a4.5 4.5 0 109 0 4.5 4.5 0 00-9 0zm5.4-2.6c.2-.2.5-.2.7 0l1.75 1.75a.5.5 0 010 .7L16.1 16.1a.5.5 0 01-.7-.7l.9-.9h-1.55c-.97 0-1.75.78-1.75 1.75v.25a.5.5 0 01-1 0v-.25a2.75 2.75 0 012.75-2.75h1.54l-.9-.9a.5.5 0 010-.7z"/></svg>