<svg width="16" height="16" viewBox="0 0 16 16" xmlns="http://www.w3.org/2000/svg"><path d="M4 5.75a.75.75 0 1 1 1.5 0 .75.75 0 0 1-1.5 0ZM9.25 4c.7 0 1.3.41 1.59 1.01.77.05 1.5.25 2.16.59V2.5c0-.83-.67-1.5-1.5-1.5h-9C1.67 1 1 1.67 1 2.5V9c0 .83.67 1.5 1.5 1.5H5c0-1.93 1-3.63 2.5-4.61A1.78 1.78 0 0 1 7.68 5H6.33a1.75 1.75 0 1 1-1.58-1h4.5Zm-.62 1.33c.3-.11.62-.2.95-.25a.75.75 0 0 0-.95.25ZM10.5 15a4.5 4.5 0 1 1 0-9 4.5 4.5 0 0 1 0 9Zm.9-6.4.9.9h-1.55A2.75 2.75 0 0 0 8 12.25v.25a.5.5 0 0 0 1 0v-.25c0-.97.78-1.75 1.75-1.75h1.54l-.9.9a.5.5 0 0 0 .71.7l1.76-1.75a.5.5 0 0 0 0-.7L12.1 7.9a.5.5 0 0 0-.7.7Z"/></svg>