<svg width="20" height="20" viewBox="0 0 20 20" xmlns="http://www.w3.org/2000/svg"><path d="M17 9a8 8 0 1 0-6.28 7.81 5.93 5.93 0 0 1-.39-.94 7 7 0 1 1 5.64-7.47c.02 0 .03.02.04.03a5.06 5.06 0 0 0 .99.8V9ZM9.05 5a.75.75 0 1 1 0 1.5.75.75 0 0 1 0-1.5ZM9 7.5a.5.5 0 0 1 .5.41v4.59a.5.5 0 0 1-1 .1V8c0-.28.22-.5.5-.5Zm8 2.85a4.63 4.63 0 0 1-1-.59c-.24-.18-.48-.4-.72-.64a.39.39 0 0 0-.56 0 4.5 4.5 0 0 1-3.32 1.55.4.4 0 0 0-.4.41v2.77c.03.8.18 1.51.44 2.15A4.81 4.81 0 0 0 13 18c.52.4 1.15.73 1.87.98.09.03.17.03.26 0 2.56-.89 3.87-2.71 3.87-5.4V11a.4.4 0 0 0-.4-.33 4.24 4.24 0 0 1-1.6-.32Z"/></svg>