<svg width="24" height="24" viewBox="0 0 24 24" xmlns="http://www.w3.org/2000/svg"><path d="M21.25 20a.75.75 0 00.3-1.43 2.14 2.14 0 01-.13-.07c-.1-.05-.23-.13-.38-.24a3.26 3.26 0 01-.9-.9.75.75 0 10-1.28.79l.25.35h-2.36a.75.75 0 000 1.5h4.5zm-16-6c.41 0 .75-.34.75-.75v-9a.75.75 0 10-1.5 0v9c0 .41.34.75.75.75zm6.5 0c.42 0 .76-.34.76-.75v-9a.75.75 0 00-1.5 0v9c0 .41.33.75.75.75zm6.5 0c.41 0 .75-.34.75-.75v-9a.75.75 0 00-1.5 0v9c0 .41.34.75.75.75zm-4.77 5.15c.05-.3-.07-.68-.26-.87a.75.75 0 011.06-1.06c.56.56.81 1.43.68 2.2-.07.39-.26.8-.6 1.1A2 2 0 0113 21c-.62 0-1.08-.27-1.42-.6a5.29 5.29 0 01-.69-.91l-.05-.08c-.13-.2-.24-.36-.34-.48v1.32a.75.75 0 01-1.5 0v-2.5c0-.41.34-.75.75-.75 1.31 0 1.95.98 2.34 1.58l.04.06c.2.31.34.53.5.68.14.14.24.18.37.18.22 0 .32-.06.36-.1.05-.04.1-.12.12-.25zM2.72 16.97s-.08.1 0 0l-.01.01-.01.01a1.47 1.47 0 00-.13.15A3.24 3.24 0 002 19c0 .64.18 1.2.54 1.6.36.4.86.61 1.36.6.42-.02.8-.17 1.1-.43a1.73 1.73 0 002.46-.17c.36-.4.54-.96.54-1.6a3.24 3.24 0 00-.57-1.86A1.95 1.95 0 007.3 17l-.01-.01-.01-.01a.75.75 0 10-1.05 1.07l.1.17c.08.16.17.42.17.79 0 .36-.1.54-.16.6a.23.23 0 01-.2.1.32.32 0 01-.22-.13c-.08-.09-.17-.26-.17-.57a.75.75 0 00-1.5 0c0 .31-.1.48-.17.57a.32.32 0 01-.23.13.23.23 0 01-.19-.1c-.06-.06-.16-.24-.16-.6a1.75 1.75 0 01.27-.96.75.75 0 10-1.05-1.07zm4.56 0s.17.2 0 0z"/></svg>