<svg width="20" height="20" viewBox="0 0 20 20" xmlns="http://www.w3.org/2000/svg"><path d="M7.75 1a.75.75 0 0 0-.75.75V3h-.86a2.5 2.5 0 0 0-2.45 2.01l-.2.99h-.74a.75.75 0 0 0 0 1.5h.44l-.11.56A1.5 1.5 0 0 0 2 9.5v4c0 .83.67 1.5 1.5 1.5h13c.83 0 1.5-.67 1.5-1.5v-4a1.5 1.5 0 0 0-1.08-1.44l-.11-.56h.54a.75.75 0 0 0 .65-.75v-.1a.75.75 0 0 0-.75-.65h-.74l-.2-.99A2.5 2.5 0 0 0 13.86 3H13V1.75a.75.75 0 0 0-.75-.75h-4.5ZM6.14 4h7.72c.72 0 1.33.5 1.47 1.2L15.9 8H4.11l.56-2.8C4.8 4.5 5.42 4 6.14 4ZM5 11.5a1 1 0 1 1 2 0 1 1 0 0 1-2 0Zm8 0a1 1 0 1 1 2 0 1 1 0 0 1-2 0ZM6 17v-1H4v1a1 1 0 1 0 2 0Zm10-1v1a1 1 0 1 1-2 0v-1h2Z"/></svg>