<svg width="28" height="28" viewBox="0 0 28 28" xmlns="http://www.w3.org/2000/svg"><path d="M11 2a1 1 0 0 0-1 1v1h-.18A3.75 3.75 0 0 0 6.2 6.81L5.63 9H4.25a.75.75 0 0 0 0 1.5h1l-.3 1.12A2.75 2.75 0 0 0 3 14.25v9A2.75 2.75 0 0 0 5.75 26h1a2.75 2.75 0 0 0 2.75-2.75v-1h9v1A2.75 2.75 0 0 0 21.25 26h1A2.75 2.75 0 0 0 25 23.25v-9c0-1.24-.82-2.3-1.95-2.63l-.3-1.12h1a.75.75 0 0 0 0-1.5h-1.38l-.56-2.19A3.75 3.75 0 0 0 18.18 4H18V3a1 1 0 0 0-1-1h-6Zm7.18 3.5c1.02 0 1.92.7 2.17 1.69l1.12 4.31H6.53l1.12-4.31c.25-1 1.15-1.69 2.17-1.69h8.36ZM20 22.25h3.5v1c0 .69-.56 1.25-1.25 1.25h-1c-.69 0-1.25-.56-1.25-1.25v-1Zm-12 1c0 .69-.56 1.25-1.25 1.25h-1c-.69 0-1.25-.56-1.25-1.25v-1H8v1Zm-1-7a1.25 1.25 0 1 1 2.5 0 1.25 1.25 0 0 1-2.5 0Zm12.75 1.25a1.25 1.25 0 1 1 0-2.5 1.25 1.25 0 0 1 0 2.5Zm-3.5 0a.75.75 0 0 1 0 1.5h-4.5a.75.75 0 0 1 0-1.5h4.5Z"/></svg>