<svg width="20" height="20" viewBox="0 0 20 20" xmlns="http://www.w3.org/2000/svg"><path d="M10 2v4.5c0 .83.67 1.5 1.5 1.5H16v8.5c0 .83-.67 1.5-1.5 1.5H8.66A5.5 5.5 0 0 0 4 8.2V3.5C4 2.67 4.67 2 5.5 2H10Zm1 .25V6.5c0 .28.22.5.5.5h4.25L11 2.25Zm-7.94 8.2a2 2 0 0 1-1.43 2.47l-.46.12a4.7 4.7 0 0 0 .01 1.01l.35.09A2 2 0 0 1 3 16.66l-.13.42c.26.2.54.38.84.52l.32-.35a2 2 0 0 1 2.91 0l.34.36c.3-.13.57-.3.82-.5l-.16-.55a2 2 0 0 1 1.44-2.48l.46-.12a4.7 4.7 0 0 0-.01-1.01l-.35-.09A2 2 0 0 1 8 10.34l.13-.42c-.26-.2-.54-.38-.84-.52l-.32.35a2 2 0 0 1-2.91 0l-.34-.36c-.3.13-.57.3-.82.5l.15.55ZM5.5 14.5a1 1 0 1 1 0-2 1 1 0 0 1 0 2Z"/></svg>