<svg width="16" height="17" viewBox="0 0 16 17" xmlns="http://www.w3.org/2000/svg"><path d="M6 1a2 2 0 0 0-2 2v3.26l.1-.05A2 2 0 0 1 5 6V3a1 1 0 0 1 1-1h3v2.5c0 .83.67 1.5 1.5 1.5H13v7a1 1 0 0 1-1 1H9.94a2 2 0 0 1-.61 1H12a2 2 0 0 0 2-2V5.41c0-.4-.16-.78-.44-1.06l-2.91-2.91A1.5 1.5 0 0 0 9.59 1H6Zm2.9 6.71a2 2 0 0 1 .42.29h2.18a.5.5 0 0 0 0-1h-3a.5.5 0 0 0-.45.29l.84.42ZM10 9.5v.5h1.5a.5.5 0 0 0 0-1H9.94a2 2 0 0 1 .06.5Zm0 1.5v1h1.5a.5.5 0 0 0 0-1H10Zm2.8-6h-2.3a.5.5 0 0 1-.5-.5V2.2L12.8 5ZM8.44 8.6l-3-1.5a1 1 0 0 0-.9 0l-3 1.5a1 1 0 0 0-.55.9v4a1 1 0 0 0 .55.9l3 1.5a1 1 0 0 0 .9 0l3-1.5a1 1 0 0 0 .55-.9v-4a1 1 0 0 0-.55-.9ZM2.04 9.74a.5.5 0 0 1 .66-.26l2.3.99 2.3-1a.5.5 0 0 1 .4.93l-2.2.94V14a.5.5 0 1 1-1 0v-2.67l-2.2-.94a.5.5 0 0 1-.26-.66Z"/></svg>