<svg width="20" height="20" viewBox="0 0 20 20" xmlns="http://www.w3.org/2000/svg"><path d="M10 6.5V2H5.5C4.67 2 4 2.67 4 3.5v5.76l.1-.05a2 2 0 0 1 1.8 0l2.15 1.08A.5.5 0 0 1 8.5 10h5a.5.5 0 0 1 0 1H9.32a2 2 0 0 1 .62 1h3.56a.5.5 0 0 1 0 1H10v1h3.5a.5.5 0 0 1 0 1H10v1.5a2 2 0 0 1-.67 1.5h5.17c.83 0 1.5-.67 1.5-1.5V8h-4.5A1.5 1.5 0 0 1 10 6.5Zm1 0V2.25L15.75 7H11.5a.5.5 0 0 1-.5-.5Zm-2.55 5.1-3-1.5a1 1 0 0 0-.9 0l-3 1.5a1 1 0 0 0-.55.9v4a1 1 0 0 0 .55.9l3 1.5a1 1 0 0 0 .9 0l3-1.5a1 1 0 0 0 .55-.9v-4a1 1 0 0 0-.55-.9Zm-6.41 1.13a.5.5 0 0 1 .66-.26l2.3.99 2.3-1a.5.5 0 0 1 .4.93l-2.2.94V17a.5.5 0 1 1-1 0v-2.67l-2.2-.94a.5.5 0 0 1-.26-.66Z"/></svg>