<svg width="20" height="20" viewBox="0 0 20 20" xmlns="http://www.w3.org/2000/svg"><path d="M8.5 10a.5.5 0 0 0-.45.29l.84.42a2 2 0 0 1 .43.29h4.18a.5.5 0 0 0 0-1h-5ZM5 4v5a2 2 0 0 0-.9.21l-.1.05V4c0-1.1.9-2 2-2h4.59c.4 0 .78.16 1.06.44l3.91 3.91c.28.28.44.67.44 1.06V16a2 2 0 0 1-2 2H9.33a2 2 0 0 0 .6-1H14a1 1 0 0 0 1-1V8h-3.5A1.5 1.5 0 0 1 10 6.5V3H6a1 1 0 0 0-1 1Zm8.5 11H10v-1h3.5a.5.5 0 0 1 0 1Zm0-2H10v-.5a2 2 0 0 0-.06-.5h3.56a.5.5 0 0 1 0 1Zm1.3-6L11 3.2v3.3c0 .28.22.5.5.5h3.3Zm-6.35 4.6-3-1.5a1 1 0 0 0-.9 0l-3 1.5a1 1 0 0 0-.55.9v4a1 1 0 0 0 .55.9l3 1.5a1 1 0 0 0 .9 0l3-1.5a1 1 0 0 0 .55-.9v-4a1 1 0 0 0-.55-.9Zm-6.41 1.13a.5.5 0 0 1 .66-.26l2.3.99 2.3-1a.5.5 0 0 1 .4.93l-2.2.94V17a.5.5 0 1 1-1 0v-2.67l-2.2-.94a.5.5 0 0 1-.26-.66Z"/></svg>