<svg width="24" height="24" viewBox="0 0 24 24" xmlns="http://www.w3.org/2000/svg"><path d="M12 2v6c0 1.1.9 2 2 2h6v10a2 2 0 0 1-2 2h-7.4l.02-.01A2.5 2.5 0 0 0 12 19.75V19h4.25a.75.75 0 0 0 0-1.5H12V16h4.25a.75.75 0 0 0 0-1.5h-4.37a2.5 2.5 0 0 0-1.26-1.49l-.1-.05c.07.03.15.04.23.04h5.5a.75.75 0 0 0 0-1.5h-5.5a.75.75 0 0 0-.43 1.37l-3.2-1.6a2.5 2.5 0 0 0-2.24 0L4 11.7V4c0-1.1.9-2 2-2h6Zm1.5.5V8c0 .28.22.5.5.5h5.5l-6-6Zm-3.33 11.4-3.5-1.74a1.5 1.5 0 0 0-1.34 0l-3.5 1.75c-.5.25-.83.77-.83 1.34v4.5c0 .57.32 1.09.83 1.34l3.5 1.75c.42.22.92.22 1.34 0l3.5-1.75c.5-.25.83-.77.83-1.34v-4.5a1.5 1.5 0 0 0-.83-1.34Zm-7.62 1.38a.5.5 0 0 1 .67-.23L6 16.45l2.78-1.4a.5.5 0 1 1 .44.9L6.5 17.3v3.19a.5.5 0 1 1-1 0v-3.2l-2.72-1.35a.5.5 0 0 1-.23-.67Z"/></svg>