<svg width="24" height="24" viewBox="0 0 24 24" xmlns="http://www.w3.org/2000/svg"><path d="m10.52 12.96-.2-.1a.75.75 0 0 1 .43-1.36h5.5a.75.75 0 0 1 0 1.5h-5.5a.75.75 0 0 1-.23-.04ZM12 16v-.75c0-.26-.04-.51-.12-.75h4.37a.75.75 0 0 1 0 1.5H12Zm0 3v-1.5h4.25a.75.75 0 0 1 0 1.5H12Zm-6.5-7.95a2.5 2.5 0 0 0-.62.21L4 11.7V4c0-1.1.9-2 2-2h6.17a.6.6 0 0 1 .08 0l.06.01c.22.02.43.06.63.14l.16.09c.02 0 .04.02.05.03l.05.02.08.05a2.07 2.07 0 0 1 .3.25l5.83 5.82A2 2 0 0 1 20 9.83V20a2 2 0 0 1-2 2h-7.4l.02-.01a2.5 2.5 0 0 0 1.27-1.49H18a.5.5 0 0 0 .5-.5V10H14a2 2 0 0 1-2-2V3.5H6a.5.5 0 0 0-.5.5v7.05ZM17.38 8.5 13.5 4.62V8c0 .28.22.5.5.5h3.38Zm-7.2 5.4-3.5-1.74a1.5 1.5 0 0 0-1.35 0l-3.5 1.75c-.5.25-.83.77-.83 1.34v4.5c0 .57.32 1.09.83 1.34l3.5 1.75c.42.22.92.22 1.34 0l3.5-1.75c.5-.25.83-.77.83-1.34v-4.5a1.5 1.5 0 0 0-.83-1.34Zm-7.63 1.38a.5.5 0 0 1 .67-.23L6 16.45l2.78-1.4a.5.5 0 1 1 .44.9L6.5 17.3v3.19a.5.5 0 1 1-1 0v-3.2l-2.72-1.35a.5.5 0 0 1-.23-.67Z"/></svg>