<svg width="16" height="16" viewBox="0 0 16 16" xmlns="http://www.w3.org/2000/svg"><path d="M12.5 1c.28 0 .5.22.5.5v11.8l1.15-1.15a.5.5 0 0 1 .7.7l-2 2a.5.5 0 0 1-.7 0l-2-2a.5.5 0 0 1 .7-.7L12 13.29V1.5c0-.28.22-.5.5-.5Zm-11 4c0-1.74 1.66-3 3.5-3s3.5 1.26 3.5 3S6.84 8 5 8 1.5 6.74 1.5 5ZM5 3c-1.47 0-2.5.98-2.5 2S3.53 7 5 7s2.5-.98 2.5-2S6.47 3 5 3Zm.46 6.31a.5.5 0 0 0-.92 0l-2 5a.5.5 0 1 0 .92.38l.28-.7 2.52.01.28.69a.5.5 0 1 0 .92-.38l-2-5Zm.4 3.69H4.14L5 10.85 5.86 13ZM4 1.5a.5.5 0 1 1-1 0 .5.5 0 0 1 1 0Zm2.5.5a.5.5 0 1 0 0-1 .5.5 0 0 0 0 1Z"/></svg>