<svg width="20" height="20" viewBox="0 0 20 20" xmlns="http://www.w3.org/2000/svg"><path d="M5 1.5a.5.5 0 1 1-1 0 .5.5 0 0 1 1 0Zm-3 4C2 3.5 3.87 2 6 2s4 1.5 4 3.5S8.13 9 6 9 2 7.5 2 5.5ZM6 3C4.27 3 3 4.19 3 5.5S4.27 8 6 8s3-1.19 3-2.5S7.73 3 6 3Zm0 7c.2 0 .39.13.47.32l2.75 7a.5.5 0 1 1-.94.36L7.62 16H4.38l-.66 1.68a.5.5 0 0 1-.94-.36l2.75-7A.5.5 0 0 1 6 10Zm1.23 5L6 11.87 4.77 15h2.46ZM14.5 2c.28 0 .5.22.5.5v13.8l2.15-2.15a.5.5 0 0 1 .7.7l-3 3a.5.5 0 0 1-.7 0l-3-3a.5.5 0 0 1 .7-.7L14 16.29V2.5c0-.28.22-.5.5-.5Zm-7 0a.5.5 0 1 0 0-1 .5.5 0 0 0 0 1Z"/></svg>