<svg width="24" height="24" viewBox="0 0 24 24" xmlns="http://www.w3.org/2000/svg"><path d="M8 4.5a2.5 2.5 0 100 5 2.5 2.5 0 000-5zM4 7a4 4 0 118 0 4 4 0 01-8 0zm13-.5a1.5 1.5 0 100 3 1.5 1.5 0 000-3zM14 8a3 3 0 114.45 2.63 3.5 3.5 0 00-2.44.2A3 3 0 0114 8zm-.3 6.13A2.25 2.25 0 0011.75 13h-7.5C3.01 13 2 14 2 15.25v.28a2.07 2.07 0 00.01.2c.02.14.04.32.1.53.09.42.29.98.68 1.55C3.61 18.97 5.17 20 8 20c1.8 0 3.1-.42 4-1.02V16.9l-.02.03c-.5.71-1.56 1.56-3.98 1.56s-3.49-.85-3.98-1.56a2.99 2.99 0 01-.52-1.43v-.26c0-.41.34-.75.75-.75h7.5c.34 0 .63.23.72.54.3-.42.73-.74 1.23-.91zm.8.87h.5v-1a2.5 2.5 0 015 0v1h.5c.83 0 1.5.67 1.5 1.5v5c0 .83-.67 1.5-1.5 1.5h-6a1.5 1.5 0 01-1.5-1.5v-5c0-.83.67-1.5 1.5-1.5zm2-1v1h2v-1a1 1 0 10-2 0zm2 5a1 1 0 10-2 0 1 1 0 002 0z"/></svg>