<svg width="20" height="20" viewBox="0 0 20 20" xmlns="http://www.w3.org/2000/svg"><path d="M11 10a2 2 0 011.7.94 3 3 0 00-.2 1.06v.06c-.18.05-.35.12-.5.2V12a1 1 0 00-1-1H4a1 1 0 00-1 1v1.5C3 14.9 4.58 16 7.5 16c1.56 0 2.74-.31 3.5-.82v1.14c-.9.43-2.09.68-3.5.68C4.09 17 2 15.55 2 13.5V12c0-1.1.9-2 2-2h7zm1 4a1 1 0 011-1h.5v-1a1.99 1.99 0 012-2 2 2 0 012 2v1h.5a1 1 0 011 1v4a1 1 0 01-1 1h-5a1 1 0 01-1-1v-4zm4.07 1.51a.75.75 0 00-.57-.26.75.75 0 10.57.26zM15.5 11a1 1 0 00-1 1v1h2v-1a1 1 0 00-1-1zm-2.25-.98l.01-.02h-.02l.01.02zM7.5 2a3.5 3.5 0 110 7 3.5 3.5 0 010-7zm0 1a2.5 2.5 0 100 5 2.5 2.5 0 000-5zm7 1a2.5 2.5 0 110 5 2.5 2.5 0 010-5zm0 1a1.5 1.5 0 100 3 1.5 1.5 0 000-3z"/></svg>