<svg width="24" height="25" viewBox="0 0 24 25" xmlns="http://www.w3.org/2000/svg"><path d="M13 14.5a2 2 0 01.7.13A2.5 2.5 0 0012.2 16H3.9a.5.5 0 00-.25.14.5.5 0 00-.14.26l-.01.1V18c0 1 .45 1.72 1.42 2.24.82.45 2 .72 3.26.76h.64a7.77 7.77 0 003.18-.71v1.63c-1.12.42-2.38.58-3.5.58-2.72 0-6.34-.96-6.5-4.27V16.5a2 2 0 011.85-2H13zm.3 1.6c.27-.36.7-.6 1.2-.6h.5v-1a2.5 2.5 0 115 0v1h.54c.81.02 1.46.69 1.46 1.5v5c0 .83-.67 1.5-1.5 1.5h-6A1.5 1.5 0 0113 22v-5c0-.34.11-.65.3-.9zm3.33 3.89a1 1 0 00.87.51 1 1 0 10-.87-.51zm-.13-5.49v1h2v-1a1 1 0 10-2 0zM21 9a3.5 3.5 0 01-1.33 2.75A3.49 3.49 0 0017.5 11a2 2 0 100-4 2 2 0 000 4c-.82 0-1.57.28-2.17.75A3.5 3.5 0 1121 9zM8.5 3.5a4.5 4.5 0 110 9 4.5 4.5 0 010-9zm0 1.5a3 3 0 100 6 3 3 0 000-6z"/></svg>