<svg width="16" height="16" viewBox="0 0 16 16" xmlns="http://www.w3.org/2000/svg"><path d="M3.5 2A2.5 2.5 0 0 0 1 4.5v6A2.5 2.5 0 0 0 3.5 13h9a2.5 2.5 0 0 0 2.5-2.5v-6A2.5 2.5 0 0 0 12.5 2h-9ZM2 4.5C2 3.67 2.67 3 3.5 3h9c.83 0 1.5.67 1.5 1.5v6c0 .83-.67 1.5-1.5 1.5h-9A1.5 1.5 0 0 1 2 10.5v-6ZM3 5a1 1 0 0 1 1-1h8a1 1 0 0 1 1 1v1a1 1 0 0 1-1 1H4a1 1 0 0 1-1-1V5Zm9 0H4v1h8V5ZM8 9a1 1 0 0 1 1-1h3a1 1 0 0 1 1 1v1a1 1 0 0 1-1 1H9a1 1 0 0 1-1-1V9Zm4 0H9v1h3V9ZM3.5 8a.5.5 0 0 0 0 1h3a.5.5 0 0 0 0-1h-3ZM3 10.5c0-.28.22-.5.5-.5h3a.5.5 0 0 1 0 1h-3a.5.5 0 0 1-.5-.5Z"/></svg>