<svg width="20" height="20" viewBox="0 0 20 20" xmlns="http://www.w3.org/2000/svg"><path d="M4 5.5c0-.28.22-.5.5-.5h11c.28 0 .5.22.5.5v3a.5.5 0 0 1-.5.5h-11a.5.5 0 0 1-.5-.5v-3ZM5 6v2h10V6H5Zm6.5 4a.5.5 0 0 0-.5.5v4c0 .28.22.5.5.5h4a.5.5 0 0 0 .5-.5v-4a.5.5 0 0 0-.5-.5h-4Zm.5 4v-3h3v3h-3Zm-8-3c0-.28.22-.5.5-.5h5a.5.5 0 0 1 0 1h-5A.5.5 0 0 1 4 11Zm.5 2.5a.5.5 0 0 0 0 1h5a.5.5 0 0 0 0-1h-5ZM2 5.5A2.5 2.5 0 0 1 4.5 3h11A2.5 2.5 0 0 1 18 5.5v9a2.5 2.5 0 0 1-2.5 2.5h-11A2.5 2.5 0 0 1 2 14.5v-9ZM4.5 4C3.67 4 3 4.67 3 5.5v9c0 .83.67 1.5 1.5 1.5h11c.83 0 1.5-.67 1.5-1.5v-9c0-.83-.67-1.5-1.5-1.5h-11Z"/></svg>