<svg width="24" height="24" viewBox="0 0 24 24" xmlns="http://www.w3.org/2000/svg"><path d="M2 7.25C2 5.45 3.46 4 5.25 4h13.5C20.55 4 22 5.46 22 7.25v9.5c0 1.8-1.46 3.25-3.25 3.25H5.25A3.25 3.25 0 0 1 2 16.75v-9.5ZM5.25 5.5c-.97 0-1.75.78-1.75 1.75v9.5c0 .97.78 1.75 1.75 1.75h13.5c.97 0 1.75-.78 1.75-1.75v-9.5c0-.97-.78-1.75-1.75-1.75H5.25ZM5 8.25C5 7.56 5.56 7 6.25 7h11.5c.69 0 1.25.56 1.25 1.25v2c0 .69-.56 1.25-1.25 1.25H6.25c-.69 0-1.25-.56-1.25-1.25v-2Zm1.5.25V10h11V8.5h-11Zm7.75 4.5c-.69 0-1.25.56-1.25 1.25v1.5c0 .69.56 1.25 1.25 1.25h3.5c.69 0 1.25-.56 1.25-1.25v-1.5c0-.69-.56-1.25-1.25-1.25h-3.5Zm.25 2.5v-1h3v1h-3ZM5 13.75c0-.41.34-.75.75-.75h5a.75.75 0 0 1 0 1.5h-5a.75.75 0 0 1-.75-.75Zm.75 1.75a.75.75 0 0 0 0 1.5h5a.75.75 0 0 0 0-1.5h-5Z"/></svg>