<svg width="24" height="24" viewBox="0 0 24 24" xmlns="http://www.w3.org/2000/svg"><path d="M6.02 7v2h11.96V7H6.02Zm8.96 6.48v3h3v-3h-3ZM2 5.75A2.75 2.75 0 0 1 4.75 3h14.5A2.75 2.75 0 0 1 22 5.75v12.5A2.75 2.75 0 0 1 19.25 21H4.75A2.75 2.75 0 0 1 2 18.25V5.75Zm2.52.5v3.5c0 .41.34.75.75.75h13.46c.41 0 .75-.34.75-.75v-3.5a.75.75 0 0 0-.75-.75H5.27a.75.75 0 0 0-.75.75Zm8.96 6.48v4.5c0 .41.34.75.75.75h4.5c.41 0 .75-.34.75-.75v-4.5a.75.75 0 0 0-.75-.75h-4.5a.75.75 0 0 0-.75.75Zm-8.2-.23a.75.75 0 0 0 0 1.5h5.97a.75.75 0 0 0 0-1.5H5.27Zm-.76 4.25c0 .41.34.75.75.75h5.98a.75.75 0 0 0 0-1.5H5.27a.75.75 0 0 0-.75.75Z"/></svg>