<svg width="16" height="16" viewBox="0 0 16 16" xmlns="http://www.w3.org/2000/svg"><path d="M4 5v1h8V5H4Zm6 4v2h2V9h-2ZM1 4.75A2.75 2.75 0 0 1 3.75 2h8.5A2.75 2.75 0 0 1 15 4.75v6.5A2.75 2.75 0 0 1 12.25 14h-8.5A2.75 2.75 0 0 1 1 11.25v-6.5Zm2-.25v2c0 .28.22.5.5.5h9a.5.5 0 0 0 .5-.5v-2a.5.5 0 0 0-.5-.5h-9a.5.5 0 0 0-.5.5Zm6 4v3c0 .28.22.5.5.5h3a.5.5 0 0 0 .5-.5v-3a.5.5 0 0 0-.5-.5h-3a.5.5 0 0 0-.5.5Zm-5.5 0a.5.5 0 0 0 0 1h4a.5.5 0 0 0 0-1h-4ZM3 11c0 .28.22.5.5.5h4a.5.5 0 0 0 0-1h-4a.5.5 0 0 0-.5.5Z"/></svg>