<svg width="28" height="28" viewBox="0 0 28 28" xmlns="http://www.w3.org/2000/svg"><path d="M3 6.75A3.75 3.75 0 016.75 3h14.5A3.75 3.75 0 0125 6.75v11.58a4.74 4.74 0 00-1.75-.33h-5.5c-.76 0-1.48.18-2.12.5H11v5h2.06c.08.54.26 1.04.5 1.5H6.76A3.75 3.75 0 013 21.25V6.75zM4.5 18.5v2.75c0 1.24 1 2.25 2.25 2.25H9.5v-5h-5zm5-1.5v-6h-5v6h5zm7.5 0v-6h-6v6h6zm6.5 0v-6h-5v6h5zm0-10.25c0-1.24-1-2.25-2.25-2.25H18.5v5h5V6.75zM17 4.5h-6v5h6v-5zm-7.5 0H6.75c-1.24 0-2.25 1-2.25 2.25V9.5h5v-5zm8.25 16a2.25 2.25 0 000 4.5h.5a.75.75 0 010 1.5h-.5a3.75 3.75 0 110-7.5h.5a.75.75 0 010 1.5h-.5zM17 22.75c0-.41.34-.75.75-.75h5.5a.75.75 0 010 1.5h-5.5a.75.75 0 01-.75-.75zM23.25 25a2.25 2.25 0 000-4.5h-.5a.75.75 0 010-1.5h.5a3.75 3.75 0 110 7.5h-.5a.75.75 0 010-1.5h.5z"/></svg>