<svg width="24" height="24" viewBox="0 0 24 24" xmlns="http://www.w3.org/2000/svg"><path d="M9.5 21h2.07a4.73 4.73 0 0 1 .3-5H9.5v5ZM21 9.5v4.83a4.74 4.74 0 0 0-1.75-.33H16V9.5h5Zm-6.5 0v4.67c-.3.08-.6.2-.87.33H9.5v-5h5ZM21 8V6.25C21 4.45 19.54 3 17.75 3H16v5h5Zm-6.5-5h-5v5h5V3ZM8 3H6.25A3.25 3.25 0 0 0 3 6.25V8h5V3ZM3 9.5v5h5v-5H3ZM3 16v1.75C3 19.55 4.46 21 6.25 21H8v-5H3Zm16.25-1a3.75 3.75 0 0 1 .2 7.5h-.2a.75.75 0 0 1-.1-1.49h.1V21a2.25 2.25 0 0 0 .15-4.5h-.15a.75.75 0 0 1-.1-1.5h.1Zm-3.5 0a.75.75 0 0 1 .1 1.5h-.1a2.25 2.25 0 0 0-.15 4.5h.15a.75.75 0 0 1 .1 1.5h-.1a3.75 3.75 0 0 1-.2-7.5h.2Zm3.5 3a.75.75 0 0 1 .1 1.5h-3.6a.75.75 0 0 1-.1-1.5h3.6Z"/></svg>