<svg width="16" height="16" viewBox="0 0 16 16" xmlns="http://www.w3.org/2000/svg"><path d="M2 4.5A2.5 2.5 0 0 1 4.5 2h7A2.5 2.5 0 0 1 14 4.5v4.84a3.48 3.48 0 0 0-1-.3V6h-2v3h-1V6H6v4h.05A3.49 3.49 0 0 0 5 12.5V11H3v.5c0 .83.67 1.5 1.5 1.5H5v-.5c0 .54.12 1.05.34 1.5H4.5A2.5 2.5 0 0 1 2 11.5v-7ZM5 6H3v4h2V6Zm1-1h4V3H6v2ZM5 3h-.5C3.67 3 3 3.67 3 4.5V5h2V3Zm8 2v-.5c0-.83-.67-1.5-1.5-1.5H11v2h2Zm-4.5 5a2.5 2.5 0 0 0 0 5H9a.5.5 0 0 0 0-1h-.5a1.5 1.5 0 0 1 0-3H9a.5.5 0 0 0 0-1h-.5Zm3.5 0a.5.5 0 0 0 0 1h.5a1.5 1.5 0 0 1 0 3H12a.5.5 0 0 0 0 1h.5a2.5 2.5 0 0 0 0-5H12Zm-4 2.5c0-.28.22-.5.5-.5h4a.5.5 0 0 1 0 1h-4a.5.5 0 0 1-.5-.5Z"/></svg>