<svg width="16" height="16" viewBox="0 0 16 16" xmlns="http://www.w3.org/2000/svg"><path d="M4.5 2A2.5 2.5 0 002 4.5V5h3V2h-.5zM6 2v3h4V2H6zM5 6H2v4h3V6zm1 4V6h4v3H8.5c-.95 0-1.82.38-2.45 1H6zm6.5-1c.54 0 1.05.12 1.5.34V6h-3v3h1.5zM5 11v3h-.5A2.5 2.5 0 012 11.5V11h3zm9-6v-.5A2.5 2.5 0 0011.5 2H11v3h3zm-5.5 5a2.5 2.5 0 000 5H9a.5.5 0 000-1h-.5a1.5 1.5 0 010-3H9a.5.5 0 000-1h-.5zm3.5 0a.5.5 0 000 1h.5a1.5 1.5 0 010 3H12a.5.5 0 000 1h.5a2.5 2.5 0 000-5H12zm-4 2.5c0-.28.22-.5.5-.5h4a.5.5 0 010 1h-4a.5.5 0 01-.5-.5z"/></svg>