<svg width="24" height="24" viewBox="0 0 24 24" xmlns="http://www.w3.org/2000/svg"><path d="M3 6.25C3 4.45 4.46 3 6.25 3h11.5C19.55 3 21 4.46 21 6.25v8.08c-.47-.18-.97-.3-1.5-.32V10h-4v4a4.74 4.74 0 00-3.21 1.5H10v4h1.06c.08.54.26 1.04.5 1.5H6.26A3.25 3.25 0 013 17.75V6.25zM14 10h-4v4h4v-4zM6.25 4.5c-.97 0-1.75.78-1.75 1.75V8.5h4v-4H6.25zM4.5 10v4h4v-4h-4zm11-1.5h4V6.25c0-.97-.78-1.75-1.75-1.75H15.5v4zm-1.5-4h-4v4h4v-4zm-9.5 11v2.25c0 .97.78 1.75 1.75 1.75H8.5v-4h-4zm14.75-.5a3.75 3.75 0 01.2 7.5h-.2a.75.75 0 01-.1-1.49h.1V21a2.25 2.25 0 00.15-4.5h-.15a.75.75 0 01-.1-1.5h.1zm-3.5 0a.75.75 0 01.1 1.5h-.1a2.25 2.25 0 00-.15 4.5h.15a.75.75 0 01.1 1.5h-.1a3.75 3.75 0 01-.2-7.5h.2zm3.5 3a.75.75 0 01.1 1.5h-3.6a.75.75 0 01-.1-1.5h3.6z"/></svg>