<svg width="28" height="28" viewBox="0 0 28 28" xmlns="http://www.w3.org/2000/svg"><path d="M3 6.75A3.75 3.75 0 016.75 3H9.5v6.5H3V6.75zM3 11v6h6.5v-6H3zm0 7.5v2.75A3.75 3.75 0 006.75 25H9.5v-6.5H3zm8 6.5h2.57a4.73 4.73 0 012.06-6.5H11V25zm14-8v-6h-6.5v6H25zm0-7.5V6.75A3.75 3.75 0 0021.25 3H18.5v6.5H25zM17 3h-6v6.5h6V3zm0 8v6h-6v-6h6zm.75 9.5a2.25 2.25 0 000 4.5h.5a.75.75 0 010 1.5h-.5a3.75 3.75 0 110-7.5h.5a.75.75 0 010 1.5h-.5zM17 22.75c0-.41.34-.75.75-.75h5.5a.75.75 0 010 1.5h-5.5a.75.75 0 01-.75-.75zM23.25 25a2.25 2.25 0 000-4.5h-.5a.75.75 0 010-1.5h.5a3.75 3.75 0 110 7.5h-.5a.75.75 0 010-1.5h.5z"/></svg>