<svg width="48" height="48" viewBox="0 0 48 48" xmlns="http://www.w3.org/2000/svg"><path d="M14 12a8 8 0 1 1 16 0v11c-.9.37-1.73.84-2.51 1.39l.01-.39V12a5.5 5.5 0 1 0-11 0v12a5.5 5.5 0 0 0 6.79 5.35c-.4.83-.72 1.72-.94 2.64L22 32a8 8 0 0 1-8-8V12Zm9 28a12.95 12.95 0 0 1-1-4.75 11.5 11.5 0 0 1-11.5-11.5 1.25 1.25 0 1 0-2.5 0 14 14 0 0 0 12.5 13.92v5.08a1.25 1.25 0 1 0 2.5 0v-2.74Zm23-5a11 11 0 1 1-22 0 11 11 0 0 1 22 0Zm-13.98-6a1 1 0 0 0-.95.64l-1.7 4.4H28a1 1 0 1 0 0 2h2.04a1 1 0 0 0 .94-.64l.97-2.51 2.6 7.44a1 1 0 0 0 1.89.02l2.2-5.85.47.95a1 1 0 0 0 .87.55l2 .03a1 1 0 1 0 .04-2l-1.4-.02-1.23-2.46a1 1 0 0 0-1.83.1l-2.03 5.42-2.59-7.4a1 1 0 0 0-.92-.67Z"/></svg>