<svg width="20" height="20" viewBox="0 0 20 20" xmlns="http://www.w3.org/2000/svg"><path d="M9 13h.2c.12-.4.27-.76.46-1.11A2 2 0 0 1 7 10V5a2 2 0 1 1 4 0v5c0 .1 0 .18-.02.27.31-.26.66-.48 1.02-.67V5a3 3 0 1 0-6 0v5a3 3 0 0 0 3 3Zm-4.5-3A4.5 4.5 0 0 0 9 14.5c0 .82.18 1.6.5 2.3v.7a.5.5 0 0 1-1 0v-2.02a5.5 5.5 0 0 1-5-5.48.5.5 0 0 1 1 0ZM19 14.5a4.5 4.5 0 1 0-9 0 4.5 4.5 0 0 0 9 0Zm-5.56-2c.21 0 .39.14.46.33l.63 1.76.58-1.44a.5.5 0 0 1 .9-.05l.58 1.07H17a.5.5 0 1 1 0 1h-.71a.5.5 0 0 1-.44-.27l-.21-.39-.68 1.68a.5.5 0 0 1-.93-.02l-.64-1.8-.22.5a.5.5 0 0 1-.46.3H12a.5.5 0 0 1 0-1h.38l.59-1.37a.5.5 0 0 1 .47-.3Z"/></svg>