<svg width="16" height="16" viewBox="0 0 16 16" xmlns="http://www.w3.org/2000/svg"><path d="M6.5 2A2.5 2.5 0 0 0 4 4.5V8c0 .83.4 1.56 1.02 2.02A5.5 5.5 0 0 1 9 5.2V4.5A2.5 2.5 0 0 0 6.5 2ZM3 8a3.5 3.5 0 0 0 2.04 3.18c.05.4.14.8.28 1.16A4.5 4.5 0 0 1 2 8a.5.5 0 0 1 1 0Zm12 2.5a4.5 4.5 0 1 1-9 0 4.5 4.5 0 0 1 9 0Zm-5.56-2a.5.5 0 0 0-.47.3l-.59 1.37H8a.5.5 0 1 0 0 1h.71a.5.5 0 0 0 .46-.3l.22-.5.64 1.8a.5.5 0 0 0 .93.02l.68-1.68.2.4a.5.5 0 0 0 .45.26H13a.5.5 0 0 0 0-1h-.41L12 9.1a.5.5 0 0 0-.9.05l-.58 1.44-.63-1.76a.5.5 0 0 0-.46-.33Z"/></svg>