<svg width="20" height="20" viewBox="0 0 20 20" xmlns="http://www.w3.org/2000/svg"><path d="M3 11.5a.5.5 0 0 0 1 0v-3a.5.5 0 0 0-1 0v3Zm1.05 2.96a2 2 0 0 0 1.55 1.5.5.5 0 0 1 .4.59.5.5 0 0 1-.66.38 3 3 0 0 1-2.29-2.34.5.5 0 0 1 .4-.6.5.5 0 0 1 .6.47Zm10.61 2.47a.5.5 0 0 1-.66-.38.5.5 0 0 1 .46-.6A2 2 0 0 0 16 14V6a2 2 0 0 0-1.6-1.95.5.5 0 0 1-.4-.6.5.5 0 0 1 .66-.38A3 3 0 0 1 17 6v8a3 3 0 0 1-2.34 2.93ZM3.06 5.4a3 3 0 0 1 2.36-2.36.5.5 0 0 1 .58.4.5.5 0 0 1-.46.6 2 2 0 0 0-1.5 1.55.5.5 0 0 1-.59.4.5.5 0 0 1-.4-.59ZM12 3.5a.5.5 0 0 1-.5.5h-3a.5.5 0 0 1 0-1h3c.28 0 .5.22.5.5ZM11.5 17a.5.5 0 0 0 0-1h-3a.5.5 0 0 0 0 1h3Z"/></svg>