<svg width="20" height="20" viewBox="0 0 20 20" xmlns="http://www.w3.org/2000/svg"><path d="M9.37 2.03A8 8 0 0 1 18 10.25a5.5 5.5 0 0 0-1.53-.89 6.5 6.5 0 0 0-11.4-3.6l-.2.24h1.88l.1.01a.75.75 0 0 1 0 1.49h-3.7a.75.75 0 0 1-.64-.64V2.66c.04-.34.3-.6.64-.65h.2c.34.05.6.3.65.64v2.06a7.98 7.98 0 0 1 5.37-2.68Zm0 14.44c.2.56.51 1.07.88 1.53A8 8 0 0 1 2 9.74a.75.75 0 1 1 1.5.04 6.5 6.5 0 0 0 5.86 6.69Zm.89-5.47a5.52 5.52 0 0 1 1.95-1.5H10.5V6.65a.75.75 0 0 0-.65-.64h-.2c-.34.05-.6.3-.64.64l-.01.1v3.6c.05.33.31.6.65.64l.1.01h.5ZM19 14.5a4.5 4.5 0 1 1-9 0 4.5 4.5 0 0 1 9 0Zm-2.65-1.15a.5.5 0 0 0-.7-.7l-1.15 1.14-1.15-1.14a.5.5 0 0 0-.7.7l1.14 1.15-1.14 1.15a.5.5 0 0 0 .7.7l1.15-1.14 1.15 1.14a.5.5 0 0 0 .7-.7l-1.14-1.15 1.14-1.15Z"/></svg>