<svg width="20" height="20" viewBox="0 0 20 20" xmlns="http://www.w3.org/2000/svg"><path d="M3.5 2h.1c.2.04.36.2.4.4V4.7a8 8 0 0 1 14 5.55 5.5 5.5 0 0 0-1-.65A7 7 0 0 0 4.26 6h2.82a.5.5 0 0 1 0 .99H3.41a.5.5 0 0 1-.4-.4V2.4a.5.5 0 0 1 .4-.4l.1-.01Zm6.1 14.99c.18.36.4.7.65 1a8 8 0 0 1-8.24-8.51.5.5 0 1 1 1 .04 7 7 0 0 0 6.59 7.47Zm.66-5.99c.31-.38.67-.72 1.08-1H10V6.4a.5.5 0 0 0-.4-.4H9.4a.5.5 0 0 0-.4.4V10.6c.04.2.2.36.4.4l.1.01h.75ZM19 14.5a4.5 4.5 0 1 1-9 0 4.5 4.5 0 0 1 9 0Zm-2.65-1.15a.5.5 0 0 0-.7-.7l-1.15 1.14-1.15-1.14a.5.5 0 0 0-.7.7l1.14 1.15-1.14 1.15a.5.5 0 0 0 .7.7l1.15-1.14 1.15 1.14a.5.5 0 0 0 .7-.7l-1.14-1.15 1.14-1.15Z"/></svg>