<svg width="28" height="28" viewBox="0 0 28 28" xmlns="http://www.w3.org/2000/svg"><path d="M14 5c-2.14 0-4.11.75-5.66 2H10a1 1 0 1 1 0 2H6a1 1 0 0 1-1-1.01V4a1 1 0 0 1 2 0v1.51a11 11 0 0 1 17.99 8.98 7.48 7.48 0 0 0-2-1.07A9 9 0 0 0 14 5Zm-.58 17.98c.26.73.62 1.4 1.07 2-.16.02-.33.02-.49.02A11 11 0 0 1 3.05 12.9a1 1 0 1 1 2 .2 9 9 0 0 0 8.38 9.88ZM15.4 15a7.51 7.51 0 0 1 2.04-1.35 1 1 0 0 0-.94-.65H15V8a1 1 0 1 0-2 0v6a1 1 0 0 0 1 1h1.4ZM27 20.5a6.5 6.5 0 1 1-13 0 6.5 6.5 0 0 1 13 0Zm-9.15-3.35a.5.5 0 0 0-.7.7l2.64 2.65-2.64 2.65a.5.5 0 0 0 .7.7l2.65-2.64 2.65 2.64a.5.5 0 0 0 .7-.7l-2.64-2.65 2.64-2.65a.5.5 0 0 0-.7-.7l-2.65 2.64-2.65-2.64Z"/></svg>