<svg width="24" height="24" viewBox="0 0 24 24" xmlns="http://www.w3.org/2000/svg"><path d="M4.75 12a7.25 7.25 0 0 0 6.48 7.2c.2.75.53 1.44.96 2.05H12a9.25 9.25 0 0 1-9.18-10.38c.06-.51.51-.87 1.03-.87.6 0 1.02.57.95 1.16-.03.27-.05.55-.05.84Zm8.06 1a6.5 6.5 0 0 1 2.86-1.74A1 1 0 0 0 15 11h-2V8a1 1 0 1 0-2 0v4a1 1 0 0 0 1 1h.81Zm8.44-.81a6.47 6.47 0 0 0-2.04-.96A7.25 7.25 0 0 0 7.58 6.25h.67a1 1 0 0 1 0 2h-3a1 1 0 0 1-1-1V7h-.03l.03-.05v-2.7a1 1 0 0 1 2 0v.5a9.25 9.25 0 0 1 15 7.43ZM23 17.5a5.5 5.5 0 1 1-11 0 5.5 5.5 0 0 1 11 0Zm-7.15-2.35a.5.5 0 0 0-.7.7l1.64 1.65-1.64 1.65a.5.5 0 0 0 .7.7l1.65-1.64 1.65 1.64a.5.5 0 0 0 .7-.7l-1.64-1.65 1.64-1.65a.5.5 0 0 0-.7-.7l-1.65 1.64-1.65-1.64Z"/></svg>