<svg width="20" height="20" viewBox="0 0 20 20" xmlns="http://www.w3.org/2000/svg"><path d="M4 7.57c.04-.82.24-1.59.58-2.28L2.15 2.85a.5.5 0 1 1 .7-.7l15 15a.5.5 0 0 1-.7.7L14.3 15h-1.8v.17a2.5 2.5 0 0 1-5 0V15H4a1 1 0 0 1-.26-.03l-.13-.04a1 1 0 0 1-.6-1.05l.02-.13.05-.13L4 11.4V7.57ZM13.3 14 5.34 6.05a4.6 4.6 0 0 0-.32 1.33L5 7.6V11.5l-.04.2L4 14h9.3Zm-1.8 1h-3v.14a1.5 1.5 0 0 0 1.36 1.34l.14.01c.78 0 1.42-.6 1.5-1.36V15Zm3.54-3.32.87 2.1.86.85c.15-.17.23-.4.23-.64v-.13l-.02-.08a1 1 0 0 0-.06-.17L16 11.4V7.58l-.02-.22A5.92 5.92 0 0 0 10 2a6.1 6.1 0 0 0-4.21 1.66l.7.71A5.1 5.1 0 0 1 10 3a4.9 4.9 0 0 1 5 4.6l.01.21v3.69l.04.2Z"/></svg>