<svg width="28" height="28" viewBox="0 0 28 28" xmlns="http://www.w3.org/2000/svg"><path d="M3.28 2.22a.75.75 0 1 0-1.06 1.06l4.26 4.26a8.46 8.46 0 0 0-.98 3.96v4.61l-1.42 3.65-.04.12a1.28 1.28 0 0 0 1.23 1.62h5.23v.2a3.5 3.5 0 0 0 7-.2h2.94l4.28 4.28a.75.75 0 0 0 1.06-1.06L3.28 2.22ZM18.94 20H5.6l1.35-3.47.03-.1a.75.75 0 0 0 .02-.18v-4.99c.03-.92.24-1.8.6-2.6L18.94 20ZM16 21.65a2 2 0 0 1-4-.15h4v.15ZM8.34 5.15 9.4 6.23A7 7 0 0 1 21 11.5v4.85l.05.17.86 2.2 2 2c.06-.15.1-.32.1-.5l-.02-.16c-.01-.1-.04-.2-.07-.3L22.5 16.1V11.25a8.5 8.5 0 0 0-14.16-6.1Z"/></svg>