<svg width="24" height="24" viewBox="0 0 24 24" xmlns="http://www.w3.org/2000/svg"><path d="M18.75 22c1.8 0 3.25-1.46 3.25-3.25v-8c0-1.8-1.46-3.25-3.25-3.25H17.5V9h1.25c.97 0 1.75.78 1.75 1.75v8c0 .97-.78 1.75-1.75 1.75h-8c-.97 0-1.75-.78-1.75-1.75V17.5H7.5v1.25c0 1.8 1.46 3.25 3.25 3.25h8Zm-5.5-5.5c1.8 0 3.25-1.46 3.25-3.25v-8c0-1.8-1.46-3.25-3.25-3.25h-8A3.25 3.25 0 0 0 2 5.25v8c0 1.8 1.46 3.25 3.25 3.25h8ZM15 13.25c0 .97-.78 1.75-1.75 1.75h-.78L15 12.47v.78Zm0-2.78L10.47 15h-2L15 8.47v2ZM6.35 15h-1.1c-.23 0-.45-.04-.65-.13L14.87 4.6c.09.2.13.42.13.65v1.1L6.35 15Zm-2.77-1.23a1.75 1.75 0 0 1-.08-.52v-1.28l8.47-8.47h1.28c.18 0 .36.03.52.08L3.57 13.77ZM3.5 9.85V7.97L7.97 3.5h1.88L3.5 9.85Zm0-4v-.6c0-.97.78-1.75 1.75-1.75h.6L3.5 5.85Z"/></svg>