<svg width="16" height="16" viewBox="0 0 16 16" xmlns="http://www.w3.org/2000/svg"><path d="M11.5 2A2.5 2.5 0 0 1 14 4.5v2.1c-.32-.16-.65-.3-1-.4V6H3v5.5c0 .83.67 1.5 1.5 1.5h1.7c.1.35.24.68.4 1H4.5A2.5 2.5 0 0 1 2 11.5v-7A2.5 2.5 0 0 1 4.5 2h7Zm0 1h-7C3.67 3 3 3.67 3 4.5V5h10v-.5c0-.83-.67-1.5-1.5-1.5Zm0 13a4.5 4.5 0 1 0 0-9 4.5 4.5 0 0 0 0 9Zm-.74-6.55c.1 0 .18.03.26.08l2.3 1.51c.07.05.12.1.16.18a.54.54 0 0 1-.03.54.46.46 0 0 1-.13.13l-2.3 1.57a.54.54 0 0 1-.12.06.45.45 0 0 1-.32-.02.57.57 0 0 1-.16-.1.5.5 0 0 1-.14-.36V9.96a.5.5 0 0 1 .3-.46.44.44 0 0 1 .18-.05Z"/></svg>