<svg width="24" height="24" viewBox="0 0 24 24" xmlns="http://www.w3.org/2000/svg"><path d="M7.42 2.83C7.6 2.33 8.07 2 8.6 2h6.46c.85 0 1.45.84 1.18 1.65L14.8 8h3.96c1.1 0 1.66 1.33.9 2.12l-.67.7c-.3-.5-.8-.76-1.32-.81l.5-.51h-4.41a.75.75 0 01-.71-.99L14.7 3.5H8.78l-3.26 9.16c-.06.16.06.33.23.33l2.5.01a.75.75 0 01.73.91L7.51 20.5l7.86-8.1-1.44 3.63-5.34 5.52c-1.06 1.08-2.88.1-2.55-1.38l1.27-5.66-1.57-.01c-1.2 0-2.04-1.2-1.64-2.34l3.32-9.32zm10.77 8.64l3.75 9.5a.75.75 0 01-1.35.64l-.04-.09-1-2.52h-4.1l-1 2.52a.75.75 0 01-.88.45l-.1-.03a.75.75 0 01-.45-.87l.03-.1 3.75-9.5a.73.73 0 01.45-.43.77.77 0 01.55.02c.14.06.26.16.34.3l.05.11zm-2.16 6.03h2.93l-1.46-3.7-1.47 3.7z"/></svg>