<svg width="20" height="20" viewBox="0 0 20 20" xmlns="http://www.w3.org/2000/svg"><path d="M15.75 4.75a2 2 0 10-4 0v10.5a2 2 0 104 0v-4.5h.5a2 2 0 100-4h-.5v-2zm-1.25 0V8h1.75a.75.75 0 010 1.5H14.5v5.75a.75.75 0 01-1.5 0V4.75a.75.75 0 011.5 0zm-12.25 2c0-1.1.9-2 2-2h5a2 2 0 012 2c0 1.18-.32 3.15-1.26 4.89-.97 1.8-2.8 3.61-5.74 3.61a2 2 0 110-4c1 0 1.69-.53 2.22-1.52.17-.31.31-.65.42-.98H4.25a2 2 0 01-2-2zm1.25 0c0 .41.33.75.75.75h4.2a8.3 8.3 0 01-.88 2.83c-.67 1.24-1.7 2.17-3.32 2.17a.75.75 0 000 1.5c2.34 0 3.8-1.4 4.64-2.96A9.75 9.75 0 0010 6.75.75.75 0 009.26 6h-5a.75.75 0 00-.75.75z"/></svg>