<svg width="20" height="20" viewBox="0 0 20 20" xmlns="http://www.w3.org/2000/svg"><path d="M16 4.75a2.25 2.25 0 0 0-4.5 0v2c0-1.24-1.01-2.25-2.25-2.25h-5a2.25 2.25 0 0 0 0 4.5h2.28c-.08.21-.17.42-.28.62-.5.93-1.12 1.38-2 1.38a2.25 2.25 0 0 0 0 4.5c3.07 0 4.96-1.89 5.96-3.74.97-1.79 1.29-3.8 1.29-5.01v8.5a2.25 2.25 0 0 0 4.5 0V11h.25a2.25 2.25 0 0 0 0-4.5H16V4.75Zm-1.5 0V8h1.75a.75.75 0 0 1 0 1.5H14.5v5.75a.75.75 0 0 1-1.5 0V4.75a.75.75 0 0 1 1.5 0Zm-11 2c0-.41.33-.75.75-.75h5c.41 0 .75.34.75.75 0 1.01-.28 2.77-1.1 4.3C8.04 12.58 6.6 14 4.24 14a.75.75 0 0 1 0-1.5c1.61 0 2.65-.93 3.32-2.17.51-.94.77-2 .87-2.83h-4.2a.75.75 0 0 1-.74-.75Z"/></svg>