<svg width="24" height="24" viewBox="0 0 24 24" xmlns="http://www.w3.org/2000/svg"><path d="M18 20.5a.5.5 0 0 0 .5-.5V10H14a2 2 0 0 1-2-2V3.5H6a.5.5 0 0 0-.5.5v10h-.75c-.26 0-.5.02-.75.06V4c0-1.1.9-2 2-2h6.17a.6.6 0 0 1 .08 0l.06.01c.22.02.43.06.63.14l.16.09c.02 0 .04.02.05.03l.05.02.08.05a2.07 2.07 0 0 1 .3.25l5.83 5.82A2 2 0 0 1 20 9.83V20a2 2 0 0 1-2 2h-6.29c.41-.43.74-.94.96-1.5H18Zm-.62-12L13.5 4.62V8c0 .28.22.5.5.5h3.38Zm-7.6 5.75c.85.29 1.6.82 2.15 1.5h3.32a.75.75 0 0 0 0-1.5H9.77ZM12.66 17c.18.47.3.97.32 1.5h2.26a.75.75 0 0 0 0-1.5h-2.58Zm-3.92-5.5a.75.75 0 0 0 0 1.5h6.5a.75.75 0 0 0 0-1.5h-6.5ZM12 18.75A3.75 3.75 0 0 0 8.25 15h-.1a.75.75 0 0 0 .1 1.5h.15a2.25 2.25 0 0 1-.15 4.5l-.1.01a.75.75 0 0 0 .1 1.5v-.01h.2A3.75 3.75 0 0 0 12 18.74Zm-6.5-3a.75.75 0 0 0-.75-.75h-.2a3.75 3.75 0 0 0 .2 7.5h.1a.75.75 0 0 0-.1-1.5H4.6a2.25 2.25 0 0 1 .15-4.5h.1a.75.75 0 0 0 .65-.75Zm3.5 3a.75.75 0 0 0-.75-.75h-3.6a.75.75 0 0 0 .1 1.5h3.6a.75.75 0 0 0 .65-.75Z"/></svg>