<svg width="32" height="32" viewBox="0 0 32 32" xmlns="http://www.w3.org/2000/svg"><path d="M12 21a2.07 2.07 0 0 1-1.96-1.4l-.8-2.42a3.8 3.8 0 0 0-2.43-2.44l-2.4-.78a2.08 2.08 0 0 1-.03-3.93l2.44-.79a3.85 3.85 0 0 0 2.36-2.38l.8-2.46a2.07 2.07 0 0 1 3.17-1.03c.35.25.62.6.76 1l.8 2.44a3.83 3.83 0 0 0 2.42 2.43l2.4.78a2.07 2.07 0 0 1 .08 3.94l-2.43.8a3.81 3.81 0 0 0-2.43 2.42l-.78 2.4A2.06 2.06 0 0 1 12 21Zm11.5 9a1.75 1.75 0 0 1-1.64-1.16l-.54-1.68a2.28 2.28 0 0 0-1.48-1.48l-1.65-.53a1.75 1.75 0 0 1-.03-3.3l1.69-.54a2.32 2.32 0 0 0 1.43-1.47l.54-1.65a1.73 1.73 0 0 1 3.29-.02l.54 1.67a2.33 2.33 0 0 0 1.48 1.47l1.65.54a1.73 1.73 0 0 1 .05 3.3l-1.67.54a2.27 2.27 0 0 0-1.47 1.47l-.54 1.65A1.76 1.76 0 0 1 23.5 30Z"/></svg>