<svg width="32" height="32" viewBox="0 0 32 32" xmlns="http://www.w3.org/2000/svg"><path d="M3.4 13.2c.25.36.6.62 1.01.76l2.4.78a3.85 3.85 0 0 1 2.44 2.44l.79 2.43a2.07 2.07 0 0 0 3.93-.03l.78-2.4a3.87 3.87 0 0 1 2.43-2.43l2.44-.8a2.08 2.08 0 0 0-.08-3.93l-2.4-.78a3.82 3.82 0 0 1-2.44-2.43l-.8-2.44A2.06 2.06 0 0 0 11.96 3a2.07 2.07 0 0 0-1.97 1.4l-.8 2.46a3.85 3.85 0 0 1-2.36 2.38l-2.44.79a2.08 2.08 0 0 0-.99 3.18ZM12 19a.07.07 0 0 1-.07-.04l-.78-2.4a5.75 5.75 0 0 0-3.7-3.71v-.01l-2.4-.78A.08.08 0 0 1 5 12a.08.08 0 0 1 .04-.07l2.42-.79h.03a5.85 5.85 0 0 0 3.59-3.62v-.02l.8-2.45s0-.02.02-.03a.11.11 0 0 1 .1 0l.02.02.78 2.4v.01a5.83 5.83 0 0 0 3.7 3.7l2.42.78.07.05a.07.07 0 0 1 0 .07l-.03.03-2.4.78h-.01a5.81 5.81 0 0 0-3.7 3.7l-.77 2.37a.2.2 0 0 1-.05.07l-.02.01Zm13.65.84a2.33 2.33 0 0 0 1.48 1.47l1.65.54a1.73 1.73 0 0 1 .05 3.3l-1.67.54a2.27 2.27 0 0 0-1.47 1.47l-.54 1.65A1.76 1.76 0 0 1 23.5 30a1.75 1.75 0 0 1-1.64-1.16l-.54-1.68a2.28 2.28 0 0 0-1.48-1.48l-1.65-.53a1.75 1.75 0 0 1-.03-3.3l1.69-.54a2.32 2.32 0 0 0 1.43-1.47l.54-1.65a1.73 1.73 0 0 1 3.29-.02l.54 1.67Zm.85 3.37a4.33 4.33 0 0 1-2.74-2.73v-.01l-.3-.88-.28.88a4.33 4.33 0 0 1-2.67 2.73h-.02l-.9.3.88.29h.01a4.28 4.28 0 0 1 2.74 2.76l.28.86.29-.88a4.36 4.36 0 0 1 2.75-2.74l.86-.29-.9-.3Z"/></svg>