<svg width="24" height="24" viewBox="0 0 24 24" xmlns="http://www.w3.org/2000/svg"><path d="M14.98 11.97c.6.61.93 1.34 1.16 2.33l.12.53.1.5c.12.68.2.98.3 1.22.29.64.8 1.3 1.54 1.97.4.37.43 1 .06 1.4a1 1 0 0 1-1.41.07 8.13 8.13 0 0 1-2.01-2.63 5.36 5.36 0 0 1-.37-1.21l-.18-1-.04-.16c-.17-.8-.38-1.3-.7-1.63-.6-.6-2.06-.44-2.41.12-.52.82-.66 2.24-.23 3.69.34 1.15.79 2.28 1.35 3.4a.99.99 0 0 1-.44 1.33 1 1 0 0 1-1.35-.44A22.26 22.26 0 0 1 9 17.72c-.58-1.96-.39-3.97.46-5.3 1.04-1.63 4.02-1.98 5.53-.45Zm-2.5 2.13a1 1 0 0 1 1.03.97c.05 1.5.53 2.94 1.4 4.17l.18.25.3.4a1 1 0 0 1-1.5 1.3l-.08-.09-.3-.39a9.68 9.68 0 0 1-2-5.58 1 1 0 0 1 .96-1.03ZM8.57 9.2a6.27 6.27 0 0 1 7.01-.3c.96.62 1.7 1.35 2.18 2.18a1 1 0 0 1-1.72 1.01 4.62 4.62 0 0 0-1.54-1.5 4.28 4.28 0 0 0-4.75.22c-1.56 1.15-2.22 3.14-2.02 5.25.11 1.2.47 2.41 1.09 3.64a1 1 0 0 1-1.79.9 12.24 12.24 0 0 1-1.3-4.35c-.25-2.75.64-5.43 2.83-7.05Zm10.57 5.16c.03.56.16 1 .4 1.37.22.33.4.5.49.52a1 1 0 1 1-.58 1.91 3 3 0 0 1-1.58-1.33 4.66 4.66 0 0 1-.73-2.37 1 1 0 1 1 2-.1Zm-8.68-8.4a1 1 0 0 1-.5 1.33c-1.8.8-3.11 1.95-3.98 3.44a9.58 9.58 0 0 0-1.13 5.92 1 1 0 1 1-1.98.26c-.3-2.25.05-4.88 1.38-7.18a10.35 10.35 0 0 1 4.88-4.27 1 1 0 0 1 1.33.5Zm2.46-1.03c1.9.04 3.77.9 5.62 2.55 1.87 1.66 3 3.92 3.37 6.74a1 1 0 1 1-1.98.26 8.6 8.6 0 0 0-2.72-5.5c-1.52-1.35-2.96-2.02-4.33-2.05a1 1 0 1 1 .04-2Zm-7.32.23a1 1 0 0 1-.08 1.41 7.22 7.22 0 0 0-1.64 2 1 1 0 1 1-1.73-.99 9.16 9.16 0 0 1 2.04-2.5 1 1 0 0 1 1.41.08Zm6.89-3.13c2.24.1 4.32.6 5.86 1.78a1 1 0 1 1-1.22 1.59c-1.2-.93-2.89-1.29-4.74-1.37a7.83 7.83 0 0 0-4.55.97 1 1 0 0 1-1.05-1.7 9.79 9.79 0 0 1 5.7-1.27Z"/></svg>