<svg width="28" height="28" viewBox="0 0 28 28" xmlns="http://www.w3.org/2000/svg"><path d="M6.75 3h14.5A3.8 3.8 0 0125 6.75v4.26l-.25-.01H23.5V9.5h-19v11.75c0 1.24 1 2.25 2.25 2.25H11V25H6.76A3.75 3.75 0 013 21.25V6.75A3.8 3.8 0 016.75 3zM18.5 18.5v-4.25c0-1.24 1-2.25 2.25-2.25h4c1.24 0 2.25 1 2.25 2.25v9.5c0 1.8-1.46 3.25-3.25 3.25h-9.5C13.01 27 12 26 12 24.75v-4c0-1.24 1-2.25 2.25-2.25h4.25zm1.5-4.25v4.25h5.5v-4.25a.75.75 0 00-.75-.75h-4a.75.75 0 00-.75.75zM25.5 20H20v5.5h3.75c.97 0 1.75-.78 1.75-1.75V20zm-11.25 0a.75.75 0 00-.75.75v4c0 .41.34.75.75.75h4.25V20h-4.25z"/></svg>