<svg width="48" height="48" viewBox="0 0 48 48" xmlns="http://www.w3.org/2000/svg"><path d="M12.25 6A6.25 6.25 0 006 12.25v23.5C6 39.2 8.8 42 12.25 42H18v-2.5h-5.75a3.75 3.75 0 01-3.75-3.75V16.5h31V18H42v-5.75C42 8.8 39.2 6 35.75 6h-23.5zm27.25 8h-31v-1.75a3.75 3.75 0 013.75-3.75h23.5a3.75 3.75 0 013.75 3.75V14zm-4 6a3.75 3.75 0 00-3.75 3.75v8h-8A3.75 3.75 0 0020 35.5v6.75A3.75 3.75 0 0023.75 46h16C43.2 46 46 43.2 46 39.75v-16A3.75 3.75 0 0042.25 20H35.5zm-1.25 3.75c0-.69.56-1.25 1.25-1.25h6.75c.69 0 1.25.56 1.25 1.25v8h-9.25v-8zm9.25 10.5v5.5a3.75 3.75 0 01-3.75 3.75h-5.5v-9.25h9.25zm-19.75 0h8v9.25h-8c-.69 0-1.25-.56-1.25-1.25V35.5c0-.69.56-1.25 1.25-1.25z"/></svg>