<svg width="16" height="16" viewBox="0 0 16 16" xmlns="http://www.w3.org/2000/svg"><path d="M4.5 2A2.5 2.5 0 002 4.5v7A2.5 2.5 0 004.5 14H6v-1H4.5A1.5 1.5 0 013 11.5V6h11V4.5A2.5 2.5 0 0011.5 2h-7zM13 5H3v-.5C3 3.67 3.67 3 4.5 3h7c.83 0 1.5.67 1.5 1.5V5zm-.25 2h1.5c.97 0 1.75.78 1.75 1.75V14a2 2 0 01-2 2H8.75C7.78 16 7 15.22 7 14.25v-1.5c0-.97.78-1.75 1.75-1.75H11V8.75c0-.97.78-1.75 1.75-1.75zM11 12H8.75a.75.75 0 00-.75.75v1.5c0 .41.34.75.75.75H11v-3zm1 3h2a1 1 0 001-1v-2h-3v3zm0-4h3V8.75a.75.75 0 00-.75-.75h-1.5a.75.75 0 00-.75.75V11z"/></svg>