<svg width="24" height="24" viewBox="0 0 24 24" xmlns="http://www.w3.org/2000/svg"><path d="M3 6.25C3 4.45 4.46 3 6.25 3h11.5C19.55 3 21 4.46 21 6.25v2.76L20.75 9H19.5v-.5h-15v9.25c0 .97.78 1.75 1.75 1.75H9V21H6.26A3.25 3.25 0 013 17.75V6.25zm9.25 9.25h3.25v-3.25c0-1.24 1-2.25 2.25-2.25h3c1.24 0 2.25 1 2.25 2.25v7.5c0 1.8-1.46 3.25-3.25 3.25h-7.5C11.01 23 10 22 10 20.75v-3c0-1.24 1-2.25 2.25-2.25zM17 12.25v3.25h4.5v-3.25a.75.75 0 00-.75-.75h-3a.75.75 0 00-.75.75zm-1.5 9.25V17h-3.25a.75.75 0 00-.75.75v3c0 .41.34.75.75.75h3.25zM17 17v4.5h2.75c.97 0 1.75-.78 1.75-1.75V17H17z"/></svg>