<svg width="28" height="28" viewBox="0 0 28 28" xmlns="http://www.w3.org/2000/svg"><path d="M3 6.75A3.75 3.75 0 0 1 6.75 3h14.5A3.75 3.75 0 0 1 25 6.75v14.5A3.75 3.75 0 0 1 21.25 25H6.75A3.75 3.75 0 0 1 3 21.25V6.75ZM6.75 4.5c-1.24 0-2.25 1-2.25 2.25V13h19V6.75c0-1.24-1-2.25-2.25-2.25H6.75ZM4.5 17.17l2.14-2.67H4.5v2.67Zm1.26.83h4.53l1.1-3.5H8.56L5.76 18ZM4.5 19.5v1.75c0 1.24 1 2.25 2.25 2.25h1.82l1.26-4H4.5Zm6.9 0-1.25 4h8.2l-1.25-4h-5.7Zm7.28 0 1.25 4h1.32c1.24 0 2.25-1 2.25-2.25V19.5h-4.82Zm3.56-1.5-2.8-3.5H17.1l1.1 3.5h4.03Zm-5.6 0-1.1-3.5h-2.58l-1.1 3.5h4.77Zm6.86-.83V14.5h-2.14l2.14 2.67Z"/></svg>