<svg width="32" height="32" viewBox="0 0 32 32" xmlns="http://www.w3.org/2000/svg"><path d="M3 7.5A4.5 4.5 0 0 1 7.5 3h17A4.5 4.5 0 0 1 29 7.5v17a4.5 4.5 0 0 1-4.5 4.5h-17A4.5 4.5 0 0 1 3 24.5v-17ZM7.5 5A2.5 2.5 0 0 0 5 7.5V15h22V7.5A2.5 2.5 0 0 0 24.5 5h-17ZM5 19.85 7.5 17H5v2.85ZM6.65 21h4.5l1.24-4h-2.23l-3.51 4ZM5 23v1.5A2.5 2.5 0 0 0 7.5 27h1.77l1.25-4H5Zm7.61 0-1.25 4h9.28l-1.25-4H12.6Zm8.87 0 1.25 4h1.77a2.5 2.5 0 0 0 2.5-2.5V23h-5.52Zm3.87-2-3.51-4H19.6l1.25 4h4.5Zm-6.59 0-1.25-4H14.5l-1.25 4h5.52ZM27 19.85V17h-2.5l2.5 2.85Z"/></svg>