<svg width="48" height="48" viewBox="0 0 48 48" xmlns="http://www.w3.org/2000/svg"><path d="M6 12.25C6 8.8 8.8 6 12.25 6h23.5C39.2 6 42 8.8 42 12.25v23.5C42 39.2 39.2 42 35.75 42h-23.5A6.25 6.25 0 0 1 6 35.75v-23.5Zm6.25-3.75a3.75 3.75 0 0 0-3.75 3.75V23h31V12.25a3.75 3.75 0 0 0-3.75-3.75h-23.5ZM8.5 29.95l3.1-4.45H8.5v4.45ZM10.81 31h6.5l1.73-5.5h-4.4L10.82 31ZM8.5 33.5v2.25a3.75 3.75 0 0 0 3.75 3.75h2.4l1.89-6H8.5Zm10.66 0-1.88 6h13.44l-1.88-6h-9.68Zm12.3 0 1.88 6h2.41a3.75 3.75 0 0 0 3.75-3.75V33.5h-8.04ZM37.2 31l-3.84-5.5h-4.39l1.72 5.5h6.5Zm-9.13 0-1.72-5.5h-4.68L19.94 31h8.12Zm11.44-1.05V25.5h-3.1l3.1 4.45Z"/></svg>