<svg width="24" height="24" viewBox="0 0 24 24" xmlns="http://www.w3.org/2000/svg"><path d="M1.75 4.5a.75.75 0 0 0-.75.75v6c0 1.24 1 2.25 2.25 2.25h5c1.24 0 2.25-1 2.25-2.25v-6a.75.75 0 0 0-.75-.75H9.5v-1a2.5 2.5 0 0 0-3.75-2.17A2.5 2.5 0 0 0 2 3.5v1h-.25ZM7 4.5v-1c0-.35-.07-.68-.2-.98A1 1 0 0 1 8 3.5v1H7Zm-1.5-1v1h-2v-1a1 1 0 0 1 2 0ZM2 17.25v-3c.38.16.8.25 1.25.25h5c1.8 0 3.25-1.46 3.25-3.25v-6c0-.7-.4-1.3-1-1.58V3.5c0-.17-.01-.34-.04-.5h3.79c1.24 0 2.25 1 2.25 2.25V6h1.55c.87 0 1.66.5 2.03 1.29l1.7 3.58c.15.3.22.63.22.97v5.41c0 1.24-1 2.25-2.25 2.25h-1.8a3 3 0 0 1-5.9 0h-2.1a3 3 0 0 1-5.91-.01A2.25 2.25 0 0 1 2 17.25Zm18.5-1.75h-1.25a.75.75 0 1 0 0 1.5h1.25v-1.5Zm-.32-4.5-1.45-3.07a.75.75 0 0 0-.68-.43H16.5V11h3.68ZM7 20.5a1.5 1.5 0 1 0 0-3 1.5 1.5 0 0 0 0 3Zm9.5-1.5a1.5 1.5 0 1 0-3 0 1.5 1.5 0 0 0 3 0ZM3.5 3.5a1 1 0 0 1 .08-.4Z"/></svg>