<svg width="16" height="16" viewBox="0 0 16 16" xmlns="http://www.w3.org/2000/svg"><path d="M7.95 1.37a1 1 0 0 1 1.42-.15l3.26 2.67a1 1 0 0 1 .25 1.24A3 3 0 0 0 12 5h-.3l.3-.34-1.72-1.4L8.86 5H7.57L9.5 2.62 8.74 2l-2.4 3H5.06l2.9-3.63ZM10.5 10a.5.5 0 0 0 0 1h1a.5.5 0 0 0 0-1h-1ZM3 5.5c0-.28.22-.5.5-.5h.56l.8-1H3.5C2.67 4 2 4.67 2 5.5v6A2.5 2.5 0 0 0 4.5 14H12a2 2 0 0 0 2-2V8a2 2 0 0 0-2-2H3.5a.5.5 0 0 1-.5-.5Zm0 6V6.91c.16.06.32.09.5.09H12a1 1 0 0 1 1 1v4a1 1 0 0 1-1 1H4.5A1.5 1.5 0 0 1 3 11.5Z"/></svg>