<svg width="16" height="16" viewBox="0 0 16 16" xmlns="http://www.w3.org/2000/svg"><path d="M2 5c0-.83.67-1.5 1.5-1.5h6c.83 0 1.5.67 1.5 1.5v1.02a5.57 5.57 0 011.8.13l1.2-.9V6.6c.36.18.7.4 1 .66v-2.5c0-.62-.7-.98-1.2-.6L12 5.5V5a2.5 2.5 0 00-2.5-2.5h-6A2.5 2.5 0 001 5v6a2.5 2.5 0 002.5 2.5h2.87a5.46 5.46 0 01-.28-1H3.5A1.5 1.5 0 012 11V5zm5 6.5a4.5 4.5 0 109 0 4.5 4.5 0 00-9 0zm1 0a3.5 3.5 0 015.6-2.8l-4.9 4.9a3.48 3.48 0 01-.7-2.1zm3.5 3.5c-.79 0-1.51-.26-2.1-.7l4.9-4.9a3.5 3.5 0 01-2.8 5.6z"/></svg>