<svg width="48" height="48" viewBox="0 0 48 48" xmlns="http://www.w3.org/2000/svg"><path d="M24 4a10 10 0 100 20 10 10 0 000-20zm-7.5 10a7.5 7.5 0 1115 0 7.5 7.5 0 01-15 0zm-4.25 14A4.25 4.25 0 008 32.25V33c0 3.76 1.94 6.57 4.92 8.38 2.73 1.66 6.33 2.5 10.21 2.6a8.35 8.35 0 01-.96-2.54c-3.17-.2-5.92-.96-7.95-2.2-2.36-1.43-3.72-3.5-3.72-6.24v-.75c0-.97.78-1.75 1.75-1.75h23.5c.7 0 1.3.4 1.58 1h2.6a4.25 4.25 0 00-4.18-3.5h-23.5zM24 39.75c0-3.45 2.8-6.25 6.25-6.25h1.5a1.25 1.25 0 110 2.5h-1.5a3.75 3.75 0 100 7.5h1.5a1.25 1.25 0 110 2.5h-1.5A6.25 6.25 0 0124 39.75zm22 0c0-3.45-2.8-6.25-6.25-6.25h-1.5a1.25 1.25 0 100 2.5h1.5a3.75 3.75 0 110 7.5h-1.5a1.25 1.25 0 100 2.5h1.5C43.2 46 46 43.2 46 39.75zm-17 0c0-.69.56-1.25 1.25-1.25h9.5a1.25 1.25 0 110 2.5h-9.5c-.69 0-1.25-.56-1.25-1.25z"/></svg>