<svg width="28" height="28" viewBox="0 0 28 28" xmlns="http://www.w3.org/2000/svg"><path d="M20 16a3 3 0 012.96 2.5H21.4a1.5 1.5 0 00-1.27-1H6c-.78 0-1.42.6-1.5 1.36v.85c0 2.68 3.39 4.79 8.5 4.79h.17c.14.54.38 1.04.7 1.48L13 26c-5.79 0-10-2.57-10-6.29V19a3 3 0 013-3h14zM13 2a6 6 0 110 12 6 6 0 010-12zm0 1.5a4.5 4.5 0 100 9 4.5 4.5 0 000-9zM17.75 21a2.25 2.25 0 000 4.5h.5a.75.75 0 010 1.5h-.5a3.75 3.75 0 110-7.5h.5a.75.75 0 010 1.5h-.5zM17 23.25c0-.41.34-.75.75-.75h5.5a.75.75 0 010 1.5h-5.5a.75.75 0 01-.75-.75zm6.25 2.25a2.25 2.25 0 000-4.5h-.5a.75.75 0 010-1.5h.5a3.75 3.75 0 110 7.5h-.5a.75.75 0 010-1.5h.5z"/></svg>