<svg width="32" height="32" viewBox="0 0 32 32" xmlns="http://www.w3.org/2000/svg"><path d="M22 9A7 7 0 118 9a7 7 0 0114 0zm-2 0a5 5 0 10-10 0 5 5 0 0010 0zM6.5 18A3.5 3.5 0 003 21.5v.5c0 2.4 1.52 4.42 3.68 5.8a15.67 15.67 0 008.84 2.2 6 6 0 01-1.18-2.01 13.4 13.4 0 01-6.58-1.88C5.94 24.95 5 23.47 5 22v-.5c0-.83.67-1.5 1.5-1.5H26c.23 0 .46.01.68.04A3.5 3.5 0 0023.5 18h-17zm15 4.5a1 1 0 00-1-1H20a4.5 4.5 0 100 9h.5a1 1 0 100-2H20a2.5 2.5 0 010-5h.5a1 1 0 001-1zm4-1a1 1 0 100 2h.5a2.5 2.5 0 010 5h-.5a1 1 0 100 2h.5a4.5 4.5 0 100-9h-.5zm-5 3.5a1 1 0 100 2h5a1 1 0 100-2h-5z"/></svg>