<svg width="16" height="16" viewBox="0 0 16 16" xmlns="http://www.w3.org/2000/svg"><path d="M5.98 13.92C3.46 13.54 2 11.75 2 10v-.5C2 8.67 2.67 8 3.5 8h5c-.95 0-1.82.38-2.45 1H3.5a.5.5 0 00-.5.5v.5c0 1.06.78 2.19 2.21 2.7.17.46.43.88.77 1.22zM7 1.5A2.75 2.75 0 117 7a2.75 2.75 0 010-5.5zm0 1A1.75 1.75 0 107 6a1.75 1.75 0 000-3.5zM8.5 9a2.5 2.5 0 000 5H9a.5.5 0 000-1h-.5a1.5 1.5 0 010-3H9a.5.5 0 000-1h-.5zM12 9a.5.5 0 000 1h.5a1.5 1.5 0 010 3H12a.5.5 0 000 1h.5a2.5 2.5 0 000-5H12zm-4 2.5c0-.28.22-.5.5-.5h4a.5.5 0 010 1h-4a.5.5 0 01-.5-.5z"/></svg>