<svg width="24" height="24" viewBox="0 0 24 24" xmlns="http://www.w3.org/2000/svg"><path d="M16.75 14c.78 0 1.47.4 1.88 1h-2.88a4.75 4.75 0 00-4.19 6.99L11 22c-3.42 0-5.94-1.07-7.49-3.24a2.75 2.75 0 01-.5-1.6v-.91C3 15 4 14 5.24 14h11.5zM11 2a5 5 0 110 10 5 5 0 010-10zm12 17.75A3.75 3.75 0 0019.25 16h-.1a.75.75 0 00.1 1.5h.15a2.25 2.25 0 01-.15 4.5l-.1.01a.75.75 0 00.1 1.5v-.01h.2A3.75 3.75 0 0023 19.74zm-6.5-3a.75.75 0 00-.75-.75h-.2a3.75 3.75 0 00.2 7.5h.1a.75.75 0 00-.1-1.5h-.15a2.25 2.25 0 01.15-4.5h.1a.75.75 0 00.65-.75zm3.5 3a.75.75 0 00-.75-.75h-3.6a.75.75 0 00.1 1.5h3.6a.75.75 0 00.65-.75z"/></svg>