<svg width="20" height="20" viewBox="0 0 20 20" xmlns="http://www.w3.org/2000/svg"><path d="M9 2a4 4 0 100 8 4 4 0 000-8zM6 6a3 3 0 116 0 3 3 0 01-6 0zm-2 5a2 2 0 00-2 2c0 1.7.83 2.97 2.13 3.8a9.14 9.14 0 005.2 1.2 3.48 3.48 0 01-.3-1H9a8.16 8.16 0 01-4.33-1.05A3.36 3.36 0 013 13a1 1 0 011-1h10a1 1 0 011 1h1a2 2 0 00-2-2H4zm8.5 3a2.5 2.5 0 000 5h.5a.5.5 0 000-1h-.5a1.5 1.5 0 010-3h.5a.5.5 0 000-1h-.5zm3.5 0a.5.5 0 000 1h.5a1.5 1.5 0 010 3H16a.5.5 0 000 1h.5a2.5 2.5 0 000-5H16zm-4 2.5c0-.28.22-.5.5-.5h4a.5.5 0 010 1h-4a.5.5 0 01-.5-.5z"/></svg>