<svg width="24" height="24" viewBox="0 0 24 24" xmlns="http://www.w3.org/2000/svg"><path d="M16.75 14c.78 0 1.47.4 1.88 1h-2.88c-.76 0-1.48.18-2.12.5H5.25a.75.75 0 00-.75.75v.58c0 .53.2 1.05.54 1.46C6.3 19.75 8.26 20.5 11 20.5h.06c.09.53.26 1.03.5 1.49L11 22c-3.15 0-5.53-.9-7.1-2.74a3.75 3.75 0 01-.9-2.43v-.58C3 15 4.01 14 5.25 14h11.5zM11 2a5 5 0 110 10 5 5 0 010-10zm0 1.5a3.5 3.5 0 100 7 3.5 3.5 0 000-7zm12 16.25A3.75 3.75 0 0019.25 16h-.1a.75.75 0 00.1 1.5h.15a2.25 2.25 0 01-.15 4.5l-.1.01a.75.75 0 00.1 1.5v-.01h.2A3.75 3.75 0 0023 19.74zm-6.5-3a.75.75 0 00-.75-.75h-.2a3.75 3.75 0 00.2 7.5h.1a.75.75 0 00-.1-1.5h-.15a2.25 2.25 0 01.15-4.5h.1a.75.75 0 00.65-.75zm3.5 3a.75.75 0 00-.75-.75h-3.6a.75.75 0 00.1 1.5h3.6a.75.75 0 00.65-.75z"/></svg>