<svg width="48" height="48" viewBox="0 0 48 48" xmlns="http://www.w3.org/2000/svg"><path d="M24 4a10 10 0 1 0 0 20 10 10 0 0 0 0-20ZM12.25 28A4.25 4.25 0 0 0 8 32.25V33c0 3.76 1.94 6.57 4.92 8.38 2.73 1.66 6.33 2.5 10.21 2.6A8.4 8.4 0 0 1 22 39.76a8.13 8.13 0 0 1 8-8.25h9.93a4.25 4.25 0 0 0-4.18-3.5h-23.5ZM24 39.75c0-3.45 2.8-6.25 6.25-6.25h1.5a1.25 1.25 0 1 1 0 2.5h-1.5a3.75 3.75 0 1 0 0 7.5h1.5a1.25 1.25 0 1 1 0 2.5h-1.5A6.25 6.25 0 0 1 24 39.75Zm22 0c0-3.45-2.8-6.25-6.25-6.25h-1.5a1.25 1.25 0 1 0 0 2.5h1.5a3.75 3.75 0 1 1 0 7.5h-1.5a1.25 1.25 0 1 0 0 2.5h1.5C43.2 46 46 43.2 46 39.75Zm-17 0c0-.69.56-1.25 1.25-1.25h9.5a1.25 1.25 0 1 1 0 2.5h-9.5c-.69 0-1.25-.56-1.25-1.25Z"/></svg>