<svg width="20" height="20" viewBox="0 0 20 20" xmlns="http://www.w3.org/2000/svg"><path d="M9 2a4 4 0 1 0 0 8 4 4 0 0 0 0-8ZM6 6a3 3 0 1 1 6 0 3 3 0 0 1-6 0Zm-2 5a2 2 0 0 0-2 2c0 1.7.83 2.97 2.13 3.8a9.14 9.14 0 0 0 5.2 1.2 3.48 3.48 0 0 1-.3-1H9a8.16 8.16 0 0 1-4.33-1.05A3.36 3.36 0 0 1 3 13a1 1 0 0 1 1-1h10a1 1 0 0 1 1 1h1a2 2 0 0 0-2-2H4Zm8.5 3a2.5 2.5 0 0 0 0 5h.5a.5.5 0 0 0 0-1h-.5a1.5 1.5 0 0 1 0-3h.5a.5.5 0 0 0 0-1h-.5Zm3.5 0a.5.5 0 0 0 0 1h.5a1.5 1.5 0 0 1 0 3H16a.5.5 0 0 0 0 1h.5a2.5 2.5 0 0 0 0-5H16Zm-4 2.5c0-.28.22-.5.5-.5h4a.5.5 0 0 1 0 1h-4a.5.5 0 0 1-.5-.5Z"/></svg>