<svg width="20" height="20" viewBox="0 0 20 20" xmlns="http://www.w3.org/2000/svg"><path d="M10 3c-1.53 0-2.8.4-3.82 1H10a6.5 6.5 0 0 1 5.3 2.62 8.73 8.73 0 0 1 1.38 2.62c.05.14.06.22.07.25v.01a6.5 6.5 0 0 1-.32.94c-.24.57-.6 1.26-1.14 1.94A6.5 6.5 0 0 1 10 15H6.18c1.03.6 2.29 1 3.82 1a7.44 7.44 0 0 0 6.08-3 9.74 9.74 0 0 0 1.56-2.96c.06-.2.11-.4.11-.54s-.05-.35-.1-.54A9.73 9.73 0 0 0 16.08 6 7.44 7.44 0 0 0 10 3Zm0 3H3.92c.27-.34.57-.68.92-1H10v1Zm0 7a3.5 3.5 0 1 0 0-7v1H3.24c-.21.35-.38.7-.52 1H8a2.5 2.5 0 1 1 0 3H2.72c.14.3.3.65.52 1H10v1Zm0 0H3.92c.27.34.57.68.92 1H10v-1ZM7.55 9h-5.2c-.06.18-.1.37-.1.5s.04.32.1.5h5.2a2.51 2.51 0 0 1 0-1Z"/></svg>