<svg width="20" height="20" viewBox="0 0 20 20" xmlns="http://www.w3.org/2000/svg"><path d="M8.44 2.15a8.03 8.03 0 0 1 3.12 0 .75.75 0 0 1-.3 1.47 6.54 6.54 0 0 0-2.53 0 .75.75 0 0 1-.29-1.47Zm4.96 1.4a.75.75 0 0 1 1.05-.2c.57.38 1.1.84 1.55 1.36V2.75a.75.75 0 0 1 1.5 0v4c0 .41-.34.75-.75.75h-4a.75.75 0 0 1 0-1.5h2.37a6.54 6.54 0 0 0-1.5-1.4.75.75 0 0 1-.21-1.05ZM6.4 4.6a.75.75 0 0 0-.84-1.24 8.04 8.04 0 0 0-2.2 2.2.75.75 0 0 0 1.24.84 6.54 6.54 0 0 1 1.8-1.8ZM3.03 7.85c.41.08.67.47.6.88a6.54 6.54 0 0 0 0 2.54.75.75 0 0 1-1.48.29 8.04 8.04 0 0 1 0-3.12c.08-.4.48-.67.88-.6ZM18 10v-.25a.75.75 0 0 0-1.5 0V10c0 .44-.04.86-.12 1.27a.75.75 0 1 0 1.47.29c.1-.5.15-1.03.15-1.56ZM3.55 13.4a.75.75 0 0 1 1.04.21c.48.71 1.09 1.32 1.8 1.8a.75.75 0 0 1-.84 1.24 8.04 8.04 0 0 1-2.2-2.2.75.75 0 0 1 .2-1.04Zm13.1 1.05a.75.75 0 0 0-1.24-.84 6.54 6.54 0 0 1-1.8 1.8.75.75 0 0 0 .84 1.24 8.04 8.04 0 0 0 2.2-2.2Zm-8.8 2.52c.08-.41.47-.67.88-.6a6.54 6.54 0 0 0 2.54 0 .75.75 0 1 1 .29 1.48 8.03 8.03 0 0 1-3.12 0 .75.75 0 0 1-.6-.88Z"/></svg>