<svg width="20" height="20" viewBox="0 0 20 20" xmlns="http://www.w3.org/2000/svg"><path d="M5 9.5c0-.28.22-.5.5-.5h9a.5.5 0 010 1h-9a.5.5 0 01-.5-.5zm0 2c0-.28.22-.5.5-.5h5a.5.5 0 010 1h-5a.5.5 0 01-.5-.5zm7 0c0-.28.22-.5.5-.5h2a.5.5 0 010 1h-2a.5.5 0 01-.5-.5zm-3 2c0-.28.22-.5.5-.5h5a.5.5 0 010 1h-5a.5.5 0 01-.5-.5zm-4 0c0-.28.22-.5.5-.5h2a.5.5 0 010 1h-2a.5.5 0 01-.5-.5zM3 6a3 3 0 013-3h8a3 3 0 013 3v8a3 3 0 01-3 3H6a3 3 0 01-3-3V6zm3-2a2 2 0 00-2 2h12a2 2 0 00-2-2H6zm10 3H4v7c0 1.1.9 2 2 2h8a2 2 0 002-2V7z"/></svg>