<svg width="20" height="20" viewBox="0 0 20 20" xmlns="http://www.w3.org/2000/svg"><path d="M13.85 7.85a.5.5 0 00-.7-.7L8.5 11.79l-1.65-1.64a.5.5 0 00-.7.7l2 2c.2.2.5.2.7 0l5-5zM5.68 3A2.68 2.68 0 003 5.68v8.64C3 15.8 4.2 17 5.68 17h8.64c.64 0 1.22-.22 1.68-.6v-.99a1.5 1.5 0 01-.49.09c-.3.3-.72.5-1.2.5H5.69C4.75 16 4 15.25 4 14.32V5.68C4 4.75 4.75 4 5.68 4h8.64c.93 0 1.68.75 1.68 1.68v6.07l.6-.45c.12-.1.26-.16.4-.21v-5.4C17 4.2 15.8 3 14.32 3H5.68zM18 12.5a.5.5 0 00-.8-.4l-2 1.5a.5.5 0 00.6.8l1.2-.9v4a.5.5 0 101 0v-5z"/></svg>