<svg width="24" height="24" viewBox="0 0 24 24" xmlns="http://www.w3.org/2000/svg"><path d="M6.25 3A3.25 3.25 0 003 6.25v11.5C3 19.55 4.46 21 6.25 21h11.5c.64 0 1.24-.19 1.75-.51v-1.66c-.16.08-.33.13-.5.15-.33.32-.76.52-1.25.52H6.25c-.97 0-1.75-.78-1.75-1.75V6.25c0-.97.78-1.75 1.75-1.75h11.5c.97 0 1.75.78 1.75 1.75v8.16l.66-.53a1.75 1.75 0 01.84-.36V6.25C21 4.45 19.54 3 17.75 3H6.25zm11.03 6.28a.75.75 0 10-1.06-1.06L10 14.44l-2.22-2.22a.75.75 0 00-1.06 1.06l2.75 2.75c.29.29.76.29 1.06 0l6.75-6.75zM21 14.54a.75.75 0 00-.22.12l-2.5 2a.75.75 0 10.94 1.18l1.28-1.03v4.44a.75.75 0 001.5 0v-6a.75.75 0 00-1-.7z"/></svg>