<svg width="20" height="20" viewBox="0 0 20 20" xmlns="http://www.w3.org/2000/svg"><path d="M5.5 3A2.5 2.5 0 0 0 3 5.5v9A2.5 2.5 0 0 0 5.5 17h4.1c-.16-.32-.3-.65-.4-1H5.5A1.5 1.5 0 0 1 4 14.5v-9C4 4.67 4.67 4 5.5 4h9c.83 0 1.5.67 1.5 1.5v3.7c.35.1.68.24 1 .4V5.5A2.5 2.5 0 0 0 14.5 3h-9Zm3.7 10c.1-.35.24-.68.4-1H5.5a.5.5 0 0 0 0 1h3.7Zm-.7 2a.5.5 0 0 0 0-1h-3a.5.5 0 0 0 0 1h3ZM8 5c.2 0 .38.12.46.3l2 4.5a.5.5 0 1 1-.92.4L9.01 9H6.99l-.53 1.2a.5.5 0 0 1-.92-.4l2-4.5A.5.5 0 0 1 8 5Zm.56 3L8 6.73 7.44 8h1.12Zm4.94-2.5a.5.5 0 0 0-1 0v1h-1a.5.5 0 0 0 0 1h1v1a.5.5 0 0 0 1 0v-1h1a.5.5 0 0 0 0-1h-1v-1Zm5.5 9a4.5 4.5 0 1 1-9 0 4.5 4.5 0 0 1 9 0Zm-4-2a.5.5 0 0 0-1 0V14h-1.5a.5.5 0 0 0 0 1H14v1.5a.5.5 0 0 0 1 0V15h1.5a.5.5 0 0 0 0-1H15v-1.5Z"/></svg>