<svg width="24" height="24" viewBox="0 0 24 24" xmlns="http://www.w3.org/2000/svg"><path d="M3 5.75A2.75 2.75 0 0 1 5.75 3h12.5A2.75 2.75 0 0 1 21 5.75v6.27c-.46-.3-.97-.53-1.5-.7V5.74c0-.69-.56-1.25-1.25-1.25H5.75c-.69 0-1.25.56-1.25 1.25v12.5c0 .69.56 1.25 1.25 1.25h5.56c.18.53.42 1.04.71 1.5H5.75A2.75 2.75 0 0 1 3 18.25V5.75Zm3.75 7.75h5.63a6.5 6.5 0 0 0-.88 1.5H6.75a.75.75 0 0 1 0-1.5Zm3.5 5h-3.5a.75.75 0 0 1 0-1.5h3.5a.75.75 0 0 1 0 1.5ZM10 5c.3 0 .58.18.7.46l2.24 5.5a.75.75 0 0 1-1.39.57l-.42-1.03H8.87l-.43 1.03a.75.75 0 0 1-1.38-.56l2.25-5.5A.75.75 0 0 1 10 5Zm-.52 4h1.04L10 7.73 9.48 9Zm6.27-4c.41 0 .75.33.75.75V7h1.25a.75.75 0 0 1 0 1.5H16.5v1.25a.75.75 0 0 1-1.5 0V8.5h-1.25a.75.75 0 0 1 0-1.5H15V5.75c0-.42.34-.75.75-.75ZM23 17.5a5.5 5.5 0 1 0-11 0 5.5 5.5 0 0 0 11 0Zm-5 .5v2.5a.5.5 0 1 1-1 0V18h-2.5a.5.5 0 1 1 0-1H17v-2.5a.5.5 0 1 1 1 0V17h2.5a.5.5 0 1 1 0 1H18Z"/></svg>