<svg width="24" height="24" viewBox="0 0 24 24" xmlns="http://www.w3.org/2000/svg"><path d="M3.44 9.96a4.93 4.93 0 0 0 6.23 7.57l4.26 4.25a.77.77 0 0 0 1.17-1l-.08-.1-4.21-4.2a4.93 4.93 0 0 0-7.37-6.52ZM12.03 2a10 10 0 0 0-9.76 7.76 5.83 5.83 0 0 1 2.24-1.73 8.52 8.52 0 0 1 4.4-3.94l-.11.17c-.54.9-.97 2.01-1.28 3.28.5.05 1 .17 1.47.34.63-2.63 1.82-4.38 3.04-4.38h.11c1.27.12 2.49 2.12 3.06 5h-5a5.95 5.95 0 0 1 1.55 1.5h3.67a18.97 18.97 0 0 1-.13 5h-2.65c-.08.29-.18.57-.3.84l-.13.27-.12.23.16.16h2.71c-.2.75-.45 1.42-.73 1.98l1.1 1.11c.5-.86.9-1.9 1.19-3.09h2.72a8.54 8.54 0 0 1-3.73 3.26l.22.22.13.14c.22.3.34.63.37.96A10 10 0 0 0 12.03 2ZM9.3 11.05a3.38 3.38 0 1 1-4.78 4.78 3.38 3.38 0 0 1 4.78-4.78ZM16.93 10h3.36v.03A8.52 8.52 0 0 1 20 15H16.8a20.31 20.31 0 0 0 .12-5Zm-1.79-5.91h.03c2.04.82 3.7 2.41 4.6 4.4h-3.04a12.36 12.36 0 0 0-1.59-4.4Z"/></svg>