<svg width="16" height="16" viewBox="0 0 16 16" xmlns="http://www.w3.org/2000/svg"><path d="m5.9 5.9-.06.07a.5.5 0 0 0 .06.63L7.3 8 5.9 9.4l-.06.07a.5.5 0 0 0 .06.63l.07.06c.2.14.46.12.63-.06L8 8.7l1.4 1.4.07.06c.2.14.46.12.63-.06l.06-.07a.5.5 0 0 0-.06-.63L8.7 8l1.4-1.4.06-.07a.5.5 0 0 0-.06-.63l-.07-.06a.5.5 0 0 0-.63.06L8 7.3 6.6 5.9l-.07-.06a.5.5 0 0 0-.63.06ZM8 2a6 6 0 0 0-5.27 8.87l-.71 2.5a.5.5 0 0 0 .64.6L5 13.2A6 6 0 1 0 8 2ZM3 8a5 5 0 1 1 2.33 4.23.5.5 0 0 0-.43-.06l-1.66.56.51-1.79a.5.5 0 0 0-.05-.39A4.97 4.97 0 0 1 3 8Z"/></svg>