<svg width="20" height="20" viewBox="0 0 20 20" xmlns="http://www.w3.org/2000/svg"><path d="M7.85 7.15a.5.5 0 1 0-.7.7L9.29 10l-2.14 2.15a.5.5 0 0 0 .7.7L10 10.71l2.15 2.14a.5.5 0 0 0 .7-.7L10.71 10l2.14-2.15a.5.5 0 0 0-.7-.7L10 9.29 7.85 7.15ZM18 10a8 8 0 1 0-16 0v.35l.03.38c.1 1.01.38 1.99.83 2.89l.06.12-.9 3.64-.02.08v.08c.03.3.31.52.62.45l3.65-.91.12.06A8 8 0 0 0 18 10ZM3 10a7 7 0 1 1 3.58 6.1l-.09-.03-.1-.02a.5.5 0 0 0-.18 0l-3.02.76.75-3.02.02-.1a.5.5 0 0 0-.07-.27A6.97 6.97 0 0 1 3 10Z"/></svg>