<svg width="20" height="20" viewBox="0 0 20 20" xmlns="http://www.w3.org/2000/svg"><path d="M4 4.7 2.15 2.86a.5.5 0 1 1 .7-.7l15 15a.5.5 0 0 1-.7.7l-1.16-1.16A1.5 1.5 0 0 1 14.5 18h-9A1.5 1.5 0 0 1 4 16.5V4.7Zm9.3 9.3H8.5a.5.5 0 0 0 0 1h5a.5.5 0 0 0 .47-.32l-.68-.68Zm-1-1-1-1H8.5a.5.5 0 0 0 0 1h3.8Zm-2-2-1-1h-.8a.5.5 0 0 0 0 1h1.8Zm3.2 0h-.38L16 13.88V8h-4.5A1.5 1.5 0 0 1 10 6.5V2H5.5c-.38 0-.73.14-1 .38L12.12 10h1.38a.5.5 0 0 1 0 1ZM6 10.5a.5.5 0 1 0 1 0 .5.5 0 0 0-1 0Zm0 2a.5.5 0 1 0 1 0 .5.5 0 0 0-1 0Zm0 2a.5.5 0 1 0 1 0 .5.5 0 0 0-1 0Zm5-8V2.25L15.75 7H11.5a.5.5 0 0 1-.5-.5Z"/></svg>