<svg width="24" height="24" viewBox="0 0 24 24" xmlns="http://www.w3.org/2000/svg"><path d="M7 12.25a.75.75 0 1 1 1.5 0 .75.75 0 0 1-1.5 0Zm.75 2.25a.75.75 0 1 0 0 1.5.75.75 0 0 0 0-1.5ZM7 18.25a.75.75 0 1 1 1.5 0 .75.75 0 0 1-1.5 0ZM4 5.06 2.22 3.28a.75.75 0 1 1 1.06-1.06l18.5 18.5a.75.75 0 0 1-1.06 1.06l-.92-.92A2 2 0 0 1 18 22H6a2 2 0 0 1-2-2V5.06Zm14.5 14.5-1.53-1.53a.75.75 0 0 1-.72.97h-5.5a.75.75 0 0 1 0-1.5h5.5c.08 0 .15.01.22.03L14.94 16h-4.19a.75.75 0 0 1 0-1.5h2.69l-1.5-1.5h-1.19a.75.75 0 0 1-.26-1.45L5.5 6.56V20c0 .27.22.5.5.5h12a.5.5 0 0 0 .5-.5v-.44ZM12 8c0 .5.18.94.47 1.3l.24.23A2 2 0 0 0 14 10h4.5v5.32l1.5 1.5v-7a2 2 0 0 0-.59-1.4L13.6 2.58a.5.5 0 0 0-.05-.04 2.07 2.07 0 0 0-.34-.25l-.05-.03-.05-.03-.16-.09c-.2-.08-.41-.12-.63-.14h-.06a.6.6 0 0 0-.08-.01H6a2 2 0 0 0-.7.12L6.69 3.5H12V8Zm1.5-3.38 3.88 3.88H14a.5.5 0 0 1-.5-.5V4.62Zm2.75 6.88h-1.57l1.5 1.5h.07a.75.75 0 0 0 0-1.5Z"/></svg>