<svg width="16" height="16" viewBox="0 0 16 16" xmlns="http://www.w3.org/2000/svg"><path d="M11 10.98v2.27c0 .41-.34.75-.75.75h-4.5a.75.75 0 0 1-.75-.75V2.75c0-.41.34-.75.75-.75h.5c.32-.38.68-.72 1.09-1H5.75C4.78 1 4 1.78 4 2.75v10.5c0 .97.78 1.75 1.75 1.75h4.5c.97 0 1.75-.78 1.75-1.75v-2.46c-.32.1-.66.16-1 .19ZM6.5 12.5c0-.28.22-.5.5-.5h2a.5.5 0 0 1 0 1H7a.5.5 0 0 1-.5-.5Zm4-2.5a4.5 4.5 0 1 0 0-9 4.5 4.5 0 0 0 0 9Zm2.35-5.65-3 3a.5.5 0 0 1-.7 0l-1-1a.5.5 0 1 1 .7-.7l.65.64 2.65-2.64a.5.5 0 0 1 .7.7Z"/></svg>