<svg width="24" height="24" viewBox="0 0 24 24" xmlns="http://www.w3.org/2000/svg"><path d="M6.25 3A3.25 3.25 0 003 6.25v11.5C3 19.55 4.46 21 6.25 21h10c.04-.58.19-1.08.4-1.5H6.24c-.97 0-1.75-.78-1.75-1.75V6.25c0-.97.78-1.75 1.75-1.75h11.5c.97 0 1.75.78 1.75 1.75v7.25a3.5 3.5 0 011.5.35v-7.6C21 4.45 19.54 3 17.75 3H6.25zm11.56 16.5a2.86 2.86 0 00-.56 1.75c0 .41.34.75.75.75h3a.75.75 0 000-1.5h-2.06a3.45 3.45 0 011.09-1l.04-.03c.22-.16.47-.34.72-.56.5-.46.96-1.08.96-2 0-.63-.17-1.18-.5-1.6a2.05 2.05 0 00-1.27-.76 2.82 2.82 0 00-2.54.86.75.75 0 101.12 1 1.32 1.32 0 011.13-.4c.17.04.3.12.38.22.09.11.18.31.18.68 0 .45-.23.72-.77 1.13-.13.1-.26.2-.42.3-.4.3-.88.65-1.25 1.16zm-.53-10.22a.75.75 0 10-1.06-1.06L10 14.44l-2.22-2.22a.75.75 0 00-1.06 1.06l2.75 2.75c.29.29.76.29 1.06 0l6.75-6.75z"/></svg>