<svg width="24" height="24" viewBox="0 0 24 24" xmlns="http://www.w3.org/2000/svg"><path d="M6.25 3A3.25 3.25 0 003 6.25v11.5C3 19.55 4.46 21 6.25 21h10c.11-1.86 1.38-2.85 2.1-3.38a1.75 1.75 0 01-1.65-2.88 3.8 3.8 0 013.47-1.18c.28.06.56.15.83.29v-7.6C21 4.45 19.54 3 17.75 3H6.25zm12.81 15.35c-.7.5-1.7 1.23-1.8 2.65l-.01.25c0 .41.34.75.75.75h3a.75.75 0 000-1.5h-2.06a3.45 3.45 0 011.09-1l.04-.03c.22-.16.47-.34.72-.56.5-.46.96-1.08.96-2 0-.63-.17-1.18-.5-1.6a2.05 2.05 0 00-1.27-.76 2.8 2.8 0 00-2.54.86.75.75 0 101.12 1c.27-.3.76-.47 1.13-.4.17.04.3.12.38.22.09.11.18.31.18.68 0 .55-.35.83-1.19 1.44zm-1.78-9.07l-6.75 6.75c-.3.29-.77.29-1.06 0l-2.75-2.75a.75.75 0 011.06-1.06L10 14.44l6.22-6.22a.75.75 0 111.06 1.06z"/></svg>