<svg width="20" height="20" viewBox="0 0 20 20" xmlns="http://www.w3.org/2000/svg"><path d="M6.78 2.83c.26-.51.78-.83 1.34-.83h3.77c.57 0 1.09.32 1.34.83L13.81 4h1.7A2.5 2.5 0 0 1 18 6.5v3.76a5.48 5.48 0 0 0-4.13-1.23 4 4 0 1 0-4.85 4.85A5.56 5.56 0 0 0 9.6 17H4.5A2.5 2.5 0 0 1 2 14.5v-8A2.5 2.5 0 0 1 4.5 4h1.7l.58-1.17ZM10 7a3 3 0 0 1 2.9 2.24 5.51 5.51 0 0 0-3.66 3.66A3 3 0 0 1 10 7Zm9 7.5a4.5 4.5 0 1 1-9 0 4.5 4.5 0 0 1 9 0Zm-4-2a.5.5 0 0 0-1 0V14h-1.5a.5.5 0 1 0 0 1H14v1.5a.5.5 0 1 0 1 0V15h1.5a.5.5 0 0 0 0-1H15v-1.5Z"/></svg>