<svg width="20" height="20" viewBox="0 0 20 20" xmlns="http://www.w3.org/2000/svg"><path d="M14 3a3 3 0 0 1 3 3v1.5a.5.5 0 0 1-1 0V6a2 2 0 0 0-2-2h-1.5a.5.5 0 0 1 0-1H14ZM6 3a3 3 0 0 0-3 3v1.5a.5.5 0 0 0 1 0V6c0-1.1.9-2 2-2h1.5a.5.5 0 0 0 0-1H6Zm8 14a3 3 0 0 0 3-3v-1.5a.5.5 0 0 0-1 0V14a2 2 0 0 1-2 2h-1.5a.5.5 0 0 0 0 1H14ZM3 14a3 3 0 0 0 3 3h1.5a.5.5 0 0 0 0-1H6a2 2 0 0 1-2-2v-1.5a.5.5 0 0 0-1 0V14Zm7-2a2 2 0 1 0 0-4 2 2 0 0 0 0 4Zm0-1a1 1 0 1 1 0-2 1 1 0 0 1 0 2ZM6.5 7.25a.75.75 0 1 0 0-1.5.75.75 0 0 0 0 1.5Z"/></svg>