<svg width="16" height="16" viewBox="0 0 16 16" xmlns="http://www.w3.org/2000/svg"><path d="M11.5 2A2.5 2.5 0 0 1 14 4.5v1a.5.5 0 0 1-1 0v-1c0-.83-.67-1.5-1.5-1.5h-1a.5.5 0 0 1 0-1h1Zm-7 0A2.5 2.5 0 0 0 2 4.5v1a.5.5 0 0 0 1 0v-1C3 3.67 3.67 3 4.5 3h1a.5.5 0 0 0 0-1h-1Zm7 12a2.5 2.5 0 0 0 2.5-2.5v-1a.5.5 0 0 0-1 0v1c0 .83-.67 1.5-1.5 1.5h-1a.5.5 0 0 0 0 1h1ZM2 11.5A2.5 2.5 0 0 0 4.5 14h1a.5.5 0 0 0 0-1h-1A1.5 1.5 0 0 1 3 11.5v-1a.5.5 0 0 0-1 0v1ZM8 10a2 2 0 1 0 0-4 2 2 0 0 0 0 4Zm0-1a1 1 0 1 1 0-2 1 1 0 0 1 0 2ZM5 5.75a.75.75 0 1 0 0-1.5.75.75 0 0 0 0 1.5Z"/></svg>