<svg width="20" height="20" viewBox="0 0 20 20" xmlns="http://www.w3.org/2000/svg"><path d="M5.5 2C4.67 2 4 2.67 4 3.5v13c0 .83.67 1.5 1.5 1.5h4.76a5.5 5.5 0 0 1-.66-1H5.5a.5.5 0 0 1-.5-.5v-13c0-.28.22-.5.5-.5h7c.28 0 .5.22.5.5v5.7c.32-.08.66-.15 1-.18V3.5c0-.83-.67-1.5-1.5-1.5h-7ZM9 14.5c0-.17 0-.34.02-.5H7.5a.5.5 0 0 0 0 1h1.52a5.57 5.57 0 0 1-.02-.5Zm5.5-4.5a4.5 4.5 0 1 1 0 9 4.5 4.5 0 0 1 0-9Zm2.35 4.85a.5.5 0 0 0 .15-.35.5.5 0 0 0-.15-.35l-2-2a.5.5 0 0 0-.7.7L15.29 14H12.5a.5.5 0 0 0 0 1h2.8l-1.15 1.15a.5.5 0 0 0 .7.7l2-2Z"/></svg>