<svg width="20" height="20" viewBox="0 0 20 20" xmlns="http://www.w3.org/2000/svg"><path d="M13 1c.28 0 .5.22.5.5v1.51a3.8 3.8 0 0 1 2 .78l1.65-1.64a.5.5 0 0 1 .7.7L16.21 4.5c.46.6.72 1.3.78 2.01h1.51a.5.5 0 0 1 0 1h-1.56a3.8 3.8 0 0 1-1.06 2l-1.33 1.34 1.3 1.3a.5.5 0 0 1-.7.71l-1.31-1.3-2.3 2.29 1.31 1.3a.5.5 0 0 1-.7.71l-1.31-1.3-1.34 1.33a3.8 3.8 0 0 1-2 1.06v1.56a.5.5 0 0 1-1 0v-1.51a3.8 3.8 0 0 1-2-.78l-1.65 1.65a.5.5 0 0 1-.7-.71l1.64-1.64A3.8 3.8 0 0 1 3 13.5H1.5a.5.5 0 0 1 0-1h1.56a3.8 3.8 0 0 1 1.06-2l1.33-1.34-1.3-1.3a.5.5 0 1 1 .7-.71l1.31 1.3 2.3-2.29-1.31-1.3a.5.5 0 1 1 .7-.71l1.31 1.3 1.34-1.33a3.8 3.8 0 0 1 2-1.06V1.5c0-.28.22-.5.5-.5ZM6.75 14a.75.75 0 1 0 0-1.5.75.75 0 0 0 0 1.5ZM14 6.75a.75.75 0 1 0-1.5 0 .75.75 0 0 0 1.5 0Z"/></svg>