<svg width="20" height="20" viewBox="0 0 20 20" xmlns="http://www.w3.org/2000/svg"><path d="M13.5 1.5a.5.5 0 0 0-1 0v1.56a3.8 3.8 0 0 0-2 1.06L9.16 5.45l-1.3-1.3a.5.5 0 1 0-.71.7l1.3 1.31-2.29 2.3-1.3-1.31a.5.5 0 1 0-.71.7l1.3 1.31-1.33 1.34a3.8 3.8 0 0 0-1.06 2H1.5a.5.5 0 0 0 0 1h1.51c.06.71.32 1.41.78 2l-1.65 1.65a.5.5 0 1 0 .71.7l1.64-1.64c.6.46 1.3.72 2.01.78v1.51a.5.5 0 0 0 1 0v-1.56a3.8 3.8 0 0 0 2-1.06l1.34-1.33 1.3 1.3a.5.5 0 0 0 .71-.7l-1.3-1.31 2.29-2.3 1.3 1.31a.5.5 0 0 0 .71-.7l-1.3-1.31 1.33-1.34a3.8 3.8 0 0 0 1.06-2h1.56a.5.5 0 0 0 0-1h-1.51a3.8 3.8 0 0 0-.78-2l1.64-1.65a.5.5 0 0 0-.7-.7L15.5 3.79A3.8 3.8 0 0 0 13.5 3V1.5ZM4 13.24v-.1c.01-.7.29-1.4.82-1.94l6.38-6.38a2.8 2.8 0 0 1 3.98 3.98l-6.39 6.38A2.8 2.8 0 0 1 4 13.24Zm2.75.76a.75.75 0 1 0 0-1.5.75.75 0 0 0 0 1.5ZM14 6.75a.75.75 0 1 1-1.5 0 .75.75 0 0 1 1.5 0Z"/></svg>