<svg width="24" height="24" viewBox="0 0 24 24" xmlns="http://www.w3.org/2000/svg"><path d="M16.25 2.25a.75.75 0 0 0-1.5 0v1.82c-.85.16-1.67.57-2.33 1.23l-.78.78-1.36-1.36a.75.75 0 1 0-1.06 1.06l1.36 1.36-3.44 3.44-1.36-1.36a.75.75 0 0 0-1.06 1.06l1.36 1.36-.78.78a4.42 4.42 0 0 0-1.22 2.33H2.25a.75.75 0 0 0 0 1.5h1.8c.1.66.36 1.3.77 1.87l-1.6 1.6a.75.75 0 1 0 1.06 1.06l1.6-1.6c.57.4 1.2.66 1.87.77v1.8a.75.75 0 0 0 1.5 0v-1.82a4.42 4.42 0 0 0 2.33-1.23l.78-.78 1.36 1.36a.75.75 0 1 0 1.06-1.06l-1.36-1.36 3.44-3.44 1.36 1.36a.75.75 0 1 0 1.06-1.06l-1.36-1.36.78-.78a4.42 4.42 0 0 0 1.23-2.33h1.82a.75.75 0 0 0 0-1.5h-1.8c-.1-.66-.36-1.3-.76-1.88l1.59-1.59a.75.75 0 0 0-1.06-1.06l-1.6 1.6a4.42 4.42 0 0 0-1.87-.77v-1.8ZM6.36 13.48l7.12-7.12a2.94 2.94 0 0 1 4.16 4.16l-7.12 7.12a2.94 2.94 0 1 1-4.16-4.16ZM9.5 15.5a1 1 0 1 1-2 0 1 1 0 0 1 2 0Zm6-6a1 1 0 1 0 0-2 1 1 0 0 0 0 2Z"/></svg>