<svg width="28" height="28" viewBox="0 0 28 28" xmlns="http://www.w3.org/2000/svg"><path d="M19.25 2.25a.75.75 0 0 0-1.5 0v1.8c-1.12.17-2.2.69-3.07 1.55l-1.76 1.76-1.64-1.64a.75.75 0 1 0-1.06 1.06l1.64 1.64-3.44 3.44-1.64-1.64a.75.75 0 1 0-1.06 1.06l1.64 1.64-1.76 1.76a5.44 5.44 0 0 0-1.54 3.07H2.25a.75.75 0 0 0 0 1.5h1.8c.12.92.47 1.81 1.06 2.58l-1.89 1.89a.75.75 0 1 0 1.06 1.06l1.89-1.88c.77.58 1.66.94 2.58 1.06v1.79a.75.75 0 0 0 1.5 0v-1.8a5.44 5.44 0 0 0 3.07-1.55l1.76-1.76 1.64 1.64a.75.75 0 1 0 1.06-1.06l-1.64-1.64 3.44-3.44 1.64 1.64a.75.75 0 1 0 1.06-1.06l-1.64-1.64 1.76-1.76a5.43 5.43 0 0 0 1.55-3.07h1.8a.75.75 0 0 0 0-1.5h-1.8a5.43 5.43 0 0 0-1.05-2.59l1.88-1.88a.75.75 0 0 0-1.06-1.06L21.84 5.1a5.43 5.43 0 0 0-2.59-1.05v-1.8ZM6.66 15.75l9.08-9.09a3.96 3.96 0 1 1 5.6 5.6l-9.08 9.08a3.96 3.96 0 0 1-5.6-5.6Zm3.84 2.75a1 1 0 1 1-2 0 1 1 0 0 1 2 0Zm8-8a1 1 0 1 0 0-2 1 1 0 0 0 0 2Z"/></svg>