<svg width="28" height="28" viewBox="0 0 28 28" xmlns="http://www.w3.org/2000/svg"><path d="M2.75 3a.75.75 0 0 0 0 1.5h22.5a.75.75 0 0 0 0-1.5H2.75ZM5 8.75A2.75 2.75 0 0 1 7.75 6h2.5A2.75 2.75 0 0 1 13 8.75v13.5A2.75 2.75 0 0 1 10.25 25h-2.5A2.75 2.75 0 0 1 5 22.25V8.75ZM7.75 7.5c-.69 0-1.25.56-1.25 1.25v13.5c0 .69.56 1.25 1.25 1.25h2.5c.69 0 1.25-.56 1.25-1.25V8.75c0-.69-.56-1.25-1.25-1.25h-2.5ZM15 8.75A2.75 2.75 0 0 1 17.75 6h2.5A2.75 2.75 0 0 1 23 8.75v8a2.75 2.75 0 0 1-2.75 2.75h-2.5A2.75 2.75 0 0 1 15 16.75v-8Zm2.75-1.25c-.69 0-1.25.56-1.25 1.25v8c0 .69.56 1.25 1.25 1.25h2.5c.69 0 1.25-.56 1.25-1.25v-8c0-.69-.56-1.25-1.25-1.25h-2.5Z"/></svg>