<svg width="32" height="32" viewBox="0 0 32 32" xmlns="http://www.w3.org/2000/svg"><path d="M16 11a7 7 0 1 0 0 14 7 7 0 0 0 0-14Zm-5 7a5 5 0 0 1 9.99-.36c-.19.14-.4.28-.68.4-.69.3-1.83.48-3.8-.01-2.21-.55-3.7-.23-4.74.42-.26.16-.48.34-.68.51-.06-.3-.09-.63-.09-.96Zm.5-10a1.5 1.5 0 1 1-3 0 1.5 1.5 0 0 1 3 0ZM17 7a1 1 0 1 0 0 2h5a1 1 0 1 0 0-2h-5ZM7.5 3A4.5 4.5 0 0 0 3 7.5v17A4.5 4.5 0 0 0 7.5 29h17a4.5 4.5 0 0 0 4.5-4.5v-17A4.5 4.5 0 0 0 24.5 3h-17ZM5 7.5A2.5 2.5 0 0 1 7.5 5h17A2.5 2.5 0 0 1 27 7.5v17a2.5 2.5 0 0 1-2.5 2.5h-17A2.5 2.5 0 0 1 5 24.5v-17Z"/></svg>