<svg width="20" height="20" viewBox="0 0 20 20" xmlns="http://www.w3.org/2000/svg"><path d="M16.73 7.56c.4.4.78.87 1.11 1.35a.75.75 0 0 1-1.23.85 7.97 7.97 0 0 0-13.14 0 .75.75 0 1 1-1.23-.86 9.47 9.47 0 0 1 14.5-1.34Zm-2.14 1.9c.47.46.88 1.04 1.2 1.64a.75.75 0 1 1-1.34.69 4.94 4.94 0 0 0-8.82-.02.75.75 0 0 1-1.34-.67 6.44 6.44 0 0 1 10.3-1.64Zm-1.64 2.38c.37.36.67.8.87 1.28a.75.75 0 0 1-1.37.6 2.63 2.63 0 0 0-4.82-.01.75.75 0 1 1-1.38-.6 4.13 4.13 0 0 1 6.7-1.27Zm-2.03 2.04a1.24 1.24 0 1 1-1.76 1.76 1.24 1.24 0 0 1 1.76-1.76Z"/></svg>