<svg width="16" height="16" viewBox="0 0 16 16" xmlns="http://www.w3.org/2000/svg"><path d="M5.7.47a.75.75 0 0 0-1.4 0l-2 5a.75.75 0 0 0 1.4.56l.2-.53h2.2l.2.53a.75.75 0 0 0 1.4-.56l-2-5ZM5.5 4h-1L5 2.77 5.5 4Zm-.97 3.22a.75.75 0 0 0-1.06 1.06l1 1c.3.3.77.3 1.06 0l1-1a.75.75 0 0 0-1.06-1.06L5 7.69l-.47-.47ZM2.5 10.75c0 .41.34.75.75.75h1.69l-2.22 2.22A.75.75 0 0 0 3.25 15h3.5a.75.75 0 0 0 0-1.5H5.06l2.22-2.22A.75.75 0 0 0 6.75 10h-3.5a.75.75 0 0 0-.75.75ZM12.25 1c.41 0 .75.34.75.75v10.69l.72-.72a.75.75 0 1 1 1.06 1.06l-2 2c-.3.3-.77.3-1.06 0l-2-2a.75.75 0 1 1 1.06-1.06l.72.72V1.75c0-.41.34-.75.75-.75Z"/></svg>