<svg width="16" height="16" viewBox="0 0 16 16" xmlns="http://www.w3.org/2000/svg"><path d="M5.46 1.31a.5.5 0 0 0-.92 0l-2 5a.5.5 0 0 0 .92.38l.28-.7L6.26 6l.28.69a.5.5 0 0 0 .92-.38l-2-5ZM5.86 5H4.14L5 2.85 5.86 5Zm-1.5 2.65a.5.5 0 1 0-.71.7l1 1c.2.2.5.2.7 0l1-1a.5.5 0 1 0-.7-.7L5 8.29l-.65-.64ZM3 10a.5.5 0 0 0 0 1h2.4l-2.78 3.17A.5.5 0 0 0 3 15h3.5a.5.5 0 0 0 0-1H4.1l2.78-3.17A.5.5 0 0 0 6.5 10H3Zm9.5-9c.28 0 .5.22.5.5v11.8l1.15-1.15a.5.5 0 0 1 .7.7l-2 2a.5.5 0 0 1-.7 0l-2-2a.5.5 0 1 1 .7-.7L12 13.29V1.5c0-.28.22-.5.5-.5Z"/></svg>