<svg width="24" height="24" viewBox="0 0 24 24" xmlns="http://www.w3.org/2000/svg"><path d="M7.92 2.6a1 1 0 0 0-1.84 0l-3 7a1 1 0 1 0 1.84.8l.6-1.4h2.96l.6 1.4a1 1 0 0 0 1.84-.8l-3-7ZM7.62 7H6.38L7 5.54 7.63 7Zm-1.25 4.22a1 1 0 1 0-1.24 1.56l1.25 1a1 1 0 0 0 1.24 0l1.25-1a1 1 0 0 0-1.24-1.56l-.63.5-.63-.5ZM4.5 15a1 1 0 1 0 0 2h3.23l-3.97 4.32A1 1 0 0 0 4.5 23H10a1 1 0 1 0 0-2H6.77l3.97-4.32A1 1 0 0 0 10 15H4.5Zm13-13a1 1 0 0 1 1 1v15.59l1.8-1.8a1 1 0 0 1 1.4 1.42l-3.5 3.5a1 1 0 0 1-1.4 0l-3.5-3.5a1 1 0 0 1 1.4-1.42l1.8 1.8V3a1 1 0 0 1 1-1Z"/></svg>