<svg width="20" height="20" viewBox="0 0 20 20" xmlns="http://www.w3.org/2000/svg"><path d="M6.46 2.3a.5.5 0 0 0-.92 0l-2.5 6a.5.5 0 0 0 .92.4l.5-1.2a.5.5 0 0 0 .04 0h3a.5.5 0 0 0 .04 0l.5 1.2a.5.5 0 0 0 .92-.4l-2.5-6Zm.67 4.2H4.88L6 3.8l1.13 2.7ZM5.35 9.65a.5.5 0 1 0-.7.7l1 1a.5.5 0 0 0 .7 0l1-1a.5.5 0 0 0-.7-.7l-.65.64-.65-.64ZM4 12a.5.5 0 0 0 0 1h2.96l-3.35 4.19A.5.5 0 0 0 4 18h4a.5.5 0 0 0 0-1H5.04l3.35-4.19A.5.5 0 0 0 8 12H4ZM14.5 2c.28 0 .5.22.5.5v13.8l2.15-2.15a.5.5 0 0 1 .7.7l-3 3a.5.5 0 0 1-.7 0l-3-3a.5.5 0 0 1 .7-.7L14 16.29V2.5c0-.28.22-.5.5-.5Z"/></svg>