<svg width="16" height="16" viewBox="0 0 16 16" xmlns="http://www.w3.org/2000/svg"><path d="M7 1a6 6 0 0 0-5.27 8.87l-.71 2.5a.5.5 0 0 0 .64.6L4 12.2c.46.28.97.49 1.5.62a5.5 5.5 0 0 1 7.3-7.3A6 6 0 0 0 7.01 1Zm8 9.5a4.5 4.5 0 1 1-9 0 4.5 4.5 0 0 1 9 0ZM9.35 9.35a.5.5 0 0 0-.7-.7l-1.5 1.5a.5.5 0 0 0 0 .7l1.5 1.5a.5.5 0 1 0 .7-.7L8.21 10.5l1.14-1.15Zm1.86.65.64-.65a.5.5 0 0 0-.7-.7l-1.5 1.5a.5.5 0 0 0 0 .7l1.5 1.5a.5.5 0 0 0 .7-.7l-.64-.65H13v.5a.5.5 0 0 0 1 0V11a1 1 0 0 0-1-1h-1.8Z" opacity=".99"/></svg>