<svg width="24" height="24" viewBox="0 0 24 24" xmlns="http://www.w3.org/2000/svg"><path d="M3.28 2.22a.75.75 0 0 0-1.06 1.06L4 5.06v6.44c0 .28.22.5.5.5h6.44l7.56 7.56V20a.5.5 0 0 1-.5.5h-1.25a.75.75 0 1 0 0 1.5H18a2 2 0 0 0 1.8-1.14l.92.92a.75.75 0 0 0 1.06-1.06L3.28 2.22Zm15.22 13.1 1.36 1.36a.75.75 0 0 0 .14-.44v-2.49a.75.75 0 0 0-1.5 0v1.57Zm-5.79-5.79L15.18 12h4.32a.5.5 0 0 0 .5-.5V10h-6a2 2 0 0 1-1.29-.47ZM12 8c0 .5.18.94.47 1.29L5.31 2.12A2 2 0 0 1 6 2h6v6Zm1.5 0V2.5l6 6H14a.5.5 0 0 1-.5-.5Zm-8 5.75a.75.75 0 0 0-1.5 0v2.5a.75.75 0 0 0 1.5 0v-2.5Zm4.75 6.75a.75.75 0 1 0 0 1.5h3.5a.75.75 0 0 0 0-1.5h-3.5Zm-5.5-2c.41 0 .75.34.75.75V20c0 .28.22.5.5.5h1.25a.75.75 0 0 1 0 1.5H6a2 2 0 0 1-2-2v-.75c0-.41.34-.75.75-.75Z"/></svg>