<svg width="20" height="20" viewBox="0 0 20 20" xmlns="http://www.w3.org/2000/svg"><path d="M6.25 2.75a.75.75 0 1 0-1.5 0v.33A3.5 3.5 0 0 0 2 6.5v.28c0 1.47.85 2.8 2.17 3.42l.58.27v4.87a2 2 0 0 1-1.25-1.86V12.4a.75.75 0 0 0-1.5 0v1.08a3.5 3.5 0 0 0 2.75 3.42v.35a.75.75 0 0 0 1.5 0v-.35A3.5 3.5 0 0 0 9 13.48v-.27c0-1.46-.84-2.8-2.17-3.42l-.58-.27V4.64A2 2 0 0 1 7.5 6.5v1.1a.75.75 0 0 0 1.5 0V6.5a3.5 3.5 0 0 0-2.75-3.42v-.33Zm-1.5 1.9v4.17A2.28 2.28 0 0 1 3.5 6.78V6.5a2 2 0 0 1 1.25-1.86Zm1.5 6.53a2.27 2.27 0 0 1 1.25 2.03v.27a2 2 0 0 1-1.25 1.86v-4.16ZM10.75 3a.75.75 0 0 0 0 1.5h2.75c.88 0 1.65.5 2.02 1.25h-4.77a.75.75 0 0 0 0 1.5h4.94A2.25 2.25 0 0 1 13.5 9h-2.75a.75.75 0 0 0-.57 1.24l6.5 7.5a.75.75 0 1 0 1.14-.98l-5.43-6.26h1.11c1.9 0 3.47-1.42 3.72-3.25h.03a.75.75 0 0 0 0-1.5h-.13a3.74 3.74 0 0 0-.62-1.25h.75a.75.75 0 0 0 0-1.5h-6.5Z"/></svg>