<svg width="24" height="24" viewBox="0 0 24 24" xmlns="http://www.w3.org/2000/svg"><path d="M7.5 3v.11A4.5 4.5 0 0 1 11 7.5v.86a1 1 0 1 1-2 0V7.5a2.5 2.5 0 0 0-1.5-2.3v6.16l.7.34c1.71.8 2.8 2.52 2.8 4.4v.38a4.5 4.5 0 0 1-3.5 4.39v.12a1 1 0 0 1-2 0v-.12a4.5 4.5 0 0 1-3.5-4.4v-.84a1 1 0 1 1 2 0v.85c0 1.02.62 1.9 1.5 2.3v-6.15l-.7-.33A4.88 4.88 0 0 1 2 7.88V7.5a4.5 4.5 0 0 1 3.5-4.39V3a1 1 0 0 1 2 0Zm-2 2.2A2.5 2.5 0 0 0 4 7.5v.38c0 1.06.58 2.03 1.5 2.53v-5.2Zm2 8.38v5.2a2.5 2.5 0 0 0 1.5-2.3v-.37c0-1.06-.58-2.03-1.5-2.53ZM13 3a1 1 0 0 0 0 2h2.5c.82 0 1.54.4 2 1H13a1 1 0 1 0 0 2h4.95a2.5 2.5 0 0 1-2.45 2H13a1 1 0 0 0-.82 1.57l7 10a1 1 0 0 0 1.64-1.14L14.92 12h.58a4.5 4.5 0 0 0 4.47-4H21a1 1 0 1 0 0-2h-1.26c-.12-.36-.3-.7-.5-1H21a1 1 0 1 0 0-2h-8Z"/></svg>