<svg width="24" height="24" viewBox="0 0 24 24" xmlns="http://www.w3.org/2000/svg"><path d="M7 2.75a.75.75 0 1 0-1.5 0v.32A4.25 4.25 0 0 0 2 7.25v.54a4.75 4.75 0 0 0 2.67 4.27l.83.4v6.92a2.75 2.75 0 0 1-2-2.65v-.98a.75.75 0 0 0-1.5 0v.98c0 2.1 1.51 3.83 3.5 4.18v.34a.75.75 0 0 0 1.5 0v-.34a4.25 4.25 0 0 0 3.5-4.18v-.53a4.75 4.75 0 0 0-2.67-4.27l-.83-.4V4.6c1.16.33 2 1.4 2 2.65v1a.75.75 0 1 0 1.5 0v-1c0-2.1-1.51-3.83-3.5-4.18v-.32ZM5.5 4.6v6.2l-.17-.09A3.25 3.25 0 0 1 3.5 7.8v-.54c0-1.26.85-2.32 2-2.65ZM7 13.2l.17.08A3.25 3.25 0 0 1 9 16.2v.53c0 1.26-.84 2.32-2 2.64V13.2ZM12.75 3a.75.75 0 0 0 0 1.5H15c1.07 0 2 .6 2.45 1.5h-4.7a.75.75 0 0 0 0 1.5h4.99A2.75 2.75 0 0 1 15 10h-2.25a.75.75 0 0 0-.61 1.19l7.5 10.5a.75.75 0 1 0 1.22-.88l-6.65-9.31H15a4.25 4.25 0 0 0 4.24-4h2.01a.75.75 0 0 0 0-1.5h-2.19a4.24 4.24 0 0 0-.82-1.5h3.01a.75.75 0 0 0 0-1.5h-8.5Z"/></svg>