<svg width="20" height="20" viewBox="0 0 20 20" xmlns="http://www.w3.org/2000/svg"><path d="M7.46 4.63a2 2 0 0 1 .7.63C8.38 5.1 8.68 5 9 5h2c.31 0 .6.1.85.26a2 2 0 0 1 .7-.63l2.5-1.36A2 2 0 0 1 18 5.03v4.94a2 2 0 0 1-2.96 1.76l-2.5-1.36a2 2 0 0 1-.7-.63A1.5 1.5 0 0 1 11 10H9c-.31 0-.6-.1-.85-.26a2 2 0 0 1-.7.63l-2.5 1.36A2 2 0 0 1 2 9.97V5.03a2 2 0 0 1 2.96-1.76l2.5 1.36ZM5.5 7.5c0 .28.22.5.5.5h2V7H6a.5.5 0 0 0-.5.5ZM14 7h-2v1h2a.5.5 0 0 0 0-1Zm-5.7 4.05-.36.2-2.4 1.3-.96 2.4A1.5 1.5 0 0 0 5.98 17H7.5c.83 0 1.5-.67 1.5-1.5V11h-.6l-.1.05ZM11 15.5V11h.6l.18.1.28.14 2.4 1.3.96 2.4a1.5 1.5 0 0 1-1.4 2.06H12.5a1.5 1.5 0 0 1-1.5-1.5Z"/></svg>