<svg width="24" height="24" viewBox="0 0 24 24" xmlns="http://www.w3.org/2000/svg"><path d="M2 5.77a2.5 2.5 0 0 1 3.74-2.18l3.5 2c.18.1.34.23.49.37A2 2 0 0 1 11 5.5h2a2 2 0 0 1 1.27.46c.15-.14.31-.26.49-.37l3.5-2A2.5 2.5 0 0 1 22 5.77v5.95a2.5 2.5 0 0 1-3.73 2.17l-3.5-1.98a2.5 2.5 0 0 1-.77-.68 2 2 0 0 1-1 .27h-2a2 2 0 0 1-1-.27c-.2.27-.46.5-.77.68l-3.5 1.98A2.5 2.5 0 0 1 2 11.72V5.77ZM8 8a.75.75 0 0 0 0 1.5h1.75V8H8Zm8.75.75A.75.75 0 0 0 16 8h-1.75v1.5H16c.41 0 .75-.34.75-.75Zm-7.02 4.03c.19-.11.36-.24.53-.37.27.07.49.3.49.58v6.26c0 .97-.78 1.75-1.75 1.75H6.59a1.75 1.75 0 0 1-1.68-2.25l1.16-3.9.16-.09 3.5-1.98Zm4.01-.37c-.27.07-.49.3-.49.58v6.26c0 .97.78 1.75 1.75 1.75h2.41a1.75 1.75 0 0 0 1.68-2.25l-1.16-3.9a3.7 3.7 0 0 1-.16-.09l-3.5-1.98a3.5 3.5 0 0 1-.53-.37Z"/></svg>