<svg width="24" height="24" viewBox="0 0 24 24" xmlns="http://www.w3.org/2000/svg"><path d="m5.73 13.9.45-.26-1.33 5.17A1.75 1.75 0 0 0 6.55 21H9c.97 0 1.75-.78 1.75-1.75v-7.77l.25.02h2c.08 0 .17 0 .25-.02v7.77c0 .97.78 1.75 1.75 1.75h2.46a1.75 1.75 0 0 0 1.7-2.19l-1.34-5.17.45.25A2.5 2.5 0 0 0 22 11.72V5.77a2.5 2.5 0 0 0-3.74-2.18l-3.5 2c-.18.1-.34.23-.49.37A2 2 0 0 0 13 5.5h-2a2 2 0 0 0-1.27.46 2.5 2.5 0 0 0-.49-.37l-3.5-2A2.5 2.5 0 0 0 2 5.77v5.95a2.5 2.5 0 0 0 3.73 2.17ZM3.5 5.76A1 1 0 0 1 5 4.9l3.5 2c.3.18.5.5.5.87V8H6.75a.75.75 0 0 0 0 1.5H9v.23a1 1 0 0 1-.5.87L5 12.6a1 1 0 0 1-1.5-.87V5.77Zm5.73 6.14.02-.01v7.35c0 .14-.11.25-.25.25H6.54a.25.25 0 0 1-.24-.31l1.68-6.5.01-.08 1.24-.7Zm6.78.7.01.08 1.68 6.5a.25.25 0 0 1-.24.31H15a.25.25 0 0 1-.25-.25V11.9h.02l1.24.71ZM10.5 9.5v-2c0-.28.22-.5.5-.5h2c.28 0 .5.22.5.5v2a.5.5 0 0 1-.5.5h-2a.5.5 0 0 1-.5-.5Zm4.5 0h2.25a.75.75 0 0 0 0-1.5H15v-.23a1 1 0 0 1 .5-.87l3.5-2a1 1 0 0 1 1.5.87v5.95a1 1 0 0 1-1.5.87l-3.5-1.99a1 1 0 0 1-.5-.87V9.5Z"/></svg>