<svg width="24" height="24" viewBox="0 0 24 24" xmlns="http://www.w3.org/2000/svg"><path d="M18.59 6.41A2 2 0 0022 5a2 2 0 10-3.44 1.4l.03.01zM2 19a2 2 0 104 0 2 2 0 00-4 0zM6.59 6.41A2 2 0 0010 5a2 2 0 00-2-2 2 2 0 00-1.44 3.4l.03.01zm-.33 1.04L3.82 16a3.05 3.05 0 011.92.54L8.18 8a3.05 3.05 0 01-1.92-.54zM17.17 6h-6.34a3 3 0 000-2h6.34a3 3 0 000 2zm-5.65 13.58c.15-.6.44-1.13.84-1.58H6.83a3 3 0 010 2h4.59l.1-.42zm8.66-11.59l-.96 3.37c-.3.15-.58.35-.83.6l-1.99 2 1.86-6.51a2.99 2.99 0 001.92.54zm-1.08 4.68l-5.9 5.9c-.35.35-.6.78-.7 1.25l-.47 1.83c-.2.8.53 1.52 1.32 1.32l1.83-.46c.47-.12.9-.36 1.25-.7l5.9-5.9a2.29 2.29 0 00-3.23-3.24z"/></svg>