<svg width="24" height="24" viewBox="0 0 24 24" xmlns="http://www.w3.org/2000/svg"><path d="M18.88 6.66a2 2 0 001.33.33 2 2 0 10-1.33-.33zM2 19a2 2 0 104 0 2 2 0 00-4 0zM6.88 6.66a2 2 0 003-.97 2 2 0 10-3 .97zM4.08 16l2.4-8.41c.43.25.92.4 1.44.4l-2.4 8.42c-.43-.25-.92-.4-1.44-.4zM17.09 5.75h-6.18a3 3 0 000-1.5h6.18a3 3 0 000 1.5zm-5.57 13.83c.12-.49.34-.94.64-1.33H6.9a3 3 0 010 1.5h4.57l.04-.17zM19.92 8l-1 3.54a3.3 3.3 0 00-.53.42l-1.62 1.63 1.71-6c.43.25.92.4 1.44.4zm-.82 4.67l-5.9 5.9c-.35.35-.6.78-.7 1.25l-.47 1.83c-.2.8.53 1.52 1.32 1.32l1.83-.46c.47-.12.9-.36 1.25-.7l5.9-5.9a2.29 2.29 0 00-3.23-3.24z"/></svg>