<svg width="24" height="24" viewBox="0 0 24 24" xmlns="http://www.w3.org/2000/svg"><path d="M14.25 2c.38 0 .7.28.74.65l.01.1v.75c0 .64-.2 1.22-.53 1.7a3.75 3.75 0 012.52 3.3h.26a2.25 2.25 0 002.24-2.26V4.75a.75.75 0 011.5 0v1.48c0 2-1.56 3.65-3.54 3.76H17v1.51h4.25c.38 0 .7.28.75.65v.1c0 .38-.28.7-.65.74l-.1.01H17v2H17.45a3.75 3.75 0 013.53 3.57v1.68a.75.75 0 01-1.5.1v-1.59c.01-1.2-.9-2.17-2.08-2.25h-.15l-.48-.01a5 5 0 01-9.54 0h-.49a2.25 2.25 0 00-2.24 2.26v1.49a.75.75 0 11-1.5 0v-1.48c0-2 1.56-3.65 3.54-3.76h.21L7 15v-2H2.75a.75.75 0 01-.74-.65l-.01-.1c0-.38.28-.7.65-.74h.1L7 11.5V10H6.54A3.75 3.75 0 013 6.42V4.75a.75.75 0 011.5-.1v1.59c0 1.19.92 2.17 2.09 2.25H7a3.75 3.75 0 012.52-3.28c-.3-.43-.48-.94-.52-1.5L9 3.51v-.76a.75.75 0 011.5-.1v.85a1.5 1.5 0 003 .15v-.9c0-.41.34-.75.75-.75z"/></svg>