<svg width="16" height="16" viewBox="0 0 16 16" xmlns="http://www.w3.org/2000/svg"><path d="M4.5 2A2.5 2.5 0 0 0 2 4.5v.75a.75.75 0 0 0 1.5 0V4.5a1 1 0 0 1 1-1h.75a.75.75 0 0 0 0-1.5H4.5Zm6.25 0a.75.75 0 0 0 0 1.5h.75a1 1 0 0 1 1 1v.75a.75.75 0 0 0 1.5 0V4.5A2.5 2.5 0 0 0 11.5 2h-.75ZM3.5 10.75a.75.75 0 0 0-1.5 0v.75A2.5 2.5 0 0 0 4.5 14h.75a.75.75 0 0 0 0-1.5H4.5a1 1 0 0 1-1-1v-.75Zm10.5 0a.75.75 0 0 0-1.5 0v.75a1 1 0 0 1-1 1h-.75a.75.75 0 0 0 0 1.5h.75a2.5 2.5 0 0 0 2.5-2.5v-.75ZM5.25 4.5a.75.75 0 0 0 0 1.5h5.5a.75.75 0 0 0 0-1.5h-5.5Zm-.75 6.25c0-.41.34-.75.75-.75h3a.75.75 0 0 1 0 1.5h-3a.75.75 0 0 1-.75-.75Zm.75-3.5a.75.75 0 0 0 0 1.5h5.5a.75.75 0 0 0 0-1.5h-5.5Z"/></svg>