<svg width="28" height="28" viewBox="0 0 28 28" xmlns="http://www.w3.org/2000/svg"><path d="M6.75 3A3.75 3.75 0 0 0 3 6.75v3.5a.75.75 0 0 0 1.5 0v-3.5c0-1.24 1-2.25 2.25-2.25h3.5a.75.75 0 0 0 0-1.5h-3.5Zm11 0a.75.75 0 0 0 0 1.5h3.5c1.24 0 2.25 1 2.25 2.25v3.5a.75.75 0 0 0 1.5 0v-3.5A3.75 3.75 0 0 0 21.25 3h-3.5ZM4.5 17.75a.75.75 0 0 0-1.5 0v3.5A3.75 3.75 0 0 0 6.75 25h3.5a.75.75 0 0 0 0-1.5h-3.5c-1.24 0-2.25-1-2.25-2.25v-3.5Zm20.5 0a.75.75 0 0 0-1.5 0v3.5c0 1.24-1 2.25-2.25 2.25h-3.5a.75.75 0 0 0 0 1.5h3.5A3.75 3.75 0 0 0 25 21.25v-3.5ZM8.75 8a.75.75 0 0 0 0 1.5h10.5a.75.75 0 0 0 0-1.5H8.75ZM8 13.75c0-.41.34-.75.75-.75h10.5a.75.75 0 0 1 0 1.5H8.75a.75.75 0 0 1-.75-.75ZM8.75 18a.75.75 0 0 0 0 1.5h5.5a.75.75 0 0 0 0-1.5h-5.5Z"/></svg>