<svg width="20" height="20" viewBox="0 0 20 20" xmlns="http://www.w3.org/2000/svg"><path d="M6 4a2 2 0 00-2 2v1.5a.5.5 0 01-1 0V6a3 3 0 013-3h1.5a.5.5 0 010 1H6zm0 2.5c0-.28.22-.5.5-.5h7a.5.5 0 010 1h-7a.5.5 0 01-.5-.5zm0 3c0-.28.22-.5.5-.5h7a.5.5 0 010 1h-7a.5.5 0 01-.5-.5zm.5 2.5a.5.5 0 000 1h4a.5.5 0 000-1h-4zm6-9a.5.5 0 000 1H14a2 2 0 012 2v1.5a.5.5 0 001 0V6a3 3 0 00-3-3h-1.5zm-9 9c.28 0 .5.22.5.5V14c0 1.1.9 2 2 2h1.5a.5.5 0 010 1H6a3 3 0 01-3-3v-1.5c0-.28.22-.5.5-.5zm13.5.5a.5.5 0 00-1 0V14a2 2 0 01-2 2h-1.5a.5.5 0 000 1H14a3 3 0 003-3v-1.5z"/></svg>