<svg width="20" height="20" viewBox="0 0 20 20" xmlns="http://www.w3.org/2000/svg"><path d="M3 6a3 3 0 013-3h1.5a.5.5 0 01.49.61l.01.14c0 .41-.34.75-.75.75H6c-.83 0-1.5.67-1.5 1.5v1.25a.75.75 0 01-.89.74A.5.5 0 013 7.5V6zm9-2.5c0-.28.22-.5.5-.5H14a3 3 0 013 3v1.5a.5.5 0 01-.61.49l-.14.01a.75.75 0 01-.75-.75V6c0-.83-.67-1.5-1.5-1.5h-1.25a.75.75 0 01-.74-.89.5.5 0 01-.01-.11zM3.5 12a.5.5 0 01.11.01.75.75 0 01.89.74V14c0 .83.67 1.5 1.5 1.5h1.25a.75.75 0 01.74.89.5.5 0 01-.49.61H6a3 3 0 01-3-3v-1.5c0-.28.22-.5.5-.5zm13 0c.28 0 .5.22.5.5V14a3 3 0 01-3 3h-1.5a.5.5 0 01-.49-.61.75.75 0 01.74-.89H14c.83 0 1.5-.67 1.5-1.5v-1.25a.75.75 0 01.89-.74.5.5 0 01.11-.01zM6.75 6a.75.75 0 000 1.5h6.5a.75.75 0 000-1.5h-6.5zM6 9.75c0-.41.34-.75.75-.75h6.5a.75.75 0 010 1.5h-6.5A.75.75 0 016 9.75zM6.75 12a.75.75 0 000 1.5h3.5a.75.75 0 000-1.5h-3.5z"/></svg>