<svg width="16" height="16" viewBox="0 0 16 16" xmlns="http://www.w3.org/2000/svg"><path d="M4.5 2A2.5 2.5 0 002 4.5v.75a.75.75 0 001.5 0V4.5a1 1 0 011-1h.75a.75.75 0 000-1.5H4.5zm6.25 0a.75.75 0 000 1.5h.75a1 1 0 011 1v.75a.75.75 0 001.5 0V4.5A2.5 2.5 0 0011.5 2h-.75zM3.5 10.75a.75.75 0 00-1.5 0v.75A2.5 2.5 0 004.5 14h.75a.75.75 0 000-1.5H4.5a1 1 0 01-1-1v-.75zm10.5 0a.75.75 0 00-1.5 0v.75a1 1 0 01-1 1h-.75a.75.75 0 000 1.5h.75a2.5 2.5 0 002.5-2.5v-.75zM5.25 4.5a.75.75 0 000 1.5h5.5a.75.75 0 000-1.5h-5.5zm-.75 6.25c0-.41.34-.75.75-.75h3a.75.75 0 010 1.5h-3a.75.75 0 01-.75-.75zm.75-3.5a.75.75 0 000 1.5h5.5a.75.75 0 000-1.5h-5.5z"/></svg>