<svg width="24" height="24" viewBox="0 0 24 24" xmlns="http://www.w3.org/2000/svg"><path d="M6.25 3A3.25 3.25 0 0 0 3 6.25V8a1 1 0 0 0 2 0V6.25C5 5.56 5.56 5 6.25 5H8a1 1 0 0 0 0-2H6.25ZM16 3a1 1 0 1 0 0 2h1.75c.69 0 1.25.56 1.25 1.25V8a1 1 0 1 0 2 0V6.25C21 4.45 19.54 3 17.75 3H16ZM5 16a1 1 0 1 0-2 0v1.75C3 19.55 4.46 21 6.25 21H8a1 1 0 1 0 0-2H6.25C5.56 19 5 18.44 5 17.75V16Zm16 0a1 1 0 1 0-2 0v1.75c0 .69-.56 1.25-1.25 1.25H16a1 1 0 1 0 0 2h1.75c1.8 0 3.25-1.46 3.25-3.25V16ZM8 7a1 1 0 0 0 0 2h8a1 1 0 1 0 0-2H8Zm-1 5a1 1 0 0 1 1-1h8a1 1 0 1 1 0 2H8a1 1 0 0 1-1-1Zm1 3a1 1 0 1 0 0 2h4a1 1 0 1 0 0-2H8Z"/></svg>