<svg width="24" height="24" viewBox="0 0 24 24" xmlns="http://www.w3.org/2000/svg"><path d="M11 2.75a.75.75 0 00-.75-.75h-5A3.25 3.25 0 002 5.25v5a.75.75 0 001.5 0v-5c0-.97.78-1.75 1.75-1.75h5c.41 0 .75-.34.75-.75zM13.75 2a.75.75 0 000 1.5h5c.97 0 1.75.78 1.75 1.75v5a.75.75 0 001.5 0v-5C22 3.45 20.54 2 18.75 2h-5zm0 20a.75.75 0 010-1.5h5c.97 0 1.75-.78 1.75-1.75v-5a.75.75 0 011.5 0v5c0 1.8-1.46 3.25-3.25 3.25h-5zm-3.5 0a.75.75 0 000-1.5h-5c-.97 0-1.75-.78-1.75-1.75v-5a.75.75 0 00-1.5 0v5C2 20.55 3.46 22 5.25 22h5z"/></svg>