<svg width="24" height="24" viewBox="0 0 24 24" xmlns="http://www.w3.org/2000/svg"><path d="M3 5.75A2.75 2.75 0 0 1 5.75 3h12.5A2.75 2.75 0 0 1 21 5.75v6.27c-.46-.3-.97-.53-1.5-.7V5.74c0-.69-.56-1.25-1.25-1.25H5.75c-.69 0-1.25.56-1.25 1.25v12.5c0 .69.56 1.25 1.25 1.25h5.56c.18.53.42 1.04.71 1.5H5.75A2.75 2.75 0 0 1 3 18.25V5.75ZM23 17.5a5.5 5.5 0 1 1-11 0 5.5 5.5 0 0 1 11 0Zm-9.5 0c0 .83.26 1.6.7 2.25l5.55-5.56a4 4 0 0 0-6.25 3.3Zm4 4a4 4 0 0 0 3.3-6.25l-5.55 5.56c.64.44 1.42.69 2.25.69Z"/></svg>