<svg width="20" height="20" viewBox="0 0 20 20" xmlns="http://www.w3.org/2000/svg"><path d="M3 9a7 7 0 0114 0v5a1 1 0 01-1 1H4a1 1 0 01-1-1V9zm7-6a6 6 0 00-6 6v5h3.5c-.62-.62-1-1.48-1-2.5a4.85 4.85 0 011.34-3.35l.02-.01v-.01a.5.5 0 01.65-.02c.02-.28.08-.58.2-.9.25-.63.75-1.24 1.65-1.72a.5.5 0 01.74.44c0 1.14.5 1.9 1.1 2.7l.13.18c.54.72 1.17 1.56 1.17 2.69 0 1.02-.38 1.88-1 2.5H16V9a6 6 0 00-6-6zM8.22 9.25a3.85 3.85 0 00-.72 2.25c0 1.49 1.1 2.5 2.5 2.5s2.5-1.01 2.5-2.5c0-.79-.43-1.37-1.02-2.16l-.08-.1c-.48-.65-1-1.4-1.21-2.42a2.03 2.03 0 00-.66 1.88c0 .09.02.16.03.23v.05l.03.15c0 .05.02.15 0 .25 0 .05-.02.17-.12.28-.12.15-.3.2-.44.2a.59.59 0 01-.25-.09 2.72 2.72 0 01-.32-.27l-.24-.25zM2.5 16a.5.5 0 000 1h15a.5.5 0 000-1h-15z"/></svg>