<svg width="48" height="48" viewBox="0 0 48 48" xmlns="http://www.w3.org/2000/svg"><path d="M24 4A18 18 0 006 22v13.25c0 .69.56 1.25 1.25 1.25h33.5c.69 0 1.25-.56 1.25-1.25V22A18 18 0 0024 4zM8.5 22a15.5 15.5 0 0131 0v12h-9.13a8.84 8.84 0 003.13-6.75c0-2.89-1.7-4.93-3.15-6.68l-.38-.46c-1.6-1.94-2.97-3.85-2.97-6.86a1.25 1.25 0 00-1.54-1.22c-2.16.53-3.43 1.68-4.12 3.11a9.73 9.73 0 00-.75 3.8V19c-.02.41-.03.72-.06.97a9.1 9.1 0 01-1.35-.77 1.25 1.25 0 00-1.53.13l-.02.02a3.9 3.9 0 00-.15.15l-.37.41a11.55 11.55 0 00-2.61 7.34A8.84 8.84 0 0017.64 34H8.5V22zM5.25 39.5a1.25 1.25 0 100 2.5h37.5a1.25 1.25 0 100-2.5H5.25z"/></svg>