<svg width="32" height="32" viewBox="0 0 32 32" xmlns="http://www.w3.org/2000/svg"><path d="M4 14v10a1 1 0 001 1h22a1 1 0 001-1V14a12 12 0 00-24 0zm16.73 9a6.69 6.69 0 001.77-4.53c0-2.01-1.13-3.42-2.08-4.6l-.25-.31c-1.03-1.3-1.9-2.55-1.9-4.56a1 1 0 00-1.21-.98c-1.6.35-2.61 1.11-3.18 2.12-.53.94-.6 1.97-.62 2.67l-.01.28v.12l-.51-.31a1 1 0 00-1.26.13l-.01.02a4.13 4.13 0 00-.34.39 8.5 8.5 0 00-1.63 5.03c0 1.66.63 3.3 1.78 4.53H6v-9a10 10 0 0120 0v9h-5.27zM16 23c-2.76 0-4.5-2.2-4.5-4.53a6.5 6.5 0 01.95-3.42c.23.12.45.22.65.28.42.13 1.06.2 1.57-.26.42-.38.5-.92.53-1.19a9.7 9.7 0 00.05-1c.03-.68.1-1.27.37-1.76.14-.25.37-.52.76-.75a9.47 9.47 0 002.22 4.43l.17.22c1.04 1.3 1.73 2.17 1.73 3.45A4.44 4.44 0 0116 23zM2 28a1 1 0 011-1h26a1 1 0 110 2H3a1 1 0 01-1-1z"/></svg>