<svg width="32" height="32" viewBox="0 0 32 32" xmlns="http://www.w3.org/2000/svg"><path d="M4 14a12 12 0 1124 0v10a1 1 0 01-1 1H5a1 1 0 01-1-1V14zM16 4A10 10 0 006 14v9h5.28a6.68 6.68 0 01-1.78-4.53 8.5 8.5 0 011.63-5.03 5.38 5.38 0 01.32-.37l.02-.02v-.01h.01v-.01a1 1 0 011.14-.2c.52.25.86.36 1.07.4.03-.17.04-.38.06-.7v-.08c.03-.63.08-1.57.49-2.4.47-.98 1.36-1.72 2.82-2.03a1 1 0 011.2.98c0 2.01.88 3.26 1.9 4.56l.26.3c.95 1.19 2.08 2.6 2.08 4.61 0 1.66-.63 3.3-1.77 4.53H26v-9A10 10 0 0016 4zM2 28a1 1 0 011-1h26a1 1 0 110 2H3a1 1 0 01-1-1z"/></svg>