<svg width="48" height="48" viewBox="0 0 48 48" xmlns="http://www.w3.org/2000/svg"><path d="M6 22a18 18 0 0136 0v13.25c0 .69-.56 1.25-1.25 1.25H7.25c-.69 0-1.25-.56-1.25-1.25V22zM24 6.5A15.5 15.5 0 008.5 22v12h9.14a8.84 8.84 0 01-3.14-6.75 11.55 11.55 0 013.1-7.86l.03-.04.01-.01h.01c.44-.42 1.06-.45 1.54-.13.45.3.8.5 1.05.62l.03-.6v-.35c.04-1.02.13-2.48.84-3.82.75-1.41 2.12-2.52 4.36-3.03A1.25 1.25 0 0127 13.25c0 3.01 1.37 4.92 2.97 6.86l.38.46c1.46 1.75 3.15 3.79 3.15 6.68A8.84 8.84 0 0130.37 34h9.13V22A15.5 15.5 0 0024 6.5zm-5.8 16.2a9.05 9.05 0 00-1.2 4.55c0 3.4 2.75 6.5 7 6.5 4.26 0 7-3.1 7-6.5 0-1.95-1.11-3.3-2.69-5.22l-.28-.34c-1.4-1.7-2.96-3.75-3.4-6.72-.69.36-1.07.82-1.31 1.27a6.28 6.28 0 00-.55 3c-.02.4-.03.83-.07 1.2-.05.39-.17 1.1-.72 1.6-.67.6-1.5.52-2.09.34a6.1 6.1 0 01-1.14-.51c-.17.23-.35.5-.54.83zM4 40.75c0-.69.56-1.25 1.25-1.25h37.5a1.25 1.25 0 110 2.5H5.25C4.56 42 4 41.44 4 40.75z"/></svg>