<svg width="24" height="24" viewBox="0 0 24 24" xmlns="http://www.w3.org/2000/svg"><path d="M3 11a9 9 0 0118 0v6.25c0 .41-.34.75-.75.75H3.75a.75.75 0 01-.75-.75V11zm9-7.5A7.5 7.5 0 004.5 11v5.5h4.3a4.14 4.14 0 01-1.3-3.01 5.57 5.57 0 011.46-3.76l.02-.02L9 9.7a.75.75 0 011.06.03v-.05l.02-.16c.05-.52.13-1.27.47-1.94a2.9 2.9 0 012.04-1.56.75.75 0 01.92.73c0 1.34.59 2.1 1.33 3l.07.08c.73.88 1.6 1.93 1.6 3.66 0 1.17-.5 2.24-1.3 3.01h4.3V11A7.5 7.5 0 0012 3.5zm-2.47 7.96A4.07 4.07 0 009 13.49c0 1.47 1.23 2.76 3 2.76s3-1.31 3-2.76c0-1.19-.56-1.87-1.32-2.79a6.46 6.46 0 01-1.56-2.8c-.1.11-.17.23-.24.35-.2.4-.27.89-.32 1.42l-.01.13-.07.62c-.04.19-.1.56-.37.83a.99.99 0 01-.62.3 1.2 1.2 0 01-.57-.1l-.3-.16-.1.17zM2 20.25c0-.41.34-.75.75-.75h18.5a.75.75 0 010 1.5H2.75a.75.75 0 01-.75-.75z"/></svg>