<svg width="16" height="16" viewBox="0 0 16 16" xmlns="http://www.w3.org/2000/svg"><path d="M1 4.5A2.5 2.5 0 0 1 3.5 2h9A2.5 2.5 0 0 1 15 4.5v7a2.5 2.5 0 0 1-2.5 2.5h-9A2.5 2.5 0 0 1 1 11.5v-7Zm4.05 2.2c.48-.04.85.04.99.1a.5.5 0 1 0 .45-.89 2.98 2.98 0 0 0-1.54-.2c-.96.1-1.95.94-1.95 2.3 0 1.38 1.05 2.3 2.3 2.3.58 0 1.1-.27 1.4-.55.26-.25.3-.58.3-.79v-.96a.5.5 0 0 0-.5-.5h-.8a.5.5 0 0 0 0 1H6v.46a.43.43 0 0 1 0 .07c-.15.13-.42.27-.7.27C4.57 9.3 4 8.8 4 8c0-.82.57-1.25 1.05-1.3ZM9 6.2a.5.5 0 0 0-1 0v3.6a.5.5 0 0 0 1 0V6.2Zm1.5-.5a.5.5 0 0 0-.5.5v3.6a.5.5 0 0 0 1 0V8.5h1a.5.5 0 0 0 0-1h-1v-.8h1.5a.5.5 0 0 0 0-1h-2Z"/></svg>