<svg width="24" height="24" viewBox="0 0 24 24" xmlns="http://www.w3.org/2000/svg"><path d="M14.55 6.06c.38.16.55.6.39.99l-4.5 10.5a.75.75 0 0 1-1.38-.6l4.5-10.5c.16-.38.6-.55.99-.39ZM8.8 9.25c.27.3.25.78-.06 1.06L6.87 12l1.88 1.7a.75.75 0 0 1-1 1.1l-2.5-2.24a.75.75 0 0 1 0-1.12l2.5-2.25a.75.75 0 0 1 1.06.06Zm6.38 0c-.27.3-.25.78.06 1.06L17.13 12l-1.88 1.7a.75.75 0 1 0 1 1.1l2.5-2.24a.75.75 0 0 0 0-1.12l-2.5-2.25a.75.75 0 0 0-1.06.06ZM22 12a10 10 0 1 0-20 0 10 10 0 0 0 20 0ZM3.5 12a8.5 8.5 0 1 1 17 0 8.5 8.5 0 0 1-17 0Z"/></svg>