<svg width="24" height="24" viewBox="0 0 24 24" xmlns="http://www.w3.org/2000/svg"><path d="M12.34 4.07c1.2-.32 2.43.39 2.76 1.6l2.75 10.28c.32 1.2-.39 2.43-1.59 2.76l-4.6 1.23c-1.2.32-2.43-.4-2.75-1.6L6.16 8.06A2.25 2.25 0 0 1 7.75 5.3l4.59-1.23Zm2.35 11.2a.75.75 0 0 0-.92-.52l-1.93.52-.1.03a.75.75 0 0 0 .49 1.42l1.93-.52.1-.04a.75.75 0 0 0 .43-.88ZM18.68 2.4c.2-.36.65-.5 1.01-.3a4.9 4.9 0 0 1 1.72 6.49.75.75 0 0 1-1.33-.69l.05-.09a3.4 3.4 0 0 0-1.16-4.39.75.75 0 0 1-.3-1.02ZM17.5 4.44a.75.75 0 0 1 1.05-.14 2.6 2.6 0 0 1 .9 1.32c.11.44.09.88-.02 1.29l-.05.18-.05.13a.75.75 0 0 1-1.42-.49l.05-.14.02-.06c.05-.18.06-.37.02-.52a.93.93 0 0 0-.17-.31 1.36 1.36 0 0 0-.16-.18l-.03-.03a.75.75 0 0 1-.14-1.05ZM2.54 15.41a.75.75 0 0 1 1.34.66l-.1.2-.1.28a3.54 3.54 0 0 0 .6 3.36c.26.32.51.54.68.65l.07.04a.75.75 0 1 1-.75 1.3 5.04 5.04 0 0 1-1.74-6.49Zm2.13 1.35a.75.75 0 0 1 1.42.47l-.05.15-.01.05c-.05.18-.06.37-.02.53a1.38 1.38 0 0 0 .32.5l.04.02a.75.75 0 0 1-.92 1.19 2.6 2.6 0 0 1-.89-1.33c-.11-.43-.09-.87.01-1.28l.06-.17.04-.13Z"/></svg>