<svg width="24" height="24" viewBox="0 0 24 24" xmlns="http://www.w3.org/2000/svg"><path d="M10.95 2.05h-.02A10 10 0 0 0 4.1 18.15a9.99 9.99 0 0 0 6.92 3.81c.05-.47.17-.97.34-1.47a8.48 8.48 0 0 1-5.63-2.74c.06-.24.08-.52.1-.76l.01-.12.06-.65c.07-.52.2-.87.38-1.07.24-.26.49-.3 1-.4l.1-.01c.26-.05.61-.12.95-.3.36-.2.67-.5.9-.95.24-.45.22-.9.15-1.27a7 7 0 0 0-.27-1.01c-.2-.67-.23-1-.06-1.25.18-.28.43-.35 1.09-.52l.08-.02c.67-.17 1.57-.46 2.1-1.57.56-1.2.24-2.57-.1-3.49-.13-.32-.26-.6-.38-.85H12c1.67 0 3.22.48 4.53 1.3-.19.26-.44.6-.73.96a13 13 0 0 1-1.82 1.96 1.39 1.39 0 0 0-.55 1.38c.07.42.3.8.5 1.1.15.25.35.5.5.72l.12.14a6.23 6.23 0 0 1 .29.42l.02.04a4.1 4.1 0 0 1 .15.65c.45-.2.93-.35 1.44-.45-.04-.23-.1-.5-.19-.72a3.69 3.69 0 0 0-.65-1.01c-.15-.21-.3-.4-.43-.6-.16-.24-.23-.4-.26-.5a14.6 14.6 0 0 0 2.05-2.2c.3-.36.56-.7.76-.97a8.48 8.48 0 0 1 2.76 5.82c.58.04 1.08.12 1.5.2a10 10 0 0 0-11.04-9.69ZM4.44 15.88a8.5 8.5 0 0 1 5.8-12.2 7.41 7.41 0 0 1 .57 1.2c.31.84.44 1.7.15 2.32-.23.48-.55.61-1.11.76L9.69 8c-.54.13-1.37.33-1.9 1.12-.6.91-.3 1.91-.12 2.52l.06.19c.08.25.14.45.18.63.03.22 0 .3 0 .33a.7.7 0 0 1-.3.32c-.1.06-.25.1-.5.14l-.13.02c-.46.08-1.2.2-1.8.84a3.27 3.27 0 0 0-.74 1.77ZM12 22.2c.06-.96.5-2.14 1.23-3.25a8.9 8.9 0 0 1 5.38-3.97.5.5 0 0 0-.24-.97 9.9 9.9 0 0 0-5.73 4c-.1-.3-.15-.63-.15-1.01 0-.92.47-1.91 1.2-2.7a5.33 5.33 0 0 1 3.2-1.64 13.5 13.5 0 0 1 5.56.23.75.75 0 0 1 .22 1.35.91.91 0 0 0-.26.34c-.11.2-.22.48-.32.82-.1.29-.17.6-.26.93l-.06.21c-.11.41-.24.85-.38 1.29-.3.86-.7 1.78-1.4 2.48a4.02 4.02 0 0 1-3 1.2 3.82 3.82 0 0 1-2.85-1.16c-.4.74-.61 1.43-.65 1.95a.75.75 0 0 1-1.5-.1Z"/></svg>