<svg width="24" height="24" viewBox="0 0 24 24" xmlns="http://www.w3.org/2000/svg"><path d="M10.95 2.05A10 10 0 0122 11.75c-1.17-.24-2.85-.4-5.23-.08-.64.09-1.22.26-1.76.5a25.3 25.3 0 00-.15-.65l-.02-.04a6.23 6.23 0 00-.3-.42l-.1-.14c-.16-.21-.36-.47-.52-.71-.2-.3-.42-.7-.49-1.1a1.39 1.39 0 01.54-1.38 13 13 0 001.83-1.97c.29-.36.54-.7.73-.95a8.46 8.46 0 00-4.69-1.3c.12.24.25.52.37.84.35.92.67 2.28.1 3.49-.52 1.11-1.42 1.4-2.09 1.57l-.08.02c-.66.17-.9.24-1.1.52-.16.25-.14.58.07 1.25l.04.14a7 7 0 01.23.87c.07.36.09.82-.15 1.27-.23.45-.54.75-.9.95-.34.18-.7.25-.96.3l-.09.02c-.51.09-.76.13-1 .39-.19.2-.3.55-.38 1.07l-.06.65-.01.12c-.02.24-.04.52-.1.76a8.48 8.48 0 005.63 2.74c-.17.5-.29 1-.34 1.47A9.96 9.96 0 012 12a10 10 0 018.93-9.94l.02-.01zM12 22.2c.05-.97.49-2.15 1.23-3.26a8.9 8.9 0 015.38-3.97.5.5 0 00-.24-.96 9.9 9.9 0 00-5.73 4c-.1-.3-.15-.64-.15-1.02 0-.92.46-1.91 1.2-2.7a5.33 5.33 0 013.2-1.64 13.5 13.5 0 015.56.23.75.75 0 01.21 1.35.92.92 0 00-.26.34c-.1.2-.2.48-.32.82l-.26.93-.05.21c-.12.41-.24.85-.39 1.29-.29.86-.7 1.78-1.4 2.48a4.02 4.02 0 01-3 1.2 3.82 3.82 0 01-2.84-1.16c-.4.74-.62 1.43-.65 1.95a.75.75 0 11-1.5-.1z"/></svg>