<svg width="20" height="20" viewBox="0 0 20 20" xmlns="http://www.w3.org/2000/svg"><path d="M2 10a8 8 0 1116 .34 13.76 13.76 0 00-1-.23V10c0-2.1-.91-3.97-2.36-5.25l-.07.07-.79.84c-.6.62-1.35 1.37-1.85 1.75.03.07.1.18.24.36l.12.16a4.67 4.67 0 011.07 2.2c-.34.06-.66.16-.97.28a5 5 0 00-.1-.55c-.13-.49-.45-.89-.77-1.3l-.14-.18c-.16-.2-.37-.48-.44-.77a.9.9 0 01.38-1 18.6 18.6 0 001.74-1.65l.78-.82A6.97 6.97 0 009.74 3c.12.23.26.5.38.83.28.74.52 1.82.08 2.76-.4.86-1.1 1.08-1.63 1.22l-.1.02c-.5.13-.75.2-.93.46-.17.26-.12.58.04 1.12l.04.12c.07.21.14.46.18.69.05.28.06.63-.11.97-.18.34-.41.57-.69.72-.26.14-.53.2-.75.24l-.08.01c-.41.07-.65.12-.87.35-.18.2-.28.51-.34.94l-.05.54v.1c-.02.2-.04.41-.09.6v.02a7 7 0 003.87 2.17c-.18.3-.35.6-.51.91A8 8 0 012 10zm6.8-6.65a5.8 5.8 0 00-.13-.22 7 7 0 00-4.72 10.39l.02-.2c.06-.46.2-1.06.6-1.49.46-.5 1.02-.59 1.4-.65l.1-.02c.21-.03.34-.07.45-.13.1-.05.2-.13.28-.3.03-.06.05-.15.02-.34a4.4 4.4 0 00-.15-.54l-.04-.15c-.16-.5-.38-1.26.08-1.96.4-.6 1.04-.76 1.48-.87l.13-.03c.47-.12.77-.24.98-.68.26-.56.14-1.3-.12-1.98a6.33 6.33 0 00-.38-.83zm10.13 8.39a.5.5 0 00-.43-.24h-.03l-.1-.02a6.16 6.16 0 01-.3-.08l-.09-.03c-.23-.06-.51-.14-.84-.21a8.52 8.52 0 00-2.95-.16c-1.2.15-2.12.56-2.75 1.15a2.85 2.85 0 00-.9 2.62 13.17 13.17 0 013.77-2.23.5.5 0 11.38.92c-.8.32-1.54.7-2.2 1.1a8.47 8.47 0 00-3.44 3.72.5.5 0 00.9.44c.38-.76.84-1.45 1.44-2.06a3.71 3.71 0 00.59.8 3.07 3.07 0 003.9.58c.45-.28.77-.67 1-1.08.37-.63.58-1.38.74-1.94l.1-.37a7.5 7.5 0 011-2.03v-.02c.1-.14.18-.27.23-.38a.5.5 0 00-.02-.48z"/></svg>