<svg width="32" height="32" viewBox="0 0 32 32" xmlns="http://www.w3.org/2000/svg"><path d="M8.22 4.36A14 14 0 0130 16v.07c-1.77-.4-3.88-.7-6-.53-1.33.1-2.7.39-4 .95a4 4 0 00-1.07-2.59c-.67-.95-1.68-2.39-.3-3.64 1.44-1.3 2.7-2.77 3.76-4.4A11.92 11.92 0 0016 4h-.37l.05.18.06.1c.83 1.53 1.74 3.17 1.19 5.45-.44 1.82-2.14 2.4-3.4 2.83l-.04.01c-.43.11-.85.3-1.23.53-.5.67-.36 1.34-.1 2.34a3.64 3.64 0 01-.16 3.11 2.62 2.62 0 01-2 1.13 2 2 0 00-1.7.92c-.8 1.07-.55 3.11-.39 4.24a11.92 11.92 0 007.03 3.1l.04.01c-.23.7-.38 1.36-.45 1.97A14.02 14.02 0 013.07 10.64a14 14 0 015.15-6.28zM18.38 27.3c.77.8 2.18 1.69 4.62 1.69 4.3 0 5.64-5.53 6.25-8.04.1-.42.18-.75.25-.96.15-.45.54-.8.98-1.04.7-.4.7-1.05-.06-1.25-3.63-.95-9.03-1.48-12.42 1.9-1.4 1.41-1.38 3.25-1.1 4.6l.18-.25A14.6 14.6 0 0124 18.79a.75.75 0 01.5 1.42 13.1 13.1 0 00-6.2 4.64 11.4 11.4 0 00-2.3 5.42.75.75 0 001.5.04c.07-.91.36-1.95.88-3z"/></svg>