<svg width="32" height="32" viewBox="0 0 32 32" xmlns="http://www.w3.org/2000/svg"><path d="M16 2a14 14 0 00-1.47 27.92c.07-.61.22-1.28.45-1.97h-.04a11.92 11.92 0 01-7.03-3.11c-.16-1.13-.41-3.17.39-4.24a2 2 0 011.7-.92 2.62 2.62 0 002-1.13 3.64 3.64 0 00.16-3.11c-.26-1-.4-1.67.1-2.34.38-.24.8-.42 1.23-.53l.03-.01c1.27-.43 2.97-1 3.41-2.83.55-2.28-.36-3.92-1.2-5.44l-.05-.11-.05-.18H16c2.26 0 4.48.65 6.39 1.86a21.74 21.74 0 01-3.76 4.4c-1.38 1.25-.37 2.69.3 3.64A4 4 0 0120 16.49c.65-.28 1.3-.49 1.97-.64a6.18 6.18 0 00-1.4-3.08c-.25-.3-.45-.64-.6-1a23.31 23.31 0 004-4.67 11.95 11.95 0 014 8.6c.71.1 1.4.22 2.03.37V16A14 14 0 0016 2zm-2.51 2.27l.49.9.03.05c.75 1.34 1.4 2.5.97 4.05-.17.68-1 1-2.14 1.4-.82.2-1.56.62-2.14 1.23a4.31 4.31 0 00-.43 4c.19.74.3 1.2.1 1.5-.14.21-.16.21-.35.22l-.33.03a3.94 3.94 0 00-3 1.7c-.58.84-.9 1.82-.93 2.84a11.85 11.85 0 01.91-13.73 12 12 0 016.82-4.19zm4.89 23.04c.77.8 2.18 1.69 4.62 1.69 4.3 0 5.64-5.53 6.25-8.04.1-.42.18-.75.25-.96.15-.45.54-.8.98-1.04.7-.4.7-1.05-.06-1.25-3.63-.95-9.03-1.48-12.42 1.9-1.4 1.41-1.38 3.25-1.1 4.6l.18-.25A14.6 14.6 0 0124 18.79a.75.75 0 01.5 1.42 13.1 13.1 0 00-6.2 4.64 11.4 11.4 0 00-2.3 5.42.75.75 0 001.5.04c.07-.91.36-1.95.88-3z"/></svg>