<svg width="48" height="48" viewBox="0 0 48 48" xmlns="http://www.w3.org/2000/svg"><path d="M23.2 6.52l.8-.02c3.45 0 6.67 1 9.38 2.73-2 3.06-4.4 5.46-5.63 6.6-.97.9-.97 2.39-.15 3.31a10.65 10.65 0 012.61 5.47c.35-.2.71-.38 1.07-.55a24.9 24.9 0 0112.63-1.93A20 20 0 1024.17 44c.04-.12.1-.23.15-.35.39-.77.8-1.51 1.2-2.22a17.44 17.44 0 01-13.77-4.93v-.1c-.25-2.82-.04-4.44.3-5.38.32-.84.74-1.12 1.19-1.28a4.71 4.71 0 011.31-.26c.28-.03.6-.07.88-.12.89-.15 2.05-.51 2.69-1.8.55-1.1.5-2.25.36-3.22-.07-.49-.18-.97-.29-1.41l-.04-.18c-.09-.38-.17-.73-.23-1.07-.15-.8-.13-1.27.01-1.58.1-.23.38-.6 1.42-.9 2.33-.66 3.98-1.65 5-2.95a5.66 5.66 0 001.11-4.27c-.16-1.41-.74-2.79-1.38-4-.28-.5-.57-1-.87-1.46zm21.75 17.76c-4.14-.66-9.05-.17-12.82 1.6-1.9.88-3.58 2.11-4.7 3.75a8.18 8.18 0 00-1.33 5.98 9.9 9.9 0 001.05 3.26 33.4 33.4 0 016.7-7.27 27.85 27.85 0 013.68-2.48h.01v-.01h.01a1 1 0 01.9 1.78 5.67 5.67 0 00-.22.12l-.7.41c-.59.37-1.43.95-2.43 1.74a31.45 31.45 0 00-6.85 7.66 37.9 37.9 0 00-2.14 3.73 1 1 0 101.78.9c.64-1.27 1.3-2.42 1.99-3.46a10.54 10.54 0 007.37 1.94 6.54 6.54 0 003.78-1.63 9.04 9.04 0 002.44-3.62 11.9 11.9 0 00.51-3.89c.07-2.18.15-4.77 1.91-8.77a1.25 1.25 0 00-.94-1.74z"/></svg>