<svg width="16" height="16" viewBox="0 0 16 16" xmlns="http://www.w3.org/2000/svg"><path d="M1 8a7 7 0 0113.97-.67l-.61-.15a9.52 9.52 0 00-4.53.09 10.38 10.38 0 00-.36-.75c-.1-.2-.19-.46-.17-.73.02-.32.18-.58.44-.78.32-.24.72-.78 1.06-1.33.17-.27.31-.51.41-.7l.02-.03A5.97 5.97 0 008 2h-.05c.09.18.19.4.28.63.24.65.46 1.6.07 2.43-.36.77-.98.97-1.45 1.1h-.07c-.45.13-.64.17-.77.38-.13.2-.1.43.04.9l.03.1c.06.19.13.4.16.6.05.26.06.58-.1.89-.16.3-.37.51-.62.65-.24.13-.48.17-.67.2l-.07.02c-.36.06-.54.1-.71.28-.14.15-.22.4-.27.77l-.05.46v.08l-.07.53-.03.11a6 6 0 002.22 1.48c-.2.28-.37.57-.53.87A7 7 0 011 8zm14.93.74a.5.5 0 00-.43-.24h-.03l-.1-.02a6.14 6.14 0 01-.3-.08l-.09-.03c-.23-.06-.51-.14-.84-.21A8.52 8.52 0 0011.19 8c-1.2.15-2.12.56-2.75 1.15a2.85 2.85 0 00-.9 2.62 13.17 13.17 0 013.77-2.23.5.5 0 11.38.92c-.8.32-1.54.7-2.2 1.1a8.47 8.47 0 00-3.44 3.72.5.5 0 10.9.44c.38-.76.84-1.45 1.44-2.06a3.92 3.92 0 00.59.8 3.07 3.07 0 003.9.58c.45-.28.77-.67 1-1.08.37-.63.58-1.38.74-1.94l.1-.37a7.5 7.5 0 011-2.03V9.6c.1-.14.18-.27.23-.38a.5.5 0 00-.02-.48z"/></svg>