<svg width="16" height="16" viewBox="0 0 16 16" xmlns="http://www.w3.org/2000/svg"><path d="M1 8a7 7 0 0113.97-.67 13.56 13.56 0 00-1.04-.24 5.99 5.99 0 00-1.9-3.53l-.38.65a6.37 6.37 0 01-1.35 1.64c0 .03 0 .1.08.27l.13.27c.1.18.2.4.3.66-.34.05-.67.12-.98.22a10.38 10.38 0 00-.36-.75c-.1-.2-.19-.46-.17-.73.02-.32.18-.58.44-.78.32-.24.72-.78 1.06-1.33.17-.27.31-.51.41-.7l.02-.03A5.97 5.97 0 008 2h-.05c.09.18.19.4.28.63.24.65.46 1.6.07 2.43-.36.77-.98.97-1.45 1.1h-.07c-.45.13-.64.17-.77.38-.13.2-.1.43.04.9l.03.1c.06.19.13.4.16.6.05.26.06.58-.1.89-.16.3-.37.51-.62.65-.24.13-.48.17-.67.2l-.07.02c-.36.06-.54.1-.71.28-.14.15-.22.4-.27.77l-.05.46v.08l-.07.53-.03.11a6 6 0 002.22 1.48c-.2.28-.37.57-.53.87A7 7 0 011 8zm1 0c0 1.08.29 2.1.79 2.97 0-.05 0-.1.02-.15.05-.4.16-.93.53-1.32a2.02 2.02 0 011.34-.6c.17-.03.28-.06.36-.1.06-.04.14-.1.21-.24.01-.02.03-.09 0-.24a28.64 28.64 0 01-.16-.58c-.13-.43-.33-1.12.08-1.75.36-.55.94-.69 1.32-.78.04 0 .08-.02.11-.03.4-.1.63-.2.8-.54.2-.46.12-1.07-.1-1.65a5.38 5.38 0 00-.44-.88A6 6 0 002 8zm13.93.74a.5.5 0 00-.43-.24h-.03l-.1-.02a6.14 6.14 0 01-.3-.08l-.09-.03c-.23-.06-.51-.14-.84-.21A8.52 8.52 0 0011.19 8c-1.2.15-2.12.56-2.75 1.15a2.85 2.85 0 00-.9 2.62 13.17 13.17 0 013.77-2.23.5.5 0 11.38.92c-.8.32-1.54.7-2.2 1.1a8.47 8.47 0 00-3.44 3.72.5.5 0 10.9.44c.38-.76.84-1.45 1.44-2.06a3.92 3.92 0 00.59.8 3.07 3.07 0 003.9.58c.45-.28.77-.67 1-1.08.37-.63.58-1.38.74-1.94l.1-.37a7.5 7.5 0 011-2.03V9.6c.1-.14.18-.27.23-.38a.5.5 0 00-.02-.48z"/></svg>