<svg width="16" height="16" viewBox="0 0 16 16" xmlns="http://www.w3.org/2000/svg"><path d="M2 4.5v4.6l.92-1.6A3 3 0 0 1 5.52 6h6.4c-.21-.58-.77-1-1.42-1H7a.5.5 0 0 1-.35-.15l-1.71-1.7A.5.5 0 0 0 4.59 3H3.5C2.67 3 2 3.67 2 4.5ZM7.07 14A.5.5 0 0 1 7 14H3.5A2.5 2.5 0 0 1 1 11.5v-7A2.5 2.5 0 0 1 3.5 2h1.09c.4 0 .78.16 1.06.44L7.2 4h3.29a2.5 2.5 0 0 1 2.46 2.04 2.5 2.5 0 0 1 1.7 3.71l-1.58 2.75a3 3 0 0 1-2.6 1.5H7.07ZM5.52 7A2 2 0 0 0 3.8 8L2.2 10.75A1.5 1.5 0 0 0 3.5 13h6.98a2 2 0 0 0 1.73-1l1.59-2.75A1.5 1.5 0 0 0 12.5 7H5.52Z"/></svg>