<svg width="24" height="24" viewBox="0 0 24 24" xmlns="http://www.w3.org/2000/svg"><path d="M3.5 6.25c0-.97.78-1.75 1.75-1.75h2.88c.2 0 .39.08.53.22l2.06 2.06c.14.14.33.22.53.22h5.5c.97 0 1.75.78 1.75 1.75 0 .09.01.17.04.25H8.72c-1.34 0-2.58.71-3.25 1.87L3.5 14.28V6.25ZM2 17.79A3.25 3.25 0 0 0 5.25 21h11.04c1.33 0 2.57-.72 3.24-1.88l3.03-5.25A3.25 3.25 0 0 0 19.96 9a.75.75 0 0 0 .04-.25c0-1.8-1.45-3.25-3.25-3.25h-5.19L9.72 3.66c-.42-.42-1-.66-1.6-.66H5.26A3.25 3.25 0 0 0 2 6.25V17.79Zm6.72-7.3h11.03a1.75 1.75 0 0 1 1.51 2.63l-3.03 5.25c-.4.7-1.14 1.13-1.95 1.13H5.25a1.75 1.75 0 0 1-1.51-2.63l3.03-5.25c.4-.7 1.14-1.12 1.95-1.12Z"/></svg>