<svg width="24" height="24" viewBox="0 0 24 24" xmlns="http://www.w3.org/2000/svg"><path d="M15.58 11.25H8.42l.9-1a.75.75 0 00-1.13-1l-2 2.25a.75.75 0 000 1l2 2.25a.75.75 0 101.12-1l-.89-1h7.16l-.89 1a.75.75 0 001.12 1l2-2.25.01-.01a.75.75 0 00-.01-1l-2-2.24a.75.75 0 00-1.12 1l.89 1zM6.25 3A3.25 3.25 0 003 6.25v11.5C3 19.55 4.46 21 6.25 21h11.5c1.8 0 3.25-1.46 3.25-3.25V6.25C21 4.45 19.54 3 17.75 3H6.25zM4.5 6.25c0-.97.78-1.75 1.75-1.75h11.5c.97 0 1.75.78 1.75 1.75v.25h-15v-.25zM4.5 8h15v8h-15V8zm15 9.5v.25c0 .97-.78 1.75-1.75 1.75H6.25c-.97 0-1.75-.78-1.75-1.75v-.25h15z"/></svg>