<svg width="28" height="28" viewBox="0 0 28 28" xmlns="http://www.w3.org/2000/svg"><path d="M6.75 3A3.75 3.75 0 003 6.75v14.5A3.75 3.75 0 006.75 25h14.5A3.75 3.75 0 0025 21.25V6.75A3.75 3.75 0 0021.25 3H6.75zm14.5 1.5c1.24 0 2.25 1 2.25 2.25v.75h-19v-.75c0-1.24 1-2.25 2.25-2.25h14.5zM4.5 9h19v10h-19V9zm0 12.25v-.75h19v.75c0 1.24-1 2.25-2.25 2.25H6.75c-1.24 0-2.25-1-2.25-2.25zm14.08-8H9.42l.9-1a.75.75 0 00-1.13-1l-2 2.25a.75.75 0 000 1l2 2.25a.75.75 0 101.12-1l-.89-1h9.16l-.89 1a.75.75 0 001.12 1l2-2.25.01-.01a.75.75 0 00-.01-1l-2-2.24a.75.75 0 00-1.12 1l.89 1z"/></svg>