<svg width="24" height="24" viewBox="0 0 24 24" xmlns="http://www.w3.org/2000/svg"><path d="M18.59 6.41A2 2 0 0022 5a2 2 0 10-3.41 1.41zM14.27 20a2 2 0 103.46-2 2 2 0 00-3.46 2zM4 21a2 2 0 110-4 2 2 0 010 4zM6.59 6.41A2 2 0 0010 5a2 2 0 00-2-2 2 2 0 00-1.41 3.41zm-2.77 9.6l2.44-8.56a2.99 2.99 0 001.92.54l-2.44 8.56a2.99 2.99 0 00-1.92-.54zM17.17 6h-6.34a3 3 0 000-2h6.34a3 3 0 000 2zm-4 14a3 3 0 010-2H6.83a3 3 0 010 2h6.34zm2.65-4l2.44-8.55a2.99 2.99 0 001.92.54l-2.44 8.56a2.99 2.99 0 00-1.92-.54z"/></svg>