<svg width="16" height="16" viewBox="0 0 16 16" xmlns="http://www.w3.org/2000/svg"><path d="M5.09 2c.2-.58.76-1 1.41-1h3c.65 0 1.2.42 1.41 1h.59c.83 0 1.5.67 1.5 1.5v3.72l-.13-.3a1.5 1.5 0 00-2.76 0l-2.1 4.9a1.5 1.5 0 00-.08.18l-.81 1.91A1.5 1.5 0 007.08 15H4.5A1.5 1.5 0 013 13.5v-10C3 2.67 3.67 2 4.5 2h.59zM6.5 2a.5.5 0 000 1h3a.5.5 0 000-1h-3z"/><path d="M11.49 7a.5.5 0 00-.46.3l-2.11 4.95a.5.5 0 00-.05.1l-.83 1.96a.5.5 0 10.92.4L9.68 13h3.63l.73 1.7a.5.5 0 00.91-.4l-.83-1.94a.5.5 0 00-.05-.1L11.95 7.3a.5.5 0 00-.46-.3m0 1.76L12.88 12H10.1l1.38-3.23z"/></svg>