<svg width="24" height="24" viewBox="0 0 24 24" xmlns="http://www.w3.org/2000/svg"><path d="M17.75 14C19 14 20 15 20 16.25v.92c0 .57-.18 1.13-.5 1.6C17.93 20.93 15.41 22 12 22h-.48c.12-.01.37-.03.62-.14a1.5 1.5 0 00.72-1.99c-.1-.24-.3-.41-.38-.5l-.37-.32-.61-.51V16c0-.71-.15-1.39-.42-2h6.67zM12 2a5 5 0 110 10 5 5 0 010-10zM6.5 12a4 4 0 00-4 4v3l-.95.8c-.3.26-.46.39-.5.5a.5.5 0 00.24.65c.1.05.3.05.7.05h9.02c.4 0 .6 0 .7-.05a.5.5 0 00.25-.66c-.05-.1-.2-.23-.5-.49l-.96-.8v-3a4 4 0 00-4-4zM8 22c-.22.58-.8 1-1.5 1-.69 0-1.28-.42-1.5-1h3z"/></svg>