<svg width="24" height="24" viewBox="0 0 24 24" xmlns="http://www.w3.org/2000/svg"><path d="M17.76 14C19 14 20 15 20 16.25v.57c0 .9-.31 1.76-.9 2.44C17.53 21.1 15.15 22 12 22h-.48c.12-.01.37-.03.62-.14.55-.26.87-.82.86-1.4 2.23-.16 3.87-.89 4.96-2.17.35-.41.54-.93.54-1.47v-.57a.75.75 0 00-.74-.75h-6.29a4.97 4.97 0 00-.39-1.5h6.68zM12 2a5 5 0 110 10 5 5 0 010-10zm0 1.5a3.5 3.5 0 100 7 3.5 3.5 0 000-7zM6.5 12a4 4 0 00-4 4v3l-.95.8c-.3.26-.46.39-.5.5a.5.5 0 00.24.65c.1.05.3.05.7.05h9.02c.4 0 .6 0 .7-.05a.5.5 0 00.25-.66c-.05-.1-.2-.23-.5-.49l-.96-.8v-3a4 4 0 00-4-4zM8 22c-.22.58-.8 1-1.5 1-.69 0-1.28-.42-1.5-1h3z"/></svg>