<svg width="20" height="20" viewBox="0 0 20 20" xmlns="http://www.w3.org/2000/svg"><path d="M12.5 2c.28 0 .5.22.5.5v3h1.5a.5.5 0 0 1 0 1H13v3a.5.5 0 0 1-1 0v-7c0-.28.22-.5.5-.5Zm-7 1a.5.5 0 0 0 0 1H9c-.02.58-.1 1.14-.43 1.71-.43.73-1.31 1.55-3.26 2.33a.5.5 0 1 0 .38.92c2.05-.82 3.17-1.75 3.74-2.75.57-.98.57-1.94.57-2.68V3.5a.5.5 0 0 0-.5-.5h-4ZM3 13.5c0-.83.67-1.5 1.5-1.5h11c.83 0 1.5.67 1.5 1.5v3c0 .83-.67 1.5-1.5 1.5h-11A1.5 1.5 0 0 1 3 16.5v-3Zm1.5-.5a.5.5 0 0 0-.5.5v3c0 .28.22.5.5.5h11a.5.5 0 0 0 .5-.5v-3a.5.5 0 0 0-.5-.5h-11Z"/></svg>