<svg width="24" height="24" viewBox="0 0 24 24" xmlns="http://www.w3.org/2000/svg"><path d="M6.75 2a4.75 4.75 0 0 0 0 9.5h4c.41 0 .75-.34.75-.75v-4A4.75 4.75 0 0 0 6.75 2ZM3.5 6.75a3.25 3.25 0 1 1 6.5 0V10H6.75A3.25 3.25 0 0 1 3.5 6.75ZM6.75 22a4.75 4.75 0 1 1 0-9.5h4c.41 0 .75.34.75.75v4A4.75 4.75 0 0 1 6.75 22ZM3.5 17.25a3.25 3.25 0 0 0 6.5 0V14H6.75a3.25 3.25 0 0 0-3.25 3.25ZM22 6.75a4.75 4.75 0 1 0-9.5 0v4c0 .41.34.75.75.75h4A4.75 4.75 0 0 0 22 6.75ZM17.25 3.5a3.25 3.25 0 0 1 0 6.5H14V6.75c0-1.8 1.46-3.25 3.25-3.25Zm0 18.5a4.75 4.75 0 1 0 0-9.5h-4a.75.75 0 0 0-.75.75v4A4.75 4.75 0 0 0 17.25 22Zm3.25-4.75a3.25 3.25 0 0 1-6.5 0V14h3.25c1.8 0 3.25 1.46 3.25 3.25Z"/></svg>