<svg width="28" height="28" viewBox="0 0 28 28" xmlns="http://www.w3.org/2000/svg"><path d="M7.75 2a5.75 5.75 0 1 0 0 11.5h5c.41 0 .75-.34.75-.75v-5A5.75 5.75 0 0 0 7.75 2ZM3.5 7.75a4.25 4.25 0 0 1 8.5 0V12H7.75A4.25 4.25 0 0 1 3.5 7.75ZM7.75 26a5.75 5.75 0 0 1 0-11.5h5c.41 0 .75.34.75.75v5A5.75 5.75 0 0 1 7.75 26ZM3.5 20.25a4.25 4.25 0 0 0 8.5 0V16H7.75a4.25 4.25 0 0 0-4.25 4.25ZM26 7.75a5.75 5.75 0 0 0-11.5 0v5c0 .41.34.75.75.75h5A5.75 5.75 0 0 0 26 7.75ZM20.25 3.5a4.25 4.25 0 0 1 0 8.5H16V7.75c0-2.35 1.9-4.25 4.25-4.25Zm0 22.5a5.75 5.75 0 0 0 0-11.5h-5a.75.75 0 0 0-.75.75v5A5.75 5.75 0 0 0 20.25 26Zm4.25-5.75a4.25 4.25 0 0 1-8.5 0V16h4.25c2.35 0 4.25 1.9 4.25 4.25Z"/></svg>