<svg width="48" height="48" viewBox="0 0 48 48" xmlns="http://www.w3.org/2000/svg"><path d="M13.5 4a9.5 9.5 0 1 0 0 19h8.25c.69 0 1.25-.56 1.25-1.25V13.5A9.5 9.5 0 0 0 13.5 4Zm-7 9.5a7 7 0 0 1 14 0v7h-7a7 7 0 0 1-7-7ZM13.47 44a9.45 9.45 0 1 1-.02-18.9h8.3c.69 0 1.25.56 1.25 1.25v8.15c0 5.25-4.28 9.5-9.53 9.5ZM6.5 34.55a6.97 6.97 0 0 0 6.97 6.95 7.02 7.02 0 0 0 7.03-7v-6.9h-7.05a6.95 6.95 0 0 0-6.95 6.95ZM44 13.5a9.5 9.5 0 0 0-19 0v8.25c0 .69.56 1.25 1.25 1.25h8.25a9.5 9.5 0 0 0 9.5-9.5Zm-9.5-7a7 7 0 1 1 0 14h-7v-7a7 7 0 0 1 7-7Zm0 37.5a9.5 9.5 0 0 0 0-19h-8.25c-.69 0-1.25.56-1.25 1.25v8.25a9.5 9.5 0 0 0 9.5 9.5Zm7-9.5a7 7 0 1 1-14 0v-7h7a7 7 0 0 1 7 7Z"/></svg>