<svg width="20" height="20" viewBox="0 0 20 20" xmlns="http://www.w3.org/2000/svg"><path d="m12.88 8.17.95 1.09c-.34.1-.66.25-.97.41l-.3-.33-.58.93a5.5 5.5 0 0 0-1.76 2.68.5.5 0 0 1-.68-.26L7.5 7.8l-1.24 2.9a.5.5 0 0 1-.46.31H2.5a.5.5 0 0 1 0-1h2.97l1.57-3.7a.5.5 0 0 1 .92 0l2.13 5.11 1.99-3.18a.5.5 0 0 1 .8-.06Zm3.84-3.86a4.42 4.42 0 0 1 .98 4.7L17.5 9h-.89c.67-1.28.48-2.9-.6-3.98A3.3 3.3 0 0 0 11.3 5l-.95.96a.5.5 0 0 1-.71 0L8.68 5a3.3 3.3 0 0 0-4.7-.01A3.4 3.4 0 0 0 3.41 9H2.5l-.18.01a4.4 4.4 0 0 1 .94-4.74 4.3 4.3 0 0 1 6.13.02l.6.61.6-.6.1-.1a4.3 4.3 0 0 1 6.03.11ZM4.86 12l4.78 4.85a.5.5 0 0 0 .71-.7l-4.14-4.2a1.5 1.5 0 0 1-.41.05h-.94ZM20 14.5a4.5 4.5 0 1 1-9 0 4.5 4.5 0 0 1 9 0Zm-2.15-1.85a.5.5 0 0 0-.7 0l-2.65 2.64-.65-.64a.5.5 0 0 0-.7.7l1 1c.2.2.5.2.7 0l3-3a.5.5 0 0 0 0-.7Z"/></svg>