<svg width="20" height="20" viewBox="0 0 20 20" xmlns="http://www.w3.org/2000/svg"><path d="M3 6a3 3 0 0 1 3-3h8a3 3 0 0 1 3 3v3.6A5.5 5.5 0 0 0 9.6 17H6a3 3 0 0 1-3-3V6Zm6.35.4a.5.5 0 0 0-.7 0L7.23 7.8l-.4-.35a.5.5 0 0 0-.67.73l.75.69c.2.18.5.17.7-.02L9.34 7.1a.5.5 0 0 0 0-.7Zm0 5.7a.5.5 0 0 0-.7-.7l-1.42 1.4-.4-.35a.5.5 0 0 0-.67.73l.75.69c.2.18.5.17.7-.02l1.74-1.75ZM11 7a.5.5 0 0 0 0 1h2.5a.5.5 0 0 0 0-1H11Zm8 7.5a4.5 4.5 0 1 0-9 0 4.5 4.5 0 0 0 9 0Zm-4-2V14h1.5a.5.5 0 0 1 0 1H15v1.5a.5.5 0 0 1-1 0V15h-1.5a.5.5 0 0 1 0-1H14v-1.5a.5.5 0 0 1 1 0Z"/></svg>