<svg width="20" height="20" viewBox="0 0 20 20" xmlns="http://www.w3.org/2000/svg"><path d="M6 3a3 3 0 0 0-3 3v8a3 3 0 0 0 3 3h3.6c-.16-.32-.3-.65-.4-1H6a2 2 0 0 1-2-2V6c0-1.1.9-2 2-2h8a2 2 0 0 1 2 2v3.2c.35.1.68.24 1 .4V6a3 3 0 0 0-3-3H6Zm3.35 4.1a.5.5 0 0 0-.7-.7L7.23 7.8l-.4-.35a.5.5 0 0 0-.67.73l.75.69c.2.18.5.17.7-.02L9.34 7.1Zm0 4.3c.2.2.2.5 0 .7L7.6 13.85a.5.5 0 0 1-.69.02l-.75-.69a.5.5 0 0 1 .68-.73l.4.36 1.4-1.41c.2-.2.52-.2.71 0Zm1.15-3.9c0-.28.22-.5.5-.5h2.5a.5.5 0 0 1 0 1H11a.5.5 0 0 1-.5-.5Zm8.5 7a4.5 4.5 0 1 1-9 0 4.5 4.5 0 0 1 9 0Zm-4-2a.5.5 0 0 0-1 0V14h-1.5a.5.5 0 0 0 0 1H14v1.5a.5.5 0 0 0 1 0V15h1.5a.5.5 0 0 0 0-1H15v-1.5Z"/></svg>