<svg width="24" height="24" viewBox="0 0 24 24" xmlns="http://www.w3.org/2000/svg"><path d="M6.25 3A3.25 3.25 0 0 0 3 6.25v11.5C3 19.55 4.46 21 6.25 21h5.77c-.3-.46-.53-.97-.7-1.5H6.24c-.97 0-1.75-.78-1.75-1.75V6.25c0-.97.78-1.75 1.75-1.75h11.5c.97 0 1.75.78 1.75 1.75v5.06c.53.18 1.04.42 1.5.71V6.25C21 4.45 19.54 3 17.75 3H6.25Zm6.25 6.25c0-.41.34-.75.75-.75h3.5a.75.75 0 0 1 0 1.5h-3.5a.75.75 0 0 1-.75-.75Zm-1.72-.47a.75.75 0 1 0-1.06-1.06L8.25 9.19l-.47-.47a.75.75 0 0 0-1.06 1.06l1 1c.3.3.77.3 1.06 0l2-2Zm0 4.44c.3.3.3.77 0 1.06l-2 2c-.3.3-.77.3-1.06 0l-1-1a.75.75 0 1 1 1.06-1.06l.47.47 1.47-1.47c.3-.3.77-.3 1.06 0ZM23 17.5a5.5 5.5 0 1 0-11 0 5.5 5.5 0 0 0 11 0Zm-5 .5v2.5a.5.5 0 1 1-1 0V18h-2.5a.5.5 0 0 1 0-1H17v-2.5a.5.5 0 1 1 1 0V17h2.5a.5.5 0 0 1 0 1H18Z"/></svg>