<svg width="24" height="24" viewBox="0 0 24 24" xmlns="http://www.w3.org/2000/svg"><path d="M12.82 5.58 12 6.4l-.82-.82a5.38 5.38 0 0 0-8.93 5.44L2.5 11h3.24l1.43-3a1.75 1.75 0 0 1 3.15-.03l1.95 3.91 1.56-2.15a1.75 1.75 0 0 1 2.74-.13l1.22 1.4h3.71c.08 0 .17 0 .25.02a5.37 5.37 0 0 0-8.93-5.44Zm-1.35 15.5L4.89 14.5h1.96c.68 0 1.3-.39 1.58-1l.36-.76 1.64 3.3a1.75 1.75 0 0 0 2.99.23l1.96-2.71.3.34c.34.38.82.6 1.32.6h2.11l-6.58 6.58c-.3.29-.77.29-1.06 0ZM8.74 8c.29 0 .55.16.68.41l2.7 5.4 2.52-3.5a.75.75 0 0 1 1.17-.05L17.34 12h3.91a.75.75 0 0 1 0 1.5H17a.75.75 0 0 1-.56-.26l-1.13-1.29-2.7 3.74a.75.75 0 0 1-1.28-.1l-2.56-5.13-1.23 2.61a.75.75 0 0 1-.68.43H2.75a.75.75 0 0 1 0-1.5h3.63l1.7-3.57A.75.75 0 0 1 8.73 8Z"/></svg>