<svg width="12" height="12" viewBox="0 0 12 12" xmlns="http://www.w3.org/2000/svg"><path d="M2.5 6A1.5 1.5 0 0 1 1 4.5v-2C1 1.67 1.67 1 2.5 1h3C6.33 1 7 1.67 7 2.5v2C7 5.33 6.33 6 5.5 6h-3ZM2 4.5c0 .28.22.5.5.5h3a.5.5 0 0 0 .5-.5v-2a.5.5 0 0 0-.5-.5h-3a.5.5 0 0 0-.5.5v2ZM6.5 11A1.5 1.5 0 0 1 5 9.5v-1C5 7.67 5.67 7 6.5 7h3c.83 0 1.5.67 1.5 1.5v1c0 .83-.67 1.5-1.5 1.5h-3ZM6 9.5c0 .28.22.5.5.5h3a.5.5 0 0 0 .5-.5v-1a.5.5 0 0 0-.5-.5h-3a.5.5 0 0 0-.5.5v1Zm2-5a1.5 1.5 0 1 0 3 0v-2a1.5 1.5 0 0 0-3 0v2Zm1.5.5a.5.5 0 0 1-.5-.5v-2a.5.5 0 0 1 1 0v2a.5.5 0 0 1-.5.5Zm-7 6A1.5 1.5 0 0 1 1 9.5v-1a1.5 1.5 0 1 1 3 0v1c0 .83-.67 1.5-1.5 1.5ZM2 9.5a.5.5 0 0 0 1 0v-1a.5.5 0 0 0-1 0v1Z"/></svg>