<svg width="20" height="20" viewBox="0 0 20 20" xmlns="http://www.w3.org/2000/svg"><path d="M14.5 3h1c.83 0 1.5.67 1.5 1.5v3c0 .83-.67 1.5-1.5 1.5h-1A1.5 1.5 0 0 1 13 7.5v-3c0-.83.67-1.5 1.5-1.5Zm-10 0h5c.83 0 1.5.67 1.5 1.5v3c0 .83-.67 1.5-1.5 1.5h-5A1.5 1.5 0 0 1 3 7.5v-3C3 3.67 3.67 3 4.5 3Zm0 8h1c.83 0 1.5.67 1.5 1.5v3c0 .83-.67 1.5-1.5 1.5h-1A1.5 1.5 0 0 1 3 15.5v-3c0-.83.67-1.5 1.5-1.5ZM9 12.5c0-.83.67-1.5 1.5-1.5h5c.83 0 1.5.67 1.5 1.5v3c0 .83-.67 1.5-1.5 1.5h-5A1.5 1.5 0 0 1 9 15.5v-3Z"/></svg>