<svg width="20" height="20" viewBox="0 0 20 20" xmlns="http://www.w3.org/2000/svg"><path d="M2 5.5C2 4.67 2.67 4 3.5 4h13c.83 0 1.5.67 1.5 1.5v9c0 .83-.67 1.5-1.5 1.5h-13A1.5 1.5 0 0 1 2 14.5v-9ZM3.5 5a.5.5 0 0 0-.5.5v9c0 .28.22.5.5.5h13a.5.5 0 0 0 .5-.5v-9a.5.5 0 0 0-.5-.5h-13Zm2 8.25a.75.75 0 1 1-1.5 0 .75.75 0 0 1 1.5 0ZM4 10.5c0-.28.22-.5.5-.5A3.5 3.5 0 0 1 8 13.5a.5.5 0 1 1-1 0A2.5 2.5 0 0 0 4.5 11a.5.5 0 0 1-.5-.5ZM4 8c0-.28.22-.5.5-.5a6 6 0 0 1 6 6 .5.5 0 0 1-1 0 5 5 0 0 0-5-5A.5.5 0 0 1 4 8Z"/></svg>