<svg width="32" height="32" viewBox="0 0 32 32" xmlns="http://www.w3.org/2000/svg"><path d="M12.93 5.36a3.6 3.6 0 00-2.3-.29l-1.65.32a4 4 0 00-2.8 2.1c-1.92 3.76-3.37 6.83-3.93 9.45-.57 2.7-.22 5.02 1.51 7.13 1.15 1.4 3.13 1.11 4.15-.05.8-.9 1.7-1.94 2.58-2.97A3.01 3.01 0 0112.77 20h2.45c.16-.7.4-1.37.72-2h-3.17c-1.46 0-2.85.64-3.8 1.75a333.3 333.3 0 01-2.56 2.94.9.9 0 01-.62.31.57.57 0 01-.49-.2c-1.26-1.54-1.57-3.2-1.1-5.44.5-2.32 1.82-5.17 3.75-8.96a2 2 0 011.4-1.05l1.66-.31c.38-.08.74-.03 1.02.11l.4.2c.75.4 1.6.65 2.5.65h2.14c.9 0 1.74-.24 2.5-.64.13-.08.26-.15.4-.21.28-.14.63-.19 1.02-.11l1.65.31a2 2 0 011.4 1.05 88.3 88.3 0 012.37 4.93c.95.26 1.84.67 2.63 1.21a63.24 63.24 0 00-3.22-7.05 4 4 0 00-2.8-2.1l-1.66-.32a3.6 3.6 0 00-2.3.3l-.44.22c-.5.27-1.03.41-1.55.41h-2.15c-.52 0-1.05-.14-1.55-.4l-.44-.24zM16 13a1.5 1.5 0 100-3 1.5 1.5 0 000 3zm15.5 9a7.5 7.5 0 10-15 0 7.5 7.5 0 0015 0zm-6.75-4.25v5.5a.75.75 0 01-1.5 0v-5.5a.75.75 0 011.5 0zM25 26a1 1 0 11-2 0 1 1 0 012 0z"/></svg>