<svg width="24" height="24" viewBox="0 0 24 24" xmlns="http://www.w3.org/2000/svg"><path d="M9.8 4.5a2.58 2.58 0 00-1.63-.2l-1.18.23c-.87.16-1.6.71-2 1.5-1.38 2.67-2.4 4.86-2.8 6.73-.42 1.92-.17 3.57 1.07 5.07.82 1 2.23.8 2.97-.03l1.81-2.09c.41-.47 1-.75 1.63-.75h1.51c.12-.5.3-.98.53-1.43H9.67c-1.04 0-2.03.46-2.7 1.25l-1.82 2.07a.64.64 0 01-.44.22.4.4 0 01-.35-.15c-.9-1.1-1.12-2.27-.78-3.87.35-1.65 1.3-3.67 2.67-6.37.2-.4.57-.67 1-.75l1.19-.22c.27-.06.53-.03.73.08l.4.2c.54.3 1.15.47 1.79.47h1.28c.64 0 1.26-.17 1.8-.47l.4-.2c.2-.1.45-.14.72-.08l1.19.22c.43.08.8.36 1 .75.7 1.37 1.29 2.57 1.74 3.63.7.23 1.35.56 1.92 1A42.28 42.28 0 0019 6.03a2.85 2.85 0 00-2-1.5l-1.18-.23a2.58 2.58 0 00-1.64.2l-.44.24c-.35.19-.73.3-1.1.3h-1.3c-.37 0-.75-.11-1.1-.3L9.8 4.5zM12 10a1 1 0 100-2 1 1 0 000 2zm11 6.5a5.5 5.5 0 11-11 0 5.5 5.5 0 0111 0zM17.5 13a.5.5 0 00-.5.5v4a.5.5 0 001 0v-4a.5.5 0 00-.5-.5zm0 7.13a.62.62 0 100-1.25.62.62 0 000 1.25z"/></svg>