<svg width="24" height="24" viewBox="0 0 24 24" xmlns="http://www.w3.org/2000/svg"><path d="M9.8 4.5a2.58 2.58 0 00-1.63-.2l-1.18.23c-.87.16-1.6.71-2 1.5-1.38 2.67-2.4 4.86-2.8 6.73-.42 1.92-.17 3.57 1.07 5.07.82 1 2.23.8 2.97-.03l1.81-2.09c.41-.47 1-.75 1.63-.75h1.51a6.5 6.5 0 0110.23-3.65A42.28 42.28 0 0019 6.03a2.85 2.85 0 00-2-1.5l-1.18-.23a2.58 2.58 0 00-1.64.2l-.44.24c-.35.19-.73.3-1.1.3h-1.3c-.37 0-.75-.11-1.1-.3L9.8 4.5zM12 10a1 1 0 110-2 1 1 0 010 2zm11 6.5a5.5 5.5 0 11-11 0 5.5 5.5 0 0111 0zM17.5 13a.5.5 0 00-.5.5v4a.5.5 0 001 0v-4a.5.5 0 00-.5-.5zm0 7.13a.62.62 0 100-1.25.62.62 0 000 1.25z"/></svg>