<svg width="20" height="20" viewBox="0 0 20 20" xmlns="http://www.w3.org/2000/svg"><path d="M8.33 3.71a2.12 2.12 0 00-1.35-.17l-.9.17c-.7.14-1.32.6-1.66 1.25-1.1 2.16-1.94 3.93-2.27 5.43a4.51 4.51 0 00.82 4.06c.66.82 1.8.65 2.4-.02L6.9 12.7A2 2 0 018.4 12h.8a5.5 5.5 0 018.16-3.2 38.92 38.92 0 00-1.79-3.84 2.37 2.37 0 00-1.66-1.25l-.9-.17a2.12 2.12 0 00-1.35.17l-.06.03c-.32.17-.67.26-1.01.26H9.4c-.35 0-.7-.1-1.02-.26l-.06-.03zM10 7.5A.75.75 0 1110 6a.75.75 0 010 1.5zm9 6a4.5 4.5 0 11-9 0 4.5 4.5 0 019 0zM14.5 11a.5.5 0 00-.5.5v2a.5.5 0 001 0v-2a.5.5 0 00-.5-.5zm0 5.13a.62.62 0 100-1.25.62.62 0 000 1.24z"/></svg>