<svg width="20" height="20" viewBox="0 0 20 20" xmlns="http://www.w3.org/2000/svg"><path d="M3 5.75A2.75 2.75 0 0 1 5.75 3h8.5A2.75 2.75 0 0 1 17 5.75V9.4a2.99 2.99 0 0 0-3.74.6H9.5a.5.5 0 0 0 0 1h3.17a3 3 0 0 0 0 2H9.5a.5.5 0 0 0 0 1h3.76l.01.01A2.5 2.5 0 0 0 11.04 17H5.75A2.75 2.75 0 0 1 3 14.25v-8.5ZM6.75 8a.75.75 0 1 0 0-1.5.75.75 0 0 0 0 1.5Zm.75 2.25a.75.75 0 1 0-1.5 0 .75.75 0 0 0 1.5 0ZM6.75 14a.75.75 0 1 0 0-1.5.75.75 0 0 0 0 1.5ZM9 7.5c0 .28.22.5.5.5h4a.5.5 0 0 0 0-1h-4a.5.5 0 0 0-.5.5Zm8.5 4.5a2 2 0 1 1-4 0 2 2 0 0 1 4 0Zm1.5 4.5c0 1.25-1 2.5-3.5 2.5S12 17.75 12 16.5c0-.83.67-1.5 1.5-1.5h4c.83 0 1.5.67 1.5 1.5Z"/></svg>