<svg width="20" height="20" viewBox="0 0 20 20" xmlns="http://www.w3.org/2000/svg"><path d="M5.75 3h8.5A2.75 2.75 0 0 1 17 5.75V9.4c-.3-.17-.64-.3-1-.36V5.75C16 4.78 15.22 4 14.25 4h-8.5C4.78 4 4 4.78 4 5.75v8.5c0 .97.78 1.75 1.75 1.75h5.3a2.51 2.51 0 0 0-.01 1H5.75A2.75 2.75 0 0 1 3 14.25v-8.5A2.75 2.75 0 0 1 5.75 3Zm3.75 7h3.76a3 3 0 0 0-.59 1H9.5a.5.5 0 0 1 0-1Zm0 3h3.17a3 3 0 0 0 .6 1H9.5a.5.5 0 0 1 0-1Zm-2-5.75a.75.75 0 1 1-1.5 0 .75.75 0 0 1 1.5 0ZM6.75 11a.75.75 0 1 0 0-1.5.75.75 0 0 0 0 1.5Zm0 3a.75.75 0 1 0 0-1.5.75.75 0 0 0 0 1.5ZM9.5 7a.5.5 0 0 0 0 1h4a.5.5 0 0 0 0-1h-4Zm8 5a2 2 0 1 1-4 0 2 2 0 0 1 4 0Zm1.5 4.5c0 1.25-1 2.5-3.5 2.5S12 17.75 12 16.5c0-.83.67-1.5 1.5-1.5h4c.83 0 1.5.67 1.5 1.5Z"/></svg>