<svg width="32" height="32" viewBox="0 0 32 32" xmlns="http://www.w3.org/2000/svg"><path d="M7.5 3A4.5 4.5 0 0 0 3 7.5v17A4.5 4.5 0 0 0 7.5 29h10.71a4.93 4.93 0 0 1-.71-2.56 3.93 3.93 0 0 1 3.92-3.94H15a1 1 0 1 1 0-2h5.23a5 5 0 0 1 .19-3.5H15a1 1 0 1 1 0-2h7a4.98 4.98 0 0 1 7 1V7.5A4.5 4.5 0 0 0 24.5 3h-17Zm3 6a1.5 1.5 0 1 1 0 3 1.5 1.5 0 0 1 0-3Zm0 5.5a1.5 1.5 0 1 1 0 3 1.5 1.5 0 0 1 0-3Zm1.5 7a1.5 1.5 0 1 1-3 0 1.5 1.5 0 0 1 3 0Zm3-10a1 1 0 1 1 0-2h7a1 1 0 1 1 0 2h-7ZM28.5 19a3.5 3.5 0 1 1-7 0 3.5 3.5 0 0 1 7 0Zm2.5 7.44c0 2.02-1.71 4.06-6 4.06s-6-2.03-6-4.06A2.43 2.43 0 0 1 21.42 24h7.16c1.34 0 2.42 1.1 2.42 2.44Z"/></svg>