<svg width="24" height="24" viewBox="0 0 24 24" xmlns="http://www.w3.org/2000/svg"><path d="M2 21.5V3a1 1 0 0 1 2 0v.96h16.98a1.02 1.02 0 0 1 0 2.04H4v15.5a.5.5 0 0 1-.5.5h-1a.5.5 0 0 1-.5-.5Zm3-14c0-.28.22-.5.5-.5h14c.28 0 .5.22.5.5v7.75A3.75 3.75 0 0 1 16.25 19h-7.5A3.75 3.75 0 0 1 5 15.25V7.5Zm4.35 4.2a1 1 0 0 0-.35.76v3.04c0 .28.22.5.5.5h1.75c.14 0 .25-.11.25-.25V14.5c0-.28.22-.5.5-.5h1c.28 0 .5.22.5.5v1.25c0 .14.11.25.25.25h1.75a.5.5 0 0 0 .5-.5v-3.04a1 1 0 0 0-.35-.76l-2.82-2.42a.5.5 0 0 0-.66 0L9.35 11.7Z"/></svg>