<svg width="24" height="24" viewBox="0 0 24 24" xmlns="http://www.w3.org/2000/svg"><path d="M6 3.75a.75.75 0 0 1 1.5 0v14.69l.72-.72a.75.75 0 0 1 1.06 1.06l-2 2c-.3.3-.77.3-1.06 0l-2-2a.75.75 0 1 1 1.06-1.06l.72.72V3.75Zm5.55 9.22 3.76-9.5a.75.75 0 0 1 1.34-.1l.05.1 3.75 9.5a.75.75 0 0 1-1.35.65l-.05-.1-1-2.52h-4.1l-1 2.52a.75.75 0 0 1-.88.45l-.1-.03a.75.75 0 0 1-.45-.87l.03-.1ZM16 5.79 14.54 9.5h2.92L16 5.8Zm.25 8.21a.75.75 0 0 0-.75.75v3.69l-.72-.72a.75.75 0 1 0-1.06 1.06l2 2c.3.3.77.3 1.06 0l2-2a.75.75 0 1 0-1.06-1.06l-.72.72v-3.69a.75.75 0 0 0-.75-.75Z"/></svg>