<svg width="16" height="16" viewBox="0 0 16 16" xmlns="http://www.w3.org/2000/svg"><path d="M5.03 13h5.94a2.98 2.98 0 0 0-.3-1.11 2.77 2.77 0 0 0-.7-.81l-.31-.27-.19-.15c-.18-.15-.4-.34-.61-.56A3 3 0 0 1 8 8a3 3 0 0 1-.86 2.1c-.2.22-.43.41-.61.56l-.19.15-.32.27c-.3.26-.52.5-.68.8-.14.25-.26.6-.31 1.12ZM3 2.65C2.98 1.68 3.8 1 4.68 1h6.64c.88 0 1.7.68 1.68 1.65a5.31 5.31 0 0 1-.57 2.4 4.74 4.74 0 0 1-1.14 1.38l-.4.34-.15.11c-.17.14-.3.26-.42.38a1 1 0 0 0 0 1.48 4.36 4.36 0 0 0 .57.5l.4.33c.4.34.81.76 1.14 1.38.32.61.54 1.39.57 2.4.02.97-.8 1.65-1.68 1.65H4.68c-.88 0-1.7-.68-1.68-1.65.03-1.01.24-1.79.57-2.4.33-.62.75-1.04 1.14-1.38l.4-.33.15-.12c.17-.14.3-.26.42-.38a1 1 0 0 0 0-1.48 4.37 4.37 0 0 0-.57-.5l-.4-.33c-.4-.34-.82-.76-1.14-1.38A5.31 5.31 0 0 1 3 2.65ZM4.68 2c-.4 0-.69.3-.68.62.02.88.2 1.5.45 1.96.25.46.57.8.91 1.1l.37.3.16.13c.18.14.36.3.52.47a2 2 0 0 1 0 2.84c-.16.17-.34.33-.52.47l-.16.13-.37.3c-.34.3-.66.63-.9 1.1A4.33 4.33 0 0 0 4 13.38c0 .32.27.62.68.62h6.64c.4 0 .68-.3.68-.62-.03-.88-.21-1.5-.46-1.96-.24-.47-.56-.8-.9-1.1l-.37-.3-.17-.13c-.17-.14-.35-.3-.51-.47a2 2 0 0 1 0-2.84 5.33 5.33 0 0 1 .68-.6l.37-.3c.34-.3.66-.64.9-1.1.25-.46.44-1.08.46-1.96 0-.32-.28-.62-.68-.62H4.68Z"/></svg>