<svg width="24" height="24" viewBox="0 0 24 24" xmlns="http://www.w3.org/2000/svg"><path d="M17.25 19.5H6.75a.25.25 0 01-.25-.25v-.6A3.24 3.24 0 017.92 16L10 14.52A3.22 3.22 0 0011.44 12h1.12A3.22 3.22 0 0014 14.52L16.08 16a3.24 3.24 0 011.42 2.65v.6a.25.25 0 01-.25.25zM6.75 2A2.75 2.75 0 004 4.75v.42c0 2.02 1.06 3.89 2.8 4.93l1.8 1.09c.47.28.5.95.04 1.26l-2.12 1.44A5.75 5.75 0 004 18.65v.6A2.75 2.75 0 006.75 22h10.5A2.75 2.75 0 0020 19.25v-.6c0-1.9-.94-3.69-2.52-4.76l-2.12-1.44a.75.75 0 01.04-1.26l1.8-1.09A5.75 5.75 0 0020 5.17v-.42A2.75 2.75 0 0017.25 2H6.75zM5.5 4.75c0-.69.56-1.25 1.25-1.25h10.5c.69 0 1.25.56 1.25 1.25v.42c0 1.5-.78 2.88-2.06 3.64L14.63 9.9a2.25 2.25 0 00-.11 3.79l2.12 1.44c1.16.8 1.86 2.1 1.86 3.52v.6c0 .69-.56 1.25-1.25 1.25H6.75c-.69 0-1.25-.56-1.25-1.25v-.6c0-1.41.7-2.73 1.86-3.52l2.12-1.44a2.25 2.25 0 00-.1-3.79L7.55 8.81A4.25 4.25 0 015.5 5.17v-.42z"/></svg>