<svg width="20" height="20" viewBox="0 0 20 20" xmlns="http://www.w3.org/2000/svg"><path d="M6.2 2.77C6.31 2.31 6.73 2 7.2 2h5.25c.73 0 1.24.71 1.01 1.4L12.2 7h2.56c.95 0 1.4 1.14.77 1.81l-.24.25a5.54 5.54 0 00-1.38-.03l.9-.91a.06.06 0 00.01-.03v-.05a.08.08 0 00-.03-.03L14.77 8H11.5a.5.5 0 01-.47-.67l1.5-4.25a.06.06 0 00-.07-.08H7.21a.06.06 0 00-.06.05L4.9 10.92c0 .04.02.08.06.08h1.91a.5.5 0 01.49.62l-1.33 5.3v.04l.03.03.04.01h.01l.03-.02 2.88-2.94a5.58 5.58 0 00.05 1.37l-2.21 2.26c-.76.79-2.06.06-1.8-1L6.23 12H4.96c-.7 0-1.21-.68-1.02-1.36L6.2 2.77zM19 14.5a4.5 4.5 0 11-9 0 4.5 4.5 0 019 0zm-2.29-.44l-2.97-1.65a.5.5 0 00-.74.44v3.3c0 .38.41.62.74.44l2.97-1.65a.5.5 0 000-.88z"/></svg>