<svg width="24" height="24" viewBox="0 0 24 24" xmlns="http://www.w3.org/2000/svg"><path d="M8.2 4c.47 0 .92.14 1.3.4l.15.12 2.37 1.98h7.73c1.14 0 2.08.84 2.23 1.94l.01.16.01.15v4.55a2.74 2.74 0 00-1.5-.29V8.75c0-.38-.28-.7-.65-.74l-.1-.01h-7.73L9.65 9.98c-.36.3-.8.47-1.25.51l-.2.01H3.5v7.25c0 .38.28.7.65.74l.1.01h7.08A3.02 3.02 0 0011 20H4.25c-1.2 0-2.17-.93-2.24-2.1L2 17.75V6.25c0-1.2.93-2.17 2.1-2.24L4.25 4h3.96zm0 1.5H4.26c-.38 0-.7.28-.74.65l-.01.1V9h4.7c.15 0 .28-.04.4-.11l.09-.06 1.89-1.58-1.9-1.58a.75.75 0 00-.37-.16l-.1-.01zM15.76 17a2.25 2.25 0 100-4.5 2.25 2.25 0 000 4.5zm0 6c2.68 0 3.75-1.57 3.75-3.13 0-1.03-.72-1.87-1.6-1.87h-4.3c-.88 0-1.6.84-1.6 1.88 0 1.56 1.07 3.12 3.75 3.12zm6.75-7.25a1.75 1.75 0 11-3.5 0 1.75 1.75 0 013.5 0zM19.92 22c.4-.66.58-1.4.58-2.13 0-.47-.11-.95-.32-1.37h1.54c.7 0 1.28.59 1.28 1.31 0 1.1-.85 2.19-3 2.19h-.08z"/></svg>