<svg width="24" height="24" viewBox="0 0 24 24" xmlns="http://www.w3.org/2000/svg"><path d="M10.25 4.25c.41 0 .75.34.75.75v8h8c.38 0 .7.28.74.65l.01.1c0 4.97-4.03 8.5-9 8.5a9 9 0 0 1-9-9c0-4.97 3.53-9 8.5-9ZM9.5 5.79l-.2.02c-3.7.47-6.05 3.62-6.05 7.44a7.5 7.5 0 0 0 7.5 7.5c3.82 0 6.97-2.35 7.44-6.04l.02-.21h-7.96a.75.75 0 0 1-.74-.65l-.01-.1V5.79Zm3.75-4.04a9 9 0 0 1 9 9c0 .41-.34.75-.75.75h-8.25a.75.75 0 0 1-.75-.75V2.5c0-.41.34-.75.75-.75ZM14 3.29V10h6.71l-.02-.2A7.5 7.5 0 0 0 14.2 3.3L14 3.3Z"/></svg>