<svg width="20" height="20" viewBox="0 0 20 20" xmlns="http://www.w3.org/2000/svg"><path d="M3 5c0-1.1.9-2 2-2h10a2 2 0 0 1 2 2v4.5c-.42-.31-.94-.5-1.5-.5h-2c-.82 0-1.54.4-2 1h-2a.5.5 0 0 0 0 1h1.55v.04A2.5 2.5 0 0 0 9 13.5V17H5a2 2 0 0 1-2-2V5Zm3.75 3a.75.75 0 1 0 0-1.5.75.75 0 0 0 0 1.5ZM6 10.25a.75.75 0 1 0 1.5 0 .75.75 0 0 0-1.5 0ZM6.75 14a.75.75 0 1 0 0-1.5.75.75 0 0 0 0 1.5Zm6.75-7h-4a.5.5 0 0 0 0 1h4a.5.5 0 0 0 0-1ZM12 12v-.5c0-.83.67-1.5 1.5-1.5h2c.83 0 1.5.67 1.5 1.5v.5h.5c.83 0 1.5.67 1.5 1.5V15h-2v-.5a.5.5 0 0 0-1 0v.5h-3v-.5a.5.5 0 0 0-1 0v.5h-2v-1.5c0-.83.67-1.5 1.5-1.5h.5Zm1-.5v.5h3v-.5a.5.5 0 0 0-.5-.5h-2a.5.5 0 0 0-.5.5Zm4 4.5h2v1.5c0 .83-.67 1.5-1.5 1.5h-6a1.5 1.5 0 0 1-1.5-1.5V16h2v.5a.5.5 0 0 0 1 0V16h3v.5a.5.5 0 0 0 1 0V16Z"/></svg>