<svg width="20" height="20" viewBox="0 0 20 20" xmlns="http://www.w3.org/2000/svg"><path d="M15 2.5a.5.5 0 0 0-1 0v13.8l-2.15-2.15a.5.5 0 0 0-.7.7l3 3c.2.2.5.2.7 0l3-3a.5.5 0 0 0-.7-.7L15 16.29V2.5ZM6 19c2.2 0 4-1.34 4-3s-1.8-3-4-3-4 1.34-4 3 1.8 3 4 3Zm2.23-1.68c-.54.4-1.32.68-2.23.68-.9 0-1.7-.28-2.23-.68S3 16.44 3 16c0-.44.24-.92.77-1.32C4.31 14.28 5.1 14 6 14c.9 0 1.7.28 2.23.68S9 15.56 9 16c0 .44-.24.92-.77 1.32ZM2.5 11a.5.5 0 0 0 0 1h7a.5.5 0 0 0 0-1h-3V9.5a.5.5 0 0 0-1 0V11h-3Zm0-9a.5.5 0 0 0 0 1H8v5.5a.5.5 0 0 0 1 0v-6a.5.5 0 0 0-.5-.5h-6Z"/></svg>