<svg width="24" height="24" viewBox="0 0 24 24" xmlns="http://www.w3.org/2000/svg"><path d="M2 2.75c0-.41.34-.75.75-.75h7.5c.41 0 .75.34.75.75v7.5a.75.75 0 01-1.5 0V3.5H2.75A.75.75 0 012 2.75zm0 11c0-.41.34-.75.75-.75h3.5v-1.25a.75.75 0 011.5 0V13h3.5a.75.75 0 010 1.5h-8.5a.75.75 0 01-.75-.75zM12 19c0 2.2-2.24 4-5 4s-5-1.8-5-4 2.24-4 5-4 5 1.8 5 4zm-1.5 0c0-1.09-1.24-2.5-3.5-2.5S3.5 17.91 3.5 19s1.24 2.5 3.5 2.5 3.5-1.41 3.5-2.5zm6.75-17c.41 0 .75.34.75.75v16.69l2.22-2.22a.75.75 0 111.06 1.06l-3.5 3.5c-.3.3-.77.3-1.06 0l-3.5-3.5a.75.75 0 111.06-1.06l2.22 2.22V2.75c0-.41.34-.75.75-.75z"/></svg>