<svg width="24" height="24" viewBox="0 0 24 24" xmlns="http://www.w3.org/2000/svg"><path d="M16.3 2.33a3.75 3.75 0 00-2.6 0l-4.3 1.6c-.7.25-1.15.9-1.15 1.63v2.8c.8-.13 1.63-.05 2.4.23l4.3 1.6c1.08.4 1.8 1.42 1.8 2.57v5.67c0 .32-.06.64-.16.93l4.02-1.49c.68-.25 1.14-.9 1.14-1.64V5.56c0-.73-.46-1.38-1.14-1.64L16.3 2.33zm-4.53 4.88a.75.75 0 11.49-1.42l2.66.92c.05.02.1.02.16 0l2.65-.92a.75.75 0 11.5 1.42l-2.66.92c-.37.13-.77.13-1.14 0l-2.66-.92zM7.7 9.53a3.75 3.75 0 012.6 0l4.3 1.6c.7.24 1.15.9 1.15 1.63v5.67c0 .73-.46 1.39-1.14 1.64l-4.31 1.6c-.84.3-1.76.3-2.6 0l-4.3-1.6a1.75 1.75 0 01-1.15-1.64v-5.67c0-.73.46-1.39 1.14-1.64l4.31-1.6zM5.3 13.7c-.13.4.08.82.47.96l2.48.85v2.7a.75.75 0 001.5 0v-2.7l2.47-.85a.75.75 0 00-.49-1.42L9 14.2l-2.74-.95a.75.75 0 00-.95.46z"/></svg>