<svg width="24" height="24" viewBox="0 0 24 24" xmlns="http://www.w3.org/2000/svg"><path d="M15.78 3.74a2.25 2.25 0 00-1.56 0l-4.3 1.59a.25.25 0 00-.17.23v2.8c-.5-.08-1-.08-1.5 0v-2.8c0-.73.46-1.38 1.14-1.64l4.31-1.59a3.75 3.75 0 012.6 0l4.3 1.6c.7.25 1.15.9 1.15 1.63v10.67c0 .74-.46 1.4-1.14 1.64l-4.02 1.49c.1-.3.16-.6.16-.93v-.73l3.34-1.23c.1-.04.16-.13.16-.24V5.56c0-.1-.07-.2-.16-.23l-4.31-1.6zm-4.01 3.93a.75.75 0 11.49-1.42l2.66.92c.05.02.1.02.16 0l2.65-.92a.75.75 0 11.5 1.42l-2.66.92c-.37.12-.77.12-1.14 0l-2.66-.92zm-6 7a.75.75 0 01.49-1.42L9 14.2l2.73-.95a.75.75 0 11.5 1.42l-2.48.85v2.7a.75.75 0 01-1.5 0v-2.7l-2.48-.85zm4.53-5.14a3.75 3.75 0 00-2.6 0l-4.3 1.6c-.7.24-1.15.9-1.15 1.63v5.67c0 .73.46 1.39 1.14 1.64l4.31 1.6c.84.3 1.76.3 2.6 0l4.3-1.6c.7-.25 1.15-.9 1.15-1.64v-5.67c0-.73-.46-1.39-1.14-1.64l-4.31-1.6zm-2.08 1.4c.5-.18 1.06-.18 1.56 0l4.3 1.6c.1.03.17.13.17.23v5.67c0 .1-.07.2-.16.24l-4.31 1.59c-.5.18-1.06.18-1.56 0l-4.3-1.6a.25.25 0 01-.17-.23v-5.67c0-.1.07-.2.16-.23l4.31-1.6z"/></svg>