<svg width="16" height="16" viewBox="0 0 16 16" xmlns="http://www.w3.org/2000/svg"><path d="M4 4.5a1.5 1.5 0 1 1 3 0 1.5 1.5 0 0 1-3 0ZM5.5 2a2.5 2.5 0 1 0 0 5 2.5 2.5 0 0 0 0-5Zm5 3a1 1 0 1 1 2 0 1 1 0 0 1-2 0Zm-.58 1.23a5.5 5.5 0 0 1 3.16 0 2 2 0 1 0-3.16 0ZM3 8h4.26c-.26.3-.48.64-.66 1H3a.5.5 0 0 0-.5.5v.15l.04.2c.04.18.13.42.3.65.33.45 1.04 1 2.66 1 .18 0 .34 0 .5-.02v.02c0 .33.03.66.09.98a7.3 7.3 0 0 1-.59.02c-1.88 0-2.92-.65-3.47-1.4A2.85 2.85 0 0 1 1.5 9.6V9.5C1.5 8.67 2.17 8 3 8Zm13 3.5a4.5 4.5 0 1 1-9 0 4.5 4.5 0 0 1 9 0Zm-2.15-1.85a.5.5 0 0 0-.7 0l-2.65 2.64-.65-.64a.5.5 0 0 0-.7.7l1 1c.2.2.5.2.7 0l3-3a.5.5 0 0 0 0-.7Z"/></svg>