<svg width="32" height="32" viewBox="0 0 32 32" xmlns="http://www.w3.org/2000/svg"><path d="m18.75 20.16 9.54 9.55a1 1 0 0 0 1.42-1.42l-26-26a1 1 0 0 0-1.42 1.42l9.55 9.54-7.48 7.48a3.7 3.7 0 0 0-1 1.84l-1.34 6.22a1 1 0 0 0 1.19 1.19l6.22-1.34a3.7 3.7 0 0 0 1.84-1l7.48-7.48Zm-1.41-1.41-7.48 7.48c-.23.23-.53.4-.85.46l-4.7 1 1-4.7c.07-.32.23-.61.46-.85l7.48-7.48 4.09 4.09Zm9.81-9.82-7.34 7.34 1.42 1.42 5.02-5.03.28.28a1.5 1.5 0 0 1 0 2.12l-2.24 2.23a1 1 0 0 0 1.42 1.42l2.23-2.24a3.5 3.5 0 0 0 0-4.94l-.28-.28.9-.9a4.89 4.89 0 0 0-6.9-6.92l-7.35 7.34 1.42 1.42 7.33-7.34a2.89 2.89 0 1 1 4.1 4.08Z"/></svg>