<svg width="16" height="16" viewBox="0 0 16 16" xmlns="http://www.w3.org/2000/svg"><path d="M4.5 3C3.67 3 3 3.67 3 4.5v1a.5.5 0 0 1-1 0v-1A2.5 2.5 0 0 1 4.5 2h1a.5.5 0 0 1 0 1h-1ZM6 7.5C6 6.67 6.67 6 7.5 6h1c.83 0 1.5.67 1.5 1.5v1c0 .83-.67 1.5-1.5 1.5h-1A1.5 1.5 0 0 1 6 8.5v-1ZM7.5 7a.5.5 0 0 0-.5.5v1c0 .28.22.5.5.5h1a.5.5 0 0 0 .5-.5v-1a.5.5 0 0 0-.5-.5h-1Zm4-4c.83 0 1.5.67 1.5 1.5v1a.5.5 0 0 0 1 0v-1A2.5 2.5 0 0 0 11.5 2h-1a.5.5 0 0 0 0 1h1Zm0 10c.83 0 1.5-.67 1.5-1.5v-1a.5.5 0 0 1 1 0v1a2.5 2.5 0 0 1-2.5 2.5h-1a.5.5 0 0 1 0-1h1Zm-7 0A1.5 1.5 0 0 1 3 11.5v-1.25a.5.5 0 0 0-1 0v1.25A2.5 2.5 0 0 0 4.5 14h1.25a.5.5 0 0 0 0-1H4.5Z"/></svg>