<svg width="20" height="20" viewBox="0 0 20 20" xmlns="http://www.w3.org/2000/svg"><path d="M6 10a1 1 0 1 1 2 0 1 1 0 0 1-2 0Zm6 0a1 1 0 0 1 2-.09c-.55.42-1.09.59-1.65.59-.07 0-.14 0-.2.02A1 1 0 0 1 12 10Zm1-2a2 2 0 0 1 1.83 1.18c.2-.12.43-.18.66-.18h.01c.37 0 .72.15.98.43.5.54 1 .85 1.52.99V6a2 2 0 0 0-2-2H4a2 2 0 0 0-2 2v8c0 1.1.9 2 2 2h7.23a6.98 6.98 0 0 1-.23-1.6v-2.53c0-.3.1-.6.29-.84A1.99 1.99 0 0 1 11.27 9H8.73A2 2 0 1 1 7 8h6Zm2.5 11c-.04 0-.08 0-.11-.02a5.67 5.67 0 0 1-1.76-.98c-.35-.3-.64-.63-.88-1a5.15 5.15 0 0 1-.75-2.64V11.87c0-.2.16-.37.35-.37 1.07 0 2.03-.46 2.9-1.39.07-.07.16-.11.25-.11s.18.04.24.11a3.89 3.89 0 0 0 2.9 1.39c.2 0 .36.17.36.38v2.48a5.15 5.15 0 0 1-.75 2.64c-.24.37-.53.7-.88 1a5.67 5.67 0 0 1-1.87 1Z"/></svg>