<svg width="24" height="24" viewBox="0 0 24 24" xmlns="http://www.w3.org/2000/svg"><path d="M19.75 4C20.99 4 22 5 22 6.25v5.35c-.6-.25-1.1-.57-1.5-.85v-4.5a.75.75 0 0 0-.75-.75H4.25a.75.75 0 0 0-.75.75v11.5c0 .42.34.75.75.75h8.9c.12.55.3 1.05.53 1.5H4.25C3.01 20 2 19 2 17.75V6.25C2 5.01 3 4 4.25 4h15.5ZM16 9a3 3 0 0 1 2.35 1.14c-.14.06-.27.14-.39.24-.2.18-.49.4-.84.63a1.5 1.5 0 0 0-2.62.99l-.1.01c-.52.05-1.03.38-1.26.89a3 3 0 0 1 .26-2.4h-2.8A3 3 0 1 1 7.82 9H16Zm-8 1.5a1.5 1.5 0 1 0 0 3 1.5 1.5 0 0 0 0-3Zm11.39.64c.68.58 2.2 1.7 4.11 1.87.28.02.5.24.5.52v3.5c0 4.21-4.1 5.7-4.87 5.95a.42.42 0 0 1-.26 0c-.78-.25-4.87-1.74-4.87-5.95v-3.5c0-.28.22-.5.5-.52a7.72 7.72 0 0 0 4.12-1.87.6.6 0 0 1 .77 0Z"/></svg>