<svg width="32" height="32" viewBox="0 0 32 32" xmlns="http://www.w3.org/2000/svg"><path d="M11 18a2 2 0 1 0 0-4 2 2 0 0 0 0 4Zm8-2a2 2 0 0 0 .03.37c1.3-.26 2.54-.71 3.72-1.35A2 2 0 0 0 19 16Zm-2 0c0 .36.05.7.13 1.03a2 2 0 0 0-.63 1.46v4.03A9.33 9.33 0 0 0 18.18 28H5.25A3.25 3.25 0 0 1 2 24.75V7.25C2 5.45 3.46 4 5.25 4h21.5C28.55 4 30 5.46 30 7.25v8.89a13.2 13.2 0 0 1-3.9-1.8 2 2 0 0 0-1.6-.28A4 4 0 0 0 21 12H11a4 4 0 1 0 3.46 2h3.08a3.98 3.98 0 0 0-.54 2Zm14.57 2a15.52 15.52 0 0 1-2.57-.6 15.3 15.3 0 0 1-3.72-1.82.5.5 0 0 0-.56 0 15.07 15.07 0 0 1-6.3 2.42.5.5 0 0 0-.42.5v4.02a7.83 7.83 0 0 0 3.17 6.45c1 .78 2.2 1.44 3.65 2a.5.5 0 0 0 .36 0C29.69 29.23 32 26.4 32 22.52v-4.03a.5.5 0 0 0-.43-.49Z"/></svg>