<svg width="32" height="32" viewBox="0 0 32 32" xmlns="http://www.w3.org/2000/svg"><path d="M15 16a4 4 0 1 1-4-4h10a4 4 0 0 1 3.5 2.06 2 2 0 0 0-.6.27c-.38.26-.77.48-1.15.7a2 2 0 0 0-3.72 1.34 14 14 0 0 1-.81.14 2 2 0 0 0-1.09.52 4 4 0 0 1 .4-3.03h-3.07c.35.59.54 1.27.54 2Zm-4 2a2 2 0 1 0 0-4 2 2 0 0 0 0 4ZM28 7.25v8.15a13.4 13.4 0 0 0 2 .74V7.25C30 5.45 28.54 4 26.75 4H5.25A3.25 3.25 0 0 0 2 7.25v17.5C2 26.55 3.46 28 5.25 28h12.93a9.43 9.43 0 0 1-1.07-2H5.25C4.56 26 4 25.44 4 24.75V7.25C4 6.56 4.56 6 5.25 6h21.5c.69 0 1.25.56 1.25 1.25ZM31.57 18a15.52 15.52 0 0 1-2.57-.6 15.3 15.3 0 0 1-3.72-1.82.5.5 0 0 0-.56 0 15.07 15.07 0 0 1-6.3 2.42.5.5 0 0 0-.42.5v4.02a7.83 7.83 0 0 0 3.17 6.45c1 .78 2.2 1.44 3.65 2a.5.5 0 0 0 .36 0C29.69 29.23 32 26.4 32 22.52v-4.03a.5.5 0 0 0-.43-.49Z"/></svg>