<svg width="16" height="16" viewBox="0 0 16 16" xmlns="http://www.w3.org/2000/svg"><path d="M4.75 3a.75.75 0 00-.75.75v1.5c0 .41.34.75.75.75h5.5c.41 0 .75-.34.75-.75v-1.5a.75.75 0 00-.75-.75h-5.5zM5 5V4h5v1H5zM2 2.75C2 1.78 2.78 1 3.75 1h7.5c.97 0 1.75.78 1.75 1.75v10.5c0 .97-.78 1.75-1.75 1.75h-7.5C2.78 15 2 14.22 2 13.25V2.75zM3.75 2a.75.75 0 00-.75.75v10.5c0 .41.34.75.75.75h7.5c.41 0 .75-.34.75-.75V2.75a.75.75 0 00-.75-.75h-7.5zm10.88 2H14v2h.63c.2 0 .37-.17.37-.38V4.38c0-.2-.17-.37-.38-.37zM14 7h.63c.2 0 .37.17.37.38v1.25c0 .2-.17.37-.38.37H14V7zm.63 3H14v2h.63c.2 0 .37-.17.37-.38v-1.24c0-.21-.17-.38-.38-.38z"/></svg>