<svg width="32" height="32" viewBox="0 0 32 32" xmlns="http://www.w3.org/2000/svg"><path d="M8 7.5C8 6.67 8.67 6 9.5 6h12c.83 0 1.5.67 1.5 1.5v3c0 .83-.67 1.5-1.5 1.5h-12A1.5 1.5 0 018 10.5v-3zm2 .5v2h11V8H10zM4 5.25C4 3.45 5.46 2 7.25 2h16.5C25.55 2 27 3.46 27 5.25v21.5c0 1.8-1.46 3.25-3.25 3.25H7.25A3.25 3.25 0 014 26.75V5.25zM7.25 4C6.56 4 6 4.56 6 5.25v21.5c0 .69.56 1.25 1.25 1.25h16.5c.69 0 1.25-.56 1.25-1.25V5.25C25 4.56 24.44 4 23.75 4H7.25zm22 4H28v4h1.25c.41 0 .75-.34.75-.75v-2.5a.75.75 0 00-.75-.75zM28 14h1.25c.41 0 .75.34.75.75v2.5c0 .41-.34.75-.75.75H28v-4zm1.25 6H28v4h1.25c.41 0 .75-.34.75-.75v-2.5a.75.75 0 00-.75-.75z"/></svg>