<svg width="16" height="16" viewBox="0 0 16 16" xmlns="http://www.w3.org/2000/svg"><path d="M3.75 1C2.78 1 2 1.78 2 2.75v10.5c0 .97.78 1.75 1.75 1.75h7.5c.97 0 1.75-.78 1.75-1.75V2.75C13 1.78 12.22 1 11.25 1h-7.5zM4 3.75c0-.41.34-.75.75-.75h5.5c.41 0 .75.34.75.75v.5c0 .41-.34.75-.75.75h-5.5A.75.75 0 014 4.25v-.5zM14 4h.63c.2 0 .37.17.37.38v1.25c0 .2-.17.37-.38.37H14V4zm.63 3H14v2h.63c.2 0 .37-.17.37-.38V7.38c0-.21-.17-.38-.38-.38zM14 10h.63c.2 0 .37.17.37.38v1.24c0 .21-.17.38-.38.38H14v-2z"/></svg>