<svg width="24" height="24" viewBox="0 0 24 24" xmlns="http://www.w3.org/2000/svg"><path d="M13.75 2C14.99 2 16 3 16 4.25v7.09c-.62.3-1.15.77-1.5 1.36V4.25a.75.75 0 0 0-.75-.75h-7.5a.75.75 0 0 0-.75.75v15.5c0 .41.34.75.75.75h5.8c.09.53.3 1.04.62 1.5H6.25C5.01 22 4 21 4 19.75V4.25C4 3.01 5 2 6.25 2h7.5Zm-2.5 15.5a.75.75 0 0 1 0 1.5h-2.5a.75.75 0 0 1 0-1.5h2.5Zm8.75-3a2.5 2.5 0 1 1-5 0 2.5 2.5 0 0 1 5 0Zm2 5.38c0 1.55-1.29 3.12-4.5 3.12S13 21.44 13 19.87v-.1c0-.98.8-1.77 1.77-1.77h5.46c.98 0 1.77.8 1.77 1.77v.1Z"/></svg>