<svg width="28" height="28" viewBox="0 0 28 28" xmlns="http://www.w3.org/2000/svg"><path d="M24.78 4.28a.75.75 0 0 0-1.06-1.06L17 9.94V3.75a.75.75 0 0 0-1.5 0v8c0 .41.34.75.75.75h8a.75.75 0 0 0 0-1.5h-6.19l6.72-6.72ZM4.5 6.75V14h6.75A2.75 2.75 0 0 1 14 16.75v6.75h7.25c1.24 0 2.25-1 2.25-2.25v-5a.75.75 0 0 1 1.5 0v5A3.75 3.75 0 0 1 21.25 25H6.75A3.75 3.75 0 0 1 3 21.25V6.75A3.75 3.75 0 0 1 6.75 3h5a.75.75 0 0 1 0 1.5h-5c-1.24 0-2.25 1-2.25 2.25Zm0 8.75v5.75c0 1.24 1 2.25 2.25 2.25h5.75v-6.75c0-.69-.56-1.25-1.25-1.25H4.5Z"/></svg>