<svg width="24" height="24" viewBox="0 0 24 24" xmlns="http://www.w3.org/2000/svg"><path d="M12 6.5A2.25 2.25 0 1 0 12 2a2.25 2.25 0 0 0 0 4.5ZM6.15 4.18a2.27 2.27 0 0 0-2.96 1.18 2.24 2.24 0 0 0 1.18 2.96L7.39 9.6a1 1 0 0 1 .61.92v3.04l-1.88 5.46a2.25 2.25 0 1 0 4.26 1.46l.7-2.01a6.5 6.5 0 0 1 4.93-7.3v-.65a1 1 0 0 1 .6-.92l3.02-1.28a2.24 2.24 0 0 0 1.18-2.96 2.27 2.27 0 0 0-2.96-1.18l-1.6.68c-.35.14-.58.42-.7.73a3.8 3.8 0 0 1-7.1 0c-.12-.3-.35-.59-.7-.73l-1.6-.68ZM23 17.5a5.5 5.5 0 1 1-11 0 5.5 5.5 0 0 1 11 0Zm-2.15-2.35a.5.5 0 0 0-.7 0l-3.65 3.64-1.65-1.64a.5.5 0 0 0-.7.7l2 2c.2.2.5.2.7 0l4-4a.5.5 0 0 0 0-.7Z"/></svg>