<svg width="28" height="28" viewBox="0 0 28 28" xmlns="http://www.w3.org/2000/svg"><path d="M12 5.5a2 2 0 0 0 1.5 1.93c.33.06.67.06 1 0A2 2 0 1 0 12 5.5Zm-1.34 1.06a3.5 3.5 0 1 1 6.68 0l4.42-1.44a2.48 2.48 0 1 1 1.53 4.71L18 11.55v1.6c-.52.1-1.02.27-1.5.47v-2.25c0-.54.35-1.02.86-1.19l5.46-1.77a.98.98 0 0 0-.6-1.86l-6.75 2.2c-.22.06-.43.12-.65.15a3.5 3.5 0 0 1-1.64 0c-.22-.03-.43-.09-.65-.16l-6.75-2.2a.98.98 0 0 0-.6 1.87l5.46 1.77c.51.17.86.65.86 1.19v3.96c0 .35-.07.7-.2 1.02l-2.73 6.81c-.2.5.04 1.07.54 1.27a.96.96 0 0 0 1.25-.53l1.68-4.2a7.59 7.59 0 0 0 .34 3.18l-.63 1.58a2.46 2.46 0 0 1-3.2 1.36 2.48 2.48 0 0 1-1.37-3.22l2.73-6.8c.06-.16.09-.31.09-.47v-3.78L4.71 9.83a2.48 2.48 0 0 1 1.53-4.7l4.42 1.43ZM26 20.5a6.5 6.5 0 1 1-13 0 6.5 6.5 0 0 1 13 0Zm-2.65-2.85a.5.5 0 0 0-.7 0L18 22.29l-1.65-1.64a.5.5 0 0 0-.7.7l2 2c.2.2.5.2.7 0l5-5a.5.5 0 0 0 0-.7Z"/></svg>