<svg width="20" height="20" viewBox="0 0 20 20" xmlns="http://www.w3.org/2000/svg"><path d="M14.46 11.68a.5.5 0 0 1-.93 0l-3.51-9.02a.5.5 0 1 1 .93-.36l3.04 7.82 3.04-7.82a.5.5 0 0 1 .94.36l-3.51 9.02ZM6 1.98c.21 0 .4.13.47.32l2.32 5.96a.5.5 0 0 1 .04.11l1.15 2.95a.5.5 0 0 1-.93.36L8 9H4l-1.04 2.68a.5.5 0 0 1-.93-.36l1.17-3V8.3l2.34-6A.5.5 0 0 1 6 1.98ZM4.4 8H7.6l-1.6-4.14L4.4 8Zm10.39 5.18a.5.5 0 0 1 .7-.06l2.33 2a.5.5 0 0 1 0 .76l-2.33 2a.5.5 0 0 1-.65-.76l1.3-1.12H3.85l1.31 1.12a.5.5 0 1 1-.65.76l-2.33-2a.5.5 0 0 1 0-.76l2.33-2a.5.5 0 1 1 .65.76L3.85 15h12.3l-1.3-1.12a.5.5 0 0 1-.06-.7Z"/></svg>