<svg width="28" height="28" viewBox="0 0 28 28" xmlns="http://www.w3.org/2000/svg"><path d="M20.42 16.39a1 1 0 0 1-1.84 0l-5.5-13a1 1 0 0 1 1.84-.78l4.58 10.82 4.58-10.82a1 1 0 0 1 1.84.78l-5.5 13ZM8.5 2a1 1 0 0 1 .92.61l5.5 13a1 1 0 1 1-1.84.78L11.65 13h-6.3L3.92 16.4a1 1 0 0 1-1.84-.78l5.5-13A1 1 0 0 1 8.5 2Zm-2.3 9h4.6L8.5 5.57 6.2 11Zm15.03 8.36a1 1 0 0 1 1.41-.13l3 2.5a1 1 0 0 1 0 1.54l-3 2.5a1 1 0 0 1-1.28-1.54l.88-.73H5.76l.88.73a1 1 0 0 1-1.28 1.54l-3-2.5a1 1 0 0 1 0-1.54l3-2.5a1 1 0 0 1 1.28 1.54l-.88.73h16.48l-.88-.73a1 1 0 0 1-.13-1.41Z"/></svg>