<svg width="16" height="16" viewBox="0 0 16 16" xmlns="http://www.w3.org/2000/svg"><path d="M11.7 8.53a.75.75 0 0 1-1.4 0l-2.24-5.5a.75.75 0 1 1 1.38-.56L11 6.27l1.56-3.8a.75.75 0 0 1 1.39.56l-2.26 5.5ZM5 2c.3 0 .58.18.7.47l2.24 5.5a.75.75 0 0 1-1.38.56L6.13 7.5H3.87l-.43 1.03a.75.75 0 0 1-1.38-.56l2.25-5.5A.75.75 0 0 1 5 2Zm.52 4L5 4.73 4.48 6h1.04Zm5.95 4.22c.3-.3.77-.3 1.06 0l1.25 1.25a.75.75 0 0 1 0 1.06l-1.25 1.25a.75.75 0 0 1-1.09-1.03H4.56a.75.75 0 0 1-1.09 1.03l-1.25-1.25a.75.75 0 0 1 0-1.06l1.25-1.25a.75.75 0 0 1 1.09 1.03h6.88a.75.75 0 0 1 .03-1.03Z"/></svg>