<svg width="24" height="24" viewBox="0 0 24 24" xmlns="http://www.w3.org/2000/svg"><path d="M8.36 17A1.5 1.5 0 0 1 7 15.5V2.88A1 1 0 0 0 5 3v2H2.88A1 1 0 0 0 3 7h2v8.7A3.5 3.5 0 0 0 8.5 19h4.68l-.14-.04a1.54 1.54 0 0 1-.96-1.96H8.36ZM19 13.24l-.07-.2v-.02a1.54 1.54 0 0 0-1.93-.96V8.5c0-.78-.6-1.42-1.36-1.5H8V5h7.5A3.5 3.5 0 0 1 19 8.3v4.95Zm4.21-.68.62.2a.24.24 0 0 1 0 .46l-.6.2a1.26 1.26 0 0 0-.8.8l-.2.6a.24.24 0 0 1-.37.13.24.24 0 0 1-.09-.12l-.2-.61a1.26 1.26 0 0 0-.8-.8l-.6-.2a.24.24 0 0 1 0-.46l.6-.2a1.26 1.26 0 0 0 .8-.8l.19-.6a.24.24 0 0 1 .46 0l.2.6a1.26 1.26 0 0 0 .8.8Zm-7.12 6.84a2.85 2.85 0 0 0-1.35-.95L13.36 18a.54.54 0 0 1 0-1.03l1.38-.44a2.84 2.84 0 0 0 1.76-1.77l.01-.03.45-1.38a.54.54 0 0 1 1.03 0l.44 1.38a2.84 2.84 0 0 0 1.8 1.8l1.38.44.03.01a.54.54 0 0 1 0 1.03l-1.38.44a2.84 2.84 0 0 0-1.8 1.8l-.45 1.38a.54.54 0 0 1-1.03 0l-.44-1.38c-.1-.3-.25-.6-.45-.85Z"/></svg>