<svg width="24" height="24" viewBox="0 0 24 24" xmlns="http://www.w3.org/2000/svg"><path d="M3 6.25C3 4.45 4.46 3 6.25 3h11.5C19.55 3 21 4.46 21 6.25V11h-1.5v-1h-4v1.24a1.5 1.5 0 00-.54.62L14 13.91V10h-4v4h3.96l-.71 1.5H10v4h2.38c.27.3.66.5 1.12.5h1.72l-.25 1H6.25A3.25 3.25 0 013 17.75V6.25zM6.25 4.5c-.97 0-1.75.78-1.75 1.75V8.5h4v-4H6.25zM4.5 10v4h4v-4h-4zm11-1.5h4V6.25c0-.97-.78-1.75-1.75-1.75H15.5v4zm-1.5-4h-4v4h4v-4zm-9.5 11v2.25c0 .97.78 1.75 1.75 1.75H8.5v-4h-4zM16.32 12h4.82a.5.5 0 01.44.75L19.75 16h1.5c.64 0 .98.76.56 1.24l-4.82 5.51c-.5.58-1.45.09-1.26-.66L16.5 19h-3a.5.5 0 01-.46-.71l2.82-6a.5.5 0 01.46-.29z"/></svg>