<svg width="16" height="16" viewBox="0 0 16 16" xmlns="http://www.w3.org/2000/svg"><path d="M4.5 2A2.5 2.5 0 002 4.5v7A2.5 2.5 0 004.5 14h3.22l.25-1H6v-2h.09c0-.03.02-.05.03-.08L6.5 10H6V6h2.17l.03-.08A1.5 1.5 0 019.58 5h3.48c.36 0 .69.13.94.33V4.5A2.5 2.5 0 0011.5 2h-7zm5.08 3H6V3h4v2h-.42zM3 11h2v2h-.5A1.5 1.5 0 013 11.5V11zm0-5h2v4H3V6zm1.5-3H5v2H3v-.5C3 3.67 3.67 3 4.5 3zM13 4.5V5h-2V3h.5c.83 0 1.5.67 1.5 1.5zM8.61 12c.33 0 .56.3.49.62l-.44 1.74c-.12.48.46.83.83.49l4.87-4.55a.75.75 0 00-.51-1.3h-.4a.5.5 0 01-.48-.66l.56-1.68a.5.5 0 00-.47-.66H9.58a.5.5 0 00-.46.3l-2.08 5c-.14.34.1.7.46.7h1.11z"/></svg>