<svg width="28" height="28" viewBox="0 0 28 28" xmlns="http://www.w3.org/2000/svg"><path d="M6.75 3A3.75 3.75 0 003 6.75v14.5A3.75 3.75 0 006.75 25h10.7l.66-2H17v.5h-6v-5h4.26l.71-1.5H11v-6h6v3.83l.46-.97c.2-.43.6-.73 1.04-.83V11h5v2H25V6.75A3.75 3.75 0 0021.25 3H6.75zM4.5 21.25V18.5h5v5H6.75c-1.24 0-2.25-1-2.25-2.25zM9.5 11v6h-5v-6h5zm11.75-6.5c1.24 0 2.25 1 2.25 2.25V9.5h-5v-5h2.75zM11 4.5h6v5h-6v-5zm-4.25 0H9.5v5h-5V6.75c0-1.24 1-2.25 2.25-2.25zM18.82 14h6.33a.5.5 0 01.43.75L23.75 18h1.52c.64 0 .98.75.56 1.24l-6.41 7.45c-.52.6-1.5.05-1.25-.7L19.5 22h-4a.5.5 0 01-.45-.71l3.31-7a.5.5 0 01.46-.29z"/></svg>