<svg width="20" height="20" viewBox="0 0 20 20" xmlns="http://www.w3.org/2000/svg"><path d="M16 6V2.5a.5.5 0 0 0-.5-.5h-11a.5.5 0 0 0-.5.5V6c0 .83.67 1.5 1.49 1.5h9.01c.82 0 1.5-.67 1.5-1.5ZM3 9.5a.5.5 0 0 0 0 1h1.2a.5.5 0 0 0 0-1H3Zm3.2 0a.5.5 0 0 0 0 1h1.2a.5.5 0 0 0 0-1H6.2Zm2.7.5c0-.28.22-.5.5-.5h1.2a.5.5 0 0 1 0 1H9.4a.5.5 0 0 1-.5-.5Zm3.7-.5a.5.5 0 0 0 0 1h1.2a.5.5 0 0 0 0-1h-1.2Zm2.7.5c0-.28.22-.5.5-.5H17a.5.5 0 0 1 0 1h-1.2a.5.5 0 0 1-.5-.5Zm.7 7.5V14c0-.83-.68-1.5-1.5-1.5H5.49A1.5 1.5 0 0 0 4 14v3.5c0 .28.22.5.5.5h11a.5.5 0 0 0 .5-.5Z"/></svg>