<svg width="24" height="24" viewBox="0 0 24 24" xmlns="http://www.w3.org/2000/svg"><path d="M2.5 12c0-.41.34-.75.75-.75h1.5a.75.75 0 010 1.5h-1.5A.75.75 0 012.5 12zm4 0c0-.41.34-.75.75-.75h1.5a.75.75 0 010 1.5h-1.5A.75.75 0 016.5 12zm4 0c0-.41.34-.75.75-.75h1.5a.75.75 0 010 1.5h-1.5a.75.75 0 01-.75-.75zm4 0c0-.41.34-.75.75-.75h1.5a.75.75 0 010 1.5h-1.5a.75.75 0 01-.75-.75zm4 0c0-.41.34-.75.75-.75h1.5a.75.75 0 010 1.5h-1.5a.75.75 0 01-.75-.75zM5 2a1 1 0 00-1 1v4c0 1.1.9 2 2 2h12a2 2 0 002-2V3a1 1 0 00-1-1H5zm14 20a1 1 0 001-1v-4a2 2 0 00-2-2H6a2 2 0 00-2 2v4a1 1 0 001 1h14z"/></svg>