<svg width="32" height="32" viewBox="0 0 32 32" xmlns="http://www.w3.org/2000/svg"><path d="M9.4 10.08a1 1 0 10-.8 1.84l6.4 2.74V21a1 1 0 102 0v-6.34l6.4-2.74a1 1 0 00-.8-1.84L16 12.91l-6.6-2.83zm8.75-7.32a6 6 0 00-4.3 0L3.92 6.57A3 3 0 002 9.37v13.26a3 3 0 001.92 2.8l9.93 3.81a6 6 0 004.3 0l9.93-3.81a3 3 0 001.92-2.8V9.37a3 3 0 00-1.92-2.8l-9.93-3.81zm-3.59 1.86a4 4 0 012.88 0l9.92 3.82a1 1 0 01.64.93v13.26a1 1 0 01-.64.93l-9.92 3.82a4 4 0 01-2.88 0l-9.92-3.82a1 1 0 01-.64-.93V9.37a1 1 0 01.64-.93l9.92-3.82z"/></svg>