<svg width="28" height="28" viewBox="0 0 28 28" xmlns="http://www.w3.org/2000/svg"><path d="M13.56 2.14a.75.75 0 01.88 0 20.3 20.3 0 003.9 2.04c1.8.73 3.92 1.32 5.9 1.32.42 0 .76.34.76.75V14c0 .16 0 .33-.02.49a7.5 7.5 0 00-1.48-.87V6.98a18.8 18.8 0 01-5.73-1.4A23.46 23.46 0 0114 3.65c-.84.54-2.19 1.27-3.78 1.91-1.69.69-3.7 1.28-5.72 1.4V14c0 2.47 1.4 4.93 3.4 6.88 1.93 1.92 4.3 3.24 6.1 3.6l.12-.03c.3.46.63.9 1 1.28-.33.1-.67.19-1 .25L14 26l-.13-.02c-2.2-.39-4.9-1.92-7.03-4.03C4.7 19.85 3 17.03 3 14V6.25c0-.41.34-.75.75-.75 2 0 4.1-.59 5.91-1.32a20.3 20.3 0 003.9-2.04zM27 20.5a6.5 6.5 0 11-13 0 6.5 6.5 0 0113 0zm-2.65-2.85a.5.5 0 00-.7 0L19 22.29l-1.65-1.64a.5.5 0 00-.7.7l2 2c.2.2.5.2.7 0l5-5a.5.5 0 000-.7z"/></svg>