<svg width="16" height="16" viewBox="0 0 16 16" xmlns="http://www.w3.org/2000/svg"><path d="M13.28 7.9A2.24 2.24 0 0 0 11.75 4H9.5a.5.5 0 0 0-.5.5v7a.5.5 0 0 0 .5.5H12a2.25 2.25 0 0 0 1.28-4.1ZM13 6.25a1.25 1.25 0 0 1-1.25 1.25H10V5h1.75A1.25 1.25 0 0 1 13 6.25ZM12 11h-2V8.5h2a1.25 1.25 0 0 1 0 2.5Zm-4 .06a6.5 6.5 0 0 1-.18-.55 5.83 5.83 0 0 0-1.1-2.24A2.25 2.25 0 0 0 5.75 4H3.5a.5.5 0 0 0-.5.5v7a.5.5 0 0 0 1 0v-3h1c1.07 0 1.49 1.09 1.85 2.3.2.67.37 1.2.9 1.2a.5.5 0 0 0 .25-.94ZM4 5h1.75a1.25 1.25 0 0 1 0 2.5H4V5Z"/></svg>