<svg width="28" height="28" viewBox="0 0 28 28" xmlns="http://www.w3.org/2000/svg"><path d="M21.25 2c.41 0 .75.34.75.75V6h3.25a.75.75 0 0 1 0 1.5H22v3.25a.75.75 0 0 1-1.5 0V7.5h-3.25a.75.75 0 0 1 0-1.5h3.25V2.75c0-.41.34-.75.75-.75ZM5.75 3A2.75 2.75 0 0 0 3 5.75v16.5A2.75 2.75 0 0 0 5.75 25h16.5A2.75 2.75 0 0 0 25 22.25V16a2.75 2.75 0 0 0-2.75-2.75h-7.5v-7.5A2.75 2.75 0 0 0 12 3H5.75Zm7.5 10.25H4.5v-7.5c0-.69.56-1.25 1.25-1.25H12c.69 0 1.25.56 1.25 1.25v7.5Zm1.5 10.25v-8.75h7.5c.69 0 1.25.56 1.25 1.25v6.25c0 .69-.56 1.25-1.25 1.25h-7.5Zm-1.5 0h-7.5c-.69 0-1.25-.56-1.25-1.25v-7.5h8.75v8.75Z"/></svg>