<svg width="24" height="24" viewBox="0 0 24 24" xmlns="http://www.w3.org/2000/svg"><path d="M10.5 3A2.5 2.5 0 0 1 13 5.5V11h5.5a2.5 2.5 0 0 1 2.5 2.5v5a2.5 2.5 0 0 1-2.5 2.5h-13A2.5 2.5 0 0 1 3 18.5v-13A2.5 2.5 0 0 1 5.5 3h5Zm.5 10H5v5.5c0 .28.22.5.5.5H11v-6Zm7.5 0H13v6h5.5a.5.5 0 0 0 .5-.5v-5a.5.5 0 0 0-.5-.5Zm-8-8h-5a.5.5 0 0 0-.5.5V11h6V5.5a.5.5 0 0 0-.5-.5Zm7.38-3H18a1 1 0 0 1 1 .88V5h2a1 1 0 0 1 1 .88V6a1 1 0 0 1-.88 1H19v2a1 1 0 0 1-.88 1H18a1 1 0 0 1-1-.88V7h-2a1 1 0 0 1-1-.88V6a1 1 0 0 1 .88-1H17V3a1 1 0 0 1 .88-1H18h-.12Z"/></svg>