<svg width="24" height="24" viewBox="0 0 24 24" xmlns="http://www.w3.org/2000/svg"><path d="M23 17.5a5.5 5.5 0 10-11 0 5.5 5.5 0 0011 0zm-6.35-2.85l.07-.06a.5.5 0 01.64.06l.05.07a.5.5 0 01-.05.63L15.7 17h4.88a.5.5 0 01.41.5v.09a.5.5 0 01-.5.41h-4.79l1.65 1.65.05.07a.5.5 0 01-.76.63l-2.52-2.51-.05-.07-.03-.06-.03-.08-.01-.09v-.1l.02-.1.02-.05.04-.08.04-.05 2.52-2.51zM7 7V5a3 3 0 015-2.24A3 3 0 0117 5v2h1.5c.83 0 1.5.67 1.5 1.5v3c-.47-.2-.98-.34-1.5-.42V8.5h-4v3.23c-.55.29-1.06.65-1.5 1.08V8.5H5.5V18A2.5 2.5 0 008 20.5h3.73c.29.55.65 1.06 1.08 1.5H8a4 4 0 01-4-4V8.5C4 7.67 4.67 7 5.5 7H7zm3-3.5c-.83 0-1.5.67-1.5 1.5v2h3V5c0-.83-.67-1.5-1.5-1.5zM15.5 7V5a1.5 1.5 0 00-2.66-.96c.1.3.16.63.16.96v2h2.5z"/></svg>