<svg width="16" height="16" viewBox="0 0 16 16" xmlns="http://www.w3.org/2000/svg"><path d="m5.12.28-.35 1.07a2.2 2.2 0 0 1-1.4 1.4L2.3 3.1h-.02a.42.42 0 0 0 0 .8l1.07.35a2.2 2.2 0 0 1 1.4 1.4l.35 1.07a.42.42 0 0 0 .8 0l.35-1.07a2.2 2.2 0 0 1 1.4-1.4l1.07-.35a.42.42 0 0 0 0-.8l-1.07-.35a2.2 2.2 0 0 1-1.38-1.4L5.92.28a.42.42 0 0 0-.8 0ZM.22 8.21l.76-.25a1.58 1.58 0 0 0 1-1l.25-.76a.3.3 0 0 1 .57 0l.25.77a1.58 1.58 0 0 0 .98 1l.77.24a.3.3 0 0 1 0 .57l-.77.25a1.58 1.58 0 0 0-1 1l-.24.77a.3.3 0 0 1-.58 0l-.24-.77a1.58 1.58 0 0 0-1-1L.2 8.8a.3.3 0 0 1 0-.57h.02ZM3 11.91a1.4 1.4 0 0 0 .72-.75l.26-.81a.52.52 0 0 1 .14-.22.64.64 0 0 1 .22-.14l.77-.25c.27-.1.49-.26.65-.48.16-.22.24-.49.24-.76 0-.19-.04-.38-.12-.55.16-.04.3-.1.45-.2.27-.22.43-.45.52-.7l.36-1.09c.09-.23.18-.36.29-.47.18-.16.32-.24.47-.3l1.06-.34A1.41 1.41 0 0 0 10 3.5c0-.18-.03-.34-.09-.5h2.59A2.5 2.5 0 0 1 15 5.5v7c0 .5-.15.98-.41 1.38L10.2 9.49a1.7 1.7 0 0 0-2.4 0L3.4 13.88C3.15 13.48 3 13 3 12.5v-.6Zm8.5-4.4a1 1 0 1 0 0-2.01 1 1 0 0 0 0 2Zm-2 2.7 4.38 4.38c-.4.26-.87.41-1.38.41h-7c-.51 0-.98-.15-1.38-.41l4.39-4.39a.7.7 0 0 1 .99 0Z"/></svg>