<svg width="16" height="16" viewBox="0 0 16 16" xmlns="http://www.w3.org/2000/svg"><path d="m5.12.28-.35 1.07a2.2 2.2 0 0 1-1.4 1.4L2.3 3.1h-.02a.42.42 0 0 0 0 .8l1.07.35a2.2 2.2 0 0 1 1.4 1.4l.35 1.07a.42.42 0 0 0 .8 0l.35-1.07a2.2 2.2 0 0 1 1.4-1.4l1.07-.35a.42.42 0 0 0 0-.8l-1.07-.35a2.2 2.2 0 0 1-1.38-1.4L5.92.28a.42.42 0 0 0-.8 0ZM.22 8.21l.76-.25a1.58 1.58 0 0 0 1-1l.25-.76a.3.3 0 0 1 .57 0l.25.77a1.58 1.58 0 0 0 .98 1l.77.24a.3.3 0 0 1 0 .57l-.77.25a1.58 1.58 0 0 0-1 1l-.24.77a.3.3 0 0 1-.58 0l-.24-.77a1.58 1.58 0 0 0-1-1L.2 8.8a.3.3 0 0 1 0-.57h.02ZM3 11.91v.59A2.5 2.5 0 0 0 5.5 15h7a2.5 2.5 0 0 0 2.5-2.5v-7A2.5 2.5 0 0 0 12.5 3H9.9a1.42 1.42 0 0 1 0 1h2.59c.83 0 1.5.67 1.5 1.5v7c0 .23-.05.45-.15.65L10.2 9.49a1.7 1.7 0 0 0-2.4 0l-3.65 3.66A1.5 1.5 0 0 1 4 12.5v-2.19l-.02.04-.26.8c-.1.25-.26.46-.48.62-.07.05-.16.1-.24.13Zm8.5-4.4a1 1 0 1 0 0-2.01 1 1 0 0 0 0 2Zm-2 2.7 3.65 3.64c-.2.1-.42.15-.65.15h-7a1.5 1.5 0 0 1-.65-.15L8.5 10.2a.7.7 0 0 1 1 0Z"/></svg>