<svg width="24" height="24" viewBox="0 0 24 24" xmlns="http://www.w3.org/2000/svg"><path d="M7.91 6.41a2.84 2.84 0 0 1 1.35-.95L10.64 5a.54.54 0 0 0 0-1.03l-1.38-.44A2.84 2.84 0 0 1 7.5 1.77l-.01-.03L7.04.36a.54.54 0 0 0-1.03 0l-.44 1.38a2.84 2.84 0 0 1-1.8 1.8l-1.38.44-.03.01a.54.54 0 0 0 0 1.03l1.38.44a2.84 2.84 0 0 1 1.8 1.8l.45 1.38A.55.55 0 0 0 6.5 9a.54.54 0 0 0 .51-.36l.45-1.38c.1-.3.25-.6.45-.85Zm-7.7 3.8.77-.25a1.58 1.58 0 0 0 1-1l.25-.76a.3.3 0 0 1 .57 0l.25.77a1.58 1.58 0 0 0 .98 1l.77.24a.3.3 0 0 1 0 .57l-.77.25a1.58 1.58 0 0 0-1 1l-.24.77a.3.3 0 0 1-.58 0l-.24-.77a1.58 1.58 0 0 0-1-1L.2 10.8a.3.3 0 0 1 0-.57h.02ZM12 4.47v.03h5.75c.97 0 1.75.78 1.75 1.75v11.5c0 .2-.04.4-.1.6l-5.83-5.7-.12-.12a2.25 2.25 0 0 0-3.02.11l-5.83 5.7c-.06-.18-.1-.38-.1-.59v-5.76l-.12.04a.74.74 0 0 0-.22.14.6.6 0 0 0-.14.23l-.24.76a1.35 1.35 0 0 1-.78.8v3.79C3 19.55 4.46 21 6.25 21h11.5c1.8 0 3.25-1.46 3.25-3.25V6.25C21 4.45 19.54 3 17.75 3h-6.8c.3.11.58.3.77.57.18.26.28.58.28.9Zm.52 9.24 5.81 5.7c-.18.06-.38.09-.58.09H6.25c-.2 0-.4-.03-.58-.1l5.8-5.69.09-.07c.29-.2.7-.18.96.07Zm4.98-4.96a2.25 2.25 0 1 0-4.5 0 2.25 2.25 0 0 0 4.5 0Zm-3 0a.75.75 0 1 1 1.5 0 .75.75 0 0 1-1.5 0Z"/></svg>