<svg width="24" height="24" viewBox="0 0 24 24" xmlns="http://www.w3.org/2000/svg"><path d="M10.6 2.51c.9-.36 1.9-.36 2.8 0l7.5 3.04c.67.27 1.1.91 1.1 1.62v9.66c0 .71-.43 1.35-1.1 1.62l-7.5 3.04c-.9.37-1.9.37-2.8 0l-7.5-3.04c-.67-.27-1.1-.91-1.1-1.62V7.17c0-.7.43-1.35 1.1-1.62l7.5-3.04zm2.25 1.4a2.25 2.25 0 00-1.7 0l-1.9.77 7.52 2.93 2.67-1.03-6.6-2.68zm1.84 4.5L7.21 5.5 4.6 6.56 12 9.45l2.7-1.04zM3.5 16.83c0 .1.06.2.16.23l7.5 3.04.09.04v-9.38L3.5 7.75v9.08zm9.35 3.27l7.5-3.04c.09-.04.15-.13.15-.23V7.77l-7.75 3v9.37l.1-.04z"/></svg>