<svg width="24" height="24" viewBox="0 0 24 24" xmlns="http://www.w3.org/2000/svg"><path d="M21.25 16.5a.75.75 0 0 1 .1 1.5H16.5v-1.5h4.75ZM4 10h1.5V6.75c0-.14.11-.25.25-.25h12.5c.14 0 .25.11.25.25v7.5c0 .14-.11.25-.25.25H16.5V16h1.75c.97 0 1.75-.78 1.75-1.75v-7.5C20 5.78 19.22 5 18.25 5H5.75C4.78 5 4 5.78 4 6.75V10Zm3.75 7a.75.75 0 0 0 0 1.5h2.5a.75.75 0 0 0 0-1.5h-2.5Zm-3.5-6C3.01 11 2 12 2 13.25v5.5C2 19.99 3 21 4.25 21h9c1.24 0 2.25-1 2.25-2.25v-5.5c0-1.24-1-2.25-2.25-2.25h-9Zm-.75 2.25c0-.41.34-.75.75-.75h9c.41 0 .75.34.75.75v5.5c0 .41-.34.75-.75.75h-9a.75.75 0 0 1-.75-.75v-5.5Z"/></svg>