<svg width="16" height="16" viewBox="0 0 16 16" xmlns="http://www.w3.org/2000/svg"><path d="M7.65 2.15c.2-.2.5-.2.7 0A5.71 5.71 0 0 0 12.5 4c.28 0 .5.22.5.5v3c0 3.22-1.64 5.4-4.84 6.47a.5.5 0 0 1-.32 0C4.64 12.91 3 10.72 3 7.5v-3c0-.28.22-.5.5-.5 1.53 0 2.9-.61 4.15-1.85ZM8 3.19a6.65 6.65 0 0 1-4 1.8V7.5c0 1.43.36 2.57 1.02 3.45.64.85 1.61 1.54 2.98 2.02a6.13 6.13 0 0 0 2.98-2.02A5.57 5.57 0 0 0 12 7.5V4.98a6.64 6.64 0 0 1-4-1.8Zm.75 7.56a.75.75 0 1 1-1.5 0 .75.75 0 0 1 1.5 0Zm-1.5-4a.75.75 0 0 1 1.5 0c0 .26-.14.44-.48.77l-.03.03c-.3.3-.74.74-.74 1.45a.5.5 0 0 0 1 0c0-.27.15-.44.48-.77L9 8.2c.3-.3.74-.74.74-1.45a1.75 1.75 0 1 0-3.5 0 .5.5 0 0 0 1 0Z"/></svg>