<svg width="20" height="20" viewBox="0 0 20 20" xmlns="http://www.w3.org/2000/svg"><path d="M2.85 2.15a.5.5 0 1 0-.7.7l4.2 4.22A1 1 0 0 0 5 8a1 1 0 1 0 1.93-.36l3.43 3.43a1 1 0 1 0 .57.57l6.22 6.21a.5.5 0 0 0 .7-.7l-15-15ZM15 12a1 1 0 0 1-.23.64l-1.41-1.4A1 1 0 0 1 15 12Zm-4-4a1 1 0 0 1-.23.64l-1.41-1.4A1 1 0 0 1 11 8ZM7 4a1 1 0 0 1-.23.64l-1.41-1.4A1 1 0 0 1 7 4Zm0 8a1 1 0 1 1-2 0 1 1 0 0 1 2 0Zm3-7a1 1 0 1 0 0-2 1 1 0 0 0 0 2Zm1 11a1 1 0 1 1-2 0 1 1 0 0 1 2 0Zm3-11a1 1 0 1 0 0-2 1 1 0 0 0 0 2Zm1 3a1 1 0 1 1-2 0 1 1 0 0 1 2 0Z"/></svg>