<svg width="24" height="24" viewBox="0 0 24 24" xmlns="http://www.w3.org/2000/svg"><path d="M3.28 2.22a.75.75 0 1 0-1.06 1.06l4.5 4.5a1.25 1.25 0 1 0 1.5 1.5l3.5 3.5a1.25 1.25 0 1 0 1.5 1.5l7.5 7.5a.75.75 0 0 0 1.06-1.06L3.28 2.22ZM18.25 14c0 .3-.1.57-.28.79l-1.76-1.76a1.25 1.25 0 0 1 2.04.97Zm-5-5c0 .3-.1.57-.28.79l-1.76-1.76a1.25 1.25 0 0 1 2.04.97Zm-5-5c0 .3-.1.58-.28.79L6.21 3.03c.22-.17.5-.28.8-.28.68 0 1.24.56 1.24 1.25ZM12 17.75a1.25 1.25 0 1 1 0 2.5 1.25 1.25 0 0 1 0-2.5Zm-5-5a1.25 1.25 0 1 1 0 2.5 1.25 1.25 0 0 1 0-2.5Zm10-5a1.25 1.25 0 1 1 0 2.5 1.25 1.25 0 0 1 0-2.5Zm-5-5a1.25 1.25 0 1 1 0 2.5 1.25 1.25 0 0 1 0-2.5Zm5 0a1.25 1.25 0 1 1 0 2.5 1.25 1.25 0 0 1 0-2.5Z"/></svg>