<svg width="20" height="20" viewBox="0 0 20 20" xmlns="http://www.w3.org/2000/svg"><path d="M2.85 2.15a.5.5 0 1 0-.7.7l3.9 3.9H6a1.25 1.25 0 1 0 1.25 1.2l2.8 2.8H10a1.25 1.25 0 1 0 1.25 1.2l5.9 5.9a.5.5 0 0 0 .7-.7l-15-15ZM15.25 12c0 .31-.12.6-.3.82l-1.77-1.76a1.25 1.25 0 0 1 2.07.94Zm-4-4c0 .31-.12.6-.3.82L9.17 7.06a1.25 1.25 0 0 1 2.07.94Zm-4-4c0 .31-.12.6-.3.82L5.17 3.06A1.25 1.25 0 0 1 7.25 4Zm0 8a1.25 1.25 0 1 1-2.5 0 1.25 1.25 0 0 1 2.5 0ZM10 5.25a1.25 1.25 0 1 0 0-2.5 1.25 1.25 0 0 0 0 2.5ZM11.25 16a1.25 1.25 0 1 1-2.5 0 1.25 1.25 0 0 1 2.5 0ZM14 5.25a1.25 1.25 0 1 0 0-2.5 1.25 1.25 0 0 0 0 2.5ZM15.25 8a1.25 1.25 0 1 1-2.5 0 1.25 1.25 0 0 1 2.5 0Z"/></svg>