<svg width="24" height="24" viewBox="0 0 24 24" xmlns="http://www.w3.org/2000/svg"><path d="M7 6a1 1 0 0 1 1-1h8a1 1 0 0 1 1 1v2a1 1 0 0 1-1 1H8a1 1 0 0 1-1-1V6Zm1.5 1.5h7v-1h-7v1ZM4 4.5A2.5 2.5 0 0 1 6.5 2H18a2.5 2.5 0 0 1 2.5 2.5v7.23a6.46 6.46 0 0 0-1.5-.56V4.5a1 1 0 0 0-1-1H6.5a1 1 0 0 0-1 1V18h5.52c.04.52.14 1.02.3 1.5H5.5a1 1 0 0 0 1 1h5.23c.29.55.65 1.06 1.08 1.5H6.5A2.5 2.5 0 0 1 4 19.5v-15Zm19 13a5.5 5.5 0 1 0-11 0 5.5 5.5 0 0 0 11 0Zm-5 .5v2.5a.5.5 0 1 1-1 0V18h-2.5a.5.5 0 0 1 0-1H17v-2.5a.5.5 0 1 1 1 0V17h2.5a.5.5 0 0 1 0 1H18Z"/></svg>