<svg width="28" height="28" viewBox="0 0 28 28" xmlns="http://www.w3.org/2000/svg"><path d="M4.5 5.75c0-1.8 1.46-3.25 3.25-3.25h12.5c1.8 0 3.25 1.46 3.25 3.25v7.87a7.5 7.5 0 0 0-10.23 8.88H6.02c.12.85.85 1.5 1.73 1.5h6.12c.28.54.63 1.05 1.04 1.5H7.75a3.25 3.25 0 0 1-3.25-3.25V5.75ZM8 7.25v1c0 .69.56 1.25 1.25 1.25h9.5c.69 0 1.25-.56 1.25-1.25v-1C20 6.56 19.44 6 18.75 6h-9.5C8.56 6 8 6.56 8 7.25ZM27 20.5a6.5 6.5 0 1 1-13 0 6.5 6.5 0 0 1 13 0Zm-6-4a.5.5 0 0 0-1 0V20h-3.5a.5.5 0 0 0 0 1H20v3.5a.5.5 0 0 0 1 0V21h3.5a.5.5 0 0 0 0-1H21v-3.5Z"/></svg>