<svg width="28" height="28" viewBox="0 0 28 28" xmlns="http://www.w3.org/2000/svg"><path d="M7.75 2.5A3.25 3.25 0 0 0 4.5 5.75v16.5c0 1.8 1.46 3.25 3.25 3.25h7.16c-.4-.45-.76-.96-1.04-1.5H7.75c-.88 0-1.61-.65-1.73-1.5h7.25a7.48 7.48 0 0 1-.25-1.5H6V5.75C6 4.78 6.78 4 7.75 4h12.5c.97 0 1.75.78 1.75 1.75v7.4c.52.1 1.02.27 1.5.47V5.75c0-1.8-1.46-3.25-3.25-3.25H7.75ZM9.25 6C8.56 6 8 6.56 8 7.25v2c0 .69.56 1.25 1.25 1.25h9.5c.69 0 1.25-.56 1.25-1.25v-2C20 6.56 19.44 6 18.75 6h-9.5Zm.25 3V7.5h9V9h-9ZM27 20.5a6.5 6.5 0 1 1-13 0 6.5 6.5 0 0 1 13 0Zm-6-4a.5.5 0 0 0-1 0V20h-3.5a.5.5 0 0 0 0 1H20v3.5a.5.5 0 0 0 1 0V21h3.5a.5.5 0 0 0 0-1H21v-3.5Z"/></svg>