<svg width="24" height="24" viewBox="0 0 24 24" xmlns="http://www.w3.org/2000/svg"><path d="M3 4.5A2.5 2.5 0 0 1 5.5 2H17a2.5 2.5 0 0 1 2.5 2.5v6.81a6.48 6.48 0 0 0-1.5-.3V4.5a1 1 0 0 0-1-1H5.5a1 1 0 0 0-1 1V18h6.52c.04.52.14 1.02.3 1.5H4.5a1 1 0 0 0 1 1h6.23c.29.55.65 1.06 1.08 1.5H5.5A2.5 2.5 0 0 1 3 19.5v-15ZM17.5 12a5.5 5.5 0 1 1 0 11 5.5 5.5 0 0 1 0-11Zm.5 8.5V18h2.5a.5.5 0 1 0 0-1H18v-2.5a.5.5 0 1 0-1 0V17h-2.5a.5.5 0 0 0 0 1H17v2.5a.5.5 0 1 0 1 0ZM6 6a1 1 0 0 1 1-1h8a1 1 0 0 1 1 1v2a1 1 0 0 1-1 1H7a1 1 0 0 1-1-1V6Zm1.5 1.5h7v-1h-7v1Z"/></svg>