<svg width="16" height="16" viewBox="0 0 16 16" xmlns="http://www.w3.org/2000/svg"><path d="m9.65 1.44 2.91 2.91c.28.29.44.67.44 1.06V13a2 2 0 0 1-2 2H8.74a2.45 2.45 0 0 0 .46-1H11a1 1 0 0 0 1-1V6H9.5A1.5 1.5 0 0 1 8 4.5V2H5a1 1 0 0 0-1 1v6.52l-.04-.04-.06-.04c-.27-.19-.58-.3-.9-.36V3c0-1.1.9-2 2-2h3.59c.4 0 .78.16 1.06.44ZM9 4.5c0 .28.22.5.5.5h2.3L9 2.2v2.3Zm-1 7.1a1.5 1.5 0 0 1-.27.76 1.5 1.5 0 0 1-.12 2.37 1.5 1.5 0 0 1-.86.27H5.5a.5.5 0 0 1-.5-.5v-4a.5.5 0 0 1 .5-.5h1A1.5 1.5 0 0 1 8 11.6ZM6.5 11H6v1h.5a.5.5 0 1 0 0-1ZM6 14h.75a.5.5 0 1 0 0-1H6v1Zm-2.48-1.41c.24.39.4.82.5 1.27l.02.08.06.2a.5.5 0 0 1-.35.86c-.47 0-.59-.46-.7-.9v-.01c-.1-.36-.28-1.1-.55-1.1H2v1.5a.5.5 0 1 1-1 0v-4a.5.5 0 0 1 .5-.5h1a1.5 1.5 0 0 1 1.02 2.6Zm-1.02-1.6H2v1h.5a.5.5 0 1 0 0-1Z"/></svg>