<svg width="24" height="24" viewBox="0 0 24 24" xmlns="http://www.w3.org/2000/svg"><path d="M13.75 2C14.99 2 16 3 16 4.25V11h-.25A2.75 2.75 0 0 0 13 13.75v.3a2.5 2.5 0 0 0-2 2.45V18H8.75a.75.75 0 0 0 0 1.5H11v2c0 .17.02.34.05.5h-4.8C5.01 22 4 21 4 19.75V4.25C4 3.01 5 2 6.25 2h7.5ZM14 13.75V15h-.5c-.83 0-1.5.67-1.5 1.5v5c0 .83.67 1.5 1.5 1.5h8c.83 0 1.5-.67 1.5-1.5v-5c0-.83-.67-1.5-1.5-1.5H21v-1.25c0-.97-.78-1.75-1.75-1.75h-3.5c-.97 0-1.75.78-1.75 1.75Zm1.5 0c0-.14.11-.25.25-.25h3.5c.14 0 .25.11.25.25V15h-4v-1.25Z"/></svg>