<svg width="28" height="28" viewBox="0 0 28 28" xmlns="http://www.w3.org/2000/svg"><path d="M14.75 2.75a.75.75 0 00-1.5 0v1.5a.75.75 0 001.5 0v-1.5zM20 14a6 6 0 11-12 0 6 6 0 0112 0zm-1.5 0A4.5 4.5 0 0014 9.5v9a4.5 4.5 0 004.5-4.5zm7.5 0c0 .41-.34.75-.75.75h-1.5a.75.75 0 010-1.5h1.5c.41 0 .75.34.75.75zm-11.25 9.75a.75.75 0 00-1.5 0v1.5a.75.75 0 001.5 0v-1.5zM5 14c0 .41-.34.75-.75.75h-1.5a.75.75 0 010-1.5h1.5c.41 0 .75.34.75.75zm1.28-8.78a.75.75 0 10-1.06 1.06l1.5 1.5a.75.75 0 001.06-1.06l-1.5-1.5zM5.22 22.78c.3.3.77.3 1.06 0l1.5-1.5a.75.75 0 10-1.06-1.06l-1.5 1.5c-.3.3-.3.77 0 1.06zm16.5-17.56a.75.75 0 111.06 1.06l-1.5 1.5a.75.75 0 11-1.06-1.06l1.5-1.5zm1.06 17.56c-.3.3-.77.3-1.06 0l-1.5-1.5a.75.75 0 111.06-1.06l1.5 1.5c.3.3.3.77 0 1.06z"/></svg>