<svg width="48" height="48" viewBox="0 0 48 48" xmlns="http://www.w3.org/2000/svg"><path d="M24 4c.7 0 1.25.56 1.25 1.25v2.5a1.25 1.25 0 11-2.5 0v-2.5c0-.69.56-1.25 1.25-1.25zm.05 30.02a9.98 9.98 0 100-19.95 9.98 9.98 0 000 19.95zm0-2.5a7.48 7.48 0 110-14.95 7.48 7.48 0 010 14.95zm18.7-6.27a1.25 1.25 0 000-2.5h-2.5a1.25 1.25 0 000 2.5h2.5zM24 39c.7 0 1.25.56 1.25 1.25v2.5a1.25 1.25 0 01-2.5 0v-2.5c0-.7.56-1.25 1.25-1.25zM7.75 25.25a1.25 1.25 0 000-2.5h-2.5a1.25 1.25 0 100 2.5h2.5zM9.37 9.37a1.25 1.25 0 011.76 0l2.5 2.5a1.25 1.25 0 11-1.76 1.76l-2.5-2.5a1.25 1.25 0 010-1.76zm1.76 29.26a1.25 1.25 0 01-1.76-1.76l2.5-2.5a1.25 1.25 0 111.76 1.76l-2.5 2.5zm27.5-29.26a1.25 1.25 0 00-1.76 0l-2.5 2.5a1.25 1.25 0 101.76 1.76l2.5-2.5c.5-.48.5-1.28 0-1.76zm-1.76 29.26a1.25 1.25 0 001.76-1.76l-2.5-2.5a1.25 1.25 0 10-1.76 1.76l2.5 2.5z"/></svg>