<svg width="32" height="32" viewBox="0 0 32 32" xmlns="http://www.w3.org/2000/svg"><path d="M16 2a1 1 0 011 1v2a1 1 0 01-2 0V3a1 1 0 011-1zm0 21a7 7 0 100-14 7 7 0 000 14zm0-2a5 5 0 110-10 5 5 0 010 10zm13-4a1 1 0 000-2h-2a1 1 0 100 2h2zm-13 9a1 1 0 011 1v2a1 1 0 01-2 0v-2a1 1 0 011-1zM5 17a1 1 0 100-2H3a1 1 0 100 2h2zm.3-11.7a1 1 0 011.4 0l2 2a1 1 0 01-1.4 1.4l-2-2a1 1 0 010-1.4zm1.4 21.4a1 1 0 01-1.4-1.4l2-2a1 1 0 011.4 1.4l-2 2zm20-21.4a1 1 0 00-1.4 0l-2 2a1 1 0 001.4 1.4l2-2a1 1 0 000-1.4zm-3.4 19.4l2 2a1 1 0 001.4-1.4l-2-2a1 1 0 00-1.4 1.4z"/></svg>