<svg width="16" height="16" viewBox="0 0 16 16" xmlns="http://www.w3.org/2000/svg"><path d="M8.5 1.5a.5.5 0 00-1 0v1a.5.5 0 001 0v-1z"/><path d="M11 8a3 3 0 11-6 0 3 3 0 016 0zM8 6v4a2 2 0 100-4z"/><path d="M15 8a.5.5 0 01-.5.5h-1a.5.5 0 010-1h1c.28 0 .5.22.5.5z"/><path d="M8.5 13.5a.5.5 0 00-1 0v1a.5.5 0 001 0v-1z"/><path d="M3 8a.5.5 0 01-.5.5h-1a.5.5 0 010-1h1c.28 0 .5.22.5.5z"/><path d="M3.85 3.15a.5.5 0 00-.7.7l1 1a.5.5 0 10.7-.7l-1-1z"/><path d="M3.15 12.85c.2.2.5.2.7 0l1-1a.5.5 0 10-.7-.7l-1 1a.5.5 0 000 .7z"/><path d="M12.15 3.15a.5.5 0 01.7.7l-1 1a.5.5 0 01-.7-.7l1-1z"/><path d="M12.85 12.85a.5.5 0 01-.7 0l-1-1a.5.5 0 01.7-.7l1 1c.2.2.2.5 0 .7z"/></svg>