<svg width="48" height="48" viewBox="0 0 48 48" xmlns="http://www.w3.org/2000/svg"><path d="M25.25 5.25a1.25 1.25 0 10-2.5 0v2.5a1.25 1.25 0 002.5 0v-2.5zm8.77 18.8a9.98 9.98 0 11-19.95 0 9.98 9.98 0 0119.95 0zm-2.5 0a7.48 7.48 0 00-7.47-7.48H24v14.95h.05a7.48 7.48 0 007.47-7.47zM44 24c0 .69-.56 1.25-1.25 1.25h-2.5a1.25 1.25 0 010-2.5h2.5c.7 0 1.25.56 1.25 1.25zM25.25 40.25a1.25 1.25 0 10-2.5 0v2.5a1.25 1.25 0 002.5 0v-2.5zM9 24c0 .69-.56 1.25-1.25 1.25h-2.5a1.25 1.25 0 010-2.5h2.5c.7 0 1.25.56 1.25 1.25zm2.13-14.63a1.25 1.25 0 10-1.76 1.76l2.5 2.5a1.25 1.25 0 001.76-1.76l-2.5-2.5zM9.37 38.63c.48.5 1.28.5 1.76 0l2.5-2.5a1.25 1.25 0 10-1.76-1.76l-2.5 2.5a1.25 1.25 0 000 1.76zm27.5-29.26a1.25 1.25 0 111.76 1.76l-2.5 2.5a1.25 1.25 0 01-1.76-1.76l2.5-2.5zm1.76 29.26c-.48.5-1.28.5-1.76 0l-2.5-2.5a1.25 1.25 0 111.76-1.76l2.5 2.5c.5.48.5 1.28 0 1.76z"/></svg>