<svg width="24" height="24" viewBox="0 0 24 24" xmlns="http://www.w3.org/2000/svg"><path d="M12.75 2.75a.75.75 0 00-1.5 0v1.5a.75.75 0 001.5 0v-1.5zM17 12a5 5 0 11-10 0 5 5 0 0110 0zm-1.5 0A3.5 3.5 0 0012 8.5v7a3.5 3.5 0 003.5-3.5zm6.5 0c0 .41-.34.75-.75.75h-1.5a.75.75 0 010-1.5h1.5c.41 0 .75.34.75.75zm-9.25 7.75a.75.75 0 00-1.5 0v1.5a.75.75 0 001.5 0v-1.5zM5 12c0 .41-.34.75-.75.75h-1.5a.75.75 0 010-1.5h1.5c.41 0 .75.34.75.75zm.28-7.78a.75.75 0 10-1.06 1.06l1.5 1.5a.75.75 0 001.06-1.06l-1.5-1.5zM4.22 19.78c.3.3.77.3 1.06 0l1.5-1.5a.75.75 0 00-1.06-1.06l-1.5 1.5c-.3.3-.3.77 0 1.06zm14.5-15.56a.75.75 0 111.06 1.06l-1.5 1.5a.75.75 0 11-1.06-1.06l1.5-1.5zm1.06 15.56c-.3.3-.77.3-1.06 0l-1.5-1.5a.75.75 0 011.06-1.06l1.5 1.5c.3.3.3.77 0 1.06z"/></svg>