<svg width="16" height="16" viewBox="0 0 16 16" xmlns="http://www.w3.org/2000/svg"><path d="M9 9.5c0-.28.22-.5.5-.5h2c.28 0 .5.22.5.5v2a.5.5 0 0 1-.5.5h-2a.5.5 0 0 1-.5-.5v-2Zm1 1.5h1v-1h-1v1ZM4.19 1.11l-2.5 2c-.17.13-.19.36-.19.56V5.5c0 .56.19 1.08.5 1.5v7.5c0 .28.22.5.5.5h11a.5.5 0 0 0 .5-.5V7c.31-.42.5-.94.5-1.5V3.67c0-.2-.02-.43-.19-.56l-2.5-2A.5.5 0 0 0 11.5 1h-7a.5.5 0 0 0-.31.11ZM5.5 4v1.5a1.5 1.5 0 1 1-3 0V4h3Zm4 0v1.5a1.5 1.5 0 1 1-3 0V4h3Zm4 0v1.5a1.5 1.5 0 0 1-3 0V4h3ZM6.03 2l-.38 1H3.43l1.25-1h1.35Zm.7 1 .37-1h1.79l.33 1h-2.5Zm3.21-1h1.38l1.25 1h-2.3l-.33-1ZM13 7.8V14H8V9.5a.5.5 0 0 0-.5-.5h-3a.5.5 0 0 0-.5.5V14H3V7.8A2.5 2.5 0 0 0 6 7a2.5 2.5 0 0 0 4 0 2.5 2.5 0 0 0 3 .8ZM7 14H5v-4h2v4Z"/></svg>