<svg width="24" height="24" viewBox="0 0 24 24" xmlns="http://www.w3.org/2000/svg"><path d="M4.75 4h4a2.75 2.75 0 0 1 2.75 2.75v10.5A2.75 2.75 0 0 1 8.75 20h-4A2.75 2.75 0 0 1 2 17.25V6.75A2.75 2.75 0 0 1 4.75 4ZM6 9v6a.75.75 0 0 0 1.5 0V9A.75.75 0 0 0 6 9Zm9.25-5h4A2.75 2.75 0 0 1 22 6.75v10.5A2.75 2.75 0 0 1 19.25 20h-4a2.75 2.75 0 0 1-2.75-2.75V6.75A2.75 2.75 0 0 1 15.25 4Zm2.25 5.75v1.5h-1.25a.75.75 0 0 0-.75.75v3c0 .41.34.75.75.75h2a.75.75 0 0 0 0-1.5H17v-1.5h1.25c.41 0 .75-.34.75-.75V9a.75.75 0 0 0-.75-.75h-2a.75.75 0 0 0 0 1.5h1.25Z"/></svg>