<svg width="32" height="32" viewBox="0 0 32 32" xmlns="http://www.w3.org/2000/svg"><path d="M9 16a1 1 0 0 0-1 1v5a1 1 0 1 0 2 0v-1h.5a2.5 2.5 0 0 0 0-5H9Zm1.5 3H10v-1h.5a.5.5 0 0 1 0 1Zm3.5-2a1 1 0 0 1 1-1h.5a3.5 3.5 0 1 1 0 7H15a1 1 0 0 1-1-1v-5Zm2 3.91a1.5 1.5 0 0 0 0-2.82v2.82ZM20 22v-5a1 1 0 0 1 1-1h3a1 1 0 1 1 0 2h-2v1h2a1 1 0 1 1 0 2h-2v1a1 1 0 1 1-2 0ZM17 9V2H8a3 3 0 0 0-3 3v8a2 2 0 0 0-2 2v9c0 1.1.9 2 2 2v1a3 3 0 0 0 3 3h16a3 3 0 0 0 3-3v-1a2 2 0 0 0 2-2v-9a2 2 0 0 0-2-2v-1h-7a3 3 0 0 1-3-3Zm10 6v9H5v-9h22Zm-8-6V2.12a3 3 0 0 1 1.3.76l5.82 5.83a3 3 0 0 1 .76 1.29H20a1 1 0 0 1-1-1Z"/></svg>