<svg width="16" height="16" viewBox="0 0 16 16" xmlns="http://www.w3.org/2000/svg"><path d="M4.5 9a.5.5 0 0 0-.5.5v2a.5.5 0 0 0 1 0v-.16h.33a1.17 1.17 0 0 0 0-2.34H4.5Zm.83 1.34H5V10h.33a.17.17 0 0 1 0 .34ZM10 9.5c0-.27.22-.5.5-.5h1a.5.5 0 0 1 0 1H11v.34h.5a.5.5 0 1 1 0 1H11v.16a.5.5 0 0 1-1 0v-2ZM7.5 9a.5.5 0 0 0-.5.5v2c0 .28.22.5.5.5H8a1.5 1.5 0 0 0 0-3h-.5Zm.5 2v-1a.5.5 0 0 1 0 1ZM3 3.5v3.58c-.58.21-1 .77-1 1.42v4c0 .83.67 1.5 1.5 1.5h9c.83 0 1.5-.67 1.5-1.5v-4c0-.65-.42-1.21-1-1.42V5.41c0-.4-.16-.78-.44-1.06l-1.92-1.91A1.5 1.5 0 0 0 9.58 2H4.5C3.67 2 3 2.67 3 3.5ZM4.5 3H9v1.5c0 .83.67 1.5 1.5 1.5H12v1H4V3.5c0-.27.22-.5.5-.5Zm5.5.21L11.8 5h-1.3a.5.5 0 0 1-.5-.5V3.21ZM3.5 8h9c.28 0 .5.22.5.5v4a.5.5 0 0 1-.5.5h-9a.5.5 0 0 1-.5-.5v-4c0-.28.22-.5.5-.5Z"/></svg>