<svg width="24" height="24" viewBox="0 0 24 24" xmlns="http://www.w3.org/2000/svg"><path d="M12 4.5a4.5 4.5 0 0 0-4.5 4.29.75.75 0 0 1-.74.71H6.5a3 3 0 1 0 0 6h3.58a6.55 6.55 0 0 0-.06 1.5H6.5a4.5 4.5 0 0 1-.42-8.98 6 6 0 0 1 11.84 0 4.5 4.5 0 0 1 4.05 4.97 6.53 6.53 0 0 0-1.8-1.85A3 3 0 0 0 17.5 9.5h-.26a.75.75 0 0 1-.74-.71A4.5 4.5 0 0 0 12 4.5Zm10 12a5.5 5.5 0 1 0-11 0 5.5 5.5 0 0 0 11 0Zm-5 .5v2.5a.5.5 0 1 1-1 0V17h-2.5a.5.5 0 0 1 0-1H16v-2.5a.5.5 0 1 1 1 0V16h2.5a.5.5 0 0 1 0 1H17Z"/></svg>