<svg width="24" height="24" viewBox="0 0 24 24" xmlns="http://www.w3.org/2000/svg"><path d="M15.75 2C16.99 2 18 3 18 4.25v15.5c0 1.24-1 2.25-2.25 2.25h-7.5C7 22 6 21 6 19.75V4.25C6 3.01 7 2 8.25 2h7.5Zm0 1.5h-7.5a.75.75 0 0 0-.75.75v15.5c0 .41.33.75.75.75h7.5c.41 0 .75-.34.75-.75V4.25a.75.75 0 0 0-.75-.75Zm-2.5 14a.75.75 0 0 1 0 1.5h-2.5a.75.75 0 0 1 0-1.5h2.5Zm7.4-9.37.05.1.58 1.45c.33.83.24 1.77-.25 2.51l-.1.16-.16.2c-.23.31-.3.7-.2 1.08l.04.14.59 1.45a.75.75 0 0 1-1.35.65l-.05-.1-.58-1.45a2.75 2.75 0 0 1 .24-2.51l.11-.16.15-.2c.24-.31.31-.7.21-1.08l-.04-.14-.59-1.45a.75.75 0 0 1 1.29-.74l.06.09Zm-16.5 0 .05.1.58 1.45c.33.83.24 1.77-.25 2.51l-.1.16-.16.2c-.23.31-.3.7-.2 1.08l.04.14.59 1.45a.75.75 0 0 1-1.35.65l-.05-.1-.58-1.45a2.75 2.75 0 0 1 .24-2.51l.11-.16.15-.2c.24-.31.31-.7.21-1.08l-.04-.14-.59-1.45a.75.75 0 0 1 1.29-.74l.06.09Z"/></svg>