<svg width="24" height="24" viewBox="0 0 24 24" xmlns="http://www.w3.org/2000/svg"><path d="M15.75 2C16.99 2 18 3 18 4.25v15.5c0 1.24-1 2.25-2.25 2.25h-7.5C7 22 6 21 6 19.75V4.25C6 3.01 7 2 8.25 2h7.5Zm-2.5 16h-2.5a.75.75 0 0 0-.1 1.5h2.6a.75.75 0 0 0 0-1.5Zm6.88-10.43a1 1 0 0 1 1.25.45l.05.1L22 9.6a3 3 0 0 1-.27 2.74l-.12.17-.15.2a1 1 0 0 0-.17.85l.04.12.59 1.46a1 1 0 0 1-1.81.85l-.05-.1-.58-1.47a3 3 0 0 1 .26-2.74l.12-.17.15-.2a1 1 0 0 0 .17-.85l-.04-.12-.58-1.46a1 1 0 0 1 .56-1.3Zm-17.5 0a1 1 0 0 1 1.25.45l.05.1.58 1.47a3 3 0 0 1-.27 2.74l-.12.17-.15.2a1 1 0 0 0-.17.85l.04.12.59 1.46a1 1 0 0 1-1.81.85l-.05-.1L2 14.4a3 3 0 0 1 .26-2.74l.12-.17.15-.2a1 1 0 0 0 .17-.85l-.04-.12-.58-1.46a1 1 0 0 1 .56-1.3Z"/></svg>