<svg width="20" height="20" viewBox="0 0 20 20" xmlns="http://www.w3.org/2000/svg"><path d="M8.5 14.5a.5.5 0 000 1h3a.5.5 0 000-1h-3zM7 2a2 2 0 00-2 2v12c0 1.1.9 2 2 2h6a2 2 0 002-2V4a2 2 0 00-2-2H7zM6 4a1 1 0 011-1h6a1 1 0 011 1v12a1 1 0 01-1 1H7a1 1 0 01-1-1V4zM2.92 7.22a.5.5 0 00-.84.56l.38.57c.29.42.32.97.1 1.43-.4.78-.34 1.7.14 2.43l.38.57a.5.5 0 10.84-.56l-.38-.57a1.43 1.43 0 01-.1-1.43c.4-.78.34-1.7-.14-2.43l-.38-.57zm13.3-.14a.5.5 0 01.7.14l.38.57c.48.73.54 1.65.15 2.43-.23.46-.2 1 .09 1.43l.38.57a.5.5 0 11-.84.56l-.38-.57a2.43 2.43 0 01-.15-2.43c.23-.46.2-1-.09-1.43l-.38-.57a.5.5 0 01.14-.7z"/></svg>