<svg width="24" height="24" viewBox="0 0 24 24" xmlns="http://www.w3.org/2000/svg"><path d="M4.5 3.75a.75.75 0 0 0-1.5 0v16.5a.75.75 0 0 0 1.5 0V3.75Zm4 0c0-.41.34-.75.75-.75h8.5C19.55 3 21 4.46 21 6.25v11.5c0 1.8-1.46 3.25-3.25 3.25h-8.5a.75.75 0 0 1-.75-.75v-4.27A1.75 1.75 0 0 0 10.48 14H14v-4h-3.52A1.75 1.75 0 0 0 8.5 8.02V3.75ZM10 19.5h4v-4h-4v4Zm5.5-4v4h2.25c.97 0 1.75-.78 1.75-1.75V15.5h-4Zm4-5.5h-4v4h4v-4Zm0-1.5V6.25c0-.97-.78-1.75-1.75-1.75H15.5v4h4Zm-9.5-4v4h4v-4h-4Zm-.75 4.69c.3.27.34.75.06 1.06l-.89 1h2.83a.75.75 0 0 1 0 1.5H8.42l.9 1a.75.75 0 0 1-1.13 1l-2-2.25a.75.75 0 0 1 0-1l2-2.25a.75.75 0 0 1 1.06-.06Z"/></svg>