<svg width="16" height="16" viewBox="0 0 16 16" xmlns="http://www.w3.org/2000/svg"><path d="M2 13.5a.5.5 0 001 0v-11a.5.5 0 00-1 0v11zm12-9A2.5 2.5 0 0011.5 2h-5a.5.5 0 00-.5.5V5a1.5 1.5 0 011.41 1H10v4H7.41A1.5 1.5 0 016 11v2.5c0 .28.22.5.5.5h5a2.5 2.5 0 002.5-2.5v-7zM10 13H7v-2h3v2zM7 5V3h3v2H7zm6 1v4h-2V6h2zm0 5v.5c0 .83-.67 1.5-1.5 1.5H11v-2h2zm0-6h-2V3h.5c.83 0 1.5.67 1.5 1.5V5zM6.35 6.15c.2.2.2.5 0 .7l-.64.65H7.5a.5.5 0 010 1H5.7l.65.65a.5.5 0 11-.7.7l-1.5-1.5a.5.5 0 010-.7l1.5-1.5c.2-.2.5-.2.7 0z"/></svg>