<svg width="16" height="16" viewBox="0 0 16 16" xmlns="http://www.w3.org/2000/svg"><path d="M2 13.5a.5.5 0 0 0 1 0v-11a.5.5 0 0 0-1 0v11ZM6 5V2.5c0-.28.22-.5.5-.5H10v3H6Zm.5 9a.5.5 0 0 1-.5-.5V11h4v3H6.5Zm3.5-4H7.41c.06-.16.09-.33.09-.5a1.5 1.5 0 1 0 0-3c0-.17-.03-.34-.09-.5H10v4Zm1 1v3h.5a2.5 2.5 0 0 0 2.5-2.5V11h-3Zm3-5h-3v4h3V6Zm0-1.5V5h-3V2h.5A2.5 2.5 0 0 1 14 4.5ZM6.35 6.15c.2.2.2.5 0 .7l-.64.65H7.5a.5.5 0 0 1 0 1H5.7l.65.65a.5.5 0 1 1-.7.7l-1.5-1.5a.5.5 0 0 1 0-.7l1.5-1.5c.2-.2.5-.2.7 0Z"/></svg>