<svg width="28" height="28" viewBox="0 0 28 28" xmlns="http://www.w3.org/2000/svg"><path d="M3.75 25a.75.75 0 01-.75-.75V3.75a.75.75 0 011.5 0v20.5c0 .41-.34.75-.75.75zm6.16-7.44c.18-.16.32-.35.42-.56H17v-6h-6.67a1.74 1.74 0 00-.83-.83V4a1 1 0 011-1h10.75A3.75 3.75 0 0125 6.75v14.5A3.75 3.75 0 0121.25 25H10.5a1 1 0 01-1-1v-6.17c.15-.07.29-.16.41-.27zm1.09.94v5h6v-5h-6zm7.5 0v5h2.75c1.24 0 2.25-1 2.25-2.25V18.5h-5zm0-1.5h5v-6h-5v6zm5-10.25c0-1.24-1-2.25-2.25-2.25H18.5v5h5V6.75zM17 4.5h-6v5h6v-5zm-7.69 7.75l-.89 1H12a.75.75 0 010 1.5H8.42l.9 1a.75.75 0 01-1.13 1l-2-2.25a.75.75 0 010-1l2-2.25a.75.75 0 111.12 1z"/></svg>