<svg width="24" height="24" viewBox="0 0 24 24" xmlns="http://www.w3.org/2000/svg"><path d="M17.95 4.1a2.08 2.08 0 0 1 2.94 2.94.75.75 0 0 0-.07.08l-4.18 4.18a.67.67 0 0 1-.95-.95l3.83-3.82a.75.75 0 1 0-1.06-1.06l-3.83 3.82a2.17 2.17 0 1 0 3.07 3.07l4.32-4.32a3.58 3.58 0 0 0-5.13-5l-3.67 3.68a.75.75 0 1 0 1.06 1.06l3.67-3.68Zm-5.44 4.38c.3.3.68.47 1.07.5-.54.77-.71 1.72-.5 2.6l-1.08.57-9.98-5.23A3.25 3.25 0 0 1 5.06 4H14.52L12.51 6c-.68.68-.68 1.8 0 2.47Zm1.26 4.43.15.16a3.17 3.17 0 0 0 4.49 0l3.58-3.59v7.26A3.25 3.25 0 0 1 18.93 20H5.24a3.25 3.25 0 0 1-3.23-3.06L2 16.74V8.61l9.65 5.05c.22.11.48.11.7 0l1.42-.75Z"/></svg>