<svg width="20" height="20" viewBox="0 0 20 20" xmlns="http://www.w3.org/2000/svg"><path d="m13.23 8.35-.35-1.07a.42.42 0 0 0-.8 0l-.35 1.07a2.2 2.2 0 0 1-1.38 1.4l-1.07.35a.42.42 0 0 0 0 .8l1.07.34a2.2 2.2 0 0 1 1.4 1.4l.35 1.08a.42.42 0 0 0 .8 0l.35-1.07a2.2 2.2 0 0 1 1.4-1.4l1.07-.35a.42.42 0 0 0 0-.8h-.02l-1.08-.35a2.2 2.2 0 0 1-1.4-1.4ZM10 14.5c.45 0 .88-.06 1.28-.19a1.42 1.42 0 0 0 1.04.68c-.56.26-1.18.43-1.82.49v2.02a.5.5 0 0 1-1 0v-2.02a5.5 5.5 0 0 1-5-5.48.5.5 0 0 1 1 0 4.5 4.5 0 0 0 4.5 4.5Zm0-1.5a3 3 0 0 0 .78-.1 1.2 1.2 0 0 0-.74-.7l-1.08-.36h-.01a1.42 1.42 0 0 1-.93-1.57A2.02 2.02 0 0 1 8 10V5a2 2 0 1 1 4 0v1.08a1.42 1.42 0 0 1 1 .02V5a3 3 0 1 0-6 0v5a3 3 0 0 0 3 3Zm8.02 1.96.76.25h.02a.3.3 0 0 1 0 .58l-.77.25a1.58 1.58 0 0 0-1 1l-.24.76a.3.3 0 0 1-.58 0l-.24-.77a1.58 1.58 0 0 0-1-1l-.77-.25a.3.3 0 0 1 0-.57l.77-.25a1.58 1.58 0 0 0 .98-1l.25-.76a.3.3 0 0 1 .57 0l.25.77a1.58 1.58 0 0 0 1 1Z"/></svg>