<svg width="32" height="32" viewBox="0 0 32 32" xmlns="http://www.w3.org/2000/svg"><path d="M13.81 2.17a14.1 14.1 0 0 1 4.38 0 1 1 0 0 1-.31 1.98 12.1 12.1 0 0 0-3.76 0 1 1 0 1 1-.31-1.98Zm-10.5 10.8a1 1 0 0 1 .84 1.15 12.1 12.1 0 0 0 0 3.76 1 1 0 1 1-1.98.31 14.1 14.1 0 0 1 0-4.38 1 1 0 0 1 1.14-.83Zm25.38 0a1 1 0 0 1 1.14.84 14.1 14.1 0 0 1 0 4.38 1 1 0 1 1-1.98-.31 12.1 12.1 0 0 0 0-3.76 1 1 0 0 1 .84-1.14ZM12.98 28.7a1 1 0 0 1 1.14-.84 12.1 12.1 0 0 0 3.76 0 1 1 0 1 1 .31 1.98 14.1 14.1 0 0 1-4.38 0 1 1 0 0 1-.83-1.14ZM24.23 4.67a14.1 14.1 0 0 1 3.1 3.1 1 1 0 0 1-1.62 1.18 12.1 12.1 0 0 0-2.66-2.66 1 1 0 1 1 1.18-1.62ZM9.17 4.9a1 1 0 0 1-.22 1.4 12.1 12.1 0 0 0-2.66 2.66 1 1 0 1 1-1.62-1.18 14.1 14.1 0 0 1 3.1-3.1 1 1 0 0 1 1.4.22ZM27.1 22.83a1 1 0 0 1 .22 1.4 14.1 14.1 0 0 1-3.1 3.1 1 1 0 1 1-1.18-1.62 12.1 12.1 0 0 0 2.66-2.66 1 1 0 0 1 1.4-.22Zm-22.22 0a1 1 0 0 1 1.4.22 12.1 12.1 0 0 0 2.66 2.66 1 1 0 1 1-1.18 1.62 14.1 14.1 0 0 1-3.1-3.1 1 1 0 0 1 .22-1.4Zm13.22-10.22a1.63 1.63 0 0 1 2.53 2.04L16 20.4l-4.64-5.75a1.63 1.63 0 1 1 2.53-2.04l1.33 1.64a1 1 0 0 0 1.56 0l1.33-1.64Zm4.09-1.26a3.63 3.63 0 0 0-5.65 0l-.55.68-.55-.68a3.63 3.63 0 0 0-5.64 4.55l5.41 6.72a1 1 0 0 0 1.56 0l5.42-6.72a3.63 3.63 0 0 0 0-4.55Z"/></svg>