<svg width="32" height="32" viewBox="0 0 32 32" xmlns="http://www.w3.org/2000/svg"><path d="M3 7a4 4 0 0 1 4-4h14a4 4 0 0 1 4 4v14a4 4 0 0 1-4 4H7a4 4 0 0 1-4-4V7Zm4-2a2 2 0 0 0-2 2v14c0 .2.03.38.08.55l7.32-6.91c.9-.85 2.3-.85 3.2 0l7.32 6.91A2 2 0 0 0 23 21V7a2 2 0 0 0-2-2H7Zm0 18h14a2 2 0 0 0 .48-.06l-7.25-6.85a.33.33 0 0 0-.46 0l-7.25 6.85A2 2 0 0 0 7 23Zm11.5-11a1.5 1.5 0 1 0 0-3 1.5 1.5 0 0 0 0 3Zm-8 16.5a4 4 0 0 1-3.46-2H21a5.5 5.5 0 0 0 5.5-5.5V7.04a4 4 0 0 1 2 3.46V21a7.5 7.5 0 0 1-7.5 7.5H10.5Z"/></svg>