<svg width="48" height="48" viewBox="0 0 48 48" xmlns="http://www.w3.org/2000/svg"><path d="M10.75 5A5.75 5.75 0 005 10.75v21.5A5.75 5.75 0 0010.75 38h21.5A5.75 5.75 0 0038 32.25v-21.5A5.75 5.75 0 0032.25 5h-21.5zM7.5 10.75c0-1.8 1.46-3.25 3.25-3.25h21.5c1.8 0 3.25 1.46 3.25 3.25v21.5c0 .46-.1.9-.26 1.28L23.2 22.8a3.25 3.25 0 00-4.41.08L7.75 33.51a3.24 3.24 0 01-.25-1.26v-21.5zm2.03 24.51l11-10.57a.75.75 0 011.02-.02l11.88 10.6c-.36.15-.76.23-1.18.23h-21.5c-.43 0-.84-.08-1.22-.24zm5.72 7.24c-1.97 0-3.71-1-4.75-2.5h21.75A7.75 7.75 0 0040 32.25v-21.5-.25a5.74 5.74 0 012.5 4.75v17c0 5.66-4.59 10.25-10.25 10.25h-17zM30 16a2 2 0 11-4 0 2 2 0 014 0z"/></svg>