<svg width="16" height="16" viewBox="0 0 16 16" xmlns="http://www.w3.org/2000/svg"><path d="M10 5a1 1 0 11-2 0 1 1 0 012 0zM4.5 2A2.5 2.5 0 002 4.5v5A2.5 2.5 0 004.5 12h5A2.5 2.5 0 0012 9.5v-5A2.5 2.5 0 009.5 2h-5zM3 4.5C3 3.67 3.67 3 4.5 3h5c.83 0 1.5.67 1.5 1.5v5c0 .23-.05.45-.15.65L8.21 7.5a1.71 1.71 0 00-2.42 0l-2.64 2.65A1.5 1.5 0 013 9.5v-5zm.85 6.35L6.5 8.21a.71.71 0 011 0l2.65 2.64c-.2.1-.42.15-.65.15h-5a1.5 1.5 0 01-.65-.15zM7 14a2.5 2.5 0 01-2-1h4.5A3.5 3.5 0 0013 9.5V4c.6.46 1 1.18 1 2v3.5A4.5 4.5 0 019.5 14H7z"/></svg>