<svg width="20" height="20" viewBox="0 0 20 20" xmlns="http://www.w3.org/2000/svg"><path d="M8.07 5.83C7.83 5.17 8.25 4 9.79 4c.84 0 1.43.23 1.8.45a2.47 2.47 0 01.5.39l.02.02a.5.5 0 00.78-.63c-.21-.27 0 0 0 0v-.01l-.02-.02a1.76 1.76 0 00-.2-.2 3.47 3.47 0 00-.57-.41A4.5 4.5 0 009.8 3C7.57 3 6.64 4.83 7.12 6.17c.22.61.62 1.06 1.07 1.42.4.3.86.57 1.29.82l.15.09c.98.56 1.84 1.11 2.24 2.18.25.64.13 1.2-.21 1.62-.35.42-1 .74-1.88.74-1.08 0-1.6-.44-1.88-.83a2.02 2.02 0 01-.33-.8.5.5 0 00-1 .1s.01.04 0 0v.01a1.4 1.4 0 00.03.12 3.02 3.02 0 00.48 1.15c.46.65 1.29 1.25 2.7 1.25 1.12 0 2.07-.4 2.65-1.1.58-.7.74-1.66.38-2.62-.55-1.43-1.7-2.13-2.68-2.7l-.15-.08c-.45-.25-.84-.47-1.17-.74a2.18 2.18 0 01-.75-.97zM5.5 16a.5.5 0 000 1h9a.5.5 0 100-1h-9z"/></svg>