<svg width="20" height="20" viewBox="0 0 20 20" xmlns="http://www.w3.org/2000/svg"><path d="M8.3 5.75a.8.8 0 01.12-.78c.18-.22.56-.47 1.33-.47.8 0 1.28.21 1.55.38a1.45 1.45 0 01.32.28.75.75 0 001.27-.8c-.24-.39 0 0 0 0v-.01l-.01-.01-.02-.03a1.55 1.55 0 00-.19-.23c-.12-.13-.3-.3-.56-.46A4.3 4.3 0 009.75 3c-1.1 0-1.97.37-2.5 1.03a2.3 2.3 0 00-.36 2.22c.46 1.27 1.63 1.78 2.5 2.16l.2.09c.97.43 1.7.83 2.06 1.77.21.55.11 1.1-.2 1.5-.3.4-.86.73-1.66.73-1.09 0-1.67-.32-1.97-.57a1.53 1.53 0 01-.36-.44v-.01a.75.75 0 00-1.41.52c0 .03 0 0 0 0v.03a1.21 1.21 0 00.05.1l.14.26c.13.2.32.44.61.68.6.5 1.53.93 2.94.93 1.22 0 2.24-.5 2.86-1.32.62-.82.8-1.9.4-2.95-.6-1.56-1.88-2.16-2.86-2.6-1.07-.48-1.65-.75-1.88-1.38zm-2.5 9.8a.75.75 0 000 1.5h8.5a.75.75 0 000-1.5H5.8z"/></svg>