<svg width="24" height="24" viewBox="0 0 24 24" xmlns="http://www.w3.org/2000/svg"><path d="M12 2v6c0 1.1.9 2 2 2h6v10a2 2 0 0 1-2 2h-6.81A6.5 6.5 0 0 0 4 11.5V4c0-1.1.9-2 2-2h6Zm1.5.5V8c0 .28.22.5.5.5h5.5l-6-6ZM1 17.5a5.5 5.5 0 1 0 11 0 5.5 5.5 0 0 0-11 0ZM9.5 14c.28 0 .5.22.5.5v2a.5.5 0 0 1-.5.5h-2a.5.5 0 0 1 0-1h1a2.5 2.5 0 0 0-4.03.04.5.5 0 1 1-.8-.59 3.5 3.5 0 0 1 5.33-.4v-.55c0-.28.22-.5.5-.5ZM4 19.95v.55a.5.5 0 0 1-1 0v-2c0-.28.22-.5.5-.5h2a.5.5 0 0 1 0 1h-1a2.5 2.5 0 0 0 3.91.11.5.5 0 0 1 .77.65 3.5 3.5 0 0 1-5.18.19Z"/></svg>