<svg width="32" height="32" viewBox="0 0 32 32" xmlns="http://www.w3.org/2000/svg"><path d="M17 2v7a3 3 0 003 3h7v15a3 3 0 01-3 3h-8.84A9 9 0 005 15.2V5a3 3 0 013-3h9zm2 .12V9a1 1 0 001 1h6.88a3 3 0 00-.76-1.3L20.3 2.89A3 3 0 0019 2.12zM17 23a7.5 7.5 0 10-15 0 7.5 7.5 0 0015 0zm-2.75 0h-3a.75.75 0 010-1.5h.85a3 3 0 00-4.4-.9.76.76 0 01-.8.1c-.48-.24-.63-.88-.2-1.23a4.48 4.48 0 016.8 1.47v-1.19a.75.75 0 011.5 0v2.5c0 .41-.34.75-.75.75zm-2.17 2.58c.33.33.33.88-.06 1.15a4.48 4.48 0 01-6.52-1.67v1.19a.75.75 0 01-1.5 0v-2.5c0-.41.34-.75.75-.75h3a.75.75 0 010 1.5H6.9a3 3 0 004.22 1.02c.3-.19.7-.2.96.06z"/></svg>