<svg width="20" height="20" viewBox="0 0 20 20" xmlns="http://www.w3.org/2000/svg"><path d="M14.5 3A2.5 2.5 0 0 1 17 5.34v9.16a2.5 2.5 0 0 1-2.34 2.5H5.5A2.5 2.5 0 0 1 3 14.66V5.5A2.5 2.5 0 0 1 5.34 3h9.16ZM16 7H4v7.5c0 .78.6 1.42 1.36 1.5h9.14c.78 0 1.42-.6 1.5-1.36V7Zm-4.48 1.23c.53 0 .95.15 1.27.43.3.28.46.67.46 1.15 0 .28-.07.53-.21.75-.14.21-.34.39-.59.51.3.14.53.33.69.57.16.24.24.5.24.8 0 .5-.17.9-.5 1.2a2 2 0 0 1-1.36.44 2 2 0 0 1-1.36-.44 1.5 1.5 0 0 1-.5-1.2c0-.3.07-.57.24-.81.16-.24.38-.43.67-.56-.24-.12-.43-.3-.58-.51a1.33 1.33 0 0 1-.2-.75c0-.48.15-.87.46-1.15.31-.28.74-.43 1.27-.43ZM8.5 8.3V14h-.95V9.43l-1.4.48v-.8l2.22-.82h.13Zm3.01 3.17c-.27 0-.5.09-.66.26a.94.94 0 0 0-.25.68c0 .28.08.5.25.67a.9.9 0 0 0 .67.25.9.9 0 0 0 .67-.24.92.92 0 0 0 .24-.68c0-.28-.08-.5-.25-.68a.89.89 0 0 0-.67-.26Zm0-2.46a.74.74 0 0 0-.57.22.88.88 0 0 0-.2.63c0 .26.06.47.2.62.15.15.34.23.58.23.24 0 .43-.08.58-.23a.88.88 0 0 0 .2-.62.88.88 0 0 0-.2-.61.74.74 0 0 0-.58-.24Zm2.99-5h-9c-.78 0-1.42.6-1.5 1.36V6h12v-.5c0-.78-.6-1.42-1.36-1.5h-.14Z"/></svg>