<svg width="24" height="24" viewBox="0 0 24 24" xmlns="http://www.w3.org/2000/svg"><path d="M17.75 3C19.55 3 21 4.46 21 6.25v11.5c0 1.8-1.46 3.25-3.25 3.25H6.25A3.25 3.25 0 0 1 3 17.75V6.25C3 4.45 4.46 3 6.25 3h11.5Zm1.75 5.5h-15v9.25c0 .97.78 1.75 1.75 1.75h11.5c.97 0 1.75-.78 1.75-1.75V8.5ZM14 10.2c.66 0 1.2.17 1.58.53.4.35.59.83.59 1.44 0 .35-.1.66-.27.93-.18.27-.42.48-.73.64.37.17.65.4.85.7.2.3.3.65.3 1.02 0 .63-.2 1.12-.63 1.5a2.5 2.5 0 0 1-1.69.54 2.5 2.5 0 0 1-1.7-.55 1.86 1.86 0 0 1-.63-1.49c0-.38.1-.72.3-1.02.2-.3.48-.54.85-.7-.3-.16-.55-.37-.73-.64a1.66 1.66 0 0 1-.26-.93c0-.6.2-1.09.58-1.44.4-.36.92-.53 1.59-.53Zm-3.78.07v7.13H9.04v-5.7l-1.75.59v-1l2.78-1.02h.15Zm3.77 3.96c-.34 0-.62.1-.83.32-.2.22-.3.5-.3.86 0 .34.1.62.3.83.2.2.48.31.84.31s.64-.1.84-.3c.2-.2.3-.48.3-.84s-.1-.64-.32-.86a1.1 1.1 0 0 0-.83-.32Zm0-3.08c-.3 0-.54.1-.71.28a1.1 1.1 0 0 0-.27.78c0 .33.1.59.27.78.18.19.42.29.72.29s.54-.1.72-.3c.18-.18.27-.44.27-.77 0-.3-.1-.56-.27-.76a.92.92 0 0 0-.72-.3Zm3.76-6.65H6.25c-.97 0-1.75.78-1.75 1.75V7h15v-.75c0-.97-.78-1.75-1.75-1.75Z"/></svg>