<svg width="28" height="28" viewBox="0 0 28 28" xmlns="http://www.w3.org/2000/svg"><path d="M25 9.5v12.25c0 1.8-1.46 3.25-3.25 3.25H6.25A3.25 3.25 0 0 1 3 21.75V9.5h22Zm-8 2.73c-.8 0-1.44.22-1.9.64-.47.43-.7 1-.7 1.73 0 .42.1.8.31 1.12.21.32.5.58.87.77-.44.2-.78.47-1.02.84-.24.36-.36.77-.36 1.23 0 .74.25 1.34.76 1.78A3 3 0 0 0 17 21c.84 0 1.52-.22 2.03-.66.5-.44.76-1.03.76-1.78 0-.46-.12-.86-.36-1.22a2.43 2.43 0 0 0-1.03-.85c.37-.19.66-.45.88-.77.21-.33.32-.7.32-1.12 0-.72-.23-1.3-.7-1.73a2.73 2.73 0 0 0-1.9-.64Zm-5.04.1h-.18l-3.33 1.22v1.2l2.1-.72v6.85h1.41v-8.56ZM17 17.06c.41 0 .75.13 1 .4.25.25.38.6.38 1.02 0 .43-.12.77-.37 1.01-.24.24-.57.36-1 .36-.43 0-.77-.12-1.01-.37a1.37 1.37 0 0 1-.37-1c0-.43.13-.77.38-1.03.24-.26.57-.39.99-.39Zm0-3.7c.37 0 .66.13.87.37.22.24.32.54.32.91 0 .4-.1.7-.32.94-.2.23-.5.34-.86.34s-.65-.11-.86-.34a1.32 1.32 0 0 1-.32-.94c0-.39.1-.7.31-.93.21-.23.5-.34.86-.34ZM21.75 3C23.55 3 25 4.46 25 6.25V8H3V6.25C3 4.45 4.46 3 6.25 3h15.5Z"/></svg>