<svg width="28" height="28" viewBox="0 0 28 28" xmlns="http://www.w3.org/2000/svg"><path d="M21.75 3C23.55 3 25 4.46 25 6.25v15.5c0 1.8-1.46 3.25-3.25 3.25H6.25A3.25 3.25 0 0 1 3 21.75V6.25C3 4.45 4.46 3 6.25 3h15.5Zm1.75 6.5h-19v12.25c0 .97.78 1.75 1.75 1.75h15.5c.97 0 1.75-.78 1.75-1.75V9.5ZM17 12.23c.8 0 1.43.22 1.9.64.47.43.7 1 .7 1.73 0 .42-.1.8-.32 1.12-.22.32-.5.58-.88.77.45.2.79.49 1.03.85s.36.76.36 1.22c0 .75-.25 1.34-.76 1.78-.51.44-1.19.66-2.03.66a3 3 0 0 1-2.04-.66 2.24 2.24 0 0 1-.76-1.78c0-.46.12-.87.36-1.23.24-.37.58-.65 1.02-.84a2.22 2.22 0 0 1-.87-.77 2 2 0 0 1-.32-1.12c0-.72.24-1.3.7-1.73.47-.42 1.1-.64 1.9-.64Zm-5.04.1v8.55h-1.41v-6.85l-2.1.72v-1.2l3.33-1.23h.18ZM17 17.06c-.42 0-.75.13-1 .4-.24.25-.37.6-.37 1.02 0 .41.13.75.37 1s.58.37 1.01.37c.43 0 .76-.12 1-.36.25-.24.37-.58.37-1.01 0-.43-.13-.77-.38-1.03a1.33 1.33 0 0 0-1-.39Zm0-3.7c-.36 0-.65.12-.86.35-.2.23-.31.54-.31.93 0 .4.1.7.32.94.2.23.5.34.86.34s.65-.11.86-.34c.22-.23.32-.55.32-.94 0-.37-.1-.67-.32-.91a1.1 1.1 0 0 0-.87-.36Zm4.76-8.87H6.25c-.97 0-1.75.78-1.75 1.75V8h19V6.25c0-.97-.78-1.75-1.75-1.75Z"/></svg>