<svg width="24" height="24" viewBox="0 0 24 24" xmlns="http://www.w3.org/2000/svg"><path d="M12 3.62L3.9 8.43l8.1 4.22 8.23-4.22L12 3.62zm-.17 10.61a.83.83 0 01-.19-.07L3.5 9.91v6.84c0 .92.7 1.67 1.6 1.74l.15.01h8.06c-.2.38-.31.81-.31 1.27v.1a4 4 0 000 .13H5.25a3.25 3.25 0 01-3.24-3.07L2 16.75V9.1c0-.73.36-1.42.96-1.84l.14-.1 8.5-5.05a.75.75 0 01.78 0l9 5.26c.85.5.82 1.74-.06 2.19L18.52 11h-.02a3.5 3.5 0 00-2.85 1.47l-3.3 1.7a.75.75 0 01-.52.06zm9.17.27a2.5 2.5 0 11-5 0 2.5 2.5 0 015 0zm2 5.38c0 1.55-1.29 3.12-4.5 3.12S14 21.44 14 19.87v-.1c0-.98.8-1.77 1.77-1.77h5.46c.98 0 1.77.8 1.77 1.77v.1z"/></svg>