<svg width="16" height="16" viewBox="0 0 16 16" xmlns="http://www.w3.org/2000/svg"><path d="M8.24 1.56a.5.5 0 00-.48 0L1.8 4.78a1.5 1.5 0 00-.57.54h.02a.5.5 0 01.03.02l.28.15L8 8.93l.57-.3A3.01 3.01 0 0111.5 5a3 3 0 012.16.92l1.12-.6a1.5 1.5 0 00-.57-.54L8.24 1.56zM1 6.33l.08.04 6.78 3.65a.3.3 0 01.08.47l-.3.33v.01A2.5 2.5 0 007 12.5c0 .51.12 1.03.37 1.5H3a2 2 0 01-2-2V6.33zM13.5 8a2 2 0 11-4 0 2 2 0 014 0zm1.5 4.5c0 1.25-1 2.5-3.5 2.5S8 13.75 8 12.5c0-.83.67-1.5 1.5-1.5h4c.83 0 1.5.67 1.5 1.5z"/></svg>