<svg width="16" height="16" viewBox="0 0 16 16" xmlns="http://www.w3.org/2000/svg"><path d="M2.49 6h.01l-.4-.21a.5.5 0 01.16-.13L8 2.57l5.95 3.2-.29.15a3 3 0 01.57.83l.27-.14a.95.95 0 000-1.68L8.23 1.56a.5.5 0 00-.47 0L1.8 4.78A1.5 1.5 0 001 6.1V12c0 1.1.9 2 2 2h4.37a3.18 3.18 0 01-.33-1H3a1 1 0 01-1-1V6.87l5.53 2.95a1 1 0 00.94 0l.47-.25c-.17-.29-.3-.6-.37-.94l-.57.3L2.5 6zM13.5 8a2 2 0 11-4 0 2 2 0 014 0zm1.5 4.5c0 1.25-1 2.5-3.5 2.5S8 13.75 8 12.5c0-.83.67-1.5 1.5-1.5h4c.83 0 1.5.67 1.5 1.5z"/></svg>