<svg width="24" height="24" viewBox="0 0 24 24" xmlns="http://www.w3.org/2000/svg"><path d="M15.25 12.25c0-.97-.78-1.75-1.75-1.75h-6c-.97 0-1.75.78-1.75 1.75v.5c0 1.08.52 1.66 1.38 2.2.85.54 2.02.8 3.37.8 1.59 0 2.77-.26 3.57-.8.81-.56 1.18-1.15 1.18-2.2v-.5Zm-8 0c0-.14.11-.25.25-.25h6c.14 0 .25.11.25.25v.5c0 .27-.03.33-.1.45l-.06.1c-.1.21-.26.38-.5.52-.5.29-1.31.43-2.59.43a5.41 5.41 0 0 1-2.41-.43 1.6 1.6 0 0 1-.62-.54 1.98 1.98 0 0 0-.1-.12c-.07-.1-.12-.17-.12-.41v-.5ZM13 7.5a2.5 2.5 0 1 1-5 0 2.5 2.5 0 0 1 5 0Zm-1.5 0a1 1 0 1 0-2 0 1 1 0 0 0 2 0ZM3 6.25C3 4.45 4.46 3 6.25 3h8.5C16.55 3 18 4.46 18 6.25v8.5c0 1.8-1.46 3.25-3.25 3.25h-8.5A3.25 3.25 0 0 1 3 14.75v-8.5ZM6.25 4.5c-.97 0-1.75.78-1.75 1.75v8.5c0 .97.78 1.75 1.75 1.75h8.5c.97 0 1.75-.78 1.75-1.75v-8.5c0-.97-.78-1.75-1.75-1.75h-8.5Zm2.5 16c-1.15 0-2.16-.6-2.74-1.5h9.24A3.75 3.75 0 0 0 19 15.25V6.01c.9.58 1.5 1.59 1.5 2.74v6.5c0 2.9-2.35 5.25-5.25 5.25h-6.5Z"/></svg>