<svg width="16" height="16" viewBox="0 0 16 16" xmlns="http://www.w3.org/2000/svg"><path d="M3 2.75c0-.41.34-.75.75-.75h5.5c.41 0 .75.34.75.75v2.66l1-1.22V2.75C11 1.78 10.22 1 9.25 1h-5.5C2.78 1 2 1.78 2 2.75V3h-.5a.5.5 0 0 0 0 1H2v2h-.5a.5.5 0 0 0 0 1H2v2h-.5a.5.5 0 0 0 0 1H2v.25c0 .97.78 1.75 1.75 1.75h.86l.82-1H3.75a.75.75 0 0 1-.75-.75V10h.5a.5.5 0 0 0 0-1H3V7h.5a.5.5 0 0 0 0-1H3V4h.5a.5.5 0 0 0 0-1H3v-.25Zm10.67.28c.2.07.33.26.33.47v9.75c0 .97-.78 1.75-1.75 1.75H4.5a.5.5 0 0 1-.39-.82l9-11a.5.5 0 0 1 .56-.15ZM5.56 14h6.69c.41 0 .75-.34.75-.75V4.9L5.56 14ZM5 4.5c0-.28.22-.5.5-.5h2a.5.5 0 0 1 0 1h-2a.5.5 0 0 1-.5-.5Zm6.5 4.75c0-.24-.3-.34-.45-.15l-2.25 3c-.12.16 0 .4.2.4h2a.5.5 0 0 0 .5-.5V9.25Z"/></svg>