<svg width="20" height="20" viewBox="0 0 20 20" xmlns="http://www.w3.org/2000/svg"><path d="M3 4c0-1.1.9-2 2-2h7a2 2 0 0 1 2 2v1.9l-1 1.19V4a1 1 0 0 0-1-1H5a1 1 0 0 0-1 1h.5a.5.5 0 0 1 0 1H4v3h.5a.5.5 0 0 1 0 1H4v3h.5a.5.5 0 0 1 0 1H4a1 1 0 0 0 1 1h2.2l-.85 1H5a2 2 0 0 1-2-2h-.5a.5.5 0 0 1 0-1H3V9h-.5a.5.5 0 0 1 0-1H3V5h-.5a.5.5 0 0 1 0-1H3Zm12 7.61c0-.23-.29-.34-.44-.16l-2.64 3.14a.25.25 0 0 0 .2.41h2.13c.41 0 .75-.33.75-.75v-2.64Zm3-6.86a.75.75 0 0 0-1.33-.48l-10.5 12.5A.75.75 0 0 0 6.76 18H16a2 2 0 0 0 2-2V4.75Zm-1 .69V16a1 1 0 0 1-1 1H7.29l9.7-11.56ZM6 6.5c0-.28.22-.5.5-.5h4a.5.5 0 0 1 0 1h-4a.5.5 0 0 1-.5-.5Z"/></svg>