<svg width="24" height="24" viewBox="0 0 24 24" xmlns="http://www.w3.org/2000/svg"><path d="M5.25 2C4.01 2 3 3 3 4.25V5h-.75a.75.75 0 0 0 0 1.5H3v3.25h-.75a.75.75 0 0 0 0 1.5H3v3.25h-.75a.75.75 0 0 0 0 1.5H3v.75C3 17.99 4 19 5.25 19h1.78L17 6.55v-2.3C17 3.01 16 2 14.75 2h-9.5Zm2.5 5h4.5a.75.75 0 0 1 0 1.5h-4.5a.75.75 0 0 1 0-1.5Zm11.47-1.62A1 1 0 0 1 21 6v13.75c0 1.24-1 2.25-2.25 2.25H8a1 1 0 0 1-.78-1.63l12-15Zm-5.25 12.21c-.13.17-.01.41.2.41h2.33a.5.5 0 0 0 .5-.5v-2.98c0-.23-.3-.34-.45-.15l-2.58 3.22Z"/></svg>