<svg width="24" height="24" viewBox="0 0 24 24" xmlns="http://www.w3.org/2000/svg"><path d="M3 4.25C3 3.01 4 2 5.25 2h9.5C15.99 2 17 3 17 4.25v2.3l-1.5 1.88V4.25a.75.75 0 0 0-.75-.75h-9.5a.75.75 0 0 0-.75.75V5h.75a.75.75 0 0 1 0 1.5H4.5v3.25h.75a.75.75 0 0 1 0 1.5H4.5v3.25h.75a.75.75 0 0 1 0 1.5H4.5v.75c0 .41.34.75.75.75h2.99L7.04 19H5.25C4.01 19 3 18 3 16.75V16h-.75a.75.75 0 0 1 0-1.5H3v-3.25h-.75a.75.75 0 0 1 0-1.5H3V6.5h-.75a.75.75 0 0 1 0-1.5H3v-.75ZM7.75 7a.75.75 0 0 0 0 1.5h4.5a.75.75 0 0 0 0-1.5h-4.5ZM18 13.13a.5.5 0 0 0-.89-.32l-4.3 5.38a.5.5 0 0 0 .4.81h4.04c.41 0 .75-.34.75-.75v-5.12Zm-1.46 4.41H15.2l1.34-1.68v1.68ZM21 6a1 1 0 0 0-1.78-.62l-12 15A1 1 0 0 0 8 22h10.75c1.24 0 2.25-1 2.25-2.25V6Zm-1.5 1.43v12.32c0 .41-.34.75-.75.75h-9.7L19.5 7.43Z"/></svg>