<svg width="16" height="16" viewBox="0 0 16 16" xmlns="http://www.w3.org/2000/svg"><path d="M6.77 1.5a1.5 1.5 0 0 1 2.32.25l.18.28-4.24 4.24-.28-.18a1.5 1.5 0 0 1-.25-2.32L6.77 1.5Zm-.88 5.32L9.82 2.9l1.23 1.9a.5.5 0 0 0 .15.16l1.91 1.23-3.93 3.93-1.23-1.9a.5.5 0 0 0-.15-.16L5.89 6.82Zm3.84 4.15.18.28c.52.8 1.65.93 2.32.25l2.27-2.27a1.5 1.5 0 0 0-.25-2.32l-.28-.18-4.24 4.24ZM5.88 8.01l-4.44 4.43a1.5 1.5 0 1 0 2.12 2.12L8 10.13l-.84-1.3-1.28-.82ZM10 13a.5.5 0 0 0 0 1H8.5a.5.5 0 0 0 0 1h6a.5.5 0 0 0 0-1H13a.5.5 0 0 0 0-1h-3Z"/></svg>