<svg width="16" height="16" viewBox="0 0 16 16" xmlns="http://www.w3.org/2000/svg"><path d="M7.47 2.2a.5.5 0 0 1 .78.09l.3.46-2.8 2.8-.46-.3a.5.5 0 0 1-.08-.78l2.26-2.26Zm-.86 3.9L9.1 3.6l1.11 1.73c.12.18.27.33.45.45L12.4 6.9 9.9 9.4 8.8 7.66a1.5 1.5 0 0 0-.45-.45L6.6 6.1Zm6.64 1.36.46.3c.27.17.3.54.08.77l-2.26 2.26a.5.5 0 0 1-.78-.08l-.3-.46 2.8-2.8ZM9.09 1.75a1.5 1.5 0 0 0-2.32-.25L4.5 3.77a1.5 1.5 0 0 0 .25 2.32L6.17 7 1.6 11.6a2 2 0 1 0 2.82 2.83L9 9.83l.91 1.42c.52.8 1.65.93 2.32.25l2.27-2.27a1.5 1.5 0 0 0-.25-2.32L11.2 4.95a.5.5 0 0 1-.15-.15L9.1 1.75Zm-.65 7.22-4.73 4.74a1 1 0 0 1-1.42-1.41l4.74-4.74.77.5a.5.5 0 0 1 .15.14l.5.77ZM8 14.5c0-.28.22-.5.5-.5H10a.5.5 0 0 1 0-1h3a.5.5 0 1 1 0 1h1.5a.5.5 0 1 1 0 1h-6a.5.5 0 0 1-.5-.5Z"/></svg>