<svg width="20" height="20" viewBox="0 0 20 20" xmlns="http://www.w3.org/2000/svg"><path d="M6.44 5.28a1.5 1.5 0 0 0 .23 2.31l1.76 1.18-5.85 5.86a1.98 1.98 0 1 0 2.8 2.8l5.85-5.86 1.18 1.76c.53.79 1.64.9 2.3.23l2.85-2.84a1.5 1.5 0 0 0-.19-2.28l-3.31-2.39a.5.5 0 0 1-.12-.11l-2.38-3.31a1.5 1.5 0 0 0-2.28-.19L6.44 5.28Zm4.22 5.44-6 6a.98.98 0 0 1-1.37-1.39l5.99-5.99.74.5c.06.04.1.08.14.14l.5.74ZM7.22 6.76a.5.5 0 0 1-.07-.77l2.84-2.84a.5.5 0 0 1 .76.06l.56.79-3.29 3.3-.8-.54Zm1.65 1.1 3.04-3.04 1.22 1.7c.1.14.21.25.34.35l1.7 1.22-3.03 3.04-1.15-1.71a1.5 1.5 0 0 0-.41-.41L8.87 7.86ZM16 8.7l.79.56a.5.5 0 0 1 .06.76L14 12.85a.5.5 0 0 1-.77-.07l-.53-.8 3.3-3.3Zm-4 7.81c0-.28.22-.5.5-.5h3a.5.5 0 1 1 0 1h2a.5.5 0 1 1 0 1h-7a.5.5 0 1 1 0-1h2a.5.5 0 0 1-.5-.5Z"/></svg>