<svg width="24" height="24" viewBox="0 0 24 24" xmlns="http://www.w3.org/2000/svg"><path d="M10.73 2.71c.98-.98 2.6-.85 3.4.27l.33.44-6.47 6.47-.38-.25a2.25 2.25 0 0 1-.35-3.46l3.47-3.47Zm-1.47 8.03 2.56 1.7c.09.07.16.14.22.23l1.23 1.94 6.01-6.01-2.15-1.57a.75.75 0 0 1-.16-.16l-1.62-2.22-6.1 6.1Zm5.1 5.59-.26-.42 6.41-6.42.51.37a2.25 2.25 0 0 1 .27 3.41l-3.44 3.44a2.25 2.25 0 0 1-3.49-.38ZM9.34 12.3l-6.07 5.96a1.76 1.76 0 1 0 2.47 2.5l6.09-6.09-.8-1.24-1.69-1.13Zm5.41 6.7a.75.75 0 1 0 0 1.5h-2a.75.75 0 1 0 0 1.5h8.5a.75.75 0 0 0 0-1.5h-2a.75.75 0 0 0 0-1.5h-4.5Z"/></svg>