<svg width="20" height="20" viewBox="0 0 20 20" xmlns="http://www.w3.org/2000/svg"><path d="M6.67 7.59a1.5 1.5 0 0 1-.23-2.3l2.84-2.85a1.5 1.5 0 0 1 2.28.19l.47.65L7.3 8.01l-.63-.42Zm1.48 1 4.47-4.49 1.33 1.84a.5.5 0 0 0 .1.11l1.85 1.33-4.48 4.47-1.26-1.87a.5.5 0 0 0-.14-.14L8.15 8.58Zm3.84 4.11 4.73-4.73.65.47c.75.54.84 1.63.19 2.28l-2.84 2.84a1.5 1.5 0 0 1-2.31-.23l-.42-.63Zm-3.8-2.89L2.4 15.6a1.41 1.41 0 1 0 2 2l5.78-5.78-.8-1.2-1.2-.8ZM12 16.5c0-.28.22-.5.5-.5h3a.5.5 0 0 1 0 1h2a.5.5 0 0 1 0 1h-7a.5.5 0 1 1 0-1h2a.5.5 0 0 1-.5-.5Z"/></svg>