<svg width="24" height="24" viewBox="0 0 24 24" xmlns="http://www.w3.org/2000/svg"><path d="M12 7.5a5.5 5.5 0 1 0 11 0 5.5 5.5 0 0 0-11 0ZM20.5 4c.28 0 .5.22.5.5v2a.5.5 0 0 1-.5.5h-2a.5.5 0 0 1 0-1h1a2.5 2.5 0 0 0-4.03.04.5.5 0 0 1-.8-.59 3.5 3.5 0 0 1 5.33-.4V4.5c0-.28.22-.5.5-.5ZM15 9.95v.55a.5.5 0 0 1-1 0v-2c0-.28.22-.5.5-.5h2a.5.5 0 0 1 0 1h-1a2.5 2.5 0 0 0 3.91.11.5.5 0 1 1 .77.65 3.5 3.5 0 0 1-5.18.19ZM7.5 12.5h5.85a6.54 6.54 0 0 1-1.33-1.5H7.5a.75.75 0 0 0 0 1.5Zm3.5-5c0-.52.06-1.02.17-1.5H4.5a.75.75 0 0 0 0 1.5H11Zm2.5 8.5a.75.75 0 0 1 0 1.5h-3a.75.75 0 0 1 0-1.5h3Z"/></svg>