<svg width="24" height="24" viewBox="0 0 24 24" xmlns="http://www.w3.org/2000/svg"><path d="M10.6 2.51c.9-.36 1.9-.36 2.8 0l7.5 3.04c.67.27 1.1.91 1.1 1.62v5.64a6.52 6.52 0 00-1.5-1.08V7.77l-7.75 3v2.3a6.5 6.5 0 00-1.5 2.64v-4.95L3.5 7.75v9.08c0 .1.06.2.16.23l7.5 3.04.09.04.19.07.18.06c.25.53.56 1.01.94 1.45-.66.1-1.34.02-1.97-.23l-7.5-3.04C2.43 18.18 2 17.54 2 16.83V7.17c0-.7.43-1.35 1.1-1.62l7.5-3.04zm2.25 1.4a2.25 2.25 0 00-1.7 0l-1.9.77 7.52 2.93 2.67-1.03-6.6-2.68zM4.59 6.55L12 9.45l2.7-1.04L7.21 5.5 4.59 6.56zM23 17.5a5.5 5.5 0 10-11 0 5.5 5.5 0 0011 0zM17.54 14l.09.02.06.02.07.03.05.04 2.54 2.54.06.07a.5.5 0 01-.7.7l-.06-.07L18 15.71v5.38a.5.5 0 01-.41.4l-.09.01h-.09a.5.5 0 01-.4-.4L17 21v-5.3l-1.65 1.65-.07.06a.5.5 0 01-.56 0l-.07-.06-.06-.06a.5.5 0 010-.57l.06-.07 2.5-2.51.07-.05.07-.04.08-.03.06-.01h.11z"/></svg>