<svg width="24" height="24" viewBox="0 0 24 24" xmlns="http://www.w3.org/2000/svg"><path d="M13.4 2.51a3.75 3.75 0 00-2.8 0l-2.2.9L18 7.12l3.37-1.3c-.14-.12-.3-.2-.46-.28l-7.5-3.04zM22 7.2l-9.25 3.58v2.3A6.48 6.48 0 0122 12.8V7.19zm-10.75 3.58v4.94a6.5 6.5 0 000 3.58v2.4a3.75 3.75 0 01-.66-.2l-7.5-3.04C2.43 18.18 2 17.54 2 16.83V7.19l9.25 3.58zM2.63 5.83L12 9.45l3.92-1.52-9.55-3.7L3.1 5.54c-.17.07-.32.16-.46.28zM23 17.5a5.5 5.5 0 10-11 0 5.5 5.5 0 0011 0zM17.54 14l.09.02.06.02.07.03.05.04 2.54 2.54.06.07a.5.5 0 01-.7.7l-.06-.07L18 15.71v5.38a.5.5 0 01-.41.4l-.09.01h-.09a.5.5 0 01-.4-.4L17 21v-5.3l-1.65 1.65-.07.06a.5.5 0 01-.56 0l-.07-.06-.06-.06a.5.5 0 010-.57l.06-.07 2.5-2.51.07-.05.07-.04.08-.03.06-.01h.11z"/></svg>