<svg width="24" height="24" viewBox="0 0 24 24" xmlns="http://www.w3.org/2000/svg"><path d="M17.5 12a5.5 5.5 0 1 1 0 11 5.5 5.5 0 0 1 0-11ZM12 2a10 10 0 0 1 9.97 10.78 6.5 6.5 0 0 0-1.47-1.05 8.5 8.5 0 1 0-8.77 8.77 6.5 6.5 0 0 0 1.05 1.47L12 22a10 10 0 1 1 0-20Zm5.5 12h-.09a.5.5 0 0 0-.4.4l-.01.1V17h-2.6a.5.5 0 0 0-.4.4v.19c.04.2.2.36.4.4H17v2.61c.05.2.2.36.41.4h.18a.5.5 0 0 0 .4-.4l.01-.1V18h2.6a.5.5 0 0 0 .4-.41v-.18a.5.5 0 0 0-.4-.4l-.1-.01H18v-2.6a.5.5 0 0 0-.41-.4h-.09Zm-9.04.78a4.5 4.5 0 0 0 2.63 1.63 6.46 6.46 0 0 0-.08 1.5 5.98 5.98 0 0 1-3.73-2.2.75.75 0 1 1 1.18-.93ZM9 8.75a1.25 1.25 0 1 1 0 2.5 1.25 1.25 0 0 1 0-2.5Zm6 0a1.25 1.25 0 1 1 0 2.5 1.25 1.25 0 0 1 0-2.5Z"/></svg>