<svg width="32" height="32" viewBox="0 0 32 32" xmlns="http://www.w3.org/2000/svg"><path d="M6.5 5.5A4.5 4.5 0 0 0 2 10v6.27a9.04 9.04 0 0 1 2-1.57V10a2.5 2.5 0 0 1 2.5-2.5h12A2.5 2.5 0 0 1 21 10v12a2.5 2.5 0 0 1-2.5 2.5h-1.22c-.16.7-.4 1.37-.72 2h1.94A4.5 4.5 0 0 0 23 22v-1.5l4.2 3.15c1.15.87 2.8.04 2.8-1.4V9.75a1.75 1.75 0 0 0-2.8-1.4L23 11.5V10a4.5 4.5 0 0 0-4.5-4.5h-12ZM23 14l5-3.75v11.5L23 18v-4Zm-7 8.5a7.5 7.5 0 0 1-11 6.63l-3.37.86a.5.5 0 0 1-.61-.6L1.87 26A7.5 7.5 0 1 1 16 22.5Zm-10.25-2a.75.75 0 0 0 0 1.5h5.5a.75.75 0 0 0 0-1.5h-5.5ZM5 24.25c0 .41.34.75.75.75h3.5a.75.75 0 0 0 0-1.5h-3.5a.75.75 0 0 0-.75.75Z"/></svg>