<svg width="20" height="20" viewBox="0 0 20 20" xmlns="http://www.w3.org/2000/svg"><path d="M4 4a2 2 0 0 0-2 2v8c0 1.1.9 2 2 2h12a2 2 0 0 0 2-2V6a2 2 0 0 0-2-2H4ZM3 6a1 1 0 0 1 1-1h5.5v10H4a1 1 0 0 1-1-1V6Zm7.5 9V5H16a1 1 0 0 1 1 1v8a1 1 0 0 1-1 1h-5.5ZM6.25 8c.18 0 .34.1.43.25l1.75 3A.5.5 0 0 1 8 12H4.5a.5.5 0 0 1-.43-.75l1.75-3A.5.5 0 0 1 6.25 8Zm.88 3-.88-1.5-.88 1.5h1.76Zm7.05-2.75 1.75 3a.5.5 0 0 1-.43.75H12a.5.5 0 0 1-.43-.75l1.75-3a.5.5 0 0 1 .86 0Zm.45 2.75-.88-1.5-.88 1.5h1.76Z"/></svg>