<svg width="20" height="20" viewBox="0 0 20 20" xmlns="http://www.w3.org/2000/svg"><path d="M16.14 4.8 14.5 3.12l-1.64 1.7a.5.5 0 0 1-.72-.7l1.82-1.88c.3-.3.79-.3 1.08 0l1.82 1.88a.5.5 0 1 1-.72.7ZM5 3a2 2 0 0 0-2 2v10c0 1.1.9 2 2 2h4.5a.5.5 0 0 0 0-1H5a1 1 0 0 1-1-1V5a1 1 0 0 1 1-1h4.5a.5.5 0 0 0 0-1H5Zm9.5 2c.28 0 .5.22.5.5V7a.5.5 0 1 1-1 0V5.5c0-.28.23-.5.5-.5Zm.5 8a.5.5 0 1 0-1 0v1.5a.5.5 0 0 0 1 0V13Zm-.5-4c.28 0 .5.22.5.5v1a.5.5 0 1 1-1 0v-1c0-.28.23-.5.5-.5Zm1.64 6.2-1.64 1.69-1.64-1.7a.5.5 0 1 0-.72.7l1.82 1.88c.3.3.79.3 1.08 0l1.82-1.88a.5.5 0 1 0-.72-.7Z"/></svg>