<svg width="24" height="24" viewBox="0 0 24 24" xmlns="http://www.w3.org/2000/svg"><path d="M16.78 3.22a.75.75 0 0 0-1.06 0l-2.5 2.5a.75.75 0 0 0 1.06 1.06l1.97-1.97 1.97 1.97a.75.75 0 1 0 1.06-1.06l-2.5-2.5ZM4 6.24C4 5 5 4 6.25 4h4a.75.75 0 0 1 0 1.5h-4a.75.75 0 0 0-.75.75v11.5c0 .42.34.75.75.75h4a.75.75 0 0 1 0 1.5h-4C5.01 20 4 19 4 17.74V6.24Zm12.78 14.54 2.5-2.5a.75.75 0 1 0-1.06-1.06l-1.97 1.97-1.97-1.97a.75.75 0 1 0-1.06 1.06l2.5 2.5c.3.3.77.3 1.06 0ZM16.25 11a.75.75 0 0 0-.75.75v.5a.75.75 0 0 0 1.5 0v-.5a.75.75 0 0 0-.75-.75Zm-.75 4.25a.75.75 0 0 1 1.5 0v1a.75.75 0 0 1-1.5 0v-1ZM16.25 7a.75.75 0 0 0-.75.75v1a.75.75 0 0 0 1.5 0v-1a.75.75 0 0 0-.75-.75Z"/></svg>