<svg width="16" height="16" viewBox="0 0 16 16" xmlns="http://www.w3.org/2000/svg"><path d="M4 13V8.5H1v2A2.5 2.5 0 003.5 13H4zm1 0h7.5a2.5 2.5 0 002.5-2.5v-2H5V13zm2.5-2.25a.75.75 0 11-1.5 0 .75.75 0 011.5 0zm2 0a.75.75 0 11-1.5 0 .75.75 0 011.5 0zm2 0a.75.75 0 11-1.5 0 .75.75 0 011.5 0zm2 0a.75.75 0 11-1.5 0 .75.75 0 011.5 0zM15 7.5v-2A2.5 2.5 0 0012.5 3H5v4.5h10zM6.75 6a.75.75 0 110-1.5.75.75 0 010 1.5zm2 0a.75.75 0 110-1.5.75.75 0 010 1.5zm2 0a.75.75 0 110-1.5.75.75 0 010 1.5zm2 0a.75.75 0 110-1.5.75.75 0 010 1.5zM4 3h-.5A2.5 2.5 0 001 5.5v2h3V3z"/></svg>