<svg width="24" height="24" viewBox="0 0 24 24" xmlns="http://www.w3.org/2000/svg"><path d="M18.75 3.5c1.8 0 3.25 1.46 3.25 3.25v10.5c0 1.8-1.46 3.25-3.25 3.25H5.25A3.25 3.25 0 0 1 2 17.25V6.75C2 4.95 3.46 3.5 5.25 3.5h13.5Zm0 1.5H5.25c-.97 0-1.75.78-1.75 1.75v10.5c0 .97.78 1.75 1.75 1.75h13.5c.97 0 1.75-.78 1.75-1.75V6.75c0-.97-.78-1.75-1.75-1.75ZM8.38 9c.31 0 .57.22.62.53v4.84a.62.62 0 0 1-1.24.1v-1.83H6.26v1.75a.62.62 0 0 1-1.24.09V9.63a.63.63 0 0 1 1.24-.09v1.85h1.48V9.62c0-.35.28-.63.63-.63Zm8.82.02a1.8 1.8 0 0 1 1.02 3.29l.74 1.83a.62.62 0 0 1-1.11.56l-.05-.1-.8-1.98h-.74v1.75c0 .76-1.03.83-1.22.22l-.02-.1-.01-.11V9.64c0-.31.22-.57.53-.62H17.2ZM11.38 9c1.39 0 2.53 1.08 2.62 2.45v.91c0 1.4-1.09 2.54-2.46 2.62h-.92a.63.63 0 0 1-.61-.53l-.01-.09V9.63c0-.31.23-.57.53-.62h.85Zm0 1.25h-.13v3.49h.13c.71 0 1.3-.55 1.36-1.25l.01-.13v-.74c0-.71-.54-1.3-1.24-1.37h-.13Zm4.87 0v1.11h.95a.55.55 0 0 0 .1-1.1h-1.05Z"/></svg>