<svg width="16" height="16" viewBox="0 0 16 16" xmlns="http://www.w3.org/2000/svg"><path d="M5.2 1.5a.75.75 0 0 0-1.4 0L1.8 7a.75.75 0 1 0 1.4.5L3.4 7H5.6l.19.5A.75.75 0 1 0 7.2 7l-2-5.5Zm-1.27 4 .57-1.56.57 1.56H3.93ZM2 9.75c0-.41.34-.75.75-.75h3.5a.75.75 0 0 1 .6 1.21L4.27 13.5h1.97a.75.75 0 0 1 0 1.5h-3.5a.75.75 0 0 1-.6-1.21l2.57-3.29H2.75A.75.75 0 0 1 2 9.75ZM12.25 1c.41 0 .75.34.75.75v10.69l.72-.72a.75.75 0 1 1 1.06 1.06l-2 2c-.3.3-.77.3-1.06 0l-2-2a.75.75 0 1 1 1.06-1.06l.72.72V1.75c0-.41.34-.75.75-.75Z"/></svg>