<svg width="48" height="48" viewBox="0 0 48 48" xmlns="http://www.w3.org/2000/svg"><path d="M25.25 5.25a1.25 1.25 0 1 0-2.5 0v1.5a1.25 1.25 0 0 0 2.5 0v-1.5ZM24 10a8 8 0 1 0 0 16 8 8 0 0 0 0-16ZM4.29 43.55c.44.53 1.23.6 1.76.16h.01a4.3 4.3 0 0 1 .27-.22 27.7 27.7 0 0 1 4.48-2.6A31.4 31.4 0 0 1 24 38a31.4 31.4 0 0 1 13.18 2.88 27.69 27.69 0 0 1 4.76 2.82v.01c.54.44 1.33.37 1.77-.16.68-.88-.16-1.76-.16-1.76l-.03-.03-.04-.03-.04-.03a12.75 12.75 0 0 0-1.3-.93c-.9-.6-2.22-1.38-3.9-2.15A33.9 33.9 0 0 0 24 35.5c-6 0-10.86 1.56-14.23 3.12a30.2 30.2 0 0 0-5.21 3.08 7.9 7.9 0 0 0-.08.06l-.02.02c-.44.36-.51 1.36-.17 1.77ZM24 28c.7 0 1.25.56 1.25 1.25v1.5a1.25 1.25 0 1 1-2.5 0v-1.5c0-.69.56-1.25 1.25-1.25ZM10 17.25c0-.69.56-1.25 1.25-1.25h1.5a1.25 1.25 0 1 1 0 2.5h-1.5c-.69 0-1.25-.56-1.25-1.25ZM35.25 16a1.25 1.25 0 0 0 0 2.5h1.5a1.25 1.25 0 1 0 0-2.5h-1.5Zm-19.62-4.37c-.48.5-1.28.5-1.76 0l-1.5-1.5a1.25 1.25 0 1 1 1.76-1.76l1.5 1.5c.5.48.5 1.28 0 1.76Zm-1.76 12.74a1.25 1.25 0 0 1 1.76 1.76l-1.5 1.5a1.25 1.25 0 0 1-1.76-1.76l1.5-1.5Zm18.5-12.74c.48.5 1.28.5 1.76 0l1.5-1.5a1.25 1.25 0 1 0-1.76-1.76l-1.5 1.5a1.25 1.25 0 0 0 0 1.76Zm1.76 12.74a1.25 1.25 0 0 0-1.76 1.76l1.5 1.5a1.25 1.25 0 0 0 1.76-1.76l-1.5-1.5Z"/></svg>