<svg width="24" height="24" viewBox="0 0 24 24" xmlns="http://www.w3.org/2000/svg"><path d="M12 2c.41 0 .75.34.75.75v.5a.75.75 0 01-1.5 0v-.5c0-.41.34-.75.75-.75zm0 3a4 4 0 100 8 4 4 0 000-8zM9.5 9a2.5 2.5 0 115 0 2.5 2.5 0 01-5 0zm3.25 5.75a.75.75 0 00-1.5 0v.5a.75.75 0 001.5 0v-.5zM5.75 8a.75.75 0 000 1.5h.5a.75.75 0 000-1.5h-.5zM17 8.75c0-.41.34-.75.75-.75h.5a.75.75 0 010 1.5h-.5a.75.75 0 01-.75-.75zM6.72 5.78a.75.75 0 001.06-1.06l-.5-.5a.75.75 0 00-1.06 1.06l.5.5zm1.06 6.44a.75.75 0 00-1.06 0l-.5.5a.75.75 0 101.06 1.06l.5-.5c.3-.3.3-.77 0-1.06zm9.5-6.44a.75.75 0 11-1.06-1.06l.5-.5a.75.75 0 111.06 1.06l-.5.5zm-1.06 6.44c.3-.3.77-.3 1.06 0l.5.5a.75.75 0 11-1.06 1.06l-.5-.5a.75.75 0 010-1.06zm-13 9.62c-.33.25-.8.2-1.06-.12-.4-.51.12-1.06.12-1.06h.02a3.49 3.49 0 01.18-.15l.54-.36A16.78 16.78 0 0112 17.5a16.78 16.78 0 019.7 3.15l.01.01a.75.75 0 01-.93 1.18l-.03-.03a5.63 5.63 0 00-.58-.4A15.28 15.28 0 0012 19a15.28 15.28 0 00-8.75 2.81l-.03.02z"/></svg>