<svg width="20" height="20" viewBox="0 0 20 20" xmlns="http://www.w3.org/2000/svg"><path d="M14.5 3v1H14a1 1 0 0 0-1 1v4a1 1 0 0 0 1 1h5a1 1 0 0 0 1-1V5a1 1 0 0 0-1-1h-.5V3a2 2 0 1 0-4 0Zm1 1V3a1 1 0 1 1 2 0v1h-2Zm1 2.25a.75.75 0 1 1 0 1.5.75.75 0 0 1 0-1.5ZM4 6h8v1h-1.5v10H16a1 1 0 0 0 1-1v-5h1v5a2 2 0 0 1-2 2H4a2 2 0 0 1-2-2V8c0-1.1.9-2 2-2Zm2 9.5c0-.28.22-.5.5-.5h1a.5.5 0 0 1 0 1h-1a.5.5 0 0 1-.5-.5Zm6.5-.5a.5.5 0 0 0 0 1h1a.5.5 0 0 0 0-1h-1Zm-3-8H4a1 1 0 0 0-1 1v8a1 1 0 0 0 1 1h5.5V7Z"/></svg>