<svg width="28" height="28" viewBox="0 0 28 28" xmlns="http://www.w3.org/2000/svg"><path d="M2 7.25C2 5.45 3.46 4 5.25 4h17.5C24.55 4 26 5.46 26 7.25v13.5c0 1.8-1.45 3.25-3.25 3.25h-8.28l-1.5-1.5h9.78c.97 0 1.75-.78 1.75-1.75V7.25c0-.97-.78-1.75-1.75-1.75H5.25c-.96 0-1.75.78-1.75 1.75v5.48c-.55.29-1.05.65-1.5 1.08V7.25Zm9.62 7.25A6.53 6.53 0 0 0 9.97 13h10.28a.75.75 0 0 1 0 1.5h-8.63Zm1.38 4h5.25a.75.75 0 0 0 0-1.5h-5.42c.11.48.17.98.17 1.5ZM7 9.75c0-.41.34-.75.75-.75h7.5a.75.75 0 0 1 0 1.5h-7.5A.75.75 0 0 1 7 9.75Zm3.88 12.07a5.5 5.5 0 1 0-1.06 1.06l2.9 2.9a.75.75 0 1 0 1.06-1.06l-2.9-2.9Zm-.38-3.32a4 4 0 1 1-8 0 4 4 0 0 1 8 0Z"/></svg>