<svg width="32" height="32" viewBox="0 0 32 32" xmlns="http://www.w3.org/2000/svg"><path d="M7.25 3A3.25 3.25 0 004 6.25v18.5C4 26.55 5.46 28 7.25 28h3.5c1.8 0 3.25-1.46 3.25-3.25V6.25C14 4.45 12.54 3 10.75 3h-3.5zM6 6.25C6 5.56 6.56 5 7.25 5h3.5c.69 0 1.25.56 1.25 1.25v18.5c0 .69-.56 1.25-1.25 1.25h-3.5C6.56 26 6 25.44 6 24.75V6.25zM21.25 3A3.25 3.25 0 0018 6.25v18.5c0 1.8 1.46 3.25 3.25 3.25h3.5c1.8 0 3.25-1.46 3.25-3.25V6.25C28 4.45 26.54 3 24.75 3h-3.5zM20 6.25c0-.69.56-1.25 1.25-1.25h3.5c.69 0 1.25.56 1.25 1.25v18.5c0 .69-.56 1.25-1.25 1.25h-3.5c-.69 0-1.25-.56-1.25-1.25V6.25z"/></svg>