<svg width="48" height="48" viewBox="0 0 48 48" xmlns="http://www.w3.org/2000/svg"><path d="M11.75 6A3.75 3.75 0 008 9.75v28.5A3.75 3.75 0 0011.75 42h6.5A3.75 3.75 0 0022 38.25V9.75A3.75 3.75 0 0018.25 6h-6.5zM10.5 9.75c0-.69.56-1.25 1.25-1.25h6.5c.69 0 1.25.56 1.25 1.25v28.5c0 .69-.56 1.25-1.25 1.25h-6.5c-.69 0-1.25-.56-1.25-1.25V9.75zM29.75 6A3.75 3.75 0 0026 9.75v28.5A3.75 3.75 0 0029.75 42h6.5A3.75 3.75 0 0040 38.25V9.75A3.75 3.75 0 0036.25 6h-6.5zM28.5 9.75c0-.69.56-1.25 1.25-1.25h6.5c.69 0 1.25.56 1.25 1.25v28.5c0 .69-.56 1.25-1.25 1.25h-6.5c-.69 0-1.25-.56-1.25-1.25V9.75z"/></svg>