<svg width="24" height="24" viewBox="0 0 24 24" xmlns="http://www.w3.org/2000/svg"><path d="M6.25 3C5.01 3 4 4 4 5.25v13.5C4 19.99 5 21 6.25 21h2.5C9.99 21 11 20 11 18.75V5.25C11 4.01 10 3 8.75 3h-2.5zM5.5 5.25c0-.41.34-.75.75-.75h2.5c.41 0 .75.34.75.75v13.5c0 .41-.34.75-.75.75h-2.5a.75.75 0 01-.75-.75V5.25zM15.25 3C14.01 3 13 4 13 5.25v13.5c0 1.24 1 2.25 2.25 2.25h2.5c1.24 0 2.25-1 2.25-2.25V5.25C20 4.01 19 3 17.75 3h-2.5zm-.75 2.25c0-.41.34-.75.75-.75h2.5c.41 0 .75.34.75.75v13.5c0 .41-.34.75-.75.75h-2.5a.75.75 0 01-.75-.75V5.25z"/></svg>