<svg width="28" height="28" viewBox="0 0 28 28" xmlns="http://www.w3.org/2000/svg"><path d="M6.75 3A2.75 2.75 0 004 5.75v16.5A2.75 2.75 0 006.75 25h3a2.75 2.75 0 002.75-2.75V5.75A2.75 2.75 0 009.75 3h-3zM5.5 5.75c0-.69.56-1.25 1.25-1.25h3c.69 0 1.25.56 1.25 1.25v16.5c0 .69-.56 1.25-1.25 1.25h-3c-.69 0-1.25-.56-1.25-1.25V5.75zM18.25 3a2.75 2.75 0 00-2.75 2.75v16.5A2.75 2.75 0 0018.25 25h3A2.75 2.75 0 0024 22.25V5.75A2.75 2.75 0 0021.25 3h-3zM17 5.75c0-.69.56-1.25 1.25-1.25h3c.69 0 1.25.56 1.25 1.25v16.5c0 .69-.56 1.25-1.25 1.25h-3c-.69 0-1.25-.56-1.25-1.25V5.75z"/></svg>