<svg width="24" height="24" viewBox="0 0 24 24" xmlns="http://www.w3.org/2000/svg"><path d="M14.75 10c.97 0 1.75.78 1.75 1.75v3.5a.75.75 0 0 1-1.5 0v-3.5a.25.25 0 0 0-.25-.25h-5.5a.25.25 0 0 0-.25.25v3.5a.75.75 0 0 1-1.5 0v-3.5c0-.97.79-1.75 1.75-1.75h5.5Zm5.75 1.75v3.5a.75.75 0 0 0 1.5 0v-3.5c0-.97-.78-1.75-1.75-1.75h-3.38c.35.41.57.93.62 1.5h2.76c.14 0 .25.11.25.25ZM2 15.25a.75.75 0 0 0 1.5 0v-3.5c0-.14.11-.25.25-.25h2.76c.05-.57.28-1.09.62-1.5H3.75C2.78 10 2 10.78 2 11.75v3.5ZM12 3a3 3 0 1 1 0 6 3 3 0 0 1 0-6Zm0 1.5a1.5 1.5 0 1 0 0 3 1.5 1.5 0 0 0 0-3Zm6.5-.5a2.5 2.5 0 1 1 0 5 2.5 2.5 0 0 1 0-5Zm0 1.5a1 1 0 1 0 0 2 1 1 0 0 0 0-2ZM5.5 4a2.5 2.5 0 1 1 0 5 2.5 2.5 0 0 1 0-5Zm0 1.5a1 1 0 1 0 0 2 1 1 0 0 0 0-2ZM2.75 17a.75.75 0 0 0-.75.75v.5A3.75 3.75 0 0 0 5.75 22h12.5A3.75 3.75 0 0 0 22 18.25v-.5a.75.75 0 0 0-.75-.75H2.75Zm3 3.5a2.25 2.25 0 0 1-2.24-2H20.5a2.25 2.25 0 0 1-2.24 2H5.75Z"/></svg>