<svg width="24" height="24" viewBox="0 0 24 24" xmlns="http://www.w3.org/2000/svg"><path d="M14.75 10c.97 0 1.75.78 1.75 1.75V16h-9v-4.25c0-.97.79-1.75 1.75-1.75h5.5zM22 11.75c0-.97-.78-1.75-1.75-1.75h-3.38c.4.47.63 1.08.63 1.75V16h3.75c.41 0 .75-.34.75-.75v-3.5zM6.5 15v-3.25l.01-.22c.05-.58.27-1.1.62-1.53H3.61c-.9.08-1.61.83-1.61 1.75v3.5c0 .41.34.75.75.75H6.5v-1zM12 3a3 3 0 110 6 3 3 0 010-6zm6.5 1a2.5 2.5 0 110 5 2.5 2.5 0 010-5zm-13 0a2.5 2.5 0 110 5 2.5 2.5 0 010-5zM2 17.75c0-.41.34-.75.75-.75h18.5c.41 0 .75.34.75.75v.5A3.75 3.75 0 0118.25 22H5.75A3.75 3.75 0 012 18.25v-.5z"/></svg>