<svg width="20" height="20" viewBox="0 0 20 20" xmlns="http://www.w3.org/2000/svg"><path d="M9.99 2.99a2.23 2.23 0 1 1 0 4.45 2.23 2.23 0 0 1 0-4.45Zm0 1a1.23 1.23 0 1 0 0 2.45 1.23 1.23 0 0 0 0-2.45ZM3.02 11.5a.5.5 0 1 1-1 0V9.01a1 1 0 0 1 .88-.99h2.87c-.14.24-.23.52-.26.81v.18H3v2.49Zm14.47.5a.5.5 0 0 0 .5-.5V8.9a1 1 0 0 0-1-.89h-2.78c.14.26.24.55.26.86V9H17v2.49c0 .28.22.5.5.5Zm-5.02-3.99a1 1 0 0 1 1 .89v2.6a.5.5 0 1 1-1 0V9.01H7.5v2.49a.5.5 0 1 1-1 0V9.01a1 1 0 0 1 .89-.99h5.08Zm4.42-2.48a1.91 1.91 0 1 0-3.83 0 1.91 1.91 0 0 0 3.83 0Zm-2.83 0a.91.91 0 1 1 1.83 0 .91.91 0 0 1-1.83 0ZM5.02 3.62a1.91 1.91 0 1 1 0 3.82 1.91 1.91 0 0 1 0-3.82Zm0 1a.91.91 0 1 0 0 1.82.91.91 0 0 0 0-1.82ZM2.5 13a.5.5 0 0 0-.5.5v1A2.5 2.5 0 0 0 4.5 17h11a2.5 2.5 0 0 0 2.5-2.5v-1a.5.5 0 0 0-.5-.5h-15Zm.5 1.5V14h14v.5c0 .83-.67 1.5-1.5 1.5h-11A1.5 1.5 0 0 1 3 14.5Z"/></svg>