<svg width="24" height="24" viewBox="0 0 24 24" xmlns="http://www.w3.org/2000/svg"><path d="M3.28 2.22a.75.75 0 1 0-1.06 1.06l3.36 3.36a12 12 0 0 0-3.42 3.33.75.75 0 1 0 1.23.85 10.47 10.47 0 0 1 3.28-3.09l1.6 1.6a8.06 8.06 0 0 0-3.42 3.48.75.75 0 0 0 1.34.67 6.51 6.51 0 0 1 3.2-3.03l1.93 1.93a5.07 5.07 0 0 0-3.94 3 .75.75 0 0 0 1.37.61 3.59 3.59 0 0 1 4.1-2.07l7.87 7.86a.75.75 0 0 0 1.06-1.06L3.28 2.22Zm8.3 6.18L13.17 10a6.53 6.53 0 0 1 4.73 3.51.75.75 0 0 0 1.34-.68 8.04 8.04 0 0 0-7.65-4.42Zm-3.1-3.1 1.23 1.23a10.44 10.44 0 0 1 10.91 4.3.75.75 0 0 0 1.24-.85A11.95 11.95 0 0 0 8.49 5.3Zm4.58 11.14a1.5 1.5 0 1 1-2.12 2.12 1.5 1.5 0 0 1 2.12-2.12Z"/></svg>