<svg width="20" height="20" viewBox="0 0 20 20" xmlns="http://www.w3.org/2000/svg"><path d="M3.28 2.22a.75.75 0 0 0-1.06 1.06l2.89 2.89A9.5 9.5 0 0 0 2.24 8.9a.75.75 0 1 0 1.23.86A7.97 7.97 0 0 1 6.2 7.27l.96.96A6.44 6.44 0 0 0 4.3 11.1a.75.75 0 0 0 1.34.67 4.9 4.9 0 0 1 2.68-2.4l1.28 1.28a4.11 4.11 0 0 0-3.34 2.46.75.75 0 1 0 1.38.6 2.63 2.63 0 0 1 3.92-1.1l5.17 5.17a.75.75 0 1 0 1.06-1.06L3.28 2.22Zm8.09 7.03a4.92 4.92 0 0 1 3.08 2.54.75.75 0 1 0 1.33-.69A6.43 6.43 0 0 0 9.7 7.57l1.68 1.68ZM8.55 6.43a7.96 7.96 0 0 1 8.06 3.33.75.75 0 1 0 1.23-.85A9.47 9.47 0 0 0 7.31 5.19l1.24 1.24Zm2.37 9.2a1.24 1.24 0 1 0-1.76-1.75 1.24 1.24 0 0 0 1.76 1.76Z"/></svg>