<svg width="20" height="20" viewBox="0 0 20 20" xmlns="http://www.w3.org/2000/svg"><path d="M17 5.5a.5.5 0 00-.5-.5h-3a.5.5 0 000 1h3a.5.5 0 00.5-.5zm-6 0a.5.5 0 00-.5-.5h-7a.5.5 0 000 1h7a.5.5 0 00.5-.5zm6 3a.5.5 0 00-.5-.5h-3a.5.5 0 000 1h3a.5.5 0 00.5-.5zm-6 0a.5.5 0 00-.5-.5h-7a.5.5 0 000 1h7a.5.5 0 00.5-.5zm6 3a.5.5 0 00-.5-.5h-3a.5.5 0 000 1h3a.5.5 0 00.5-.5zm-6 0a.5.5 0 00-.5-.5h-7a.5.5 0 000 1h7a.5.5 0 00.5-.5zm6 3a.5.5 0 00-.5-.5h-3a.5.5 0 000 1h3a.5.5 0 00.5-.5zm-6 0a.5.5 0 00-.5-.5h-7a.5.5 0 000 1h7a.5.5 0 00.5-.5z"/></svg>