<svg width="20" height="20" viewBox="0 0 20 20" xmlns="http://www.w3.org/2000/svg"><path d="M1 3c0-1.1.9-2 2-2h5a2 2 0 0 1 2 2v4a2 2 0 0 1-2 2H3a2 2 0 0 1-2-2V3Zm2 3.5c0 .28.22.5.5.5h4a.5.5 0 0 0 0-1h-4a.5.5 0 0 0-.5.5ZM3.5 3a.5.5 0 0 0 0 1h4a.5.5 0 0 0 0-1h-4Zm9 5a.5.5 0 1 0 0-1 .5.5 0 0 0 0 1ZM3 10h5a3 3 0 0 0 3-3V3h3a3 3 0 0 1 3 3v8c0 .65-.2 1.25-.56 1.74l-5.39-5.3a1.5 1.5 0 0 0-2.1 0l-5.4 5.3C3.22 15.25 3 14.64 3 14v-4Zm9.5-1a1.5 1.5 0 1 0 0-3 1.5 1.5 0 0 0 0 3Zm-8.23 7.45c.49.35 1.08.55 1.73.55h8c.65 0 1.24-.2 1.73-.55l-5.38-5.3a.5.5 0 0 0-.7 0l-5.38 5.3Z"/></svg>