<svg width="20" height="20" viewBox="0 0 20 20" xmlns="http://www.w3.org/2000/svg"><path d="M3 1a2 2 0 0 0-2 2v4c0 1.1.9 2 2 2h5a2 2 0 0 0 2-2V3a2 2 0 0 0-2-2H3Zm.5 5h4a.5.5 0 0 1 0 1h-4a.5.5 0 0 1 0-1ZM3 3.5c0-.28.22-.5.5-.5h4a.5.5 0 0 1 0 1h-4a.5.5 0 0 1-.5-.5ZM3 14v-4h1v4c0 .37.1.72.28 1.02l4.67-4.59a1.5 1.5 0 0 1 2.1 0l4.67 4.59c.18-.3.28-.65.28-1.02V6a2 2 0 0 0-2-2h-3V3h3a3 3 0 0 1 3 3v8a3 3 0 0 1-3 3H6a3 3 0 0 1-3-3Zm3 2h8a2 2 0 0 0 1.01-.27l-4.66-4.58a.5.5 0 0 0-.7 0l-4.66 4.58A2 2 0 0 0 6 16Zm6.5-7a1.5 1.5 0 1 1 0-3 1.5 1.5 0 0 1 0 3Zm.5-1.5a.5.5 0 1 0-1 0 .5.5 0 0 0 1 0Z"/></svg>