<svg width="20" height="20" viewBox="0 0 20 20" xmlns="http://www.w3.org/2000/svg"><path d="M6.5 2a2.5 2.5 0 0 0-2.46 2.04A2.5 2.5 0 0 0 2 6.5v7A2.5 2.5 0 0 0 4.5 16H5v1.03a1 1 0 0 0 1.58.81L9.16 16h.05c-.1-.32-.16-.66-.19-1h-.18L6 17.03V15H4.5A1.5 1.5 0 0 1 3 13.5v-7C3 5.67 3.67 5 4.5 5h9c.83 0 1.5.67 1.5 1.5v2.52c.34.03.68.1 1 .19V6.5A2.5 2.5 0 0 0 13.5 4H5.09c.2-.58.76-1 1.41-1h8A2.5 2.5 0 0 1 17 5.5v4.1c.36.18.7.4 1 .66V5.5A3.5 3.5 0 0 0 14.5 2h-8ZM19 14.5a4.5 4.5 0 1 1-9 0 4.5 4.5 0 0 1 9 0Zm-2.15-1.85a.5.5 0 0 0-.7 0l-2.65 2.64-.65-.64a.5.5 0 0 0-.7.7l1 1c.2.2.5.2.7 0l3-3a.5.5 0 0 0 0-.7Z"/></svg>