<svg width="16" height="16" viewBox="0 0 16 16" xmlns="http://www.w3.org/2000/svg"><path d="M2.5 2a.5.5 0 0 0 0 1h.25a.5.5 0 0 1 .48.36L4.8 8.91A1.5 1.5 0 0 0 6.25 10h4.57a1.5 1.5 0 0 0 1.4-.94l1.47-3.69A1 1 0 0 0 12.76 4H4.45l-.26-.91A1.5 1.5 0 0 0 2.75 2H2.5Zm3.27 6.64L4.73 5h8.03L11.3 8.69a.5.5 0 0 1-.47.31H6.25a.5.5 0 0 1-.48-.36ZM6.5 14a1.5 1.5 0 1 0 0-3 1.5 1.5 0 0 0 0 3Zm0-1a.5.5 0 1 1 0-1 .5.5 0 0 1 0 1Zm4 1a1.5 1.5 0 1 0 0-3 1.5 1.5 0 0 0 0 3Zm0-1a.5.5 0 1 1 0-1 .5.5 0 0 1 0 1Z"/></svg>