<svg width="20" height="20" viewBox="0 0 20 20" xmlns="http://www.w3.org/2000/svg"><path d="M10.32 2.12a.5.5 0 0 0-.64 0l-3 2.5a.5.5 0 1 0 .64.76L10 3.15l2.68 2.23a.5.5 0 0 0 .64-.76l-3-2.5Zm3 13.26-3 2.5a.5.5 0 0 1-.64 0l-3-2.5a.5.5 0 1 1 .64-.76L10 16.85l2.68-2.23a.5.5 0 0 1 .64.76Zm-2.57-6.63a.75.75 0 1 1-1.5 0 .75.75 0 0 1 1.5 0ZM10 12a.75.75 0 1 0 0-1.5.75.75 0 0 0 0 1.5Zm6-2.5a1.5 1.5 0 0 1 3 0v1a1.5 1.5 0 0 1-3 0v-1Zm1.5-.5a.5.5 0 0 0-.5.5v1a.5.5 0 0 0 1 0v-1a.5.5 0 0 0-.5-.5Zm-11-1C5.67 8 5 8.67 5 9.5v1a1.5 1.5 0 0 0 3 0v-1C8 8.67 7.33 8 6.5 8ZM6 9.5a.5.5 0 0 1 1 0v1a.5.5 0 0 1-1 0v-1Zm6 0a1.5 1.5 0 0 1 3 0v1a1.5 1.5 0 0 1-3 0v-1Zm1.5-.5a.5.5 0 0 0-.5.5v1a.5.5 0 0 0 1 0v-1a.5.5 0 0 0-.5-.5Zm-11-1C1.67 8 1 8.67 1 9.5v1a1.5 1.5 0 0 0 3 0v-1C4 8.67 3.33 8 2.5 8ZM2 9.5a.5.5 0 0 1 1 0v1a.5.5 0 0 1-1 0v-1Z"/></svg>