<svg width="20" height="20" viewBox="0 0 20 20" xmlns="http://www.w3.org/2000/svg"><path d="M10.47 2.17a.75.75 0 0 0-.94 0L6.78 4.42a.75.75 0 0 0 .94 1.16L10 3.72l2.28 1.86a.75.75 0 1 0 .94-1.16l-2.75-2.25Zm2.75 13.41-2.75 2.25a.75.75 0 0 1-.94 0l-2.75-2.25a.75.75 0 0 1 .94-1.16L10 16.28l2.28-1.86a.75.75 0 1 1 .94 1.16Zm-2.47-6.83a.75.75 0 1 1-1.5 0 .75.75 0 0 1 1.5 0ZM10 12a.75.75 0 1 0 0-1.5.75.75 0 0 0 0 1.5Zm6-2.5a1.5 1.5 0 0 1 3 0v1a1.5 1.5 0 0 1-3 0v-1Zm1.5-.5a.5.5 0 0 0-.5.5v1a.5.5 0 0 0 1 0v-1a.5.5 0 0 0-.5-.5Zm-11-1C5.67 8 5 8.67 5 9.5v1a1.5 1.5 0 0 0 3 0v-1C8 8.67 7.33 8 6.5 8ZM6 9.5a.5.5 0 0 1 1 0v1a.5.5 0 0 1-1 0v-1Zm6 0a1.5 1.5 0 0 1 3 0v1a1.5 1.5 0 0 1-3 0v-1Zm1.5-.5a.5.5 0 0 0-.5.5v1a.5.5 0 0 0 1 0v-1a.5.5 0 0 0-.5-.5Zm-11-1C1.67 8 1 8.67 1 9.5v1a1.5 1.5 0 0 0 3 0v-1C4 8.67 3.33 8 2.5 8ZM2 9.5a.5.5 0 0 1 1 0v1a.5.5 0 0 1-1 0v-1Z"/></svg>