<svg width="20" height="20" viewBox="0 0 20 20" xmlns="http://www.w3.org/2000/svg"><path d="M10.47 2.17a.75.75 0 00-.94 0L6.78 4.42a.75.75 0 00.94 1.16L10 3.72l2.28 1.86a.75.75 0 10.94-1.16l-2.75-2.25zm2.75 13.41l-2.75 2.25a.75.75 0 01-.94 0l-2.75-2.25a.75.75 0 01.94-1.16L10 16.28l2.28-1.86a.75.75 0 11.94 1.16zm-2.47-6.83a.75.75 0 11-1.5 0 .75.75 0 011.5 0zM10 12a.75.75 0 100-1.5.75.75 0 000 1.5zm6-2.5a1.5 1.5 0 013 0v1a1.5 1.5 0 01-3 0v-1zm1.5-.5a.5.5 0 00-.5.5v1a.5.5 0 001 0v-1a.5.5 0 00-.5-.5zm-11-1C5.67 8 5 8.67 5 9.5v1a1.5 1.5 0 003 0v-1C8 8.67 7.33 8 6.5 8zM6 9.5a.5.5 0 011 0v1a.5.5 0 01-1 0v-1zm6 0a1.5 1.5 0 013 0v1a1.5 1.5 0 01-3 0v-1zm1.5-.5a.5.5 0 00-.5.5v1a.5.5 0 001 0v-1a.5.5 0 00-.5-.5zm-11-1C1.67 8 1 8.67 1 9.5v1a1.5 1.5 0 003 0v-1C4 8.67 3.33 8 2.5 8zM2 9.5a.5.5 0 011 0v1a.5.5 0 01-1 0v-1z"/></svg>