<svg width="24" height="24" viewBox="0 0 24 24" xmlns="http://www.w3.org/2000/svg"><path d="M12.62 2.22a1 1 0 00-1.24 0l-3.75 3a1 1 0 101.24 1.56L12 4.28l3.13 2.5a1 1 0 001.24-1.56l-3.75-3zM2.75 9C1.51 9 .5 10 .5 11.25v1.5a2.25 2.25 0 004.5 0v-1.5C5 10.01 4 9 2.75 9zM2 11.25a.75.75 0 011.5 0v1.5a.75.75 0 01-1.5 0v-1.5zM8.25 9C7.01 9 6 10 6 11.25v1.5a2.25 2.25 0 004.5 0v-1.5c0-1.24-1-2.25-2.25-2.25zm-.75 2.25a.75.75 0 011.5 0v1.5a.75.75 0 01-1.5 0v-1.5zm6.5 0a2.25 2.25 0 014.5 0v1.5a2.25 2.25 0 01-4.5 0v-1.5zm2.25-.75a.75.75 0 00-.75.75v1.5a.75.75 0 001.5 0v-1.5a.75.75 0 00-.75-.75zm5.5-1.5c-1.24 0-2.25 1-2.25 2.25v1.5a2.25 2.25 0 004.5 0v-1.5C24 10.01 23 9 21.75 9zM21 11.25a.75.75 0 011.5 0v1.5a.75.75 0 01-1.5 0v-1.5zm-8-.5a.75.75 0 11-1.5 0 .75.75 0 011.5 0zm-.75 3.75a.75.75 0 100-1.5.75.75 0 000 1.5zm.38 7.53l4-3.25a1 1 0 00-1.26-1.56L12 19.96l-3.37-2.74a1 1 0 10-1.26 1.56l4 3.25c.37.3.9.3 1.26 0z"/></svg>