<svg width="24" height="24" viewBox="0 0 24 24" xmlns="http://www.w3.org/2000/svg"><path d="M14.86 15.5l1.5-1.5H6.26C5 14 4 15 4 16.25v.58c0 .89.32 1.75.9 2.43 1.4 1.64 3.44 2.53 6.1 2.7 0-.17.02-.36.06-.55l.23-.93c-2.37-.12-4.1-.85-5.25-2.2-.34-.4-.54-.92-.54-1.45v-.58c0-.41.34-.75.75-.75h8.6zM12 2a5 5 0 110 10 5 5 0 010-10zm0 1.5a3.5 3.5 0 100 7 3.5 3.5 0 000-7zm7.1 9.17l-5.9 5.9c-.35.35-.6.78-.7 1.25l-.47 1.83c-.2.8.53 1.52 1.32 1.32l1.83-.46c.47-.12.9-.36 1.25-.7l5.9-5.9a2.29 2.29 0 00-3.23-3.24z"/></svg>