<svg width="16" height="16" viewBox="0 0 16 16" xmlns="http://www.w3.org/2000/svg"><path d="M5.5 4a1.5 1.5 0 1 0 0 3 1.5 1.5 0 0 0 0-3ZM3 5.5a2.5 2.5 0 1 1 5 0 2.5 2.5 0 0 1-5 0Zm8.5-.5a1 1 0 1 0 0 2 1 1 0 0 0 0-2Zm-2 1a2 2 0 1 1 4 0 2 2 0 0 1-4 0ZM3 9c-.83 0-1.5.67-1.5 1.5v.11a1.38 1.38 0 0 0 .01.14c0 .08.03.2.06.34.07.27.2.64.46 1 .55.76 1.6 1.41 3.47 1.41.65 0 1.2-.08 1.67-.21l-.73-.73a1.53 1.53 0 0 1-.1-.12c-.25.04-.53.06-.84.06-1.62 0-2.33-.55-2.66-1a1.85 1.85 0 0 1-.34-.9V10.5c0-.28.22-.5.5-.5h3.88l1-1H3Zm6.85.85a.5.5 0 0 0-.7-.7l-2 2a.5.5 0 0 0 0 .7l2 2a.5.5 0 0 0 .7-.7L8.71 12h4.58l-1.14 1.15a.5.5 0 0 0 .7.7l2-2a.5.5 0 0 0 0-.7l-2-2a.5.5 0 0 0-.7.7L13.29 11H8.71l1.14-1.15Z"/></svg>