<svg width="24" height="24" viewBox="0 0 24 24" xmlns="http://www.w3.org/2000/svg"><path d="M8 5.5a2.5 2.5 0 100 5 2.5 2.5 0 000-5zM4 8a4 4 0 118 0 4 4 0 01-8 0zm13-.5a1.5 1.5 0 100 3 1.5 1.5 0 000-3zM14 9a3 3 0 116 0 3 3 0 01-6 0zm-1.22 5.25c-.31-.16-.66-.25-1.03-.25h-7.5C3.01 14 2 15 2 16.25v.28a2.07 2.07 0 00.01.2c.02.14.04.32.1.53.09.42.29.98.68 1.55C3.61 19.97 5.17 21 8 21c1.6 0 2.8-.33 3.7-.83l-1.13-1.12c-.61.27-1.45.45-2.57.45-2.42 0-3.49-.85-3.98-1.56a2.99 2.99 0 01-.52-1.43v-.26c0-.41.34-.75.75-.75h7.28l1.25-1.25zm7.5.47a.75.75 0 00-1.06 1.06L20.44 17h-6.88l1.22-1.22a.75.75 0 00-1.06-1.06l-2.5 2.5c-.3.3-.3.77 0 1.06l2.5 2.5a.75.75 0 001.06-1.06l-1.22-1.22h6.88l-1.22 1.22a.75.75 0 001.06 1.06l2.5-2.5c.3-.3.3-.77 0-1.06l-2.5-2.5z"/></svg>