<svg width="24" height="24" viewBox="0 0 24 24" xmlns="http://www.w3.org/2000/svg"><path d="M12 8a4 4 0 11-8 0 4 4 0 018 0zm8 1a3 3 0 11-6 0 3 3 0 016 0zM2 16.25C2 15.01 3 14 4.25 14h7.5c.37 0 .72.09 1.03.25L10.5 16.5c-.68.69-.68 1.8 0 2.48l1.19 1.18c-.87.5-2.06.83-3.7.83-6 0-6-4.5-6-4.5v-.25zm18.28-1.53a.75.75 0 00-1.06 1.06L20.44 17h-6.88l1.22-1.22a.75.75 0 00-1.06-1.06l-2.5 2.5c-.3.3-.3.77 0 1.06l2.5 2.5a.75.75 0 001.06-1.06l-1.22-1.22h6.88l-1.22 1.22a.75.75 0 001.06 1.06l2.5-2.5c.3-.3.3-.77 0-1.06l-2.5-2.5z"/></svg>