<svg width="16" height="16" viewBox="0 0 16 16" xmlns="http://www.w3.org/2000/svg"><path d="M8 1.5c.28 0 .5.22.5.5v3.38a1.5 1.5 0 0 0-.07.07L8 5.88l-.44-.44a1.5 1.5 0 0 0-.06-.06V2c0-.28.22-.5.5-.5Zm.43 9.05.07.07V14a.5.5 0 0 1-1 0v-3.38l.06-.06.44-.44.43.43ZM2.5 14a.5.5 0 0 1-.5-.5V11h3v.5A2.5 2.5 0 0 1 2.5 14ZM5 6v4H2V6h3Zm0-1v-.5A2.5 2.5 0 0 0 2.5 2a.5.5 0 0 0-.5.5V5h3Zm8.5-3A2.5 2.5 0 0 0 11 4.5V5h3V2.5a.5.5 0 0 0-.5-.5ZM11 6h3v4h-3V6Zm3 5h-3v.5a2.5 2.5 0 0 0 2.5 2.5.5.5 0 0 0 .5-.5V11ZM6.15 6.15c.2-.2.5-.2.7 0L8 7.29l1.15-1.14a.5.5 0 1 1 .7.7L8.71 8l1.14 1.15a.5.5 0 0 1-.7.7L8 8.71 6.85 9.85a.5.5 0 0 1-.7-.7L7.29 8 6.15 6.85a.5.5 0 0 1 0-.7Z"/></svg>