<svg width="32" height="32" viewBox="0 0 32 32" xmlns="http://www.w3.org/2000/svg"><path d="M20.75 3A10.75 10.75 0 0 0 10 13.75v1C10 15.99 9 17 7.75 17h-3.5a1.25 1.25 0 1 0 0 2.5h3.5a4.75 4.75 0 0 0 4.75-4.75v-1c0-4.56 3.7-8.25 8.25-8.25h2a1.25 1.25 0 1 0 0-2.5h-2Zm-6.5 11.75A6.75 6.75 0 0 1 21 8h6.75a1.25 1.25 0 1 1 0 2.5H21a4.25 4.25 0 0 0-4.25 4.25v2A7.75 7.75 0 0 1 9 24.5H4.25a1.25 1.25 0 1 1 0-2.5H9c2.9 0 5.25-2.35 5.25-5.25v-2Zm7 3.89A11.09 11.09 0 0 1 10.16 29.5h-.91a1.25 1.25 0 0 1 0-2.5h.91a8.59 8.59 0 0 0 8.59-8.59v-2.16c0-1.8 1.46-3.25 3.25-3.25h5.75a1.25 1.25 0 1 1 0 2.5H22a.75.75 0 0 0-.75.75v2.39Z"/></svg>