<svg width="32" height="32" viewBox="0 0 32 32" xmlns="http://www.w3.org/2000/svg"><path d="M20.5 3C14.7 3 10 7.7 10 13.5v1A2.5 2.5 0 0 1 7.5 17H4a1 1 0 1 0 0 2h3.5a4.5 4.5 0 0 0 4.5-4.5v-1C12 8.8 15.8 5 20.5 5H23a1 1 0 1 0 0-2h-2.5Zm-6 11.5A6.5 6.5 0 0 1 21 8h7a1 1 0 1 1 0 2h-7a4.5 4.5 0 0 0-4.5 4.5v2A7.5 7.5 0 0 1 9 24H4a1 1 0 1 1 0-2h5a5.5 5.5 0 0 0 5.5-5.5v-2ZM9 27h1.16A8.84 8.84 0 0 0 19 18.16V16a3 3 0 0 1 3-3h6a1 1 0 1 1 0 2h-6a1 1 0 0 0-1 1v2.31A10.84 10.84 0 0 1 10.16 29H9a1 1 0 1 1 0-2Z"/></svg>