<svg width="48" height="48" viewBox="0 0 48 48" xmlns="http://www.w3.org/2000/svg"><path d="M30.25 6.5c-7.04 0-12.75 5.7-12.75 12.75v1c0 4-3.25 7.25-7.25 7.25h-5a1.25 1.25 0 1 1 0-2.5h5A4.75 4.75 0 0 0 15 20.25v-1C15 10.83 21.83 4 30.25 4h4.5a1.25 1.25 0 1 1 0 2.5h-4.5Zm2 8a6.75 6.75 0 0 0-6.75 6.75v1c0 7.32-5.93 13.25-13.25 13.25h-7a1.25 1.25 0 1 1 0-2.5h7C18.19 33 23 28.19 23 22.25v-1c0-5.1 4.14-9.25 9.25-9.25h10.5a1.25 1.25 0 1 1 0 2.5h-10.5Zm1.25 9.61c0-.89.72-1.61 1.61-1.61h7.64a1.25 1.25 0 1 0 0-2.5h-7.64A4.11 4.11 0 0 0 31 24.11C31 33.44 23.44 41 14.11 41h-.86a1.25 1.25 0 1 0 0 2.5h.86c10.71 0 19.39-8.68 19.39-19.39Z"/></svg>