<svg width="48" height="48" viewBox="0 0 48 48" xmlns="http://www.w3.org/2000/svg"><path d="M6 12.25C6 8.8 8.8 6 12.25 6h23.5C39.2 6 42 8.8 42 12.25v23.5C42 39.2 39.2 42 35.75 42h-23.5A6.25 6.25 0 016 35.75v-23.5zm6.25-3.75a3.75 3.75 0 00-3.75 3.75v23.5c0 .6.14 1.16.39 1.66l12.48-12.32a3.75 3.75 0 015.26 0L39.12 37.4c.24-.5.38-1.06.38-1.65v-23.5a3.75 3.75 0 00-3.75-3.75h-23.5zm25.08 30.65L24.88 26.87a1.25 1.25 0 00-1.76 0L10.68 39.15c.47.23 1 .35 1.57.35h23.5c.56 0 1.1-.12 1.58-.35zM30.5 19.5a2 2 0 110-4 2 2 0 010 4zm0 2.5a4.5 4.5 0 100-9 4.5 4.5 0 000 9z"/></svg>