<svg width="32" height="32" viewBox="0 0 32 32" xmlns="http://www.w3.org/2000/svg"><path d="M3 8a4.5 4.5 0 0 1 4.5-4.5h17A4.5 4.5 0 0 1 29 8v17a4.5 4.5 0 0 1-4.5 4.5h-17A4.5 4.5 0 0 1 3 25V8Zm4.5-2.5A2.5 2.5 0 0 0 5 8v17c0 .43.1.83.3 1.18l8.89-9.4a2.5 2.5 0 0 1 3.63 0l8.89 9.4c.18-.35.29-.75.29-1.18V8a2.5 2.5 0 0 0-2.5-2.5h-17Zm0 22h17c.22 0 .43-.03.63-.08l-8.77-9.27a.5.5 0 0 0-.72 0l-8.77 9.27c.2.05.41.08.63.08Zm15.5-16a1.5 1.5 0 1 0-3 0 1.5 1.5 0 0 0 3 0Zm2 0a3.5 3.5 0 1 1-7 0 3.5 3.5 0 0 1 7 0Z"/></svg>