<svg width="24" height="24" viewBox="0 0 24 24" xmlns="http://www.w3.org/2000/svg"><path d="M20.93 5.66c-1.96-1.73-5.02-2.6-9.18-2.59-4.16 0-7.13.88-8.9 2.6a2.82 2.82 0 0 0-.73 2.86l.31 1.03a2.17 2.17 0 0 0 2.28 1.51l2.03-.2a1.9 1.9 0 0 0 1.71-1.55l.4-2.2a8.1 8.1 0 0 1 6.22-.18l.64 2.35c.22.85.98 1.48 1.87 1.57l2.05.2c1.03.1 1.94-.56 2.12-1.53l.2-1.04c.2-1.02-.2-2.1-1.02-2.83ZM12 22a5.5 5.5 0 1 1 0-11 5.5 5.5 0 0 1 0 11Zm0-1.5a4 4 0 0 0 3.3-6.25l-5.55 5.56c.64.44 1.42.69 2.25.69Zm-3.3-1.75 5.55-5.56a4 4 0 0 0-5.56 5.56Z"/></svg>