<svg width="20" height="20" viewBox="0 0 20 20" xmlns="http://www.w3.org/2000/svg"><path d="M15.85 1.15a.5.5 0 0 0-.7.7 6.6 6.6 0 0 1 1.72 4.65 6.6 6.6 0 0 1-1.72 4.65.5.5 0 0 0 .7.7 7.6 7.6 0 0 0 2.03-5.35 7.6 7.6 0 0 0-2.03-5.35Zm-2 2a.5.5 0 0 0-.7.7c.63.64.97 1.62.97 2.65 0 1.03-.34 2.01-.97 2.65a.5.5 0 0 0 .7.7 4.76 4.76 0 0 0 1.28-3.35c0-1.22-.41-2.49-1.28-3.35ZM4 7a4 4 0 1 1 8 0 4 4 0 0 1-8 0Zm4-3a3 3 0 1 0 0 6 3 3 0 0 0 0-6ZM1 14a2 2 0 0 1 2-2h10a2 2 0 0 1 2 2c0 1.7-.83 2.97-2.13 3.8A9.14 9.14 0 0 1 8 19a9.14 9.14 0 0 1-4.87-1.2A4.35 4.35 0 0 1 1 14Zm2-1a1 1 0 0 0-1 1c0 1.3.62 2.28 1.67 2.95A8.16 8.16 0 0 0 8 18c1.74 0 3.26-.36 4.33-1.05A3.36 3.36 0 0 0 14 14a1 1 0 0 0-1-1H3Z"/></svg>