<svg width="24" height="24" viewBox="0 0 24 24" xmlns="http://www.w3.org/2000/svg"><path d="M10.5 2.75c0 .41.34.75.75.75h1.19L8.22 7.72a.75.75 0 0 0 1.06 1.06l4.22-4.22v1.19a.75.75 0 0 0 1.5 0v-3a.75.75 0 0 0-.75-.75h-3a.75.75 0 0 0-.75.75ZM3.07 8.07a.75.75 0 0 0-1 1l4.5 9.5a.75.75 0 0 0 1.36-.64L6.7 15.35l2.64-2.64 2.58 1.22a.75.75 0 0 0 .64-1.36l-9.5-4.5Zm4.84 3.96L6.03 13.9l-1.7-3.58 3.58 1.7ZM18.25 9a.75.75 0 0 0 0 1.5h1.19L9.22 20.72a.75.75 0 1 0 1.06 1.06L20.5 11.56v1.19a.75.75 0 0 0 1.5 0v-3a.75.75 0 0 0-.75-.75h-3Z"/></svg>