<svg width="20" height="20" viewBox="0 0 20 20" xmlns="http://www.w3.org/2000/svg"><path d="M2 4c0-1.1.9-2 2-2h12a2 2 0 0 1 2 2v7.1a2.75 2.75 0 0 0-.75-.1h-5.5A2.75 2.75 0 0 0 9 13.75v3.5c0 .26.04.51.1.75H6.5a.5.5 0 0 1 0-1H8v-2H4a2 2 0 0 1-2-2V4Zm9.75 8c-.97 0-1.75.78-1.75 1.75v3.5c0 .97.78 1.75 1.75 1.75h5.5c.97 0 1.75-.78 1.75-1.75v-3.5c0-.97-.78-1.75-1.75-1.75h-5.5Zm.25 5.5c0-.28.22-.5.5-.5h4a.5.5 0 0 1 0 1h-4a.5.5 0 0 1-.5-.5Zm.5-3.5a.5.5 0 1 1 0-1 .5.5 0 0 1 0 1Zm1.5 1.5a.5.5 0 1 1-1 0 .5.5 0 0 1 1 0Zm.5-1.5a.5.5 0 1 1 0-1 .5.5 0 0 1 0 1Zm1.5 1.5a.5.5 0 1 1-1 0 .5.5 0 0 1 1 0Zm.5-1.5a.5.5 0 1 1 0-1 .5.5 0 0 1 0 1Z"/></svg>