<svg width="16" height="16" viewBox="0 0 16 16" xmlns="http://www.w3.org/2000/svg"><path d="M3 1a2 2 0 0 0-2 2v6c0 1.1.9 2 2 2h1v1h-.5a.5.5 0 0 0 0 1H5V9.76A2.75 2.75 0 0 1 7.75 7H13V3a2 2 0 0 0-2-2H3Zm3 8.5C6 8.67 6.67 8 7.5 8h6c.83 0 1.5.67 1.5 1.5v4c0 .83-.67 1.5-1.5 1.5h-6A1.5 1.5 0 0 1 6 13.5v-4Zm2 4c0 .28.22.5.5.5h4a.5.5 0 0 0 0-1h-4a.5.5 0 0 0-.5.5Zm.5-3.5a.5.5 0 1 0 0-1 .5.5 0 0 0 0 1Zm1.5 1.5a.5.5 0 1 0-1 0 .5.5 0 0 0 1 0Zm.5-1.5a.5.5 0 1 0 0-1 .5.5 0 0 0 0 1Zm1.5 1.5a.5.5 0 1 0-1 0 .5.5 0 0 0 1 0Zm.5-1.5a.5.5 0 1 0 0-1 .5.5 0 0 0 0 1Z"/></svg>