<svg width="20" height="20" viewBox="0 0 20 20" xmlns="http://www.w3.org/2000/svg"><path d="M3 5c0-1.1.9-2 2-2h8.38a2 2 0 0 1 1.41.59l1.62 1.62A2 2 0 0 1 17 6.62V15a2 2 0 0 1-2 2h-2.88l-1-1H14v-4.5a.5.5 0 0 0-.5-.5h-3.26a4.53 4.53 0 0 0-.91-1h4.17c.83 0 1.5.67 1.5 1.5V16a1 1 0 0 0 1-1V6.62a1 1 0 0 0-.3-.7L14.1 4.28a1 1 0 0 0-.71-.29H13v2.5c0 .83-.67 1.5-1.5 1.5h-4A1.5 1.5 0 0 1 6 6.5V4H5a1 1 0 0 0-1 1v4.76a4.52 4.52 0 0 0-1 .91V5Zm4-1v2.5c0 .28.22.5.5.5h4a.5.5 0 0 0 .5-.5V4H7Zm3 9.5c0 .79-.26 1.51-.7 2.1l2.55 2.55a.5.5 0 0 1-.7.7L8.6 16.3a3.5 3.5 0 1 1 1.4-2.8Zm-6 0a2.5 2.5 0 1 0 5 0 2.5 2.5 0 0 0-5 0Z"/></svg>