<svg width="20" height="20" viewBox="0 0 20 20" xmlns="http://www.w3.org/2000/svg"><path d="M10 2.48a.5.5 0 0 1-.46.53 7 7 0 1 0 7.45 7.45.5.5 0 1 1 1 .07 8 8 0 1 1-8.52-8.51.5.5 0 0 1 .53.46Zm1 .07a.5.5 0 0 1 .6-.4c.56.12 1.1.3 1.6.52a.5.5 0 1 1-.4.91c-.44-.2-.91-.34-1.4-.44a.5.5 0 0 1-.4-.59Zm6.34 4.25a.5.5 0 1 0-.92.4c.2.45.34.91.44 1.4a.5.5 0 0 0 .98-.2 7.95 7.95 0 0 0-.5-1.6ZM14.4 3.92a.5.5 0 0 1 .7-.07c.4.33.75.69 1.08 1.08a.5.5 0 1 1-.78.63c-.28-.34-.6-.66-.93-.94a.5.5 0 0 1-.07-.7ZM10 5.5a.5.5 0 0 0-1 0v5c0 .28.22.5.5.5h3a.5.5 0 1 0 0-1H10V5.5Z"/></svg>