<svg width="24" height="24" viewBox="0 0 24 24" xmlns="http://www.w3.org/2000/svg"><path d="M11.31 3.53a.75.75 0 1 0-.12-1.5 10 10 0 1 0 10.78 10.78.75.75 0 1 0-1.5-.12 8.5 8.5 0 1 1-9.16-9.16Zm6.39 1.14a.75.75 0 0 1 1.06-.04c.21.2.42.4.61.61a.75.75 0 0 1-1.1 1.02 8.55 8.55 0 0 0-.53-.53.75.75 0 0 1-.04-1.06ZM11.25 6c.38 0 .7.28.74.65l.01.1V12h3.25a.75.75 0 0 1 .1 1.5h-4.1a.75.75 0 0 1-.74-.65l-.01-.1v-6c0-.41.34-.75.75-.75Zm2.53-3.11c.11-.4.53-.63.93-.52.36.1.72.23 1.07.37a.75.75 0 1 1-.57 1.39c-.3-.12-.6-.23-.9-.32a.75.75 0 0 1-.53-.92Zm7.48 5.33a.75.75 0 1 0-1.39.56 8.4 8.4 0 0 1 .31.92.75.75 0 1 0 1.45-.4 9.43 9.43 0 0 0-.37-1.08Z"/></svg>