<svg width="24" height="24" viewBox="0 0 24 24" xmlns="http://www.w3.org/2000/svg"><path d="M10.25 2h3.5c1.16 0 2.11.87 2.24 2h1.76C18.99 4 20 5 20 6.25V14h-5a5 5 0 0 0-4 8H6.25C5.01 22 4 21 4 19.75V6.25C4 5.01 5 4 6.25 4h1.76c.13-1.13 1.08-2 2.24-2Zm3.5 1.5h-3.5a.75.75 0 0 0 0 1.5h3.5a.75.75 0 0 0 0-1.5ZM23 19a4 4 0 0 0-4-4h-.1a.75.75 0 0 0 .1 1.5h.16a2.5 2.5 0 0 1-.16 5h-.1A.75.75 0 0 0 19 23h.2a4 4 0 0 0 3.8-4Zm-7.25-3.25A.75.75 0 0 0 15 15h-.2a4 4 0 0 0 .2 8h.1a.75.75 0 0 0-.1-1.5h-.16a2.5 2.5 0 0 1 .16-5h.1a.75.75 0 0 0 .65-.75Zm3 2.5h-3.6a.75.75 0 0 0 .1 1.5h3.6a.75.75 0 0 0-.1-1.5Z"/></svg>