<svg width="20" height="20" viewBox="0 0 20 20" xmlns="http://www.w3.org/2000/svg"><path d="M10 6.5V2H5.5C4.67 2 4 2.67 4 3.5v7.67a3 3 0 011.38 1A2.5 2.5 0 019.5 12a2.5 2.5 0 014.5 1.5c0 .44-.2.84-.5 1.12.32.42.5.95.5 1.5v.38c0 .56-.19 1.08-.5 1.5h1c.83 0 1.5-.67 1.5-1.5V8h-4.5A1.5 1.5 0 0110 6.5zm1 0V2.25L15.75 7H11.5a.5.5 0 01-.5-.5zM3 12a2 2 0 00-2 2v2a2 2 0 104 0 .5.5 0 00-1 0 1 1 0 11-2 0v-2a1 1 0 112 0 .5.5 0 001 0 2 2 0 00-2-2zm8.5 0c-.83 0-1.5.67-1.5 1.5v.38c0 .57.32 1.09.83 1.34l.9.45a.5.5 0 01.27.45v.38a.5.5 0 01-1 0 .5.5 0 00-1 0 1.5 1.5 0 003 0v-.38a1.5 1.5 0 00-.83-1.34l-.9-.45a.5.5 0 01-.27-.45v-.38a.5.5 0 011 0 .5.5 0 001 0c0-.83-.67-1.5-1.5-1.5zM6 13.5a1.5 1.5 0 013 0 .5.5 0 01-1 0 .5.5 0 00-1 0v.38c0 .2.1.36.28.45l.9.45c.5.25.82.77.82 1.34v.38a1.5 1.5 0 01-3 0 .5.5 0 011 0 .5.5 0 001 0v-.38a.5.5 0 00-.28-.45l-.9-.45A1.5 1.5 0 016 13.88v-.38z"/></svg>