<svg width="16" height="16" viewBox="0 0 16 16" xmlns="http://www.w3.org/2000/svg"><path d="m10.65 1.44 2.91 2.91c.28.28.44.66.44 1.06V13a2 2 0 0 1-1.39 1.9 2.41 2.41 0 0 0 .36-1.68A.78.78 0 0 0 13 13V6h-2.5A1.5 1.5 0 0 1 9 4.5V2H6a1 1 0 0 0-1 1v6.46c-.2.15-.37.32-.52.52-.14-.18-.3-.34-.48-.48V3a2 2 0 0 1 2-2h3.59c.4 0 .78.16 1.06.44Zm-.5 3.41c.09.1.22.15.35.15h2.29L10 2.21V4.5c0 .13.05.26.15.35Zm-8.71 9.71A1.5 1.5 0 0 0 4 13.5a.5.5 0 0 0-1 0 .5.5 0 0 1-1 0v-2a.5.5 0 0 1 1 0 .5.5 0 0 0 1 0 1.5 1.5 0 0 0-3 0v2c0 .4.16.78.44 1.06Zm5.13.44h-.14A1.43 1.43 0 0 1 5 13.57a.53.53 0 0 1 .5-.53.47.47 0 0 1 .5.46.45.45 0 0 0 .43.5h.14a.43.43 0 0 0 .2-.8l-.98-.5a1.43 1.43 0 0 1 .64-2.7h.14A1.43 1.43 0 0 1 8 11.43a.53.53 0 0 1-.5.53.47.47 0 0 1-.5-.46v-.07a.43.43 0 0 0-.43-.43h-.14a.43.43 0 0 0-.2.8l.98.5a1.43 1.43 0 0 1-.64 2.7Zm3.86 0h.14a1.43 1.43 0 0 0 .64-2.7l-.98-.5a.42.42 0 0 1-.23-.37.43.43 0 0 1 .43-.43h.14a.43.43 0 0 1 .43.43v.07a.47.47 0 0 0 .5.46.53.53 0 0 0 .5-.53A1.43 1.43 0 0 0 10.57 10h-.14a1.43 1.43 0 0 0-.64 2.7l.98.5a.42.42 0 0 1 .23.37.43.43 0 0 1-.43.43h-.14a.45.45 0 0 1-.43-.5.47.47 0 0 0-.5-.46.53.53 0 0 0-.5.53A1.43 1.43 0 0 0 10.43 15Z"/></svg>