<svg width="16" height="16" viewBox="0 0 16 16" xmlns="http://www.w3.org/2000/svg"><path d="M4.91 1.71A1 1 0 015.87 1h4.4a1 1 0 01.94 1.35L10.22 5h2.03c.63 0 .98.73.59 1.22L11.58 7.8l-.24-.47a2.94 2.94 0 00-.31-.45l.7-.88H9.5a2.51 2.51 0 00-.5-.5.5.5 0 01.03-.18L10.28 2h-4.4l-1.8 6h.97a2.5 2.5 0 001.14 1.63l-1.18 4.04a.23.23 0 000 .17c.03.05.07.1.13.12.05.03.11.04.16.03.04 0 .1-.03.15-.1l3.43-4.3.17-.13.1.21.02.02.35.7-3.29 4.13c-.85 1.07-2.56.18-2.18-1.13L5.33 9H3.75a.75.75 0 01-.72-.96L4.91 1.7zM7.5 6c.65 0 1.2.41 1.41 1 .15 0 .3 0 .46.03a1.58 1.58 0 011.08.75l.98 1.96c.13.17.25.23.38.25.1.02.18.02.27.02a1.5 1.5 0 110 1c-.14 0-.3 0-.45-.04a1.58 1.58 0 01-1.08-.75l-.98-1.96A.57.57 0 009.19 8c-.1-.02-.18-.02-.27-.02A1.5 1.5 0 117.5 6zM8 7.5a.5.5 0 10-1 0 .5.5 0 001 0zm6 3a.5.5 0 10-1 0 .5.5 0 001 0z"/></svg>