<svg width="24" height="24" viewBox="0 0 24 24" xmlns="http://www.w3.org/2000/svg"><path d="M7.43 2.83C7.6 2.33 8.07 2 8.6 2h6.46c.85 0 1.45.84 1.18 1.65L14.8 8h3.96c1.1 0 1.67 1.33.9 2.12l-3.18 3.29a12.41 12.41 0 00-.57-1.57l2.26-2.34h-4.4a.75.75 0 01-.72-.99L14.7 3.5H8.78l-3.26 9.16c-.06.16.06.33.23.33h.96a3.76 3.76 0 002 2.18l-1.2 5.32 5.67-5.85a52.28 52.28 0 01.43 1.71l-5.02 5.19c-1.06 1.08-2.87.1-2.54-1.38l1.27-5.66-1.57-.01c-1.21 0-2.05-1.2-1.65-2.34l3.33-9.32zm5.38 9.92a2.75 2.75 0 11.14-1.5h.3c.38 0 .79.1 1.15.36.37.26.64.64.8 1.13.2.48.45 1.46.65 2.27a89.58 89.58 0 01.35 1.44l.02.1c.08.22.18.32.25.37.07.05.16.08.28.08h.76a2.75 2.75 0 11.29 1.5h-1.05c-.38 0-.79-.1-1.15-.36a2.25 2.25 0 01-.83-1.22v-.03l-.03-.1a88.51 88.51 0 00-.34-1.42 22.53 22.53 0 00-.61-2.13c-.09-.26-.19-.36-.26-.41a.47.47 0 00-.28-.08h-.44zm-1.31-1a1.25 1.25 0 10-2.5 0 1.25 1.25 0 002.5 0zm8.75 6.75a1.25 1.25 0 100-2.5 1.25 1.25 0 000 2.5z"/></svg>