<svg width="24" height="24" viewBox="0 0 24 24" xmlns="http://www.w3.org/2000/svg"><path d="M7.43 2.83L4.1 12.15a1.75 1.75 0 001.65 2.34h1.57l-1.27 5.67c-.33 1.48 1.48 2.46 2.54 1.38l5.02-5.19a85.15 85.15 0 00-.55-2.12 3.74 3.74 0 01-6.56-2.48 3.75 3.75 0 017.2-1.47c.42.06.87.22 1.29.51.55.4.93.97 1.15 1.6.1.27.21.63.32 1.01l3.19-3.28c.77-.8.2-2.12-.9-2.12h-3.96l1.45-4.35c.27-.81-.33-1.65-1.18-1.65H8.6c-.53 0-1 .33-1.17.83zm4.07 8.92a1.25 1.25 0 10-2.5 0 1.25 1.25 0 002.5 0zm1.31 1a2.75 2.75 0 11.14-1.5h.3c.38 0 .79.1 1.15.36.37.26.64.64.8 1.13.2.48.45 1.46.65 2.27a89.58 89.58 0 01.35 1.44l.02.1c.08.22.18.32.25.37.07.05.16.08.28.08h.76a2.75 2.75 0 11.29 1.5h-1.05c-.38 0-.79-.1-1.15-.36a2.25 2.25 0 01-.83-1.22v-.03l-.03-.1a88.51 88.51 0 00-.34-1.42 22.53 22.53 0 00-.61-2.13c-.09-.26-.19-.36-.26-.41a.47.47 0 00-.28-.08h-.44zm7.44 5.75a1.25 1.25 0 100-2.5 1.25 1.25 0 000 2.5z"/></svg>