<svg width="24" height="24" viewBox="0 0 24 24" xmlns="http://www.w3.org/2000/svg"><path d="M16.58 13.52a2.99 2.99 0 0 0 0-3.04l1.2-1.2a.75.75 0 0 0-1.06-1.06l-1.2 1.2a2.99 2.99 0 0 0-3.04 0l-1.2-1.2a.75.75 0 1 0-1.06 1.06l1.2 1.2a2.99 2.99 0 0 0 0 3.04l-1.2 1.2a.75.75 0 1 0 1.06 1.06l1.2-1.2a2.99 2.99 0 0 0 3.04 0l1.2 1.2a.75.75 0 1 0 1.06-1.06l-1.2-1.2ZM14 13.5a1.5 1.5 0 1 1 0-3 1.5 1.5 0 0 1 0 3ZM6.5 7.75a.75.75 0 0 0-1.5 0v8.5a.75.75 0 0 0 1.5 0v-8.5Zm-4.5 0A3.75 3.75 0 0 1 5.75 4h12.5A3.75 3.75 0 0 1 22 7.75v8.5A3.75 3.75 0 0 1 18.25 20H5.75A3.75 3.75 0 0 1 2 16.25v-8.5ZM5.75 5.5c-1.24 0-2.25 1-2.25 2.25v8.5c0 1.24 1 2.25 2.25 2.25h12.5c1.24 0 2.25-1 2.25-2.25v-8.5c0-1.24-1-2.25-2.25-2.25H5.75Z"/></svg>