<svg width="16" height="16" viewBox="0 0 16 16" xmlns="http://www.w3.org/2000/svg"><path d="M10 8.5a.5.5 0 1 0 0-1 .5.5 0 0 0 0 1Zm-9-3A2.5 2.5 0 0 1 3.5 3h9A2.5 2.5 0 0 1 15 5.5v5a2.5 2.5 0 0 1-2.5 2.5h-9A2.5 2.5 0 0 1 1 10.5v-5Zm3.5.5a.5.5 0 0 0-.5.5v3a.5.5 0 0 0 1 0v-3a.5.5 0 0 0-.5-.5Zm6.85 2.65a1.5 1.5 0 0 0 0-1.3l.5-.5a.5.5 0 0 0-.7-.7l-.5.5a1.5 1.5 0 0 0-1.3 0l-.5-.5a.5.5 0 1 0-.7.7l.5.5a1.5 1.5 0 0 0 0 1.3l-.5.5a.5.5 0 1 0 .7.7l.5-.5a1.5 1.5 0 0 0 1.3 0l.5.5a.5.5 0 0 0 .7-.7l-.5-.5Z"/></svg>