<svg width="24" height="24" viewBox="0 0 24 24" xmlns="http://www.w3.org/2000/svg"><path d="M10.55 2.53c.84-.7 2.06-.7 2.9 0l6.75 5.7c.5.42.8 1.05.8 1.71v2.11a3.5 3.5 0 00-1.5-.9v-1.2c0-.23-.1-.44-.27-.58l-6.75-5.7a.75.75 0 00-.96 0l-6.75 5.7a.75.75 0 00-.27.57v9.8c0 .15.11.26.25.26h3.5c.14 0 .25-.11.25-.25v-5.5c0-.97.78-1.75 1.75-1.75h5.38c-.3.44-.52.95-.6 1.5H10.26a.25.25 0 00-.25.25v5.5c0 .96-.78 1.75-1.75 1.75h-3.5C3.78 21.5 3 20.7 3 19.75v-9.8c0-.67.3-1.3.8-1.73l6.75-5.69zM21 14.5a2.5 2.5 0 11-5 0 2.5 2.5 0 015 0zm2 5.38c0 1.55-1.29 3.12-4.5 3.12S14 21.44 14 19.87v-.1c0-.98.8-1.77 1.77-1.77h5.46c.98 0 1.77.8 1.77 1.77v.1z"/></svg>