<svg width="16" height="16" viewBox="0 0 16 16" xmlns="http://www.w3.org/2000/svg"><path d="M2.75 2a.5.5 0 0 0-.49.38l-.25 1a.5.5 0 1 0 .98.24L3.14 3h2.72l-1.4 8h-.73a.5.5 0 0 0 0 1h2.3a5.57 5.57 0 0 1 0-1h-.55l1.4-8h2.98l-.1.38a.5.5 0 1 0 .98.24l.25-1A.5.5 0 0 0 10.5 2H2.75ZM1.5 13h4.7c.1.35.24.68.4 1H1.5a.5.5 0 0 1 0-1ZM16 11.5a4.5 4.5 0 1 1-9 0 4.5 4.5 0 0 1 9 0Zm-2.65-1.15a.5.5 0 0 0-.7-.7l-1.15 1.14-1.15-1.14a.5.5 0 0 0-.7.7l1.14 1.15-1.14 1.15a.5.5 0 0 0 .7.7l1.15-1.14 1.15 1.14a.5.5 0 0 0 .7-.7l-1.14-1.15 1.14-1.15Z"/></svg>