<svg width="16" height="16" viewBox="0 0 16 16" xmlns="http://www.w3.org/2000/svg"><path d="M2.96 2a.75.75 0 0 0-.73.57L2 3.5a.75.75 0 0 0 1.46.37l.1-.38h2.02l-1.23 7h-.38a.75.75 0 0 0 0 1.5h2.06a5.57 5.57 0 0 1 .07-1.5h-.22l1.22-7h2.23v.01a.75.75 0 0 0 1.45.37l.24-.95a.75.75 0 0 0-.73-.93H2.96ZM1.75 12.5h4.34c.1.53.27 1.03.51 1.5H1.75a.75.75 0 0 1 0-1.5Zm14.25-1a4.5 4.5 0 1 1-9 0 4.5 4.5 0 0 1 9 0Zm-2.65-1.15a.5.5 0 0 0-.7-.7l-1.15 1.14-1.15-1.14a.5.5 0 0 0-.7.7l1.14 1.15-1.14 1.15a.5.5 0 0 0 .7.7l1.15-1.14 1.15 1.14a.5.5 0 0 0 .7-.7l-1.14-1.15 1.14-1.15Z"/></svg>