<svg width="20" height="20" viewBox="0 0 20 20" xmlns="http://www.w3.org/2000/svg"><path d="M4.25 3a.5.5 0 0 0-.5.42l-.24 1.5a.5.5 0 0 0 .98.16L4.67 4h3.57l-1.73 9.91a.5.5 0 0 0-.01.09h-1a.5.5 0 0 0 0 1h3a.5.5 0 0 0 0-1h-1l1.74-9.91A.5.5 0 0 0 9.25 4h3.41l-.15.92a.5.5 0 1 0 .98.16l.25-1.5a.5.5 0 0 0-.49-.58h-9ZM9.6 17c-.16-.32-.3-.65-.4-1H2.5a.5.5 0 0 0 0 1h7.1Zm9.4-2.5a4.5 4.5 0 1 1-9 0 4.5 4.5 0 0 1 9 0Zm-2.65-1.15a.5.5 0 0 0-.7-.7l-1.15 1.14-1.15-1.14a.5.5 0 0 0-.7.7l1.14 1.15-1.14 1.15a.5.5 0 0 0 .7.7l1.15-1.14 1.15 1.14a.5.5 0 0 0 .7-.7l-1.14-1.15 1.14-1.15Z"/></svg>