<svg width="20" height="20" viewBox="0 0 20 20" xmlns="http://www.w3.org/2000/svg"><path d="M12 1c-.18 0-.36 0-.54.02a.5.5 0 1 0 .08 1L12 2a6 6 0 0 1 5.98 6.46.5.5 0 1 0 1 .08L19 8a7 7 0 0 0-7-7Zm0 2c-.19 0-.37.01-.55.03a.5.5 0 0 0 .1 1L12 4a4 4 0 0 1 3.98 4.45.5.5 0 1 0 .99.1A5 5 0 0 0 12 3Zm0 2c-.2 0-.4.02-.6.06a.5.5 0 0 0 .2.98A2.01 2.01 0 0 1 14 8c0 .14-.01.27-.04.4a.5.5 0 0 0 .98.2A3.01 3.01 0 0 0 12 5Zm-1.92-3H3.5C2.67 2 2 2.67 2 3.5v10c0 .83.67 1.5 1.5 1.5H7v2H5.5a.5.5 0 1 0 0 1h9a.5.5 0 0 0 0-1H13v-2h3.5c.83 0 1.5-.67 1.5-1.5V9.92a1.5 1.5 0 0 1-.52-.3 1.5 1.5 0 0 1-2.02-.01 1.5 1.5 0 0 1-2.13-.11 2 2 0 0 1-2.82-2.82 1.5 1.5 0 0 1-.12-2.14 1.5 1.5 0 0 1 0-2.02 1.5 1.5 0 0 1-.31-.52ZM12 15v2H8v-2h4Zm1-7a1 1 0 1 1-2 0 1 1 0 0 1 2 0Z"/></svg>