<svg width="20" height="20" viewBox="0 0 20 20" xmlns="http://www.w3.org/2000/svg"><path d="M10 6a2 2 0 1 0 0-4 2 2 0 0 0 0 4Zm0-1a1 1 0 1 1 0-2 1 1 0 0 1 0 2ZM8.5 8a.5.5 0 0 0-.5.5V9H7v-.5C7 7.67 7.67 7 8.5 7h3c.83 0 1.5.67 1.5 1.5V9h-1v-.5a.5.5 0 0 0-.5-.5h-3ZM7 14.78v1.72c0 .83.67 1.5 1.5 1.5h3c.83 0 1.5-.67 1.5-1.5v-1.72a.5.5 0 0 1 .15-.36l3.7-3.56a.5.5 0 0 0-.34-.86H3.49a.5.5 0 0 0-.35.86l3.7 3.56c.1.1.16.23.16.36Zm1 1.72v-1.72c0-.4-.17-.8-.46-1.08L4.73 11h10.54l-2.81 2.7c-.3.29-.46.68-.46 1.08v1.72a.5.5 0 0 1-.5.5h-3a.5.5 0 0 1-.5-.5Z"/></svg>