<svg width="16" height="16" viewBox="0 0 16 16" xmlns="http://www.w3.org/2000/svg"><path d="M1 4.5A2.5 2.5 0 0 1 3.5 2h7A2.5 2.5 0 0 1 13 4.5v1.7c-.32-.08-.66-.15-1-.18V4.5c0-.83-.67-1.5-1.5-1.5H7v5.34A5.47 5.47 0 0 0 6.02 12H3.5A2.5 2.5 0 0 1 1 9.5v-5ZM3.5 4a.5.5 0 0 0 0 1h1a.5.5 0 0 0 0-1h-1ZM3 7c0 .28.22.5.5.5h1a.5.5 0 0 0 0-1h-1A.5.5 0 0 0 3 7Zm.5 2a.5.5 0 0 0 0 1h1a.5.5 0 0 0 0-1h-1ZM16 11.5a4.5 4.5 0 1 1-9 0 4.5 4.5 0 0 1 9 0Zm-4-2a.5.5 0 0 0-1 0V11H9.5a.5.5 0 0 0 0 1H11v1.5a.5.5 0 0 0 1 0V12h1.5a.5.5 0 0 0 0-1H12V9.5Z"/></svg>