<svg width="16" height="16" viewBox="0 0 16 16" xmlns="http://www.w3.org/2000/svg"><path d="M3 4.5c0-.28.22-.5.5-.5h1a.5.5 0 0 1 0 1h-1a.5.5 0 0 1-.5-.5ZM3 7c0-.28.22-.5.5-.5h1a.5.5 0 0 1 0 1h-1A.5.5 0 0 1 3 7Zm0 2.5c0-.28.22-.5.5-.5h1a.5.5 0 0 1 0 1h-1a.5.5 0 0 1-.5-.5ZM3.5 2A2.5 2.5 0 0 0 1 4.5v5A2.5 2.5 0 0 0 3.5 12h2.52A5.57 5.57 0 0 1 7 8.34V3h3.5c.83 0 1.5.67 1.5 1.5v1.52c.34.03.68.1 1 .19V4.5A2.5 2.5 0 0 0 10.5 2h-7ZM2 4.5C2 3.67 2.67 3 3.5 3H6v8H3.5A1.5 1.5 0 0 1 2 9.5v-5Zm14 7a4.5 4.5 0 1 1-9 0 4.5 4.5 0 0 1 9 0Zm-4-2a.5.5 0 0 0-1 0V11H9.5a.5.5 0 0 0 0 1H11v1.5a.5.5 0 0 0 1 0V12h1.5a.5.5 0 0 0 0-1H12V9.5Z"/></svg>