<svg width="28" height="28" viewBox="0 0 28 28" xmlns="http://www.w3.org/2000/svg"><path d="M5.75 4A3.75 3.75 0 0 0 2 7.75v11.5A3.75 3.75 0 0 0 5.75 23h7.68c-.17-.48-.3-.98-.36-1.5H11v-16h11.25c1.24 0 2.25 1 2.25 2.25v6.4c.55.35 1.06.77 1.5 1.25V7.75A3.75 3.75 0 0 0 22.25 4H5.75ZM5 8.5c0-.41.34-.75.75-.75h1.5a.75.75 0 0 1 0 1.5h-1.5A.75.75 0 0 1 5 8.5Zm0 5c0-.41.34-.75.75-.75h1.5a.75.75 0 0 1 0 1.5h-1.5A.75.75 0 0 1 5 13.5Zm.75 4.25h1.5a.75.75 0 0 1 0 1.5h-1.5a.75.75 0 0 1 0-1.5ZM27 20.5a6.5 6.5 0 1 1-13 0 6.5 6.5 0 0 1 13 0Zm-6-4a.5.5 0 0 0-1 0V20h-3.5a.5.5 0 0 0 0 1H20v3.5a.5.5 0 0 0 1 0V21h3.5a.5.5 0 0 0 0-1H21v-3.5Z"/></svg>