<svg width="48" height="48" viewBox="0 0 48 48" xmlns="http://www.w3.org/2000/svg"><path d="M8.5 15c0-.69.56-1.25 1.25-1.25h3.5a1.25 1.25 0 1 1 0 2.5h-3.5c-.69 0-1.25-.56-1.25-1.25Zm0 9c0-.69.56-1.25 1.25-1.25h3.5a1.25 1.25 0 1 1 0 2.5h-3.5c-.69 0-1.25-.56-1.25-1.25Zm1.25 7.75a1.25 1.25 0 1 0 0 2.5h3.5a1.25 1.25 0 1 0 0-2.5h-3.5ZM4 13.25C4 9.8 6.8 7 10.25 7h27.5C41.2 7 44 9.8 44 13.25v12.37c-.75-.72-1.6-1.36-2.5-1.88V13.25a3.75 3.75 0 0 0-3.75-3.75H19v29h3.48c.24.87.57 1.71.98 2.5H10.25A6.25 6.25 0 0 1 4 34.75v-21.5Zm6.25-3.75a3.75 3.75 0 0 0-3.75 3.75v21.5a3.75 3.75 0 0 0 3.75 3.75h6.25v-29h-6.25ZM46 35a11 11 0 1 1-22 0 11 11 0 0 1 22 0Zm-10-7a1 1 0 1 0-2 0v6h-6a1 1 0 1 0 0 2h6v6a1 1 0 1 0 2 0v-6h6a1 1 0 1 0 0-2h-6v-6Z"/></svg>