<svg width="20" height="20" viewBox="0 0 20 20" xmlns="http://www.w3.org/2000/svg"><path d="M6.5 2a2.5 2.5 0 0 0-2.46 2.03C4.2 4 4.34 4 4.5 4h8A3.5 3.5 0 0 1 16 7.5v1.7c.74.22 1.42.58 2 1.06V6a4 4 0 0 0-4-4H6.5ZM15 7.5v1.52A5.5 5.5 0 0 0 9.2 16h-.04l-2.58 1.84A1 1 0 0 1 5 17.03V16h-.5A2.5 2.5 0 0 1 2 13.5v-6A2.5 2.5 0 0 1 4.5 5h8A2.5 2.5 0 0 1 15 7.5Zm4 7a4.5 4.5 0 1 0-9 0 4.5 4.5 0 0 0 9 0Zm-2.15-1.85c.2.2.2.5 0 .7l-3 3a.5.5 0 0 1-.7 0l-1-1a.5.5 0 0 1 .7-.7l.65.64 2.65-2.64c.2-.2.5-.2.7 0Z"/></svg>