<svg width="24" height="24" viewBox="0 0 24 24" xmlns="http://www.w3.org/2000/svg"><path d="M8.25 2a3.25 3.25 0 0 0-3.24 3h9.74C17.1 5 19 6.9 19 9.25v1.92c1.15.27 2.18.85 3 1.64V6.75A4.75 4.75 0 0 0 17.25 2h-9ZM18 9.25v1.77A6.5 6.5 0 0 0 11.17 19h-.5L7 21.75c-.82.62-2 .03-2-1v-1.76a3.25 3.25 0 0 1-3-3.24v-6.5A3.25 3.25 0 0 1 5.25 6h9.5C16.55 6 18 7.46 18 9.25Zm5 8.25a5.5 5.5 0 1 0-11 0 5.5 5.5 0 0 0 11 0Zm-2.15-2.35c.2.2.2.5 0 .7l-4 4a.5.5 0 0 1-.7 0l-2-2a.5.5 0 0 1 .7-.7l1.65 1.64 3.65-3.64c.2-.2.5-.2.7 0Z"/></svg>