<svg width="16" height="16" viewBox="0 0 16 16" xmlns="http://www.w3.org/2000/svg"><path d="M11.9 2.4a1.56 1.56 0 1 1 2.2 2.2l-2.25 2.25a.5.5 0 0 1-.7 0L8.9 4.6a1.56 1.56 0 1 1 2.2-2.2l.4.4.4-.4Zm1.5.7a.56.56 0 0 0-.8 0l-.75.75a.5.5 0 0 1-.7 0l-.75-.75a.56.56 0 0 0-.8.8l1.9 1.9 1.9-1.9a.56.56 0 0 0 0-.8ZM4.5 7a2.5 2.5 0 1 0 0-5 2.5 2.5 0 0 0 0 5Zm1.35-1.85-2-2a1.5 1.5 0 0 1 2 2Zm-.7.7a1.5 1.5 0 0 1-2-2l2 2ZM5 9.5a.5.5 0 0 0-1 0V11H2.5a.5.5 0 0 0 0 1H4v1.5a.5.5 0 1 0 1 0V12h1.5a.5.5 0 1 0 0-1H5V9.5ZM9.5 15a.5.5 0 0 1-.5-.5v-2a.5.5 0 0 1 .51-.5H11a.5.5 0 0 1 0 1h-.64l.14.17c.38.43.94.83 1.75.83a2.5 2.5 0 0 0 1.85-.8.5.5 0 0 1 .8.6l-.4-.3.4.3-.02.02a1.45 1.45 0 0 1-.17.19 3.5 3.5 0 0 1-2.46.99c-1 0-1.74-.43-2.25-.9v.4a.5.5 0 0 1-.5.5Zm5-6c.28 0 .5.22.5.5v2a.5.5 0 0 1-.51.5H13a.5.5 0 1 1 0-1h.64a2.27 2.27 0 0 0-1.89-1 2.5 2.5 0 0 0-1.84.78v.01l-.01.01a.5.5 0 0 1-.8-.6l.4.3-.4-.3.02-.02a1.78 1.78 0 0 1 .17-.19A3.5 3.5 0 0 1 11.75 9c1 0 1.74.43 2.25.9v-.4c0-.28.22-.5.5-.5Z"/></svg>