<svg width="16" height="16" viewBox="0 0 16 16" xmlns="http://www.w3.org/2000/svg"><path d="M3.5 5.25A1.25 1.25 0 0 0 2.25 6.5v3a1.25 1.25 0 1 0 2.5 0 .75.75 0 0 1 1.5 0 2.75 2.75 0 0 1-5.5 0v-3a2.75 2.75 0 1 1 5.5 0 .75.75 0 0 1-1.5 0A1.25 1.25 0 0 0 3.5 5.25Zm6-1c.41 0 .75.34.75.75v.75h1.5V5a.75.75 0 0 1 1.5 0v.75h1a.75.75 0 0 1 0 1.5h-1v1.5h1a.75.75 0 0 1 0 1.5h-1V11a.75.75 0 0 1-1.5 0v-.75h-1.5V11a.75.75 0 0 1-1.5 0v-.75H8a.75.75 0 0 1 0-1.5h.75v-1.5H8a.75.75 0 0 1 0-1.5h.75V5c0-.41.34-.75.75-.75Zm.75 3v1.5h1.5v-1.5h-1.5Z"/></svg>