<svg width="20" height="20" viewBox="0 0 20 20" xmlns="http://www.w3.org/2000/svg"><path d="m4.83 10.48 5.65-5.65A3 3 0 0 1 14.79 9c.4.02.78.08 1.14.18a4 4 0 0 0-6.14-5.07L4.12 9.78a.5.5 0 0 0 .7.7ZM8 15.78l1-.99c.02.42.09.83.2 1.21l-.5.5a2.5 2.5 0 1 1-3.53-3.54l6.01-6.01a.5.5 0 1 1 .7.7l-6 6.02A1.5 1.5 0 0 0 8 15.79ZM19 14.5a4.5 4.5 0 1 1-9 0 4.5 4.5 0 0 1 9 0Zm-2.15.35a.5.5 0 0 0 .15-.35.5.5 0 0 0-.15-.35l-2-2a.5.5 0 1 0-.7.7L15.29 14H12.5a.5.5 0 1 0 0 1h2.8l-1.15 1.15a.5.5 0 1 0 .7.7l2-2Z"/></svg>