<svg width="32" height="32" viewBox="0 0 32 32" xmlns="http://www.w3.org/2000/svg"><path d="M6 7.5A4.5 4.5 0 0110.5 3h15A4.5 4.5 0 0130 7.5v10a4.5 4.5 0 01-4.5 4.5h-6.3a4.42 4.42 0 00-3.2-2.42V18a3 3 0 013-3h5a3 3 0 013 3v1.5c.6-.46 1-1.18 1-2v-10A2.5 2.5 0 0025.5 5h-15A2.5 2.5 0 008 7.5v.31c-.73.24-1.4.6-2 1.07V7.5zM15.2 21c.83 0 1.67.37 2.21 1 .43.49.68 1.13.63 1.87-.13 2.08-.92 3.68-2.4 4.73C14.2 29.61 12.26 30 10 30c-2.25 0-4.16-.38-5.57-1.39-1.46-1.03-2.22-2.61-2.41-4.65C1.85 22.22 3.35 21 4.87 21H15.2zm6.3-7a3.5 3.5 0 100-7 3.5 3.5 0 000 7zM15 14a5 5 0 11-10 0 5 5 0 0110 0z"/></svg>