<svg width="16" height="16" viewBox="0 0 16 16" xmlns="http://www.w3.org/2000/svg"><path d="M4.5 2A2.5 2.5 0 0 0 2 4.5V7h2.8l1.96-1.97c.69-.68 1.8-.68 2.48 0L11.2 7H14V4.5A2.5 2.5 0 0 0 11.5 2h-7ZM14 8H2v3.5a2.5 2.5 0 0 0 1.54 2.3.5.5 0 0 1 .1-.15l3.12-3.12c.69-.68 1.8-.68 2.48 0l3.11 3.12c.05.04.09.1.11.16A2.5 2.5 0 0 0 14 11.5V8ZM6.2 7h3.6L8.52 5.74a.75.75 0 0 0-1.06 0L6.21 7Zm5.1 7H4.7l2.77-2.76c.3-.3.77-.3 1.06 0L11.29 14Zm1.2-4.25a.75.75 0 1 1-1.5 0 .75.75 0 0 1 1.5 0ZM11.75 5a.75.75 0 1 1 0-1.5.75.75 0 0 1 0 1.5Z"/></svg>