<svg width="16" height="16" viewBox="0 0 16 16" xmlns="http://www.w3.org/2000/svg"><path d="M4.5 2A2.5 2.5 0 0 0 2 4.5v7A2.5 2.5 0 0 0 4.5 14h7a2.5 2.5 0 0 0 2.5-2.5v-7A2.5 2.5 0 0 0 11.5 2h-7ZM13 7h-2.3L9.25 5.53a1.75 1.75 0 0 0-2.48 0L5.3 7H3V4.5C3 3.67 3.67 3 4.5 3h7c.83 0 1.5.67 1.5 1.5V7Zm0 1v3.5c0 .76-.57 1.4-1.3 1.49l-2.46-2.46a1.75 1.75 0 0 0-2.48 0l-2.45 2.46A1.5 1.5 0 0 1 3 11.5V8h10ZM9.3 7H6.7l.77-.76c.3-.3.77-.3 1.06 0l.76.76Zm-.77 4.24L10.29 13H5.71l1.76-1.76c.3-.3.77-.3 1.06 0ZM12 4.75a.75.75 0 1 1-1.5 0 .75.75 0 0 1 1.5 0Zm-.75 5.75a.75.75 0 1 0 0-1.5.75.75 0 0 0 0 1.5Z"/></svg>