<svg width="20" height="20" viewBox="0 0 20 20" xmlns="http://www.w3.org/2000/svg"><path d="M6 3a3 3 0 0 0-3 3v8a3 3 0 0 0 3 3h8a3 3 0 0 0 3-3V6a3 3 0 0 0-3-3H6Zm7.7 13-2.46-2.47a1.75 1.75 0 0 0-2.48 0L6.3 16H6a2 2 0 0 1-2-2v-4h12v4a2 2 0 0 1-2 2h-.3Zm-6 0 1.77-1.76c.3-.3.77-.3 1.06 0L12.29 16H7.71ZM16 9h-2.8l-1.96-1.97a1.75 1.75 0 0 0-2.48 0L6.8 9H4V6c0-1.1.9-2 2-2h8a2 2 0 0 1 2 2v3ZM8.2 9l1.27-1.26c.3-.3.77-.3 1.06 0L11.79 9H8.21ZM15 6a1 1 0 1 1-2 0 1 1 0 0 1 2 0Zm-1 7.5a1 1 0 1 0 0-2 1 1 0 0 0 0 2Z"/></svg>