<svg width="20" height="20" viewBox="0 0 20 20" xmlns="http://www.w3.org/2000/svg"><path d="M11.41 3.64a.5.5 0 0 0 0-.71L9.3.8a.5.5 0 0 0-.7.7l1 1a7.5 7.5 0 0 0-4.08 13.5.5.5 0 0 0 .6-.8A6.5 6.5 0 0 1 11.4 3.66l.01-.02ZM8.6 16.36l.01-.01c.41.09.83.14 1.27.15h-.01.07A6.5 6.5 0 0 0 13.9 4.8a.5.5 0 1 1 .6-.8 7.5 7.5 0 0 1-4.07 13.5l1 .98a.5.5 0 1 1-.71.71l-2.12-2.12a.5.5 0 0 1 0-.7ZM15 10a5 5 0 1 1-10 0 5 5 0 0 1 10 0Zm-2.65-1.85a.5.5 0 0 0-.7 0L9 10.79 7.85 9.65a.5.5 0 1 0-.7.7l1.5 1.5c.2.2.5.2.7 0l3-3a.5.5 0 0 0 0-.7Z"/></svg>