<svg width="24" height="24" viewBox="0 0 24 24" xmlns="http://www.w3.org/2000/svg"><path d="M16.4 6.23a.75.75 0 11.9-1.2 8.74 8.74 0 01-4.58 15.7l.75.74.07.08a.75.75 0 01-1.13.98l-2-2-.07-.08a.75.75 0 01.07-.98l.33-.33a7.29 7.29 0 002.06.06 7.25 7.25 0 003.6-12.97zm-5.87-3.7a.75.75 0 111.06-1.06l2 2c.3.3.3.77 0 1.06l-.33.33a7.3 7.3 0 00-2.06-.06A7.25 7.25 0 007.4 17.6a.75.75 0 01-.96 1.15 8.75 8.75 0 014.85-15.47l-.75-.75zm4.5 8.5a.75.75 0 10-1.06-1.06L11 12.94l-.97-.97a.75.75 0 10-1.06 1.06l1.5 1.5c.3.3.77.3 1.06 0l3.5-3.5zM12 18a6 6 0 100-12 6 6 0 000 12zm0-1.5a4.5 4.5 0 110-9 4.5 4.5 0 010 9z"/></svg>