<svg width="24" height="24" viewBox="0 0 24 24" xmlns="http://www.w3.org/2000/svg"><path d="M4 6c0-.7.32-1.3.77-1.78a5.61 5.61 0 011.8-1.2A13.65 13.65 0 0112 2c2.08 0 4 .38 5.43 1.02.72.32 1.34.72 1.8 1.2.45.49.77 1.09.77 1.78v9.06c-.24-.04-.5-.06-.75-.06h-.75V8.4a6.8 6.8 0 01-1.07.58A13.65 13.65 0 0112 10c-2.08 0-4-.38-5.43-1.02A6.8 6.8 0 015.5 8.4V18c0 .2.09.46.37.75.27.3.71.6 1.31.86 1 .45 2.34.77 3.87.86.09.54.26 1.06.51 1.52a13.35 13.35 0 01-5-1 5.61 5.61 0 01-1.79-1.21A2.6 2.6 0 014 18V6zm1.5 0c0 .2.09.46.37.75.27.3.71.6 1.31.86 1.2.54 2.9.89 4.82.89 1.92 0 3.62-.35 4.82-.89.6-.26 1.04-.56 1.31-.86.28-.3.37-.54.37-.75 0-.2-.09-.46-.37-.75-.27-.3-.71-.6-1.31-.86-1.2-.54-2.9-.89-4.82-.89-1.92 0-3.62.35-4.82.89-.6.26-1.04.56-1.31.86-.28.3-.37.54-.37.75zM23 19.75A3.75 3.75 0 0019.25 16h-.1a.75.75 0 00.1 1.5h.15a2.25 2.25 0 01-.15 4.5l-.1.01a.75.75 0 00.1 1.5v-.01h.2A3.75 3.75 0 0023 19.74zm-6.5-3a.75.75 0 00-.75-.75h-.2a3.75 3.75 0 00.2 7.5h.1a.75.75 0 00-.1-1.5h-.15a2.25 2.25 0 01.15-4.5h.1a.75.75 0 00.65-.75zm3.5 3a.75.75 0 00-.75-.75h-3.6a.75.75 0 00.1 1.5h3.6a.75.75 0 00.65-.75z"/></svg>