<svg width="20" height="20" viewBox="0 0 20 20" xmlns="http://www.w3.org/2000/svg"><path d="M10 8c3.31 0 6-1.34 6-3s-2.69-3-6-3-6 1.34-6 3 2.69 3 6 3zm4.69.02c.47-.24.93-.54 1.31-.9V13h-3.5a3.5 3.5 0 00-3.17 4.98C6.33 17.81 4 16.54 4 15V7.12c.38.36.84.66 1.31.9C6.56 8.64 8.22 9 10 9c1.78 0 3.44-.36 4.69-.98zM12.5 14a2.5 2.5 0 000 5h.5a.5.5 0 000-1h-.5a1.5 1.5 0 010-3h.5a.5.5 0 000-1h-.5zm3.5 0a.5.5 0 000 1h.5a1.5 1.5 0 010 3H16a.5.5 0 000 1h.5a2.5 2.5 0 000-5H16zm-4 2.5c0-.28.22-.5.5-.5h4a.5.5 0 010 1h-4a.5.5 0 01-.5-.5z"/></svg>