<svg width="16" height="16" viewBox="0 0 16 16" xmlns="http://www.w3.org/2000/svg"><path d="m11.8 12.5 2.35 2.35a.5.5 0 0 0 .7-.7l-13-13a.5.5 0 1 0-.7.7L2.39 3.1a.75.75 0 0 0 .36 1.41h1.04L6.3 7H2.75a.75.75 0 0 0 0 1.5h5.04l1.58 1.57-1.15 1.15c-.3.3-.3.77 0 1.06l1.5 1.5a.75.75 0 1 0 1.06-1.06l-.22-.22h1.23ZM9.11 7l1.5 1.5h1.63a1.25 1.25 0 0 1 .67 2.3L14 11.87A2.74 2.74 0 0 0 12.25 7H9.12Zm-4-4 1.5 1.5h6.63a.75.75 0 0 0 0-1.5H5.12ZM2 11.75c0-.41.34-.75.75-.75h3a.75.75 0 0 1 0 1.5h-3a.75.75 0 0 1-.75-.75Z"/></svg>