<svg width="20" height="20" viewBox="0 0 20 20" xmlns="http://www.w3.org/2000/svg"><path d="M2.85 2.15a.5.5 0 1 0-.7.7L3.29 4H2.5a.5.5 0 0 0 0 1h1.8l4 4H2.5a.5.5 0 0 0 0 1h6.8l2.52 2.53a.5.5 0 0 0-.17.12l-1.5 1.5a.5.5 0 0 0 0 .7l1.5 1.5a.5.5 0 0 0 .7-.7l-.64-.65h2.58l2.86 2.85a.5.5 0 0 0 .7-.7l-15-15ZM13.3 14h-1.58l.64-.65a.5.5 0 0 0 .12-.17l.82.82Zm-2.17-5 1 1H16a2 2 0 0 1 .12 4l.84.84A3 3 0 0 0 16 9h-4.88Zm-5-5 1 1H17.5a.5.5 0 0 0 0-1H6.12ZM2 14.5c0-.28.22-.5.5-.5h5a.5.5 0 0 1 0 1h-5a.5.5 0 0 1-.5-.5Z"/></svg>