<svg width="20" height="20" viewBox="0 0 20 20" xmlns="http://www.w3.org/2000/svg"><path d="M3 5c0-1.1.9-2 2-2h10a2 2 0 0 1 2 2v10a2 2 0 0 1-2 2H5a2 2 0 0 1-2-2V5Zm3.3 1.04a.5.5 0 0 0-.3.46v2a.5.5 0 0 0 1 0v-.8l1.15 1.15a.5.5 0 1 0 .7-.7L7.71 7h.79a.5.5 0 0 0 0-1h-2a.5.5 0 0 0-.2.04ZM6 11.5v2a.5.5 0 0 0 .14.35.5.5 0 0 0 .36.15h2a.5.5 0 0 0 0-1h-.8l1.15-1.15a.5.5 0 0 0-.7-.7L7 12.29v-.79a.5.5 0 0 0-1 0Zm7.85-5.36A.5.5 0 0 0 13.5 6h-2a.5.5 0 0 0 0 1h.8l-1.15 1.15a.5.5 0 0 0 .7.7L13 7.71v.79a.5.5 0 0 0 1 0v-2a.5.5 0 0 0-.14-.35Zm-.16 7.82a.5.5 0 0 0 .3-.46v-2a.5.5 0 0 0-.99 0v.8l-1.15-1.15a.5.5 0 0 0-.7.7L12.29 13h-.79a.5.5 0 0 0 0 1h2a.5.5 0 0 0 .2-.04Z"/></svg>