<svg width="20" height="20" viewBox="0 0 20 20" xmlns="http://www.w3.org/2000/svg"><path d="M6 6.5a.5.5 0 0 1 .14-.35A.5.5 0 0 1 6.5 6h2a.5.5 0 0 1 0 1h-.8l1.15 1.15a.5.5 0 1 1-.7.7L7 7.71v.79a.5.5 0 0 1-1 0v-2Zm.04 7.2a.5.5 0 0 1-.04-.2v-2a.5.5 0 0 1 1 0v.8l1.15-1.15a.5.5 0 0 1 .7.7L7.71 13h.79a.5.5 0 0 1 0 1h-2a.5.5 0 0 1-.46-.3Zm7.65-7.66a.5.5 0 0 1 .3.46v2a.5.5 0 0 1-.99 0v-.8l-1.15 1.15a.5.5 0 0 1-.7-.7L12.29 7h-.79a.5.5 0 0 1 0-1h2a.5.5 0 0 1 .2.04Zm.16 7.82a.5.5 0 0 1-.35.14h-2a.5.5 0 0 1 0-1h.8l-1.15-1.15a.5.5 0 0 1 .7-.7L13 12.29v-.79a.5.5 0 0 1 1 0v2a.5.5 0 0 1-.14.35ZM3 5c0-1.1.9-2 2-2h10a2 2 0 0 1 2 2v10a2 2 0 0 1-2 2H5a2 2 0 0 1-2-2V5Zm2-1a1 1 0 0 0-1 1v10a1 1 0 0 0 1 1h10a1 1 0 0 0 1-1V5a1 1 0 0 0-1-1H5Z"/></svg>