<svg width="20" height="20" viewBox="0 0 20 20" xmlns="http://www.w3.org/2000/svg"><path d="M12.07 2.44a2 2 0 01-1.44 2.48l-.46.12a4.73 4.73 0 00.01 1.01l.35.09A2 2 0 0112 8.66l-.13.42c.26.2.54.38.84.52l.32-.35a2 2 0 012.91 0l.34.36c.3-.13.57-.3.82-.5l-.15-.55a2 2 0 011.43-2.48l.46-.12a4.73 4.73 0 00-.01-1.01l-.35-.09A2 2 0 0117 2.34l.13-.42c-.26-.2-.54-.38-.84-.52l-.32.35a2 2 0 01-2.91 0l-.34-.36c-.3.13-.57.3-.82.5l.16.55zM14.5 6.5a1 1 0 110-2 1 1 0 010 2zm0 4.5c1.33 0 2.55-.47 3.5-1.26V16a2 2 0 01-2 2h-5.5V9.27a5.48 5.48 0 004 1.73zm-5-3.2A5.47 5.47 0 019.02 6H4a2 2 0 00-2 2v8c0 1.1.9 2 2 2h5.5V7.8zM6 15.5c0-.28.22-.5.5-.5h1a.5.5 0 010 1h-1a.5.5 0 01-.5-.5zm6.5-.5a.5.5 0 000 1h1a.5.5 0 000-1h-1z"/></svg>