<svg width="48" height="48" viewBox="0 0 48 48" xmlns="http://www.w3.org/2000/svg"><path d="M26 16c6.33 0 9.93 4.2 10.45 9.26h.16a7.37 7.37 0 1 1 0 14.73H15.38a7.37 7.37 0 1 1 0-14.73h.16C16.07 20.16 19.66 16 26 16ZM7.57 24.19c.45.79.23 1.78-.5 2.3l-.14.1-1.3.74a1.75 1.75 0 0 1-1.9-2.94l.15-.1 1.3-.74c.84-.48 1.9-.2 2.39.64Zm14.13-9.54c-3.8 1.22-6.5 4.1-7.62 7.92l-.09.34-.11.48-.42.07a9.28 9.28 0 0 0-3.34 1.44A7.88 7.88 0 0 1 21.7 14.65Zm-16.2-.67.14.05 1.36.64a1.75 1.75 0 0 1-1.35 3.23l-.13-.06-1.36-.63a1.75 1.75 0 0 1 1.34-3.23Zm19.12-5.76c.75.52.96 1.53.5 2.31l-.07.12-.87 1.23A1.75 1.75 0 0 1 21.24 10l.08-.13.86-1.22c.55-.8 1.64-.99 2.44-.43Zm-10.3-.42.07.15.51 1.41a1.75 1.75 0 0 1-3.22 1.36l-.07-.16-.51-1.41a1.75 1.75 0 0 1 3.22-1.35Z"/></svg>