<svg width="16" height="16" viewBox="0 0 16 16" xmlns="http://www.w3.org/2000/svg"><path d="M9 7a2.5 2.5 0 0 0-2.5 2.5v.5h-1a1.5 1.5 0 0 0 0 3h7a1.5 1.5 0 0 0 0-3h-1v-.5A2.5 2.5 0 0 0 9 7ZM5.53 9a3.5 3.5 0 0 1 6.93 0h.04a2.5 2.5 0 0 1 0 5h-7a2.5 2.5 0 0 1 0-5h.03ZM8.8 2.82a.5.5 0 1 0-.89-.47l-.42.8a.5.5 0 0 0 .88.47l.43-.8ZM5 2.07a.5.5 0 1 0-.95.3l.26.87a.5.5 0 0 0 .96-.3l-.27-.87ZM6 4a3 3 0 0 1 2.29 1.06c-.4.06-.76.17-1.11.32a2 2 0 0 0-2.8 2.8c-.32.1-.62.26-.9.46A3 3 0 0 1 6 4Zm-4.18.21a.5.5 0 1 0-.47.89l.8.42a.5.5 0 0 0 .47-.88l-.8-.43Zm.42 4.47a.5.5 0 0 0-.3-.96L1.07 8a.5.5 0 1 0 .3.95l.87-.26Z"/></svg>