<svg width="16" height="16" viewBox="0 0 16 16" xmlns="http://www.w3.org/2000/svg"><path d="M9 6a3.5 3.5 0 0 0-3.47 3H5.5a2.5 2.5 0 0 0 0 5h7a2.5 2.5 0 0 0 0-5h-.04A3.5 3.5 0 0 0 9 6Zm-.21-3.18a.5.5 0 1 0-.89-.47l-.42.8a.5.5 0 0 0 .88.47l.43-.8ZM5 2.07a.5.5 0 1 0-.95.3l.26.87a.5.5 0 0 0 .96-.3l-.27-.87ZM3 7c0 .6.18 1.17.49 1.64.36-.26.78-.45 1.24-.55a4.5 4.5 0 0 1 3.56-3.03A3 3 0 0 0 3 7ZM1.82 4.21a.5.5 0 1 0-.47.89l.8.42a.5.5 0 0 0 .47-.88l-.8-.43Zm.42 4.47a.5.5 0 0 0-.3-.96L1.07 8a.5.5 0 1 0 .3.95l.87-.26Z"/></svg>