<svg width="24" height="24" viewBox="0 0 24 24" xmlns="http://www.w3.org/2000/svg"><path d="M3 6.25C3 4.45 4.46 3 6.25 3h11.5C19.55 3 21 4.46 21 6.25v14a.75.75 0 0 1-1.5 0v-4c0-.97-.78-1.75-1.75-1.75H6.25c-.97 0-1.75.78-1.75 1.75v4a.75.75 0 0 1-1.5 0v-14Zm1.5 7.26C5 13.2 5.6 13 6.25 13h11.5c.64 0 1.24.19 1.75.51v-2.26c0-.97-.78-1.75-1.75-1.75H6.25c-.97 0-1.75.78-1.75 1.75v2.26Zm15-7.26c0-.97-.78-1.75-1.75-1.75H6.25c-.97 0-1.75.78-1.75 1.75v2.26C5 8.2 5.6 8 6.25 8h11.5c.64 0 1.24.19 1.75.51V6.25Z"/></svg>