<svg width="24" height="24" viewBox="0 0 24 24" xmlns="http://www.w3.org/2000/svg"><path d="M8 2a3 3 0 0 0-3 3v14a3 3 0 0 0 3 3h4.83a4.74 4.74 0 0 1-1.82-3.5H8.25a.75.75 0 0 1 0-1.5h2.92c.14-.55.39-1.05.7-1.5H8.26a.75.75 0 0 1 0-1.5h5.38c.64-.32 1.36-.5 2.12-.5H17V5a3 3 0 0 0-3-3H8Zm-.5 4.75c0-.41.34-.75.75-.75h5.5a.75.75 0 0 1 0 1.5h-5.5a.75.75 0 0 1-.75-.75ZM23 18.25a3.75 3.75 0 0 0-3.75-3.75h-.1a.75.75 0 0 0 .1 1.5h.15a2.25 2.25 0 0 1-.15 4.5l-.1.01a.75.75 0 0 0 .1 1.5V22h.2A3.75 3.75 0 0 0 23 18.24Zm-6.5-3a.75.75 0 0 0-.75-.75h-.2a3.75 3.75 0 0 0 .2 7.5h.1a.75.75 0 0 0-.1-1.5h-.15a2.25 2.25 0 0 1 .15-4.5h.1a.75.75 0 0 0 .65-.75Zm3.5 3a.75.75 0 0 0-.75-.75h-3.6a.75.75 0 0 0 .1 1.5h3.6a.75.75 0 0 0 .65-.75Z"/></svg>