<svg width="24" height="24" viewBox="0 0 24 24" xmlns="http://www.w3.org/2000/svg"><path d="M8.25 6a.75.75 0 0 0 0 1.5h5.5a.75.75 0 0 0 0-1.5h-5.5ZM7.5 17.75c0-.41.34-.75.75-.75h2.92a4.75 4.75 0 0 0-.16 1.5H8.25a.75.75 0 0 1-.75-.75Zm4.38-2.25a4.77 4.77 0 0 1 1.75-1.5H8.25a.75.75 0 0 0 0 1.5h3.63ZM15.5 5v8.5H17V5a3 3 0 0 0-3-3H8a3 3 0 0 0-3 3v14a3 3 0 0 0 3 3h4.83c-.52-.4-.95-.92-1.26-1.5H8A1.5 1.5 0 0 1 6.5 19V5c0-.83.67-1.5 1.5-1.5h6c.83 0 1.5.67 1.5 1.5ZM23 18.25a3.75 3.75 0 0 0-3.75-3.75h-.1a.75.75 0 0 0 .1 1.5h.15a2.25 2.25 0 0 1-.15 4.5l-.1.01a.75.75 0 0 0 .1 1.5V22h.2A3.75 3.75 0 0 0 23 18.24Zm-6.5-3a.75.75 0 0 0-.75-.75h-.2a3.75 3.75 0 0 0 .2 7.5h.1a.75.75 0 0 0-.1-1.5h-.15a2.25 2.25 0 0 1 .15-4.5h.1a.75.75 0 0 0 .65-.75Zm3.5 3a.75.75 0 0 0-.75-.75h-3.6a.75.75 0 0 0 .1 1.5h3.6a.75.75 0 0 0 .65-.75Z"/></svg>