<svg width="20" height="20" viewBox="0 0 20 20" xmlns="http://www.w3.org/2000/svg"><path d="M12 14c0-1.1.9-2 2-2h3a2 2 0 0 1 2 2v3a2 2 0 0 1-2 2h-3a2 2 0 0 1-2-2v-3Zm2-1a1 1 0 0 0-1 1v3a1 1 0 0 0 1 1h3a1 1 0 0 0 1-1v-3a1 1 0 0 0-1-1h-3ZM5 9v3.5A2.5 2.5 0 0 0 7.5 15H11v-1H9.7l1.67-1.66c.23-.4.57-.74.97-.97L14 9.7V11h1V7.5A2.5 2.5 0 0 0 12.5 5H9v1h1.3L8.62 7.66c-.23.4-.57.74-.97.97L6 10.3V9H5Zm6.7-3h.8c.23 0 .45.05.65.15l-7 7A1.5 1.5 0 0 1 6 12.5v-.8L11.7 6Zm-4.2 8a1.5 1.5 0 0 1-.65-.15l7-7c.1.2.15.42.15.65v.8L8.3 14h-.8ZM1 3c0-1.1.9-2 2-2h3a2 2 0 0 1 2 2v3a2 2 0 0 1-2 2H3a2 2 0 0 1-2-2V3Zm2-1a1 1 0 0 0-1 1v3a1 1 0 0 0 1 1h3a1 1 0 0 0 1-1V3a1 1 0 0 0-1-1H3Z"/></svg>