<svg width="20" height="20" viewBox="0 0 20 20" xmlns="http://www.w3.org/2000/svg"><path d="M4.75 4H7v2.27A2 2 0 0 0 4.27 9H2V6.75A2.75 2.75 0 0 1 4.75 4ZM2 12.25V10h4.3l-1.65 1.65a.5.5 0 0 0 .7.7L7 10.71V15H4.75A2.75 2.75 0 0 1 2 12.25ZM8 15h5.25A2.75 2.75 0 0 0 16 12.25V10H8.7l1.65 1.65a.5.5 0 0 1-.7.7L8 10.71V15Zm2.73-6H16V6.75A2.75 2.75 0 0 0 13.25 4H8v2.27A2 2 0 0 1 10.73 9ZM8 9V8a1 1 0 1 1 1 1H8ZM6 9h1V8a1 1 0 1 0-1 1Zm.75 8c-.85 0-1.62-.39-2.12-1h8.62A3.75 3.75 0 0 0 17 12.25V6.63c.61.5 1 1.27 1 2.12v3.5A4.75 4.75 0 0 1 13.25 17h-6.5Z"/></svg>