<svg width="20" height="20" viewBox="0 0 20 20" xmlns="http://www.w3.org/2000/svg"><path d="M14.5 1a4.5 4.5 0 110 9 4.5 4.5 0 010-9zm2.35 4.85A.5.5 0 0017 5.5a.5.5 0 00-.15-.35l-2-2a.5.5 0 00-.7.7L15.29 5H12.5a.5.5 0 000 1h2.8l-1.15 1.15a.5.5 0 00.7.7l2-2zM14.5 11c1.33 0 2.55-.47 3.5-1.26V16a2 2 0 01-2 2h-5.5V9.27a5.48 5.48 0 004 1.73zm-5-3.2A5.47 5.47 0 019.02 6H4a2 2 0 00-2 2v8c0 1.1.9 2 2 2h5.5V7.8zM6 15.5c0-.28.22-.5.5-.5h1a.5.5 0 010 1h-1a.5.5 0 01-.5-.5zm6.5-.5a.5.5 0 000 1h1a.5.5 0 000-1h-1z"/></svg>