<svg width="24" height="24" viewBox="0 0 24 24" xmlns="http://www.w3.org/2000/svg"><path d="M3.28 2.22a.75.75 0 10-1.06 1.06l.96.96C2.46 4.84 2 5.74 2 6.75v10.5c0 1.8 1.46 3.25 3.25 3.25h13.5c.22 0 .43-.02.63-.06l1.34 1.34a.75.75 0 001.06-1.06L3.28 2.22zM17.94 19H5.25c-.97 0-1.75-.78-1.75-1.75V6.75c0-.6.3-1.12.75-1.44L8.04 9.1a.62.62 0 00-.29.52v1.77H6.27V9.54a.63.63 0 00-1.25.1v4.84a.63.63 0 001.25-.1v-1.74h1.48v1.73l.01.1a.63.63 0 001.24-.1v-4.3l1 .99v3.41c.05.3.31.53.62.53h.92a2.62 2.62 0 001.66-.74L17.94 19zm-6.7-6.69l1.08 1.07c-.25.23-.58.37-.94.37h-.13V12.3zm5.02.77L15 11.82V9.64c0-.31.22-.57.53-.62H17.2a1.8 1.8 0 011.02 3.29l.74 1.83a.63.63 0 01-.83.8l-.32-.31v-.02l-.8-1.99h-.75v.46zm0-1.7h.94a.55.55 0 00.1-1.1l-.1-.01h-.95v1.1zm4.24 5.94V6.75c0-.97-.78-1.75-1.75-1.75H8.18l-1.5-1.5h12.07c1.8 0 3.25 1.46 3.25 3.25v10.5c0 .46-.1.9-.27 1.3l-1.23-1.23z"/></svg>