<svg width="20" height="20" viewBox="0 0 20 20" xmlns="http://www.w3.org/2000/svg"><path d="M2 5.5A2.5 2.5 0 0 1 4.5 3h2.48c.47 0 .91.18 1.24.51L9.5 4.8 7.44 6.85a.5.5 0 0 1-.35.15H2V5.5ZM2 8v6.5A2.5 2.5 0 0 0 4.5 17H9v-3.5a2.5 2.5 0 0 1 2.04-2.46A2.5 2.5 0 0 1 13.5 9h2a2.5 2.5 0 0 1 2.46 2.04l.04.01V7.5A2.5 2.5 0 0 0 15.5 5h-4.8L8.16 7.56A1.5 1.5 0 0 1 7.09 8H2Zm10 3.5v.5h-.5c-.83 0-1.5.67-1.5 1.5v4c0 .83.67 1.5 1.5 1.5h6c.83 0 1.5-.67 1.5-1.5v-4c0-.83-.67-1.5-1.5-1.5H17v-.5c0-.83-.67-1.5-1.5-1.5h-2c-.83 0-1.5.67-1.5 1.5Zm1.5-.5h2c.28 0 .5.22.5.5v.5h-3v-.5c0-.28.22-.5.5-.5Z"/></svg>