<svg width="20" height="20" viewBox="0 0 20 20" xmlns="http://www.w3.org/2000/svg"><path d="M4.5 3A2.5 2.5 0 0 0 2 5.5v9A2.5 2.5 0 0 0 4.5 17H9v-1H4.5A1.5 1.5 0 0 1 3 14.5V8h4.09c.4 0 .78-.16 1.06-.44L9.7 6h5.79c.83 0 1.5.67 1.5 1.5v2c.5.37.84.91.96 1.54l.04.01V7.5A2.5 2.5 0 0 0 15.5 5H9.7L8.23 3.51A1.75 1.75 0 0 0 6.98 3H4.5ZM3 5.5C3 4.67 3.67 4 4.5 4h2.48c.2 0 .4.08.53.22L8.8 5.5 7.44 6.85a.5.5 0 0 1-.35.15H3V5.5Zm9 6v.5h-.5c-.83 0-1.5.67-1.5 1.5v4c0 .83.67 1.5 1.5 1.5h6c.83 0 1.5-.67 1.5-1.5v-4c0-.83-.67-1.5-1.5-1.5H17v-.5c0-.83-.67-1.5-1.5-1.5h-2c-.83 0-1.5.67-1.5 1.5Zm1.5-.5h2c.28 0 .5.22.5.5v.5h-3v-.5c0-.28.22-.5.5-.5Z"/></svg>