<svg width="20" height="20" viewBox="0 0 20 20" xmlns="http://www.w3.org/2000/svg"><path d="m14.5 3.38-.72.72A7 7 0 0 0 3 9.6c-.36.18-.7.4-1 .65a8 8 0 0 1 12.5-6.87ZM9.75 18c.25-.31.47-.65.66-1.01a6.97 6.97 0 0 0 4.54-2.04.5.5 0 0 1 .7.7A7.98 7.98 0 0 1 9.76 18ZM11 14.5l-.01.4a4.98 4.98 0 0 0 2.55-1.36.5.5 0 1 0-.71-.71c-.54.53-1.18.88-1.86 1.05.02.2.03.41.03.62ZM5.5 9l.62.03a3.98 3.98 0 0 1 5.44-2.71l.75-.75A5 5 0 0 0 5.1 9L5.5 9Zm3.54 1.3c.24.2.46.42.67.66a1 1 0 0 0 1.26-1.22l4.88-4.89a.5.5 0 0 0-.7-.7l-4.9 4.88a1 1 0 0 0-1.2 1.26ZM17 13.5a.5.5 0 1 1-1 0 .5.5 0 0 1 1 0ZM16.5 7a.5.5 0 1 0 0-1 .5.5 0 0 0 0 1Zm1.5 4.25a.5.5 0 1 1-1 0 .5.5 0 0 1 1 0Zm-.5-2a.5.5 0 1 0 0-1 .5.5 0 0 0 0 1Zm-2.5 2a.5.5 0 1 1-1 0 .5.5 0 0 1 1 0Zm-.5-2a.5.5 0 1 0 0-1 .5.5 0 0 0 0 1ZM10 14.5a4.5 4.5 0 1 1-9 0 4.5 4.5 0 0 1 9 0Zm-2.15-1.85a.5.5 0 0 0-.7 0L4.5 15.29l-.65-.64a.5.5 0 0 0-.7.7l1 1c.2.2.5.2.7 0l3-3a.5.5 0 0 0 0-.7Z"/></svg>