<svg width="28" height="28" viewBox="0 0 28 28" xmlns="http://www.w3.org/2000/svg"><path d="M14.4 3.9c.8-.75 2.1-.18 2.1.91v18.37c0 1.1-1.3 1.66-2.1.92l-4.94-4.63c-.33-.3-.75-.47-1.2-.47H5.25A3.25 3.25 0 012 15.75v-3.5c0-1.79 1.46-3.24 3.25-3.24h3.01c.45 0 .87-.17 1.2-.48l4.93-4.63zm.6 1.5l-4.52 4.23c-.6.56-1.4.88-2.22.88H5.25c-.97 0-1.75.78-1.75 1.75v3.49c0 .96.78 1.75 1.75 1.75h3.01c.83 0 1.62.31 2.22.88L15 22.6V5.39zM19.5 21v-2.33l-1.37-2.44a1 1 0 01-.13-.5v-4.16a1 1 0 011-1V8a1 1 0 011-1h4a1 1 0 011 1v2.57a1 1 0 011 1v4.17a1 1 0 01-.13.49l-1.37 2.44V21a1 1 0 01-1 1h-3a1 1 0 01-1-1zm4-12.5h-3v2.07h3V8.5z"/></svg>