<svg width="48" height="48" viewBox="0 0 48 48" xmlns="http://www.w3.org/2000/svg"><path d="M10.25 7A6.25 6.25 0 0 0 4 13.25v21.5C4 38.2 6.8 41 10.25 41h13.21c-.4-.79-.74-1.63-.98-2.5h-4.23v-29h19.5a3.75 3.75 0 0 1 3.75 3.75v10.49c.9.52 1.75 1.16 2.5 1.88V13.25C44 9.8 41.2 7 37.75 7h-27.5ZM6.5 13.25a3.75 3.75 0 0 1 3.75-3.75h5.5v29h-5.5a3.75 3.75 0 0 1-3.75-3.75v-21.5ZM46 35a11 11 0 1 1-22 0 11 11 0 0 1 22 0Zm-10-7a1 1 0 1 0-2 0v6h-6a1 1 0 1 0 0 2h6v6a1 1 0 1 0 2 0v-6h6a1 1 0 1 0 0-2h-6v-6Z"/></svg>