<svg width="32" height="32" viewBox="0 0 32 32" xmlns="http://www.w3.org/2000/svg"><path d="M22.5 12a2.5 2.5 0 100-5 2.5 2.5 0 000 5zm-3.82-9a4 4 0 00-2.73 1.08L3.77 15.48a4.25 4.25 0 00-.1 6.1l6.32 6.33a4.25 4.25 0 005.79.21 8.96 8.96 0 01-.87-1.94l-.32.31c-.88.88-2.3.88-3.18 0l-6.33-6.32c-.9-.9-.87-2.37.06-3.24l12.18-11.4A2 2 0 0118.68 5h6.82c.83 0 1.5.67 1.5 1.5v6.76a2 2 0 01-.59 1.41l-.23.24c.68.2 1.33.5 1.93.86a4 4 0 00.89-2.51V6.5A3.5 3.5 0 0025.5 3h-6.82zM16 23.5a7.5 7.5 0 1015 0 7.5 7.5 0 00-15 0zm6.48 4.43a1.02 1.02 0 112.04 0 1.02 1.02 0 01-2.04 0zm-1.7-6.48a2.73 2.73 0 015.45 0c0 1-.3 1.56-1.03 2.33l-.36.37-.16.17c-.39.44-.5.72-.5 1.23a.68.68 0 11-1.36 0c0-1 .29-1.56 1.03-2.33l.36-.37.15-.17c.4-.44.5-.72.5-1.23a1.36 1.36 0 10-2.72 0 .68.68 0 01-1.37 0z"/></svg>