<svg width="20" height="20" viewBox="0 0 20 20" xmlns="http://www.w3.org/2000/svg"><path d="M18 4.03a2 2 0 00-1.98-2L11.12 2a2 2 0 00-1.42.59L3.02 9.25a2 2 0 000 2.83l4.95 4.95a2 2 0 001.95.51 5.5 5.5 0 017.8-7.5 2 2 0 00.3-1.06L18 4.03zM14 7a1 1 0 110-2 1 1 0 010 2zm5 7.5a4.5 4.5 0 11-9 0 4.5 4.5 0 019 0zm-4.5 1.88a.62.62 0 100 1.25.62.62 0 000-1.25zm0-4.88c-1.05 0-1.86.82-1.85 1.96a.5.5 0 101-.01c0-.58.36-.95.85-.95.47 0 .85.4.85.95 0 .2-.07.32-.36.55l-.27.21c-.51.4-.72.72-.72 1.29a.5.5 0 001 .09v-.16c.02-.14.1-.25.35-.44l.28-.22c.5-.4.72-.73.72-1.32 0-1.1-.82-1.95-1.85-1.95z"/></svg>