<svg width="16" height="16" viewBox="0 0 16 16" xmlns="http://www.w3.org/2000/svg"><path d="M2.59 7.31a1.99 1.99 0 000 2.83l3.17 3.16a5.46 5.46 0 01-.72-2.13L3.3 9.43a1 1 0 010-1.41L8.04 3.3a1 1 0 01.7-.29L11.99 3a1 1 0 011 1v1.6c.35.17.69.4 1 .64L14 4.01A2 2 0 0011.99 2l-3.25.01c-.53 0-1.04.22-1.41.59L2.59 7.3zM10.5 15a4.5 4.5 0 100-9 4.5 4.5 0 000 9zm-.62-2a.62.62 0 111.24 0 .62.62 0 01-1.24 0zM8.65 9.46c-.01-1.14.8-1.96 1.85-1.96 1.03 0 1.85.85 1.85 1.95 0 .59-.21.91-.72 1.32l-.28.22c-.25.19-.33.3-.35.44v.16a.5.5 0 01-1-.09c0-.57.21-.88.72-1.29l.27-.21c.3-.23.36-.35.36-.55 0-.55-.38-.95-.85-.95-.5 0-.86.37-.85.95a.5.5 0 01-1 0z"/></svg>