<svg width="16" height="16" viewBox="0 0 16 16" xmlns="http://www.w3.org/2000/svg"><path d="M7.84 1.5H8a2.5 2.5 0 0 1 2.5 2.34V5h1c.65 0 1.21.42 1.42 1a3.91 3.91 0 0 0-3.58 2.38 3.72 3.72 0 0 0-.32 1.98l-2.58 2.58C6.16 13.22 6 13.6 6 14H4.5A1.5 1.5 0 0 1 3 12.5v-6C3 5.67 3.67 5 4.5 5h1V4a2.5 2.5 0 0 1 2.34-2.5ZM6.5 5h3V4c0-.78-.6-1.42-1.36-1.5H8c-.78 0-1.42.6-1.5 1.36V5ZM8 8.5a1 1 0 1 0 0 2 1 1 0 0 0 0-2Zm-.85 7.35c.1.1.21.15.35.15h2c.11 0 .2-.03.27-.07.07-.04.12-.1.15-.17a.86.86 0 0 0 .06-.24l.02-.25V15l.56-.02a.47.47 0 0 0 .3-.12c.07-.07.11-.17.12-.3L11 14h.5c.1 0 .2-.02.27-.07a.5.5 0 0 0 .15-.17.65.65 0 0 0 .07-.24 2.34 2.34 0 0 0 .01-.5v-.2c.17.07.35.11.52.14a2.87 2.87 0 0 0 2.62-.86A3.11 3.11 0 0 0 16 10a2.94 2.94 0 0 0-.88-2.13 3 3 0 0 0-5.03 2.84l-2.94 2.94c-.1.1-.15.21-.15.35v1.5c0 .14.05.25.15.35Zm7.13-7.13c.15.14.22.32.22.53 0 .2-.07.39-.22.53a.72.72 0 0 1-.53.22.72.72 0 0 1-.53-.22.72.72 0 0 1-.22-.53c0-.2.07-.39.22-.53a.72.72 0 0 1 .53-.22c.2 0 .39.07.53.22Z"/></svg>