<svg width="24" height="24" viewBox="0 0 24 24" xmlns="http://www.w3.org/2000/svg"><path d="M16 6a4 4 0 0 0-8 0v2H5.5C4.67 8 4 8.67 4 9.5v11c0 .83.67 1.5 1.5 1.5H11v-.19c0-.46.18-.9.51-1.24l3.52-3.52A4.5 4.5 0 0 1 20 12.03V9.5c0-.83-.67-1.5-1.5-1.5H16V6Zm-1.5 2h-5V6a2.5 2.5 0 0 1 5 0v2Zm-4 7a1.5 1.5 0 1 1 3 0 1.5 1.5 0 0 1-3 0ZM23 16.5a3.5 3.5 0 0 1-3.5 3.5H18v1a.5.5 0 0 1-.5.5h-1v1a.5.5 0 0 1-.5.5h-1v.5a.5.5 0 0 1-.5.5h-1.75a.75.75 0 0 1-.75-.75v-1.44c0-.2.08-.39.22-.53l3.75-3.75.15-.12A3.5 3.5 0 1 1 23 16.5Zm-3 .5a1 1 0 1 0 0-2 1 1 0 0 0 0 2Z"/></svg>