<svg width="20" height="20" viewBox="0 0 20 20" xmlns="http://www.w3.org/2000/svg"><path d="M10 2a4 4 0 1 0 0 8 4 4 0 0 0 0-8Zm-5 9a2 2 0 0 0-2 2c0 1.7.83 2.97 2.13 3.8A8.46 8.46 0 0 0 9 17.96V14c0-1.1.9-2 2-2h5.73A2 2 0 0 0 15 11H5Zm14 3.5v3c0 .83-.67 1.5-1.5 1.5h-6a1.5 1.5 0 0 1-1.5-1.5v-3c0-.83.67-1.5 1.5-1.5h6c.83 0 1.5.67 1.5 1.5Zm-1 3v-1c-.83 0-1.5.67-1.5 1.5h1c0-.28.22-.5.5-.5Zm0-3a.5.5 0 0 1-.5-.5h-1c0 .83.67 1.5 1.5 1.5v-1Zm-6.5-.5a.5.5 0 0 1-.5.5v1c.83 0 1.5-.67 1.5-1.5h-1Zm-.5 3.5c.28 0 .5.22.5.5h1c0-.83-.67-1.5-1.5-1.5v1Zm3.5-3a1.5 1.5 0 1 0 0 3 1.5 1.5 0 0 0 0-3Z"/></svg>