<svg width="24" height="24" viewBox="0 0 24 24" xmlns="http://www.w3.org/2000/svg"><path d="M4 14h8.02c-.3.46-.53.97-.7 1.5H3.9a.5.5 0 00-.25.14.5.5 0 00-.14.26l-.01.1v1.5c0 1 .45 1.72 1.42 2.24.82.45 2 .72 3.26.76h.64c.99-.04 1.92-.2 2.68-.5.2.48.45.92.74 1.32-1.17.5-2.54.68-3.74.68-2.72 0-6.34-.96-6.5-4.27V16a2 2 0 011.85-2H4zm13.5-3c.72 0 1.41.12 2.06.33a3.5 3.5 0 10-4.12 0A6.5 6.5 0 0117.5 11zm0-4.5a2 2 0 110 4 2 2 0 010-4zM8.5 3a4.5 4.5 0 110 9 4.5 4.5 0 010-9zm0 1.5a3 3 0 100 6 3 3 0 000-6zm14.5 13a5.5 5.5 0 11-11 0 5.5 5.5 0 0111 0zm-9.5 0c0 .83.26 1.6.7 2.25l5.55-5.56a4 4 0 00-6.25 3.3zm4 4a4 4 0 003.3-6.25l-5.55 5.56c.64.44 1.42.69 2.25.69z"/></svg>