<svg width="20" height="20" viewBox="0 0 20 20" xmlns="http://www.w3.org/2000/svg"><path d="M7.5 2a3.5 3.5 0 110 7 3.5 3.5 0 010-7zm0 1a2.5 2.5 0 100 5 2.5 2.5 0 000-5zm7 6a2.5 2.5 0 100-5 2.5 2.5 0 000 5zM13 6.5a1.5 1.5 0 113 0 1.5 1.5 0 01-3 0zm-1.7 3.52L11 10H4a2 2 0 00-2 2v1.5C2 15.55 4.09 17 7.5 17c.73 0 1.4-.07 2-.2-.13-.3-.25-.61-.33-.94-.5.1-1.05.14-1.67.14C4.58 16 3 14.9 3 13.5V12a1 1 0 011-1h6.26c.3-.37.65-.7 1.04-.98zM10 14.5a4.5 4.5 0 109 0 4.5 4.5 0 00-9 0zm2.4 2.8l4.9-4.9a3.5 3.5 0 01-4.9 4.9zm-.7-.7a3.5 3.5 0 014.9-4.9l-4.9 4.9z"/></svg>