<svg width="16" height="16" viewBox="0 0 16 16" xmlns="http://www.w3.org/2000/svg"><path d="M13.78 2.21h.02a.3.3 0 010 .58l-.77.25a1.58 1.58 0 00-1 1l-.24.76a.3.3 0 01-.12.14.3.3 0 01-.17.06.3.3 0 01-.29-.2l-.24-.77a1.58 1.58 0 00-1-1l-.77-.25a.3.3 0 010-.57l.77-.25a1.58 1.58 0 00.98-1L11.2.2a.3.3 0 01.57 0l.25.77a1.57 1.57 0 001 1l.76.24zm2.05 3.56l-.62-.2a1.26 1.26 0 01-.8-.8l-.2-.6a.24.24 0 00-.45 0l-.2.6a1.26 1.26 0 01-.79.8l-.6.2a.24.24 0 000 .46l.6.2a1.26 1.26 0 01.8.8l.2.6a.24.24 0 00.46 0l.2-.6a1.26 1.26 0 01.8-.8l.6-.2a.24.24 0 000-.46zM2 3.75C2 2.78 2.78 2 3.75 2h2.5C7.22 2 8 2.78 8 3.75v2.5C8 7.22 7.22 8 6.25 8h-2.5C2.78 8 2 7.22 2 6.25v-2.5zm5 7C7 9.78 7.78 9 8.75 9h3.5c.97 0 1.75.78 1.75 1.75v1.5c0 .97-.78 1.75-1.75 1.75h-3.5C7.78 14 7 13.22 7 12.25v-1.5zm-5 0C2 9.78 2.78 9 3.75 9h.5C5.22 9 6 9.78 6 10.75v1.5C6 13.22 5.22 14 4.25 14h-.5C2.78 14 2 13.22 2 12.25v-1.5z"/></svg>