<svg width="24" height="24" viewBox="0 0 24 24" xmlns="http://www.w3.org/2000/svg"><path d="M16.09 6.41a2.84 2.84 0 00-1.35-.95L13.36 5a.54.54 0 010-1.03l1.38-.44a2.84 2.84 0 001.76-1.77l.01-.03.45-1.38a.54.54 0 011.03 0l.44 1.38a2.84 2.84 0 001.8 1.8l1.38.44.03.01a.54.54 0 010 1.03l-1.38.44a2.84 2.84 0 00-1.8 1.8l-.45 1.38a.54.54 0 01-1.03 0l-.44-1.38c-.1-.3-.25-.6-.45-.85zm7.7 3.8l-.77-.25a1.58 1.58 0 01-1-1l-.25-.76a.3.3 0 00-.57 0l-.25.77a1.58 1.58 0 01-.98 1l-.77.24a.3.3 0 000 .57l.77.25a1.58 1.58 0 011 1l.24.77a.3.3 0 00.58 0l.24-.77a1.58 1.58 0 011-1l.77-.24a.3.3 0 000-.57h-.02zm-13.54-7.2c.97 0 1.75.78 1.75 1.74v4.5c0 .97-.78 1.75-1.75 1.75h-5.5C3.78 11 3 10.22 3 9.25v-4.5C3 3.8 3.78 3 4.75 3h5.5zm.25 6.24v-4.5a.25.25 0 00-.25-.25h-5.5a.25.25 0 00-.25.25v4.5c0 .14.11.25.25.25h5.5c.14 0 .25-.11.25-.25zm-3.26 3.73c.96 0 1.75.79 1.75 1.75v4.52c0 .96-.79 1.75-1.75 1.75H4.75C3.78 21 3 20.2 3 19.25v-4.52c0-.96.78-1.75 1.75-1.75h2.49zm.25 6.27v-4.52a.25.25 0 00-.25-.25H4.75a.25.25 0 00-.25.25v4.52c0 .14.11.25.25.25h2.49c.14 0 .25-.11.25-.25zM19.25 13c.97 0 1.75.78 1.75 1.75v4.5c0 .96-.78 1.75-1.75 1.75h-6.5C11.8 21 11 20.2 11 19.25V14.6c.08-.9.83-1.6 1.75-1.6h6.5zm.25 6.25v-4.5a.25.25 0 00-.25-.25h-6.5a.25.25 0 00-.24.2v4.55c0 .14.1.25.24.25h6.5c.14 0 .25-.11.25-.25z"/></svg>