<svg width="24" height="24" viewBox="0 0 24 24" xmlns="http://www.w3.org/2000/svg"><path d="M6.75 21a.75.75 0 0 1-.75-.75V5.56l-.72.72a.75.75 0 0 1-1.06-1.06l2-2c.3-.3.77-.3 1.06 0l2 2a.75.75 0 0 1-1.06 1.06l-.72-.72v14.69c0 .41-.34.75-.75.75Zm4.28-.05 9.5-3.76a.75.75 0 0 0 .1-1.34l-.1-.05-9.5-3.75a.75.75 0 0 0-.65 1.35l.1.05 2.52 1v4.1l-2.52 1a.75.75 0 0 0-.45.88l.03.1c.14.35.51.54.87.45l.1-.03Zm7.18-4.45-3.71 1.46v-2.92l3.7 1.46Zm-2.71-5.25a.75.75 0 0 0 1.5 0V5.56l.72.72a.75.75 0 1 0 1.06-1.06l-2-2a.75.75 0 0 0-1.06 0l-2 2a.75.75 0 0 0 1.06 1.06l.72-.72v5.69Z"/></svg>