<svg width="20" height="20" viewBox="0 0 20 20" xmlns="http://www.w3.org/2000/svg"><path d="M3.97 4.02A1.7 1.7 0 0 0 2 5.7v8.6a1.7 1.7 0 0 0 1.97 1.68 37.94 37.94 0 0 1 12.25.02A1.7 1.7 0 0 0 18 14.3V5.7a1.7 1.7 0 0 0-1.97-1.68c-4 .64-8.07.64-12.06 0ZM16 14.96c-1-.15-2-.27-3-.35V12h2a1 1 0 0 1 1 1v1.96Zm-4-.41a38.84 38.84 0 0 0-4 0V12a1 1 0 0 1 1-1h2a1 1 0 0 1 1 1v2.55Zm-5 .06c-1 .08-2 .2-3 .35V13a1 1 0 0 1 1-1h2v2.61ZM10 10a1 1 0 1 1 0-2 1 1 0 0 1 0 2Zm-3.5 0a1 1 0 1 1-2 0 1 1 0 0 1 2 0Zm9 0a1 1 0 1 1-2 0 1 1 0 0 1 2 0Z"/></svg>