<svg width="20" height="20" viewBox="0 0 20 20" xmlns="http://www.w3.org/2000/svg"><path d="M14.5 10a4.5 4.5 0 1 1 0 9 4.5 4.5 0 0 1 0-9Zm2.35 4.85a.5.5 0 0 0 .15-.35.5.5 0 0 0-.15-.35l-2-2a.5.5 0 0 0-.7.7L15.29 14H12.5a.5.5 0 0 0 0 1h2.8l-1.15 1.15a.5.5 0 0 0 .7.7l2-2ZM18 5.75a.75.75 0 0 0-.75-.75H2.75a.75.75 0 1 0 0 1.5h14.5c.41 0 .75-.34.75-.75Zm0 3a.75.75 0 0 0-.75-.75H2.75a.75.75 0 1 0 0 1.5h9.46a5.48 5.48 0 0 1 4.58 0h.46c.41 0 .75-.34.75-.75ZM9.1 15.5H2.74a.75.75 0 0 1 0-1.5h6.27a5.57 5.57 0 0 0 .07 1.5Zm.27-3H2.75a.75.75 0 0 1 0-1.5h7.5a5.5 5.5 0 0 0-.88 1.5Z"/></svg>