<svg width="20" height="20" viewBox="0 0 20 20" xmlns="http://www.w3.org/2000/svg"><path d="M8.5 2c-.65 0-1.2.42-1.41 1H5.5C4.67 3 4 3.67 4 4.5v12c0 .83.67 1.5 1.5 1.5h3.84a3.48 3.48 0 01-.3-1H5.5a.5.5 0 01-.5-.5v-12c0-.28.22-.5.5-.5h1.59c.2.58.76 1 1.41 1h3c.65 0 1.2-.42 1.41-1h1.59c.28 0 .5.22.5.5V10h1V4.5c0-.83-.67-1.5-1.5-1.5h-1.59c-.2-.58-.76-1-1.41-1h-3zM8 3.5c0-.28.22-.5.5-.5h3a.5.5 0 010 1h-3a.5.5 0 01-.5-.5zm4 7.5a2 2 0 00-2 2v4c0 1.1.9 2 2 2h5a2 2 0 002-2v-4a2 2 0 00-2-2h-5zm0 5.5c0-.28.22-.5.5-.5h4a.5.5 0 110 1h-4a.5.5 0 01-.5-.5zm0-3c0-.28.22-.5.5-.5h4a.5.5 0 110 1h-4a.5.5 0 01-.5-.5z"/></svg>