<svg width="20" height="20" viewBox="0 0 20 20" xmlns="http://www.w3.org/2000/svg"><path d="M8 9a2 2 0 113.89.66c-.62.33-1.17.78-1.62 1.32L10 11a2 2 0 01-2-2zm7-3.5v3.52c.34.03.68.1 1 .19V5.5c0-.83-.67-1.5-1.5-1.5H13a2 2 0 00-2-2H9a2 2 0 00-2 2H5.5C4.67 4 4 4.67 4 5.5v11c0 .83.67 1.5 1.5 1.5h4.76a5.5 5.5 0 01-.66-1H5.5a.5.5 0 01-.5-.5v-11c0-.28.22-.5.5-.5h1.77c.34.6.99 1 1.73 1h2a2 2 0 001.73-1h1.77c.28 0 .5.22.5.5zM7.72 12H9.6c-.16.32-.3.65-.4 1H7.73c-.11 0-.2.04-.26.08a.18.18 0 00-.07.14c-.01.37.07.8.38 1.12.22.23.6.46 1.25.58.02.36.08.7.18 1.04-1-.12-1.7-.45-2.15-.93a2.52 2.52 0 01-.66-1.83c.02-.79.72-1.2 1.33-1.2zM10 8a1 1 0 100 2 1 1 0 000-2zM8 4a1 1 0 011-1h2a1 1 0 110 2H9a1 1 0 01-1-1zm11 10.5a4.5 4.5 0 11-9 0 4.5 4.5 0 019 0zm-4-2a.5.5 0 00-1 0V14h-1.5a.5.5 0 000 1H14v1.5a.5.5 0 001 0V15h1.5a.5.5 0 000-1H15v-1.5z"/></svg>