<svg width="20" height="20" viewBox="0 0 20 20" xmlns="http://www.w3.org/2000/svg"><path d="M10 7a2 2 0 10.27 3.98c.45-.54 1-.99 1.62-1.32A2 2 0 0010 7zm-2.28 5H9.6a5.48 5.48 0 00-.4 3.96c-1-.12-1.7-.45-2.15-.93a2.52 2.52 0 01-.66-1.83c.02-.79.72-1.2 1.33-1.2zM5.5 17h4.1c.18.36.4.7.66 1H5.5A1.5 1.5 0 014 16.5v-11C4 4.67 4.67 4 5.5 4H7c0-1.1.9-2 2-2h2a2 2 0 012 2h1.5c.83 0 1.5.67 1.5 1.5v3.7c-.32-.08-.66-.15-1-.18V5.5a.5.5 0 00-.5-.5h-1.77A2 2 0 0111 6H9a2 2 0 01-1.73-1H5.5a.5.5 0 00-.5.5v11c0 .28.22.5.5.5zM8 4a1 1 0 001 1h2a1 1 0 100-2H9a1 1 0 00-1 1zm11 10.5a4.5 4.5 0 11-9 0 4.5 4.5 0 019 0zm-4-2a.5.5 0 00-1 0V14h-1.5a.5.5 0 000 1H14v1.5a.5.5 0 001 0V15h1.5a.5.5 0 000-1H15v-1.5z"/></svg>