<svg width="20" height="20" viewBox="0 0 20 20" xmlns="http://www.w3.org/2000/svg"><path d="M7.09 4H5.5a.5.5 0 0 0-.5.5v12c0 .28.22.5.5.5h4.1c.18.36.4.7.66 1H5.5A1.5 1.5 0 0 1 4 16.5v-12C4 3.67 4.67 3 5.5 3h1.59c.2-.58.76-1 1.41-1h3c.65 0 1.2.42 1.41 1h1.59c.83 0 1.5.67 1.5 1.5v4.7c-.32-.08-.66-.15-1-.18V4.5a.5.5 0 0 0-.5-.5h-1.59c-.2.58-.76 1-1.41 1h-3a1.5 1.5 0 0 1-1.41-1ZM9 14.5c0-1.33.47-2.55 1.26-3.5H7.75c-.66 0-1.3.55-1.22 1.3.06.56.24 1.26.79 1.8.4.4.95.7 1.7.82A5.58 5.58 0 0 1 9 14.5Zm-1-11c0 .28.22.5.5.5h3a.5.5 0 0 0 0-1h-3a.5.5 0 0 0-.5.5ZM10 6a2 2 0 1 0 0 4 2 2 0 0 0 0-4Zm9 8.5a4.5 4.5 0 1 1-9 0 4.5 4.5 0 0 1 9 0Zm-4-2a.5.5 0 0 0-1 0V14h-1.5a.5.5 0 0 0 0 1H14v1.5a.5.5 0 0 0 1 0V15h1.5a.5.5 0 0 0 0-1H15v-1.5Z"/></svg>