<svg width="20" height="20" viewBox="0 0 20 20" xmlns="http://www.w3.org/2000/svg"><path d="M3.5 2c.28 0 .5.22.5.5v4c0 .28.22.5.5.5h11a.5.5 0 0 0 .5-.5v-4a.5.5 0 0 1 1 0v4c0 .65-.42 1.2-1 1.41V9a2 2 0 0 1-2 2v1h-1v-1H7v5.7l2-1.01c.02.35.1.7.21 1.01l-2.49 1.25A.5.5 0 0 1 6 17.5V11a2 2 0 0 1-2-2V7.91c-.58-.2-1-.76-1-1.41v-4c0-.28.22-.5.5-.5ZM5 8v1a1 1 0 0 0 1 1h8a1 1 0 0 0 1-1V8H5Zm7.5 5a2.5 2.5 0 0 0 0 5h.5a.5.5 0 0 0 0-1h-.5a1.5 1.5 0 0 1 0-3h.5a.5.5 0 0 0 0-1h-.5Zm3.5 0a.5.5 0 0 0 0 1h.5a1.5 1.5 0 0 1 0 3H16a.5.5 0 0 0 0 1h.5a2.5 2.5 0 0 0 0-5H16Zm-4 2.5c0-.28.22-.5.5-.5h4a.5.5 0 0 1 0 1h-4a.5.5 0 0 1-.5-.5Z"/></svg>