<svg width="24" height="24" viewBox="0 0 24 24" xmlns="http://www.w3.org/2000/svg"><path d="M5.25 3C4 3 3 4 3 5.25v2.5C3 9 4 10 5.25 10h.5v3.71c-.05.03-.1.07-.13.12l-2.8 2.79a1.25 1.25 0 000 1.77l2.8 2.79c.48.49 1.28.49 1.76 0l2.8-2.8.11-.13H14v.5C14 20 15.01 21 16.25 21h2.5c1.24 0 2.25-1 2.25-2.25v-2.5c0-1.24-1-2.25-2.25-2.25h-2.5C15.01 14 14 15 14 16.25v.5H10.3c-.03-.05-.07-.09-.12-.13l-2.79-2.8a1.26 1.26 0 00-.13-.11v-3.7h.5C9 10 10 9 10 7.74v-2.5C10 4 9 3 7.75 3h-2.5zM4.5 5.25c0-.42.33-.75.75-.75h2.5c.42 0 .75.33.75.75v2.5c0 .42-.33.75-.75.75h-2.5a.75.75 0 01-.75-.75v-2.5zM4.06 17.5l2.44-2.44 2.44 2.44-2.44 2.44-2.44-2.44zm12.2-2h2.49c.41 0 .75.34.75.75v2.5c0 .42-.34.75-.75.75h-2.5a.75.75 0 01-.75-.75v-2.5c0-.41.34-.75.75-.75z"/></svg>