<svg width="32" height="32" viewBox="0 0 32 32" xmlns="http://www.w3.org/2000/svg"><path d="M3 7.5A4.5 4.5 0 0 1 7.5 3h17A4.5 4.5 0 0 1 29 7.5v17a4.5 4.5 0 0 1-4.5 4.5h-17A4.5 4.5 0 0 1 3 24.5v-17ZM7.5 5A2.5 2.5 0 0 0 5 7.5v17A2.5 2.5 0 0 0 7.5 27h17a2.5 2.5 0 0 0 2.5-2.5v-17A2.5 2.5 0 0 0 24.5 5h-17Zm6.2 5.3a1 1 0 0 1 0 1.4L9.42 16l4.3 4.3a1 1 0 0 1-1.42 1.4l-5-5a1 1 0 0 1 0-1.4l5-5a1 1 0 0 1 1.42 0Zm4.6 1.4a1 1 0 0 1 1.4-1.4l5 5a1 1 0 0 1 0 1.4l-5 5a1 1 0 0 1-1.4-1.4l4.29-4.3-4.3-4.3Z"/></svg>