<svg width="24" height="24" viewBox="0 0 24 24" xmlns="http://www.w3.org/2000/svg"><path d="M5.17 2c-1.2 0-2.18.93-2.25 2.13l-.83 15.5A2.25 2.25 0 0 0 4.33 22h2.84a2.25 2.25 0 0 0 2.24-2.37l-.84-15.5A2.25 2.25 0 0 0 6.33 2H5.17Zm-.75 2.21c.02-.4.35-.71.75-.71h1.16c.4 0 .73.31.75.71l.83 15.5c.03.43-.31.79-.74.79H4.33a.75.75 0 0 1-.75-.8l.84-15.49ZM9.52 22c.39-.41.67-.93.8-1.5h1.18v-4.25c0-.97.78-1.75 1.75-1.75h4c.97 0 1.75.78 1.75 1.75v4.25h.75c.41 0 .75-.34.75-.75V7.71l-5.24 4.84A.75.75 0 0 1 14 12V7.71l-4.03 3.72-.1-1.94 4.37-4.04A.75.75 0 0 1 15.5 6v4.29l5.24-4.84A.75.75 0 0 1 22 6v13.75c0 1.24-1 2.25-2.25 2.25H9.5ZM13 16.25v4.25h4.5v-4.25a.25.25 0 0 0-.25-.25h-4a.25.25 0 0 0-.25.25Z"/></svg>