<svg width="48" height="48" viewBox="0 0 48 48" xmlns="http://www.w3.org/2000/svg"><path d="M28 40.46a11.44 11.44 0 0 1-2-6.56v-5.78c0-.45.37-.82.83-.82 1.56 0 3.1-.29 4.6-.86a15.75 15.75 0 0 0 4.07-2.28c.3-.21.7-.21 1 0 .76.57 1.51 1.05 2.28 1.46.92.5 1.84.88 2.78 1.15a12.84 12.84 0 0 0 3.6.53c.47 0 .84.37.84.82v5.78c0 5.5-3.29 9.54-9.7 12.04a.84.84 0 0 1-.6 0 19.84 19.84 0 0 1-5.96-3.52A12.85 12.85 0 0 1 28 40.46Zm6.3-17.9-.31.23c-.04-1.47-.14-2.9-.3-4.29h9.54a20.01 20.01 0 0 1 .73 6.73 12.67 12.67 0 0 1-4.24-1.37c-.67-.36-1.34-.8-2.03-1.3-1-.75-2.38-.75-3.38 0Zm-8.13 20.36c.21-.2.43-.44.65-.7A12.91 12.91 0 0 1 24 33.9v-1.4h-6.72a29.9 29.9 0 0 0 1.93 6.4 12.7 12.7 0 0 0 2.62 4.02c.87.83 1.6 1.08 2.17 1.08.57 0 1.3-.25 2.17-1.08Zm.66-17.62c1.55 0 3.1-.34 4.67-1.06a49.63 49.63 0 0 0-.32-5.74H16.82a47 47 0 0 0 .06 11.5H24v-1.88a2.83 2.83 0 0 1 2.83-2.82ZM14.36 30a49.4 49.4 0 0 1-.06-11.5H4.77A20.01 20.01 0 0 0 4.92 30h9.44Zm-8.47 2.5a20.05 20.05 0 0 0 13 10.84c-1.86-2.49-3.33-6.3-4.15-10.84H5.89ZM28.8 9.1A30.47 30.47 0 0 1 30.8 16H17.2a30.47 30.47 0 0 1 2.02-6.9 12.7 12.7 0 0 1 2.62-4.02C22.7 4.25 23.43 4 24 4c.57 0 1.3.25 2.17 1.08.88.84 1.8 2.18 2.62 4.03Zm4.56 6.9h8.99A20.05 20.05 0 0 0 29.1 4.66c1.93 2.58 3.43 6.57 4.24 11.34ZM5.66 16h9c.8-4.77 2.3-8.76 4.23-11.34A20.05 20.05 0 0 0 5.66 16Zm29.84 8.16-1.2-1.6Z"/></svg>