<svg width="48" height="48" viewBox="0 0 48 48" xmlns="http://www.w3.org/2000/svg"><path d="M24 4a20 20 0 0 1 19.96 21.23 10.85 10.85 0 0 1-2.47-.58 17.84 17.84 0 0 0-.87-6.15h-7c.2 1.38.32 2.81.36 4.3-.83.59-1.66 1.07-2.48 1.44V24c0-1.93-.15-3.78-.41-5.5H16.91a36.32 36.32 0 0 0 .08 11.5H24v2.5h-6.48c.44 1.7 1 3.23 1.64 4.52 1.68 3.36 3.54 4.48 4.84 4.48.54 0 1.18-.2 1.86-.66a13.4 13.4 0 0 0 2.2 2.75A20 20 0 1 1 24 4Zm-9.54 26a38.8 38.8 0 0 1-.08-11.5h-7A17.48 17.48 0 0 0 7.56 30h6.9ZM8.7 32.5a17.55 17.55 0 0 0 9.71 8.09c-1.49-2.01-2.7-4.8-3.46-8.09H8.7ZM30.6 16c-.45-1.9-1.05-3.6-1.77-5.02C27.16 7.62 25.3 6.5 24 6.5c-1.3 0-3.16 1.12-4.84 4.48A23.43 23.43 0 0 0 17.4 16h13.2Zm2.57 0h6.4a17.55 17.55 0 0 0-9.98-8.59c1.56 2.11 2.81 5.1 3.58 8.59ZM18.4 7.41A17.55 17.55 0 0 0 8.43 16h6.4c.77-3.5 2.02-6.48 3.58-8.59Zm13.01 19.03a15.73 15.73 0 0 0 4.08-2.28c.3-.21.7-.21 1 0 .76.57 1.51 1.05 2.28 1.46.92.5 1.84.88 2.78 1.15 1.19.35 2.39.53 3.6.53.47 0 .84.37.84.82v5.78c0 5.5-3.29 9.54-9.7 12.04a.84.84 0 0 1-.6 0c-2.91-1.13-5.17-2.58-6.78-4.34-.77-.85-1.4-1.76-1.86-2.75A11.44 11.44 0 0 1 26 33.9v-5.77c0-.46.37-.83.83-.83 1.55 0 3.08-.28 4.6-.86Z"/></svg>