<svg width="24" height="24" viewBox="0 0 24 24" xmlns="http://www.w3.org/2000/svg"><path d="M9 5a3 3 0 1 1 5.95.54 2.5 2.5 0 0 1 1.34 4.21A2.5 2.5 0 0 1 14.5 14h-1.75v4.69l3.47-3.47a.75.75 0 1 1 1.06 1.06l-4.53 4.53v1.44a.75.75 0 0 1-1.5 0v-1.44l-4.53-4.53a.75.75 0 1 1 1.06-1.06l3.47 3.47V14H9.5a2.5 2.5 0 0 1-1.79-4.25 2.5 2.5 0 0 1 1.34-4.2A3.01 3.01 0 0 1 9 5Zm.5 4a.75.75 0 0 1 0 1.5 1 1 0 1 0 0 2h5a1 1 0 1 0 0-2 .75.75 0 0 1 0-1.5 1 1 0 1 0 0-2h-.63a.75.75 0 0 1-.62-1.17 1.5 1.5 0 1 0-2.5 0A.75.75 0 0 1 10.13 7H9.5a1 1 0 0 0 0 2Z"/></svg>