<svg width="20" height="20" viewBox="0 0 20 20" xmlns="http://www.w3.org/2000/svg"><path d="M2 4.75A2.75 2.75 0 0 1 4.75 2h10.5A2.75 2.75 0 0 1 18 4.75V11h-1V8H8.7l1.65 1.65a.5.5 0 0 1-.7.7L8 8.71V13h1.12a2 2 0 0 0-.12.69V14H4.75A2.75 2.75 0 0 1 2 11.25v-6.5ZM3 8v3.25c0 .97.78 1.75 1.75 1.75H7V8.7l-1.65 1.65a.5.5 0 0 1-.7-.7L6.29 8H3Zm1.27-1A2 2 0 0 1 7 4.27V3H4.75C3.78 3 3 3.78 3 4.75V7h1.27ZM6 7h1V6a1 1 0 1 0-1 1Zm2-1v1h1a1 1 0 1 0-1-1Zm2.73 1H17V4.75C17 3.78 16.22 3 15.25 3H8v1.27A2 2 0 0 1 10.73 7ZM19 13.5v3c0 .83-.67 1.5-1.5 1.5h-6a1.5 1.5 0 0 1-1.5-1.5v-3c0-.83.67-1.5 1.5-1.5h6c.83 0 1.5.67 1.5 1.5Zm-1 3v-1c-.83 0-1.5.67-1.5 1.5h1c0-.28.22-.5.5-.5Zm-.5-3.5h-1c0 .83.67 1.5 1.5 1.5v-1a.5.5 0 0 1-.5-.5Zm-6 0a.5.5 0 0 1-.5.5v1c.83 0 1.5-.67 1.5-1.5h-1Zm-.5 3.5c.28 0 .5.22.5.5h1c0-.83-.67-1.5-1.5-1.5v1Zm3.5-3a1.5 1.5 0 1 0 0 3 1.5 1.5 0 0 0 0-3Z"/></svg>