<svg width="24" height="24" viewBox="0 0 24 24" xmlns="http://www.w3.org/2000/svg"><path d="M2 5a3 3 0 0 1 3-3h14a3 3 0 0 1 3 3v9.05a2.51 2.51 0 0 0-.5-.05h-1V9.5h-9.94l1.72 1.72a.75.75 0 1 1-1.06 1.06L9.5 10.56v4.94h1.7c-.13.3-.2.64-.2 1v.5H5a3 3 0 0 1-3-3V5Zm3-1.5c-.83 0-1.5.67-1.5 1.5v3h1.2A2.5 2.5 0 0 1 7 4.5c.36 0 .7.07 1 .2V3.5H5Zm4.5 0v1.2A2.5 2.5 0 0 1 13 7c0 .36-.07.7-.2 1h7.7V5c0-.83-.67-1.5-1.5-1.5H9.5ZM8 15.5v-4.94l-1.72 1.72a.75.75 0 0 1-1.06-1.06L6.94 9.5H3.5V14c0 .83.67 1.5 1.5 1.5h3ZM10.5 8a1 1 0 1 0-1-1v1h1ZM8 7a1 1 0 1 0-1 1h1V7Zm4 9.5c0-.83.67-1.5 1.5-1.5h8c.83 0 1.5.67 1.5 1.5v4c0 .83-.67 1.5-1.5 1.5h-8a1.5 1.5 0 0 1-1.5-1.5v-4Zm10 .5a1 1 0 0 1-1-1h-1c0 1.1.9 2 2 2v-1Zm0 2a2 2 0 0 0-2 2h1a1 1 0 0 1 1-1v-1Zm-8-3a1 1 0 0 1-1 1v1a2 2 0 0 0 2-2h-1Zm1 5a2 2 0 0 0-2-2v1a1 1 0 0 1 1 1h1Zm4.25-2.5a1.75 1.75 0 1 0-3.5 0 1.75 1.75 0 0 0 3.5 0Z"/></svg>