<svg width="20" height="20" viewBox="0 0 20 20" xmlns="http://www.w3.org/2000/svg"><path d="M7 2H4.75A2.75 2.75 0 0 0 2 4.75V7h2.27A2 2 0 0 1 7 4.27V2Zm1 4v1h1a1 1 0 1 0-1-1Zm2.73 1A2 2 0 0 0 8 4.27V2h7.25A2.75 2.75 0 0 1 18 4.75V7h-7.27ZM8.71 8l1.64 1.65a.5.5 0 0 1-.7.7L8 8.71V14h1v-.5a2.5 2.5 0 0 1 2.5-2.5h6c.17 0 .34.02.5.05V8H8.7ZM7 14V8.7l-1.65 1.65a.5.5 0 0 1-.7-.7L6.29 8H2v3.25A2.75 2.75 0 0 0 4.75 14H7Zm0-8a1 1 0 1 0-1 1h1V6Zm12 7.5v3c0 .83-.67 1.5-1.5 1.5h-6a1.5 1.5 0 0 1-1.5-1.5v-3c0-.83.67-1.5 1.5-1.5h6c.83 0 1.5.67 1.5 1.5Zm-1 3v-1c-.83 0-1.5.67-1.5 1.5h1c0-.28.22-.5.5-.5Zm-.5-3.5h-1c0 .83.67 1.5 1.5 1.5v-1a.5.5 0 0 1-.5-.5Zm-6 0a.5.5 0 0 1-.5.5v1c.83 0 1.5-.67 1.5-1.5h-1Zm-.5 3.5c.28 0 .5.22.5.5h1c0-.83-.67-1.5-1.5-1.5v1Zm3.5-3a1.5 1.5 0 1 0 0 3 1.5 1.5 0 0 0 0-3Z"/></svg>