<svg width="20" height="20" viewBox="0 0 20 20" xmlns="http://www.w3.org/2000/svg"><path d="M12.5 12v-1a2 2 0 1 1 4 0v1h.5a1 1 0 0 1 1 1v4a1 1 0 0 1-1 1h-5a1 1 0 0 1-1-1v-4a1 1 0 0 1 1-1h.5Zm1-1v1h2v-1a1 1 0 1 0-2 0Zm1.75 4a.75.75 0 1 0-1.5 0 .75.75 0 0 0 1.5 0ZM9.72 2.08a.5.5 0 0 1 .56 0c1.94 1.3 4.03 2.1 6.3 2.43A.5.5 0 0 1 17 5v4.34A3 3 0 0 0 11.5 11v.06A2 2 0 0 0 10 13v4a2 2 0 0 0 .24.94l-.06.03a.5.5 0 0 1-.36 0C5.31 16.23 3 13.39 3 9.5V5a.5.5 0 0 1 .43-.5 15.05 15.05 0 0 0 6.3-2.42Z"/></svg>