<svg width="32" height="32" viewBox="0 0 32 32" xmlns="http://www.w3.org/2000/svg"><path d="M5.25 5C4.56 5 4 5.56 4 6.25V24.5A2.5 2.5 0 006.5 27h10.95a3.03 3.03 0 01-.18-1.04V6.25c0-.69-.56-1.25-1.25-1.25H5.25zM20 28.98V29H6.5A4.5 4.5 0 012 24.5V6.25C2 4.45 3.46 3 5.25 3h10.77c1.8 0 3.25 1.46 3.25 3.25V8h7.82C28.69 8 30 9.3 30 10.91v8.84c0 1.8-1.46 3.25-3.25 3.25h-2.81l-.65 3.51A3.04 3.04 0 0120 28.98zM24.33 10h-5.06v15.96a1.04 1.04 0 002.05.2l2.9-15.78.1-.38zm-.02 11h2.44c.69 0 1.25-.56 1.25-1.25v-8.84a.91.91 0 00-1.8-.17L24.3 21zM8 9a1 1 0 11-2 0 1 1 0 012 0zm-1 6a1 1 0 100 2h7a1 1 0 100-2H7zm-1 7a1 1 0 011-1h7a1 1 0 110 2H7a1 1 0 01-1-1z"/></svg>