<svg width="24" height="24" viewBox="0 0 24 24" xmlns="http://www.w3.org/2000/svg"><path d="M15 21c.94 0 1.75-.67 1.93-1.6l.48-2.4h2.84c.97 0 1.75-.78 1.75-1.75V9.26c0-1.24-1-2.25-2.25-2.26H14.5V5.25c0-1.24-1-2.25-2.25-2.25h-8C3.01 3 2 4 2 5.25v12.5C2 19.55 3.46 21 5.25 21H15zm2.52-12.18L15.46 19.1a.49.49 0 01-.96-.1V8.5h3.11c-.04.1-.07.2-.09.32zM5.78 8.5a.75.75 0 110-1.5.75.75 0 010 1.5zm-.75 7.25c0-.41.34-.75.75-.75h5a.75.75 0 110 1.5h-5a.75.75 0 01-.75-.75zM5.78 11h5a.75.75 0 110 1.5h-5a.75.75 0 010-1.5z"/></svg>