<svg width="28" height="28" viewBox="0 0 28 28" xmlns="http://www.w3.org/2000/svg"><path d="M6.78 9.5a.75.75 0 100-1.5.75.75 0 000 1.5zm0 9a.75.75 0 000 1.5h5a.75.75 0 100-1.5h-5zM6.03 14c0-.42.34-.76.75-.76h5a.75.75 0 110 1.5h-5a.75.75 0 01-.75-.75zM17.1 25H5.25A3.25 3.25 0 012 21.73V5.75A2.75 2.75 0 014.75 3h8.9a2.75 2.75 0 012.76 2.75v2.24h7.04c1.31-.06 2.68.84 2.68 2.52v6.7a2.75 2.75 0 01-2.75 2.75H20.5l-.66 3.08c-.32 1.48-1.34 1.95-2.75 1.95zM4.75 4.5c-.69 0-1.25.56-1.25 1.25v16c0 .96.78 1.74 1.75 1.74h9.83a2.66 2.66 0 01-.17-.98V5.75c0-.69-.56-1.25-1.25-1.25H4.75zm11.66 18.01c0 1.2 1.72 1.38 1.97.21l2.74-12.74c.04-.18.09-.34.15-.5h-4.86v13.03zm6.18-12.22l-1.76 8.17h2.55c.69 0 1.25-.56 1.25-1.25v-6.7c0-.63-.49-1-.99-1.02h-.14a.97.97 0 00-.91.8z"/></svg>