<svg width="48" height="48" viewBox="0 0 48 48" xmlns="http://www.w3.org/2000/svg"><path d="M8.25 8.5c-.97 0-1.75.78-1.75 1.75v25.5a3.75 3.75 0 003.75 3.75h16c-.16-.43-.25-.9-.25-1.38V10.25c0-.97-.78-1.75-1.75-1.75h-16zM29.63 42H10.25A6.25 6.25 0 014 35.75v-25.5C4 7.9 5.9 6 8.25 6h16c2.35 0 4.25 1.9 4.25 4.25V14H40c2.22.08 4 1.91 4 4.15v11.6C44 32.1 42.1 34 39.75 34h-5.02l-1.06 4.94a3.88 3.88 0 01-4.05 3.05zm-1.13-3.88a1.38 1.38 0 002.73.3l4.55-21.14c.06-.27.15-.53.25-.78H28.5v21.62zm9.73-20.31L35.27 31.5h4.48c.97 0 1.75-.78 1.75-1.75v-11.6a1.65 1.65 0 00-3.27-.34zM11.5 17a1.5 1.5 0 100-3 1.5 1.5 0 000 3zM10 23.25c0-.69.56-1.25 1.25-1.25h10.5a1.25 1.25 0 110 2.5h-10.5c-.69 0-1.25-.56-1.25-1.25zM11.25 30a1.25 1.25 0 100 2.5h10.5a1.25 1.25 0 100-2.5h-10.5z"/></svg>