<svg width="32" height="32" viewBox="0 0 32 32" xmlns="http://www.w3.org/2000/svg"><path d="M20 29v-.02l.3.02a3.04 3.04 0 0 0 3-2.49l.64-3.51h2.81c1.8 0 3.25-1.46 3.25-3.25v-8.84a2.91 2.91 0 0 0-3-2.9V8h-7.73V6.25c0-1.8-1.46-3.25-3.25-3.25H5.25A3.25 3.25 0 0 0 2 6.25V24.5A4.5 4.5 0 0 0 6.5 29H20Zm-.73-19h5.06c-.04.12-.08.25-.1.38l-2.9 15.77a1.04 1.04 0 0 1-2.06-.19V10ZM7 10a1 1 0 1 1 0-2 1 1 0 0 1 0 2Zm-1 6a1 1 0 0 1 1-1h7a1 1 0 1 1 0 2H7a1 1 0 0 1-1-1Zm1 5h7a1 1 0 1 1 0 2H7a1 1 0 1 1 0-2Z"/></svg>