<svg width="48" height="48" viewBox="0 0 48 48" xmlns="http://www.w3.org/2000/svg"><path d="M29.63 42h.25c1.82 0 3.4-1.27 3.79-3.06L34.73 34h5.02C42.1 34 44 32.1 44 29.75v-11.6A4.16 4.16 0 0040 14H28.5v-3.75C28.5 7.9 26.6 6 24.25 6h-16A4.25 4.25 0 004 10.25v25.5C4 39.2 6.8 42 10.25 42h19.38zM28.5 16.5h7.53c-.1.25-.19.5-.25.78L31.23 38.4a1.38 1.38 0 01-2.73-.29V16.5zm-15.5-1a1.5 1.5 0 11-3 0 1.5 1.5 0 013 0zM11.25 22h10.5a1.25 1.25 0 110 2.5h-10.5a1.25 1.25 0 110-2.5zM10 31.25c0-.69.56-1.25 1.25-1.25h10.5a1.25 1.25 0 110 2.5h-10.5c-.69 0-1.25-.56-1.25-1.25z"/></svg>