<svg width="16" height="16" viewBox="0 0 16 16" xmlns="http://www.w3.org/2000/svg"><path d="M4.5 7.49a.5.5 0 000 1h1.98a.5.5 0 00.5-.5.5.5 0 00-.5-.5H4.5zm0 2.51a.5.5 0 000 1h1.98a.5.5 0 000-1H4.5zm.48-4.51a.5.5 0 11-1 0 .5.5 0 011 0zM3.5 3C2.67 3 2 3.67 2 4.5v7c0 .83.67 1.5 1.5 1.5h6c.65 0 1.3-.39 1.47-1.21l.14-.75h1.39c.83 0 1.5-.67 1.5-1.5V6.51c0-.96-.72-1.48-1.45-1.51H8.99v-.5C9 3.67 8.32 3 7.5 3H3.5zM9 6h2.09a1.57 1.57 0 00-.06.23l-.15.78-.9 4.58c-.11.6-.99.51-.99-.1V6zm-1 5.5c0 .18.02.35.07.5H3.5a.5.5 0 01-.5-.5v-7c0-.28.22-.5.5-.5h4c.27 0 .5.22.5.5v7zm4.5-1.46h-1.2l.56-2.84.15-.78c.11-.6.99-.52.99.09v3.03a.5.5 0 01-.5.5z"/></svg>