<svg width="24" height="24" viewBox="0 0 24 24" xmlns="http://www.w3.org/2000/svg"><path d="M6.53 7.75a.75.75 0 11-1.5 0 .75.75 0 011.5 0zM5.78 15a.75.75 0 000 1.5h5a.75.75 0 100-1.5h-5zm-.75-3.25c0-.41.34-.75.75-.75h5a.75.75 0 110 1.5h-5a.75.75 0 01-.75-.75zM15 21c.94 0 1.75-.67 1.93-1.6l.48-2.4h2.84c.97 0 1.75-.78 1.75-1.75V9.26c0-1.24-1-2.25-2.25-2.26H14.5V5.25c0-1.24-1-2.25-2.25-2.25h-8C3.01 3 2 4 2 5.25v12.5C2 19.55 3.46 21 5.25 21H15zM3.5 5.25c0-.41.34-.75.75-.75h8c.41 0 .75.34.75.75v13.76c0 .17.02.33.06.49H5.25c-.97 0-1.75-.78-1.75-1.75V5.25zm11 3.25h3.11c-.04.1-.07.2-.09.32L15.46 19.1a.49.49 0 01-.96-.1V8.5zm4.5.61a.76.76 0 011.5.15v5.99c0 .14-.11.25-.25.25h-2.54L19 9.11z"/></svg>