<svg width="28" height="28" viewBox="0 0 28 28" xmlns="http://www.w3.org/2000/svg"><path d="M5.25 25H17.1c1.41 0 2.43-.48 2.75-1.96l.66-3.08h2.86a2.75 2.75 0 002.75-2.75v-6.7c0-1.68-1.36-2.58-2.67-2.52H16.4V5.75A2.75 2.75 0 0013.66 3H4.75A2.75 2.75 0 002 5.75v16c0 1.79 1.46 3.24 3.25 3.24zM16.41 9.48h4.86a2.9 2.9 0 00-.15.49l-2.74 12.74c-.25 1.17-1.97.99-1.97-.2V9.48zm-9.63.01a.75.75 0 110-1.5.75.75 0 010 1.5zm0 9.02h5a.75.75 0 110 1.5h-5a.75.75 0 010-1.5zm0-5.27h5a.75.75 0 110 1.5h-5a.75.75 0 010-1.5z"/></svg>