<svg width="16" height="16" viewBox="0 0 16 16" xmlns="http://www.w3.org/2000/svg"><path d="M2 4.5C2 3.67 2.67 3 3.5 3h4C8.31 3 9 3.67 9 4.5V5h3.55c.73.03 1.45.55 1.45 1.5v3.04c0 .83-.67 1.5-1.5 1.5h-1.39l-.14.75a1.44 1.44 0 01-1.47 1.2l-6 .01A1.5 1.5 0 012 11.5v-7zm7 7c0 .6.87.69.99.1L10.88 7l.15-.78V6.2l.01-.06.02-.04c0-.03.01-.07.03-.1h-2.1v5.5zM4.47 5.99a.5.5 0 100-1 .5.5 0 000 1zm.01 1.5a.5.5 0 000 1h2a.5.5 0 100-1h-2zm0 2.51a.5.5 0 000 1h2a.5.5 0 00.26-.93h-.02A.5.5 0 006.6 10H6.5L6.48 10H4.5z"/></svg>