<svg width="24" height="24" viewBox="0 0 24 24" xmlns="http://www.w3.org/2000/svg"><path d="M14 16.75a.75.75 0 1 1 1.5 0 .75.75 0 0 1-1.5 0ZM9.25 16a.75.75 0 1 0 0 1.5.75.75 0 0 0 0-1.5ZM4 5.25C4 3.45 5.46 2 7.25 2h9.5C18.55 2 20 3.46 20 5.25v13.5c0 1.8-1.46 3.25-3.25 3.25h-9.5A3.25 3.25 0 0 1 4 18.75V5.25Zm8.75.5a.75.75 0 0 0-1.5 0v.75H9A.75.75 0 0 0 9 8h2.25v1h-3.5a.75.75 0 0 0 0 1.5h3.5v1h-3.5a.75.75 0 0 0 0 1.5h3.5v1.5h-2a2.25 2.25 0 1 0 2.12 1.5h1.26a2.25 2.25 0 1 0 2.12-1.5h-2V13h3.5a.75.75 0 0 0 0-1.5h-3.5v-1h3.5a.75.75 0 0 0 0-1.5h-3.5V8H15a.75.75 0 0 0 0-1.5h-2.25v-.75Z"/></svg>