<svg width="48" height="48" viewBox="0 0 48 48" xmlns="http://www.w3.org/2000/svg"><path d="m22.23 24-5.86-5.87a1.25 1.25 0 0 1 1.76-1.76L24 22.23l5.87-5.86a1.25 1.25 0 0 1 1.76 1.76L25.77 24l5.86 5.87a1.25 1.25 0 0 1-1.76 1.76L24 25.77l-5.87 5.86a1.25 1.25 0 0 1-1.76-1.76L22.23 24ZM4 12.75A4.75 4.75 0 0 1 8.75 8h30.5A4.75 4.75 0 0 1 44 12.75v22.5A4.75 4.75 0 0 1 39.25 40H8.75A4.75 4.75 0 0 1 4 35.25v-22.5Zm4.75-2.25c-1.24 0-2.25 1-2.25 2.25v22.5c0 1.24 1 2.25 2.25 2.25h30.5c1.24 0 2.25-1 2.25-2.25v-22.5c0-1.24-1-2.25-2.25-2.25H8.75Z"/></svg>