<svg width="32" height="32" viewBox="0 0 32 32" xmlns="http://www.w3.org/2000/svg"><path d="M27 7c0-2.76-4.92-5-11-5S5 4.24 5 7v18c0 2.76 4.92 5 11 5 .42 0 .83-.01 1.24-.03A9.04 9.04 0 0115.7 28c-2.7-.04-5.03-.55-6.65-1.29C7.19 25.87 7 25.11 7 25V9.88C9 11.16 12.28 12 16 12c3.72 0 7-.84 9-2.12v4.74c.7.12 1.37.32 2 .59V7zm-2 0c0 .11-.2.87-2.05 1.71A17.4 17.4 0 0116 10a17.4 17.4 0 01-6.95-1.29C7.19 7.87 7 7.11 7 7c0-.11.2-.87 2.05-1.71A17.4 17.4 0 0116 4c2.82 0 5.27.52 6.95 1.29C24.81 6.13 25 6.89 25 7zm6 16.5a7.5 7.5 0 10-15 0 7.5 7.5 0 0015 0zm-12.25-1h7.69l-2.72-2.72a.75.75 0 111.06-1.06l4 4c.3.3.3.77 0 1.06l-4 4a.75.75 0 11-1.06-1.06L26.44 24h-7.69a.75.75 0 010-1.5z"/></svg>