<svg width="32" height="32" viewBox="0 0 32 32" xmlns="http://www.w3.org/2000/svg"><path d="M16 14c3.26 0 6.3-.6 8.6-1.64.83-.38 1.67-.87 2.4-1.48v4.33a9 9 0 00-9.76 14.76c-.4.02-.82.03-1.24.03-6.08 0-11-2.24-11-5V10.88c.73.61 1.57 1.1 2.4 1.48A21.33 21.33 0 0016 14zM5 7c0-2.76 4.92-5 11-5s11 2.24 11 5-4.92 5-11 5S5 9.76 5 7zm26 16.5a7.5 7.5 0 10-15 0 7.5 7.5 0 0015 0zm-12.25-1h7.69l-2.72-2.72a.75.75 0 111.06-1.06l4 4c.3.3.3.77 0 1.06l-4 4a.75.75 0 11-1.06-1.06L26.44 24h-7.69a.75.75 0 010-1.5z"/></svg>