<svg width="24" height="24" viewBox="0 0 24 24" xmlns="http://www.w3.org/2000/svg"><path d="M4 6c0-.7.32-1.3.77-1.78a5.61 5.61 0 011.8-1.2A13.65 13.65 0 0112 2c2.08 0 4 .38 5.43 1.02.72.32 1.34.72 1.8 1.2.45.49.77 1.09.77 1.78v5.5c-.47-.2-.98-.34-1.5-.42V8.39a6.8 6.8 0 01-1.07.6A13.65 13.65 0 0112 10c-2.08 0-4-.38-5.43-1.02A6.8 6.8 0 015.5 8.4V18c0 .2.09.46.37.75.27.3.71.6 1.31.86 1.14.51 2.74.86 4.55.89.28.54.64 1.04 1.06 1.48L12 22c-2.08 0-4-.38-5.43-1.02a5.61 5.61 0 01-1.8-1.2A2.6 2.6 0 014 18V6zm1.5 0c0 .2.09.46.37.75.27.3.71.6 1.31.86 1.2.54 2.9.89 4.82.89 1.92 0 3.62-.35 4.82-.89.6-.26 1.04-.56 1.31-.86.28-.3.37-.54.37-.75 0-.2-.09-.46-.37-.75-.27-.3-.71-.6-1.31-.86-1.2-.54-2.9-.89-4.82-.89-1.92 0-3.62.35-4.82.89-.6.26-1.04.56-1.31.86-.28.3-.37.54-.37.75zm12 6a5.5 5.5 0 110 11 5.5 5.5 0 010-11zm-3 5a.5.5 0 000 1h4.8l-1.65 1.65a.5.5 0 00.7.7l2.5-2.5a.5.5 0 000-.7l-2.5-2.5a.5.5 0 00-.7.7L19.29 17H14.5z"/></svg>