<svg width="16" height="16" viewBox="0 0 16 16" xmlns="http://www.w3.org/2000/svg"><path fill="#745125" d="M2.75 2.75h10.5v1.5H2.75z"/><path fill="#E62C46" d="M2.75 4h10.5v1.5H2.75z"/><path fill="#F36D38" d="M2.75 5h10.5v1.5H2.75z"/><path fill="#FFD23E" d="M2.75 6h10.5v1.5H2.75z"/><path fill="#61BC51" d="M2.75 7h10.5v1.5H2.75z"/><path fill="#1793E8" d="M2.75 8h10.5v1.5H2.75z"/><path fill="#B73FBB" d="M2.75 9h10.5v1.5H2.75z"/><path d="M2.5 2h11c.28 0 .5.22.5.5v8a.5.5 0 0 1-.5.5H3v2.5a.5.5 0 0 1-1 0v-11c0-.28.22-.5.5-.5ZM3 3v7h10V3H3Z"/></svg>