<svg width="28" height="28" viewBox="0 0 28 28" xmlns="http://www.w3.org/2000/svg"><path d="M5 4.25h18v2H5v-2Z" fill="#745125"/><path d="M5 6h18v2.5H5V6Z" fill="#E62C46"/><path d="M5 8h18v2.5H5V8Z" fill="#F36D38"/><path d="M5 10h18v1.5H5V10Z" fill="#FFD23E"/><path d="M5 11h18v2.5H5V11Z" fill="#61BC51"/><path d="M5 13h18v2.5H5V13Z" fill="#1793E8"/><path d="M5 15h18v2H5v-2Z" fill="#B73FBB"/><path d="M4.75 3a.75.75 0 0 0-.75.75v20.5a.75.75 0 0 0 1.5 0V18h17.75c.41 0 .75-.34.75-.75V3.75a.75.75 0 0 0-.75-.75H4.75Zm.75 1.5h17v12h-17v-12Z"/></svg>