<svg width="32" height="32" viewBox="0 0 32 32" xmlns="http://www.w3.org/2000/svg"><path d="M5 4.75h22v2.5H5v-2.5Z" fill="#745125"/><path d="M5 7h22v2.5H5V7Z" fill="#E62C46"/><path d="M5 9h22v2.5H5V9Z" fill="#F36D38"/><path d="M5 11h22v2.5H5V11Z" fill="#FFD23E"/><path d="M5 13h22v2.5H5V13Z" fill="#61BC51"/><path d="M5 15h22v2.5H5V15Z" fill="#1793E8"/><path d="M5 17h22v2.5H5V17Z" fill="#B73FBB"/><path d="M4 4a1 1 0 0 1 1-1h22a1 1 0 0 1 1 1v16a1 1 0 0 1-1 1H6v7a1 1 0 1 1-2 0V4Zm2 15h20V5H6v14Z"/></svg>