<svg width="48" height="48" viewBox="0 0 48 48" xmlns="http://www.w3.org/2000/svg"><path d="M9 8h30v3.5H9V8Z" fill="#745125"/><path d="M9 11h30v3.5H9V11Z" fill="#E62C46"/><path d="M9 14h30v4.5H9V14Z" fill="#F36D38"/><path d="M9 18h30v4.5H9V18Z" fill="#FFD23E"/><path d="M9 22h30v3.5H9V22Z" fill="#61BC51"/><path d="M9 25h30v3.5H9V25Z" fill="#1793E8"/><path d="M9 28h30v3H9v-3Z" fill="#B73FBB"/><path d="M7 7.25C7 6.56 7.56 6 8.25 6h31.5c.69 0 1.25.56 1.25 1.25v24.5c0 .69-.56 1.25-1.25 1.25H9.5v7.75a1.25 1.25 0 1 1-2.5 0V7.25ZM9.5 30.5h29v-22h-29v22Z"/></svg>