<svg width="24" height="24" viewBox="0 0 24 24" xmlns="http://www.w3.org/2000/svg"><path d="M12.5 4.75a.75.75 0 00-1.5 0v8.5a.75.75 0 001.5 0V9.5h1.25a.75.75 0 000-1.5H12.5V4.75zM3.75 5a.75.75 0 100 1.5H8a6 6 0 01-4.47 5.03.75.75 0 00.44 1.44c4.39-1.32 5.72-5.15 5.53-7.29A.75.75 0 008.75 5h-5zm13.97 1.22c.3-.3.77-.3 1.06 0l2 2c.3.3.3.77 0 1.06l-2 2a.75.75 0 11-1.06-1.06l.72-.72h-2.19a.75.75 0 010-1.5h2.19l-.72-.72a.75.75 0 010-1.06zm0 8c.3-.3.77-.3 1.06 0l2 2c.3.3.3.77 0 1.06l-2 2a.75.75 0 11-1.06-1.06l.72-.72H3.75a.75.75 0 010-1.5h14.69l-.72-.72a.75.75 0 010-1.06z"/></svg>