<svg width="20" height="20" viewBox="0 0 20 20" xmlns="http://www.w3.org/2000/svg"><path d="M10 2c.41 0 .75.34.75.75V6H12a.75.75 0 010 1.5h-1.25v3.25a.75.75 0 01-1.5 0v-8c0-.41.34-.75.75-.75zM3 3.75c0-.41.34-.75.75-.75h4c.41 0 .75.34.75.75V5c0 1.08-.21 2.43-.92 3.53a4.3 4.3 0 01-3.83 1.97.75.75 0 010-1.5c1.34 0 2.1-.55 2.57-1.28.5-.77.68-1.8.68-2.72v-.5H3.75A.75.75 0 013 3.75zm11.72.47c.3-.3.77-.3 1.06 0l2 2a.75.75 0 010 1.06l-2 2a.75.75 0 11-1.06-1.06l.72-.72h-1.19a.75.75 0 010-1.5h1.19l-.72-.72a.75.75 0 010-1.06zm0 7.5c.3-.3.77-.3 1.06 0l2 2c.3.3.3.77 0 1.06l-2 2a.75.75 0 11-1.06-1.06l.72-.72H4.75a.75.75 0 010-1.5h10.69l-.72-.72a.75.75 0 010-1.06z"/></svg>