<svg width="28" height="28" viewBox="0 0 28 28" xmlns="http://www.w3.org/2000/svg"><path d="M17.25 2a.75.75 0 0 0-.75.75v10.5a.75.75 0 0 0 1.5 0V10h3a4 4 0 1 0 0-8h-3.75ZM21 8.5h-3v-5h3a2.5 2.5 0 0 1 0 5ZM4.1 2.88c1.11-.72 2.54-1 3.96-.8l.24.03c.9.13 1.69.69 2.1 1.5l1.28 2.58a3.25 3.25 0 0 1-1.1 4.16l-1.7 1.14c-.4.26-.52.63-.43.9a15.3 15.3 0 0 0 3.17 5.05c.23.24.65.3 1.08.07l1.3-.72c1.82-1 4.1-.33 5.1 1.5l1.04 1.9c.45.82.45 1.8.02 2.61-1.45 2.73-4.76 4.24-7.57 2.4a24.42 24.42 0 0 1-7.74-8.32c-2.44-4.23-2.93-7.9-2.78-10.56a4.3 4.3 0 0 1 2.02-3.44Z"/></svg>