<svg width="24" height="24" viewBox="0 0 24 24" xmlns="http://www.w3.org/2000/svg"><path d="M6.5 2a3.5 3.5 0 00-1 6.86v5.39a.75.75 0 001.5 0V13h6.25A3.75 3.75 0 0017 9.25v-.29a3.5 3.5 0 10-1.5-.1v.39c0 1.24-1 2.25-2.25 2.25H7V8.96A3.5 3.5 0 006.5 2zM5.34 16.88a.75.75 0 00-.87-1.22 3.52 3.52 0 00-1.23 1.6.75.75 0 101.4.53 1.99 1.99 0 01.7-.9zm3.2-1.22a.75.75 0 00-.88 1.22 2.01 2.01 0 01.7.91.75.75 0 101.4-.54 3.49 3.49 0 00-1.23-1.59zm-3.76 3.86a.75.75 0 10-1.3.76 3.5 3.5 0 001.48 1.37.75.75 0 00.66-1.35 2 2 0 01-.84-.78zm4.74.76a.75.75 0 00-1.3-.76 2 2 0 01-.84.78.75.75 0 00.66 1.35 3.5 3.5 0 001.48-1.37z"/></svg>