<svg width="20" height="20" viewBox="0 0 20 20" xmlns="http://www.w3.org/2000/svg"><path d="M17.22 8.68a1.5 1.5 0 0 1 0 2.63L12 14.2A5.5 5.5 0 0 0 5 9.2V4.5a1.5 1.5 0 0 1 2.23-1.32l10 5.5ZM4.06 11.44a2 2 0 0 1-1.43 2.48l-.46.12a4.7 4.7 0 0 0 .01 1.01l.35.09A2 2 0 0 1 4 17.66l-.13.42c.26.2.54.38.84.52l.32-.35a2 2 0 0 1 2.91 0l.34.36c.3-.13.57-.3.82-.5l-.16-.55a2 2 0 0 1 1.44-2.48l.46-.12a4.7 4.7 0 0 0-.01-1.01l-.35-.09A2 2 0 0 1 9 11.34l.13-.42c-.26-.2-.54-.38-.84-.52l-.32.35a2 2 0 0 1-2.91 0l-.34-.36c-.3.13-.57.3-.82.5l.15.55ZM6.5 15.5a1 1 0 1 1 0-2 1 1 0 0 1 0 2Z"/></svg>