<svg width="28" height="28" viewBox="0 0 28 28" xmlns="http://www.w3.org/2000/svg"><path d="M11.75 11a.75.75 0 0 0 0 1.5h4.5a.75.75 0 0 0 0-1.5h-4.5ZM6 16.75c0-.41.34-.75.75-.75h5.5a.75.75 0 0 1 0 1.5h-5.5a.75.75 0 0 1-.75-.75Zm9.75-.75a.75.75 0 0 0 0 1.5h5.5a.75.75 0 0 0 0-1.5h-5.5ZM14 6a6.5 6.5 0 0 0-6.48 6h-.27a4.75 4.75 0 1 0 0 9.5h13.5a4.75 4.75 0 1 0 0-9.5h-.27A6.5 6.5 0 0 0 14 6Zm-5 6.5a5 5 0 0 1 10 0v.25c0 .41.34.75.75.75h1a3.25 3.25 0 0 1 0 6.5H7.25a3.25 3.25 0 0 1 0-6.5h1c.41 0 .75-.34.75-.75v-.25Z"/></svg>