<svg width="20" height="20" viewBox="0 0 20 20" xmlns="http://www.w3.org/2000/svg"><path d="M2.5 5a.5.5 0 0 0 0 1h15a.5.5 0 0 0 0-1h-15Zm0 5a.5.5 0 0 0 0 1h10.2c.4-.32.84-.56 1.32-.73.01-.1.04-.18.07-.27H2.5Zm7.86 5.48a1.5 1.5 0 0 1-.27-.48H2.5a.5.5 0 0 0 0 1h8.77v-.02a1.5 1.5 0 0 1-.91-.5Zm5.14.02a1 1 0 1 0 0-2 1 1 0 0 0 0 2Zm4-1.5h-.55A3.49 3.49 0 0 0 16 11.05v-.55a.5.5 0 0 0-1 0v.55A3.49 3.49 0 0 0 12.05 14h-.55a.5.5 0 0 0 0 1h.55A3.49 3.49 0 0 0 15 17.95v.55a.5.5 0 0 0 1 0v-.55A3.49 3.49 0 0 0 18.95 15h.55a.5.5 0 0 0 0-1Zm-2.23 2.27a2.5 2.5 0 1 1-3.54-3.54 2.5 2.5 0 0 1 3.54 3.54Z"/></svg>