<svg width="16" height="16" viewBox="0 0 16 16" xmlns="http://www.w3.org/2000/svg"><path d="M7.7 8.22a.73.73 0 0 1 .2-.37.38.38 0 0 1 .11-.07.5.5 0 0 0 .19-.99c-.4-.08-.76.13-.98.33-.24.23-.43.54-.5.9a.5.5 0 1 0 .97.2ZM3.51 5.83c-1.79 1.42-1.83 3.84-1 5.46a3.61 3.61 0 0 0 3.28 2.07l.92-.02c.69-.03.82-.04 1.78.35 1.28.52 2.65.37 3.79-.35 1.03-.65 1.62-2.15 1.52-3.37-.06-.65 0-.91.07-1.21.05-.27.12-.56.12-1.18 0-1.32-.39-2.16-.78-2.84a5.32 5.32 0 0 0-2.01-2.13 4.54 4.54 0 0 0-4.33-.11A5.31 5.31 0 0 0 4.6 4.74c-.24.41-.48.61-1.08 1.09ZM11.6 8.3a3.3 3.3 0 1 1-6.6 0 3.3 3.3 0 0 1 6.6 0Z"/></svg>