<svg width="28" height="28" viewBox="0 0 28 28" xmlns="http://www.w3.org/2000/svg"><path d="M17 12.25c0-.41.34-.75.75-.75h3.5a.75.75 0 010 1.5h-3.5a.75.75 0 01-.75-.75zm.75 2.75a.75.75 0 100 1.5h3.5a.75.75 0 000-1.5h-3.5zM15 12a1.5 1.5 0 11-3 0 1.5 1.5 0 013 0zm-8 2.5a1 1 0 00-1 1v1s0 2 2.75 2 2.75-2 2.75-2v-1a1 1 0 00-1-1H7zm3.5-2.75a1.75 1.75 0 11-3.5 0 1.75 1.75 0 013.5 0zm3 5.75h-1.21a3.04 3.04 0 00.2-.93v-.02h.01V15.5a2 2 0 00-.27-1h2.27a1 1 0 011 1 2 2 0 01-2 2zM2 7.75A3.75 3.75 0 015.75 4h16.5A3.75 3.75 0 0126 7.75v12.5A3.75 3.75 0 0122.25 24H5.75A3.75 3.75 0 012 20.25V7.75zM5.75 5.5c-1.24 0-2.25 1-2.25 2.25v12.5c0 1.24 1.01 2.25 2.25 2.25h16.5c1.24 0 2.25-1 2.25-2.25V7.75c0-1.24-1-2.25-2.25-2.25H5.75z"/></svg>