<svg width="20" height="20" viewBox="0 0 20 20" xmlns="http://www.w3.org/2000/svg"><path d="M6 6V4.5a2.42 2.42 0 0 1 .73-1.77A2.43 2.43 0 0 1 8.5 2a2.43 2.43 0 0 1 1.5.5 2.44 2.44 0 0 1 2.48-.3 2.53 2.53 0 0 1 1.32 1.33c.13.3.2.63.2.97V6h1a1 1 0 0 1 1 1v8a2.95 2.95 0 0 1-1.47 2.58l-.59-.26-.5-.22-.2-.11-.23-.17-.24-.21-.27-.29A2 2 0 0 1 12 15V6h1V4.5a1.47 1.47 0 0 0-.44-1.06A1.48 1.48 0 0 0 11.5 3c-.3 0-.58.09-.83.26A2.5 2.5 0 0 1 11 4.5V15a2.95 2.95 0 0 0 .77 2l.3.33.31.27.31.23.31.17H7a3 3 0 0 1-3-3V7a1 1 0 0 1 1-1h1Zm1 0h3V4.5a1.47 1.47 0 0 0-.44-1.06A1.48 1.48 0 0 0 8.5 3a1.47 1.47 0 0 0-1.06.44A1.48 1.48 0 0 0 7 4.5V6Z"/></svg>