<svg width="20" height="20" viewBox="0 0 20 20" xmlns="http://www.w3.org/2000/svg"><path d="M9.68 4.4c-.46.33-.8.94-.68 2.05.04.47.27.86.66 1.25.37.38.85.71 1.39 1.1l.1.07c1.13.79 2.5 1.77 2.84 3.53.4 2.1-1.19 4.6-4.4 4.6a3.9 3.9 0 0 1-3.3-1.71 5.25 5.25 0 0 1-.77-1.67v-.01s.07.18 0 0a.5.5 0 0 1 .97-.22v.02a2.3 2.3 0 0 0 .13.38c.1.25.25.59.49.92A2.9 2.9 0 0 0 9.58 16c2.62 0 3.71-1.95 3.43-3.4-.26-1.32-1.27-2.1-2.43-2.91l-.13-.1a11 11 0 0 1-1.5-1.18A3.03 3.03 0 0 1 8 6.55c-.13-1.38.28-2.37 1.1-2.96.78-.57 1.83-.7 2.83-.59a3.77 3.77 0 0 1 2.95 2.13 3.24 3.24 0 0 1 .07.16v.01h.01s-.13-.25 0 0a.5.5 0 0 1-.92.4l-.01-.03-.04-.08c-.04-.08-.1-.19-.19-.31A2.78 2.78 0 0 0 11.82 4c-.88-.1-1.64.03-2.14.4Z"/></svg>