<svg width="16" height="16" viewBox="0 0 16 16" xmlns="http://www.w3.org/2000/svg"><path d="M7.53 3.35c-.36.26-.62.73-.53 1.6.03.35.2.66.5.98.3.31.68.6 1.12.93l.08.06c.9.68 2.01 1.54 2.3 2.98a3.7 3.7 0 0 1-.52 2.65A3.2 3.2 0 0 1 7.67 14a3.87 3.87 0 0 1-3.43-1.93 3.57 3.57 0 0 1-.18-.34l-.02-.02v-.01a.5.5 0 0 1 .92-.4v.02a1.43 1.43 0 0 0 .13.23A2.88 2.88 0 0 0 7.66 13c1 0 1.62-.43 1.98-.99a2.7 2.7 0 0 0 .37-1.91c-.2-1.02-.98-1.67-1.92-2.38L8 7.65a9.64 9.64 0 0 1-1.21-1.03c-.4-.42-.71-.93-.78-1.57-.11-1.12.22-1.99.94-2.51.7-.5 1.64-.62 2.61-.51 1.1.12 1.74.73 2.07 1.3a3.07 3.07 0 0 1 .37 1.09v.03s-.02-.2 0 0a.5.5 0 0 1-.99.1V4.5l-.04-.16c-.03-.14-.1-.32-.2-.51-.21-.36-.58-.74-1.31-.82-.87-.1-1.52.04-1.92.33ZM11 4.55Z"/></svg>