<svg width="16" height="16" viewBox="0 0 16 16" xmlns="http://www.w3.org/2000/svg"><path d="M6.79 4.5c-.07-.2.1-1 1.21-1 .67 0 1.08.2 1.32.36a1.39 1.39 0 0 1 .29.28.75.75 0 0 0 1.29-.77c-.2-.27 0 0 0 0l-.01-.02-.02-.02a1.54 1.54 0 0 0-.17-.23c-.12-.13-.29-.3-.52-.46A3.71 3.71 0 0 0 8 2C6.12 2 4.87 3.6 5.37 5c.39 1.06 1.36 1.53 2.05 1.87l.16.08c.78.39 1.33.71 1.6 1.42.15.4.07.72-.12.95-.2.24-.6.46-1.23.46-.77 0-1.06-.28-1.18-.45a.93.93 0 0 1-.15-.37v-.01a.75.75 0 0 0-1.5.1v.01a1.29 1.29 0 0 0 .02.12 2.43 2.43 0 0 0 .41 1.02c.42.6 1.18 1.08 2.4 1.08.98 0 1.85-.35 2.39-1 .55-.67.7-1.57.36-2.45-.5-1.3-1.55-1.84-2.34-2.23-.87-.43-1.29-.65-1.45-1.1ZM5 9.06v-.02s.07.4 0 .02Zm-.2 3.49a.75.75 0 0 0 0 1.5h6.5a.75.75 0 0 0 0-1.5H4.8Z"/></svg>