<svg width="24" height="24" viewBox="0 0 24 24" xmlns="http://www.w3.org/2000/svg"><path d="M17.5 12a5.5 5.5 0 1 1 0 11 5.5 5.5 0 0 1 0-11Zm-.78 2.59-.07.06-2.52 2.51-.04.05-.04.08-.02.06-.02.08v.11l.01.09.03.08.03.06.05.07 2.52 2.51a.5.5 0 0 0 .76-.63l-.05-.07L15.7 18h4.79a.5.5 0 0 0 .5-.41v-.09a.5.5 0 0 0-.41-.5h-4.88l1.65-1.65a.5.5 0 0 0 .05-.63l-.05-.07a.5.5 0 0 0-.64-.06ZM11.02 17H2.88A1 1 0 0 0 3 19h8.17a6.52 6.52 0 0 1-.15-2Zm.48-2H3a1 1 0 0 1-.12-2h9.93a6.5 6.5 0 0 0-1.31 2ZM3 11a1 1 0 0 1-.12-2H21a1 1 0 0 1 .12 2H3Zm18-6H2.88A1 1 0 0 0 3 7h18.12A1 1 0 0 0 21 5Z"/></svg>