<svg width="24" height="24" viewBox="0 0 24 24" xmlns="http://www.w3.org/2000/svg"><path d="M5.25 4A3.25 3.25 0 0 0 2 7.25v9.5C2 18.55 3.46 20 5.25 20h6.25c-.2-.47-.34-.98-.42-1.5H9.5v-8h11v1.23c.55.29 1.06.65 1.5 1.08V7.25C22 5.45 20.54 4 18.75 4H5.25ZM20.5 9h-11V5.5h9.25c.97 0 1.75.78 1.75 1.75V9ZM5.25 5.5H8v13H5.25c-.97 0-1.75-.78-1.75-1.75v-9.5c0-.97.78-1.75 1.75-1.75ZM23 17.5a5.5 5.5 0 1 0-11 0 5.5 5.5 0 0 0 11 0Zm-5 .5v2.5a.5.5 0 1 1-1 0V18h-2.5a.5.5 0 0 1 0-1H17v-2.5a.5.5 0 1 1 1 0V17h2.5a.5.5 0 0 1 0 1H18Z"/></svg>