<svg width="28" height="28" viewBox="0 0 28 28" xmlns="http://www.w3.org/2000/svg"><path d="M2 7.75A3.75 3.75 0 0 1 5.75 4h16.5A3.75 3.75 0 0 1 26 7.75v7.65c-.44-.48-.95-.9-1.5-1.25V11.5h-14v10h2.57c.07.52.19 1.02.36 1.5H5.75A3.75 3.75 0 0 1 2 19.25V7.75Zm22.5 0c0-1.24-1-2.25-2.25-2.25H10.5V10h14V7.75ZM5.75 5.5c-1.24 0-2.25 1-2.25 2.25v11.5c0 1.24 1.01 2.25 2.25 2.25H9v-16H5.75ZM27 20.5a6.5 6.5 0 1 1-13 0 6.5 6.5 0 0 1 13 0Zm-6-4a.5.5 0 0 0-1 0V20h-3.5a.5.5 0 0 0 0 1H20v3.5a.5.5 0 0 0 1 0V21h3.5a.5.5 0 0 0 0-1H21v-3.5Z"/></svg>