<svg width="48" height="48" viewBox="0 0 48 48" xmlns="http://www.w3.org/2000/svg"><path d="M4 13.25C4 9.8 6.8 7 10.25 7h27.5C41.2 7 44 9.8 44 13.25v12.37c-.75-.72-1.6-1.36-2.5-1.88V20.5H18.25v18h4.23c.24.87.57 1.71.98 2.5H10.25A6.25 6.25 0 0 1 4 34.75v-21.5ZM18.25 18H41.5v-4.75a3.75 3.75 0 0 0-3.75-3.75h-19.5V18Zm-8-8.5a3.75 3.75 0 0 0-3.75 3.75v21.5a3.75 3.75 0 0 0 3.75 3.75h5.5v-29h-5.5ZM35 46a11 11 0 1 0 0-22 11 11 0 0 0 0 22Zm0-19a1 1 0 0 1 1 1v6h6a1 1 0 1 1 0 2h-6v6a1 1 0 1 1-2 0v-6h-6a1 1 0 1 1 0-2h6v-6a1 1 0 0 1 1-1Z"/></svg>