<svg width="16" height="16" viewBox="0 0 16 16" xmlns="http://www.w3.org/2000/svg"><path d="M4 5.5c0-.28.22-.5.5-.5h3a.5.5 0 0 1 .49.6 5.5 5.5 0 0 0-.65.4H4.5a.5.5 0 0 1-.5-.5ZM6.26 7H4.5a.5.5 0 0 0 0 1h1.1c.18-.36.4-.7.66-1ZM5.2 9H4.5a.5.5 0 0 0 0 1h.52c.03-.34.1-.68.19-1Zm0 3H3a1 1 0 0 1-1-1V5a1 1 0 0 1 1-1h10a1 1 0 0 1 1 1v1.26c.38.31.72.67 1 1.08V5a2 2 0 0 0-2-2H3a2 2 0 0 0-2 2v6c0 1.1.9 2 2 2h2.6c-.16-.32-.3-.65-.4-1Zm5.29 2a3.5 3.5 0 1 1 0-7 3.5 3.5 0 0 1 0 7Zm0 1a4.5 4.5 0 1 0 0-9 4.5 4.5 0 0 0 0 9Zm0-2a2.5 2.5 0 1 1 0-5 2.5 2.5 0 0 1 0 5Z"/></svg>