<svg width="20" height="20" viewBox="0 0 20 20" xmlns="http://www.w3.org/2000/svg"><path d="M5 7.5c0-.28.22-.5.5-.5h4a.5.5 0 0 1 0 1h-4a.5.5 0 0 1-.5-.5ZM5 10c0-.28.22-.5.5-.5h6.7c-.54.25-1.04.6-1.47 1H5.5A.5.5 0 0 1 5 10Zm4.6 2H5.5a.5.5 0 0 0 0 1h3.7c.1-.35.24-.68.4-1Zm-.58 3H4.5A1.5 1.5 0 0 1 3 13.5v-7C3 5.67 3.67 5 4.5 5h11c.83 0 1.5.67 1.5 1.5v3.1c.36.18.7.4 1 .66V6.5A2.5 2.5 0 0 0 15.5 4h-11A2.5 2.5 0 0 0 2 6.5v7A2.5 2.5 0 0 0 4.5 16h4.7c-.08-.32-.15-.66-.18-1Zm5.48 3a3.5 3.5 0 1 1 0-7 3.5 3.5 0 0 1 0 7Zm0 1a4.5 4.5 0 1 0 0-9 4.5 4.5 0 0 0 0 9Zm0-2a2.5 2.5 0 1 0 0-5 2.5 2.5 0 0 0 0 5Z"/></svg>