<svg width="24" height="24" viewBox="0 0 24 24" xmlns="http://www.w3.org/2000/svg"><path d="M4.75 4A2.75 2.75 0 0 0 2 6.75v10.5A2.75 2.75 0 0 0 4.75 20h6.75a6.48 6.48 0 0 1-.19-4.5H6.75a.75.75 0 0 1 0-1.5h5.27c.36-.57.81-1.07 1.33-1.5h-6.6a.75.75 0 0 1 0-1.5h8.5c.21 0 .4.09.54.23A6.51 6.51 0 0 1 22 12.8V6.75A2.75 2.75 0 0 0 19.25 4H4.75ZM6 8.75c0-.41.34-.75.75-.75h4.5a.75.75 0 0 1 0 1.5h-4.5A.75.75 0 0 1 6 8.75ZM17.5 21.5a4 4 0 1 1 0-8 4 4 0 0 1 0 8Zm0 1.5a5.5 5.5 0 1 0 0-11 5.5 5.5 0 0 0 0 11Zm0-3a2.5 2.5 0 1 0 0-5 2.5 2.5 0 0 0 0 5Z"/></svg>