<svg width="28" height="28" viewBox="0 0 28 28" xmlns="http://www.w3.org/2000/svg"><path d="M7 9.73c0-.4.33-.73.73-.73h5.54c.4 0 .73.33.73.73v.04c0 .4-.33.73-.73.73H7.73A.73.73 0 0 1 7 9.77v-.04Zm0 4c0-.4.33-.73.73-.73h10.54c.2 0 .37.08.5.2A7.47 7.47 0 0 0 16 14.5H7.73a.73.73 0 0 1-.73-.73v-.04ZM13.87 17H7.73c-.4 0-.73.33-.73.73v.04c0 .4.33.73.73.73h5.54c.14-.53.35-1.03.6-1.5Zm-.6 5.5H5.75c-1.24 0-2.25-1-2.25-2.25V7.75c0-1.24 1.01-2.25 2.25-2.25h16.5c1.24 0 2.25 1 2.25 2.25v6.4c.55.35 1.06.77 1.5 1.25V7.75A3.75 3.75 0 0 0 22.25 4H5.75A3.75 3.75 0 0 0 2 7.75v12.5A3.75 3.75 0 0 0 5.75 24h8.12a7.45 7.45 0 0 1-.6-1.5Zm7.23 3a5 5 0 1 1 0-10 5 5 0 0 1 0 10Zm0 1.5a6.5 6.5 0 1 0 0-13 6.5 6.5 0 0 0 0 13Zm0-3a3.5 3.5 0 1 0 0-7 3.5 3.5 0 0 0 0 7Z"/></svg>