<svg width="48" height="48" viewBox="0 0 48 48" xmlns="http://www.w3.org/2000/svg"><path d="M12 17.25c0-.69.56-1.25 1.25-1.25h9.5a1.25 1.25 0 1 1 0 2.5h-9.5c-.69 0-1.25-.56-1.25-1.25Zm1.25 5.25a1.25 1.25 0 1 0 0 2.5h13.44a12.97 12.97 0 0 1 4.48-2.43 1.25 1.25 0 0 0-.42-.07h-17.5Zm0 6.5h10.21c-.4.79-.74 1.63-.98 2.5h-9.23a1.25 1.25 0 1 1 0-2.5Zm-4.5 8.5h13.49c.17.87.42 1.7.76 2.5H8.75A4.75 4.75 0 0 1 4 35.25v-22.5A4.75 4.75 0 0 1 8.75 8h30.5A4.75 4.75 0 0 1 44 12.75v12.87c-.75-.72-1.6-1.36-2.5-1.88V12.75c0-1.24-1-2.25-2.25-2.25H8.75c-1.24 0-2.25 1-2.25 2.25v22.5c0 1.24 1 2.25 2.25 2.25Zm26.25 6a8.5 8.5 0 1 1 0-17 8.5 8.5 0 0 1 0 17Zm0 2.5a11 11 0 1 0 0-22 11 11 0 0 0 0 22Zm6-11a6 6 0 1 1-12 0 6 6 0 0 1 12 0Z"/></svg>