<svg width="24" height="24" viewBox="0 0 24 24" xmlns="http://www.w3.org/2000/svg"><path d="m11.26 13 .23-1.5h1.48l-.23 1.5h-1.48Zm6.49-11c1.2 0 2.17.93 2.24 2.1l.01.15v15.5c0 1.19-.93 2.16-2.1 2.24H6.25c-1.2 0-2.17-.92-2.24-2.09L4 19.75V4.25c0-1.2.93-2.17 2.1-2.24L6.25 2h11.5ZM12.4 15.16a.75.75 0 1 0 1.48.23l.14-.9h.73a.75.75 0 0 0 0-1.5h-.5l.24-1.5h.76a.75.75 0 0 0 0-1.5h-.52l.16-1.02a.75.75 0 1 0-1.48-.23l-.2 1.26h-1.48l.16-1.03a.75.75 0 1 0-1.48-.23l-.2 1.26h-.96a.75.75 0 0 0 0 1.5h.73L9.74 13h-.99a.75.75 0 0 0 0 1.5h.75l-.1.66a.75.75 0 0 0 1.48.23l.14-.9h1.48l-.1.67Z"/></svg>