<svg width="28" height="28" viewBox="0 0 28 28" xmlns="http://www.w3.org/2000/svg"><path d="M17.5 13a1.5 1.5 0 1 0 0-3 1.5 1.5 0 0 0 0 3ZM12 11.5a1.5 1.5 0 1 1-3 0 1.5 1.5 0 0 1 3 0Zm-3.67 5.63a.75.75 0 0 1 1.04.2 2.25 2.25 0 0 0 .25.3A5.92 5.92 0 0 0 14 19.5a5.92 5.92 0 0 0 4.62-2.16l.01-.01a.75.75 0 0 1 1.24.84l-.01.02-.02.03a3.85 3.85 0 0 1-.36.43A7.42 7.42 0 0 1 14 21a7.42 7.42 0 0 1-5.86-2.81v-.01h-.01a.75.75 0 0 1 .2-1.05ZM14 2a12 12 0 1 0 0 24 12 12 0 0 0 0-24ZM3.5 14a10.5 10.5 0 1 1 21 0 10.5 10.5 0 0 1-21 0Z"/></svg>