<svg width="16" height="16" viewBox="0 0 16 16" xmlns="http://www.w3.org/2000/svg"><path d="M4.52 2a.5.5 0 0 1 .17.04l3.85 1.6c.28.12.46.39.46.7v9.16a.5.5 0 0 1-.7.46l-3.84-1.6a.75.75 0 0 1-.46-.7V2.5a.5.5 0 0 1 .5-.5h.02ZM7.2 2h4.05c.41 0 .75.34.75.75V5.8c0 .08-.01.16-.04.23l-.87 2.62c-.06.18-.09.36-.09.55v2.05c0 .41-.34.75-.75.75H10V4.33c0-.7-.42-1.34-1.08-1.61L7.2 2ZM10 13h.25c.97 0 1.75-.78 1.75-1.75V9.2c0-.08.01-.16.04-.23l.87-2.62c.06-.18.09-.37.09-.55V2.75C13 1.78 12.22 1 11.25 1H4.57A1.5 1.5 0 0 0 3 2.5v9.17c0 .7.42 1.34 1.08 1.61l3.84 1.6A1.5 1.5 0 0 0 10 13.5V13Z"/></svg>