<svg width="16" height="16" viewBox="0 0 16 16" xmlns="http://www.w3.org/2000/svg"><path d="M11.5 2H6.9l1.6.92a3 3 0 0 1 1.5 2.6v6.4c.58-.21 1-.77 1-1.42V7a.5.5 0 0 1 .15-.35l1.7-1.71a.5.5 0 0 0 .15-.35V3.5c0-.83-.67-1.5-1.5-1.5ZM2 7.07A.5.5 0 0 1 2 7V3.5A2.5 2.5 0 0 1 4.5 1h7A2.5 2.5 0 0 1 14 3.5v1.09c0 .4-.16.78-.44 1.06L12 7.2v3.29a2.5 2.5 0 0 1-2.04 2.46 2.5 2.5 0 0 1-3.71 1.7L3.5 13.08a3 3 0 0 1-1.5-2.6V7.07Zm7-1.55A2 2 0 0 0 8 3.8L5.25 2.2A1.5 1.5 0 0 0 3 3.5v6.98a2 2 0 0 0 1 1.73l2.75 1.59A1.5 1.5 0 0 0 9 12.5V5.52Z"/></svg>