<svg width="20" height="20" viewBox="0 0 20 20" xmlns="http://www.w3.org/2000/svg"><path d="M14.5 3H7.9l2.6 1.5A3 3 0 0 1 12 7.1V15h.5c.83 0 1.5-.67 1.5-1.5v-4a.5.5 0 0 1 .15-.35l1.7-1.71a.5.5 0 0 0 .15-.35V4.5c0-.83-.67-1.5-1.5-1.5ZM4.02 4.28 4 4.5v9.4a2 2 0 0 0 1 1.73l3.75 2.17A1.5 1.5 0 0 0 11 16.5V7.1a2 2 0 0 0-1-1.73L6.25 3.2a1.5 1.5 0 0 0-2.23 1.08ZM5.54 2h8.96A2.5 2.5 0 0 1 17 4.5v2.59c0 .4-.16.77-.44 1.06L15 9.7v3.79a2.5 2.5 0 0 1-2.5 2.5H12v.5a2.5 2.5 0 0 1-3.75 2.16L4.5 16.5A3 3 0 0 1 3 13.9V4.5a2.54 2.54 0 0 1 .6-1.62A2.5 2.5 0 0 1 5.54 2Z"/></svg>