<svg width="24" height="24" viewBox="0 0 24 24" xmlns="http://www.w3.org/2000/svg"><path d="M17.75 3.5c.97 0 1.75.78 1.75 1.75v2.88c0 .2-.08.39-.22.53l-2.06 2.06a.75.75 0 0 0-.22.53v5.5c0 .97-.78 1.75-1.75 1.75a.75.75 0 0 0-.25.04V8.72c0-1.34-.71-2.58-1.87-3.25L9.72 3.5h8.03ZM6.21 2A3.25 3.25 0 0 0 3 5.25v11.04c0 1.33.72 2.57 1.88 3.24l5.25 3.03a3.25 3.25 0 0 0 4.87-2.6c.08.02.16.04.25.04 1.8 0 3.25-1.45 3.25-3.25v-5.19l1.84-1.84c.42-.42.66-1 .66-1.6V5.26C21 3.45 19.54 2 17.75 2H6.21Zm7.3 6.72v11.03a1.75 1.75 0 0 1-2.63 1.51l-5.25-3.03a2.25 2.25 0 0 1-1.13-1.95V5.25a1.75 1.75 0 0 1 2.63-1.51l5.25 3.03c.7.4 1.12 1.14 1.12 1.95Z"/></svg>