<svg width="20" height="20" viewBox="0 0 20 20" xmlns="http://www.w3.org/2000/svg"><path d="M19 5.5a4.5 4.5 0 11-9 0 4.5 4.5 0 019 0zm-3.8 0l1.15-1.15a.5.5 0 00-.7-.7L14.5 4.79l-1.15-1.14a.5.5 0 00-.7.7l1.14 1.15-1.14 1.15a.5.5 0 00.7.7l1.15-1.14 1.15 1.14a.5.5 0 00.7-.7L15.21 5.5zm1.8 6.78V10.4c.36-.18.7-.4 1-.66v2.54a2.58 2.58 0 01-2.6 2.56h-4.59L6.8 17.8a1 1 0 01-1.4-.2.98.98 0 01-.2-.59v-2.17h-.6A2.58 2.58 0 012 12.28V5.57A2.58 2.58 0 014.6 3h5c-.16.32-.3.65-.4 1H4.6C3.7 4 3 4.71 3 5.57v6.7c0 .86.7 1.57 1.6 1.57h1.6V17l4.28-3.16h4.92c.9 0 1.6-.71 1.6-1.56z"/></svg>