<svg width="24" height="24" viewBox="0 0 24 24" xmlns="http://www.w3.org/2000/svg"><path d="M17.5 1a4 4 0 0 0-4 4v3l-.95.8c-.3.26-.46.39-.5.5a.5.5 0 0 0 .24.65c.1.05.3.05.7.05h9.02c.4 0 .6 0 .7-.05a.5.5 0 0 0 .25-.66c-.05-.1-.2-.23-.5-.49L21.5 8V5a4 4 0 0 0-4-4ZM19 11c-.22.58-.8 1-1.5 1-.69 0-1.28-.42-1.5-1h3Zm3 5.75V11h-1.93l-.13.35A2.59 2.59 0 0 1 17.5 13c-.82 0-1.56-.37-2.05-.96l-3.1 1.62a.75.75 0 0 1-.7 0L2 8.61v8.32A3.25 3.25 0 0 0 5.26 20h13.68A3.25 3.25 0 0 0 22 16.74Zm-10-4.6L14.2 11h-1.73c-.12-.01-.37-.03-.61-.14a1.5 1.5 0 0 1-.73-1.99c.12-.24.3-.41.38-.5l.38-.32.6-.51V5c0-.34.04-.68.1-1H5.07a3.25 3.25 0 0 0-3.04 2.92L12 12.15Z"/></svg>