<svg width="28" height="28" viewBox="0 0 28 28" xmlns="http://www.w3.org/2000/svg"><path d="M20.5 1A4.5 4.5 0 0 0 16 5.5V8l-1.62 1.88c-.22.25-.33.37-.36.47a.5.5 0 0 0 .28.6c.1.05.26.05.6.05h11.2c.33 0 .5 0 .6-.04a.5.5 0 0 0 .27-.6c-.03-.1-.14-.23-.35-.48L25 8V5.5A4.5 4.5 0 0 0 20.5 1Zm0 13a2 2 0 0 0 2-2h-4c0 1.1.9 2 2 2Zm-6.5.15 3.52-1.83c.06.53.25 1 .54 1.42l-3.71 1.93a.75.75 0 0 1-.58.04l-.12-.04L4.5 10.9v8.85c0 .92.7 1.67 1.6 1.74l.15.01h15.5c.92 0 1.67-.7 1.74-1.6l.01-.15V12H25v7.75a3.25 3.25 0 0 1-3.07 3.24l-.18.01H6.25a3.25 3.25 0 0 1-3.24-3.07L3 19.75V8.25a3.25 3.25 0 0 1 3.07-3.24L6.25 5h8.77l-.02.5v1H6.25c-.92 0-1.67.7-1.74 1.6l-.01.15v.96l9.5 4.94Z"/></svg>