<svg width="20" height="20" viewBox="0 0 20 20" xmlns="http://www.w3.org/2000/svg"><path d="M7 5a2 2 0 0 0-2 2v6c0 1.1.9 2 2 2h6a2 2 0 0 0 2-2V7a2 2 0 0 0-2-2H7ZM6 7a1 1 0 0 1 1-1h2.5v8H7a1 1 0 0 1-1-1V7Zm4.5 7V6H13a1 1 0 0 1 1 1v6a1 1 0 0 1-1 1h-2.5Zm1-1.5c0-.28.22-.5.5-.5h.5a.5.5 0 0 1 0 1H12a.5.5 0 0 1-.5-.5Zm-4-.5a.5.5 0 0 0 0 1H8a.5.5 0 0 0 0-1h-.5ZM1.88 6.51a.5.5 0 0 1 .6.37l.41 1.64c.1.35.05.71-.1 1.03l-.62 1.23a.5.5 0 0 0 0 .44l.78 1.56a.5.5 0 1 1-.9.44l-.77-1.55a1.5 1.5 0 0 1 0-1.34l.6-1.22a.5.5 0 0 0 .04-.35l-.4-1.64a.5.5 0 0 1 .36-.6Zm16.6.37a.5.5 0 0 0-.97.24l.41 1.64a.5.5 0 0 1-.03.35l-.61 1.22a1.5 1.5 0 0 0 0 1.34l.77 1.55a.5.5 0 1 0 .9-.44l-.78-1.56a.5.5 0 0 1 0-.44l.61-1.23c.16-.32.2-.68.11-1.03l-.4-1.64Z"/></svg>