<svg width="16" height="16" viewBox="0 0 16 16" xmlns="http://www.w3.org/2000/svg"><path d="M7.96 1.03a3.5 3.5 0 0 0-3.89 4.19L1.15 8.15A.5.5 0 0 0 1 8.5v3c0 .28.22.5.5.5h2a.5.5 0 0 0 .5-.5v-1h1.5A.5.5 0 0 0 6 10V8.7l.88-.87c-.2-.29-.37-.6-.5-.92L5.15 8.15A.5.5 0 0 0 5 8.5v1H3.5a.5.5 0 0 0-.5.5v1H2V8.7l2.98-2.97a.5.5 0 0 0 .13-.5 2.5 2.5 0 0 1 1.85-3.17c.28-.39.62-.74 1-1.03ZM11.75 4a.75.75 0 1 1-1.5 0 .75.75 0 0 1 1.5 0ZM8 5a3 3 0 1 1 4.29 2.71.5.5 0 0 0-.29.45v2.34c0 .13.05.26.15.35l.64.65-.64.65a.5.5 0 0 0 0 .7l.59.6-1.24.93-1.5-1.13V8.16a.5.5 0 0 0-.29-.45A3 3 0 0 1 8 5Zm3-4a4 4 0 0 0-2 7.46v5.04c0 .16.07.3.2.4l2 1.5a.5.5 0 0 0 .6 0l2-1.5a.5.5 0 0 0 .05-.75l-.64-.65.64-.65a.5.5 0 0 0 0-.7l-.85-.86V8.46A4 4 0 0 0 11 1Z"/></svg>