<svg width="24" height="24" viewBox="0 0 24 24" xmlns="http://www.w3.org/2000/svg"><path d="M12.9 2.08a5 5 0 0 0-5.83 5.78l-4.85 4.86a.75.75 0 0 0-.22.53v4c0 .41.34.75.75.75h3.5c.41 0 .75-.34.75-.75V15.5h2.25c.41 0 .75-.34.75-.75v-1.69l1.46-1.46a6.47 6.47 0 0 1 1.45-9.52ZM11 7.5a5.5 5.5 0 1 1 8.5 4.61v2.58l1.28 1.28c.29.3.29.77 0 1.06l-.97.97.97.97a.75.75 0 0 1-.05 1.1l-3.25 2.75a.75.75 0 0 1-.98-.02l-2.75-2.5a.75.75 0 0 1-.25-.55v-7.64A5.5 5.5 0 0 1 11 7.5Zm6.5-1a1 1 0 1 0-2 0 1 1 0 0 0 2 0Z"/></svg>