<svg width="24" height="24" viewBox="0 0 24 24" xmlns="http://www.w3.org/2000/svg"><path d="M12 2c.31 0 .61.03.9.08-.6.4-1.13.9-1.57 1.48a3.5 3.5 0 0 0-2.71 4.35c.07.26 0 .54-.2.73L3.5 13.56v2.94h2v-1.75c0-.41.34-.75.75-.75H8.5v-1.25c0-.2.08-.39.22-.53l1.91-1.92c.23.47.5.9.83 1.3L10 13.06v1.69c0 .41-.34.75-.75.75H7v1.75c0 .41-.34.75-.75.75h-3.5a.75.75 0 0 1-.75-.75v-4c0-.2.08-.39.22-.53l4.85-4.86A5.03 5.03 0 0 1 12 2Zm4.5 1.5a4 4 0 0 0-1.9 7.52c.25.13.4.39.4.66v7.74l2.02 1.83 2.12-1.8-.92-.92a.75.75 0 0 1 0-1.06l.97-.97-.97-.97A.75.75 0 0 1 18 15v-3.32c0-.27.15-.53.4-.66a4 4 0 0 0-1.9-7.52Zm-5.5 4a5.5 5.5 0 1 1 8.5 4.61v2.58l1.28 1.28c.29.3.29.77 0 1.06l-.97.97.97.97a.75.75 0 0 1-.05 1.1l-3.25 2.75a.75.75 0 0 1-.98-.02l-2.75-2.5a.75.75 0 0 1-.25-.55v-7.64A5.5 5.5 0 0 1 11 7.5Zm6.5-1a1 1 0 1 1-2 0 1 1 0 0 1 2 0Z"/></svg>