<svg width="20" height="20" viewBox="0 0 20 20" xmlns="http://www.w3.org/2000/svg"><path d="m15.5 15-.73.71a.75.75 0 1 0 1.04 1.08l1.89-1.82a1 1 0 0 0 0-1.44l-1.89-1.82a.75.75 0 0 0-1.04 1.08l.74.71h-2.76a.75.75 0 0 0 0 1.5h2.75ZM15 3a2 2 0 0 1 2 2v4.25a.75.75 0 0 1-1.5 0V5a.5.5 0 0 0-.5-.5H5a.5.5 0 0 0-.5.5v4.25a.75.75 0 0 1-1.5 0V5c0-1.1.9-2 2-2h10ZM5.23 15.71l-.73-.7h2.75a.75.75 0 1 0 0-1.5H4.5l.73-.72a.75.75 0 0 0-1.04-1.08l-1.88 1.82a1 1 0 0 0 0 1.44l1.88 1.82a.75.75 0 0 0 1.04-1.08Z"/></svg>