<svg width="28" height="28" viewBox="0 0 28 28" xmlns="http://www.w3.org/2000/svg"><path d="M13.56 2.14a.75.75 0 0 1 .88 0 20.3 20.3 0 0 0 3.9 2.04c1.8.73 3.92 1.32 5.9 1.32.42 0 .76.34.76.75V14c0 .32-.02.64-.06.96A4 4 0 0 0 17.5 17v.04A3 3 0 0 0 15 20v5c0 .26.03.5.1.74-.34.1-.66.18-.97.24L14 26l-.13-.02c-2.2-.39-4.9-1.92-7.03-4.03C4.7 19.85 3 17.03 3 14V6.25c0-.41.34-.75.75-.75 2 0 4.1-.59 5.91-1.32a20.3 20.3 0 0 0 3.9-2.04ZM18.5 18v-1a3 3 0 1 1 6 0v1h.5a2 2 0 0 1 2 2v5a2 2 0 0 1-2 2h-7a2 2 0 0 1-2-2v-5c0-1.1.9-2 2-2h.5Zm1.5-1v1h3v-1a1.5 1.5 0 0 0-3 0Zm3 5.5a1.5 1.5 0 1 0-3 0 1.5 1.5 0 0 0 3 0Z"/></svg>