<svg width="28" height="28" viewBox="0 0 28 28" xmlns="http://www.w3.org/2000/svg"><path d="M13.56 2.14a.75.75 0 01.88 0 20.3 20.3 0 003.9 2.04c1.8.73 3.92 1.32 5.9 1.32.42 0 .76.34.76.75V14c0 .32-.02.64-.06.96a4.02 4.02 0 00-1.44-1.43V6.98a18.8 18.8 0 01-5.73-1.4A23.46 23.46 0 0114 3.65c-.84.54-2.19 1.27-3.78 1.91-1.69.69-3.7 1.28-5.72 1.4V14c0 2.47 1.4 4.93 3.4 6.88 1.93 1.92 4.3 3.24 6.1 3.6a7.5 7.5 0 001-.28v.8c0 .26.03.5.1.74-.34.1-.66.18-.97.24L14 26l-.13-.02c-2.2-.39-4.9-1.92-7.03-4.03C4.7 19.85 3 17.03 3 14V6.25c0-.41.34-.75.75-.75 2 0 4.1-.59 5.91-1.32a20.3 20.3 0 003.9-2.04zM18.5 18v-1a3 3 0 116 0v1h.5a2 2 0 012 2v5a2 2 0 01-2 2h-7a2 2 0 01-2-2v-5c0-1.1.9-2 2-2h.5zm1.5-1v1h3v-1a1.5 1.5 0 00-3 0zm3 5.5a1.5 1.5 0 10-3 0 1.5 1.5 0 003 0z"/></svg>