<svg width="28" height="28" viewBox="0 0 28 28" xmlns="http://www.w3.org/2000/svg"><path d="M3.5 7.51a1.98 1.98 0 0 1 3.63-1.1.75.75 0 1 0 1.25-.83 3.48 3.48 0 1 0-2.94 5.4c.05.02.1.02.14.02h15.67a.75.75 0 0 0 0-1.5H5.62a.75.75 0 0 0-.14-.01c-1.1 0-1.98-.89-1.98-1.98ZM11.75 6a.75.75 0 0 0 0 1.5h13.5a.75.75 0 0 0 0-1.5h-13.5Zm-5 7.25a.75.75 0 0 0 0 1.5h18.5a.75.75 0 0 0 0-1.5H6.75ZM2 17.75c0-.41.33-.75.75-.75h18.5a.75.75 0 0 1 0 1.5H2.75a.75.75 0 0 1-.75-.75Zm4.74 2.75a.75.75 0 0 0 0 1.5h18.5a.75.75 0 0 0 0-1.5H6.74Z"/></svg>