<svg width="24" height="24" viewBox="0 0 24 24" xmlns="http://www.w3.org/2000/svg"><path d="M2 18.5A2.5 2.5 0 0 0 4.5 21h1A2.5 2.5 0 0 0 8 18.5v-13A2.5 2.5 0 0 0 5.5 3h-1A2.5 2.5 0 0 0 2 5.5v13Zm7 0a2.5 2.5 0 0 0 2.17 2.48l.35-1.4c.16-.65.5-1.24.97-1.72l2.51-2.5V5.5A2.5 2.5 0 0 0 12.5 3h-1A2.5 2.5 0 0 0 9 5.5v13ZM19.5 21h-.85L22 17.65v.85a2.5 2.5 0 0 1-2.5 2.5ZM22 5.5v5.76a3.29 3.29 0 0 0-3.6.7l-2.4 2.4V5.5A2.5 2.5 0 0 1 18.5 3h1A2.5 2.5 0 0 1 22 5.5Zm-2.9 7.17-5.9 5.9c-.35.35-.6.78-.7 1.25l-.47 1.83c-.2.8.53 1.52 1.32 1.32l1.83-.46c.47-.12.9-.36 1.25-.7l5.9-5.9a2.29 2.29 0 0 0-3.23-3.24Z"/></svg>