<svg width="48" height="48" viewBox="0 0 48 48" xmlns="http://www.w3.org/2000/svg"><path d="M25 19.01 28.99 23H25v-3.99Zm5.24-13.76L25 10.49v-.24C25 7.9 23.1 6 20.75 6h-10.5A4.25 4.25 0 0 0 6 10.25v27.5C6 40.1 7.9 42 10.25 42h27.5C40.1 42 42 40.1 42 37.75v-10.5C42 24.9 40.1 23 37.75 23h-.24l5.25-5.24a4.25 4.25 0 0 0 0-6.01l-6.5-6.5a4.25 4.25 0 0 0-6.02 0ZM33.3 25.5h4.46c.97 0 1.75.78 1.75 1.75v10.5c0 .97-.78 1.75-1.75 1.75H25v-14H33.3Zm-23.04-17h10.5c.97 0 1.75.78 1.75 1.75V23h-14V10.25c0-.97.78-1.75 1.75-1.75Zm12.25 17v14H10.25c-.97 0-1.75-.78-1.75-1.75V25.5h14Z"/></svg>