<svg width="48" height="48" viewBox="0 0 48 48" xmlns="http://www.w3.org/2000/svg"><path d="m32.01 7.01-6.5 6.5c-.68.69-.68 1.8 0 2.48l6.5 6.5c.34.33.77.5 1.21.51h.06c.44 0 .87-.18 1.2-.51l6.5-6.5c.7-.69.7-1.8 0-2.48l-6.5-6.5a1.75 1.75 0 0 0-2.47 0ZM29 23 25 19.01V23h3.99ZM25 10.49l5.24-5.24a4.25 4.25 0 0 1 6.02 0l6.5 6.5a4.25 4.25 0 0 1 0 6L37.5 23h.24C40.1 23 42 24.9 42 27.25v10.5C42 40.1 40.1 42 37.75 42h-27.5A4.25 4.25 0 0 1 6 37.75v-27.5C6 7.9 7.9 6 10.25 6h10.5C23.1 6 25 7.9 25 10.25v.24Zm8.2 15.01H25v14h12.75c.97 0 1.75-.78 1.75-1.75v-10.5c0-.97-.78-1.75-1.75-1.75h-4.54ZM8.5 10.25V23h14V10.25c0-.97-.78-1.75-1.75-1.75h-10.5c-.97 0-1.75.78-1.75 1.75Zm0 15.25v12.25c0 .97.78 1.75 1.75 1.75H22.5v-14h-14Z"/></svg>