<svg width="24" height="24" viewBox="0 0 24 24" xmlns="http://www.w3.org/2000/svg"><path d="M4.25 3C3.01 3 2 4 2 5.25v10.5C2 16.99 3 18 4.25 18H9.5v1.25c0 .69-.56 1.25-1.25 1.25h-.5a.75.75 0 000 1.5h8.5a.75.75 0 000-1.5h-.5c-.69 0-1.25-.56-1.25-1.25V18h5.25c1.24 0 2.25-1 2.25-2.25V5.25C22 4.01 21 3 19.75 3H4.25zM13 18v1.25c0 .45.1.88.3 1.25h-2.6c.2-.38.3-.8.3-1.25V18h2zM3.5 5.25c0-.41.34-.75.75-.75h15.5c.41 0 .75.34.75.75V13h-17V5.25zm0 9.25h17v1.25c0 .41-.34.75-.75.75H4.25a.75.75 0 01-.75-.75V14.5z"/></svg>