<svg width="24" height="24" viewBox="0 0 24 24" xmlns="http://www.w3.org/2000/svg"><path d="M6.75 6.5c-1.24 0-2.25 1-2.25 2.25v6.5c0 1.24 1 2.25 2.25 2.25h6.5c1.24 0 2.25-1 2.25-2.25v-.73l3.39 1.89a.75.75 0 0 0 1.11-.66v-7.5a.75.75 0 0 0-1.11-.65L15.5 9.48v-.73c0-1.24-1-2.25-2.25-2.25h-6.5Zm8.75 4.7 3-1.67v4.95l-3-1.67v-1.62ZM14 8.74v6.5c0 .41-.34.75-.75.75h-6.5a.75.75 0 0 1-.75-.75v-6.5c0-.41.34-.75.75-.75h6.5c.41 0 .75.34.75.75ZM6.42 20.92l.03.02a4.8 4.8 0 0 0 .39.16A15.37 15.37 0 0 0 12 22a15.15 15.15 0 0 0 5.16-.9 6.9 6.9 0 0 0 .39-.16c.34-.16.54-.68.37-1.03a.75.75 0 0 0-1-.33h-.02a2.61 2.61 0 0 1-.29.13 13.66 13.66 0 0 1-4.61.8 13.88 13.88 0 0 1-4.61-.8 5.75 5.75 0 0 1-.3-.13.75.75 0 0 0-.67 1.34Zm1.54-18.4A15.1 15.1 0 0 1 12 2a15.32 15.32 0 0 1 5.16.9 7.19 7.19 0 0 1 .39.16l.02.01h.01s.6.36.34 1.02a.75.75 0 0 1-1 .33h-.01a2.54 2.54 0 0 0-.3-.13A13.82 13.82 0 0 0 12 3.5a13.6 13.6 0 0 0-4.61.8 5.6 5.6 0 0 0-.3.13.75.75 0 1 1-.68-1.34h.02l.02-.02a4.2 4.2 0 0 1 .39-.16c.26-.1.63-.24 1.12-.38Zm-.87 1.9Z"/></svg>