<svg width="16" height="16" viewBox="0 0 16 16" xmlns="http://www.w3.org/2000/svg"><path d="M1 5.5A2.5 2.5 0 0 1 3.5 3h9A2.5 2.5 0 0 1 15 5.5v5a2.5 2.5 0 0 1-2.5 2.5h-9A2.5 2.5 0 0 1 1 10.5v-5ZM3.5 4C2.67 4 2 4.67 2 5.5v5c0 .83.67 1.5 1.5 1.5h9c.83 0 1.5-.67 1.5-1.5v-5c0-.83-.67-1.5-1.5-1.5h-9ZM3 8.5c0-.28.22-.5.5-.5h5a.5.5 0 0 1 0 1h-5a.5.5 0 0 1-.5-.5Zm.5 1.5a.5.5 0 0 0 0 1h3a.5.5 0 0 0 0-1h-3ZM10 8.5c0-.28.22-.5.5-.5h2a.5.5 0 0 1 0 1h-2a.5.5 0 0 1-.5-.5ZM8.5 10a.5.5 0 0 0 0 1h4a.5.5 0 0 0 0-1h-4Z"/></svg>