<svg width="24" height="24" viewBox="0 0 24 24" xmlns="http://www.w3.org/2000/svg"><path d="M14 5a2 2 0 10-4 0h4zM8.5 5a3.5 3.5 0 117 0h5.75a.75.75 0 010 1.5h-1.32l-.5 5.2c-.46-.24-.95-.41-1.46-.53l.45-4.67H5.58l1.15 11.97a2.25 2.25 0 002.24 2.03h1.76c.29.55.65 1.06 1.08 1.5H8.97a3.75 3.75 0 01-3.73-3.39L4.07 6.5H2.75a.75.75 0 010-1.5H8.5zM22 17.5a5.5 5.5 0 11-11 0 5.5 5.5 0 0111 0zm-7.15-2.35a.5.5 0 00-.7.7l1.64 1.65-1.64 1.65a.5.5 0 00.7.7l1.65-1.64 1.65 1.64a.5.5 0 00.7-.7l-1.64-1.65 1.64-1.65a.5.5 0 00-.7-.7l-1.65 1.64-1.65-1.64z"/></svg>