<svg width="20" height="20" viewBox="0 0 20 20" xmlns="http://www.w3.org/2000/svg"><path d="M11.5 4a1.5 1.5 0 00-3 0h3zm-4 0a2.5 2.5 0 015 0H17a.5.5 0 010 1h-.55l-.49 4.2a5.48 5.48 0 00-.99-.18L15.44 5H4.56l1.28 11.11a1 1 0 001 .89H9.6c.18.36.4.7.66 1H6.84a2 2 0 01-1.99-1.77L3.55 5H3a.5.5 0 01-.5-.41V4.5c0-.28.22-.5.5-.5h4.5zM19 14.5a4.5 4.5 0 11-9 0 4.5 4.5 0 019 0zm-2.65-1.15a.5.5 0 00-.7-.7l-1.15 1.14-1.15-1.14a.5.5 0 00-.7.7l1.14 1.15-1.14 1.15a.5.5 0 00.7.7l1.15-1.14 1.15 1.14a.5.5 0 00.7-.7l-1.14-1.15 1.14-1.15z"/></svg>