<svg width="28" height="28" viewBox="0 0 28 28" xmlns="http://www.w3.org/2000/svg"><path d="M16.5 6a2.5 2.5 0 0 0-5 0h5ZM10 6a4 4 0 0 1 8 0h6.25a.75.75 0 0 1 0 1.5h-1.31l-.5 6.1c-.47-.2-.97-.36-1.48-.46l.47-5.64H6.57l1.2 14.48a2.75 2.75 0 0 0 2.74 2.52h2.64c.35.55.77 1.06 1.25 1.5h-3.89a4.25 4.25 0 0 1-4.23-3.9L5.06 7.5H3.75a.75.75 0 0 1 0-1.5H10Zm16 14.5a6.5 6.5 0 1 1-13 0 6.5 6.5 0 0 1 13 0Zm-6.5-.7-2.65-2.65a.5.5 0 0 0-.7.7l2.64 2.65-2.64 2.65a.5.5 0 0 0 .7.7l2.65-2.64 2.65 2.64a.5.5 0 0 0 .7-.7l-2.64-2.65 2.64-2.65a.5.5 0 0 0-.7-.7l-2.65 2.64Z"/></svg>