<svg width="20" height="20" viewBox="0 0 20 20" xmlns="http://www.w3.org/2000/svg"><path d="M8.5 4.9c-.37.07-.76.3-1.07.85a.5.5 0 1 1-.87-.5A2.57 2.57 0 0 1 8.3 3.92c.65-.13 1.3.04 1.8.36.48.32.87.84.88 1.47.01.66-.39 1.25-1.12 1.68-.5.3-.7.5-.77.63-.07.11-.1.21-.1.44a.5.5 0 0 1-1 0c0-.27.02-.61.25-.97.2-.34.56-.64 1.11-.96.54-.32.63-.62.63-.8 0-.2-.14-.46-.44-.65-.3-.2-.68-.3-1.05-.22Zm.25 6.6a.75.75 0 1 0 0-1.5.75.75 0 0 0 0 1.5ZM8.5 1a6.5 6.5 0 0 0-5.68 9.67l-.8 2.08a1 1 0 0 0 1.21 1.32l2.49-.7A6.5 6.5 0 1 0 8.5 1ZM3 7.5a5.5 5.5 0 1 1 3 4.9l-.18-.09-2.86.8.97-2.53-.13-.21A5.47 5.47 0 0 1 3 7.5Zm8.46 9.5a6.49 6.49 0 0 1-4.92-2.26 7.5 7.5 0 0 0 1.75.26 5.47 5.47 0 0 0 5.67.4l.18-.09 2.86.8-.97-2.53.13-.21A5.47 5.47 0 0 0 16 7.39c-.01-.6-.1-1.2-.24-1.76a6.48 6.48 0 0 1 1.38 8.04l.8 2.08a1 1 0 0 1-1.21 1.32l-2.49-.7c-.84.4-1.78.63-2.78.63Z"/></svg>