<svg width="24" height="24" viewBox="0 0 24 24" xmlns="http://www.w3.org/2000/svg"><path d="M8.14 6.3a2.83 2.83 0 0 1 2.99.28c.52.42.87 1.07.87 1.92 0 .97-.69 1.5-1.08 1.8l-.08.07c-.43.33-.6.51-.6.88a.75.75 0 1 1-1.5 0c0-1.13.72-1.7 1.17-2.06.51-.4.59-.5.59-.69 0-.4-.15-.62-.32-.76-.2-.16-.46-.24-.68-.24-.3 0-.5.05-.65.13-.14.08-.3.21-.44.48a.75.75 0 0 1-1.32-.71c.26-.49.61-.86 1.05-1.1ZM9.5 15a1 1 0 1 0 0-2 1 1 0 0 0 0 2Zm0-12a7.5 7.5 0 0 0-6.8 10.67l-.72 2.84c-.24.92.59 1.75 1.5 1.53l2.93-.7A7.5 7.5 0 1 0 9.5 3Zm-6 7.5a6 6 0 1 1 3.33 5.37l-.24-.12-.27.07-2.79.66.7-2.7.06-.28-.13-.25a5.97 5.97 0 0 1-.66-2.75Zm11 10.5a7.47 7.47 0 0 1-5.1-2 8.28 8.28 0 0 0 2.18-.26 5.97 5.97 0 0 0 5.59.13l.24-.12.27.07c.92.22 1.96.44 2.74.6-.18-.74-.42-1.75-.65-2.64l-.07-.28.14-.25a5.97 5.97 0 0 0-2.09-7.8 8.44 8.44 0 0 0-.8-2.04 7.5 7.5 0 0 1 4.35 10.26l.67 2.8c.2.9-.58 1.7-1.47 1.5-.73-.15-1.87-.39-2.91-.63-.95.42-2 .66-3.1.66Z"/></svg>