<svg width="28" height="28" viewBox="0 0 28 28" xmlns="http://www.w3.org/2000/svg"><path d="M11 3a9 9 0 0 0-8.05 13.03l-.9 3.4c-.26.92.6 1.77 1.52 1.52l3.4-.9A9 9 0 1 0 11 3Zm0 14.5a1 1 0 1 1 0-2 1 1 0 0 1 0 2ZM9.5 9.26A.75.75 0 0 1 8 9.25v-.02a1.61 1.61 0 0 1 0-.13 2.94 2.94 0 0 1 .38-1.22C8.78 7.15 9.6 6.5 11 6.5c1.4 0 2.21.65 2.62 1.38A3.02 3.02 0 0 1 14 9.2v.05c0 1.12-.7 1.88-1.2 2.43l-.12.13c-.54.61-.93 1.11-.93 1.94a.75.75 0 0 1-1.5 0c0-1.42.74-2.3 1.32-2.94l.02-.02c.6-.68.9-1.01.91-1.53a1.53 1.53 0 0 0-.18-.64C12.16 8.35 11.85 8 11 8c-.85 0-1.16.35-1.32.62a1.52 1.52 0 0 0-.18.64ZM17 25a8.98 8.98 0 0 1-6.73-3.03 10.08 10.08 0 0 0 2.1-.06 7.47 7.47 0 0 0 8.22.68c.17-.1.37-.12.55-.07l3.25.87-.87-3.25a.75.75 0 0 1 .07-.55 7.5 7.5 0 0 0-2.91-10.12 9.93 9.93 0 0 0-.75-1.98 9 9 0 0 1 5.12 12.54l.9 3.4c.25.92-.6 1.77-1.52 1.52l-3.4-.9A8.97 8.97 0 0 1 17 25ZM12.5 9.26"/></svg>