<svg width="32" height="32" viewBox="0 0 32 32" xmlns="http://www.w3.org/2000/svg"><path d="M4 13.5a8.5 8.5 0 1 1 4.58 7.54 1 1 0 0 0-.72-.08L4 22l1.03-3.85a1 1 0 0 0-.08-.73A8.46 8.46 0 0 1 4 13.5ZM12.5 3A10.5 10.5 0 0 0 3 18l-.93 3.48a2 2 0 0 0 2.45 2.45l3.49-.94A10.5 10.5 0 1 0 12.5 3Zm7 26c-3.12 0-5.93-1.36-7.85-3.53a12.11 12.11 0 0 0 2.8-.13 8.46 8.46 0 0 0 8.97.7 1 1 0 0 1 .72-.08L28 27l-1.03-3.85a1 1 0 0 1 .08-.73 8.49 8.49 0 0 0-2.7-10.92c-.16-.93-.43-1.84-.8-2.7A10.5 10.5 0 0 1 29 23l.94 3.48a2 2 0 0 1-2.45 2.45l-3.49-.94C22.63 28.64 21.1 29 19.5 29Zm-5.75-10.25a1.25 1.25 0 1 1-2.5 0 1.25 1.25 0 0 1 2.5 0ZM11 10.01Zm0 0Zm0 0a1.12 1.12 0 0 1 .16-.47c.12-.2.41-.54 1.34-.54.93 0 1.22.34 1.34.53A1.12 1.12 0 0 1 14 10v.01c0 .48-.3.83-1 1.63A4.91 4.91 0 0 0 11.5 15a1 1 0 1 0 2 0c0-.81.39-1.34 1-2.04l.14-.16C15.2 12.19 16 11.28 16 10v-.03a1.76 1.76 0 0 0 0-.14 3 3 0 0 0-.46-1.36C15.03 7.66 14.07 7 12.5 7s-2.53.66-3.04 1.47A3.12 3.12 0 0 0 9 9.97V10a1 1 0 0 0 2 .02Zm0 0Zm3 0"/></svg>