<svg width="32" height="32" viewBox="0 0 32 32" xmlns="http://www.w3.org/2000/svg"><path d="M12.5 3a10.5 10.5 0 0 0-9.4 15.19L2.05 22.1a1.5 1.5 0 0 0 1.84 1.83L7.8 22.9A10.5 10.5 0 1 0 12.5 3Zm1.95 22.34a12.08 12.08 0 0 1-2.8.13 10.47 10.47 0 0 0 12.55 2.42l3.91 1.05a1.5 1.5 0 0 0 1.84-1.83l-1.05-3.92A10.44 10.44 0 0 0 30 18.5c0-4.36-2.66-8.1-6.45-9.7.36.86.63 1.77.79 2.7a8.5 8.5 0 0 1 2.61 11.09 1 1 0 0 0-.09.74l.93 3.46-3.45-.93a1 1 0 0 0-.75.1 8.46 8.46 0 0 1-9.14-.62ZM11.5 15c0-1.66.88-2.66 1.6-3.48l.02-.02c.56-.64.88-1.02.88-1.5-.01-.29-.18-1-1.5-1-1.43 0-1.5.83-1.5 1a1 1 0 0 1-1 1 1 1 0 0 1-1-1c0-1.21.93-3 3.5-3S16 8.79 16 10s-.73 2.09-1.38 2.83l-.02.02c-.59.67-1.1 1.25-1.1 2.15a1 1 0 0 1-1 1 1 1 0 0 1-1-1Zm2.25 3.75a1.25 1.25 0 1 1-2.5 0 1.25 1.25 0 0 1 2.5 0Z"/></svg>