<svg width="16" height="16" viewBox="0 0 16 16" xmlns="http://www.w3.org/2000/svg"><path d="M6.85.15a.5.5 0 1 0-.7.7L7.29 2H5a3 3 0 0 0-3 3v2.3L.85 6.14a.5.5 0 1 0-.7.7l2 2a.5.5 0 0 0 .7 0l2-2a.5.5 0 1 0-.7-.7L3 7.29V5c0-1.1.9-2 2-2h2.3L6.14 4.15a.5.5 0 1 0 .7.7l2-2a.5.5 0 0 0 0-.7l-2-2ZM2 10v1.5A2.5 2.5 0 0 0 4.5 14h7a2.5 2.5 0 0 0 2.5-2.5v-7A2.5 2.5 0 0 0 11.5 2H10v3H8.12l-.56.56c-.3.3-.68.44-1.06.44H10v4H6V6.5c0 .38-.15.77-.44 1.06L5 8.12V10H2Zm4 3v-2h4v2H6Zm-1-2v2h-.5A1.5 1.5 0 0 1 3 11.5V11h2Zm8-5v4h-2V6h2Zm0 5v.5c0 .83-.67 1.5-1.5 1.5H11v-2h2Zm0-6h-2V3h.5c.83 0 1.5.67 1.5 1.5V5Z"/></svg>