<svg width="16" height="16" viewBox="0 0 16 16" xmlns="http://www.w3.org/2000/svg"><path d="M4 3c0-1.1.9-2 2-2h4a2 2 0 0 1 2 2v2.09c-.2.07-.4.19-.56.35l-.44.44V3a1 1 0 0 0-1-1H6a1 1 0 0 0-1 1v2.88l-.44-.44A1.5 1.5 0 0 0 4 5.09V3Zm7 8.12V13a1 1 0 0 1-1 1H6a1 1 0 0 1-1-1v-1.88l-.44.44a1.5 1.5 0 0 1-.56.35V13c0 1.1.9 2 2 2h4a2 2 0 0 0 2-2v-1.09a1.5 1.5 0 0 1-.56-.35l-.44-.44ZM3.15 6.85a.5.5 0 1 1 .7-.7l2 2a.5.5 0 0 1 0 .7l-2 2a.5.5 0 0 1-.7-.7L4.29 9H1.5a.5.5 0 0 1 0-1h2.8L3.14 6.85Zm9.7-.7c.2.2.2.5 0 .7L11.71 8h2.79a.5.5 0 0 1 0 1h-2.8l1.15 1.15a.5.5 0 1 1-.7.7l-2-2a.5.5 0 0 1 0-.7l2-2c.2-.2.5-.2.7 0Z"/></svg>