<svg width="28" height="28" viewBox="0 0 28 28" xmlns="http://www.w3.org/2000/svg"><path d="M25.98 8.44a2.25 2.25 0 0 0-2.23-1.94h-7.93l-4.17 3.48-.16.12c-.32.22-.7.36-1.09.4H2v11.4A2.25 2.25 0 0 0 4.26 24h11.77A6.5 6.5 0 0 1 26 15.8v-7.2l-.02-.16ZM11.49 4.4c-.37-.26-.82-.4-1.28-.4H4.1A2.25 2.25 0 0 0 2 6.26V9H10.31c.1-.02.2-.06.3-.11l.08-.06 3.06-2.56-2.1-1.75-.16-.12ZM21.5 26a5.5 5.5 0 1 1 0-11 5.5 5.5 0 0 1 0 11Zm3-5a.5.5 0 0 0 0-1h-4.8l1.65-1.65a.5.5 0 0 0-.7-.7l-2.5 2.5a.5.5 0 0 0 0 .7l2.5 2.5a.5.5 0 0 0 .7-.7L19.71 21h4.79Z"/></svg>