<svg width="32" height="32" viewBox="0 0 32 32" xmlns="http://www.w3.org/2000/svg"><path d="M4 10a4 4 0 0 1 4-4h3.5a1 1 0 0 1 .62.22L14.35 8H24a4 4 0 0 1 4 4v3.52a8.97 8.97 0 0 0-2-1V12a2 2 0 0 0-2-2h-8.81l-3.02 2.74a1 1 0 0 1-.67.26H6v9c0 1.1.9 2 2 2h6.05c.08.7.24 1.36.46 2H8a4 4 0 0 1-4-4V10Zm2 0v1h5.11l1.78-1.61L11.15 8H8a2 2 0 0 0-2 2Zm9.5 13a7.5 7.5 0 1 0 15 0 7.5 7.5 0 0 0-15 0Zm12.25 1h-7.69l2.72 2.72a.75.75 0 1 1-1.06 1.06l-4-4a.75.75 0 0 1 0-1.06l4-4a.75.75 0 1 1 1.06 1.06l-2.72 2.72h7.69a.75.75 0 0 1 0 1.5Z"/></svg>