<svg width="16" height="16" viewBox="0 0 16 16" xmlns="http://www.w3.org/2000/svg"><path d="M5.96 2.3a.5.5 0 0 0-.92 0l-1.66 4-.01.02-.83 1.99a.5.5 0 1 0 .92.38L4.16 7h2.67l.7 1.7a.5.5 0 0 0 .93-.4l-.81-1.94a.5.5 0 0 0-.04-.1L5.96 2.31ZM5.5 3.8 6.42 6H4.58l.92-2.2Zm-.15 6.35a.5.5 0 1 0-.7.7l.64.65H2.5a.5.5 0 0 0 0 1h2.8l-.65.65a.5.5 0 1 0 .7.7l1.5-1.5a.5.5 0 0 0 0-.7l-1.5-1.5ZM10.5 9a.5.5 0 0 0 .46-.3l2.5-6a.5.5 0 1 0-.92-.4L10.5 7.2 8.46 2.3a.5.5 0 1 0-.92.4l2.5 6c.08.18.26.3.46.3Zm.85 4.85a.5.5 0 0 1-.7 0l-1.5-1.5a.5.5 0 0 1 0-.7l1.5-1.5a.5.5 0 1 1 .7.7l-.64.65h2.79a.5.5 0 0 1 0 1h-2.8l.65.65c.2.2.2.5 0 .7Z"/></svg>