<svg width="16" height="16" viewBox="0 0 16 16" xmlns="http://www.w3.org/2000/svg"><path d="M5.76 7.02l1.07-.98a2 2 0 00.52-2.18L6.92 2.7a1.99 1.99 0 00-2.45-1.2c-1.68.51-3.03 2.02-2.75 3.9a13.73 13.73 0 004.94 8.54c1.5 1.2 3.48.8 4.77-.4.76-.72.84-1.9.18-2.71l-.8-.96a2 2 0 00-2.14-.64l-1.39.44a6.6 6.6 0 01-.93-1.23 6.27 6.27 0 01-.6-1.42zM2.7 5.26c-.19-1.26.7-2.39 2.06-2.8a.99.99 0 011.2.6l.44 1.15a1 1 0 01-.26 1.1L4.86 6.48a.5.5 0 00-.15.47l.01.05a5.12 5.12 0 00.16.58 7.27 7.27 0 001.8 2.89l.1.1.04.03a.5.5 0 00.48.1l1.67-.53a1 1 0 011.07.32l.8.96c.33.4.29 1-.1 1.34-1.03.97-2.46 1.17-3.45.37a12.73 12.73 0 01-4.58-7.91zm11.64-3.61c.2.2.2.5 0 .7L12.71 4l1.64 1.65a.5.5 0 01-.7.7L12 4.71l-1.65 1.64a.5.5 0 01-.7-.7L11.29 4 9.65 2.35a.5.5 0 11.7-.7L12 3.29l1.65-1.64c.2-.2.5-.2.7 0z"/></svg>