<svg width="24" height="24" viewBox="0 0 24 24" xmlns="http://www.w3.org/2000/svg"><path d="M16.16 1.83l-4 8A1.5 1.5 0 0013.51 12h8a1.5 1.5 0 001.33-2.17l-4-8a1.5 1.5 0 00-2.68 0zM18 4.5v3a.5.5 0 01-1 0v-3a.5.5 0 011 0zm-.5 5.5a.5.5 0 110-1 .5.5 0 010 1zM5.25 4h8.7l-.74 1.5H5.25c-.92 0-1.67.7-1.74 1.6l-.01.15v.43l7.9 4.15c.43.69 1.19 1.17 2.1 1.17h.11l-1.26.66c-.19.1-.4.12-.6.05l-.1-.05L3.5 9.37v7.38c0 .92.7 1.67 1.6 1.74l.15.01h13.5c.92 0 1.67-.7 1.74-1.6l.01-.15V13h1c.17 0 .34-.02.5-.05v3.8a3.25 3.25 0 01-3.07 3.24l-.18.01H5.25a3.25 3.25 0 01-3.24-3.07L2 16.75v-9.5a3.25 3.25 0 013.07-3.24L5.25 4z"/></svg>