<svg width="24" height="24" viewBox="0 0 24 24" xmlns="http://www.w3.org/2000/svg"><path d="M6.08 9.02a6 6 0 0 1 11.84 0 4.5 4.5 0 0 1 3.75 6.18l-1.68-1.69a1.75 1.75 0 0 0-2.82 1.99h-2.34a1.75 1.75 0 0 0-2.82-1.99l-2.5 2.5A1.75 1.75 0 0 0 9.17 18H6.5a4.5 4.5 0 0 1-.42-8.98Zm7.7 6.26a.75.75 0 1 0-1.06-1.06l-2.5 2.5c-.3.3-.3.77 0 1.06l2.5 2.5a.75.75 0 1 0 1.06-1.06L12.56 18h6.88l-1.22 1.22a.75.75 0 1 0 1.06 1.06l2.5-2.5c.3-.3.3-.77 0-1.06l-2.5-2.5a.75.75 0 1 0-1.06 1.06l1.22 1.22h-6.88l1.22-1.22Z"/></svg>