<svg width="20" height="20" viewBox="0 0 20 20" xmlns="http://www.w3.org/2000/svg"><path d="M14.65 8.25C14.4 5.92 12.82 4 10 4 7.18 4 5.59 5.9 5.35 8.25H5.1A3.34 3.34 0 0 0 2 11.62 3.33 3.33 0 0 0 5.28 15h2.8a1.5 1.5 0 0 1 .36-1.56l2-2A1.5 1.5 0 0 1 12.9 13h1.18a1.5 1.5 0 0 1 2.47-1.56l1.27 1.27c.1-.34.17-.7.17-1.09a3.33 3.33 0 0 0-3.28-3.37h-.07Zm-2.8 4.6a.5.5 0 0 0-.7-.7l-2 2a.5.5 0 0 0 0 .7l2 2a.5.5 0 0 0 .7-.7L10.71 15h5.58l-1.14 1.15a.5.5 0 0 0 .7.7l2-2a.5.5 0 0 0 0-.7l-2-2a.5.5 0 0 0-.7.7L16.29 14h-5.58l1.14-1.15Z"/></svg>