<svg width="20" height="20" viewBox="0 0 20 20" xmlns="http://www.w3.org/2000/svg"><path d="M3 6a3 3 0 0 1 3-3h8a3 3 0 0 1 3 3v3.4a3 3 0 0 0-4.5 2.6H11a.5.5 0 0 0 0 1h1.67a3 3 0 0 0 .6 1.01A2.5 2.5 0 0 0 11.04 17H6a3 3 0 0 1-3-3V6Zm6.35 1.1a.5.5 0 0 0-.7-.7L7.23 7.8l-.4-.35a.5.5 0 0 0-.67.73l.75.69c.2.18.5.17.7-.02L9.34 7.1Zm0 4.3a.5.5 0 0 0-.7 0l-1.42 1.4-.4-.35a.5.5 0 0 0-.67.73l.75.69c.2.18.5.17.7-.02l1.74-1.75a.5.5 0 0 0 0-.7Zm1.15-3.9c0 .28.22.5.5.5h2.5a.5.5 0 0 0 0-1H11a.5.5 0 0 0-.5.5Zm7 4.5a2 2 0 1 1-4 0 2 2 0 0 1 4 0Zm1.5 4.5c0 1.25-1 2.5-3.5 2.5S12 17.75 12 16.5c0-.83.67-1.5 1.5-1.5h4c.83 0 1.5.67 1.5 1.5Z"/></svg>