<svg width="32" height="32" viewBox="0 0 32 32" xmlns="http://www.w3.org/2000/svg"><path d="M11 12h6.6c.14-.27.3-.52.47-.76l-1.9-2.35a3 3 0 014.49-3.97l7.17 7.46A5.99 5.99 0 0124.11 23a4 4 0 01-4 4H11a5 5 0 01-5-5v-2.1a5 5 0 115-7.9zm8.22-5.7a1 1 0 00-1.5 1.33l3 3.72-.65.63a3.5 3.5 0 00-.87 1.35l-.24.67h-7.09A4 4 0 008 18v4a3 3 0 003 3h5v-.5a2.5 2.5 0 00-2.5-2.5H12a1 1 0 110-2h1.5a4.5 4.5 0 014.5 4.5v.5h2.1a2 2 0 002-2v-2.28l1.18.22a4 4 0 003.24-7.04l-.05-.04-7.25-7.55zM6 17.84a6 6 0 013.03-5.04A3 3 0 106 17.83z"/></svg>