<svg width="20" height="20" viewBox="0 0 20 20" xmlns="http://www.w3.org/2000/svg"><path d="M4.5 3C3.67 3 3 3.67 3 4.5v6c0 .83.67 1.5 1.5 1.5H6v1H4.5A2.5 2.5 0 0 1 2 10.5v-6A2.5 2.5 0 0 1 4.5 2h6A2.5 2.5 0 0 1 13 4.5v6a2.5 2.5 0 0 1-2.5 2.5H9v-1h1.5c.83 0 1.5-.67 1.5-1.5v-6c0-.83-.67-1.5-1.5-1.5h-6Zm5 4H11v1H9.5C8.67 8 8 8.67 8 9.5v6c0 .83.67 1.5 1.5 1.5h6c.83 0 1.5-.67 1.5-1.5v-6c0-.83-.67-1.5-1.5-1.5H14V7h1.5A2.5 2.5 0 0 1 18 9.5v6a2.5 2.5 0 0 1-2.5 2.5h-6A2.5 2.5 0 0 1 7 15.5v-6A2.5 2.5 0 0 1 9.5 7Z"/></svg>