<svg width="24" height="24" viewBox="0 0 24 24" xmlns="http://www.w3.org/2000/svg"><path d="M8 2H5a3 3 0 0 0-3 3v3h2.7A2.5 2.5 0 0 1 7 4.5c.36 0 .7.07 1 .2V2ZM2 9.5V14a3 3 0 0 0 3 3h3v-6.44l-1.72 1.72a.75.75 0 0 1-1.06-1.06L6.94 9.5H2ZM9.5 17h1.52A6.5 6.5 0 0 1 22 12.81V9.5H10.56l1.72 1.72a.75.75 0 1 1-1.06 1.06L9.5 10.56V17ZM22 8h-9.2a2.5 2.5 0 0 0-2.3-3.5c-.36 0-.7.07-1 .2V2H19a3 3 0 0 1 3 3v3ZM10.5 8h-1V7a1 1 0 1 1 1 1ZM8 8H7a1 1 0 1 1 1-1v1Zm15 9.5a5.5 5.5 0 1 1-11 0 5.5 5.5 0 0 1 11 0Zm-8.5-.5a.5.5 0 0 0 0 1h4.8l-1.65 1.65a.5.5 0 0 0 .7.7l2.5-2.5a.5.5 0 0 0 0-.7l-2.5-2.5a.5.5 0 0 0-.7.7L19.29 17H14.5Z"/></svg>