<svg width="16" height="16" viewBox="0 0 16 16" xmlns="http://www.w3.org/2000/svg"><path d="M2 10c0 1.8 1.55 3.65 4.22 3.96a5.5 5.5 0 0 1-.72-1.16C3.88 12.33 3 11.13 3 10v-.5c0-.28.22-.5.5-.5h1.7c.1-.35.24-.68.4-1H3.5C2.67 8 2 8.67 2 9.5v.5Zm7.75-5.75c0 .29-.04.56-.12.82-.49.08-.95.22-1.39.41A1.74 1.74 0 0 0 7 2.5a1.75 1.75 0 1 0 .4 3.45c-.4.28-.76.6-1.07.97a2.75 2.75 0 1 1 3.42-2.67ZM15 10.5a4.5 4.5 0 1 1-9 0 4.5 4.5 0 0 1 9 0Zm-4.02-2.64a.5.5 0 0 0-.96 0L9.55 9.4H8c-.48 0-.68.65-.3.95l1.26.94-.48 1.53c-.15.49.38.89.77.59l1.25-.95 1.25.95c.4.3.92-.1.77-.59l-.48-1.53 1.25-.94c.4-.3.2-.95-.3-.95h-1.54l-.47-1.53Z"/></svg>