<svg width="32" height="32" viewBox="0 0 32 32" xmlns="http://www.w3.org/2000/svg"><path d="M15 16a7 7 0 1 0 0-14 7 7 0 0 0 0 14Zm-8.5 2A3.5 3.5 0 0 0 3 21.5v.5c0 2.4 1.52 4.42 3.68 5.8A15.67 15.67 0 0 0 15 30c.74 0 1.47-.04 2.19-.13A8.98 8.98 0 0 1 15.52 18H6.5Zm24 5a7.5 7.5 0 1 1-15 0 7.5 7.5 0 0 1 15 0Zm-8.21-4.86-.94 2.83h-3a.75.75 0 0 0-.43 1.36l2.4 1.7-.92 2.8a.75.75 0 0 0 1.14.84L23 25.93l2.46 1.74a.75.75 0 0 0 1.14-.84l-.93-2.8 2.41-1.7a.75.75 0 0 0-.43-1.36h-3l-.94-2.83a.75.75 0 0 0-1.42 0Z"/></svg>