<svg width="1892" height="1715" xmlns="http://www.w3.org/2000/svg" xmlns:xlink="http://www.w3.org/1999/xlink" xml:space="preserve" overflow="hidden"><defs><clipPath id="clip0"><rect x="1206" y="342" width="1892" height="1715"/></clipPath></defs><g clip-path="url(#clip0)" transform="translate(-1206 -342)"><path d="M1920.03 871.888C1930.4 866.704 1942.6 866.704 1952.97 871.888L2247.64 1019.21C2260.12 1025.45 2268 1038.2 2268 1052.15 2268 1066.1 2260.12 1078.85 2247.64 1085.09L2018.86 1199.47 2247.64 1313.84C2260.12 1320.08 2268 1332.83 2268 1346.79 2268 1360.74 2260.12 1373.49 2247.64 1379.73L1973.33 1516.87 1973.33 1813.17C1973.33 1826.57 1966.05 1838.92 1954.32 1845.4 1942.59 1851.89 1928.26 1851.49 1916.9 1844.36L1622.24 1659.25C1611.51 1652.51 1605 1640.73 1605 1628.06L1605 1052.15C1605 1038.2 1612.88 1025.45 1625.36 1019.21L1920.03 871.888ZM1678.67 1074.91 1678.67 1607.71 1899.67 1746.54 1899.67 1494.1C1899.67 1480.15 1907.55 1467.4 1920.03 1461.16L2148.81 1346.79 1920.03 1232.41C1907.55 1226.17 1899.67 1213.42 1899.67 1199.47 1899.67 1185.52 1907.55 1172.76 1920.03 1166.53L2148.81 1052.15 1936.5 946.006 1678.67 1074.91Z" fill="#FFFFFF" fill-rule="evenodd"/><path d="M3097.65 700.22C3097.65 773.806 3098.56 694.274 3097.45 768.941 3095.34 772.668 3096.53 833.809 3093.42 865.99 3090.3 898.17 3086.22 930.626 3078.76 962.023 3067.92 1007.66 3055.26 1053.05 3040.12 1097.44 3018.75 1160.03 2990.88 1220.11 2955.12 1275.82 2926.21 1320.86 2895.6 1365 2862.87 1407.32 2836.72 1441.13 2807.81 1473.19 2777.32 1503.18 2723.24 1556.38 2646.87 1636.72 2599.99 1644.61 2553.11 1652.51 2512.38 1592.16 2496.03 1550.54 2479.69 1508.92 2503.15 1448.68 2501.92 1394.91 2500.7 1341.14 2501.33 1282.77 2488.66 1227.92 2475.42 1170.58 2456.16 1115.39 2426.91 1063.72 2397.49 1011.73 2361.68 964.991 2318.47 924.087 2264.48 872.964 2202.59 833.988 2133.52 806.007 2066.9 779.019 1997.41 765.912 1926.17 764.538 1890.06 763.845 1853.66 769.667 1817.64 774.462 1758.9 782.285 1703.93 802.882 1651.62 829.899 1610.41 851.181 1572.44 877.526 1537.21 908.165 1484.21 954.25 1441.15 1007.87 1407.5 1069.29 1383.92 1112.34 1365.02 1157.47 1354.2 1205.29 1346.39 1239.78 1339.32 1275.01 1337.69 1310.17 1335.83 1350.44 1337.03 1391.5 1343.02 1431.3 1349.2 1472.34 1359.91 1513.26 1373.71 1552.45 1393.92 1609.86 1423.09 1663.42 1464.33 1708.75 1494.93 1742.39 1525.97 1776.49 1561.35 1804.69 1616.65 1848.8 1679.47 1880.22 1747.48 1902.02 1808.65 1921.63 1871.28 1931.42 1934.62 1934.19 1987.55 1936.51 2040.97 1933.65 2093.85 1929.25 2144.18 1925.06 2194.31 1917.2 2244.14 1908.64 2336.14 1892.83 2424.24 1863.24 2508.5 1823.8 2562.24 1798.65 2613.19 1767.54 2665.47 1739.24 2669.08 1737.28 2673.34 1736.51 2677.3 1735.18L2679.36 1738.35C2677.29 1741.34 2675.59 1744.71 2673.08 1747.28 2660.43 1760.21 2647.49 1772.85 2634.81 1785.74 2590.86 1830.44 2541.28 1868.17 2488.96 1902.29 2438.61 1935.14 2385.27 1962.69 2329.28 1984.53 2275.4 2005.57 2220.49 2023.93 2163.01 2032.61 2108.38 2040.87 2053.78 2050.19 1998.81 2055.1 1958.69 2058.68 1918 2056.18 1877.56 2055.79 1824.07 2055.27 1771.94 2045.58 1720.13 2032.7 1645.86 2014.23 1576.98 1983.22 1513.53 1941.36 1459.48 1905.7 1411.15 1862.85 1369.79 1812.25 1337.84 1773.16 1309.16 1732.07 1286.94 1686.93 1271.32 1655.21 1257.47 1622.41 1245.58 1589.12 1229.45 1543.96 1219.76 1481.38 1213.23 1449.42 1206.69 1417.45 1208.1 1400.01 1206.36 1397.32 1206.36 1335.99 1205.44 1379.19 1206.53 1316.77 1208.63 1313.48 1210.44 1269.67 1213.31 1248.53 1216.17 1227.4 1219.47 1209.33 1223.71 1189.98 1238.81 1121.05 1264.08 1056.03 1298.83 994.534 1326.45 945.66 1359.48 900.764 1397.52 859.811 1437.48 816.798 1482 779.066 1531.85 747.306 1570.72 722.536 1610.84 700.527 1654.07 685.341 1694.66 671.086 1736.11 658.597 1778.05 649.158 1809.1 642.173 1841.46 639.184 1873.35 638.136 1980.21 634.636 2087.37 643.856 2194.03 632.141 2226.49 628.578 2258.74 621.936 2290.64 614.735 2337.19 604.231 2381.06 585.473 2422.74 562.87 2482.47 530.477 2536.38 489.705 2583.22 440.1 2588.29 434.739 2593.44 426.249 2600.96 431.898 2605.45 435.27 2607.62 444.77 2607.08 451.201 2605.61 468.805 2603.09 486.45 2599.31 503.709 2583.79 574.425 2559.82 641.958 2522.04 704.154 2517.11 712.255 2513.36 721.071 2509.07 729.556L2511.88 732.429C2516.32 731.612 2520.88 731.213 2525.17 729.908L2583.23 711.791C2635.6 695.79 2684.87 672.717 2731.1 643.709 2784.14 610.421 2830.53 569.338 2870.62 520.821 2913.01 469.51 2947.69 413.377 2980.18 355.607 2983.55 349.63 2990.34 343.173 2996.48 342.046 3000.37 341.331 3007.7 349.183 3010.6 354.708 3055.69 440.588 3084.44 531.494 3093.55 628.346 3093.78 630.742 3095.91 697.967 3097.65 700.22Z" fill="#FFFFFF" fill-rule="evenodd"/></g></svg>