<svg width="1942" height="1761" xmlns="http://www.w3.org/2000/svg" xmlns:xlink="http://www.w3.org/1999/xlink" xml:space="preserve" overflow="hidden"><g transform="translate(-1182 -319)"><path d="M3100 755.232C3095.42 829.735 3098.17 737.367 3097.05 812.034 3094.94 815.761 3096.14 840.991 3093.02 865.99 3089.91 890.988 3085.83 930.626 3078.37 962.023 3067.53 1007.66 3054.87 1053.05 3039.72 1097.44 3018.36 1160.03 2990.49 1220.11 2954.73 1275.82 2925.83 1320.86 2895.22 1365 2862.49 1407.32 2836.34 1441.13 2807.44 1473.19 2776.95 1503.18 2722.87 1556.38 2646.51 1636.72 2599.63 1644.61 2552.75 1652.51 2512.02 1592.16 2495.68 1550.54 2479.34 1508.92 2502.8 1448.68 2501.57 1394.91 2500.34 1341.14 2500.97 1282.77 2488.31 1227.92 2475.07 1170.58 2455.81 1115.39 2426.56 1063.72 2397.14 1011.73 2361.33 964.991 2318.13 924.087 2264.14 872.964 2202.25 833.988 2133.19 806.007 2066.57 779.019 1997.09 765.912 1925.85 764.538 1889.74 763.845 1853.34 769.667 1817.33 774.462 1758.59 782.285 1703.63 802.882 1651.32 829.899 1610.11 851.181 1572.14 877.526 1536.91 908.165 1483.92 954.25 1440.87 1007.87 1407.22 1069.29 1383.63 1112.34 1364.74 1157.47 1353.92 1205.29 1346.11 1239.78 1339.04 1275.01 1337.41 1310.17 1335.55 1350.44 1336.75 1391.5 1342.74 1431.3 1348.92 1472.34 1359.63 1513.26 1373.43 1552.45 1393.64 1609.86 1422.8 1663.42 1464.04 1708.75 1494.63 1742.39 1525.68 1776.49 1561.05 1804.69 1616.35 1848.8 1679.17 1880.22 1747.17 1902.02 1808.33 1921.63 1870.96 1931.42 1934.3 1934.19 1987.23 1936.51 2040.64 1933.65 2093.52 1929.25 2143.85 1925.06 2193.98 1917.2 2243.8 1908.64 2335.79 1892.83 2423.89 1863.24 2508.15 1823.8 2561.88 1798.65 2612.83 1767.54 2665.1 1739.24 2668.72 1737.28 2672.97 1736.51 2676.93 1735.18L2678.99 1738.35C2676.92 1741.34 2675.22 1744.71 2672.71 1747.28 2660.07 1760.21 2647.13 1772.85 2634.45 1785.74 2590.5 1830.44 2540.92 1868.17 2488.6 1902.29 2438.25 1935.14 2384.92 1962.69 2328.94 1984.53 2275.05 2005.57 2220.15 2023.93 2162.67 2032.61 2108.05 2040.87 2053.45 2050.19 1998.49 2055.1 1958.37 2058.68 1917.68 2056.18 1877.25 2055.79 1823.76 2055.27 1771.63 2045.58 1719.83 2032.7 1645.56 2014.23 1576.68 1983.22 1513.24 1941.36 1459.19 1905.7 1410.86 1862.85 1369.51 1812.25 1337.56 1773.16 1308.88 1732.07 1286.66 1686.93 1271.05 1655.21 1257.19 1622.41 1245.3 1589.12 1229.17 1543.96 1219.49 1485.51 1212.96 1449.42 1206.42 1413.33 1207.83 1375.26 1206.09 1372.57 1206.09 1311.24 1204.25 1375.52 1205.35 1313.1 1207.44 1309.81 1210.02 1269.05 1213.03 1248.53 1216.05 1228.01 1219.2 1209.33 1223.43 1189.98 1238.53 1121.05 1263.8 1056.03 1298.55 994.534 1326.17 945.66 1359.2 900.764 1397.24 859.811 1437.19 816.798 1481.71 779.066 1531.55 747.306 1570.42 722.536 1610.54 700.527 1653.77 685.341 1694.35 671.086 1735.81 658.597 1777.74 649.158 1808.79 642.173 1841.14 639.184 1873.04 638.136 1979.89 634.636 2087.04 643.856 2193.69 632.141 2226.15 628.578 2258.4 621.936 2290.3 614.735 2336.85 604.231 2380.72 585.473 2422.39 562.87 2482.11 530.477 2536.02 489.705 2582.86 440.1 2587.92 434.739 2593.08 426.249 2600.6 431.898 2605.08 435.27 2607.26 444.77 2606.72 451.201 2605.25 468.805 2602.73 486.45 2598.95 503.709 2583.43 574.425 2559.46 641.958 2521.68 704.154 2516.76 712.255 2513.01 721.071 2508.71 729.556L2511.52 732.429C2515.96 731.612 2520.53 731.213 2524.81 729.908L2582.86 711.791C2635.24 695.79 2684.51 672.717 2730.72 643.709 2783.77 610.421 2830.15 569.338 2870.24 520.821 2912.63 469.51 2947.31 413.377 2979.8 355.607 2983.16 349.63 2989.95 343.173 2996.09 342.046 2999.98 341.331 3007.31 349.183 3010.21 354.708 3055.3 440.588 3084.04 531.494 3093.16 628.346 3093.38 630.742 3098.27 752.979 3100 755.232Z" stroke="#FFFFFF" stroke-width="45.8333" stroke-miterlimit="8" fill="#682A7B" fill-rule="evenodd"/><path d="M1920.03 871.888C1930.4 866.704 1942.6 866.704 1952.97 871.888L2247.64 1019.21C2260.12 1025.45 2268 1038.2 2268 1052.15 2268 1066.1 2260.12 1078.85 2247.64 1085.09L2018.86 1199.47 2247.64 1313.84C2260.12 1320.08 2268 1332.83 2268 1346.79 2268 1360.74 2260.12 1373.49 2247.64 1379.73L1973.33 1516.87 1973.33 1813.17C1973.33 1826.57 1966.05 1838.92 1954.32 1845.4 1942.59 1851.89 1928.26 1851.49 1916.9 1844.36L1622.24 1659.25C1611.51 1652.51 1605 1640.73 1605 1628.06L1605 1052.15C1605 1038.2 1612.88 1025.45 1625.36 1019.21L1920.03 871.888Z" fill="#FFFFFF" fill-rule="evenodd"/><path d="M1920.03 871.888C1930.4 866.704 1942.6 866.704 1952.97 871.888L2247.64 1019.21C2260.12 1025.45 2268 1038.2 2268 1052.15 2268 1066.1 2260.12 1078.85 2247.64 1085.09L2018.86 1199.47 2247.64 1313.84C2260.12 1320.08 2268 1332.83 2268 1346.79 2268 1360.74 2260.12 1373.49 2247.64 1379.73L1973.33 1516.87 1973.33 1813.17C1973.33 1826.57 1966.05 1838.92 1954.32 1845.4 1942.59 1851.89 1928.26 1851.49 1916.9 1844.36L1622.24 1659.25C1611.51 1652.51 1605 1640.73 1605 1628.06L1605 1052.15C1605 1038.2 1612.88 1025.45 1625.36 1019.21L1920.03 871.888ZM1678.67 1074.91 1678.67 1607.71 1899.67 1746.54 1899.67 1494.1C1899.67 1480.15 1907.55 1467.4 1920.03 1461.16L2148.81 1346.79 1920.03 1232.41C1907.55 1226.17 1899.67 1213.42 1899.67 1199.47 1899.67 1185.52 1907.55 1172.76 1920.03 1166.53L2148.81 1052.15 1936.5 946.006 1678.67 1074.91Z" fill="#4A81C3" fill-rule="evenodd"/></g></svg>