<svg width="20" height="20" viewBox="0 0 20 20" xmlns="http://www.w3.org/2000/svg"><path d="M3 5.5A2.5 2.5 0 015.5 3h7A2.5 2.5 0 0115 5.5v7a2.5 2.5 0 01-2.5 2.5h-7A2.5 2.5 0 013 12.5v-7zM5.5 4C4.67 4 4 4.67 4 5.5v7c0 .83.67 1.5 1.5 1.5h7c.83 0 1.5-.67 1.5-1.5v-7c0-.83-.67-1.5-1.5-1.5h-7zm2 13a2.5 2.5 0 01-2-1h7a3.5 3.5 0 003.5-3.5v-7c.6.46 1 1.18 1 2v5a4.5 4.5 0 01-4.5 4.5h-5zM6.85 6.15a.5.5 0 10-.7.7L8.29 9l-2.14 2.15a.5.5 0 00.7.7L9 9.71l2.15 2.14a.5.5 0 00.7-.7L9.71 9l2.14-2.15a.5.5 0 00-.7-.7L9 8.29 6.85 6.15z"/></svg>