<svg width="20" height="20" viewBox="0 0 20 20" xmlns="http://www.w3.org/2000/svg"><path d="M17 9.6V6a1 1 0 0 0-1-1H4a1 1 0 0 0-1 1v8a1 1 0 0 0 1 1h5.02c.03.34.1.68.19 1H4a2 2 0 0 1-2-2V6c0-1.1.9-2 2-2h12a2 2 0 0 1 2 2v4.26a5.5 5.5 0 0 0-1-.66ZM9 10a2 2 0 0 0-.27-1h2.54a2 2 0 0 0-.26 1.24c.34-.27.7-.5 1.1-.7a1 1 0 0 1 1.33-.44 5.53 5.53 0 0 1 1.3-.1A2 2 0 0 0 13 8H7a2 2 0 1 0 2 2Zm-2 1a1 1 0 1 1 0-2 1 1 0 0 1 0 2Zm12 3.5a4.5 4.5 0 1 1-9 0 4.5 4.5 0 0 1 9 0Zm-7 0c0 .28.22.5.5.5h4a.5.5 0 0 0 0-1h-4a.5.5 0 0 0-.5.5Z"/></svg>