<svg width="20" height="20" viewBox="0 0 20 20" xmlns="http://www.w3.org/2000/svg"><path d="M6.92 4.83a3.5 3.5 0 0 1 6.25.17 3.75 3.75 0 0 0-3.39 2.32 6.15 6.15 0 0 0-2.86-2.49ZM17 9a3.76 3.76 0 0 0-2.7-3.85A4.5 4.5 0 0 0 6 4.48 10.07 10.07 0 0 0 3.14 4a9.5 9.5 0 0 0-.67 0 .5.5 0 0 0-.47.47 4.84 4.84 0 0 0 0 .67c.01.41.05.98.17 1.62.12.68.33 1.46.68 2.23H2.5a.5.5 0 0 0-.5.5v.5c0 .7.09 1.36.25 2h15.5c.16-.64.25-1.3.25-2v-.5a.5.5 0 0 0-.5-.5H17ZM4 9a7.87 7.87 0 0 1-.83-2.4A10.47 10.47 0 0 1 3 5a9.4 9.4 0 0 1 1.59.16c1.18.22 2.57.69 3.57 1.7A5.83 5.83 0 0 1 9.48 9H7.7L5.85 7.15a.5.5 0 1 0-.7.7L6.29 9H4Zm6.54 0-.02-.08-.01-.17a2.75 2.75 0 1 1 5.49.25h-5.46ZM10 18a8 8 0 0 1-7.42-5h14.84A8 8 0 0 1 10 18Z"/></svg>