<svg width="16" height="16" viewBox="0 0 16 16" xmlns="http://www.w3.org/2000/svg"><path d="M3.5 3A2.5 2.5 0 0 0 1 5.5v5A2.5 2.5 0 0 0 3.5 13h9a2.5 2.5 0 0 0 2.5-2.5v-5A2.5 2.5 0 0 0 12.5 3h-9ZM2 5.5C2 4.67 2.67 4 3.5 4h9c.83 0 1.5.67 1.5 1.5v5c0 .83-.67 1.5-1.5 1.5h-9A1.5 1.5 0 0 1 2 10.5v-5ZM12.5 5a.5.5 0 0 0-.5.5v1a.5.5 0 0 0 1 0v-1a.5.5 0 0 0-.5-.5ZM12 9.5a.5.5 0 0 1 1 0v1a.5.5 0 0 1-1 0v-1ZM3.5 5a.5.5 0 0 0-.5.5v1a.5.5 0 0 0 1 0v-1a.5.5 0 0 0-.5-.5ZM3 9.5a.5.5 0 0 1 1 0v1a.5.5 0 0 1-1 0v-1Zm4-3c0-.39.35-.63.62-.43l2.2 1.56c.24.17.24.57 0 .74l-2.2 1.56c-.27.2-.62-.04-.62-.43v-3Z"/></svg>