<svg width="20" height="20" viewBox="0 0 20 20" xmlns="http://www.w3.org/2000/svg"><path d="M5 4a3 3 0 0 0-3 3v6a3 3 0 0 0 3 3h10a3 3 0 0 0 3-3V7a3 3 0 0 0-3-3H5Zm10.5 2c.28 0 .5.22.5.5v1a.5.5 0 0 1-1 0v-1c0-.28.22-.5.5-.5Zm-.5 6.5a.5.5 0 0 1 1 0v1a.5.5 0 0 1-1 0v-1Zm.5-3.5c.28 0 .5.22.5.5v1a.5.5 0 0 1-1 0v-1c0-.28.22-.5.5-.5ZM4 6.5a.5.5 0 0 1 1 0v1a.5.5 0 0 1-1 0v-1Zm.5 5.5c.28 0 .5.22.5.5v1a.5.5 0 0 1-1 0v-1c0-.28.22-.5.5-.5ZM4 9.5a.5.5 0 0 1 1 0v1a.5.5 0 0 1-1 0v-1Zm4-1.37c0-.49.46-.79.83-.54l2.94 1.95c.3.2.3.72 0 .92l-2.94 1.95c-.37.25-.83-.05-.83-.54V8.13Z"/></svg>