<svg width="32" height="32" viewBox="0 0 32 32" xmlns="http://www.w3.org/2000/svg"><path d="M6.5 4A4.5 4.5 0 0 0 2 8.5v15A4.5 4.5 0 0 0 6.5 28h19a4.5 4.5 0 0 0 4.5-4.5v-15A4.5 4.5 0 0 0 25.5 4h-19ZM4 8.5A2.5 2.5 0 0 1 6.5 6h19A2.5 2.5 0 0 1 28 8.5v15a2.5 2.5 0 0 1-2.5 2.5h-19A2.5 2.5 0 0 1 4 23.5v-15ZM25 8a1 1 0 0 0-1 1v2a1 1 0 1 0 2 0V9a1 1 0 0 0-1-1Zm-1 7a1 1 0 1 1 2 0v2a1 1 0 1 1-2 0v-2Zm1 5a1 1 0 0 0-1 1v2a1 1 0 1 0 2 0v-2a1 1 0 0 0-1-1ZM6 9a1 1 0 0 1 2 0v2a1 1 0 1 1-2 0V9Zm1 5a1 1 0 0 0-1 1v2a1 1 0 1 0 2 0v-2a1 1 0 0 0-1-1Zm-1 7a1 1 0 1 1 2 0v2a1 1 0 1 1-2 0v-2Zm7-7.95c0-.81.88-1.31 1.58-.9l5.6 3.27a.9.9 0 0 1 0 1.54l-5.6 3.28c-.7.4-1.58-.1-1.58-.9v-6.3Z"/></svg>