<svg width="16" height="16" viewBox="0 0 16 16" xmlns="http://www.w3.org/2000/svg"><path d="M1 5.5A2.5 2.5 0 0 1 3.5 3h9A2.5 2.5 0 0 1 15 5.5v2.25c0 .14-.11.25-.25.25a.27.27 0 0 1-.26-.25c-.04-.52-.22-1-.49-1.4V5.5c0-.83-.67-1.5-1.5-1.5h-9C2.67 4 2 4.67 2 5.5v5c0 .83.67 1.5 1.5 1.5h3.55a2.51 2.51 0 0 0-.01 1H3.5A2.5 2.5 0 0 1 1 10.5v-5ZM11.5 10a2 2 0 1 0 0-4 2 2 0 0 0 0 4Zm0 5c2.5 0 3.5-1.25 3.5-2.5 0-.83-.67-1.5-1.5-1.5h-4c-.83 0-1.5.67-1.5 1.5 0 1.25 1 2.5 3.5 2.5ZM4 5a1 1 0 0 0-1 1v2a1 1 0 0 0 1 1h3a1 1 0 0 0 1-1V6a1 1 0 0 0-1-1H4Z"/></svg>