<svg width="16" height="16" viewBox="0 0 16 16" xmlns="http://www.w3.org/2000/svg"><path d="M8.5 1a2.5 2.5 0 0 0 0 5H9a.5.5 0 0 0 0-1h-.5a1.5 1.5 0 1 1 0-3H9a.5.5 0 0 0 0-1h-.5ZM12 1a.5.5 0 0 0 0 1h.5a1.5 1.5 0 0 1 0 3H12a.5.5 0 0 0 0 1h.5a2.5 2.5 0 0 0 0-5H12ZM8 3.5c0-.28.22-.5.5-.5h4a.5.5 0 0 1 0 1h-4a.5.5 0 0 1-.5-.5Zm6 6V6.66c.37-.17.71-.42 1-.71V9.5a2.5 2.5 0 0 1-2.5 2.5H8.69l-3.06 2.68A.98.98 0 0 1 4 13.94V12h-.5A2.5 2.5 0 0 1 1 9.5v-5A2.5 2.5 0 0 1 3.5 2h1.84c-.15.31-.25.65-.3 1H3.5C2.67 3 2 3.67 2 4.5v5c0 .83.67 1.5 1.5 1.5H5v2.9L8.31 11h4.19c.83 0 1.5-.67 1.5-1.5Z"/></svg>