<svg width="20" height="20" viewBox="0 0 20 20" xmlns="http://www.w3.org/2000/svg"><path d="M12.5 2a2.5 2.5 0 0 0 0 5h.5a.5.5 0 0 0 0-1h-.5a1.5 1.5 0 0 1 0-3h.5a.5.5 0 0 0 0-1h-.5ZM16 2a.5.5 0 0 0 0 1h.5a1.5 1.5 0 0 1 0 3H16a.5.5 0 0 0 0 1h.5a2.5 2.5 0 0 0 0-5H16Zm-4 2.5c0-.28.22-.5.5-.5h4a.5.5 0 0 1 0 1h-4a.5.5 0 0 1-.5-.5Zm5 7.78V7.96c.35-.05.69-.15 1-.3v4.62a2.58 2.58 0 0 1-2.6 2.56h-4.59L6.8 17.8a1 1 0 0 1-1.4-.2.98.98 0 0 1-.2-.59v-2.17h-.6A2.58 2.58 0 0 1 2 12.28V5.57A2.58 2.58 0 0 1 4.6 3h4.74c-.15.31-.25.65-.3 1H4.6C3.7 4 3 4.71 3 5.57v6.7c0 .86.7 1.57 1.6 1.57h1.6V17l4.28-3.16h4.92c.9 0 1.6-.71 1.6-1.56Z"/></svg>