<svg width="24" height="24" viewBox="0 0 24 24" xmlns="http://www.w3.org/2000/svg"><path d="M23 5.75A3.75 3.75 0 0 0 19.25 2h-.1a.75.75 0 0 0 .1 1.5h.15a2.25 2.25 0 0 1-.15 4.5l-.1.01a.75.75 0 0 0 .1 1.5V9.5h.2A3.75 3.75 0 0 0 23 5.74Zm-6.5-3a.75.75 0 0 0-.75-.75h-.2a3.75 3.75 0 0 0 .2 7.5h.1a.75.75 0 0 0-.1-1.5h-.15a2.25 2.25 0 0 1 .15-4.5h.1a.75.75 0 0 0 .65-.75Zm3.5 3a.75.75 0 0 0-.75-.75h-3.6a.75.75 0 0 0 .1 1.5h3.6a.75.75 0 0 0 .65-.75Zm-9 0c0-1.02.32-1.97.88-2.75H5.25A3.25 3.25 0 0 0 2 6.25v8.5C2 16.55 3.46 18 5.25 18H6v2.75a1.25 1.25 0 0 0 2 1L13 18h5.75c1.8 0 3.25-1.46 3.25-3.25V9.62c-.78.56-1.73.88-2.75.88h-3.5A4.75 4.75 0 0 1 11 5.75Z"/></svg>