<svg width="24" height="24" viewBox="0 0 24 24" xmlns="http://www.w3.org/2000/svg"><path d="M23 5.75A3.75 3.75 0 0 0 19.25 2h-.1a.75.75 0 0 0 .1 1.5h.15a2.25 2.25 0 0 1-.15 4.5l-.1.01a.75.75 0 0 0 .1 1.5V9.5h.2A3.75 3.75 0 0 0 23 5.74Zm-6.5-3a.75.75 0 0 0-.75-.75h-.2a3.75 3.75 0 0 0 .2 7.5h.1a.75.75 0 0 0-.1-1.5h-.15a2.25 2.25 0 0 1 .15-4.5h.1a.75.75 0 0 0 .65-.75Zm3.5 3a.75.75 0 0 0-.75-.75h-3.6a.75.75 0 0 0 .1 1.5h3.6a.75.75 0 0 0 .65-.75ZM5.25 3h6.63c-.32.45-.57.95-.71 1.5H5.25c-.97 0-1.75.78-1.75 1.75v8.5c0 .97.78 1.75 1.75 1.75H7.5v3.75l5.01-3.75h6.24c.97 0 1.75-.78 1.75-1.75v-4.42c.55-.14 1.05-.39 1.5-.7v5.12c0 1.8-1.46 3.25-3.25 3.25h-5.74L8 21.75a1.25 1.25 0 0 1-2-1V18h-.75A3.25 3.25 0 0 1 2 14.75v-8.5C2 4.45 3.46 3 5.25 3Z"/></svg>