<svg width="28" height="28" viewBox="0 0 28 28" xmlns="http://www.w3.org/2000/svg"><path d="M17.75 3.5a2.25 2.25 0 0 0 0 4.5h.5a.75.75 0 0 1 0 1.5h-.5a3.75 3.75 0 1 1 0-7.5h.5a.75.75 0 0 1 0 1.5h-.5ZM17 5.75c0-.41.34-.75.75-.75h5.5a.75.75 0 0 1 0 1.5h-5.5a.75.75 0 0 1-.75-.75ZM23.25 8a2.25 2.25 0 0 0 0-4.5h-.5a.75.75 0 0 1 0-1.5h.5a3.75 3.75 0 1 1 0 7.5h-.5a.75.75 0 0 1 0-1.5h.5ZM13 5.75c0-1.02.32-1.97.88-2.75H5.75A3.75 3.75 0 0 0 2 6.75v10.5A3.75 3.75 0 0 0 5.75 21H7v3.3a1.75 1.75 0 0 0 2.77 1.41L16.31 21h5.94A3.75 3.75 0 0 0 26 17.25V9.62c-.78.56-1.73.88-2.75.88h-5.5A4.75 4.75 0 0 1 13 5.75Z"/></svg>