<svg width="28" height="28" viewBox="0 0 28 28" xmlns="http://www.w3.org/2000/svg"><path d="M17.75 3.5a2.25 2.25 0 0 0 0 4.5h.5a.75.75 0 0 1 0 1.5h-.5a3.75 3.75 0 1 1 0-7.5h.5a.75.75 0 0 1 0 1.5h-.5ZM17 5.75c0-.41.34-.75.75-.75h5.5a.75.75 0 0 1 0 1.5h-5.5a.75.75 0 0 1-.75-.75ZM23.25 8a2.25 2.25 0 0 0 0-4.5h-.5a.75.75 0 0 1 0-1.5h.5a3.75 3.75 0 1 1 0 7.5h-.5a.75.75 0 0 1 0-1.5h.5Zm1.25 9.25v-6.92c.55-.14 1.05-.39 1.5-.7v7.62A3.75 3.75 0 0 1 22.25 21h-5.94l-6.54 4.71C8.62 26.55 7 25.72 7 24.3V21H5.75A3.75 3.75 0 0 1 2 17.25V6.75A3.75 3.75 0 0 1 5.75 3h8.13c-.32.45-.57.95-.71 1.5H5.75c-1.24 0-2.25 1-2.25 2.25v10.5c0 1.24 1 2.25 2.25 2.25H8.5v4.8c0 .2.23.32.4.2l6.92-5h6.43c1.24 0 2.25-1 2.25-2.25Z"/></svg>