<svg width="48" height="48" viewBox="0 0 48 48" xmlns="http://www.w3.org/2000/svg"><path d="M23 10.25C23 6.8 25.8 4 29.25 4h1.5a1.25 1.25 0 1 1 0 2.5h-1.5a3.75 3.75 0 1 0 0 7.5h1.5a1.25 1.25 0 1 1 0 2.5h-1.5A6.25 6.25 0 0 1 23 10.25Zm22 0C45 6.8 42.2 4 38.75 4h-1.5a1.25 1.25 0 1 0 0 2.5h1.5a3.75 3.75 0 1 1 0 7.5h-1.5a1.25 1.25 0 1 0 0 2.5h1.5c3.45 0 6.25-2.8 6.25-6.25Zm-17 0c0-.69.56-1.25 1.25-1.25h9.5a1.25 1.25 0 1 1 0 2.5h-9.5c-.69 0-1.25-.56-1.25-1.25Zm-7 0c0-1.55.42-3 1.14-4.25H11.25C7.25 6 4 9.25 4 13.25v15.5c0 4 3.25 7.25 7.25 7.25H12v5.82a2.25 2.25 0 0 0 3.55 1.84L26.4 36h10.35c4 0 7.25-3.25 7.25-7.25V16.69a7.82 7.82 0 0 1-5 1.81H29c-4.42 0-8-3.7-8-8.25Z"/></svg>