<svg width="24" height="24" viewBox="0 0 24 24" xmlns="http://www.w3.org/2000/svg"><path d="M11 3a1 1 0 0 0-1-1H5.25A3.25 3.25 0 0 0 2 5.25V10a1 1 0 1 0 2 0V5.25C4 4.56 4.56 4 5.25 4H10a1 1 0 0 0 1-1Zm3-1a1 1 0 1 0 0 2h4.75c.69 0 1.25.56 1.25 1.25V10a1 1 0 1 0 2 0V5.25C22 3.45 20.54 2 18.75 2H14Zm0 20a1 1 0 1 1 0-2h4.75c.69 0 1.25-.56 1.25-1.25V14a1 1 0 1 1 2 0v4.75c0 1.8-1.46 3.25-3.25 3.25H14Zm-4 0a1 1 0 1 0 0-2H5.25C4.56 20 4 19.44 4 18.75V14a1 1 0 1 0-2 0v4.75C2 20.55 3.46 22 5.25 22H10Z"/></svg>