<svg width="24" height="24" viewBox="0 0 24 24" xmlns="http://www.w3.org/2000/svg"><path d="M12 22a10 10 0 1 0 0-20 10 10 0 0 0 0 20Zm-1.5-10c0-.41.34-.75.75-.75h.87c1.11 0 1.88-.8 1.88-1.63C14 8.8 13.23 8 12.12 8a2.75 2.75 0 0 0-1.93.8 2.15 2.15 0 0 0-.11.12.75.75 0 0 1-1.16-.96l.01-.01.02-.02a2.5 2.5 0 0 1 .21-.22 4.24 4.24 0 0 1 2.96-1.2c1.8-.01 3.38 1.32 3.38 3.12A3 3 0 0 1 14.32 12a3 3 0 0 1 1.18 2.38c0 1.79-1.58 3.12-3.38 3.12a4.24 4.24 0 0 1-3.17-1.43l-.02-.02a.75.75 0 0 1 1.14-.97l.03.02.1.1a2.75 2.75 0 0 0 1.93.8c1.1 0 1.87-.8 1.87-1.63 0-.82-.77-1.62-1.88-1.62h-.87a.75.75 0 0 1-.75-.75Zm-.43 3.08Z"/></svg>