<svg width="20" height="20" viewBox="0 0 20 20" xmlns="http://www.w3.org/2000/svg"><path d="M15.23 1.35 14.88.28a.42.42 0 0 0-.8 0l-.35 1.07a2.2 2.2 0 0 1-1.38 1.4l-1.07.35a.42.42 0 0 0 0 .8l1.07.34a2.2 2.2 0 0 1 1.4 1.4l.35 1.08a.42.42 0 0 0 .8 0l.35-1.07a2.2 2.2 0 0 1 1.4-1.4l1.07-.35a.42.42 0 0 0 0-.8h-.02l-1.08-.35a2.2 2.2 0 0 1-1.4-1.4Zm3.79 6.61.76.25h.02a.3.3 0 0 1 0 .58l-.77.25a1.58 1.58 0 0 0-1 1l-.24.76a.3.3 0 0 1-.58 0l-.24-.77a1.58 1.58 0 0 0-1-1l-.77-.25a.3.3 0 0 1 0-.57l.77-.25a1.58 1.58 0 0 0 .98-1l.25-.76a.3.3 0 0 1 .57 0l.25.77a1.57 1.57 0 0 0 1 1ZM8.12 2h3.29l-.41.15c-.29.1-.54.28-.71.53-.08.1-.14.2-.18.32H8.12a.5.5 0 0 0-.44.28l-.73 1.44A.5.5 0 0 1 6.5 5h-2C3.68 5 3 5.67 3 6.5v8c0 .83.68 1.5 1.5 1.5h11c.83 0 1.5-.67 1.5-1.5v-2.6a1.29 1.29 0 0 0 1 0v2.6a2.5 2.5 0 0 1-2.5 2.5h-11A2.5 2.5 0 0 1 2 14.5v-8A2.5 2.5 0 0 1 4.5 4h1.7l.58-1.17c.26-.51.78-.83 1.34-.83ZM10 6a4 4 0 1 0 0 8 4 4 0 0 0 0-8Zm-3 4a3 3 0 1 1 6 0 3 3 0 0 1-6 0Z"/></svg>