<svg width="24" height="24" viewBox="0 0 24 24" xmlns="http://www.w3.org/2000/svg"><path d="M15.85 6.15a2.84 2.84 0 0 1 .69 1.11l.45 1.38a.54.54 0 0 0 1.02 0l.45-1.38a2.84 2.84 0 0 1 1.8-1.8l1.38-.44a.54.54 0 0 0 0-1.03h-.03l-1.38-.45a2.84 2.84 0 0 1-1.8-1.8L18 .36a.54.54 0 0 0-1.03 0l-.45 1.38-.01.03a2.84 2.84 0 0 1-1.76 1.77l-1.38.44a.54.54 0 0 0 0 1.03l1.38.45c.42.14.8.37 1.11.69Zm7.17 3.81.76.25h.02a.3.3 0 0 1 .14.47.3.3 0 0 1-.14.1l-.77.26a1.58 1.58 0 0 0-1 1l-.24.76a.3.3 0 0 1-.58 0l-.24-.77a1.57 1.57 0 0 0-1-1l-.77-.25a.3.3 0 0 1-.14-.46.3.3 0 0 1 .14-.1l.77-.26a1.58 1.58 0 0 0 .98-1l.25-.76a.3.3 0 0 1 .57 0l.25.77a1.57 1.57 0 0 0 1 1ZM10.12 4h1.96a1.55 1.55 0 0 1 .95-.96l1.4-.45.04-.02a2.25 2.25 0 0 0-.55-.07h-3.8c-.78 0-1.5.4-1.91 1.08L7.33 5H5.25A3.25 3.25 0 0 0 2 8.25v9.5C2 19.55 3.46 21 5.25 21h13.5c1.8 0 3.25-1.46 3.25-3.25V13.9a1.33 1.33 0 0 1-1.5-.37v4.22c0 .97-.78 1.75-1.75 1.75H5.25c-.97 0-1.75-.78-1.75-1.75v-9.5c0-.97.78-1.75 1.75-1.75h2.5c.26 0 .5-.14.64-.36l1.1-1.78.06-.09a.75.75 0 0 1 .57-.27Zm6.38 8.5a4.5 4.5 0 1 0-9 0 4.5 4.5 0 0 0 9 0Zm-7.5 0a3 3 0 1 1 6 0 3 3 0 0 1-6 0Z"/></svg>