<svg width="24" height="24" viewBox="0 0 24 24" xmlns="http://www.w3.org/2000/svg"><path d="M7.25 14a.75.75 0 000 1.5h3.5a.75.75 0 000-1.5h-3.5zM6.5 9.25c0-.41.34-.75.75-.75h3.5a.75.75 0 010 1.5h-3.5a.75.75 0 01-.75-.75zm11.28-.47a.75.75 0 00-1.06-1.06l-1.47 1.47-.47-.47a.75.75 0 10-1.06 1.06l1 1c.3.3.77.3 1.06 0l2-2zm0 4.44c.3.3.3.77 0 1.06l-2 2c-.3.3-.77.3-1.06 0l-1-1a.75.75 0 111.06-1.06l.47.47 1.47-1.47c.3-.3.77-.3 1.06 0zM6.25 3A3.25 3.25 0 003 6.25v11.5C3 19.55 4.46 21 6.25 21h11.5c1.8 0 3.25-1.46 3.25-3.25V6.25C21 4.45 19.54 3 17.75 3H6.25zM4.5 6.25c0-.97.78-1.75 1.75-1.75h11.5c.97 0 1.75.78 1.75 1.75v11.5c0 .97-.78 1.75-1.75 1.75H6.25c-.97 0-1.75-.78-1.75-1.75V6.25z"/></svg>