<svg width="28" height="28" viewBox="0 0 28 28" xmlns="http://www.w3.org/2000/svg"><path d="m17 10.77-1.92-1.89a2.27 2.27 0 1 1 3.21-3.21l6.33 6.29a4.7 4.7 0 0 1-3.7 8 3.18 3.18 0 0 1-2.97 2.05H9.2A3.19 3.19 0 0 1 6 18.83v-1.86a3.5 3.5 0 1 1 2.55-5.19 5.3 5.3 0 0 1 2.77-.78h4.5c.31 0 .61.03.9.08l.28-.3Zm.23-4.04a.77.77 0 0 0-1.1 1.09h.01L19.36 11l-1 .58c-.25.15-.51.46-.65.7l-.29.52-.57-.16c-.32-.09-.67-.14-1.03-.14h-4.5c-2.1 0-3.82 1.7-3.82 3.8v2.53c0 .92.76 1.68 1.7 1.68H14v-.33c0-.92-.75-1.68-1.68-1.68h-1.57a.75.75 0 0 1 0-1.5h1.57a3.18 3.18 0 0 1 3.18 3.18v.33h2.45c.86 0 1.57-.65 1.67-1.48l.1-.84.82.2a3.2 3.2 0 0 0 3.02-5.37l-6.33-6.3Zm-9.87 6.04a2 2 0 1 0-1.29 2.65c.18-1.01.63-1.92 1.3-2.65Z"/></svg>