<svg width="20" height="20" viewBox="0 0 20 20" xmlns="http://www.w3.org/2000/svg"><path d="M6.7 2.5a.75.75 0 0 0-1.4 0L3.03 9a.75.75 0 0 0 1.42.5l.34-1h2.4l.34 1A.75.75 0 0 0 8.96 9L6.7 2.5ZM6 5.04 6.68 7H5.32L6 5.04Zm-2.24 9.9c-.2.25-.35.52-.46.78A4.4 4.4 0 0 0 3 17.2v.05a.75.75 0 0 0 1.5 0 1.87 1.87 0 0 1 .02-.3c.03-.19.08-.43.18-.67.1-.24.22-.43.37-.56a1 1 0 0 1 .68-.22H7.5v1.75a.75.75 0 0 0 1.5 0v-5.5a.75.75 0 0 0-.75-.75h-3a2.25 2.25 0 0 0-1.5 3.93ZM5.25 14a.75.75 0 0 1 0-1.5H7.5V14H5.25Zm9-12c.41 0 .75.34.75.75v12.57l1.45-1.58a.75.75 0 0 1 1.1 1.02l-2.75 3a.75.75 0 0 1-1.1 0l-2.75-3a.75.75 0 0 1 1.1-1.02l1.45 1.58V2.75c0-.41.34-.75.75-.75Z"/></svg>