<svg width="28" height="28" viewBox="0 0 28 28" xmlns="http://www.w3.org/2000/svg"><path d="M2.23 8.78A2.25 2.25 0 0 0 2 8.61V8.6c-.2-.16-.42-.28-.66-.37L.28 7.88a.42.42 0 0 1-.28-.4.42.42 0 0 1 .28-.4l1.07-.34a2.19 2.19 0 0 0 .8-.48 2.21 2.21 0 0 0 .58-.89v-.03l.35-1.07a.42.42 0 0 1 .4-.28c.08 0 .17.03.24.08.05.04.1.1.12.16l.02.02.02.03.34 1.07.14.3a2.2 2.2 0 0 0 1.26 1.1l1.08.35h.02a.42.42 0 0 1 .28.4c0 .09-.03.17-.08.24a.43.43 0 0 1-.2.16l-1.07.35a2.19 2.19 0 0 0-1.4 1.4L3.9 10.7v.03a.43.43 0 0 1-.15.18.42.42 0 0 1-.48 0 .42.42 0 0 1-.16-.2l-.35-1.07a2.22 2.22 0 0 0-.53-.87ZM5 4h17.98A3 3 0 0 1 26 7v14a3 3 0 0 1-3 3H5.01a3 3 0 0 1-3-3V10.58l.15.45a1.44 1.44 0 0 0 1.35.97v9a1.5 1.5 0 0 0 1.5 1.5h3.24v-4a2 2 0 0 1 2-2h7.5a2 2 0 0 1 2 2v4h3.24a1.5 1.5 0 0 0 1.5-1.5V7A1.5 1.5 0 0 0 23 5.5H5.47a1.2 1.2 0 0 1-.3-.46l-.33-1.02.08-.01L5 4Zm4.74 18.5h8.5v-4a.5.5 0 0 0-.5-.5h-7.5a.5.5 0 0 0-.5.5v4Zm7.75-11a3.5 3.5 0 1 0-7 0 3.5 3.5 0 0 0 7 0Zm-5.5 0a2 2 0 1 1 4 0 2 2 0 0 1-4 0Zm-6.33.77.6-.2a1.27 1.27 0 0 0 .67-.53c.05-.08.1-.17.12-.26l.2-.6a.24.24 0 0 1 .14-.15.25.25 0 0 1 .27.06l.05.08.2.61a1.26 1.26 0 0 0 .79.8l.61.2h.01l.05.02.07.07a.24.24 0 0 1 0 .28.24.24 0 0 1-.12.09l-.6.2c-.2.06-.36.16-.5.3-.14.14-.24.3-.3.49l-.2.61a.24.24 0 0 1-.23.16.24.24 0 0 1-.23-.16l-.2-.61a1.27 1.27 0 0 0-.3-.5c-.14-.14-.3-.24-.5-.3l-.6-.2a.24.24 0 0 1 0-.45Z"/></svg>