<svg width="28" height="28" viewBox="0 0 28 28" xmlns="http://www.w3.org/2000/svg"><path d="M5.75 2A3.75 3.75 0 0 0 2 5.75v12a3.75 3.75 0 0 0 3.75 3.75h5.75a1 1 0 0 0 1-1v-8h8a1 1 0 0 0 1-1V5.75A3.75 3.75 0 0 0 17.75 2h-12ZM11 12.5V20H5.75c-1.24 0-2.25-1-2.25-2.25V12.5H11Zm0-1.5H3.5V5.75c0-1.24 1-2.25 2.25-2.25H11V11Zm1.5 0V3.5h5.25c1.24 0 2.25 1 2.25 2.25V11h-7.5Zm1.5 5.75A2.75 2.75 0 0 1 16.75 14h6.5A2.75 2.75 0 0 1 26 16.75v6.5A2.75 2.75 0 0 1 23.25 26h-6.5A2.75 2.75 0 0 1 14 23.25v-6.5Z"/></svg>