<svg width="24" height="24" viewBox="0 0 24 24" xmlns="http://www.w3.org/2000/svg"><path d="M11.34 13c-.19.4-.34.88-.34 1.38 0 .73.29 1.42.77 1.9a2.4 2.4 0 001.73.72c1.47 0 2.5-1.23 2.5-2.62 0-.5-.15-.98-.34-1.39-.2-.41-.44-.8-.68-1.13-.23-.33-.47-.61-.64-.81l-.31-.33a.75.75 0 00-1.06 0l-.3.33A6.98 6.98 0 0011.34 13zm2.43-.27c.2.29.39.59.52.89.15.3.21.56.21.76 0 .69-.48 1.12-1 1.12-.25 0-.5-.1-.68-.28-.2-.2-.32-.49-.32-.84 0-.2.06-.45.2-.76a5.5 5.5 0 01.8-1.24l.27.35zM6.75 1a.75.75 0 00-.75.75v1.76l-.1.08-4.24 4.25a2 2 0 000 2.82L5.2 14.2a2 2 0 002.83 0l4.24-4.24a2 2 0 000-2.83L8.73 3.59a2 2 0 00-1.23-.57V1.75A.75.75 0 006.75 1zM6 5.62v.63a.75.75 0 101.5 0V4.54a.5.5 0 01.17.11l3.54 3.54c.09.09.13.2.14.31H3.12L6 5.62zm.26 7.52L3.13 10h6.97l-3.13 3.13a.5.5 0 01-.71 0zM2 17.5v-5.09l1.5 1.5v3.59a1 1 0 001 1h15a1 1 0 001-1v-11a1 1 0 00-1-1h-7.44L10.56 4h8.94A2.5 2.5 0 0122 6.5v11a2.5 2.5 0 01-2.5 2.5h-15A2.5 2.5 0 012 17.5z"/></svg>