<svg width="24" height="24" viewBox="0 0 24 24" xmlns="http://www.w3.org/2000/svg"><path d="M7.01 7.86A1 1 0 0 1 8 7h4a1 1 0 1 1 0 2H8.87l-.19 1.3.35-.05a3.65 3.65 0 1 1 .55 7.25 3.7 3.7 0 0 1-2.73-1.2l-.34-.38a1 1 0 1 1 1.48-1.34l.34.37c.31.35.77.55 1.25.55a1.65 1.65 0 1 0-.24-3.28l-1.68.27a1 1 0 0 1-1.15-1.13l.5-3.5Zm7.28 4.43a1 1 0 0 1 1.42 0l.79.8.8-.8a1 1 0 0 1 1.4 1.42l-.79.79.8.8a1 1 0 0 1-1.42 1.4l-.79-.79-.8.8a1 1 0 0 1-1.4-1.42l.79-.79-.8-.8a1 1 0 0 1 0-1.4ZM4.75 17a.75.75 0 1 0 0-1.5.75.75 0 0 0 0 1.5Z"/></svg>