<svg width="28" height="28" viewBox="0 0 28 28" xmlns="http://www.w3.org/2000/svg"><path d="M9.5 8a1 1 0 0 0-1 .88L8 13.13a1 1 0 0 0 1.12 1.11l2.57-.3a2.3 2.3 0 1 1 .27 4.56h-.15c-.7 0-1.37-.3-1.84-.83l-.72-.83a1 1 0 1 0-1.5 1.32l.72.82a4.44 4.44 0 0 0 3.34 1.52h.15a4.3 4.3 0 1 0-.51-8.55l-1.3.16.24-2.11h4.11a1 1 0 1 0 0-2h-5Zm7.8 6.3a1 1 0 0 1 1.4 0l1.3 1.29 1.3-1.3a1 1 0 0 1 1.4 1.42L21.42 17l1.3 1.3a1 1 0 0 1-1.42 1.4L20 18.42l-1.3 1.3a1 1 0 0 1-1.4-1.42L18.58 17l-1.3-1.3a1 1 0 0 1 0-1.4ZM6.5 19.24a.75.75 0 1 1-1.5 0 .75.75 0 0 1 1.5 0Z"/></svg>