<svg width="32" height="32" viewBox="0 0 32 32" xmlns="http://www.w3.org/2000/svg"><path d="M10 10.13c.07-.64.6-1.13 1.25-1.13h6a1.25 1.25 0 1 1 0 2.5h-4.87l-.23 2.3 1.2-.18a4.96 4.96 0 1 1 .69 9.88h-.21a5.17 5.17 0 0 1-3.77-1.63l-.72-.76a1.25 1.25 0 1 1 1.82-1.72l.72.77c.5.54 1.21.84 1.95.84h.2a2.46 2.46 0 1 0-.34-4.9l-2.77.39a1.25 1.25 0 0 1-1.41-1.36l.5-5Zm10.37 6.24a1.25 1.25 0 0 1 1.76 0l1.37 1.36 1.37-1.36a1.25 1.25 0 0 1 1.76 1.76l-1.36 1.37 1.36 1.37a1.25 1.25 0 0 1-1.76 1.76l-1.37-1.36-1.37 1.36a1.25 1.25 0 0 1-1.76-1.76l1.36-1.37-1.36-1.37a1.25 1.25 0 0 1 0-1.76ZM7 23a1 1 0 1 0 0-2 1 1 0 0 0 0 2Z"/></svg>