<svg width="16" height="16" viewBox="0 0 16 16" xmlns="http://www.w3.org/2000/svg"><path d="M5 1a2 2 0 0 0-2 2v10c0 1.1.9 2 2 2h3.27a1.98 1.98 0 0 1-.05-1.92l.57-1.09H6.5a.5.5 0 0 1-.09-.99H9.3l.59-1.13a1 1 0 0 0 .1-.46V8.05a.5.5 0 0 1-.4.44l-.09.01h-3a.5.5 0 0 1-.09-1H9.38A1.5 1.5 0 0 1 10.5 5H13V3a2 2 0 0 0-2-2H5Zm5 6.91v.04a.5.5 0 0 0 0-.04ZM9.59 5 9.5 5h-3a.5.5 0 0 1-.09-1H9.5a.5.5 0 0 1 .09 1Zm4.4 4.41a2 2 0 0 0 .23.92l.35.68h-4.14l.34-.67a2 2 0 0 0 .23-.92V7h-.5a.5.5 0 0 1 0-1h4a.5.5 0 0 1 0 1H14v2.4ZM9.92 12l-.8 1.54A1 1 0 0 0 10 15h5a1 1 0 0 0 .88-1.46l-.8-1.54H9.92Z"/></svg>