<svg width="16" height="16" viewBox="0 0 16 16" xmlns="http://www.w3.org/2000/svg"><path d="M9.59 5a.5.5 0 0 0-.09-1H6.41a.5.5 0 0 0 .09 1h3.09Zm0 3.5a.5.5 0 0 0 .4-.45v-.1a.5.5 0 0 0 0-.04 1.5 1.5 0 0 1-.6-.41H6.4a.5.5 0 0 0 .09 1h3.09ZM12 3v2h1V3a2 2 0 0 0-2-2H5a2 2 0 0 0-2 2v10c0 1.1.9 2 2 2h3.27A2 2 0 0 1 8 14H5a1 1 0 0 1-1-1V3a1 1 0 0 1 1-1h6a1 1 0 0 1 1 1Zm-5.5 8h2.8l-.51 1H6.5a.5.5 0 0 1-.09-1h.09ZM14 9.4a2 2 0 0 0 .22.92l.35.68h-4.14l.34-.67a2 2 0 0 0 .23-.92V7h-.5a.5.5 0 0 1 0-1h4a.5.5 0 0 1 0 1H14v2.4ZM9.9 12l-.79 1.54A1 1 0 0 0 10 15h5a1 1 0 0 0 .88-1.46l-.8-1.54H9.92Z"/></svg>