<svg width="16" height="16" viewBox="0 0 16 16" xmlns="http://www.w3.org/2000/svg"><path d="M1.63 2.29A1.76 1.76 0 0 1 3.75 4 1.75 1.75 0 0 1 1.5 5.68V8c0 1.1.9 2 2 2h1.52c.26-2.8 2.61-5 5.48-5V3a2 2 0 0 0-2-2h-5a2 2 0 0 0-1.87 1.29ZM4 4.5c0-.28.22-.5.5-.5h3a.5.5 0 0 1 0 1h-3a.5.5 0 0 1-.5-.5ZM4.5 7a.5.5 0 0 1 0-1H6a.5.5 0 0 1 0 1H4.5ZM2.75 4a.75.75 0 1 1-1.5 0 .75.75 0 0 1 1.5 0ZM15 10.5a4.5 4.5 0 1 1-9 0 4.5 4.5 0 0 1 9 0Zm-2.65-1.15a.5.5 0 0 0-.7-.7L10.5 9.79 9.35 8.65a.5.5 0 1 0-.7.7l1.14 1.15-1.14 1.15a.5.5 0 0 0 .7.7l1.15-1.14 1.15 1.14a.5.5 0 0 0 .7-.7l-1.14-1.15 1.14-1.15Z"/></svg>