<svg width="48" height="48" viewBox="0 0 48 48" xmlns="http://www.w3.org/2000/svg"><path d="M7.5 10.5a4 4 0 0 0-1.31.22A6.25 6.25 0 0 1 12.25 6h23.5C39.2 6 42 8.8 42 12.25v11.8c-.78-.5-1.62-.92-2.5-1.25V12.25a3.75 3.75 0 0 0-3.75-3.75h-23.5c-1.53 0-2.84.91-3.43 2.22a4 4 0 0 0-1.32-.22Zm15.3 29c.33.88.74 1.72 1.24 2.5H12.25A6.25 6.25 0 0 1 6 35.75V18.21a3.99 3.99 0 0 0 2.5.16v17.38a3.75 3.75 0 0 0 3.75 3.75H22.8Zm.94-11c.52-.9 1.16-1.75 1.88-2.5h-8.37a1.25 1.25 0 1 0 0 2.5h6.49ZM7.5 12A2.49 2.49 0 0 0 5 14.5 2.5 2.5 0 1 0 7.5 12Zm9.75 7a1.25 1.25 0 1 0 0 2.5h13.5a1.25 1.25 0 1 0 0-2.5h-13.5ZM46 35a11 11 0 1 1-22 0 11 11 0 0 1 22 0Zm-5.3-4.3a1 1 0 0 0-1.4-1.4L35 33.58l-4.3-4.3a1 1 0 0 0-1.4 1.42L33.58 35l-4.3 4.3a1 1 0 0 0 1.42 1.4L35 36.42l4.3 4.3a1 1 0 0 0 1.4-1.42L36.42 35l4.3-4.3Z"/></svg>