<svg width="24" height="24" viewBox="0 0 24 24" xmlns="http://www.w3.org/2000/svg"><path d="M16.25 2a.75.75 0 00-.67.41l-1 2c-.11.23-.1.5.02.71l.9 1.58V12h-.75a.75.75 0 00-.75.75v5.75a3.5 3.5 0 107 0v-5.75a.75.75 0 00-.75-.75h-.75V6.7l.9-1.58a.75.75 0 00.02-.7l-1-2a.75.75 0 00-.67-.42h-2.5zM18 12h-1V6.5a.75.75 0 00-.1-.37l-.8-1.4.61-1.23h1.58l.61 1.23-.8 1.4a.75.75 0 00-.1.37V12zm-2.5 6.5V16h4v2.5a2 2 0 11-4 0zm4-4h-4v-1h4v1zM9.53 2.14a.75.75 0 00-1.03.7V6.5a1 1 0 01-2 0V2.83a.75.75 0 00-1.03-.7 5.5 5.5 0 00-.5 10v7.33a2.54 2.54 0 005.07 0v-7.33a5.5 5.5 0 00-.51-10zM10 6.5V4.13a4 4 0 01-1 6.83.75.75 0 00-.46.7v7.8a1.04 1.04 0 01-2.08 0v-7.8c0-.31-.18-.59-.46-.7a4 4 0 01-1-6.83V6.5a2.5 2.5 0 105 0z"/></svg>