<svg width="24" height="24" viewBox="0 0 24 24" xmlns="http://www.w3.org/2000/svg"><path d="M8 16a1 1 0 1 0 0-2 1 1 0 0 0 0 2Zm9-1a1 1 0 1 1-2 0 1 1 0 0 1 2 0ZM10.75 5a.75.75 0 0 0 0 1.5h2.5a.75.75 0 0 0 0-1.5h-2.5Zm-3-3A3.75 3.75 0 0 0 4 5.75V9.5H2.75a.75.75 0 1 0 0 1.5H4v8.75c0 .97.78 1.75 1.75 1.75h1.5c.97 0 1.75-.78 1.75-1.75V18.5h6v1.25c0 .97.78 1.75 1.75 1.75h1.5c.97 0 1.75-.78 1.75-1.75V11h1.23a.75.75 0 0 0 0-1.5H20V5.75A3.75 3.75 0 0 0 16.25 2h-8.5ZM18.5 18.5v1.25c0 .14-.11.25-.25.25h-1.5a.25.25 0 0 1-.25-.25V18.5h2Zm0-1.5h-13v-4h13v4Zm-13 2.75V18.5h2v1.25c0 .14-.11.25-.25.25h-1.5a.25.25 0 0 1-.25-.25Zm0-14c0-1.24 1-2.25 2.25-2.25h8.5c1.24 0 2.25 1 2.25 2.25v5.75h-13V5.75Z"/></svg>