<svg width="16" height="16" viewBox="0 0 16 16" xmlns="http://www.w3.org/2000/svg"><path d="M7.5 3a.5.5 0 0 0 0 1h1a.5.5 0 0 0 0-1h-1Zm-1 7.25a.75.75 0 1 1-1.5 0 .75.75 0 0 1 1.5 0Zm3.75.75a.75.75 0 1 0 0-1.5.75.75 0 0 0 0 1.5ZM2 3.9C2 2.3 3.3 1 4.9 1h6.2C12.7 1 14 2.3 14 3.9V6h.5a.5.5 0 0 1 0 1H14v6.7c0 .72-.58 1.3-1.3 1.3h-1.4a1.3 1.3 0 0 1-1.3-1.3V13H6v.7c0 .72-.58 1.3-1.3 1.3H3.3A1.3 1.3 0 0 1 2 13.7V7h-.5a.5.5 0 0 1 0-1H2V3.9Zm11 0A1.9 1.9 0 0 0 11.1 2H4.9A1.9 1.9 0 0 0 3 3.9V8h10V3.9ZM11 13v.7c0 .17.13.3.3.3h1.4a.3.3 0 0 0 .3-.3V13h-2Zm-8 0v.7c0 .17.13.3.3.3h1.4a.3.3 0 0 0 .3-.3V13H3Zm0-1h10V9H3v3Z"/></svg>