<svg width="16" height="16" viewBox="0 0 16 16" xmlns="http://www.w3.org/2000/svg"><path d="M7.5 3a.5.5 0 0 0 0 1h1a.5.5 0 0 0 0-1h-1ZM4.9 1A2.9 2.9 0 0 0 2 3.9V6h-.5a.5.5 0 0 0 0 1H2v6.7c0 .72.58 1.3 1.3 1.3h1.4c.72 0 1.3-.58 1.3-1.3V13h4v.7c0 .72.58 1.3 1.3 1.3h1.4c.72 0 1.3-.58 1.3-1.3V7h.5a.5.5 0 0 0 0-1H14V3.9C14 2.3 12.7 1 11.1 1H4.9ZM13 3.9V8H3V3.9C3 2.85 3.85 2 4.9 2h6.2c1.05 0 1.9.85 1.9 1.9Zm0 9.1v.7a.3.3 0 0 1-.3.3h-1.4a.3.3 0 0 1-.3-.3V13h2Zm-8 0v.7a.3.3 0 0 1-.3.3H3.3a.3.3 0 0 1-.3-.3V13h2Zm1.5-2.75a.75.75 0 1 1-1.5 0 .75.75 0 0 1 1.5 0Zm3.75.75a.75.75 0 1 1 0-1.5.75.75 0 0 1 0 1.5Z"/></svg>