<svg width="24" height="24" viewBox="0 0 24 24" xmlns="http://www.w3.org/2000/svg"><path d="M5.25 4A3.25 3.25 0 0 0 2 7.25v9.5C2 18.55 3.46 20 5.25 20h13.5c1.8 0 3.25-1.46 3.25-3.25v-9.5C22 5.45 20.54 4 18.75 4H5.25ZM3.5 7.25c0-.97.78-1.75 1.75-1.75h13.5c.97 0 1.75.78 1.75 1.75v9.5c0 .97-.78 1.75-1.75 1.75H5.25c-.97 0-1.75-.78-1.75-1.75v-9.5Zm1.5.5c0-.41.34-.75.75-.75h5.5a.75.75 0 0 1 0 1.5h-5.5A.75.75 0 0 1 5 7.75ZM6 13a1 1 0 0 0-1 1v2a1 1 0 0 0 1 1h7a1 1 0 0 0 1-1v-2a1 1 0 0 0-1-1H6Zm-1-2.75c0-.41.34-.75.75-.75h10.5a.75.75 0 0 1 0 1.5H5.75a.75.75 0 0 1-.75-.75Z"/></svg>