<svg width="28" height="28" viewBox="0 0 28 28" xmlns="http://www.w3.org/2000/svg"><path d="M3 6.75A3.75 3.75 0 0 1 6.75 3h14.5A3.75 3.75 0 0 1 25 6.75v7.75a7.49 7.49 0 0 0-1.5-.88V6.75c0-1.24-1-2.25-2.25-2.25H6.75c-1.24 0-2.25 1-2.25 2.25v14.5c0 1.24 1 2.25 2.25 2.25h6.87c.24.54.53 1.04.88 1.5H6.75A3.75 3.75 0 0 1 3 21.25V6.75ZM21.25 13a.75.75 0 0 0 0-1.5h-7.5a.75.75 0 0 0 0 1.5h7.5ZM6 7.25c0-.41.34-.75.75-.75h14.5a.75.75 0 0 1 0 1.5H6.75A.75.75 0 0 1 6 7.25ZM8.5 10a2.5 2.5 0 1 0 0 5 2.5 2.5 0 0 0 0-5Zm-1 2.5a1 1 0 1 1 2 0 1 1 0 0 1-2 0Zm-1.5 7a2.5 2.5 0 1 1 5 0 2.5 2.5 0 0 1-5 0Zm2.5-1a1 1 0 1 0 0 2 1 1 0 0 0 0-2Zm18.5 2a6.5 6.5 0 1 1-13 0 6.5 6.5 0 0 1 13 0Zm-6-4a.5.5 0 0 0-1 0V20h-3.5a.5.5 0 0 0 0 1H20v3.5a.5.5 0 0 0 1 0V21h3.5a.5.5 0 0 0 0-1H21v-3.5Z"/></svg>