<svg width="20" height="20" viewBox="0 0 20 20" xmlns="http://www.w3.org/2000/svg"><path d="M3 5.75c0-.41.34-.75.75-.75h2.5a.75.75 0 0 1 0 1.5h-2.5A.75.75 0 0 1 3 5.75Zm6 0c0-.41.34-.75.75-.75h6.5a.75.75 0 0 1 0 1.5h-6.5A.75.75 0 0 1 9 5.75Zm-6 3c0-.41.34-.75.75-.75h2.5a.75.75 0 0 1 0 1.5h-2.5A.75.75 0 0 1 3 8.75Zm6 0c0-.41.34-.75.75-.75h6.5a.75.75 0 0 1 0 1.5h-6.5A.75.75 0 0 1 9 8.75Zm-6 3c0-.41.34-.75.75-.75h2.5a.75.75 0 0 1 0 1.5h-2.5a.75.75 0 0 1-.75-.75Zm6 0c0-.41.34-.75.75-.75h6.5a.75.75 0 0 1 0 1.5h-6.5a.75.75 0 0 1-.75-.75Zm-6 3c0-.41.34-.75.75-.75h2.5a.75.75 0 0 1 0 1.5h-2.5a.75.75 0 0 1-.75-.75Zm6 0c0-.41.34-.75.75-.75h6.5a.75.75 0 0 1 0 1.5h-6.5a.75.75 0 0 1-.75-.75Z"/></svg>