<svg width="24" height="24" viewBox="0 0 24 24" xmlns="http://www.w3.org/2000/svg"><path d="M21 5.75a.75.75 0 0 0-.75-.75h-9.5a.75.75 0 0 0 0 1.5h9.5c.41 0 .75-.34.75-.75Zm-13 0A.75.75 0 0 0 7.25 5h-3.5a.75.75 0 0 0 0 1.5h3.5c.41 0 .75-.34.75-.75Zm13 4a.75.75 0 0 0-.75-.75h-9.5a.75.75 0 0 0 0 1.5h9.5c.41 0 .75-.34.75-.75Zm-13 0A.75.75 0 0 0 7.25 9h-3.5a.75.75 0 0 0 0 1.5h3.5c.41 0 .75-.34.75-.75Zm13 4a.75.75 0 0 0-.75-.75h-9.5a.75.75 0 0 0 0 1.5h9.5c.41 0 .75-.34.75-.75Zm-13 0a.75.75 0 0 0-.75-.75h-3.5a.75.75 0 0 0 0 1.5h3.5c.41 0 .75-.34.75-.75Zm13 4a.75.75 0 0 0-.75-.75h-9.5a.75.75 0 0 0 0 1.5h9.5c.41 0 .75-.34.75-.75Zm-13 0a.75.75 0 0 0-.75-.75h-3.5a.75.75 0 0 0 0 1.5h3.5c.41 0 .75-.34.75-.75Z"/></svg>