<svg width="24" height="24" viewBox="0 0 24 24" xmlns="http://www.w3.org/2000/svg"><path d="M6.5 8.25c0-.41.34-.75.75-.75h2.5c.41 0 .75.34.75.75v2.5c0 .41-.34.75-.75.75h-.5v2.69l1.56 1.56h2.69v-.5c0-.41.34-.75.75-.75h2.5c.41 0 .75.34.75.75v2.5c0 .41-.34.75-.75.75h-2.5a.75.75 0 01-.75-.75v-.5h-2.69l-1.78 1.78c-.3.3-.77.3-1.06 0l-2-2a.75.75 0 010-1.06l1.78-1.78V11.5h-.5a.75.75 0 01-.75-.75v-2.5zm12.91.16L13.6 2.6a.5.5 0 00-.05-.04 2.07 2.07 0 00-.34-.25l-.05-.03-.05-.03-.16-.09c-.2-.08-.41-.12-.63-.14h-.06a.6.6 0 00-.08-.01H6a2 2 0 00-2 2v16c0 1.1.9 2 2 2h12a2 2 0 002-2V9.83a2 2 0 00-.59-1.42zM18.5 20a.5.5 0 01-.5.5H6a.5.5 0 01-.5-.5V4c0-.27.22-.5.5-.5h6V8c0 1.1.9 2 2 2h4.5v10zm-5-15.38l3.88 3.88H14a.5.5 0 01-.5-.5V4.62z"/></svg>