<svg width="24" height="24" viewBox="0 0 24 24" xmlns="http://www.w3.org/2000/svg"><path d="M12 8V2H6a2 2 0 00-2 2v16c0 1.1.9 2 2 2h12a2 2 0 002-2V10h-6a2 2 0 01-2-2zm-5.5.25c0-.41.34-.75.75-.75h2.5c.41 0 .75.34.75.75v2.5c0 .41-.34.75-.75.75h-.5v2.69l1.56 1.56h2.69v-.5c0-.41.34-.75.75-.75h2.5c.41 0 .75.34.75.75v2.5c0 .41-.34.75-.75.75h-2.5a.75.75 0 01-.75-.75v-.5h-2.69l-1.78 1.78c-.3.3-.77.3-1.06 0l-2-2a.75.75 0 010-1.06l1.78-1.78V11.5h-.5a.75.75 0 01-.75-.75v-2.5zm7-.25V2.5l6 6H14a.5.5 0 01-.5-.5z"/></svg>