<svg width="20" height="20" viewBox="0 0 20 20" xmlns="http://www.w3.org/2000/svg"><path d="M6 7.5c0-.28.22-.5.5-.5h2c.28 0 .5.22.5.5v2a.5.5 0 01-.5.5H8v1.8L9.2 13H11v-.5c0-.28.22-.5.5-.5h2c.28 0 .5.22.5.5v2a.5.5 0 01-.5.5h-2a.5.5 0 01-.5-.5V14H9.2l-1.35 1.35a.5.5 0 01-.7 0l-1.5-1.5a.5.5 0 010-.7L7 11.79V10h-.5a.5.5 0 01-.5-.5v-2zM6 2a2 2 0 00-2 2v12c0 1.1.9 2 2 2h8a2 2 0 002-2V7.41c0-.4-.16-.78-.44-1.06l-3.91-3.91A1.5 1.5 0 0010.59 2H6zM5 4a1 1 0 011-1h4v3.5c0 .83.67 1.5 1.5 1.5H15v8a1 1 0 01-1 1H6a1 1 0 01-1-1V4zm9.8 3h-3.3a.5.5 0 01-.5-.5V3.2L14.8 7z"/></svg>