<svg width="20" height="20" viewBox="0 0 20 20" xmlns="http://www.w3.org/2000/svg"><path d="M12 3.5c0-.83.67-1.5 1.5-1.5h2c.83 0 1.5.67 1.5 1.5v6.1a5.48 5.48 0 00-5 0V3.5zm-9 0C3 2.67 3.67 2 4.5 2h2C7.33 2 8 2.67 8 3.5v13c0 .83-.67 1.5-1.5 1.5h-2A1.5 1.5 0 013 16.5v-13zm9.07 7.94a2 2 0 01-1.44 2.48l-.46.12a4.74 4.74 0 00.01 1.01l.35.09A2 2 0 0112 17.66l-.13.42c.26.2.54.38.84.52l.32-.35a2 2 0 012.91 0l.34.36c.3-.13.57-.3.82-.5l-.15-.55a2 2 0 011.43-2.48l.46-.12a4.73 4.73 0 00-.01-1.01l-.35-.09A2 2 0 0117 11.34l.13-.42c-.26-.2-.54-.38-.84-.52l-.32.35a2 2 0 01-2.91 0l-.34-.36c-.3.13-.57.3-.82.5l.16.55zm2.43 4.06a1 1 0 110-2 1 1 0 010 2z"/></svg>