<svg width="16" height="16" viewBox="0 0 16 16" xmlns="http://www.w3.org/2000/svg"><path d="M3.5 2C2.67 2 2 2.67 2 3.5v9c0 .83.67 1.5 1.5 1.5h2c.23 0 .45-.05.64-.14a5.5 5.5 0 01-.54-.87.5.5 0 01-.1.01h-2a.5.5 0 01-.5-.5v-9c0-.28.22-.5.5-.5h2c.28 0 .5.22.5.5v3.84c.28-.4.62-.77 1-1.08V3.5C7 2.67 6.33 2 5.5 2h-2zM14 3.5v2.76a5.5 5.5 0 00-1-.66V3.5a.5.5 0 00-.5-.5h-2a.5.5 0 00-.5.5v1.52c-.34.03-.68.1-1 .19V3.5c0-.83.67-1.5 1.5-1.5h2c.83 0 1.5.67 1.5 1.5zM8.07 7.44a2 2 0 01-1.44 2.48l-.46.12a4.71 4.71 0 00.01 1.01l.35.09A2 2 0 018 13.66l-.13.42c.26.2.54.38.84.52l.32-.35a2 2 0 012.91 0l.34.36c.3-.13.57-.3.82-.5l-.15-.55a2 2 0 011.43-2.48l.46-.12a4.73 4.73 0 00-.01-1.01l-.35-.09A2 2 0 0113 7.34l.13-.42c-.26-.2-.54-.38-.84-.52l-.32.35a2 2 0 01-2.91 0l-.34-.36c-.3.13-.57.3-.82.5l.16.55zm2.43 4.06a1 1 0 110-2 1 1 0 010 2z"/></svg>