<svg width="28" height="28" viewBox="0 0 28 28" xmlns="http://www.w3.org/2000/svg"><path d="M5.75 4A3.75 3.75 0 002 7.75v12.5A3.75 3.75 0 005.75 24h9.32c-.05-.25-.07-.5-.07-.75v-.2c0-.2.02-.37.05-.55h-9.3c-1.24 0-2.25-1-2.25-2.25V7.75c0-1.24 1-2.25 2.25-2.25h16.5c1.24 0 2.25 1 2.25 2.25v6.6c.57.65.94 1.48 1 2.4a.25.25 0 10.5 0v-9A3.75 3.75 0 0022.25 4H5.75zM24.5 17a3 3 0 11-6 0 3 3 0 016 0zm2.5 6.25c0 1.87-1.57 3.75-5.5 3.75-3.93 0-5.5-1.88-5.5-3.75v-.2c0-1.13.92-2.05 2.05-2.05h6.9c1.13 0 2.05.92 2.05 2.04v.21z"/></svg>