<svg width="20" height="20" viewBox="0 0 20 20" xmlns="http://www.w3.org/2000/svg"><path d="M12 4.5h-1.44l-2.4 2.53-.11.1c-.23.2-.52.33-.83.36l-.15.01H2v7.16A2.5 2.5 0 0 0 4.5 17H13v-1.94a.52.52 0 0 1 0-.12V14h-.5a.5.5 0 0 1 0-1h.5v-2h-.5a.5.5 0 0 1 0-1h.5V9h-.5a.5.5 0 0 1-.5-.5v-4Zm2 0h-1V8h1V4.5Zm1 0h.5a2.5 2.5 0 0 1 2.48 2.17l.01.17L18 7v7.5a2.5 2.5 0 0 1-2.34 2.5H14v-1.5h.5a.5.5 0 0 0 0-1H14v-.96a.48.48 0 0 0 0-.09v-.95h.5a.5.5 0 1 0 0-1H14V9h.5a.5.5 0 0 0 .5-.5v-4ZM7.93 3.21A1.5 1.5 0 0 0 7.17 3H4.34A2.5 2.5 0 0 0 2 5.5v1h5.15a.5.5 0 0 0 .22-.1l.06-.06L9.4 4.3 8.06 3.3l-.14-.09Z"/></svg>