<svg width="24" height="24" viewBox="0 0 24 24" xmlns="http://www.w3.org/2000/svg"><path d="M8.26 5.42a3.75 3.75 0 0 1 7.48 0 8 8 0 0 1 4.2 6.05 6.48 6.48 0 0 0-4.17-.24c.15-.24.23-.52.23-.81A2.42 2.42 0 0 0 13.58 8h-3.16A2.42 2.42 0 0 0 8 10.42c0 .87.7 1.58 1.58 1.58h4.45c-.8.51-1.5 1.2-2 2H4v-1.5a8 8 0 0 1 4.26-7.08Zm1.72-.66a8.01 8.01 0 0 1 4.04 0 2.25 2.25 0 0 0-4.04 0Zm1.27 10.95H9.5v1.54a.75.75 0 0 1-1.5 0v-1.54H4v3.04C4 20.55 5.46 22 7.25 22h5.56a6.48 6.48 0 0 1-1.56-6.29Zm-1.75-5.3c0-.5.41-.91.92-.91h3.16c.51 0 .92.41.92.92 0 .04-.04.08-.08.08H9.58a.08.08 0 0 1-.08-.08Zm8 1.59a5.5 5.5 0 1 1 0 11 5.5 5.5 0 0 1 0-11Zm.5 8.5V18h2.5a.5.5 0 0 0 0-1H18v-2.5a.5.5 0 1 0-1 0V17h-2.5a.5.5 0 0 0 0 1H17v2.5a.5.5 0 1 0 1 0Z"/></svg>