<svg width="20" height="20" viewBox="0 0 20 20" xmlns="http://www.w3.org/2000/svg"><path d="M11 15h2v2h-2v-2Zm4 0h2v2h-2v-2Zm-4-4h2v2h-2v-2Zm2 2h2v2h-2v-2Zm2-2h2v2h-2v-2ZM3 5c0-1.1.9-2 2-2h2a2 2 0 0 1 2 2v2a2 2 0 0 1-2 2H5a2 2 0 0 1-2-2V5Zm2-1a1 1 0 0 0-1 1v2a1 1 0 0 0 1 1h2a1 1 0 0 0 1-1V5a1 1 0 0 0-1-1H5Zm0 1h2v2H5V5Zm-2 8c0-1.1.9-2 2-2h2a2 2 0 0 1 2 2v2a2 2 0 0 1-2 2H5a2 2 0 0 1-2-2v-2Zm2-1a1 1 0 0 0-1 1v2a1 1 0 0 0 1 1h2a1 1 0 0 0 1-1v-2a1 1 0 0 0-1-1H5Zm0 1h2v2H5v-2Zm6-8c0-1.1.9-2 2-2h2a2 2 0 0 1 2 2v2a2 2 0 0 1-2 2h-2a2 2 0 0 1-2-2V5Zm2-1a1 1 0 0 0-1 1v2a1 1 0 0 0 1 1h2a1 1 0 0 0 1-1V5a1 1 0 0 0-1-1h-2Zm0 1h2v2h-2V5Z"/></svg>