<svg width="28" height="28" viewBox="0 0 28 28" xmlns="http://www.w3.org/2000/svg"><path d="M10.75 15c1.24 0 2.25 1 2.25 2.25v5.5c0 1.24-1 2.25-2.25 2.25h-5.5C4.01 25 3 24 3 22.75v-5.5C3 16.01 4 15 5.25 15h5.5Zm7.58 0v3.33h3.34v3.34h-3.34V25H15v-3.33h3.33v-3.34H15V15h3.33ZM25 21.67V25h-3.33v-3.33H25ZM10.75 16.5h-5.5a.75.75 0 0 0-.75.75v5.5c0 .41.34.75.75.75h5.5c.41 0 .75-.34.75-.75v-5.5a.75.75 0 0 0-.75-.75Zm-1.25 2v3h-3v-3h3ZM25 15v3.33h-3.33V15H25ZM10.75 3C11.99 3 13 4 13 5.25v5.5c0 1.24-1 2.25-2.25 2.25h-5.5C4.01 13 3 12 3 10.75v-5.5C3 4.01 4 3 5.25 3h5.5Zm12 0C23.99 3 25 4 25 5.25v5.5c0 1.24-1 2.25-2.25 2.25h-5.5C16.01 13 15 12 15 10.75v-5.5C15 4.01 16 3 17.25 3h5.5Zm-12 1.5h-5.5a.75.75 0 0 0-.75.75v5.5c0 .41.34.75.75.75h5.5c.41 0 .75-.34.75-.75v-5.5a.75.75 0 0 0-.75-.75Zm12 0h-5.5a.75.75 0 0 0-.75.75v5.5c0 .41.34.75.75.75h5.5c.41 0 .75-.34.75-.75v-5.5a.75.75 0 0 0-.75-.75ZM9.5 6.5v3h-3v-3h3Zm12 0v3h-3v-3h3Z"/></svg>