<svg width="20" height="20" viewBox="0 0 20 20" xmlns="http://www.w3.org/2000/svg"><path d="M11 15h2v2h-2v-2zm4 0h2v2h-2v-2zm-4-4h2v2h-2v-2zm2 2h2v2h-2v-2zm2-2h2v2h-2v-2zM3 5c0-1.1.9-2 2-2h2a2 2 0 012 2v2a2 2 0 01-2 2H5a2 2 0 01-2-2V5zm2-1a1 1 0 00-1 1v2a1 1 0 001 1h2a1 1 0 001-1V5a1 1 0 00-1-1H5zm0 1h2v2H5V5zm-2 8c0-1.1.9-2 2-2h2a2 2 0 012 2v2a2 2 0 01-2 2H5a2 2 0 01-2-2v-2zm2-1a1 1 0 00-1 1v2a1 1 0 001 1h2a1 1 0 001-1v-2a1 1 0 00-1-1H5zm0 1h2v2H5v-2zm6-8c0-1.1.9-2 2-2h2a2 2 0 012 2v2a2 2 0 01-2 2h-2a2 2 0 01-2-2V5zm2-1a1 1 0 00-1 1v2a1 1 0 001 1h2a1 1 0 001-1V5a1 1 0 00-1-1h-2zm0 1h2v2h-2V5z"/></svg>