<svg width="24" height="24" viewBox="0 0 24 24" xmlns="http://www.w3.org/2000/svg"><path d="M8 6H6v2h2V6Zm-5-.5A2.5 2.5 0 0 1 5.5 3h3A2.5 2.5 0 0 1 11 5.5v3A2.5 2.5 0 0 1 8.5 11h-3A2.5 2.5 0 0 1 3 8.5v-3ZM5.5 5a.5.5 0 0 0-.5.5v3c0 .28.22.5.5.5h3a.5.5 0 0 0 .5-.5v-3a.5.5 0 0 0-.5-.5h-3ZM6 16h2v2H6v-2Zm-3-.5A2.5 2.5 0 0 1 5.5 13h3a2.5 2.5 0 0 1 2.5 2.5v3A2.5 2.5 0 0 1 8.5 21h-3A2.5 2.5 0 0 1 3 18.5v-3Zm2.5-.5a.5.5 0 0 0-.5.5v3c0 .28.22.5.5.5h3a.5.5 0 0 0 .5-.5v-3a.5.5 0 0 0-.5-.5h-3ZM18 6h-2v2h2V6Zm-2.5-3A2.5 2.5 0 0 0 13 5.5v3a2.5 2.5 0 0 0 2.5 2.5h3A2.5 2.5 0 0 0 21 8.5v-3A2.5 2.5 0 0 0 18.5 3h-3ZM15 5.5c0-.28.22-.5.5-.5h3c.28 0 .5.22.5.5v3a.5.5 0 0 1-.5.5h-3a.5.5 0 0 1-.5-.5v-3ZM13 13h2.75v2.75H13V13Zm5.25 2.75h-2.5v2.5H13V21h2.75v-2.75h2.5V21H21v-2.75h-2.75v-2.5Zm0 0V13H21v2.75h-2.75Z"/></svg>