<svg width="20" height="20" viewBox="0 0 20 20" xmlns="http://www.w3.org/2000/svg"><path d="M13.58 9H17V8h-4v1.12c.18-.08.38-.12.58-.12Zm-2.25 3 .67-1.6V8H8v4h3.33Zm-1.21 2.92.8-1.92H8v4h3.5a1.5 1.5 0 0 1-1.38-2.08ZM7 12V8H3v4h4Zm-4 1h4v4H5.5A2.5 2.5 0 0 1 3 14.5V13Zm10-6h4V5.5A2.5 2.5 0 0 0 14.5 3H13v4Zm-1-4v4H8V3h4ZM7 3v4H3V5.5A2.5 2.5 0 0 1 5.5 3H7Zm5.61 13c.33 0 .56.3.49.62l-.44 1.74c-.12.48.46.83.83.49l4.87-4.55a.75.75 0 0 0-.51-1.3h-.4a.5.5 0 0 1-.48-.66l.56-1.68a.5.5 0 0 0-.47-.66h-3.48a.5.5 0 0 0-.46.3l-2.08 5c-.14.34.1.7.46.7h1.11Z"/></svg>