<svg width="32" height="32" viewBox="0 0 32 32" xmlns="http://www.w3.org/2000/svg"><path d="M8.5 7c0-1.1.9-2 2-2h12A4.5 4.5 0 0127 9.5V17a2 2 0 01-.27 1c.7.05 1.37.22 1.98.5.19-.46.29-.97.29-1.5V9.5A6.5 6.5 0 0022.5 3h-12a4 4 0 00-4 4v.11A4.5 4.5 0 003 11.5V22a4 4 0 004 4h1v2.5a1.5 1.5 0 002.46 1.15l4.4-3.65h.08c-.25-.62-.4-1.3-.43-2h-.01a1 1 0 00-.64.23L10 27.43V25a1 1 0 00-1-1H7a2 2 0 01-2-2V11.5A2.5 2.5 0 017.5 9h13a2.5 2.5 0 012.5 2.5V18h2v-6.5A4.5 4.5 0 0020.5 7h-12zm11.75 12.5a4.25 4.25 0 000 8.5h1a.75.75 0 000-1.5h-1a2.75 2.75 0 110-5.5h1a.75.75 0 000-1.5h-1zm6 0a4.25 4.25 0 010 8.5h-1.5a.75.75 0 010-1.5h1.5a2.75 2.75 0 100-5.5h-1.5a.75.75 0 010-1.5h1.5zM20 23.75c0-.41.34-.75.75-.75h5a.75.75 0 010 1.5h-5a.75.75 0 01-.75-.75z"/></svg>