<svg width="32" height="32" viewBox="0 0 32 32" xmlns="http://www.w3.org/2000/svg"><path d="M10.5 3a4 4 0 00-3.73 2.54c.24-.03.48-.04.73-.04h13a6 6 0 016 6V18c.78.04 1.52.22 2.2.54.2-.48.3-1 .3-1.54V9.5A6.5 6.5 0 0022.5 3h-12zM25 11.5V18h-5.27a5.74 5.74 0 00-5.16 8.24l-4.11 3.41A1.5 1.5 0 018 28.5V26H7a4 4 0 01-4-4V11.5A4.5 4.5 0 017.5 7h13a4.5 4.5 0 014.5 4.5zm-9.5 12.25c0-2.35 1.9-4.25 4.25-4.25h1a.75.75 0 010 1.5h-1a2.75 2.75 0 100 5.5h1a.75.75 0 010 1.5h-1a4.25 4.25 0 01-4.25-4.25zm15 0c0-2.35-1.9-4.25-4.25-4.25h-1.5a.75.75 0 000 1.5h1.5a2.75 2.75 0 110 5.5h-1.5a.75.75 0 000 1.5h1.5c2.35 0 4.25-1.9 4.25-4.25zm-11 0c0-.41.34-.75.75-.75h5.5a.75.75 0 010 1.5h-5.5a.75.75 0 01-.75-.75z"/></svg>