<svg width="16" height="16" viewBox="0 0 16 16" xmlns="http://www.w3.org/2000/svg"><path d="M3.05 3A2.5 2.5 0 015.5 1H12a3 3 0 013 3v4.5c0 .46-.12.88-.33 1.25a3.5 3.5 0 00-.87-.5c.13-.22.2-.48.2-.75V4a2 2 0 00-2-2H5.5c-.65 0-1.2.42-1.41 1H11a2 2 0 012 2v4.04a3.53 3.53 0 00-.5-.04H12V5a1 1 0 00-1-1H3a1 1 0 00-1 1v6a1 1 0 001 1h1v2.03l1.08-.77c.08.34.2.66.37.96l-.87.62A1 1 0 013 14.03V13a2 2 0 01-2-2V5c0-1.1.9-2 2-2h.05zm5.45 7a2.5 2.5 0 000 5H9a.5.5 0 000-1h-.5a1.5 1.5 0 010-3H9a.5.5 0 000-1h-.5zm3.5 0a.5.5 0 000 1h.5a1.5 1.5 0 010 3H12a.5.5 0 000 1h.5a2.5 2.5 0 000-5H12zm-4 2.5c0-.28.22-.5.5-.5h4a.5.5 0 010 1h-4a.5.5 0 01-.5-.5z"/></svg>