<svg width="28" height="28" viewBox="0 0 28 28" xmlns="http://www.w3.org/2000/svg"><path d="M6 6.01v-.25a3.75 3.75 0 013.75-3.75h10.5A5.75 5.75 0 0126 7.76v6.99c0 .66-.17 1.29-.48 1.83a4.72 4.72 0 00-1.45-.5c.27-.38.43-.84.43-1.33V7.76c0-2.35-1.9-4.25-4.25-4.25H9.75c-1.24 0-2.25 1-2.25 2.25v.25h10.75A3.75 3.75 0 0122 9.76V16h-1.5V9.76c0-1.24-1-2.25-2.25-2.25H5.75c-1.24 0-2.25 1-2.25 2.25v8.99c0 1.24 1 2.25 2.25 2.25h1c.41 0 .75.34.75.75v2.49l4.05-3.09c.13-.1.29-.15.45-.15h1c.03.53.15 1.03.33 1.5h-1.08l-4.24 3.23c-.83.63-2.01.05-2.01-.99V22.5h-.25A3.75 3.75 0 012 18.75V9.76a3.75 3.75 0 013.75-3.75H6zM17.75 18.5a2.25 2.25 0 000 4.5h.5a.75.75 0 010 1.5h-.5a3.75 3.75 0 110-7.5h.5a.75.75 0 010 1.5h-.5zM17 20.75c0-.41.34-.75.75-.75h5.5a.75.75 0 010 1.5h-5.5a.75.75 0 01-.75-.75zM23.25 23a2.25 2.25 0 000-4.5h-.5a.75.75 0 010-1.5h.5a3.75 3.75 0 110 7.5h-.5a.75.75 0 010-1.5h.5z"/></svg>