<svg width="32" height="32" viewBox="0 0 32 32" xmlns="http://www.w3.org/2000/svg"><path d="M10.5 3a4 4 0 00-3.73 2.54c.24-.03.48-.04.73-.04h13a6 6 0 016 6V18a5.4 5.4 0 012.2.5c.2-.46.3-.97.3-1.5V9.5A6.5 6.5 0 0022.5 3h-12zM25 11.5V18h-4.93a5.66 5.66 0 00-5.57 5.75c0 .8.16 1.56.44 2.25h-.08l-4.4 3.65A1.5 1.5 0 018 28.5V26H7a4 4 0 01-4-4V11.5A4.5 4.5 0 017.5 7h13a4.5 4.5 0 014.5 4.5zm-4.75 8a4.25 4.25 0 000 8.5h1a.75.75 0 000-1.5h-1a2.75 2.75 0 110-5.5h1a.75.75 0 000-1.5h-1zm6 0a4.25 4.25 0 010 8.5h-1.5a.75.75 0 010-1.5h1.5a2.75 2.75 0 100-5.5h-1.5a.75.75 0 010-1.5h1.5zM20 23.75c0-.41.34-.75.75-.75h5a.75.75 0 010 1.5h-5a.75.75 0 01-.75-.75z"/></svg>