<svg width="28" height="28" viewBox="0 0 28 28" xmlns="http://www.w3.org/2000/svg"><path d="M9.75 2.01a3.75 3.75 0 00-3.67 3h12.17A4.75 4.75 0 0123 9.76V16h.25c.82 0 1.6.21 2.27.58.3-.54.48-1.17.48-1.83V7.76a5.75 5.75 0 00-5.75-5.75H9.75zM22 9.76V16h-4.25a4.75 4.75 0 00-4.42 6.5h-1.08l-4.24 3.23c-.83.63-2.01.04-2.01-.99V22.5h-.25A3.75 3.75 0 012 18.75V9.76a3.75 3.75 0 013.75-3.75h12.5A3.75 3.75 0 0122 9.76zm-4.25 8.74a2.25 2.25 0 000 4.5h.5a.75.75 0 010 1.5h-.5a3.75 3.75 0 110-7.5h.5a.75.75 0 010 1.5h-.5zM17 20.75c0-.41.34-.75.75-.75h5.5a.75.75 0 010 1.5h-5.5a.75.75 0 01-.75-.75zM23.25 23a2.25 2.25 0 000-4.5h-.5a.75.75 0 010-1.5h.5a3.75 3.75 0 110 7.5h-.5a.75.75 0 010-1.5h.5z"/></svg>