<svg width="16" height="16" viewBox="0 0 16 16" xmlns="http://www.w3.org/2000/svg"><path d="M5.5 1a2.5 2.5 0 0 0-2.45 2H10a3 3 0 0 1 3 3v3.04c.62.08 1.2.34 1.67.71.2-.37.33-.8.33-1.25V4a3 3 0 0 0-3-3H5.5ZM12 6v3H8.5a3.5 3.5 0 0 0-3.05 5.22l-.87.62A1 1 0 0 1 3 14.03V13a2 2 0 0 1-2-2V6c0-1.1.9-2 2-2h7a2 2 0 0 1 2 2Zm-3.5 4a2.5 2.5 0 0 0 0 5H9a.5.5 0 0 0 0-1h-.5a1.5 1.5 0 0 1 0-3H9a.5.5 0 0 0 0-1h-.5Zm3.5 0a.5.5 0 0 0 0 1h.5a1.5 1.5 0 0 1 0 3H12a.5.5 0 0 0 0 1h.5a2.5 2.5 0 0 0 0-5H12Zm-4 2.5c0-.28.22-.5.5-.5h4a.5.5 0 0 1 0 1h-4a.5.5 0 0 1-.5-.5Z"/></svg>