<svg width="16" height="16" viewBox="0 0 16 16" xmlns="http://www.w3.org/2000/svg"><path d="M3.05 3A2.5 2.5 0 0 1 5.5 1H12a3 3 0 0 1 3 3v4.5c0 .46-.12.88-.33 1.25a3.5 3.5 0 0 0-.87-.5c.13-.22.2-.48.2-.75V4a2 2 0 0 0-2-2H5.5c-.65 0-1.2.42-1.41 1H11a2 2 0 0 1 2 2v4.04a3.53 3.53 0 0 0-.5-.04H12V5a1 1 0 0 0-1-1H3a1 1 0 0 0-1 1v6a1 1 0 0 0 1 1h1v2.03l1.08-.77c.08.34.2.66.37.96l-.87.62A1 1 0 0 1 3 14.03V13a2 2 0 0 1-2-2V5c0-1.1.9-2 2-2h.05Zm5.45 7a2.5 2.5 0 0 0 0 5H9a.5.5 0 0 0 0-1h-.5a1.5 1.5 0 0 1 0-3H9a.5.5 0 0 0 0-1h-.5Zm3.5 0a.5.5 0 0 0 0 1h.5a1.5 1.5 0 0 1 0 3H12a.5.5 0 0 0 0 1h.5a2.5 2.5 0 0 0 0-5H12Zm-4 2.5c0-.28.22-.5.5-.5h4a.5.5 0 0 1 0 1h-4a.5.5 0 0 1-.5-.5Z"/></svg>