<svg width="24" height="24" viewBox="0 0 24 24" xmlns="http://www.w3.org/2000/svg"><path d="M5 5c.13-1.67 1.54-3 3.25-3h9A4.75 4.75 0 0122 6.75v6c0 .35-.06.7-.16 1.02a4.73 4.73 0 00-1.39-.62c.03-.13.05-.26.05-.4v-6c0-1.8-1.46-3.25-3.25-3.25h-9c-.88 0-1.61.65-1.73 1.5h9.23C17.55 5 19 6.46 19 8.25V13h-1.5V8.25c0-.97-.78-1.75-1.75-1.75H5.25c-.97 0-1.75.78-1.75 1.75v7.5c0 .97.78 1.75 1.75 1.75H6.5v2.75l3.67-2.75H11a4.82 4.82 0 00.16 1.5h-.5L7 21.75c-.82.62-2 .03-2-1v-1.76a3.25 3.25 0 01-3-3.24v-7.5a3.25 3.25 0 013-3.24zm18 12.75A3.75 3.75 0 0019.25 14h-.1a.75.75 0 00.1 1.5h.15a2.25 2.25 0 01-.15 4.5l-.1.01a.75.75 0 00.1 1.5v-.01h.2A3.75 3.75 0 0023 17.74zm-6.5-3a.75.75 0 00-.75-.75h-.2a3.75 3.75 0 00.2 7.5h.1a.75.75 0 00-.1-1.5h-.15a2.25 2.25 0 01.15-4.5h.1a.75.75 0 00.65-.75zm3.5 3a.75.75 0 00-.75-.75h-3.6a.75.75 0 00.1 1.5h3.6a.75.75 0 00.65-.75z"/></svg>