<svg width="24" height="24" viewBox="0 0 24 24" xmlns="http://www.w3.org/2000/svg"><path d="M8.25 2a3.25 3.25 0 00-3.24 3h9.74C17.1 5 19 6.9 19 9.25V13h.25c.95 0 1.84.28 2.59.77.1-.32.16-.67.16-1.02v-6A4.75 4.75 0 0017.25 2h-9zM18 9.25V13h-2.25a4.75 4.75 0 00-4.58 6h-.5L7 21.75c-.82.62-2 .03-2-1v-1.76a3.25 3.25 0 01-3-3.24v-6.5A3.25 3.25 0 015.25 6h9.5C16.55 6 18 7.46 18 9.25zm5 8.5A3.75 3.75 0 0019.25 14h-.1a.75.75 0 00.1 1.5h.15a2.25 2.25 0 01-.15 4.5l-.1.01a.75.75 0 00.1 1.5v-.01h.2A3.75 3.75 0 0023 17.74zm-6.5-3a.75.75 0 00-.75-.75h-.2a3.75 3.75 0 00.2 7.5h.1a.75.75 0 00-.1-1.5h-.15a2.25 2.25 0 01.15-4.5h.1a.75.75 0 00.65-.75zm3.5 3a.75.75 0 00-.75-.75h-3.6a.75.75 0 00.1 1.5h3.6a.75.75 0 00.65-.75z"/></svg>