<svg width="20" height="20" viewBox="0 0 20 20" xmlns="http://www.w3.org/2000/svg"><path d="M6.5 2a2.5 2.5 0 0 0-2.46 2.03C4.2 4 4.34 4 4.5 4h8A3.5 3.5 0 0 1 16 7.5V11h.5c.49 0 .95.1 1.38.28.08-.24.12-.5.12-.78V6a4 4 0 0 0-4-4H6.5ZM15 7.5V11h-2.5a3.5 3.5 0 0 0-3.16 5h-.18l-2.58 1.84A1 1 0 0 1 5 17.03V16h-.5A2.5 2.5 0 0 1 2 13.5v-6A2.5 2.5 0 0 1 4.5 5h8A2.5 2.5 0 0 1 15 7.5ZM12.5 12a2.5 2.5 0 0 0 0 5h.5a.5.5 0 0 0 0-1h-.5a1.5 1.5 0 0 1 0-3h.5a.5.5 0 0 0 0-1h-.5Zm3.5 0a.5.5 0 0 0 0 1h.5a1.5 1.5 0 0 1 0 3H16a.5.5 0 0 0 0 1h.5a2.5 2.5 0 0 0 0-5H16Zm-4 2.5c0-.28.22-.5.5-.5h4a.5.5 0 0 1 0 1h-4a.5.5 0 0 1-.5-.5Z"/></svg>