<svg width="24" height="24" viewBox="0 0 24 24" xmlns="http://www.w3.org/2000/svg"><path d="M20 6.5c0 2.2-3.58 4-8 4s-8-1.8-8-4 3.58-4 8-4 8 1.8 8 4Zm-2.23 4.43A15 15 0 0 1 12 12c-2.4 0-4.63-.48-6.33-1.33A7.61 7.61 0 0 1 4 9.55v8.95c0 2.2 3.58 4 8 4 .55 0 1.09-.03 1.61-.08a3.69 3.69 0 0 1-.61-2.05v-.1a2.77 2.77 0 0 1 2.77-2.77h.28a3.49 3.49 0 0 1 .88-5.63c.4-.2.73-.52.84-.94ZM21 15a2.5 2.5 0 1 1-5 0 2.5 2.5 0 0 1 5 0Zm2 5.38c0 1.55-1.29 3.12-4.5 3.12S14 21.94 14 20.37v-.1c0-.98.8-1.77 1.77-1.77h5.46c.98 0 1.77.8 1.77 1.77v.1Z"/></svg>