<svg width="24" height="24" viewBox="0 0 24 24" xmlns="http://www.w3.org/2000/svg"><path d="M10.79 3.1c.5-1 1.92-1 2.42 0l1.69 3.43a2.25 2.25 0 0 0-.68 4.22 2.25 2.25 0 0 0 0 4 2.25 2.25 0 0 0-.77 3.35l-6.17 3.24a1.35 1.35 0 0 1-1.96-1.42l.9-5.25-3.81-3.72c-.8-.78-.36-2.14.75-2.3l5.27-.77 2.36-4.78Zm3.71 13.65c0-.41.34-.75.75-.75h6a.75.75 0 0 1 0 1.5h-6a.75.75 0 0 1-.75-.75Zm0-4c0-.41.34-.75.75-.75h6a.75.75 0 0 1 0 1.5h-6a.75.75 0 0 1-.75-.75Zm0-4c0-.41.34-.75.75-.75h6a.75.75 0 0 1 0 1.5h-6a.75.75 0 0 1-.75-.75Z"/></svg>