<svg width="28" height="28" viewBox="0 0 28 28" xmlns="http://www.w3.org/2000/svg"><path d="M21.75 3C23.55 3 25 4.46 25 6.25v9.8a2.51 2.51 0 00-1.5.16V9.5h-19v12.24c0 .97.78 1.75 1.75 1.75H14V25H6.25A3.25 3.25 0 013 21.75V6.25C3 4.45 4.46 3 6.25 3h15.5zm0 1.5H6.25c-.97 0-1.75.78-1.75 1.75V8h19V6.25c0-.97-.78-1.75-1.75-1.75zM20.5 14c-.83 0-1.5.67-1.5 1.5v10a1.5 1.5 0 003 0v-10c0-.83-.67-1.5-1.5-1.5zm-4 6c-.83 0-1.5.67-1.5 1.5v4a1.5 1.5 0 003 0v-4c0-.83-.67-1.5-1.5-1.5zm6.5-1.5a1.5 1.5 0 013 0v7a1.5 1.5 0 01-3 0v-7z"/></svg>