<svg width="24" height="24" viewBox="0 0 24 24" xmlns="http://www.w3.org/2000/svg"><path d="M17.75 3C19.55 3 21 4.46 21 6.25v6.8c-.37.07-.7.23-1 .45 0-.56-.19-1.08-.5-1.5V8.5h-15v9.25c0 .97.78 1.75 1.75 1.75H11V21H6.25A3.25 3.25 0 013 17.75V6.25C3 4.45 4.46 3 6.25 3h11.5zm0 1.5H6.25c-.97 0-1.75.78-1.75 1.75V7h15v-.75c0-.97-.78-1.75-1.75-1.75zM17.5 12c-.83 0-1.5.67-1.5 1.5v8a1.5 1.5 0 003 0v-8c0-.83-.67-1.5-1.5-1.5zm-4 4c-.83 0-1.5.67-1.5 1.5v4a1.5 1.5 0 003 0v-4c0-.83-.67-1.5-1.5-1.5zm6.5-.5a1.5 1.5 0 013 0v6a1.5 1.5 0 01-3 0v-6z"/></svg>