<svg width="32" height="32" viewBox="0 0 32 32" xmlns="http://www.w3.org/2000/svg"><path d="M3 7.5A4.5 4.5 0 0 1 7.5 3h17A4.5 4.5 0 0 1 29 7.5V12H3V7.5Zm8.77 6.73a2.51 2.51 0 0 0-.27-.23H29v10.5a4.5 4.5 0 0 1-4.5 4.5h-14A2.5 2.5 0 0 0 9 26.7v-2a6 6 0 0 0 3.5-5.45V16c0-.66-.26-1.3-.73-1.77ZM11.5 8a1.5 1.5 0 1 0-3 0 1.5 1.5 0 0 0 3 0ZM17 7a1 1 0 1 0 0 2h5a1 1 0 1 0 0-2h-5ZM3 15a1 1 0 0 0-1 1v3.25a4.5 4.5 0 0 0 3.5 4.39V28H5a1 1 0 1 0 0 2h3a1 1 0 1 0 0-2h-.5v-4.36a4.5 4.5 0 0 0 3.5-4.39V16a1 1 0 0 0-1-1H3Z"/></svg>