<svg width="32" height="32" viewBox="0 0 32 32" xmlns="http://www.w3.org/2000/svg"><path d="M3 7.5A4.5 4.5 0 0 1 7.5 3h17A4.5 4.5 0 0 1 29 7.5v17a4.5 4.5 0 0 1-4.5 4.5h-14c0-.82-.4-1.54-1-2h15a2.5 2.5 0 0 0 2.5-2.5V13H5v.5H3v-6Zm24 0A2.5 2.5 0 0 0 24.5 5h-17A2.5 2.5 0 0 0 5 7.5V11h22V7.5ZM11.5 8a1.5 1.5 0 1 1-3 0 1.5 1.5 0 0 1 3 0ZM16 8a1 1 0 0 1 1-1h5a1 1 0 1 1 0 2h-5a1 1 0 0 1-1-1ZM3 15a1 1 0 0 0-1 1v3.25a4.5 4.5 0 0 0 3.5 4.39V28H5a1 1 0 1 0 0 2h3a1 1 0 1 0 0-2h-.5v-4.36a4.5 4.5 0 0 0 3.5-4.39V16a1 1 0 0 0-1-1H3Z"/></svg>