<svg width="28" height="28" viewBox="0 0 28 28" xmlns="http://www.w3.org/2000/svg"><path d="M2 7.75A3.75 3.75 0 015.75 4h16.5A3.75 3.75 0 0126 7.75v9c0 .14-.11.25-.25.25a.26.26 0 01-.26-.25 3.98 3.98 0 00-.99-2.4v-6.6c0-1.24-1-2.25-2.25-2.25H5.75c-1.24 0-2.25 1-2.25 2.25v12.5c0 1.24 1 2.25 2.25 2.25h9.3c-.03.18-.05.36-.05.54v.21c0 .25.02.5.07.75H5.75A3.75 3.75 0 012 20.25V7.75zM21.5 20a3 3 0 100-6 3 3 0 000 6zm0 7c3.93 0 5.5-1.88 5.5-3.75v-.2c0-1.13-.92-2.05-2.05-2.05h-6.9c-1.13 0-2.05.92-2.05 2.04v.21c0 1.87 1.57 3.75 5.5 3.75zM8.75 9a.75.75 0 00-.75.75v8.5a.75.75 0 001.5 0V16h2a3.5 3.5 0 100-7H8.75zm2.75 5.5h-2v-4h2a2 2 0 110 4z"/></svg>