<svg width="28" height="28" viewBox="0 0 28 28" xmlns="http://www.w3.org/2000/svg"><path d="M2 7.75A3.75 3.75 0 015.75 4h16.5A3.75 3.75 0 0126 7.75v9c0 .14-.11.25-.25.25a.26.26 0 01-.26-.25A4 4 0 1018.85 20h-.8A3.04 3.04 0 0015 23.04v.21c0 .25.02.5.07.75H5.75A3.75 3.75 0 012 20.25V7.75zm6 2v8.5a.75.75 0 001.5 0V16h2a3.5 3.5 0 100-7H8.75a.75.75 0 00-.75.75zm1.5 4.75h2a2 2 0 100-4h-2v4zm15 2.5a3 3 0 11-6 0 3 3 0 016 0zm2.5 6.25c0 1.87-1.57 3.75-5.5 3.75-3.93 0-5.5-1.88-5.5-3.75v-.2c0-1.13.92-2.05 2.05-2.05h6.9c1.13 0 2.05.92 2.05 2.04v.21z"/></svg>