<svg width="24" height="24" viewBox="0 0 24 24" xmlns="http://www.w3.org/2000/svg"><path d="M2 7.25C2 5.45 3.46 4 5.25 4h13.5C20.55 4 22 5.46 22 7.25v7.25a3.5 3.5 0 10-5.95 2.5h-.28A2.77 2.77 0 0013 19.77v.1a4 4 0 000 .13H5.25A3.25 3.25 0 012 16.75v-9.5zm5 1.5v6.5a.75.75 0 001.5 0V13.5h1.25a2.75 2.75 0 100-5.5h-2a.75.75 0 00-.75.75zM8.5 12h1.25a1.25 1.25 0 100-2.5H8.5V12zM21 14.5a2.5 2.5 0 11-5 0 2.5 2.5 0 015 0zm2 5.38c0 1.55-1.29 3.12-4.5 3.12S14 21.44 14 19.87v-.1c0-.98.8-1.77 1.77-1.77h5.46c.98 0 1.77.8 1.77 1.77v.1z"/></svg>