<svg width="24" height="24" viewBox="0 0 24 24" xmlns="http://www.w3.org/2000/svg"><path d="M18.5 20a.5.5 0 0 1-.5.5H9V22h9a2 2 0 0 0 2-2V9.83a2 2 0 0 0-.59-1.42L13.6 2.6a.49.49 0 0 0-.05-.04 2.07 2.07 0 0 0-.34-.25l-.05-.03-.05-.03-.16-.09c-.2-.08-.41-.12-.63-.14h-.06a.6.6 0 0 0-.08-.01H6a2 2 0 0 0-2 2v7.26A4.5 4.5 0 0 1 5.5 11V4c0-.27.22-.5.5-.5h6V8c0 1.1.9 2 2 2h4.5v10Zm-5-15.38 3.88 3.88H14a.5.5 0 0 1-.5-.5V4.62ZM9 15.5a3.5 3.5 0 1 1-7 0 3.5 3.5 0 0 1 7 0Zm-6 3.74v3.05c0 .63.76.95 1.21.5L5.5 21.5l1.29 1.3A.71.71 0 0 0 8 22.28v-3.05a4.48 4.48 0 0 1-5 0Z"/></svg>