<svg width="16" height="16" viewBox="0 0 16 16" xmlns="http://www.w3.org/2000/svg"><path d="M4 3.5a.5.5 0 0 0-1 0v1.88l-.95 1.9A.5.5 0 0 0 2 7.5v3c0 .28.22.5.5.5H3v1.5a.5.5 0 0 0 1 0V11h1v1.5a.5.5 0 0 0 1 0V11h.5a.5.5 0 0 0 .5-.5v-3a.5.5 0 0 0-.05-.22L6 5.38V3.5a.5.5 0 0 0-1 0v2c0 .08.02.15.05.22L6 7.62V10H3V7.62l.95-1.9A.5.5 0 0 0 4 5.5v-2Zm8 9v-2a.5.5 0 0 1 .05-.22l.95-1.9V6h-3v2.38l.95 1.9a.5.5 0 0 1 .05.22v2a.5.5 0 0 1-1 0v-1.88l-.95-1.9A.5.5 0 0 1 9 8.5v-3c0-.28.22-.5.5-.5h.5V3.5c0-.28.22-.5.5-.5h2c.28 0 .5.22.5.5V5h.5a.5.5 0 0 1 .5.5v3a.5.5 0 0 1-.05.22l-.95 1.9v1.88a.5.5 0 0 1-1 0ZM11 5h1V4h-1v1Z"/></svg>