<svg width="24" height="24" viewBox="0 0 24 24" xmlns="http://www.w3.org/2000/svg"><path d="M8.25 4c.38 0 .7.28.74.65l.01.1v2.77l1.88 2.82c.06.1.1.2.11.3l.01.11v4.5c0 .38-.28.7-.65.74l-.1.01H9v3.25a.75.75 0 01-1.5.1V16h-2v3.26a.75.75 0 01-1.49.1V16H2.74a.75.75 0 01-.74-.65v-4.6c0-.1.02-.22.07-.32l.05-.1L4 7.54V4.74a.75.75 0 011.5-.1v3.1c0 .11-.02.22-.07.32l-.05.1-1.88 2.81v3.52h6v-3.52L7.63 8.17a.75.75 0 01-.12-.31V4.75c0-.41.33-.75.74-.75zm7 0h4.5c.38 0 .7.28.74.65l.01.1V8h.75c.38 0 .7.28.74.65l.01.1v4.5c0 .1-.02.22-.07.32l-.05.1-1.88 2.8v2.78a.75.75 0 01-1.5.1v-3.1c0-.11.03-.22.07-.32l.06-.1 1.87-2.81V9.5h-6v3.52l1.88 2.81c.06.1.1.2.12.31v3.11a.75.75 0 01-1.49.1v-2.87l-1.88-2.82a.75.75 0 01-.12-.3V8.75c0-.38.28-.7.64-.74l.1-.01h.76V4.75c0-.38.28-.7.64-.74h4.6-4.5zM19 5.5h-3V8h3V5.5z"/></svg>