<svg width="20" height="20" viewBox="0 0 20 20" xmlns="http://www.w3.org/2000/svg"><path d="M3 5.5A2.5 2.5 0 0 1 5.5 3h9A2.5 2.5 0 0 1 17 5.5v2.13c-.44-.3-.95-.52-1.5-.6V5.5a1 1 0 0 0-1-1h-9a1 1 0 0 0-1 1v9a1 1 0 0 0 1 1H10v.44c0 .37.06.73.16 1.06H5.5A2.5 2.5 0 0 1 3 14.5v-9Zm15.57 9.03a1.5 1.5 0 0 0-1.12-.53h-4.9c-.46 0-.86.24-1.12.53-.26.29-.43.69-.43 1.09v.32c0 1.63 1.63 3.06 4 3.06 1.24 0 2.28-.4 2.99-1H15v-1h3.76c.15-.32.23-.65.24-1h-4v-1h3.87a1.78 1.78 0 0 0-.3-.47ZM15 13a2.5 2.5 0 1 1 2-4h-2v1h2.45a2.51 2.51 0 0 1 0 1H15v1h2c-.46.6-1.18 1-2 1Z"/></svg>