<svg width="16" height="16" viewBox="0 0 16 16" xmlns="http://www.w3.org/2000/svg"><path d="M6.3 3.22a4.8 4.8 0 0 1-.13.78h.32c1.01 0 1.73.98 1.44 1.94l-.76 2.61a2 2 0 0 1-2.5 1.36l-3.21-.97a1.5 1.5 0 0 1-.97-.92l-.4-1.06a1.5 1.5 0 0 1 .67-1.82l1-.57c.24-.14.44-.34.57-.59l1.2-2.24c.25-.44.8-.88 1.46-.7.56.16.91.5 1.11.94.19.4.22.85.2 1.24ZM9.82 12c-.06.22-.1.5-.12.78-.03.38 0 .83.19 1.24.2.43.55.78 1.11.93.66.2 1.21-.25 1.45-.7l1.21-2.23c.13-.25.33-.46.58-.6l1-.56a1.5 1.5 0 0 0 .65-1.82l-.39-1.07a1.5 1.5 0 0 0-.97-.91l-3.2-.97a2 2 0 0 0-2.5 1.36l-.77 2.6c-.3.97.43 1.95 1.44 1.95h.32Z"/></svg>