<svg width="16" height="16" viewBox="0 0 16 16" xmlns="http://www.w3.org/2000/svg"><path d="M4.42 2.21 3.2 4.46a2.5 2.5 0 0 1-.96.98l-1 .57a.5.5 0 0 0-.22.6l.4 1.07a.5.5 0 0 0 .32.3l3.2.98a1 1 0 0 0 1.26-.69c.22-.77.5-1.74.77-2.61A.51.51 0 0 0 6.49 5H5.5a.5.5 0 0 1-.46-.68 3.16 3.16 0 0 0 .1-.35c.07-.23.13-.52.15-.81.02-.3 0-.57-.1-.77a.68.68 0 0 0-.47-.38c-.03-.01-.07-.01-.13.02a.47.47 0 0 0-.17.18Zm1.87 1a4.8 4.8 0 0 1-.12.79h.32c1.01 0 1.73.98 1.44 1.94l-.76 2.61a2 2 0 0 1-2.5 1.36l-3.21-.97a1.5 1.5 0 0 1-.97-.92l-.4-1.06a1.5 1.5 0 0 1 .67-1.82l1-.57c.24-.14.44-.34.57-.59l1.2-2.24c.25-.44.8-.88 1.46-.7.56.16.91.5 1.11.94.19.4.22.85.2 1.24Zm5.3 10.57 1.2-2.24c.22-.41.55-.75.96-.98l1-.57a.5.5 0 0 0 .22-.6l-.4-1.07a.5.5 0 0 0-.32-.3l-3.2-.98a1 1 0 0 0-1.26.68c-.22.78-.5 1.74-.77 2.62-.1.33.15.66.49.66h.99a.5.5 0 0 1 .46.68 3.2 3.2 0 0 0-.1.35c-.07.22-.13.52-.15.81-.02.3 0 .57.1.76.08.18.2.32.47.4.03 0 .07 0 .13-.03s.12-.1.17-.19Zm-1.88-1c.02-.28.06-.56.12-.78H9.5a1.51 1.51 0 0 1-1.44-1.95l.76-2.6a2 2 0 0 1 2.5-1.36l3.21.97c.45.13.81.47.97.91l.4 1.07a1.5 1.5 0 0 1-.67 1.82l-1 .56a1.5 1.5 0 0 0-.57.6l-1.2 2.24c-.25.44-.8.88-1.46.7-.56-.16-.92-.51-1.11-.94a2.6 2.6 0 0 1-.2-1.24Z"/></svg>