<svg width="24" height="24" viewBox="0 0 24 24" xmlns="http://www.w3.org/2000/svg"><path d="M6.04 3.18c.27-.62 1.06-1.4 2.18-1.12.7.18 1.2.6 1.49 1.18.25.5.29 1.05.3 1.47 0 .4-.06.82-.14 1.21h.2c1.55 0 2.82 1.43 2.33 3l-1.15 3.64a2.88 2.88 0 0 1-3.58 1.82l-4.51-1.32a2.4 2.4 0 0 1-1.56-1.39l-.44-1.09a2.27 2.27 0 0 1 1.06-2.84l1.54-.85.03-.02A5.94 5.94 0 0 0 5.02 5.2c.17-.36.32-.64.45-.88.22-.4.38-.7.57-1.14Zm11.92 17.64c-.27.62-1.06 1.4-2.18 1.12-.7-.18-1.2-.6-1.49-1.18-.25-.5-.29-1.05-.3-1.47 0-.4.06-.82.14-1.21h-.2c-1.55 0-2.82-1.43-2.33-3l1.15-3.64a2.88 2.88 0 0 1 3.58-1.82l4.51 1.32c.7.2 1.29.71 1.56 1.39l.44 1.09a2.27 2.27 0 0 1-1.06 2.84l-1.54.85-.03.02a5.94 5.94 0 0 0-1.23 1.67c-.17.36-.32.64-.45.88-.22.4-.38.7-.57 1.14Z"/></svg>