<svg width="24" height="24" viewBox="0 0 24 24" xmlns="http://www.w3.org/2000/svg"><path d="M6.04 3.18c.27-.62 1.06-1.4 2.18-1.12.7.18 1.2.6 1.49 1.18.25.5.29 1.05.3 1.47 0 .4-.06.82-.14 1.21h.2c1.55 0 2.82 1.43 2.33 3l-1.15 3.64a2.88 2.88 0 0 1-3.58 1.82l-4.51-1.32a2.4 2.4 0 0 1-1.56-1.39l-.44-1.09a2.27 2.27 0 0 1 1.06-2.84l1.54-.85.03-.02A5.94 5.94 0 0 0 5.02 5.2c.17-.36.32-.64.45-.88.22-.4.38-.7.57-1.14ZM4.49 8.2l-1.55.85c-.4.22-.52.63-.39.97l.44 1.1c.1.22.3.41.59.5l4.51 1.32c.77.23 1.53-.2 1.73-.83l1.15-3.65c.14-.46-.21-1.04-.9-1.04H8.9a.75.75 0 0 1-.72-.97l.15-.54c.11-.43.19-.85.18-1.17 0-.37-.05-.64-.15-.84-.08-.17-.22-.31-.52-.39a.28.28 0 0 0-.23.04.52.52 0 0 0-.2.22c-.2.5-.4.86-.61 1.25-.14.25-.28.51-.44.85a7.42 7.42 0 0 1-1.64 2.17c-.05.04-.1.07-.12.1h-.02l-.02.02a.76.76 0 0 1-.07.04Zm13.47 12.62c-.27.62-1.06 1.4-2.18 1.12-.7-.18-1.2-.6-1.49-1.18-.25-.5-.29-1.05-.3-1.47 0-.4.06-.82.14-1.21h-.2c-1.55 0-2.82-1.43-2.33-3l1.15-3.64a2.88 2.88 0 0 1 3.58-1.82l4.51 1.32c.7.2 1.29.71 1.56 1.39l.44 1.09a2.27 2.27 0 0 1-1.06 2.84l-1.54.85-.03.02a5.94 5.94 0 0 0-1.23 1.67c-.17.36-.32.64-.45.88-.22.4-.38.7-.57 1.14Zm1.55-5.02 1.55-.85c.4-.22.52-.63.39-.97l-.44-1.1a.9.9 0 0 0-.59-.5l-4.51-1.32c-.77-.23-1.53.2-1.73.83l-1.15 3.65c-.14.46.21 1.04.9 1.04h1.17a.75.75 0 0 1 .72.97l-.15.54c-.11.43-.19.85-.18 1.17 0 .37.05.64.15.84.08.17.22.31.52.39.09.02.16 0 .23-.04a.52.52 0 0 0 .2-.22c.2-.5.4-.86.61-1.25.14-.25.28-.51.44-.85a7.42 7.42 0 0 1 1.64-2.17c.05-.04.1-.07.12-.1h.02l.02-.02a.74.74 0 0 1 .07-.04Z"/></svg>