<svg width="32" height="32" viewBox="0 0 32 32" xmlns="http://www.w3.org/2000/svg"><path d="M24.98 26.4l3.31 3.3a1 1 0 001.42-1.4l-26-26a1 1 0 00-1.42 1.4l7.14 7.15a9.1 9.1 0 00-.3.34A8.97 8.97 0 007 17.2V26a4 4 0 006.5 3.12 3.98 3.98 0 005 0 4 4 0 006.48-2.73zm-2.4-2.4l.42.41V26a2 2 0 01-3.67 1.1 1 1 0 00-1.66 0 2 2 0 01-3.34 0 1 1 0 00-1.66 0A2 2 0 019 26v-2h13.59zM25 17.2v4.26L14.54 11h5.2c-1.02-1.02-2.02-2.2-2.33-3.8h-2.9a6 6 0 01-1.22 2.55l-1.43-1.43c.35-.48.58-.97.68-1.51A2.5 2.5 0 0113.5 2h5a2.5 2.5 0 01.88 4.84c.2 1.02.88 1.86 1.9 2.87a8.99 8.99 0 013.72 7.4v.09zM13.5 4a.5.5 0 000 1h5a.5.5 0 000-1h-5z"/></svg>