<svg width="32" height="32" viewBox="0 0 32 32" xmlns="http://www.w3.org/2000/svg"><path d="M9.43 10.85L2.3 3.7a1 1 0 011.42-1.42l26 26a1 1 0 01-1.42 1.42L25 26.39a4 4 0 01-6.49 2.73 3.98 3.98 0 01-5 0A4 4 0 017 26v-8.8a4.2 4.2 0 010-.2 8.97 8.97 0 012.43-6.15zM22.6 24H9v2a2 2 0 003.67 1.1 1 1 0 011.66 0 2 2 0 003.34 0 1 1 0 011.66 0A2 2 0 0023 26v-1.59l-.41-.41zm-2-2l-9-9h-1.34A6.96 6.96 0 009 17.2V22h11.59zM23 17.2v2.26l2 2V17.2v-.08V17c0-3-1.47-5.65-3.71-7.29-1.03-1.01-1.71-1.85-1.91-2.87A2.5 2.5 0 0018.5 2h-5a2.5 2.5 0 00-.96 4.81c-.1.54-.33 1.03-.68 1.51l1.43 1.43A6 6 0 0014.5 7.2h2.91c.3 1.6 1.31 2.78 2.33 3.8h-5.2l2 2h5.2A6.97 6.97 0 0123 17.1v.03a.6.6 0 000 .06v.01zM13 4.5c0-.28.22-.5.5-.5h5a.5.5 0 010 1h-5a.5.5 0 01-.5-.5z"/></svg>