<svg width="24" height="24" viewBox="0 0 24 24" xmlns="http://www.w3.org/2000/svg"><path d="M13.25 4.5a.75.75 0 0 0 0-1.5h-2.5a.75.75 0 0 0 0 1.5h2.5ZM3.75 10c.41 0 .75.34.75.75v2.5a.75.75 0 0 1-1.5 0v-2.5c0-.41.34-.75.75-.75Zm16.5 0a.75.75 0 0 0-.75.75v2.5a.75.75 0 0 0 1.5 0v-2.5a.75.75 0 0 0-.75-.75ZM3.75 21a.75.75 0 0 1 0-1.5h16.5a.75.75 0 0 1 0 1.5H3.75ZM3 17.75c0 .41.34.75.75.75h16.5a.75.75 0 0 0 0-1.5H3.75a.75.75 0 0 0-.75.75Zm4-14A.75.75 0 0 0 6.25 3h-.5A2.75 2.75 0 0 0 3 5.75v.5a.75.75 0 0 0 1.5 0v-.5c0-.69.56-1.25 1.25-1.25h.5c.41 0 .75-.34.75-.75ZM17.75 3a.75.75 0 0 0 0 1.5h.5c.69 0 1.25.56 1.25 1.25v.5a.75.75 0 0 0 1.5 0v-.5A2.75 2.75 0 0 0 18.25 3h-.5Z"/></svg>