<svg width="20" height="20" viewBox="0 0 20 20" xmlns="http://www.w3.org/2000/svg"><path d="M8 3.75c0-.41.34-.75.75-.75h2.5a.75.75 0 010 1.5h-2.5A.75.75 0 018 3.75zm-2.55.85a1.5 1.5 0 00-.88.94.75.75 0 01-1.38-.58 3 3 0 011.77-1.77.75.75 0 11.5 1.41zm9.95.85a1.5 1.5 0 00-.94-.88.75.75 0 01.58-1.38 3 3 0 011.78 1.77h-.01a.75.75 0 11-1.41.49zM3.75 11a.75.75 0 01-.75-.75v-1.5a.75.75 0 011.5 0v1.5c0 .41-.34.75-.75.75zm11.75-.75a.75.75 0 001.5 0v-1.5a.75.75 0 00-1.5 0v1.5zm-12.5 6c0-.41.34-.75.75-.75h12.5a.75.75 0 010 1.5H3.75a.75.75 0 01-.75-.75zM3.75 13a.75.75 0 000 1.5h12.5a.75.75 0 000-1.5H3.75z"/></svg>