<svg width="20" height="20" viewBox="0 0 20 20" xmlns="http://www.w3.org/2000/svg"><path d="M6 15V5a2 2 0 0 0-2-2H2.5a.5.5 0 1 0 0 1H4a1 1 0 0 1 1 1v2H2.5a.5.5 0 1 0 0 1H5v4H2.5a.5.5 0 0 0 0 1H5v2a1 1 0 0 1-1 1H2.5a.5.5 0 0 0 0 1H4a2 2 0 0 0 2-2Zm11.85-4.15a.5.5 0 0 1-.35.15H15v2a1 1 0 0 0 1 1h1.5a.5.5 0 0 1 0 1H16a2 2 0 0 1-2-2V8a2 2 0 0 1 2-2h1.5a.5.5 0 0 1 0 1H16a1 1 0 0 0-1 1v2h2.5a.5.5 0 0 1 .35.85ZM10 11.5a.5.5 0 0 1 .15-.35l.64-.65H8a.5.5 0 0 1 0-1h2.8l-.65-.65a.5.5 0 1 1 .7-.7l1.5 1.5a.5.5 0 0 1 0 .7l-1.5 1.5a.5.5 0 0 1-.85-.35Z"/></svg>