<svg width="16" height="16" viewBox="0 0 16 16" xmlns="http://www.w3.org/2000/svg"><path d="M6 1a2 2 0 0 0-2 2v3h1V3a1 1 0 0 1 1-1h3v2.5c0 .83.67 1.5 1.5 1.5H13v7a1 1 0 0 1-1 1h-1.04c-.05.35-.15.69-.3 1H12a2 2 0 0 0 2-2V5.41c0-.4-.16-.78-.44-1.06l-2.91-2.91A1.5 1.5 0 0 0 9.59 1H6Zm6.8 4h-2.3a.5.5 0 0 1-.5-.5V2.2L12.8 5ZM1 9.5A2.5 2.5 0 0 1 3.5 7h4A2.5 2.5 0 0 1 10 9.5v4c0 .5-.15.98-.41 1.38l-3.03-3.03a1.5 1.5 0 0 0-2.12 0L1.4 14.88C1.15 14.48 1 14 1 13.5v-4Zm7 .25a.75.75 0 1 0-1.5 0 .75.75 0 0 0 1.5 0Zm-5.88 5.84c.4.26.87.41 1.38.41h4c.51 0 .98-.15 1.38-.41l-3.03-3.03a.5.5 0 0 0-.7 0L2.12 15.6Z"/></svg>