<svg width="20" height="20" viewBox="0 0 20 20" xmlns="http://www.w3.org/2000/svg"><path d="M10 2v4.5c0 .83.67 1.5 1.5 1.5H16v8.5c0 .83-.67 1.5-1.5 1.5h-3.84c.22-.45.34-.96.34-1.5v-4A3.5 3.5 0 0 0 7.5 9H4V3.5C4 2.67 4.67 2 5.5 2H10Zm1 .25V6.5c0 .28.22.5.5.5h4.25L11 2.25ZM1 12.5A2.5 2.5 0 0 1 3.5 10h4a2.5 2.5 0 0 1 2.5 2.5v4c0 .5-.15.98-.41 1.38l-3.03-3.03a1.5 1.5 0 0 0-2.12 0L1.4 17.88C1.15 17.48 1 17 1 16.5v-4Zm7 .25a.75.75 0 1 0-1.5 0 .75.75 0 0 0 1.5 0Zm-5.88 5.84c.4.26.87.41 1.38.41h4c.51 0 .98-.15 1.38-.41l-3.03-3.03a.5.5 0 0 0-.7 0L2.12 18.6Z"/></svg>