<svg width="20" height="20" viewBox="0 0 20 20" xmlns="http://www.w3.org/2000/svg"><path d="M2 6.5A2.5 2.5 0 0 1 4.5 4h11A2.5 2.5 0 0 1 18 6.5v3.76a5.48 5.48 0 0 0-5.8-.76H5.5a.5.5 0 0 0 0 1h5.23c-.46.43-.84.94-1.13 1.5H5.5a.5.5 0 0 0 0 1h3.7a5.5 5.5 0 0 0 0 3H4.5A2.5 2.5 0 0 1 2 13.5v-7Zm3.5.5a.5.5 0 0 0 0 1h4a.5.5 0 0 0 0-1h-4ZM19 14.5a4.5 4.5 0 1 1-9 0 4.5 4.5 0 0 1 9 0Zm-2.15.35a.5.5 0 0 0 .15-.35.5.5 0 0 0-.15-.35l-2-2a.5.5 0 0 0-.7.7L15.29 14H12.5a.5.5 0 0 0 0 1h2.8l-1.15 1.15a.5.5 0 0 0 .7.7l2-2Z"/></svg>