<svg width="16" height="16" viewBox="0 0 16 16" xmlns="http://www.w3.org/2000/svg"><path d="M6.35 6.15c.2.2.2.5 0 .7l-.64.65h4.58l-.64-.65a.5.5 0 1 1 .7-.7l1.5 1.5c.2.2.2.5 0 .7l-1.5 1.5a.5.5 0 0 1-.7-.7l.64-.65H5.71l.64.65a.5.5 0 1 1-.7.7l-1.5-1.5a.5.5 0 0 1 0-.7l1.5-1.5c.2-.2.5-.2.7 0ZM4.5 2A2.5 2.5 0 0 0 2 4.5v7A2.5 2.5 0 0 0 4.5 14h7a2.5 2.5 0 0 0 2.5-2.5v-7A2.5 2.5 0 0 0 11.5 2h-7Zm8.41 2H3.1c.2-.58.76-1 1.41-1h7c.65 0 1.2.42 1.41 1ZM3 5h10v6H3V5Zm.09 7h9.82c-.2.58-.76 1-1.41 1h-7a1.5 1.5 0 0 1-1.41-1Z"/></svg>