<svg width="24" height="24" viewBox="0 0 24 24" xmlns="http://www.w3.org/2000/svg"><path d="M6.25 3h8.25v18H6.25A3.25 3.25 0 013 17.75V6.25C3 4.45 4.46 3 6.25 3zm11.5 18H16v-5h5v1.75c0 1.8-1.46 3.25-3.25 3.25zM21 14.5h-5v-5h5v5zM16 8V3h1.75C19.55 3 21 4.46 21 6.25V8h-5zM6 13.75c0 .41.34.75.75.75h4.5a.75.75 0 000-1.5h-4.5a.75.75 0 00-.75.75zM7.25 6.5C6.56 6.5 6 7.06 6 7.75v2.5c0 .69.56 1.25 1.25 1.25h3.5c.69 0 1.25-.56 1.25-1.25v-2.5c0-.69-.56-1.25-1.25-1.25h-3.5zM7.5 10V8h3v2h-3zM6 16.75c0 .41.34.75.75.75h4.5a.75.75 0 000-1.5h-4.5a.75.75 0 00-.75.75z"/></svg>