<svg width="28" height="28" viewBox="0 0 28 28" xmlns="http://www.w3.org/2000/svg"><path d="M3 6.75A3.75 3.75 0 016.75 3h14.5A3.75 3.75 0 0125 6.75v14.5A3.75 3.75 0 0121.25 25H6.75A3.75 3.75 0 013 21.25V6.75zM6.75 4.5c-1.24 0-2.25 1-2.25 2.25v14.5c0 1.24 1 2.25 2.25 2.25H16v-19H6.75zm14.5 19c1.24 0 2.25-1 2.25-2.25V18.5h-6v5h3.75zM23.5 17v-6h-6v6h6zm0-7.5V6.75c0-1.24-1-2.25-2.25-2.25H17.5v5h6zm-15.75-2c-.69 0-1.25.56-1.25 1.25v3.5c0 .69.56 1.25 1.25 1.25h5c.69 0 1.25-.56 1.25-1.25v-3.5c0-.69-.56-1.25-1.25-1.25h-5zM8 12V9h4.5v3H8zm-1.5 4.25c0-.41.34-.75.75-.75h6a.75.75 0 010 1.5h-6a.75.75 0 01-.75-.75zM7.25 19a.75.75 0 000 1.5h6a.75.75 0 000-1.5h-6z"/></svg>