<svg width="24" height="24" viewBox="0 0 24 24" xmlns="http://www.w3.org/2000/svg"><path d="M3 6.25C3 4.45 4.46 3 6.25 3h11.5C19.55 3 21 4.46 21 6.25v11.5c0 1.8-1.46 3.25-3.25 3.25H6.25A3.25 3.25 0 013 17.75V6.25zM6.25 4.5c-.97 0-1.75.78-1.75 1.75v11.5c0 .97.78 1.75 1.75 1.75h7.25v-15H6.25zm11.5 15c.97 0 1.75-.78 1.75-1.75V16H15v3.5h2.75zm1.75-5v-5H15v5h4.5zm0-6.5V6.25c0-.97-.78-1.75-1.75-1.75H15V8h4.5zM6 13.75c0-.41.34-.75.75-.75h4.5a.75.75 0 010 1.5h-4.5a.75.75 0 01-.75-.75zM7.25 6.5C6.56 6.5 6 7.06 6 7.75v2.5c0 .69.56 1.25 1.25 1.25h3.5c.69 0 1.25-.56 1.25-1.25v-2.5c0-.69-.56-1.25-1.25-1.25h-3.5zM7.5 10V8h3v2h-3zM6 16.75c0-.41.34-.75.75-.75h4.5a.75.75 0 010 1.5h-4.5a.75.75 0 01-.75-.75z"/></svg>