<svg width="28" height="28" viewBox="0 0 28 28" xmlns="http://www.w3.org/2000/svg"><path d="M6.75 3H17v22H6.75A3.75 3.75 0 013 21.25V6.75A3.75 3.75 0 016.75 3zM18.5 17v-6H25v6h-6.5zm0 8v-6.5H25v2.75A3.75 3.75 0 0121.25 25H18.5zm0-22v6.5H25V6.75A3.75 3.75 0 0021.25 3H18.5zM7.75 7.5c-.69 0-1.25.56-1.25 1.25v3.5c0 .69.56 1.25 1.25 1.25h5c.69 0 1.25-.56 1.25-1.25v-3.5c0-.69-.56-1.25-1.25-1.25h-5zM8 12V9h4.5v3H8zm-1.5 4.25c0 .41.34.75.75.75h6a.75.75 0 000-1.5h-6a.75.75 0 00-.75.75zM7.25 19a.75.75 0 000 1.5h6a.75.75 0 000-1.5h-6z"/></svg>