<svg width="16" height="16" viewBox="0 0 16 16" xmlns="http://www.w3.org/2000/svg"><path d="M11.5 2A2.5 2.5 0 0 1 14 4.5v1.76A5.48 5.48 0 0 0 10.5 5H13v-.5c0-.83-.67-1.5-1.5-1.5h-7C3.67 3 3 3.67 3 4.5V5h7.5c-1.18 0-2.27.37-3.16 1H3v5.5c0 .83.67 1.5 1.5 1.5h1.1c.18.36.4.7.66 1H4.5A2.5 2.5 0 0 1 2 11.5v-7A2.5 2.5 0 0 1 4.5 2h7Zm3.5 8.5a4.5 4.5 0 1 1-9 0 4.5 4.5 0 0 1 9 0Zm-4.5 1.88a.62.62 0 1 0 0 1.25.62.62 0 0 0 0-1.25Zm0-4.88c-1.05 0-1.86.82-1.85 1.96a.5.5 0 0 0 1-.01c0-.58.36-.95.85-.95.47 0 .85.4.85.95 0 .2-.07.32-.36.55l-.27.21c-.51.4-.72.72-.72 1.29a.5.5 0 0 0 1 .09v-.16c.02-.14.1-.25.35-.44l.28-.22c.5-.4.72-.73.72-1.32 0-1.1-.82-1.95-1.85-1.95Z"/></svg>