<svg width="24" height="24" viewBox="0 0 24 24" xmlns="http://www.w3.org/2000/svg"><path d="M8.75 11c.41 0 .75.34.75.75v6.5a.75.75 0 0 1-1.5 0v-6.5c0-.41.34-.75.75-.75Zm4 4.75a.75.75 0 0 0-1.5 0v2.5a.75.75 0 0 0 1.5 0v-2.5Zm2.5-2.75c.41 0 .75.34.75.75v4.5a.75.75 0 0 1-1.5 0v-4.5c0-.41.34-.75.75-.75ZM12.48 2c.33 0 .65.13.89.37l2.85 2.85.02.03 3.17 3.16A2 2 0 0 1 20 9.83V20a2 2 0 0 1-2 2H6a2 2 0 0 1-2-2V4c0-1.1.9-2 2-2h6.48ZM6 3.5a.5.5 0 0 0-.5.5v16c0 .27.22.5.5.5h12a.5.5 0 0 0 .5-.5V10H14a2 2 0 0 1-2-2V3.5H6Zm7.5 1.12V8c0 .28.22.5.5.5h3.38L13.5 4.62Z"/></svg>