<svg width="28" height="28" viewBox="0 0 28 28" xmlns="http://www.w3.org/2000/svg"><path d="M14.07 24.37c.3.49.65.94 1.04 1.35-.97.18-2 .28-3.11.28-5.79 0-10-2.57-10-6.29V19a3 3 0 013-3h9.5c-.35.46-.64.96-.88 1.5H5c-.78 0-1.42.6-1.5 1.36v.85c0 2.68 3.39 4.79 8.5 4.79.73 0 1.42-.05 2.07-.13zM12 2a6 6 0 110 12 6 6 0 010-12zm0 1.5a4.5 4.5 0 100 9 4.5 4.5 0 000-9zm2 17a6.5 6.5 0 1013 0 6.5 6.5 0 00-13 0zm5.35-4.08a4 4 0 014.65 1.9v-.82a.5.5 0 011 0v2a.5.5 0 01-.5.5h-2a.5.5 0 010-1h.73a3 3 0 00-4.85-.87.5.5 0 01-.7-.7 4 4 0 011.67-1.01zm2.3 8.16a4 4 0 01-4.65-1.9v.82a.5.5 0 01-1 0v-2c0-.28.22-.5.5-.5h2a.5.5 0 010 1h-.73a3 3 0 004.85.87.5.5 0 01.7.7 4 4 0 01-1.67 1.01z"/></svg>