<svg width="24" height="24" viewBox="0 0 24 24" xmlns="http://www.w3.org/2000/svg"><path d="M11.31 15.5c.18-.53.42-1.04.71-1.5H6.25C5.01 14 4 15 4 16.25v.58c0 .89.32 1.75.9 2.43C6.47 21.1 8.85 22 12 22c.27 0 .53 0 .8-.02a6.52 6.52 0 01-1.07-1.48c-2.6-.05-4.48-.8-5.69-2.21-.34-.41-.54-.93-.54-1.46v-.58c0-.42.34-.75.75-.75h5.06zM12 2a5 5 0 110 10 5 5 0 010-10zm0 1.5a3.5 3.5 0 100 7 3.5 3.5 0 000-7zm0 14a5.5 5.5 0 1011 0 5.5 5.5 0 00-11 0zm8.5-3.5c.28 0 .5.22.5.5v2a.5.5 0 01-.5.5h-2a.5.5 0 010-1h1a2.5 2.5 0 00-4.03.04.5.5 0 01-.8-.59 3.5 3.5 0 015.33-.4v-.55c0-.28.22-.5.5-.5zM15 19.95v.55a.5.5 0 01-1 0v-2c0-.28.22-.5.5-.5h2a.5.5 0 010 1h-1a2.5 2.5 0 003.91.11.5.5 0 01.77.65 3.5 3.5 0 01-5.18.19z"/></svg>