<svg width="48" height="48" viewBox="0 0 48 48" xmlns="http://www.w3.org/2000/svg"><path d="M22 4a10 10 0 100 20 10 10 0 000-20zm-7.5 10a7.5 7.5 0 1115 0 7.5 7.5 0 01-15 0zm-4.25 14A4.25 4.25 0 006 32.25V33c0 3.76 1.94 6.57 4.92 8.38C13.85 43.16 17.79 44 22 44c1.17 0 2.32-.06 3.43-.2-.65-.71-1.23-1.5-1.72-2.35-.56.03-1.13.05-1.71.05-3.93 0-7.37-.79-9.78-2.26C9.86 37.81 8.5 35.74 8.5 33v-.75c0-.97.78-1.75 1.75-1.75H22.8c.33-.88.74-1.72 1.24-2.5H10.25zM24 35a11 11 0 1022 0 11 11 0 00-22 0zm8.65-7.1A7 7 0 0140 29.6V29a1 1 0 112 0v3a1 1 0 01-1 1h-3a1 1 0 110-2h.57a5 5 0 00-7.1-.04 1 1 0 01-1.42-1.41 7 7 0 012.6-1.64zm4.7 14.2A7 7 0 0130 40.4v.6a1 1 0 11-2 0v-3a1 1 0 011-1h3a1 1 0 110 2h-.57a5 5 0 007.1.04 1 1 0 011.42 1.41 7 7 0 01-2.6 1.64z"/></svg>