<svg width="20" height="20" viewBox="0 0 20 20" xmlns="http://www.w3.org/2000/svg"><path d="M9 2a4 4 0 100 8 4 4 0 000-8zM6 6a3 3 0 116 0 3 3 0 01-6 0zm-2 5a2 2 0 00-2 2c0 1.7.83 2.97 2.13 3.8A9.14 9.14 0 009 18c.41 0 .82-.02 1.21-.06A5.5 5.5 0 019.6 17 12 12 0 019 17a8.16 8.16 0 01-4.33-1.05A3.36 3.36 0 013 13a1 1 0 011-1h5.6c.18-.36.4-.7.66-1H4zm6 3.5a4.5 4.5 0 109 0 4.5 4.5 0 00-9 0zm6.5-3c.28 0 .5.22.5.5v1.5a.5.5 0 01-.5.5H15a.5.5 0 010-1h.47a1.97 1.97 0 00-.94-.25 2 2 0 00-1.44.59.5.5 0 01-.71-.71 3 3 0 013.62-.48V12c0-.28.22-.5.5-.5zm-.88 5.53a3 3 0 01-2.62-.18V17a.5.5 0 01-1 0v-1.5c0-.28.22-.5.5-.5H14a.5.5 0 010 1h-.47a1.97 1.97 0 00.94.25 2 2 0 001.44-.59.5.5 0 01.71.71 3 3 0 01-1 .66z"/></svg>