<svg width="16" height="16" viewBox="0 0 16 16" xmlns="http://www.w3.org/2000/svg"><path d="M9.63 5.07a2.75 2.75 0 10-3.3 1.85 5.53 5.53 0 013.3-1.85zM5.6 8a5.46 5.46 0 00.42 5.69l.2.27C3.55 13.66 2 11.8 2 10v-.5C2 8.67 2.67 8 3.5 8h2.1zm.4 2.5a4.5 4.5 0 109 0 4.5 4.5 0 00-9 0zm6.5-3c.28 0 .5.22.5.5v1.5a.5.5 0 01-.5.5H11a.5.5 0 010-1h.47a1.98 1.98 0 00-1.72-.1 2 2 0 00-.66.44.5.5 0 01-.71-.71A3 3 0 0112 8.15V8c0-.28.22-.5.5-.5zm-.88 5.53A3 3 0 019 12.85V13a.5.5 0 01-1 0v-1.5c0-.28.22-.5.5-.5H10a.5.5 0 010 1h-.47a1.99 1.99 0 002.38-.34.5.5 0 01.71.71 3 3 0 01-1 .66z"/></svg>