<svg width="32" height="32" viewBox="0 0 32 32" xmlns="http://www.w3.org/2000/svg"><path d="M15 16a7 7 0 100-14 7 7 0 000 14zm-8.5 2A3.5 3.5 0 003 21.5v.5c0 2.4 1.52 4.42 3.68 5.8A15.67 15.67 0 0015 30c.74 0 1.47-.04 2.19-.13A8.98 8.98 0 0115.52 18H6.5zm24 5a7.5 7.5 0 11-15 0 7.5 7.5 0 0115 0zm-2.75 0c.41 0 .75-.34.75-.75v-2.5a.75.75 0 00-1.5 0v1.19a4.5 4.5 0 00-6.8-1.47c-.43.35-.28.99.2 1.23.26.13.57.07.8-.1a2.99 2.99 0 014.4.9h-.85a.75.75 0 000 1.5h3zm-2.17 2.58c-.26-.26-.66-.25-.96-.06a2.99 2.99 0 01-4.22-1.02h.85a.75.75 0 000-1.5h-3a.75.75 0 00-.75.75v2.5a.75.75 0 001.5 0v-1.19a4.5 4.5 0 006.52 1.67c.4-.27.4-.82.06-1.15z"/></svg>