<svg width="48" height="48" viewBox="0 0 48 48" xmlns="http://www.w3.org/2000/svg"><path d="M22 4a10 10 0 100 20 10 10 0 000-20zM10.25 28A4.25 4.25 0 006 32.25V33c0 3.76 1.94 6.57 4.92 8.38C13.85 43.16 17.79 44 22 44c1.17 0 2.32-.06 3.43-.2A12.95 12.95 0 0124.04 28H10.25zM24 35a11 11 0 1022 0 11 11 0 00-22 0zm8.65-7.1A7 7 0 0140 29.6V29a1 1 0 112 0v3a1 1 0 01-1 1h-3a1 1 0 110-2h.57a5 5 0 00-7.1-.04 1 1 0 01-1.42-1.41 7 7 0 012.6-1.64zm4.7 14.2A7 7 0 0130 40.4v.6a1 1 0 11-2 0v-3a1 1 0 011-1h3a1 1 0 110 2h-.57a5 5 0 007.1.04 1 1 0 011.42 1.41 7 7 0 01-2.6 1.64z"/></svg>