<svg width="32" height="32" viewBox="0 0 32 32" xmlns="http://www.w3.org/2000/svg"><path d="M22 9A7 7 0 118 9a7 7 0 0114 0zm-2 0a5 5 0 10-10 0 5 5 0 0010 0zM6.5 18A3.5 3.5 0 003 21.5v.5c0 2.4 1.52 4.42 3.68 5.8A15.67 15.67 0 0015 30c.74 0 1.47-.04 2.19-.13a9.05 9.05 0 01-1.68-1.88L15 28c-2.88 0-5.43-.74-7.24-1.9C5.94 24.96 5 23.48 5 22v-.5c0-.83.67-1.5 1.5-1.5h8.01c.25-.71.6-1.38 1-2H6.5zm24 5a7.5 7.5 0 11-15 0 7.5 7.5 0 0115 0zm-2.75 0c.41 0 .75-.34.75-.75v-2.5a.75.75 0 00-1.5 0v1.19a4.5 4.5 0 00-6.8-1.47c-.43.35-.28.99.2 1.23.26.13.57.07.8-.1a2.99 2.99 0 014.4.9h-.85a.75.75 0 000 1.5h3zm-2.17 2.58c-.26-.26-.66-.25-.96-.06a2.99 2.99 0 01-4.22-1.02h.85a.75.75 0 000-1.5h-3a.75.75 0 00-.75.75v2.5a.75.75 0 001.5 0v-1.19a4.5 4.5 0 006.52 1.67c.4-.27.4-.82.06-1.15z"/></svg>