<svg width="20" height="20" viewBox="0 0 20 20" xmlns="http://www.w3.org/2000/svg"><path d="M9 2a4 4 0 1 0 0 8 4 4 0 0 0 0-8Zm-5 9a2 2 0 0 0-2 2c0 1.7.83 2.97 2.13 3.8A9.14 9.14 0 0 0 9 18c.41 0 .82-.02 1.21-.06a5.48 5.48 0 0 1 .05-6.94H4Zm6 3.5a4.5 4.5 0 1 0 9 0 4.5 4.5 0 0 0-9 0Zm6.5-3c.28 0 .5.22.5.5v1.5a.5.5 0 0 1-.5.5H15a.5.5 0 0 1 0-1h.47a1.97 1.97 0 0 0-.94-.25 2 2 0 0 0-1.44.59.5.5 0 0 1-.71-.71 3 3 0 0 1 3.62-.48V12c0-.28.22-.5.5-.5Zm-.88 5.53a3 3 0 0 1-2.62-.18V17a.5.5 0 0 1-1 0v-1.5c0-.28.22-.5.5-.5H14a.5.5 0 0 1 0 1h-.47a1.97 1.97 0 0 0 .94.25 2 2 0 0 0 1.44-.59.5.5 0 0 1 .71.71 3 3 0 0 1-1 .66Z"/></svg>