<svg width="16" height="16" viewBox="0 0 16 16" xmlns="http://www.w3.org/2000/svg"><path d="M2 10c0 1.8 1.55 3.65 4.22 3.96a5.5 5.5 0 01-.72-1.16C3.88 12.33 3 11.13 3 10v-.5c0-.28.22-.5.5-.5h1.7c.1-.35.24-.68.4-1H3.5C2.67 8 2 8.67 2 9.5v.5zm7.75-5.75c0 .29-.04.56-.12.82-.49.08-.95.22-1.39.41A1.74 1.74 0 007 2.5a1.75 1.75 0 10.4 3.45c-.4.28-.76.6-1.07.97a2.75 2.75 0 113.42-2.67zM6 10.5a4.5 4.5 0 109 0 4.5 4.5 0 00-9 0zm6.5-3c.28 0 .5.22.5.5v1.5a.5.5 0 01-.5.5H11a.5.5 0 010-1h.47a1.98 1.98 0 00-1.72-.1 2 2 0 00-.66.44.5.5 0 01-.71-.71A3 3 0 0112 8.15V8c0-.28.22-.5.5-.5zm-.88 5.53A3 3 0 019 12.85V13a.5.5 0 01-1 0v-1.5c0-.28.22-.5.5-.5H10a.5.5 0 010 1h-.47a1.99 1.99 0 002.38-.34.5.5 0 01.71.71 3 3 0 01-1 .66z"/></svg>