<svg width="24" height="24" viewBox="0 0 24 24" xmlns="http://www.w3.org/2000/svg"><path d="M17.5 12a5.5 5.5 0 1 1 0 11 5.5 5.5 0 0 1 0-11Zm-2.48 3.02a.5.5 0 0 0 0 .71l1.77 1.77-1.76 1.77a.5.5 0 1 0 .7.7l1.77-1.76 1.77 1.77a.5.5 0 1 0 .7-.71l-1.76-1.77 1.77-1.77a.5.5 0 0 0-.7-.7l-1.78 1.76-1.77-1.77a.5.5 0 0 0-.7 0ZM17.75 3C19.55 3 21 4.46 21 6.25v5.77c-.46-.3-.97-.53-1.5-.7V8.5h-15v9.25c0 .97.78 1.75 1.75 1.75h5.06c.18.53.42 1.04.71 1.5H6.25A3.25 3.25 0 0 1 3 17.75V6.25C3 4.45 4.46 3 6.25 3h11.5Zm0 1.5H6.25c-.97 0-1.75.78-1.75 1.75V7h15v-.75c0-.97-.78-1.75-1.75-1.75Z"/></svg>