<svg width="24" height="24" viewBox="0 0 24 24" xmlns="http://www.w3.org/2000/svg"><path d="M5.75 3A2.75 2.75 0 003 5.75v4.79c.45-.27.96-.44 1.5-.5V5.74c0-.69.56-1.25 1.25-1.25H11v1.25C11 6.99 12 8 13.25 8h6.25v10.25c0 .69-.56 1.25-1.25 1.25h-4.28a3.98 3.98 0 01-.5 1.5h4.78A2.75 2.75 0 0021 18.25V5.75A2.75 2.75 0 0018.25 3H5.75zM19.5 6.5h-6.25a.75.75 0 01-.75-.75V4.5h5.75c.69 0 1.25.56 1.25 1.25v.75zM5 11a3 3 0 00-3 3v5c0 .56.15 1.08.42 1.52l3.49-3.49c.88-.88 2.3-.88 3.18 0l3.5 3.5c.26-.45.41-.97.41-1.53v-5a3 3 0 00-3-3H5zm0 11c-.56 0-1.08-.15-1.52-.42l3.49-3.49c.3-.3.77-.3 1.06 0l3.5 3.5c-.45.26-.97.41-1.53.41H5zm5-7a1 1 0 110-2 1 1 0 010 2z"/></svg>