<svg width="16" height="16" viewBox="0 0 16 16" xmlns="http://www.w3.org/2000/svg"><path d="M7 2H4a2 2 0 00-2 2v1.34c.45-.22.96-.34 1.5-.34h4A3.5 3.5 0 0111 8.5v4c0 .54-.12 1.05-.34 1.5H12a2 2 0 002-2V5H8.5A1.5 1.5 0 017 3.5V2zm7 2a2 2 0 00-2-2H8v1.5c0 .28.22.5.5.5H14zM1 8.5A2.5 2.5 0 013.5 6h4A2.5 2.5 0 0110 8.5v4c0 .5-.15.98-.41 1.38l-3.03-3.03a1.5 1.5 0 00-2.12 0L1.4 13.88C1.15 13.48 1 13 1 12.5v-4zm7 .25a.75.75 0 10-1.5 0 .75.75 0 001.5 0zm-5.88 5.84c.4.26.87.41 1.38.41h4c.51 0 .98-.15 1.38-.41l-3.03-3.03a.5.5 0 00-.7 0L2.12 14.6z"/></svg>