<svg width="20" height="20" viewBox="0 0 20 20" xmlns="http://www.w3.org/2000/svg"><path d="M5.5 3A2.5 2.5 0 003 5.5v2.84c.45-.22.96-.34 1.5-.34h4a3.5 3.5 0 013.5 3.5v4c0 .54-.12 1.05-.34 1.5h2.84a2.5 2.5 0 002.5-2.5V7H9.5A1.5 1.5 0 018 5.5V3H5.5zM9 3v2.5c0 .28.22.5.5.5H17v-.5A2.5 2.5 0 0014.5 3H9zm-7 8.5A2.5 2.5 0 014.5 9h4a2.5 2.5 0 012.5 2.5v4c0 .5-.15.98-.41 1.38l-3.03-3.03a1.5 1.5 0 00-2.12 0L2.4 16.88C2.15 16.48 2 16 2 15.5v-4zm7 .25a.75.75 0 10-1.5 0 .75.75 0 001.5 0zm-5.88 5.84c.4.26.87.41 1.38.41h4c.51 0 .98-.15 1.38-.41l-3.03-3.03a.5.5 0 00-.7 0L3.12 17.6z"/></svg>