<svg width="16" height="16" viewBox="0 0 16 16" xmlns="http://www.w3.org/2000/svg"><path d="M4 2a2 2 0 00-2 2v1.34c.31-.15.65-.25 1-.3V4a1 1 0 011-1h3v.5C7 4.33 7.67 5 8.5 5H13v7a1 1 0 01-1 1h-1.04c-.05.35-.15.69-.3 1H12a2 2 0 002-2V4a2 2 0 00-2-2H4zm9 2H8.5a.5.5 0 01-.5-.5V3h4a1 1 0 011 1zM1 8.5A2.5 2.5 0 013.5 6h4A2.5 2.5 0 0110 8.5v4c0 .5-.15.98-.41 1.38l-3.03-3.03a1.5 1.5 0 00-2.12 0L1.4 13.88C1.15 13.48 1 13 1 12.5v-4zm7 .25a.75.75 0 10-1.5 0 .75.75 0 001.5 0zm-5.88 5.84c.4.26.87.41 1.38.41h4c.51 0 .98-.15 1.38-.41l-3.03-3.03a.5.5 0 00-.7 0L2.12 14.6z"/></svg>