<svg width="24" height="24" viewBox="0 0 24 24" xmlns="http://www.w3.org/2000/svg"><path d="M11 3H6a3 3 0 00-3 3v4.54A3.98 3.98 0 015 10h5a4 4 0 014 4v5c0 .73-.2 1.41-.54 2H18a3 3 0 003-3V8h-7.75C12.01 8 11 7 11 5.75V3zm10 3.5V6a3 3 0 00-3-3h-5.5v2.75c0 .41.34.75.75.75H21zM5 11a3 3 0 00-3 3v5c0 .56.15 1.08.42 1.52l3.49-3.49c.88-.88 2.3-.88 3.18 0l3.5 3.5c.26-.45.41-.97.41-1.53v-5a3 3 0 00-3-3H5zm0 11c-.56 0-1.08-.15-1.52-.42l3.49-3.49c.3-.3.77-.3 1.06 0l3.5 3.5c-.45.26-.97.41-1.53.41H5zm5-7a1 1 0 110-2 1 1 0 010 2z"/></svg>